<svg xmlns="http://www.w3.org/2000/svg" viewBox="0 0 600 700" preserveAspectRatio="xMidYMid meet">
  <rect width="600" height="700" fill="white"/>
  <!-- Sol -->
  <circle cx="480" cy="100" r="55" fill="none" stroke="#1A1A1A" stroke-width="4"/>
  <!-- Terra -->
  <path d="M 0 520 Q 150 500 300 520 Q 450 540 600 520 L 600 700 L 0 700 Z" fill="none" stroke="#1A1A1A" stroke-width="4"/>
  <!-- Planta -->
  <rect x="480" y="360" width="22" height="180" rx="11" fill="none" stroke="#1A1A1A" stroke-width="4"/>
  <ellipse cx="480" cy="335" rx="40" ry="55" fill="none" stroke="#1A1A1A" stroke-width="4"/>
  <!-- Peu enorme -->
  <ellipse cx="200" cy="620" rx="140" ry="65" fill="none" stroke="#1A1A1A" stroke-width="5"/>
  <!-- Cama -->
  <path d="M 170 640 L 170 440 Q 200 420 230 440 L 230 640" fill="none" stroke="#1A1A1A" stroke-width="5" stroke-linejoin="round"/>
  <!-- Cos gran -->
  <ellipse cx="230" cy="390" rx="120" ry="100" fill="none" stroke="#1A1A1A" stroke-width="5"/>
  <!-- Braç i mà -->
  <ellipse cx="100" cy="450" rx="35" ry="80" fill="none" stroke="#1A1A1A" stroke-width="5" transform="rotate(-20 100 450)"/>
  <ellipse cx="75" cy="530" rx="30" ry="22" fill="none" stroke="#1A1A1A" stroke-width="5"/>
  <!-- Coll -->
  <path d="M 215 330 L 215 270 Q 230 260 245 270 L 245 330" fill="none" stroke="#1A1A1A" stroke-width="5"/>
  <!-- Cap -->
  <circle cx="225" cy="240" r="50" fill="none" stroke="#1A1A1A" stroke-width="5"/>
  <!-- Ulls -->
  <ellipse cx="215" cy="235" rx="6" ry="8" fill="none" stroke="#1A1A1A" stroke-width="3"/>
  <ellipse cx="238" cy="235" rx="6" ry="8" fill="none" stroke="#1A1A1A" stroke-width="3"/>
  <!-- Boca -->
  <path d="M 210 255 Q 225 265 242 255" fill="none" stroke="#1A1A1A" stroke-width="3" stroke-linecap="round"/>
</svg>