<svg xmlns="http://www.w3.org/2000/svg" viewBox="0 0 600 600" preserveAspectRatio="xMidYMid meet">
  <rect width="600" height="600" fill="white"/>
  <rect x="220" y="160" width="160" height="200" rx="20" fill="none" stroke="#1A1A1A" stroke-width="4"/>
  <rect x="240" y="195" width="40" height="35" rx="5" fill="none" stroke="#1A1A1A" stroke-width="3"/>
  <rect x="318" y="195" width="40" height="35" rx="5" fill="none" stroke="#1A1A1A" stroke-width="3"/>
  <rect x="248" y="275" width="100" height="35" rx="8" fill="none" stroke="#1A1A1A" stroke-width="3"/>
  <rect x="258" y="278" width="22" height="18" fill="none" stroke="#1A1A1A" stroke-width="2"/>
  <rect x="284" y="278" width="22" height="18" fill="none" stroke="#1A1A1A" stroke-width="2"/>
  <rect x="310" y="278" width="22" height="18" fill="none" stroke="#1A1A1A" stroke-width="2"/>
  <polygon points="300,70 270,120 300,105 330,120" fill="none" stroke="#1A1A1A" stroke-width="4"/>
  <polygon points="300,70 260,100 280,120 300,105" fill="none" stroke="#1A1A1A" stroke-width="3"/>
  <polygon points="300,70 340,100 320,120 300,105" fill="none" stroke="#1A1A1A" stroke-width="3"/>
  <text x="80" y="120" font-family="Arial" font-size="22" font-weight="900" fill="#1A1A1A" transform="rotate(-15 80 120)">SAMO©</text>
  <text x="450" y="180" font-family="Arial" font-size="40" fill="#1A1A1A" font-weight="900">✦</text>
  <text x="50" y="400" font-family="Arial" font-size="30" fill="#1A1A1A" transform="rotate(10 50 400)">©</text>
  <text x="460" y="450" font-family="Arial" font-size="28" fill="#1A1A1A" font-weight="900">★</text>
  <line x1="50" y1="300" x2="190" y2="280" stroke="#1A1A1A" stroke-width="4" stroke-linecap="round"/>
  <line x1="410" y1="280" x2="550" y2="310" stroke="#1A1A1A" stroke-width="4" stroke-linecap="round"/>
  <line x1="50" y1="500" x2="550" y2="480" stroke="#1A1A1A" stroke-width="3" stroke-dasharray="8 6"/>
  <rect x="260" y="355" width="80" height="130" rx="10" fill="none" stroke="#1A1A1A" stroke-width="3"/>
  <rect x="255" y="470" width="35" height="100" rx="8" fill="none" stroke="#1A1A1A" stroke-width="3"/>
  <rect x="308" y="470" width="35" height="100" rx="8" fill="none" stroke="#1A1A1A" stroke-width="3"/>
</svg>