<svg xmlns="http://www.w3.org/2000/svg" viewBox="0 0 600 523" version="1.1" preserveAspectRatio="xMidYMid meet">
	<path d="M 242.570 0.887 C 241.882 2, 243.749 3.528, 247 4.511 C 270.940 11.752, 301.867 47.376, 315.379 83.274 C 316.673 86.713, 319.142 92.320, 320.866 95.735 C 322.590 99.149, 324 103.024, 324 104.344 C 324 105.665, 324.885 108.746, 325.966 111.190 C 329.688 119.605, 331.278 137.879, 330.646 165 C 329.904 196.828, 330.694 194.352, 320.660 196.323 C 311.235 198.174, 299.983 203.502, 293.563 209.153 C 289.197 212.997, 289.197 212.997, 290.534 208.552 C 291.270 206.108, 292.300 203.296, 292.824 202.304 C 297.475 193.492, 300.404 141.558, 297.071 127 C 296.379 123.975, 295.460 118.494, 295.030 114.821 C 294.470 110.045, 292.908 105.343, 289.548 98.321 C 281.073 80.608, 276.767 72.393, 273.873 68.417 C 272.305 66.263, 270.166 62.664, 269.120 60.420 C 268.073 58.176, 265.272 54.801, 262.895 52.920 C 260.518 51.039, 255.182 46.199, 251.037 42.165 C 246.891 38.131, 241.025 33.502, 238 31.878 C 234.975 30.254, 230.950 27.803, 229.055 26.431 C 227.160 25.059, 224.931 24.196, 224.102 24.514 C 221.868 25.372, 210.987 21.066, 207.232 17.838 C 205.434 16.293, 202.734 14.772, 201.232 14.458 C 194.432 13.037, 189.164 11.484, 185.105 9.705 C 179.670 7.322, 167.090 6.850, 164.579 8.935 C 163.283 10.010, 158.928 10.269, 144.710 10.116 C 115.984 9.807, 95.092 13.939, 79.639 22.984 C 74.066 26.246, 71.814 27.003, 67.639 27.018 C 40.387 27.113, 19.515 38.720, 9.701 59.238 C 7.666 63.494, 6 67.445, 6 68.019 C 6 68.593, 5.080 71.794, 3.956 75.132 C 2.090 80.671, 2.036 81.563, 3.342 85.350 C 4.129 87.633, 5.549 92.200, 6.498 95.500 C 8.485 102.407, 14.570 115.398, 16.613 117.094 C 18.478 118.641, 18.361 121.218, 16.076 128.972 C 12.095 142.479, 10.982 174.771, 14.023 188.500 C 17.322 203.390, 18.733 207.729, 23.573 217.873 C 26.558 224.128, 29 229.774, 29 230.419 C 29 237.848, 79.468 280, 88.363 280 C 89.129 280, 92.308 277.093, 95.427 273.540 C 104.760 262.910, 119.834 255, 130.760 255 C 137.599 255, 143.171 250.056, 140.968 245.941 C 140.109 244.335, 140.156 243.939, 141.183 244.142 C 144.724 244.844, 165.066 238.128, 168.360 235.170 C 169.383 234.251, 171.113 231.603, 172.204 229.284 C 177.852 217.283, 195.526 206.109, 200.114 211.638 C 200.736 212.387, 202.554 213, 204.155 213 C 213.068 213, 226.373 225.136, 227.520 234.312 C 230.426 257.570, 220.271 269.711, 198.630 268.853 C 184.294 268.284, 184.395 268.815, 203.277 293.213 C 207.837 299.105, 213.577 306.220, 216.034 309.024 C 221.473 315.234, 222.522 317.701, 217.830 313.250 C 213.103 308.765, 211.641 309.112, 207.306 315.750 C 199.070 328.362, 192.360 352.603, 191.250 373.750 C 190.955 379.388, 190.482 384, 190.201 384 C 189.400 384, 182.919 379.023, 178.384 374.925 C 171.861 369.031, 166.424 365.833, 159.877 364.041 C 153.798 362.377, 153.798 362.377, 162.741 358.281 C 181.280 349.788, 189.821 333.729, 189.483 308 C 189.342 297.274, 187.272 290.162, 182.105 282.652 C 178.468 277.366, 178.297 275.947, 181 273.500 C 187.691 267.444, 170.512 254.284, 152 251.284 C 143.500 249.907, 143.500 249.907, 140.764 252.953 C 139.259 254.629, 137.179 256, 136.142 256 C 133.110 256, 118.954 260.902, 113.562 263.818 C 86.521 278.447, 81.002 319.388, 102.654 344.732 C 110.876 354.356, 126.544 363.798, 135.091 364.280 C 139.006 364.501, 139.963 365.287, 137.882 366.573 C 137.185 367.004, 136.982 368.855, 137.344 371.491 C 137.923 375.718, 137.923 375.718, 131.887 375.803 C 116.863 376.017, 102.793 385.239, 94.208 400.500 C 75.279 434.148, 91.542 472.061, 129.824 483.528 C 136.055 485.395, 136.055 485.395, 135.393 491.240 C 134.347 500.486, 136.703 502.405, 148 501.512 C 164.387 500.215, 173.172 496.817, 182.182 488.291 C 188.434 482.374, 197.970 469.041, 198.037 466.122 C 198.058 465.230, 199.307 460.156, 200.814 454.846 C 203.553 445.192, 203.553 445.192, 206.858 451.846 C 215.733 469.715, 219.575 476.956, 222.853 482 C 228.126 490.111, 260.115 521.647, 263.918 522.482 C 269.788 523.771, 270.163 520.011, 264.311 518.542 C 261.430 517.819, 258.106 514.862, 241.428 498.190 C 229.136 485.902, 225.666 481.212, 218.718 467.500 C 204.224 438.896, 205.673 443.136, 205.406 428.548 C 205.135 413.731, 203.058 404.616, 197.848 395.384 C 192.138 385.268, 194.651 358.047, 203.652 332.500 C 209.445 316.058, 213.748 310.576, 216.068 316.680 C 216.918 318.915, 216.596 320.284, 214.127 324.930 C 200.642 350.304, 199.985 387.862, 212.361 426 C 214.541 432.718, 215.436 436.913, 214.846 437.648 C 214.232 438.412, 214.787 439.474, 216.506 440.826 C 219.104 442.870, 219.493 445.832, 217.568 448.909 C 216.935 449.920, 217.859 451.411, 220.843 454.195 C 223.129 456.327, 225 458.362, 225 458.717 C 225 459.071, 227.290 462.674, 230.088 466.722 C 234.236 472.722, 234.953 474.352, 233.966 475.541 C 232.678 477.093, 234.400 480.489, 235.980 479.513 C 236.394 479.257, 237.538 479.937, 238.521 481.024 C 239.505 482.111, 240.719 483, 241.220 483 C 242.300 483, 247.500 489.002, 247.500 490.249 C 247.500 490.725, 248.609 491.951, 249.964 492.973 C 252.429 494.832, 252.429 494.832, 249.997 496.801 C 247.838 498.549, 247.726 498.965, 248.998 500.497 C 250.984 502.891, 254.246 503.975, 255.769 502.747 C 257.170 501.617, 256.615 501.247, 267.437 510.542 C 274.327 516.459, 276.522 518.012, 280.653 519.895 C 281.837 520.435, 283.101 521.354, 283.462 521.938 C 284.239 523.195, 288.657 523.364, 289.398 522.166 C 290.001 521.190, 282.847 514.187, 278.500 511.498 C 268.679 505.424, 250.216 486.627, 246.865 479.291 C 245.808 476.977, 244.506 474.813, 243.972 474.482 C 243.437 474.152, 243 472.774, 243 471.419 C 243 469.785, 241.235 467.183, 237.750 463.683 C 234.863 460.782, 231.471 456.405, 230.212 453.955 C 228.954 451.505, 227.567 448.825, 227.131 448 C 218.621 431.920, 213.583 417.124, 211.978 403.500 C 208.724 375.884, 208.634 373.980, 209.930 360.152 C 210.635 352.644, 212.011 344.250, 212.990 341.500 C 221.285 318.187, 222.240 316.937, 227.708 322.240 C 229.829 324.297, 235.149 330.738, 239.532 336.554 C 243.914 342.370, 249.154 349.294, 251.175 351.940 C 253.881 355.483, 254.555 357.045, 253.732 357.868 C 251.891 359.709, 252.558 380.271, 254.774 390 C 261.123 417.871, 263.478 424.186, 271.709 435.402 C 274.574 439.306, 277.842 443.850, 278.971 445.500 C 288.824 459.898, 290.487 461.660, 304.599 472.657 C 308.944 476.044, 313.591 479.981, 314.924 481.407 C 316.258 482.833, 318.013 484, 318.824 484 C 319.636 484, 327.095 487.344, 335.400 491.431 C 351.925 499.563, 357.934 501.852, 362.500 501.756 C 364.150 501.722, 370.225 502.271, 376 502.976 C 388.994 504.564, 406.577 503.733, 417.262 501.024 C 432.779 497.092, 434.883 493.032, 426.209 483.760 C 424.799 482.254, 423.995 480.679, 424.423 480.260 C 425.461 479.244, 432.187 487.070, 431.597 488.607 C 431.343 489.270, 432.015 490.609, 433.091 491.582 C 434.425 492.790, 434.722 493.678, 434.024 494.376 C 432.444 495.956, 432.807 498.515, 434.874 500.386 C 435.904 501.318, 436.991 503.896, 437.288 506.114 C 438.090 512.091, 447.040 524.360, 449.097 522.303 C 449.973 521.427, 449.386 520.087, 446.685 516.791 C 442.664 511.884, 441 508.166, 441 504.090 C 441 502.561, 440.100 500.495, 439 499.500 C 436.770 497.482, 436.482 495.918, 438.051 494.349 C 439.433 492.967, 444 493.869, 444 495.523 C 444 496.833, 453.113 505, 454.574 505 C 455.013 505, 456.393 504.040, 457.643 502.866 C 459.865 500.778, 460.062 500.766, 466.707 502.306 C 480.786 505.568, 489.023 506.054, 495.275 503.991 C 505.850 500.502, 517.743 493.959, 525.431 487.399 C 534.422 479.727, 534.571 480.101, 527.750 493.207 C 523.675 501.036, 520.521 505.386, 513.656 512.642 C 506.611 520.090, 505.153 522.122, 506.486 522.633 C 513.622 525.371, 542.657 480.619, 537.041 475.537 C 534.656 473.379, 534.703 473.356, 528.251 479.828 C 511.526 496.606, 484.239 504.436, 466 497.693 C 463.525 496.778, 460.314 496.023, 458.864 496.015 C 450.958 495.971, 429.280 480.704, 423.767 471.298 C 409.618 447.154, 410.162 410.856, 424.993 389.560 C 450.607 352.780, 513.749 353.945, 533.704 391.566 C 542.754 408.629, 547.840 398.972, 544 372.019 C 543.450 368.158, 542.538 361.738, 541.974 357.750 C 540.532 347.566, 530.706 318.883, 525.938 310.940 C 523.772 307.332, 522 303.932, 522 303.384 C 522 302.836, 519.188 298.349, 515.750 293.414 C 485.605 250.130, 469.911 236.838, 425.371 216.868 C 416.177 212.746, 402.044 209.944, 389.258 209.708 C 378.016 209.500, 378.016 209.500, 378.524 206.500 C 378.804 204.850, 379.470 200.575, 380.004 197 C 380.539 193.425, 381.386 188.506, 381.887 186.068 C 382.388 183.631, 382.530 180.931, 382.202 180.068 C 381.874 179.206, 383.091 180.188, 384.906 182.250 C 386.722 184.313, 388.766 186, 389.449 186 C 391.055 186, 394.202 189.465, 393.360 190.307 C 392.322 191.345, 395.188 194.142, 396.696 193.563 C 397.453 193.273, 400.418 194.940, 403.286 197.268 C 406.154 199.595, 411.733 203.446, 415.684 205.825 C 419.635 208.204, 423.521 211.129, 424.319 212.325 C 427.497 217.091, 447.113 222.811, 450.536 219.970 C 451.430 219.228, 452.019 219.222, 452.470 219.951 C 453.441 221.522, 458.577 221.214, 460 219.500 C 461.649 217.513, 462.684 217.606, 465.749 220.018 C 467.184 221.146, 469.090 221.789, 470.073 221.477 C 471.040 221.170, 472.103 221.357, 472.434 221.893 C 473.182 223.103, 479.484 222.291, 483.500 220.467 C 485.150 219.717, 487.647 218.870, 489.049 218.583 C 490.450 218.297, 493.150 216.899, 495.049 215.476 C 496.947 214.054, 503.225 210.159, 509 206.822 C 514.775 203.485, 520.962 199.371, 522.750 197.681 C 526 194.608, 526 194.608, 526 197.143 C 526 198.798, 525.218 200.041, 523.750 200.721 C 522.513 201.294, 517.794 204.526, 513.264 207.903 C 502.372 216.023, 502.123 217.140, 509.365 225.389 C 512.438 228.889, 516.517 234.130, 518.430 237.034 C 520.343 239.939, 524.922 245.617, 528.606 249.653 C 532.290 253.688, 536.572 259.503, 538.121 262.575 C 539.671 265.646, 543.090 271.094, 545.719 274.681 C 553.155 284.826, 553.989 286.302, 553.995 289.337 C 553.998 290.897, 555.325 294.047, 556.945 296.337 C 559.745 300.294, 565.953 319.197, 568 330 C 568.469 332.475, 570.284 341.025, 572.032 349 C 577.038 371.838, 577.148 394.161, 572.455 435 C 572.171 437.475, 571.310 441.750, 570.542 444.500 C 569.773 447.250, 568.191 454, 567.025 459.500 C 563.880 474.339, 562.008 481.097, 559.963 485 C 558.954 486.925, 556.282 492.759, 554.025 497.965 C 551.768 503.170, 549.310 508.120, 548.562 508.965 C 545.753 512.138, 541.078 521.930, 542.077 522.548 C 543.582 523.477, 545.644 521.368, 548.012 516.475 C 549.174 514.075, 551.012 510.983, 552.097 509.604 C 553.182 508.225, 555.882 502.912, 558.099 497.798 C 560.315 492.684, 562.954 486.925, 563.963 485 C 566.008 481.097, 567.880 474.339, 571.025 459.500 C 572.191 454, 573.773 447.250, 574.542 444.500 C 575.310 441.750, 576.171 437.475, 576.455 435 C 581.148 394.161, 581.038 371.838, 576.032 349 C 574.284 341.025, 572.469 332.475, 572 330 C 569.953 319.197, 563.745 300.294, 560.945 296.337 C 559.325 294.047, 557.998 290.897, 557.995 289.337 C 557.989 286.305, 557.381 285.236, 549.245 273.958 C 546.355 269.951, 542.860 264.283, 541.478 261.363 C 540.097 258.442, 535.999 252.918, 532.373 249.086 C 528.746 245.254, 524.217 239.730, 522.308 236.810 C 520.399 233.889, 517.610 230.150, 516.110 228.500 C 506.482 217.910, 506.435 217.012, 515.174 210.575 C 529.245 200.211, 529.221 200.216, 534.680 206.667 C 546.461 220.590, 544.386 220.123, 554.156 211.050 C 569.859 196.467, 577.920 181.578, 584.013 155.903 C 598.682 94.085, 572.689 30.832, 525.739 14.096 C 498.426 4.360, 461.385 0.546, 442.500 5.523 C 439.200 6.393, 434.700 7.497, 432.500 7.976 C 404.966 13.971, 377.350 29.879, 363.626 47.650 C 358.653 54.090, 355.536 54.805, 354.480 49.750 C 352.985 42.586, 340.399 21.718, 332.013 12.500 C 329.511 9.750, 326.044 5.751, 324.308 3.614 C 322.076 0.866, 320.657 -0.082, 319.463 0.376 C 318.116 0.893, 318.017 1.315, 318.973 2.468 C 319.633 3.262, 319.870 4.402, 319.500 5 C 319.130 5.598, 319.646 7.306, 320.646 8.794 C 323.406 12.899, 324.514 15.344, 324.365 17 C 324.291 17.825, 324.179 19.313, 324.115 20.306 C 324.052 21.300, 322.538 23.448, 320.750 25.081 C 317.320 28.214, 316.274 32.153, 318.403 33.919 C 319.339 34.696, 320.274 34.337, 321.945 32.558 C 323.840 30.541, 324.596 30.315, 326.517 31.189 C 328.268 31.987, 329.592 31.851, 332.062 30.619 C 336.259 28.525, 338.622 28.567, 339.354 30.750 C 339.678 31.712, 340.333 33.175, 340.811 34 C 349.534 49.061, 349.508 53.025, 340.666 55.818 C 333.075 58.216, 325.088 65.843, 327.837 68.069 C 332.252 71.644, 342.127 67.956, 345.823 61.351 C 347.137 59.004, 349.610 60.300, 350.288 63.691 C 351.187 68.185, 354.871 72.352, 356.645 70.880 C 357.735 69.975, 358.366 69.966, 359.242 70.842 C 359.879 71.479, 360.015 72, 359.545 72 C 359.075 72, 359.453 72.843, 360.386 73.874 C 361.568 75.180, 361.955 76.923, 361.662 79.624 C 361.432 81.756, 361.691 84.060, 362.239 84.744 C 362.787 85.429, 363.004 87.197, 362.722 88.675 C 362.439 90.152, 362.611 92.180, 363.104 93.180 C 363.597 94.181, 364.444 95.884, 364.987 96.965 C 365.718 98.422, 365.493 99.781, 364.119 102.215 C 363.004 104.190, 362.180 107.851, 362.053 111.393 C 361.747 119.922, 360.838 121.777, 357.221 121.246 C 354.837 120.896, 353.868 121.377, 352.178 123.750 C 348.999 128.214, 352.968 131.004, 357.559 127.532 C 361.140 124.823, 362.778 128.024, 363.505 139.151 C 363.733 142.643, 364.216 146.740, 364.578 148.256 C 364.979 149.936, 364.738 151.611, 363.961 152.547 C 362.892 153.835, 363.200 154.611, 365.871 157.367 C 368.202 159.772, 369.387 162.282, 370.297 166.743 C 370.980 170.093, 372.259 173.659, 373.139 174.667 C 376.391 178.393, 376.997 184.809, 375.154 196 C 372.623 211.366, 372.642 210.947, 374.403 212.892 C 375.835 214.475, 377.755 214.756, 387.787 214.851 C 402.090 214.987, 411.899 216.676, 408 218.331 C 406.625 218.915, 403.073 220.472, 400.106 221.792 C 384.553 228.708, 384.309 228.682, 374.905 219.087 C 366.466 210.475, 358.213 203.961, 352.890 201.710 C 351.026 200.921, 348.643 199.314, 347.595 198.138 C 346.158 196.526, 344.531 196, 340.975 196 C 335.185 196, 334.510 193.115, 336.196 175.567 C 337.575 161.219, 335.813 129.695, 333.035 119 C 329.053 103.667, 327.247 98.321, 323.669 91.275 C 321.651 87.301, 319.999 82.576, 319.997 80.775 C 319.996 78.808, 318.597 75.183, 316.497 71.700 C 314.574 68.510, 313 65.575, 313 65.177 C 313 64.780, 311.368 61.990, 309.373 58.977 C 307.379 55.965, 304.894 51.527, 303.852 49.117 C 298.568 36.895, 269.144 7.696, 256.457 2.084 C 251.674 -0.032, 243.569 -0.730, 242.570 0.887 M 310.154 5.314 C 309.490 6.115, 309.252 8.009, 309.598 9.741 C 310.103 12.264, 309.598 13.439, 306.568 16.793 C 302.933 20.816, 302.933 20.816, 305.871 22.908 C 313.812 28.562, 324.692 17.879, 318.261 10.743 C 317.390 9.777, 316.176 7.981, 315.564 6.752 C 314.221 4.058, 311.743 3.400, 310.154 5.314 M 455 7.997 C 449.185 8.389, 443.186 9.483, 439.535 10.819 C 436.254 12.018, 432.593 13, 431.399 13 C 428.610 13, 419.305 15.767, 415.748 17.655 C 414.234 18.458, 412.600 18.871, 412.115 18.571 C 411.631 18.272, 410.099 18.921, 408.710 20.014 C 407.321 21.106, 405.300 22, 404.218 22 C 401.720 22, 393.609 26.433, 388.799 30.427 C 386.764 32.117, 382.039 35.697, 378.299 38.383 C 369.141 44.961, 358.915 57.435, 360.533 60.054 C 360.877 60.611, 361.363 62.709, 361.612 64.718 C 361.861 66.726, 362.964 69.823, 364.063 71.601 C 365.230 73.491, 366.019 76.427, 365.961 78.667 C 365.906 80.775, 366.271 84.300, 366.772 86.500 C 367.683 90.500, 367.683 90.500, 368.450 87.500 C 370.926 77.817, 388.433 51, 392.278 51 C 393.850 51, 405.886 41.625, 405.375 40.798 C 404.434 39.276, 402.978 40.020, 399.119 43.997 C 395.657 47.564, 395.097 47.822, 393.914 46.396 C 392.059 44.162, 391.950 42.286, 393.595 40.921 C 394.368 40.280, 395 39.211, 395 38.545 C 395 37.384, 400.574 32.399, 405.921 28.778 C 408.554 26.994, 415 31.127, 415 34.600 C 415 35.790, 422.919 33.414, 424.621 31.713 C 425.013 31.321, 426.096 31, 427.027 31 C 427.959 31, 430.346 29.897, 432.332 28.549 C 434.318 27.202, 436.178 26.479, 436.466 26.945 C 437.029 27.856, 444.125 26.489, 447.678 24.784 C 448.876 24.210, 451.024 23.963, 452.452 24.236 C 453.880 24.508, 455.289 24.342, 455.583 23.866 C 455.877 23.390, 457.190 23, 458.500 23 C 459.810 23, 461.174 22.528, 461.530 21.951 C 461.974 21.234, 462.568 21.226, 463.413 21.928 C 464.268 22.637, 465.031 22.576, 465.895 21.726 C 466.882 20.755, 467.525 20.968, 468.981 22.750 C 470.962 25.174, 474.567 25.791, 474.824 23.750 C 475.667 17.049, 476.586 15.412, 478.578 17.065 C 479.348 17.704, 479.751 18.595, 479.473 19.044 C 479.195 19.494, 479.394 20.125, 479.915 20.447 C 480.436 20.769, 481.158 20.553, 481.520 19.968 C 482.356 18.615, 485 20.638, 485 22.631 C 485 23.743, 485.376 23.782, 486.902 22.829 C 489.096 21.459, 494 23.955, 494 26.442 C 494 27.266, 495.741 28.234, 498.250 28.805 C 500.587 29.336, 505.287 30.803, 508.694 32.065 C 514.889 34.359, 514.889 34.359, 516.789 32.013 C 519.752 28.353, 525.156 33.323, 525.441 39.972 C 525.521 41.812, 529.954 44.126, 532.113 43.454 C 533.544 43.009, 539.220 48.901, 539.622 51.250 C 539.692 51.663, 539.806 52.408, 539.875 52.906 C 539.944 53.405, 540.805 53.602, 541.789 53.345 C 544.032 52.758, 547.452 56.380, 546.644 58.485 C 546.106 59.887, 550.327 68.101, 553.589 72 C 554.279 72.825, 555.166 74.850, 555.560 76.500 C 555.954 78.150, 556.547 79.950, 556.878 80.500 C 557.209 81.050, 558.188 83.523, 559.054 85.996 C 560.174 89.195, 561.178 90.494, 562.532 90.496 C 566.177 90.503, 567.393 95.173, 564.387 97.624 C 562.716 98.987, 562.181 99.994, 562.894 100.435 C 563.692 100.928, 563.704 101.685, 562.936 103.119 C 562.348 104.218, 562.150 106.405, 562.495 107.978 C 563.332 111.786, 563.359 131.611, 562.529 132.953 C 562.170 133.534, 561.711 137.127, 561.509 140.938 C 561.307 144.748, 560.676 148.737, 560.106 149.801 C 559.537 150.866, 559.344 152.010, 559.678 152.344 C 560.012 152.678, 559.716 153.638, 559.020 154.476 C 558.324 155.314, 558.125 156, 558.578 156 C 559.030 156, 558.915 156.485, 558.323 157.077 C 557.660 157.740, 557.534 159.435, 557.996 161.481 C 558.649 164.377, 558.309 165.306, 555.371 168.654 C 553.515 170.769, 549.820 175.966, 547.160 180.203 C 544.500 184.439, 540.148 190.452, 537.488 193.565 C 534.120 197.507, 532.933 199.610, 533.576 200.490 C 537.375 205.690, 544.700 213.874, 545.607 213.931 C 547.004 214.018, 564.395 196.061, 563.642 195.309 C 563.337 195.003, 564.141 193.346, 565.431 191.627 C 572.439 182.280, 581.403 155.599, 581.078 145.059 C 581.019 143.166, 581.451 140.165, 582.037 138.389 C 583.501 133.953, 584.121 114.602, 582.995 108.500 C 582.487 105.750, 581.384 99.404, 580.543 94.397 C 576.982 73.188, 567.229 49.968, 560.008 45.505 C 559.438 45.153, 558.052 43.063, 556.929 40.861 C 552.763 32.694, 527.504 15.864, 520 16.255 C 519.175 16.298, 514.450 15.054, 509.500 13.491 C 504.550 11.927, 498.700 10.539, 496.500 10.405 C 494.300 10.272, 489.800 9.673, 486.500 9.074 C 483.200 8.475, 477.789 8.050, 474.475 8.131 C 471.161 8.212, 467.561 8.071, 466.475 7.817 C 465.389 7.564, 460.225 7.645, 455 7.997 M 313.203 13.847 C 312.628 15.496, 311.222 17.346, 310.079 17.958 C 305.072 20.637, 308.711 21.989, 313.926 19.387 C 316.700 18.003, 317.067 17.398, 316.509 15.137 C 315.495 11.026, 314.343 10.577, 313.203 13.847 M 111.195 16.449 C 95.950 19.236, 92.619 20.203, 85 24.057 C 75.350 28.937, 74.907 29.516, 79.391 31.390 C 88.312 35.117, 100.169 49.588, 104.290 61.776 C 106.331 67.810, 108 73.892, 108 75.292 C 108 80.560, 108.652 81.017, 113.829 79.374 C 141.541 70.578, 172.284 74.425, 190.201 88.929 C 196.500 94.028, 196.500 94.028, 197.680 87.036 C 205.576 40.233, 270 43.445, 270 90.641 C 270 121.113, 243.104 137.970, 216.878 123.935 C 214.940 122.897, 214.779 122.975, 215.440 124.634 C 219.709 135.361, 221.088 141.374, 221.677 151.829 C 222.289 162.698, 222.371 163.023, 223.705 159.829 C 229.267 146.519, 249.557 137.504, 262.675 142.514 C 287.338 151.933, 288.537 191.921, 264.427 200.941 C 250.835 206.027, 245.056 204.853, 233.546 194.665 C 226.476 188.407, 223.443 183.621, 222.395 177.070 C 221.737 172.956, 221.737 172.956, 219.619 179.249 C 217.315 186.092, 212.150 194.559, 205.338 202.659 C 200.177 208.798, 200.135 209, 204.032 209 C 213.266 209, 230.316 224.678, 231.515 234.271 C 234.453 257.788, 221.098 274, 199.793 272.778 C 191.177 272.284, 191.091 272.923, 198.567 281.842 C 200.254 283.854, 204.693 289.550, 208.432 294.500 C 212.172 299.450, 215.369 303.653, 215.538 303.839 C 215.858 304.192, 223.208 298.720, 231.089 292.261 C 235.825 288.380, 242.044 281.816, 246.786 275.695 C 256.991 262.520, 261.049 256.765, 263.845 251.500 C 265.597 248.200, 269.003 242.870, 271.414 239.656 C 278.654 230.001, 286.689 211.652, 290.598 195.842 C 294.585 179.720, 295.813 139.383, 292.754 125 C 291.877 120.875, 290.916 115.106, 290.619 112.181 C 290.321 109.256, 289.197 105.431, 288.120 103.681 C 287.044 101.931, 284.490 96.675, 282.445 92 C 273.469 71.475, 260.140 53.335, 248.854 46.282 C 245.526 44.202, 240.791 41.017, 238.332 39.204 C 211.402 19.347, 152.756 8.850, 111.195 16.449 M 328.886 15.191 C 328.823 15.361, 328.622 16.780, 328.439 18.345 C 328.255 19.910, 327.359 22.329, 326.447 23.721 C 323.656 27.981, 326.935 29.146, 333.272 26.147 C 337.044 24.361, 337.044 24.361, 334.088 20.280 C 331.399 16.568, 329.179 14.396, 328.886 15.191 M 596.960 27.074 C 595.554 29.701, 595.883 115.822, 597.307 117.739 C 599.657 120.904, 600 115.074, 600 72 C 600 27.285, 599.646 22.056, 596.960 27.074 M 446.500 30.688 C 442.650 31.450, 438.825 32.352, 438 32.691 C 437.175 33.029, 436.050 33.376, 435.500 33.460 C 434.950 33.545, 433.825 33.900, 433 34.249 C 432.175 34.599, 429.339 35.588, 426.697 36.448 C 422.586 37.787, 416.414 40.912, 408.475 45.675 C 407.398 46.321, 406.856 47.189, 407.271 47.604 C 407.685 48.019, 409.270 47.437, 410.793 46.311 C 421.209 38.610, 440.110 32.854, 460.026 31.319 C 464.449 30.977, 468.320 30.292, 468.627 29.795 C 469.445 28.471, 454.682 29.066, 446.500 30.688 M 53 32.530 C 28.574 36.297, 16.369 47.232, 9.017 71.937 C 7.194 78.063, 6.993 80.003, 7.878 82.937 C 8.469 84.897, 9.717 89.425, 10.650 93 C 12.957 101.833, 15.453 107.500, 19.551 113.203 C 21.660 116.139, 23 119.177, 23 121.021 C 23 123.655, 23.287 123.966, 25.263 123.470 C 26.574 123.141, 29.621 123.842, 32.513 125.137 C 38.400 127.775, 55.020 130.200, 58.860 128.981 C 60.312 128.521, 64.200 127.807, 67.500 127.395 C 70.800 126.983, 73.725 126.612, 74 126.571 C 74.275 126.530, 75.850 125.598, 77.500 124.498 C 79.150 123.399, 82.715 121.384, 85.421 120.020 C 90.614 117.404, 97.032 109.800, 101.529 100.937 C 104.532 95.018, 105.111 94.597, 114.380 91.571 C 150.385 79.817, 180.904 91.376, 197.449 123.031 C 206.993 141.293, 207.408 167.421, 198.434 185.131 C 189.016 203.716, 163.928 223.579, 148.076 225 C 142.500 225.500, 142.500 225.500, 142.205 232.832 C 141.936 239.493, 142.073 240.114, 143.705 239.618 C 144.692 239.319, 147.750 238.585, 150.500 237.987 C 162.237 235.438, 166.372 233.251, 168.309 228.567 C 172.328 218.850, 183.962 208.692, 192.500 207.445 C 199.793 206.380, 211.107 192.814, 215.718 179.606 C 219.081 169.972, 218.254 143.784, 214.225 132.340 C 212.451 127.302, 211 122.631, 211 121.961 C 211 121.291, 209.478 119.058, 207.617 116.998 C 205.757 114.939, 202.560 109.865, 200.512 105.722 C 188.773 81.969, 149.852 71.945, 113.788 83.387 C 107.301 85.445, 105.316 83.802, 103.952 75.247 C 101.026 56.894, 88.979 38.171, 77.975 34.874 C 75.776 34.215, 73.476 33.074, 72.866 32.338 C 71.493 30.684, 64.534 30.751, 53 32.530 M 406.128 34.761 C 404.930 36.999, 405.533 38, 408.078 38 C 409.965 38, 410.080 35.680, 408.283 33.883 C 407.486 33.086, 406.895 33.327, 406.128 34.761 M 448.585 37.107 C 417.157 41.690, 390.505 60.480, 381.502 84.399 C 366.633 123.903, 375.245 169.582, 401.696 191.507 C 436.946 220.725, 485.615 221.350, 520.760 193.037 C 531.742 184.190, 540.808 170.041, 545.132 155.003 C 547.645 146.264, 547.440 143.820, 544.880 152 C 533.317 188.958, 503.337 210.062, 462 210.343 C 437.837 210.507, 426.304 206.298, 405.213 189.618 C 383.843 172.718, 371.678 134.225, 378.423 104.852 C 381.834 89.998, 382.355 88.368, 385.894 81.506 C 409.804 35.135, 485.592 23.012, 523.793 59.448 C 540.222 75.118, 545.906 87.500, 549.524 115.500 C 550.946 126.500, 550.946 126.500, 550.443 116.477 C 547.617 60.180, 507.061 28.578, 448.585 37.107 M 447.500 43.466 C 416.501 48.879, 390.956 69.189, 385.199 93 C 380.851 110.984, 380.729 112.038, 381.282 126.852 C 382.724 165.413, 401.865 192.073, 436.500 203.762 C 453.817 209.606, 485.363 206.903, 502.848 198.076 C 557.356 170.561, 560.574 78.144, 507.942 51.771 C 491.476 43.520, 466.693 40.115, 447.500 43.466 M 374.970 47.530 C 372.190 50.399, 371.752 51.383, 372.633 52.780 C 373.230 53.726, 373.914 54.275, 374.153 54 C 374.392 53.725, 375.861 54.334, 377.417 55.354 C 382.269 58.533, 388.176 51.911, 384.668 47.225 C 383.911 46.214, 383.276 46.313, 381.607 47.698 C 380.448 48.660, 380.052 48.817, 380.726 48.047 C 381.624 47.023, 381.658 46.293, 380.854 45.324 C 379.273 43.419, 378.774 43.606, 374.970 47.530 M 518.466 46.207 C 520.097 47.468, 523.775 50.670, 526.638 53.321 C 530.233 56.651, 531.765 57.579, 531.587 56.321 C 531.321 54.433, 524.578 48.830, 518.811 45.707 C 515.500 43.913, 515.500 43.913, 518.466 46.207 M 400.602 51.524 C 397.281 53.255, 389.951 59.593, 388.569 61.927 C 388.057 62.792, 389.310 62.038, 391.354 60.250 C 393.397 58.462, 395.391 56.983, 395.785 56.962 C 396.608 56.919, 404.757 50.034, 404 50.021 C 403.725 50.016, 402.196 50.692, 400.602 51.524 M 49.024 55.041 C 35.748 59.815, 26.420 75.022, 29.022 87.647 C 33.848 111.061, 58.918 120.002, 75.334 104.164 C 99.001 81.329, 79.124 44.218, 49.024 55.041 M 349.454 54.074 C 349.089 54.665, 349.850 56.352, 351.145 57.824 C 352.440 59.296, 353.649 60.724, 353.832 60.998 C 354.014 61.273, 354.776 60.659, 355.524 59.636 C 356.730 57.987, 356.562 57.502, 354.048 55.387 C 350.846 52.693, 350.389 52.562, 349.454 54.074 M 534.653 54 C 535.088 54.825, 535.534 56.098, 535.645 56.828 C 536.070 59.634, 536.994 61, 538.469 61 C 540.719 61, 540.363 59.834, 536.932 55.962 C 535.244 54.058, 534.219 53.175, 534.653 54 M 49.053 58.970 C 28.395 66.631, 26.645 98.486, 46.475 105.905 C 65.917 113.179, 83.242 100.263, 81.655 79.678 C 80.239 61.319, 66.408 52.533, 49.053 58.970 M 337.530 61.060 C 332.281 63.678, 331.008 65, 333.735 65 C 337.160 65, 340.792 63.258, 341.974 61.048 C 343.323 58.529, 342.600 58.531, 337.530 61.060 M 230.932 61.062 C 225.879 61.859, 216.236 66.378, 214.230 68.889 C 204.499 81.070, 202.940 94.588, 209.797 107.319 C 219.473 125.284, 246.883 126.954, 255.852 110.126 C 270.018 83.548, 256.546 57.023, 230.932 61.062 M 383.222 68.264 C 380.542 71.116, 375.977 81.345, 376.073 84.279 C 376.117 85.621, 376.879 84.438, 378 81.287 C 379.019 78.420, 381.280 74.001, 383.023 71.467 C 386.482 66.440, 386.591 64.678, 383.222 68.264 M 448.567 68.725 C 435.432 72.072, 416.843 85.325, 411.012 95.500 C 380.546 148.666, 437.224 203.423, 490.165 171.971 C 493.842 169.787, 497.299 168, 497.848 168 C 501.601 168, 509.906 157.145, 513.541 147.488 C 517.866 135.997, 516.384 107.621, 510.862 96.215 C 501.522 76.921, 470.362 63.171, 448.567 68.725 M 452.500 72.898 C 451.400 73.283, 448.475 74.578, 446 75.777 C 443.525 76.975, 440.350 77.966, 438.944 77.978 C 437.539 77.990, 434.839 79.156, 432.944 80.569 C 431.050 81.983, 428.150 83.758, 426.500 84.515 C 409.533 92.299, 401.006 128.474, 411.253 149.199 C 425.119 177.245, 460.420 185.643, 490.165 167.971 C 493.842 165.787, 497.309 164, 497.870 164 C 498.432 164, 499.478 162.938, 500.195 161.639 C 500.913 160.341, 502.763 157.385, 504.306 155.070 C 505.850 152.755, 507.268 149.655, 507.458 148.181 C 507.648 146.706, 508.099 143.925, 508.460 142 C 508.821 140.075, 509.222 137.758, 509.352 136.851 C 509.482 135.944, 510.196 134.469, 510.940 133.572 C 512.743 131.399, 511.773 114.900, 509.538 109.735 C 509.118 108.764, 509.036 106.971, 509.355 105.749 C 512.299 94.493, 477.257 66.343, 469.704 73.896 C 468.096 75.504, 462.450 75.247, 461 73.500 C 459.711 71.947, 455.978 71.683, 452.500 72.898 M 444.472 79.842 C 410.063 92.520, 400.561 134.380, 426.520 158.930 C 439.658 171.356, 463.522 174.991, 479.496 167 C 515.385 149.045, 514.689 95.276, 478.382 80.916 C 470.201 77.680, 451.912 77.101, 444.472 79.842 M 226.514 83.168 C 220.083 88.226, 219.409 95.644, 224.882 101.118 C 233.012 109.248, 245 103.487, 245 91.450 C 245 82.910, 233.431 77.727, 226.514 83.168 M 444.472 83.842 C 428.979 89.550, 421.161 97.971, 417.866 112.500 C 413.574 131.422, 417.422 147.140, 428.789 157.120 C 444.622 171.022, 475.427 170.273, 490.049 155.632 C 506.546 139.112, 505.859 104.612, 488.761 90.998 C 478.255 82.634, 457.051 79.208, 444.472 83.842 M 228 88 C 222.818 93.182, 226.351 100.635, 233.522 99.652 C 239.392 98.848, 239.120 99.113, 239.746 93.557 C 240.574 86.215, 233.250 82.750, 228 88 M 371.377 93.250 C 370.930 96.138, 370.547 99.101, 370.526 99.836 C 370.504 100.571, 369.656 101.778, 368.643 102.519 C 367.629 103.261, 367.077 104.316, 367.416 104.864 C 367.755 105.413, 367.575 106.144, 367.016 106.490 C 366.457 106.835, 365.989 109.229, 365.976 111.809 C 365.963 114.389, 365.552 118.223, 365.064 120.329 C 364.423 123.089, 364.590 125.375, 365.661 128.519 C 368.200 135.969, 369.623 133.354, 370.387 119.841 C 370.762 113.210, 371.969 103.923, 373.069 99.204 C 374.169 94.485, 374.843 90.033, 374.566 89.312 C 373.504 86.544, 372.155 88.209, 371.377 93.250 M 130 92.223 C 118.338 93.847, 115 95.014, 115 97.465 C 115 100.065, 118.536 105, 120.398 105 C 122.785 105, 126.296 109.761, 125.671 112.150 C 124.902 115.091, 126.586 117, 129.948 117 C 132.623 117, 137.609 121.057, 136.409 122.258 C 134.954 123.713, 137.158 124.890, 139.599 123.962 C 145.607 121.678, 158.722 129.537, 162.949 137.955 C 171.887 155.757, 164.883 175.303, 147.153 182.033 C 142.564 183.775, 142.564 183.775, 142.411 202.388 C 142.235 223.770, 141.396 222.350, 152.500 219.458 C 181.614 211.875, 203.538 180.595, 200.683 150.714 C 196.718 109.213, 169.534 86.718, 130 92.223 M 107.307 98.250 C 106.792 98.938, 104.499 102.657, 102.212 106.515 C 97.175 115.014, 91.449 120.771, 83.642 125.187 C 65.531 135.430, 68.259 182.094, 88.134 202.008 C 94.159 208.045, 103.316 214.018, 104.591 212.743 C 107.182 210.151, 105.324 202.749, 101.229 199.347 C 81.776 183.188, 75.393 153.811, 87.030 134 C 92.073 125.414, 108.934 109.425, 114.963 107.512 C 117.009 106.862, 116.983 106.745, 114.035 103.387 C 112.366 101.486, 111 99.271, 111 98.465 C 111 96.675, 108.594 96.534, 107.307 98.250 M 448.479 102.871 C 436.855 108.151, 429.907 123.661, 434.375 134.355 C 444.821 159.355, 483 151.307, 483 124.105 C 483 106.738, 464.719 95.493, 448.479 102.871 M 448.013 107.189 C 434.220 114.293, 433.001 136.228, 446.038 142.723 C 466.003 152.667, 486.032 134.766, 477.579 114.534 C 474.006 105.984, 458.050 102.020, 448.013 107.189 M 260.024 110.943 C 258.850 113.776, 252.714 120.015, 248.434 122.725 C 246.824 123.745, 247.003 123.776, 249.500 122.912 C 254.462 121.193, 263.618 110.285, 261.704 108.371 C 261.465 108.132, 260.709 109.289, 260.024 110.943 M 115 111.255 C 83.445 130.096, 76.013 160.390, 95.966 188.837 C 101.390 196.568, 109 201.940, 109 198.037 C 109 197.507, 111.669 194.220, 114.932 190.732 C 120.863 184.391, 120.863 184.391, 117.432 181.653 C 115.544 180.147, 114 178.400, 114 177.772 C 114 177.143, 113.004 175.568, 111.786 174.272 C 109.886 172.250, 109.752 171.627, 110.840 169.885 C 111.833 168.295, 111.853 167.086, 110.935 164.303 C 109.049 158.589, 110.157 144.993, 112.812 141.264 C 114.015 139.574, 115 137.759, 115 137.230 C 115 134.189, 123.740 127.916, 130.921 125.804 C 133.865 124.938, 132.910 121, 129.756 121 C 125.312 121, 120.833 116.085, 121.633 112.085 C 122.389 108.303, 120.368 108.050, 115 111.255 M 19.231 131.500 C 16.015 143.663, 15.323 176.310, 18.023 188.500 C 21.322 203.390, 22.733 207.729, 27.573 217.873 C 30.558 224.128, 33 229.773, 33 230.416 C 33 237.253, 79.767 276, 88.019 276 C 88.596 276, 91.805 273.075, 95.150 269.499 C 105.317 258.630, 120.012 251, 130.776 251 C 134.270 251, 138 249.515, 138 248.124 C 138 247.304, 131.142 245.635, 123 244.474 C 103.128 241.638, 79.747 227.144, 66.368 209.368 C 53.006 191.613, 47.519 164.110, 52.876 141.727 C 55.033 132.712, 55.564 133.431, 46.049 132.492 C 41.951 132.087, 36.551 130.832, 34.049 129.701 C 25.920 126.028, 20.505 126.685, 19.231 131.500 M 139.738 127.692 C 138.769 127.945, 138.217 128.542, 138.511 129.019 C 138.806 129.495, 139.515 141.040, 140.087 154.673 C 140.659 168.306, 141.265 179.598, 141.432 179.766 C 143.695 182.028, 157.640 172.278, 160.928 166.135 C 165.183 158.184, 161.865 138.707, 155.234 132.710 C 153.470 131.115, 143.322 126.821, 142.014 127.116 C 141.731 127.180, 140.707 127.439, 139.738 127.692 M 129.500 130.243 C 124.565 132.027, 120.736 134.456, 119.585 136.534 C 118.988 137.611, 117.622 139.815, 116.549 141.432 C 113.552 145.950, 113.102 160.182, 115.766 166.204 C 118.556 172.511, 125.208 177.239, 134.347 179.410 C 137.417 180.140, 137.502 176.845, 135.385 139.250 C 134.772 128.361, 134.759 128.341, 129.500 130.243 M 63.374 133.211 C 61.003 133.975, 59.985 135.097, 59.157 137.859 C 51.280 164.135, 57.036 193.210, 74.023 212.946 C 86.957 227.975, 108.968 238.787, 132.250 241.548 C 138 242.230, 138 242.230, 138 234.115 C 138 226, 138 226, 132.562 226 C 125.692 226, 114.703 223.483, 109.500 220.717 C 80.069 205.074, 69.440 189.800, 68.289 161.500 C 67.809 149.678, 68.725 138.286, 70.521 133.750 C 71.325 131.721, 68.631 131.518, 63.374 133.211 M 243.994 146.934 C 232.076 150.559, 225.032 161.466, 226.366 174.227 C 226.708 177.496, 227.315 180.694, 227.715 181.335 C 228.116 181.976, 228.539 183.129, 228.655 183.898 C 229.719 190.935, 244.115 199.431, 253.741 198.703 C 269.613 197.503, 277.167 189.709, 277.199 174.500 C 277.244 152.967, 263.010 141.150, 243.994 146.934 M 243.625 150.469 C 233.400 154.114, 226.906 165.799, 229.189 176.444 C 233.468 196.400, 255.527 202.569, 268.777 187.516 C 285.378 168.656, 267.301 142.030, 243.625 150.469 M 244.684 154.449 C 233.988 158.263, 229.916 171.004, 235.652 182.705 C 241.354 194.336, 260.925 194.809, 267.567 183.476 C 277.913 165.822, 263.623 147.694, 244.684 154.449 M 548.373 157.750 C 548.168 158.438, 547.765 159.739, 547.477 160.641 C 547.043 162.005, 547.210 162.070, 548.464 161.030 C 549.295 160.340, 550.655 160.037, 551.487 160.357 C 552.319 160.676, 553 160.538, 553 160.050 C 553 159.563, 553.230 158.564, 553.511 157.832 C 553.857 156.930, 553.170 156.500, 551.384 156.500 C 549.933 156.500, 548.578 157.063, 548.373 157.750 M 349.638 170.106 C 347.728 172.833, 350.615 176.995, 354.424 177.006 C 355.566 177.010, 357.789 177.685, 359.364 178.506 C 366.477 182.215, 369.292 179.164, 364.167 173.301 C 359.413 167.863, 352.304 166.300, 349.638 170.106 M 542.500 175.791 C 539.474 178.523, 533.298 185.573, 535.965 183.250 C 536.754 182.563, 538.101 182, 538.957 182 C 539.814 182, 541.738 179.975, 543.233 177.500 C 544.728 175.025, 545.849 173.018, 545.725 173.041 C 545.601 173.063, 544.150 174.300, 542.500 175.791 M 118.012 177.719 C 118.019 178.149, 119.594 179.517, 121.512 180.759 C 126.154 183.766, 125.950 184.821, 119.578 190.752 C 112.628 197.220, 111.266 199.982, 110.420 209.321 C 109.791 216.262, 109.900 217.014, 111.614 217.570 C 112.651 217.906, 114.400 218.558, 115.500 219.019 C 119.622 220.745, 127.667 222.052, 132.500 221.781 C 137.500 221.500, 137.500 221.500, 137.772 202.750 C 138.044 184, 138.044 184, 133.541 184 C 130.097 184, 127.742 183.170, 123.519 180.469 C 120.484 178.527, 118.006 177.290, 118.012 177.719 M 330.714 200.313 C 329.198 202.627, 329.198 202.627, 336.228 203.832 C 351.793 206.501, 369.330 219.069, 374.132 230.994 C 375.467 234.311, 370.016 239.588, 364.331 240.481 C 360.270 241.119, 346.654 247.300, 339.859 251.589 C 335.796 254.154, 335.796 254.154, 337.898 256.391 C 340.952 259.642, 340.498 262.392, 336.155 266.958 C 331.052 272.322, 324.385 271.484, 318.133 264.693 C 315.535 261.871, 312.130 262.564, 302.997 267.769 C 296.530 271.455, 290.167 273.384, 288.644 272.119 C 287.589 271.244, 286.970 271.331, 286.010 272.488 C 285.320 273.319, 284.272 274, 283.681 274 C 282.703 274, 279.196 276.113, 271.739 281.194 C 270.221 282.229, 265.496 284.590, 261.239 286.441 C 256.983 288.292, 249.261 291.680, 244.081 293.969 C 237.653 296.810, 233.895 297.939, 232.247 297.526 C 230.402 297.063, 228.939 297.726, 226.053 300.333 C 223.974 302.211, 221.434 304.217, 220.408 304.791 C 218.077 306.096, 221.590 311.481, 232.011 322.571 C 238.238 329.199, 248.085 341.706, 252.424 348.500 C 253.478 350.150, 257.119 354.425, 260.516 358 C 263.912 361.575, 268.530 366.975, 270.777 370 C 276.056 377.106, 293.322 395.062, 292.573 392.667 C 287.026 374.942, 295.062 345.049, 309.128 331.082 C 329.938 310.419, 339.770 305.554, 360.320 305.755 C 371.141 305.861, 371.141 305.861, 386.542 297.366 C 395.013 292.694, 404.213 288.072, 406.988 287.094 C 409.763 286.117, 413.038 284.417, 414.266 283.315 C 416.986 280.877, 431.643 273, 433.461 273 C 434.591 273, 446.798 265.267, 449.426 262.886 C 449.982 262.383, 449.729 261.338, 448.793 260.274 C 447.935 259.298, 446.250 256.700, 445.049 254.500 C 437.610 240.873, 428.878 229.510, 421.324 223.624 C 415.104 218.779, 415.926 218.682, 399.061 226.234 C 392.001 229.396, 386.957 231, 384.074 231 C 382.603 231, 380.918 231.482, 380.329 232.071 C 378.895 233.505, 375.021 228.636, 375.658 226.200 C 376.422 223.279, 357.286 206, 353.288 206 C 352.618 206, 350.532 204.650, 348.653 203 C 345.168 199.940, 340.380 199.020, 338.376 201.024 C 337.678 201.722, 336.770 201.404, 335.521 200.024 C 333.187 197.444, 332.570 197.481, 330.714 200.313 M 325 208.708 C 321.049 209.396, 310.650 213.208, 309 214.573 C 308.175 215.256, 305.671 216.301, 303.435 216.896 C 299.624 217.910, 294.040 222.373, 295.170 223.503 C 295.451 223.784, 297.481 222.709, 299.682 221.115 C 305.331 217.024, 319.468 211, 323.423 211 C 328.317 211, 333.047 209.885, 332.425 208.878 C 331.872 207.983, 329.476 207.928, 325 208.708 M 336.344 208.748 C 337.749 211.022, 332.229 214.169, 325.844 214.734 C 318.741 215.363, 306.607 220.204, 299.396 225.287 C 295.598 227.963, 294.637 228.254, 292.990 227.226 C 288.218 224.246, 284.235 253.672, 287.910 264.750 C 289.554 269.705, 289.204 269.619, 296.458 266.843 C 300.879 265.152, 301.939 264.343, 301.376 263.093 C 300.981 262.217, 300.461 257.714, 300.220 253.087 C 298.640 222.772, 332.188 208.919, 352.736 231.402 C 358.060 237.226, 364.368 238.376, 369.682 234.490 C 371.774 232.961, 366.385 224.130, 360.239 219.016 C 353.864 213.712, 334.186 205.256, 336.344 208.748 M 295.500 213.108 C 293.300 214.787, 291.622 216.603, 291.772 217.145 C 292.212 218.742, 288.037 223.951, 286.714 223.455 C 284.955 222.797, 280.941 230.541, 282.324 231.924 C 283.991 233.591, 284.727 233.224, 285.443 230.372 C 285.805 228.927, 288.626 225.098, 291.710 221.865 C 294.795 218.631, 297.018 215.684, 296.650 215.317 C 296.282 214.949, 296.964 213.602, 298.165 212.324 C 301.094 209.207, 300.311 209.437, 295.500 213.108 M 429.069 226.680 C 438.003 236.242, 442.500 242.504, 449.049 254.500 C 450.250 256.700, 451.910 259.271, 452.738 260.213 C 453.565 261.155, 454 262.559, 453.703 263.332 C 453.083 264.947, 435.183 277, 433.405 277 C 431.221 277, 414.837 286.238, 415.673 286.998 C 416.128 287.412, 418.750 289.427, 421.500 291.477 C 428.125 296.415, 445 311.124, 445 311.960 C 445 312.323, 446.991 314.952, 449.424 317.803 C 455.317 324.707, 465.183 341.361, 464.473 343.209 C 464.163 344.018, 464.559 345.219, 465.354 345.879 C 466.149 346.539, 467.797 349.536, 469.016 352.539 C 471.232 358, 471.232 358, 479.712 358 C 484.376 358, 490.511 358.613, 493.346 359.361 C 496.181 360.110, 500.673 361.243, 503.329 361.878 C 514.222 364.486, 530.975 378.627, 538.194 391.308 C 541.150 396.500, 541.150 396.500, 540.567 386.929 C 538.821 358.235, 532.673 332.187, 523.826 316 C 522.173 312.975, 519.325 307.725, 517.498 304.332 C 515.671 300.940, 509.741 291.940, 504.321 284.332 C 498.901 276.725, 493.611 269.162, 492.564 267.527 C 490.574 264.417, 475.336 249.591, 471.466 247 C 470.234 246.175, 466.442 243.548, 463.039 241.162 C 456.115 236.308, 433.125 224.574, 428.500 223.534 C 425.500 222.859, 425.500 222.859, 429.069 226.680 M 320.857 226.389 C 308.137 230.934, 303.296 238.909, 304.240 253.768 C 304.797 262.533, 304.755 262.482, 309.724 260.494 C 313.697 258.904, 313.697 258.904, 313.227 254.006 C 312.600 247.481, 313.406 244.746, 317.249 240.369 C 324.892 231.664, 332.668 231.778, 342.127 240.732 C 345.754 244.166, 345.754 244.166, 349.877 242.063 C 354.788 239.557, 354.810 239.418, 351.092 234.285 C 345.250 226.221, 331.431 222.612, 320.857 226.389 M 282.541 234.933 C 282.179 235.520, 282.159 236, 282.498 236 C 282.836 236, 282.413 237, 281.557 238.223 C 280.364 239.926, 280.004 243.139, 280.015 251.973 C 280.031 264.075, 280.300 265.201, 283.444 266.366 C 285.339 267.068, 285.342 267.035, 283.540 265.044 C 281.489 262.778, 281.284 253.461, 283.011 241.038 C 283.909 234.579, 283.782 232.926, 282.541 234.933 M 323.315 239.464 C 319.207 241.250, 317 245.614, 317 251.950 C 317 254.728, 317.135 257, 317.299 257 C 317.464 257, 322.751 254.716, 329.049 251.925 C 335.347 249.133, 341.060 246.611, 341.744 246.320 C 343.429 245.603, 342.538 244.403, 337.750 240.934 C 333.224 237.655, 328.564 237.180, 323.315 239.464 M 271.856 244.759 C 269.852 247.916, 267.422 252.075, 266.456 254 C 263.988 258.916, 252.237 274.365, 243.750 283.852 C 234.921 293.720, 236.671 294.268, 252.081 286.459 C 254.764 285.099, 259.331 283.055, 262.230 281.916 C 269.736 278.967, 278.263 273.127, 277.596 271.391 C 275.992 267.209, 274.816 255.735, 275.190 247.911 C 275.424 243.010, 275.590 239.004, 275.558 239.009 C 275.526 239.014, 273.860 241.601, 271.856 244.759 M 142.193 256.025 C 141.283 257.508, 141.198 258.534, 141.915 259.397 C 142.481 260.079, 143.210 265.557, 143.534 271.569 C 143.901 278.377, 144.555 282.652, 145.267 282.902 C 148.362 283.989, 156.016 292.605, 158.045 297.286 C 163.753 310.456, 157.906 324.402, 144.750 328.991 C 140.461 330.487, 140.393 360, 144.679 360 C 151.926 360, 170.210 351.670, 174.527 346.402 C 187.874 330.113, 189.600 299.360, 178.105 282.652 C 174.409 277.281, 174.321 276.352, 177.208 273.279 C 181.948 268.233, 167.572 257.229, 154 255.515 C 151.525 255.202, 148.150 254.709, 146.500 254.420 C 144.169 254.011, 143.208 254.369, 142.193 256.025 M 329.496 259.006 C 329.085 259.671, 327.628 259.857, 325.864 259.470 C 322.977 258.836, 320 260.207, 320 262.171 C 320 263.282, 327.786 266.947, 330.211 266.978 C 334.089 267.028, 337.522 260.770, 334.250 259.616 C 333.288 259.276, 331.979 258.750, 331.342 258.447 C 330.705 258.143, 329.874 258.395, 329.496 259.006 M 0.494 260.172 C -0.284 262.178, 1.184 265.128, 5.633 270.500 C 7.454 272.700, 12.261 278.565, 16.314 283.532 C 23.203 291.977, 36.823 305.290, 45.130 311.699 C 47.127 313.240, 53.066 318.100, 58.328 322.500 C 63.590 326.900, 71.283 332.412, 75.424 334.750 C 86.626 341.072, 86.661 341.180, 82.052 355 C 77.905 367.434, 74.499 382.506, 73.409 393.250 C 72.601 401.213, 73.179 401.083, 61.632 395.905 C 47.639 389.630, 27.222 375.435, 10.292 360.211 C 5.773 356.148, 1.592 353.134, 0.989 353.507 C -3.653 356.376, 43.190 391.933, 62.857 400.468 C 72.874 404.815, 73.721 407.772, 70.985 428.845 C 70.453 432.941, 70.407 436.921, 70.882 437.845 C 72.755 441.490, 73.130 449.736, 71.452 450.380 C 69.416 451.161, 56.992 448.138, 54.921 446.357 C 54.053 445.611, 52.703 444.998, 51.921 444.995 C 51.140 444.993, 47.800 443.879, 44.500 442.519 C 41.200 441.160, 37.223 440.037, 35.662 440.024 C 34.102 440.011, 30.052 438.457, 26.662 436.571 C 23.273 434.685, 17.359 431.966, 13.520 430.529 C 9.681 429.092, 5.552 426.988, 4.344 425.853 C 1.695 423.365, 0.051 424.103, 0.324 427.659 C 0.531 430.344, 5.597 434, 9.110 434 C 10.901 434, 20.370 437.908, 26.107 441.014 C 28.091 442.088, 32.910 443.640, 36.815 444.461 C 40.721 445.283, 46.298 447.132, 49.208 448.572 C 55.485 451.676, 69.394 455.327, 71.904 454.530 C 73.829 453.919, 74.833 457.226, 77.016 471.369 C 79.696 488.733, 99.960 526.707, 104.254 522.413 C 104.577 522.090, 102.458 518.152, 99.546 513.663 C 89.633 498.382, 83.874 484.318, 81.034 468.457 C 79.922 462.245, 78.469 455.888, 77.806 454.331 C 75.969 450.021, 75.797 407.145, 77.564 394 C 79.760 377.659, 84.559 358.307, 88.781 348.761 C 93.280 338.590, 89.511 329.364, 81.233 330.284 C 76.578 330.801, 63.548 322.694, 49.500 310.539 C 46.200 307.683, 41.776 304.063, 39.669 302.493 C 35.004 299.018, 17.184 279.424, 11 270.971 C 3.115 260.192, 1.236 258.260, 0.494 260.172 M 129.166 262.022 C 103.016 269.736, 92.901 283.962, 94.238 311.145 C 95.294 332.625, 104.746 347.049, 123.753 356.185 C 137.456 362.773, 138 362.337, 138 344.787 C 138 327.598, 138.141 327.201, 145.065 324.867 C 158.134 320.463, 160.362 297.621, 148.525 289.385 C 139.627 283.194, 139.582 283.067, 139.069 262.750 C 138.987 259.467, 138.056 259.399, 129.166 262.022 M 403.500 292.404 C 400.750 293.664, 392.297 298.138, 384.716 302.347 C 377.136 306.556, 370.336 310, 369.606 310 C 368.876 310, 366.754 311.033, 364.890 312.295 C 359.576 315.891, 346.698 322, 344.428 322 C 343.299 322, 341.116 323.314, 339.578 324.919 C 338.039 326.525, 335.595 328.136, 334.146 328.499 C 330.857 329.325, 329 330.824, 329 332.654 C 329 335.600, 332.072 335.167, 335.937 331.676 C 347.279 321.429, 369.181 323.095, 385.346 335.435 C 391.947 340.473, 390.923 340.828, 410.336 326.757 C 413.176 324.698, 416.787 322.223, 418.359 321.257 C 424.092 317.735, 428.792 314.430, 432.535 311.289 C 436.868 307.653, 436.205 306.622, 423.142 296.688 C 413.001 288.975, 411.638 288.678, 403.500 292.404 M 351 309.925 C 336.590 312.030, 318.224 324.509, 322.737 329.128 C 324.974 331.418, 324.974 331.418, 328.237 328.278 C 330.032 326.551, 332.688 324.846, 334.140 324.488 C 335.593 324.131, 338.039 322.525, 339.578 320.919 C 341.116 319.314, 343.299 318, 344.428 318 C 346.984 318, 361 311.160, 361 309.913 C 361 308.911, 357.911 308.915, 351 309.925 M 437.591 312.900 C 436.645 313.945, 429.938 318.743, 422.686 323.562 C 415.434 328.381, 406.350 334.430, 402.500 337.004 C 398.650 339.579, 393.303 342.766, 390.617 344.086 C 387.932 345.407, 384.139 348.435, 382.188 350.816 C 380.237 353.196, 376.759 356.124, 374.460 357.322 C 370.325 359.476, 359 370.810, 359 372.794 C 359 373.358, 360.747 376.030, 362.882 378.731 C 368.290 385.573, 381 405.028, 381 406.465 C 381 408.631, 376.306 412.104, 371.372 413.589 C 339.675 423.128, 310.356 375.347, 333.915 352.547 C 338.832 347.789, 338.803 348.151, 334.657 343.188 C 330.960 338.763, 330.767 338.793, 326.358 344.500 C 306.273 370.496, 315.004 404.515, 345.652 419.676 C 358.296 425.931, 380.185 426.053, 385.867 419.899 C 389.790 415.650, 389.790 415.650, 387.683 413.945 C 385.430 412.120, 389.087 404.120, 392.264 403.923 C 392.944 403.881, 394.369 403.684, 395.431 403.485 C 396.494 403.286, 398.294 403.638, 399.431 404.267 C 402.733 406.091, 406.817 405.132, 405.415 402.862 C 402.729 398.517, 405.984 390.865, 408.981 394.477 C 409.734 395.385, 410.009 397.206, 409.657 398.964 C 409.066 401.922, 410.296 403.949, 411.500 402 C 411.851 401.432, 412.590 401.247, 413.143 401.588 C 414.239 402.266, 413.491 400.684, 408.519 391.812 C 407.012 389.123, 407.012 389.123, 416.895 380.312 C 429.364 369.194, 448.893 352.498, 455.750 347.092 C 458.637 344.816, 461 342.666, 461 342.314 C 461 340.716, 449.396 322.456, 445.424 317.803 C 442.991 314.952, 441 312.255, 441 311.810 C 441 310.408, 439.376 310.927, 437.591 312.900 M 311.265 333.250 C 306.648 337.977, 301.096 348.473, 298.415 357.545 C 295.649 366.903, 295.879 396.673, 298.745 400.229 C 299.308 400.928, 301.416 404.793, 303.431 408.817 C 311.340 424.621, 325.139 438.093, 342 446.474 C 347.225 449.071, 353.164 452.051, 355.198 453.098 C 361.382 456.278, 398.814 455.121, 401.144 451.677 C 401.961 450.469, 400.301 446.707, 396.488 441.126 C 394.845 438.720, 392.375 434.862, 391 432.551 C 385.874 423.939, 386.611 424.554, 383.703 426.459 C 381.517 427.891, 378.971 428.103, 367.249 427.827 C 348.927 427.395, 342.387 424.502, 328.838 410.836 C 307.612 389.428, 305.344 369.545, 321.406 345.672 C 326.989 337.373, 327 337.136, 321.997 332.616 C 316.940 328.047, 316.311 328.084, 311.265 333.250 M 363 330.208 C 363 330.872, 361.313 333.154, 359.250 335.278 C 355.642 338.994, 355.600 339.116, 358.141 338.489 C 359.716 338.101, 361.066 338.298, 361.486 338.978 C 361.904 339.653, 363.333 339.866, 364.995 339.501 C 367.209 339.015, 368.527 339.524, 371.256 341.920 C 373.157 343.589, 374.971 344.696, 375.287 344.380 C 375.603 344.064, 376.423 344.704, 377.109 345.803 C 378.584 348.164, 380.246 347.744, 384.739 343.872 C 387.978 341.081, 387.978 341.081, 383.739 338.181 C 378.008 334.260, 373.689 332.114, 368.148 330.432 C 362.525 328.726, 363 328.747, 363 330.208 M 347.695 336.763 C 345.210 337.320, 346.188 339.572, 348.754 339.202 C 349.892 339.038, 351.128 339.398, 351.500 340.001 C 351.987 340.788, 352.573 340.770, 353.578 339.935 C 355.096 338.675, 354.485 336.582, 352.887 337.570 C 352.351 337.901, 351.370 337.764, 350.706 337.265 C 350.043 336.766, 348.688 336.540, 347.695 336.763 M 351.500 344.935 C 348.284 345.718, 342 348.749, 342 349.517 C 342 349.773, 343.554 352.018, 345.453 354.506 C 347.352 356.994, 350.382 361.498, 352.186 364.515 C 356.249 371.307, 355.602 371.403, 363.159 362.900 C 366.649 358.973, 371.435 354.801, 373.869 353.564 C 378.269 351.328, 378.269 351.328, 375.201 349.143 C 368.777 344.569, 359.656 342.949, 351.500 344.935 M 457.909 349.282 C 456.483 350.502, 450.486 355.550, 444.580 360.500 C 435.462 368.143, 431 373.426, 431 376.579 C 431 376.762, 434.488 374.393, 438.750 371.312 C 447.523 364.972, 456.493 360.569, 462.750 359.530 C 467.686 358.710, 467.651 358.833, 464.867 352.133 C 462.490 346.416, 461.656 346.074, 457.909 349.282 M 335.767 354.786 C 329.822 361.142, 327.481 372.498, 329.973 382.889 C 331.502 389.261, 331.924 389.243, 340.500 382.420 C 354.229 371.498, 353.701 373.085, 347.044 362.739 C 340.016 351.816, 339.130 351.191, 335.767 354.786 M 256.584 364.958 C 255.720 372.599, 257.264 384.215, 261.176 399.500 C 262.865 406.100, 264.568 413.075, 264.960 415 C 265.962 419.917, 270.397 428.268, 276.088 435.951 C 278.756 439.553, 281.858 443.850, 282.981 445.500 C 289.187 454.613, 294.304 460.969, 296.696 462.537 C 300.634 465.117, 313.184 475.410, 315.405 477.881 C 316.453 479.046, 317.983 480, 318.805 480 C 319.627 480, 327.095 483.344, 335.400 487.431 C 351.925 495.563, 357.934 497.852, 362.500 497.756 C 364.150 497.722, 370.225 498.271, 376 498.976 C 393.282 501.088, 421.354 498.271, 426.627 493.895 C 428.188 492.599, 425.639 486.789, 422.106 483.595 C 420.948 482.547, 420 480.817, 420 479.749 C 420 477.199, 417.258 472.294, 413.571 468.250 C 411.941 466.462, 410.999 465, 411.478 465 C 411.957 465, 411.435 463.988, 410.319 462.750 C 409.202 461.512, 407.462 459.055, 406.451 457.288 C 404.940 454.646, 404.355 454.291, 403.156 455.288 C 398.660 459.025, 361.660 460.422, 355.198 457.098 C 353.164 456.051, 347.225 453.066, 342 450.464 C 323.844 441.420, 307.932 425.765, 299.157 408.313 C 296.917 403.856, 293.749 399.150, 292.117 397.855 C 288.259 394.792, 269.524 373.944, 264.822 367.482 C 258.036 358.156, 257.377 357.954, 256.584 364.958 M 142.080 366.351 C 139.342 371.467, 140.795 373.269, 149.204 375.182 C 162.813 378.278, 182 390.230, 182 395.612 C 182 397.622, 184.962 398.043, 188.551 396.543 C 191.738 395.211, 191.916 394.908, 190.967 392.414 C 190.405 390.934, 190.167 389.500, 190.438 389.228 C 190.710 388.956, 189.035 387.377, 186.716 385.718 C 184.397 384.059, 180.585 380.957, 178.245 378.826 C 171.465 372.649, 165.447 369.322, 157.708 367.470 C 153.743 366.521, 150.072 365.352, 149.550 364.872 C 147.622 363.102, 143.368 363.944, 142.080 366.351 M 463.756 367.462 C 444.016 371.783, 423.599 392.279, 420.118 411.270 C 412.458 453.061, 430.280 483.517, 466.746 490.948 C 504.067 498.554, 541.057 469.853, 540.984 433.346 C 540.892 387.316, 506.622 358.080, 463.756 367.462 M 463.756 371.462 C 444.679 375.638, 427.484 392.906, 424.118 411.270 C 416.571 452.445, 432.019 479.871, 466.746 486.948 C 503.463 494.431, 537.055 468.795, 536.984 433.346 C 536.895 388.463, 505.869 362.244, 463.756 371.462 M 347.905 380.388 C 343.757 383.788, 338.886 387.727, 337.081 389.140 C 332.161 392.990, 336.091 399.035, 348.570 406.816 C 356.375 411.683, 375.077 411.433, 376.696 406.440 C 377.068 405.294, 361.803 381.614, 359.957 380.474 C 359.342 380.093, 358.075 378.527, 357.142 376.993 C 355.446 374.205, 355.446 374.205, 347.905 380.388 M 418.314 382.919 C 411.127 389.784, 411.127 389.784, 413.451 392.934 C 415.775 396.084, 415.775 396.084, 416.783 393.292 C 417.337 391.756, 419.863 388.101, 422.396 385.168 C 426.475 380.444, 428.371 375.950, 426.250 376.027 C 425.837 376.043, 422.266 379.144, 418.314 382.919 M 139.787 378.821 C 138.549 379.312, 138.336 379.917, 139.021 381 C 139.543 381.825, 139.976 388.834, 139.985 396.576 C 140.002 412.325, 139.885 412.607, 131.795 416.254 C 121.687 420.812, 121.603 439.912, 131.664 446.304 C 139.323 451.169, 139.450 451.510, 139.858 468.222 C 140.224 483.244, 140.224 483.244, 147.982 482.795 C 172.783 481.359, 188.484 459.807, 186.685 429.669 C 184.940 400.437, 173.639 384.892, 150.303 379.625 C 142.423 377.846, 142.272 377.834, 139.787 378.821 M 120.731 382.022 C 90.948 391.812, 81.236 432.663, 101.663 462.224 C 106.187 468.771, 128.299 481, 135.612 481 C 137.416 481, 135.421 452.670, 133.540 451.593 C 116.224 441.679, 116.210 415.750, 133.518 411.406 C 136 410.783, 136 410.783, 136 396.973 C 136 378.121, 135.145 377.284, 120.731 382.022 M 188.374 400.914 C 185.248 402.820, 185.248 402.820, 187.692 411.160 C 191.909 425.548, 191.847 445.030, 187.553 455.173 C 186.740 457.095, 190.088 461, 192.551 461 C 199.343 461, 202.585 420.785, 197.045 405.250 C 194.583 398.346, 193.486 397.797, 188.374 400.914 M 469.637 402.465 C 453.554 408.198, 448.665 430.790, 460.793 443.335 C 477.404 460.518, 502.029 449.932, 501.990 425.624 C 501.962 407.757, 486.280 396.532, 469.637 402.465 M 470.942 405.948 C 454.576 410.914, 452.887 437.286, 468.428 445.217 C 484.122 453.227, 498 444.120, 498 425.810 C 498 409.894, 486.282 401.293, 470.942 405.948 M 403 410.941 C 403 412.009, 402.570 413.148, 402.044 413.473 C 401.518 413.798, 401.312 414.650, 401.587 415.367 C 402.833 418.613, 398.359 421.677, 395.833 419.309 C 393.581 417.197, 393.411 417.181, 391.170 418.872 C 389.086 420.444, 389.008 420.762, 390.422 421.935 C 391.290 422.656, 392 423.786, 392 424.448 C 392 425.110, 393.074 426.661, 394.388 427.894 C 395.701 429.128, 398.675 433.819, 400.997 438.319 C 405.575 447.189, 408 450.530, 408 447.967 C 408 447.164, 408.255 438.924, 408.567 429.656 C 409.073 414.620, 408.949 412.601, 407.412 410.903 C 405.189 408.447, 403 408.466, 403 410.941 M 408 452.632 C 408 453.347, 412.012 460, 412.443 460 C 412.596 460, 412.242 458.200, 411.654 456 C 410.790 452.761, 408 450.190, 408 452.632 M 183.195 464.082 C 175.372 477.676, 162.658 485.831, 147.834 486.765 C 139.408 487.295, 139.043 487.631, 139.014 494.868 C 138.984 502.275, 169.343 495.980, 180.045 486.360 C 187.718 479.463, 196.203 465, 192.577 465 C 191.794 465, 189.867 463.918, 188.295 462.594 C 185.436 460.189, 185.436 460.189, 183.195 464.082" stroke="none" fill="#1A1A1A" fill-rule="evenodd"/>
</svg>