<svg xmlns="http://www.w3.org/2000/svg" viewBox="0 0 600 523" version="1.1" preserveAspectRatio="xMidYMid meet">
	<path d="M 243.570 0.887 C 242.858 2.039, 244.288 3.073, 251.087 6.320 C 254.161 7.787, 260.418 11.691, 264.992 14.994 C 269.566 18.297, 273.583 21, 273.918 21 C 274.626 21, 280.877 27.331, 287.248 34.500 C 296.803 45.252, 312.415 71.573, 314.576 80.573 C 314.963 82.183, 317.045 87.100, 319.205 91.500 C 321.364 95.900, 323.522 101.525, 324.001 104 C 324.480 106.475, 325.762 110.975, 326.850 114 C 329.972 122.676, 331.269 140.121, 330.732 166.177 C 330.113 196.157, 330.497 195.009, 320.437 197.012 C 310.738 198.943, 304.759 201.569, 296.276 207.623 C 289.371 212.550, 288.882 212.160, 292.660 204.735 C 299.380 191.528, 301.989 140.107, 296.801 123.144 C 296.058 120.713, 296.105 119.173, 296.972 117.553 C 298.532 114.637, 283.600 82.330, 274.107 68.087 C 272.123 65.110, 269.760 61.285, 268.854 59.587 C 266.038 54.303, 245.268 35.774, 237.472 31.591 C 234.738 30.124, 230.987 27.826, 229.137 26.485 C 227.287 25.144, 224.830 24.191, 223.675 24.367 C 220.910 24.789, 210.312 20.440, 206.700 17.401 C 205.130 16.080, 202.643 14.751, 201.173 14.447 C 196.686 13.520, 188.744 11.209, 184 9.448 C 178.423 7.379, 166.924 6.991, 164.745 8.797 C 163.570 9.772, 158.242 10.071, 143.340 10.001 C 132.428 9.950, 120.800 10.369, 117.500 10.934 C 95.937 14.622, 86.809 17.595, 77.601 23.930 C 74.244 26.240, 72.026 27, 68.642 27 C 34.950 27, 13.698 42.120, 4.918 72.339 C 3.045 78.782, 2.866 80.621, 3.801 83.760 C 4.414 85.817, 5.896 90.875, 7.094 95 C 9.539 103.420, 11.942 108.626, 16.097 114.500 C 18.420 117.784, 18.858 119.306, 18.547 123 C 18.142 127.813, 16.300 137.706, 15.598 138.842 C 13.218 142.692, 11.834 160.422, 12.971 172.500 C 15.196 196.150, 17.335 204.158, 26.594 223.500 C 34.983 241.028, 58.491 263.652, 81.010 275.871 C 89.425 280.437, 89.814 280.384, 94.478 274.031 C 101.352 264.666, 118.679 255, 128.591 255 C 130.945 255, 134.024 254.561, 135.435 254.025 C 137.470 253.251, 138 253.354, 138 254.525 C 138 255.336, 137.172 256, 136.160 256 C 132.992 256, 117.333 261.615, 112.338 264.542 C 84.522 280.843, 81.219 323.932, 105.941 348 C 115.927 357.722, 127.513 363.992, 136.152 364.349 C 139.803 364.500, 139.803 364.500, 138.217 367.197 C 136.937 369.374, 136.855 370.387, 137.794 372.447 C 138.816 374.689, 138.729 375, 137.086 375 C 136.056 375, 134.949 374.310, 134.626 373.466 C 134.302 372.623, 131.130 370.629, 127.577 369.034 C 114.982 363.384, 111.664 360.709, 93.813 341.816 C 92.335 340.252, 90.821 337.966, 90.448 336.736 C 88.858 331.492, 81.546 327.690, 79.480 331.033 C 78.409 332.765, 61.270 321.358, 49.381 311 C 45.909 307.975, 40.562 303.475, 37.498 301 C 32.093 296.634, 17.592 280.425, 11.500 271.940 C 4.754 262.544, 2.452 259.742, 1.525 259.795 C -0.298 259.898, -0.051 261.629, 2.227 264.721 C 3.477 266.418, 5.850 269.691, 7.500 271.995 C 9.150 274.299, 11.881 277.830, 13.569 279.842 C 15.256 281.854, 17.654 285.185, 18.896 287.244 C 20.139 289.303, 21.759 291.328, 22.496 291.744 C 23.233 292.160, 27.182 295.716, 31.273 299.646 C 35.363 303.576, 40.463 307.905, 42.605 309.266 C 44.747 310.627, 47.400 312.757, 48.500 313.999 C 51.298 317.158, 63.906 326.652, 74 333.201 C 86.557 341.347, 87.378 342.439, 84.979 347.798 C 83.925 350.152, 81.510 357.642, 79.613 364.443 C 76.505 375.581, 75.602 380.067, 73.206 396.276 C 72.500 401.052, 72.500 401.052, 59 394.237 C 51.575 390.489, 42.766 385.415, 39.424 382.961 C 36.083 380.507, 30.263 376.250, 26.491 373.500 C 22.719 370.750, 15.778 365.016, 11.066 360.757 C 3.090 353.548, 0.500 352.075, 0.500 354.750 C 0.500 355.791, 11.091 365.415, 20.842 373.236 C 33.457 383.353, 47.719 392.664, 59.214 398.284 C 73.132 405.089, 73.643 406.390, 71.088 428.500 C 70.644 432.350, 70.605 436.175, 71.003 437 C 71.401 437.825, 72.017 441.088, 72.372 444.250 C 73.225 451.848, 72.072 451.757, 44.500 442.054 C 41.750 441.086, 37.250 439.754, 34.500 439.095 C 31.750 438.435, 27.925 436.843, 26 435.557 C 24.075 434.271, 20.025 432.442, 17 431.493 C 13.975 430.544, 9.379 428.433, 6.786 426.803 C 2.510 424.113, 0 423.786, -0 425.917 C -0 427.318, 11.299 433.672, 17 435.477 C 20.025 436.435, 24.075 438.271, 26 439.557 C 27.925 440.843, 31.750 442.435, 34.500 443.095 C 37.250 443.754, 41.750 445.086, 44.500 446.054 C 55.478 449.917, 68.676 454, 70.187 454 C 73.674 454, 75.647 463.623, 72.678 466.148 C 70.500 468, 70.500 468, 72.913 470.043 C 74.453 471.346, 75.374 473.247, 75.458 475.293 C 75.531 477.057, 76.301 479.850, 77.171 481.500 C 79.350 485.636, 83 493.608, 83 494.233 C 83 497.857, 99.505 523, 101.884 523 C 105.156 523, 104.874 521.877, 99.546 513.663 C 90.034 499, 83.736 483.988, 81.456 470.543 C 80.612 465.569, 79.243 459.106, 78.413 456.180 C 73.202 437.813, 75.726 392.915, 83.511 365.500 C 84.292 362.750, 85.247 359.150, 85.634 357.500 C 88.856 343.751, 90.472 343.299, 100.398 353.370 C 110.006 363.120, 117.001 368.259, 126.873 372.818 C 132.243 375.297, 132.363 375.433, 129.500 375.777 C 114.739 377.550, 101.564 386.882, 93.890 401 C 75.608 434.637, 91.856 472.155, 129.601 483.462 C 135.609 485.261, 135.609 485.261, 135.180 491.184 C 134.391 502.103, 143.327 504.876, 162.500 499.661 C 178.693 495.257, 195.795 477.705, 199.940 461.236 C 200.596 458.631, 201.719 454.475, 202.437 452 C 206.333 438.570, 203.969 410.313, 197.981 398.735 C 196.342 395.565, 195 392.024, 195 390.868 C 195 388.408, 190.794 384.165, 178.785 374.514 C 171.540 368.691, 170.376 367.375, 171.796 366.612 C 188.432 357.673, 198 337.640, 198 311.747 C 198 299.228, 192.478 282.031, 186.142 274.814 C 184.414 272.846, 183 270.828, 183 270.330 C 183 264.261, 160.790 251.891, 149.481 251.662 C 141.462 251.500, 141.462 251.500, 141.825 248.381 C 142.175 245.377, 142.562 245.142, 152.344 241.979 C 157.930 240.173, 163.738 238.077, 165.250 237.322 C 168 235.949, 168 235.949, 168.022 242.224 C 168.058 252.390, 171.547 257.798, 184.189 267.274 C 186.767 269.208, 188.659 271.008, 188.392 271.275 C 187.768 271.899, 193.167 280.068, 198.455 286.500 C 200.716 289.250, 205.859 295.887, 209.884 301.250 C 213.910 306.613, 217.499 311, 217.861 311 C 221.125 311, 220.793 315.252, 217.081 320.996 C 194.886 355.336, 202.289 422.805, 233.320 469 C 243.039 483.467, 268.785 512, 272.121 512 C 272.601 512, 274.683 513.462, 276.747 515.250 C 283.289 520.915, 287.128 523.272, 288.149 522.251 C 289.105 521.295, 287.219 519.479, 277.507 512 C 235.786 479.873, 210.514 431.450, 208.287 379.368 C 207.242 354.937, 216.264 319, 223.442 319 C 225.868 319, 240.606 336.521, 249.500 349.977 C 251.150 352.474, 255.537 357.580, 259.250 361.325 C 262.962 365.070, 266 368.532, 266 369.018 C 266 369.916, 279.981 385.981, 289.483 396 C 296.461 403.359, 299.376 408.365, 298.565 411.596 C 298.019 413.771, 299.002 415.221, 305.489 421.816 C 321.068 437.651, 323.736 440.544, 324.325 442.240 C 325.021 444.244, 335.144 451, 337.451 451 C 338.301 451, 342.935 452.749, 347.749 454.888 C 358.898 459.841, 374.851 461.217, 389.437 458.484 C 394.203 457.591, 399.409 456.997, 401.008 457.165 C 403.003 457.374, 404.567 456.769, 405.996 455.235 C 409.078 451.927, 411.699 452.334, 412.532 456.250 C 414.450 465.265, 423.393 478.143, 433.631 486.634 C 437.411 489.768, 437.411 489.768, 434.251 493.367 C 430.947 497.130, 431.014 500.638, 434.472 505 C 435.126 505.825, 436.844 508.525, 438.290 511 C 442.275 517.823, 447.659 523.684, 448.852 522.500 C 449.527 521.830, 448.480 519.646, 445.680 515.882 C 431.150 496.350, 432.241 489.084, 448.500 497.089 C 451.800 498.714, 456.750 500.444, 459.500 500.934 C 488.379 506.077, 488.198 506.061, 494.687 504.080 C 504.416 501.109, 518.349 493.464, 525.892 486.956 C 534.096 479.876, 534.412 480.252, 529.092 490.772 C 523.697 501.443, 520.408 506.059, 512.471 514.102 C 507.176 519.466, 505.901 521.301, 506.824 522.224 C 511.101 526.501, 536.556 490.208, 537.513 478.467 C 537.703 476.132, 539.171 471.135, 540.776 467.361 C 542.380 463.587, 544.268 458.025, 544.971 455 C 545.674 451.975, 546.643 448.195, 547.125 446.601 C 548.876 440.802, 546.698 410.217, 544.059 403.538 C 543.167 401.280, 543.166 400.059, 544.056 398.396 C 544.848 396.915, 545.049 392.573, 544.681 384.858 C 543.527 360.697, 541.267 349.255, 533.629 328.921 C 531.493 323.233, 530.816 320.376, 531.684 320.709 C 532.416 320.990, 534.121 320.495, 535.473 319.610 C 536.824 318.724, 538.595 318, 539.409 318 C 540.223 318, 542.129 316.933, 543.644 315.630 C 547.176 312.592, 544.932 307.477, 540.550 308.577 C 538.148 309.180, 533.847 304.819, 535.356 303.311 C 535.701 302.966, 535.531 302.140, 534.979 301.475 C 534.285 300.639, 534.436 299.883, 535.467 299.028 C 536.481 298.186, 536.674 297.260, 536.070 296.131 C 535.487 295.042, 535.663 293.813, 536.583 292.556 C 538.223 290.313, 536.067 287, 532.967 287 C 532.020 287, 530.675 286.314, 529.979 285.475 C 528.851 284.116, 528.501 284.142, 526.764 285.714 C 522.063 289.968, 522.834 294.609, 528.967 298.976 C 532.489 301.484, 532.454 302.567, 528.747 305.789 C 527.233 307.106, 526.247 308.591, 526.556 309.091 C 526.865 309.591, 526.616 310, 526.003 310 C 525.389 310, 523.952 307.863, 522.809 305.250 C 521.665 302.637, 518.316 297.056, 515.365 292.848 C 512.414 288.639, 510 284.780, 510 284.272 C 510 283.764, 508.838 282.258, 507.419 280.924 C 505.999 279.591, 502.193 274.802, 498.960 270.283 C 493.082 262.067, 493.082 262.067, 498.791 256.950 C 501.931 254.136, 506.671 250.634, 509.324 249.167 C 518.486 244.102, 519.501 235.547, 510.950 235.468 C 509.052 235.451, 506.492 234.875, 505.259 234.188 C 502.267 232.521, 498.075 234.609, 491.888 240.849 C 482.584 250.232, 481.610 250.625, 477.081 246.822 C 473.138 243.512, 473.138 243.512, 477.488 240.805 C 483.007 237.370, 482.906 233.759, 477.262 232.724 C 475.743 232.446, 473.009 231.742, 471.187 231.161 C 468.173 230.199, 467.594 230.371, 464.777 233.062 C 462.091 235.630, 461.471 235.839, 460.091 234.643 C 459.216 233.885, 454.225 230.915, 449 228.042 C 443.775 225.169, 440.400 223.158, 441.500 223.573 C 442.600 223.988, 444.625 224.271, 446 224.202 C 447.375 224.133, 452.550 224.129, 457.500 224.192 C 462.450 224.256, 468.075 224.219, 470 224.111 C 471.925 224.003, 475.700 223.934, 478.390 223.958 C 482.922 223.999, 495.838 219.721, 504.132 215.432 C 506.556 214.178, 506.757 214.214, 506.338 215.816 C 506.081 216.799, 506.789 218.404, 507.938 219.444 C 509.072 220.470, 510 222.108, 510 223.082 C 510 225.104, 513.495 228.134, 517.959 229.983 C 520.691 231.115, 521 231.687, 521 235.613 C 521 238.900, 521.496 240.293, 523 241.232 C 524.100 241.919, 525 243.021, 525 243.682 C 525 244.342, 527.652 247.216, 530.892 250.069 C 535.749 254.344, 537.275 256.507, 539.576 262.378 C 541.111 266.295, 543.297 270.572, 544.434 271.881 C 546.500 274.263, 546.500 274.263, 544.284 272.912 C 542.282 271.692, 541.772 271.845, 539.007 274.493 C 535.563 277.793, 535.494 279.566, 538.580 285.500 C 542.232 292.522, 550.460 289.950, 549.298 282.150 C 548.491 276.731, 552.165 280.598, 554.856 288 C 555.955 291.025, 558.203 296.875, 559.850 301 C 562.779 308.335, 567.327 324.522, 570.385 338.500 C 571.747 344.725, 573.104 351.795, 576.143 368.500 C 576.643 371.250, 577.192 375.975, 577.362 379 C 577.531 382.025, 578.021 385.296, 578.449 386.268 C 578.888 387.264, 578.687 389.341, 577.990 391.024 C 577.309 392.667, 577.009 395.294, 577.322 396.861 C 577.635 398.427, 577.282 401.736, 576.536 404.214 C 575.790 406.692, 574.879 413.395, 574.510 419.110 C 573.847 429.383, 573.057 434.040, 568.331 455.500 C 566.999 461.550, 565.511 468.312, 565.026 470.527 C 562.851 480.456, 551.057 506.933, 544.518 516.568 C 541.914 520.406, 541.686 522.500, 543.871 522.500 C 547.373 522.500, 566.129 483.748, 569.026 470.527 C 569.511 468.312, 570.999 461.550, 572.331 455.500 C 577.057 434.040, 577.847 429.383, 578.510 419.110 C 578.879 413.395, 579.790 406.692, 580.536 404.214 C 581.282 401.736, 581.635 398.427, 581.322 396.861 C 581.009 395.294, 581.309 392.667, 581.990 391.024 C 582.687 389.341, 582.888 387.264, 582.449 386.268 C 582.021 385.296, 581.531 382.025, 581.362 379 C 581.192 375.975, 580.643 371.250, 580.143 368.500 C 577.104 351.795, 575.747 344.725, 574.385 338.500 C 571.327 324.522, 566.779 308.335, 563.850 301 C 562.203 296.875, 559.965 291.086, 558.878 288.135 C 557.791 285.184, 554.546 279.784, 551.668 276.135 C 548.722 272.400, 545.155 266.276, 543.507 262.125 C 541.093 256.040, 539.568 253.857, 534.791 249.652 C 531.606 246.849, 529 244.050, 529 243.433 C 529 242.815, 528.100 241.495, 527 240.500 C 525.745 239.364, 525 237.420, 525 235.279 C 525 230.348, 523.560 228.341, 518.377 226.049 C 515.016 224.562, 513.942 223.595, 514.380 222.452 C 514.737 221.521, 513.991 219.900, 512.535 218.444 C 511.185 217.094, 510.657 216, 511.356 216 C 512.052 216, 514.463 214.011, 516.713 211.579 C 525.975 201.571, 530.786 200.468, 535.296 207.319 C 544.030 220.587, 544.479 220.682, 554.118 211.286 C 570.296 195.517, 578.223 180.926, 583.934 156.402 C 598.536 93.703, 572.849 30.889, 525.739 14.096 C 498.364 4.338, 459.880 0.383, 442 5.490 C 438.975 6.354, 433.800 7.686, 430.500 8.451 C 403.006 14.819, 374.270 32.015, 362.329 49.247 C 358.904 54.189, 355.453 54.410, 354.480 49.750 C 353.050 42.897, 338.311 18.369, 332.313 12.859 C 330.766 11.437, 327.707 7.960, 325.516 5.132 C 323.324 2.304, 321.086 0.138, 320.542 0.319 C 318.395 1.035, 319.226 7.009, 321.950 10.437 C 326.216 15.806, 325.980 21.075, 321.279 25.383 C 317.214 29.109, 317.802 33.247, 322.071 30.962 C 323.095 30.414, 325.745 30.255, 327.961 30.610 C 330.265 30.978, 332.527 30.812, 333.245 30.222 C 336.699 27.383, 337.888 28.379, 342.976 38.379 C 347.775 47.808, 347.950 48.434, 346.839 52.142 C 345.791 55.641, 345.890 56.254, 347.838 58.327 C 349.027 59.593, 350 61.093, 350 61.659 C 350 65.942, 354.189 66.399, 357.450 62.473 C 359.265 60.288, 360.827 58.050, 360.921 57.500 C 361.015 56.950, 362.507 55.040, 364.237 53.256 C 365.966 51.472, 367.488 49.285, 367.618 48.398 C 368.150 44.772, 387.332 29.454, 398.381 23.831 C 405.058 20.434, 429.403 12.032, 432.628 12.013 C 433.798 12.006, 436.364 11.328, 438.329 10.507 C 440.294 9.686, 442.936 9.064, 444.201 9.126 C 445.465 9.187, 450.550 8.737, 455.500 8.125 C 492.965 3.498, 543.046 19.297, 557.565 40.323 C 559.531 43.170, 562.880 47.899, 565.007 50.831 C 567.134 53.763, 568.647 56.755, 568.369 57.480 C 568.091 58.205, 568.352 59.099, 568.948 59.468 C 569.545 59.837, 569.793 60.526, 569.500 61.001 C 569.206 61.475, 569.789 62.456, 570.794 63.182 C 576.805 67.516, 586.615 109.453, 582.645 113.839 C 581.132 115.512, 581.114 115.849, 582.475 116.979 C 585.239 119.273, 583.731 144.430, 580.624 147.863 C 579.402 149.213, 579.303 149.903, 580.200 150.800 C 581.098 151.698, 580.830 152.552, 579.060 154.436 C 577.646 155.941, 576.992 157.536, 577.376 158.538 C 577.737 159.477, 577.161 161.251, 576.029 162.690 C 574.942 164.072, 573.769 166.716, 573.422 168.566 C 573.075 170.415, 572.163 172.450, 571.395 173.087 C 569.709 174.486, 569.617 176.413, 571.119 178.819 C 573.474 182.590, 555.583 209.872, 551.401 208.889 C 550.905 208.772, 549.150 209.232, 547.500 209.910 C 544.560 211.119, 544.386 211.016, 538.820 204.822 C 533.141 198.500, 533.141 198.500, 535.942 195.500 C 557.790 172.102, 567.425 134.587, 561.012 97.880 C 557.200 76.058, 549.136 61.534, 532.772 47.018 C 500.312 18.223, 438.161 16.875, 401.932 44.180 C 399.494 46.017, 396.280 48.302, 394.789 49.258 C 384.937 55.572, 370.967 76.775, 368.382 89.337 C 366.851 96.771, 365.469 101.721, 363.726 106 C 363.167 107.375, 362.437 111.425, 362.104 115 C 361.500 121.500, 361.500 121.500, 357.864 121.185 C 354.809 120.920, 353.899 121.334, 352.158 123.778 C 348.997 128.218, 352.986 130.990, 357.559 127.532 C 361.100 124.854, 362.685 127.826, 363.432 138.540 C 363.660 141.818, 364.154 145.918, 364.529 147.651 C 364.904 149.384, 364.740 151.634, 364.166 152.651 C 363.321 154.146, 363.689 155.089, 366.088 157.576 C 368.187 159.752, 369.418 162.433, 370.297 166.743 C 370.980 170.093, 372.240 173.659, 373.097 174.667 C 377.249 179.553, 377.310 185.257, 373.440 207.012 C 372.385 212.947, 374.480 213.933, 389.078 214.371 C 395.910 214.576, 403.525 215.311, 406 216.004 C 410.500 217.266, 410.500 217.266, 404.105 220.152 C 386.374 228.152, 382.927 228.762, 379.567 224.494 C 373.149 216.343, 359.009 204.073, 354.338 202.602 C 353.149 202.227, 350.499 200.589, 348.450 198.960 C 345.636 196.724, 343.681 196, 340.456 196 C 335.207 196, 334.348 192.466, 335.837 177 C 336.923 165.713, 336.923 167.118, 335.855 144.500 C 335.088 128.250, 332.865 113.827, 330.551 110.082 C 330.191 109.500, 329.251 106.544, 328.461 103.513 C 327.672 100.481, 325.445 94.862, 323.513 91.026 C 321.581 87.189, 319.987 82.801, 319.971 81.275 C 319.955 79.749, 317.043 73.325, 313.499 67 C 309.956 60.675, 305.884 53.046, 304.451 50.046 C 293.960 28.090, 249.130 -8.109, 243.570 0.887 M 310.771 5.658 C 309.546 6.883, 309.382 7.874, 310.094 9.747 C 310.897 11.859, 310.500 12.812, 307.367 16.279 C 301.703 22.548, 306.016 25.462, 315.689 21.901 C 320.145 20.261, 320.891 14.642, 317.177 10.689 C 315.970 9.403, 315.214 8.120, 315.497 7.836 C 315.780 7.553, 315.197 6.583, 314.200 5.681 C 312.531 4.170, 312.260 4.169, 310.771 5.658 M 311.752 16.444 C 309.034 19.851, 309.034 19.851, 312.153 18.956 C 316.116 17.820, 316.200 17.716, 315.256 15.164 C 314.504 13.131, 314.351 13.187, 311.752 16.444 M 112.500 16.381 C 93.268 19.908, 84.953 22.746, 77.532 28.315 C 75.645 29.731, 75.720 29.856, 79.391 31.390 C 88.312 35.117, 100.169 49.588, 104.290 61.776 C 106.331 67.810, 108 73.892, 108 75.292 C 108 80.560, 108.652 81.017, 113.829 79.374 C 141.003 70.749, 171.771 74.297, 189.057 88.049 C 196.500 93.970, 196.500 93.970, 197.680 87.007 C 204.496 46.769, 257.152 40.565, 268.061 78.714 C 273.666 98.315, 263.468 122.814, 247.761 127.478 C 238.645 130.186, 225.805 128.712, 216.878 123.935 C 214.940 122.897, 214.779 122.975, 215.440 124.634 C 219.709 135.361, 221.088 141.374, 221.677 151.829 C 222.288 162.696, 222.371 163.022, 223.704 159.829 C 229.464 146.037, 249.092 137.326, 262.701 142.524 C 286.977 151.795, 288.711 190.054, 265.333 200.576 C 255.572 204.969, 246.401 204.940, 240.480 200.499 C 228.878 191.795, 222.099 182.821, 221.974 176 C 221.942 174.269, 221.327 175.172, 219.973 178.937 C 217.457 185.931, 212.835 193.558, 206.288 201.518 C 201.076 207.854, 201.076 207.854, 205.539 208.806 C 216.431 211.129, 230.367 225.088, 231.593 234.902 C 234.644 259.319, 217.084 277.654, 195.309 272.787 C 191.677 271.975, 193.658 275.783, 202.443 286.500 C 204.698 289.250, 208.500 294.087, 210.893 297.250 C 213.285 300.413, 215.682 303, 216.217 303 C 219.149 303, 233.862 290.226, 240.500 281.918 C 243.250 278.476, 247.790 273.149, 250.588 270.080 C 255.625 264.556, 259.035 259.598, 266.462 247 C 268.570 243.425, 271.317 239.375, 272.567 238 C 277.457 232.622, 285.764 212.903, 290.116 196.344 C 294.941 177.989, 295.955 139.077, 292.059 121.839 C 291.520 119.453, 290.668 115.025, 290.165 112 C 289.221 106.310, 281.024 87.753, 274.034 75.477 C 267.620 64.214, 256.433 51.220, 249 46.399 C 245.425 44.080, 240.542 40.764, 238.150 39.029 C 211.079 19.406, 153.045 8.945, 112.500 16.381 M 328.889 15.438 C 328.553 15.777, 328.601 17.817, 328.995 19.972 C 329.421 22.304, 329.297 24.303, 328.688 24.912 C 326.945 26.655, 330.663 27.317, 333.972 25.852 C 335.637 25.115, 336.999 24.284, 336.997 24.006 C 336.991 22.844, 329.449 14.874, 328.889 15.438 M 596.997 17.005 C 595.658 19.508, 595.779 115.230, 597.127 118.810 C 599.582 125.333, 600 117.938, 600 68 C 600 17.594, 599.671 12.009, 596.997 17.005 M 53 32.530 C 28.384 36.327, 16.180 47.346, 8.920 72.333 C 7.046 78.782, 6.866 80.621, 7.801 83.760 C 8.414 85.817, 9.896 90.875, 11.094 95 C 13.573 103.537, 15.964 108.674, 20.258 114.687 C 22.564 117.915, 23.093 119.492, 22.571 121.573 C 21.923 124.153, 22.030 124.244, 25.006 123.649 C 27.230 123.204, 29.457 123.702, 32.809 125.394 C 36.606 127.310, 47.069 129.301, 52.740 129.186 C 53.158 129.177, 54.032 129.612, 54.683 130.152 C 55.478 130.812, 56.625 130.637, 58.183 129.619 C 59.457 128.785, 63.515 127.902, 67.200 127.656 C 71.907 127.341, 74.793 126.571, 76.905 125.068 C 78.558 123.890, 82.292 121.683, 85.201 120.163 C 90.928 117.172, 95.523 111.841, 101.139 101.671 C 105.133 94.438, 107.841 92.898, 123 89.243 C 156.436 81.181, 184.509 95.141, 199.226 127.149 C 201.085 131.192, 202.717 136.484, 202.853 138.909 C 202.989 141.334, 203.550 144.159, 204.100 145.187 C 207.025 150.652, 203.607 174.982, 198.519 184.911 C 193.675 194.366, 179.898 209.351, 169.017 217 C 167.843 217.825, 166.770 219.292, 166.631 220.260 C 166.181 223.413, 164.312 224.505, 161.732 223.124 C 159.906 222.147, 158.804 222.145, 156.462 223.115 C 154.833 223.789, 151.025 224.602, 148 224.920 C 142.500 225.500, 142.500 225.500, 142.206 232.780 C 141.874 240.968, 140.878 240.428, 151.500 237.816 C 164.532 234.611, 166.042 233.748, 168.829 227.914 C 172.921 219.348, 185.544 208.326, 192.217 207.492 C 198.562 206.699, 201.438 204.017, 209.798 191.096 C 218.897 177.033, 220.854 151.103, 214.233 132.340 C 212.455 127.302, 211 122.598, 211 121.887 C 211 121.177, 209.663 119.216, 208.029 117.530 C 206.395 115.844, 203.224 110.873, 200.982 106.483 C 188.384 81.810, 150.438 71.759, 113.788 83.387 C 107.301 85.445, 105.316 83.802, 103.952 75.247 C 101.026 56.894, 88.979 38.171, 77.975 34.874 C 75.776 34.215, 73.476 33.074, 72.866 32.338 C 71.493 30.684, 64.534 30.751, 53 32.530 M 429.058 35.396 C 426.873 36.185, 426.143 36.830, 427.058 37.163 C 427.851 37.452, 430.750 36.877, 433.500 35.885 C 437.767 34.347, 438.060 34.088, 435.500 34.118 C 433.850 34.137, 430.951 34.712, 429.058 35.396 M 451.500 36.628 C 394.131 45.104, 364.313 88.894, 376.503 146.768 C 385.260 188.342, 421.147 215.494, 464.988 213.714 C 507.968 211.970, 542.127 183.704, 547.424 145.500 C 548.046 141.013, 546.943 143.955, 543.637 155.606 C 538.904 172.282, 520.632 193.099, 502.848 202.076 C 485.606 210.780, 453.688 213.588, 436.874 207.880 C 389.234 191.707, 366.239 143.179, 381.728 91.500 C 397.685 38.258, 483.039 19.691, 524.817 60.374 C 541.792 76.905, 546.666 89.117, 550.407 124.500 C 550.640 126.700, 550.658 123.550, 550.447 117.500 C 549.277 83.905, 533.671 56.787, 508.500 44.610 C 494.771 37.967, 467.900 34.204, 451.500 36.628 M 449.585 43.107 C 404.549 49.675, 379.461 80.543, 381.276 127.152 C 383.173 175.853, 414.624 206.703, 462 206.332 C 497.368 206.054, 522.090 192.266, 535.958 165.083 C 545.693 146.001, 547.928 120.638, 542.049 95.975 C 533.096 58.414, 494.792 36.513, 449.585 43.107 M 517.330 45.192 C 518.887 46.462, 522.828 49.934, 526.088 52.909 C 529.348 55.884, 532.301 58.033, 532.650 57.683 C 533.906 56.428, 526.228 49.828, 517.500 44.661 C 514.500 42.885, 514.500 42.885, 517.330 45.192 M 53.500 53.615 C 24.246 61.003, 19.783 100.052, 47.054 110.020 C 75.584 120.448, 99.643 81.075, 77.155 60.759 C 69.919 54.222, 61.348 51.633, 53.500 53.615 M 350 54.686 C 350 57.825, 354.097 61.250, 355.521 59.302 C 356.532 57.920, 356.275 57.261, 353.972 55.323 C 350.684 52.556, 350 52.447, 350 54.686 M 336.730 57.872 C 326.639 63.632, 325.714 67.404, 334.284 67.848 C 341.476 68.220, 349.162 60.267, 345.134 56.621 C 342.844 54.549, 342.451 54.607, 336.730 57.872 M 53.500 57.615 C 34.839 62.327, 26.960 80.896, 36.542 97.580 C 44.498 111.433, 67.500 111.477, 76.736 97.657 C 90.208 77.499, 75.453 52.071, 53.500 57.615 M 337.664 61.377 C 333.762 63.478, 334.175 64.675, 338.433 63.606 C 340.377 63.118, 342.739 60.224, 341.774 59.512 C 341.623 59.401, 339.774 60.240, 337.664 61.377 M 230.355 61.018 C 199.909 67.200, 196.372 110.931, 225.588 119.955 C 236.454 123.311, 241.597 122.571, 249.590 116.504 C 257.855 110.231, 263.951 92.636, 261.001 83.571 C 260.451 81.882, 259.532 78.582, 258.958 76.237 C 256.397 65.762, 242.750 58.501, 230.355 61.018 M 541.010 63.488 C 540.039 64.658, 539.408 64.754, 538.367 63.890 C 536.358 62.223, 536.743 64.115, 539 67 C 540.076 68.375, 540.966 70.063, 540.978 70.750 C 541.008 72.466, 543 72.341, 543 70.622 C 543 69.865, 542.314 68.675, 541.475 67.979 C 540.113 66.849, 540.131 66.513, 541.635 64.850 C 542.562 63.826, 543.088 62.755, 542.803 62.470 C 542.518 62.185, 541.711 62.643, 541.010 63.488 M 382.200 69.259 C 380.647 71.131, 378.911 76, 379.797 76 C 380.803 76, 384.460 69.126, 383.803 68.470 C 383.518 68.185, 382.797 68.540, 382.200 69.259 M 446.663 69.548 C 416.401 80.647, 402.377 99.898, 403.167 129.255 C 404.310 171.704, 450.519 194.549, 490 172.182 C 493.575 170.157, 497.850 167.811, 499.500 166.968 C 515.227 158.938, 521.708 118.619, 510.870 96.232 C 501.183 76.220, 467.096 62.054, 446.663 69.548 M 226.220 74.007 C 221.617 76.814, 213.786 84.845, 214.510 86.016 C 215.753 88.028, 215.872 91.200, 214.801 93.807 C 212.937 98.344, 212.975 99.668, 215.026 101.524 C 216.112 102.506, 217 103.837, 217 104.481 C 217 105.125, 218.125 106.708, 219.500 108 C 220.875 109.292, 222 109.990, 222 109.552 C 222 109.114, 222.635 109.282, 223.411 109.926 C 224.447 110.786, 225.006 110.799, 225.515 109.975 C 225.973 109.234, 226.702 109.558, 227.661 110.927 C 229.320 113.294, 232.229 113.634, 233.874 111.652 C 234.729 110.622, 234.507 109.864, 232.935 108.442 C 230.887 106.588, 230.898 106.575, 235.189 105.483 C 237.560 104.880, 239.908 104.730, 240.407 105.150 C 240.906 105.570, 242.628 104.808, 244.234 103.457 C 245.840 102.106, 247.809 101, 248.610 101 C 250.653 101, 254.513 94.080, 254.171 91.032 C 252.637 77.367, 236.666 67.639, 226.220 74.007 M 444.889 74.356 C 416.384 86.082, 406.397 100.616, 407.167 129.255 C 408.265 170.041, 451.785 190.429, 490 168.060 C 493.575 165.967, 497.469 163.956, 498.654 163.591 C 511.340 159.678, 516.701 116.539, 506.993 96.486 C 497.902 77.706, 465.131 66.029, 444.889 74.356 M 545.900 79.827 C 547.469 82.947, 549.058 86.916, 549.433 88.648 C 550.114 91.795, 550.114 91.795, 552.584 89.325 C 555.054 86.855, 555.054 86.855, 552.900 80.947 C 551.716 77.697, 550.417 75.242, 550.015 75.490 C 549.614 75.739, 547.882 75.540, 546.167 75.048 C 543.049 74.154, 543.049 74.154, 545.900 79.827 M 232.491 76.743 C 236.572 77.159, 242.901 82.116, 243.362 85.258 C 243.478 86.051, 244.377 87.926, 245.358 89.424 C 246.785 91.601, 246.939 92.738, 246.124 95.074 C 245.563 96.684, 245.418 97.993, 245.802 97.985 C 249.642 97.900, 251.152 89.492, 248.305 84.054 C 245.879 79.424, 239.170 75.946, 233.093 76.168 C 228.500 76.336, 228.500 76.336, 232.491 76.743 M 444.500 79.877 C 433.855 83.720, 419.574 95.318, 416.527 102.597 C 407.584 123.954, 411.521 145.009, 427.165 159.492 C 450.008 180.641, 488.864 172.785, 502.282 144.305 C 506.284 135.809, 507.106 113.130, 503.688 105.500 C 493.847 83.534, 466.802 71.826, 444.500 79.877 M 444.500 83.877 C 421.804 92.070, 411.420 112.905, 417.390 138.274 C 424.044 166.554, 463.522 176.991, 488.739 157.137 C 507.088 142.690, 505.756 102.430, 486.500 89.484 C 475.218 81.899, 456.794 79.439, 444.500 83.877 M 228.262 86.529 C 225.536 88.438, 224.387 93.973, 226.058 97.145 C 230.040 104.700, 241 101.002, 241 92.102 C 241 85.762, 233.834 82.626, 228.262 86.529 M 372 90.385 C 372 92.787, 369.950 100.289, 367.385 107.270 C 366.623 109.344, 366 113.086, 366 115.586 C 366 118.086, 365.601 120.889, 365.114 121.816 C 364.547 122.895, 364.816 125.407, 365.864 128.812 C 367.945 135.568, 369.987 134.213, 370.027 126.050 C 370.042 122.998, 370.531 116.225, 371.114 111 C 371.697 105.775, 372.265 99.925, 372.376 98 C 372.488 96.075, 373.365 93.317, 374.326 91.871 C 375.917 89.475, 375.928 89.186, 374.454 88.621 C 372.088 87.713, 372 87.776, 372 90.385 M 142 92.217 C 138.425 92.611, 134.901 93.023, 134.170 93.133 C 133.234 93.274, 133.017 94.280, 133.439 96.528 C 134.451 101.922, 128.544 103.469, 124.405 98.895 C 123.462 97.853, 121.410 97, 119.845 97 C 116.794 97, 116.278 97.878, 118.200 99.800 C 118.860 100.460, 118.999 101, 118.509 101 C 118.019 101, 118.491 101.661, 119.559 102.468 C 122.069 104.367, 128.770 104.394, 134.264 102.529 C 137.666 101.374, 139.771 101.277, 144.049 102.077 C 154.013 103.942, 158.251 103.949, 156.669 102.098 C 154.023 99, 152.930 95.106, 154.217 93.363 C 155.371 91.802, 150.178 91.315, 142 92.217 M 161.923 95.250 C 161.226 97.529, 161.457 99.134, 162.620 100.100 C 163.850 101.120, 163.803 101.560, 162.287 103.235 C 160.581 105.120, 160.670 105.310, 165.012 109.062 C 170.315 113.645, 172.949 113.924, 177.396 110.376 C 180.685 107.751, 180.685 107.751, 176.593 103.980 C 172.348 100.068, 162.282 94.078, 161.923 95.250 M 106.688 99.250 C 97.009 115.282, 91.272 121.665, 83.417 125.140 C 66.756 132.509, 68.438 180.312, 86.062 200.334 C 89.652 204.412, 104.558 214.846, 105.410 213.878 C 108.105 210.817, 106.375 203.250, 102.274 200.158 C 99.860 198.339, 95.824 194.072, 93.304 190.675 C 71.914 161.848, 78.766 130.903, 111.216 109.777 C 115.932 106.707, 115.932 106.707, 113.466 103.777 C 112.110 102.165, 111 99.981, 111 98.923 C 111 96.296, 108.350 96.497, 106.688 99.250 M 217.438 98.101 C 216.706 99.285, 220.569 103.765, 221.510 102.824 C 222.229 102.104, 219.940 97, 218.899 97 C 218.469 97, 217.812 97.495, 217.438 98.101 M 454.326 101.060 C 448.176 102.253, 444.794 104.323, 439.655 110.039 C 418.687 133.360, 451.949 164.182, 474.839 142.642 C 493.066 125.491, 478.683 96.334, 454.326 101.060 M 454.153 105.089 C 435.727 108.647, 430.150 134.779, 446.112 142.771 C 463.330 151.393, 479.468 141.535, 478.775 122.818 C 478.276 109.302, 468.561 102.308, 454.153 105.089 M 134 106.563 C 132.075 107.291, 129.375 107.913, 128 107.944 C 122.986 108.057, 124.961 117, 130 117 C 131.585 117, 133.174 117.472, 133.530 118.049 C 133.974 118.767, 134.618 118.732, 135.574 117.939 C 138.238 115.728, 150.826 117.221, 157.420 120.529 C 186.286 135.014, 179.362 187.202, 147.868 192.522 C 143.171 193.316, 142.359 194.815, 142.838 201.812 C 143.176 206.750, 143.176 206.750, 146.338 206.022 C 151.739 204.780, 163.398 199.838, 165.564 197.873 C 166.700 196.843, 168.218 196, 168.938 196 C 169.659 196, 172.030 193.975, 174.209 191.500 C 178.197 186.970, 180.622 186.022, 182.758 188.158 C 183.634 189.034, 184.260 189.029, 185.336 188.136 C 186.370 187.278, 187.508 187.243, 189.517 188.006 C 191.035 188.584, 192.385 188.931, 192.516 188.778 C 204.586 174.703, 202.651 136.802, 188.763 115.267 C 184.744 109.034, 184.744 109.034, 179.741 113.017 C 172.665 118.651, 170.139 118.259, 161.274 110.146 C 159.556 108.574, 157.173 107.673, 154.101 107.432 C 151.570 107.234, 147.250 106.633, 144.500 106.096 C 138.427 104.910, 138.362 104.913, 134 106.563 M 260.024 110.943 C 258.850 113.776, 252.714 120.015, 248.434 122.725 C 246.825 123.744, 247.005 123.775, 249.500 122.909 C 254.249 121.260, 263.573 110.239, 261.756 108.423 C 261.488 108.155, 260.709 109.289, 260.024 110.943 M 114.433 111.574 C 83.609 129.566, 76.196 160.652, 95.997 188.880 C 101.393 196.573, 109 201.929, 109 198.037 C 109 197.507, 111.684 194.204, 114.964 190.698 C 120.928 184.323, 120.928 184.323, 117.964 182.131 C 116.334 180.926, 115 179.257, 115 178.422 C 115 177.587, 113.763 175.829, 112.250 174.515 C 109.801 172.388, 109.643 171.892, 110.804 169.991 C 111.833 168.305, 111.861 167.108, 110.935 164.303 C 105.851 148.899, 115.235 129.991, 129.921 126.048 C 133.688 125.037, 133.556 121, 129.756 121 C 125.312 121, 120.833 116.085, 121.633 112.085 C 122.405 108.226, 120.412 108.084, 114.433 111.574 M 556.770 121 C 555.818 122.925, 554.595 127.650, 554.052 131.500 C 553.509 135.350, 552.764 139.983, 552.398 141.795 C 551.889 144.313, 552.058 145.020, 553.112 144.795 C 556.480 144.076, 558.203 138.603, 555.813 136.213 C 554.898 135.298, 555.138 134.482, 556.864 132.644 C 558.784 130.601, 559.059 129.354, 558.801 123.881 C 558.500 117.500, 558.500 117.500, 556.770 121 M 136.500 122 C 135.295 123.949, 136.985 124.901, 139.867 123.896 C 142.065 123.130, 143.947 123.382, 148.361 125.034 C 173.107 134.293, 172.856 173.929, 148 181.923 C 142.966 183.542, 142.473 183.967, 142.180 186.936 C 141.910 189.671, 142.145 190.096, 143.680 189.649 C 144.681 189.358, 147.371 188.636, 149.657 188.046 C 183.400 179.336, 177.902 121.307, 143.309 121.047 C 139.904 121.021, 136.840 121.450, 136.500 122 M 24.252 127.706 C 22.787 127.988, 21.809 129.074, 21.446 130.819 C 21.140 132.294, 20.285 135.975, 19.548 139 C 12.914 166.206, 16.606 194.373, 30.625 223.500 C 38.903 240.699, 60.088 260.916, 81.773 272.311 C 88.673 275.937, 88.673 275.937, 93.212 270.680 C 102.217 260.249, 118.713 251.019, 128.407 250.986 C 133.883 250.968, 137 250.050, 137 248.455 C 137 247.145, 133.213 246.175, 120 244.103 C 103.338 241.489, 80.232 226.785, 66.594 210.115 C 53.383 193.967, 47.139 163.799, 52.495 142 C 54.421 134.162, 54.476 133.539, 53.250 133.439 C 42.919 132.593, 36.707 131.361, 32.783 129.381 C 30.189 128.071, 27.714 127.061, 27.283 127.136 C 26.852 127.211, 25.488 127.467, 24.252 127.706 M 139.738 127.673 C 138.769 127.936, 138.229 128.562, 138.539 129.063 C 138.849 129.565, 139.565 141.116, 140.130 154.733 C 140.695 168.349, 141.288 179.621, 141.447 179.780 C 142.685 181.018, 153.415 175.273, 156.873 171.522 C 170.850 156.359, 157.730 122.786, 139.738 127.673 M 131 129.640 C 119.348 133.389, 114.759 139.832, 114.141 153.313 C 113.478 167.754, 120.069 176.503, 133.852 179.480 C 137.204 180.204, 137.204 180.204, 136.582 163.852 C 135.235 128.405, 135.215 128.284, 131 129.640 M 597.584 129.864 C 596.771 131.180, 596.642 203.612, 597.451 204.921 C 599.570 208.349, 600 202.036, 600 167.500 C 600 133.573, 599.557 126.672, 597.584 129.864 M 62.466 134.858 C 58.692 137.159, 56.484 148.922, 56.526 166.500 C 56.614 203.260, 84.167 232.368, 126.551 240.479 C 138.769 242.816, 138 243.252, 138 234 C 138 226, 138 226, 132.562 226 C 110.813 226, 83.905 209.083, 74.506 189.500 C 68.307 176.586, 66.189 157.241, 68.894 138.250 C 69.756 132.195, 68.188 131.368, 62.466 134.858 M 242.753 147.884 C 225.382 153.620, 221.120 176.375, 234.752 190.602 C 246.969 203.352, 266.620 201.311, 274.241 186.500 C 279.609 176.069, 275.990 154.825, 268.181 150.925 C 266.707 150.189, 264.724 148.945, 263.776 148.161 C 260.957 145.832, 249.427 145.680, 242.753 147.884 M 250.500 148.525 C 249.950 148.727, 247.534 149.398, 245.132 150.016 C 224.022 155.449, 223.055 185.993, 243.718 194.652 C 261.954 202.294, 281.592 180.110, 273.114 161.444 C 269.398 153.264, 256.954 146.155, 250.500 148.525 M 244.684 154.449 C 226.551 160.916, 230.142 189.125, 249.404 191.531 C 261.248 193.011, 269.275 185.966, 270.518 173 C 271.949 158.070, 259.532 149.153, 244.684 154.449 M 548.387 157.662 C 548.004 159.223, 546.190 163.604, 544.355 167.397 C 541.818 172.640, 541.486 173.870, 542.972 172.526 C 544.046 171.553, 545.617 171.023, 546.462 171.347 C 547.560 171.768, 548.671 170.589, 550.354 167.218 C 553.026 161.865, 554.559 155.536, 552.941 156.536 C 552.375 156.886, 551.276 156.644, 550.497 155.998 C 549.347 155.043, 548.952 155.355, 548.387 157.662 M 349.646 170.095 C 347.607 173.006, 350.694 177, 354.983 177 C 356.432 177, 358.491 177.661, 359.559 178.468 C 365.270 182.788, 368.078 178.736, 363.203 173.211 C 358.433 167.804, 352.247 166.382, 349.646 170.095 M 121.750 180.491 C 126.085 184.031, 125.909 184.859, 119.578 190.752 C 112.573 197.271, 110.782 200.886, 110.214 209.648 C 109.673 217.982, 109.639 217.945, 120.374 220.435 C 137.731 224.460, 138 224.194, 138 203 C 138 184, 138 184, 133.404 184 C 130.545 184, 127.806 183.298, 126.154 182.142 C 121.207 178.678, 118.107 177.517, 121.750 180.491 M 384.583 183.575 C 386.424 186.805, 392.355 191.312, 393.396 190.271 C 394.152 189.515, 391.069 186, 389.650 186 C 389.078 186, 387.309 184.762, 385.720 183.250 C 382.830 180.500, 382.830 180.500, 384.583 183.575 M 535.560 187.618 C 534.610 191.401, 535.467 191.558, 537.959 188.058 C 540.069 185.095, 540.075 185, 538.177 185 C 536.897 185, 535.989 185.908, 535.560 187.618 M 175.550 194.921 C 174.189 197.077, 172.046 199.161, 170.788 199.552 C 169.529 199.943, 167.375 201.040, 166 201.990 C 163.273 203.874, 149.161 209.487, 144.750 210.443 C 141.156 211.221, 140.513 219.378, 143.974 220.283 C 146.733 221.005, 153.839 219.263, 157.588 216.945 C 159.320 215.875, 161.492 215, 162.416 215 C 166.672 215, 184 200.435, 184 196.857 C 184 196.182, 185.012 194.528, 186.250 193.183 C 188.500 190.737, 188.500 190.737, 186.250 192.109 C 184.438 193.214, 183.614 193.240, 182.014 192.241 C 178.995 190.355, 178.233 190.671, 175.550 194.921 M 390 193.813 C 390 196.192, 389.843 196.538, 387.760 198.756 C 385.641 201.011, 385.641 201.011, 383.070 198.756 C 381.657 197.515, 380.800 196.875, 381.167 197.333 C 381.533 197.792, 381.237 199.585, 380.508 201.319 C 379.021 204.856, 380.109 208.279, 382.437 207.386 C 383.211 207.089, 384.718 207.314, 385.786 207.885 C 386.854 208.457, 390.805 209.010, 394.565 209.113 C 398.325 209.216, 402.990 209.659, 404.931 210.097 C 407.589 210.697, 408.891 210.504, 410.205 209.315 C 412.417 207.312, 417.577 210.055, 416.564 212.695 C 416.117 213.859, 416.468 214.111, 417.984 213.714 C 419.092 213.425, 420.246 213.589, 420.549 214.079 C 420.851 214.569, 422.151 214.882, 423.436 214.776 C 426.517 214.521, 424.292 210.676, 420.184 209.158 C 418.708 208.613, 413.675 205.246, 409 201.676 C 401.536 195.977, 400.308 195.358, 398.921 196.593 C 396.736 198.540, 396.016 198.389, 392.805 195.313 C 391.262 193.835, 390 193.160, 390 193.813 M 329.139 199.033 C 327.540 200.365, 325.281 201.001, 322.139 201.004 C 319.314 201.006, 316.256 201.766, 314.319 202.947 C 312.570 204.013, 310.268 204.821, 309.203 204.740 C 301.655 204.172, 277.366 228.928, 280.498 233.997 C 280.791 234.472, 280.505 239.145, 279.861 244.382 C 278.635 254.360, 279.783 266.828, 282.195 269.735 C 284.489 272.500, 273.826 280.955, 261 286.540 C 256.875 288.337, 249.232 291.692, 244.016 293.997 C 236.876 297.152, 234.130 297.938, 232.909 297.175 C 231.639 296.382, 230.120 297.120, 225.901 300.581 C 222.938 303.012, 220.173 305, 219.757 305 C 217.141 305, 221.373 311.053, 231.999 322.510 C 238.040 329.023, 247.283 340.748, 252.879 348.994 C 254.187 350.922, 258.158 355.581, 261.702 359.347 C 265.247 363.112, 268.901 367.403, 269.823 368.881 C 272.235 372.747, 291.236 394, 292.281 394 C 292.764 394, 292.926 392.763, 292.642 391.250 C 288.469 369.062, 295.147 345.123, 309.524 330.733 C 329.605 310.634, 339.824 305.616, 360.276 305.809 C 371.051 305.911, 371.051 305.911, 386.497 297.391 C 394.992 292.705, 404.213 288.072, 406.988 287.094 C 409.763 286.117, 413.038 284.417, 414.266 283.315 C 416.986 280.877, 431.643 273, 433.461 273 C 434.591 273, 446.798 265.267, 449.426 262.886 C 449.983 262.382, 449.755 261.340, 448.853 260.274 C 448.029 259.298, 445 254.516, 442.123 249.646 C 433.246 234.621, 419.912 220, 415.087 220 C 414.183 220, 408.956 221.963, 403.472 224.362 C 383.596 233.055, 383.394 233.075, 377.712 226.887 C 374.991 223.924, 371.580 220.212, 370.132 218.638 C 366.514 214.706, 356.967 207.430, 354.338 206.602 C 353.149 206.227, 350.499 204.589, 348.450 202.960 C 345.667 200.748, 343.671 200, 340.554 200 C 338.259 200, 335.509 199.339, 334.441 198.532 C 331.987 196.675, 331.967 196.677, 329.139 199.033 M 318.340 204.096 C 307.327 205.935, 287.578 222.426, 285.022 231.917 C 280.427 248.981, 281.335 264.306, 287.324 270.802 C 289.953 273.653, 291.377 273.360, 303.683 267.427 C 314.556 262.186, 315.237 262.123, 319.601 265.955 C 324.332 270.108, 330.207 271.758, 333.693 269.912 C 337.736 267.772, 343.248 262.245, 342.770 260.811 C 342.537 260.112, 343.226 258.828, 344.301 257.957 C 346.449 256.218, 347.154 252.222, 345.665 250.226 C 345.143 249.525, 344.892 248.775, 345.107 248.560 C 346.771 246.900, 362.978 240, 365.212 240 C 367.018 240, 369.352 238.788, 371.713 236.624 C 375.397 233.248, 375.397 233.248, 370.987 226.481 C 359.919 209.492, 339.080 200.631, 318.340 204.096 M 319.821 208.301 C 314.141 209.500, 314.141 209.500, 316.023 211.801 C 317.772 213.941, 318.206 214.021, 322.202 212.938 C 336.694 209.011, 358.369 219.405, 363.991 232.979 C 365.352 236.264, 366.669 236.694, 369.356 234.729 C 370.965 233.553, 370.803 233.006, 367.210 227.446 C 358.132 213.400, 336.691 204.738, 319.821 208.301 M 502.121 210.656 C 496.484 214.017, 497.522 214.789, 503.556 211.723 C 506.169 210.395, 507.874 209.040, 507.343 208.712 C 506.813 208.385, 504.463 209.259, 502.121 210.656 M 189 212.022 C 182.139 213.624, 167.793 232.193, 170.965 235.365 C 171.534 235.934, 172 239.001, 172 242.180 C 172 265.717, 209.688 279.354, 222.140 260.322 C 234.195 241.896, 224.696 216.581, 204.596 213.567 C 202.094 213.191, 199.785 212.460, 199.464 211.942 C 198.779 210.833, 193.934 210.870, 189 212.022 M 187.364 217.851 C 166.941 232.646, 175.887 266.679, 200.081 266.231 C 226.035 265.749, 231.163 226.740, 206.620 216.486 C 200.477 213.919, 191.959 214.523, 187.364 217.851 M 323.500 216.431 C 322.950 216.655, 319.282 217.798, 315.349 218.972 C 304.246 222.284, 298.605 228.848, 295.995 241.492 C 294.248 249.955, 295.798 266.019, 298.358 265.985 C 301.165 265.947, 302.242 264.320, 300.997 261.995 C 299.168 258.576, 299.418 244.256, 301.390 239.577 C 310.493 217.971, 336.804 213.994, 353.123 231.758 C 356.585 235.526, 359.118 237.477, 360.234 237.235 C 364.734 236.261, 353.967 223.248, 345.427 219.338 C 340.601 217.128, 326.405 215.246, 323.500 216.431 M 187.743 221.529 C 180.336 226.562, 177.545 240.494, 181.929 250.544 C 188.502 265.609, 209.605 266.889, 216.087 252.616 C 218.578 247.130, 218.728 233.309, 216.346 228.700 C 211.687 219.683, 196.181 215.795, 187.743 221.529 M 293.434 224.073 C 286.856 231.342, 284.406 269, 290.512 269 C 292.883 269, 293.084 267.356, 291.848 258.077 C 290.016 244.314, 292.169 234.726, 299.063 225.950 C 301.851 222.400, 301.851 222.400, 298.400 222.400 C 296.443 222.400, 294.292 223.125, 293.434 224.073 M 429.116 226.750 C 435.793 233.859, 440.755 240.526, 446.047 249.500 C 448.966 254.450, 452.004 259.271, 452.798 260.213 C 453.593 261.155, 454 262.559, 453.703 263.332 C 453.083 264.947, 435.183 277, 433.405 277 C 431.698 277, 415 286.018, 415 286.940 C 415 287.367, 417.532 289.398, 420.626 291.453 C 425.773 294.870, 434.944 302.550, 442.500 309.769 C 450.132 317.061, 464.523 338.709, 464.239 342.471 C 464.158 343.556, 464.680 345.131, 465.401 345.971 C 466.121 346.812, 467.540 349.863, 468.553 352.750 C 470.395 358, 470.395 358, 477.804 358 C 484.730 358, 492.577 359.348, 504.500 362.586 C 514.869 365.403, 532.685 380.703, 538.416 391.713 C 540.907 396.500, 540.907 396.500, 540.944 390 C 541.074 366.947, 531.822 328.774, 522.040 312 C 519.955 308.425, 517.061 303.250, 515.608 300.500 C 514.156 297.750, 511.428 293.475, 509.546 291 C 507.664 288.525, 502.644 281.550, 498.391 275.500 C 483.659 254.543, 462.596 237.694, 437.137 226.500 C 426.465 221.808, 424.531 221.868, 429.116 226.750 M 318.611 226.954 C 308.142 231.148, 304.531 237.349, 304.513 251.164 C 304.498 262.450, 304.558 262.560, 309.625 260.534 C 313.488 258.989, 313.499 258.969, 313.151 253.955 C 312.683 247.210, 313.436 244.712, 317.249 240.369 C 324.881 231.676, 332.195 231.770, 342.266 240.689 C 346.032 244.024, 346.032 244.024, 350.016 241.992 C 354.663 239.621, 354.724 239.370, 351.731 234.929 C 345.745 226.047, 330.212 222.306, 318.611 226.954 M 467.485 235.025 C 466.745 236.222, 471.996 239.216, 473.693 238.564 C 474.872 238.112, 474.961 237.658, 474.082 236.599 C 472.759 235.004, 468.174 233.910, 467.485 235.025 M 499.285 238.967 C 497.517 240.046, 494.925 242.742, 493.525 244.960 C 492.125 247.178, 490.646 248.941, 490.240 248.878 C 486.213 248.252, 484.606 250.337, 486.416 253.838 C 489.502 259.804, 491.354 259.758, 497.861 253.551 C 501.059 250.501, 505.661 246.958, 508.088 245.678 C 513.545 242.799, 515.118 238.328, 510.338 239.280 C 508.631 239.620, 506.727 239.279, 505.559 238.423 C 503.106 236.625, 503.131 236.623, 499.285 238.967 M 323.315 239.464 C 319.207 241.250, 317 245.614, 317 251.950 C 317 254.728, 317.135 257, 317.299 257 C 317.464 257, 322.751 254.716, 329.049 251.925 C 335.347 249.133, 341.060 246.611, 341.744 246.320 C 343.429 245.603, 342.538 244.403, 337.750 240.934 C 333.224 237.655, 328.564 237.180, 323.315 239.464 M 271.942 246.750 C 265.735 257.885, 262.346 262.555, 249 278.365 C 235.412 294.461, 236.031 293.353, 241.932 291.027 C 244.741 289.919, 249.272 287.882, 252 286.500 C 254.728 285.118, 259.331 283.055, 262.230 281.916 C 267.694 279.769, 278.001 273.417, 277.999 272.197 C 277.999 271.813, 277.281 268.125, 276.404 264 C 275.294 258.776, 274.998 254.149, 275.429 248.750 C 276.168 239.475, 276.039 239.400, 271.942 246.750 M 328.060 257.390 C 319.091 261.305, 318.516 262.426, 324.163 264.988 C 333.059 269.025, 342.468 263.089, 337.212 256.756 C 336.555 255.964, 336.313 255.020, 336.675 254.658 C 337.959 253.374, 335.405 254.184, 328.060 257.390 M 141.949 256.561 C 141.051 257.644, 141.038 258.341, 141.898 259.378 C 142.527 260.135, 143.299 265.648, 143.614 271.628 C 143.960 278.207, 144.625 282.659, 145.298 282.902 C 152.306 285.433, 160.323 298.940, 160.254 308.102 C 160.193 316.307, 153.029 326.313, 145.500 328.709 C 140.975 330.150, 140.167 360, 144.653 360 C 151.057 360, 168.782 352.070, 173.710 347 C 187.008 333.319, 189.420 301.670, 178.541 283.629 C 174.436 276.822, 174.302 275.942, 177 273.500 C 179.660 271.092, 179.525 269.877, 176.250 266.743 C 167.809 258.665, 145.660 252.090, 141.949 256.561 M 128 262.344 C 105.095 269.174, 95.316 281.163, 94.231 303.746 C 93.055 328.207, 101.962 344.901, 121.731 355.289 C 136.792 363.204, 138 362.425, 138 344.791 C 138 327.597, 138.141 327.201, 145.065 324.867 C 158.092 320.477, 160.323 297.594, 148.525 289.385 C 139.625 283.193, 139.852 283.855, 139.062 261.750 C 138.982 259.500, 137.221 259.594, 128 262.344 M 179.449 276.082 C 179.081 276.677, 180.368 279.490, 182.309 282.332 C 191.257 295.439, 192.284 313.777, 185.413 337.728 C 183.419 344.676, 173.560 354.812, 166 357.687 C 157.019 361.101, 155.187 363.283, 160.189 364.607 C 162.560 365.234, 164.950 365.914, 165.500 366.118 C 167.538 366.872, 181.409 355.905, 184.338 351.223 C 190.226 341.813, 194 326.395, 194 311.747 C 194 295.171, 183.523 269.491, 179.449 276.082 M 541.032 277.462 C 539.996 278.710, 540.064 279.449, 541.405 281.495 C 542.308 282.873, 542.698 284.014, 542.273 284.030 C 541.848 284.047, 542.321 284.538, 543.325 285.122 C 545.736 286.524, 545.853 286.262, 545.123 281.081 C 544.449 276.298, 543.035 275.048, 541.032 277.462 M 403.500 292.366 C 400.750 293.646, 392.334 298.118, 384.797 302.302 C 371.093 309.911, 371.093 309.911, 360.297 309.809 C 344.874 309.663, 332.923 313.558, 323.969 321.647 C 320.010 325.223, 320.010 325.223, 322.470 328.147 C 329.236 336.187, 329.959 336.370, 338.121 332.097 C 351.815 324.927, 362.050 324.171, 373.414 329.492 C 377.516 331.412, 381.123 333.390, 381.431 333.888 C 382.269 335.245, 389.822 339, 391.712 339 C 393.147 339, 402.595 333.190, 414 325.293 C 415.925 323.961, 421.662 320.087, 426.748 316.685 C 437.500 309.494, 437.453 309.630, 431.250 303.838 C 418.345 291.788, 411.139 288.808, 403.500 292.366 M 527 290.944 C 527 291.464, 528.150 293.151, 529.556 294.694 C 532.113 297.500, 532.113 297.500, 531.434 295 C 530.371 291.083, 527 288, 527 290.944 M 530.250 309.250 C 530.827 312.134, 540.047 315.351, 541.411 313.144 C 541.702 312.674, 540.936 312.481, 539.710 312.715 C 538.231 312.998, 536.669 312.277, 535.066 310.571 C 532.527 307.868, 529.825 307.127, 530.250 309.250 M 437.472 312.900 C 436.387 313.945, 431.203 317.690, 425.950 321.222 C 420.698 324.754, 415.073 328.564, 413.450 329.689 C 392.254 344.382, 390.323 344.982, 383.014 339.153 C 354.732 316.594, 312.791 340.226, 315.217 377.354 C 316.267 393.420, 329.348 411.610, 345.651 419.676 C 357.215 425.397, 388.593 426.034, 383.962 420.454 C 381.241 417.176, 381.607 408.374, 384.548 406.360 C 386.042 405.337, 389.567 402.448, 392.382 399.940 C 395.197 397.432, 399.334 394.057, 401.576 392.440 C 405.955 389.281, 420.760 376.885, 440.328 359.993 C 447.023 354.214, 453.963 348.446, 455.752 347.174 C 461.400 343.157, 461.405 342.271, 455.827 332.938 C 453.054 328.297, 449.104 322.475, 447.051 320 C 444.997 317.525, 442.688 314.488, 441.918 313.250 C 440.219 310.518, 439.966 310.498, 437.472 312.900 M 310.900 333.233 C 301.157 343.891, 295.627 360.414, 295.916 378 C 296.202 395.370, 296.693 398.471, 300.013 403.867 C 303.793 410.011, 302.388 409.936, 311.387 404.472 C 318.844 399.945, 318.844 399.945, 315.265 392.222 C 307.744 375.994, 309.795 361.809, 322.127 344.765 C 327.972 336.687, 327.906 337.928, 322.750 333.061 C 317.367 327.981, 315.678 328.005, 310.900 333.233 M 348.586 341.793 C 340.012 344.962, 329.214 355.830, 326.490 364.031 C 321.186 379.998, 330.352 399.780, 348.030 410.518 C 358.733 417.020, 381 414.282, 381 406.465 C 381 405.028, 368.290 385.573, 362.882 378.731 C 360.747 376.030, 359 373.376, 359 372.832 C 359 370.833, 369.623 359.853, 373.500 357.846 C 379.304 354.840, 382.208 351.955, 380.952 350.443 C 380.390 349.765, 380.018 348.826, 380.126 348.355 C 381.055 344.315, 375.814 339.226, 372.533 340.982 C 371.193 341.699, 369.333 341.941, 368.317 341.529 C 362.776 339.283, 355.098 339.385, 348.586 341.793 M 352.297 345.049 C 347.834 345.931, 343.902 347.683, 342.881 349.246 C 342.300 350.135, 354.371 367.146, 356.050 367.805 C 356.478 367.972, 359.679 365.207, 363.164 361.660 C 366.649 358.113, 371.246 354.336, 373.381 353.266 C 382.403 348.747, 365.979 342.347, 352.297 345.049 M 457.866 349.282 C 434.429 369.023, 434 369.437, 434 372.325 C 434 375.192, 434 375.192, 438.750 371.568 C 445.287 366.580, 456.003 361.193, 461.902 359.928 C 466.818 358.873, 466.818 358.873, 464.659 352.938 C 462.271 346.373, 461.691 346.060, 457.866 349.282 M 334.571 356.319 C 329.308 363.218, 327.675 373.016, 330.207 382.486 C 331.762 388.298, 331.970 388.254, 341.818 380.050 C 346.393 376.240, 350.668 372.927, 351.318 372.689 C 352.217 372.361, 352.203 371.807, 351.260 370.379 C 350.579 369.345, 349.157 366.925, 348.102 365 C 341.577 353.099, 338.521 351.139, 334.571 356.319 M 468.136 363.193 C 443.834 365.207, 422.619 384.931, 415.102 412.500 C 409.929 431.470, 416.882 467.112, 427.737 477.273 C 433.682 482.838, 441.159 489, 441.967 489 C 442.487 489, 445.160 490.326, 447.908 491.946 C 450.656 493.566, 454.613 495.187, 456.702 495.548 C 458.791 495.910, 462.750 496.819, 465.500 497.569 C 499.460 506.826, 533.370 487.700, 540.971 455 C 541.674 451.975, 542.643 448.195, 543.125 446.601 C 544.352 442.535, 544.181 433.633, 542.586 418.560 C 538.593 380.837, 510.183 359.709, 468.136 363.193 M 142.530 366.594 C 139.695 370.922, 141.142 373.644, 146.723 374.481 C 161.027 376.626, 174.802 385.178, 183.020 397.015 C 184.540 399.204, 184.540 399.204, 188.165 397.065 C 192.342 394.600, 191.964 389.517, 187.379 386.513 C 186.120 385.688, 182.258 382.486, 178.797 379.397 C 171.584 372.962, 165.840 369.815, 158 368.003 C 154.975 367.304, 151.285 366.117, 149.800 365.366 C 145.929 363.408, 144.455 363.657, 142.530 366.594 M 466 366.392 C 451.145 369.257, 434.519 381.534, 425.960 395.958 C 413.464 417.019, 415.951 452.561, 431.185 470.614 C 469.424 515.931, 547.011 485.468, 541 427.497 C 536.440 383.525, 505.953 358.686, 466 366.392 M 463.634 371.475 C 437.401 377.471, 422.918 398.307, 422.607 430.500 C 422.274 464.787, 438.123 482.121, 475.500 488.350 C 485.035 489.939, 502.411 484.877, 514.536 476.977 C 550.801 453.349, 540.850 385.811, 499.119 372.334 C 492.726 370.269, 471.191 369.748, 463.634 371.475 M 349 378.566 C 345.975 381.028, 341.137 384.848, 338.248 387.054 C 332.997 391.065, 332.997 391.065, 334.678 393.783 C 341.007 404.008, 350.676 409.851, 361.656 410.086 C 370.156 410.267, 377 408.697, 377 406.565 C 377 404.328, 356.518 374.094, 355 374.090 C 354.725 374.089, 352.025 376.103, 349 378.566 M 416.149 384.494 C 409.400 390.265, 401.874 396.367, 399.424 398.052 C 396.974 399.738, 394.234 402.239, 393.336 403.610 C 392.438 404.981, 390.385 406.784, 388.775 407.617 C 384.689 409.729, 385.266 417.378, 389.925 422.872 C 391.617 424.868, 393.966 428.300, 395.145 430.500 C 396.324 432.700, 398.349 435.892, 399.644 437.594 C 400.940 439.296, 402 440.993, 402 441.364 C 402 441.736, 403.163 443.883, 404.585 446.135 C 407.853 451.311, 409.365 450.123, 408.766 442.847 C 406.894 420.069, 412.571 397.695, 423.462 384.936 C 427.639 380.043, 430.786 374, 429.157 374 C 428.751 374, 422.897 378.722, 416.149 384.494 M 141.105 378.914 C 139.996 379.616, 139.753 382.912, 139.921 394.997 C 140.159 412.183, 140.019 412.571, 132.383 415.949 C 122.378 420.374, 121.172 439.143, 130.477 445.616 C 139.795 452.099, 139.444 451.260, 139.853 468.032 C 140.224 483.244, 140.224 483.244, 147.982 482.795 C 172.783 481.359, 188.484 459.807, 186.685 429.669 C 184.940 400.437, 173.639 384.892, 150.303 379.625 C 141.916 377.732, 142.857 377.804, 141.105 378.914 M 120.762 381.942 C 93.825 390.553, 82.769 424.177, 97.070 454 C 102.869 466.093, 109.123 471.553, 123.421 477.006 C 137.333 482.312, 136.286 483.166, 135.839 466.873 C 135.536 455.825, 135.136 452.545, 134.048 452.183 C 131.185 451.228, 123.638 443.367, 121.871 439.500 C 117.250 429.383, 122.656 415.423, 132.586 411.833 C 136 410.598, 136 410.598, 136 396.881 C 136 378.147, 135.172 377.335, 120.762 381.942 M 191.479 399.204 C 184.758 402.737, 184.992 401.978, 187.785 411.187 C 191.124 422.195, 191.574 444.482, 188.619 452.453 C 186.634 457.807, 188.260 461, 192.972 461 C 199.237 461, 202.307 420.626, 197.172 405.761 C 194.536 398.130, 194.219 397.764, 191.479 399.204 M 469.637 402.465 C 453.554 408.198, 448.665 430.790, 460.793 443.335 C 477.404 460.518, 502.029 449.932, 501.990 425.624 C 501.962 407.757, 486.280 396.532, 469.637 402.465 M 312.783 407.349 C 304.757 412.309, 304.764 412.267, 310.659 419.658 C 330.828 444.950, 361.587 458.631, 387.871 454.001 C 402.781 451.375, 403.167 450.688, 395.829 439.865 C 393.448 436.353, 390.912 432.360, 390.194 430.990 C 387.139 425.165, 386.425 424.675, 383.642 426.499 C 381.531 427.882, 378.846 428.100, 367.249 427.827 C 349.164 427.401, 342.464 424.493, 329.349 411.378 C 324.742 406.770, 320.640 403.045, 320.236 403.099 C 319.831 403.153, 316.477 405.066, 312.783 407.349 M 470.942 405.948 C 454.576 410.914, 452.887 437.286, 468.428 445.217 C 484.122 453.227, 498 444.120, 498 425.810 C 498 409.894, 486.282 401.293, 470.942 405.948 M 183.226 464.029 C 175.609 477.262, 162.076 485.979, 147.869 486.801 C 139.422 487.290, 139.044 487.630, 139.014 494.750 C 138.997 498.642, 140.235 498.791, 154.500 496.610 C 172.200 493.904, 183.173 486.533, 190.799 472.225 C 194.438 465.399, 194.536 465, 192.577 465 C 191.794 465, 189.867 463.918, 188.295 462.594 C 185.436 460.189, 185.436 460.189, 183.226 464.029" stroke="none" fill="#1A1A1A" fill-rule="evenodd"/>
</svg>