<svg xmlns="http://www.w3.org/2000/svg" viewBox="0 0 600 523" version="1.1" preserveAspectRatio="xMidYMid meet">
	<path d="M 243.570 0.887 C 242.858 2.039, 244.288 3.073, 251.087 6.320 C 254.161 7.787, 260.418 11.691, 264.992 14.994 C 269.566 18.297, 273.583 21, 273.918 21 C 274.626 21, 280.877 27.331, 287.248 34.500 C 296.803 45.252, 312.415 71.573, 314.576 80.573 C 314.963 82.183, 317.045 87.100, 319.205 91.500 C 321.364 95.900, 323.522 101.525, 324.001 104 C 324.480 106.475, 325.762 110.975, 326.850 114 C 329.972 122.676, 331.269 140.121, 330.732 166.177 C 330.139 194.909, 330.054 195.249, 323.167 196.240 C 312.233 197.814, 303.200 201.886, 293.353 209.682 C 289.206 212.965, 289.206 212.965, 290.539 208.536 C 291.272 206.101, 292.300 203.296, 292.824 202.304 C 297.475 193.492, 300.404 141.558, 297.071 127 C 296.379 123.975, 295.460 118.494, 295.030 114.821 C 294.470 110.045, 292.908 105.343, 289.548 98.321 C 281.073 80.608, 276.767 72.393, 273.873 68.417 C 272.305 66.263, 270.166 62.664, 269.120 60.420 C 268.073 58.176, 265.272 54.801, 262.895 52.920 C 260.518 51.039, 255.182 46.199, 251.037 42.165 C 246.891 38.131, 241.025 33.502, 238 31.878 C 234.975 30.254, 230.950 27.803, 229.055 26.431 C 227.160 25.059, 224.931 24.196, 224.102 24.514 C 221.868 25.372, 210.987 21.066, 207.232 17.838 C 205.434 16.293, 202.734 14.774, 201.232 14.462 C 196.647 13.510, 188.744 11.209, 184 9.443 C 178.373 7.349, 166.843 7.056, 164.562 8.949 C 163.287 10.007, 158.841 10.268, 144.710 10.116 C 115.984 9.807, 95.092 13.939, 79.639 22.984 C 74.500 25.992, 71.695 27, 68.461 27 C 34.963 27, 13.679 42.186, 4.918 72.339 C 3.050 78.766, 2.867 80.629, 3.793 83.760 C 9.980 104.674, 11.255 108.046, 14.662 112.508 C 19.250 118.517, 19.298 121.936, 15.077 141.500 C 8.379 172.533, 15.523 209.653, 33.280 236.088 C 39.189 244.886, 69.195 269.867, 81.772 276.459 C 90.005 280.775, 90.135 280.742, 95.505 272.993 C 101.095 264.926, 116.953 256.363, 128.759 255.035 C 138.205 253.973, 141.418 251.964, 140.705 247.567 C 140.179 244.331, 140.179 244.331, 146.840 243.017 C 162 240.024, 169.103 236.178, 172.043 229.368 C 177.085 217.693, 195.484 206.059, 200.104 211.625 C 200.731 212.381, 202.554 213, 204.155 213 C 213.068 213, 226.373 225.136, 227.520 234.312 C 230.426 257.570, 220.271 269.711, 198.630 268.853 C 186.833 268.385, 185.879 269.543, 191.534 277.471 C 198.451 287.171, 212.603 305.334, 216.878 310 C 219.145 312.474, 221 315.077, 221 315.784 C 221 316.491, 219.603 315.479, 217.896 313.535 C 216.189 311.591, 213.977 310, 212.979 310 C 210.900 310, 203.560 320.379, 202.143 325.324 C 201.642 327.071, 199.795 332.325, 198.038 337 C 196.282 341.675, 194.449 348.200, 193.966 351.500 C 193.483 354.800, 192.627 360.425, 192.064 364 C 191.501 367.575, 191.031 373.793, 191.020 377.818 C 190.997 386.205, 190.837 386.171, 178.559 375.156 C 172.015 369.284, 163.186 364.545, 156.772 363.461 C 152.755 362.783, 152.755 362.783, 161.627 358.857 C 180.908 350.325, 189.825 334.044, 189.483 308 C 189.342 297.274, 187.272 290.162, 182.105 282.652 C 178.468 277.366, 178.297 275.947, 181 273.500 C 187.746 267.395, 170.705 254.346, 152 251.294 C 143.500 249.907, 143.500 249.907, 140.764 252.953 C 139.259 254.629, 137.194 256, 136.174 256 C 132.994 256, 117.343 261.609, 112.338 264.542 C 86.164 279.881, 81.416 319.673, 102.760 344.821 C 111.177 354.739, 126.891 363.902, 136.111 364.270 C 139.621 364.410, 139.745 364.527, 138.410 366.431 C 136.697 368.878, 136.587 372.187, 138.167 373.767 C 139.735 375.335, 138.312 375.737, 129.241 376.291 C 115.383 377.137, 101.649 386.741, 93.835 401.049 C 75.484 434.653, 91.838 472.150, 129.805 483.523 C 136.016 485.383, 136.016 485.383, 135.406 491.442 C 134.419 501.233, 136.634 502.653, 150.465 501.097 C 177.850 498.015, 192.601 484.584, 200.721 455.337 C 203.543 445.174, 203.543 445.174, 206.853 451.837 C 215.743 469.733, 219.574 476.955, 222.853 482 C 228.126 490.111, 260.115 521.647, 263.918 522.482 C 269.788 523.771, 270.163 520.011, 264.311 518.542 C 261.430 517.819, 258.106 514.862, 241.428 498.190 C 229.136 485.902, 225.666 481.212, 218.718 467.500 C 204.224 438.896, 205.673 443.136, 205.406 428.548 C 205.137 413.839, 203.058 404.617, 197.985 395.627 C 194.644 389.708, 193.913 377.659, 196.064 364 C 196.627 360.425, 197.483 354.800, 197.966 351.500 C 198.449 348.200, 200.282 341.675, 202.038 337 C 203.795 332.325, 205.662 326.999, 206.187 325.164 C 207.386 320.975, 212.082 314.088, 213.775 314.038 C 217.006 313.942, 217.175 319.193, 214.127 324.930 C 200.642 350.304, 199.985 387.862, 212.361 426 C 214.541 432.718, 215.436 436.913, 214.846 437.648 C 214.232 438.412, 214.787 439.474, 216.506 440.826 C 219.104 442.870, 219.493 445.832, 217.568 448.909 C 216.935 449.920, 217.859 451.411, 220.843 454.195 C 223.129 456.327, 225 458.362, 225 458.717 C 225 459.071, 227.290 462.674, 230.088 466.722 C 234.236 472.722, 234.953 474.352, 233.966 475.541 C 232.678 477.093, 234.400 480.489, 235.980 479.513 C 236.394 479.257, 237.538 479.937, 238.521 481.024 C 239.505 482.111, 240.719 483, 241.220 483 C 242.300 483, 247.500 489.002, 247.500 490.249 C 247.500 490.725, 248.609 491.951, 249.964 492.973 C 252.429 494.832, 252.429 494.832, 249.997 496.801 C 247.838 498.549, 247.726 498.965, 248.998 500.497 C 250.970 502.873, 254.245 503.975, 255.745 502.767 C 256.916 501.823, 268.382 510.140, 272.121 514.646 C 272.834 515.505, 274.336 516.618, 275.459 517.119 C 276.582 517.620, 278.850 518.918, 280.500 520.004 C 285.034 522.987, 285.849 523.272, 287.750 522.538 C 289.642 521.807, 287.636 519.738, 277.532 512 C 235.966 480.167, 210.512 431.414, 208.287 379.368 C 207.242 354.942, 216.264 319, 223.439 319 C 227.060 319, 248.985 347.377, 248.995 352.076 C 249.001 355.146, 252.770 359, 255.767 359 C 257.176 359, 259.372 360.887, 262.203 364.528 C 269.534 373.960, 290.807 397.712, 292.507 398.364 C 293.396 398.705, 295.901 402.779, 298.074 407.417 C 310.504 433.942, 342.893 458.022, 368 459.403 C 380.606 460.097, 400.648 457.721, 406.136 454.881 C 411.175 452.274, 411.618 452.431, 412.839 457.250 C 413.431 459.587, 415.233 463.573, 416.845 466.107 C 418.456 468.641, 420.066 471.633, 420.423 472.756 C 421.135 475, 427.685 481.868, 433.423 486.388 C 437.090 489.276, 437.090 489.276, 433.545 492.523 C 431.595 494.309, 430 496.273, 430 496.888 C 430 500.654, 445.426 523, 448.026 523 C 451.001 523, 450.984 521.768, 447.959 517.948 C 444.007 512.958, 442 507.954, 442 503.089 C 442 500.122, 441.440 498.721, 439.791 497.566 C 438.185 496.441, 437.882 495.718, 438.681 494.919 C 439.480 494.120, 440.603 495.005, 442.795 498.160 C 449.987 508.515, 452.548 509.847, 456.968 505.531 C 460.786 501.803, 461.067 501.702, 464.715 502.757 C 466.797 503.359, 472.420 504.162, 477.210 504.541 C 484.984 505.156, 486.095 505.496, 487.539 507.699 C 489.148 510.156, 493.981 508.397, 492.446 505.913 C 492.168 505.462, 493.641 504.629, 495.720 504.061 C 504.121 501.767, 521.400 491.996, 527.250 486.230 C 534.216 479.364, 534.277 479.664, 528.250 491.122 C 523.865 499.459, 521.100 503.205, 509.160 516.984 C 502.881 524.230, 506.040 525.338, 513.157 518.387 C 527.852 504.032, 541.416 479.497, 536.911 475.419 C 535.181 473.854, 534.636 474.174, 526.868 481.321 C 508.602 498.129, 485.995 504.063, 465 497.560 C 462.525 496.794, 458.779 495.877, 456.675 495.524 C 454.571 495.170, 451.196 493.934, 449.175 492.777 C 447.154 491.620, 444.150 490.001, 442.500 489.179 C 439.919 487.894, 436.175 484.874, 427.628 477.184 C 426.598 476.258, 425.246 474.375, 424.624 473 C 424.001 471.625, 422.289 468.475, 420.821 466 C 408.642 445.476, 411.663 406.704, 427.028 386.348 C 452.715 352.317, 515.573 355.824, 534.412 392.339 C 542.831 408.657, 547.738 398.257, 544 372.019 C 543.450 368.158, 542.540 361.738, 541.978 357.750 C 540.585 347.875, 530.655 318.988, 525.886 310.942 C 523.749 307.335, 522 303.935, 522 303.386 C 522 302.358, 514.417 291.219, 503 275.477 C 482.813 247.640, 441.938 219.050, 413.715 213.027 C 411.397 212.532, 407.700 211.673, 405.500 211.118 C 403.300 210.563, 396.204 209.971, 389.730 209.804 C 377.961 209.500, 377.961 209.500, 378.428 207 C 378.684 205.625, 379.188 202.025, 379.547 199 C 379.906 195.975, 380.799 190.871, 381.533 187.657 C 382.266 184.444, 382.582 181.069, 382.236 180.157 C 381.889 179.246, 383.091 180.188, 384.906 182.250 C 386.722 184.313, 388.766 186, 389.449 186 C 391.055 186, 394.202 189.465, 393.360 190.307 C 392.308 191.359, 395.198 194.138, 396.732 193.549 C 397.513 193.250, 400.486 194.915, 403.382 197.274 C 406.262 199.621, 411.825 203.478, 415.744 205.845 C 419.662 208.213, 423.521 211.129, 424.319 212.325 C 427.497 217.091, 447.113 222.811, 450.536 219.970 C 451.430 219.228, 452.019 219.222, 452.470 219.951 C 453.466 221.563, 458.126 221.196, 460.171 219.345 C 461.875 217.803, 462.133 217.811, 463.956 219.460 C 465.031 220.433, 467.250 221.297, 468.887 221.379 C 470.523 221.462, 472.147 221.813, 472.494 222.161 C 473.586 223.253, 481.387 221.791, 484 220.006 C 485.375 219.066, 488.053 217.998, 489.952 217.633 C 491.850 217.268, 494.325 216.152, 495.452 215.154 C 497.669 213.189, 517.761 201, 518.782 201 C 519.125 201, 520.889 199.562, 522.702 197.804 C 526 194.608, 526 194.608, 526 197.143 C 526 198.798, 525.218 200.041, 523.750 200.721 C 522.513 201.294, 517.794 204.526, 513.264 207.903 C 502.372 216.023, 502.123 217.140, 509.365 225.389 C 512.438 228.889, 516.517 234.130, 518.430 237.034 C 520.343 239.939, 524.922 245.617, 528.606 249.653 C 532.290 253.688, 536.572 259.503, 538.121 262.575 C 539.671 265.646, 543.090 271.094, 545.719 274.681 C 553.155 284.826, 553.989 286.302, 553.995 289.337 C 553.998 290.897, 555.325 294.047, 556.945 296.337 C 559.745 300.294, 565.953 319.197, 568 330 C 568.469 332.475, 570.284 341.025, 572.032 349 C 577.038 371.838, 577.148 394.161, 572.455 435 C 572.171 437.475, 571.310 441.750, 570.542 444.500 C 569.773 447.250, 568.191 454, 567.025 459.500 C 563.880 474.339, 562.008 481.097, 559.963 485 C 558.954 486.925, 556.282 492.759, 554.025 497.965 C 551.768 503.170, 549.310 508.120, 548.562 508.965 C 545.753 512.138, 541.078 521.930, 542.077 522.548 C 543.582 523.477, 545.644 521.368, 548.012 516.475 C 549.174 514.075, 551.012 510.983, 552.097 509.604 C 553.182 508.225, 555.882 502.912, 558.099 497.798 C 560.315 492.684, 562.954 486.925, 563.963 485 C 566.008 481.097, 567.880 474.339, 571.025 459.500 C 572.191 454, 573.773 447.250, 574.542 444.500 C 575.310 441.750, 576.171 437.475, 576.455 435 C 581.148 394.161, 581.038 371.838, 576.032 349 C 574.284 341.025, 572.469 332.475, 572 330 C 569.953 319.197, 563.745 300.294, 560.945 296.337 C 559.325 294.047, 557.998 290.897, 557.995 289.337 C 557.989 286.305, 557.381 285.236, 549.245 273.958 C 546.355 269.951, 542.860 264.283, 541.478 261.363 C 540.097 258.442, 535.999 252.918, 532.373 249.086 C 528.746 245.254, 524.217 239.730, 522.308 236.810 C 520.399 233.889, 517.610 230.150, 516.110 228.500 C 506.482 217.910, 506.435 217.012, 515.174 210.575 C 529.245 200.211, 529.221 200.216, 534.680 206.667 C 546.461 220.590, 544.386 220.123, 554.156 211.050 C 569.859 196.467, 577.920 181.578, 584.013 155.903 C 598.675 94.115, 572.698 30.898, 525.739 14.088 C 498.639 4.387, 461.352 0.536, 442.500 5.491 C 439.200 6.358, 433.800 7.692, 430.500 8.454 C 403.043 14.798, 374.271 32.014, 362.329 49.247 C 358.904 54.189, 355.453 54.410, 354.480 49.750 C 352.985 42.586, 340.399 21.718, 332.013 12.500 C 329.511 9.750, 326.044 5.751, 324.308 3.614 C 322.076 0.866, 320.657 -0.082, 319.463 0.376 C 318.116 0.893, 318.017 1.315, 318.973 2.468 C 319.633 3.262, 319.870 4.402, 319.500 5 C 319.130 5.598, 319.646 7.306, 320.646 8.794 C 323.406 12.899, 324.514 15.344, 324.365 17 C 324.291 17.825, 324.179 19.313, 324.115 20.306 C 324.052 21.300, 322.538 23.448, 320.750 25.081 C 317.320 28.214, 316.274 32.153, 318.403 33.919 C 319.339 34.696, 320.274 34.337, 321.945 32.558 C 323.840 30.541, 324.596 30.315, 326.517 31.189 C 328.268 31.987, 329.592 31.851, 332.062 30.619 C 336.259 28.525, 338.622 28.567, 339.354 30.750 C 339.678 31.712, 340.333 33.175, 340.811 34 C 349.534 49.061, 349.508 53.025, 340.666 55.818 C 333.075 58.216, 325.088 65.843, 327.837 68.069 C 332.252 71.644, 342.127 67.956, 345.823 61.351 C 347.002 59.245, 350 60.269, 350 62.777 C 350 63.790, 351.584 67.248, 353.519 70.462 C 358.064 78.009, 358.431 79.720, 356.629 84.950 C 355.333 88.712, 355.325 89.566, 356.565 91.459 C 357.350 92.657, 358.405 95.632, 358.908 98.069 C 359.412 100.506, 360.400 105.058, 361.104 108.184 C 363.017 116.673, 361.597 121.610, 357.363 121.187 C 354.851 120.935, 353.815 121.452, 352.157 123.780 C 348.997 128.218, 352.988 130.989, 357.559 127.532 C 361.140 124.823, 362.778 128.024, 363.505 139.151 C 363.733 142.643, 364.216 146.740, 364.578 148.256 C 364.979 149.936, 364.738 151.611, 363.961 152.547 C 362.892 153.835, 363.200 154.611, 365.871 157.367 C 368.193 159.763, 369.387 162.282, 370.284 166.681 C 370.961 169.997, 372.038 173.341, 372.679 174.113 C 376.633 178.878, 377.082 183.931, 374.781 197.801 C 371.863 215.389, 370.961 214.332, 389.606 215.166 C 406.484 215.920, 411.455 217.029, 406.556 218.946 C 404.936 219.580, 400.468 221.478, 396.625 223.165 C 385.495 228.049, 383.292 227.598, 374.462 218.624 C 366.341 210.370, 358.114 203.920, 352.890 201.710 C 351.026 200.921, 348.643 199.314, 347.595 198.138 C 346.159 196.527, 344.531 196, 340.983 196 C 335.646 196, 333.995 190.949, 335.871 180.363 C 338.086 167.861, 336.356 131.923, 332.883 118.288 C 331.792 114.004, 330.492 108.620, 329.993 106.322 C 329.495 104.024, 327.227 98.209, 324.953 93.401 C 322.679 88.592, 320.566 83.047, 320.256 81.079 C 319.682 77.425, 312.815 63.720, 307.930 56.477 C 306.438 54.265, 304.486 50.707, 303.594 48.570 C 300.487 41.135, 276.831 15.061, 268.334 9.706 C 266.043 8.262, 263.864 6.589, 263.492 5.987 C 261.314 2.463, 245.153 -1.675, 243.570 0.887 M 310.647 4.837 C 309.498 6.107, 309.172 7.610, 309.591 9.705 C 310.104 12.272, 309.630 13.304, 306.493 16.441 C 299.238 23.696, 308.852 28.243, 316.893 21.359 C 321.571 17.355, 321.830 14.620, 317.926 10.436 C 316.867 9.300, 316 7.703, 316 6.886 C 316 3.347, 313.026 2.209, 310.647 4.837 M 452.500 8.130 C 447.550 8.620, 441.685 9.692, 439.467 10.511 C 437.248 11.330, 434.323 12.001, 432.967 12.003 C 424.489 12.014, 395.362 24.514, 385 32.588 C 382.525 34.517, 378.123 37.952, 375.218 40.222 C 370.017 44.287, 366.157 48.992, 358.849 60.176 C 354.727 66.482, 354.596 65.031, 360.215 75.272 C 361.265 77.186, 361.654 80.249, 361.471 85.170 C 361.326 89.090, 361.576 93.468, 362.027 94.898 C 362.477 96.329, 363.149 99.300, 363.519 101.500 C 364.193 105.500, 364.193 105.500, 365.540 101.500 C 366.281 99.300, 367.550 94.300, 368.361 90.390 C 369.969 82.627, 375.364 71, 379.770 65.798 C 381.307 63.984, 383.815 60.806, 385.343 58.736 C 392.535 48.998, 413.211 36.119, 432.005 29.671 C 457.284 20.998, 493.901 23.906, 517.843 36.487 C 568.857 63.294, 578.856 144.302, 537.255 193.757 C 532.833 199.014, 532.833 199.014, 539.525 206.492 C 546.217 213.969, 546.217 213.969, 551.646 209.331 C 571.563 192.316, 583.962 157.600, 583.992 118.769 C 583.999 109, 582.611 95.771, 581.182 92 C 580.870 91.175, 580.580 90.036, 580.539 89.468 C 580.466 88.457, 579.792 86.135, 575.761 73 C 573.308 65.007, 569.130 56.503, 564.784 50.655 C 562.978 48.225, 560.150 44.287, 558.500 41.904 C 550.989 31.055, 538.683 22.289, 524.500 17.686 C 511.624 13.507, 501.267 10.745, 495.296 9.900 C 491.706 9.391, 488.456 8.782, 488.073 8.545 C 486.534 7.594, 460.928 7.295, 452.500 8.130 M 313.203 13.847 C 312.628 15.496, 311.222 17.346, 310.079 17.958 C 305.072 20.637, 308.711 21.989, 313.926 19.387 C 316.700 18.003, 317.067 17.398, 316.509 15.137 C 315.495 11.026, 314.343 10.577, 313.203 13.847 M 111.195 16.449 C 95.950 19.236, 92.619 20.203, 85 24.057 C 75.350 28.937, 74.907 29.516, 79.391 31.390 C 88.312 35.117, 100.169 49.588, 104.290 61.776 C 106.331 67.810, 108.007 74.042, 108.015 75.624 C 108.042 80.593, 108.899 80.970, 115.500 78.916 C 142.177 70.615, 172.619 74.696, 190.201 88.929 C 196.500 94.028, 196.500 94.028, 197.680 87.036 C 205.576 40.233, 270 43.445, 270 90.641 C 270 121.113, 243.104 137.970, 216.878 123.935 C 214.940 122.897, 214.779 122.975, 215.440 124.634 C 219.709 135.361, 221.088 141.374, 221.677 151.829 C 222.289 162.698, 222.371 163.023, 223.705 159.829 C 229.267 146.519, 249.557 137.504, 262.675 142.514 C 287.338 151.933, 288.537 191.921, 264.427 200.941 C 250.835 206.027, 245.056 204.853, 233.546 194.665 C 226.476 188.407, 223.443 183.621, 222.395 177.070 C 221.737 172.956, 221.737 172.956, 219.619 179.249 C 217.315 186.092, 212.150 194.559, 205.338 202.659 C 200.177 208.798, 200.135 209, 204.032 209 C 213.266 209, 230.316 224.678, 231.515 234.271 C 234.453 257.788, 221.098 274, 199.793 272.778 C 191.177 272.284, 191.091 272.923, 198.567 281.842 C 200.254 283.854, 204.693 289.550, 208.432 294.500 C 212.172 299.450, 215.369 303.653, 215.538 303.839 C 215.858 304.192, 223.208 298.720, 231.089 292.261 C 235.825 288.380, 242.044 281.816, 246.786 275.695 C 256.991 262.520, 261.049 256.765, 263.845 251.500 C 265.597 248.200, 269.003 242.870, 271.414 239.656 C 278.654 230.001, 286.689 211.652, 290.598 195.842 C 294.585 179.720, 295.813 139.383, 292.754 125 C 291.877 120.875, 290.916 115.106, 290.619 112.181 C 290.321 109.256, 289.197 105.431, 288.120 103.681 C 287.044 101.931, 284.490 96.675, 282.445 92 C 273.469 71.475, 260.140 53.335, 248.854 46.282 C 245.526 44.202, 240.791 41.017, 238.332 39.204 C 211.402 19.347, 152.756 8.850, 111.195 16.449 M 328.886 15.191 C 328.823 15.361, 328.622 16.780, 328.439 18.345 C 328.255 19.910, 327.359 22.329, 326.447 23.721 C 323.656 27.981, 326.935 29.146, 333.272 26.147 C 337.044 24.361, 337.044 24.361, 334.088 20.280 C 331.399 16.568, 329.179 14.396, 328.886 15.191 M 596.960 27.074 C 595.554 29.701, 595.883 115.822, 597.307 117.739 C 599.657 120.904, 600 115.074, 600 72 C 600 27.285, 599.646 22.056, 596.960 27.074 M 446 30.711 C 442.425 31.486, 438.825 32.380, 438 32.699 C 437.175 33.017, 435.825 33.381, 435 33.507 C 428.940 34.432, 413.561 41.809, 407 46.939 C 405.075 48.444, 402.511 50.202, 401.303 50.845 C 398.299 52.443, 389.826 59.834, 388.052 62.403 C 387.222 63.604, 388.364 63.005, 390.725 61 C 413.962 41.266, 431.596 33.679, 459.491 31.415 C 464.201 31.033, 468.305 30.315, 468.612 29.819 C 469.450 28.462, 453.467 29.093, 446 30.711 M 53 32.530 C 28.384 36.327, 16.180 47.346, 8.920 72.333 C 7.050 78.766, 6.867 80.629, 7.793 83.760 C 13.998 104.734, 15.249 108.039, 18.700 112.559 C 21.386 116.076, 22.359 118.310, 22.289 120.798 C 22.196 124.063, 22.321 124.186, 25.155 123.619 C 27.201 123.210, 29.570 123.756, 32.809 125.385 C 35.525 126.750, 40.447 128.052, 44.500 128.478 C 51.433 129.205, 53.564 129.523, 55.500 130.118 C 56.050 130.287, 57.443 129.901, 58.596 129.260 C 59.748 128.619, 63.654 127.896, 67.274 127.653 C 72.229 127.320, 74.679 126.603, 77.179 124.755 C 79.005 123.404, 82.600 121.310, 85.166 120.101 C 90.262 117.700, 95.576 111.544, 101.205 101.521 C 105.192 94.420, 107.933 92.876, 123 89.243 C 156.436 81.181, 184.535 95.156, 199.220 127.149 C 201.076 131.192, 202.700 136.197, 202.830 138.271 C 202.959 140.345, 203.522 143.242, 204.080 144.709 C 206.764 151.769, 203.725 174.668, 198.810 184.422 C 189.037 203.818, 164.725 223.201, 148 224.931 C 142.500 225.500, 142.500 225.500, 142.206 232.780 C 141.911 240.060, 141.911 240.060, 144.706 239.430 C 162.637 235.384, 166.180 233.724, 168.727 228.172 C 172.708 219.494, 185.407 208.343, 192.287 207.483 C 198.701 206.682, 201.388 204.170, 209.814 191.096 C 218.893 177.010, 220.836 151.120, 214.225 132.340 C 212.451 127.302, 211 122.631, 211 121.961 C 211 121.291, 209.478 119.058, 207.617 116.998 C 205.757 114.939, 202.560 109.865, 200.512 105.722 C 191.484 87.454, 170.887 78.193, 141.720 79.285 C 127.865 79.804, 123.819 80.435, 112.268 83.885 C 107.430 85.330, 105.189 83.002, 103.952 75.247 C 101.026 56.894, 88.979 38.171, 77.975 34.874 C 75.776 34.215, 73.476 33.074, 72.866 32.338 C 71.493 30.684, 64.534 30.751, 53 32.530 M 449.500 37.006 C 417.544 41.699, 391.545 59.503, 382.061 83.190 C 367.251 120.175, 374.461 167.038, 398.276 188.589 C 422.043 210.096, 456.358 218.980, 485.500 211.169 C 516.465 202.869, 542.192 176.841, 546.453 149.500 C 546.912 146.551, 546.515 147.207, 544.941 152 C 535.510 180.716, 513.947 201.081, 485 208.608 C 473.420 211.619, 446.550 211.145, 436.500 207.752 C 409.284 198.564, 387.818 176.526, 380.248 150 C 376.875 138.182, 375.935 114.352, 378.447 104.326 C 379.387 100.572, 380.636 95.475, 381.222 93 C 388.906 60.536, 429.471 36.060, 471.500 38.527 C 516.492 41.168, 542.660 66.632, 549.492 114.421 C 550.933 124.500, 550.933 124.500, 550.395 115.500 C 547.098 60.326, 506.386 28.653, 449.500 37.006 M 447.500 43.466 C 416.501 48.879, 390.956 69.189, 385.199 93 C 380.851 110.984, 380.729 112.038, 381.282 126.852 C 382.724 165.413, 401.865 192.073, 436.500 203.762 C 453.817 209.606, 485.363 206.903, 502.848 198.076 C 557.400 170.539, 560.616 78.165, 507.942 51.771 C 491.476 43.520, 466.693 40.115, 447.500 43.466 M 517.878 45.692 C 519.186 46.686, 522.950 49.975, 526.243 53 C 530.463 56.877, 532.121 57.921, 531.859 56.537 C 531.478 54.529, 524.742 48.930, 518.811 45.692 C 515.617 43.949, 515.584 43.949, 517.878 45.692 M 49.070 55.025 C 36.847 59.421, 28.553 70.796, 28.654 83.025 C 28.871 109.363, 60.611 122.203, 77.510 102.790 C 98.254 78.962, 77.841 44.678, 49.070 55.025 M 349.454 54.074 C 349.089 54.665, 349.850 56.352, 351.145 57.824 C 352.440 59.296, 353.617 60.692, 353.760 60.927 C 353.904 61.162, 354.631 60.520, 355.376 59.500 C 356.574 57.862, 356.410 57.374, 353.972 55.323 C 350.848 52.694, 350.386 52.567, 349.454 54.074 M 535.114 55 C 535.772 56.375, 536.611 58.148, 536.977 58.940 C 537.740 60.590, 540 61.603, 540 60.296 C 540 59.816, 538.631 57.866, 536.959 55.962 C 534.549 53.218, 534.166 53.019, 535.114 55 M 54 57.954 C 36.624 61.550, 27.942 78.597, 35.367 94.541 C 42.268 109.361, 66.015 112.110, 75.302 99.163 C 90.210 78.380, 77.173 53.159, 54 57.954 M 337.530 61.060 C 332.281 63.678, 331.008 65, 333.735 65 C 337.160 65, 340.792 63.258, 341.974 61.048 C 343.323 58.529, 342.600 58.531, 337.530 61.060 M 230.355 61.018 C 225.458 62.013, 216.058 66.601, 214.230 68.889 C 204.499 81.070, 202.940 94.588, 209.797 107.319 C 219.473 125.284, 246.883 126.954, 255.852 110.126 C 270.055 83.479, 255.719 55.868, 230.355 61.018 M 384.335 66.804 C 381.057 68.865, 374.670 82.848, 376.014 85.023 C 376.553 85.895, 377.335 84.613, 378.353 81.181 C 379.195 78.348, 381.303 73.967, 383.038 71.445 C 386.122 66.962, 386.557 65.408, 384.335 66.804 M 446.663 69.548 C 416.401 80.647, 402.377 99.898, 403.167 129.255 C 404.265 170.034, 449.495 194.352, 486.548 174.085 C 488.722 172.896, 493.200 170.468, 496.500 168.688 C 512.964 159.811, 519.589 137.910, 514.521 109.112 C 511.239 90.463, 496.026 74.816, 475.992 69.485 C 468.966 67.616, 451.832 67.652, 446.663 69.548 M 444.889 74.356 C 424.536 82.728, 418.699 87.848, 410.848 104.216 C 408.843 108.398, 407.743 115.368, 407.291 126.753 C 405.604 169.271, 451.427 190.706, 492.406 166.568 C 496.204 164.331, 499.674 162.500, 500.117 162.500 C 501.828 162.500, 507.321 153.636, 509.585 147.224 C 513.752 135.416, 512.326 107.503, 506.993 96.486 C 497.902 77.706, 465.131 66.029, 444.889 74.356 M 448.281 77.970 C 432.430 81.737, 417.067 96.617, 413.475 111.683 C 405.615 144.647, 425.601 170.946, 458.761 171.278 C 490.593 171.596, 511.366 146.222, 506.030 113.538 C 502.035 89.064, 474.071 71.841, 448.281 77.970 M 226.817 83.479 C 219.954 88.142, 219.405 96.515, 225.605 101.958 C 236.771 111.762, 251.846 95.091, 241.208 84.703 C 236.549 80.153, 232.248 79.788, 226.817 83.479 M 446.500 83.402 C 419.455 91.978, 407.739 121.620, 421.258 147.268 C 433.373 170.254, 473.195 174.347, 490.898 154.426 C 506.881 136.440, 505.082 103.287, 487.412 90.196 C 477.338 82.732, 458.486 79.602, 446.500 83.402 M 227.861 86.912 C 224.720 89.455, 224.457 97.399, 227.441 99.581 C 233.034 103.670, 241 99.334, 241 92.200 C 241 85.445, 233.433 82.399, 227.861 86.912 M 372.683 88.650 C 372.308 89.026, 371.981 90.496, 371.958 91.917 C 371.934 93.338, 370.772 97.650, 369.374 101.500 C 367.977 105.350, 366.425 111.425, 365.926 115 C 365.428 118.575, 364.811 122.044, 364.557 122.710 C 364.302 123.375, 364.781 125.935, 365.621 128.400 C 368.198 135.964, 369.619 133.424, 370.384 119.888 C 370.758 113.281, 371.999 103.814, 373.142 98.848 C 375.023 90.680, 374.835 86.499, 372.683 88.650 M 133 91.578 C 131.625 91.823, 127.800 92.494, 124.500 93.069 C 115.347 94.663, 115 94.839, 115 97.893 C 115 100.569, 118.517 105, 120.640 105 C 122.829 105, 126.264 109.882, 125.671 112.150 C 124.902 115.091, 126.586 117, 129.948 117 C 132.623 117, 137.609 121.057, 136.409 122.258 C 134.954 123.713, 137.158 124.890, 139.599 123.962 C 145.607 121.678, 158.722 129.537, 162.949 137.955 C 171.891 155.764, 164.883 175.303, 147.139 182.039 C 142.536 183.786, 142.536 183.786, 142.359 202.729 C 142.181 221.673, 142.181 221.673, 146.841 220.877 C 193.788 212.858, 215.813 157.240, 188.773 114.991 C 178.043 98.227, 153.510 87.928, 133 91.578 M 106.203 100.128 C 99.573 112.302, 91.817 120.958, 84.193 124.692 C 61.737 135.688, 70.028 192.207, 96.555 208.961 C 104.988 214.287, 105.155 214.288, 105.691 209.010 C 105.941 206.541, 106.314 204.352, 106.520 204.147 C 106.725 203.942, 104.702 202.042, 102.024 199.925 C 81.972 184.075, 75.174 154.184, 87.030 134 C 92.102 125.365, 108.939 109.424, 115.028 107.491 C 117.156 106.816, 117.138 106.737, 114.100 103.603 C 112.395 101.844, 111 99.639, 111 98.702 C 111 95.895, 108.028 96.778, 106.203 100.128 M 451 101.905 C 444.363 104.246, 435.686 112.869, 434.054 118.744 C 425.875 148.195, 466.567 162.220, 480.589 134.783 C 490.339 115.707, 471.433 94.700, 451 101.905 M 450.211 106.069 C 434.916 110.756, 432.296 136.820, 446.489 143.098 C 466.673 152.026, 484.414 136.245, 477.385 115.616 C 474.470 107.061, 461.661 102.561, 450.211 106.069 M 260.002 110.994 C 259.306 112.676, 256.496 116.066, 253.760 118.526 C 251.023 120.987, 249.267 123, 249.857 123 C 252.913 123, 263.393 110.059, 261.704 108.371 C 261.465 108.132, 260.699 109.312, 260.002 110.994 M 114.433 111.574 C 83.609 129.566, 76.196 160.652, 95.997 188.880 C 101.393 196.573, 109 201.929, 109 198.037 C 109 197.507, 111.669 194.220, 114.932 190.732 C 120.863 184.391, 120.863 184.391, 117.432 181.653 C 115.544 180.147, 114 178.400, 114 177.772 C 114 177.143, 113.004 175.568, 111.786 174.272 C 109.886 172.250, 109.752 171.627, 110.840 169.885 C 111.833 168.295, 111.853 167.086, 110.935 164.303 C 109.049 158.589, 110.157 144.993, 112.812 141.264 C 114.015 139.574, 115 137.759, 115 137.230 C 115 134.189, 123.740 127.916, 130.921 125.804 C 133.865 124.938, 132.910 121, 129.756 121 C 125.312 121, 120.833 116.085, 121.633 112.085 C 122.405 108.226, 120.412 108.084, 114.433 111.574 M 24 127.892 C 21.693 128.531, 21.295 129.584, 18.839 141.542 C 12.917 170.378, 17.278 197.838, 32.569 228 C 36.131 235.027, 55.705 256.034, 61.841 259.414 C 62.753 259.917, 65.975 262.207, 69 264.502 C 79.904 272.774, 88.834 276.682, 90.710 274.003 C 98.200 263.311, 114.830 252.640, 125.937 251.401 C 142.067 249.602, 141.699 247.351, 124.891 244.999 C 97.372 241.148, 67.172 218.646, 57.653 194.901 C 50.227 176.379, 48.535 154.345, 53.341 138.750 C 54.146 136.137, 54.623 133.944, 54.402 133.875 C 53.165 133.491, 51.827 133.305, 45 132.569 C 40.484 132.083, 35.624 130.815, 32.783 129.381 C 27.739 126.835, 27.787 126.843, 24 127.892 M 139.738 127.692 C 138.769 127.945, 138.217 128.542, 138.511 129.019 C 138.806 129.495, 139.515 141.040, 140.087 154.673 C 140.659 168.306, 141.265 179.598, 141.432 179.766 C 143.695 182.028, 157.640 172.278, 160.928 166.135 C 165.183 158.184, 161.865 138.707, 155.234 132.710 C 153.470 131.115, 143.322 126.821, 142.014 127.116 C 141.731 127.180, 140.707 127.439, 139.738 127.692 M 129.500 130.243 C 124.565 132.027, 120.736 134.456, 119.585 136.534 C 118.988 137.611, 117.622 139.815, 116.549 141.432 C 113.552 145.950, 113.102 160.182, 115.766 166.204 C 118.556 172.511, 125.208 177.239, 134.347 179.410 C 137.417 180.140, 137.502 176.845, 135.385 139.250 C 134.772 128.361, 134.759 128.341, 129.500 130.243 M 63.374 133.211 C 61.003 133.975, 59.985 135.097, 59.157 137.859 C 51.280 164.135, 57.036 193.210, 74.023 212.946 C 86.957 227.975, 108.968 238.787, 132.250 241.548 C 138 242.230, 138 242.230, 138 234.115 C 138 226, 138 226, 132.562 226 C 125.692 226, 114.703 223.483, 109.500 220.717 C 80.069 205.074, 69.440 189.800, 68.289 161.500 C 67.809 149.678, 68.725 138.286, 70.521 133.750 C 71.325 131.721, 68.631 131.518, 63.374 133.211 M 246.500 146.645 C 215.900 153.910, 223.439 201.793, 254.679 198.592 C 274.797 196.531, 282.494 179.274, 273.292 156.864 C 270.015 148.883, 257.377 144.063, 246.500 146.645 M 250.500 148.692 C 242.478 150.537, 240.292 151.582, 235.929 155.663 C 220.499 170.096, 230.721 196, 251.846 196 C 277.911 196, 283.665 155.441, 258.499 149.104 C 253.927 147.953, 253.753 147.944, 250.500 148.692 M 244.684 154.449 C 233.988 158.263, 229.916 171.004, 235.652 182.705 C 241.354 194.336, 260.925 194.809, 267.567 183.476 C 277.913 165.822, 263.623 147.694, 244.684 154.449 M 547.572 160.406 C 546.038 164.313, 546.038 164.313, 548.326 162.163 C 550.098 160.499, 550.883 160.283, 551.807 161.207 C 552.731 162.131, 553 162.035, 553 160.782 C 553 159.892, 553.230 158.564, 553.511 157.832 C 553.851 156.945, 553.200 156.500, 551.565 156.500 C 549.636 156.500, 548.777 157.340, 547.572 160.406 M 349.638 170.106 C 347.728 172.833, 350.615 176.995, 354.424 177.006 C 355.566 177.010, 357.789 177.685, 359.364 178.506 C 366.477 182.215, 369.292 179.164, 364.167 173.301 C 359.413 167.863, 352.304 166.300, 349.638 170.106 M 118.012 177.719 C 118.019 178.149, 119.594 179.517, 121.512 180.759 C 125.508 183.347, 125.846 184.924, 122.965 187.532 C 121.845 188.545, 121.144 189.932, 121.405 190.614 C 121.832 191.727, 119.195 194.862, 118.346 194.250 C 117.016 193.290, 115.885 194.157, 116.890 195.367 C 117.753 196.407, 117.663 197.035, 116.512 197.990 C 115.681 198.680, 114.985 198.852, 114.967 198.372 C 114.912 196.938, 111 202.104, 111 203.611 C 111 204.482, 112.098 205, 113.943 205 C 115.851 205, 117.434 205.782, 118.443 207.223 C 119.299 208.445, 120 209.065, 120 208.600 C 120 208.135, 120.686 208.325, 121.525 209.021 C 123.211 210.420, 120.704 214.553, 118.861 213.414 C 117.855 212.792, 111 215.083, 111 216.040 C 111 218.902, 126.275 222.197, 132.750 220.733 C 138 219.545, 138 219.545, 138 202.386 C 138 185.227, 138 185.227, 133.400 184.537 C 130.833 184.152, 126.415 182.321, 123.400 180.393 C 120.430 178.493, 118.006 177.290, 118.012 177.719 M 329.139 199.033 C 327.540 200.365, 325.281 201.001, 322.139 201.004 C 319.372 201.006, 316.262 201.763, 314.431 202.879 C 312.744 203.908, 310.214 204.750, 308.811 204.750 C 299.751 204.750, 280.703 225.383, 280.453 235.467 C 280.412 237.135, 280.017 242.571, 279.576 247.547 C 278.773 256.608, 280 266.999, 282.194 269.705 C 283.156 270.893, 278.724 278, 277.021 278 C 276.613 278, 274.530 279.187, 272.392 280.638 C 270.254 282.088, 265.129 284.745, 261.003 286.541 C 256.876 288.337, 249.232 291.692, 244.016 293.997 C 236.562 297.291, 234.162 297.958, 232.807 297.111 C 231.406 296.236, 230.228 296.773, 226.531 299.973 C 224.029 302.139, 221.207 304.344, 220.262 304.873 C 218.106 306.080, 221.864 311.758, 231.933 322.513 C 235.545 326.371, 241.425 333.495, 245 338.346 C 248.575 343.197, 253.636 349.716, 256.246 352.833 C 258.857 355.950, 263.242 361.200, 265.990 364.500 C 277.412 378.215, 291.462 394, 292.248 394 C 292.711 394, 292.757 392.313, 292.350 390.250 C 287.463 365.501, 297.040 340.452, 318.414 322.081 C 333.330 309.261, 343.059 305.510, 360.684 305.784 C 370.868 305.942, 370.868 305.942, 389.152 295.971 C 399.209 290.487, 408.394 286, 409.563 286 C 410.733 286, 412.505 285.099, 413.501 283.999 C 415.501 281.789, 431.479 273, 433.497 273 C 434.577 273, 446.765 265.282, 449.352 262.960 C 449.821 262.540, 449.315 260.914, 448.228 259.348 C 445.917 256.017, 442.944 251.083, 439.928 245.574 C 434.973 236.520, 418.893 220, 415.035 220 C 414.018 220, 410.107 221.393, 406.343 223.096 C 383.764 233.312, 382.209 233.506, 376.994 226.750 C 369.299 216.781, 360.118 208.767, 352.890 205.710 C 351.026 204.921, 348.643 203.314, 347.595 202.138 C 346.165 200.533, 344.529 200, 341.036 200 C 338.477 200, 335.509 199.339, 334.441 198.532 C 331.987 196.675, 331.967 196.677, 329.139 199.033 M 318.340 204.096 C 307.327 205.935, 287.578 222.426, 285.022 231.917 C 280.367 249.205, 281.429 265.297, 287.608 271.102 C 290.188 273.525, 294.559 272.579, 302.997 267.769 C 312.130 262.564, 315.535 261.871, 318.133 264.693 C 324.385 271.484, 331.052 272.322, 336.155 266.958 C 340.498 262.392, 340.952 259.642, 337.898 256.391 C 335.796 254.154, 335.796 254.154, 340.041 251.474 C 347.623 246.688, 362.283 240, 365.192 240 C 367.024 240, 369.342 238.797, 371.732 236.607 C 375.435 233.213, 375.435 233.213, 370.715 226.114 C 359.610 209.415, 338.820 200.675, 318.340 204.096 M 325 208.677 C 321.198 209.292, 310.694 213.159, 309 214.567 C 308.175 215.253, 305.671 216.301, 303.435 216.896 C 299.624 217.910, 294.040 222.373, 295.170 223.503 C 295.451 223.784, 297.481 222.709, 299.682 221.115 C 305.331 217.024, 319.468 211, 323.423 211 C 328.317 211, 333.047 209.885, 332.425 208.878 C 331.878 207.993, 329.606 207.932, 325 208.677 M 336.344 208.748 C 337.749 211.022, 332.229 214.169, 325.844 214.734 C 318.741 215.363, 306.607 220.204, 299.396 225.287 C 295.675 227.909, 294.616 228.241, 293.063 227.271 C 288.214 224.243, 283.930 252.009, 287.496 263.348 C 289.538 269.841, 289.085 269.665, 296.458 266.843 C 300.879 265.152, 301.939 264.343, 301.376 263.093 C 297.882 255.339, 300.330 239.292, 306.125 231.962 C 318.257 216.613, 339.238 216.549, 353.123 231.818 C 357.511 236.643, 358.868 237.584, 360.500 236.936 C 361.600 236.498, 363.651 236.109, 365.059 236.070 C 380.111 235.657, 358.363 212.532, 339.125 208.494 C 337.042 208.057, 335.977 208.154, 336.344 208.748 M 434.337 232.750 C 438.394 237.563, 442.695 243.300, 443.895 245.500 C 446.898 251.004, 449.886 255.972, 452.207 259.319 C 453.282 260.869, 453.940 262.713, 453.670 263.417 C 453.124 264.840, 437.293 275.631, 434.364 276.577 C 430.100 277.953, 416.025 285.577, 416.044 286.500 C 416.054 287.050, 418.862 289.397, 422.282 291.716 C 437.193 301.826, 464.962 334.741, 464.996 342.346 C 464.998 342.811, 466.565 346.490, 468.478 350.521 C 471.956 357.850, 471.956 357.850, 479.728 357.886 C 484.003 357.906, 490.425 358.650, 494 359.540 C 497.575 360.429, 502.399 361.626, 504.721 362.200 C 507.042 362.774, 510.392 364.314, 512.165 365.622 C 513.938 366.930, 516.028 368, 516.809 368 C 519.058 368, 535.980 385.979, 538.225 390.755 C 540.910 396.467, 540.938 396.338, 539.932 383 C 538.148 359.358, 537.883 356.822, 536.926 354.304 C 536.387 352.887, 535.689 350.101, 535.376 348.114 C 535.063 346.126, 534.134 342.925, 533.311 341 C 532.489 339.075, 531.136 335.250, 530.305 332.500 C 529.473 329.750, 528.226 326.375, 527.532 325 C 526.838 323.625, 525.321 320.475, 524.161 318 C 504.823 276.741, 479.294 249.076, 443.278 230.354 C 426.302 221.529, 425.140 221.840, 434.337 232.750 M 322 225.935 C 309.031 229.894, 304.580 236.323, 304.532 251.165 C 304.495 262.490, 304.565 262.616, 309.719 260.383 C 313.656 258.677, 313.672 258.646, 313.215 253.889 C 312.600 247.483, 313.422 244.728, 317.249 240.369 C 324.881 231.676, 332.195 231.770, 342.266 240.689 C 346.032 244.024, 346.032 244.024, 350.016 241.992 C 354.698 239.603, 354.744 239.397, 351.554 235.073 C 345.537 226.917, 332.245 222.807, 322 225.935 M 323.315 239.464 C 319.207 241.250, 317 245.614, 317 251.950 C 317 254.728, 317.135 257, 317.299 257 C 317.464 257, 322.751 254.716, 329.049 251.925 C 335.347 249.133, 341.060 246.611, 341.744 246.320 C 343.429 245.603, 342.538 244.403, 337.750 240.934 C 333.224 237.655, 328.564 237.180, 323.315 239.464 M 271.856 244.759 C 269.852 247.916, 267.422 252.075, 266.456 254 C 263.988 258.916, 252.237 274.365, 243.750 283.852 C 234.704 293.962, 236.277 294.467, 252 286.500 C 254.728 285.118, 259.331 283.055, 262.230 281.916 C 268.080 279.618, 278 273.385, 278 272.009 C 278 271.522, 277.280 268.059, 276.400 264.312 C 275.207 259.231, 274.968 255.149, 275.461 248.250 C 276.240 237.329, 276.445 237.528, 271.856 244.759 M 142.193 256.025 C 141.283 257.508, 141.198 258.534, 141.915 259.397 C 142.481 260.079, 143.210 265.557, 143.534 271.569 C 143.901 278.377, 144.555 282.652, 145.267 282.902 C 148.362 283.989, 156.016 292.605, 158.045 297.286 C 163.753 310.456, 157.906 324.402, 144.750 328.991 C 140.461 330.487, 140.393 360, 144.679 360 C 151.926 360, 170.210 351.670, 174.527 346.402 C 187.874 330.113, 189.600 299.360, 178.105 282.652 C 174.409 277.281, 174.321 276.352, 177.208 273.279 C 182.011 268.166, 167.820 257.312, 154 255.527 C 151.525 255.208, 148.150 254.709, 146.500 254.420 C 144.169 254.011, 143.208 254.369, 142.193 256.025 M 0.624 259.800 C -0.187 261.111, 2.114 266.020, 4.446 267.956 C 5.592 268.906, 5.734 269.616, 4.964 270.544 C 3.844 271.893, 5.108 273.233, 7.900 273.655 C 10.131 273.993, 11.031 276.301, 9.585 277.977 C 8.863 278.815, 8.223 281.213, 8.164 283.306 C 8.105 285.399, 7.144 288.393, 6.028 289.960 C 1.798 295.902, 3.652 304.996, 9 304.534 C 10.500 304.404, 12.036 305.074, 12.840 306.207 C 13.894 307.693, 14.481 307.846, 15.590 306.925 C 16.366 306.282, 17 306.046, 17 306.401 C 17 307.728, 22.233 303.555, 24.326 300.558 C 26.533 297.397, 29.769 296.388, 29.175 299.045 C 28.996 299.845, 27.950 301.465, 26.850 302.645 C 25.553 304.035, 25.228 305.023, 25.925 305.454 C 26.516 305.819, 27 306.984, 27 308.043 C 27 314.718, 37.328 318.847, 40.107 313.283 C 41.714 310.067, 41.714 310.067, 44.015 312.516 C 45.281 313.863, 47.237 315.258, 48.362 315.615 C 49.487 315.972, 55.153 319.729, 60.954 323.965 C 66.754 328.200, 72.625 332.262, 74 332.991 C 75.375 333.721, 77.093 335.154, 77.818 336.175 C 78.544 337.197, 79.485 337.818, 79.910 337.556 C 80.335 337.293, 82.083 338.523, 83.794 340.289 C 86.905 343.500, 86.905 343.500, 85.026 347.695 C 80.892 356.924, 74.816 381.536, 73.520 394.302 C 73.016 399.270, 72.516 400.856, 71.665 400.186 C 71.024 399.681, 66.675 397.569, 62 395.491 C 49.088 389.755, 28.377 375.328, 10.128 359.359 C 5.523 355.330, 1.360 352.277, 0.878 352.576 C -0.927 353.691, 0.094 357.012, 2.750 358.672 C 4.262 359.616, 8.205 362.889, 11.512 365.945 C 17.570 371.544, 18.871 372.543, 37.339 385.787 C 46.964 392.690, 67.791 404, 70.877 404 C 72.571 404, 71.884 430.480, 70.104 433.805 C 69.386 435.147, 69.471 436.240, 70.398 437.595 C 71.115 438.643, 71.987 441.654, 72.337 444.287 C 73.101 450.048, 71.773 451.016, 66.196 448.760 C 64.163 447.938, 59.800 446.509, 56.500 445.584 C 53.200 444.659, 48.475 443.207, 46 442.356 C 43.525 441.506, 39.475 440.489, 37 440.098 C 32.545 439.392, 28.901 437.878, 26 435.527 C 25.175 434.859, 21.125 433.091, 17 431.599 C 12.875 430.107, 7.839 427.744, 5.809 426.348 C 2.468 424.050, 0 423.856, -0 425.891 C -0 427.398, 9.745 432.947, 17.069 435.610 C 21.156 437.096, 25.175 438.859, 26 439.527 C 28.901 441.878, 32.545 443.392, 37 444.098 C 39.475 444.489, 43.525 445.506, 46 446.356 C 48.475 447.207, 53.200 448.659, 56.500 449.584 C 59.800 450.509, 64.163 451.938, 66.196 452.760 C 68.229 453.583, 70.569 453.996, 71.395 453.679 C 73.221 452.978, 73.479 453.764, 75.446 466 C 78.854 487.190, 97.457 524.957, 103.370 522.688 C 104.721 522.170, 104.052 520.614, 99.430 513.524 C 89.379 498.104, 83.905 484.277, 80.022 464.500 C 78.835 458.450, 77.418 451.250, 76.875 448.500 C 74.425 436.108, 76.247 395.519, 80.027 378.277 C 81.877 369.838, 87.093 352.011, 88.881 348.018 C 91.322 342.565, 90.918 335.606, 87.978 332.476 C 85.635 329.983, 80.682 329.088, 79.531 330.950 C 78.479 332.652, 59.071 319.625, 48.414 310.064 C 45.616 307.554, 40.768 303.475, 37.640 301 C 31.947 296.495, 16.358 279.436, 14.156 275.303 C 13.513 274.094, 11.302 271.062, 9.243 268.564 C 7.184 266.066, 4.562 262.815, 3.415 261.340 C 2.043 259.576, 1.088 259.049, 0.624 259.800 M 321.182 260.218 C 319.244 262.156, 319.782 262.999, 324.250 265.027 C 329.743 267.520, 331.473 267.482, 333.961 264.811 C 336.632 261.944, 336.658 259.656, 334.009 260.497 C 332.914 260.845, 331.497 260.807, 330.860 260.413 C 328.790 259.134, 322.395 259.005, 321.182 260.218 M 127 262.870 C 103.693 270.530, 94 283.535, 94 307.148 C 94 330.688, 105.267 348.324, 125.945 357.148 C 138.113 362.341, 138 362.459, 138 344.655 C 138 327.613, 138.148 327.198, 145.065 324.867 C 158.134 320.463, 160.362 297.621, 148.525 289.385 C 139.627 283.194, 139.582 283.067, 139.069 262.750 C 138.982 259.272, 137.917 259.282, 127 262.870 M 12.372 284.542 C 12.491 287.078, 11.893 288.691, 10.269 290.217 C 9.021 291.389, 8 293.485, 8 294.874 C 8 296.786, 8.281 297.119, 9.157 296.243 C 10.947 294.453, 16.522 298.666, 14.919 300.598 C 13.990 301.717, 14.138 302, 15.655 302 C 18.691 302, 22.237 299.015, 21.689 296.920 C 21.424 295.904, 21.833 294.553, 22.599 293.918 C 23.748 292.964, 23.099 291.732, 18.897 286.881 C 12.968 280.037, 12.146 279.743, 12.372 284.542 M 403.013 293.134 C 399.445 294.776, 395.732 296.837, 394.763 297.715 C 393.793 298.592, 393 298.981, 393 298.580 C 393 298.178, 390.413 299.276, 387.250 301.018 C 384.087 302.761, 379.164 305.475, 376.309 307.049 C 371.449 309.729, 370.432 309.905, 360.309 309.803 C 340.724 309.607, 315.560 321.406, 321.500 328 C 328.596 335.878, 330.162 336.264, 338.120 332.097 C 351.815 324.927, 362.050 324.171, 373.414 329.492 C 377.516 331.412, 381.123 333.390, 381.431 333.888 C 382.269 335.245, 389.822 339, 391.712 339 C 393.147 339, 402.595 333.190, 414 325.293 C 415.925 323.961, 421.601 320.125, 426.613 316.771 C 437.162 309.711, 437.262 309.260, 429.670 303.048 C 424.528 298.841, 411.042 289.933, 410.030 290.074 C 409.739 290.115, 406.581 291.492, 403.013 293.134 M 35.021 305.475 C 34.325 306.314, 33.102 307, 32.304 307 C 30.270 307, 31.082 309.984, 33.563 311.629 C 36.716 313.718, 40.905 308.129, 38.093 305.584 C 36.479 304.123, 36.152 304.112, 35.021 305.475 M 437.472 312.900 C 436.387 313.945, 431.203 317.690, 425.950 321.222 C 420.698 324.754, 415.073 328.564, 413.450 329.689 C 392.254 344.382, 390.323 344.982, 383.014 339.153 C 354.794 316.643, 312.797 340.308, 315.217 377.354 C 316.267 393.420, 329.348 411.610, 345.651 419.676 C 353.319 423.469, 353.492 423.503, 367.118 423.824 C 385.872 424.267, 387.393 423.141, 382.875 412.155 C 381.556 408.945, 381.614 408.723, 384.314 406.655 C 385.861 405.470, 389.236 402.683, 391.814 400.463 C 394.391 398.242, 399.875 393.747, 404 390.473 C 408.125 387.199, 414.946 381.590, 419.157 378.010 C 423.369 374.429, 433.214 366.100, 441.036 359.500 C 448.858 352.900, 456.632 346.327, 458.311 344.892 C 461.365 342.285, 461.365 342.285, 455.606 332.635 C 452.439 327.328, 447.857 320.653, 445.424 317.803 C 442.991 314.952, 441 312.255, 441 311.810 C 441 310.451, 439.548 310.900, 437.472 312.900 M 310.880 333.250 C 294.994 350.611, 290.785 384.681, 301.787 406.863 C 315.097 433.698, 342.931 453.995, 368.339 455.395 C 378.755 455.969, 399.236 453.889, 401.273 452.051 C 402.303 451.122, 399.735 445.448, 396.045 440.500 C 394.404 438.300, 392.133 434.700, 390.999 432.500 C 387.193 425.119, 386.550 424.594, 383.642 426.499 C 381.531 427.882, 378.846 428.100, 367.249 427.827 C 348.927 427.395, 342.387 424.502, 328.838 410.836 C 306.958 388.768, 305.188 367.208, 323.288 343.235 C 327.317 337.899, 327.317 337.899, 322.950 333.449 C 317.528 327.924, 315.780 327.895, 310.880 333.250 M 348.586 341.793 C 340.012 344.962, 329.214 355.830, 326.490 364.031 C 317.988 389.626, 346.745 421, 371.796 413.461 C 376.367 412.085, 381 408.563, 381 406.465 C 381 405.028, 368.290 385.573, 362.882 378.731 C 360.747 376.030, 359 373.358, 359 372.794 C 359 370.943, 370.198 359.543, 373.891 357.635 C 379.329 354.824, 382.179 351.921, 380.952 350.443 C 380.390 349.765, 380.018 348.826, 380.126 348.355 C 381.055 344.315, 375.814 339.226, 372.533 340.982 C 371.193 341.699, 369.333 341.941, 368.317 341.529 C 362.776 339.283, 355.098 339.385, 348.586 341.793 M 24.199 345.469 C 23.842 346.036, 23.684 347.314, 23.848 348.310 C 24.012 349.305, 23.584 350.797, 22.897 351.625 C 22.209 352.453, 21.542 354.113, 21.413 355.315 C 21.284 356.517, 20.967 358.400, 20.709 359.500 C 20.202 361.655, 24.427 367, 26.636 367 C 31.474 367, 36.786 348.926, 32.964 345.467 C 31.128 343.806, 25.244 343.807, 24.199 345.469 M 348.308 345.941 C 345.453 346.969, 342.664 348.089, 342.112 348.431 C 341.543 348.782, 343.282 351.961, 346.120 355.758 C 348.877 359.446, 352.086 364.159, 353.250 366.232 C 355.995 371.116, 355.799 371.182, 363.159 362.900 C 366.649 358.973, 371.435 354.801, 373.869 353.564 C 378.269 351.328, 378.269 351.328, 375.201 349.143 C 367.764 343.848, 357.514 342.627, 348.308 345.941 M 450.917 355.359 C 437.805 365.966, 434.739 369.187, 435.166 371.905 C 435.482 373.914, 435.765 373.833, 440.500 370.390 C 446.135 366.291, 458.928 360.008, 461.684 359.985 C 465.508 359.952, 466.026 358.736, 464.448 353.494 C 462.259 346.220, 462.205 346.228, 450.917 355.359 M 26.323 353.983 C 24.694 358.693, 24.505 360.308, 25.430 361.573 C 27.325 364.165, 29.093 361.066, 29.730 354.037 C 30.433 346.289, 28.990 346.266, 26.323 353.983 M 334.571 356.319 C 329.351 363.161, 327.696 372.935, 330.123 382.574 C 331.641 388.601, 331.937 388.636, 338.647 383.574 C 354.406 371.683, 354.241 372.415, 344.252 358.793 C 339.345 352.101, 338.042 351.768, 334.571 356.319 M 66.527 357.982 C 64.900 359.050, 62.121 359.868, 60.352 359.802 C 56.137 359.644, 51.854 362.406, 52.679 364.752 C 56.061 374.375, 67.774 373.203, 72.078 362.811 C 74.038 358.080, 70.745 355.215, 66.527 357.982 M 65.505 362.571 C 64.408 363.400, 62.608 364.011, 61.505 363.929 C 57.051 363.595, 56.590 363.890, 58.411 365.902 C 59.358 366.948, 60.890 367.657, 61.816 367.478 C 62.742 367.299, 64.051 367.119, 64.724 367.077 C 66.039 366.994, 69.573 360.979, 68.276 361.032 C 67.849 361.049, 66.602 361.742, 65.505 362.571 M 142.622 366.129 C 140.696 368.879, 140.490 372.913, 142.250 373.430 C 142.938 373.632, 146.636 374.524, 150.468 375.413 C 162.952 378.307, 182 390.542, 182 395.666 C 182 398.237, 185.206 398.811, 188.549 396.839 C 192.339 394.602, 191.747 389.375, 187.379 386.513 C 186.120 385.688, 182.261 382.489, 178.804 379.404 C 171.311 372.718, 167.147 370.451, 156.500 367.258 C 144.083 363.535, 144.420 363.563, 142.622 366.129 M 463.756 367.462 C 444.016 371.783, 423.599 392.279, 420.118 411.270 C 412.458 453.061, 430.280 483.517, 466.746 490.948 C 504.067 498.554, 541.057 469.853, 540.984 433.346 C 540.892 387.316, 506.622 358.080, 463.756 367.462 M 463.756 371.462 C 444.679 375.638, 427.484 392.906, 424.118 411.270 C 416.571 452.445, 432.019 479.871, 466.746 486.948 C 503.463 494.431, 537.055 468.795, 536.984 433.346 C 536.895 388.463, 505.869 362.244, 463.756 371.462 M 422.500 379.101 C 418.650 382.452, 411 388.811, 405.500 393.230 C 400 397.650, 394.140 402.668, 392.479 404.383 C 390.817 406.097, 388.567 408, 387.479 408.610 C 385.558 409.687, 385.551 409.828, 387.250 413.394 C 388.212 415.415, 389 418.317, 389 419.843 C 389 422.918, 391.418 426.916, 392.576 425.757 C 393.856 424.478, 396.162 427.100, 394.995 428.506 C 394.252 429.401, 394.975 431.246, 397.588 435.124 C 399.581 438.081, 402.311 442.666, 403.655 445.314 C 408.158 454.185, 409.132 451.924, 409.388 432 C 409.693 408.307, 414.298 394.580, 425.995 382.500 C 429.626 378.750, 432.270 372.996, 430.358 373.003 C 429.886 373.005, 426.350 375.749, 422.500 379.101 M 346.918 381.061 C 342.288 384.932, 337.301 388.825, 335.835 389.714 C 328.820 393.969, 347.111 409.269, 360.412 410.274 C 368.030 410.849, 377 408.860, 377 406.594 C 377 405.036, 361.696 381.548, 359.996 380.498 C 359.359 380.104, 358.050 378.486, 357.087 376.903 C 355.337 374.025, 355.337 374.025, 346.918 381.061 M 139.787 378.821 C 138.549 379.312, 138.336 379.917, 139.021 381 C 139.543 381.825, 139.976 388.834, 139.985 396.576 C 140.002 412.325, 139.885 412.607, 131.795 416.254 C 121.687 420.812, 121.603 439.912, 131.664 446.304 C 139.323 451.169, 139.450 451.510, 139.858 468.222 C 140.224 483.244, 140.224 483.244, 147.982 482.795 C 172.783 481.359, 188.484 459.807, 186.685 429.669 C 184.940 400.437, 173.639 384.892, 150.303 379.625 C 142.423 377.846, 142.272 377.834, 139.787 378.821 M 124.318 380.962 C 120.675 381.829, 113.023 385.688, 107.463 389.460 C 104.178 391.690, 97.056 401.549, 96.599 404.500 C 96.513 405.050, 96.179 405.950, 95.856 406.500 C 84.882 425.162, 92.940 459.052, 111.090 470.572 C 117.070 474.367, 130.575 480, 133.695 480 C 137.137 480, 136.986 453.564, 133.532 451.588 C 116.224 441.683, 116.215 415.749, 133.518 411.406 C 136 410.783, 136 410.783, 136 396.973 C 136 378.695, 135.681 378.257, 124.318 380.962 M 191.500 399.184 C 184.745 402.764, 184.990 401.972, 187.785 411.187 C 191.124 422.195, 191.574 444.482, 188.619 452.453 C 186.783 457.406, 186.783 457.406, 189.002 459.203 C 193.897 463.167, 195.329 461.260, 199.078 445.785 C 200.982 437.921, 199.763 412.793, 197.124 405.527 C 194.509 398.327, 194.064 397.826, 191.500 399.184 M 469.615 402.472 C 453.671 408.155, 448.763 430.890, 460.793 443.335 C 477.404 460.518, 502.029 449.932, 501.990 425.624 C 501.962 407.746, 486.281 396.532, 469.615 402.472 M 469.684 406.449 C 454.399 411.900, 453.566 437.632, 468.428 445.217 C 484.220 453.277, 498 444.123, 498 425.571 C 498 409.414, 485.340 400.865, 469.684 406.449 M 183.195 464.082 C 175.372 477.676, 162.658 485.831, 147.834 486.765 C 139.409 487.295, 139.043 487.631, 139.014 494.867 C 139 498.235, 139 498.235, 146.750 497.526 C 170.414 495.362, 182.013 488.711, 190.769 472.282 C 194.439 465.396, 194.537 465, 192.577 465 C 191.794 465, 189.867 463.918, 188.295 462.594 C 185.436 460.189, 185.436 460.189, 183.195 464.082 M 446.717 498.100 C 450.383 504.309, 452.724 505.720, 455.219 503.225 C 457.773 500.672, 458.029 500.986, 450.717 497.689 C 444.935 495.081, 444.935 495.081, 446.717 498.100" stroke="none" fill="#1A1A1A" fill-rule="evenodd"/>
</svg>