<svg xmlns="http://www.w3.org/2000/svg" viewBox="0 0 600 609" version="1.1" preserveAspectRatio="xMidYMid meet">
	<path d="M 98.430 1.113 C 98.027 1.766, 107.496 12.007, 121.316 25.863 C 144.889 49.500, 144.889 49.500, 131.195 63.532 C 111.147 84.075, 26.539 171.236, 12.098 186.224 C 4.062 194.563, 0.038 199.438, 0.668 200.068 C 1.298 200.698, 16.755 185.472, 44.570 156.822 C 68.182 132.502, 98.300 101.489, 111.500 87.904 C 124.700 74.319, 149.586 49.366, 166.801 32.453 C 188.721 10.919, 197.787 1.387, 197.049 0.649 C 196.312 -0.088, 188.828 6.724, 172.081 23.378 C 151.654 43.691, 147.899 47.013, 146.333 46.159 C 145.325 45.609, 134.417 34.998, 122.093 22.579 C 109.770 10.161, 99.559 0, 99.402 0 C 99.246 0, 98.808 0.501, 98.430 1.113 M 383.694 0.639 C 382.036 2.298, 384.861 3, 393.187 3 C 404.795 3, 390.205 -11.014, 542.908 146.815 C 580.716 185.893, 598.641 203.759, 599.340 203.060 C 600.039 202.361, 596.726 198.298, 588.911 190.268 C 582.612 183.796, 544.568 144.525, 504.370 103 C 392.065 -13.013, 405.970 0, 394.301 0 C 388.819 0, 384.046 0.288, 383.694 0.639 M 533.431 278.246 C 497.719 314.168, 431.406 380.985, 386.069 426.728 C 333.388 479.880, 303.196 509.645, 302.412 509.198 C 301.738 508.814, 281.672 489.375, 257.821 466 C 233.970 442.625, 192.432 402.125, 165.515 376 C 138.597 349.875, 109.583 321.501, 101.037 312.946 C 43.394 255.242, 1.762 214.838, 0.868 215.732 C 0.028 216.572, 38.174 255.159, 84.250 300.075 C 87.962 303.694, 91 307.216, 91 307.902 C 91 308.588, 72.213 328.253, 49.250 351.602 C 3.309 398.316, -0.496 402.389, 0.420 403.870 C 0.764 404.427, 12.611 393.097, 26.746 378.692 C 100.528 303.499, 92.715 309.553, 103.170 319.473 C 108.302 324.342, 130.050 345.445, 151.500 366.369 C 172.950 387.293, 198.843 412.532, 209.041 422.456 C 219.238 432.380, 244.202 456.700, 264.515 476.500 C 295.254 506.462, 362.021 571.503, 393.237 601.894 C 398.339 606.862, 401.310 609.090, 401.963 608.437 C 402.615 607.785, 386.597 591.500, 354.921 560.610 C 322.443 528.939, 306.989 513.211, 307.195 512.036 C 307.626 509.580, 401.145 415.012, 403.150 415.006 C 405.020 414.999, 534 545.706, 534 547.607 C 534 548.285, 520.503 562.018, 504.007 578.126 C 484.251 597.417, 474.351 607.751, 475.002 608.402 C 475.653 609.053, 479.490 605.988, 486.245 599.424 C 524.691 562.062, 536.291 551, 537.024 551 C 539.303 551, 552.986 566.479, 551.262 567.108 C 550.293 567.461, 549.213 567.586, 548.863 567.386 C 546.813 566.214, 545.843 570.149, 547.383 573.395 C 548.272 575.269, 549 577.019, 549 577.284 C 549 578.198, 545.001 578.811, 544.485 577.976 C 543.673 576.661, 539.058 577.513, 537.262 579.309 C 535.758 580.814, 535.769 581.087, 537.409 582.900 C 538.386 583.979, 539.931 586.355, 540.843 588.181 C 541.754 590.006, 542.900 591.349, 543.388 591.165 C 544.274 590.830, 545.956 592.828, 545.985 594.250 C 545.993 594.663, 545.380 595, 544.622 595 C 543.865 595, 542.734 595.615, 542.110 596.367 C 540.430 598.392, 543.506 600.790, 545.881 599.307 C 547.763 598.131, 551 599.746, 551 601.860 C 551 603.102, 550.904 603.137, 546.500 603.523 C 544.850 603.667, 543.275 603.887, 543 604.011 C 542.725 604.135, 542.206 604.198, 541.846 604.150 C 541.486 604.103, 540.660 604.705, 540.010 605.488 C 538.133 607.750, 539.837 609.289, 543.371 608.525 C 545.092 608.152, 547.850 607.615, 549.500 607.330 C 553.711 606.603, 555.233 605.044, 554.776 601.928 C 554.521 600.191, 554.962 598.880, 556.024 598.217 C 557.151 597.513, 557.701 595.669, 557.775 592.346 C 557.895 586.949, 558.213 585.049, 559.281 583.340 C 559.680 582.702, 559.754 581.523, 559.446 580.719 C 559.118 579.864, 559.635 578.973, 560.693 578.570 C 562.132 578.022, 562.248 578.135, 561.264 579.127 C 559.845 580.556, 562.245 584, 564.659 584 C 567.901 584, 573.743 588.478, 582.209 597.451 C 591.548 607.349, 594.304 609.548, 596.033 608.480 C 597.916 607.316, 598.596 608.023, 463 470.214 C 432.475 439.191, 407.370 413.260, 407.212 412.588 C 406.911 411.312, 435.528 382.197, 539.267 278.235 C 594.822 222.560, 601.238 215.809, 599.880 214.452 C 598.523 213.095, 591.490 219.847, 533.431 278.246" stroke="none" fill="#1A1A1A" fill-rule="evenodd"/>
</svg>