<svg xmlns="http://www.w3.org/2000/svg" viewBox="0 0 600 359" version="1.1" preserveAspectRatio="xMidYMid meet">
	<path d="M 368.654 3.994 C 364.338 6.142, 357.138 9.114, 352.654 10.598 C 348.169 12.082, 340.450 15.080, 335.500 17.261 C 329.090 20.084, 324.917 21.282, 321 21.422 C 317.975 21.530, 313.665 21.705, 311.421 21.810 C 308.823 21.931, 305.729 23.069, 302.896 24.945 C 300.450 26.565, 296.211 28.375, 293.475 28.966 C 288.332 30.078, 283.250 31.616, 267 36.978 C 261.775 38.702, 252.550 41.409, 246.500 42.994 C 240.450 44.579, 232.940 47.099, 229.811 48.593 C 224.387 51.183, 224.004 51.232, 221.596 49.655 C 218.265 47.472, 215.704 47.564, 213.551 49.943 C 212.584 51.012, 210.456 52.180, 208.822 52.539 C 207.188 52.898, 204.422 54.436, 202.676 55.957 C 194.148 63.384, 185.252 63.736, 160.500 57.629 C 157.200 56.815, 147.773 55.635, 139.551 55.007 C 131.329 54.379, 122.779 53.486, 120.551 53.022 C 99.820 48.707, 90.793 47.002, 80.500 45.457 C 73.900 44.466, 64.933 42.608, 60.574 41.328 C 56.214 40.048, 50.720 39, 48.364 39 C 46.008 39, 39.675 37.905, 34.290 36.567 C 28.906 35.229, 20.669 33.683, 15.987 33.132 C 11.304 32.581, 6.204 31.648, 4.653 31.058 C 1.759 29.958, -0 30.356, -0 32.110 C 0 33.873, 6.938 36.066, 15.827 37.113 C 20.597 37.674, 28.906 39.229, 34.290 40.567 C 39.675 41.905, 45.945 43, 48.224 43 C 52.377 43, 64.432 45.902, 63.626 46.707 C 63.390 46.943, 60.821 46.430, 57.917 45.568 C 55.013 44.706, 50.677 44, 48.282 44 C 45.887 44, 38.881 42.910, 32.713 41.578 C 26.546 40.245, 17.675 38.883, 13 38.550 C 8.325 38.217, 3.648 37.845, 2.608 37.722 C -0.018 37.414, -0.545 39.638, 1.850 40.920 C 2.934 41.500, 7.799 42.240, 12.661 42.565 C 17.522 42.890, 26.546 44.245, 32.713 45.578 C 38.881 46.910, 45.802 48, 48.093 48 C 50.385 48, 55.689 48.875, 59.880 49.945 C 78.481 54.694, 112.306 61.357, 128.711 63.504 C 135.195 64.353, 145.895 66.161, 152.489 67.523 C 165.387 70.188, 186.180 70.956, 192.939 69.017 C 195.455 68.296, 196.069 68.331, 195.252 69.148 C 194.640 69.760, 189.945 70.636, 184.820 71.094 C 169.825 72.434, 163.281 74.477, 154.165 80.663 C 150.175 83.370, 146.791 83.658, 144.955 81.445 C 141.556 77.350, 135 78.768, 135 83.598 C 135 85.640, 129.965 91, 128.046 91 C 127.069 91, 125.197 90.177, 123.885 89.170 C 120.169 86.319, 118.310 85.972, 114.739 87.465 C 112.918 88.225, 107.072 89.168, 101.747 89.559 C 94.178 90.114, 91.698 90.676, 90.378 92.135 C 88.195 94.547, 84.871 94.501, 80.774 92.004 C 75.928 89.049, 71.027 89.402, 66.454 93.037 C 64.274 94.769, 61.984 95.824, 61.121 95.493 C 60.289 95.174, 57.335 94.215, 54.555 93.362 C 51.775 92.509, 47.349 90.936, 44.720 89.865 C 42.091 88.795, 39.601 88.128, 39.187 88.384 C 37.567 89.385, 28.346 86.612, 25.579 84.291 C 23.159 82.261, 22.045 81.965, 19.079 82.561 C 17.111 82.957, 14.024 83.203, 12.220 83.107 C 6.433 82.800, -2.132 87.564, 0.870 89.419 C 1.348 89.715, 1.389 91.875, 0.960 94.220 C 0.531 96.564, 0.409 98.853, 0.689 99.306 C 1.618 100.809, 5 96.735, 5.015 94.095 C 5.040 89.938, 6.343 88.773, 10.620 89.089 C 12.754 89.247, 16.166 89.020, 18.202 88.585 C 21.239 87.937, 22.470 88.198, 25.054 90.039 C 27.372 91.689, 30.092 92.408, 35.352 92.760 C 39.851 93.061, 43.656 93.935, 45.618 95.119 C 47.333 96.153, 49.860 97, 51.233 97 C 52.607 97, 54.874 97.900, 56.273 99 C 59.970 101.909, 63.236 101.480, 68.056 97.454 C 72.754 93.528, 75.427 93.460, 81.417 97.112 C 85.413 99.549, 87.112 99.487, 90.557 96.776 C 92.425 95.307, 94.931 94.498, 97.942 94.392 C 102.697 94.225, 114.023 92.548, 117.536 91.491 C 118.934 91.071, 120.780 91.838, 123.424 93.939 C 125.542 95.623, 127.673 97, 128.160 97 C 129.846 97, 137.784 88.936, 139.010 85.977 L 140.241 83.004 143.655 86.002 C 147.928 89.754, 149.657 89.755, 154.827 86.010 C 158.632 83.254, 166.817 80.484, 167.915 81.581 C 168.173 81.839, 167.809 83.640, 167.106 85.583 C 166.280 87.867, 166.073 90.898, 166.521 94.156 C 167.187 98.993, 167.069 99.345, 163.585 102.913 C 160.919 105.643, 159.998 107.410, 160.119 109.565 C 160.209 111.179, 160.219 113.240, 160.141 114.143 C 160 115.788, 149.004 122.671, 137.500 128.317 C 130.013 131.991, 127.917 133.886, 123.788 140.715 C 120.214 146.626, 120.955 146.407, 111.241 144.433 C 105.258 143.217, 103.150 147.593, 107.068 153.096 L 109.136 156 106.934 156 C 105.723 156, 103.070 155.502, 101.038 154.893 C 95.439 153.216, 88.233 155.531, 85.243 159.967 C 81.206 165.958, 76.487 168.640, 72.695 167.097 C 65.778 164.283, 65.464 164.376, 58.359 171.308 C 52.133 177.384, 51.677 178.124, 51.826 181.920 C 51.934 184.678, 51.565 186, 50.689 186 C 46.117 186, 40.888 196.695, 43.737 200.215 C 45.878 202.860, 46.376 213.927, 44.450 216.056 C 40.520 220.398, 38 218.678, 38 211.655 C 38 201.781, 33.952 199.981, 17.347 202.471 C 14.167 202.947, 11.437 202.639, 8.045 201.419 C 3.291 199.709, 0 199.947, 0 202 C 0 202.585, 0.563 203.211, 1.250 203.392 C 1.938 203.573, 4.871 204.507, 7.770 205.468 C 11.052 206.556, 14.447 206.998, 16.770 206.641 L 20.500 206.066 16.692 207.891 C 8.744 211.699, 10.064 215.070, 20.349 217.228 C 29.254 219.095, 36.368 213.379, 31.639 208.154 C 30.004 206.347, 30.834 205, 33.582 205 C 33.812 205, 34 207.847, 34 211.326 C 34 221.846, 39.610 225.063, 46.547 218.520 L 50.237 215.040 49.520 208.270 C 49.126 204.547, 48.467 201.050, 48.057 200.500 C 45.687 197.325, 45.925 195.581, 48.410 197.915 C 49.796 199.218, 52.238 200.332, 53.836 200.392 C 55.478 200.453, 56.561 200.972, 56.327 201.585 C 56.099 202.182, 56.768 203.727, 57.814 205.019 C 59.669 207.309, 60.073 207.362, 73.984 207.117 L 88.252 206.867 91.079 209.576 L 93.907 212.285 90.855 215.136 L 87.803 217.987 91.994 222.993 C 94.300 225.747, 96.804 228, 97.559 228 C 98.625 228, 98.516 228.729, 97.077 231.250 C 96.056 233.037, 94.907 236.292, 94.522 238.482 C 93.082 246.680, 91.809 247.136, 90.309 239.991 C 89.560 236.421, 89.195 232.087, 89.498 230.360 C 90.404 225.201, 85.296 221.572, 78.289 222.396 C 75.242 222.754, 73 222.622, 73 222.085 C 73 220.303, 67.811 215, 66.066 215 C 61.687 215, 60.675 218.548, 64.205 221.519 L 67.495 224.288 64.551 226.394 C 62.931 227.552, 59.761 230.161, 57.506 232.190 C 53.593 235.712, 53.351 235.792, 52.195 233.940 C 50.588 231.368, 45.992 231.432, 42.635 234.073 C 39.334 236.669, 39.270 239.965, 42.461 242.964 C 44.187 244.585, 44.677 245.758, 44.101 246.888 C 43.649 247.775, 43.215 250.567, 43.138 253.093 C 42.834 262.922, 49.925 263.313, 54.999 253.747 C 57.992 248.105, 61.707 246.090, 65.731 247.923 C 70.250 249.982, 76 255.080, 76 257.027 C 76 262.311, 94.497 264.225, 103.982 259.923 C 106.588 258.741, 108.604 258.311, 108.798 258.895 C 111.113 265.840, 121 267.258, 121 260.645 C 121 258.760, 121.070 258.754, 122.981 260.483 C 127.180 264.283, 129.707 258.506, 125.750 254.154 C 124.093 252.332, 123.937 251.836, 125.156 252.272 C 127.481 253.104, 130 249.955, 130 246.217 L 130 243.091 132.455 245.545 C 133.805 246.895, 135.380 248, 135.955 248 C 136.530 248, 137 249.619, 137 251.599 C 137 260.183, 143.264 266.980, 147.505 262.996 L 149.935 260.713 148.739 263.882 C 147.459 267.270, 148.193 269.458, 151.258 271.391 C 153.431 272.762, 156.563 269.934, 157.376 265.868 C 157.710 264.201, 158.886 261.689, 159.991 260.284 L 162 257.730 162 260.243 C 162 261.625, 161.372 263.276, 160.605 263.913 C 159.837 264.550, 158.910 266.743, 158.544 268.786 C 158.178 270.829, 157.385 273.911, 156.780 275.635 L 155.681 278.770 150.233 272.885 C 144.306 266.484, 143.915 266.357, 136.218 268.354 C 131.887 269.477, 131 269.481, 131 268.377 C 131 264.849, 126.519 263.800, 120.494 265.918 C 114.788 267.923, 114.769 267.923, 110.890 265.944 C 106.254 263.579, 102.588 264.173, 100.303 267.660 C 97.057 272.614, 105.893 277.269, 112.167 273.910 C 113.843 273.014, 114.673 273.260, 116.852 275.298 C 120.992 279.171, 123.529 279.513, 127.140 276.688 L 130.270 274.238 133.092 277.453 C 136.755 281.624, 137.183 286.681, 134.194 290.481 C 130.409 295.292, 133.049 302, 138.727 302 C 143.433 302, 156 289.168, 156 284.363 C 156 282.955, 156.553 283.155, 158.915 285.419 C 162.347 288.707, 167.212 287.894, 172.250 283.192 C 175.677 279.994, 175.690 278.479, 172.332 273.538 C 170.248 270.471, 169.975 269.510, 171.082 269.145 C 173.552 268.332, 179 262.275, 178.994 260.350 C 178.990 259.332, 178.290 257.150, 177.437 255.500 C 176.003 252.725, 176.009 252.621, 177.520 254.112 C 180.725 257.276, 180.540 263.060, 177.095 267.388 C 173.365 272.073, 173.388 271.635, 176.610 276.377 C 180.953 282.768, 178.188 285.754, 164.500 289.459 C 156.666 291.579, 154.126 292.918, 151.670 296.226 C 147.076 302.412, 155.147 304.497, 169.468 300.823 C 171.651 300.263, 179.076 299.857, 185.968 299.920 C 198.794 300.036, 205 298.381, 205 294.843 C 205 291.609, 208.158 289.974, 210.003 292.252 C 211.522 294.128, 212.113 294.269, 214.287 293.279 C 216.390 292.321, 217.079 292.429, 218.440 293.933 C 219.973 295.628, 219.927 295.709, 217.673 295.278 C 210.135 293.837, 200.094 314.151, 206.223 318.443 C 210.454 321.407, 218.164 317.621, 223.966 309.731 C 227.717 304.631, 227.724 303.894, 224.056 299.716 L 221.111 296.363 223.974 296.783 C 226.420 297.142, 227.233 296.605, 229.551 293.102 C 232.523 288.611, 232.672 288.545, 236.509 290.003 C 238.804 290.876, 239.547 290.607, 242.217 287.936 L 245.287 284.866 244.672 276.183 C 244.333 271.407, 243.757 266.375, 243.392 265 C 242.846 262.943, 242.965 262.721, 244.064 263.750 C 246.054 265.612, 246.156 265.542, 252.141 258.250 C 259.281 249.552, 260.492 247.298, 258.996 245.496 C 257.483 243.672, 255.332 244.533, 250.514 248.893 C 245.140 253.755, 248.681 249.449, 258.848 238.756 C 265.722 231.527, 266.187 230.759, 265.847 227.191 C 265.520 223.768, 265.701 223.411, 267.572 223.769 C 268.721 223.989, 271.360 223.458, 273.437 222.591 C 278.126 220.631, 278.592 220.919, 279.303 226.220 C 279.925 230.859, 282.755 233.913, 288.875 236.549 C 290.731 237.348, 294.032 240.027, 296.210 242.501 C 300.583 247.469, 301.476 247.784, 304.204 245.315 C 305.976 243.712, 306.272 243.864, 310.289 248.429 L 314.511 253.227 321.822 253.116 C 328.166 253.019, 329.695 252.618, 333.380 250.083 C 339.004 246.213, 342.997 245.622, 351.940 247.337 C 357.134 248.333, 360.222 248.470, 362.169 247.791 C 366.740 246.198, 367.122 247.237, 363.823 252.301 C 361.640 255.653, 360.569 258.672, 360.273 262.301 C 359.633 270.155, 359.335 270.655, 356.724 268.255 C 353.469 265.263, 346.818 264.382, 344.953 266.696 C 342.232 270.074, 341 272.968, 341 275.986 C 341 279.364, 338.240 280.200, 336 277.500 C 335.315 276.675, 333.348 275.953, 331.628 275.897 L 328.500 275.793 332.146 274.822 C 338.847 273.037, 344.169 262.234, 340.121 258.635 C 338.453 257.152, 328.291 258.669, 323.764 261.077 C 320.847 262.627, 318 262.182, 318 260.174 C 318 258.223, 314.090 254, 312.283 254 C 311.684 254, 309.829 252.313, 308.160 250.250 C 305.606 247.093, 304.839 246.675, 303.313 247.607 C 300.426 249.370, 300.612 251.793, 303.921 255.563 C 305.615 257.492, 307 259.691, 307 260.451 C 307 261.211, 308.130 262.658, 309.510 263.667 C 311.840 265.368, 311.931 265.736, 310.781 268.775 C 309.352 272.553, 310.276 274.769, 314.098 276.735 C 316.241 277.837, 316.284 277.971, 314.500 277.974 C 307.907 277.987, 304.836 276.613, 299.828 271.414 C 297.012 268.490, 294.436 266.129, 294.104 266.167 C 293.772 266.205, 293.163 266.127, 292.750 265.993 C 292.337 265.860, 291.663 265.690, 291.250 265.618 C 289.782 265.359, 286.022 262.312, 286.536 261.798 C 287.367 260.966, 281.358 255, 279.689 255 C 277.465 255, 268.192 262.638, 265.948 266.317 C 264.881 268.068, 264.006 269.004, 264.004 268.398 C 263.995 265.872, 269.001 260.166, 275.528 255.262 C 283.587 249.207, 284.345 247.192, 280.147 242.993 C 276.388 239.234, 273.785 239.204, 270.822 242.888 C 269.545 244.477, 265.490 248.306, 261.811 251.399 C 249.086 262.095, 244.035 279.202, 249.329 293.670 C 250.168 295.963, 250.606 298.791, 250.302 299.953 C 249.969 301.228, 250.455 302.846, 251.530 304.033 C 252.999 305.657, 253.048 306, 251.810 306 C 250.985 306, 249.492 306.904, 248.493 308.008 C 246.906 309.761, 246.474 309.835, 245.088 308.592 C 242.341 306.128, 232.733 310.233, 229.639 315.191 C 228.001 317.818, 231.519 321.328, 234.299 319.840 C 236.282 318.779, 236.278 318.832, 234.173 321.507 C 232.978 323.026, 232 324.823, 232 325.500 C 232 327.655, 236.073 332, 238.092 332 C 242.110 332, 252.608 324.140, 256.123 318.500 L 257.993 315.500 257.996 318.076 C 258.002 322.330, 262.156 325.419, 266.711 324.556 C 268.795 324.161, 274.194 323.499, 278.708 323.085 C 286.472 322.372, 287.155 322.112, 291.312 318.280 C 295.811 314.133, 301.964 312, 309.427 312 C 311.257 312, 313.315 311.325, 314 310.500 C 315.693 308.460, 319.631 308.650, 324.859 311.022 C 330.310 313.495, 331.558 313.493, 334.727 311 C 336.340 309.731, 338.784 309, 341.412 309 C 343.691 309, 346.568 308.291, 347.805 307.424 C 349.907 305.951, 350.175 305.994, 351.859 308.074 C 354.168 310.925, 357.565 310.199, 362.600 305.778 C 369.763 299.489, 372.912 291.832, 369.500 289 C 366.828 286.782, 367.914 285.787, 370.654 287.943 C 373.891 290.489, 376.172 289.039, 378.094 283.215 C 381.707 272.267, 385.979 264.974, 390.669 261.746 C 398.317 256.482, 403 251.910, 403 249.709 C 403 247.707, 403.068 247.715, 405.490 249.990 C 407.907 252.261, 408.038 252.276, 409.990 250.509 C 412.650 248.102, 412.657 250.349, 410 253.727 C 408.900 255.126, 408 256.962, 408 257.809 C 408 258.988, 407.426 258.809, 405.551 257.048 C 402.592 254.268, 400.694 254.814, 398.009 259.216 C 392.968 267.486, 398.879 278.700, 405.421 273.277 C 406.565 272.329, 406.938 272.194, 406.250 272.977 C 402.669 277.054, 408.108 285.787, 416.671 289.707 L 422.202 292.239 424.851 290.274 C 429.541 286.794, 429.887 282.059, 425.906 275.850 C 421.794 269.436, 421.431 263.126, 424.447 250.476 L 426.360 242.451 428.697 244.788 C 430.034 246.125, 431.775 246.916, 432.767 246.638 C 437.146 245.409, 461.642 244.894, 464.451 245.971 C 468.489 247.520, 485.343 243.436, 492 239.295 C 493.854 238.142, 493.546 238.743, 490.810 241.620 C 486.613 246.032, 484.483 250.563, 486.128 251.579 C 486.737 251.956, 485.672 253.470, 483.589 255.187 C 481.615 256.814, 480 258.978, 480 259.996 C 480 261.571, 479.586 261.432, 477.208 259.055 C 471.329 253.175, 457.252 251.234, 452.077 255.589 C 448.114 258.923, 448.201 260.707, 452.578 265.820 L 456.156 270 465.443 270 C 475.157 270, 480 268.122, 480 264.355 C 480 263.166, 480.547 263.285, 482.635 264.927 C 484.084 266.067, 485.939 267, 486.757 267 C 487.888 267, 487.978 267.322, 487.131 268.342 C 486.519 269.080, 486.221 269.888, 486.470 270.137 C 486.719 270.386, 485.439 270.416, 483.626 270.205 C 480.907 269.887, 479.863 270.374, 477.665 272.987 C 475.044 276.101, 474.620 277.440, 474.939 281.584 C 475.244 285.547, 469.017 293.454, 467.510 291.017 C 466.713 289.727, 452.724 290.876, 447.624 292.651 C 445.493 293.393, 442.713 294, 441.447 294 C 436.429 294, 433.568 300.847, 437.041 304.544 L 439.082 306.716 436.496 308.410 C 435.074 309.342, 433.541 311.094, 433.089 312.302 C 430.845 318.304, 430.894 318.684, 434.473 322.968 C 438.288 327.534, 438.852 330.048, 436.500 332 C 435.253 333.035, 435 332.913, 435 331.277 C 435 327.068, 423.190 322.179, 416.192 323.492 C 412.520 324.181, 403 332.877, 403 335.542 C 403 336.317, 401.425 338.385, 399.500 340.136 C 396.046 343.280, 395.034 346.285, 397.018 347.511 C 398.239 348.266, 390.725 352.403, 385.040 354.106 C 380.195 355.558, 377.978 357.671, 380.346 358.579 C 382.229 359.302, 388.315 357.472, 392.588 354.898 C 395.198 353.325, 396.924 353.134, 403.755 353.661 C 410.033 354.145, 412.749 353.918, 415.937 352.642 C 421.805 350.294, 422.691 350.535, 423.688 354.750 C 424.846 359.645, 427.568 359.913, 427.337 355.110 C 427.234 352.950, 426.234 350.779, 424.582 349.127 L 421.989 346.534 417.110 348.267 C 411.066 350.414, 408.760 350.496, 411.441 348.468 C 412.509 347.661, 414.616 347, 416.123 347 C 418.027 347, 419.516 346.084, 421 344 C 422.629 341.712, 423.913 341, 426.413 341 C 428.427 341, 430.392 340.224, 431.511 338.988 C 433.322 336.987, 433.341 336.993, 434.812 340.031 C 436.219 342.936, 436.161 343.222, 433.646 345.848 C 427.466 352.298, 433.367 359.850, 441.043 355.315 C 443.387 353.931, 444.358 353.842, 446.494 354.815 C 450.493 356.637, 459.897 356.230, 464.756 354.024 C 468.613 352.274, 469.385 352.224, 472.999 353.500 C 476.986 354.906, 476.987 354.906, 481.556 350.952 C 486.314 346.833, 487.887 346.748, 490.955 350.445 C 492.410 352.199, 496.553 352.533, 497.516 350.974 C 497.898 350.357, 499.345 350.954, 501.152 352.474 C 505.038 355.744, 505.995 355.662, 509.617 351.750 C 516.886 343.900, 516.273 333, 508.563 333 C 507.175 333, 507.011 332.692, 507.855 331.674 C 508.706 330.649, 507.745 329.201, 503.618 325.289 C 496.130 318.192, 487.214 316.784, 482.851 322.009 C 480.943 324.295, 479.618 325.067, 478.404 324.601 C 477.257 324.162, 475.718 324.854, 473.837 326.656 C 470.641 329.718, 470.326 331.593, 472.489 334.681 C 473.951 336.768, 473.900 336.796, 469.739 336.240 C 467.408 335.929, 463.866 334.943, 461.868 334.050 L 458.236 332.426 460.118 330.102 C 462.770 326.828, 462.505 321.156, 459.446 315.682 C 456.163 309.808, 450.360 304.621, 448.141 305.576 C 444.804 307.013, 440.252 307.262, 442.459 305.887 C 444.240 304.778, 447.675 304.220, 453.715 304.059 C 454.934 304.027, 457.533 302.593, 459.491 300.873 L 463.052 297.747 461.317 300.770 C 456.555 309.067, 471.228 307.896, 480.250 299.259 L 483 296.626 483 299.158 C 483 303.744, 485.953 305.205, 495.705 305.443 C 500.542 305.562, 510.202 306.188, 517.170 306.835 C 525.626 307.620, 530.699 307.685, 532.420 307.030 C 534.386 306.283, 535 306.364, 535 307.370 C 535 312.016, 542.079 313.257, 546.178 309.329 C 548.803 306.815, 549.073 306.756, 550.812 308.329 C 553.064 310.368, 556.723 310.468, 560.596 308.598 C 565.458 306.250, 588.010 305.437, 591.937 307.468 C 595.661 309.393, 599.500 309.156, 599.500 307 C 599.500 306.091, 598.369 305.371, 596.631 305.172 L 593.762 304.844 597.050 302.100 C 601.496 298.388, 600.209 296.504, 595.128 299.287 L 591.267 301.402 587.883 298.559 C 586.022 296.995, 583.531 294.292, 582.347 292.553 C 579.020 287.668, 572.834 285.223, 569.434 287.451 C 562.132 292.236, 547.927 294.873, 549.965 291.066 C 551.773 287.687, 551.095 283.822, 547.790 278.672 C 543.108 271.377, 544.133 262.206, 550.688 252.734 C 552.902 249.535, 553.280 247.954, 553.196 242.234 C 553.118 236.860, 553.317 235.904, 554.185 237.500 C 559.170 246.665, 571.233 248.523, 572.181 240.272 C 572.637 236.305, 580.075 236.021, 580.674 239.948 C 581.586 245.921, 587.236 249.097, 590.852 245.667 C 592.308 244.285, 594.850 243.007, 596.500 242.827 C 600.681 242.371, 600.503 239.597, 596.267 239.188 C 593.874 238.957, 592.376 239.533, 590.506 241.403 C 588.042 243.867, 585.079 243.995, 584.926 241.643 C 584.885 241.014, 584.654 239.430, 584.412 238.121 C 583.983 235.796, 584.091 235.758, 589.237 236.425 C 598.387 237.612, 599.500 237.578, 599.500 236.110 C 599.500 231.414, 575.260 230.071, 567.167 234.318 C 560.089 238.034, 557.596 237.657, 557.193 232.810 C 556.936 229.716, 557.330 228.830, 559.632 227.321 C 565.055 223.768, 590.843 222.540, 595.531 225.612 C 598.440 227.518, 599.750 226.856, 599.750 223.479 C 599.750 214.062, 566.921 216.182, 556.272 226.287 C 553.225 229.178, 552.940 229.256, 551.193 227.675 C 550.175 226.754, 548.928 226, 548.421 226 C 547.915 226, 547.500 224.875, 547.500 223.500 C 547.500 220.350, 547.804 220.355, 549.010 223.526 C 550.595 227.696, 552.652 227.587, 557.776 223.062 C 570.025 212.245, 573.246 209.881, 574.857 210.528 C 583.647 214.057, 591.784 216.139, 595.605 215.835 C 598.022 215.643, 600 215.901, 600 216.409 C 600 216.918, 600.261 217.072, 600.581 216.752 C 602.389 214.944, 598.726 212, 594.667 212 C 592.322 212, 586.624 210.677, 582.005 209.060 C 577.386 207.444, 573.075 206.431, 572.425 206.810 C 571.142 207.559, 565.684 212.106, 558.226 218.640 L 553.500 222.781 550.865 219.890 C 549.416 218.301, 547.313 217, 546.192 217 C 543.707 217, 538 221.622, 538 223.634 C 538 226.229, 542.712 230, 545.955 230 L 549 230 549.151 236.750 C 549.383 247.148, 549.040 249.228, 546.468 253 C 540.126 262.302, 539.170 271.473, 543.790 278.672 C 549.216 287.129, 547.494 293.495, 540.842 289.566 C 536.900 287.237, 534.717 288.789, 536.244 292.836 C 537.603 296.435, 534.887 302.561, 531.563 303.395 C 530.300 303.712, 523.695 303.446, 516.884 302.805 C 510.073 302.164, 501.125 301.530, 497 301.396 C 492.875 301.262, 488.938 301.118, 488.250 301.076 C 486.426 300.965, 486.718 295.479, 488.633 293.890 C 489.873 292.860, 495.307 292.485, 511.238 292.327 C 537.160 292.071, 539.704 290.741, 531.937 281.500 C 530.682 280.006, 530.222 277.351, 530.118 271 C 529.819 252.615, 529.175 243.196, 528.077 241.144 C 527.093 239.305, 527.197 239, 528.810 239 C 531.032 239, 534 236.005, 534 233.762 C 534 230.229, 523.411 220.680, 520.345 221.450 C 513.171 223.250, 513.140 227.166, 520.250 233.488 L 525.500 238.155 520.500 237.542 C 517.750 237.205, 514.662 236.833, 513.638 236.715 C 510.012 236.296, 509.485 239.275, 511.915 246.468 C 515.114 255.938, 513.732 258.673, 500.092 269.873 C 497.833 271.728, 494.993 275.328, 493.780 277.873 L 491.574 282.500 491.034 276 C 490.607 270.865, 490.839 269.080, 492.140 267.500 C 493.046 266.400, 494.813 263.086, 496.066 260.135 C 498.696 253.945, 498.120 252.041, 493.165 250.543 C 488.420 249.109, 489.169 247.483, 498.939 238.006 C 508.426 228.804, 510.396 225.200, 507.619 222.131 C 504.894 219.120, 505.701 217.183, 510.686 214.769 C 516.923 211.749, 518.005 209.846, 515.742 205.885 C 513.998 202.834, 514.007 202.778, 516.905 199.120 C 518.512 197.091, 520.624 193.759, 521.599 191.715 C 523.812 187.075, 524.059 187.088, 530.071 192.157 C 535.689 196.894, 536.161 198.611, 532.250 200.088 C 525.444 202.660, 522.082 208.959, 525.750 212.269 C 532.820 218.650, 553.573 212.768, 567.845 200.338 L 571.476 197.176 568.124 193.004 C 564.806 188.876, 564.788 188.795, 566.312 185.167 C 573.345 168.426, 562.443 155.260, 548.742 163.948 C 544.223 166.815, 540.125 172.727, 539.898 176.710 C 539.841 177.695, 539.428 176.936, 538.978 175.025 C 538.412 172.621, 538.608 170.481, 539.613 168.075 C 542.329 161.576, 542.421 145.728, 539.758 143.334 C 531.678 136.071, 521.352 136.463, 516.500 144.215 C 514.558 147.319, 511.636 147.206, 509.780 143.954 C 508.833 142.297, 506.690 140.167, 505.017 139.220 C 502.205 137.630, 502.020 137.192, 502.575 133.426 C 503.286 128.595, 501.474 123.649, 496.859 117.822 C 493.851 114.024, 493.477 113.851, 489.548 114.441 C 486.001 114.972, 485.077 114.711, 483.111 112.618 C 477.319 106.453, 456.832 103.066, 460.417 108.866 C 461.091 109.956, 460.127 113, 459.109 113 C 457.764 113, 455.255 107.409, 454.727 103.235 C 454.114 98.401, 454.965 97.552, 461.268 96.715 C 466.248 96.054, 468.285 94.269, 467.679 91.099 C 467.303 89.135, 468.066 87.732, 471.116 84.772 C 476.518 79.529, 474.638 75.007, 466 72.473 C 461.930 71.280, 460.680 67.116, 463.467 64.037 C 464.356 63.054, 464.976 61.856, 464.844 61.375 C 464.712 60.894, 464.948 59.487, 465.369 58.250 C 466.295 55.530, 475.834 54.890, 477.923 57.407 C 479.575 59.398, 484.066 58.637, 486.197 56.005 C 488.781 52.813, 488.585 52.281, 482.629 46.325 C 476.405 40.101, 477.077 38.316, 484.772 40.632 C 491.521 42.663, 491.839 43.152, 491.339 50.739 L 490.899 57.416 494.700 60.670 C 497.115 62.739, 497.926 63.939, 496.924 63.962 C 495.145 64.005, 491 68.046, 491 69.738 C 491 71.691, 495.859 76.699, 499.028 78.011 C 505.425 80.661, 510.835 70.492, 506.398 64.158 C 504.409 61.318, 505.124 60.532, 509.430 60.822 C 513.617 61.104, 519 56.969, 519 53.470 C 519 50.479, 519.734 50.064, 525.397 49.850 C 529.778 49.684, 532.405 48.249, 531.794 46.355 C 531.383 45.080, 535.026 35.890, 537.149 32.846 C 538.167 31.386, 539 28.559, 539 26.564 C 539 23.969, 539.498 22.793, 540.750 22.431 C 541.712 22.153, 544.652 20.809, 547.282 19.445 C 551.097 17.466, 552.475 17.184, 554.091 18.049 C 557.199 19.712, 561.593 18.227, 564.981 14.369 C 569.627 9.078, 579.473 5.488, 582.486 7.988 C 585.316 10.337, 599.500 9.150, 599.500 6.564 C 599.500 4.900, 598.871 4.664, 595 4.882 C 587.548 5.301, 583.740 5.029, 582.486 3.988 C 579.459 1.476, 567.650 5.849, 563.952 10.851 C 561.400 14.303, 557.128 15.674, 554.052 14.028 C 552.374 13.130, 551.177 13.398, 547.656 15.461 C 545.274 16.858, 542.637 18, 541.797 18 C 538.344 18, 535 21.989, 535 26.108 C 535 28.287, 534.212 31.260, 533.250 32.714 C 532.288 34.169, 530.575 37.640, 529.445 40.429 C 527.593 44.999, 527.050 45.532, 523.945 45.822 C 519.807 46.208, 515 50.425, 515 53.668 C 515 56.084, 511.410 57.755, 508.566 56.664 C 507.775 56.360, 505.997 57.001, 504.615 58.088 C 499.103 62.424, 494.785 58.746, 495.369 50.212 C 495.865 42.969, 492.800 39.048, 484.750 36.625 C 480.173 35.248, 479.943 35.284, 475.528 38.084 C 469.949 41.623, 469.886 41.154, 476.526 45.561 C 479.566 47.579, 482.511 50.087, 483.072 51.135 C 484.360 53.541, 483.339 55.526, 481.569 54.057 C 480.880 53.485, 480.031 53.303, 479.682 53.651 C 479.334 54, 478.400 53.747, 477.609 53.090 C 476.748 52.376, 473.831 52.017, 470.361 52.198 C 464.745 52.490, 464.480 52.631, 462.331 56.471 C 461.109 58.655, 460.293 60.627, 460.519 60.852 C 460.745 61.078, 460.270 62.204, 459.465 63.354 C 456.138 68.104, 459.650 74.906, 466.276 76.544 C 471.237 77.770, 471.451 80.302, 466.903 83.958 C 463.385 86.785, 462.963 87.555, 463.527 90.123 C 463.881 91.737, 463.795 92.951, 463.336 92.821 C 456.787 90.973, 449.886 96.699, 450.754 103.262 C 452.217 114.332, 457.756 119.203, 462.561 113.645 C 464.327 111.602, 466.638 110, 467.819 110 C 471.212 110, 480.278 113.933, 483.126 116.641 C 485.271 118.679, 486.377 119.020, 489.158 118.498 C 494.766 117.446, 499.759 125.453, 498.545 133.552 C 497.962 137.433, 498.164 137.950, 501.207 140.385 C 505.027 143.441, 505.042 143.455, 508.716 147.818 C 512.117 151.856, 515.133 151.233, 519.660 145.559 C 522.962 141.421, 525.819 141.029, 533.257 143.695 L 538.014 145.400 537.540 154.999 C 537.275 160.366, 536.376 166.250, 535.501 168.343 C 534.640 170.403, 534.204 172.521, 534.531 173.050 C 534.858 173.579, 535.150 175.787, 535.180 177.957 C 535.249 182.976, 538.057 186.024, 540.644 183.888 C 542.093 182.692, 542.257 182.708, 541.830 184 C 541.557 184.825, 540.472 185.659, 539.417 185.853 C 536.484 186.394, 534.059 188.980, 534.737 190.844 C 535.411 192.699, 535.372 192.673, 527.646 186.138 C 523.892 182.963, 523.736 182.925, 521.646 184.663 C 520.466 185.644, 520.063 185.806, 520.750 185.023 C 522.520 183.007, 522.300 180.581, 520.171 178.655 C 517.630 176.355, 516.052 176.576, 512.805 179.687 C 511.262 181.165, 510 181.918, 510 181.361 C 510 180.804, 511.125 179.292, 512.500 178 C 515.683 175.010, 515.734 175.327, 510.900 168.088 C 506.246 161.118, 502.290 158.533, 497.629 159.414 C 488.028 161.229, 479.946 172.715, 483.745 179.145 C 486.032 183.017, 484.552 183.903, 481.185 180.677 C 475.927 175.640, 471 177.569, 471 184.665 C 471 190.107, 469.955 190.672, 457.199 192.123 C 448.817 193.076, 445.853 192.997, 438.375 191.625 C 433.494 190.729, 427.333 189.997, 424.685 189.998 C 422.006 189.999, 417.705 189.068, 414.989 187.900 C 411.589 186.437, 408.599 185.906, 405.140 186.150 L 400.174 186.500 399.565 182.688 C 398.822 178.033, 392.172 170.336, 389.709 171.281 C 386.075 172.676, 384.492 176.870, 386.389 180.081 C 388.435 183.544, 388.435 183.544, 382.583 181.036 C 377.178 178.719, 377.067 178.268, 380.982 174.518 C 383.264 172.331, 383.705 171.349, 382.859 170.330 C 378.544 165.131, 369.024 177.102, 369.006 187.750 C 369.003 189.537, 368.595 191, 368.100 191 C 367.218 191, 367.584 162.513, 368.518 158.500 C 368.835 157.137, 373.687 153.951, 383.742 148.500 C 414.149 132.017, 427.589 121.356, 427.158 114.059 C 427.030 111.878, 427.484 109.198, 428.168 108.103 C 430.404 104.522, 426.967 102.066, 420.319 102.496 C 413.018 102.968, 411.103 104.732, 411.741 110.393 C 412.604 118.048, 408.762 121.510, 404.881 116.576 C 403.833 115.243, 400.753 113.414, 398.038 112.513 L 393.102 110.873 387.801 115.086 C 378.052 122.835, 375.752 123.461, 356.500 123.613 C 347.150 123.687, 338.230 124.087, 336.677 124.501 C 334.932 124.966, 333.423 124.823, 332.727 124.127 C 330.918 122.318, 328.853 122.778, 321.673 126.591 C 315.007 130.130, 314.855 130.159, 311.052 128.638 L 307.194 127.094 301.675 131.046 C 297.894 133.754, 295.800 136.076, 295.027 138.419 C 292.911 144.830, 291 145, 291 138.777 C 291 129.868, 286.808 127.596, 280.535 133.104 C 276.256 136.860, 276.183 138.451, 280.079 143 L 283.078 146.500 280.289 147.694 C 278.626 148.405, 275.415 148.656, 272.336 148.316 C 269.497 148.002, 265.592 148.042, 263.659 148.404 C 259.407 149.202, 250 157.297, 250 160.158 C 250 164.375, 248.169 166, 243.415 166 C 235.069 166, 227.116 172.259, 230.586 176.097 C 232.798 178.545, 241.553 178.178, 245.695 175.464 C 248.874 173.381, 249.154 173.494, 253.406 178.581 L 257.235 183.162 253.921 186.581 C 249.953 190.676, 249.650 190.721, 248.158 187.448 C 245.605 181.843, 231.396 179.821, 227.052 184.444 C 225.019 186.609, 224.833 187.511, 225.434 192.316 C 225.938 196.352, 225.777 197.881, 224.806 198.279 C 224.088 198.574, 220.962 199.955, 217.860 201.347 L 212.220 203.878 213.274 201.086 C 213.853 199.551, 214.050 197.574, 213.712 196.693 C 212.847 194.437, 205.178 190.733, 202.452 191.254 C 200.789 191.572, 199.889 191.051, 199.097 189.313 C 198.094 187.113, 198.166 187.018, 200.058 188.031 C 202.609 189.396, 207.757 186.688, 209.912 182.847 C 212.732 177.823, 202.092 167.884, 196.250 170.086 C 191.860 171.741, 186.821 177.080, 188.145 178.674 C 189.027 179.738, 188.445 180, 185.195 180 C 181.067 180, 177 183.293, 177 186.635 C 177 187.386, 176.030 188, 174.845 188 C 172.883 188, 172.825 187.844, 174.204 186.250 C 178.064 181.788, 175.385 173.653, 170.854 176.078 C 169.054 177.042, 168.957 176.949, 169.910 175.169 C 172.879 169.621, 160.997 165.694, 154.184 169.970 C 147.916 173.904, 144.527 184.843, 147.588 191.261 C 151.289 199.024, 145.217 209.006, 136.800 208.996 L 133.500 208.993 136.500 207.158 C 142.487 203.498, 143.656 199.153, 139.407 196.347 C 137.568 195.132, 137.004 195.209, 134.749 196.982 C 131.256 199.731, 129.023 199.524, 124.159 196 C 121.881 194.350, 119.600 193, 119.090 193 C 118.580 193, 117.246 191.516, 116.125 189.702 C 112.008 183.040, 106.531 179.760, 98.109 178.913 C 93.924 178.492, 89.552 177.854, 88.393 177.495 C 86.199 176.815, 72.618 183.070, 66.351 187.648 C 63.616 189.645, 63.041 189.754, 61.978 188.474 C 61.306 187.663, 59.685 187, 58.378 187 C 56.386 187, 55.981 186.472, 55.882 183.750 C 55.695 178.644, 55.792 178.435, 60.570 173.588 C 65.533 168.554, 66.633 168.242, 71.157 170.581 C 75.493 172.823, 78.031 171.814, 85.006 165.073 C 91.632 158.669, 96.164 156.971, 101.360 158.947 C 105.816 160.641, 109.464 160.199, 111.831 157.680 L 114.011 155.359 111.506 153.005 C 108.042 149.752, 108.162 147.547, 111.750 148.488 C 120.277 150.723, 121.961 150.046, 126.646 142.500 C 130.229 136.730, 131.828 135.122, 135.746 133.345 C 138.361 132.161, 144.325 128.898, 149 126.096 C 153.675 123.294, 158.032 121.001, 158.682 121.001 C 161.004 120.999, 164.388 114.794, 164.298 110.702 C 164.225 107.387, 164.773 106.261, 167.712 103.679 C 171.153 100.658, 171.202 100.505, 170.560 94.825 C 170.095 90.719, 170.362 87.701, 171.480 84.407 C 172.619 81.054, 172.757 79.412, 171.979 78.474 C 170.387 76.557, 171.698 76.164, 182.075 75.447 C 191.976 74.763, 196.632 73.073, 205.637 66.897 C 210.577 63.509, 217.137 62.200, 220.409 63.951 C 222.131 64.873, 223.667 64.908, 226.600 64.094 C 231.430 62.753, 239.426 62.688, 243.841 63.954 C 245.671 64.479, 249.493 64.993, 252.334 65.095 C 255.403 65.206, 258.843 66.084, 260.807 67.258 C 264.008 69.170, 264.396 69.182, 272.967 67.614 C 283.086 65.762, 285 66.123, 285 69.884 C 285 73.963, 287.616 77, 291.129 77 C 294.780 77, 302.542 72.628, 304.679 69.368 C 306.457 66.653, 308.220 66.356, 309.978 68.474 C 311.626 70.459, 317.837 71.563, 319.275 70.125 C 319.894 69.506, 321.548 68.999, 322.950 68.999 C 324.676 68.998, 327.032 67.436, 330.242 64.165 C 332.850 61.508, 335.550 59.310, 336.242 59.281 C 336.934 59.253, 339.243 58.473, 341.373 57.550 L 345.246 55.870 344.789 58.985 C 344.347 61.998, 347.747 66, 350.749 66 C 351.267 66, 352.514 66.911, 353.521 68.024 C 355.476 70.184, 356.428 69.769, 358.366 65.909 C 359.504 63.642, 367.823 58.772, 369.153 59.595 C 369.544 59.836, 370.484 59.147, 371.243 58.064 C 373.292 55.138, 377.551 53.754, 379.028 55.533 C 380.630 57.464, 385.833 59.983, 388.404 60.073 C 392.918 60.230, 396.450 63.426, 397.500 68.303 C 399.617 78.139, 403.260 78.781, 410.764 70.640 C 415.135 65.899, 415.313 64.190, 412.067 58.125 C 410.744 55.653, 411.577 49.614, 413.690 46.366 C 414.453 45.193, 414.989 43.843, 414.880 43.366 C 414.771 42.890, 414.961 41.825, 415.302 41 C 415.642 40.175, 416.080 37.934, 416.274 36.019 C 416.753 31.289, 421.829 28.035, 425.589 30.048 C 429.014 31.880, 430.264 30.292, 430.622 23.652 C 430.858 19.280, 430.532 17.886, 428.931 16.438 C 426.971 14.664, 426.986 14.624, 430.224 13.036 C 436.479 9.970, 440.604 7.027, 442.787 4.075 C 445.633 0.225, 443.800 -1.090, 440.169 2.198 C 436.491 5.528, 429.330 10, 427.676 10 C 424.028 10, 422.514 13.851, 424.895 17.072 C 427.301 20.326, 427.109 26.363, 424.630 25.412 C 420.475 23.817, 412.870 30.624, 412.242 36.500 C 412.065 38.150, 411.642 40.175, 411.302 41 C 410.961 41.825, 410.771 42.890, 410.880 43.366 C 410.989 43.843, 410.453 45.193, 409.690 46.366 C 407.577 49.614, 406.744 55.653, 408.067 58.125 C 411.264 64.098, 411.122 65.990, 407.206 69.586 C 402.387 74.013, 402.265 73.968, 401.455 67.485 C 400.750 61.842, 397.590 58, 393.655 58 C 392.810 58, 391.840 57.550, 391.500 57 C 391.160 56.450, 389.777 56, 388.427 56 C 385.454 56, 382.190 54.243, 379.796 51.353 C 377.813 48.960, 374.757 49.900, 368.492 54.827 C 366.973 56.022, 365.294 57, 364.760 57 C 364.227 57, 361.755 58.373, 359.268 60.052 C 353.426 63.995, 349 63.507, 349 58.921 C 349 57.314, 349.113 55.822, 349.250 55.605 C 349.387 55.388, 348.690 54.315, 347.699 53.220 C 345.902 51.234, 345.890 51.235, 341.699 53.272 C 339.390 54.395, 336.949 55.318, 336.275 55.323 C 335.601 55.329, 332.696 57.508, 329.820 60.167 C 326.815 62.944, 323.639 65, 322.354 65 C 321.124 65, 319.809 65.500, 319.432 66.110 C 318.430 67.731, 312.436 66.488, 309.280 64.006 L 306.591 61.891 303.546 65.483 C 296.749 73.498, 289 75.721, 289 69.655 C 289 63.098, 284.680 61.471, 272.967 63.614 C 264.396 65.182, 264.008 65.170, 260.807 63.258 C 258.843 62.084, 255.403 61.206, 252.334 61.095 C 249.493 60.993, 245.671 60.479, 243.841 59.954 C 239.426 58.688, 231.430 58.753, 226.600 60.094 C 223.868 60.853, 222.070 60.863, 220.600 60.130 C 219.445 59.554, 217.375 58.919, 216 58.718 C 213.812 58.398, 213.728 58.251, 215.324 57.540 C 216.379 57.071, 218.723 57.248, 220.878 57.960 C 224.019 58.996, 225.227 58.932, 228.529 57.552 C 230.685 56.651, 237.186 54.635, 242.975 53.071 C 248.764 51.507, 258.450 48.784, 264.500 47.020 C 286.250 40.677, 295.558 38.085, 298.990 37.416 C 300.910 37.042, 303.835 35.719, 305.490 34.476 C 307.584 32.904, 310.966 31.892, 316.601 31.150 C 324.797 30.070, 333.409 27.187, 363.500 15.446 C 372.300 12.013, 381.392 8.696, 383.705 8.075 C 388.675 6.742, 394.581 2.181, 393.167 0.767 C 392.563 0.163, 391.351 0.362, 389.857 1.312 C 388.561 2.136, 383.225 4.256, 378 6.023 C 372.775 7.790, 367.221 9.891, 365.657 10.692 C 364.093 11.492, 362.615 11.949, 362.372 11.706 C 362.129 11.463, 366.233 9.156, 371.493 6.581 C 376.752 4.005, 380.791 1.471, 380.468 0.949 C 379.439 -0.716, 376.695 -0.009, 368.654 3.994 M 349 15.859 C 343.225 17.924, 337.600 20.185, 336.500 20.883 L 334.500 22.151 336.500 21.483 C 345.540 18.461, 358.778 13.646, 360 12.934 C 362.987 11.195, 359.293 12.177, 349 15.859 M 310.867 25.917 C 308.319 26.274, 304.494 27.766, 302.367 29.232 C 300.240 30.699, 296.250 32.381, 293.500 32.970 C 290.750 33.559, 285.800 34.909, 282.500 35.969 C 279.200 37.030, 272.675 39.041, 268 40.439 C 263.325 41.837, 258.825 43.478, 258 44.085 C 256.741 45.011, 256.793 45.094, 258.318 44.600 C 259.317 44.276, 263.592 43.077, 267.818 41.936 C 272.043 40.794, 280 38.563, 285.500 36.978 C 291 35.393, 297.071 33.790, 298.990 33.416 C 300.910 33.042, 303.847 31.693, 305.518 30.418 C 307.651 28.791, 310.558 27.896, 315.278 27.412 C 318.975 27.034, 322 26.336, 322 25.862 C 322 24.908, 317.923 24.928, 310.867 25.917 M 246 47.138 C 235.192 50.096, 231.824 51.158, 232.167 51.500 C 232.377 51.710, 237.263 50.590, 243.024 49.012 C 248.786 47.433, 252.600 46.150, 251.500 46.161 C 250.400 46.172, 247.925 46.611, 246 47.138 M 80 50.465 C 87.176 52.469, 116.566 57.910, 129.057 59.548 C 135.351 60.373, 145.895 62.162, 152.489 63.524 C 160.066 65.089, 167.425 65.956, 172.489 65.882 C 180.486 65.764, 180.491 65.762, 175.500 64.828 C 172.750 64.313, 166.900 63.047, 162.500 62.015 C 158.100 60.982, 150.225 59.852, 145 59.504 C 130.153 58.514, 119.783 57.126, 111.123 54.971 C 104.133 53.231, 77.837 48.822, 76.131 49.104 C 75.784 49.161, 77.525 49.774, 80 50.465 M 449.058 51.457 C 447.226 52.809, 443.321 54.414, 440.381 55.025 C 434.756 56.192, 434.110 56.717, 432.500 61.424 C 431.916 63.131, 430.043 65.147, 428 66.269 C 419.497 70.937, 416.356 76.621, 420.086 80.591 C 421.804 82.421, 423.087 82.944, 424.800 82.514 C 426.555 82.074, 427.659 82.568, 429.149 84.462 C 432.862 89.183, 437.856 87.536, 441.125 80.512 C 441.890 78.869, 443.412 77.362, 444.508 77.162 C 447.956 76.536, 451.062 72.985, 449.961 70.928 C 448.446 68.097, 448.792 67.159, 451.953 65.524 C 456.420 63.214, 461.367 55.553, 460.018 53.033 C 457.630 48.572, 453.729 48.011, 449.058 51.457 M 448.967 55.525 C 447.085 56.913, 443.831 58.323, 441.736 58.658 C 439.273 59.052, 437.544 60.015, 436.841 61.384 C 435.104 64.769, 430.755 69.018, 427.389 70.618 C 424.554 71.965, 422 75.524, 422 78.127 C 422 78.736, 423.143 78.908, 424.794 78.545 C 426.971 78.067, 428.112 78.491, 429.968 80.466 C 432.730 83.406, 435.795 83.764, 436.676 81.250 C 437.655 78.455, 443.232 73, 445.109 73 C 446.582 73, 446.673 72.595, 445.750 70.147 C 444.305 66.320, 445.242 64.343, 449.308 62.645 C 452.967 61.116, 457.520 55.650, 456.504 54.007 C 455.449 52.299, 452.546 52.884, 448.967 55.525 M 500.028 66.467 C 499.328 67.310, 497.910 68, 496.878 68 C 493.520 68, 494.767 71.787, 498.828 73.927 C 502.589 75.909, 504.160 74.618, 503.808 69.837 C 503.475 65.310, 502.045 64.036, 500.028 66.467 M 255 93.145 C 245.792 97.384, 243.908 100.435, 246.888 106.280 C 248.748 109.928, 248.746 110.065, 246.752 115.476 C 243.541 124.193, 247.096 126.611, 254.857 120.989 L 259.014 117.978 256.402 114.031 L 253.790 110.084 261.552 102.545 C 269.158 95.158, 269.278 94.965, 267.502 93.003 C 265.173 90.429, 260.791 90.478, 255 93.145 M 254.250 97.525 C 248.724 100.109, 247.857 101.907, 250.472 105.360 C 251.810 107.125, 252.142 106.999, 257.029 102.879 C 266.397 94.980, 265.087 92.457, 254.250 97.525 M 416.995 106.743 C 415.866 106.975, 415.576 108.137, 415.835 111.389 C 416.130 115.100, 415.719 116.251, 412.986 119.363 C 409.137 123.747, 407.242 123.905, 403.637 120.143 C 397.324 113.554, 389.535 114.609, 385.208 122.639 L 383.917 125.037 388.208 124.268 C 397.010 122.692, 405.183 123.512, 407.497 126.202 L 409.598 128.645 414.875 124.330 C 417.777 121.956, 420.883 119.605, 421.777 119.105 C 422.947 118.450, 423.333 117.020, 423.155 114.005 C 423.019 111.701, 423.401 109.222, 424.003 108.497 C 425.819 106.308, 422.792 105.550, 416.995 106.743 M 0.343 111.549 C -0.258 113.116, 6.074 119.854, 8.250 119.962 C 10.121 120.056, 8.713 124.465, 6.004 126.996 C 3.520 129.317, 3.114 130.318, 3.623 132.864 C 4.058 135.038, 3.619 136.981, 2.118 139.524 C -1.805 146.174, 1.028 152.035, 7.394 150.437 C 10.061 149.768, 11.270 152.097, 8.988 153.507 C 7.047 154.707, -0.011 166.173, 0.591 167.148 C 1.405 168.465, 4.644 165.474, 7.789 160.500 C 9.180 158.300, 11.147 155.912, 12.159 155.193 C 16.217 152.313, 12.984 144.233, 8.500 146.049 C 3.093 148.240, 1.823 145.818, 5.526 140.379 C 7.475 137.518, 8.036 135.676, 7.665 133.360 C 7.259 130.826, 7.726 129.679, 10.081 127.423 C 14.425 123.261, 13.875 121.061, 6.996 115.078 C 1.997 110.730, 0.884 110.139, 0.343 111.549 M 250.290 116.408 C 249.086 120.329, 249.203 120.497, 252.066 118.965 C 254.344 117.745, 254.452 117, 252.696 114.599 C 251.508 112.975, 251.294 113.136, 250.290 116.408 M 325.500 128.657 C 323.549 130.211, 323.561 130.235, 326 129.639 C 327.375 129.302, 329.539 129.021, 330.809 129.014 C 332.091 129.006, 332.843 128.555, 332.500 128 C 331.571 126.497, 327.762 126.855, 325.500 128.657 M 384.283 129.014 C 379.214 130.029, 369.764 131.354, 363.283 131.958 C 356.802 132.562, 347.225 133.498, 342 134.038 C 336.775 134.578, 331.150 135.001, 329.500 134.978 C 326.569 134.938, 287.564 153.897, 288.549 154.883 C 289.221 155.555, 307.081 155.106, 326.500 153.928 C 335.850 153.362, 348 152.875, 353.500 152.847 C 361.506 152.807, 363.899 152.451, 365.500 151.061 C 366.600 150.107, 374.700 145.440, 383.500 140.691 C 392.300 135.942, 400.766 131.206, 402.314 130.166 L 405.129 128.276 401.939 127.638 C 397.374 126.725, 394.660 126.936, 384.283 129.014 M 282.750 135.080 C 280.481 136.402, 280.517 139.253, 282.829 141.345 C 285.886 144.112, 287 143.352, 287 138.500 C 287 133.825, 286.120 133.117, 282.750 135.080 M 305.923 134.730 C 305.056 134.922, 303.412 137.110, 302.271 139.591 C 301.130 142.072, 300.527 143.966, 300.932 143.801 C 304.039 142.531, 312.996 137.370, 312.998 136.848 C 313.001 135.891, 307.759 134.322, 305.923 134.730 M 260.250 155.989 C 258.281 157.190, 257 158.780, 257 160.025 C 257 161.155, 256.098 163.848, 254.996 166.009 C 252.426 171.046, 254.189 176.272, 259.635 179.758 L 263.164 182.017 265.717 180.008 C 267.121 178.904, 268.917 178, 269.707 178 C 270.836 178, 270.742 177.487, 269.272 175.618 C 264.453 169.492, 264.234 162.007, 268.872 161.996 C 269.768 161.994, 272.018 161.067, 273.873 159.936 C 275.728 158.805, 277.841 158.109, 278.569 158.388 C 280.505 159.131, 285 169.187, 285 172.775 C 285 176.011, 285.603 176.775, 291.723 181.282 C 303.569 190.008, 308.026 192.847, 310.850 193.467 L 314 194.159 314.006 186.829 C 314.010 182.368, 314.582 178.407, 315.469 176.708 C 316.270 175.172, 317.212 172.389, 317.562 170.523 C 318.535 165.335, 321.261 163.286, 324.428 165.361 C 328.020 167.715, 328.875 173.325, 326.195 176.951 C 325.062 178.482, 324.495 180.133, 324.935 180.618 C 329.213 185.340, 328.918 194.943, 324.442 196.661 C 322.306 197.480, 322.663 198.852, 326 202.653 C 332.154 209.661, 328.534 214.302, 319.330 211.203 C 311.937 208.714, 303.868 206.799, 303.274 207.392 C 302.387 208.280, 304.189 212.094, 307.616 216.584 C 311.513 221.689, 313.340 227.943, 313.241 235.832 L 313.173 241.164 318.337 240.373 C 321.176 239.938, 328.533 239.692, 334.684 239.828 C 342.068 239.991, 348.140 239.547, 352.555 238.524 C 357.557 237.363, 360.156 237.227, 362.871 237.981 C 364.867 238.535, 368.343 238.991, 370.595 238.994 C 378.426 239.005, 379.822 243.049, 374.142 249.272 C 367.486 256.566, 365.706 261.700, 371.598 256.609 C 381.868 247.735, 382.156 247.350, 381.428 243.467 C 380.815 240.203, 381.123 239.459, 384.520 235.980 L 388.292 232.117 385.146 229.469 C 383.416 228.013, 382 226.037, 382 225.078 C 382 222.500, 380.869 221.822, 379.081 223.326 C 376.048 225.879, 366.997 227.228, 364.386 225.517 C 363.112 224.683, 360.690 224, 359.003 224 C 352.907 224, 349.334 221.583, 346.464 215.515 C 344.996 212.412, 344.063 209.604, 344.391 209.276 C 344.719 208.948, 344.090 208.051, 342.994 207.283 C 340.172 205.307, 340.504 201.600, 343.750 198.839 C 346.494 196.505, 346.499 196.476, 346.193 184.978 C 345.806 170.444, 347.112 168.511, 357.331 168.484 L 363.500 168.468 363.761 163.984 C 364.232 155.862, 363.231 155.701, 326.350 157.947 C 295.082 159.851, 287.973 159.685, 285.797 156.998 C 284.373 155.239, 283.640 154.960, 282.760 155.840 C 281.194 157.406, 277.052 157.245, 274 155.500 C 270.404 153.444, 264.053 153.670, 260.250 155.989 M 492.304 165.956 C 487.508 168.881, 485.839 175.135, 488.967 178.465 C 490.514 180.112, 491.072 181.617, 490.684 183.101 C 490.269 184.687, 490.811 185.850, 492.629 187.280 C 495.786 189.763, 497.434 193.773, 496.005 195.493 C 494.296 197.553, 500.796 198.364, 503.709 196.455 C 507.727 193.822, 508.659 190.487, 506.812 185.350 C 505.246 180.996, 505.263 180.840, 507.606 178.056 C 510.613 174.483, 510.596 173.903, 507.394 170.924 C 505.961 169.591, 504.397 167.488, 503.919 166.250 C 502.790 163.329, 496.859 163.179, 492.304 165.956 M 321.633 170.326 C 320.908 173.215, 321.783 176.252, 323.105 175.435 C 324.234 174.737, 324.242 170.930, 323.117 169.155 C 322.484 168.157, 322.102 168.458, 321.633 170.326 M 552.020 170.271 C 549.014 171.808, 547.036 175.453, 547.011 179.500 C 546.993 182.468, 543.742 188.986, 542.265 189.015 C 539.265 189.075, 538.774 190.843, 540.502 195.367 C 542.293 200.055, 540.996 205, 537.977 205 C 537.440 205, 537 205.486, 537 206.079 C 537 208.523, 546.792 204.612, 555.750 198.591 C 560.418 195.454, 560.719 194.841, 558.500 193 C 556.372 191.234, 556.642 186.634, 559 184.500 C 561.455 182.278, 561.483 180.870, 559.200 174.505 C 557.267 169.116, 555.879 168.297, 552.020 170.271 M 235.662 171.618 C 234.100 172.464, 233.059 173.392, 233.348 173.681 C 234.272 174.605, 243.780 172.883, 245.673 171.449 C 248.372 169.403, 239.472 169.553, 235.662 171.618 M 274.177 171.667 C 274.663 174.176, 277 174.520, 277 172.083 C 277 170.855, 276.354 170, 275.427 170 C 274.495 170, 273.985 170.680, 274.177 171.667 M 563 172.559 C 563 174.010, 563.433 174.851, 564 174.500 C 564.550 174.160, 565 173.009, 565 171.941 C 565 170.873, 564.550 170, 564 170 C 563.450 170, 563 171.152, 563 172.559 M 157.384 173.765 C 155.864 174.767, 152 182.529, 152 184.583 C 152 185.853, 152.314 185.984, 153.330 185.141 C 154.337 184.305, 155.480 184.641, 158.025 186.518 C 162.203 189.601, 162.970 189.679, 160.289 186.750 C 155.927 181.984, 157.318 177.498, 163.765 175.543 C 165.010 175.165, 165.771 174.438, 165.456 173.928 C 164.776 172.829, 158.983 172.712, 157.384 173.765 M 195.370 174.440 C 191.902 175.950, 190.114 178, 192.267 178 C 193.028 178, 194.742 179.166, 196.076 180.592 C 199.943 184.726, 201.788 185.369, 204.567 183.548 C 207.871 181.383, 207.631 179.761, 203.465 176.104 C 199.450 172.578, 199.586 172.606, 195.370 174.440 M 353.213 184.680 C 353.497 194.411, 353.523 194.500, 356 194.500 C 358.491 194.500, 358.500 194.467, 358.500 185 L 358.500 175.500 355.713 175.180 L 352.926 174.860 353.213 184.680 M 389.457 176.070 C 388.550 177.536, 393.167 186, 394.873 186 C 396.576 186, 395.726 180.756, 393.462 177.302 C 391.824 174.802, 390.493 174.393, 389.457 176.070 M 279.345 179.393 C 277.613 180.355, 277.395 180.954, 278.232 182.449 C 278.901 183.646, 278.995 187.197, 278.495 192.405 C 277.060 207.341, 277.797 217.120, 280.578 220.055 C 281.910 221.460, 283 223.772, 283 225.194 C 283 228.239, 285.431 231.216, 289.202 232.787 C 291.362 233.687, 291.803 233.650, 291.401 232.602 C 291.124 231.881, 291.820 228.863, 292.948 225.895 C 295.749 218.527, 295.606 217.328, 290.829 208.139 C 285.017 196.959, 287.777 193.434, 297.073 200.168 C 299.478 201.910, 302.583 203.421, 303.973 203.525 C 308.265 203.847, 316.708 205.851, 320.567 207.464 C 325.065 209.343, 325 209.342, 325 207.508 C 325 206.687, 323.615 204.781, 321.922 203.273 C 319.502 201.117, 318.958 199.959, 319.379 197.856 C 320.062 194.441, 317.828 193.428, 315.439 196.067 C 312.814 198.968, 309.937 198.432, 303.931 193.923 C 296.045 188.002, 295.574 187.821, 292.378 189.479 C 286.337 192.613, 280.509 188.759, 281.482 182.273 C 281.834 179.923, 281.982 178.044, 281.811 178.098 C 281.640 178.152, 280.530 178.735, 279.345 179.393 M 318 181.906 C 318 184.320, 318.339 184.724, 320 184.290 C 322.254 183.700, 322.589 181.989, 320.800 180.200 C 318.869 178.269, 318 178.798, 318 181.906 M 168.222 181.233 C 165.363 182.610, 165.855 184.405, 169.200 184.804 C 171.246 185.049, 171.842 184.607, 172.234 182.554 C 172.766 179.776, 171.863 179.479, 168.222 181.233 M 373.606 182.343 C 373.288 183.529, 373.021 186.403, 373.014 188.729 C 373 192.843, 373.065 192.927, 375.426 191.852 C 377.427 190.940, 378.479 191.133, 381.424 192.953 C 384.784 195.030, 391.009 195.171, 390.995 193.171 C 390.986 191.816, 384.058 185, 382.691 185 C 381.914 185, 379.683 183.917, 377.732 182.593 L 374.185 180.186 373.606 182.343 M 80.287 183.850 L 75.073 186.696 78.037 189.535 C 82.476 193.789, 80.417 201, 74.762 201 C 71.929 201, 67.003 196.044, 66.970 193.161 C 66.941 190.681, 66.865 190.636, 65.852 192.500 C 65.253 193.600, 63.625 196.196, 62.233 198.268 C 58.823 203.347, 58.986 203.407, 75.390 203.114 L 89.743 202.857 92.340 206.175 L 94.936 209.492 99.852 207.746 C 106.862 205.256, 109.101 205.496, 112.023 209.050 L 114.545 212.119 120.023 209.569 C 123.035 208.167, 126.275 207.015, 127.223 207.010 C 130.547 206.991, 138 202.672, 138 200.766 C 138 198.851, 134.922 199.699, 133.497 202.005 C 132.343 203.871, 128.306 203.004, 124.159 200 C 121.881 198.350, 119.676 197.008, 119.259 197.018 C 118.841 197.027, 115.786 194.044, 112.470 190.389 L 106.440 183.742 98.470 182.913 C 94.086 182.456, 89.375 181.841, 88 181.544 C 86.349 181.188, 83.729 181.972, 80.287 183.850 M 285 183.883 C 285 186.004, 288.543 187.355, 290.796 186.094 C 291.970 185.437, 291.801 184.974, 289.899 183.642 C 286.806 181.475, 285 181.564, 285 183.883 M 474.786 187.250 C 474.562 190.137, 474.432 192.602, 474.498 192.726 C 474.564 192.850, 476.709 192.158, 479.264 191.188 C 483.508 189.577, 483.742 189.320, 481.975 188.216 C 480.911 187.552, 479.757 185.881, 479.412 184.504 C 478.188 179.628, 475.241 181.377, 474.786 187.250 M 183 185.550 C 183 188.814, 186.017 193, 188.371 193 C 193.438 193, 195.860 186.658, 191.435 184.975 C 187.411 183.445, 183 183.746, 183 185.550 M 231.750 186.689 C 229.489 187.280, 229.528 190.140, 231.861 194.790 C 232.885 196.830, 233.522 199.063, 233.278 199.751 C 232.673 201.452, 235.638 200.341, 239.683 197.352 C 241.434 196.058, 244.253 195, 245.947 195 L 249.028 195 246.456 191.113 C 243.405 186.502, 238.320 184.972, 231.750 186.689 M 266.273 188.703 C 263.887 192.341, 263.191 207.608, 265.284 210.412 C 267.644 213.576, 269.999 211.765, 270.006 206.781 C 270.009 204.427, 270.301 198.787, 270.654 194.250 C 271.368 185.086, 269.880 183.203, 266.273 188.703 M 511.754 188.777 C 512.054 190.824, 511.425 192.529, 509.547 194.761 L 506.921 197.883 510.096 196.972 C 511.843 196.472, 513.323 195.935, 513.386 195.781 C 513.449 195.626, 514.063 194.494, 514.750 193.264 C 516.211 190.649, 516.405 187, 515.082 187 C 514.577 187, 513.527 186.756, 512.749 186.457 C 511.680 186.047, 511.437 186.615, 511.754 188.777 M 254.615 189.880 C 252.403 192.189, 252.167 192.850, 253.390 193.319 C 254.401 193.708, 255.418 192.868, 256.456 190.788 C 258.510 186.671, 257.953 186.396, 254.615 189.880 M 319.185 189.750 C 319.390 190.831, 320.618 191.626, 322.396 191.830 C 324.735 192.098, 325.156 191.848, 324.638 190.498 C 324.287 189.584, 324 188.648, 324 188.418 C 324 188.188, 322.842 188, 321.427 188 C 319.516 188, 318.939 188.451, 319.185 189.750 M 488.552 190.915 C 488.241 191.418, 484.912 193.005, 481.153 194.442 C 470.703 198.435, 465.954 201.002, 469.039 200.991 C 470.392 200.986, 473.750 199.875, 476.500 198.522 C 479.250 197.169, 483.217 196.048, 485.316 196.031 C 490.459 195.989, 492.957 194.551, 492.293 192.013 C 491.751 189.940, 489.554 189.295, 488.552 190.915 M 561.041 190.628 C 561.018 191.248, 561.675 192.315, 562.500 193 C 564.485 194.648, 564.396 196.898, 562.250 199.308 C 560.521 201.250, 560.540 201.253, 563.750 199.611 C 565.538 198.697, 567 197.606, 567 197.187 C 567 195.922, 561.084 189.411, 561.041 190.628 M 52.750 191.689 C 50.377 192.309, 50.528 195.715, 52.962 196.488 C 55.630 197.335, 59 195.368, 59 192.965 C 59 190.995, 56.982 190.583, 52.750 191.689 M 179.431 192.112 C 178.682 193.323, 180.662 194.960, 182.905 194.985 C 183.974 194.996, 183.877 194.521, 182.500 193 C 180.390 190.668, 180.333 190.652, 179.431 192.112 M 193 195 C 191.625 196.076, 189.773 196.966, 188.884 196.978 C 186.705 197.008, 187.989 204.486, 190.579 206.848 C 192.278 208.397, 192.307 208.390, 191.048 206.721 C 189.890 205.184, 190.011 204.617, 191.937 202.567 C 193.591 200.806, 196.677 192.864, 195.645 193.022 C 195.565 193.034, 194.375 193.924, 193 195 M 201.387 196.750 C 201.085 197.713, 200.424 199.534, 199.919 200.797 C 198.450 204.470, 198.796 209.984, 200.537 210.653 C 203.229 211.685, 210 203.133, 210 198.700 C 210 195.642, 202.284 193.895, 201.387 196.750 M 399.995 196.937 C 393.340 201.913, 382.735 203.617, 380.538 200.062 C 379.733 198.759, 375.032 198.694, 373.034 199.958 C 371.674 200.818, 375.158 203, 377.891 203 C 379.581 203, 382.967 207.919, 386.323 215.250 C 390.158 223.629, 390.312 223.732, 395.649 221.502 C 398.862 220.160, 399.162 219.718, 398.546 217.252 C 395.925 206.772, 397.497 203.785, 406.299 202.519 C 418.999 200.693, 421.402 200.273, 419.919 200.141 C 419.050 200.063, 416.125 198.877, 413.419 197.504 C 407.590 194.547, 403.426 194.371, 399.995 196.937 M 461 195.650 C 459.625 195.857, 456.486 196.289, 454.024 196.609 L 449.548 197.190 452.654 198.496 C 457.230 200.421, 457.575 201.782, 454.359 205.212 L 451.500 208.261 461.444 207.699 C 467.120 207.378, 472.163 207.552, 473.194 208.104 C 474.550 208.830, 475 208.708, 475 207.617 C 475 206.818, 475.276 205.443, 475.614 204.563 C 476.137 203.200, 475.830 203.114, 473.549 203.981 C 472.075 204.542, 468.479 205, 465.557 205 C 455.728 205, 455.855 200.345, 465.781 196.828 C 470.475 195.164, 470.481 195.155, 467 195.214 C 465.075 195.246, 462.375 195.442, 461 195.650 M 159.142 198.547 C 158.040 199.948, 156.858 202.535, 156.515 204.297 C 156.173 206.059, 155.384 209.629, 154.762 212.232 C 154.140 214.835, 153.925 217.258, 154.284 217.618 C 155.260 218.593, 160 215.178, 160 213.500 C 160 208.117, 172.924 207.659, 178.425 212.847 C 182.266 216.468, 186.781 217.735, 187.662 215.439 C 188.440 213.412, 174.962 199.418, 170.282 197.393 C 165.272 195.224, 161.443 195.621, 159.142 198.547 M 258.158 199.118 C 257.184 200.679, 256.542 200.942, 255.718 200.118 C 254.053 198.453, 242.505 198.687, 241.072 200.414 C 240.426 201.191, 237.919 202.758, 235.499 203.896 C 231.140 205.944, 231.113 205.989, 232.544 208.732 C 233.338 210.254, 233.990 213.468, 233.994 215.872 C 233.999 219.645, 234.206 220.074, 235.500 219 C 236.325 218.315, 237 216.926, 237 215.912 C 237 213.488, 242.749 206.990, 244.854 207.035 C 245.759 207.055, 247.599 207.680, 248.942 208.423 C 251.098 209.618, 251.708 209.537, 254.150 207.731 C 256.440 206.038, 257.182 205.906, 258.458 206.965 C 259.816 208.092, 260 207.575, 260 202.622 C 260 196.266, 259.972 196.213, 258.158 199.118 M 435.736 199.081 C 438.029 201.476, 434.395 203.995, 428.595 204.033 C 425.793 204.051, 420.350 204.520, 416.500 205.075 C 412.650 205.631, 407.587 206.350, 405.250 206.673 C 400.761 207.293, 399.336 210.996, 402.046 215 C 402.814 216.135, 402.918 215.881, 402.474 213.956 C 401.215 208.501, 409.004 206.061, 427.807 206.020 C 437.192 206, 450.817 204.323, 452.303 203.006 C 453.067 202.329, 445.537 199.942, 438 198.472 C 435.156 197.917, 434.732 198.032, 435.736 199.081 M 181 202.500 C 185.049 206.678, 184.841 206.618, 184.231 203.426 C 183.937 201.891, 182.755 200.477, 181.304 199.926 C 177.436 198.455, 177.397 198.783, 181 202.500 M 361.112 200.889 L 357.723 202.695 360.987 203.347 C 366.323 204.415, 367.441 204.237, 366.036 202.544 C 365.372 201.743, 365.118 200.618, 365.473 200.044 C 366.398 198.547, 364.998 198.819, 361.112 200.889 M 345 203 C 345 205.314, 345.741 205.375, 352.423 203.615 L 357.346 202.318 353.423 201.670 C 346.633 200.549, 345 200.807, 345 203 M 487.506 203.006 C 488.504 204.110, 489.376 204.897, 489.444 204.756 C 489.511 204.615, 490.169 203.713, 490.905 202.750 C 492.117 201.167, 491.932 201, 488.967 201 C 485.750 201, 485.723 201.037, 487.506 203.006 M 506.976 202.529 C 505.923 203.798, 506.098 204.475, 508 206.500 C 509.843 208.461, 510.057 209.227, 509.090 210.392 C 508.090 211.596, 508.238 211.751, 509.958 211.301 C 513.116 210.475, 513.403 209.174, 511.366 204.919 C 509.289 200.582, 508.809 200.321, 506.976 202.529 M 218.250 205.089 C 214.813 206.694, 212 208.246, 212 208.539 C 212 208.831, 212.830 208.626, 213.845 208.083 C 216.316 206.761, 220 209.334, 220 212.382 C 220 214.810, 216.233 219, 214.051 219 C 213.324 219, 213.950 219.959, 215.440 221.132 C 217.493 222.746, 218.007 223.836, 217.559 225.620 C 216.978 227.936, 220.044 235.131, 224.178 241.154 C 225.180 242.614, 226 244.707, 226 245.805 C 226 248.256, 215.506 257.584, 211.665 258.548 C 209.700 259.041, 209.222 259.563, 209.941 260.428 C 213.318 264.498, 207.966 272.568, 203.106 270.734 C 198.846 269.126, 187.794 275.128, 190.336 277.669 C 190.657 277.990, 194.375 277.439, 198.599 276.444 L 206.278 274.636 209.710 278.381 C 212.357 281.269, 213.080 282.855, 212.868 285.313 C 212.717 287.066, 213.022 288.620, 213.547 288.767 C 214.071 288.914, 214.788 285.764, 215.139 281.767 C 216.163 270.129, 217.670 264.743, 220.532 262.500 C 225.759 258.402, 239.056 244.642, 241.180 241.134 C 242.389 239.135, 244.081 236.392, 244.939 235.039 C 245.798 233.685, 245.968 232.905, 245.318 233.305 C 244.656 233.713, 243.557 233.250, 242.818 232.251 C 242.093 231.271, 240.375 229.906, 239 229.219 C 228.467 223.950, 226.313 221.420, 226.100 214.064 C 226.041 212.027, 225.119 209.691, 223.836 208.325 C 221.737 206.091, 221.726 205.960, 223.491 204.010 C 225.710 201.558, 225.900 201.518, 218.250 205.089 M 493.750 205.080 C 489.860 207.346, 494.633 214.519, 499.146 213.189 C 502.072 212.327, 506 209.780, 506 208.745 C 506 205.863, 497.019 203.176, 493.750 205.080 M 480.490 206.017 C 480.144 206.576, 480.005 208.212, 480.181 209.653 C 480.650 213.506, 477.866 214.943, 474.167 212.758 C 471.613 211.249, 469.821 211.163, 458.393 211.999 C 451.302 212.517, 440.516 212.955, 434.424 212.971 C 423.922 212.998, 423.227 213.129, 421 215.500 C 419.119 217.502, 418.974 218, 420.269 218 C 421.159 218, 422.524 218.910, 423.303 220.022 C 424.583 221.850, 424.845 221.891, 426.039 220.453 C 427.174 219.085, 430.240 218.880, 447.930 218.988 C 478.540 219.176, 478.191 219.185, 482.500 218.111 C 484.700 217.562, 487.756 216.849, 489.290 216.527 L 492.081 215.942 488.540 212.603 C 486.593 210.766, 485 208.304, 485 207.132 C 485 204.881, 481.696 204.064, 480.490 206.017 M 297.374 208.488 C 296.573 210.185, 296.666 211.424, 297.750 213.492 C 298.667 215.243, 298.970 217.560, 298.582 219.871 C 297.218 228.006, 297.007 227.604, 303.823 229.807 C 306.642 230.719, 306.970 230.668, 305.980 229.475 C 305.241 228.585, 305.060 226.604, 305.487 224.074 C 306.061 220.681, 305.756 219.547, 303.464 216.542 C 301.980 214.596, 300.242 211.481, 299.602 209.618 C 298.468 206.322, 298.410 206.292, 297.374 208.488 M 19.500 210.726 L 16.500 212.372 19 213.086 C 23.622 214.407, 28.027 214.094, 28.677 212.399 C 29.976 209.015, 24.453 208.008, 19.500 210.726 M 143.492 211.222 C 140.609 212.775, 140.595 212.806, 141.980 214.476 C 143.789 216.655, 144.690 216.371, 145.440 213.382 C 146.253 210.146, 146.004 209.870, 143.492 211.222 M 359.204 211.898 C 360.942 213.296, 361.690 214.645, 361.295 215.673 C 360.874 216.770, 361.124 217.113, 362.091 216.764 C 362.866 216.484, 364.432 217.100, 365.570 218.133 C 367.241 219.649, 368.544 219.887, 372.320 219.370 C 380.364 218.267, 377.617 213.075, 368.391 211.944 C 365.151 211.547, 361.150 210.884, 359.500 210.472 L 356.500 209.722 359.204 211.898 M 411.792 210.925 C 406.555 211.657, 405.128 212.528, 406.659 214.059 C 407.360 214.760, 408.082 214.607, 408.938 213.575 C 409.853 212.472, 411.323 212.220, 414.384 212.639 C 417.532 213.071, 418.910 212.813, 419.911 211.607 C 421.420 209.788, 420.488 209.710, 411.792 210.925 M 242.035 212.934 C 241.466 213.998, 241 215.512, 241 216.299 C 241 217.086, 240.039 218.952, 238.865 220.444 C 236.937 222.895, 236.880 223.309, 238.279 224.708 C 240.840 227.268, 248.617 220.339, 246.192 217.659 C 244.617 215.919, 244.650 215.702, 246.744 214.006 C 248.621 212.486, 248.725 212.108, 247.404 211.601 C 244.671 210.553, 243.101 210.943, 242.035 212.934 M 98 215.291 C 95.525 216.482, 93.373 217.518, 93.219 217.593 C 93.064 217.668, 93.739 219.159, 94.719 220.906 C 96.432 223.960, 96.684 224.058, 101.276 223.444 C 105.925 222.822, 106.164 222.921, 110.218 227.153 C 112.509 229.544, 113.622 230.565, 112.692 229.421 C 110.383 226.584, 110.568 223.088, 113.174 220.314 C 114.825 218.557, 114.988 218, 113.849 218 C 113.024 218, 111.292 216.875, 110 215.500 C 107.135 212.450, 104.012 212.396, 98 215.291 M 126.345 214.829 C 128.524 217.237, 128.544 217.160, 124.500 222 C 122.575 224.304, 121 226.796, 121 227.538 C 121 228.280, 120 229.587, 118.777 230.443 C 116.560 231.996, 116.563 232, 119.639 232 C 122.334 232, 122.666 231.705, 122.275 229.657 C 121.743 226.877, 128.925 216.656, 132.947 214.469 C 135.393 213.138, 135.274 213.078, 130.095 213.040 C 124.921 213.002, 124.761 213.078, 126.345 214.829 M 162.919 215.663 C 162.139 217.128, 160.150 219.201, 158.500 220.270 C 156.850 221.338, 156.259 221.965, 157.187 221.662 C 158.116 221.359, 160.591 220.640, 162.687 220.065 C 164.784 219.490, 167.816 218.144, 169.425 217.075 C 172.104 215.294, 172.595 215.256, 175.243 216.626 C 178.003 218.053, 178.088 218.033, 177.103 216.193 C 174.976 212.219, 164.954 211.845, 162.919 215.663 M 254.346 215.249 C 253.921 215.937, 253.695 217.660, 253.844 219.079 C 254.150 221.990, 251.779 224.513, 249.545 223.656 C 248.062 223.087, 246.329 224.662, 247.333 225.666 C 249.925 228.258, 260.668 218.945, 258.844 215.686 C 257.734 213.701, 255.440 213.479, 254.346 215.249 M 502.099 216.066 C 499.967 217.841, 499.840 218.332, 500.967 220.438 C 501.665 221.742, 501.919 223.322, 501.532 223.948 C 500.691 225.309, 502.845 228.214, 504.113 227.430 C 505.510 226.567, 505.149 223.369, 503.500 222 C 501.541 220.374, 501.598 218.102, 503.655 215.829 C 505.811 213.446, 505.118 213.552, 502.099 216.066 M 1 216.846 C 1 218.241, 2.880 219.879, 7.347 222.377 C 16.874 227.705, 18.930 231.899, 11.418 230.680 C 9.007 230.289, 7.391 230.691, 5.546 232.143 C 2.204 234.771, 2.330 235.928, 6.375 239.743 C 10.343 243.486, 10.747 246.934, 7.790 251.792 C 6.217 254.374, 5.927 256.029, 6.444 259.474 L 7.102 263.866 3.801 264.183 C -0.399 264.586, -0.739 267.358, 3.354 267.826 C 8.092 268.368, 11.215 264.618, 10.423 259.338 C 9.929 256.044, 10.238 254.340, 11.790 251.792 C 14.660 247.077, 14.291 243.700, 10.410 239.166 C 6.537 234.641, 6.745 234.022, 11.904 234.714 C 15.145 235.149, 15.988 234.831, 17.841 232.475 C 20.689 228.855, 20.601 228.318, 16.563 224.635 C 10.674 219.263, 1 214.422, 1 216.846 M 189.724 218.556 L 186.948 220.949 189.547 221.601 C 192.759 222.407, 194.313 221.013, 193.280 218.251 C 192.502 216.169, 192.493 216.170, 189.724 218.556 M 119.291 219.775 C 116.446 221.617, 115.069 223.229, 115.041 224.750 C 114.984 227.894, 116.023 227.545, 119.563 223.232 C 125.251 216.303, 125.222 215.935, 119.291 219.775 M 197.481 218.940 C 197.791 219.918, 197.116 221.854, 195.945 223.343 C 193.884 225.963, 193.882 226, 195.846 226 C 199.730 226, 206.291 220.957, 204.603 219.269 C 202.918 217.585, 196.963 217.310, 197.481 218.940 M 493.751 218.440 C 492.230 219.552, 492.261 219.817, 494.140 221.695 C 495.458 223.014, 496.240 225.203, 496.342 227.864 C 496.513 232.316, 497.053 232.846, 499.016 230.481 C 500.044 229.242, 499.970 228.624, 498.614 227.126 C 497.700 226.116, 497.204 224.632, 497.512 223.829 C 498.538 221.156, 495.665 217.040, 493.751 218.440 M 132.039 222.189 C 130.018 224.358, 129.249 228, 130.813 228 C 132.368 228, 137.214 222.156, 136.550 221.081 C 135.546 219.457, 134.298 219.763, 132.039 222.189 M 408.031 221.747 C 407.987 223.529, 401.029 231, 399.415 231 C 398.621 231, 398.302 231.622, 398.641 232.507 C 399.105 233.716, 399.899 233.418, 402.645 231.007 C 406.530 227.596, 408.543 227.276, 411.171 229.655 C 412.622 230.968, 412.999 231.020, 412.995 229.905 C 412.988 228.133, 408.074 220.055, 408.031 221.747 M 415.119 225.478 C 417.907 230.203, 416.958 249.785, 413.730 254.151 C 412.238 256.170, 411.915 257.655, 412.422 260.166 C 414.261 269.275, 414.251 269.416, 411.580 271.925 C 406.810 276.406, 409.355 282.616, 417.376 286.067 C 425.513 289.567, 427.558 284.671, 421.750 275.598 C 417.890 269.568, 417.471 261.018, 420.507 250.237 C 421.853 245.456, 422.147 241.786, 421.747 234.737 C 421.081 223.002, 420.662 222, 416.427 222 L 413.067 222 415.119 225.478 M 468.578 222.750 C 468.162 223.162, 458.975 223.500, 448.161 223.500 C 425.819 223.500, 427.966 222.398, 429.645 233 L 430.517 238.500 434.508 238.844 C 436.704 239.033, 441.466 238.637, 445.090 237.964 C 450.366 236.984, 452.452 236.994, 455.551 238.017 C 460.338 239.597, 470.928 239.668, 477.537 238.166 C 480.267 237.545, 484.186 236.784, 486.248 236.474 C 490.943 235.768, 493.421 231.759, 492.429 226.472 C 491.689 222.530, 490.541 222.262, 482.127 224.066 C 478.057 224.939, 476.608 224.849, 474.128 223.566 C 470.739 221.814, 469.678 221.658, 468.578 222.750 M 160.571 224.721 C 157.860 225.515, 154.564 225.959, 153.245 225.707 C 151.535 225.380, 151.156 225.556, 151.924 226.324 C 153.809 228.209, 153.094 230.888, 149.675 234.747 C 145.603 239.343, 141.650 261, 144.883 261 C 145.877 261, 146.966 257.578, 146.986 254.391 C 147.003 251.836, 154.551 243, 156.717 243 C 159.103 243, 164.463 249.271, 165.784 253.608 C 167.408 258.941, 170.661 264, 172.466 264 C 175.347 264, 175.362 259.291, 172.499 253.817 C 170.134 249.293, 169.866 247.898, 170.422 242.985 C 170.967 238.168, 170.752 236.954, 168.945 234.657 C 167.781 233.178, 166.530 230.013, 166.165 227.623 L 165.500 223.277 160.571 224.721 M 143.934 225.579 C 143.191 226.475, 141.551 227.600, 140.291 228.079 C 138.336 228.823, 138 229.664, 138 233.820 C 138 237.430, 137.479 239.161, 135.987 240.512 C 133.984 242.324, 133.990 242.346, 137.237 245.068 C 140.956 248.186, 141.801 247.441, 141.930 240.934 C 141.984 238.163, 142.781 236.677, 145.500 234.269 C 149.406 230.812, 149.914 228.137, 147.143 225.630 C 145.430 224.079, 145.183 224.075, 143.934 225.579 M 257.069 228.087 C 254.632 230.290, 252.157 232.959, 251.569 234.017 C 247.927 240.573, 244.510 244.676, 230 259.922 C 228.625 261.367, 226.200 263.478, 224.612 264.613 L 221.724 266.676 221.612 279.563 C 221.479 294.849, 222.461 296.118, 228.851 288.917 C 232.405 284.912, 232.794 284.732, 235.700 285.746 C 241.207 287.665, 242.320 282.880, 239.849 267.917 C 238.144 257.591, 239.108 255.462, 251.472 242.252 C 260.698 232.396, 262 230.571, 262 227.502 C 262 225.576, 261.887 224.018, 261.750 224.041 C 261.613 224.064, 259.506 225.884, 257.069 228.087 M 67.471 228.032 C 66.459 229.150, 64.178 230.963, 62.402 232.061 C 60.625 233.159, 57.797 236.199, 56.117 238.817 C 54.437 241.435, 51.756 244.544, 50.159 245.724 C 47.716 247.531, 47.242 248.604, 47.163 252.507 C 47.048 258.232, 48.454 258.064, 52.043 251.924 C 54.739 247.310, 60.048 243, 63.036 243 C 66.008 243, 77.394 251.414, 79 254.797 L 80.500 257.957 89.727 257.978 C 106.196 258.017, 113.043 252.993, 112.989 240.912 C 112.977 238.252, 105.762 230, 103.448 230 C 101.521 230, 99.363 233.713, 98.527 238.465 C 95.347 256.528, 85.741 251.708, 85.643 232 C 85.617 226.976, 84.823 226.038, 80.576 226.015 L 77.651 226 79.826 228.314 C 82.278 230.924, 82.490 233.167, 80.889 239.527 C 78.184 250.270, 71.596 245.989, 72.174 233.864 C 72.413 228.845, 72.144 226.881, 71.168 226.508 C 69.364 225.820, 69.538 225.748, 67.471 228.032 M 175 228.231 C 175 229.305, 175.917 231.351, 177.038 232.776 C 178.730 234.927, 179.037 236.610, 178.844 242.675 C 178.643 248.952, 178.935 250.421, 180.915 253.099 C 184.691 258.207, 184.749 262.797, 181.095 267.388 C 177.553 271.837, 177.656 271.488, 179.094 274.176 C 180.144 276.138, 180.265 276.094, 182.115 273.051 C 183.175 271.309, 185.380 269.122, 187.015 268.192 C 190.306 266.319, 190.855 263.513, 188.532 260.441 C 186.292 257.480, 186.688 255.694, 190.379 252.117 C 194.886 247.749, 200.033 247.036, 206.480 249.888 C 209.106 251.050, 211.629 252, 212.087 252 C 213.390 252, 218 246.674, 218 245.167 C 218 244.016, 210.513 228.251, 209.424 227.109 C 209.219 226.894, 207.010 228.390, 204.515 230.434 L 199.979 234.151 192.745 233.028 C 187.635 232.235, 184.776 231.223, 183.006 229.578 C 179.544 226.362, 175 225.597, 175 228.231 M 521 227.711 C 521 228.183, 522.462 229.431, 524.250 230.485 L 527.500 232.402 525.881 229.951 C 524.288 227.541, 521 226.032, 521 227.711 M 126.450 230.798 C 126.870 232.148, 126.675 233.687, 125.977 234.528 C 125.029 235.670, 125.293 236.559, 127.278 238.918 L 129.767 241.877 131.884 239.624 C 134.830 236.488, 134.975 229.374, 132.056 231.197 C 130.442 232.205, 129.740 232.079, 127.923 230.456 C 125.734 228.500, 125.734 228.500, 126.450 230.798 M 295.397 232.527 C 296.408 236.671, 299.286 242.325, 300.587 242.725 C 301.817 243.102, 305.235 235.189, 304.415 233.862 C 304.122 233.388, 302.993 233, 301.906 233 C 300.819 233, 298.747 232.225, 297.301 231.277 L 294.671 229.555 295.397 232.527 M 404.655 233.829 C 402.348 236.378, 402.586 238.926, 405.536 243.268 C 408.918 248.245, 409 248.156, 409 239.500 C 409 231.506, 407.972 230.164, 404.655 233.829 M 115.190 236.618 C 116.081 237.510, 117.348 237.903, 118.011 237.493 C 119.411 236.628, 117.506 235.041, 115.036 235.015 C 113.815 235.003, 113.840 235.269, 115.190 236.618 M 392.250 238.079 C 390.821 239.818, 390 242.158, 390 244.495 C 390 247.982, 380.953 259, 378.089 259 C 375.975 259, 370.853 278.710, 371.787 283.250 C 372.177 285.146, 374 285.692, 374 283.912 C 374 283.314, 375.608 279.151, 377.572 274.662 C 381.564 265.542, 384.828 261.628, 393.250 255.862 C 399.447 251.620, 400.081 249.992, 397.491 244.983 C 396.661 243.378, 395.649 240.552, 395.241 238.703 L 394.500 235.341 392.250 238.079 M 44.667 236.667 C 43.268 238.065, 44.035 241, 45.800 241 C 47.906 241, 50 239.155, 50 237.300 C 50 235.965, 45.860 235.473, 44.667 236.667 M 565.077 239.447 L 562.654 240.755 564.902 241.469 C 567.494 242.292, 568.317 241.782, 567.838 239.648 C 567.550 238.363, 567.140 238.333, 565.077 239.447 M 120 242.345 C 120 244.764, 122.763 248, 124.829 248 C 126.073 248, 126.406 244.221, 125.393 241.582 C 124.380 238.942, 120 239.562, 120 242.345 M 20.687 243.805 C 17.338 247.301, 17.285 249.486, 20.500 251.592 C 23.553 253.592, 23.735 255.059, 20.891 254.738 C 17.400 254.344, 16.108 257.552, 18.709 260.154 C 20.481 261.926, 21.169 262.105, 22.370 261.108 C 23.301 260.336, 25.140 260.123, 27.336 260.535 C 32.691 261.540, 39.202 255.483, 36.765 251.764 C 35.869 250.396, 33.755 249.001, 32.068 248.664 C 29.956 248.241, 29 247.467, 29 246.180 C 29 241.292, 24.364 239.967, 20.687 243.805 M 355.250 241.706 C 354.012 241.944, 353 242.507, 353 242.956 C 353 244.322, 359.296 244.793, 362.495 243.667 L 365.500 242.610 363 241.904 C 360.201 241.115, 358.539 241.072, 355.250 241.706 M 312.095 245.915 C 314.467 249.122, 315.277 249.325, 324.426 249.005 C 327.695 248.891, 330.488 248.061, 332.729 246.538 L 336.107 244.243 332.723 243.608 C 330.862 243.259, 325.900 243.451, 321.696 244.036 C 316.093 244.815, 313.488 244.796, 311.934 243.965 C 309.864 242.857, 309.867 242.902, 312.095 245.915 M 371 244.500 C 371.760 245.416, 371.905 246.505, 371.372 247.297 C 370.893 248.011, 371.288 247.736, 372.250 246.686 C 374.574 244.152, 374.458 243, 371.878 243 C 370.104 243, 369.960 243.247, 371 244.500 M 517.600 245.671 C 518.072 247.227, 518.467 251.088, 518.479 254.250 C 518.493 258.026, 518.910 260, 519.693 260 C 520.350 260, 521.636 261.012, 522.552 262.250 C 524.159 264.420, 524.190 264.323, 523.435 259.500 C 523.005 256.750, 522.618 252.025, 522.576 249 C 522.503 243.704, 522.393 243.488, 519.622 243.171 C 516.888 242.859, 516.787 242.984, 517.600 245.671 M 266.507 251.165 C 254.889 261.412, 251.858 267.366, 251.827 280 C 251.811 286.172, 252.350 290.995, 253.363 293.768 C 254.222 296.115, 254.694 298.635, 254.412 299.368 C 254.131 300.101, 255.426 302.231, 257.290 304.100 C 259.154 305.970, 260.899 308.170, 261.169 308.988 C 261.570 310.208, 262.120 310.267, 264.213 309.313 C 267.012 308.037, 271 309.852, 271 312.402 C 271 314.726, 267.220 317.275, 264.535 316.762 C 262.370 316.348, 262 316.641, 262 318.770 C 262 321.145, 262.201 321.231, 266.250 320.571 C 268.587 320.190, 274.194 319.530, 278.708 319.105 C 286.459 318.375, 287.162 318.105, 291.312 314.280 C 295.811 310.133, 301.964 308, 309.427 308 C 311.257 308, 313.315 307.325, 314 306.500 C 315.693 304.460, 319.631 304.650, 324.859 307.022 C 330.310 309.495, 331.558 309.493, 334.727 307 C 336.388 305.694, 338.784 305, 341.635 305 C 346.186 305, 348.189 303.694, 351.582 298.516 C 353.964 294.879, 352.257 293.472, 345.706 293.671 C 342.843 293.758, 337.909 293.889, 334.742 293.962 C 331.575 294.035, 327.131 294.748, 324.866 295.547 C 319.305 297.509, 316.120 297.370, 312.226 294.996 C 307.690 292.231, 304.857 292.496, 301.500 296 C 299.192 298.409, 297.791 299, 294.389 299 C 292.059 299, 287.875 299.526, 285.091 300.168 C 279.295 301.506, 276 299.758, 276 295.345 C 276 293.667, 275.431 293, 274 293 C 271.628 293, 271.416 294.270, 273.500 296 C 275.896 297.989, 275.257 300.567, 271.566 303.808 C 264.137 310.331, 257.764 307.899, 258.965 299 C 259.077 298.175, 260.324 296.279, 261.737 294.786 L 264.305 292.072 261.653 286.161 C 255.649 272.782, 260.032 262.192, 276.500 250.286 C 279 248.478, 279.315 247.815, 278.393 246.308 C 276.486 243.194, 274.732 243.911, 266.507 251.165 M 22.667 245.667 C 21.375 246.958, 22.025 248.537, 24.250 249.513 C 25.847 250.213, 26.511 251.369, 26.536 253.493 C 26.577 256.854, 28.618 257.810, 31.948 256.028 C 34.756 254.525, 34.521 253.347, 31.250 252.530 C 27.705 251.646, 25 249.185, 25 246.845 C 25 244.987, 23.901 244.432, 22.667 245.667 M 153.068 249.904 C 150.089 254.088, 150.525 254.564, 153.887 250.800 C 156.514 247.860, 156.943 247.701, 158.637 249.034 C 160.350 250.382, 160.390 250.359, 159.128 248.750 C 157.166 246.249, 155.436 246.578, 153.068 249.904 M 118 251.932 C 118 252.444, 119.463 253.871, 121.250 255.102 L 124.500 257.341 121.563 254.170 C 118.396 250.752, 118 250.503, 118 251.932 M 155.004 256.250 C 154.414 258.587, 153.497 261.534, 152.966 262.797 C 152.435 264.060, 152.036 265.860, 152.079 266.797 C 152.122 267.734, 152.640 267.150, 153.228 265.500 C 153.817 263.850, 155.131 261.427, 156.149 260.115 C 158.084 257.622, 158.700 252, 157.039 252 C 156.510 252, 155.594 253.912, 155.004 256.250 M 194.228 253.039 C 191.064 254.310, 190.412 256.734, 192.350 260.016 C 194.573 263.779, 194.428 265.909, 191.750 268.804 C 189.518 271.216, 189.543 271.214, 194.877 268.447 C 199.469 266.065, 200.674 265.816, 203.127 266.742 C 205.501 267.638, 206 267.564, 206 266.318 C 206 263.243, 201.973 259, 199.054 259 C 194.954 259, 193.212 256.528, 195.517 253.981 C 197.510 251.779, 197.458 251.742, 194.228 253.039 M 310 258.059 C 310 258.538, 311.337 260.453, 312.970 262.314 C 315.689 265.410, 315.841 265.960, 314.766 268.810 C 313.149 273.093, 313.639 273.279, 323.145 271.999 C 335.677 270.311, 335.723 270.292, 336.469 266.313 C 336.832 264.379, 336.950 262.617, 336.731 262.398 C 336.115 261.782, 324.620 264.174, 323.550 265.141 C 320.850 267.582, 314 263.753, 314 259.802 C 314 258.939, 313.100 257.998, 312 257.710 C 310.900 257.423, 310 257.579, 310 258.059 M 454.250 257.662 C 452.543 258.351, 452.681 260.584, 454.615 263.535 C 456.625 266.603, 474.520 267.413, 475.643 264.487 C 477.316 260.127, 461.023 254.929, 454.250 257.662 M 485.152 257.885 C 483.175 259.138, 484.180 262.451, 486.643 262.804 C 488.240 263.033, 489.031 262.351, 489.831 260.054 C 490.958 256.821, 488.575 255.716, 485.152 257.885 M 113 259.031 C 113 260.320, 115.849 261.484, 116.764 260.569 C 117.137 260.196, 116.780 259.473, 115.971 258.961 C 114.035 257.737, 113 257.761, 113 259.031 M 274.379 261.953 C 268.197 266.499, 265.629 273.995, 270.250 274.005 C 274.133 274.014, 282.316 281.039, 283.969 285.784 C 285.767 290.943, 288.093 291.249, 297 287.500 C 303.926 284.585, 312.993 284.081, 315 286.500 C 316.728 288.582, 322.649 288.342, 327.859 285.978 C 330.257 284.890, 333.580 284, 335.244 284 L 338.270 284 335.756 282.023 C 332.100 279.147, 323.469 278.359, 318.482 280.446 C 311.604 283.326, 305.817 281.833, 299.266 275.487 C 296.263 272.579, 293.625 270.155, 293.403 270.100 C 293.182 270.045, 292.775 269.944, 292.500 269.875 C 292.225 269.806, 291.596 269.694, 291.103 269.625 C 289.570 269.411, 281.836 262.831, 282.425 262.242 C 283.195 261.472, 281.021 259, 279.575 259 C 278.925 259, 276.587 260.329, 274.379 261.953 M 60.923 262.861 L 58.624 264.723 62.853 267.521 L 67.082 270.320 64.041 273.458 C 60.225 277.395, 60.192 280.346, 63.923 284.077 C 67.681 287.835, 71.280 287.842, 77.174 284.104 C 85.809 278.628, 86.481 276.229, 81.258 269.525 C 75.361 261.956, 65.879 258.849, 60.923 262.861 M 164.212 264.250 C 163.644 264.938, 162.843 267.300, 162.433 269.500 C 162.022 271.700, 161.133 274.850, 160.457 276.500 C 158.678 280.839, 160.194 284.419, 163.463 283.599 C 171.985 281.460, 172.629 279.951, 167.984 273 C 165.029 268.578, 165.011 268.472, 166.927 266.889 C 168.387 265.684, 168.591 264.991, 167.739 264.139 C 166.278 262.678, 165.491 262.702, 164.212 264.250 M 402.671 264.416 C 401.961 266.266, 402.817 269, 404.107 269 C 405.233 269, 405.243 265.932, 404.124 264.166 C 403.443 263.092, 403.160 263.141, 402.671 264.416 M 509.924 265.620 C 508.591 267.060, 505.925 269.246, 504 270.476 C 501.558 272.036, 499.273 275.099, 496.442 280.606 L 492.383 288.500 510.442 288.314 C 520.374 288.212, 529.093 288.100, 529.817 288.064 C 531.543 287.980, 530.434 284.227, 527.848 281.396 C 526.549 279.975, 525.124 279.445, 523.456 279.764 C 519.035 280.609, 510.634 269.002, 512.377 264.459 C 513.167 262.402, 512.695 262.625, 509.924 265.620 M 363.597 268.337 C 362.525 274.051, 359.350 276.108, 356.577 272.884 C 351.187 266.618, 344.382 269.127, 345.165 277.092 C 345.435 279.842, 345.066 280.689, 343.250 281.487 C 339.096 283.310, 340.943 284, 349.981 284 C 358.742 284, 358.977 283.938, 359.593 281.484 C 359.941 280.100, 361.412 278.038, 362.862 276.901 C 364.451 275.656, 365.965 273.043, 366.668 270.332 C 367.310 267.856, 367.577 266.090, 367.260 266.407 C 366.943 266.723, 366.132 266.525, 365.458 265.965 C 364.544 265.207, 364.071 265.810, 363.597 268.337 M 104.250 268.662 C 101.571 269.743, 103.205 270.998, 107.250 270.968 C 111.204 270.939, 111.365 270.834, 109.559 269.468 C 107.563 267.959, 106.423 267.786, 104.250 268.662 M 122.250 269.119 C 118.531 270.193, 118.254 271.015, 120.829 273.345 C 123.846 276.076, 128.268 273.742, 127.275 269.943 C 126.711 267.789, 126.804 267.804, 122.250 269.119 M 521.598 269.879 C 520.027 271.625, 519.420 271.776, 518.110 270.746 C 516.663 269.609, 516.662 269.715, 518.097 271.945 C 521.677 277.507, 524.311 277.295, 523.816 271.483 L 523.500 267.765 521.598 269.879 M 263.136 274.875 C 262.931 282.969, 267.364 292.559, 270.346 290.470 C 274.677 287.437, 280 290.122, 280 295.339 C 280 296.896, 280.490 297.118, 282.750 296.584 C 284.262 296.228, 288.509 295.667, 292.187 295.338 C 297.826 294.834, 299.306 294.290, 301.624 291.870 C 304.983 288.364, 304.535 288.328, 297 291.500 C 287.065 295.682, 282.797 294.291, 280.113 286 C 278.854 282.110, 273.489 278, 269.669 278 C 266.867 278, 264.358 275.467, 263.727 272 C 263.477 270.625, 263.211 271.919, 263.136 274.875 M 72 271.722 C 63.898 274.766, 62.400 283.007, 69.950 282.996 C 72.541 282.992, 78.896 279.673, 80.235 277.624 C 82.926 273.506, 77.535 269.642, 72 271.722 M 138 271.721 C 133.922 272.452, 133.680 273.566, 136.823 277.145 C 138.460 279.010, 140.010 281.428, 140.267 282.518 C 140.524 283.608, 140.537 282.557, 140.296 280.183 C 140.002 277.290, 140.383 275.064, 141.452 273.433 C 143.134 270.866, 143.036 270.817, 138 271.721 M 186.573 272.570 C 183.027 276.115, 183.371 282, 187.124 282 C 189.178 282, 189.210 281.890, 187.655 280.171 C 186.745 279.165, 186 277.513, 186 276.500 C 186 275.487, 186.745 273.835, 187.655 272.829 C 189.674 270.597, 188.763 270.380, 186.573 272.570 M 144.477 275.037 C 144.125 275.607, 144.137 277.853, 144.505 280.029 C 145.215 284.235, 143.286 288.621, 139.032 292.471 C 136.427 294.828, 136.355 298, 138.905 298 C 141.099 298, 148.917 291.802, 150.715 288.638 C 153.181 284.297, 151.271 276.086, 147.455 274.621 C 145.333 273.807, 145.228 273.822, 144.477 275.037 M 479.251 276.750 C 478.064 280.205, 478.650 282, 480.967 282 C 482.713 282, 483.958 279.424, 483.986 275.750 C 484.009 272.855, 480.321 273.634, 479.251 276.750 M 200.500 280 C 199 280.645, 199.702 280.877, 203.309 280.930 C 206.276 280.973, 207.881 280.617, 207.500 280 C 206.762 278.806, 203.279 278.806, 200.500 280 M 108.641 284.250 C 104.593 290.730, 106.282 304, 111.154 304 C 113.486 304, 117.351 299.356, 116.615 297.438 C 116.257 296.505, 116.865 294.336, 118 292.500 C 120.105 289.094, 119.903 286.905, 117.193 283.750 C 115.026 281.227, 110.358 281.500, 108.641 284.250 M 179.102 286.142 C 176.166 289.854, 172.287 291.583, 159.353 294.944 C 157.072 295.537, 154.936 296.724, 154.607 297.582 C 153.949 299.296, 161.167 298.922, 169.468 296.813 C 171.651 296.259, 179.076 295.852, 185.968 295.908 C 199.612 296.020, 199.061 296.181, 203.752 290.715 C 208.716 284.930, 208.372 284.692, 196.202 285.487 C 186.961 286.090, 185.213 285.962, 184.080 284.596 C 182.315 282.470, 181.906 282.597, 179.102 286.142 M 110.986 290.750 C 110.979 293.363, 110.701 296.512, 110.370 297.750 C 109.914 299.450, 110.191 300, 111.500 300 C 112.793 300, 113.087 299.442, 112.658 297.801 C 112.313 296.481, 112.871 294.327, 114.053 292.414 C 116.261 288.841, 115.747 286, 112.893 286 C 111.303 286, 110.998 286.761, 110.986 290.750 M 477.568 287.575 C 476.702 288.441, 474.670 291.073, 473.053 293.423 C 471.436 295.773, 468.924 298.475, 467.470 299.428 C 462.963 302.380, 465.606 302.392, 472.529 299.450 C 479.462 296.504, 482 293.582, 482 288.550 C 482 285.630, 479.962 285.181, 477.568 287.575 M 336 287.774 C 329.425 288.525, 328.282 289.276, 332.500 290.075 C 334.740 290.500, 338.362 290.380, 340.733 289.802 C 345.869 288.551, 350.941 289.379, 354.293 292.016 L 356.789 293.979 357.443 291.371 C 357.803 289.937, 357.963 288.644, 357.799 288.497 C 357.326 288.073, 338.769 287.458, 336 287.774 M 361.941 292.637 C 360.795 295.310, 358.765 298.931, 357.429 300.682 C 353.549 305.769, 354.094 307.037, 359.055 304.472 C 364.927 301.435, 368.931 291.848, 365.513 289.010 C 364.257 287.969, 363.700 288.535, 361.941 292.637 M 310 289.474 C 310 290.792, 316.530 293.067, 319.314 292.719 L 322.500 292.320 319.372 292.160 C 317.652 292.072, 315.685 291.325, 315 290.500 C 313.868 289.136, 310 288.342, 310 289.474 M 569.230 291.551 C 566.135 293.719, 556.257 297, 552.824 297 C 550.209 297, 550.019 297.237, 550.619 299.750 C 552.179 306.275, 554.830 307.534, 560.636 304.506 C 562.211 303.685, 565.525 303.006, 568 302.999 C 570.475 302.992, 575.520 302.701, 579.211 302.352 L 585.922 301.718 581.873 297.109 C 575.712 290.095, 573.007 288.906, 569.230 291.551 M 56.171 295.746 C 48.644 302.274, 42 309.358, 42 310.855 C 42 311.650, 40.632 310.411, 38.960 308.103 C 35.098 302.772, 33.778 302.310, 30.035 304.975 C 28.366 306.164, 27 306.635, 27 306.023 C 27 304.430, 22.355 300, 20.685 300 C 19.912 300, 17.620 301.126, 15.593 302.502 C 12.157 304.833, 11.713 304.903, 9.054 303.528 C 6.436 302.174, 5.989 302.221, 3.601 304.099 C -2.288 308.732, 3.222 321.237, 10.363 319.445 C 11.685 319.113, 14.305 319.266, 16.185 319.785 C 19.107 320.592, 20.030 320.387, 22.551 318.369 C 25.641 315.897, 30.511 314.889, 28.200 317.200 C 25.095 320.305, 28.138 326.909, 32.837 327.263 C 34.309 327.374, 34.616 327.758, 33.911 328.607 C 33.369 329.261, 32.725 330.629, 32.481 331.648 C 32.238 332.667, 31.534 335.682, 30.917 338.349 C 29.816 343.111, 29.740 343.185, 26.648 342.517 C 17.865 340.620, 10 342.773, 10 347.073 C 10 349.730, 8.925 351.995, 7.643 352.041 C 5.077 352.132, -0.445 357.892, 1.366 358.587 C 2.354 358.966, 3.830 358.559, 4.866 357.621 C 5.851 356.730, 7.145 356, 7.740 356 C 9.360 356, 14 350.111, 14 348.055 C 14 345.946, 21.246 344.526, 24.129 346.069 C 29.380 348.879, 33.161 346.224, 34.908 338.500 C 35.530 335.750, 36.244 332.633, 36.496 331.573 C 37.349 327.979, 41.180 326.949, 44.546 329.410 C 46.399 330.765, 46.405 330.895, 44.688 332.792 C 40.002 337.971, 47.917 345.554, 54.038 341.750 C 55.815 340.646, 56.346 340.879, 58.597 343.750 C 63.241 349.673, 72.989 346.231, 80.484 336.022 C 84.825 330.108, 84.826 329.744, 80.500 326.293 C 78.575 324.757, 77 322.797, 77 321.937 C 77 317.897, 69.732 313.659, 66 315.523 C 64.625 316.210, 60.867 317.314, 57.649 317.978 L 51.799 319.184 48.940 315.842 C 44.455 310.599, 44.665 310.135, 56.112 300.060 C 60.476 296.218, 64 294.836, 64 296.965 C 64 299.837, 70.320 305, 73.854 305.015 C 75.859 305.024, 78.123 305.425, 78.884 305.907 C 79.664 306.401, 81.571 306.410, 83.252 305.928 C 85.313 305.337, 87.317 305.523, 89.727 306.530 C 91.924 307.448, 94.640 307.761, 97.056 307.375 C 99.632 306.963, 102.610 307.376, 106.109 308.631 L 111.324 310.500 106.912 311.176 C 104.485 311.548, 99.082 311.885, 94.905 311.926 C 85.538 312.017, 81.110 315.357, 85.512 319.010 C 86.343 319.700, 87.847 322.117, 88.853 324.382 C 91.443 330.210, 95.568 334.746, 98.951 335.489 C 100.952 335.929, 102.158 337.014, 102.850 338.999 C 104.826 344.667, 114.599 346.096, 130.171 342.994 C 138.783 341.278, 149.909 343.551, 155.764 348.221 C 159.104 350.886, 160.030 351.144, 164.500 350.655 C 169.666 350.090, 177.980 354.658, 175.065 356.460 C 173.549 357.397, 174.730 359, 176.937 359 C 179.617 359, 181.539 356.355, 180.109 354.632 C 178.367 352.533, 185.655 354.156, 190 356.835 C 193.704 359.119, 196.515 359.594, 197.443 358.093 C 198.236 356.809, 186.266 350.453, 181.665 349.714 C 177.524 349.049, 168 340.576, 168 337.556 C 168 333.801, 174.694 335.722, 180 341 C 184.163 345.142, 185.644 346, 188.623 346 C 194.920 346, 203.520 351.350, 203.509 355.261 C 203.498 359.204, 206.316 359.828, 206.846 356 C 207.036 354.625, 207.620 352.978, 208.144 352.339 C 209.243 351, 209.300 351.043, 199.325 345.783 C 195.373 343.700, 190.719 342, 188.965 342 C 186.540 342, 184.476 340.808, 180.310 337 C 173.948 331.186, 169.846 330.406, 166.174 334.314 C 162.931 337.766, 163.489 340.024, 168.816 345 C 171.465 347.475, 172.684 348.723, 171.525 347.772 C 169.895 346.435, 168.297 346.176, 164.459 346.624 C 159.975 347.148, 159.126 346.906, 155.596 344.089 C 153.450 342.376, 149.962 340.698, 147.846 340.359 C 143.291 339.631, 143.335 339.756, 146.500 336.591 C 147.880 335.211, 149 332.930, 149 331.500 C 149 329.073, 149.225 328.952, 152.556 329.576 C 155.451 330.120, 156.566 329.817, 158.556 327.947 C 165.663 321.271, 152.667 315.755, 144.663 322.051 C 143.300 323.123, 141.311 324, 140.242 324 C 134.879 324, 126.547 333.444, 128.770 337.003 C 129.755 338.580, 129.622 338.985, 127.947 339.517 C 124.207 340.704, 108.864 340.777, 107.926 339.613 C 107.433 339.001, 105.886 337.071, 104.488 335.324 C 103.090 333.576, 100.626 331.857, 99.012 331.503 C 96.708 330.997, 95.511 329.701, 93.442 325.471 C 91.993 322.508, 90.175 319.560, 89.403 318.920 C 86.743 316.712, 88.039 316.304, 99.696 315.679 C 109.545 315.151, 111.708 314.736, 113.394 313.051 L 115.395 311.049 113.215 308.728 C 110.066 305.377, 101.755 302.624, 97.056 303.375 C 94.640 303.761, 91.924 303.448, 89.727 302.530 C 87.317 301.523, 85.313 301.337, 83.252 301.928 C 81.571 302.410, 79.664 302.401, 78.884 301.907 C 78.123 301.425, 75.846 301.024, 73.825 301.015 C 70.541 301.002, 69.901 300.548, 67.812 296.750 C 64.667 291.033, 61.882 290.793, 56.171 295.746 M 406.009 294.490 C 401.795 298.976, 406.696 304.761, 415.556 305.759 C 423.762 306.684, 428.361 298.789, 422.365 294.073 C 418.332 290.900, 409.162 291.134, 406.009 294.490 M 378.693 294.526 C 369.212 296.594, 366.120 301.589, 371.635 305.927 C 374.927 308.517, 378.112 308.536, 386.161 306.013 C 389.647 304.920, 393.434 304.020, 394.576 304.013 C 397.746 303.993, 401.703 299.343, 400.368 297.205 C 397.720 292.963, 390.151 292.028, 378.693 294.526 M 264.530 295.967 C 262.790 297.889, 262.118 302.452, 263.388 303.721 C 263.738 304.072, 265.594 303.610, 267.513 302.695 C 271.423 300.831, 272.033 298.244, 269.171 295.655 C 266.867 293.570, 266.688 293.582, 264.530 295.967 M 540.714 295.987 C 540.378 297.271, 540.948 297.667, 543.137 297.667 C 546.619 297.667, 546.960 295.417, 543.577 294.770 C 541.887 294.447, 541.020 294.815, 540.714 295.987 M 446.500 296.720 C 443.750 297.560, 440.938 298.403, 440.250 298.593 C 439.563 298.782, 439 299.851, 439 300.969 C 439 303.402, 438.837 303.384, 443.462 301.451 C 445.501 300.600, 447.918 299.976, 448.834 300.067 C 453.320 300.508, 456.134 299.784, 458.694 297.532 L 461.500 295.063 456.500 295.127 C 453.750 295.162, 449.250 295.879, 446.500 296.720 M 408.176 297.675 C 408.637 300.067, 412.666 301.967, 417.316 301.985 C 420.893 301.999, 421.113 301.827, 420.816 299.250 C 420.513 296.610, 420.247 296.488, 414.167 296.200 C 408.554 295.934, 407.873 296.102, 408.176 297.675 M 379 298.442 C 374.617 299.371, 373.500 300.003, 373.500 301.554 C 373.500 304.375, 377.816 304.555, 385.983 302.074 C 389.738 300.933, 393.753 300, 394.905 300 C 397.367 300, 397.692 298.480, 395.418 297.607 C 393.090 296.714, 385.280 297.111, 379 298.442 M 216.294 299.843 C 215.730 300.204, 214.286 302.300, 213.086 304.500 C 211.885 306.700, 210.143 309.722, 209.216 311.215 C 206.859 315.008, 208.620 316.814, 212.934 315.028 C 216.292 313.636, 223 306.747, 223 304.688 C 223 301.747, 218.450 298.459, 216.294 299.843 M 541.006 303.484 C 539.656 307.036, 539.640 307, 542.566 307 C 544.760 307, 545.087 306.612, 544.816 304.327 C 544.388 300.709, 542.242 300.234, 541.006 303.484 M 16.004 306.650 C 12.917 309.248, 12.785 309.268, 9.395 307.651 C 5.228 305.664, 4.132 307.040, 5.685 312.306 C 6.523 315.149, 6.988 315.471, 9.918 315.232 C 11.729 315.085, 14.648 315.361, 16.406 315.846 C 19.066 316.581, 20.096 316.333, 22.551 314.369 C 24.777 312.589, 26.747 312.009, 30.583 312.005 C 36.482 311.999, 37.322 311.488, 35.701 308.892 C 34.206 306.499, 33.482 306.521, 29.911 309.063 C 26.616 311.410, 25.608 311.077, 23.467 306.937 C 21.592 303.310, 20.044 303.251, 16.004 306.650 M 447 310 C 446.175 310.533, 443.790 310.976, 441.699 310.985 C 438.313 310.998, 437.740 311.378, 436.449 314.468 C 434.610 318.869, 434.433 318.132, 438.500 323 C 442.654 327.971, 442.908 330.850, 439.459 333.849 C 438.061 335.064, 437.070 336.383, 437.256 336.779 C 437.442 337.176, 438.215 338.743, 438.973 340.262 C 440.250 342.822, 440.155 343.228, 437.675 345.817 C 432.564 351.152, 434.890 354.950, 441.043 351.315 C 443.387 349.931, 444.358 349.842, 446.494 350.815 C 450.493 352.637, 459.897 352.230, 464.756 350.024 C 468.613 348.274, 469.385 348.224, 472.999 349.500 C 476.986 350.906, 476.987 350.906, 481.556 346.952 C 486.314 342.833, 487.887 342.748, 490.955 346.445 C 492.421 348.212, 496.555 348.529, 497.531 346.950 C 497.935 346.296, 499.485 346.895, 501.639 348.538 C 505.800 351.712, 507.444 351.267, 509.468 346.421 C 512.477 339.220, 511.715 337, 506.235 337 C 503.341 337, 499.968 337.805, 497.643 339.052 C 495.537 340.180, 492.619 340.989, 491.157 340.850 C 489.696 340.710, 486.309 340.971, 483.632 341.430 C 478.782 342.259, 470.984 341.180, 464.500 338.782 C 462.850 338.172, 459.925 337.723, 458 337.784 C 456.075 337.846, 453.409 337.918, 452.075 337.945 C 449.402 337.998, 446 335.436, 446 333.368 C 446 331.113, 450.742 328.698, 453.921 329.334 C 458.850 330.320, 459.625 323.160, 455.406 315.611 C 452.174 309.827, 449.760 308.216, 447 310 M 251 311.220 C 251 313.098, 245.075 318.718, 240.896 320.805 C 237.034 322.732, 236.198 326.314, 239.500 326.786 C 244.710 327.530, 254.565 317.871, 253.811 312.761 C 253.463 310.404, 251 309.055, 251 311.220 M 240.609 311.716 C 239.569 311.983, 237.319 313.091, 235.609 314.178 C 232.833 315.943, 232.768 316.086, 235 315.510 C 239.545 314.339, 243 312.770, 243 311.879 C 243 311.395, 242.887 311.052, 242.750 311.116 C 242.613 311.180, 241.649 311.450, 240.609 311.716 M 396.491 317.255 C 394.837 319.040, 392.016 321.271, 390.224 322.214 C 388.030 323.367, 386.772 324.890, 386.376 326.872 C 385.893 329.286, 385.147 329.937, 382.243 330.482 C 378.460 331.192, 373 335.850, 373 338.367 C 373 339.204, 374.037 341.094, 375.304 342.567 C 378.600 346.399, 382.525 345.285, 388.598 338.792 C 392.068 335.083, 394.455 333.461, 397.427 332.796 C 403.412 331.456, 407 327.611, 407 322.535 C 407 314.162, 401.788 311.543, 396.491 317.255 M 36.005 317.395 C 33.031 318.188, 31.390 319.214, 31.156 320.427 C 30.665 322.980, 32.707 323.944, 36.377 322.892 C 38.088 322.401, 40.952 322, 42.743 322 C 46.484 322, 46.847 320.847, 44 318 C 41.748 315.748, 42.086 315.774, 36.005 317.395 M 65.962 319.499 C 62.674 321.204, 52.707 323.208, 50.921 322.523 C 48.305 321.519, 46.723 325.648, 48.616 328.537 C 50.152 330.881, 50.147 331.180, 48.542 332.954 C 46.213 335.527, 47.343 339, 50.508 339 C 51.814 339, 53.160 338.550, 53.500 338 C 54.701 336.056, 57.968 337.038, 60.158 340 C 63.922 345.091, 71.989 342.442, 77.869 334.185 C 80.626 330.312, 80.563 329.827, 77.041 327.824 C 75.219 326.787, 73.777 324.918, 73.260 322.925 C 72.263 319.075, 69.385 317.724, 65.962 319.499 M 396.930 321.277 C 394.967 323.050, 392.655 324.950, 391.794 325.500 C 390.932 326.050, 389.936 327.761, 389.581 329.302 C 388.975 331.933, 389.069 332.033, 391.114 330.939 C 392.312 330.298, 395.364 329.262, 397.896 328.636 C 402.495 327.501, 402.500 327.495, 402.805 322.750 C 403.174 316.994, 402 316.700, 396.930 321.277 M 148.376 324.086 C 146.657 324.584, 144.690 325.669, 144.003 326.496 C 143.317 327.323, 141.720 328, 140.454 328 C 137.705 328, 132 332.539, 132 334.727 C 132 336.020, 132.929 336.166, 137.635 335.613 C 144.602 334.794, 145 334.550, 145 331.096 C 145 326.820, 147.890 324.799, 152.866 325.594 C 156.289 326.142, 157 325.976, 157 324.628 C 157 322.795, 153.573 322.579, 148.376 324.086 M 484.392 325.669 C 482.804 327.802, 481.452 328.500, 478.906 328.500 C 476.449 328.500, 475.433 328.990, 475.181 330.298 C 474.384 334.439, 479.540 336.419, 483.441 333.468 C 484.620 332.576, 487.618 332, 491.076 332 C 494.208 332, 498.173 331.410, 499.888 330.689 L 503.005 329.379 500.252 326.775 C 495.760 322.525, 487.178 321.927, 484.392 325.669 M 579.500 325.419 C 578.400 326.254, 575.882 326.951, 573.905 326.968 C 569.373 327.008, 566.345 329.907, 567.866 332.749 C 569.927 336.601, 571.517 337.184, 574.807 335.296 C 577.834 333.559, 577.871 333.566, 580.016 336.293 C 581.204 337.804, 583.487 339.718, 585.088 340.546 C 588.644 342.385, 588.857 344.747, 585.542 345.579 C 583.858 346.001, 582.101 345.496, 579.967 343.976 C 577.555 342.259, 575.954 341.877, 572.889 342.288 C 568.893 342.824, 563.325 341.813, 559.330 339.827 C 556.230 338.285, 550.596 339.596, 542.832 343.666 C 533.843 348.378, 532.081 350.327, 534.446 352.940 C 537.008 355.771, 544.069 357.990, 546.213 356.637 C 547.443 355.862, 549.202 355.907, 552.536 356.798 C 558.024 358.266, 572.132 357.415, 576.184 355.371 C 578.028 354.441, 580.702 354.209, 584.725 354.629 C 591.100 355.295, 596.007 351.805, 597.597 345.472 C 598.265 342.810, 594.037 336, 591.717 336 C 591.067 336, 592.215 334.859, 594.268 333.464 C 600.698 329.095, 598.249 325.619, 588 324.569 C 582.953 324.051, 581.053 324.241, 579.500 325.419 M 306.990 328.628 C 302.165 332.987, 301.056 336.300, 303.514 339.015 C 305.197 340.875, 305.143 341.064, 302.132 343.876 C 300.410 345.486, 299 347.443, 299 348.227 C 299 350.279, 303.279 354, 305.640 354 C 310.385 354, 313.962 345.873, 310.487 342.989 C 307.814 340.771, 314.211 336.930, 319.395 337.641 C 322.788 338.106, 323.852 337.821, 325.493 336.007 L 327.481 333.811 324.685 331.405 C 323.147 330.082, 321.308 329, 320.599 329 C 319.890 329, 318.495 328.100, 317.500 327 C 314.822 324.040, 311.498 324.555, 306.990 328.628 M 413.570 328.540 C 408.069 331.409, 404.108 338.962, 407.118 340.842 C 408.153 341.488, 409 342.939, 409 344.065 C 409 345.982, 409.143 346.014, 411.223 344.557 C 412.445 343.701, 414.210 343, 415.146 343 C 416.081 343, 418.196 341.650, 419.846 340 C 421.864 337.982, 423.842 337, 425.888 337 C 428.940 337, 431 334.839, 431 331.637 C 431 328.371, 418.242 326.104, 413.570 328.540 M 580.095 328.862 C 578.509 329.932, 582.087 335.393, 585.074 336.461 C 592.730 339.196, 593.279 346.971, 586 349.589 L 582.500 350.848 586.724 350.924 C 590.426 350.991, 591.137 350.635, 592.474 348.050 C 594.632 343.877, 594.444 343.039, 590.427 338.925 L 586.854 335.266 590.655 332.133 C 593.846 329.503, 594.121 329, 592.367 329 C 591.219 329, 588.304 328.756, 585.890 328.457 C 583.475 328.158, 580.868 328.340, 580.095 328.862 M 310.607 331.582 C 310.273 332.452, 310 333.272, 310 333.405 C 310 333.538, 312.167 333.613, 314.815 333.573 C 319.586 333.501, 319.610 333.484, 317.408 331.750 C 314.641 329.572, 311.409 329.492, 310.607 331.582 M 381 335.729 C 377.602 337.022, 377.098 340, 380.277 340 C 382.768 340, 387 337.446, 387 335.943 C 387 334.927, 383.442 334.799, 381 335.729 M 551 343.937 C 547.029 345.153, 538 349.953, 538 350.849 C 538 352.341, 544.431 353.761, 546.183 352.656 C 547.305 351.948, 549.450 352.012, 553.152 352.864 C 559.261 354.270, 571.860 353.204, 578.411 350.726 L 582.323 349.247 578.657 347.508 C 576.512 346.490, 573.853 345.995, 572.246 346.314 C 569.331 346.894, 561.144 345.313, 559.550 343.864 C 558.421 342.838, 554.482 342.871, 551 343.937 M 400 345 C 400 345.550, 400.413 346, 400.918 346 C 401.423 346, 402.548 346.273, 403.418 346.607 C 404.456 347.005, 405 346.662, 405 345.607 C 405 344.560, 404.130 344, 402.500 344 C 401.125 344, 400 344.450, 400 345" stroke="none" fill="#1A1A1A" fill-rule="evenodd"/>
</svg>