<svg xmlns="http://www.w3.org/2000/svg" viewBox="0 0 450 600" version="1.1" preserveAspectRatio="xMidYMid meet">
	<path d="M 27.550 1.250 C 27.185 2.427, 26.438 7.113, 20.889 43 C 19.656 50.975, 18.301 57.903, 17.878 58.395 C 17.443 58.902, 13.748 57.922, 9.364 56.136 C 4.637 54.211, 1.259 53.341, 0.696 53.904 C -0.904 55.504, 0.742 56.675, 9.236 59.975 C 13.781 61.741, 19.750 64.237, 22.500 65.523 C 25.250 66.808, 30.866 69.265, 34.980 70.983 C 39.095 72.701, 43.165 74.745, 44.026 75.524 C 47.357 78.538, 63.055 85, 67.047 85 C 71.495 85, 81.887 89.700, 86.036 93.588 C 88.861 96.235, 99.378 101.588, 103.701 102.579 C 107.780 103.514, 120.719 109.688, 124.364 112.438 C 128.069 115.233, 139.111 120, 141.880 120 C 142.947 120, 146.673 121.350, 150.160 122.999 C 153.647 124.649, 157 125.999, 157.612 125.999 C 159.187 126, 170.091 131.325, 179.500 136.688 C 191.276 143.400, 196.737 146, 199.060 146 C 201.626 146, 210.707 149.768, 213.796 152.116 C 216.392 154.088, 231.293 159.979, 233.835 160.039 C 235.379 160.075, 242.195 163.978, 248.362 168.358 C 249.800 169.379, 253.686 170.535, 256.996 170.925 C 260.659 171.357, 264.146 172.472, 265.907 173.773 C 273.918 179.696, 277.350 176.809, 278.345 163.308 C 280.509 133.962, 286.297 96.167, 290.518 83.831 C 293.221 75.933, 300 46.376, 300 42.493 C 300 41.192, 301.376 34.361, 303.057 27.314 C 308.270 5.464, 308.969 0.925, 307.226 0.256 C 306.402 -0.060, 305.002 0.125, 304.114 0.667 C 299.831 3.281, 271.965 49.831, 258.119 77.500 C 246.975 99.769, 239.978 120.419, 235.417 144.500 C 233.049 156.998, 233.668 156.546, 224.720 152.316 C 215.462 147.940, 215.750 149.646, 220.444 126.936 C 227.508 92.761, 240.835 60.214, 267.189 12.774 C 273.433 1.535, 273.689 -0.010, 269.249 0.331 C 266.024 0.579, 263.297 5.046, 248.083 35 C 228.551 73.455, 219.556 97.497, 213.392 127.727 L 209.701 145.825 206.375 144.239 C 203.843 143.032, 203.156 142.157, 203.498 140.576 C 203.745 139.434, 204.679 134.225, 205.572 129 C 211.176 96.236, 221.967 65.041, 241.052 26.436 C 247.692 13.003, 252.846 1.560, 252.504 1.006 C 250.625 -2.034, 248.244 1.528, 236.630 24.750 C 216.626 64.750, 206.689 92.597, 199.942 127.566 C 198.781 133.580, 197.701 138.632, 197.540 138.793 C 197.379 138.954, 195.585 138.293, 193.554 137.324 C 190.251 135.749, 189.914 135.242, 190.373 132.531 C 198.682 83.496, 205.818 60.875, 228.156 12.768 C 232.745 2.885, 233.381 -0, 230.971 -0 C 229.685 0, 215.195 31.471, 206.851 52.386 C 201.051 66.926, 192.587 97.347, 189.570 114.500 C 186.060 134.457, 186.180 134, 184.441 134 C 182.318 134, 175 130.156, 175 129.041 C 175 128.536, 176.146 121.458, 177.546 113.311 C 183.331 79.662, 193.245 47.706, 208.949 12.096 C 211.230 6.924, 212.851 2.053, 212.551 1.272 C 211.618 -1.160, 208.866 0.338, 207.541 4 C 206.845 5.925, 203.299 14.346, 199.661 22.714 C 187.792 50.012, 177.097 85.879, 172.439 114 C 171.483 119.775, 170.426 125.039, 170.090 125.697 C 169.092 127.656, 161 123.577, 161 121.115 C 161 105.647, 178.653 40.059, 191.432 8.053 C 193.825 2.059, 193.737 -1.192, 191.224 0.362 C 189.638 1.342, 184.535 15.166, 175.669 42.500 C 166.569 70.556, 162.332 87.087, 159.009 107.500 C 157.845 114.650, 156.804 120.835, 156.696 121.244 C 156.588 121.653, 153.977 120.753, 150.893 119.244 L 145.286 116.500 148.647 97.500 C 153.713 68.853, 159.488 46.584, 170.646 12.656 C 174.361 1.362, 174.267 -0.476, 170.009 0.165 C 167.316 0.571, 166.216 3.263, 158.017 29.500 C 150.164 54.632, 144.811 75.900, 141.341 95.750 C 139.778 104.687, 138.050 111.989, 137.500 111.978 C 136.950 111.966, 134.588 111.088, 132.250 110.027 C 127.075 107.678, 127.125 108.574, 130.943 86.489 C 135.791 58.445, 140.481 37.924, 147.957 12.039 C 151.046 1.347, 150.881 -1.676, 147.333 0.561 C 143.283 3.117, 128.964 61.475, 122.506 101.750 C 122.131 104.087, 121.700 106, 121.548 106 C 120.451 106, 109.032 100.301, 109.397 99.936 C 109.652 99.682, 111.483 90.029, 113.468 78.487 C 119.329 44.389, 119.933 41.328, 124.523 22.500 C 130.216 -0.850, 130.066 0.634, 126.753 0.353 C 123.116 0.045, 123.039 0.234, 117.670 22.500 C 113.281 40.708, 110.792 53.491, 105.893 83 C 104.661 90.425, 103.528 96.665, 103.376 96.866 C 102.917 97.477, 91.980 92.680, 90.920 91.404 C 89.382 89.551, 95.434 53.015, 103.622 14.727 C 106.488 1.320, 106.191 -1.872, 102.305 0.579 C 99.990 2.039, 87.388 62.618, 85.326 82.194 L 84.727 87.888 77.863 84.431 C 74.089 82.530, 71 80.640, 71 80.231 C 71 73.279, 76.332 39.944, 82.387 9.033 C 84.057 0.509, 83.945 0.047, 80.266 0.330 C 77.825 0.518, 77.458 1.093, 76.323 6.518 C 73.014 22.329, 66.759 57.083, 65.512 66.583 C 64.744 72.432, 63.924 77.409, 63.690 77.644 C 63.455 77.878, 59.829 76.505, 55.632 74.592 C 49.314 71.713, 48.003 70.717, 48.018 68.807 C 48.045 65.430, 50.478 48.836, 54.541 24.321 C 56.508 12.455, 57.880 2.128, 57.590 1.373 C 56.849 -0.557, 54.249 -0.336, 53.142 1.750 C 52.303 3.333, 44.025 52.157, 42.477 64.651 L 41.840 69.801 32.170 65.782 C 26.851 63.571, 22.360 61.638, 22.189 61.487 C 22.018 61.335, 22.992 54.301, 24.354 45.856 C 31.820 -0.442, 31.775 0, 29 0 C 28.415 0, 27.763 0.563, 27.550 1.250 M 323.182 1.750 C 322.694 2.712, 321.523 6.875, 320.580 11 C 319.637 15.125, 318.032 21.650, 317.014 25.500 C 312.005 44.435, 307 67.430, 307 71.509 C 307 74.018, 306.363 77.067, 305.585 78.285 C 304.291 80.310, 300.025 100.136, 298.546 111 C 298.209 113.475, 297.276 117.300, 296.473 119.500 C 294.287 125.490, 290.215 151.002, 289.450 163.500 C 288.786 174.347, 288.811 174.532, 291.278 176.821 C 293.623 178.996, 294.141 179.075, 299.527 178.080 C 302.688 177.495, 305.944 176.461, 306.762 175.782 C 307.581 175.103, 310.201 174.420, 312.584 174.265 C 314.967 174.109, 318.174 173.475, 319.709 172.855 C 321.244 172.235, 324.075 171.804, 326 171.898 C 327.925 171.992, 331.975 171.374, 335 170.526 C 338.025 169.678, 342.075 168.802, 344 168.580 C 345.925 168.359, 352 167.684, 357.500 167.082 C 363 166.479, 370.425 165.156, 374 164.141 C 390.565 159.439, 406.829 156.053, 413 156.022 C 418.837 155.993, 448.398 149.898, 449.964 148.400 C 451.249 147.171, 451.241 146.813, 449.900 145.471 C 448.268 143.839, 445.586 144.062, 424.914 147.551 C 420.191 148.348, 415.870 149, 415.311 149 C 414.688 149, 414.026 142.319, 413.601 131.750 C 413.220 122.262, 412.283 103.475, 411.518 90 C 410.752 76.525, 409.823 58.525, 409.452 50 L 408.778 34.500 411.203 36.750 C 412.755 38.189, 414.885 39, 417.114 39 C 419.032 39, 421.069 39.469, 421.642 40.042 C 422.366 40.766, 423.094 40.592, 424.021 39.474 C 425.858 37.262, 427.754 2.354, 426.126 0.726 C 423.837 -1.563, 423.127 1.804, 422.426 18.250 L 421.713 35 417.479 35 C 411.294 35, 410.957 34.138, 410.185 16.320 L 409.500 0.500 406 0.500 L 402.500 0.500 402.656 22 C 402.742 33.825, 403.529 55.650, 404.405 70.500 C 405.281 85.350, 406.669 108.750, 407.488 122.500 C 408.308 136.250, 408.983 148.464, 408.989 149.643 C 409.002 152.163, 407.674 152.786, 400.485 153.631 L 395.139 154.259 394.643 150.880 C 394.369 149.021, 393.656 138.725, 393.057 128 C 392.459 117.275, 390.621 93.650, 388.973 75.500 C 387.326 57.350, 385.645 33.050, 385.239 21.500 C 384.617 3.828, 384.262 0.500, 383 0.500 C 381.172 0.500, 381.155 32.958, 382.973 53.872 C 385.033 77.581, 386.955 102.482, 388.463 125 C 389.292 137.375, 390.191 149.398, 390.461 151.718 C 390.997 156.313, 390.676 156.524, 380.375 158.347 L 377.251 158.900 376.570 147.700 C 375.635 132.324, 371.426 85.398, 368.434 57 C 367.072 44.075, 365.672 26.409, 365.322 17.742 C 364.673 1.659, 363.668 -2.068, 360.765 0.835 C 359.436 2.164, 360.945 33.872, 363.462 57.500 C 368.565 105.403, 372.581 156.825, 371.317 158.071 C 370.868 158.514, 368.145 159.186, 365.267 159.565 C 358.971 160.393, 359.545 161.725, 358.132 143 C 356.894 126.584, 352.149 85.878, 348.515 60.500 C 346.453 46.094, 343.692 19.259, 342.754 4.500 C 342.529 0.952, 342.188 0.464, 339.744 0.183 C 337.878 -0.032, 336.780 0.410, 336.342 1.551 C 335.542 3.635, 338.481 38.426, 341.110 58 C 347.239 103.635, 351.647 143.106, 352.110 156.495 L 352.351 163.490 348.426 164.140 C 346.267 164.497, 344.322 164.621, 344.104 164.415 C 343.886 164.209, 343.336 159.419, 342.882 153.770 C 341.434 135.761, 336.970 101.337, 332.471 73.500 C 330.071 58.650, 327.396 41.335, 326.527 35.023 C 325.658 28.711, 324.508 23.108, 323.973 22.573 C 322.483 21.083, 322.803 16.684, 324.974 8.850 C 326.060 4.932, 326.709 1.337, 326.415 0.863 C 325.558 -0.525, 324.139 -0.136, 323.182 1.750 M 292.811 28.218 C 259.243 84.903, 250.286 105.362, 242.680 142.716 C 240.022 155.770, 239.641 159.032, 240.727 159.449 C 242.370 160.079, 242.384 160.036, 244.962 147 C 248.867 127.253, 255.433 109.076, 266.981 86.038 C 275.339 69.365, 288.507 47.282, 292.741 42.841 C 295.774 39.658, 296.607 37.588, 299.133 26.943 C 300.731 20.212, 301.865 14.532, 301.653 14.320 C 301.442 14.109, 297.463 20.363, 292.811 28.218 M 447.508 25.986 C 446.710 27.279, 446.743 69.774, 447.543 71.070 C 449.417 74.101, 450 68.741, 450 48.500 C 450 28.146, 449.419 22.895, 447.508 25.986 M 315.729 50.048 C 311.523 67.282, 311.390 68.838, 313.450 76.856 C 316.048 86.972, 322.944 131.067, 324.810 149.500 L 326.633 167.500 329.566 167.286 C 337.261 166.726, 337.200 166.812, 336.495 157.714 C 335.195 140.936, 329.841 100.002, 325.051 70.217 C 322.334 53.323, 319.973 38.397, 319.805 37.048 C 319.637 35.699, 317.803 41.549, 315.729 50.048 M 419.691 46.756 C 414.117 49.554, 413.648 55.866, 418.954 56.675 C 422.236 57.176, 425 54.339, 425 50.467 C 425 46.183, 423.258 44.965, 419.691 46.756 M 286.352 64.232 C 273.773 85.360, 262.825 109.748, 257.054 129.500 C 253.098 143.038, 249.324 161.657, 250.331 162.665 C 251.559 163.893, 254 161.958, 254 159.756 C 254 147.252, 267.905 110.028, 281.633 85.782 C 285.561 78.844, 290.676 62.529, 289.773 59.819 C 289.616 59.349, 288.077 61.335, 286.352 64.232 M 419.348 65.262 C 415.668 69.206, 415.690 74.144, 419.403 77.858 L 421.792 80.247 423.548 77.567 C 426.256 73.434, 426.660 65.907, 424.288 63.761 C 422.449 62.096, 422.244 62.158, 419.348 65.262 M 0.669 77.825 C -0.984 80.954, 0.704 84.490, 4.500 85.848 C 10.237 87.899, 24.727 93.703, 46 102.470 C 56.175 106.664, 72.600 113.409, 82.500 117.460 C 92.400 121.511, 108.150 128.053, 117.500 131.998 C 170.417 154.322, 196.584 164.936, 214 171.141 C 262.750 188.508, 274.265 193.006, 279.096 196.571 C 283.197 199.597, 285.087 199.621, 288.673 196.691 C 290.228 195.421, 293.018 194.285, 294.873 194.166 C 296.728 194.047, 303.928 192.856, 310.873 191.519 C 317.818 190.182, 333.850 187.252, 346.500 185.007 C 402.328 175.099, 447.230 166.594, 448.786 165.632 C 449.899 164.944, 450.097 160.178, 449.040 159.524 C 448.649 159.283, 435.093 161.736, 418.915 164.976 C 402.737 168.215, 377.575 172.904, 363 175.395 C 348.425 177.886, 327.950 181.475, 317.500 183.371 C 301.190 186.329, 296.730 186.775, 286 186.524 L 273.500 186.231 253.500 178.656 C 242.500 174.490, 225.400 168.195, 215.500 164.667 C 198.864 158.738, 181.292 151.619, 114.500 123.746 C 100.750 118.008, 79.375 109.141, 67 104.042 C 54.625 98.943, 38.200 92.084, 30.500 88.801 C 12.774 81.242, 1.127 76.957, 0.669 77.825 M 305.137 95.750 C 302.393 110.032, 302.220 115.674, 304.289 123.500 C 306.040 130.122, 310 160.164, 310 166.819 C 310 171.441, 309.283 171.187, 317.500 169.481 C 319.430 169.080, 320 168.339, 320 166.230 C 320 154.904, 309.641 84, 307.987 84 C 307.661 84, 306.378 89.287, 305.137 95.750 M 277.533 107.234 C 267.845 128.084, 257.756 164.963, 261.151 167.114 C 263.451 168.572, 263.613 168.252, 265.392 158.750 C 267.495 147.520, 272.230 132.408, 275.792 125.554 C 277.934 121.433, 283.426 98.325, 282.522 97.234 C 282.401 97.088, 280.156 101.588, 277.533 107.234 M 0.715 120.750 C 0.494 121.162, 0.355 122.734, 0.406 124.242 C 0.511 127.292, -4.667 125.236, 56.500 146.523 C 69.700 151.117, 86.800 157.196, 94.500 160.032 C 102.200 162.868, 117.427 168.298, 128.337 172.098 C 139.247 175.899, 152.747 180.786, 158.337 182.958 C 171.404 188.035, 202.295 197.659, 226 204.039 C 231.775 205.593, 241.900 208.609, 248.500 210.741 C 260.445 214.601, 260.498 214.632, 260.174 217.552 C 259.744 221.420, 259.849 221.374, 254.309 220.173 C 251.664 219.600, 246.599 218.616, 243.054 217.986 C 239.509 217.356, 234.915 215.977, 232.845 214.921 C 230.776 213.865, 219.052 210.483, 206.791 207.404 C 194.531 204.326, 177.975 199.650, 170 197.013 C 141.172 187.483, 123.093 181.891, 119.334 181.341 C 114.149 180.584, 92.145 173.617, 87.357 171.217 C 83.179 169.122, 61.084 162, 58.765 162 C 57.466 162, 46.300 158.803, 14.931 149.449 C 1.407 145.417, 1 145.374, 1 148 C 1 149.100, 1.580 150, 2.290 150 C 2.999 150, 7.919 151.356, 13.223 153.014 C 22.194 155.819, 23.027 156.306, 25.183 160.004 C 26.457 162.190, 32.900 171.683, 39.500 181.100 C 46.100 190.517, 56.839 205.902, 63.364 215.289 C 69.889 224.676, 81.619 240.939, 89.430 251.428 C 97.242 261.918, 111.217 281.075, 120.487 294 C 129.756 306.925, 140.076 321.296, 143.420 325.935 C 146.764 330.574, 158.950 348.215, 170.500 365.137 C 182.050 382.059, 203.875 414.002, 219 436.123 C 258.711 494.200, 260.334 496.759, 257.938 497.520 C 256.862 497.861, 254.333 500.113, 252.318 502.525 C 248.550 507.032, 239.231 511.879, 236.992 510.495 C 236.376 510.115, 217.135 484.760, 194.233 454.152 C 171.331 423.543, 144.443 388.375, 134.482 376 C 112.434 348.610, 81.560 309.184, 31.896 245 C 20.618 230.425, 9.224 215.652, 6.575 212.170 C 3.194 207.724, 1.445 206.155, 0.704 206.896 C -0.610 208.210, -0.349 208.579, 24.757 240.976 C 84.512 318.082, 108.094 348.198, 128.922 374 C 138.024 385.275, 165.373 421.050, 189.698 453.500 L 233.925 512.500 228.902 514.720 C 226.140 515.941, 223.262 517.066, 222.506 517.220 C 221.751 517.374, 218.066 513.414, 214.317 508.421 C 189.289 475.085, 160.736 438.306, 144.190 418.091 C 118.377 386.556, 99.413 363.202, 77.124 335.500 C 66.946 322.850, 55.412 308.675, 51.493 304 C 47.573 299.325, 36.572 285.825, 27.047 274 C 8.897 251.470, 2.124 243.805, 0.988 244.508 C 0.613 244.739, 0.269 246.226, 0.224 247.812 C 0.139 250.807, 2.650 254.016, 57.529 321.039 C 68.544 334.493, 84.273 353.825, 92.480 364 C 100.688 374.175, 117.575 394.875, 130.007 410 C 148.172 432.101, 201.599 501.129, 211.851 515.743 C 214.685 519.782, 214.420 520.192, 207.451 522.561 L 201.797 524.483 199.649 521.867 C 198.467 520.428, 188.183 507.765, 176.794 493.727 C 165.406 479.689, 149.485 460.620, 141.413 451.352 C 103.453 407.765, 93.163 395.720, 71.491 369.500 C 45.317 337.835, 1.841 287.980, 0.905 288.558 C -1.144 289.825, 0.392 292.894, 6.635 300 C 23.870 319.619, 61.124 363.296, 74.017 379 C 81.919 388.625, 91.560 400.129, 95.442 404.565 C 133.035 447.525, 172.600 495.001, 197.137 526.595 C 198.078 527.806, 185.087 533.402, 182.666 532.828 C 181.903 532.648, 174.870 524.850, 167.037 515.500 C 159.203 506.150, 142.573 487.250, 130.081 473.500 C 97.385 437.512, 66.964 403.197, 48 380.913 C 25.373 354.325, 2.953 329.849, 1.629 330.290 C -1.903 331.468, 0.359 335.925, 9.648 346.095 C 14.876 351.818, 28.452 367.300, 39.818 380.500 C 63.286 407.754, 90.302 438.117, 123.458 474.500 C 146.126 499.375, 176 534.321, 176 535.962 C 176 537.241, 162.663 542.238, 160.311 541.842 C 159.196 541.654, 148.921 531.600, 137.478 519.500 C 126.034 507.400, 105.788 486.025, 92.486 472 C 79.185 457.975, 57.578 434.800, 44.473 420.500 C 7.080 379.699, 2.277 374.710, 1.097 375.440 C -1.265 376.900, 0.321 379.625, 8.351 387.897 C 12.944 392.629, 22.047 402.350, 28.581 409.500 C 44.599 427.030, 63.725 447.527, 85.995 471.031 C 114.575 501.195, 147.140 535.923, 150.840 540.182 L 154.179 544.027 150.622 545.514 C 148.665 546.331, 146.587 547, 146.004 547 C 145.420 547, 142.285 548.342, 139.037 549.981 L 133.131 552.963 67.105 486.296 C 14.538 433.220, 0.940 419.993, 0.395 421.413 C -0.333 423.309, -1.693 421.897, 88.504 512.845 L 130.500 555.190 121.500 558.678 C 106.134 564.633, 108.612 565.476, 89.855 547.914 C 68.738 528.142, 34.355 495.333, 16.281 477.709 C 2.874 464.635, 0 462.719, -0 466.857 C -0 468.878, 17.562 486.174, 77.273 542.960 L 101.941 566.419 96.220 568.615 C 93.074 569.823, 87.461 571.975, 83.746 573.399 L 76.991 575.986 62.746 563.774 C 54.911 557.057, 41.975 545.687, 34 538.506 C 4.842 512.253, 1.836 509.764, 0.681 510.919 C -0.113 511.713, -0.013 512.373, 1.043 513.316 C 1.844 514.033, 6.325 517.967, 11 522.059 C 15.675 526.152, 26.266 535.575, 34.535 543 C 42.805 550.425, 54.811 560.981, 61.216 566.457 C 67.621 571.934, 72.686 576.699, 72.472 577.046 C 72.257 577.393, 66.007 580.041, 58.583 582.931 L 45.085 588.185 30.793 576.294 C -0.261 550.458, 0.799 551.154, 0.197 556.185 C -0.065 558.379, 2.369 560.763, 18.444 574.061 C 28.647 582.501, 36.658 589.695, 36.247 590.047 C 35.836 590.400, 32.948 591.696, 29.829 592.928 C 25.142 594.779, 19.568 598.719, 21.095 599.101 C 26.721 600.511, 38.225 597.644, 42.920 593.662 C 43.789 592.925, 51.700 589.565, 60.500 586.194 C 69.300 582.823, 83.025 577.541, 91 574.457 C 98.975 571.373, 110.900 566.784, 117.500 564.261 C 124.100 561.737, 131.078 558.633, 133.007 557.364 C 137.836 554.186, 153.872 548, 157.281 548 C 160.990 548, 177.938 541.407, 180.559 538.944 C 181.698 537.875, 183.101 537, 183.677 537 C 184.253 537, 187.999 535.650, 192 534 C 196.001 532.350, 200.108 531, 201.127 531 C 203.869 531, 216.191 525.974, 218.500 523.913 C 219.600 522.932, 227.250 519.417, 235.500 516.103 C 249.928 510.308, 251.579 509.287, 255.080 504.009 C 256.479 501.899, 257.441 501.619, 263.466 501.563 C 273.765 501.468, 274.101 500.776, 274.212 479.428 C 274.260 470.118, 273.864 456.425, 273.333 449 C 272.752 440.890, 272.729 435.016, 273.275 434.287 C 273.799 433.588, 274.073 413.248, 273.923 386.287 C 273.780 360.554, 273.998 324.200, 274.409 305.500 C 274.819 286.800, 275.259 263.400, 275.387 253.500 C 275.531 242.347, 276.072 234.429, 276.810 232.685 C 277.464 231.137, 278 227.740, 278 225.137 L 278 220.404 291.250 218.756 C 298.538 217.850, 314.625 215.758, 327 214.108 C 339.375 212.458, 358.500 209.981, 369.500 208.603 C 411.544 203.340, 444.596 198.901, 446.980 198.197 C 449.386 197.488, 450.963 192.713, 449.160 191.599 C 448.463 191.168, 420.205 194.869, 393 198.956 C 385.575 200.071, 369.600 202.115, 357.500 203.497 C 345.400 204.880, 326.725 207.154, 316 208.552 C 305.275 209.949, 292.900 211.560, 288.500 212.132 C 278.879 213.381, 271.271 212.666, 266.803 210.093 C 263.767 208.344, 253.775 205.205, 211 192.562 C 183.066 184.305, 164.610 178.381, 158.014 175.555 C 154.446 174.026, 142.071 169.481, 130.514 165.455 C 118.956 161.429, 103.200 155.808, 95.500 152.964 C 87.800 150.121, 74.975 145.613, 67 142.948 C 59.025 140.282, 41.323 134.028, 27.663 129.051 C 1.943 119.679, 1.383 119.506, 0.715 120.750 M 297.098 140.750 C 295.294 153.106, 294.016 165.145, 294.008 169.861 L 294 174.223 297.750 173.522 C 302.660 172.604, 303.719 171.615, 303.373 168.269 C 300.571 141.151, 299.548 133, 298.950 133 C 298.554 133, 297.721 136.488, 297.098 140.750 M 273.058 147.047 C 268.847 162.905, 268.004 171.404, 270.546 172.379 C 273.129 173.370, 273.648 171.920, 274.382 161.662 C 274.742 156.623, 275.526 149.042, 276.124 144.816 C 277.843 132.665, 276.645 133.536, 273.058 147.047 M 29.619 159.261 C 30.016 159.943, 34.686 166.800, 39.995 174.500 C 45.305 182.200, 54.987 196.375, 61.510 206 C 68.034 215.625, 79.959 232.500, 88.011 243.500 C 101.432 261.834, 128.667 299.676, 149.930 329.534 C 154.644 336.152, 166.746 353.702, 176.824 368.534 C 186.903 383.365, 200.928 403.825, 207.992 414 C 215.056 424.175, 227.177 441.725, 234.928 453 C 242.678 464.275, 252.733 478.900, 257.272 485.500 C 266.684 499.185, 269.267 500.750, 269.815 493.097 C 269.988 490.675, 269.397 486.453, 268.502 483.716 C 266.084 476.322, 129.310 271.088, 103.417 236 C 97.938 228.575, 91.386 219.575, 88.858 216 C 83.686 208.685, 61.582 174.026, 59.406 169.818 C 58.186 167.460, 56.170 166.520, 44.746 162.985 C 37.461 160.731, 30.914 158.692, 30.198 158.455 C 29.387 158.186, 29.169 158.490, 29.619 159.261 M 64 170.508 C 64 172.973, 91.113 213.931, 107.023 235.500 C 123.568 257.931, 131.710 269.919, 200.715 373.448 L 268 474.395 268 468.436 C 268 462.732, 267.555 461.681, 257.660 443.988 C 251.973 433.820, 230.681 399.400, 210.343 367.500 C 190.005 335.600, 166.909 299.150, 159.017 286.500 C 145.110 264.208, 135.246 249.469, 108.643 211.230 C 101.653 201.182, 93.884 189.586, 91.380 185.461 C 86.395 177.250, 85.036 176.272, 74.122 173.030 C 70.065 171.825, 66.127 170.602, 65.372 170.313 C 64.618 170.023, 64 170.111, 64 170.508 M 95.540 182.700 C 99.188 188.979, 104.415 196.779, 127.568 230.500 C 138.143 245.900, 154.644 271.100, 164.238 286.500 C 182.196 315.324, 201.778 345.975, 234.513 396.500 C 244.847 412.450, 256.834 431.564, 261.151 438.977 L 269 452.453 268.994 445.477 C 268.990 441.475, 268.405 437.434, 267.621 436 C 261.041 423.964, 241.918 392.360, 219.677 356.768 C 204.991 333.266, 190.582 310.091, 187.657 305.268 C 158.366 256.980, 148.147 240.557, 132.111 216 C 121.875 200.325, 113.021 186.632, 112.436 185.571 C 111.479 183.836, 103.658 180.598, 95.626 178.611 L 92.751 177.899 95.540 182.700 M 121 187.466 C 121 187.840, 128.833 199.926, 138.407 214.323 C 147.980 228.720, 161.541 249.950, 168.542 261.500 C 186.726 291.499, 230.935 363.364, 248.755 391.893 C 252.326 397.609, 257.951 407.059, 261.256 412.893 C 270.242 428.754, 270.329 428.836, 269.650 420.800 C 269.282 416.442, 268.152 412.248, 266.417 408.800 C 260.685 397.409, 248.125 375.536, 235.524 355 C 228.268 343.175, 210.949 314.375, 197.038 291 C 167.216 240.894, 157.906 225.565, 145.368 205.923 L 136.062 191.345 130.281 189.737 C 127.101 188.853, 123.713 187.828, 122.750 187.458 C 121.787 187.088, 121 187.092, 121 187.466 M 150.141 201.133 C 152.998 205.735, 157.340 212.875, 159.791 217 C 162.241 221.125, 165.021 225.625, 165.968 227 C 167.777 229.628, 180.763 251.203, 192.752 271.500 C 208.375 297.950, 242.626 355.095, 248.494 364.500 C 251.925 370, 258.164 380.800, 262.358 388.500 L 269.984 402.500 269.992 396.037 C 270 389.757, 269.714 389.037, 259.856 370.537 C 254.276 360.067, 246.015 345.200, 241.497 337.500 C 236.979 329.800, 227.744 313.825, 220.974 302 C 199.612 264.688, 194.081 255.172, 177.961 228 C 169.314 213.425, 161.763 200.569, 161.182 199.431 C 160.493 198.084, 158.096 196.798, 154.312 195.746 C 151.115 194.857, 147.700 193.823, 146.723 193.448 C 145.515 192.984, 146.610 195.445, 150.141 201.133 M 281 194 C 282.965 195.270, 286 195.270, 286 194 C 286 193.450, 284.538 193.007, 282.750 193.015 C 280.284 193.027, 279.862 193.264, 281 194 M 166 200.637 C 166 200.987, 173.129 213.249, 181.841 227.887 C 197.984 255.007, 203.246 264.047, 224.974 302 C 231.744 313.825, 240.972 329.800, 245.481 337.500 C 249.991 345.200, 257.013 357.717, 261.087 365.315 C 268.273 378.720, 268.514 379.032, 269.189 375.815 C 270.243 370.788, 268.990 360.792, 267.018 358.500 C 266.071 357.400, 261.556 349.525, 256.983 341 C 252.410 332.475, 242.737 315.150, 235.488 302.500 C 228.238 289.850, 216.081 268.475, 208.473 255 C 200.864 241.525, 191.620 225.500, 187.931 219.390 C 184.242 213.279, 180.921 207.326, 180.551 206.161 C 180.062 204.619, 178.098 203.493, 173.334 202.021 C 165.997 199.755, 166 199.756, 166 200.637 M 444.500 205.082 C 427.623 208.076, 419.222 209.404, 403.500 211.562 C 393.600 212.922, 382.255 214.701, 378.289 215.517 C 374.324 216.333, 366.674 217.180, 361.289 217.399 C 355.905 217.618, 350.150 218.330, 348.500 218.981 C 344.330 220.626, 335.988 221.939, 326.234 222.485 C 321.687 222.739, 317.187 223.347, 316.234 223.836 C 314.094 224.934, 308.059 225.919, 297.154 226.949 C 290.254 227.601, 288.385 228.161, 286.368 230.178 L 283.928 232.618 283.372 305.059 C 283.067 344.902, 283.140 404.466, 283.536 437.424 L 284.256 497.347 286.468 499.559 C 289.606 502.697, 296.532 503.733, 299.062 501.443 C 300.808 499.864, 301.174 499.842, 302.750 501.219 C 304.720 502.939, 311.870 505.463, 312.628 504.706 C 312.899 504.434, 314.153 505.244, 315.414 506.505 C 318.390 509.481, 328.559 511.757, 331.282 510.056 C 332.526 509.279, 333.556 509.216, 334.342 509.869 C 334.993 510.409, 337.771 511.396, 340.513 512.061 C 343.256 512.725, 347.075 514.089, 349 515.090 C 357.078 519.294, 365.375 520.066, 369.298 516.980 C 371.530 515.225, 371.957 513.922, 372.558 507.025 L 373.250 499.089 376.507 501.573 C 379.430 503.803, 379.809 504.683, 380.206 510.174 C 380.927 520.134, 386.181 523.642, 403.302 525.594 C 406.161 525.920, 410.300 526.583, 412.500 527.069 C 414.700 527.554, 418.203 527.962, 420.285 527.976 C 422.367 527.989, 425.067 528.630, 426.285 529.401 C 427.503 530.171, 431.875 531.335, 436 531.987 C 440.125 532.640, 444.707 533.816, 446.181 534.602 C 447.656 535.389, 449.046 535.687, 449.271 535.266 C 449.496 534.845, 449.333 523.025, 448.909 509 C 445.974 412.010, 444.020 325.444, 443.432 266.470 L 442.904 213.441 446.189 212.470 C 448.926 211.662, 449.514 210.967, 449.720 208.299 C 450.020 204.428, 449.609 204.175, 444.500 205.082 M 185 206.887 C 185 207.449, 188.069 212.992, 191.819 219.205 C 195.570 225.417, 204.867 241.525, 212.481 255 C 220.094 268.475, 232.888 290.990, 240.911 305.033 C 248.935 319.076, 258.425 336.051, 262 342.754 L 268.500 354.942 268.795 347.926 C 269.067 341.446, 268.826 340.472, 265.653 335.204 C 263.762 332.067, 259.743 324.550, 256.720 318.500 C 253.698 312.450, 248.994 303.450, 246.267 298.500 C 243.541 293.550, 234.669 277.350, 226.553 262.500 C 218.437 247.650, 208.692 230.003, 204.898 223.284 C 201.104 216.565, 198 210.656, 198 210.153 C 198 209.649, 195.863 208.714, 193.250 208.073 C 190.637 207.433, 187.713 206.675, 186.750 206.387 C 185.787 206.100, 185 206.325, 185 206.887 M 204.612 214.250 C 207.068 219.049, 237.151 274.440, 245.480 289.500 C 249.435 296.650, 256.402 309.830, 260.962 318.790 C 265.522 327.749, 269.440 334.894, 269.667 334.666 C 269.895 334.439, 270.053 325.983, 270.019 315.876 L 269.957 297.500 259.162 276 C 253.225 264.175, 244.203 246.526, 239.115 236.780 L 229.863 219.061 217.474 215.030 C 202.477 210.151, 202.516 210.154, 204.612 214.250 M 425.759 212.241 C 420.647 213.117, 420.065 213.458, 420.448 215.362 C 420.685 216.538, 421.154 244.950, 421.490 278.500 C 421.827 312.050, 422.505 354.575, 422.996 373 C 423.488 391.425, 424.438 433.275, 425.108 466 C 425.778 498.725, 426.454 525.663, 426.609 525.863 C 426.989 526.350, 439.061 528.921, 441.177 528.965 C 442.683 528.996, 442.811 527.696, 442.426 516.250 C 442.190 509.238, 441.533 485.725, 440.965 464 C 440.397 442.275, 439.493 411.675, 438.955 396 C 437.296 347.601, 435.031 256.459, 435.004 237 C 434.976 217.185, 434.399 210.924, 432.619 211.128 C 432.004 211.199, 428.917 211.699, 425.759 212.241 M 406.652 215.028 C 403.986 215.487, 401.732 216.006, 401.644 216.181 C 401.217 217.031, 402.958 365.239, 403.892 407.458 C 404.476 433.881, 405.253 470.413, 405.619 488.640 L 406.284 521.781 411.809 522.890 C 414.847 523.501, 418.384 524, 419.667 524 L 422 524 421.978 508.250 C 421.967 499.587, 421.539 476.075, 421.029 456 C 418.817 369.027, 417.788 319.075, 417.165 268.500 L 416.500 214.500 414 214.347 C 412.625 214.263, 409.319 214.569, 406.652 215.028 M 385 218.136 C 382.525 218.666, 377.353 219.653, 373.507 220.329 L 366.514 221.559 366.808 277.029 C 367.103 332.943, 368.365 418.834, 369.617 468.250 C 370.177 490.389, 370.524 494.810, 371.629 493.893 C 372.666 493.032, 374.194 494.046, 378.482 498.437 C 383.476 503.553, 384 504.506, 384 508.480 C 384 517.184, 384.995 518.187, 395.892 520.474 L 402.284 521.815 401.619 488.658 C 401.253 470.421, 400.473 433.751, 399.885 407.168 C 399.297 380.585, 398.520 327.035, 398.158 288.168 L 397.500 217.500 393.500 217.337 C 391.300 217.247, 387.475 217.607, 385 218.136 M 266.410 223.569 C 265.497 228.550, 265.583 229.241, 267.216 230.115 C 269.922 231.564, 271 230.355, 271 225.875 C 271 221.887, 269.608 218, 268.180 218 C 267.768 218, 266.971 220.506, 266.410 223.569 M 254.288 251.041 C 267.828 277.521, 269.535 280.405, 269.817 277.281 C 270.035 274.868, 269.526 273.105, 268.187 271.636 C 266.354 269.626, 244 224.687, 244 223.012 C 244 222.584, 242.892 222.021, 241.538 221.762 C 239.299 221.334, 240.454 223.988, 254.288 251.041 M 350.589 224.720 C 348.719 225.198, 348.691 227.150, 349.316 314.854 C 350.031 415.289, 352.388 509.004, 354.228 510.141 C 355.773 511.096, 362.091 512.242, 362.662 511.671 C 362.914 511.419, 362.644 469.878, 362.062 419.357 C 361.480 368.835, 361.003 304.212, 361.002 275.750 L 361 224 356.750 224.116 C 354.413 224.180, 351.640 224.452, 350.589 224.720 M 335.117 225.723 L 332.734 226.174 333.366 329.837 C 333.714 386.852, 334.292 449.999, 334.651 470.165 L 335.305 506.831 341.079 508.285 L 346.853 509.740 346.415 501.120 C 345.677 486.598, 344.019 361.763, 343.777 302.500 C 343.651 271.700, 343.396 241.662, 343.210 235.750 L 342.871 225 340.186 225.136 C 338.709 225.211, 336.428 225.475, 335.117 225.723 M 261.385 243.172 C 267.765 256.506, 269.571 259.550, 269.831 257.415 C 270.250 253.977, 268.537 247.071, 265.512 240 C 264.218 236.975, 262.900 233.306, 262.584 231.846 C 262.142 229.803, 261.002 228.848, 257.640 227.702 L 253.269 226.213 261.385 243.172 M 318.667 228.667 C 317.803 229.530, 317.796 449.199, 318.658 480.777 L 319.317 504.878 323.226 505.538 C 325.376 505.901, 327.317 506.016, 327.540 505.793 C 327.763 505.570, 327.659 442.976, 327.308 366.694 L 326.671 228 323.002 228 C 320.984 228, 319.033 228.300, 318.667 228.667 M 306.305 229.719 L 303.110 230.119 303.349 362.309 C 303.481 435.014, 303.951 495.484, 304.394 496.687 C 305.181 498.823, 310.595 501.561, 311.321 500.190 C 311.965 498.975, 310.772 228.994, 310.123 229.160 C 309.780 229.248, 308.062 229.500, 306.305 229.719 M 290.250 231.706 C 289.012 231.944, 287.982 232.220, 287.961 232.320 C 287.392 234.928, 287.202 427.536, 287.739 456.438 L 288.500 497.375 291.860 498.245 C 293.707 498.723, 295.414 498.919, 295.652 498.681 C 295.890 498.443, 296.350 438.118, 296.674 364.624 L 297.262 231 294.881 231.136 C 293.571 231.211, 291.488 231.467, 290.250 231.706 M 268.972 517.605 C 264.862 519.588, 248.450 527.187, 232.500 534.492 C 216.550 541.797, 189.325 554.407, 172 562.514 C 154.675 570.621, 136.900 578.495, 132.500 580.011 C 121.044 583.958, 95.492 594.447, 92.405 596.470 C 88.978 598.715, 90.631 600.945, 94.437 599.211 C 95.832 598.575, 97.170 598.466, 97.477 598.963 C 98.702 600.945, 115.396 598.503, 118.637 595.867 C 120.242 594.562, 135.712 589, 137.738 589 C 139.284 589, 152.468 582.744, 182 567.996 C 188.325 564.838, 195.300 561.688, 197.500 560.997 C 199.700 560.305, 203.975 558.237, 207 556.399 C 210.025 554.562, 214.300 552.427, 216.500 551.655 C 221.417 549.928, 229.989 545.992, 249.500 536.502 C 277.824 522.725, 278.306 522.561, 286.451 523.975 C 290.328 524.647, 299.575 526.684, 307 528.501 C 314.425 530.317, 325 532.795, 330.500 534.006 C 336 535.217, 342.819 536.837, 345.654 537.604 C 348.489 538.372, 351.878 539, 353.186 539 C 354.494 539, 358.025 539.692, 361.032 540.537 C 368.116 542.529, 392.782 547.943, 400.500 549.201 C 403.800 549.739, 412.350 551.444, 419.500 552.991 C 449.521 559.486, 449.352 559.473, 449.589 555.182 C 449.824 550.939, 451.403 551.464, 417.500 544.525 C 402.100 541.373, 378.475 536.335, 365 533.329 C 327.689 525.006, 277.565 514, 276.972 514 C 276.681 514, 273.081 515.622, 268.972 517.605 M 268.972 521.605 C 264.862 523.588, 248.450 531.184, 232.500 538.485 C 176.991 563.895, 177.376 563.709, 178.333 564.666 C 178.699 565.032, 182.937 563.494, 187.749 561.247 C 192.562 559, 197.625 556.845, 199 556.458 C 200.375 556.071, 203.975 554.248, 207 552.407 C 210.025 550.566, 214.300 548.427, 216.500 547.655 C 221.417 545.928, 229.989 541.992, 249.500 532.502 C 257.750 528.489, 267.875 523.754, 272 521.980 C 280.588 518.287, 281.049 518, 278.388 518 C 277.319 518, 273.081 519.622, 268.972 521.605 M 166.716 569.085 C 164.635 570.184, 163.173 571.471, 163.467 571.947 C 164.189 573.115, 168.536 570.973, 169.910 568.773 C 171.246 566.634, 171.388 566.620, 166.716 569.085" stroke="none" fill="#1A1A1A" fill-rule="evenodd"/>
</svg>