<svg xmlns="http://www.w3.org/2000/svg" viewBox="0 0 450 600" version="1.1" preserveAspectRatio="xMidYMid meet">
	<path d="M 27.577 1.176 C 27.347 1.904, 25.310 14.761, 23.049 29.747 C 19.445 53.642, 18.302 60, 17.613 60 C 17.517 60, 13.754 58.446, 9.250 56.546 C 3.995 54.330, 0.828 53.469, 0.412 54.142 C -0.631 55.830, 1.969 57.595, 10.500 60.987 C 14.900 62.737, 20.750 65.212, 23.500 66.488 C 26.250 67.764, 36.989 72.529, 47.364 77.077 C 67.608 85.952, 68.552 86.090, 70.270 80.429 C 70.759 78.818, 71.353 76.887, 71.591 76.137 C 71.924 75.087, 72.345 75.041, 73.423 75.936 C 74.356 76.710, 75.033 76.756, 75.455 76.073 C 75.814 75.492, 77.912 75.275, 80.294 75.572 C 82.607 75.861, 85.082 76.150, 85.793 76.215 C 86.504 76.280, 86.842 76.970, 86.543 77.748 C 86.244 78.527, 86 80.210, 86 81.488 C 86 83.244, 85.555 83.696, 84.180 83.337 C 81.137 82.541, 79.356 85.631, 81.496 87.995 C 82.470 89.072, 83.657 89.712, 84.134 89.417 C 84.610 89.123, 85 89.739, 85 90.786 C 85 93.582, 87.515 95.423, 97 99.569 C 101.675 101.613, 112.307 106.548, 120.626 110.536 C 128.945 114.524, 136.820 118.110, 138.126 118.505 C 139.432 118.900, 143.831 120.787, 147.901 122.697 C 151.972 124.608, 158.448 126.826, 162.291 127.628 C 167.541 128.722, 169.777 129.719, 171.284 131.633 C 172.386 133.035, 176.711 135.764, 180.894 137.697 C 194.013 143.759, 211 150.845, 211 150.256 C 211 149.945, 211.787 150.397, 212.750 151.260 C 213.713 152.124, 219 154.720, 224.500 157.031 C 237.951 162.680, 242.380 164.670, 249.732 168.367 C 255.015 171.023, 256.266 171.312, 257.941 170.267 C 259.669 169.189, 260.496 169.535, 264.514 173.012 C 274.503 181.657, 277.445 179.618, 278.958 163 C 279.534 156.675, 280.966 144.384, 282.139 135.687 C 283.671 124.339, 283.968 119.568, 283.191 118.791 C 282.414 118.014, 282.658 116.631, 284.054 113.894 C 285.124 111.796, 286 108.965, 286 107.602 C 286 106.239, 286.693 102.134, 287.541 98.479 C 288.389 94.824, 288.823 91.018, 288.506 90.020 C 288.189 89.022, 288.854 85.796, 289.984 82.852 C 291.113 79.909, 293.604 70.075, 295.519 61 C 297.434 51.925, 300.779 36.175, 302.952 26 C 310.353 -8.649, 308.526 -8.773, 288.263 25 C 255.358 79.846, 243.402 107.418, 235.931 145.677 C 233.855 156.311, 233.645 156.814, 231.624 156.020 C 223.316 152.755, 215.508 149.024, 215.229 148.187 C 214.577 146.230, 222.093 111.293, 225.539 100.265 C 232.441 78.173, 248.185 43.633, 265.314 13 C 271.303 2.290, 272.197 -1.057, 268.712 0.280 C 266.962 0.952, 263.609 6.849, 250.394 32.500 C 229.840 72.396, 220.452 97.154, 214.554 127.014 C 210.191 149.098, 211.172 146.959, 206.376 144.849 C 202.252 143.034, 202.252 143.034, 204.608 129.767 C 211.078 93.339, 220.883 65.204, 241.393 24.215 C 251.691 3.632, 253.638 -1.748, 249.963 0.523 C 248.416 1.479, 226.477 45.733, 221.510 57.918 C 212.282 80.555, 204.884 105.785, 200.919 128.147 C 199.715 134.941, 198.629 140.624, 198.506 140.775 C 198.187 141.169, 189 137.160, 189 136.627 C 189 134.939, 195.137 103.241, 196.479 98 C 204.671 65.991, 210.134 51.238, 227.666 13.777 C 230.683 7.330, 232.866 1.592, 232.517 1.027 C 230.738 -1.851, 230.228 -0.938, 215.960 30.629 C 201.241 63.195, 190.305 99.602, 186.401 129.034 C 185.573 135.273, 185.269 135.449, 179.609 132.945 C 174.190 130.548, 174.321 131.766, 177.490 113.136 C 183.101 80.150, 192.308 50.058, 207.465 15.168 C 212.970 2.496, 213.465 0, 210.471 -0 C 209.174 -0, 202.017 13.828, 201.987 16.391 C 201.980 17.001, 200.696 20.021, 199.133 23.103 C 197.570 26.184, 195.986 29.919, 195.614 31.401 C 195.242 32.884, 193.638 36.780, 192.050 40.059 C 190.461 43.338, 188.428 48.946, 187.531 52.522 C 186.634 56.098, 184.631 62.056, 183.079 65.762 C 181.526 69.468, 179.957 75.194, 179.592 78.487 C 179.226 81.779, 178.493 84.907, 177.963 85.437 C 177.434 85.966, 177 87.408, 177 88.641 C 177 89.874, 176.550 91.160, 176 91.500 C 175.450 91.840, 175 92.995, 175 94.067 C 175 95.777, 174.746 95.862, 172.937 94.758 C 171.123 93.652, 170.574 93.845, 168.398 96.351 C 165.790 99.354, 166.644 102.734, 169.712 101.557 C 170.478 101.263, 170.848 101.437, 170.536 101.942 C 170.223 102.448, 170.351 103.099, 170.820 103.389 C 171.289 103.679, 171.735 105.583, 171.812 107.622 C 171.951 111.328, 171.951 111.328, 169.171 108.664 C 165.785 105.420, 164.924 105.368, 162.302 108.250 C 159.514 111.314, 159.130 113.023, 160.596 115.848 C 161.281 117.169, 161.622 118.821, 161.354 119.521 C 161.085 120.220, 161.908 121.560, 163.183 122.497 C 165.474 124.183, 165.455 124.195, 161.501 123.509 C 157.468 122.810, 146.196 118.474, 144.683 117.040 C 141.655 114.170, 154.358 58.342, 166.763 20 C 173.216 0.056, 173.128 0.500, 170.639 0.500 C 166.208 0.500, 148.133 62.624, 142.417 97.500 C 140.884 106.850, 139.534 114.642, 139.416 114.815 C 138.271 116.504, 127 108.614, 127 106.124 C 127 96.169, 137.292 47.655, 145.654 18.191 C 149.121 5.974, 149.996 1.596, 149.141 0.741 C 148.427 0.027, 147.680 -0.044, 147.145 0.550 C 143.371 4.741, 123 93.052, 123 105.222 C 123 106.291, 122.638 107.017, 122.196 106.833 C 113.500 103.230, 108.135 100.591, 108.454 100.074 C 108.675 99.717, 110.266 91.342, 111.991 81.462 C 117.620 49.219, 120.929 32.758, 124.948 17.001 C 128.741 2.131, 128.899 -0.943, 125.809 0.243 C 123.785 1.020, 114.606 40.780, 109.358 71.500 C 106.821 86.350, 104.643 98.622, 104.519 98.770 C 104.395 98.919, 100.886 97.422, 96.722 95.445 C 89.150 91.849, 89.150 91.849, 89.662 88.175 C 91.352 76.042, 97.649 40.595, 101.152 23.500 C 103.406 12.500, 105.306 2.825, 105.375 2 C 105.532 0.122, 101.140 -0.632, 100.592 1.180 C 99.321 5.383, 94.885 25.188, 94.373 28.948 C 94.039 31.395, 92.907 35.895, 91.857 38.948 C 90.806 42.002, 89.785 45.850, 89.588 47.500 C 87.147 67.954, 85.721 71.969, 81.047 71.550 C 74.201 70.935, 71.689 56.169, 76.480 44.701 C 77.298 42.744, 77.918 38.938, 77.857 36.243 C 77.796 33.547, 78.250 30.401, 78.865 29.251 C 79.852 27.408, 81.208 19.962, 82.555 9 C 83.622 0.313, 83.655 0.500, 81.040 0.500 C 78.685 0.500, 78.462 1.074, 75.816 14 C 71.700 34.097, 66.002 68.452, 65.985 73.274 C 65.959 80.336, 65.411 80.496, 55.547 76.320 C 46.741 72.593, 46.741 72.593, 47.337 65.546 C 47.864 59.315, 54.638 16.544, 56.889 5.228 C 57.389 2.717, 57.363 0.724, 56.826 0.392 C 55.288 -0.558, 53.236 1.896, 52.737 5.285 C 52.477 7.053, 50.427 19.525, 48.183 33 C 45.939 46.475, 43.797 60.485, 43.425 64.133 C 42.748 70.766, 42.748 70.766, 32.624 66.528 C 22.864 62.443, 22.511 62.186, 22.804 59.395 C 22.972 57.803, 24.908 44.575, 27.108 30 C 29.307 15.425, 31.195 2.841, 31.303 2.036 C 31.552 0.183, 28.138 -0.605, 27.577 1.176 M 323.530 1.250 C 321.835 6.451, 319 18.470, 319 20.452 C 319 21.789, 318.590 23.135, 318.090 23.444 C 316.814 24.233, 305.756 69.796, 306.535 71.057 C 306.885 71.624, 306.734 72.630, 306.199 73.294 C 305.663 73.957, 304.244 79, 303.045 84.500 C 301.846 90, 300.215 97.425, 299.420 101 C 298.626 104.575, 297.824 109.345, 297.639 111.601 C 297.454 113.856, 297.031 116.140, 296.700 116.677 C 292.888 122.844, 287.431 175.453, 290.352 177.877 C 292.321 179.511, 301.136 178.680, 305.422 176.456 C 306.954 175.661, 308.564 175.231, 308.999 175.499 C 310.361 176.341, 320.281 174.056, 321.994 172.505 C 323.074 171.528, 323.963 171.363, 324.619 172.019 C 325.905 173.305, 336.878 171.244, 339.151 169.289 C 340.103 168.470, 341.048 168.269, 341.385 168.814 C 341.741 169.390, 344.414 169.208, 348.234 168.347 C 351.680 167.571, 356.075 166.736, 358 166.491 C 363.599 165.779, 390.188 160.004, 391.398 159.236 C 392.004 158.851, 393.625 158.456, 395 158.358 C 398.128 158.134, 430.090 152.423, 439.500 150.407 C 443.350 149.583, 447.512 148.695, 448.750 148.435 C 451.239 147.912, 451.787 145.516, 449.609 144.680 C 448.844 144.386, 440.647 145.672, 431.395 147.536 C 421.010 149.628, 414.341 150.552, 413.969 149.949 C 413.637 149.412, 412.827 138.516, 412.170 125.736 C 411.513 112.956, 410.283 90.800, 409.438 76.500 C 408.593 62.200, 407.586 39.250, 407.201 25.500 C 406.500 0.500, 406.500 0.500, 404 0.500 C 401.297 0.500, 400.796 15.449, 402.494 45.500 C 402.836 51.550, 403.746 67.300, 404.516 80.500 C 407.321 128.583, 408.333 151, 407.727 151.606 C 407.387 151.947, 404.384 152.794, 401.054 153.489 C 395.089 154.734, 395 154.720, 395 152.535 C 395 148.831, 392.141 108.741, 388.939 67.531 C 387.236 45.617, 385.976 22.421, 386.060 14.531 C 386.210 0.500, 386.210 0.500, 383.855 0.500 C 380.531 0.500, 380.861 23.881, 384.900 74.500 C 386.568 95.400, 388.399 119.700, 388.969 128.500 C 389.539 137.300, 390.219 147.058, 390.480 150.184 C 390.977 156.120, 389.793 156.891, 378 158.318 C 376.779 158.466, 376.366 156.361, 375.780 147 C 374.771 130.894, 372.379 104.420, 368.867 70.500 C 367.216 54.550, 365.332 32.275, 364.682 21 C 363.700 3.970, 363.246 0.500, 362 0.500 C 359.632 0.500, 360.512 27.462, 363.974 61 C 369.136 111.012, 372.933 156.290, 372.192 159 C 371.994 159.723, 359.765 162.098, 359.192 161.525 C 358.927 161.260, 358.548 158.897, 358.350 156.272 C 356.261 128.637, 352.512 94.922, 347.532 59 C 346.198 49.375, 344.360 32.500, 343.448 21.500 C 341.767 1.236, 341.323 -0.722, 338.634 0.310 C 337.477 0.754, 337.235 2.103, 337.578 6.193 C 339.971 34.701, 341.366 48.533, 343.003 60 C 348.956 101.691, 355.009 161.399, 353.440 162.949 C 352.923 163.459, 350.137 164.187, 347.250 164.567 C 342 165.258, 342 165.258, 342 160.447 C 342 149.783, 336.812 109.542, 329.565 64 C 322.392 18.923, 322.467 19.790, 324.992 10.680 C 326.184 6.378, 326.913 2.216, 326.611 1.430 C 325.935 -0.333, 324.081 -0.441, 323.530 1.250 M 297.523 17.300 C 280.512 44.283, 260.180 82.726, 252.462 102.500 C 245.829 119.493, 236.681 157.186, 238.733 159.070 C 242.701 162.716, 243.567 161.448, 246.375 147.875 C 252.436 118.581, 262.348 95.105, 284.319 58 C 288.716 50.575, 293.100 43.600, 294.062 42.500 C 295.581 40.763, 302.612 12.278, 301.738 11.404 C 301.570 11.236, 299.673 13.889, 297.523 17.300 M 315.057 49.767 C 310.625 67.809, 310.625 67.809, 314.319 87.655 C 319.084 113.252, 322.703 137.961, 324.222 155.255 C 325.429 169.010, 325.429 169.010, 328.965 168.349 C 337.975 166.665, 337.535 167.170, 337.187 158.919 C 336.716 147.758, 332.312 111.239, 328.513 87 C 326.660 75.175, 324.187 59.200, 323.018 51.500 C 319.645 29.277, 320.068 29.369, 315.057 49.767 M 285.242 64.267 C 265.886 97.500, 255.598 123.242, 250.059 152.301 C 248.926 158.241, 248 163.260, 248 163.453 C 248 163.646, 249.370 164.282, 251.045 164.866 C 254.624 166.114, 254.249 166.865, 256.464 154 C 259.630 135.608, 272.501 102.916, 284.340 83.196 C 287.357 78.171, 293.996 53.663, 292.693 52.360 C 292.514 52.180, 289.161 57.539, 285.242 64.267 M 0.446 80.087 C -0.542 81.686, 0.740 82.516, 8.500 85.304 C 12.350 86.687, 19.325 89.475, 24 91.499 C 28.675 93.523, 39.475 98.035, 48 101.524 C 88.601 118.145, 102.758 124.001, 126.250 133.896 C 175.651 154.703, 200.408 164.627, 222.500 172.477 C 236.800 177.559, 254.125 183.882, 261 186.529 C 272.163 190.827, 274.462 191.368, 282.500 191.589 C 287.450 191.725, 292.625 191.944, 294 192.075 C 295.375 192.207, 299.200 191.811, 302.500 191.196 C 305.800 190.581, 329.875 186.459, 356 182.036 C 445.836 166.827, 451.227 165.664, 450.921 161.559 C 450.876 160.959, 450.632 161.017, 450.356 161.694 C 450.089 162.350, 449.254 162.651, 448.500 162.361 C 447.745 162.072, 438.566 163.453, 428.100 165.429 C 417.634 167.406, 386.443 172.861, 358.786 177.552 C 331.129 182.243, 305.800 186.583, 302.500 187.198 C 299.200 187.812, 295.375 188.207, 294 188.075 C 292.625 187.944, 287.450 187.725, 282.500 187.589 C 274.462 187.368, 272.163 186.827, 261 182.529 C 254.125 179.882, 236.800 173.559, 222.500 168.477 C 200.408 160.627, 175.651 150.703, 126.250 129.896 C 102.758 120.001, 88.601 114.145, 48 97.524 C 39.475 94.035, 28.675 89.523, 24 87.499 C 7.217 80.232, 1.474 78.424, 0.446 80.087 M 307.678 81.500 C 306.919 83.893, 303.306 101.300, 301.986 108.926 C 301.470 111.911, 301.426 114.836, 301.890 115.426 C 303.358 117.299, 310 163.361, 310 171.674 C 310 171.928, 310.788 171.919, 311.750 171.655 C 312.712 171.391, 315.207 170.886, 317.294 170.534 C 321.617 169.803, 321.509 172.529, 318.365 143.500 C 317.099 131.805, 309.680 83.788, 308.632 80.500 C 308.457 79.950, 308.028 80.400, 307.678 81.500 M 281.941 97.750 C 281.386 99.263, 279.632 102.975, 278.044 106 C 274.590 112.579, 272.408 118.257, 269.974 127 C 268.979 130.575, 267.465 135.144, 266.609 137.153 C 265.202 140.458, 265.202 140.864, 266.609 141.403 C 268.883 142.276, 268.837 142.320, 269.936 138.250 C 270.493 136.188, 273.264 129.325, 276.093 123 C 278.922 116.675, 281.601 109.250, 282.045 106.500 C 282.490 103.750, 283.168 100.037, 283.552 98.250 C 284.402 94.290, 283.333 93.958, 281.941 97.750 M 164 111.965 C 164 114.476, 167.243 116.357, 168.833 114.767 C 169.686 113.914, 169.560 113.171, 168.331 111.814 C 166.172 109.427, 164 109.503, 164 111.965 M 0.377 123.199 C -0.594 124.769, 2.081 126.702, 7.500 128.344 C 12.479 129.854, 40.885 139.750, 48.500 142.628 C 50.700 143.460, 57 145.597, 62.500 147.379 C 68 149.160, 77.675 152.555, 84 154.923 C 100.676 161.167, 111.736 165.180, 127 170.525 C 134.425 173.125, 145 176.969, 150.500 179.067 C 166.474 185.161, 170.518 186.539, 188.500 192.013 C 207.329 197.746, 215.950 200.261, 233 204.994 C 258.176 211.984, 264.955 214.674, 262 216.500 C 261.450 216.840, 261 218.381, 261 219.925 C 261 223.049, 259.771 222.913, 242.838 217.910 C 239.174 216.827, 235.799 216.050, 235.338 216.183 C 234.877 216.316, 233.600 215.925, 232.500 215.315 C 230.723 214.328, 217.662 210.480, 189.500 202.647 C 177.188 199.222, 162.716 194.896, 149 190.540 C 142.675 188.531, 132.550 185.498, 126.500 183.799 C 120.450 182.100, 106.725 177.875, 96 174.409 C 63.953 164.052, 28.704 153.121, 25.500 152.547 C 23.850 152.251, 17.775 150.481, 12 148.613 C 1.500 145.216, 1.500 145.216, 0.955 148.858 C 0.288 153.316, 0.534 153.872, 3.699 155.076 C 5.256 155.668, 5.998 156.562, 5.661 157.441 C 4.996 159.175, 6.915 160.838, 9.160 160.473 C 10.073 160.325, 12.062 161.499, 13.580 163.083 C 16.481 166.111, 19 165.650, 19 162.090 C 19 159.735, 22.689 159.701, 23.303 162.051 C 23.578 163.103, 22.973 165.592, 21.958 167.583 C 19.634 172.141, 23.398 177.694, 26.807 174.738 C 29.736 172.199, 36.703 175.897, 34.029 178.571 C 33.494 179.106, 32.911 180.502, 32.732 181.674 C 32.553 182.846, 31.810 184.524, 31.081 185.402 C 29.006 187.903, 31.437 190.392, 34.355 188.755 C 39.667 185.776, 42.429 187.242, 45.253 194.539 C 46.360 197.401, 46.525 199.098, 45.818 200.361 C 44.449 202.807, 47.610 206.308, 50.661 205.724 C 54.522 204.986, 66.966 220.040, 65.549 223.734 C 64.899 225.427, 67.637 230.342, 68.822 229.610 C 71.365 228.038, 80.607 239.668, 78.593 241.905 C 77.803 242.782, 77.260 244.963, 77.386 246.750 C 77.579 249.495, 77.275 250, 75.430 250 C 74.228 250, 72.685 250.675, 72 251.500 C 70.163 253.713, 69.512 253.344, 69.395 250.025 C 69.267 246.398, 67.426 244, 64.769 244 C 63.163 244, 62.900 243.533, 63.395 241.561 C 63.732 240.220, 63.548 238.839, 62.987 238.492 C 62.426 238.145, 62.195 237.494, 62.473 237.044 C 62.751 236.595, 62.313 235.675, 61.500 235 C 60.687 234.325, 60.249 233.405, 60.527 232.956 C 61.180 231.899, 59.370 230.757, 55 229.468 C 53.075 228.900, 51.444 227.888, 51.375 227.218 C 51.306 226.548, 51.159 225.887, 51.048 225.750 C 50.938 225.613, 50.700 224.740, 50.521 223.811 C 50.128 221.775, 45.088 215, 43.966 215 C 41.311 215, 35.076 204.730, 36.498 202.699 C 38.299 200.128, 36.081 196.905, 33.056 197.696 C 30.359 198.401, 29.753 196.533, 32.015 194.486 C 33.956 192.730, 33.928 192.645, 29.948 188.328 C 27.729 185.920, 26.152 183.562, 26.445 183.088 C 27.264 181.764, 24.225 179.700, 22.456 180.378 C 20.543 181.113, 15.832 176.128, 16.545 174.123 C 17.276 172.066, 15.019 169.739, 13.509 170.993 C 11.338 172.794, 6.733 168.273, 7.237 164.836 C 7.741 161.403, 5.717 159.160, 3.658 160.869 C 2.920 161.481, 2.020 161.687, 1.658 161.325 C 1.296 160.963, 1 161.448, 1 162.403 C 1 164.836, 6.743 172.919, 9.341 174.144 C 11.828 175.316, 19.326 184.607, 19.664 186.934 C 19.788 187.795, 21.505 189.982, 23.478 191.793 C 25.451 193.604, 26.827 195.472, 26.536 195.942 C 26.245 196.413, 27.571 198.173, 29.484 199.852 C 31.397 201.531, 32.563 203.152, 32.075 203.454 C 30.268 204.570, 32.355 207.941, 39.538 215.507 C 43.592 219.777, 46.877 223.548, 46.836 223.886 C 46.796 224.224, 46.873 224.838, 47.007 225.250 C 47.140 225.662, 47.322 226.338, 47.410 226.750 C 47.903 229.052, 50.347 232.062, 52.647 233.199 C 54.094 233.915, 55.193 234.850, 55.090 235.277 C 54.987 235.705, 55.881 237.955, 57.076 240.277 C 58.272 242.600, 59.574 245.165, 59.970 245.977 C 60.365 246.790, 61.772 247.710, 63.095 248.021 C 64.818 248.428, 65.528 249.311, 65.599 251.137 C 65.704 253.849, 73.715 265.294, 74.967 264.520 C 75.725 264.052, 80.704 268.820, 80.250 269.581 C 79.341 271.106, 80.673 273.350, 85.539 278.497 C 88.586 281.718, 90.869 284.899, 90.613 285.566 C 90.135 286.811, 105.321 306.646, 108.645 309.120 C 109.665 309.879, 110.633 311.123, 110.795 311.885 C 111.150 313.550, 115.549 320.037, 120.153 325.685 C 125.909 332.745, 128.682 336.471, 128.792 337.290 C 128.921 338.262, 140.042 352.644, 149.205 363.690 C 152.942 368.195, 156 372.368, 156 372.963 C 156 373.558, 157.699 375.947, 159.776 378.272 C 161.853 380.598, 164.332 384.075, 165.286 386 C 166.240 387.925, 169.275 392.650, 172.031 396.500 C 174.787 400.350, 178.757 405.975, 180.854 409 C 189.870 422.007, 193.297 426.848, 197.493 432.500 C 199.942 435.800, 205.045 443, 208.833 448.500 C 215.402 458.039, 233.104 483.344, 243.932 498.675 C 250.149 507.477, 250.153 507.175, 243.778 509.552 C 240.906 510.624, 238.262 511.631, 237.902 511.792 C 237.543 511.953, 227.886 499.353, 216.443 483.792 C 205 468.231, 192.335 451.102, 188.299 445.727 C 184.263 440.351, 175.343 428.293, 168.477 418.929 C 161.611 409.566, 144.632 387.665, 130.747 370.260 C 116.861 352.855, 100.550 332.213, 94.500 324.389 C 88.450 316.565, 76.709 301.464, 68.408 290.831 C 60.107 280.199, 45.060 260.700, 34.970 247.500 C 6.367 210.081, 1.929 204.671, 0.785 205.815 C 0.096 206.504, 0.209 207.437, 1.134 208.710 C 3.911 212.529, 43.005 263.254, 60.959 286.334 C 71.156 299.443, 84.450 316.569, 90.500 324.391 C 96.550 332.214, 112.861 352.855, 126.747 370.260 C 140.632 387.665, 157.690 409.689, 164.653 419.203 C 171.615 428.716, 179.216 438.975, 181.542 442 C 191.185 454.538, 234.090 513.242, 233.807 513.510 C 233.238 514.048, 220.665 518.999, 220.503 518.748 C 219.471 517.146, 212.282 507.637, 202.555 495.008 C 195.986 486.479, 182.465 468.925, 172.510 456 C 162.554 443.075, 145.429 421.648, 134.454 408.385 C 123.480 395.122, 112.173 381.397, 109.329 377.885 C 92.492 357.096, 83.092 345.479, 76.708 337.572 C 66.382 324.783, 51.695 306.793, 43.993 297.500 C 40.346 293.100, 29.372 279.706, 19.607 267.736 C 3.920 248.506, -0.868 243.777, 0.195 248.562 C 0.499 249.932, 10.526 262.502, 37.956 295.899 C 51.011 311.794, 70.675 335.960, 101.507 374 C 107.525 381.425, 121.102 397.936, 131.678 410.691 C 142.254 423.446, 157.341 442.270, 165.204 452.522 C 173.067 462.774, 182.875 475.541, 187 480.893 C 210.924 511.931, 217.147 520.185, 216.841 520.471 C 215.988 521.269, 203.916 526, 202.732 526 C 202.002 526, 191.076 513.069, 178.452 497.265 C 165.828 481.461, 148.100 459.974, 139.056 449.515 C 97.365 401.304, 97.379 401.320, 63.456 360.505 C 48.966 343.070, 20.250 309.609, 7.824 295.680 C 3.788 291.156, 1.405 289.195, 0.745 289.855 C 0.085 290.515, 1.452 292.811, 4.806 296.675 C 33.055 329.221, 46.767 345.237, 59.456 360.505 C 94.147 402.245, 92.218 399.972, 131.591 445.500 C 148.795 465.393, 158.304 476.982, 189.227 515.738 C 200.169 529.452, 200.420 527.594, 186.896 533.012 C 182.291 534.856, 182.291 534.856, 170.896 521.203 C 157.432 505.073, 150.092 496.750, 123.974 468 C 97.007 438.315, 65.055 402.373, 55.520 391 C 43.359 376.494, 28.740 359.776, 16.606 346.500 C -0.384 327.910, 1.177 329.376, 0.436 331.306 C -0.031 332.523, 3.349 336.915, 12.699 347.243 C 19.797 355.084, 33.893 371.175, 44.023 383 C 65.463 408.029, 84.452 429.407, 120.398 468.985 C 134.642 484.668, 151.219 503.350, 157.236 510.500 C 163.253 517.650, 170.421 526.097, 173.165 529.270 C 175.908 532.444, 177.990 535.530, 177.790 536.129 C 177.258 537.726, 160.940 544.077, 159.555 543.226 C 158.442 542.541, 146.433 529.908, 109.448 490.513 C 100.676 481.171, 88.325 468.114, 82 461.497 C 75.675 454.881, 65.100 443.616, 58.500 436.464 C 10.038 383.947, 1.659 375.093, 0.879 375.575 C -1.181 376.848, 0.343 380.128, 5.323 385.141 C 8.251 388.089, 17.228 397.700, 25.273 406.500 C 49.481 432.982, 51.198 434.822, 69.175 453.516 C 78.704 463.426, 96.349 482.101, 108.386 495.016 C 120.424 507.932, 134.952 523.403, 140.672 529.395 C 157.077 546.584, 156.720 545.179, 145.760 549.421 C 140.667 551.393, 135.904 553.005, 135.176 553.003 C 133.888 553, 81.277 500.648, 28.261 446.612 C 4.707 422.605, -0 418.540, -0 422.204 C -0 423.357, 21.620 445.478, 89.348 513.622 C 135.904 560.464, 133.352 555.005, 112.347 562.817 C 106.410 565.026, 112.434 570.171, 41 501.887 C 19.825 481.646, 2.061 465.033, 1.525 464.968 C -1.726 464.575, 2.989 469.617, 30.217 495.649 C 55.280 519.611, 100.127 562.163, 103.343 565.034 C 103.807 565.448, 98.227 568.108, 90.944 570.947 C 77.702 576.107, 77.702 576.107, 74.309 573.694 C 70.478 570.968, 56.174 558.531, 35.500 539.951 C 4.531 512.118, 1.777 509.823, 0.672 510.928 C -0.002 511.602, -0.047 512.327, 0.550 512.881 C 1.073 513.366, 6 517.726, 11.500 522.571 C 17 527.416, 27.575 536.840, 35 543.513 C 50.733 557.653, 64.999 570.206, 70.323 574.594 C 74.076 577.687, 74.076 577.687, 59.476 583.357 C 47.117 588.156, 44.605 588.833, 43.113 587.763 C 42.143 587.068, 32.903 579.525, 22.579 571 C 0.902 553.099, 1.203 553.308, 0.328 555.589 C -0.114 556.739, 0.496 557.886, 2.215 559.138 C 6.614 562.343, 38.933 589.082, 39.483 589.972 C 39.772 590.440, 36.744 592.052, 32.754 593.554 C 24.755 596.567, 22.748 597.783, 23.570 599.113 C 24.664 600.883, 31.777 598.958, 42.500 593.992 C 43.600 593.483, 50.800 590.637, 58.500 587.669 C 66.200 584.700, 79.475 579.538, 88 576.197 C 96.525 572.856, 109.800 567.799, 117.500 564.958 C 125.200 562.118, 132.210 559.165, 133.079 558.397 C 133.947 557.629, 135.072 557.001, 135.579 557.003 C 137.223 557.008, 155.455 549.768, 157 548.496 C 157.825 547.817, 158.981 547.437, 159.568 547.653 C 160.779 548.098, 177.741 541.460, 179.835 539.722 C 180.587 539.098, 181.780 538.503, 182.487 538.399 C 184.170 538.152, 217.201 525.011, 218.500 524.071 C 219.050 523.674, 226.025 520.738, 234 517.548 C 244.586 513.313, 249.310 510.878, 251.500 508.526 C 255.396 504.343, 258.360 502.760, 259.731 504.131 C 260.448 504.848, 261.225 504.517, 262.244 503.062 C 263.544 501.205, 263.868 501.136, 264.982 502.478 C 266.768 504.630, 268.395 504.380, 271.923 501.411 C 275.364 498.516, 275.670 491.665, 274.143 451.652 C 273.779 442.126, 273.886 434.567, 274.388 434.258 C 274.882 433.954, 274.993 428.785, 274.637 422.606 C 273.658 405.602, 274.771 270.879, 276.258 226.250 C 276.500 219, 276.500 219, 280.192 219 C 282.223 219, 294.823 217.441, 308.192 215.535 C 321.561 213.629, 344.650 210.488, 359.500 208.555 C 382.797 205.522, 397.859 203.366, 440.500 196.958 C 449.060 195.672, 451.114 194.714, 449.268 192.868 C 448.426 192.026, 446.137 192.046, 440.318 192.948 C 412.749 197.222, 382.887 201.510, 359.500 204.555 C 344.650 206.488, 321.561 209.629, 308.192 211.535 C 294.823 213.441, 281.687 215, 279.001 215 C 272.973 215, 272.680 215.464, 272.419 225.454 C 272.245 232.084, 270.574 244.062, 270.125 241.897 C 270.056 241.565, 268.875 238.192, 267.500 234.401 C 264.799 226.954, 264.262 219.155, 266.234 215.998 C 268.739 211.986, 262.590 209.210, 233 200.994 C 215.950 196.261, 207.329 193.746, 188.500 188.013 C 170.518 182.539, 166.474 181.161, 150.500 175.067 C 145 172.969, 134.425 169.125, 127 166.525 C 111.736 161.180, 100.676 157.167, 84 150.923 C 77.675 148.555, 68 145.160, 62.500 143.379 C 57 141.597, 50.700 139.460, 48.500 138.628 C 42.016 136.178, 12.989 126.040, 6.745 124.045 C 3.118 122.887, 0.763 122.574, 0.377 123.199 M 299.108 123.500 C 299.038 124.050, 297.882 130.947, 296.539 138.827 C 293.069 159.188, 292.141 175, 294.415 175 C 301.040 175, 305 172.804, 304.995 169.131 C 304.987 162.627, 299.521 120.257, 299.108 123.500 M 275.162 138.697 C 272.675 146.888, 269.471 160.724, 268.548 167.251 C 267.905 171.806, 269.510 174, 273.486 174 C 273.681 174, 274.125 170.963, 274.473 167.250 C 274.820 163.537, 275.806 154.287, 276.663 146.694 C 278.445 130.907, 278.094 129.038, 275.162 138.697 M 28.713 158.407 C 29.063 159.008, 33.914 166.025, 39.492 174 C 45.070 181.975, 54.523 195.700, 60.499 204.500 C 66.475 213.300, 75.640 226.350, 80.866 233.500 C 130.116 300.884, 151.173 330.381, 176.166 367 C 186.865 382.675, 201.442 403.948, 208.559 414.274 C 231.049 446.900, 250.954 476.154, 257.703 486.500 C 265.867 499.015, 266.656 499.903, 269.057 499.275 C 271.871 498.539, 271.969 485.086, 269.173 483.340 C 268.168 482.712, 264.030 476.867, 259.979 470.349 C 251.542 456.780, 239.884 438.970, 199.857 378.500 C 184.202 354.850, 166.243 327.625, 159.948 318 C 145.264 295.547, 122.303 262.117, 110.154 245.500 C 104.926 238.350, 96.799 227.100, 92.092 220.500 C 82.181 206.600, 58 169.019, 58 167.514 C 58 166.953, 51.267 164.428, 43.038 161.904 C 34.809 159.379, 28.363 157.806, 28.713 158.407 M 27.799 165.248 C 28.671 166.306, 28.753 167.035, 28.049 167.470 C 26.612 168.358, 26.729 169.656, 28.250 169.714 C 28.938 169.740, 30.386 170.126, 31.469 170.572 C 33.354 171.348, 33.346 171.236, 31.270 167.958 C 30.078 166.075, 28.517 164.341, 27.801 164.104 C 26.734 163.752, 26.733 163.958, 27.799 165.248 M 64.129 171.750 C 78.125 194.645, 92.923 216.462, 114.154 245.500 C 126.303 262.117, 149.264 295.547, 163.948 318 C 170.243 327.625, 188.202 354.850, 203.857 378.500 C 243.734 438.743, 255.656 456.947, 263.059 468.902 C 269.500 479.304, 269.500 479.304, 269.792 471.041 C 270.173 460.263, 266.526 453.604, 225.406 390 C 209.247 365.006, 199.378 349.680, 185.626 328.224 C 181.846 322.326, 171.307 305.575, 162.206 291 C 145.919 264.917, 139.958 255.918, 110.387 212.784 C 102.199 200.839, 93.250 187.564, 90.500 183.284 C 85.500 175.500, 85.500 175.500, 74.500 171.838 C 60.797 167.277, 61.398 167.282, 64.129 171.750 M 91.623 178.250 C 96.314 186.166, 104.197 198.127, 116.189 215.525 C 143.131 254.613, 148.326 262.456, 166.838 292 C 189.582 328.299, 193.062 333.781, 208.094 357 C 220.872 376.736, 241.494 408.757, 251.732 424.760 C 255.160 430.117, 260.560 439.095, 263.732 444.711 C 269.500 454.922, 269.500 454.922, 269.789 445.818 C 270.037 438.025, 269.805 436.409, 268.180 434.606 C 267.135 433.448, 262.436 425.750, 257.738 417.500 C 253.040 409.250, 245.214 396.094, 240.348 388.264 C 235.482 380.434, 223.866 361.759, 214.536 346.764 C 195.957 316.904, 180.625 291.925, 160.754 259.138 C 153.633 247.389, 139.727 225.601, 129.851 210.720 C 111.894 183.663, 111.894 183.663, 101.697 180.342 C 89.860 176.488, 90.679 176.658, 91.623 178.250 M 118 185.593 C 118 185.830, 125.814 197.831, 135.364 212.262 C 153.847 240.190, 154.447 241.141, 174.028 273.500 C 181.018 285.050, 189.107 298.325, 192.004 303 C 194.902 307.675, 202.106 319.375, 208.014 329 C 213.923 338.625, 227.474 360.534, 238.128 377.688 C 248.783 394.841, 260.300 413.741, 263.723 419.688 C 269.947 430.500, 269.947 430.500, 269.973 421.680 C 270 413.013, 269.924 412.735, 265.636 405.672 C 263.237 401.718, 259.826 395.618, 258.059 392.116 C 256.291 388.614, 248.284 374.892, 240.267 361.624 C 223.262 333.482, 194.715 285.810, 178.215 258 C 159.630 226.677, 137.620 191.919, 135.704 190.868 C 133.796 189.821, 118 185.115, 118 185.593 M 142.637 194.250 C 143.052 194.938, 146.146 199.775, 149.512 205 C 160.589 222.191, 170.478 238.218, 182.215 258 C 197.593 283.918, 226.268 331.826, 244.165 361.500 C 252.126 374.700, 261.083 390.142, 264.070 395.815 C 269.500 406.130, 269.500 406.130, 269.791 398.062 C 270.081 389.993, 270.081 389.993, 264.348 379.746 C 261.195 374.111, 256.318 365.225, 253.511 360 C 250.703 354.775, 238.033 332.725, 225.354 311 C 212.674 289.275, 198.802 265.425, 194.527 258 C 186.952 244.847, 184.489 240.679, 167.008 211.431 C 158.600 197.362, 158.600 197.362, 150.991 195.181 C 142.131 192.641, 141.632 192.586, 142.637 194.250 M 50.282 197.250 C 50.528 197.938, 50.334 199.270, 49.851 200.211 C 49.112 201.649, 49.428 201.888, 51.829 201.711 C 54.687 201.500, 54.687 201.500, 52.655 198.750 C 50.482 195.808, 49.554 195.222, 50.282 197.250 M 164 199.533 C 164 199.693, 167.074 204.926, 170.832 211.162 C 182.280 230.162, 190.563 244.174, 198.612 258.157 C 202.837 265.496, 217.264 290.323, 230.672 313.329 C 244.081 336.335, 256.354 357.710, 257.946 360.829 C 269.755 383.961, 270 384.020, 270 363.738 C 270 344.231, 268.037 337.770, 258.231 325 C 257.175 323.625, 255.988 321.186, 255.594 319.579 C 254.346 314.501, 251.629 311.800, 249.704 313.725 C 246.372 317.057, 242.775 309.194, 245.713 305 C 246.883 303.328, 246.864 302.633, 245.583 300.270 C 244.756 298.747, 244.062 297.893, 244.040 298.372 C 244.018 298.852, 243.354 298.709, 242.564 298.053 C 241.538 297.202, 240.574 297.158, 239.190 297.898 C 236.979 299.082, 236.135 298.356, 230.484 290.407 C 228.568 287.712, 227 284.294, 227 282.812 C 227 281.330, 226.520 279.822, 225.934 279.459 C 223.746 278.107, 219 270.622, 219 268.524 C 219 267.328, 217.886 265.302, 216.525 264.024 C 215.164 262.745, 213.288 259.629, 212.356 257.099 C 211.424 254.570, 209.993 251.713, 209.176 250.750 C 207.854 249.193, 207.883 248.787, 209.443 247.063 C 211.580 244.702, 210.608 242.250, 208.296 244.169 C 206.679 245.511, 203 242.298, 203 239.544 C 203 238.865, 202.051 237.453, 200.891 236.405 C 199.731 235.357, 197.517 231.998, 195.972 228.940 C 194.427 225.882, 192.451 222.790, 191.582 222.068 C 190.712 221.346, 190 220.365, 190 219.887 C 190 219.410, 188.030 216.141, 185.621 212.624 C 183.213 209.106, 181.067 205.702, 180.853 205.058 C 180.526 204.079, 164 198.661, 164 199.533 M 186 206.744 C 186 207.271, 188.462 211.133, 191.471 215.326 C 194.479 219.519, 198.139 225.324, 199.603 228.225 C 203.869 236.681, 207.334 240.154, 209.789 238.435 C 212.203 236.744, 213.989 238.297, 214.449 242.485 C 214.605 243.904, 215.018 245.352, 215.368 245.702 C 215.718 246.051, 215.298 247.119, 214.434 248.073 C 213.265 249.365, 213.125 250.280, 213.886 251.654 C 214.449 252.669, 215.835 255.707, 216.967 258.405 C 218.098 261.102, 219.315 263.018, 219.670 262.663 C 220.904 261.429, 223 264.262, 223 267.163 C 223 271.398, 226.746 276.102, 229.558 275.396 C 233.226 274.475, 235.607 278.725, 232.985 281.516 C 230.438 284.227, 230.474 284.634, 233.662 289.234 C 235.427 291.781, 236.660 292.740, 237.319 292.081 C 237.978 291.422, 239.272 291.769, 241.157 293.112 C 245.141 295.949, 244.782 294.058, 239.635 285.098 C 234.267 275.756, 203.344 219.049, 200.537 213.401 C 198.766 209.838, 197.847 209.134, 193.500 208.009 C 190.750 207.297, 187.938 206.506, 187.250 206.251 C 186.563 205.995, 186 206.217, 186 206.744 M 443.917 206.413 C 443.475 206.852, 431.639 208.538, 376.500 216.017 C 368.250 217.136, 354.750 219.005, 346.500 220.169 C 338.250 221.334, 328.905 222.461, 325.733 222.674 C 322.561 222.888, 318.736 223.547, 317.233 224.139 C 315.730 224.730, 311.699 225.327, 308.276 225.463 C 304.853 225.600, 301.445 226.216, 300.702 226.832 C 299.939 227.466, 298.950 227.578, 298.426 227.091 C 297.917 226.617, 295.064 226.556, 292.088 226.956 C 282.199 228.285, 283.031 220.597, 282.786 312.861 C 282.381 464.957, 282.806 498.138, 285.193 500.693 C 287.642 503.315, 296.630 505.552, 298.495 504.004 C 299.368 503.279, 300.092 503.406, 300.944 504.433 C 302.084 505.806, 311.709 508.386, 313.619 507.831 C 314.104 507.690, 315.410 508.082, 316.522 508.701 C 319.616 510.423, 329.354 511.988, 330.436 510.937 C 331.002 510.388, 331.993 510.575, 332.936 511.410 C 333.796 512.171, 337.650 513.469, 341.500 514.294 C 345.350 515.120, 352.230 516.616, 356.789 517.618 C 367.271 519.923, 368.389 519.376, 368.797 511.739 C 369.094 506.185, 369.094 506.185, 371.414 508.505 C 373.680 510.771, 379.101 511.292, 381.969 509.519 C 382.553 509.158, 383 509.800, 383 511 C 383 512.165, 382.583 512.860, 382.072 512.545 C 381.562 512.229, 379.875 513.104, 378.322 514.489 C 375.500 517.006, 375.500 517.006, 377.915 519.047 C 379.243 520.169, 381 520.830, 381.820 520.515 C 382.640 520.201, 384.253 520.778, 385.405 521.798 C 387.491 523.644, 413.625 529.794, 421 530.174 C 422.925 530.273, 424.950 530.679, 425.500 531.076 C 427.010 532.166, 443.151 535.025, 444.185 534.386 C 444.682 534.079, 445.762 534.387, 446.586 535.072 C 448.697 536.823, 450.849 534.728, 449.102 532.623 C 448.236 531.579, 447.625 520.324, 446.969 493.330 C 446.463 472.524, 445.162 423.550, 444.077 384.500 C 442.098 313.220, 441.213 272.955, 440.750 233 C 440.500 211.500, 440.500 211.500, 444.174 211.194 C 448.006 210.875, 450.635 208.837, 449.527 207.044 C 448.904 206.036, 444.766 205.571, 443.917 206.413 M 203 210.701 C 203 210.975, 205.433 215.542, 208.406 220.850 C 211.380 226.157, 220.684 243.100, 229.081 258.500 C 237.479 273.900, 246.443 290.325, 249.002 295 C 251.561 299.675, 257.445 310.825, 262.077 319.777 C 270.500 336.054, 270.500 336.054, 270.772 316.912 C 271.084 294.939, 272.428 298.632, 244.721 245.301 C 230.590 218.101, 230.590 218.101, 225.815 216.956 C 223.188 216.325, 216.980 214.548, 212.019 213.006 C 207.059 211.464, 203 210.427, 203 210.701 M 431.500 212.502 C 430.950 212.692, 428.025 213.124, 425 213.463 C 419.500 214.080, 419.500 214.080, 420.181 254.290 C 421.197 314.316, 422.902 388.723, 424.024 422 C 424.572 438.225, 425.449 468.546, 425.973 489.381 C 426.498 510.215, 427.096 527.429, 427.301 527.634 C 427.506 527.840, 430.335 528.481, 433.587 529.060 C 436.839 529.638, 440.361 530.365, 441.413 530.675 C 443.599 531.319, 443.466 515.228, 440.488 419 C 438.094 341.625, 436.008 254.982, 436.004 232.750 C 436 210.762, 436.039 210.939, 431.500 212.502 M 407.500 215.655 C 400.251 217.188, 400.999 214.006, 401.009 243.269 C 401.020 277.344, 402.608 366.669, 404.470 438 C 405.282 469.075, 406.041 501.102, 406.157 509.171 C 406.368 523.843, 406.368 523.843, 412.934 524.978 C 416.545 525.602, 420.287 526.270, 421.249 526.462 C 422.877 526.788, 422.962 525.619, 422.469 509.656 C 422.178 500.220, 421.502 476.075, 420.968 456 C 420.433 435.925, 419.547 404.200, 418.999 385.500 C 417.668 340.122, 416 255.251, 416 232.945 C 416 213.366, 416.219 213.811, 407.500 215.655 M 389.500 218.114 C 381.658 219.252, 380.764 219.651, 381.370 221.745 C 381.650 222.710, 382.173 251.625, 382.534 286 C 382.894 320.375, 383.379 355.025, 383.612 363 C 384.068 378.623, 385.651 444.774, 386.678 491.106 C 387.313 519.712, 387.313 519.712, 393.623 520.875 C 397.094 521.514, 400.519 522.262, 401.234 522.536 C 402.260 522.930, 402.477 520.770, 402.267 512.267 C 402.121 506.345, 401.318 474.050, 400.482 440.500 C 398.508 361.298, 397.030 277.416, 397.013 243.750 C 397.006 229.037, 396.663 217.055, 396.250 217.122 C 395.837 217.189, 392.800 217.636, 389.500 218.114 M 237 221.004 C 237 221.489, 237.868 223.374, 238.928 225.193 C 239.988 227.012, 247.630 241.775, 255.909 258 C 270.963 287.500, 270.963 287.500, 270.982 281.184 C 271.012 270.708, 247.628 223.743, 241.310 221.590 C 238.939 220.782, 237 220.518, 237 221.004 M 371 220.882 C 367.500 221.500, 367.500 221.500, 367.654 311.500 C 367.738 361, 368.131 413.200, 368.526 427.500 C 368.921 441.800, 369.363 458.821, 369.507 465.325 C 369.747 476.114, 369.958 477.282, 371.909 478.649 C 374.350 480.359, 374.121 484.049, 371.247 489.314 C 371.003 489.761, 372.427 489.823, 374.413 489.450 C 378.243 488.732, 380.963 490.045, 380.611 492.443 C 380.329 494.368, 377.976 497, 376.538 497 C 374.832 497, 372.368 504.768, 373.663 506.063 C 375.347 507.747, 378.120 506.092, 377.028 504.053 C 375.803 501.764, 377.758 499.554, 379.632 501.110 C 382.662 503.624, 383.143 500.955, 382.598 484.648 C 382.301 475.767, 381.598 447.350, 381.035 421.500 C 380.473 395.650, 379.825 368.823, 379.596 361.885 C 379.367 354.947, 378.887 320.972, 378.529 286.385 C 378.171 251.798, 377.650 222.713, 377.372 221.750 C 376.841 219.916, 376.630 219.887, 371 220.882 M 353.652 223.049 C 350.986 223.496, 348.542 224.125, 348.220 224.446 C 347.587 225.080, 349.941 459.777, 350.909 492.457 C 351.500 512.414, 351.500 512.414, 357.914 513.710 C 361.441 514.423, 364.438 514.892, 364.574 514.753 C 364.710 514.614, 364.224 480.750, 363.494 439.500 C 362.072 359.128, 361.011 275.110, 361.004 242.250 C 361.001 226.656, 360.713 222.027, 359.750 222.118 C 359.063 222.182, 356.319 222.601, 353.652 223.049 M 251.053 224.848 C 251.083 225.207, 255.559 234.275, 261 245 C 270.893 264.500, 270.893 264.500, 270.947 256.309 C 270.976 251.804, 270.545 247.837, 269.989 247.493 C 268.821 246.772, 263.576 235.705, 262.646 232 C 262.300 230.625, 261.653 228.943, 261.207 228.262 C 260.330 226.922, 250.966 223.774, 251.053 224.848 M 338.250 225.316 C 333 226.153, 333 226.153, 332.981 262.826 C 332.927 367.349, 333.037 398.315, 333.650 451.151 C 334.318 508.802, 334.318 508.802, 340.256 509.971 C 343.522 510.613, 346.395 510.938, 346.641 510.692 C 346.887 510.446, 346.588 477.678, 345.976 437.873 C 345.365 398.068, 344.558 333.770, 344.182 294.990 C 343.500 224.480, 343.500 224.480, 338.250 225.316 M 318.750 227.689 C 316.909 228.170, 315.990 447.062, 317.652 489.201 C 318.303 505.721, 318.303 505.721, 323.902 506.749 C 326.981 507.315, 329.631 507.660, 329.792 507.514 C 329.952 507.369, 329.617 470.856, 329.048 426.375 C 328.478 381.894, 328.010 318.837, 328.006 286.250 C 327.999 221.445, 328.580 225.120, 318.750 227.689 M 304.250 229.706 C 302 230.139, 302 230.139, 302 365.987 C 302 501.834, 302 501.834, 307.049 502.917 C 309.826 503.513, 312.375 504, 312.713 504 C 313.050 504, 313.030 479.813, 312.667 450.250 C 312.303 420.688, 312.005 358.813, 312.003 312.750 C 312 219.656, 312.784 228.062, 304.250 229.706 M 288.298 231.795 C 287.377 232.380, 287.074 255.982, 286.998 333.029 C 286.818 517.366, 286.287 498.686, 291.737 499.848 C 294.343 500.404, 296.573 500.760, 296.693 500.640 C 296.868 500.465, 297.210 241.366, 297.046 233.250 C 296.998 230.904, 291.213 229.942, 288.298 231.795 M 82.578 254.180 C 78.196 259.300, 78.106 261.296, 82.094 264.939 C 83.810 266.506, 84.743 268.041, 84.188 268.384 C 82.352 269.519, 84.199 273.005, 88.769 277.028 C 93.374 281.082, 96.390 285.560, 95.492 287.013 C 94.827 288.088, 107.202 303.718, 111.565 307.314 C 113.465 308.880, 114.794 310.524, 114.520 310.968 C 114.053 311.723, 127.728 330.809, 132.277 335.750 C 133.416 336.988, 134.019 338, 133.616 338 C 132.708 338, 140.975 348.799, 143.878 351.405 C 145.045 352.453, 146 353.710, 146 354.199 C 146 355.367, 156.108 367.500, 157.082 367.500 C 157.995 367.500, 159.486 368.916, 159.538 369.833 C 159.727 373.128, 161.641 376.340, 165.002 379.002 C 167.206 380.747, 168.764 382.573, 168.464 383.058 C 167.692 384.308, 170.341 389.062, 173.405 391.924 C 174.832 393.258, 176 394.729, 176 395.194 C 176 396.148, 178.786 400.484, 185.513 410 C 188.041 413.575, 191.657 418.750, 193.549 421.500 C 195.442 424.250, 199.005 429.200, 201.468 432.500 C 203.931 435.800, 209.045 443, 212.833 448.500 C 241.440 490.041, 250.941 502.977, 252.384 502.349 C 252.998 502.082, 254.616 500.431, 255.980 498.682 C 257.345 496.932, 257.742 496.068, 256.863 496.762 C 254.990 498.242, 252.319 496.100, 253.950 494.426 C 255.607 492.726, 250.751 483.080, 241.904 470.500 C 237.220 463.838, 233.460 458.370, 216.466 433.500 C 210.077 424.150, 203.196 414.081, 201.175 411.124 C 199.154 408.168, 196.982 404.852, 196.349 403.756 C 195.715 402.659, 192.996 399.453, 190.306 396.631 C 187.616 393.809, 184.360 389.475, 183.072 387 C 181.783 384.525, 178.374 379.350, 175.496 375.500 C 172.618 371.650, 169.723 367.458, 169.062 366.185 C 168.135 364.400, 167.554 364.125, 166.519 364.984 C 165.578 365.765, 164.982 365.779, 164.520 365.032 C 164.158 364.447, 163.494 364.195, 163.044 364.473 C 162.595 364.751, 161.791 364.420, 161.258 363.739 C 159.776 361.844, 159.078 358.070, 160.094 357.442 C 162.210 356.134, 160.903 351.743, 157.500 348.731 C 155.575 347.026, 154 345.195, 154 344.660 C 154 344.126, 152.954 342.296, 151.676 340.594 C 150.398 338.892, 149.048 336.825, 148.677 336 C 148.305 335.175, 146.423 332.475, 144.495 330 C 142.567 327.525, 139.603 323.363, 137.909 320.750 C 136.215 318.137, 134.357 316, 133.781 316 C 131.409 316, 125.298 308.790, 125.570 306.312 C 125.760 304.580, 124.711 302.674, 122.069 299.952 C 119.994 297.813, 117.525 294.046, 116.583 291.579 C 115.641 289.112, 114.039 286.830, 113.024 286.508 C 110.827 285.810, 107.253 281.209, 104.086 275 C 102.823 272.525, 100.378 269.314, 98.651 267.865 C 96.925 266.415, 95.510 264.390, 95.506 263.365 C 95.501 261.940, 94.632 261.428, 91.826 261.194 C 87.022 260.794, 85.311 258.809, 86.853 255.423 C 89.766 249.029, 87.541 248.382, 82.578 254.180 M 269.500 517.938 C 260.410 522.262, 186.701 556.545, 156.358 570.561 C 145.280 575.678, 134.480 580.337, 132.358 580.913 C 126.918 582.392, 91.947 596.653, 90.699 597.901 C 87.241 601.359, 94.809 599.551, 111.018 593.048 C 120.884 589.090, 130.612 585.394, 132.636 584.835 C 134.661 584.276, 145.358 579.642, 156.409 574.538 C 177.179 564.943, 255.371 528.616, 269.521 521.986 C 277.543 518.228, 277.543 518.228, 326.021 529.098 C 368.165 538.548, 410.009 547.617, 440.291 553.864 C 449.006 555.662, 451.689 555.227, 448.868 552.472 C 448.116 551.737, 442.775 550.227, 437 549.116 C 417.266 545.321, 289.842 517.430, 279 514.533 C 278.175 514.312, 273.900 515.844, 269.500 517.938" stroke="none" fill="#1A1A1A" fill-rule="evenodd"/>
</svg>