<svg xmlns="http://www.w3.org/2000/svg" viewBox="0 0 450 600" version="1.1" preserveAspectRatio="xMidYMid meet">
	<path d="M 28.003 2.250 C 27.478 3.488, 25.905 11.700, 24.506 20.500 C 19.956 49.129, 18.686 56.480, 18.083 57.688 C 17.659 58.538, 15.381 58.028, 10.074 55.896 C 2.965 53.040, -0.582 52.754, 0.200 55.101 C 0.402 55.705, 4.371 57.689, 9.021 59.508 C 21.684 64.463, 21.359 64.859, 25.416 39.500 C 26.912 30.150, 28.964 17.778, 29.976 12.006 C 30.988 6.234, 31.606 1.171, 31.349 0.756 C 30.467 -0.672, 28.956 0.003, 28.003 2.250 M 53.225 1.250 C 52.168 2.547, 43.600 53.353, 42.426 65.288 C 41.855 71.098, 42.028 72.380, 43.629 74.188 C 46.354 77.263, 63.505 85, 67.599 85 C 71.493 85, 82.188 89.982, 86.036 93.588 C 87.431 94.895, 91.347 97.309, 94.738 98.951 C 108.729 105.729, 108.234 106.460, 114.866 69.236 C 117.733 53.140, 122.248 31.214, 124.898 20.510 C 127.548 9.807, 129.480 0.813, 129.191 0.525 C 127.878 -0.789, 124.867 0.211, 123.996 2.250 C 120.934 9.419, 113.717 42.436, 108.146 74.762 C 106.035 87.007, 104 97.334, 103.622 97.711 C 103.245 98.089, 100.025 96.962, 96.468 95.208 C 90.223 92.129, 90 91.889, 90.001 88.259 C 90.003 82.264, 96.613 45.009, 102.910 15.500 C 105.768 2.110, 105.771 -2.171, 102.921 0.679 C 101.159 2.441, 90.387 55.766, 86.891 80.036 L 85.661 88.572 78.581 84.812 C 74.686 82.744, 70.682 81.041, 69.683 81.026 C 68.430 81.008, 68.023 80.456, 68.373 79.250 C 68.652 78.287, 69.360 73.390, 69.946 68.366 C 70.973 59.569, 77.400 22.941, 80.448 8.512 C 81.920 1.544, 81.298 -1.698, 78.942 0.658 C 77.194 2.406, 67.943 50.820, 65.831 69.272 C 64.549 80.476, 65.444 80.073, 54 74.605 L 47.500 71.500 47.774 65.500 C 48.029 59.912, 51.778 35.037, 55.943 11.284 C 56.929 5.666, 57.495 0.828, 57.201 0.534 C 56.266 -0.400, 54.280 -0.043, 53.225 1.250 M 145.668 0.750 C 142.975 5.238, 131.060 53.387, 126.596 77.820 C 121.691 104.669, 121.423 107.470, 123.456 110.574 C 125.272 113.345, 136.688 119, 140.467 119 C 141.722 119, 144.717 120.088, 147.124 121.417 C 149.531 122.747, 153.300 124.328, 155.500 124.931 C 157.700 125.534, 162.200 127.571, 165.500 129.459 C 178.848 137.094, 195.440 145, 198.114 145 C 202.245 145, 203.474 142.280, 206.018 127.500 C 211.257 97.076, 222.838 64.159, 241.160 27.618 C 250.568 8.854, 253.835 1.435, 253.041 0.641 C 251.002 -1.398, 249.204 1.312, 237.937 23.396 C 218.607 61.287, 206.434 95.473, 200.512 128.500 C 198.273 140.985, 198.688 140.314, 194.324 138.491 C 192.277 137.636, 190.430 136.763, 190.219 136.552 C 190.008 136.341, 190.573 131.518, 191.476 125.834 C 197.410 88.458, 206.208 60.731, 225.643 18.154 C 230.959 6.508, 232.826 1.426, 232.068 0.668 C 230.451 -0.949, 229.841 0.069, 221.670 18.035 C 202.379 60.450, 194.209 85.863, 187.993 122.790 C 186.930 129.106, 185.820 134.513, 185.527 134.806 C 184.408 135.925, 175 130.653, 175 128.907 C 175 124.958, 179.330 101.569, 182.532 88.225 C 188.504 63.338, 194.951 44.358, 206.663 17.182 C 211.579 5.776, 212.976 1.576, 212.132 0.732 C 210.469 -0.931, 209.982 -0.092, 202.682 17 C 190.791 44.839, 184.467 63.489, 178.532 88.225 C 175.877 99.290, 171 124.783, 171 127.595 C 171 127.836, 168.789 126.913, 166.087 125.544 C 162.566 123.760, 161.268 122.550, 161.506 121.277 C 161.690 120.300, 162.371 116.125, 163.020 112 C 164.880 100.181, 167.775 86.142, 169.977 78.263 C 171.090 74.282, 172 70.284, 172 69.379 C 172 68.473, 173.530 63.405, 175.400 58.116 C 177.269 52.827, 181.498 40.400, 184.797 30.500 C 188.096 20.600, 191.737 10.043, 192.888 7.040 C 194.270 3.436, 194.644 1.244, 193.990 0.590 C 191.844 -1.556, 190.350 1.832, 180.797 30.500 C 177.498 40.400, 173.269 52.827, 171.400 58.116 C 169.530 63.405, 168 68.492, 168 69.420 C 168 70.349, 166.928 75.021, 165.619 79.804 C 164.309 84.587, 162.487 92.550, 161.570 97.500 C 160.654 102.450, 159.475 108.672, 158.952 111.326 C 158.428 113.981, 158 117.243, 158 118.576 C 158 121.598, 156.402 121.659, 149.946 118.881 C 145.901 117.141, 145.097 116.382, 145.446 114.631 C 145.679 113.459, 146.610 108.225, 147.513 103 C 150.773 84.144, 153.171 72.293, 156.013 60.992 C 159.363 47.671, 169.221 15.051, 172.116 7.706 C 174.303 2.157, 174.034 -0, 171.154 0 C 168.331 0, 167.622 1.310, 163.044 15 C 153.015 44.990, 144.013 81.040, 139.508 109.250 C 138.799 113.691, 138.420 113.753, 131.967 110.483 C 126.094 107.507, 126.256 109.474, 130.055 87.318 C 134.769 59.821, 139.221 40.209, 146.637 14.264 C 148.561 7.534, 149.853 1.571, 149.509 1.014 C 148.777 -0.169, 146.321 -0.338, 145.668 0.750 M 260.645 10.375 C 246.013 37.929, 241.654 46.601, 235.951 59.500 C 223.901 86.757, 217.711 105.737, 213.124 129.500 C 209.595 147.787, 209.610 147.440, 212.184 150.392 C 214.500 153.047, 231.458 161, 234.805 161 C 236.925 161, 243.514 164.250, 246.053 166.548 C 248.384 168.658, 254.653 170.892, 258.500 170.984 C 260.190 171.024, 263.215 172.353, 265.428 174.028 C 274.791 181.112, 277.313 178.124, 279.378 157.500 C 283.792 113.423, 286.286 96.332, 290.033 84.500 C 293.132 74.714, 299.006 49.272, 298.990 45.711 C 298.979 43.415, 306.378 9.694, 308.009 4.603 C 309.882 -1.244, 305.572 -1.785, 301.219 3.750 C 294.122 12.776, 269.943 54.174, 258.881 76.239 C 247.021 99.895, 239.060 123.675, 234.907 147.850 C 233.362 156.844, 233.226 156.901, 223.695 152.557 C 214.460 148.349, 214.757 150.166, 219.524 127.022 C 226.506 93.125, 241.943 55.399, 266.897 11.254 C 272.398 1.521, 272.587 0.250, 268.529 0.250 C 266.371 0.250, 265.271 1.663, 260.645 10.375 M 323.108 2.250 C 322.644 3.488, 321.475 8.100, 320.510 12.500 C 319.545 16.900, 318.101 22.282, 317.301 24.461 C 314.477 32.156, 307 65.166, 307 69.941 C 307 72.602, 307.874 79.028, 308.943 84.221 C 311.842 98.312, 317.708 137.536, 319.342 153.765 C 321.164 171.852, 322.367 173.569, 331.988 171.820 C 334.995 171.274, 338.357 170.344, 339.458 169.755 C 340.560 169.165, 343.266 168.520, 345.473 168.322 C 347.679 168.123, 350.984 167.546, 352.817 167.040 C 354.650 166.534, 356.699 166.331, 357.371 166.589 C 358.044 166.847, 361.947 166.366, 366.047 165.521 C 377.216 163.217, 378.257 161.675, 377.444 148.649 C 376.553 134.384, 372.559 88.374, 369.487 57 C 368.060 42.425, 366.580 23.750, 366.196 15.500 C 365.542 1.399, 365.380 0.500, 363.500 0.500 C 360.480 0.500, 360.858 28.341, 364.327 61.500 C 369.012 106.280, 372 141.574, 372 152.144 L 372 158.834 366.951 159.917 C 364.174 160.513, 361.326 161, 360.622 161 C 359.692 161, 359.006 156.830, 358.111 145.750 C 356.687 128.103, 350.890 78.470, 348.038 59.500 C 346.963 52.350, 345.369 37.950, 344.496 27.500 C 342.473 3.295, 341.999 0.623, 339.642 0.170 C 338.622 -0.027, 337.344 0.256, 336.801 0.799 C 335.497 2.103, 338.063 31.559, 342.481 66 C 349.016 116.950, 350.358 129.032, 352.445 155.730 C 352.985 162.640, 352.911 162.980, 350.755 163.417 C 349.515 163.669, 347.328 164.120, 345.896 164.420 L 343.292 164.965 342.604 154.232 C 341.641 139.192, 336.694 101.381, 331.520 69.500 C 329.110 54.650, 326.860 40.250, 326.521 37.500 C 326.181 34.750, 325.211 29.350, 324.364 25.500 C 322.901 18.850, 322.930 18.086, 324.945 10.207 C 326.111 5.646, 326.799 1.483, 326.473 0.957 C 325.467 -0.672, 323.989 -0.104, 323.108 2.250 M 380.032 1.461 C 378.624 3.158, 380.284 57.883, 381.929 64 C 382.933 67.732, 386.610 111.848, 387.513 131 C 388.717 156.530, 390.222 159.226, 402.126 157.185 C 405.927 156.533, 410.728 156, 412.795 156 C 414.862 156, 423.673 154.702, 432.375 153.116 C 449.134 150.061, 452.865 148.437, 449.910 145.482 C 448.564 144.135, 447.549 144.127, 440.946 145.406 C 423.497 148.786, 414.903 150.237, 414.531 149.864 C 414.312 149.645, 413.420 136.874, 412.550 121.483 C 411.680 106.092, 410.551 86.300, 410.041 77.500 C 409.531 68.700, 408.821 55.200, 408.461 47.500 L 407.808 33.500 411.343 36.887 C 414.229 39.652, 415.414 40.167, 417.793 39.691 C 419.397 39.371, 421.153 39.553, 421.697 40.097 C 422.348 40.748, 423.141 40.535, 424.021 39.474 C 425.858 37.262, 427.754 2.354, 426.126 0.726 C 423.838 -1.562, 423.127 1.803, 422.427 18.231 L 421.715 34.963 418.317 35.600 C 411.507 36.878, 409.713 31.629, 409.565 10 C 409.500 0.551, 409.487 0.500, 407 0.500 L 404.500 0.500 404.636 30 C 404.710 46.225, 405.265 67.150, 405.868 76.500 C 406.471 85.850, 407.661 106.100, 408.513 121.500 C 409.365 136.900, 410.236 150.003, 410.448 150.617 C 410.872 151.839, 397.540 154.452, 395.937 153.461 C 395.422 153.142, 395 149.427, 395 145.205 C 395 140.982, 394.333 129.871, 393.518 120.514 C 392.703 111.156, 391.345 95.175, 390.499 85 C 389.653 74.825, 388.714 64.250, 388.412 61.500 C 387.516 53.336, 385.858 27.389, 385.409 14.500 C 385.179 7.900, 384.782 1.938, 384.527 1.250 C 383.899 -0.441, 381.518 -0.329, 380.032 1.461 M 297.215 19.995 C 264.869 72.194, 250.150 104.981, 242.603 141.642 C 239.274 157.814, 239.210 159.905, 242.044 159.985 C 242.343 159.993, 243.617 154.713, 244.874 148.250 C 248.857 127.773, 257.897 103.169, 269.216 82 C 276.783 67.847, 289.870 46.218, 293.073 42.570 C 295.520 39.782, 302.992 14.659, 301.745 13.411 C 301.592 13.258, 299.553 16.221, 297.215 19.995 M 315.113 50.678 L 310.799 67.855 312.851 76.678 C 315.984 90.148, 321.686 126.233, 324.121 148 C 325.321 158.725, 326.431 167.659, 326.587 167.853 C 326.744 168.047, 329.151 167.892, 331.936 167.509 C 336.903 166.826, 337 166.747, 337 163.378 C 337 152.922, 331.061 106.299, 325.042 69.500 C 322.883 56.300, 320.736 42.800, 320.271 39.500 L 319.426 33.500 315.113 50.678 M 416.272 43.128 C 415.434 43.966, 415.438 44.728, 416.286 46.086 C 417.218 47.579, 417.005 48.366, 415.124 50.368 C 410.386 55.411, 415.277 60.630, 421.084 56.730 C 426.144 53.332, 426.410 48.177, 421.710 44.593 C 417.818 41.624, 417.785 41.615, 416.272 43.128 M 286.499 63.295 C 279.373 75.166, 266.995 99.982, 262.705 111 C 255.238 130.176, 247.981 160.068, 250.157 162.689 C 252.585 165.615, 253.705 163.771, 255.890 153.250 C 260.203 132.486, 268.509 111.147, 281.684 86.983 C 286.076 78.928, 293.035 56.744, 291.624 55.295 C 291.514 55.183, 289.208 58.783, 286.499 63.295 M 418.522 65.539 C 414.412 70.555, 414.346 72.869, 418.164 78.230 C 419.885 80.648, 420.433 80.886, 421.753 79.791 C 426.653 75.728, 427.568 61, 422.920 61 C 422.547 61, 420.567 63.042, 418.522 65.539 M 420.162 68.292 C 419.261 69.385, 419.060 70.996, 419.546 73.209 C 420.262 76.466, 420.279 76.474, 421.181 74.039 C 422.600 70.204, 421.889 66.193, 420.162 68.292 M 0.671 78.750 C -1.545 82.471, 0.537 84.462, 10.500 88.154 C 16 90.192, 30.400 95.983, 42.500 101.022 C 54.600 106.062, 73.275 113.795, 84 118.207 C 94.725 122.619, 107.100 127.712, 111.500 129.523 C 115.900 131.335, 122.650 134.159, 126.500 135.798 C 130.350 137.438, 146.698 144.232, 162.828 150.896 C 178.958 157.560, 193.081 163.508, 194.213 164.114 C 195.344 164.719, 206.896 168.943, 219.885 173.500 C 266.947 190.011, 274.610 193.031, 279.885 197.141 C 282.896 199.488, 285.095 199.491, 288.115 197.155 C 290.633 195.207, 291.133 195.102, 339 186.445 C 445.678 167.152, 449.453 166.352, 449.638 163 C 449.851 159.123, 449.755 159.113, 437.271 161.672 C 413.487 166.548, 393.546 170.249, 352 177.494 C 328.625 181.571, 305.994 185.584, 301.709 186.413 C 295.954 187.526, 293.210 187.644, 291.209 186.867 C 289.647 186.260, 285.842 186.079, 282.222 186.438 C 276.242 187.032, 275.123 186.753, 258.722 180.593 C 249.250 177.035, 230.925 170.314, 218 165.658 C 205.075 161.002, 182.125 152.041, 167 145.746 C 106.260 120.465, 72.843 106.588, 60 101.312 C 52.575 98.262, 39.750 92.920, 31.500 89.441 C 7.240 79.211, 1.568 77.244, 0.671 78.750 M 278.048 101.753 C 268.801 120.532, 262.972 137.387, 259.444 155.544 C 258.487 160.470, 257.266 165.063, 256.730 165.750 C 255.997 166.690, 256.515 167, 258.819 167 C 260.503 167, 262.165 167.457, 262.510 168.016 C 263.551 169.700, 264.999 168.061, 265.008 165.191 C 265.032 157, 273.550 129.876, 277.617 125.043 C 279.774 122.480, 280.063 121.215, 279.957 114.809 C 279.883 110.339, 280.628 104.409, 281.876 99.541 C 282.998 95.164, 283.786 91.453, 283.628 91.294 C 283.469 91.136, 280.958 95.842, 278.048 101.753 M 297.882 117.667 C 294.847 121.192, 290.447 145.219, 289.389 164.039 C 288.563 178.730, 289.449 180.013, 299.171 178.205 C 308.842 176.407, 310.356 174.405, 309.534 164.500 C 307.502 140.021, 304.322 121.486, 301.614 118.337 C 299.543 115.930, 299.400 115.904, 297.882 117.667 M 0.671 120.750 C -0.266 122.324, 0.565 126.320, 2 127.143 C 3.496 128, 14.040 131.729, 59.500 147.479 C 72.700 152.053, 88.675 157.688, 95 160.001 C 113.957 166.937, 127.797 171.874, 141 176.411 C 147.875 178.773, 156.200 181.848, 159.500 183.242 C 166.164 186.059, 194.257 195.009, 212 199.968 C 225.625 203.777, 254.506 212.482, 258.296 213.922 C 260.657 214.820, 261.366 219.195, 259.560 221.713 C 259.476 221.831, 257.188 221.259, 254.477 220.443 C 251.766 219.627, 249.026 219.160, 248.389 219.404 C 246.829 220.003, 237.337 217.315, 233 215.046 C 229.339 213.130, 205.233 206.387, 191.500 203.436 C 187.100 202.491, 169.372 197.056, 152.104 191.358 C 105.524 175.991, 105.682 175.885, 126.839 208.298 C 148.604 241.643, 151.120 245.623, 162.771 265.125 C 168.808 275.231, 178.363 290.925, 184.004 300 C 189.644 309.075, 197.717 322.125, 201.944 329 C 206.171 335.875, 215.618 350.950, 222.937 362.500 C 246.662 399.937, 250.609 406.298, 258.377 419.608 C 266.979 434.345, 269.225 436.977, 271.809 435.352 C 274.243 433.821, 274.936 427.175, 274.033 414 C 273.599 407.675, 273.443 388.100, 273.685 370.500 C 273.928 352.900, 274.322 323.200, 274.561 304.500 C 275.395 239.217, 275.507 235.579, 276.771 232.685 C 277.447 231.137, 278 227.745, 278 225.149 L 278 220.428 298.750 217.657 C 310.163 216.133, 330.075 213.558, 343 211.936 C 355.925 210.314, 376.175 207.650, 388 206.018 C 399.825 204.385, 418.264 201.877, 428.975 200.444 C 451.142 197.480, 449.952 197.838, 449.643 194.229 C 449.432 191.766, 449.072 191.527, 445.954 191.781 C 441.426 192.149, 393.090 198.763, 386 199.985 C 382.975 200.507, 370.337 202.067, 357.916 203.452 C 335.921 205.904, 328.106 206.871, 296 211.114 C 279.189 213.336, 271.974 213.065, 266.668 210.014 C 263.125 207.976, 247.717 203.076, 216.500 194.060 C 186.475 185.389, 168.685 179.762, 159.500 176.031 C 155.100 174.244, 142.050 169.490, 130.500 165.467 C 118.950 161.443, 99.600 154.570, 87.500 150.192 C 75.400 145.815, 56.275 138.977, 45 134.998 C 33.725 131.018, 19.638 126.016, 13.696 123.881 C 2.266 119.775, 1.379 119.562, 0.671 120.750 M 298.821 128.521 C 297.073 131.243, 291.918 175, 293.345 175 C 293.651 175, 296.235 174.500, 299.086 173.888 L 304.270 172.776 303.549 162.138 C 302.604 148.195, 299.654 127.223, 298.821 128.521 M 274.678 140.743 C 267.757 163.680, 266.982 173, 271.993 173 C 273.462 173, 273.850 171.681, 274.416 164.750 C 274.787 160.213, 275.767 151.159, 276.594 144.632 C 277.420 138.104, 277.922 132.589, 277.708 132.375 C 277.494 132.161, 276.131 135.927, 274.678 140.743 M 1 147.761 C 1 149.387, 19.594 156.149, 23.750 156.034 C 24.438 156.015, 25 156.695, 25 157.544 C 25 158.393, 29.642 165.705, 35.315 173.794 C 40.988 181.882, 50.958 196.375, 57.469 206 C 63.981 215.625, 76.748 233.625, 85.840 246 C 108.675 277.081, 143.085 325.156, 156.940 345.337 C 163.298 354.598, 175.650 372.598, 184.390 385.337 C 193.129 398.077, 208.033 419.750, 217.509 433.500 C 254.773 487.570, 262.016 498.317, 261.524 498.810 C 261.242 499.091, 260.187 498.574, 259.177 497.661 C 258.168 496.747, 256.894 496, 256.346 496 C 254.556 496, 251 500.575, 251 502.877 C 251 505.940, 238.460 511.940, 236.481 509.824 C 235.801 509.096, 217.327 484.425, 195.427 455 C 173.528 425.575, 145.883 389.350, 133.994 374.500 C 108.905 343.162, 78.484 304.252, 29.619 241 C 4.909 209.014, 2.017 205.583, 0.792 206.808 C 0.174 207.426, 6.643 216.561, 18.829 232.279 C 29.279 245.758, 44.024 264.822, 51.597 274.643 C 59.170 284.464, 68.573 296.550, 72.492 301.500 C 76.412 306.450, 86.088 318.825, 93.994 329 C 101.901 339.175, 118.099 359.650, 129.990 374.500 C 149.547 398.923, 234.587 511.883, 233.819 512.418 C 232.654 513.228, 222.498 517, 221.482 517 C 220.793 517, 219.429 515.778, 218.451 514.284 C 217.472 512.791, 206.268 498.053, 193.553 481.534 C 180.838 465.015, 167.702 447.900, 164.361 443.500 C 161.021 439.100, 150.304 425.825, 140.545 414 C 130.786 402.175, 107.868 374.050, 89.616 351.500 C 71.364 328.950, 50.348 303.075, 42.913 294 C 35.479 284.925, 23.417 270.163, 16.109 261.196 C 8.801 252.229, 2.300 245.067, 1.661 245.279 C -2.141 246.545, 0.796 251.043, 23.877 279.314 C 36.870 295.228, 62.350 326.542, 80.500 348.902 C 98.650 371.262, 121.853 399.669, 132.062 412.028 C 148.082 431.422, 208.342 509.324, 213.458 517.253 L 215.234 520.006 209.589 522.503 C 206.484 523.876, 203.323 525, 202.566 525 C 201.809 525, 191.134 512.537, 178.845 497.304 C 166.555 482.071, 145.925 457.402, 133 442.484 C 92.681 395.948, 87.377 389.754, 79.936 380.500 C 70.727 369.049, 62.073 358.777, 39.073 332 C 7.797 295.586, 1.852 288.974, 0.909 289.556 C -1.114 290.806, 0.268 293.958, 5.304 299.580 C 17.567 313.270, 56.379 358.622, 76.694 383 C 93.834 403.569, 103.227 414.524, 132 447.508 C 140.525 457.280, 159.203 479.726, 173.506 497.388 C 194.398 523.185, 200.031 529.560, 202.152 529.806 C 205.113 530.150, 216.428 525.747, 219.500 523.056 C 220.600 522.093, 227.517 518.915, 234.870 515.996 C 244.056 512.348, 249.630 509.484, 252.681 506.843 C 256.747 503.324, 257.618 503, 263.005 503 C 267.678 503, 269.431 502.534, 271.524 500.733 L 274.160 498.466 274.330 480.466 L 274.500 462.467 264.092 443.983 C 258.368 433.818, 252.025 423.025, 249.997 420 C 247.969 416.975, 238.315 401.900, 228.544 386.500 C 218.772 371.100, 207.738 353.775, 204.024 348 C 193.535 331.692, 179.284 309.138, 167.691 290.500 C 151.900 265.112, 135.936 241.021, 118.988 217 C 110.645 205.175, 101.127 191.130, 97.837 185.790 C 89.651 172.503, 87.821 171.098, 72.385 166.255 C 51.320 159.645, 28.744 153.041, 25 152.393 C 23.075 152.060, 17.332 150.485, 12.238 148.894 C 1.364 145.496, 1 145.460, 1 147.761 M 29 158.544 C 29 158.843, 33.642 165.705, 39.315 173.794 C 44.988 181.882, 54.958 196.375, 61.469 206 C 67.981 215.625, 80.748 233.625, 89.840 246 C 112.675 277.081, 147.085 325.156, 160.940 345.337 C 167.298 354.598, 179.650 372.598, 188.390 385.337 C 197.129 398.077, 212.033 419.750, 221.509 433.500 C 230.985 447.250, 244.911 467.500, 252.456 478.500 C 268.466 501.842, 269.363 502.442, 269.793 490.099 C 270.062 482.391, 269.887 481.485, 267.671 479.099 C 266.343 477.670, 236.105 432.692, 200.475 379.149 C 133.461 278.443, 119.305 257.573, 103.036 235.500 C 97.766 228.350, 91.364 219.545, 88.808 215.933 C 81.287 205.306, 59 169.721, 59 168.340 C 59 167.585, 53.196 165.235, 44.666 162.536 C 29.854 157.848, 29 157.631, 29 158.544 M 63.829 170.680 C 65.963 174.669, 88.395 209.688, 92.858 216 C 95.386 219.575, 101.766 228.350, 107.036 235.500 C 123.269 257.524, 137.405 278.360, 203.462 377.627 C 238.551 430.357, 267.697 473.950, 268.231 474.500 C 268.861 475.149, 269.072 473.031, 268.831 468.470 C 268.273 457.917, 262.764 448.378, 206.473 360.500 C 194.846 342.350, 176.170 312.875, 164.970 295 C 145.952 264.648, 135.586 249.038, 108.388 209.786 C 102.400 201.144, 94.935 190.033, 91.800 185.095 L 86.099 176.117 75.896 172.968 C 70.284 171.236, 65.034 169.567, 64.230 169.258 C 63.051 168.806, 62.973 169.081, 63.829 170.680 M 120 186.931 C 120 187.517, 128.270 200.485, 138.378 215.749 C 148.486 231.012, 163.729 254.975, 172.251 269 C 193.602 304.135, 208.161 327.824, 232.479 367 C 243.917 385.425, 256.880 406.800, 261.288 414.500 C 265.695 422.200, 269.504 428.725, 269.753 429 C 270.002 429.275, 270.025 425.675, 269.803 421 L 269.399 412.500 260.162 395.699 C 255.081 386.459, 247.658 373.634, 243.665 367.199 C 239.673 360.765, 222.308 331.875, 205.076 303 C 170.034 244.280, 161.095 229.529, 146.756 206.766 L 136.846 191.033 130.173 188.988 C 126.503 187.863, 122.713 186.701, 121.750 186.404 C 120.787 186.108, 120 186.345, 120 186.931 M 279.579 190.894 C 277.757 191.607, 277.781 191.733, 280.051 193.323 C 283.340 195.627, 285.248 195.429, 288 192.500 L 290.349 190 285.924 190.070 C 283.491 190.109, 280.635 190.479, 279.579 190.894 M 142 192.514 C 142 192.653, 148.435 203.056, 156.301 215.633 C 164.166 228.210, 180.220 254.700, 191.976 274.500 C 215.194 313.604, 249.705 370.894, 251.011 372.500 C 251.458 373.050, 255.657 380.423, 260.341 388.884 L 268.859 404.269 269.552 400.572 C 270.951 393.118, 269.516 389.091, 257.768 367.500 C 251.484 355.950, 245.212 344.700, 243.830 342.500 C 242.449 340.300, 234.207 326.125, 225.515 311 C 216.823 295.875, 205.443 276.075, 200.226 267 C 192.683 253.877, 166.477 209.360, 160.471 199.465 C 159.479 197.832, 142 191.254, 142 192.514 M 166.069 202.155 C 166.752 203.445, 172.565 213.275, 178.987 224 C 190.276 242.854, 195.549 251.931, 229.521 311 C 238.219 326.125, 246.975 341.200, 248.978 344.500 C 250.980 347.800, 256.192 357.182, 260.559 365.349 L 268.500 380.198 268.785 369.451 C 269.035 360.037, 268.834 358.444, 267.164 356.602 C 266.115 355.446, 262.431 349.325, 258.978 343 C 251.950 330.127, 232.436 295.446, 227.468 287 C 225.688 283.975, 219.827 273.625, 214.442 264 C 204.352 245.966, 195.506 230.607, 185.598 213.918 C 179.937 204.384, 179.881 204.328, 174.205 202.597 C 163.971 199.477, 164.672 199.515, 166.069 202.155 M 443.070 205.094 C 440.320 205.630, 437.457 207.103, 435.522 208.979 C 433.808 210.640, 431.443 212, 430.267 212 C 429.092 212, 426.980 212.437, 425.574 212.972 C 423.574 213.732, 422.267 213.500, 419.561 211.903 C 415.742 209.650, 410.798 210.081, 382 215.178 C 375.675 216.297, 366.849 217.356, 362.387 217.531 C 351.735 217.949, 346.410 219.444, 344.344 222.598 C 342.541 225.349, 342.822 312.557, 345.006 428.500 C 346.470 506.275, 346.758 511.849, 349.448 514.538 C 355.277 520.368, 369.623 519.752, 371.973 513.572 C 373.354 509.939, 378.878 509.489, 380.085 512.911 C 382.380 519.416, 386.417 522.330, 395.222 523.838 C 398.675 524.429, 405.902 525.693, 411.283 526.646 C 426.496 529.341, 425.163 534.275, 425.078 475.558 C 425.039 448.752, 424.787 426.465, 424.519 426.031 C 423.854 424.955, 423.162 240.235, 423.779 228.437 C 424.315 218.181, 424.813 217.287, 427.200 222.292 C 428.590 225.208, 428.605 226.072, 427.327 229.852 C 425.650 234.814, 426.864 240.274, 430.094 242.291 C 432.118 243.555, 432.730 248.431, 431 249.500 C 429.264 250.573, 429.911 254.928, 432 256.232 C 434.243 257.633, 434.681 261.919, 432.775 263.825 C 431.859 264.741, 431.831 265.500, 432.665 266.836 C 433.867 268.760, 434.271 276.134, 436.533 337.500 C 437.344 359.500, 438.457 388.975, 439.005 403 C 441.072 455.807, 441.963 481.249, 442.610 505.855 C 443.255 530.376, 443.352 531.297, 445.569 533.855 C 448.210 536.903, 450.985 535.768, 449.229 532.357 C 448.704 531.336, 447.985 515.650, 447.632 497.500 C 447.278 479.350, 446.279 440.875, 445.410 412 C 444.542 383.125, 443.730 326.773, 443.605 286.773 C 443.481 246.773, 443.028 213.698, 442.600 213.273 C 442.171 212.848, 443.548 212.009, 445.660 211.410 C 448.950 210.476, 449.500 209.915, 449.500 207.493 C 449.500 204.166, 448.929 203.953, 443.070 205.094 M 185.184 206.580 C 185.466 207.086, 188.396 212, 191.696 217.500 C 199.929 231.223, 206.946 243.417, 218.451 264 C 223.831 273.625, 229.688 283.975, 231.468 287 C 236.403 295.390, 255.976 330.149, 262.607 342.299 L 268.500 353.097 269.214 346.825 C 269.823 341.475, 269.654 340.254, 268.070 338.526 C 267.047 337.412, 264.080 332.225, 261.475 327 C 256.089 316.198, 251.895 308.414, 221.099 252.062 C 208.944 229.822, 199 211.106, 199 210.472 C 199 209.837, 196.412 208.739, 193.250 208.032 C 190.088 207.324, 186.864 206.501, 186.086 206.203 C 185.308 205.904, 184.902 206.074, 185.184 206.580 M 203 211.187 C 203 211.428, 212.944 229.822, 225.099 252.062 C 254.066 305.067, 259.774 315.624, 265.619 327 L 270.500 336.500 270.773 317.611 L 271.045 298.723 260.655 278.111 C 254.940 266.775, 245.712 248.700, 240.147 237.943 L 230.029 218.387 219.734 215.212 C 208.923 211.878, 203 210.454, 203 211.187 M 406.609 215.263 L 400.719 216.269 401.371 280.384 C 401.730 315.648, 402.237 352.150, 402.499 361.500 C 402.761 370.850, 403.447 403.025, 404.025 433 C 404.602 462.975, 405.329 495.199, 405.639 504.608 L 406.203 521.716 413.166 522.960 C 416.995 523.645, 420.359 523.974, 420.641 523.692 C 421.291 523.042, 421.172 427.087, 420.519 426.031 C 419.786 424.844, 419.206 239.078, 419.897 226.796 C 420.664 213.171, 420.368 212.913, 406.609 215.263 M 428.220 217.750 C 429.061 218.713, 430.463 220.850, 431.335 222.500 L 432.920 225.500 432.960 222.872 C 432.982 221.427, 432.330 219.689, 431.511 219.009 C 430.692 218.329, 430.269 217.374, 430.570 216.887 C 430.871 216.399, 430.122 216, 428.904 216 C 426.879 216, 426.821 216.150, 428.220 217.750 M 381.500 219.066 C 376.550 220.102, 370.433 221.073, 367.907 221.225 C 364.191 221.447, 363.462 221.787, 364.093 223 C 364.522 223.825, 365.370 279.400, 365.976 346.500 C 367.042 464.353, 367.847 512.486, 368.738 511.596 C 368.971 511.362, 369.150 508.453, 369.134 505.132 C 369.100 498.053, 370.936 495.075, 375.500 494.811 C 377.150 494.715, 379.003 494.263, 379.617 493.806 C 381.804 492.180, 383.128 495.950, 383.908 506.022 C 384.839 518.044, 384.962 518.167, 398.269 520.554 L 402.039 521.230 401.510 498.865 C 401.219 486.564, 400.537 456.025, 399.995 431 C 399.454 405.975, 398.788 375.375, 398.516 363 C 398.244 350.625, 397.726 312.712, 397.364 278.750 L 396.706 217 393.603 217.092 C 391.896 217.142, 386.450 218.031, 381.500 219.066 M 267.723 218.611 C 267.325 219.008, 267 220.413, 267 221.732 C 267 223.052, 266.581 224.914, 266.070 225.870 C 264.919 228.020, 265.867 229.689, 268.500 230.150 C 270.223 230.451, 270.541 229.876, 270.794 226 C 271.081 221.604, 269.216 217.117, 267.723 218.611 M 246.641 236.750 C 250.940 244.863, 257.920 258.475, 262.152 267 C 269.812 282.431, 269.847 282.479, 269.923 277.872 C 269.968 275.184, 269.450 272.788, 268.686 272.155 C 267.964 271.555, 262.230 260.362, 255.945 247.282 C 244.136 222.708, 243.733 222.041, 240.663 222.015 C 239.153 222.003, 240.220 224.632, 246.641 236.750 M 320.500 223.069 C 318.300 223.520, 313.144 224.596, 309.042 225.461 C 304.939 226.327, 300.214 226.946, 298.542 226.838 C 291.461 226.379, 288.822 227.024, 285.923 229.923 L 283 232.846 283 364.788 C 283 515.392, 282.031 500.609, 292.056 503.013 C 296.768 504.144, 297.288 504.078, 299.413 502.082 C 301.346 500.265, 301.881 500.151, 302.869 501.342 C 303.512 502.117, 306.167 503.324, 308.769 504.025 C 311.371 504.725, 314.445 506.146, 315.599 507.182 C 319.079 510.304, 329.480 511.780, 331.990 509.509 C 334.015 507.676, 334.018 507.398, 333.520 366.586 L 333.021 225.500 330.900 223.750 C 328.639 221.885, 326.856 221.768, 320.500 223.069 M 352 223.882 L 348.500 224.500 348.729 296 C 348.949 364.791, 350.275 454.631, 351.632 492.708 L 352.281 510.917 357.720 512.046 C 360.711 512.667, 363.373 512.961, 363.634 512.699 C 363.896 512.437, 363.651 484.161, 363.089 449.862 C 362.528 415.563, 361.764 350.488, 361.393 305.250 L 360.717 223 358.109 223.132 C 356.674 223.204, 353.925 223.542, 352 223.882 M 253 226.353 C 253 226.548, 256.795 234.535, 261.433 244.103 L 269.866 261.500 269.933 255.717 C 270.038 246.679, 262.950 229.295, 258.382 227.386 C 255.167 226.043, 253 225.627, 253 226.353 M 431.231 230.025 C 430.540 232.239, 430.254 235.164, 430.596 236.525 C 431.751 241.128, 433 239.037, 433 232.500 C 433 224.872, 432.888 224.716, 431.231 230.025 M 319.853 227.669 C 318.850 227.936, 317.986 229.552, 317.642 231.803 C 316.905 236.633, 317.866 497.501, 318.637 501.761 C 319.333 505.609, 319.278 505.567, 324.835 506.487 L 329.170 507.204 328.518 426.852 C 328.160 382.659, 327.710 319.725, 327.519 287 C 327.327 254.275, 327.132 227.387, 327.085 227.250 C 326.956 226.870, 321.720 227.174, 319.853 227.669 M 307 229.991 L 303.500 230.500 303.500 362 C 303.500 434.325, 303.835 494.693, 304.244 496.150 C 304.923 498.568, 310.031 501.636, 311.286 500.380 C 311.696 499.971, 311.085 231.216, 310.672 229.991 C 310.577 229.711, 308.925 229.711, 307 229.991 M 288.568 232.575 C 287.148 233.995, 287.018 247.106, 287.246 365.821 L 287.500 497.491 291.395 498.767 C 293.537 499.469, 295.562 499.771, 295.895 499.439 C 296.228 499.106, 296.625 438.571, 296.777 364.917 L 297.054 231 293.599 231 C 291.698 231, 289.434 231.709, 288.568 232.575 M 271.048 233.949 C 270.249 234.455, 269.188 234.616, 268.691 234.309 C 267.728 233.714, 268.646 237.446, 270.091 240 C 270.745 241.157, 270.946 240.971, 270.970 239.184 C 270.986 237.911, 271.466 235.998, 272.035 234.934 C 273.202 232.754, 273.099 232.652, 271.048 233.949 M 0.712 329.685 C -0.876 332.342, 1.543 336.068, 13.062 348.712 C 19.971 356.295, 33.899 372.175, 44.012 384 C 64.953 408.484, 85.582 431.760, 114.474 463.503 C 146.621 498.824, 150.027 502.672, 163.904 519.360 C 171.158 528.084, 176.946 535.662, 176.766 536.202 C 176.353 537.440, 163.429 543, 160.963 543 C 159.855 543, 149.458 532.773, 134.812 517.274 C 71.033 449.784, 58.326 436.246, 43.041 419.500 C 12.238 385.753, 1.697 374.903, 0.690 375.910 C 0.069 376.531, 2.006 379.346, 6.112 383.791 C 9.625 387.595, 21.950 401.001, 33.500 413.582 C 53.279 435.128, 74.229 457.448, 131.744 518.250 C 153.941 541.716, 155.845 544, 153.206 544 C 151.608 544, 149.522 543.129, 148.551 542.057 C 143.433 536.401, 136.536 539.066, 135.775 546.995 C 135.504 549.812, 134.833 552.567, 134.283 553.117 C 133.618 553.782, 111.289 531.882, 67.442 487.558 C 22.666 442.297, 1.272 421.328, 0.578 422.022 C -0.476 423.076, 5.401 429.138, 89.471 513.727 C 114.419 538.829, 130.065 555.293, 129.473 555.819 C 128.938 556.295, 123.892 558.385, 118.260 560.464 C 108.833 563.943, 107.841 564.125, 105.760 562.746 C 103.086 560.973, 77.660 537.026, 33.559 494.742 C 5.154 467.508, -0 463.070, 0 465.848 C 0 466.549, 67.997 531.956, 92.225 554.561 C 98.674 560.577, 103.399 565.670, 102.725 565.879 C 102.051 566.087, 96.423 568.224, 90.218 570.629 C 84.013 573.033, 78.351 575, 77.636 575 C 76.193 575, 62.523 563.351, 33.044 537 C 6.069 512.888, 2.248 509.729, 0.990 510.506 C -0.649 511.519, -0.082 512.236, 7 518.101 C 10.575 521.061, 22.305 531.362, 33.067 540.992 C 43.828 550.621, 57.249 562.495, 62.890 567.377 C 68.531 572.259, 72.776 576.581, 72.323 576.980 C 71.870 577.380, 65.523 580.025, 58.218 582.857 L 44.937 588.008 23.931 570.754 C 2.070 552.798, 0.500 551.815, 0.500 556.088 C 0.500 558.659, 4.533 562.300, 31.750 584.306 C 35.188 587.085, 38 589.618, 38 589.935 C 38 590.251, 35.187 591.582, 31.750 592.892 C 25.116 595.421, 21.712 597.725, 22.568 599.110 C 23.683 600.915, 31.384 598.991, 40.234 594.698 C 51.726 589.123, 80.639 577.747, 105.500 569.017 C 123.769 562.602, 132.204 559.151, 134.407 557.192 C 137.150 554.750, 154.395 548, 157.888 548 C 161.112 548, 177.735 541.497, 180.250 539.252 C 181.212 538.393, 182 536.822, 182 535.762 C 182 533.161, 153.932 499.799, 122.465 465 C 90.515 429.667, 71.186 407.881, 59.500 394.034 C 23.108 350.911, 1.899 327.697, 0.712 329.685 M 373.015 501.595 C 373.037 505.652, 374.189 507.045, 377.312 506.786 C 379.638 506.594, 380 506.122, 380 503.282 C 380 500.056, 378.755 498.970, 377.460 501.065 C 377.029 501.762, 376.145 501.536, 374.901 500.410 C 373.074 498.757, 373.001 498.804, 373.015 501.595 M 268.500 518.147 C 260.814 521.636, 211.273 544.503, 152.559 571.662 C 143.791 575.718, 134.566 579.658, 132.059 580.419 C 128.083 581.625, 107.364 589.834, 96.920 594.340 C 92.701 596.160, 90.408 598.516, 91.936 599.461 C 92.505 599.812, 96.656 598.502, 101.161 596.550 C 110.109 592.672, 110.372 592.589, 109.570 593.887 C 106.918 598.178, 126.201 594.030, 134.656 588.490 C 136.671 587.170, 136.908 586.594, 135.924 585.409 C 134.432 583.611, 132.894 584.555, 150 576.772 C 157.975 573.143, 183.625 561.317, 207 550.492 C 230.375 539.667, 255.820 527.943, 263.543 524.439 L 277.587 518.067 286.043 519.996 C 372.167 539.638, 447.959 555.441, 449.353 554.047 C 451.406 551.994, 448.206 551.061, 417 544.619 C 399.675 541.042, 366.150 533.816, 342.500 528.560 C 318.850 523.304, 295.225 518.070, 290 516.930 C 284.775 515.789, 279.825 514.677, 279 514.458 C 278.175 514.240, 273.450 515.900, 268.500 518.147 M 140 545.441 C 140 548.324, 141.302 549.356, 143.899 548.532 C 145.511 548.020, 145.617 547.582, 144.641 545.475 C 143.122 542.200, 140 542.177, 140 545.441" stroke="none" fill="#1A1A1A" fill-rule="evenodd"/>
</svg>