<svg xmlns="http://www.w3.org/2000/svg" viewBox="0 0 560 600" preserveAspectRatio="xMidYMid meet">
  <rect width="560" height="600" fill="white"/>
  <circle cx="30" cy="30" r="12" fill="none" stroke="#ccc" stroke-width="1.5"/><circle cx="75" cy="30" r="12" fill="none" stroke="#ccc" stroke-width="1.5"/><circle cx="120" cy="30" r="12" fill="none" stroke="#ccc" stroke-width="1.5"/><circle cx="165" cy="30" r="12" fill="none" stroke="#ccc" stroke-width="1.5"/><circle cx="210" cy="30" r="12" fill="none" stroke="#ccc" stroke-width="1.5"/><circle cx="255" cy="30" r="12" fill="none" stroke="#ccc" stroke-width="1.5"/><circle cx="300" cy="30" r="12" fill="none" stroke="#ccc" stroke-width="1.5"/><circle cx="345" cy="30" r="12" fill="none" stroke="#ccc" stroke-width="1.5"/><circle cx="390" cy="30" r="12" fill="none" stroke="#ccc" stroke-width="1.5"/><circle cx="435" cy="30" r="12" fill="none" stroke="#ccc" stroke-width="1.5"/><circle cx="480" cy="30" r="12" fill="none" stroke="#ccc" stroke-width="1.5"/><circle cx="525" cy="30" r="12" fill="none" stroke="#ccc" stroke-width="1.5"/><circle cx="30" cy="75" r="12" fill="none" stroke="#ccc" stroke-width="1.5"/><circle cx="75" cy="75" r="12" fill="none" stroke="#ccc" stroke-width="1.5"/><circle cx="120" cy="75" r="12" fill="none" stroke="#ccc" stroke-width="1.5"/><circle cx="165" cy="75" r="12" fill="none" stroke="#ccc" stroke-width="1.5"/><circle cx="210" cy="75" r="12" fill="none" stroke="#ccc" stroke-width="1.5"/><circle cx="255" cy="75" r="12" fill="none" stroke="#ccc" stroke-width="1.5"/><circle cx="300" cy="75" r="12" fill="none" stroke="#ccc" stroke-width="1.5"/><circle cx="345" cy="75" r="12" fill="none" stroke="#ccc" stroke-width="1.5"/><circle cx="390" cy="75" r="12" fill="none" stroke="#ccc" stroke-width="1.5"/><circle cx="435" cy="75" r="12" fill="none" stroke="#ccc" stroke-width="1.5"/><circle cx="480" cy="75" r="12" fill="none" stroke="#ccc" stroke-width="1.5"/><circle cx="525" cy="75" r="12" fill="none" stroke="#ccc" stroke-width="1.5"/><circle cx="30" cy="120" r="12" fill="none" stroke="#ccc" stroke-width="1.5"/><circle cx="75" cy="120" r="12" fill="none" stroke="#ccc" stroke-width="1.5"/><circle cx="120" cy="120" r="12" fill="none" stroke="#ccc" stroke-width="1.5"/><circle cx="165" cy="120" r="12" fill="none" stroke="#ccc" stroke-width="1.5"/><circle cx="210" cy="120" r="12" fill="none" stroke="#ccc" stroke-width="1.5"/><circle cx="255" cy="120" r="12" fill="none" stroke="#ccc" stroke-width="1.5"/><circle cx="300" cy="120" r="12" fill="none" stroke="#ccc" stroke-width="1.5"/><circle cx="345" cy="120" r="12" fill="none" stroke="#ccc" stroke-width="1.5"/><circle cx="390" cy="120" r="12" fill="none" stroke="#ccc" stroke-width="1.5"/><circle cx="435" cy="120" r="12" fill="none" stroke="#ccc" stroke-width="1.5"/><circle cx="480" cy="120" r="12" fill="none" stroke="#ccc" stroke-width="1.5"/><circle cx="525" cy="120" r="12" fill="none" stroke="#ccc" stroke-width="1.5"/><circle cx="30" cy="165" r="12" fill="none" stroke="#ccc" stroke-width="1.5"/><circle cx="75" cy="165" r="12" fill="none" stroke="#ccc" stroke-width="1.5"/><circle cx="120" cy="165" r="12" fill="none" stroke="#ccc" stroke-width="1.5"/><circle cx="165" cy="165" r="12" fill="none" stroke="#ccc" stroke-width="1.5"/><circle cx="210" cy="165" r="12" fill="none" stroke="#ccc" stroke-width="1.5"/><circle cx="255" cy="165" r="12" fill="none" stroke="#ccc" stroke-width="1.5"/><circle cx="300" cy="165" r="12" fill="none" stroke="#ccc" stroke-width="1.5"/><circle cx="345" cy="165" r="12" fill="none" stroke="#ccc" stroke-width="1.5"/><circle cx="390" cy="165" r="12" fill="none" stroke="#ccc" stroke-width="1.5"/><circle cx="435" cy="165" r="12" fill="none" stroke="#ccc" stroke-width="1.5"/><circle cx="480" cy="165" r="12" fill="none" stroke="#ccc" stroke-width="1.5"/><circle cx="525" cy="165" r="12" fill="none" stroke="#ccc" stroke-width="1.5"/><circle cx="30" cy="210" r="12" fill="none" stroke="#ccc" stroke-width="1.5"/><circle cx="75" cy="210" r="12" fill="none" stroke="#ccc" stroke-width="1.5"/><circle cx="120" cy="210" r="12" fill="none" stroke="#ccc" stroke-width="1.5"/><circle cx="165" cy="210" r="12" fill="none" stroke="#ccc" stroke-width="1.5"/><circle cx="210" cy="210" r="12" fill="none" stroke="#ccc" stroke-width="1.5"/><circle cx="255" cy="210" r="12" fill="none" stroke="#ccc" stroke-width="1.5"/><circle cx="300" cy="210" r="12" fill="none" stroke="#ccc" stroke-width="1.5"/><circle cx="345" cy="210" r="12" fill="none" stroke="#ccc" stroke-width="1.5"/><circle cx="390" cy="210" r="12" fill="none" stroke="#ccc" stroke-width="1.5"/><circle cx="435" cy="210" r="12" fill="none" stroke="#ccc" stroke-width="1.5"/><circle cx="480" cy="210" r="12" fill="none" stroke="#ccc" stroke-width="1.5"/><circle cx="525" cy="210" r="12" fill="none" stroke="#ccc" stroke-width="1.5"/><circle cx="30" cy="255" r="12" fill="none" stroke="#ccc" stroke-width="1.5"/><circle cx="75" cy="255" r="12" fill="none" stroke="#ccc" stroke-width="1.5"/><circle cx="120" cy="255" r="12" fill="none" stroke="#ccc" stroke-width="1.5"/><circle cx="165" cy="255" r="12" fill="none" stroke="#ccc" stroke-width="1.5"/><circle cx="210" cy="255" r="12" fill="none" stroke="#ccc" stroke-width="1.5"/><circle cx="255" cy="255" r="12" fill="none" stroke="#ccc" stroke-width="1.5"/><circle cx="300" cy="255" r="12" fill="none" stroke="#ccc" stroke-width="1.5"/><circle cx="345" cy="255" r="12" fill="none" stroke="#ccc" stroke-width="1.5"/><circle cx="390" cy="255" r="12" fill="none" stroke="#ccc" stroke-width="1.5"/><circle cx="435" cy="255" r="12" fill="none" stroke="#ccc" stroke-width="1.5"/><circle cx="480" cy="255" r="12" fill="none" stroke="#ccc" stroke-width="1.5"/><circle cx="525" cy="255" r="12" fill="none" stroke="#ccc" stroke-width="1.5"/><circle cx="30" cy="300" r="12" fill="none" stroke="#ccc" stroke-width="1.5"/><circle cx="75" cy="300" r="12" fill="none" stroke="#ccc" stroke-width="1.5"/><circle cx="120" cy="300" r="12" fill="none" stroke="#ccc" stroke-width="1.5"/><circle cx="165" cy="300" r="12" fill="none" stroke="#ccc" stroke-width="1.5"/><circle cx="210" cy="300" r="12" fill="none" stroke="#ccc" stroke-width="1.5"/><circle cx="255" cy="300" r="12" fill="none" stroke="#ccc" stroke-width="1.5"/><circle cx="300" cy="300" r="12" fill="none" stroke="#ccc" stroke-width="1.5"/><circle cx="345" cy="300" r="12" fill="none" stroke="#ccc" stroke-width="1.5"/><circle cx="390" cy="300" r="12" fill="none" stroke="#ccc" stroke-width="1.5"/><circle cx="435" cy="300" r="12" fill="none" stroke="#ccc" stroke-width="1.5"/><circle cx="480" cy="300" r="12" fill="none" stroke="#ccc" stroke-width="1.5"/><circle cx="525" cy="300" r="12" fill="none" stroke="#ccc" stroke-width="1.5"/><circle cx="30" cy="345" r="12" fill="none" stroke="#ccc" stroke-width="1.5"/><circle cx="75" cy="345" r="12" fill="none" stroke="#ccc" stroke-width="1.5"/><circle cx="120" cy="345" r="12" fill="none" stroke="#ccc" stroke-width="1.5"/><circle cx="165" cy="345" r="12" fill="none" stroke="#ccc" stroke-width="1.5"/><circle cx="210" cy="345" r="12" fill="none" stroke="#ccc" stroke-width="1.5"/><circle cx="255" cy="345" r="12" fill="none" stroke="#ccc" stroke-width="1.5"/><circle cx="300" cy="345" r="12" fill="none" stroke="#ccc" stroke-width="1.5"/><circle cx="345" cy="345" r="12" fill="none" stroke="#ccc" stroke-width="1.5"/><circle cx="390" cy="345" r="12" fill="none" stroke="#ccc" stroke-width="1.5"/><circle cx="435" cy="345" r="12" fill="none" stroke="#ccc" stroke-width="1.5"/><circle cx="480" cy="345" r="12" fill="none" stroke="#ccc" stroke-width="1.5"/><circle cx="525" cy="345" r="12" fill="none" stroke="#ccc" stroke-width="1.5"/><circle cx="30" cy="390" r="12" fill="none" stroke="#ccc" stroke-width="1.5"/><circle cx="75" cy="390" r="12" fill="none" stroke="#ccc" stroke-width="1.5"/><circle cx="120" cy="390" r="12" fill="none" stroke="#ccc" stroke-width="1.5"/><circle cx="165" cy="390" r="12" fill="none" stroke="#ccc" stroke-width="1.5"/><circle cx="210" cy="390" r="12" fill="none" stroke="#ccc" stroke-width="1.5"/><circle cx="255" cy="390" r="12" fill="none" stroke="#ccc" stroke-width="1.5"/><circle cx="300" cy="390" r="12" fill="none" stroke="#ccc" stroke-width="1.5"/><circle cx="345" cy="390" r="12" fill="none" stroke="#ccc" stroke-width="1.5"/><circle cx="390" cy="390" r="12" fill="none" stroke="#ccc" stroke-width="1.5"/><circle cx="435" cy="390" r="12" fill="none" stroke="#ccc" stroke-width="1.5"/><circle cx="480" cy="390" r="12" fill="none" stroke="#ccc" stroke-width="1.5"/><circle cx="525" cy="390" r="12" fill="none" stroke="#ccc" stroke-width="1.5"/><circle cx="30" cy="435" r="12" fill="none" stroke="#ccc" stroke-width="1.5"/><circle cx="75" cy="435" r="12" fill="none" stroke="#ccc" stroke-width="1.5"/><circle cx="120" cy="435" r="12" fill="none" stroke="#ccc" stroke-width="1.5"/><circle cx="165" cy="435" r="12" fill="none" stroke="#ccc" stroke-width="1.5"/><circle cx="210" cy="435" r="12" fill="none" stroke="#ccc" stroke-width="1.5"/><circle cx="255" cy="435" r="12" fill="none" stroke="#ccc" stroke-width="1.5"/><circle cx="300" cy="435" r="12" fill="none" stroke="#ccc" stroke-width="1.5"/><circle cx="345" cy="435" r="12" fill="none" stroke="#ccc" stroke-width="1.5"/><circle cx="390" cy="435" r="12" fill="none" stroke="#ccc" stroke-width="1.5"/><circle cx="435" cy="435" r="12" fill="none" stroke="#ccc" stroke-width="1.5"/><circle cx="480" cy="435" r="12" fill="none" stroke="#ccc" stroke-width="1.5"/><circle cx="525" cy="435" r="12" fill="none" stroke="#ccc" stroke-width="1.5"/><circle cx="30" cy="480" r="12" fill="none" stroke="#ccc" stroke-width="1.5"/><circle cx="75" cy="480" r="12" fill="none" stroke="#ccc" stroke-width="1.5"/><circle cx="120" cy="480" r="12" fill="none" stroke="#ccc" stroke-width="1.5"/><circle cx="165" cy="480" r="12" fill="none" stroke="#ccc" stroke-width="1.5"/><circle cx="210" cy="480" r="12" fill="none" stroke="#ccc" stroke-width="1.5"/><circle cx="255" cy="480" r="12" fill="none" stroke="#ccc" stroke-width="1.5"/><circle cx="300" cy="480" r="12" fill="none" stroke="#ccc" stroke-width="1.5"/><circle cx="345" cy="480" r="12" fill="none" stroke="#ccc" stroke-width="1.5"/><circle cx="390" cy="480" r="12" fill="none" stroke="#ccc" stroke-width="1.5"/><circle cx="435" cy="480" r="12" fill="none" stroke="#ccc" stroke-width="1.5"/><circle cx="480" cy="480" r="12" fill="none" stroke="#ccc" stroke-width="1.5"/><circle cx="525" cy="480" r="12" fill="none" stroke="#ccc" stroke-width="1.5"/><circle cx="30" cy="525" r="12" fill="none" stroke="#ccc" stroke-width="1.5"/><circle cx="75" cy="525" r="12" fill="none" stroke="#ccc" stroke-width="1.5"/><circle cx="120" cy="525" r="12" fill="none" stroke="#ccc" stroke-width="1.5"/><circle cx="165" cy="525" r="12" fill="none" stroke="#ccc" stroke-width="1.5"/><circle cx="210" cy="525" r="12" fill="none" stroke="#ccc" stroke-width="1.5"/><circle cx="255" cy="525" r="12" fill="none" stroke="#ccc" stroke-width="1.5"/><circle cx="300" cy="525" r="12" fill="none" stroke="#ccc" stroke-width="1.5"/><circle cx="345" cy="525" r="12" fill="none" stroke="#ccc" stroke-width="1.5"/><circle cx="390" cy="525" r="12" fill="none" stroke="#ccc" stroke-width="1.5"/><circle cx="435" cy="525" r="12" fill="none" stroke="#ccc" stroke-width="1.5"/><circle cx="480" cy="525" r="12" fill="none" stroke="#ccc" stroke-width="1.5"/><circle cx="525" cy="525" r="12" fill="none" stroke="#ccc" stroke-width="1.5"/>
  <ellipse cx="280" cy="280" rx="200" ry="230" fill="none" stroke="#1A1A1A" stroke-width="5"/>
  <ellipse cx="200" cy="230" rx="45" ry="35" fill="none" stroke="#1A1A1A" stroke-width="4"/>
  <circle cx="210" cy="228" r="20" fill="none" stroke="#1A1A1A" stroke-width="3"/>
  <circle cx="215" cy="223" r="7" fill="none" stroke="#1A1A1A" stroke-width="2"/>
  <ellipse cx="360" cy="230" rx="45" ry="35" fill="none" stroke="#1A1A1A" stroke-width="4"/>
  <circle cx="370" cy="228" r="20" fill="none" stroke="#1A1A1A" stroke-width="3"/>
  <circle cx="375" cy="223" r="7" fill="none" stroke="#1A1A1A" stroke-width="2"/>
  <path d="M 280 250 Q 265 300 270 320 Q 280 330 290 320 Q 295 300 280 250" fill="none" stroke="#1A1A1A" stroke-width="3"/>
  <ellipse cx="280" cy="370" rx="90" ry="40" fill="none" stroke="#1A1A1A" stroke-width="4"/>
  <ellipse cx="280" cy="358" rx="85" ry="20" fill="none" stroke="#1A1A1A" stroke-width="2.5"/>
  <rect x="210" y="358" width="35" height="22" rx="5" fill="none" stroke="#1A1A1A" stroke-width="2"/>
  <rect x="248" y="358" width="35" height="22" rx="5" fill="none" stroke="#1A1A1A" stroke-width="2"/>
  <rect x="286" y="358" width="35" height="22" rx="5" fill="none" stroke="#1A1A1A" stroke-width="2"/>
  <rect x="324" y="358" width="35" height="22" rx="5" fill="none" stroke="#1A1A1A" stroke-width="2"/>
  <path d="M 80 200 Q 100 80 280 60 Q 460 80 480 200 Q 460 120 280 110 Q 100 120 80 200 Z" fill="none" stroke="#1A1A1A" stroke-width="5"/>
  <ellipse cx="460" cy="80" rx="75" ry="45" fill="none" stroke="#1A1A1A" stroke-width="4"/>
  <circle cx="410" cy="115" r="8" fill="none" stroke="#1A1A1A" stroke-width="3"/>
  <circle cx="398" cy="130" r="5" fill="none" stroke="#1A1A1A" stroke-width="2"/>
</svg>