<svg xmlns="http://www.w3.org/2000/svg" viewBox="0 0 600 413" version="1.1" preserveAspectRatio="xMidYMid meet">
	<path d="M 238.090 4.023 C 235.290 6.236, 233 8.496, 233 9.045 C 233 11.937, 228.191 12.214, 221.857 9.686 C 207.354 3.896, 193.952 2.970, 181.500 6.896 C 172.042 9.878, 162.947 10.541, 159.060 8.531 C 142.591 0.014, 104.300 9.109, 86.950 25.657 C 72.529 39.413, 68.191 49.467, 67.157 71.536 L 66.500 85.572 61.257 91.536 C 54.407 99.327, 47.990 107.964, 45.530 112.704 C 44.446 114.792, 41.811 119.324, 39.674 122.776 C 32.434 134.469, 28.568 148.805, 27.407 168.271 C 26.754 179.212, 26.585 179.935, 25.023 178.521 C 21.444 175.282, 17.585 178.658, 18.661 184.087 C 19.276 187.190, 19.186 187.375, 17.669 186.128 C 16.636 185.279, 16 183.285, 16 180.901 C 16 172.804, 9.537 172.013, 5.338 179.596 C 4.149 181.743, 2.377 184.293, 1.400 185.262 C 0.049 186.603, -0.097 187.303, 0.789 188.189 C 2.307 189.707, 5.491 186.914, 8.127 181.750 C 10.506 177.088, 12 176.951, 12 181.394 C 12 186.444, 18.580 193.106, 20.500 190 C 21.785 187.921, 22.813 189.145, 23.231 193.250 C 23.469 195.588, 25.095 202.806, 26.845 209.290 C 29.217 218.080, 29.769 221.562, 29.014 222.974 C 27.660 225.503, 27.726 230.326, 29.133 231.733 C 30.842 233.442, 29.376 236, 26.686 236 C 21.944 236, 18.029 245.655, 20.779 250.569 C 21.517 251.889, 21.308 253.474, 20.002 256.439 C 15.246 267.236, 14.089 270.993, 13.673 277 C 13.281 282.662, 11.223 293.396, 9.100 300.855 C 8.479 303.039, 8.191 302.827, 5.164 297.956 C 2.688 293.974, 1.617 292.983, 0.739 293.861 C -0.468 295.068, 0.110 296.378, 5.881 305.500 C 9.327 310.949, 9.096 326.387, 5.398 337.715 C 4.079 341.756, 2.992 346.285, 2.983 347.781 C 2.973 349.276, 2.309 353.598, 1.507 357.384 C -0.154 365.224, 0.286 366.913, 3.315 364.315 L 5.432 362.500 3.702 365 C 0.774 369.231, 0.654 370.098, 2.710 372.155 C 4.480 373.925, 6.475 374.675, 14.756 376.687 C 18.179 377.519, 19.980 375.334, 20.160 370.128 C 20.297 366.162, 20.380 365.991, 20.737 368.933 C 21.977 379.146, 19.238 381.074, 8.907 377.260 C 3.607 375.304, 1.639 374.961, 0.760 375.840 C -0.825 377.425, 0.463 378.418, 6.750 380.457 C 12.845 382.435, 13.038 383.053, 9 387.653 C 7.142 389.768, 6 392.173, 6 393.968 C 6 396.387, 5.545 396.920, 3.250 397.184 C -0.664 397.634, -0.354 400.417, 3.654 400.806 C 7.354 401.165, 10 398.236, 10 393.780 C 10 390.871, 16.164 383, 18.442 383 C 19.886 383, 23.452 379.209, 24.320 376.750 C 24.659 375.788, 25.538 375, 26.272 375 C 28.416 375, 33.441 369.038, 37.484 361.697 C 39.545 357.956, 42.417 354.148, 43.865 353.235 C 45.314 352.321, 48.875 349.442, 51.777 346.836 C 54.679 344.230, 59.400 340.839, 62.268 339.299 C 65.159 337.747, 68.041 335.330, 68.736 333.875 C 69.945 331.343, 73.628 327.983, 83.239 320.647 L 87.781 317.181 90.554 322.340 C 94.831 330.298, 98.268 335.023, 109.732 348.707 C 121.603 362.876, 121.412 362.398, 122.578 380.840 L 123.289 392.061 119.144 395.609 C 110.475 403.029, 115.884 410.976, 129.615 410.994 C 136.830 411.004, 139.936 407.456, 143.004 395.698 C 149.620 370.351, 147.348 351.279, 137.089 346.045 C 133.701 344.317, 133.091 343.317, 130.065 334.538 C 125.652 321.737, 121.133 312.565, 116.282 306.564 L 112.292 301.628 117.896 298.907 C 127.653 294.170, 137.502 291.631, 141.166 292.908 C 144.813 294.180, 147.380 292.607, 148.420 288.462 C 148.868 286.679, 150.097 285.789, 153.260 284.960 C 155.592 284.348, 161.147 282.724, 165.605 281.351 C 173.248 278.997, 174.614 278.887, 189.605 279.424 C 213.879 280.292, 214 280.305, 214 282.027 C 214 284.564, 217.001 288.045, 221.826 291.104 C 227.605 294.770, 229.910 294.747, 233.508 290.992 L 236.390 287.984 234.336 283.122 C 232.502 278.780, 232.462 278.308, 233.962 278.700 C 234.886 278.942, 237.860 277.824, 240.571 276.215 C 243.282 274.607, 249.325 271.154, 254 268.543 C 258.675 265.932, 264.194 262.465, 266.264 260.839 L 270.028 257.884 278.264 263.814 C 289.472 271.884, 296.915 275.442, 310.074 279.020 C 323.906 282.781, 323.251 282.417, 334.526 292.601 C 345.478 302.492, 345.611 302.802, 346.468 320.500 C 347.873 349.521, 351.183 361.636, 363.666 383.459 C 375.220 403.658, 378.726 405.806, 405.450 409.064 C 410.372 409.664, 415.700 410.828, 417.290 411.650 C 420.850 413.491, 423.864 412.746, 421.990 410.488 C 420.222 408.357, 421.704 408.653, 425.173 411.123 C 429.880 414.475, 430.970 411.945, 426.431 408.204 C 422.070 404.609, 415.291 402.732, 398.613 400.502 C 382.828 398.391, 380.758 397.445, 377.442 390.824 C 375.976 387.896, 373.783 384.150, 372.570 382.500 C 357.564 362.096, 352.135 343.860, 353.291 317.748 C 353.978 302.249, 354.691 303.653, 339.125 289.869 C 324.582 276.992, 321.973 275.424, 309.500 272.063 C 297.361 268.793, 288.561 264.109, 277 254.762 C 267.437 247.031, 264.552 244.319, 255.179 234.250 C 253.515 232.462, 251.259 231, 250.165 231 C 247.988 231, 226.938 248.639, 224.288 252.683 C 221.637 256.729, 223.083 271.617, 227.055 281.185 C 230.102 288.524, 228.340 290.415, 222.635 285.927 C 220.068 283.908, 220.015 283.643, 220.602 275.677 C 221.115 268.709, 220.894 266.785, 219.102 262.667 C 216.205 256.007, 216.416 254.621, 220.965 250.412 C 223.145 248.395, 225.443 245.114, 226.071 243.122 C 226.699 241.130, 229.415 235.326, 232.107 230.225 C 237.509 219.986, 237.683 218.896, 235.461 209.128 C 232.641 196.731, 227.691 193.035, 219.330 197.082 C 213.819 199.750, 211.754 199.275, 199.918 192.617 C 194.264 189.437, 186.767 186.251, 181.161 184.647 C 164.803 179.966, 162.199 178.274, 145.683 161.586 C 137.470 153.289, 128.339 143.495, 125.391 139.822 C 119.611 132.622, 116.951 131.062, 114.040 133.165 C 102.170 141.738, 97.866 144.556, 94.320 146.077 C 90.951 147.521, 88.986 149.581, 84.197 156.685 C 80.929 161.533, 77.323 166.334, 76.184 167.354 C 72.953 170.246, 72.583 174.244, 74.921 181.001 C 76.065 184.305, 77 188.595, 77 190.534 C 77 193.154, 78.532 196.406, 82.962 203.187 C 91.416 216.128, 91.773 224.631, 84.145 231.405 C 81.069 234.137, 81.443 237.577, 86.062 249.033 C 90.878 260.978, 93.520 270.988, 95.336 284.169 L 96.669 293.839 104.645 302.364 C 113.213 311.521, 115.744 315.921, 121.405 331.500 C 126.947 346.747, 128.612 349.839, 132.531 352.151 C 140.814 357.038, 142.199 375.610, 135.765 395.500 C 133.514 402.458, 133.477 402.502, 129.618 402.818 C 123.880 403.289, 123.228 401.843, 127.038 397.102 L 130.307 393.035 129.650 381.767 C 128.367 359.778, 128.810 361.094, 119.035 350.181 C 107.802 337.638, 99.425 325.582, 95.863 316.827 C 94.296 312.979, 92.097 308.540, 90.974 306.963 C 89.851 305.387, 87.808 301.552, 86.432 298.443 C 85.057 295.333, 81.699 290.248, 78.970 287.144 C 76.241 284.040, 70.744 276.560, 66.754 270.523 C 55.851 254.023, 54.490 254.031, 44.440 270.641 C 38.875 279.839, 38.665 280.445, 37.900 289.515 C 36.985 300.356, 34.453 307.489, 26.244 322.352 C 19.106 335.275, 18.585 337.228, 20.581 343.598 C 22.147 348.596, 22.129 348.792, 19.671 353.598 C 18.048 356.771, 16.920 361.088, 16.472 365.838 C 15.819 372.751, 15.656 373.136, 13.640 372.494 C 12.463 372.120, 10.257 371.578, 8.738 371.291 C 5.187 370.621, 4.416 369.303, 6.332 367.185 C 8.651 364.624, 9.769 360.990, 10.995 352.037 C 11.609 347.554, 12.990 340.449, 14.065 336.247 C 15.139 332.045, 16.265 324.759, 16.565 320.054 C 17.080 312.009, 23.178 281.135, 26.649 269 C 28.298 263.239, 37.108 247.209, 42.210 240.689 C 45.929 235.936, 45.708 232.739, 40.665 218.409 C 35.408 203.471, 34.653 197.481, 35.262 175.570 C 36.123 144.609, 37.947 138.824, 56.171 109.230 C 59.523 103.787, 66.541 96.111, 71.605 92.350 L 74.500 90.201 75.148 74.350 C 76.007 53.325, 80.143 41.601, 90.134 31.869 C 104.935 17.453, 144.414 9.052, 157.297 17.578 C 160.029 19.386, 162.055 20.025, 163.873 19.653 C 172.014 17.985, 183.899 15.010, 186.500 13.988 C 194.277 10.935, 210.926 13.283, 223.754 19.243 L 231.009 22.613 228.931 24.843 L 226.854 27.073 223.677 25.116 C 220.792 23.339, 220.191 23.290, 217.135 24.580 C 211.829 26.819, 201.246 26.361, 192.185 23.499 C 187.830 22.123, 181.589 20.717, 178.317 20.375 L 172.367 19.753 168.838 23.877 L 165.308 28 156.219 28 C 151.220 28, 145.976 28.439, 144.565 28.975 C 142.382 29.805, 142 29.674, 142 28.092 C 142 24.776, 134.516 19, 130.220 19 C 125.681 19, 123.837 20.193, 113.600 29.750 C 109.014 34.032, 102.932 38.525, 99.100 40.462 C 95.470 42.296, 91.410 44.968, 90.077 46.398 L 87.654 48.997 90.077 61.719 C 93.054 77.351, 94.760 80.369, 100.866 80.812 C 104.208 81.054, 105.038 81.458, 104.590 82.625 C 102.051 89.242, 115.855 97.324, 125.533 94.887 C 134 92.755, 136.901 97.341, 128.767 100 C 118.745 103.276, 118.535 105.184, 127.095 115.167 C 135.851 125.377, 141.384 133.996, 150.042 150.913 C 155.321 161.229, 158.969 165.513, 163.800 167.072 C 171.661 169.608, 180.035 173.975, 187.120 179.233 C 195.949 185.785, 196.863 186.153, 201.275 184.934 C 210.489 182.390, 209.866 177.551, 199.187 168.716 C 180.719 153.436, 179.151 141.094, 193.782 126.142 C 202.893 116.831, 212.345 112.776, 234.792 108.549 C 248.876 105.897, 249.920 105.228, 252.951 96.916 C 254.487 92.701, 256.887 89.056, 261.066 84.588 C 264.330 81.100, 267 77.810, 267 77.278 C 267 74.110, 258.293 70.307, 248.745 69.305 C 242.301 68.629, 242.048 66.905, 246.571 54.500 C 251.157 41.920, 251.681 38.071, 249.559 32.514 C 247.241 26.445, 239.770 19.660, 236.012 20.212 L 233.197 20.625 237.330 15.724 C 245.079 6.534, 252.583 6.747, 265.937 16.534 C 271.526 20.630, 278.143 22.007, 291.015 21.753 L 302.531 21.526 311.178 25.675 C 319.476 29.656, 320.221 30.300, 329.662 41.657 C 344.644 59.678, 349.491 64.194, 356.319 66.498 C 363.338 68.866, 364.565 70.075, 362.973 73.051 C 360.535 77.607, 352.232 74.053, 346.280 65.907 C 344.509 63.483, 342.100 60.249, 340.928 58.719 C 339.756 57.190, 333.607 52.511, 327.263 48.322 C 320.919 44.133, 314.157 38.966, 312.236 36.840 C 307.664 31.779, 305.950 31.476, 296.462 34.049 C 282.878 37.733, 281.599 40.410, 288.477 50.762 C 299.545 67.421, 303.377 89.863, 298.336 108.500 C 296.235 116.267, 295.726 118.912, 292.476 139 C 290.496 151.234, 288.893 156.042, 282.242 169.697 L 276.788 180.895 278.070 185.898 C 279.759 192.486, 274.866 203.154, 265.830 212.585 C 258.645 220.084, 258.624 220.905, 265.364 231.259 C 276.466 248.316, 292.269 256.208, 317.653 257.371 L 331.806 258.019 334.453 254.874 C 336.336 252.636, 336.956 250.974, 336.603 249.114 C 336.330 247.676, 335.818 244.588, 335.466 242.250 L 334.824 238 342.662 238.009 C 351.425 238.019, 367.819 241.397, 378 245.290 C 393.107 251.068, 421.345 266.031, 426.500 270.991 C 430.795 275.123, 433.907 276.065, 439 274.772 C 442.124 273.979, 444.108 273.999, 446.450 274.846 C 452.396 276.996, 456 275.020, 456 269.611 C 456 267.709, 457.504 265.290, 460.960 261.636 C 467.374 254.854, 467.616 254.042, 466.875 241.811 C 466.358 233.292, 465.635 229.936, 462.711 222.500 C 450.871 192.386, 451.751 169.143, 465.398 151.575 C 474.514 139.840, 469.736 136.408, 451.873 141.861 C 441.001 145.180, 430.211 146.302, 421 145.071 C 413.402 144.056, 411.781 144.685, 401.869 152.500 C 391.353 160.792, 390 162.397, 390 166.579 C 390 171.378, 386.668 175.790, 379.203 180.873 C 370.532 186.778, 366.836 193.154, 361.621 211.199 C 359.768 217.610, 358.944 218.454, 355.408 217.566 C 349.350 216.046, 350.466 209.437, 358.399 199.855 C 361.286 196.367, 364.432 190.838, 366.630 185.386 C 371.818 172.519, 374.279 168.039, 379.794 161.421 C 382.508 158.164, 386.328 152.991, 388.283 149.925 C 397.868 134.892, 423.744 123.335, 452.712 121.150 C 465.792 120.163, 467 119.249, 467 110.345 C 467 105.697, 467.360 104, 468.345 104 C 472.210 104, 473.160 100.484, 470.534 95.895 C 467.970 91.412, 466.915 88.624, 465.072 81.452 C 464.500 79.225, 462.244 75.007, 460.059 72.079 C 457.355 68.455, 455.876 65.275, 455.430 62.127 C 454.948 58.728, 453.835 56.520, 451.240 53.807 C 448.207 50.638, 447.621 49.236, 447.103 43.910 C 446.147 34.073, 436.974 29.912, 427.216 34.890 C 422.063 37.519, 412.435 37.712, 405.073 35.335 C 399.199 33.438, 399.082 33.474, 387.078 40.976 C 383.546 43.183, 380.468 44.802, 380.240 44.573 C 379.124 43.457, 385.584 34.706, 388.395 33.526 C 405.768 26.234, 413.870 24.629, 418.751 27.512 C 425.003 31.205, 434.586 25.503, 435.914 17.298 C 436.508 13.633, 436.693 13.481, 441.203 12.961 C 443.773 12.664, 446.727 11.652, 447.767 10.711 C 452.067 6.820, 454.449 9.278, 452.706 15.808 C 450.566 23.823, 459.495 28.069, 479.500 28.549 C 496.761 28.964, 515.329 35.989, 523.924 45.358 L 526.349 48 523.858 48 C 519.340 48, 509.648 45.905, 499.683 42.774 L 489.866 39.690 487.848 41.708 C 486.076 43.479, 485.962 44.199, 486.910 47.613 C 487.503 49.751, 487.991 52.637, 487.994 54.026 C 487.997 55.416, 490.424 61.491, 493.387 67.526 C 517.269 116.172, 509.996 154.011, 471.019 183.891 C 468.627 185.724, 468.527 186.274, 468.236 199.146 C 467.618 226.421, 467.598 226.106, 470.390 232.739 C 471.826 236.150, 473 240.203, 473 241.747 C 473 248.926, 476.782 250.191, 489.999 247.434 C 496.286 246.122, 499.423 246.045, 509.411 246.957 C 524.148 248.301, 525.501 247.573, 526.199 237.923 C 526.554 233.021, 527.159 231.410, 529.648 228.739 C 531.598 226.647, 533.277 223.198, 534.390 219 C 535.337 215.425, 537.461 209.556, 539.108 205.959 C 541.764 200.158, 541.994 198.930, 541.137 195.114 C 538.569 183.684, 551.084 177.596, 557.211 187.295 C 561.881 194.688, 574.286 206, 576.956 205.301 C 579.216 204.710, 579.227 204.761, 578.554 212.103 C 577.276 226.054, 576.090 230.382, 570.503 241.500 C 567.463 247.550, 564.979 253.400, 564.984 254.500 C 564.996 257.222, 562.282 261.448, 556.314 268 C 549.813 275.137, 549.200 276.417, 547.940 285.478 C 546.590 295.182, 544.609 300.755, 541.269 304.241 L 538.617 307.010 540.815 309.755 C 548.167 318.935, 553.741 327.555, 557.139 335 C 559.273 339.675, 562.851 347.100, 565.089 351.500 C 569.339 359.856, 569.406 360.949, 565.978 366 C 565.045 367.375, 563.519 370.827, 562.587 373.670 C 561.580 376.741, 559.913 379.482, 558.481 380.420 C 554.573 382.981, 553.827 382.259, 555.994 378.011 C 558.569 372.965, 561.223 359.424, 560.393 355.571 C 559.969 353.601, 555.699 348.599, 547.361 340.303 C 531.576 324.598, 525.292 313.716, 522.551 297.339 C 521.387 290.384, 519.695 289.586, 507.753 290.359 C 502.114 290.724, 495.700 291.457, 493.500 291.987 C 481.593 294.860, 469.306 292.078, 457.268 283.784 L 452.037 280.180 443.795 284.220 C 434.104 288.970, 430.262 288.394, 430.743 282.263 C 431.080 277.955, 426.745 274.476, 419.260 273.045 C 410.853 271.439, 397.521 266.407, 389.500 261.813 C 382.799 257.974, 382.225 257.828, 376.046 258.383 C 362.490 259.601, 363.204 263.194, 379.182 274.165 C 389.104 280.977, 394.304 286.665, 402.849 300.055 C 411.461 313.549, 411.385 313.459, 418.950 319.102 C 425.896 324.284, 433.015 332.328, 439.342 342.145 C 444.630 350.351, 447.764 352.839, 454.340 354.055 C 468.291 356.634, 476.317 361.374, 486.477 373.037 C 492.223 379.632, 494.935 381.963, 497.891 382.849 C 500.490 383.628, 503.017 385.535, 505.560 388.638 C 508.001 391.618, 511.215 394.090, 514.584 395.579 C 521.904 398.817, 522.657 400.471, 516.392 399.552 C 510.963 398.756, 505.255 396.282, 500.087 392.487 C 498.210 391.108, 493.935 389.131, 490.587 388.094 C 473.089 382.674, 461.803 377.104, 456.718 371.378 C 454.298 368.654, 451.055 366.399, 447.718 365.121 C 444.848 364.022, 438.675 361.568, 434 359.668 C 425.967 356.403, 424.688 356.186, 410.734 355.710 C 392.404 355.086, 392.052 355.314, 395.158 365.836 C 396.240 369.501, 397.467 374.833, 397.886 377.685 C 398.782 383.786, 399.621 384.938, 406.960 390.132 C 410.007 392.289, 414.447 395.616, 416.828 397.527 C 420.287 400.303, 422.034 401, 425.533 401 C 428.529 401, 431.050 401.773, 433.519 403.448 C 435.503 404.795, 439.236 406.183, 441.813 406.532 C 450.183 407.668, 450.971 408.128, 447.204 409.683 C 445.392 410.431, 444.181 411.483, 444.513 412.022 C 445.508 413.631, 449.616 413.132, 452.131 411.095 L 454.483 409.191 452.491 406.962 C 450.502 404.737, 450.502 404.735, 452.500 405.320 C 453.600 405.642, 455.712 406.194, 457.193 406.547 C 459.157 407.015, 459.968 407.906, 460.193 409.844 C 460.590 413.280, 463.398 413.376, 463.795 409.967 C 464.284 405.776, 460.558 403.377, 448.991 400.436 C 442.348 398.747, 437.583 396.939, 436 395.507 C 431.955 391.846, 429.144 390.800, 425.161 391.473 C 421.974 392.011, 420.930 391.645, 417.486 388.775 C 415.294 386.948, 411.873 384.250, 409.885 382.778 C 406.835 380.522, 406.007 379.039, 404.591 373.302 C 403.668 369.561, 402.656 365.647, 402.343 364.604 C 401.860 363, 402.138 362.816, 404.136 363.409 C 405.436 363.795, 412.125 364.466, 419 364.900 C 433.083 365.789, 441.320 368.996, 453.060 378.160 C 460.499 383.968, 478.539 392.085, 492.383 395.855 C 494.518 396.436, 497.963 398.088, 500.038 399.526 C 502.112 400.964, 506.349 402.803, 509.452 403.614 C 512.556 404.424, 516.536 405.966, 518.298 407.040 C 522.460 409.578, 524.175 409.507, 526.826 406.686 C 531.320 401.902, 527.345 394.416, 518.039 390.137 C 513.945 388.254, 511.034 385.934, 507.863 382.026 C 505.022 378.524, 502.264 376.220, 500.206 375.630 C 498.013 375.001, 495.238 372.540, 491.489 367.900 C 482.094 356.272, 470.666 349.393, 456.702 346.962 L 450.160 345.823 446.451 339.480 C 441.903 331.703, 432.511 321.281, 423.147 313.621 C 418.506 309.823, 415.031 305.944, 412.920 302.204 C 406.116 290.147, 394.417 276.547, 384.640 269.327 C 377.139 263.788, 379.651 263.805, 390.770 269.368 C 395.571 271.770, 404.103 275.238, 409.729 277.073 L 419.958 280.411 419.362 284.137 C 418.616 288.803, 421.432 293.159, 427.044 296.023 C 432.262 298.685, 434.505 298.521, 439.912 295.084 C 448.966 289.331, 452.012 289.226, 460.656 294.370 C 472.583 301.468, 479.986 302.206, 502.788 298.572 C 514.543 296.699, 514.320 296.581, 517.368 306.320 C 522.728 323.447, 526.431 329.304, 539.803 341.795 C 546.453 348.007, 552.180 353.991, 552.529 355.092 C 553.606 358.484, 550.939 370.913, 547.892 376.705 C 544.541 383.075, 544.271 386.031, 546.829 388.345 C 552.581 393.550, 566.881 385.620, 569.992 375.500 C 570.669 373.300, 572.297 369.620, 573.611 367.322 C 577.168 361.100, 576.785 357.029, 572.137 351.658 C 569.245 348.316, 567.444 344.611, 564.974 336.920 C 562.555 329.385, 560.111 324.306, 555.806 317.872 C 551.129 310.879, 550.067 308.580, 550.577 306.549 C 551.425 303.172, 551.908 303.294, 556.547 308.064 C 558.721 310.300, 563.157 313.550, 566.405 315.286 C 569.995 317.206, 575.876 322.015, 581.405 327.550 C 591.420 337.577, 598.374 343.293, 599.360 342.307 C 601.051 340.616, 599.767 337.930, 596.646 336.625 C 594.801 335.855, 588.583 330.555, 582.828 324.848 C 576.222 318.298, 570.177 313.306, 566.432 311.307 C 563.169 309.567, 559.218 306.802, 557.652 305.164 L 554.804 302.186 557.517 290.520 C 560.184 279.051, 560.321 278.760, 565.667 273.285 C 571.757 267.047, 574.524 262.249, 576.578 254.363 C 577.346 251.414, 579.101 247.216, 580.478 245.034 C 585.585 236.945, 590.831 216.711, 591.070 204.184 C 591.171 198.921, 592.496 195.649, 593.155 199.036 C 594.529 206.094, 592.722 238.651, 590.747 242.428 C 590.193 243.488, 589.365 247.692, 588.908 251.769 C 587.897 260.784, 587.246 263, 585.607 263 C 584.199 263, 580 267.136, 580 268.522 C 580 269.014, 581.677 271.133, 583.726 273.232 L 587.452 277.048 585.625 282.274 C 584.620 285.148, 582.665 288.705, 581.280 290.179 L 578.762 292.857 580.948 295.926 C 582.149 297.614, 584.340 299.278, 585.816 299.623 C 587.292 299.968, 590.138 301.812, 592.139 303.720 C 594.299 305.779, 596.535 307.044, 597.639 306.831 C 600.182 306.341, 599.997 303.571, 597.397 303.200 C 596.241 303.035, 593.790 301.347, 591.951 299.450 C 590.112 297.552, 587.851 296, 586.926 296 C 583.339 296, 582.495 293.143, 585.216 290.214 C 591.560 283.385, 592.146 275.108, 586.546 271.438 C 583.796 269.636, 583.122 267, 585.411 267 C 588.378 267, 591.833 261.224, 592.434 255.260 C 592.753 252.092, 593.488 247.700, 594.067 245.500 C 598.252 229.609, 598.823 199.569, 595.017 195.519 L 592.641 192.989 590.320 195.169 C 586.660 198.608, 587.177 194.310, 591.003 189.496 C 600.414 177.654, 598.879 162.117, 586.978 148.765 C 580.349 141.327, 578.683 135.553, 578.533 119.500 C 578.373 102.299, 575.034 94.162, 560.946 76.648 C 557.341 72.167, 552.344 65.350, 549.840 61.500 C 535.159 38.921, 511.021 23.106, 487.304 20.526 C 478.308 19.548, 477.184 19.157, 476.432 16.748 C 474.419 10.291, 462.906 -1.306, 460.700 0.900 C 459.859 1.741, 460.874 3.172, 464.660 6.483 C 467.459 8.932, 470.685 12.927, 471.829 15.359 C 472.972 17.792, 475.051 20.682, 476.449 21.781 L 478.989 23.779 475.327 24.466 C 472.772 24.946, 469.268 24.461, 463.736 22.862 C 455.251 20.410, 454.782 19.665, 457.468 12.890 C 458.226 10.979, 453.566 5, 451.319 5 C 450.492 5, 448.671 5.900, 447.273 7 C 445.627 8.295, 443.216 9, 440.438 9 C 435.510 9, 432 12.291, 432 16.912 C 432 23.180, 424.627 26.983, 418.962 23.636 C 417.438 22.736, 414.911 21.964, 413.346 21.921 C 411.781 21.878, 411.175 21.595, 412 21.294 C 414.285 20.458, 418 16.808, 418 15.398 C 418 14.709, 419.539 11.192, 421.421 7.583 C 424.666 1.357, 424.695 -1.652, 421.485 1.012 C 419.833 2.383, 414 13.720, 414 15.559 C 414 16.288, 410.896 17.490, 406.476 18.473 C 398.103 20.336, 387.209 24.914, 382.245 28.655 C 379.344 30.843, 365.346 50.969, 362.706 56.750 C 360.102 62.453, 353.122 58.307, 340.602 43.620 C 318.944 18.212, 308.749 12.156, 290 13.559 C 280.858 14.243, 273.030 12.209, 268.480 7.966 C 259.685 -0.233, 245.760 -2.039, 238.090 4.023 M 241.629 5.477 C 239.622 6.839, 236.584 9.543, 234.878 11.486 C 231.046 15.851, 228.163 16.653, 224.015 14.508 C 222.254 13.597, 220.617 13.049, 220.377 13.290 C 219.962 13.704, 229.182 18, 230.486 18 C 230.824 18, 233.899 15.075, 237.319 11.500 C 243.169 5.385, 243.803 5.001, 248.019 5.010 C 252.555 5.020, 262.082 8.706, 263.500 11 C 264.426 12.499, 273.962 17.006, 276 16.909 C 276.825 16.869, 275.925 16.159, 274 15.331 C 272.075 14.502, 269.550 12.944, 268.389 11.868 C 265.561 9.248, 251.162 3.028, 247.890 3.012 C 246.454 3.005, 243.637 4.115, 241.629 5.477 M 157.215 13.500 C 161.064 16.116, 164.466 16.637, 167 15 C 168.129 14.270, 167.635 14.018, 165 13.980 C 163.075 13.952, 160.375 13.286, 159 12.500 C 154.743 10.066, 153.328 10.859, 157.215 13.500 M 108.488 15.931 C 97.871 19.713, 84.076 29.939, 80.858 36.414 C 80.288 37.561, 81.758 36.290, 84.125 33.590 C 90.369 26.467, 98.815 20.635, 107.445 17.488 C 111.600 15.972, 115 14.567, 115 14.366 C 115 13.758, 113.734 14.063, 108.488 15.931 M 350.499 17.135 C 345.940 21.138, 346.083 22.902, 351.500 29.553 C 354.832 33.643, 356 35.945, 356 38.416 C 356 46.695, 360.213 44.521, 363.935 34.322 C 366.724 26.680, 366.167 23.511, 361.206 18.803 C 355.901 13.768, 354.569 13.561, 350.499 17.135 M 352.690 19.154 C 349.932 20.697, 350.730 23.697, 355.436 29.474 L 359.871 34.920 361.014 31.456 C 363.424 24.154, 358.022 16.170, 352.690 19.154 M 123.899 24.757 C 122.468 25.715, 117.518 30.082, 112.899 34.460 C 108.279 38.838, 105.400 41.768, 106.500 40.972 C 107.600 40.175, 111.650 36.640, 115.500 33.115 C 119.350 29.591, 123.850 25.875, 125.500 24.857 C 127.150 23.840, 128.050 23.009, 127.500 23.010 C 126.950 23.012, 125.329 23.798, 123.899 24.757 M 133.826 25.314 C 135.022 26.587, 136 28.580, 136 29.743 C 136 33.726, 138.796 35.301, 144.431 34.494 C 147.219 34.094, 152.425 33.686, 156 33.587 C 166.430 33.297, 166.693 33.214, 172 28.500 C 176.643 24.377, 176.857 24, 174.559 24 C 172.790 24, 171.599 24.875, 170.515 26.970 C 168.294 31.265, 166.192 32, 156.131 32 C 151.180 32, 145.913 32.463, 144.425 33.028 C 141.144 34.276, 138 32.012, 138 28.402 C 138 27.143, 137 25.413, 135.777 24.557 C 132.469 22.239, 131.346 22.675, 133.826 25.314 M 230.706 27.581 L 226.911 31.108 223.706 29.141 C 220.868 27.399, 220.155 27.326, 217.500 28.505 L 214.500 29.838 217.095 29.919 C 223.807 30.129, 224.352 34.731, 218.580 42.449 C 204.885 60.759, 212.619 71.909, 240 73.332 C 245.225 73.603, 248.279 73.611, 246.786 73.350 C 244.018 72.865, 239 67.864, 239 65.590 C 239 64.900, 240.624 59.872, 242.608 54.417 C 247.172 41.875, 247.679 38.066, 245.533 32.446 C 242.201 23.723, 236.772 21.942, 230.706 27.581 M 395 26.076 C 392.369 27.574, 392.121 27.905, 394 27.410 C 397.475 26.494, 401.827 24.080, 400 24.082 C 399.175 24.083, 396.925 24.980, 395 26.076 M 327.148 33.893 C 337.988 46.267, 341.990 50.439, 336.870 44.027 C 334.467 41.016, 329.641 35.616, 326.148 32.027 C 319.955 25.665, 319.980 25.712, 327.148 33.893 M 496 26.384 C 496 26.615, 499.056 27.733, 502.792 28.868 C 518.352 33.594, 534.762 48.852, 527.346 51.697 C 524.627 52.741, 510.303 50.243, 500.124 46.951 C 494.967 45.283, 490.628 44.050, 490.483 44.209 C 489.307 45.498, 494.100 62.459, 496.524 65.587 C 497.339 66.639, 496.885 65.025, 495.513 62 C 491.394 52.914, 493.207 47.008, 499.711 48.327 C 520.043 52.453, 524.062 54.116, 525.909 59.173 C 530.157 70.801, 536.872 78.661, 551.039 88.588 C 561.536 95.944, 562.991 98.306, 562.997 108 C 563 113.070, 563.649 117.205, 565.001 120.761 C 567.553 127.477, 567.542 134.575, 564.968 141.239 C 563.850 144.133, 562.290 150.710, 561.502 155.855 C 559.993 165.694, 557.448 171.396, 552.508 176 L 549.826 178.500 552.651 179.008 C 554.597 179.357, 556.569 181.056, 558.988 184.466 C 566.516 195.076, 573.476 201.444, 577.266 201.189 C 581.035 200.935, 582.562 202.158, 583.268 206 C 583.521 207.375, 583.789 205.074, 583.864 200.888 C 583.986 194.037, 584.301 192.897, 587.003 189.496 C 596.414 177.654, 594.879 162.117, 582.978 148.765 C 576.349 141.327, 574.683 135.553, 574.533 119.500 C 574.373 102.299, 571.034 94.162, 556.946 76.648 C 553.341 72.167, 548.340 65.350, 545.832 61.500 C 540.622 53.501, 525.675 38.581, 518.989 34.705 C 512.614 31.009, 496 24.995, 496 26.384 M 125.500 28.859 C 123.850 29.893, 119.011 33.940, 114.747 37.854 C 110.483 41.767, 104.746 46.109, 101.997 47.501 C 96.188 50.445, 96.100 50.899, 98.879 63.500 C 100.253 69.728, 101.062 71.580, 102.528 71.863 C 106.346 72.599, 114.848 69.815, 121.580 65.626 C 139.107 54.719, 155.927 59.304, 157.751 75.485 C 158.732 84.185, 146.737 100.945, 136.250 105.528 C 131.054 107.798, 131.050 107.426, 136.344 114.245 C 142.517 122.195, 146.046 127.889, 154.856 144.113 L 162.605 158.386 169.455 161.193 C 177.699 164.572, 177.204 164.543, 175.849 161.568 C 175.239 160.230, 173.336 158.614, 171.620 157.976 C 169.904 157.339, 167.461 156.406, 166.191 155.904 C 164.850 155.372, 163.037 153.078, 161.863 150.424 C 160.753 147.913, 158.754 144.253, 157.422 142.290 C 152.662 135.276, 156.281 128.806, 163.718 131.034 C 167.374 132.129, 168.047 131.991, 173.189 129.088 C 178.149 126.289, 178.861 126.128, 180.031 127.538 C 181.180 128.922, 182.158 128.298, 188.150 122.351 L 194.963 115.590 192.913 113.407 C 189.577 109.857, 191.675 104.583, 200.229 95.017 C 208.167 86.140, 209.981 85.102, 213.514 87.417 C 216.719 89.517, 217 89.439, 217 86.450 C 217 82.353, 219.840 77.952, 223.252 76.762 L 226.376 75.673 221.809 74.342 C 207.839 70.268, 204.567 55.835, 214.580 42.449 C 220.620 34.373, 220.644 34.407, 208.750 34.365 C 200.574 34.335, 196.881 33.810, 190.500 31.768 C 177.008 27.452, 177.715 27.424, 172.009 32.492 C 166.692 37.214, 166.431 37.297, 156 37.587 C 152.425 37.686, 147.230 38.093, 144.455 38.491 C 138.489 39.347, 133.641 36.254, 132.194 30.669 C 131.201 26.838, 129.472 26.370, 125.500 28.859 M 205.250 30.716 C 206.762 30.945, 209.238 30.945, 210.750 30.716 C 212.262 30.487, 211.025 30.300, 208 30.300 C 204.975 30.300, 203.738 30.487, 205.250 30.716 M 383.390 31.772 C 382.230 32.723, 377.869 38.900, 373.699 45.500 C 364.292 60.389, 362.286 62.990, 360.174 63.039 C 359.253 63.061, 359.905 63.690, 361.622 64.437 C 364.487 65.684, 368 69.402, 368 71.188 C 368 71.596, 366.603 73.521, 364.896 75.465 L 361.793 79 364.473 79 C 369.875 79, 376 68.781, 376 59.769 C 376 52.815, 390.397 41.412, 401 39.968 C 405.297 39.383, 405.371 39.318, 402.644 38.543 C 399.464 37.638, 397.562 38.425, 387.021 45.010 C 374.610 52.763, 372.053 45.838, 382.866 33.760 C 386.524 29.674, 386.682 29.077, 383.390 31.772 M 304 36.719 C 305.375 36.965, 308.022 38.591, 309.883 40.333 C 313.222 43.459, 313.243 43.464, 311.492 40.709 C 309.378 37.386, 306.969 35.951, 303.816 36.136 C 301.589 36.267, 301.597 36.290, 304 36.719 M 427 39.095 L 423.500 41.107 427 40.476 C 436.839 38.703, 437.426 38.735, 439.650 41.158 C 440.833 42.446, 442.018 44.400, 442.284 45.500 C 442.550 46.600, 442.820 45.576, 442.884 43.225 C 443.057 36.835, 434.709 34.665, 427 39.095 M 289.750 39.689 C 287.854 40.185, 287.304 44.452, 289 45.500 C 289.550 45.840, 290 45.217, 290 44.116 C 290 43.014, 291 41.413, 292.223 40.557 C 294.415 39.021, 293.516 38.705, 289.750 39.689 M 297.250 42.247 C 292.537 43.759, 293.099 46.307, 299.501 52.458 C 304.389 57.155, 304.934 58.079, 304.398 60.762 C 304.066 62.422, 304.475 66.192, 305.307 69.140 C 308.034 78.800, 309.243 88.907, 308.500 95.845 C 307.794 102.446, 307.804 102.485, 309.780 100.698 C 312.726 98.033, 316.466 102.764, 315.543 107.989 C 313.983 116.827, 313.885 118.917, 314.941 120.889 C 315.562 122.050, 316.876 123, 317.861 123 C 323.347 123, 327.723 139.334, 323.490 144.011 C 320.917 146.854, 319.226 146.498, 315.385 142.305 C 311.257 137.798, 310.772 139.810, 314.007 148.017 C 315.375 151.488, 315.722 153.650, 315.099 154.814 C 314.012 156.846, 314.755 161.572, 316.361 162.836 C 318.813 164.767, 335.595 165.193, 337.107 163.363 C 337.873 162.435, 339.813 160.875, 341.418 159.897 L 344.336 158.117 349.324 162.602 C 356.507 169.060, 358.721 167.839, 356.441 158.676 C 355.533 155.025, 361.559 148.465, 367.224 146.940 C 371.275 145.849, 371.830 144.934, 369.578 143.065 C 368.796 142.416, 367.848 139.998, 367.470 137.692 C 367.093 135.387, 366.225 131.274, 365.542 128.554 C 364.754 125.416, 364.601 122.308, 365.126 120.054 C 365.580 118.099, 365.963 114.203, 365.976 111.395 C 365.994 107.541, 366.832 104.726, 369.393 99.914 C 373.961 91.329, 375.100 90.736, 379.267 94.774 C 381.261 96.707, 383.625 98, 385.163 98 C 386.575 98, 388.956 98.964, 390.454 100.143 C 393.533 102.565, 393.507 102.961, 389.581 113.295 C 388.162 117.033, 387 120.921, 387 121.936 C 387 122.951, 386.134 125.716, 385.076 128.079 C 383.195 132.280, 383.194 132.431, 385.020 134.752 C 386.048 136.059, 386.620 137.827, 386.291 138.683 C 385.963 139.538, 388.512 137.968, 391.954 135.194 C 395.397 132.420, 402.896 127.806, 408.618 124.941 C 417.140 120.674, 418.813 119.479, 417.864 118.337 C 416.446 116.627, 420.297 112, 423.140 112 C 424.125 112, 426.468 110.650, 428.347 109 C 432.539 105.320, 434.448 105.228, 436.656 108.598 C 438.081 110.772, 438.150 111.530, 437.080 113.243 C 435.865 115.190, 435.966 115.255, 439.151 114.583 C 440.993 114.194, 444.975 113.651, 448 113.375 C 458.628 112.408, 457.994 113.006, 457.898 104.039 C 457.851 99.679, 458.107 95.636, 458.467 95.054 C 459.485 93.407, 455.273 79.369, 452.506 75.188 C 451.140 73.124, 448.919 68.622, 447.572 65.185 C 446.225 61.747, 443.988 57.586, 442.600 55.937 C 440.271 53.169, 438.019 47.386, 438.006 44.141 C 438 42.695, 437.302 42.738, 425 44.955 C 419.971 45.861, 416.214 45.847, 408.400 44.893 L 398.300 43.660 390.090 48.508 C 381.358 53.664, 380 55.178, 380 59.753 C 380 71.407, 371.079 83, 362.111 83 C 353.115 83, 343.209 76.332, 337.349 66.332 C 335.023 62.363, 328.267 57.207, 314.768 49.100 C 312.715 47.868, 310.097 45.541, 308.950 43.929 C 306.673 40.733, 303.426 40.266, 297.250 42.247 M 415.264 41.718 C 416.784 41.947, 419.034 41.941, 420.264 41.704 C 421.494 41.467, 420.250 41.279, 417.500 41.286 C 414.750 41.294, 413.744 41.488, 415.264 41.718 M 94.750 46.572 C 92.576 47.752, 92.024 48.737, 92.116 51.282 C 92.192 53.386, 92.399 53.807, 92.713 52.500 C 92.978 51.400, 94.360 49.263, 95.784 47.750 C 98.727 44.625, 98.602 44.482, 94.750 46.572 M 443.069 49 C 443.037 49.825, 443.796 51.667, 444.755 53.093 C 445.715 54.518, 447.511 57.218, 448.746 59.093 C 450.938 62.417, 450.993 62.438, 450.996 59.937 C 450.999 58.365, 449.801 56.239, 447.896 54.437 C 446.189 52.822, 444.417 50.600, 443.959 49.500 C 443.415 48.192, 443.107 48.019, 443.069 49 M 497 54.118 C 497 55.407, 499.459 61.646, 502.465 67.981 C 517.558 99.797, 519.026 131.104, 506.533 154.750 C 504.249 159.073, 503.651 161, 504.592 161 C 506.858 161, 508.893 165.209, 509.926 172.034 C 511.711 183.819, 512.082 184.500, 516.719 184.500 C 521.272 184.500, 525 187.097, 525 190.269 C 525 191.346, 526.007 194.020, 527.238 196.210 L 529.477 200.193 526.627 202.645 C 523.978 204.923, 523.891 205.222, 525.388 206.877 C 527.359 209.054, 527.468 212.879, 525.635 215.527 C 524.884 216.612, 523.953 218.625, 523.567 220 C 522.222 224.790, 527.931 213.934, 530.564 206.695 C 532.581 201.149, 533.053 198.385, 532.624 194.637 C 531.656 186.176, 537.333 178.157, 546.115 175.583 C 552.445 173.728, 555.596 168.289, 557.487 155.952 C 558.284 150.753, 559.850 144.133, 560.968 141.239 C 563.542 134.575, 563.553 127.477, 561.001 120.761 C 559.673 117.269, 559.001 113.078, 559.001 108.297 C 559 99.392, 558.018 97.154, 552.612 93.734 C 539.554 85.473, 525.151 69.989, 522.962 61.858 C 521.754 57.372, 521.967 57.494, 510.774 54.849 C 496.350 51.439, 497 51.474, 497 54.118 M 530.733 53.750 C 525.807 59.216, 528.158 65.460, 539.255 76.383 C 549.089 86.064, 558.204 91.906, 560.500 90 C 562.749 88.134, 562.395 87.046, 557.411 80.500 C 554.898 77.200, 550.689 71.350, 548.058 67.500 C 543.494 60.825, 535.022 52, 533.177 52 C 532.700 52, 531.600 52.788, 530.733 53.750 M 335.946 59.367 C 337.842 61.365, 339.545 63, 339.731 63 C 340.864 63, 337.622 58.991, 335.291 57.508 C 332.732 55.882, 332.787 56.036, 335.946 59.367 M 532.470 58.264 C 530.807 64.891, 540.929 76.653, 555.876 85.463 C 558.008 86.720, 554.608 81.694, 540.500 62.737 C 535.966 56.644, 533.255 55.134, 532.470 58.264 M 131.500 64.179 C 129.850 64.802, 125.676 67.089, 122.225 69.261 C 110.989 76.333, 101.655 77.919, 98.073 73.365 C 95.911 70.618, 95.242 71.715, 97.035 75.066 C 97.737 76.376, 99.131 77, 101.361 77 C 104.847 77, 109.754 80.971, 108.592 82.851 C 105.416 87.991, 116.932 92.814, 127.117 90.610 C 133.434 89.243, 139.920 96.152, 136.250 100.339 C 134.704 102.102, 135.013 102.053, 138.896 99.917 C 153.081 92.116, 158.633 70.999, 147.951 65.475 C 144.152 63.510, 135.148 62.801, 131.500 64.179 M 340.487 65 C 342.456 68.655, 346.251 73.038, 349.248 75.116 C 351.599 76.747, 350.853 75.590, 346.551 70.936 C 343.279 67.396, 340.395 64.275, 340.141 64 C 339.887 63.725, 340.043 64.175, 340.487 65 M 454.042 71.129 C 454.725 72.433, 456.103 74.671, 457.104 76.101 C 459.324 79.274, 463.374 93.586, 462.466 95.054 C 462.107 95.636, 461.853 99.844, 461.902 104.405 C 461.994 112.918, 461.247 114.729, 457 116.291 C 455.988 116.663, 456.206 116.868, 457.668 116.921 C 462.338 117.091, 463 116.150, 463 109.347 C 463 103.334, 463.187 102.800, 465.816 101.291 L 468.632 99.675 465.896 94.587 C 464.391 91.789, 462.481 86.870, 461.650 83.655 C 460.820 80.440, 458.909 76.033, 457.404 73.861 C 454.240 69.296, 452.224 67.658, 454.042 71.129 M 257.750 76.434 C 260.572 78.540, 260.574 79.714, 257.759 82.936 C 256.527 84.346, 257.202 83.949, 259.259 82.054 C 263.365 78.271, 264.049 76, 261.082 76 C 260.027 76, 258.339 75.720, 257.332 75.377 C 255.965 74.912, 256.071 75.180, 257.750 76.434 M 246.264 80.750 C 246.251 82.263, 245.718 85.484, 245.079 87.909 C 243.420 94.211, 245.163 94.953, 248.260 89.263 C 249.694 86.629, 252.044 83.368, 253.482 82.017 C 256.458 79.221, 255.407 78.206, 249.394 78.070 C 246.660 78.008, 246.284 78.330, 246.264 80.750 M 222.467 81.675 C 221.660 82.483, 221 84.258, 221 85.621 C 221 86.984, 220.310 89.433, 219.468 91.063 C 217.428 95.008, 221.768 101.403, 226 100.687 C 239.548 98.393, 241.997 97.565, 241.267 95.523 C 240.282 92.767, 240.716 86.399, 242.060 83.888 C 243.656 80.905, 242.889 80.612, 232.930 80.400 C 226.158 80.256, 223.572 80.571, 222.467 81.675 M 69 86.975 C 68.175 88.021, 65.475 91.266, 63 94.187 L 58.500 99.498 64.727 93.999 C 68.151 90.974, 70.964 87.713, 70.977 86.750 C 71.005 84.590, 70.870 84.606, 69 86.975 M 207.240 92.197 C 206.283 93.405, 203.623 96.279, 201.328 98.583 C 197.909 102.017, 194.179 109.512, 195.320 110.653 C 195.466 110.800, 198.604 109.517, 202.293 107.803 C 208.528 104.906, 209 104.461, 209 101.478 C 209 99.714, 209.943 97.071, 211.096 95.605 C 213.334 92.760, 213.052 90, 210.522 90 C 209.674 90, 208.197 90.989, 207.240 92.197 M 214.160 97.240 C 212.779 98.621, 212.594 105, 213.935 105 C 218.201 105, 220.058 103.013, 218.539 100.076 C 216.641 96.406, 215.642 95.758, 214.160 97.240 M 372.664 101.264 C 370.859 104.832, 369.992 108.136, 369.976 111.514 C 369.963 114.256, 369.580 118.099, 369.126 120.054 C 368.604 122.297, 368.752 125.431, 369.528 128.554 C 370.203 131.274, 371.048 135.142, 371.405 137.150 C 371.761 139.157, 372.716 141.349, 373.526 142.022 C 376.411 144.416, 371.667 151, 367.058 151 C 361.821 151, 359.118 155.919, 361.197 161.669 C 362.307 164.739, 362.185 165.198, 359.510 167.990 C 355.751 171.913, 355.133 171.824, 349.229 166.516 L 344.241 162.032 339.871 165.517 L 335.500 169.002 326.500 168.378 C 314.591 167.553, 307.584 161.382, 311.099 154.814 C 311.722 153.650, 311.375 151.488, 310.007 148.017 C 307.525 141.721, 307.463 137.885, 309.794 135.006 L 311.588 132.791 315.361 137.395 C 319.828 142.847, 321.004 143.130, 320.989 138.750 C 320.966 132.010, 319.770 127.863, 317.606 127.027 C 315.367 126.161, 311.894 122.671, 310.325 119.710 C 309.020 117.249, 302.674 132.896, 301.082 142.500 C 299.630 151.263, 297.524 157.896, 293.880 165.184 C 290.819 171.306, 289.189 177.357, 288.559 184.938 C 288.340 187.566, 287.450 192.112, 286.581 195.040 C 285.711 197.968, 285 200.644, 285 200.986 C 285 201.329, 288.488 202.173, 292.750 202.861 C 309.547 205.572, 319.005 210.926, 328.036 222.837 C 331.384 227.253, 331.888 227.534, 337.536 228.141 C 344.900 228.933, 355.036 229.036, 353 228.298 C 343.937 225.012, 339.527 212.836, 344.704 205.390 C 354.034 191.970, 358.363 184.500, 362.100 175.369 C 365.587 166.852, 367.516 163.712, 373.108 157.450 C 378.912 150.950, 380.056 149.040, 381.055 144.179 C 381.697 141.055, 382.391 138.215, 382.597 137.868 C 382.804 137.520, 382.113 136.142, 381.062 134.806 C 379.219 132.463, 379.214 132.239, 380.909 128.439 C 381.876 126.272, 382.929 122.871, 383.249 120.881 C 383.570 118.890, 385.024 114.282, 386.481 110.640 C 389.448 103.222, 389.217 102, 384.842 102 C 382.754 102, 380.925 101.061, 379 99 C 375.449 95.199, 375.795 95.075, 372.664 101.264 M 127.814 104.188 C 123.202 105.415, 123.462 106.265, 131.201 115.290 C 134.404 119.024, 138.204 123.862, 139.645 126.040 C 141.086 128.218, 142.483 130, 142.748 130 C 143.549 130, 140.829 125.981, 129.106 109.852 C 127.874 108.156, 127.981 107.649, 130.031 105.467 C 131.306 104.110, 132.158 103.047, 131.924 103.103 C 131.691 103.160, 129.841 103.648, 127.814 104.188 M 310.750 105.332 C 309.514 108.349, 309.807 112.935, 311.094 110.724 C 311.663 109.748, 311.987 107.723, 311.814 106.224 C 311.552 103.949, 311.376 103.802, 310.750 105.332 M 15.174 111.314 C 13.978 112.587, 13 114.512, 13 115.592 C 13 116.672, 12.311 118.539, 11.468 119.742 C 10.626 120.945, 9.267 123.827, 8.449 126.146 C 7.630 128.465, 5.784 131.906, 4.345 133.792 C -3.526 144.112, 5.727 162.601, 14.083 153.250 C 18.184 148.660, 20.879 144.352, 21.526 141.350 C 21.863 139.783, 23.323 134.795, 24.770 130.267 L 27.401 122.034 25.201 119.057 C 23.990 117.420, 23 115.673, 23 115.175 C 23 113.970, 19.058 109, 18.102 109 C 17.688 109, 16.370 110.042, 15.174 111.314 M 429.872 111.687 C 428.664 113.172, 428.719 113.292, 430.332 112.687 C 431.339 112.309, 432.577 112, 433.082 112 C 433.587 112, 434 111.550, 434 111 C 434 109.405, 431.373 109.843, 429.872 111.687 M 17 115.218 C 17 116.504, 16.311 118.539, 15.468 119.742 C 14.626 120.945, 13.267 123.827, 12.449 126.146 C 11.630 128.465, 9.784 131.906, 8.345 133.792 C 3.660 139.934, 4.656 152, 9.848 152 C 11.873 152, 16.713 145.205, 17.575 141.152 C 17.886 139.693, 19.323 134.795, 20.770 130.267 L 23.401 122.034 21.201 119.057 C 19.990 117.420, 19 115.639, 19 115.100 C 19 114.560, 18.550 113.840, 18 113.500 C 17.442 113.155, 17 113.915, 17 115.218 M 265.885 121 C 261.979 125.106, 258.754 126.009, 255.057 124.030 C 252.080 122.437, 240.195 126.932, 232.915 132.405 C 225.504 137.976, 223.017 139.334, 214.114 142.672 C 199.836 148.026, 199.873 152.596, 214.259 160.812 C 222.781 165.679, 227.701 171.634, 234.419 185.210 C 241.539 199.600, 245.299 203, 250.397 199.659 C 252.693 198.155, 253.012 197.309, 252.864 193.129 C 252.649 187.032, 255.196 182.539, 259.948 180.636 C 266.745 177.915, 267.542 176.121, 266.047 166.913 C 264.293 156.110, 264.553 150.160, 267.056 143.812 C 274.652 124.548, 275.862 120.186, 274.064 118.558 C 271.462 116.203, 270.046 116.626, 265.885 121 M 266.440 124.934 C 264.006 127.565, 261.765 129.030, 260.089 129.086 L 257.500 129.172 260.357 130.028 C 261.929 130.499, 264.057 131.647, 265.087 132.578 C 266.600 133.948, 267.037 134.007, 267.369 132.886 C 267.595 132.124, 268.552 129.335, 269.496 126.689 C 271.741 120.394, 271.023 119.981, 266.440 124.934 M 250.500 128 C 248.929 128.675, 249.357 128.871, 252.500 128.914 C 255.434 128.955, 256.100 128.711, 255 128 C 253.250 126.869, 253.131 126.869, 250.500 128 M 172.098 133.669 C 168.222 135.981, 167.384 136.132, 164.021 135.124 C 161.957 134.506, 159.983 134, 159.634 134 C 158.094 134, 159.219 139.044, 161.513 142.425 C 162.896 144.462, 164.645 147.608, 165.401 149.417 C 166.377 151.754, 167.610 152.872, 169.664 153.283 C 173.656 154.081, 177.694 157.480, 179.985 161.971 C 181.047 164.051, 182.632 166.029, 183.509 166.365 C 185.309 167.056, 185.152 166.704, 180.774 160.239 C 174.996 151.706, 173.171 141.942, 175.975 134.566 C 177.427 130.746, 177.120 130.675, 172.098 133.669 M 240.500 136.685 C 238.850 137.568, 236.336 139.259, 234.913 140.443 C 233.491 141.627, 228.428 144.333, 223.663 146.456 C 218.899 148.579, 215 150.631, 215 151.015 C 215 151.400, 218.373 154.483, 222.495 157.866 C 226.836 161.429, 232.826 167.803, 236.725 173.009 C 244.635 183.569, 243.195 183.082, 250 177.500 C 253.017 175.025, 255.891 173, 256.385 173 C 256.912 173, 256.935 170.410, 256.442 166.750 C 255.065 156.543, 255.646 149.780, 258.479 143.050 C 259.900 139.673, 260.797 136.481, 260.472 135.955 C 259.460 134.317, 243.860 134.888, 240.500 136.685 M 112.861 138.014 L 110.500 140.029 113.697 138.277 C 116.885 136.529, 116.903 136.533, 120.181 139.512 C 122.850 141.938, 123.095 142.030, 121.484 140 C 117.771 135.322, 116.389 135.004, 112.861 138.014 M 393.500 137.821 C 392.400 138.786, 390.611 140.684, 389.525 142.038 C 388.439 143.392, 389.452 142.721, 391.775 140.547 C 395.580 136.987, 396.509 135.932, 395.750 136.033 C 395.613 136.052, 394.600 136.856, 393.500 137.821 M 109.987 144.650 C 106.969 146.657, 102.238 150.413, 99.474 152.995 C 96.709 155.577, 93.522 158.185, 92.392 158.790 C 87.488 161.415, 82.575 175.123, 84.624 180.463 C 85.171 181.888, 85.426 181.836, 86.681 180.045 C 88.784 177.042, 90.679 177.531, 93.351 181.765 C 94.659 183.835, 96.534 186.198, 97.519 187.015 C 98.504 187.832, 99.941 190.011, 100.713 191.858 C 103.275 197.985, 103.186 194.313, 100.573 186.042 C 97.434 176.106, 97.431 176.829, 100.630 173.028 C 103.021 170.186, 114.566 164, 117.479 164 C 118.140 164, 121.445 162.619, 124.823 160.930 C 128.385 159.151, 131.491 158.185, 132.215 158.633 C 133.793 159.608, 131.116 156.220, 123.572 147.697 C 116.638 139.863, 117.046 139.954, 109.987 144.650 M 462.703 145.392 C 463.910 146.997, 464.741 147.408, 465.235 146.642 C 466.664 144.421, 465.969 143, 463.453 143 C 460.933 143, 460.926 143.025, 462.703 145.392 M 101.430 146.113 C 101.052 146.726, 98.785 148.092, 96.394 149.150 C 93.495 150.432, 90.970 152.637, 88.817 155.766 L 85.589 160.458 89.938 156.979 C 96.072 152.072, 103.630 145.051, 102.809 145.023 C 102.429 145.010, 101.808 145.501, 101.430 146.113 M 208.250 148.662 C 206.345 149.431, 206.753 151.479, 209.233 153.595 C 211.036 155.134, 211.206 155.165, 210.115 153.755 C 209.372 152.796, 209 151.108, 209.288 150.005 C 209.577 148.902, 209.742 148.036, 209.656 148.079 C 209.570 148.122, 208.938 148.385, 208.250 148.662 M 447 151.178 C 442.455 152.543, 437.063 153.185, 429.073 153.315 L 417.646 153.500 416.332 156.721 C 414.899 160.233, 412.058 162.481, 407.698 163.554 C 406.070 163.954, 403.362 166.182, 401.232 168.871 C 399.217 171.417, 393.434 177.571, 388.382 182.547 C 382.944 187.904, 378.525 193.207, 377.552 195.547 C 376.647 197.721, 374.843 201.075, 373.541 203 C 372.240 204.925, 370.634 209.200, 369.973 212.500 C 368.485 219.934, 366.925 223.044, 363.051 226.304 L 360.029 228.846 367.265 230.534 C 381.092 233.760, 387.835 233.740, 390.445 230.466 C 392.395 228.020, 393.533 227.593, 399.095 227.217 C 403.868 226.894, 407.659 225.768, 413.970 222.797 C 424.447 217.865, 427.883 218.032, 432.735 223.713 C 437.583 229.388, 436.749 233.953, 430.379 236.615 C 428.476 237.410, 427.193 238.503, 427.528 239.045 C 428.695 240.933, 436.338 244.200, 439.588 244.200 C 442.100 244.200, 443.687 245.090, 446.395 248.016 C 449.961 251.870, 452.437 252.325, 455.750 249.733 C 458.930 247.245, 456.886 231.656, 452.809 227.303 C 449.817 224.109, 448.341 215.202, 446.378 188.500 C 445.481 176.294, 449.499 161.260, 456.199 151.750 L 458.136 149 455.818 149.113 C 454.543 149.176, 450.575 150.105, 447 151.178 M 408.495 151.009 C 408.152 151.564, 404.750 154.508, 400.936 157.551 C 394.883 162.381, 394.008 163.494, 394.063 166.293 C 394.126 169.437, 394.146 169.451, 395.110 167 C 395.651 165.625, 399.324 161.238, 403.272 157.250 C 407.220 153.262, 410.150 150, 409.784 150 C 409.418 150, 408.837 150.454, 408.495 151.009 M 408 157.131 C 404.046 160.672, 403.343 161.629, 405.500 160.534 C 407.150 159.697, 409.051 159.010, 409.724 159.006 C 410.865 159, 414.538 153.181, 413.824 152.510 C 413.646 152.343, 411.025 154.422, 408 157.131 M 157 156.369 C 157 157.812, 160.181 161.856, 161.808 162.480 C 162.833 162.873, 162.318 161.827, 160.498 159.819 C 158.849 157.999, 157.387 156.320, 157.250 156.088 C 157.113 155.856, 157 155.982, 157 156.369 M 142.958 163.250 C 147.102 167.665, 148 168.459, 148 167.708 C 148 167.548, 145.863 165.410, 143.250 162.958 L 138.500 158.500 142.958 163.250 M 126.500 164.087 C 124.850 165.155, 121.475 166.655, 119 167.421 C 111.211 169.830, 103.296 173.787, 102.591 175.623 C 102.217 176.597, 103.119 181.320, 104.601 186.151 C 107.121 194.367, 107.188 195.064, 105.677 197.371 C 102.930 201.562, 99.257 199.594, 97.053 192.750 C 96.388 190.688, 95.446 189, 94.958 189 C 94.471 189, 92.931 187.321, 91.536 185.268 C 89.055 181.616, 89 181.593, 89 184.203 C 89 188.677, 90.648 191.591, 96.025 196.620 C 102.633 202.801, 104 205.570, 104 212.769 C 104 220.682, 101.729 227.801, 97.515 233.103 C 93.274 238.438, 93.229 239.332, 96.865 246.243 C 98.441 249.239, 99.923 252.269, 100.159 252.977 C 100.626 254.378, 105.815 252.236, 109.250 249.224 C 111.587 247.176, 111.467 242.409, 109 239.273 C 107.900 237.874, 107 235.423, 107 233.825 C 107 232.228, 107.900 229.156, 109 227 C 110.100 224.844, 111 222.262, 111 221.262 C 111 220.263, 111.725 218.410, 112.612 217.144 C 114.138 214.964, 114.085 214.699, 111.612 212.117 C 108.005 208.352, 108.218 204.812, 112.250 201.540 C 119.252 195.857, 119.730 195.162, 120.233 189.930 C 120.595 186.158, 121.414 184.131, 123.364 182.182 L 126.003 179.542 129.166 182.705 C 132.929 186.468, 133.252 191.433, 130.028 195.960 C 128.913 197.527, 128 199.492, 128 200.328 C 128 202.258, 123.452 207.710, 121.206 208.472 C 116.869 209.942, 115.783 213.592, 118.494 217.586 C 119.872 219.617, 121 222.554, 121 224.113 C 121 225.671, 121.875 228.871, 122.944 231.223 C 124.013 233.575, 125.147 236.738, 125.463 238.250 C 126.525 243.326, 130.781 238.909, 130.759 232.753 C 130.747 229.263, 132.338 227.370, 137.433 224.810 C 139.670 223.687, 142.277 222.084, 143.227 221.249 C 146.911 218.012, 156 222.016, 156 226.876 C 156 227.785, 155.072 230.262, 153.937 232.379 C 152.069 235.865, 151.992 236.689, 153.123 241.102 C 154.549 246.668, 152.012 251, 147.326 251 C 145.649 251, 145 251.571, 145 253.045 C 145 254.170, 143.875 256.216, 142.500 257.591 C 137.317 262.774, 139.437 272.242, 145.002 268.766 C 148.868 266.352, 151.795 270.910, 149.561 275.865 C 146.414 282.843, 147.167 282.948, 163.873 277.857 C 171.839 275.429, 174.959 275, 184.658 275 C 195.631 275, 196.031 274.926, 195.035 273.066 C 192.801 268.891, 198.378 263, 204.564 263 L 208.922 263 208.711 258.122 C 208.529 253.909, 209.030 252.474, 212.392 247.593 C 216.253 241.986, 216.280 241.882, 215.723 234.525 C 215.125 226.619, 215.869 224.843, 219.534 225.426 C 223.433 226.046, 227.453 215.949, 225.418 210.647 C 224.948 209.423, 223.548 209.233, 218.168 209.664 C 210.981 210.239, 200.131 206.558, 191.275 200.541 C 186.481 197.283, 186.613 197.250, 184.550 202.250 C 181.374 209.947, 181.980 209.332, 174 212.961 C 172.625 213.586, 170.375 214.719, 169 215.478 C 167.625 216.236, 164.311 217.002, 161.636 217.179 C 154.969 217.619, 153.687 215.681, 156.882 209.996 C 159.782 204.835, 159.137 201.868, 154.521 199.145 C 152.601 198.012, 149.434 194.591, 147.484 191.542 C 145.534 188.494, 143.513 186, 142.992 186 C 140.275 186, 138.859 181.272, 140.442 177.485 C 142.385 172.834, 140.810 168.934, 135.300 164.750 C 131.079 161.545, 130.497 161.501, 126.500 164.087 M 80.705 166.786 C 76.979 170.675, 76.516 174.449, 78.963 181 L 81.017 186.500 80.397 179.429 C 79.869 173.406, 80.093 171.738, 81.909 168.179 C 84.422 163.253, 84.264 163.071, 80.705 166.786 M 487.026 173.870 C 478.755 182.293, 479.151 182.619, 487.831 174.534 C 491.434 171.179, 496.932 164.699, 495.818 165.120 C 495.643 165.187, 491.687 169.124, 487.026 173.870 M 503 165.927 C 503 167.742, 486.443 184.291, 483.286 185.632 C 479.100 187.409, 477.639 190.295, 478.341 195.394 C 478.652 197.652, 478.425 203.787, 477.837 209.027 L 476.768 218.554 480.465 227.527 C 485.032 238.614, 484.143 237.956, 492.500 236.434 C 496.350 235.732, 502.013 235.122, 505.084 235.079 L 510.668 235 514.314 229.705 C 516.320 226.793, 518.490 222.855, 519.137 220.955 C 519.784 219.055, 520.917 216.612, 521.656 215.527 C 523.488 212.839, 523.345 209.039, 521.329 206.812 C 519.756 205.073, 519.816 204.802, 522.345 202.162 L 525.030 199.359 523.059 195.429 C 521.974 193.268, 520.854 190.705, 520.569 189.734 C 520.147 188.298, 519.342 188.082, 516.262 188.574 C 510.326 189.523, 507.340 184.308, 505.483 169.750 C 504.983 165.826, 503 162.773, 503 165.927 M 144.512 170.724 C 145.852 173.409, 145.844 174.130, 144.435 177.500 L 142.860 181.272 146.292 184.886 C 148.180 186.874, 150.559 189.963, 151.579 191.751 C 152.598 193.539, 154.208 195.249, 155.155 195.549 C 157.565 196.314, 163.001 202.717, 162.996 204.785 C 162.994 205.728, 162.070 208.013, 160.942 209.863 C 159.815 211.712, 159.029 213.363, 159.197 213.530 C 159.977 214.311, 169.541 211.821, 171.066 210.440 C 172.012 209.584, 174.004 208.559, 175.494 208.160 C 177.533 207.615, 178.738 206.167, 180.374 202.297 C 181.569 199.471, 183.353 196.267, 184.339 195.178 C 186.094 193.239, 186.041 193.183, 181.815 192.470 C 170.291 190.525, 162.017 186.103, 152.283 176.686 C 145.811 170.426, 143.465 168.626, 144.512 170.724 M 192.861 175.033 C 194.159 176.115, 195.959 176.998, 196.861 176.996 C 197.837 176.994, 197.176 176.185, 195.226 174.996 C 191.061 172.457, 189.792 172.477, 192.861 175.033 M 281.542 179.811 C 281.202 181.356, 281.363 183.719, 281.899 185.061 C 282.724 187.126, 282.883 186.694, 282.937 182.250 C 283.007 176.439, 282.483 175.523, 281.542 179.811 M 250.064 184.250 C 243.992 191.731, 244.224 191.559, 242.019 190.214 C 239.945 188.948, 239.936 188.976, 241.466 191.934 C 242.970 194.843, 245.728 197, 247.942 197 C 248.571 197, 248.947 195.163, 248.849 192.568 C 248.746 189.848, 249.331 187.144, 250.363 185.568 C 252.090 182.933, 251.881 182.012, 250.064 184.250 M 124.630 186.250 C 124.299 187.488, 124.021 189.974, 124.014 191.776 C 124 195.019, 116.662 204, 114.026 204 C 112.932 204, 112.585 209.251, 113.611 210.278 C 113.947 210.614, 115.317 209.588, 116.655 207.998 C 117.993 206.408, 119.967 204.828, 121.042 204.487 C 122.116 204.146, 123.287 202.659, 123.644 201.183 C 124 199.708, 125.139 197.288, 126.174 195.806 C 128.926 191.868, 128.848 184, 126.058 184 C 125.604 184, 124.962 185.012, 124.630 186.250 M 473.200 186.200 C 472.540 186.860, 472.046 188.773, 472.102 190.450 L 472.205 193.500 472.943 190.413 C 473.349 188.715, 474.004 186.802, 474.399 186.163 C 475.331 184.656, 474.726 184.674, 473.200 186.200 M 81.039 190.780 C 81.011 193.141, 82.671 196.619, 86.962 203.187 C 95.416 216.128, 95.773 224.631, 88.145 231.405 C 86.651 232.732, 86.030 234.400, 86.100 236.905 C 86.171 239.483, 86.383 239.934, 86.850 238.500 C 87.207 237.400, 88.688 234.475, 90.139 232 C 97.257 219.863, 96.182 208.110, 86.996 197.649 C 85.351 195.775, 83.347 192.725, 82.542 190.871 L 81.078 187.500 81.039 190.780 M 90.731 197.302 C 95.371 202.651, 97.243 206.620, 98.607 214 L 99.808 220.500 99.904 213.554 C 100.013 205.663, 97.829 201.369, 91.136 196.321 L 87.500 193.578 90.731 197.302 M 219 201.121 C 214.974 203.279, 215.622 203.493, 221.157 201.835 C 224.825 200.736, 225.224 200.835, 228.178 203.585 C 229.900 205.188, 231.106 206.050, 230.858 205.500 C 227.567 198.218, 225.702 197.529, 219 201.121 M 278.522 207.740 L 275.886 212.456 278.312 210.176 C 279.647 208.923, 281.876 207.583, 283.267 207.198 L 285.795 206.500 283.476 204.763 C 281.174 203.038, 281.137 203.061, 278.522 207.740 M 283.255 211.053 C 279.093 212.338, 277.260 215.214, 275.910 222.578 C 274.721 229.067, 272.677 232.197, 270.241 231.262 C 267.010 230.022, 275.031 239.828, 279.289 242.323 C 291.494 249.476, 302.624 252.682, 317.640 253.370 C 333.978 254.119, 333.442 254.436, 331.910 244.919 C 331.085 239.796, 331.176 238.463, 332.449 237.056 C 333.845 235.514, 333.713 235.164, 330.975 233.140 C 329.321 231.917, 325.690 228.017, 322.905 224.474 C 314.075 213.238, 296 207.120, 283.255 211.053 M 271.073 217.635 C 268.826 220.491, 268.690 221.028, 269.607 223.418 C 270.532 225.828, 272 225.305, 272 222.565 C 272 221.226, 272.439 218.976, 272.975 217.565 C 274.217 214.299, 273.681 214.319, 271.073 217.635 M 527.158 222.158 C 523.530 228.707, 523.411 229.711, 526.568 227.151 C 528.225 225.808, 531.519 217.185, 530.691 216.358 C 530.578 216.245, 528.988 218.855, 527.158 222.158 M 115.015 220.790 C 115.007 222.049, 114.100 224.844, 113 227 C 111.900 229.156, 111 232.228, 111 233.825 C 111 235.423, 111.900 237.874, 113 239.273 C 117.243 244.667, 114.329 251.280, 105.803 255.600 L 100.782 258.144 98.365 255.874 L 95.949 253.603 97.439 257.828 C 98.259 260.152, 99.624 265.529, 100.473 269.777 C 103.176 283.308, 102.828 282.466, 104.930 280.564 C 106.141 279.468, 107.618 279.117, 109.273 279.532 C 112.306 280.294, 113.321 278.975, 112.125 275.828 C 110.299 271.026, 112.132 265.680, 116.303 263.643 C 121.070 261.314, 123.476 262.940, 124.535 269.205 C 124.958 271.709, 126.498 274.653, 128.608 276.987 C 132.958 281.802, 132.911 284.396, 128.398 288.529 L 124.796 291.829 131.371 289.822 C 136.229 288.339, 138.670 288.058, 140.723 288.746 C 144.653 290.064, 147.542 285.821, 145.187 282.188 C 143.844 280.116, 143.865 279.506, 145.387 276.314 C 147.153 272.612, 146.834 270.766, 144.783 272.817 C 140.858 276.742, 136 272.514, 136 265.171 C 136 261.543, 135.604 260, 134.674 260 C 132.904 260, 129 255.763, 129 253.841 C 129 248.734, 136.723 248.508, 138.661 253.558 C 139.653 256.145, 141 255.076, 141 251.700 C 141 247.354, 142.479 246.041, 146.618 246.713 C 150.469 247.338, 150.795 246.386, 148.898 240.053 C 147.952 236.898, 148.095 235.816, 149.898 232.452 C 153.200 226.290, 152.405 224, 146.963 224 C 143.168 224, 133.739 231.157, 134.595 233.387 C 135.313 235.257, 132.884 239.852, 129.514 243 L 126.837 245.500 123.919 242.234 C 122.313 240.438, 121 238.058, 121 236.944 C 121 235.831, 120.100 233.156, 119 231 C 117.900 228.844, 116.993 225.824, 116.985 224.290 C 116.976 222.755, 116.533 220.825, 116 220 C 115.219 218.791, 115.028 218.945, 115.015 220.790 M 32.657 223.452 C 31.666 226.035, 31.869 230.801, 33 231.500 C 35.978 233.341, 30.976 240, 26.615 240 C 24.646 240, 23.577 243.997, 24.405 248.263 C 24.751 250.043, 25.101 252.078, 25.183 252.783 C 25.577 256.148, 37.011 235.631, 36.958 231.656 C 36.901 227.382, 33.580 221.046, 32.657 223.452 M 413.500 227.028 C 407.595 229.917, 404.225 230.950, 400.632 230.971 C 396.672 230.995, 395.126 231.560, 392.347 234 C 389.888 236.159, 387.889 237.009, 385.215 237.030 C 381.962 237.057, 381.743 237.202, 383.450 238.192 C 388.726 241.253, 397.689 243.754, 399.580 242.693 C 405.508 239.367, 413.413 243.382, 413.468 249.746 C 413.504 253.970, 419.684 258.199, 425.171 257.754 C 426.922 257.612, 429.255 258.674, 431.947 260.837 C 436.720 264.673, 438.719 264.618, 440.951 260.589 C 443.353 256.254, 445.484 255.223, 447.770 257.292 C 450.440 259.708, 452.217 259.427, 455.424 256.080 L 458.221 253.160 454.470 254.449 C 449.541 256.144, 447.172 255.406, 444.839 251.452 C 443.274 248.799, 442.296 248.200, 439.529 248.200 C 435.929 248.200, 427.173 243.954, 424.358 240.843 C 422.436 238.719, 425.182 234.683, 429.750 232.919 C 432.796 231.742, 432.581 228.931, 429.195 225.687 C 425.495 222.142, 423.059 222.350, 413.500 227.028 M 223.536 227.960 C 222.560 229.038, 221.258 229.826, 220.642 229.710 C 219.759 229.545, 219.513 234.761, 220.360 235.680 C 220.451 235.778, 221.709 233.641, 223.154 230.930 C 226.071 225.459, 226.116 225.109, 223.536 227.960 M 517.615 230.465 C 516.727 231.820, 516 233.254, 516 233.650 C 516 234.047, 515.022 235.413, 513.826 236.686 L 511.651 239 514.780 239 C 517.617 239, 517.968 238.650, 518.542 235.250 C 518.890 233.188, 519.391 230.713, 519.655 229.750 C 520.330 227.287, 519.508 227.575, 517.615 230.465 M 477 242.277 C 477 244.837, 477.254 244.991, 481.250 244.850 C 484.214 244.746, 484.671 244.575, 482.761 244.285 C 481.254 244.056, 479.342 242.899, 478.511 241.712 C 477.005 239.562, 477 239.564, 477 242.277 M 520.457 241.070 C 520.093 241.659, 518.829 242.530, 517.648 243.007 C 515.770 243.764, 515.908 243.881, 518.750 243.937 C 521.354 243.987, 522 243.603, 522 242 C 522 239.779, 521.457 239.451, 520.457 241.070 M 244.946 244.595 C 243.051 246.573, 239.594 249.515, 237.265 251.133 C 231.124 255.400, 230.708 256.630, 232.203 266.128 C 233.609 275.063, 234.575 276.122, 238.715 273.264 C 240.247 272.206, 244.875 269.539, 249 267.337 C 253.125 265.136, 258.750 261.915, 261.500 260.181 L 266.500 257.028 258.032 249.014 C 248.157 239.668, 249.299 240.054, 244.946 244.595 M 385.885 244.536 C 389.946 246.441, 393.546 247.978, 393.885 247.951 C 395.119 247.854, 381.456 241.097, 380 241.084 C 379.175 241.078, 381.823 242.631, 385.885 244.536 M 401 246.757 C 401 248.522, 408.235 251.234, 409.139 249.808 C 409.595 249.089, 409.827 248.050, 409.656 247.500 C 409.270 246.262, 401 245.552, 401 246.757 M 461.928 253.135 C 460.056 256.632, 448.047 267.957, 445.686 268.452 C 433.256 271.056, 431.713 270.874, 426.504 266.193 L 423.507 263.500 426.004 266.379 C 429.797 270.753, 433.761 272.102, 438.950 270.785 C 442.128 269.978, 444.095 269.994, 446.450 270.846 C 451.096 272.526, 452 272.297, 452 269.440 C 452 267.744, 453.668 265.117, 456.944 261.653 C 459.663 258.778, 462.352 255.205, 462.919 253.713 C 464.148 250.480, 463.539 250.125, 461.928 253.135 M 408 255.471 C 408 255.746, 410.700 257.334, 414 259 C 417.300 260.666, 420 261.804, 420 261.529 C 420 261.254, 417.300 259.666, 414 258 C 410.700 256.334, 408 255.196, 408 255.471 M 568.079 257.698 C 568.036 258.357, 565.638 261.648, 562.750 265.011 C 551.642 277.949, 549.345 282.813, 559.397 272.109 C 566.059 265.016, 569.463 259.703, 568.640 257.682 C 568.273 256.784, 568.139 256.787, 568.079 257.698 M 444.182 262.500 C 442.919 265.273, 443.812 265.706, 447.130 263.930 C 448.726 263.076, 448.890 262.572, 447.942 261.430 C 446.269 259.414, 445.487 259.637, 444.182 262.500 M 427 261.947 C 427 263.109, 431.835 266.498, 432.519 265.814 C 432.770 265.563, 431.631 264.364, 429.988 263.149 C 428.344 261.934, 427 261.393, 427 261.947 M 52.584 263.641 C 52.058 265.012, 52.205 265.075, 53.472 264.023 C 54.710 262.996, 55.498 263.091, 57.745 264.537 L 60.500 266.310 58.595 264.155 C 56.332 261.595, 53.463 261.350, 52.584 263.641 M 372.016 262.891 C 369.624 263.557, 369.716 263.707, 374.516 266.954 C 378.926 269.938, 379.226 270.025, 377.123 267.714 C 375.752 266.207, 374.999 264.446, 375.342 263.551 C 375.983 261.880, 375.786 261.841, 372.016 262.891 M 474.275 266.803 C 465.587 276.219, 465.447 277.274, 472.063 283.462 L 477.126 288.198 489.998 287.849 C 502.623 287.507, 502.929 287.444, 505.888 284.608 C 511.338 279.385, 504.534 271.730, 490.753 267.582 C 476.882 263.408, 477.387 263.431, 474.275 266.803 M 209.500 266 C 209.160 266.550, 206.899 267, 204.476 267 C 196.211 267, 196.109 273.651, 204.340 275.955 C 210.690 277.733, 212.437 277.146, 212.824 273.103 C 213.392 267.165, 211.405 262.918, 209.500 266 M 115.741 270.315 C 115.484 272.061, 115.710 274.737, 116.241 276.262 C 117.752 280.597, 115.169 283.804, 110.303 283.633 C 106.666 283.506, 106.486 283.650, 106.171 286.956 C 105.750 291.386, 108.409 293.845, 111.042 291.462 C 113.264 289.451, 118.808 287.880, 119.535 289.056 C 119.844 289.556, 121.875 288.788, 124.048 287.349 C 128.887 284.147, 129.142 281.468, 124.984 277.485 C 123.325 275.896, 121.534 272.983, 121.003 271.012 C 119.704 266.187, 116.410 265.750, 115.741 270.315 M 474.167 271.941 C 470.226 276.846, 470.213 278.160, 474.077 281.411 C 478.193 284.874, 480.064 284.720, 476.687 281.195 C 475.209 279.653, 474 277.712, 474 276.882 C 474 274.596, 479.287 270.013, 482.055 269.900 L 484.500 269.801 482 269 C 477.884 267.682, 477.464 267.840, 474.167 271.941 M 52.157 275.577 C 50.050 278.757, 48.944 281.887, 48.532 285.827 C 48.205 288.947, 47.502 293.938, 46.969 296.917 C 45.590 304.625, 45.720 306, 47.826 306 C 50.647 306, 53.560 309.919, 55.551 316.393 L 57.364 322.286 54.026 325.268 C 50.894 328.066, 50.760 328.447, 51.844 331.446 C 52.480 333.204, 53 335.371, 53 336.262 C 53 339.362, 54.878 339, 59.486 335.013 C 62.035 332.806, 64.495 331, 64.952 331 C 65.409 331, 69.512 327.850, 74.070 324 C 78.629 320.150, 82.727 317, 83.179 317 C 84.845 317, 83.912 313.506, 80.664 307.583 C 78.830 304.237, 77.021 300.262, 76.645 298.748 C 76.269 297.235, 73.340 293.105, 70.137 289.571 C 66.934 286.036, 62.556 280.416, 60.407 277.081 C 55.723 269.812, 55.948 269.853, 52.157 275.577 M 490.500 272.417 C 496.423 275.061, 499.662 279.605, 497.421 282.124 L 495.500 284.283 499.500 283.563 C 501.700 283.168, 503.872 282.485, 504.327 282.045 C 505.843 280.580, 499.098 274.222, 494.292 272.584 C 488.666 270.667, 486.351 270.565, 490.500 272.417 M 478.362 275.500 C 476.731 279.748, 480.880 281.620, 489.532 280.539 C 495.850 279.750, 495.799 278.700, 489.307 275.917 C 483.922 273.609, 479.157 273.427, 478.362 275.500 M 390.958 279.250 C 395.102 283.665, 396 284.459, 396 283.708 C 396 283.548, 393.863 281.410, 391.250 278.958 L 386.500 274.500 390.958 279.250 M 422.279 278.756 C 423.426 280.023, 423.720 281.667, 423.327 284.600 C 422.220 292.850, 432.808 296.878, 440 290.943 L 442.500 288.880 439.300 290.440 C 434.913 292.578, 434.557 292.498, 429.958 288.343 C 426.567 285.279, 426.007 284.244, 426.509 281.960 C 427.034 279.570, 426.711 279.095, 423.896 278.114 C 420.863 277.056, 420.773 277.092, 422.279 278.756 M 449.383 285.611 C 447.607 287.049, 447.658 287.103, 450.271 286.544 C 451.794 286.218, 453.932 286.428, 455.021 287.011 C 456.109 287.594, 457 287.841, 457 287.561 C 457 285.661, 451.165 284.167, 449.383 285.611 M 111.861 294.967 C 109.562 296.882, 109.555 296.934, 111.595 296.967 C 112.747 296.985, 114.505 296.100, 115.500 295 C 117.999 292.239, 115.166 292.213, 111.861 294.967 M 545.031 304.467 C 542.426 307.239, 542.670 307.877, 549.050 315 L 552.185 318.500 548.971 313.817 C 546.055 309.568, 545.862 308.835, 546.883 305.905 C 548.329 301.758, 547.894 301.420, 545.031 304.467 M 40.283 311.843 C 39.063 314.404, 35.820 320.325, 33.076 325 C 26.885 335.546, 26.429 337.513, 28.586 344.354 L 30.307 349.814 27.653 354.889 C 25.704 358.618, 25 361.446, 25 365.555 C 25 373.343, 27.255 372.591, 32.687 362.991 C 36.643 356.001, 39.524 352.834, 48.480 345.631 C 50.969 343.629, 51.754 342.408, 51.076 341.592 C 50.224 340.564, 49.605 338.546, 47.345 329.411 C 46.975 327.914, 47.732 326.562, 50.016 324.640 L 53.203 321.958 51.412 315.979 C 50.007 311.287, 49.195 310, 47.639 310 C 46.549 310, 44.947 309.367, 44.079 308.593 C 42.682 307.348, 42.245 307.722, 40.283 311.843 M 431.112 326 C 434.094 329.575, 437.852 334.300, 439.462 336.500 C 443.344 341.804, 444.803 343.221, 442.551 339.500 C 439.463 334.397, 433.305 326.666, 429.410 323 C 426.693 320.444, 427.153 321.253, 431.112 326 M 545.500 343 C 548.209 345.750, 550.650 348, 550.925 348 C 551.200 348, 549.209 345.750, 546.500 343 C 543.791 340.250, 541.350 338, 541.075 338 C 540.800 338, 542.791 340.250, 545.500 343 M 397.721 361.040 C 398.225 362.968, 398.357 362.987, 400.127 361.385 C 402.536 359.205, 402.490 359, 399.594 359 C 397.664 359, 397.293 359.404, 397.721 361.040 M 413.750 360.732 C 416.087 360.943, 419.913 360.943, 422.250 360.732 C 424.587 360.522, 422.675 360.349, 418 360.349 C 413.325 360.349, 411.413 360.522, 413.750 360.732 M 484.934 366.750 C 491.450 374.181, 493.703 376.137, 490.119 371.250 C 487.243 367.329, 483.887 363.707, 481.038 361.450 C 479.684 360.378, 481.437 362.762, 484.934 366.750 M 447.550 369.829 C 448.072 370.285, 450.724 372.423, 453.443 374.579 L 458.386 378.500 455.943 375.153 C 454.599 373.311, 452.285 371.174, 450.800 370.403 C 447.810 368.850, 446.077 368.544, 447.550 369.829 M 366.018 380.500 C 370.624 388.761, 373.928 394, 374.533 394 C 375.346 394, 371.053 386.029, 367.284 380.542 C 362.463 373.524, 362.123 373.512, 366.018 380.500 M 550.035 379.934 C 548.251 383.268, 548.756 386, 551.155 386 C 553.215 386, 553.234 385.916, 551.575 384.083 C 550.191 382.554, 550.066 381.745, 550.955 380.083 C 551.569 378.937, 551.845 378, 551.570 378 C 551.295 378, 550.605 378.870, 550.035 379.934 M 402.046 380.500 C 402.021 382.140, 403.260 383.460, 408 386.848 C 410.475 388.617, 414.447 391.624, 416.828 393.532 C 420.433 396.421, 421.968 397, 426.019 397 C 428.694 397, 431.162 397.453, 431.504 398.007 C 431.847 398.561, 433.561 399.748, 435.313 400.644 L 438.500 402.274 436.502 400.034 C 433.257 396.397, 429.239 394.784, 425.145 395.475 C 421.965 396.013, 420.938 395.645, 417.486 392.729 C 415.294 390.878, 411.379 387.921, 408.787 386.159 C 406.195 384.397, 403.621 382.178, 403.067 381.227 C 402.514 380.277, 402.054 379.950, 402.046 380.500 M 20.023 390.250 C 17.410 393.774, 16.976 395.098, 17.480 398 C 17.815 399.925, 18.406 403.975, 18.794 407 C 19.296 410.909, 19.934 412.500, 21 412.500 C 22.630 412.500, 22.896 404.681, 21.486 398.248 C 20.981 395.949, 21.252 394.264, 22.409 392.498 C 24.893 388.707, 26.994 389.275, 27.033 393.750 C 27.051 395.813, 27.965 399.975, 29.065 403 C 30.165 406.025, 31.190 409.067, 31.342 409.760 C 31.775 411.724, 33.718 413.292, 34.851 412.592 C 36.033 411.861, 35.791 410.570, 33.054 403 C 31.960 399.975, 31.051 395.891, 31.033 393.924 C 30.960 386.006, 24.714 383.921, 20.023 390.250 M 119.390 399.427 C 118.358 402.116, 119.460 405.472, 121.500 405.856 C 123.449 406.223, 123.453 406.180, 121.660 404.188 C 120.467 402.862, 120.051 401.415, 120.477 400.072 C 121.211 397.759, 120.249 397.188, 119.390 399.427 M 522.500 403 C 520.743 404.941, 520.753 405, 522.845 405 C 524.333 405, 525 404.381, 525 403 C 525 401.900, 524.845 401, 524.655 401 C 524.465 401, 523.495 401.900, 522.500 403" stroke="none" fill="#1A1A1A" fill-rule="evenodd"/>
</svg>