<svg xmlns="http://www.w3.org/2000/svg" viewBox="0 0 600 413" version="1.1" preserveAspectRatio="xMidYMid meet">
	<path d="M 241 3.398 C 238.525 5.239, 235.178 8.153, 233.563 9.873 C 230.135 13.522, 227.878 13.734, 221.507 11.003 C 208.080 5.248, 194.284 4.199, 182.818 8.061 C 179.653 9.128, 175.898 10, 174.474 10 C 173.051 10, 169.944 10.489, 167.572 11.086 C 163.804 12.035, 162.719 11.897, 158.996 9.998 C 146.667 3.708, 107.916 9.415, 96.215 19.243 C 88.931 25.362, 77.830 36.543, 76.453 39.150 C 71.153 49.177, 68.871 58.456, 68.281 72.383 C 67.633 87.670, 68.120 86.661, 53.387 103.272 C 47.456 109.960, 34.446 134.119, 32.801 141.500 C 31.101 149.125, 29.179 161.537, 28.510 169.208 C 27.880 176.423, 27.718 176.841, 25.961 175.744 C 22.591 173.639, 18.664 178.421, 19.386 183.750 C 20.044 188.608, 19.799 188.774, 16.178 185.925 C 12.159 182.764, 9.985 185.821, 10.723 193.596 C 11.235 198.988, 11.177 199.165, 9.233 198.125 C 6.685 196.761, 4.300 198.900, 6.224 200.824 C 6.871 201.471, 7.030 202, 6.578 202 C 6.125 202, 6.293 202.648, 6.951 203.441 C 7.608 204.233, 8.704 204.667, 9.386 204.405 C 10.068 204.144, 11.445 204.834, 12.445 205.939 C 14.254 207.938, 14.277 207.939, 17.018 205.987 C 19.581 204.162, 19.805 204.147, 20.224 205.763 C 20.947 208.552, 20.149 209.721, 14.871 213.594 C 9.900 217.244, 9.893 217.257, 11.801 219.376 C 14.897 222.814, 17.128 228.140, 16.028 229.467 C 14.397 231.432, 24.459 240.694, 26.439 239.050 C 27.286 238.348, 27.719 237.355, 27.403 236.843 C 27.087 236.331, 27.332 235.304, 27.949 234.561 C 28.566 233.818, 29.001 232.826, 28.917 232.355 C 28.832 231.885, 28.862 231.050, 28.983 230.500 C 29.104 229.950, 29.126 228.073, 29.031 226.328 C 28.867 223.276, 30.619 222.286, 32.629 224.296 C 33.007 224.674, 33.915 224.486, 34.646 223.879 C 35.637 223.056, 36.084 223.122, 36.400 224.137 C 36.633 224.887, 37.313 227.030, 37.912 228.899 C 39.448 233.698, 39.299 234.292, 36.721 233.645 C 33.343 232.797, 28.061 237.163, 29.852 239.322 C 30.563 240.179, 31.960 241.019, 32.957 241.190 C 34.521 241.458, 34.095 242.661, 29.836 250 C 22.610 262.451, 19 270.784, 19 275.013 C 19 277.067, 18.362 280.557, 17.582 282.767 C 15.177 289.584, 11.005 312.051, 9.984 323.684 C 9.450 329.768, 8.158 337.615, 7.111 341.123 C 6.065 344.630, 4.929 350.875, 4.587 355 C 4.137 360.423, 3.486 362.858, 2.234 363.792 C -3.204 367.851, 0.534 377.725, 7.882 378.711 C 10.102 379.009, 12.682 380.096, 13.614 381.126 C 16.501 384.316, 19.993 381.509, 33.678 365 C 41.014 356.151, 51.222 346, 52.785 346 C 53.282 346, 56.183 343.863, 59.230 341.250 C 71.267 330.933, 75.113 327.821, 77.261 326.659 C 78.493 325.993, 81.300 324.302, 83.500 322.901 C 90.230 318.615, 90.489 318.645, 93.440 324.067 C 97.169 330.918, 106.406 343.017, 115.225 352.599 C 122.679 360.698, 122.679 360.698, 123.340 369.599 C 123.704 374.495, 124.277 381.949, 124.615 386.165 C 125.228 393.831, 125.228 393.831, 122.364 395.320 C 111.732 400.850, 114.178 408.147, 127.119 409.509 C 136.551 410.501, 138.949 408.160, 141.977 395 C 144.755 382.927, 145.956 372.158, 144.857 369.185 C 144.385 367.912, 144 365.166, 144 363.084 C 144 355.349, 141.015 350, 135.104 347.142 C 131.957 345.620, 131.365 344.513, 127.005 332 C 120.855 314.349, 120.808 314.246, 116.616 309 C 114.638 306.525, 113.016 304.050, 113.011 303.500 C 113.002 302.248, 121.198 297, 123.164 297 C 123.963 297, 125.491 296.339, 126.559 295.532 C 127.626 294.724, 129.075 294.049, 129.778 294.032 C 130.482 294.014, 134.431 292.399, 138.556 290.441 C 142.680 288.484, 148.630 286.399, 151.777 285.807 C 154.925 285.215, 160.396 283.564, 163.936 282.137 C 175.414 277.509, 212.839 278.853, 215.494 283.988 C 222.446 297.431, 239.489 295.568, 233.682 282 C 233.225 280.932, 234.199 279.966, 237.065 278.646 C 240.993 276.837, 246.116 273.786, 256.113 267.304 C 268.216 259.455, 273.134 259.106, 281.621 265.494 C 285.826 268.659, 292.020 272.336, 295.384 273.665 C 298.748 274.994, 302.428 276.544, 303.561 277.109 C 304.695 277.674, 307.178 278.259, 309.078 278.410 C 316.368 278.989, 323.409 282.181, 330 287.897 C 333.575 290.997, 338.181 294.782, 340.237 296.308 C 345.536 300.241, 345.666 300.670, 347.445 320.035 C 350.029 348.156, 351.874 360.892, 353.698 363.197 C 354.266 363.914, 357.138 369.225, 360.080 375 C 371.290 396.999, 378.231 404.367, 388.800 405.488 C 392.485 405.879, 397.075 406.858, 399 407.663 C 400.925 408.469, 404.525 409.003, 407 408.849 C 409.659 408.684, 413.750 409.387, 417 410.567 C 422.751 412.655, 431.891 413.220, 432.097 411.500 C 432.352 409.377, 414.786 402.870, 407.500 402.387 C 389.202 401.175, 380 398.822, 380 395.356 C 380 394.481, 378.762 392.259, 377.250 390.419 C 359.999 369.433, 353 348.568, 353 318.124 C 353 309.877, 352.567 301.992, 352.038 300.601 C 351.406 298.939, 351.423 297.857, 352.087 297.446 C 352.747 297.038, 352.688 296.329, 351.916 295.399 C 350.619 293.836, 347.525 295.422, 348.570 297.113 C 350.155 299.677, 346.806 297.213, 339.920 290.750 C 328.327 279.867, 323.373 276.176, 318.717 274.952 C 301.416 270.405, 289.860 265.357, 281.333 258.623 C 278.462 256.355, 274.001 252.938, 271.419 251.028 C 268.838 249.118, 263.121 243.647, 258.715 238.869 C 250.704 230.183, 250.704 230.183, 241.608 237.842 C 226.270 250.755, 221.675 255.607, 222.308 258.220 C 222.612 259.474, 223.331 262.300, 223.907 264.500 C 224.482 266.700, 224.963 270.133, 224.976 272.128 C 224.989 274.123, 225.675 277.371, 226.500 279.346 C 228.745 284.719, 228.534 289.135, 226.076 288.218 C 222.091 286.731, 218.775 282.955, 219.450 280.673 C 221.556 273.560, 221.267 267.312, 218.626 262.805 C 215.092 256.774, 215.275 255.543, 220.401 250.878 C 223.496 248.061, 225.002 245.780, 225.478 243.187 C 225.850 241.159, 227.421 237.475, 228.970 235 C 230.519 232.525, 232.110 229.375, 232.507 228 C 232.904 226.625, 234.149 223.980, 235.275 222.122 C 236.922 219.403, 237.095 218.382, 236.161 216.886 C 235.522 215.863, 234.996 214.234, 234.990 213.264 C 234.985 212.294, 233.835 209.040, 232.436 206.034 C 231.037 203.027, 230.125 199.639, 230.409 198.505 C 231.213 195.304, 226.680 190.169, 224.317 191.602 C 223.318 192.208, 222.352 193.705, 222.170 194.929 C 221.972 196.265, 221.323 196.954, 220.542 196.655 C 218.829 195.997, 217.016 197.879, 217.685 199.622 C 219.373 204.021, 206.007 198.643, 192.286 189.402 C 190.518 188.212, 187.026 186.931, 184.527 186.556 C 171.126 184.547, 158.151 177.763, 151.918 169.507 C 149.771 166.664, 144.275 160.934, 139.704 156.773 C 135.134 152.612, 128.718 145.717, 125.447 141.450 C 116.596 129.905, 117.767 129.785, 100.878 143.960 C 95.970 148.080, 95.738 147.863, 98.194 141.445 C 100.132 136.380, 100.180 135.751, 98.737 134.309 C 96.779 132.351, 94.270 133.203, 93.101 136.222 C 92.615 137.475, 91.545 140.300, 90.722 142.500 C 84.876 158.126, 79.719 166.841, 77.438 164.949 C 74.603 162.596, 72 166.466, 72 173.033 C 72 178.983, 73.594 181.754, 76.399 180.677 C 77.498 180.255, 77.900 181.347, 78.161 185.466 C 78.500 190.800, 78.500 190.800, 74.394 187.012 C 68.324 181.413, 66.596 180.684, 64.607 182.882 C 63.052 184.600, 63.366 185.034, 70.326 190.791 C 77.447 196.681, 85 207.739, 85 212.274 C 85 214.899, 87.888 216.551, 90.081 215.181 C 91.846 214.079, 92 214.287, 92 217.780 C 92 222.830, 88.222 230.019, 84.500 232.049 C 80.881 234.023, 80.952 235.411, 85.139 244.647 C 90.828 257.194, 93.833 267.801, 95.524 281.304 C 97.177 294.500, 97.177 294.500, 101.991 299 C 112.604 308.920, 119.315 320.981, 125.424 341.112 C 128.235 350.376, 130.601 353.579, 133.867 352.542 C 139.013 350.909, 141.407 370.246, 138.009 386 C 136.764 391.775, 135.534 397.909, 135.277 399.632 C 134.739 403.231, 130.914 405.972, 128.784 404.284 C 128.078 403.725, 126.263 403.335, 124.750 403.417 C 120.779 403.632, 121.274 401.416, 126.165 397.075 C 130.874 392.897, 131.005 391.814, 128.977 373.833 C 128.439 369.066, 128.254 364.503, 128.564 363.693 C 128.910 362.792, 126.919 359.753, 123.431 355.860 C 107.877 338.500, 96.993 322.951, 94.428 314.428 C 93.625 311.759, 91.905 308.434, 90.606 307.038 C 87.415 303.609, 86 300.662, 86 297.446 C 86 295.473, 84.249 293.003, 79.397 288.130 C 75.765 284.484, 69.540 276.550, 65.564 270.500 C 55.583 255.314, 53.643 254.133, 50.610 261.392 C 49.810 263.305, 46.646 268.557, 43.578 273.062 C 37.878 281.432, 37.427 282.548, 38.841 284.777 C 41.518 288.995, 35.692 307.369, 26.409 323.988 C 20.051 335.371, 19.203 338.559, 21.403 342.812 C 23.630 347.118, 23.402 349.733, 20.500 353.182 C 17.807 356.383, 17.596 357.680, 17.965 368.750 C 18.220 376.409, 16.894 378.263, 14.223 373.985 C 13.392 372.655, 12.037 372.038, 10.232 372.168 C 4.566 372.578, 2.396 370.240, 5.467 367.034 C 7.496 364.916, 8.381 362.598, 9.153 357.374 C 9.712 353.593, 11.244 345.550, 12.557 339.500 C 13.870 333.450, 15.215 324.450, 15.546 319.500 C 16.096 311.274, 19.893 291.096, 21.901 285.722 C 22.358 284.500, 23.062 280.800, 23.466 277.500 C 24.469 269.306, 26.447 263.884, 31.470 255.563 C 33.815 251.678, 36.519 246.925, 37.479 245 C 38.439 243.075, 40.619 240.030, 42.325 238.233 C 45.274 235.126, 45.360 234.807, 44.085 231.733 C 30.120 198.047, 29.846 146.631, 43.533 127.795 C 44.850 125.983, 47.567 121.378, 49.571 117.562 C 56.136 105.062, 67.362 91.226, 69.500 93 C 73.008 95.911, 75.185 90.999, 74.157 82.491 C 71.637 61.630, 77.712 41.090, 89.727 29.852 C 106.223 14.422, 148.634 6.108, 158.342 16.402 C 161.927 20.202, 161.927 20.202, 164.450 18.218 C 165.896 17.081, 169.432 15.929, 172.736 15.519 C 175.906 15.126, 180.075 14.085, 182 13.205 C 186.342 11.220, 204.964 11.068, 211.269 12.966 C 218.480 15.137, 223.436 17.114, 225 18.443 C 228.512 21.428, 230.902 20.992, 234.268 16.751 C 240.922 8.368, 242.829 7, 247.856 7.004 C 253.383 7.008, 262.956 11.404, 266.075 15.369 C 267.558 17.253, 269.074 18, 271.419 18 C 273.220 18, 276.112 18.708, 277.847 19.574 C 280.435 20.864, 282.512 20.992, 289.413 20.285 C 306.939 18.488, 317.642 24.032, 332.573 42.641 C 341.888 54.252, 343.503 56.461, 344.708 59.242 C 345.373 60.776, 346.498 62.202, 347.208 62.411 C 347.919 62.620, 351.125 63.566, 354.333 64.514 C 363.136 67.116, 365.720 69.707, 363.600 73.807 C 361.679 77.521, 360.713 77.663, 354.754 75.109 C 350.479 73.276, 343 65.861, 343 63.455 C 343 61.210, 338.792 56.928, 334.151 54.451 C 331.593 53.085, 327.475 50.418, 325 48.523 C 322.525 46.628, 319.379 44.494, 318.009 43.780 C 316.639 43.066, 314.937 41.270, 314.227 39.788 C 312.079 35.306, 308.040 32.760, 304.011 33.349 C 285.124 36.110, 281.404 38.782, 286.695 45.787 C 301.602 65.522, 305.666 90.693, 297.526 112.884 C 296.470 115.762, 296.130 118.687, 296.537 121.399 C 297.031 124.690, 296.734 126.069, 295.078 128.173 C 293.673 129.960, 293 132.273, 293 135.320 C 293 143.808, 290.248 154.543, 285.744 163.627 C 283.324 168.507, 280.727 174.075, 279.972 176 C 279.218 177.925, 277.769 180.103, 276.753 180.840 C 274.522 182.458, 276.038 185, 279.234 185 C 284.261 185, 275.276 204.475, 265.750 214.227 C 259.707 220.413, 259.038 221.957, 261.512 224.010 C 262.343 224.700, 264.420 227.885, 266.127 231.087 C 269.745 237.874, 275.570 245, 277.501 245 C 278.241 245, 280.119 246.065, 281.673 247.366 C 284.663 249.868, 295 255.404, 295 254.503 C 295 254.212, 296.659 254.666, 298.686 255.513 C 301.155 256.545, 305.366 257.026, 311.436 256.969 C 316.421 256.923, 322.072 257.361, 323.993 257.943 C 334.169 261.023, 338.747 256.822, 337.060 245.952 C 336.442 241.967, 335.699 238.322, 335.409 237.853 C 334.197 235.891, 358.306 238.542, 368.500 241.491 C 380.135 244.857, 402.014 254.520, 407 258.494 C 407.825 259.152, 411.425 261.055, 415 262.724 C 418.575 264.393, 423.899 267.838, 426.832 270.379 C 429.764 272.921, 432.358 275, 432.597 275 C 432.835 275, 435.698 274.258, 438.958 273.352 C 444.886 271.704, 444.886 271.704, 450.477 274.532 C 457.820 278.248, 461.541 276.261, 456.700 271.209 C 453.038 267.387, 453.166 266.959, 459.750 260.971 C 466.701 254.649, 467.540 253.355, 465.937 251.424 C 465.099 250.414, 464.907 247.904, 465.324 243.433 C 465.885 237.431, 465.588 235.985, 461.582 225.207 C 448.224 189.267, 449.811 167.265, 467.187 147.525 C 473.013 140.906, 470.671 137.797, 461.891 140.496 C 442.670 146.406, 443.023 146.346, 426.938 146.424 C 411.375 146.500, 411.375 146.500, 406.438 150.856 C 403.722 153.252, 398.496 156.728, 394.824 158.581 C 391.153 160.434, 387.846 162.440, 387.476 163.038 C 386.579 164.489, 390.023 168.205, 391.677 167.570 C 392.977 167.072, 389.107 173.940, 386.233 177.234 C 385.400 178.187, 382.369 180.294, 379.496 181.915 C 373.324 185.399, 367 192.390, 367 195.730 C 367 197.033, 366.325 199.404, 365.500 201 C 364.675 202.595, 363.496 206.285, 362.879 209.200 C 360.802 219.009, 359.589 220.353, 355.911 216.917 C 354.194 215.313, 352.416 214, 351.962 214 C 347.946 214, 351.467 205.913, 358.058 200 C 359.910 198.339, 362.400 193.474, 365.481 185.500 C 370.561 172.349, 374.245 165.389, 377.470 162.848 C 378.624 161.939, 381.577 157.948, 384.034 153.978 C 396.618 133.644, 426.917 119.049, 456.628 119.009 C 465.674 118.997, 466.503 118.171, 465.097 110.566 C 463.789 103.491, 464.449 101.191, 467.098 103.589 C 468.822 105.149, 469.122 105.150, 471.474 103.609 C 474.658 101.523, 474.668 101.598, 470.596 96.841 C 468.312 94.173, 466.308 90.007, 464.505 84.182 C 462.637 78.144, 460.973 74.739, 459.041 73 C 453.374 67.899, 451.856 62.747, 455.218 60.025 C 458.047 57.733, 456.516 55.507, 451.457 54.558 C 445.129 53.371, 442.463 45.329, 446.849 40.661 C 449.534 37.803, 447.153 34.732, 442.283 34.774 C 440.752 34.787, 438.015 34.106, 436.200 33.261 C 432.448 31.514, 428.443 32.629, 427.295 35.741 C 425.700 40.064, 406.953 39.882, 402 35.497 C 400.724 34.367, 399.184 35.052, 391.691 40.084 C 386.846 43.338, 382.294 46, 381.576 46 C 377.073 46, 373 53.609, 373 62.021 C 373 66.247, 372.970 66.283, 371 64.500 C 369.900 63.505, 369 63.075, 369 63.545 C 369 64.015, 368.508 63.908, 367.906 63.306 C 366.438 61.838, 369.641 54.664, 375.353 46.634 C 377.752 43.260, 380.462 39.045, 381.374 37.267 C 383.171 33.766, 386.522 31.663, 391.952 30.627 C 393.850 30.265, 396.338 29.092, 397.479 28.020 C 401.720 24.036, 417.452 22.928, 417.515 26.609 C 417.677 36.021, 434.799 25.868, 435.170 16.140 C 435.336 11.780, 435.336 11.780, 441.408 12.467 C 444.748 12.845, 447.979 13.567, 448.588 14.073 C 450.997 16.072, 453.585 11.305, 451.405 8.884 C 449.542 6.814, 449.541 6.776, 451.393 7.134 C 455.104 7.852, 455.679 10.597, 453.105 15.307 C 450.038 20.922, 453.920 28.680, 457.837 24.763 C 458.694 23.906, 460.010 24.200, 463.104 25.938 C 467.316 28.306, 475.433 28.976, 478.577 27.217 C 480.898 25.918, 492.478 27.533, 497.044 29.792 C 499.338 30.927, 501.793 31.633, 502.501 31.361 C 505.543 30.194, 522.336 40.682, 528.034 47.308 C 531.187 50.974, 531.219 51.097, 528.904 50.616 C 527.582 50.341, 523.648 49.839, 520.163 49.499 C 512.535 48.755, 502.906 45.936, 493.705 41.752 C 484.790 37.699, 481.202 39.489, 486.711 45.241 C 489.189 47.828, 489.980 49.714, 490.549 54.386 C 491.047 58.484, 492.639 62.855, 495.790 68.779 C 507.204 90.235, 511.324 120.896, 505.427 140.500 C 500.850 155.716, 485.507 176.204, 472.049 185.070 C 470.230 186.269, 469.733 187.391, 469.947 189.820 C 470.266 193.424, 470.197 205.210, 469.782 218.500 C 469.522 226.784, 469.719 227.872, 472.250 232.178 C 474.249 235.579, 475 238.207, 475 241.806 C 475 248.656, 476.084 249.300, 484.582 247.500 C 492.784 245.763, 508.834 245.557, 516.015 247.097 C 523.323 248.664, 524.995 246.991, 525.014 238.095 C 525.034 228.318, 525.691 226.406, 528.047 229.275 C 531.240 233.163, 533.481 230.582, 533.592 222.890 C 533.699 215.415, 536.247 205.937, 539.236 201.894 C 541.024 199.476, 541.165 198.658, 540.171 196.476 C 536.393 188.184, 543.766 178.129, 550.846 181.918 C 552.322 182.707, 553.097 182.588, 554.064 181.423 C 555.158 180.105, 555.645 180.612, 557.495 184.989 C 558.752 187.962, 562.019 192.482, 565.326 195.824 C 568.447 198.978, 571 202.038, 571 202.624 C 571 206.641, 575.186 207.476, 578.232 204.067 C 581.279 200.657, 581.279 200.657, 580.670 205.078 C 580.336 207.510, 579.756 212.875, 579.382 217 C 578.631 225.271, 575.206 236.498, 572.104 240.855 C 569.017 245.189, 565.799 254.167, 566.332 256.956 C 567.046 260.690, 564.516 264.861, 557.814 271 C 551.937 276.383, 551.770 276.681, 549.988 285 C 548.375 292.533, 545.327 302.774, 544.361 303.911 C 544.169 304.136, 543.083 303.480, 541.948 302.453 C 540.369 301.024, 539.485 300.834, 538.191 301.644 C 535.373 303.411, 535.579 306.616, 538.644 308.660 C 546.463 313.875, 559 331.572, 559 337.394 C 559 341.271, 563.239 350.661, 566.496 353.996 C 570.782 358.385, 570.882 360.800, 567 366.159 C 565.346 368.441, 564 371.572, 564 373.134 C 564 377.038, 559.408 381.902, 554.731 382.952 C 550.962 383.798, 550.962 383.798, 553.037 380.440 C 564.341 362.149, 562.130 352.714, 542.724 336.443 C 529.938 325.723, 518.299 299.747, 523.638 293.847 C 528.204 288.802, 522.087 288.383, 499.117 292.170 C 478.303 295.600, 463.965 292.502, 454.984 282.633 C 451.500 278.804, 450.408 278.797, 448.963 282.597 C 448.400 284.077, 447.246 285, 445.958 285 C 444.808 285, 442.392 286.125, 440.589 287.500 C 436.395 290.699, 435.596 290.645, 432.992 286.988 C 431.812 285.332, 430.463 284.214, 429.993 284.505 C 428.426 285.473, 427.999 283.246, 429.511 281.991 C 433.619 278.582, 430.641 276.453, 416.765 272.877 C 405.350 269.935, 388.312 262.551, 384.313 258.814 C 382.295 256.928, 381.729 256.866, 376.978 258.005 C 374.146 258.685, 370.085 259.007, 367.954 258.721 C 365.336 258.369, 363.705 258.651, 362.927 259.588 C 360.704 262.267, 361.950 263.494, 375 271.482 C 385.477 277.894, 390.460 281.793, 393.318 285.816 C 395.068 288.279, 397.721 291.915, 399.214 293.897 C 400.707 295.879, 402.812 299.105, 403.891 301.067 C 404.971 303.029, 406.562 305.221, 407.427 305.939 C 409.473 307.637, 409.432 310.399, 407.334 312.128 C 406.418 312.882, 404.126 315.975, 402.241 319 C 400.356 322.025, 396.583 326.525, 393.857 329 C 390.635 331.925, 388.853 334.375, 388.767 336 C 388.694 337.375, 387.757 339.778, 386.685 341.340 C 384.742 344.171, 384.743 344.187, 386.864 346.308 C 389.470 348.914, 391.655 347.336, 392.136 342.500 C 392.333 340.515, 394.305 337.448, 397.967 333.434 C 406.421 324.165, 411.127 317.773, 410.568 316.317 C 409.358 313.164, 418.990 318.044, 423.125 322.679 C 424.019 323.680, 428.169 328.066, 432.347 332.424 C 436.525 336.782, 440.811 342.182, 441.871 344.424 C 445.034 351.114, 447.944 353.145, 455.180 353.717 C 467.529 354.693, 491.813 371.731, 490.576 378.552 C 490.111 381.119, 493.342 384.874, 494.460 383.065 C 496.179 380.283, 499.950 382.136, 505.551 388.515 C 508.892 392.321, 512.358 395.270, 513.885 395.608 C 519.190 396.781, 520.023 397.174, 520.977 398.957 C 521.873 400.631, 521.650 400.706, 518.226 399.882 C 516.177 399.388, 512.428 398.515, 509.896 397.941 C 506.840 397.248, 504.169 395.738, 501.950 393.449 C 500.112 391.552, 497.865 390, 496.958 390 C 496.050 390, 491.526 388.593, 486.904 386.873 C 482.282 385.152, 475.757 382.745, 472.403 381.523 C 461.353 377.495, 457.709 374.979, 459.716 372.762 C 462.469 369.719, 460.262 367.673, 452.894 366.442 C 445.995 365.290, 438.461 362.695, 427.671 357.757 C 420.940 354.676, 420.795 354.656, 417.617 356.367 C 414.531 358.029, 413.991 358.015, 404.984 356.050 C 391.983 353.212, 391.627 353.621, 395.889 366.475 C 398.110 373.172, 398.891 377.064, 398.467 379.323 C 397.771 383.035, 398.639 384.029, 406.500 388.516 C 409.250 390.086, 413.793 393.537, 416.597 396.185 C 422.189 401.468, 422.962 401.726, 426.425 399.457 C 428.668 397.988, 428.994 398.100, 433.306 401.832 C 437.201 405.203, 438.718 405.844, 444.198 406.431 C 452.129 407.280, 455.414 408.963, 449.184 408.985 C 444.469 409.001, 440.604 410.550, 441.531 412.050 C 442.878 414.229, 452.975 413.116, 455.591 410.500 C 458.077 408.014, 460 407.272, 460 408.800 C 460 409.240, 459.475 410.125, 458.833 410.767 C 457.143 412.457, 460.575 413.598, 462.513 411.989 C 466.122 408.994, 462.422 404.034, 456.527 403.965 C 454.862 403.945, 452.375 403.286, 451 402.500 C 449.625 401.714, 446.438 401.055, 443.917 401.035 C 439.822 401.004, 439.006 400.591, 436.243 397.153 C 432.141 392.048, 427.643 390.109, 425.146 392.368 C 422.508 394.756, 421.760 394.487, 416.292 389.189 C 413.561 386.543, 409.951 383.808, 408.270 383.112 C 405.126 381.810, 404.861 381.115, 400.310 362.255 C 399.769 360.010, 399.769 360.010, 404.440 362.076 C 408.200 363.740, 411.323 364.163, 420.453 364.248 C 428.658 364.324, 432.630 364.788, 434.812 365.927 C 447.894 372.749, 451.196 374.711, 456.315 378.702 C 459.513 381.195, 464.189 383.855, 466.706 384.612 C 469.223 385.370, 471.781 386.398, 472.391 386.898 C 473.906 388.138, 493.890 396, 495.529 396 C 496.254 396, 498.122 397.074, 499.682 398.386 C 502.779 400.992, 509.302 404, 511.856 404 C 512.743 404, 515.812 405.227, 518.678 406.727 C 523.887 409.455, 523.887 409.455, 526.443 407.053 C 531.860 401.965, 522.773 390, 513.492 390 C 512.685 390, 510.840 388.087, 509.392 385.750 C 505.372 379.262, 501.927 376, 499.093 376 C 497.212 376, 494.242 373.608, 487.531 366.689 C 475.345 354.125, 463.432 347.558, 453.239 347.786 C 450.551 347.847, 449.692 347.302, 448.343 344.680 C 443.488 335.241, 435.450 325.238, 427.210 318.380 C 415.270 308.443, 415.023 308.180, 410.500 300.533 C 401.196 284.803, 388.610 271.513, 377.603 265.795 C 374.707 264.290, 374.707 264.290, 377.438 263.605 C 380.954 262.723, 382.867 263.373, 389.100 267.567 C 391.905 269.455, 394.947 271, 395.858 271 C 396.770 271, 399.596 272.108, 402.139 273.461 C 404.682 274.815, 410.679 276.905, 415.467 278.105 C 424.171 280.288, 424.171 280.288, 421.531 282.394 C 418.031 285.187, 419.942 290.588, 425.614 293.935 C 431.844 297.611, 434.398 297.645, 438.859 294.112 C 441.027 292.395, 444.288 290.692, 446.106 290.329 C 447.925 289.965, 450.521 289.092, 451.876 288.389 C 454.170 287.199, 454.717 287.454, 459.761 292.064 C 463.690 295.655, 465.912 296.971, 467.840 296.848 C 469.303 296.755, 472.653 297.426, 475.285 298.339 C 481.146 300.374, 487.063 300.452, 493.568 298.582 C 496.281 297.803, 502.250 297.015, 506.833 296.832 C 516.090 296.463, 515.812 296.195, 519.473 309.006 C 520.181 311.484, 522.164 316.107, 523.880 319.279 C 525.596 322.450, 527 325.669, 527 326.432 C 527 328.108, 534.705 336.087, 545.337 345.419 C 549.648 349.202, 553.498 353.173, 553.894 354.243 C 554.756 356.572, 553.193 370.100, 551.906 371.450 C 551.408 371.973, 551 373.339, 551 374.488 C 551 375.636, 549.668 378.134, 548.041 380.038 C 544.446 384.243, 544.366 385.056, 547.274 387.787 C 552.465 392.664, 567.748 383.788, 568.677 375.357 C 568.923 373.118, 570.590 369.339, 572.649 366.348 C 576.705 360.459, 576.611 359.283, 571.512 352.086 C 569.725 349.564, 567.340 345.025, 566.213 342 C 562.075 330.891, 558.777 324.554, 553.451 317.478 C 545.877 307.414, 546.413 302.400, 554.411 308.500 C 556.214 309.875, 557.979 311, 558.333 311 C 561.006 311, 582.642 328.422, 594.610 340.212 C 598.986 344.522, 601.403 344.071, 598.410 339.503 C 596.883 337.172, 596.875 336.796, 598.317 335.202 C 600.231 333.087, 597.023 326.192, 593.373 324.574 C 591.712 323.838, 591.351 322.917, 591.608 320.074 C 591.785 318.108, 592.141 314.207, 592.398 311.405 C 592.967 305.207, 590.003 298.923, 587.492 301.006 C 586.707 301.658, 586.098 302.486, 586.140 302.846 C 586.347 304.619, 584.618 308, 583.506 308 C 582.031 308, 579.776 305.558, 580.543 304.791 C 581.101 304.233, 581.179 297.046, 580.669 293.197 C 580.470 291.697, 581.476 289.714, 583.558 287.507 C 588.467 282.302, 588.848 279.147, 584.983 275.694 C 583.238 274.135, 581.178 273.101, 580.405 273.398 C 578.708 274.049, 578.563 272.837, 580.149 271.251 C 582.571 268.829, 578.402 264.690, 575.473 266.609 C 574.113 267.501, 573 267.875, 573 267.441 C 573 265.922, 568.150 271.223, 567.001 273.999 C 565.794 276.912, 563.864 277.308, 561.740 275.077 C 560.735 274.022, 560.900 273.896, 562.609 274.410 C 564.980 275.124, 567.889 272.667, 566.031 271.519 C 565.337 271.090, 565.648 269.992, 566.920 268.374 C 567.996 267.007, 569.851 263.873, 571.044 261.410 C 572.633 258.127, 573.535 257.200, 574.424 257.937 C 576.097 259.326, 580 256.483, 580 253.876 C 580 252.356, 580.463 252.012, 581.900 252.468 C 583.987 253.131, 589.361 247.393, 588.284 245.651 C 587.964 245.132, 587.799 241.368, 587.918 237.287 C 588.132 229.938, 586.930 226.307, 584.732 227.666 C 584.160 228.019, 583.959 227.876, 584.286 227.346 C 584.614 226.816, 584.971 223.484, 585.081 219.941 C 585.359 210.977, 586.407 209.094, 589.501 212 C 592.166 214.505, 594.529 212.329, 595.608 206.375 C 595.891 204.819, 596.321 203.346, 596.564 203.102 C 596.808 202.859, 596.320 201.611, 595.480 200.330 C 594.641 199.048, 594.244 198, 594.599 198 C 594.954 198, 594.659 197.294, 593.942 196.430 C 593.226 195.567, 591.871 195.062, 590.931 195.308 C 586.759 196.399, 586.458 194.140, 590.257 190.249 C 592.316 188.141, 594 185.901, 594 185.273 C 594 184.644, 594.514 182.863, 595.141 181.315 C 600.174 168.904, 596.588 156.886, 584.718 146.380 C 579.110 141.416, 576.099 132.058, 577.927 125.271 C 578.685 122.457, 578.733 119.767, 578.078 116.851 C 577.463 114.114, 577.462 112.148, 578.075 111.410 C 579.075 110.205, 578.446 107.471, 576.631 105.139 C 576.048 104.391, 575.425 102.591, 575.246 101.139 C 574.475 94.881, 568.865 86.061, 557.421 73.115 C 555.177 70.577, 551.720 65.800, 549.740 62.500 C 545.374 55.227, 524.219 34.120, 518.299 31.131 C 506.986 25.418, 491.576 21, 482.964 21 C 478.056 21, 478.056 21, 475.900 15.990 C 473.902 11.344, 463.332 0, 461.002 -0 C 458.399 -0, 459.560 2.282, 464.091 6.076 C 471.185 12.016, 477.142 23.937, 473.105 24.115 C 468.552 24.316, 466.593 23.867, 462.794 21.748 C 459.745 20.047, 458.817 19.907, 457.556 20.953 C 454.960 23.108, 454.517 19.517, 456.903 15.657 C 461.210 8.688, 452.845 -0.906, 447.557 4.937 C 446.593 6.002, 446.124 7.391, 446.514 8.023 C 447.036 8.867, 445.719 8.984, 441.557 8.464 C 434.388 7.568, 431.416 9.746, 431.168 16.078 C 430.948 21.682, 429.574 23.748, 425.271 24.936 C 419.974 26.398, 415.405 22.366, 417.598 18.163 C 418.362 16.698, 418.990 14.636, 418.994 13.581 C 418.997 12.525, 420.342 9.284, 421.982 6.379 C 424.054 2.707, 424.613 0.879, 423.816 0.386 C 421.696 -0.924, 416.105 8.007, 414.583 15.134 C 414.077 17.502, 413.441 17.835, 408.260 18.440 C 400.849 19.305, 396.008 20.801, 393.500 23 C 392.400 23.965, 389.823 25.290, 387.774 25.947 C 383.483 27.320, 377.560 33.578, 374 40.500 C 372.676 43.075, 369.930 47.070, 367.898 49.378 C 365.867 51.686, 363.501 55.258, 362.641 57.316 C 360.495 62.452, 350.634 59.806, 346.221 52.909 C 339.770 42.827, 319.846 21.888, 316.194 21.352 C 315.441 21.242, 314.039 20.440, 313.079 19.571 C 309.535 16.364, 301.090 14.714, 291.418 15.338 C 284.997 15.753, 281.775 15.560, 280.418 14.682 C 279.363 13.998, 277.153 13.294, 275.507 13.116 C 273.850 12.937, 270.834 11.276, 268.754 9.397 C 266.686 7.528, 264.879 6, 264.739 6 C 264.598 6, 260.666 4.650, 256 3 C 245.659 -0.657, 246.479 -0.679, 241 3.398 M 122.440 23.260 C 120.206 25.042, 115.905 29.039, 112.881 32.143 C 109.238 35.881, 104.685 39.142, 99.386 41.806 C 88.727 47.165, 88.643 47.289, 90.400 55.121 C 91.186 58.630, 92.359 64.763, 93.006 68.751 C 94.613 78.667, 96.090 80.319, 102.296 79.147 C 106.953 78.267, 107.043 78.295, 105.387 80.125 C 103.673 82.019, 104.644 88.196, 107.193 91.618 C 109.308 94.458, 121.773 96.252, 126.595 94.411 C 131.137 92.676, 131.137 92.676, 134.226 95.764 C 137.314 98.853, 137.314 98.853, 131.670 100.494 C 128.566 101.396, 125.551 101.840, 124.969 101.481 C 123.353 100.482, 121 102.954, 121 105.652 C 121 107.288, 123.061 110.089, 127.438 114.402 C 134.920 121.774, 140.041 129.467, 149.474 147.500 C 157.724 163.273, 158.794 164.514, 165.898 166.548 C 172.876 168.545, 183.329 174.173, 188.168 178.538 C 195.162 184.847, 196.080 185.194, 201.851 183.717 C 210.324 181.549, 210.418 180.748, 203 173.852 C 199.425 170.528, 194.603 166.036, 192.284 163.868 C 169.621 142.686, 188.059 116.676, 231.858 108.042 C 237.555 106.919, 243.448 106, 244.953 106 C 248.092 106, 251 103.274, 251 100.331 C 251 96.015, 257.055 86.058, 261.567 82.954 C 269.586 77.437, 268.946 73, 260.131 73 C 257.408 73, 254.905 72.251, 253.051 70.879 C 250.363 68.893, 250.036 68.861, 247.869 70.379 C 244.857 72.489, 244.076 72.425, 244.680 70.117 C 244.989 68.934, 244.384 67.682, 243.054 66.751 C 240.936 65.267, 240.936 65.267, 244.470 58.488 C 247.150 53.346, 247.736 51.387, 246.896 50.375 C 246.053 49.359, 246.411 48.300, 248.394 45.943 C 253.153 40.288, 248.673 23, 242.448 23 C 241.786 23, 240.748 22.402, 240.141 21.670 C 238.142 19.261, 233.238 20.912, 229.909 25.114 C 226.365 29.590, 224.300 30.044, 223.421 26.541 C 222.303 22.086, 220.065 21.184, 217.632 24.208 C 214.346 28.291, 198.869 28.676, 191.725 24.853 C 189.737 23.789, 182.203 22.175, 175.226 21.319 C 169.995 20.677, 167.878 22.123, 168.608 25.837 C 169.390 29.814, 165.161 31.337, 155.517 30.551 C 149.570 30.067, 147.515 30.272, 145.577 31.541 C 143.040 33.204, 139 32.199, 139 29.906 C 139 29.337, 139.555 29.229, 140.250 29.663 C 142.251 30.913, 144.332 30.969, 145.728 29.811 C 147.390 28.431, 145.855 26.431, 142.485 25.586 C 141.147 25.250, 138.402 23.856, 136.386 22.487 C 131.358 19.075, 127.410 19.294, 122.440 23.260 M 236.659 24.767 C 235.647 24.995, 233.059 26.941, 230.909 29.091 C 228.759 31.241, 226.325 33, 225.500 33 C 224.675 33, 224 33.707, 224 34.571 C 224 35.434, 222.227 38.247, 220.059 40.821 C 207.916 55.241, 210.029 68.161, 224.995 70.999 C 230.044 71.957, 230.044 71.957, 233.772 67.912 C 239.094 62.139, 243.923 52.824, 242.644 50.798 C 241.889 49.600, 242.300 48.432, 244.322 46.029 C 247.880 41.801, 246.536 27, 242.594 27 C 242.079 27, 240.947 26.404, 240.079 25.676 C 239.210 24.948, 237.672 24.539, 236.659 24.767 M 126.500 25.979 C 125.400 26.472, 120.238 30.771, 115.030 35.532 C 109.821 40.294, 103.441 45.263, 100.851 46.576 C 95.005 49.538, 94.687 50.057, 95.850 54.727 C 96.367 56.802, 97.384 62.024, 98.109 66.332 C 99.427 74.163, 99.427 74.163, 103.806 73.506 C 109.519 72.650, 115.019 70.240, 122.914 65.136 C 136.721 56.208, 148.681 57.775, 155.496 69.403 C 161.805 80.168, 151.306 97.628, 134.392 104.503 C 128.927 106.724, 128.927 106.724, 132.214 110.808 C 134.021 113.055, 137.074 117.055, 138.999 119.697 C 140.923 122.338, 143.293 125.093, 144.266 125.818 C 145.238 126.544, 145.787 127.535, 145.486 128.022 C 145.186 128.509, 147.091 132.750, 149.720 137.448 C 152.349 142.146, 156.326 149.379, 158.557 153.521 C 160.788 157.664, 162.856 160.810, 163.153 160.514 C 163.450 160.217, 166.250 161.105, 169.375 162.487 C 176.137 165.478, 177.918 165.672, 175.655 163.171 C 174.745 162.165, 174 160.773, 174 160.078 C 174 159.191, 172.799 158.952, 169.979 159.278 C 167.768 159.533, 165.712 159.343, 165.410 158.855 C 165.109 158.367, 164.494 158.195, 164.044 158.473 C 163.595 158.751, 162.671 158.308, 161.991 157.489 C 161.311 156.670, 161.125 156, 161.578 156 C 162.030 156, 161.893 155.493, 161.273 154.873 C 160.506 154.106, 160.449 152.949, 161.095 151.251 C 161.733 149.572, 161.681 148.321, 160.935 147.422 C 160.326 146.688, 160.126 145.605, 160.490 145.016 C 160.854 144.426, 160.128 143.115, 158.877 142.101 C 156.653 140.300, 156.641 140.196, 158.380 137.542 C 159.359 136.049, 160.420 135.087, 160.738 135.405 C 161.056 135.723, 161.931 135.472, 162.682 134.849 C 163.434 134.225, 164.322 133.988, 164.656 134.322 C 164.990 134.656, 167.978 132.473, 171.295 129.471 C 177.327 124.012, 177.327 124.012, 180.508 126.438 C 183.688 128.864, 183.688 128.864, 190.594 121.857 C 200.814 111.488, 228.511 101, 245.675 101 C 245.854 101, 246 100.310, 246 99.467 C 246 96.661, 250.767 88.475, 255.405 83.317 C 260.888 77.218, 260.512 77.026, 242.500 76.699 C 229.898 76.471, 229.154 77.346, 235.083 85.421 C 238.432 89.982, 237.695 91.935, 232.838 91.369 C 231.112 91.169, 229.136 91.472, 228.448 92.044 C 226.495 93.664, 223.372 88.319, 223.259 83.165 C 223.206 80.781, 222.906 78.572, 222.591 78.257 C 222.275 77.942, 222.484 77.122, 223.054 76.435 C 223.832 75.498, 223.249 74.907, 220.724 74.074 C 206.850 69.495, 204.748 54.252, 216.128 40.740 C 220.519 35.525, 221.181 31.226, 217.500 31.826 C 206.228 33.665, 193.410 32.547, 188.123 29.263 C 183.161 26.182, 174.714 26.439, 172.904 29.726 C 170.524 34.050, 164.930 36.250, 155.539 36.556 C 151.118 36.700, 146.027 37.136, 144.226 37.526 C 138.854 38.688, 132.829 34.139, 133.212 29.210 C 133.525 25.175, 131.004 23.961, 126.500 25.979 M 300.500 40 C 298.300 41.018, 295.825 41.892, 295 41.941 C 290.773 42.193, 291.036 43.564, 297.912 57.113 C 307.372 75.758, 308.802 87.013, 305.074 113.500 C 303.913 121.753, 303.391 123.688, 300.493 130.500 C 298.791 134.500, 298.791 134.500, 301.194 132.265 C 304.057 129.602, 307.990 131.357, 308.013 135.307 C 308.020 136.513, 309.786 140.948, 311.938 145.163 C 316.025 153.166, 315.739 156, 310.846 156 C 310.022 156, 308.305 157.111, 307.029 158.469 C 305.753 159.827, 304.325 160.701, 303.855 160.410 C 303.385 160.120, 303 160.359, 303 160.941 C 303 161.944, 305.317 162.498, 307.500 162.016 C 310.797 161.289, 315.670 161.383, 316.686 162.193 C 317.439 162.794, 318.603 162.747, 319.875 162.067 C 323.991 159.864, 334.575 163.626, 333.785 167.012 C 333.628 167.684, 334.264 168.363, 335.198 168.521 C 336.623 168.762, 336.708 168.505, 335.725 166.932 C 334.732 165.341, 335.055 164.538, 337.856 161.648 C 340.883 158.525, 341.104 157.876, 340.503 153.867 C 339.344 146.141, 343.528 143.585, 348.074 149.240 C 349.957 151.583, 351.375 153.871, 351.224 154.324 C 351.074 154.778, 351.381 154.883, 351.906 154.558 C 352.432 154.233, 353.165 154.458, 353.535 155.057 C 353.965 155.752, 354.736 155.394, 355.664 154.070 C 356.807 152.437, 357.520 152.208, 358.998 152.999 C 360.255 153.671, 361.084 153.673, 361.498 153.003 C 361.839 152.451, 361.788 152, 361.385 152 C 360.981 152, 361.708 150.875, 363 149.500 C 365.707 146.618, 367.634 146.359, 370.058 148.552 C 371.633 149.978, 371.951 149.815, 373.968 146.551 C 377.818 140.322, 383 138.642, 383 143.622 C 383 145.945, 384.390 145.145, 386.789 141.442 C 389.298 137.570, 400.208 130.049, 408.039 126.795 C 411.897 125.192, 412.776 124.434, 411.942 123.430 C 411.131 122.453, 411.507 121.714, 413.465 120.431 C 415.915 118.826, 415.968 118.622, 414.394 116.883 C 412.363 114.639, 413.963 112.009, 417.372 111.985 C 420.883 111.959, 422.380 110.560, 420.535 109.029 C 418.355 107.219, 420.318 105.096, 423.795 105.503 C 425.545 105.708, 427.382 105.014, 429 103.537 C 433.593 99.345, 444.540 105.536, 440.475 110.027 C 438.342 112.384, 439.377 116.486, 441.840 115.440 C 442.753 115.052, 447.158 114.516, 451.629 114.248 C 459.759 113.762, 459.759 113.762, 459.206 108.131 C 458.902 105.034, 458.724 99.710, 458.811 96.299 C 458.897 92.889, 458.503 89.811, 457.936 89.460 C 457.236 89.028, 457.262 88.389, 458.018 87.478 C 458.853 86.472, 458.739 85.531, 457.563 83.737 C 456.700 82.419, 456.301 81.032, 456.678 80.655 C 457.055 80.278, 455.963 78.514, 454.251 76.735 C 451.062 73.419, 446.547 63.543, 447.509 61.986 C 447.804 61.509, 445.960 58.770, 443.412 55.901 C 439.215 51.176, 438.828 50.321, 439.296 46.828 C 440.026 41.387, 437.712 40.258, 430.698 42.636 C 423.830 44.963, 411.430 45.328, 408.326 43.294 C 406.947 42.391, 405.307 42.080, 404.258 42.524 C 403.291 42.933, 400.889 43.178, 398.921 43.070 C 396.079 42.912, 394.283 43.708, 390.200 46.936 C 387.373 49.171, 384.596 51, 384.029 51 C 381.255 51, 379 55.095, 379 60.134 C 379 87.787, 350.070 90.317, 337.425 63.769 C 336.197 61.192, 334.647 59.708, 332.408 58.970 C 330.626 58.382, 327.218 56.189, 324.834 54.097 C 322.450 52.005, 319.150 49.588, 317.500 48.727 C 315.850 47.865, 312.494 45.099, 310.042 42.580 C 307.590 40.061, 305.340 38.033, 305.042 38.074 C 304.744 38.115, 302.700 38.982, 300.500 40 M 496.649 54.645 C 497.001 57.315, 498.804 62.535, 500.655 66.245 C 502.506 69.955, 503.981 73.230, 503.934 73.524 C 503.886 73.818, 505.011 77.104, 506.433 80.826 C 509.830 89.713, 511.677 98.788, 513.134 113.732 C 514.412 126.844, 514.053 130.215, 509.857 144.500 C 507.288 153.246, 507.385 153.004, 505.264 155.950 C 503.661 158.177, 503.653 158.342, 505.177 157.760 C 507.367 156.923, 508.645 158.762, 508.469 162.500 C 508.391 164.150, 508.875 166.175, 509.545 167 C 511.578 169.503, 511.942 172.208, 511.130 178.802 C 510.231 186.112, 511.541 189.456, 514.381 187.099 C 515.259 186.370, 515.763 185.425, 515.500 185 C 514.090 182.718, 522.192 180.321, 523.990 182.488 C 525.377 184.160, 523.802 185.447, 519.845 185.875 C 519.143 185.951, 519.385 186.768, 520.464 187.960 C 521.440 189.038, 522.717 189.826, 523.302 189.710 C 523.888 189.595, 524.999 190.770, 525.773 192.323 C 526.617 194.019, 527.727 194.935, 528.553 194.618 C 529.308 194.328, 530.792 195.191, 531.849 196.535 C 533.771 198.979, 533.771 198.979, 533.532 192.241 C 533.227 183.671, 540.448 176, 548.820 176 C 551.362 176, 556.585 164.363, 557.380 156.932 C 557.707 153.869, 559.195 148.244, 560.687 144.432 C 564.343 135.086, 564.837 122.670, 561.689 119.228 C 559.850 117.218, 559.642 115.895, 559.880 107.722 C 560.183 97.291, 560.252 97.412, 550.517 91.133 C 536.818 82.296, 523.883 67.476, 522.036 58.503 C 521.446 55.637, 521.093 55.455, 513.960 54.341 C 506.565 53.186, 501.119 51.899, 497.755 50.510 C 496.189 49.864, 496.075 50.288, 496.649 54.645 M 535.336 54.669 C 536.359 55.693, 532.930 59, 530.845 59 C 523.829 59, 541.240 80.292, 552.311 85.250 C 557.544 87.594, 562.067 87.013, 558.027 84.517 C 557.491 84.186, 556.307 82.341, 555.394 80.418 C 554.481 78.495, 551.833 74.802, 549.509 72.211 C 547.184 69.620, 544.268 65.475, 543.029 63 C 540.567 58.086, 537.221 54, 535.659 54 C 535.113 54, 534.968 54.301, 535.336 54.669 M 131.838 64.396 C 129.824 65.115, 124.907 67.795, 120.911 70.352 C 116.915 72.908, 113.065 75, 112.354 75 C 111.644 75, 111.290 75.591, 111.567 76.313 C 111.844 77.035, 111.155 78.455, 110.035 79.468 C 102.929 85.899, 115.840 94.518, 126.489 90.451 C 130.875 88.776, 130.875 88.776, 135.837 92.959 C 141.831 98.013, 143.031 97.624, 149.031 88.686 C 159.568 72.987, 149.119 58.223, 131.838 64.396 M 370.997 82.504 C 369.530 84.272, 361.894 88, 359.741 88 C 356.815 88, 355.199 91.618, 356.049 96.266 C 356.473 98.585, 356.628 100.793, 356.394 101.172 C 356.159 101.552, 356.447 102.158, 357.032 102.520 C 357.783 102.984, 357.784 103.555, 357.036 104.456 C 356.271 105.379, 356.377 106.068, 357.418 106.932 C 358.211 107.590, 358.694 108.990, 358.492 110.043 C 358.289 111.096, 358.545 112.219, 359.061 112.538 C 359.578 112.857, 360 114.173, 360 115.462 C 360 116.960, 361.325 118.869, 363.671 120.751 C 367.299 123.661, 367.348 123.799, 367.794 132.305 C 368.407 143.976, 370.084 145.749, 376.265 141.261 C 379.369 139.007, 380.449 137.561, 380.310 135.843 C 380.027 132.356, 381.962 127, 383.505 127 C 386.446 127, 388.737 122.324, 388.260 117.296 C 387.859 113.079, 388.178 112.031, 390.902 108.612 C 392.606 106.474, 394 104.200, 394 103.559 C 394 101.174, 386.981 95.490, 384.446 95.823 C 382.618 96.062, 382 95.676, 382 94.294 C 382 93.277, 381.325 91.481, 380.500 90.304 C 379.675 89.126, 379.246 87.523, 379.546 86.741 C 380.633 83.908, 372.980 80.114, 370.997 82.504 M 376.667 92.654 C 376.208 93.119, 375.421 93.556, 374.917 93.625 C 374.413 93.694, 373.759 93.806, 373.465 93.875 C 373.170 93.944, 373.402 94.882, 373.979 95.960 C 374.855 97.598, 374.532 98.286, 372.014 100.148 C 369.539 101.977, 369 103.089, 369 106.359 C 369 108.629, 368.303 111.113, 367.379 112.134 C 365.739 113.946, 366.192 117.617, 367.924 116.547 C 370.002 115.262, 370.748 118.141, 371.795 131.500 C 372.500 140.500, 372.500 140.500, 374.786 138.214 C 376.044 136.956, 376.811 135.503, 376.490 134.984 C 374.799 132.247, 379.100 123.269, 382.323 122.810 C 384.281 122.531, 384.467 121.994, 384.175 117.482 C 383.893 113.124, 384.255 111.954, 386.925 108.594 C 391.316 103.069, 389.145 98.683, 382.836 100.333 C 380.601 100.917, 378.256 98.255, 377.834 94.654 C 377.650 93.089, 377.125 92.189, 376.667 92.654 M 462.637 95.226 C 461.542 99.310, 461.801 100.410, 463.519 98.984 C 464.762 97.953, 465.398 98.050, 467.025 99.523 C 470.333 102.516, 470.015 100.748, 466.523 96.726 C 463.360 93.083, 463.225 93.031, 462.637 95.226 M 565.597 101.299 C 564.627 107.639, 565.635 112.548, 567.577 110.936 C 568.346 110.298, 569.685 110.049, 570.553 110.382 C 572.432 111.103, 572.005 109.193, 568.567 101.500 C 566.332 96.500, 566.332 96.500, 565.597 101.299 M 433.250 105.703 C 432.563 105.958, 432 106.800, 432 107.575 C 432 108.349, 431.100 109.545, 430 110.232 C 428.900 110.919, 428 111.898, 428 112.407 C 428 112.917, 428.296 113.037, 428.658 112.675 C 429.020 112.313, 429.964 112.555, 430.756 113.212 C 432.938 115.024, 436.037 115.261, 435.387 113.566 C 435.089 112.791, 435.375 111.169, 436.021 109.961 C 437.333 107.510, 435.592 104.835, 433.250 105.703 M 270.982 121.048 C 269.617 122.097, 268.007 122.966, 267.405 122.978 C 266.803 122.990, 265.495 123.900, 264.500 125 C 262.609 127.089, 258.547 127.694, 257.524 126.038 C 257.167 125.461, 256.023 125.421, 254.664 125.938 C 253.418 126.412, 250.396 126.583, 247.949 126.319 C 243.820 125.873, 242.924 126.245, 235.500 131.489 C 226.375 137.934, 216.320 143.298, 210.349 144.906 C 198.909 147.986, 199.255 151.318, 211.670 157.656 C 223.102 163.491, 233.790 176.649, 236.364 188.055 C 237.701 193.980, 247.593 202.742, 250.138 200.255 C 252.380 198.063, 252.397 197.907, 250.826 193.669 C 248.950 188.608, 254.535 180.643, 260.844 179.381 C 266.794 178.191, 267.546 176.189, 265.656 166.569 C 262.674 151.390, 263.647 145.689, 271.594 131.797 C 276.279 123.605, 276.749 121.867, 274.732 120.193 C 273.816 119.432, 272.777 119.669, 270.982 121.048 M 175.882 129.750 C 175.816 130.162, 175.802 130.795, 175.850 131.155 C 176.039 132.579, 167.409 138.116, 164.500 138.438 C 163.950 138.499, 163.644 139.437, 163.821 140.524 C 163.997 141.611, 164.222 143.490, 164.321 144.700 C 164.549 147.504, 166.500 149.618, 167.446 148.087 C 168.406 146.534, 171.543 146.745, 172.965 148.458 C 173.944 149.638, 173.690 150.401, 171.633 152.458 C 169.091 155, 169.091 155, 171.961 155 C 174.962 155, 181 161.172, 181 164.239 C 181 165.671, 184.026 169, 185.329 169 C 186.857 169, 185.811 165.804, 182.967 161.785 C 181.299 159.428, 179.299 156.600, 178.522 155.500 C 177.143 153.548, 176.692 151.744, 175.034 141.519 C 174.087 135.686, 175.180 132.027, 178.097 131.264 C 179.674 130.852, 179.850 130.520, 178.835 129.877 C 177.169 128.821, 176.036 128.772, 175.882 129.750 M 571 132.763 C 571 133.953, 570.100 137.209, 569 140 C 566.458 146.450, 566.475 146.559, 569.635 144.073 C 571.084 142.933, 572.884 142, 573.635 142 C 575.298 142, 575.359 140.372, 573.864 135.899 C 572.389 131.489, 571 129.968, 571 132.763 M 238.287 137.803 C 235.324 140.217, 232.360 142.307, 231.700 142.448 C 230.493 142.705, 224.251 145.430, 216.115 149.250 C 211.730 151.309, 211.730 151.309, 214.697 152.905 C 220.042 155.779, 229.481 163.850, 231.426 167.209 C 235.250 173.812, 242.236 180.590, 244.058 179.464 C 244.378 179.266, 245.734 178.879, 247.070 178.603 C 253.026 177.376, 254.001 177.046, 256.494 175.412 C 258.409 174.157, 258.990 173.096, 258.604 171.557 C 256.229 162.095, 256.760 150.469, 259.882 143.592 C 261.607 139.793, 262.901 136.591, 262.759 136.478 C 256.756 131.684, 245.019 132.319, 238.287 137.803 M 302.153 139.750 C 302.278 141.930, 303.338 144.683, 304.684 146.327 C 308.244 150.672, 307.578 154.977, 303.245 155.634 C 302.555 155.739, 301.323 154.871, 300.506 153.706 C 298.833 151.316, 296.101 153.464, 296.032 157.224 C 296.014 158.172, 294.344 162.158, 292.321 166.080 C 290.297 170.002, 288.488 175.076, 288.300 177.356 C 288.111 179.635, 287.464 184.425, 286.862 188 C 286.259 191.575, 285.706 195.916, 285.632 197.646 C 285.558 199.376, 284.599 201.844, 283.499 203.129 C 282.400 204.414, 282.204 204.925, 283.065 204.264 C 284.622 203.068, 290.760 203.115, 292.739 204.339 C 293.311 204.692, 296.289 205.160, 299.359 205.378 C 308.721 206.045, 320.965 213.780, 326.600 222.589 C 328.484 225.534, 330.810 228.363, 331.770 228.877 C 335.270 230.750, 358.612 230.800, 357.458 228.932 C 357.095 228.344, 356.111 228.127, 355.273 228.449 C 352.957 229.337, 345.350 222.590, 343.977 218.430 C 342.105 212.758, 343.611 208.488, 351.572 196.895 C 355.658 190.946, 359 185.519, 359 184.837 C 359 181.375, 370.330 160.882, 375.361 155.244 C 379.638 150.451, 380.710 148.607, 380.248 146.842 C 379.662 144.601, 379.637 144.607, 377.578 147.469 C 372.203 154.941, 370.682 156.095, 368.009 154.726 C 363.836 152.588, 360.374 157.283, 363.683 160.592 C 364.957 161.867, 366 163.430, 366 164.066 C 366 165.378, 358.185 175, 357.119 175 C 356.095 175, 348.839 166.108, 348.614 164.578 C 348.509 163.858, 347.656 162.195, 346.720 160.884 C 345.783 159.573, 345.126 159.138, 345.259 159.918 C 345.466 161.138, 342.991 163.039, 339.500 164.342 C 338.915 164.560, 339.210 165.952, 340.209 167.693 C 341.748 170.374, 341.768 170.887, 340.403 172.836 C 338.343 175.776, 337.953 175.662, 332.134 170.431 C 326.986 165.802, 324.663 165.122, 318 166.289 C 316.625 166.530, 314.938 166.283, 314.250 165.741 C 313.408 165.077, 312.501 165.169, 311.473 166.022 C 310.130 167.137, 310.206 167.421, 312.111 168.395 C 313.302 169.003, 314.236 169.950, 314.187 170.500 C 314.138 171.050, 314.764 172.517, 315.579 173.760 C 316.700 175.471, 316.798 176.509, 315.983 178.031 C 315.392 179.137, 315.124 180.391, 315.388 180.818 C 315.652 181.246, 315.479 182.224, 315.005 182.993 C 314.444 183.899, 314.822 185.345, 316.079 187.111 C 321.597 194.860, 314.837 204.395, 307.201 199.632 C 306.341 199.095, 306.228 198.430, 306.869 197.658 C 307.506 196.890, 307.359 195.844, 306.434 194.579 C 305.555 193.377, 305.376 192.252, 305.953 191.557 C 307.244 190.001, 308.343 180.256, 307.084 181.519 C 306.547 182.059, 305.994 184.423, 305.857 186.773 C 305.152 198.795, 298.500 195.883, 298.500 183.553 C 298.500 174.588, 299.012 173.291, 302.781 172.716 C 304.496 172.454, 309.979 167.198, 308.823 166.923 C 306.130 166.285, 304.905 166.344, 304.415 167.138 C 303.604 168.450, 301.019 166.180, 299.863 163.140 C 298.933 160.695, 302.223 155.402, 303.992 156.495 C 304.378 156.734, 305.925 155.644, 307.429 154.074 C 308.959 152.477, 309.729 150.950, 309.176 150.609 C 308.632 150.273, 308.392 149.211, 308.641 148.249 C 308.890 147.287, 307.948 144.950, 306.547 143.056 C 305.146 141.161, 304 138.799, 304 137.806 C 304 136.813, 303.536 136, 302.969 136 C 302.401 136, 302.034 137.688, 302.153 139.750 M 111.709 141.656 C 106.910 145.259, 105.926 147.180, 109.998 145.001 C 114.469 142.608, 117.487 147.788, 113.867 151.641 C 111.963 153.669, 111.062 156.426, 110.810 161 C 110.765 161.825, 110.226 163.155, 109.614 163.956 C 108.988 164.775, 110.085 164.446, 112.118 163.206 C 114.108 161.993, 116.808 160.971, 118.118 160.937 C 120.483 160.874, 120.485 160.867, 118.315 159.993 C 115.316 158.784, 113.512 155.293, 114.976 153.529 C 116.399 151.814, 120.515 152.251, 122.851 154.365 C 125.327 156.606, 126.703 156.435, 124.630 154.143 C 122.875 152.204, 124.618 149.047, 126.499 150.759 C 126.947 151.166, 125.105 148.494, 122.407 144.819 C 116.597 136.909, 117.629 137.214, 111.709 141.656 M 574.500 145.343 C 573.400 145.935, 571.193 147.290, 569.596 148.354 C 567.316 149.872, 566.307 150.048, 564.904 149.172 C 562.757 147.831, 562.460 148.532, 561.119 158.101 C 560.610 161.731, 559.263 166.524, 558.126 168.753 C 556.324 172.285, 556.247 172.961, 557.530 174.025 C 558.338 174.696, 559 176.119, 559 177.187 C 559 181.809, 563.419 189.659, 569.127 195.177 C 572.357 198.300, 575 201.442, 575 202.159 C 575 202.877, 576.141 201.785, 577.536 199.732 C 578.931 197.679, 580.731 196, 581.536 196 C 582.341 196, 583 195.456, 583 194.792 C 583 194.128, 584.510 191.990, 586.355 190.042 C 590.416 185.756, 593.307 176.195, 593.117 167.686 C 592.895 157.738, 580.068 142.344, 574.500 145.343 M 458 147.045 C 456.075 147.494, 451.350 148.804, 447.500 149.958 C 441.891 151.638, 438.083 152.027, 428.332 151.918 C 414.869 151.766, 413.950 151.996, 414.562 155.368 C 415.145 158.582, 411.705 161.553, 407.866 161.150 C 404.108 160.756, 402.469 162.141, 399.306 168.383 C 396.400 174.118, 387.274 184.129, 381.750 187.641 C 378.913 189.444, 377.999 190.692, 377.996 192.763 C 377.992 195.701, 375.209 200.954, 371.512 205 C 370.073 206.574, 369.283 208.611, 369.379 210.500 C 369.462 212.150, 368.961 214.388, 368.265 215.473 C 367.569 216.557, 367 218.150, 367 219.011 C 367 219.872, 366.109 222.325, 365.020 224.460 C 362.065 230.257, 363.343 231.157, 374.198 230.918 C 379.070 230.811, 383.344 231.011, 383.695 231.362 C 384.046 231.713, 385.023 232, 385.867 232 C 387.059 232, 387.133 231.733, 386.200 230.800 C 381.862 226.462, 387.655 222.082, 393.028 225.637 C 396.257 227.774, 397.100 227.955, 398.822 226.879 C 400.457 225.858, 401.144 225.875, 402.460 226.967 C 403.861 228.130, 404.522 227.886, 407.318 225.176 C 409.099 223.451, 412.118 221.735, 414.027 221.364 C 415.937 220.993, 418.593 219.844, 419.929 218.810 C 422.848 216.551, 424.847 217.880, 425.215 222.324 C 425.476 225.478, 428.413 228.758, 429.460 227.065 C 430.471 225.429, 433.527 225.800, 435.112 227.750 C 437.857 231.129, 436.233 234.794, 430.730 237.640 C 428.195 238.951, 427.755 240.380, 429.833 240.556 C 432.181 240.755, 437.689 242.383, 438.663 243.166 C 439.446 243.795, 440.687 243.185, 442.462 241.300 C 445.099 238.500, 445.099 238.500, 447.564 241.322 C 448.919 242.875, 449.790 244.531, 449.498 245.003 C 449.206 245.475, 449.537 246.190, 450.234 246.591 C 450.930 246.992, 451.180 246.966, 450.790 246.534 C 450.399 246.101, 450.735 244.479, 451.536 242.930 C 452.406 241.248, 452.609 239.876, 452.040 239.525 C 451.516 239.201, 451.327 238.312, 451.620 237.549 C 451.912 236.786, 451.518 235.113, 450.743 233.831 C 449.243 231.349, 449.122 230.140, 450.205 228.443 C 451.001 227.195, 450.764 225.013, 449.636 223.206 C 449.178 222.473, 449.351 221.282, 450.036 220.456 C 450.981 219.318, 450.981 218.682, 450.034 217.541 C 449.307 216.665, 449.083 214.901, 449.473 213.125 C 449.830 211.499, 449.674 209.343, 449.127 208.334 C 448.580 207.325, 447.680 201.040, 447.126 194.366 C 445.513 174.905, 448.717 163.079, 459.215 149.750 C 460.839 147.688, 462.018 146.052, 461.834 146.115 C 461.650 146.178, 459.925 146.597, 458 147.045 M 96.389 154.960 C 92.784 158.428, 91.590 160.190, 92.339 160.939 C 93.912 162.512, 94.557 162.289, 97.788 159.058 C 99.864 156.982, 101.358 156.281, 102.865 156.675 C 105.282 157.307, 105.530 156.257, 103.839 152.547 C 102.328 149.230, 102.354 149.222, 96.389 154.960 M 349.755 157.578 C 349.435 157.898, 350.975 161.035, 353.178 164.548 C 357.183 170.936, 357.183 170.936, 359.592 168.074 C 363.232 163.748, 362.660 161.188, 358.829 164.655 C 356.653 166.624, 351.928 163.672, 353.976 161.624 C 354.539 161.061, 355 160.165, 355 159.633 C 355 159.102, 354.699 158.968, 354.331 159.336 C 353.963 159.703, 352.914 159.327, 352 158.500 C 351.086 157.673, 350.076 157.258, 349.755 157.578 M 129.583 158.750 C 128.820 159.513, 128.291 159.653, 125.333 159.875 C 124.417 159.944, 123.968 160.301, 124.336 160.669 C 125.620 161.954, 121.665 165, 118.713 165 C 117.076 165, 114.199 165.950, 112.320 167.111 C 109.165 169.061, 108.767 169.099, 107.123 167.611 C 104.904 165.603, 103.607 165.534, 104.348 167.464 C 104.691 168.360, 103.764 169.744, 101.959 171.029 C 99.009 173.130, 99.009 173.130, 96.924 169.596 C 94.679 165.790, 89.517 164.961, 86.737 167.961 C 85.729 169.047, 85.851 169.170, 87.395 168.623 C 90.334 167.582, 93.103 170.598, 91.962 173.599 C 91.460 174.919, 91.376 176.015, 91.775 176.033 C 92.174 176.052, 91.441 176.949, 90.146 178.028 C 88.851 179.107, 87.389 179.740, 86.896 179.436 C 85.573 178.618, 85.836 183.943, 87.331 188.234 C 88.155 190.602, 90.345 193.304, 93.316 195.618 C 97.871 199.167, 98.438 200.033, 98.052 202.850 C 97.950 203.593, 98.281 203.944, 98.788 203.631 C 100.371 202.652, 104.448 207.751, 103.257 209.221 C 102.687 209.924, 101.961 213.373, 101.644 216.884 C 101.292 220.784, 100.410 223.994, 99.379 225.133 C 98.451 226.159, 97.635 228.011, 97.566 229.249 C 97.497 230.487, 97.090 232.063, 96.661 232.750 C 96.233 233.438, 96.141 234.419, 96.457 234.931 C 96.774 235.443, 96.568 236.149, 96 236.500 C 95.432 236.851, 95.195 237.506, 95.473 237.956 C 95.751 238.405, 95.308 239.329, 94.489 240.009 C 92.300 241.826, 92.646 243.286, 96.032 246.530 C 98.489 248.885, 98.962 250.010, 98.527 252.467 C 98.111 254.817, 98.191 255.042, 98.883 253.465 C 101.467 247.578, 106.900 248.862, 107.090 255.405 C 107.180 258.500, 107.180 258.500, 108.129 255.212 C 108.651 253.402, 110.311 251.154, 111.822 250.212 C 113.504 249.163, 114.429 247.823, 114.210 246.751 C 114.014 245.789, 114.768 243.840, 115.885 242.420 C 117.883 239.879, 117.004 235.261, 114.784 236.634 C 114.335 236.911, 114.244 237.585, 114.582 238.132 C 116.186 240.729, 111.792 243.153, 109.457 240.959 C 104.408 236.216, 108.764 221.761, 113.854 226.368 C 114.919 227.331, 116.642 227.751, 118.299 227.451 C 121.772 226.821, 125.314 231.865, 124.652 236.500 C 124.344 238.663, 125.184 241.095, 127.664 245.216 C 129.556 248.360, 131.027 251.510, 130.933 252.216 C 130.608 254.667, 131.005 256.115, 131.856 255.589 C 134.002 254.263, 139.180 262.975, 138.531 266.819 C 137.651 272.023, 139.508 277.055, 140.543 272.272 C 142.117 264.995, 149.500 266.028, 149.500 273.526 C 149.500 277.966, 148.351 280.301, 146.637 279.342 C 145.792 278.870, 145.790 279.021, 146.629 279.932 C 148.260 281.703, 156.375 278.864, 156.853 276.354 C 157.726 271.773, 160.117 270.738, 163.138 273.632 C 165.183 275.592, 166.271 276.027, 167.214 275.264 C 167.921 274.692, 171.875 274.190, 176 274.148 C 180.125 274.107, 184.400 273.866, 185.500 273.613 C 186.600 273.360, 188.118 273.119, 188.872 273.077 C 189.823 273.024, 189.944 272.616, 189.267 271.750 C 187.643 269.675, 187.114 266.047, 188.326 265.298 C 190.043 264.238, 193.011 264.209, 193.653 265.247 C 193.965 265.753, 195.019 264.854, 195.994 263.250 C 197.824 260.241, 198.629 259.965, 205.628 259.953 C 209.757 259.946, 209.757 259.946, 210.225 254.304 C 210.601 249.769, 211.214 248.213, 213.346 246.379 C 214.959 244.992, 216 243.070, 216 241.482 C 216 240.045, 216.429 238.068, 216.952 237.089 C 218.031 235.073, 215.788 231, 213.598 231 C 209.613 231, 206.709 221.479, 209.832 218.652 C 212.072 216.625, 216.410 219.319, 218.112 223.794 C 218.843 225.718, 219.353 226.047, 220.237 225.163 C 220.877 224.523, 222.102 224, 222.959 224 C 223.817 224, 225.081 223.100, 225.768 222 C 226.455 220.900, 227.738 220, 228.620 220 C 229.926 220, 230.097 219.306, 229.544 216.250 C 228.540 210.700, 225.832 204.984, 224.578 205.772 C 223.985 206.144, 222.510 206.586, 221.299 206.752 C 220.089 206.919, 217.624 207.675, 215.823 208.432 C 212.726 209.735, 212.348 209.652, 208.880 206.905 C 206.863 205.307, 204.655 204, 203.974 204 C 203.293 204, 201.209 203.056, 199.343 201.903 C 197.476 200.749, 195.300 200.055, 194.507 200.359 C 193.713 200.664, 192.782 200.456, 192.437 199.898 C 191.623 198.581, 186.016 199.767, 183.795 201.726 C 182.742 202.654, 180.790 203.078, 178.695 202.833 C 175.832 202.499, 175.374 202.716, 175.769 204.224 C 176.280 206.178, 174.253 209.275, 172.979 208.487 C 172.542 208.217, 169.906 209.797, 167.122 211.998 C 164.337 214.199, 161.426 216, 160.652 216 C 158.643 216, 156.861 218.474, 157.559 220.292 C 157.885 221.143, 157.471 222.887, 156.638 224.169 C 154.749 227.078, 154.604 237.427, 156.432 238.943 C 157.140 239.531, 157.507 241.127, 157.247 242.490 C 156.986 243.852, 157.123 245.762, 157.550 246.733 C 157.978 247.705, 158.405 248.725, 158.500 249 C 158.595 249.275, 159.033 250.322, 159.473 251.328 C 161.010 254.836, 157.782 256.461, 155.051 253.554 C 152.714 251.067, 152.714 251.067, 149.822 253.127 C 146.750 255.314, 142.551 254.049, 144.944 251.656 C 145.649 250.951, 145.515 250.122, 144.519 249.021 C 143.720 248.138, 142.904 245.860, 142.706 243.958 C 142.238 239.464, 141.077 236.902, 138.549 234.783 C 137.422 233.839, 136.893 233.052, 137.372 233.033 C 137.852 233.015, 137.672 232.309, 136.971 231.465 C 135.461 229.646, 145.418 219.712, 147.895 220.567 C 149.862 221.246, 152.873 218.231, 152.324 216.132 C 152.022 214.974, 153.460 212.909, 156.559 210.053 C 161.047 205.915, 161.207 205.582, 160.230 202.399 C 159.230 199.140, 160.644 195.978, 162.342 197.675 C 162.704 198.037, 163 197.638, 163 196.789 C 163 194.675, 160.390 192.559, 159.520 193.968 C 159.158 194.553, 158.330 194.699, 157.681 194.292 C 157.031 193.884, 155.386 193.398, 154.025 193.211 C 150.596 192.740, 149.114 191.278, 149.720 188.963 C 150.127 187.408, 149.726 187, 147.791 187 C 142.317 187, 139.853 181.807, 143.514 177.986 C 146.724 174.635, 145.279 171.169, 137.372 163.250 C 132.132 158.001, 130.991 157.342, 129.583 158.750 M 498.109 169.467 C 495.705 173.434, 492.488 176.622, 486.388 181.082 C 477.608 187.502, 476.368 189.433, 477.287 195.263 C 477.567 197.043, 477.358 202.214, 476.822 206.753 C 475.790 215.489, 476.781 221.318, 479.473 222.351 C 482.906 223.669, 485.118 233.359, 482.739 236.661 C 481.135 238.887, 484.159 239.174, 496.467 237.964 C 508.833 236.748, 508.833 236.748, 508.279 233.335 C 507.582 229.036, 511.150 224.475, 514.012 226.006 C 516.341 227.253, 518.536 224.673, 519.442 219.624 C 520.187 215.473, 518.468 209.592, 516.810 210.617 C 515.466 211.448, 511 207.025, 511 204.865 C 511 203.882, 512.965 200.665, 515.367 197.717 C 519.224 192.981, 519.577 192.143, 518.398 190.529 C 517.124 188.787, 516.970 188.814, 515.092 191.101 C 513.121 193.500, 513.121 193.500, 509.389 189.691 C 505.722 185.948, 504.254 181.609, 505.957 179.546 C 508.115 176.933, 508.177 171.470, 506.070 169.564 C 504.932 168.533, 504 166.860, 504 165.845 C 504 162.402, 501.435 163.980, 498.109 169.467 M 23.042 183.750 C 23.186 190.245, 22.652 192.777, 20.733 194.695 C 18.920 196.509, 16 195.079, 16 192.378 C 16 191.620, 15.640 191, 15.201 191 C 14.761 191, 14.586 192.581, 14.812 194.514 C 15.037 196.446, 14.714 198.639, 14.094 199.387 C 11.554 202.448, 14.065 204.312, 16.974 201.525 C 19.610 198.999, 19.749 198.976, 21.873 200.713 C 26.249 204.290, 23.283 216, 18.002 216 C 15.849 216, 16.597 220.209, 19.550 224.717 C 20.529 226.210, 20.931 228.141, 20.566 229.594 C 20.234 230.917, 20.384 232, 20.899 232 C 21.415 232, 22.567 232.280, 23.459 232.623 C 24.352 232.965, 25.010 232.853, 24.922 232.373 C 24.835 231.893, 24.834 231.275, 24.921 231 C 25.008 230.725, 25.224 228.146, 25.401 225.269 C 25.771 219.249, 27.494 216.335, 29.633 218.110 C 30.385 218.734, 31 219.032, 31 218.772 C 31 217.642, 28.628 211.395, 27.791 210.320 C 27.285 209.671, 26.848 203.146, 26.819 195.820 C 26.790 188.494, 26.353 181.713, 25.848 180.750 C 24.186 177.583, 22.935 178.920, 23.042 183.750 M 161.016 186.971 C 159.951 188.961, 161.158 190.638, 162.887 189.570 C 163.374 189.269, 164.329 189.692, 165.009 190.511 C 165.689 191.330, 165.949 192, 165.587 192 C 164.483 192, 167.199 196.416, 169.159 197.807 C 170.171 198.525, 171 199.788, 171 200.612 C 171 201.586, 171.852 201.128, 173.430 199.306 C 175.381 197.054, 176.112 196.747, 177.130 197.750 C 178.878 199.470, 180.783 199.316, 183.422 197.240 C 186.900 194.504, 184.990 191.046, 179.986 191.015 C 177.750 191.002, 173.455 189.630, 164.768 186.156 C 162.441 185.225, 161.885 185.346, 161.016 186.971 M 310.114 191.363 C 308.487 193.324, 311.678 197.512, 313.590 195.925 C 315.531 194.315, 315.355 192.703, 313.085 191.285 C 311.584 190.348, 310.943 190.364, 310.114 191.363 M 85.457 198.931 C 85.774 199.443, 85.574 200.145, 85.014 200.492 C 83.904 201.177, 85.473 205.068, 86.780 204.872 C 87.176 204.812, 87.725 204.851, 88 204.958 C 90.193 205.813, 91.915 205.660, 91.341 204.662 C 89.306 201.127, 86.740 198, 85.873 198 C 85.328 198, 85.141 198.419, 85.457 198.931 M 516.557 201.223 C 515.701 202.445, 515 204.192, 515 205.106 C 515 206.731, 515.377 206.813, 523.644 206.993 C 528.028 207.089, 528.992 212.982, 524.628 213.006 C 523.971 213.010, 523.444 214.972, 523.365 217.703 C 523.231 222.393, 523.231 222.393, 526.069 218.947 C 530.107 214.045, 535.851 198.219, 532.620 200.900 C 531.702 201.662, 530.665 201.999, 530.316 201.649 C 529.966 201.299, 529.120 201.811, 528.437 202.786 C 525.798 206.554, 517.265 204.891, 518.545 200.859 C 519.340 198.352, 518.454 198.514, 516.557 201.223 M 589.872 200.110 C 589.125 202.422, 590.401 209.653, 591.309 208.250 C 591.754 207.563, 591.878 207, 591.584 207 C 591.290 207, 591.460 205.922, 591.961 204.603 C 592.586 202.958, 592.472 201.661, 591.597 200.463 C 590.588 199.083, 590.228 199.009, 589.872 200.110 M 273.154 212.250 C 271.536 214.588, 269.040 217.591, 267.606 218.924 C 266.173 220.258, 265 221.790, 265 222.329 C 265 222.869, 265.872 222.521, 266.937 221.557 C 268.002 220.593, 269.313 220.076, 269.851 220.408 C 270.919 221.068, 279.121 209.454, 278.221 208.554 C 277.046 207.379, 275.995 208.146, 273.154 212.250 M 285.673 210.970 C 277.657 212.520, 273.605 222.991, 277.073 233.196 C 278.110 236.247, 278.503 238.878, 277.998 239.390 C 277.490 239.905, 278.465 241.260, 280.310 242.603 C 284.177 245.418, 295 251.237, 295 250.501 C 295 250.211, 296.630 250.654, 298.622 251.487 C 303.680 253.600, 316.356 253.638, 313.347 251.531 C 309.920 249.130, 309.788 246.287, 312.998 244.001 C 319.007 239.723, 327.109 245.908, 322.364 251.150 C 320.293 253.439, 322.186 254.381, 329 254.453 C 333.500 254.500, 333.500 254.500, 333.208 249 C 332.461 234.914, 322.592 220.365, 309.818 214.517 C 301.464 210.692, 293.306 209.494, 285.673 210.970 M 546.783 211.750 C 539.649 219.930, 544.088 235, 553.632 235 C 555.033 235, 556.957 235.960, 557.907 237.134 C 559.983 239.697, 568 233.334, 568 229.123 C 568 227.920, 568.637 225.411, 569.416 223.547 C 572.523 216.112, 565.801 215.550, 562.036 222.930 C 560 226.919, 558.400 228, 554.525 228 C 551.283 228, 549.177 219.245, 552 217.500 C 553.382 216.646, 553.256 212.656, 551.800 211.200 C 550.130 209.530, 548.571 209.701, 546.783 211.750 M 419.271 224.129 C 418.650 224.750, 416.553 225.355, 414.612 225.473 C 410.365 225.730, 407.691 227.712, 408.325 230.134 C 408.580 231.109, 408.175 232.715, 407.426 233.704 C 405.423 236.344, 405.687 237, 408.750 237.001 C 410.262 237.001, 413.822 237.883, 416.659 238.962 C 421.106 240.652, 421.983 240.725, 423.008 239.491 C 423.662 238.703, 426.139 236.772, 428.513 235.199 C 431.683 233.100, 432.597 231.966, 431.956 230.929 C 431.286 229.845, 430.810 229.790, 429.905 230.695 C 428.424 232.176, 420.663 226.321, 421.436 224.306 C 422.052 222.701, 420.801 222.599, 419.271 224.129 M 475.063 223.782 C 474.944 226.196, 477.957 232.145, 478.979 231.513 C 480.505 230.570, 480.210 228.295, 478.476 227.629 C 477.638 227.308, 476.541 226.022, 476.039 224.772 C 475.537 223.522, 475.098 223.077, 475.063 223.782 M 148 225.875 C 144.589 227.296, 142 229.586, 142 231.182 C 142 233.716, 143.723 234.307, 146.153 232.605 C 147.568 231.615, 148.872 231.396, 149.945 231.970 C 151.340 232.717, 151.522 232.341, 151.180 229.414 C 150.732 225.578, 150.182 224.966, 148 225.875 M 223.500 227.925 C 221.305 229.227, 220.570 230.348, 220.762 232.102 C 221.108 235.260, 221.089 235.800, 220.472 240.500 C 219.947 244.500, 219.947 244.500, 221.936 239.594 C 223.030 236.896, 223.685 234.300, 223.392 233.826 C 223.099 233.352, 223.828 231.397, 225.011 229.482 C 226.195 227.567, 227.014 226.033, 226.832 226.073 C 226.649 226.113, 225.150 226.947, 223.500 227.925 M 389 227.927 C 389 228.452, 389.489 229.184, 390.087 229.554 C 390.685 229.923, 390.945 231.102, 390.665 232.174 C 390.080 234.409, 390.521 234.608, 398 235.481 C 402.424 235.998, 403.255 235.876, 402.250 234.862 C 401.563 234.168, 401 232.790, 401 231.800 C 401 229.734, 399.917 229.483, 398.240 231.160 C 397.361 232.039, 396.105 231.673, 393.040 229.645 C 390.818 228.175, 389 227.401, 389 227.927 M 517.528 229.388 C 515.893 230.696, 513.977 231.545, 513.270 231.273 C 512.311 230.905, 512.083 231.875, 512.372 235.085 C 512.646 238.128, 513.308 239.605, 514.630 240.124 C 518.821 241.772, 518.720 241.959, 520.266 229.750 C 520.458 228.238, 520.589 227.002, 520.557 227.005 C 520.526 227.008, 519.162 228.080, 517.528 229.388 M 561.025 229.474 C 558.904 231.731, 558.853 232.007, 560.451 232.620 C 562.365 233.354, 563.960 231.607, 563.985 228.750 C 564.005 226.477, 563.791 226.529, 561.025 229.474 M 194.350 236.467 C 191.847 238.220, 192.026 243.267, 194.696 246.216 C 195.628 247.246, 196.563 249.082, 196.774 250.295 C 196.985 251.508, 197.261 253.067, 197.389 253.760 C 198.115 257.712, 203.377 256.768, 205.043 252.387 C 205.803 250.388, 205.713 249.317, 204.684 248.110 C 203.833 247.112, 203.564 245.550, 203.977 244 C 205.436 238.517, 198.817 233.338, 194.350 236.467 M 376 235.972 C 376 236.572, 376.788 237.307, 377.750 237.605 C 381.997 238.922, 391.612 243.685, 393.945 245.628 C 395.350 246.798, 398.750 248.732, 401.500 249.926 C 412.035 254.498, 419.271 258.600, 425.050 263.277 C 431.355 268.378, 431.822 268.519, 439 267.487 C 446.077 266.469, 453.210 262.298, 450.819 260.575 C 444.294 255.875, 438.132 252, 437.182 252 C 436.504 252, 432.806 250.417, 428.964 248.482 C 418.513 243.219, 412.453 241.286, 402.500 240.041 C 397.550 239.422, 391.700 238.471, 389.500 237.927 C 387.300 237.383, 383.921 236.820, 381.990 236.676 C 380.060 236.532, 377.922 236.070, 377.240 235.648 C 376.543 235.217, 376 235.359, 376 235.972 M 247.483 240.027 C 247.097 240.652, 247.737 241.828, 248.908 242.648 C 250.077 243.467, 250.762 244.576, 250.431 245.112 C 250.099 245.649, 250.338 246.703, 250.962 247.455 C 252.093 248.817, 251.128 250.077, 248.500 250.669 C 243.118 251.883, 242.131 251.863, 241.012 250.514 C 239.950 249.234, 239.292 249.438, 236.164 252.017 C 234.173 253.658, 232.062 255, 231.472 255 C 228.838 255, 228.088 257.270, 229.697 260.381 C 230.574 262.076, 231.253 264.809, 231.206 266.452 C 231.159 268.096, 231.594 270.011, 232.172 270.708 C 232.751 271.405, 232.997 272.565, 232.720 273.287 C 232.018 275.118, 243.006 269.767, 245.405 267.110 C 246.453 265.949, 247.915 265, 248.655 265 C 249.395 265, 250 264.550, 250 264 C 250 263.450, 248.720 263, 247.155 263 C 241.695 263, 240.056 259.483, 243.780 255.759 C 246.942 252.597, 246.942 252.597, 249.365 254.874 C 250.914 256.328, 252.029 256.762, 252.454 256.075 C 253.417 254.517, 256.553 254.757, 258 256.500 C 258.959 257.656, 258.974 258.326, 258.065 259.421 C 256.218 261.647, 259.905 260.343, 263.378 257.542 C 266.256 255.221, 266.256 255.221, 258.060 247.361 C 249.100 238.767, 248.514 238.360, 247.483 240.027 M 147.318 244.614 C 147.020 245.390, 147.315 246.675, 147.973 247.468 C 149.424 249.216, 153 247.467, 152.999 245.009 C 152.998 243.053, 148.049 242.709, 147.318 244.614 M 118.285 246.983 C 118.915 249.393, 117.287 251.940, 114.419 253.031 C 112.800 253.646, 112 254.734, 112 256.320 C 112 260.382, 108.609 262.629, 105.526 260.609 C 104.137 259.699, 103 258.220, 103 257.322 C 103 255.821, 102.853 255.823, 101.171 257.345 C 100.165 258.255, 98.815 259, 98.171 259 C 96.655 259, 96.695 260.007, 98.375 264.128 C 99.132 265.983, 100.069 270.866, 100.458 274.980 C 101.349 284.384, 101.361 284.400, 105.124 280.884 C 107.595 278.576, 108.544 278.207, 109.650 279.124 C 111.822 280.927, 112.537 279.250, 110.537 277.041 C 109.421 275.808, 108.934 274.123, 109.237 272.541 C 109.515 271.088, 109.142 269.533, 108.360 268.884 C 106.381 267.241, 106.652 266.161, 110 262.347 C 111.650 260.468, 113 258.341, 113 257.620 C 113 256.304, 116.086 253, 117.316 253 C 118.707 253, 122.943 260.986, 122.359 262.508 C 122.007 263.424, 122.610 265.036, 123.778 266.301 C 124.894 267.510, 126.522 270.232, 127.394 272.348 C 128.266 274.465, 130.110 277.085, 131.490 278.171 C 134.668 280.671, 134.647 282.285, 131.381 286.567 C 128.069 290.910, 129.433 290.914, 138.352 286.590 C 145.203 283.267, 145.203 283.267, 142.992 281.207 C 141.776 280.074, 140.227 279.359, 139.551 279.619 C 136.727 280.703, 134.754 276.099, 134.751 268.417 C 134.749 263.516, 134.598 263.243, 130.546 260.795 C 126.671 258.454, 126.367 257.965, 126.640 254.497 C 126.877 251.484, 126.445 250.351, 124.459 248.789 C 123.096 247.717, 122.202 246.482, 122.472 246.045 C 122.742 245.608, 121.809 245.250, 120.398 245.250 C 118.456 245.250, 117.942 245.672, 118.285 246.983 M 452.624 248.799 C 452.216 249.460, 452.141 250.419, 452.458 250.932 C 452.774 251.444, 452.026 252.569, 450.794 253.432 C 448.585 254.979, 448.581 255.018, 450.527 256.382 C 451.612 257.141, 452.725 257.921, 453 258.113 C 455.269 259.703, 458.256 254.897, 456.321 252.770 C 455.184 251.522, 454.055 249.847, 453.810 249.049 C 453.482 247.978, 453.172 247.912, 452.624 248.799 M 116 259.840 C 116 260.394, 114.920 262.130, 113.600 263.699 C 111.524 266.166, 111.379 266.798, 112.531 268.373 C 113.263 269.375, 113.618 270.831, 113.319 271.610 C 113.021 272.388, 113.373 273.745, 114.102 274.623 C 116.093 277.022, 116.287 280.914, 114.548 283.567 C 112.387 286.864, 112.237 286.780, 119.989 286.620 C 128.881 286.437, 132.444 283.256, 127.659 279.770 C 126.197 278.705, 124.999 277.308, 124.997 276.667 C 124.996 276.025, 123.428 272.902, 121.513 269.726 C 119.599 266.551, 118.137 263.001, 118.266 261.837 C 118.395 260.673, 117.938 259.521, 117.250 259.277 C 116.563 259.033, 116 259.286, 116 259.840 M 211.553 262.914 C 211.185 263.509, 208.619 263.897, 205.848 263.776 C 201.247 263.576, 200.578 263.841, 198.135 266.835 C 196.249 269.146, 194.948 269.917, 193.729 269.450 C 191.142 268.457, 191.642 270.291, 194.750 273.198 C 198.401 276.612, 214.631 278.739, 215.525 275.920 C 216.919 271.530, 213.383 259.953, 211.553 262.914 M 50 272.126 C 44.500 279.963, 44.500 279.963, 44.500 288.827 C 44.500 294.585, 44.049 298.234, 43.212 299.243 C 42.504 300.097, 41.761 301.629, 41.561 302.648 C 40.826 306.398, 37.467 313.707, 32.898 321.500 C 26.188 332.943, 25.232 336.721, 27.347 343.431 C 29.129 349.086, 28.587 352.588, 25.382 356.130 C 24.309 357.316, 23.985 359.631, 24.202 364.560 C 24.500 371.357, 24.500 371.357, 30.424 363.928 C 38.668 353.592, 44.655 347.501, 50.500 343.504 C 60.875 336.410, 63.429 333.660, 61.908 331.225 C 59.601 327.530, 64.691 324.505, 68.069 327.563 C 69.485 328.844, 69.891 328.778, 71.493 327.008 C 72.492 325.904, 73.015 324.944, 72.655 324.875 C 72.295 324.806, 71.573 324.694, 71.050 324.625 C 68.447 324.283, 67.657 322.036, 69.445 320.061 C 72.286 316.922, 70.781 314.442, 67.385 316.667 C 64.393 318.628, 61.746 316.463, 59.339 310.087 C 57.328 304.759, 63.899 298.896, 68.008 302.353 C 73.274 306.784, 79.113 301.349, 75.026 295.821 C 73.830 294.203, 72.740 291.837, 72.604 290.564 C 72.468 289.291, 68.972 283.581, 64.835 277.875 C 60.698 272.169, 56.905 266.778, 56.406 265.895 C 55.677 264.603, 54.425 265.822, 50 272.126 M 474.200 265.200 C 473.540 265.860, 473 267.365, 473 268.545 C 473 271.181, 470.051 274, 467.294 274 C 466.167 274, 464.642 274.727, 463.905 275.615 C 462.326 277.517, 465.727 281, 469.162 281 C 470.229 281, 472.542 282.530, 474.301 284.400 C 478.926 289.314, 507.615 287.774, 509.638 282.502 C 510.386 280.553, 508.482 278.242, 505.677 277.696 C 504.480 277.463, 505.343 277.211, 507.595 277.136 C 518.965 276.758, 515.821 270.611, 504.097 270.296 C 495.081 270.053, 488.218 268.730, 481.815 265.998 C 476.338 263.663, 475.794 263.606, 474.200 265.200 M 477.277 274.940 C 473.124 282.156, 481.532 284.776, 497.927 281.376 C 500.759 280.789, 498.758 279.078, 490 274.595 C 481.991 270.495, 479.801 270.554, 477.277 274.940 M 573.415 279.094 C 572.373 280.246, 571.468 282.484, 571.404 284.068 C 571.340 285.652, 570.820 287.523, 570.248 288.224 C 566.716 292.557, 567.034 296.859, 571.125 300.099 C 574.942 303.122, 575.025 303.313, 573.516 305.615 C 572.353 307.391, 572.279 307.996, 573.227 307.985 C 577.360 307.935, 577.577 304.586, 573.724 300.301 C 572.637 299.091, 572.002 297.437, 572.314 296.624 C 572.626 295.811, 572.234 294.609, 571.443 293.953 C 570.222 292.940, 570.468 292.232, 573.063 289.275 C 575.836 286.117, 575.979 285.635, 574.596 284.106 C 573.267 282.638, 573.252 282.069, 574.476 279.710 C 576.165 276.453, 575.929 276.316, 573.415 279.094 M 556 279.855 C 556 280.350, 556.721 281.354, 557.603 282.085 C 559.061 283.295, 559.029 283.558, 557.254 284.996 C 556.180 285.865, 554.983 288.278, 554.592 290.359 C 554.202 292.440, 553.608 294.859, 553.271 295.735 C 552.866 296.792, 553.054 297.085, 553.830 296.605 C 554.474 296.207, 555 295.230, 555 294.432 C 555 293.635, 556.350 291.119, 558 288.841 C 561.648 283.806, 561.715 282.698, 558.500 280.592 C 557.125 279.691, 556 279.359, 556 279.855 M 564.650 282.771 C 564.908 283.758, 563.759 286.413, 562.057 288.763 C 558.937 293.069, 558.270 294.569, 559.931 293.543 C 560.443 293.226, 561.144 293.425, 561.490 293.984 C 562.590 295.764, 564.253 295.075, 563.725 293.057 C 563.422 291.899, 563.987 290.417, 565.123 289.389 C 566.234 288.383, 566.797 286.936, 566.473 285.916 C 566.168 284.955, 566.394 283.874, 566.976 283.515 C 568.303 282.695, 567.332 281, 565.535 281 C 564.738 281, 564.376 281.723, 564.650 282.771 M 425.631 287.702 C 424.387 288.946, 425.054 289.798, 428.581 291.472 C 432.599 293.378, 433.382 293.236, 431.668 290.912 C 430.158 288.863, 426.445 286.888, 425.631 287.702 M 102 290.406 C 102 293.344, 103.861 294.829, 105.096 292.878 C 106.392 290.833, 106.208 290.182, 104 289 C 102.250 288.064, 102 288.240, 102 290.406 M 117 291 C 116.175 291.533, 115.927 291.976, 116.450 291.985 C 118.008 292.010, 115.179 294.348, 113.266 294.617 C 111.503 294.864, 107.946 295.673, 107 296.042 C 106.725 296.149, 106.050 296.164, 105.500 296.074 C 104.950 295.985, 105.824 296.993, 107.443 298.315 C 110.386 300.719, 110.386 300.719, 115.163 297.287 C 117.791 295.400, 121.641 293.365, 123.720 292.767 C 127.340 291.724, 127.394 291.647, 125 290.939 C 121.391 289.871, 118.715 289.892, 117 291 M 562.278 301.276 C 559.970 304.334, 561.079 306.963, 565.813 309.656 C 568.391 311.123, 571.850 313.516, 573.500 314.975 C 578.352 319.263, 581.401 320.189, 582.879 317.822 C 583.862 316.248, 584.402 316.089, 585.544 317.037 C 587.125 318.349, 588.746 316.015, 587.572 314.117 C 587.240 313.579, 587.425 312.856, 587.984 312.510 C 588.543 312.165, 589 310.983, 589 309.885 C 589 308.080, 588.782 308.142, 586.723 310.535 C 584.447 313.182, 584.447 313.182, 581.987 311.191 C 579.616 309.271, 579.439 309.263, 577.014 310.975 C 572.739 313.995, 566.317 309.925, 568.879 305.821 C 570.324 303.508, 570.468 303.747, 566.351 301.654 C 563.904 300.410, 562.995 300.326, 562.278 301.276 M 65.227 305.759 C 65.549 306.991, 65.404 308.250, 64.906 308.558 C 63.769 309.261, 63.717 312.707, 64.833 313.397 C 65.291 313.680, 67.290 312.808, 69.276 311.459 C 71.917 309.664, 73.086 309.331, 73.634 310.216 C 74.953 312.351, 75.115 318.156, 73.896 319.625 C 72.469 321.345, 73.146 322.265, 75.245 321.460 C 76.087 321.136, 77.318 318.763, 77.981 316.186 C 78.643 313.609, 79.662 310.503, 80.243 309.284 C 81.954 305.701, 79.418 303.289, 76.600 305.818 C 73.027 309.024, 71.277 309.104, 67.848 306.218 C 64.748 303.611, 64.661 303.595, 65.227 305.759 M 83.570 309.887 C 83.269 310.374, 83.688 311.326, 84.501 312.001 C 85.472 312.806, 85.769 314.136, 85.366 315.864 C 84.803 318.279, 84.889 318.370, 86.393 316.947 C 87.753 315.660, 87.843 314.849, 86.919 312.197 C 85.810 309.017, 84.616 308.194, 83.570 309.887 M 586.254 321.698 C 584.991 324.418, 587.558 329, 590.346 329 C 590.894 329, 592.237 329.788, 593.329 330.750 C 595.008 332.228, 595.175 332.247, 594.408 330.874 C 593.909 329.980, 592.039 328.028, 590.253 326.538 C 587.697 324.404, 587.134 323.313, 587.611 321.413 C 588.409 318.234, 587.804 318.361, 586.254 321.698" stroke="none" fill="#1A1A1A" fill-rule="evenodd"/>
</svg>