<svg xmlns="http://www.w3.org/2000/svg" viewBox="0 0 592 600" version="1.1" preserveAspectRatio="xMidYMid meet">
	<path d="M 311.025 1.114 C 309.663 1.658, 299.763 2.300, 289.025 2.542 C 242.622 3.586, 225.747 5.163, 227.670 8.275 C 228.121 9.004, 214.211 9.139, 182.028 8.716 L 135.738 8.108 133.025 10.821 L 130.313 13.534 130.785 31.544 L 131.258 49.555 129.049 49.721 C 124.086 50.095, 122.278 55.132, 125.923 58.430 C 127.121 59.514, 127.731 61.175, 127.541 62.835 C 127.213 65.709, 128.674 68.319, 130.113 67.430 C 130.601 67.129, 131 69.738, 131 73.229 L 131 79.576 121.250 78.735 C 115.818 78.266, 110.519 77.252, 109.285 76.447 C 108.067 75.651, 105.592 74.994, 103.785 74.986 C 98.743 74.965, 96 73.938, 96 72.070 C 96 71.138, 94.655 69.085, 93.010 67.510 C 91.366 65.935, 90.247 64.419, 90.524 64.142 C 90.801 63.866, 92.548 65.300, 94.407 67.329 C 96.415 69.521, 98.371 70.795, 99.226 70.467 C 100.017 70.163, 102.653 70.361, 105.082 70.907 C 109.250 71.844, 111.327 71.298, 111.586 69.200 C 111.827 67.248, 113.314 65.076, 114.084 65.552 C 116.323 66.936, 122 60.474, 122 56.543 C 122 54.630, 115.549 49, 113.357 49 C 111.037 49, 108.443 51.530, 107.719 54.500 C 107.251 56.424, 107.228 56.420, 107.116 54.405 C 106.679 46.515, 86 48.229, 86 56.155 C 86 57.170, 85.429 58, 84.732 58 C 84.035 58, 81.750 59.165, 79.654 60.589 C 77.559 62.013, 75.680 63.013, 75.479 62.813 C 74.567 61.900, 79.561 55.765, 82.372 54.346 C 84.092 53.477, 86.400 51.969, 87.500 50.994 C 88.600 50.020, 91.075 48.972, 93 48.667 C 94.925 48.361, 98.750 47.663, 101.500 47.115 C 104.250 46.567, 109.027 46.092, 112.115 46.060 C 119.406 45.982, 123.429 43.259, 121.960 39.394 C 121.432 38.006, 121 35.374, 121 33.546 C 121 27.810, 118.145 25.364, 113.940 27.496 C 109.183 29.909, 107 31.991, 107 34.115 C 107 35.425, 106.246 35.911, 104.250 35.887 C 102.737 35.870, 99.337 36.083, 96.693 36.360 C 92.799 36.769, 91.770 36.545, 91.280 35.182 C 90.038 31.730, 86.804 28, 85.054 28 C 82.252 28, 80.458 30.643, 82 32.500 C 83.016 33.725, 82.958 34, 81.681 34 C 80.822 34, 79.840 33.550, 79.500 33 C 78.438 31.281, 76.011 31.898, 73.344 34.565 L 70.779 37.130 69.258 34.958 C 67.996 33.156, 67.098 32.889, 63.985 33.386 C 61.271 33.820, 59.882 33.563, 58.962 32.454 C 57.842 31.105, 57.353 31.246, 54.856 33.638 C 51.740 36.624, 50.137 36.354, 52.121 33.179 C 54.942 28.661, 49.074 26.387, 43.971 30.021 L 41.133 32.042 38.612 29.521 C 35.470 26.379, 33.664 26.340, 31.285 29.365 C 28.429 32.996, 25.262 33.595, 22.523 31.021 L 20.216 28.854 18.608 31.150 C 16.440 34.245, 16.570 35.248, 19.502 38.002 L 22.003 40.352 19.077 42.926 L 16.150 45.500 15.023 85.085 C 14.404 106.856, 13.972 136.357, 14.065 150.641 L 14.233 176.613 11.071 179.775 L 7.908 182.938 8.073 146.219 C 8.244 108.226, 7.631 95.769, 5.505 94.004 C 0.334 89.713, 0.196 96.323, 0.354 340.214 C 0.486 543.913, 0.648 565.077, 2.086 566.514 C 4.153 568.581, 6 566.603, 7.051 561.198 C 7.773 557.485, 7.844 558.515, 8.364 580.176 C 8.582 589.259, 10.760 591.369, 20.603 592.032 C 26.733 592.445, 203.668 592.549, 297.070 592.195 C 309.041 592.149, 311.872 591.859, 312.942 590.570 C 315.932 586.967, 312.816 586.069, 296.148 585.732 C 287.541 585.557, 318.750 585.659, 365.500 585.957 C 412.250 586.256, 463.672 586.454, 479.771 586.398 C 507.317 586.302, 508.951 586.397, 507.496 588.005 C 504.169 591.681, 507.367 592.213, 537.256 592.962 L 565.500 593.670 539.500 593.993 C 525.200 594.170, 512.825 594.209, 512 594.079 C 505.225 593.012, 444.485 594.086, 443.277 595.294 C 440.064 598.507, 443.943 599.006, 477.319 599.671 C 500.178 600.127, 510.298 599.997, 511.216 599.236 C 512.157 598.455, 513.698 598.464, 516.715 599.269 C 519.840 600.104, 521.490 600.095, 523.203 599.236 C 524.661 598.504, 533.536 597.964, 547.500 597.756 C 568.033 597.450, 569.867 597.270, 575 595.059 C 584.922 590.785, 584.110 594.916, 584.167 548.414 C 584.239 490.382, 586.301 495, 560.326 495 L 542 495 541.999 471.250 L 541.998 447.500 561.361 447.808 L 580.724 448.116 583.196 445.178 L 585.669 442.240 586.424 281.870 C 586.839 193.667, 587.503 97.875, 587.898 69 C 588.440 29.480, 588.320 15.175, 587.415 11.142 C 585.438 2.335, 581.788 0.686, 578.213 6.984 C 577.009 9.106, 576.054 9.782, 575 9.259 C 574.175 8.850, 553.250 8.481, 528.500 8.440 C 366.332 8.172, 289.257 7.634, 297.500 6.829 C 302.450 6.345, 308.750 5.479, 311.500 4.905 C 314.250 4.330, 326.175 3.779, 338 3.680 C 358.527 3.508, 362.745 3.014, 361.457 0.931 C 360.683 -0.323, 314.202 -0.153, 311.025 1.114 M 279 7 L 276.500 7.801 279 7.782 C 280.375 7.772, 282.850 7.420, 284.500 7 L 287.500 6.237 284.500 6.218 C 282.850 6.208, 280.375 6.560, 279 7 M 581.314 8.750 C 580.972 9.713, 580.569 10.741, 580.419 11.036 C 580.269 11.330, 580.933 11.571, 581.894 11.571 C 583.174 11.571, 583.524 10.961, 583.204 9.286 C 582.680 6.547, 582.152 6.397, 581.314 8.750 M 9.924 12.250 C 7.563 16, 7.931 27.326, 10.497 29.914 C 12.329 31.761, 15 29.756, 15 26.534 C 15 25.313, 15.902 21.692, 17.004 18.489 C 20.028 9.698, 14.563 4.882, 9.924 12.250 M 12.421 15.457 C 11.400 19.526, 12.500 20.534, 13.699 16.628 C 14.312 14.633, 14.413 13, 13.925 13 C 13.437 13, 12.761 14.106, 12.421 15.457 M 137.667 14.667 C 137.300 15.033, 137 52.530, 137 97.992 L 137 180.651 134.529 182.973 L 132.058 185.294 73.529 185.080 L 15 184.866 15 199.458 L 15 214.050 17.565 215.025 C 19.122 215.617, 42.278 216, 76.454 216 C 128.609 216, 132.938 216.130, 134.932 217.750 L 137.086 219.500 137.210 321.305 L 137.334 423.111 135.184 425.260 C 133.035 427.409, 133.031 427.409, 74.423 427.455 L 15.810 427.500 15.992 500 C 16.092 539.875, 16.191 574.418, 16.212 576.762 C 16.264 582.523, 13.651 582.275, 68.213 581.702 C 95.299 581.418, 122.304 581.639, 131.428 582.220 C 146.308 583.168, 147.443 583.115, 148.678 581.426 C 149.743 579.969, 150 566.548, 150 512.365 L 150 445.112 152.250 442.574 L 154.500 440.037 220 439.965 C 256.025 439.924, 337.608 439.916, 401.295 439.946 L 517.091 440 519.633 442.542 L 522.174 445.084 521.446 514.542 L 520.718 584 527.359 584 L 534 584 534.039 576.750 C 534.060 572.763, 534.320 560.050, 534.616 548.500 C 535.316 521.164, 533.377 523.350, 557.750 522.411 L 576 521.707 575.985 513.604 C 575.963 502.137, 577.117 502.798, 556.396 502.378 C 541.003 502.066, 538.340 501.777, 536.870 500.258 C 535.369 498.708, 535.128 495.263, 534.834 471.163 L 534.500 443.826 536.861 441.913 C 539.003 440.177, 541.003 440, 558.501 440 L 577.781 440 578.240 436.250 C 579.049 429.632, 581.205 430.001, 541.643 429.993 C 521.764 429.989, 475.800 429.768, 439.500 429.500 C 403.200 429.233, 324.455 428.780, 264.510 428.495 L 155.521 427.975 153.010 425.465 L 150.500 422.955 150.401 219.625 C 150.346 107.794, 149.982 15.780, 149.592 15.148 C 148.842 13.935, 138.804 13.530, 137.667 14.667 M 154.517 211.159 C 154.614 319.147, 154.762 411.158, 154.846 415.629 L 155 423.758 231.250 424.365 C 273.188 424.698, 368.362 425.239, 442.750 425.565 L 578 426.159 577.993 378.329 C 577.989 352.023, 578.327 288.425, 578.743 237 C 579.159 185.575, 579.500 115.630, 579.500 81.566 L 579.500 19.632 574.716 18.411 C 571.087 17.485, 528.687 17.046, 399.216 16.594 C 305.322 16.267, 211.814 15.733, 191.421 15.408 L 154.342 14.818 154.517 211.159 M 113.750 31.620 C 112.057 32.509, 111 33.886, 111 35.203 C 111 38.729, 108.235 41.040, 105.336 39.938 C 103.979 39.422, 102.111 39.361, 101.185 39.802 C 96.963 41.811, 90.676 40.629, 88.507 37.418 L 86.425 34.335 84.651 36.688 C 82.919 38.984, 82.806 38.999, 79.957 37.315 C 77.089 35.621, 76.987 35.639, 74.214 38.295 C 70.842 41.525, 69.878 41.628, 67.510 39.011 C 66.089 37.441, 64.927 37.148, 61.981 37.619 C 59.597 38, 57.987 37.789, 57.520 37.033 C 57 36.191, 56.124 36.474, 54.484 38.015 C 50.543 41.718, 45.011 38.414, 47.766 34.003 C 49.227 31.664, 47.834 31.290, 45.980 33.524 C 45.284 34.362, 44.483 34.816, 44.200 34.533 C 43.916 34.249, 43.064 34.532, 42.306 35.161 C 41.228 36.056, 40.275 35.680, 37.928 33.431 L 34.928 30.557 32.714 33.199 C 31.496 34.652, 29.040 36.137, 27.257 36.499 C 24.625 37.032, 24.178 37.472, 24.888 38.828 C 26.061 41.069, 24.463 45.066, 22.152 45.670 C 19.814 46.282, 19.123 61.657, 18.375 129.701 L 17.856 176.903 72.178 177.201 C 102.055 177.366, 127.063 177.339, 127.752 177.142 C 128.733 176.862, 128.988 166.670, 128.928 130.034 L 128.853 83.284 120.217 82.620 C 115.468 82.255, 110.664 81.360, 109.541 80.632 C 105.926 78.288, 94.072 77.625, 91.843 79.642 C 90.039 81.275, 89.846 81.274, 88.219 79.620 C 86.592 77.967, 86.647 77.747, 89.250 75.485 C 92.834 72.372, 92.694 71.358, 87.957 66.119 L 83.995 61.737 79.928 64.429 C 75.554 67.324, 73.310 67.446, 71.694 64.879 C 70.034 62.244, 75.674 54.024, 81.224 50.988 C 83.750 49.607, 86.645 47.746, 87.658 46.853 C 88.671 45.960, 91.075 44.977, 93 44.670 C 94.925 44.363, 98.750 43.663, 101.500 43.115 C 104.250 42.567, 109.091 42.092, 112.259 42.060 L 118.017 42 117.370 36.250 C 117.014 33.087, 116.672 30.427, 116.611 30.338 C 116.550 30.249, 115.263 30.826, 113.750 31.620 M 93.250 54.119 C 85.976 56.219, 93.754 65.921, 103.285 66.636 C 110.594 67.185, 111.846 64.333, 106.462 59.402 C 104.558 57.657, 103 55.503, 103 54.615 C 103 52.771, 98.679 52.551, 93.250 54.119 M 112 54.935 C 112 57.489, 113.744 62, 114.731 62 C 116.461 62, 118.248 56.004, 116.975 54.470 C 115.182 52.309, 112 52.606, 112 54.935 M 4.336 219 C 4.336 223.125, 4.513 224.813, 4.728 222.750 C 4.944 220.688, 4.944 217.313, 4.728 215.250 C 4.513 213.188, 4.336 214.875, 4.336 219 M 8.701 223.280 C 8.424 225.601, 8.352 244.600, 8.541 265.500 C 8.730 286.400, 8.910 330.682, 8.942 363.905 C 8.998 422.359, 9.059 424.257, 10.829 422.655 C 11.835 421.745, 13.192 421, 13.846 421 C 14.729 421, 14.915 417.348, 14.570 406.750 C 14.315 398.913, 14.044 354.250, 13.968 307.500 L 13.830 222.500 11.517 220.780 C 9.205 219.061, 9.204 219.062, 8.701 223.280 M 20.250 223.652 C 18.160 224.105, 17.997 224.684, 17.953 231.820 C 17.523 302.751, 18.401 417.734, 19.381 418.714 C 19.624 418.958, 44.595 419.304, 74.871 419.483 L 129.918 419.809 129.862 321.904 L 129.807 224 81.153 223.991 C 54.394 223.987, 30.250 223.799, 27.500 223.574 C 24.750 223.349, 21.488 223.384, 20.250 223.652 M 4.392 321 C 4.392 328.425, 4.549 331.462, 4.742 327.750 C 4.934 324.038, 4.934 317.962, 4.742 314.250 C 4.549 310.538, 4.392 313.575, 4.392 321 M 3.641 387.051 C 3.198 418.895, 3.305 436.698, 3.949 437.801 C 4.612 438.939, 4.949 422.755, 4.970 388.750 C 4.986 360.837, 4.848 338, 4.662 338 C 4.477 338, 4.017 360.073, 3.641 387.051 M 3.189 446.500 C 3.215 449.800, 3.580 453.850, 4 455.500 C 4.572 457.746, 4.775 456.742, 4.811 451.500 C 4.838 447.650, 4.473 443.600, 4 442.500 C 3.399 441.101, 3.155 442.303, 3.189 446.500 M 160.750 447.816 L 158 448.133 158 513.421 L 158 578.709 182.250 579.307 C 195.588 579.636, 219.531 579.957, 235.457 580.021 C 251.384 580.086, 264.678 580.301, 264.999 580.500 C 266.866 581.653, 505.638 582.810, 510.113 581.687 L 512.676 581.043 513.338 549.359 C 513.702 531.932, 514 501.997, 514 482.837 L 514 448 472.750 447.963 C 450.063 447.943, 371.200 447.831, 297.500 447.713 C 223.800 447.596, 162.262 447.642, 160.750 447.816 M 8.392 489 C 8.392 496.425, 8.549 499.462, 8.742 495.750 C 8.934 492.038, 8.934 485.962, 8.742 482.250 C 8.549 478.538, 8.392 481.575, 8.392 489 M 7.420 536.500 C 7.419 547.500, 7.565 552.136, 7.745 546.803 C 7.924 541.470, 7.925 532.470, 7.746 526.803 C 7.568 521.136, 7.421 525.500, 7.420 536.500 M 577.091 524.390 C 576.125 525.554, 574.032 526, 569.535 526 C 566.113 526, 557.869 526.293, 551.214 526.651 L 539.114 527.301 538.807 555.072 L 538.500 582.842 536.076 585.421 C 533.150 588.533, 522.982 589.199, 519.972 586.475 C 518.505 585.147, 518.131 585.137, 517.087 586.396 C 516.073 587.617, 516.716 587.946, 521.209 588.507 C 529.750 589.574, 571.076 588.539, 574.500 587.172 L 577.500 585.974 577.435 558.237 C 577.400 542.982, 577.778 529.272, 578.276 527.771 C 579.478 524.146, 578.830 522.295, 577.091 524.390 M 12.479 584 C 12.889 585.375, 13.541 586.844, 13.926 587.264 C 14.312 587.684, 59.149 588.170, 113.564 588.344 C 167.979 588.517, 199.921 588.504, 184.548 588.314 C 157.911 587.984, 156.491 587.871, 154.392 585.899 C 152.290 583.924, 152.071 583.907, 149.605 585.523 C 147.371 586.987, 145.624 587.106, 136.760 586.400 C 131.117 585.950, 101.686 585.564, 71.358 585.541 C 17.661 585.501, 16.158 585.448, 13.976 583.500 L 11.734 581.500 12.479 584 M 163.250 583.743 C 167.512 583.931, 174.488 583.931, 178.750 583.743 C 183.012 583.556, 179.525 583.402, 171 583.402 C 162.475 583.402, 158.988 583.556, 163.250 583.743 M 247.789 584.741 C 251.248 584.937, 256.648 584.936, 259.789 584.738 C 262.930 584.540, 260.100 584.380, 253.500 584.382 C 246.900 584.384, 244.330 584.546, 247.789 584.741 M 224.789 588.741 C 228.248 588.937, 233.648 588.936, 236.789 588.738 C 239.930 588.540, 237.100 588.380, 230.500 588.382 C 223.900 588.384, 221.330 588.546, 224.789 588.741 M 10.107 596.975 C 1.322 599.049, 12.089 599.518, 74 599.759 C 140.330 600.017, 144.307 599.907, 142.273 597.873 C 141.174 596.774, 14.598 595.915, 10.107 596.975" stroke="none" fill="#1A1A1A" fill-rule="evenodd"/>
</svg>