<svg xmlns="http://www.w3.org/2000/svg" viewBox="0 0 592 600" version="1.1" preserveAspectRatio="xMidYMid meet">
	<path d="M 311.223 1.782 C 308.868 2.596, 299.292 3.268, 285.007 3.624 C 231.163 4.963, 227.792 5.236, 229.570 8.113 C 229.871 8.601, 226.866 9, 222.892 9 C 218.918 9, 215.963 8.704, 216.325 8.342 C 218.145 6.522, 214.354 5, 208 5 C 202.015 5, 197.836 6.507, 199.427 8.092 C 199.652 8.316, 185.535 8.364, 168.056 8.199 L 136.275 7.897 133.087 10.581 L 129.898 13.264 130.598 31.632 C 131.276 49.413, 131.236 50, 129.349 50 C 126.931 50, 125 51.840, 125 54.143 C 125 56.062, 128.833 59.221, 130.163 58.399 C 130.623 58.115, 131 62.973, 131 69.196 L 131 80.511 121.750 79.660 C 115.855 79.118, 111.124 78.087, 108.705 76.815 C 106.617 75.718, 104.186 75.098, 103.302 75.438 C 100.578 76.483, 95 74.092, 95 71.879 C 95 70.798, 92.506 67.359, 89.459 64.238 C 84.691 59.354, 83.679 58.733, 82.209 59.788 C 79.256 61.907, 76.013 63.346, 75.453 62.786 C 74.640 61.973, 78.337 55.053, 79.600 55.025 C 80.205 55.011, 82.524 53.679, 84.754 52.063 C 86.984 50.448, 90.539 48.814, 92.654 48.432 C 94.769 48.049, 97.364 47.289, 98.420 46.742 C 99.476 46.195, 104.306 45.656, 109.154 45.543 C 118.433 45.327, 123.295 43.265, 121.012 40.514 C 120.472 39.864, 119.813 37.633, 119.547 35.556 C 118.987 31.181, 117.478 29, 115.012 29 C 112.278 29, 108 32.908, 108 35.406 C 108 38.635, 106.990 39.223, 104.382 37.515 C 102.973 36.591, 101.871 36.399, 101.493 37.011 C 100.021 39.393, 92.671 38.074, 89.320 34.825 C 86.169 31.772, 85.970 31.717, 84.105 33.405 C 82.580 34.785, 81.735 34.928, 80.143 34.076 C 78.526 33.211, 77.169 33.498, 73.396 35.504 C 69.040 37.820, 68.537 37.891, 66.904 36.413 C 65.294 34.956, 64.657 34.950, 59.882 36.350 C 56.993 37.197, 54.294 37.682, 53.884 37.428 C 53.474 37.175, 52.861 37.416, 52.522 37.965 C 52.183 38.513, 50.555 37.424, 48.905 35.545 C 46.668 32.997, 45.217 32.195, 43.202 32.396 C 41.455 32.569, 39.553 31.798, 37.821 30.213 L 35.143 27.762 32.148 29.895 C 30.454 31.101, 28.863 33.345, 28.487 35.061 C 27.933 37.582, 27.573 37.890, 26.360 36.884 C 23.808 34.766, 21.080 38.326, 23.341 40.824 C 25.662 43.389, 24.578 46.378, 21.927 44.722 C 17.775 42.129, 16.525 45.654, 16.262 60.690 C 16.132 68.180, 15.733 74.577, 15.377 74.904 C 14.276 75.916, 15.867 24.749, 17.068 20.500 C 17.690 18.300, 18.891 15.721, 19.737 14.769 C 21.557 12.721, 20.382 10.766, 15.956 8.477 C 13.505 7.210, 13.084 7.282, 11.200 9.293 C 7.193 13.572, 6.939 15.939, 7.983 39.324 C 8.528 51.521, 8.979 66.922, 8.987 73.550 C 9.001 86.579, 9.886 89.318, 13.133 86.379 C 14.812 84.860, 14.870 86.910, 14.387 130.643 C 14.103 156.390, 13.494 176.399, 12.998 176.269 C 12.512 176.142, 11.209 177.190, 10.102 178.597 L 8.090 181.156 7.795 142.613 C 7.533 108.366, 7.316 103.885, 5.849 102.419 C 4.314 100.885, 4.080 100.948, 2.533 103.310 C 0.994 105.659, 0.863 121.922, 0.805 319.175 C 0.734 559.118, 0.612 543.433, 2.558 545.048 C 6.250 548.112, 6.945 544.870, 7.251 523.144 C 7.412 511.790, 7.646 521.175, 7.773 544 C 8.025 589.527, 8.292 591.627, 14 593.078 L 16.500 593.713 14 594.365 C 12.625 594.723, 9.025 595.356, 6 595.772 C -1.168 596.757, -1.985 599.622, 5 599.279 C 7.475 599.157, 17.825 599.073, 28 599.091 C 38.175 599.109, 85.875 599.209, 134 599.312 C 191.648 599.436, 221.591 599.159, 221.766 598.500 C 222.239 596.727, 202.585 596.205, 110.726 595.554 C 61.350 595.204, 20.090 594.599, 19.038 594.209 C 17.985 593.819, 122.959 593.486, 252.312 593.468 C 381.665 593.451, 482.705 593.578, 476.845 593.751 C 465.548 594.085, 462.370 595.332, 464.937 598.424 C 466.769 600.632, 504.778 600.493, 507.246 598.269 C 508.571 597.077, 508.723 596.371, 507.874 595.348 C 506.958 594.244, 507.794 594, 512.500 594 C 517.493 594, 518.082 594.196, 517 595.500 C 514.313 598.738, 523.376 602.140, 526.550 599.086 C 527.073 598.583, 537.175 597.988, 549 597.764 C 569.903 597.368, 570.657 597.281, 576.151 594.650 C 579.258 593.162, 582.319 591.320, 582.953 590.557 C 584.273 588.966, 584.763 510.339, 583.495 503.500 C 581.976 495.311, 581.128 495, 560.326 495 L 542 495 542 471.500 L 542 448 561.411 448 L 580.822 448 583.246 445.119 L 585.670 442.239 586.383 279.869 C 586.775 190.566, 587.252 114.125, 587.443 110 C 587.634 105.875, 587.950 82.025, 588.145 57 C 588.487 13.120, 588.429 11.358, 586.500 7.500 C 584.011 2.521, 581.323 2.257, 578.521 6.715 C 577.141 8.910, 576.024 9.714, 575 9.249 C 573.344 8.496, 533.237 8.218, 396 8.007 C 312.304 7.878, 304.884 7.735, 309 6.330 C 312.396 5.170, 319.018 4.720, 336 4.494 C 372.927 4.004, 396.789 3.249, 397.945 2.534 C 401.544 0.309, 395.111 -0.049, 356.386 0.216 C 325.909 0.425, 313.950 0.839, 311.223 1.782 M 12.093 14.164 C 11.492 15.888, 11.041 19.594, 11.091 22.399 L 11.182 27.500 12.668 22 C 13.486 18.975, 14.832 15.748, 15.660 14.830 C 17.012 13.330, 16.962 13.050, 15.176 12.094 C 13.446 11.168, 13.043 11.439, 12.093 14.164 M 155.141 207.601 C 155.085 313.696, 155.306 405.509, 155.632 411.630 L 156.225 422.760 233.362 423.364 C 275.788 423.696, 370.614 424.192, 444.088 424.465 L 577.675 424.962 578.341 298.231 C 578.708 228.529, 579.300 137.481, 579.658 95.902 L 580.309 20.303 576.904 18.936 C 574.092 17.806, 542.656 17.456, 396 16.918 C 298.375 16.559, 204.267 15.915, 186.872 15.485 L 155.244 14.703 155.141 207.601 M 139.750 16.574 C 139.338 16.991, 139 54.418, 139 99.744 L 139 182.154 136.069 185.085 L 133.137 188.017 75.621 187.758 L 18.105 187.500 17.423 193.873 C 16.851 199.211, 17.410 211.798, 18.252 212.563 C 18.389 212.687, 44.246 212.961, 75.714 213.172 C 144.119 213.631, 138.117 212.323, 139.160 226.996 C 139.524 232.104, 139.749 278.510, 139.660 330.119 L 139.500 423.955 136.762 426.693 L 134.024 429.431 76.158 429.122 L 18.292 428.814 17.721 432.335 C 16.359 440.727, 10.881 440, 75.442 440 L 132.651 440 134.846 442.336 L 137.040 444.672 136.974 512.086 L 136.909 579.500 141.954 579.802 C 144.729 579.969, 147.064 579.969, 147.142 579.802 C 147.220 579.636, 147.558 548.823, 147.892 511.329 L 148.500 443.158 150.820 440.690 C 154.299 436.989, 154.578 436.982, 306.500 436.815 C 382.950 436.731, 448.339 436.450, 451.808 436.190 C 463.205 435.335, 456.828 433.723, 440.302 433.280 C 431.611 433.047, 415.950 432.583, 405.500 432.248 C 395.050 431.913, 366.475 431.570, 342 431.486 C 317.525 431.401, 265.325 430.759, 226 430.059 L 154.500 428.785 152 426.370 L 149.500 423.954 149.429 220.990 C 149.390 109.359, 149.090 17.756, 148.762 17.428 C 147.775 16.441, 140.556 15.757, 139.750 16.574 M 33.035 33.934 C 32.466 34.998, 32 36.518, 32 37.312 C 32 38.106, 31.354 39.291, 30.564 39.947 C 29.775 40.602, 28.849 42.410, 28.508 43.965 C 27.639 47.921, 24.492 50.653, 22.608 49.089 C 20.452 47.300, 19.849 49.119, 20.067 56.756 C 20.173 60.465, 19.740 78.350, 19.105 96.500 C 18.470 114.650, 18.046 140.173, 18.163 153.217 L 18.375 176.934 71.938 177.217 C 101.397 177.373, 126.292 177.334, 127.261 177.131 C 128.913 176.784, 129.013 173.968, 128.884 131.485 C 128.809 106.583, 128.441 85.713, 128.067 85.108 C 127.692 84.502, 123.824 83.706, 119.470 83.338 C 114.458 82.914, 110.347 81.957, 108.268 80.731 C 106.461 79.665, 104.243 79.076, 103.339 79.423 C 102.435 79.770, 100.187 79.557, 98.344 78.949 C 95.175 77.903, 94.686 78.087, 89.287 82.370 C 85.060 85.724, 83.252 86.624, 82.311 85.843 C 80.725 84.527, 81.533 82.945, 86.902 76.847 C 91.829 71.252, 91.819 71.439, 87.459 66.750 C 83.608 62.608, 82.809 62.321, 81.042 64.449 C 78.838 67.105, 73.015 68.443, 71.267 66.696 C 69.898 65.326, 69.970 64.693, 71.969 60.564 C 74.502 55.331, 74.179 53.494, 70.423 51.783 C 68.240 50.788, 67.276 50.879, 64.775 52.314 C 62.469 53.638, 61.435 53.776, 60.380 52.900 C 58.066 50.980, 58.812 48.589, 62.999 44.501 C 68.389 39.238, 66.951 38.213, 57.996 40.933 C 50.209 43.298, 48.686 42.935, 46.922 38.294 C 46.189 36.366, 45.496 36.077, 42.519 36.458 C 39.600 36.832, 38.708 36.485, 37.379 34.455 C 35.439 31.495, 34.407 31.371, 33.035 33.934 M 112.422 34.667 C 112.104 35.675, 111.159 37.769, 110.323 39.321 L 108.803 42.141 112.152 41.821 C 115.325 41.517, 115.500 41.295, 115.500 37.582 C 115.500 33.449, 113.427 31.486, 112.422 34.667 M 83.831 37.598 C 82.560 38.869, 81.802 38.964, 80.121 38.065 C 78.180 37.026, 75.010 38.089, 69.062 41.771 C 68.133 42.346, 77.505 51, 79.058 51 C 79.961 51, 82.524 49.679, 84.754 48.063 C 86.984 46.448, 90.539 44.815, 92.654 44.435 C 98.754 43.338, 100.144 42.065, 95.280 42.030 C 91.769 42.005, 90.687 41.496, 88.842 39 C 86.278 35.533, 85.980 35.449, 83.831 37.598 M 64.539 46.957 C 62.804 48.874, 62.830 48.890, 65.822 47.761 C 67.502 47.127, 68.652 46.246, 68.379 45.804 C 67.583 44.516, 66.436 44.860, 64.539 46.957 M 111.188 51.300 C 108.344 54.327, 108.427 56.692, 111.536 61.268 C 114.580 65.747, 115.263 65.843, 117.882 62.165 C 120.583 58.372, 120.198 55.584, 116.474 51.975 L 113.375 48.972 111.188 51.300 M 91 51.752 C 85.361 54.569, 85.793 57.384, 92.952 64.459 C 97.344 68.800, 99.281 70.119, 100.083 69.317 C 100.886 68.514, 101.885 68.578, 103.762 69.552 C 106.948 71.205, 109.675 69.985, 111.085 66.277 C 111.926 64.064, 111.620 63.111, 109.037 59.896 C 107.367 57.818, 106 55.486, 106 54.714 C 106 50.235, 97.425 48.542, 91 51.752 M 113 54.796 C 113 57.508, 114.004 60, 115.096 60 C 116.409 60, 115.752 55.039, 114.277 53.815 C 113.312 53.014, 113 53.254, 113 54.796 M 92.750 54.689 C 90.703 55.224, 90.430 58.282, 92.291 59.827 C 93.250 60.622, 93.896 60.397, 94.800 58.949 C 97.268 54.997, 103 57.977, 103 63.212 C 103 64.897, 103.659 65.939, 104.935 66.273 C 108.185 67.123, 108.218 64.088, 105.002 60.186 C 103.351 58.183, 102 55.972, 102 55.272 C 102 54.017, 96.621 53.678, 92.750 54.689 M 8.544 222.801 C 8.208 224.330, 8.177 263.587, 8.476 310.040 C 8.774 356.493, 9.014 400.982, 9.009 408.905 C 9 423.091, 9.029 423.283, 10.937 421.557 C 12.002 420.593, 13.408 420.134, 14.060 420.537 C 14.966 421.097, 15.105 417.281, 14.648 404.385 C 14.319 395.098, 14.025 350.600, 13.994 305.500 L 13.937 223.500 11.546 221.761 C 9.193 220.051, 9.144 220.068, 8.544 222.801 M 18.161 320.917 C 18.348 374.221, 18.755 418.089, 19.067 418.401 C 19.379 418.713, 44.455 419.155, 74.791 419.383 L 129.947 419.797 129.723 321.899 L 129.500 224.001 73.661 224 L 17.822 224 18.161 320.917 M 4.328 325.500 C 4.333 329.350, 4.513 330.802, 4.730 328.728 C 4.946 326.653, 4.943 323.503, 4.722 321.728 C 4.501 319.952, 4.324 321.650, 4.328 325.500 M 4.426 372.500 C 4.427 384.600, 4.571 389.413, 4.747 383.195 C 4.923 376.977, 4.922 367.077, 4.746 361.195 C 4.569 355.313, 4.425 360.400, 4.426 372.500 M 3.665 401.250 C 2.747 411.344, 3.005 433.885, 4.045 434.528 C 4.640 434.895, 5 427.549, 5 415.059 C 5 404.027, 4.827 395, 4.616 395 C 4.406 395, 3.977 397.813, 3.665 401.250 M 422.314 428.648 C 422.758 429.092, 430.549 429.522, 439.627 429.603 L 456.132 429.752 459.065 432.562 L 461.998 435.373 459.825 437.686 L 457.651 440 487.753 440 L 517.855 440 519.927 442.635 C 521.874 445.110, 522.001 446.550, 522.015 466.385 C 522.027 483.779, 522.247 487.077, 523.265 485.098 C 526.582 478.648, 531.275 480.583, 531.543 488.512 C 531.627 491.016, 532.169 494.062, 532.747 495.282 C 533.325 496.502, 534.351 498.968, 535.026 500.763 C 536.382 504.367, 539.728 505.836, 542.678 504.121 C 544.361 503.141, 544.333 503.059, 542.306 503.030 C 541.099 503.014, 538.891 501.950, 537.399 500.667 L 534.687 498.334 534.255 471.914 C 533.832 446.025, 533.866 445.439, 535.984 442.747 L 538.145 440 558.073 440 L 578 440 578 434.500 L 578 429 551.250 428.956 C 536.538 428.932, 501.327 428.671, 473.004 428.376 C 444.681 428.082, 421.870 428.204, 422.314 428.648 M 16.196 512.250 L 16.500 580.500 74.123 580.758 L 131.747 581.016 132.341 578.046 C 132.668 576.412, 132.954 545.584, 132.978 509.538 L 133.021 444 74.456 444 L 15.892 444 16.196 512.250 M 158 513.500 L 158 579 173.750 579.243 C 182.412 579.376, 196.700 579.495, 205.500 579.507 C 214.300 579.518, 245.125 579.864, 274 580.276 C 404.940 582.142, 503.226 582.664, 509.126 581.524 L 512.751 580.824 513.257 554.162 C 513.536 539.498, 513.826 509.613, 513.902 487.750 L 514.041 448 336.021 448 L 158 448 158 513.500 M 526.147 488.250 C 524.915 492.225, 523.492 566.313, 524.484 574.861 C 525.174 580.806, 525.288 581, 528.098 581 L 531 581 531.201 565.250 C 531.311 556.587, 531.279 547.700, 531.129 545.500 C 530.490 536.126, 532.103 524.992, 534.505 522.196 C 536.819 519.502, 536.835 519.500, 554.161 519 L 571.500 518.500 571.800 514.414 C 571.982 511.918, 571.585 509.901, 570.779 509.232 C 568.574 507.402, 547.569 506.492, 542.922 508.026 C 536.857 510.028, 534.556 508.001, 528.859 495.636 C 528.134 494.061, 527.586 491.023, 527.642 488.886 C 527.766 484.151, 527.459 484.021, 526.147 488.250 M 564.500 503.739 C 568.450 504.038, 570.211 504.787, 572.889 507.309 C 576.202 510.429, 576.264 510.444, 575.653 508 C 575.309 506.625, 575.021 504.938, 575.014 504.250 C 575.004 503.343, 572.873 503.049, 567.250 503.180 C 561.376 503.317, 560.710 503.452, 564.500 503.739 M 560 528.260 C 549.825 528.779, 541.413 529.282, 541.306 529.379 C 541.199 529.475, 541.017 541.853, 540.901 556.885 L 540.690 584.215 538.172 587.208 L 535.654 590.200 553.577 589.714 C 564.471 589.418, 572.873 588.724, 575 587.944 L 578.500 586.660 578.834 556.830 C 579.018 540.423, 579.018 527.071, 578.834 527.158 C 578.650 527.246, 570.175 527.741, 560 528.260 M 152.917 586.600 C 152.176 587.493, 150.654 588.616, 149.535 589.096 C 148.358 589.601, 179.485 589.882, 223.335 589.762 C 265.044 589.649, 298.105 589.271, 296.804 588.923 C 295.503 588.575, 263.402 587.960, 225.469 587.557 C 185.955 587.136, 156.023 586.429, 155.383 585.899 C 154.663 585.305, 153.785 585.554, 152.917 586.600 M 514.705 587.628 C 514.360 587.973, 511.472 588.589, 508.289 588.997 L 502.500 589.738 510.872 589.869 C 518.210 589.984, 519.091 589.815, 518 588.500 C 516.660 586.886, 515.701 586.632, 514.705 587.628 M 100.750 589.747 C 107.487 589.920, 118.513 589.920, 125.250 589.747 C 131.988 589.574, 126.475 589.432, 113 589.432 C 99.525 589.432, 94.013 589.574, 100.750 589.747" stroke="none" fill="#1A1A1A" fill-rule="evenodd"/>
</svg>