<svg xmlns="http://www.w3.org/2000/svg" viewBox="0 0 600 338" version="1.1" preserveAspectRatio="xMidYMid meet">
	<path d="M 0.300 3.660 C -0.379 5.431, 0.749 8.273, 1.859 7.587 C 2.340 7.290, 3.579 7.983, 4.614 9.126 C 5.649 10.269, 7.824 11.892, 9.447 12.731 C 13.434 14.793, 9.774 18.306, 4.144 17.821 C 0.331 17.493, -0.937 18.977, 1.458 20.965 C 3.799 22.908, 11.254 21.423, 14.038 18.459 C 16.828 15.490, 18.578 15.343, 19.978 17.959 C 22.738 23.115, 27.729 25.426, 31.974 23.512 C 34.372 22.430, 36.592 22.044, 37.696 22.516 C 38.688 22.940, 43.868 23.353, 49.207 23.434 C 59.450 23.589, 61.025 24.060, 59.094 26.387 C 57.695 28.073, 57.202 27.688, 69.731 34.677 C 71.878 35.874, 74.221 37.562, 74.939 38.427 C 76.715 40.567, 78.605 40.403, 80.315 37.961 C 81.743 35.922, 81.743 35.922, 85.318 38.211 C 88.779 40.428, 92.383 46.468, 89.609 45.404 C 88.924 45.141, 87.108 45.914, 85.573 47.121 C 82.782 49.317, 82.782 49.317, 86.465 52.408 C 90.149 55.500, 90.149 55.500, 86.569 55.400 C 84.599 55.344, 82.172 54.561, 81.174 53.658 C 79.264 51.929, 75.675 53.329, 75.375 55.919 C 75.306 56.514, 75.194 57.205, 75.125 57.455 C 74.855 58.438, 70 52.824, 70 51.527 C 70 50.767, 68.796 49.198, 67.325 48.041 C 64.650 45.937, 64.650 45.937, 61.882 48.969 C 58.634 52.524, 56.759 52.742, 53.240 49.974 C 50.664 47.948, 50.664 47.948, 48.013 50.488 C 43.985 54.346, 43.714 52.391, 47.576 47.333 C 51.660 41.983, 51.700 41.609, 48.545 38.455 C 45.919 35.828, 42.147 35.253, 40.217 37.183 C 39.566 37.834, 38.715 38.049, 38.327 37.660 C 37.939 37.272, 38.606 36.264, 39.810 35.420 C 42.551 33.501, 42.608 30.861, 39.962 28.466 C 37.970 26.663, 37.864 26.681, 35.281 29.264 C 32.638 31.907, 32.638 31.907, 31.544 29.712 C 29.939 26.493, 27.188 26.446, 23.916 29.580 C 21.030 32.346, 21.030 32.346, 16.164 29.923 C 13.488 28.590, 10.893 26.634, 10.399 25.576 C 8.498 21.507, 4.007 23.430, 3.445 28.553 C 3.247 30.353, 3.989 31.671, 6.062 33.204 C 8.904 35.305, 8.919 35.368, 6.937 36.757 C 5.596 37.696, 5.123 38.812, 5.527 40.085 C 5.984 41.524, 5.651 42, 4.190 42 C 1.936 42, -0.450 44.462, 0.427 45.883 C 0.762 46.423, 2.238 46.536, 3.763 46.136 C 7.890 45.056, 10.437 45.803, 13.486 48.986 C 16.248 51.869, 16.248 51.869, 14.109 54.589 C 11.806 57.517, 13.245 61, 16.758 61 C 19.501 61, 27.640 66.308, 29.282 69.168 C 31.532 73.089, 33.650 73.677, 36.358 71.134 C 38.047 69.547, 38.901 69.301, 39.754 70.154 C 40.607 71.007, 41.441 70.366, 43.071 67.605 C 44.458 65.253, 45.872 64.022, 46.970 64.208 C 50.960 64.884, 53.572 59.550, 50.500 57 C 46.928 54.035, 49.577 51.092, 53.230 53.967 C 56.796 56.772, 63.040 56.226, 64.826 52.954 C 66.099 50.622, 66.141 50.612, 65.674 52.757 C 65.341 54.290, 65.848 55.480, 67.251 56.463 C 69.041 57.717, 69.134 58.134, 67.944 59.568 C 64.565 63.639, 67.448 71, 72.422 71 C 74.170 71, 76.047 71.447, 76.594 71.994 C 77.141 72.541, 78.834 73.091, 80.357 73.217 C 84.653 73.573, 85.641 75.584, 82.305 77.182 C 80.395 78.098, 79.500 79.286, 79.500 80.904 C 79.500 84.229, 82.362 85.879, 85.130 84.151 C 87.225 82.843, 87.222 82.880, 84.986 86.020 C 82.875 88.985, 82.399 89.176, 78.602 88.579 C 76.346 88.224, 68.804 87.660, 61.841 87.327 C 48.396 86.682, 43.340 88.364, 28.542 98.407 C 24.250 101.320, 23 101.606, 23 99.674 C 23 97.132, 18.496 94, 14.841 94 C 9.372 94, 7.877 96.360, 8.571 103.890 C 8.974 108.261, 8.758 110.587, 7.847 111.685 C 7.132 112.546, 6.658 114.431, 6.794 115.875 C 6.991 117.978, 6.389 118.799, 3.770 120 C 0.543 121.480, -0.933 124.891, 2 124.091 C 2.825 123.865, 4.483 123.607, 5.685 123.517 C 8.967 123.270, 11 121.100, 11 117.842 C 11 116.240, 11.724 113.824, 12.610 112.473 C 13.495 111.121, 13.951 109.314, 13.621 108.456 C 13.292 107.598, 13.417 107.140, 13.898 107.437 C 14.380 107.735, 15.346 107.287, 16.047 106.443 C 16.747 105.600, 17.909 105.135, 18.628 105.411 C 19.347 105.687, 20.176 105.525, 20.469 105.050 C 20.762 104.576, 21.800 104.397, 22.776 104.652 C 23.752 104.907, 26.339 103.894, 28.525 102.401 C 42.887 92.593, 48.660 90.705, 62.500 91.290 C 77.313 91.916, 79.392 92.399, 78.052 94.902 C 76.638 97.544, 77.356 103.631, 79.340 105.823 C 81.084 107.750, 80.145 109.826, 78.102 108.563 C 77.608 108.257, 75.883 109.243, 74.269 110.754 C 71.506 113.340, 70.868 113.483, 63.356 113.213 C 52.587 112.825, 50.448 114.661, 55.097 120.302 C 56.774 122.336, 58.831 124, 59.669 124 C 61.828 124, 66.948 126.963, 70.709 130.390 C 73.305 132.755, 74.195 133.083, 75.370 132.108 C 76.248 131.379, 77.055 131.280, 77.412 131.858 C 77.736 132.383, 78.908 132.575, 80.016 132.286 C 81.476 131.904, 81.878 132.153, 81.480 133.193 C 80.303 136.259, 84.440 138.341, 88.026 136.486 C 91.234 134.828, 91.234 134.828, 89.632 137.115 C 88.133 139.256, 88.169 139.551, 90.189 141.701 C 92.349 144, 92.349 144, 88.639 144 C 86.599 144, 83.884 144.685, 82.606 145.523 C 80.578 146.851, 80.129 146.860, 79.077 145.593 C 78.121 144.441, 74.824 144.144, 63.186 144.160 C 55.109 144.171, 47.712 144.139, 46.750 144.090 C 45.243 144.012, 45 142.934, 45 136.329 C 45 130.498, 44.590 128.205, 43.292 126.770 C 41.412 124.693, 41.360 119.476, 43.198 117.262 C 47.041 112.631, 28.615 108.453, 24.484 113.018 C 22.318 115.411, 23.083 120.394, 26.110 123.617 C 27.652 125.259, 27.987 126.432, 27.405 128.165 C 26.177 131.828, 26.137 132.672, 27.006 136.528 C 27.648 139.374, 27.537 140.036, 26.484 139.632 C 25.748 139.350, 24.600 139.777, 23.933 140.581 C 22.055 142.844, 20.933 140.720, 17.405 128.227 C 16.149 123.780, 10.962 126.550, 11.661 131.294 C 12.129 134.470, 12.118 134.479, 10.523 132.269 C 9.152 130.369, 8.622 130.219, 6.956 131.259 C 5.417 132.221, 4.584 132.221, 3.046 131.261 C 0.309 129.552, -0.692 131.578, 1.624 134.137 C 2.739 135.369, 4.296 135.985, 5.645 135.728 C 8.363 135.208, 9.053 148.417, 6.558 153.225 C 5.157 155.926, 6.607 159.060, 8.420 157.247 C 8.825 156.842, 9.045 162.015, 8.910 168.742 C 8.652 181.607, 9.916 185.737, 13.670 184.297 C 14.594 183.942, 16.281 185.098, 18.156 187.373 C 19.809 189.378, 21.644 190.720, 22.235 190.355 C 22.830 189.987, 23.022 190.155, 22.666 190.732 C 22.027 191.766, 24.969 194.958, 25.677 194 C 25.880 193.725, 27.062 195.525, 28.303 198 C 30.160 201.704, 31.040 202.493, 33.279 202.461 C 35.573 202.427, 36 202.842, 36 205.100 C 36 206.573, 36.814 208.783, 37.808 210.011 C 39.616 212.245, 39.616 212.245, 42.382 208.958 C 44.115 206.898, 44.957 204.944, 44.637 203.721 C 44.167 201.923, 44.314 201.946, 46.513 204.012 C 48.117 205.519, 49.710 206.097, 51.380 205.778 C 53.383 205.395, 54.983 206.435, 59.650 211.152 C 64.666 216.221, 65.133 217, 63.153 217 C 61.897 217, 59.991 217.470, 58.919 218.044 C 57.846 218.618, 50.181 219.336, 41.886 219.641 C 26.966 220.189, 26.810 220.173, 27.461 218.124 C 28.306 215.459, 26.035 210.716, 20.991 204.611 C 18.796 201.955, 17 199.218, 17 198.528 C 17 194.506, 3.215 185.385, 0.794 187.806 C -0.909 189.509, 0.615 191.757, 3.974 192.494 C 7.492 193.267, 12 197.604, 12 200.217 C 12 201.172, 13.150 202.708, 14.557 203.629 C 18.591 206.273, 23 213.398, 23 217.275 C 23 223.455, 25.194 224.373, 39.490 224.174 C 56.998 223.931, 65.353 222.596, 69.591 219.363 C 73.028 216.741, 72.945 214, 69.428 214 C 68.699 214, 66.871 212.312, 65.366 210.250 C 63.862 208.188, 60.155 203.928, 57.130 200.784 C 49.730 193.094, 51.043 190.900, 62.916 191.107 C 67.087 191.180, 72.249 190.905, 74.386 190.495 C 77.030 189.988, 78.064 190.087, 77.620 190.806 C 77.261 191.386, 77.425 192.144, 77.984 192.490 C 78.543 192.835, 79 195.466, 79 198.337 C 79 206.750, 80.770 208.393, 89.080 207.696 C 96.650 207.062, 98.677 208.165, 97.628 212.347 C 96.415 217.178, 99.802 218.539, 109.785 217.230 C 114.578 216.601, 124.125 215.582, 131 214.964 C 137.875 214.347, 146.425 213.117, 150 212.231 C 154.152 211.203, 161.741 210.540, 171.005 210.399 C 184.892 210.186, 197.374 208.713, 199.500 207.036 C 200.050 206.602, 202.075 206.369, 204 206.518 C 206.996 206.751, 220.090 205.250, 243.150 202.030 C 246.258 201.597, 249.317 200.922, 249.948 200.532 C 250.580 200.142, 257.263 199.652, 264.798 199.444 C 272.334 199.236, 280.594 198.790, 283.153 198.452 C 287.697 197.853, 287.821 197.909, 288.467 200.850 C 289.044 203.478, 292 207.414, 292 205.554 C 292 205.175, 293.330 205.811, 294.956 206.969 C 296.581 208.126, 299.281 209.551, 300.955 210.134 C 302.628 210.717, 303.778 211.550, 303.510 211.984 C 302.530 213.570, 305.939 215.093, 311.347 215.487 C 314.394 215.709, 318.241 216.590, 319.894 217.445 C 321.548 218.300, 324.524 219, 326.508 219 C 328.491 219, 332.001 219.416, 334.307 219.924 C 340.231 221.228, 352.942 223.293, 356.500 223.529 C 358.150 223.638, 359.916 223.789, 360.424 223.864 C 360.933 223.939, 360.328 225.087, 359.080 226.415 C 356.059 229.630, 359.140 231.924, 366 231.566 C 368.475 231.437, 371.003 231.713, 371.617 232.178 C 372.945 233.184, 375.203 230.832, 374.785 228.879 C 374.257 226.412, 378.703 226.794, 381.353 229.444 C 382.759 230.850, 384.803 232, 385.896 232 C 386.988 232, 388.165 232.457, 388.510 233.016 C 388.856 233.575, 389.466 233.830, 389.867 233.582 C 391.439 232.610, 393.416 234.794, 392.242 236.208 C 390.775 237.977, 391.266 241.134, 393.198 242.353 C 395.113 243.561, 402.159 238.504, 401.764 236.206 C 401.579 235.130, 402.537 234.546, 404.966 234.255 C 406.872 234.027, 409.263 233.395, 410.279 232.850 C 411.524 232.185, 412.548 232.210, 413.412 232.927 C 414.358 233.712, 415.173 233.466, 416.503 231.996 C 418.529 229.758, 422.005 229.084, 420.179 231.284 C 418.181 233.692, 419.831 237.762, 422.708 237.523 C 425.175 237.317, 431.655 234.121, 433.076 232.408 C 434.713 230.436, 436.303 230.654, 437.802 233.054 C 438.651 234.415, 439.712 234.909, 440.944 234.518 C 442.076 234.158, 444.288 234.934, 446.596 236.501 C 450.388 239.074, 450.388 239.074, 453.376 236.086 C 456.319 233.143, 456.380 233.129, 457.432 235.196 C 458.059 236.429, 459.666 237.415, 461.325 237.587 C 462.879 237.748, 464.791 238.412, 465.575 239.062 C 466.675 239.975, 467.342 239.961, 468.500 239 C 469.325 238.315, 470 238.125, 470 238.578 C 470 239.030, 470.446 238.954, 470.991 238.409 C 471.639 237.761, 474.797 237.747, 480.121 238.367 C 489.922 239.508, 499.864 235.951, 496.890 232.367 C 495.656 230.881, 495.608 230.900, 501.618 230.533 C 503.883 230.394, 506.358 229.925, 507.118 229.490 C 507.878 229.055, 507.018 230.271, 505.207 232.192 C 501.381 236.249, 502.899 240.211, 506.894 236.596 C 508.583 235.068, 509.992 234.990, 515 236.152 C 515.825 236.343, 517.088 237.287, 517.807 238.250 C 518.736 239.494, 520.507 240, 523.934 240 C 527 240, 529.208 240.546, 530 241.500 C 531.739 243.596, 535.356 243.369, 537.471 241.032 C 539.004 239.338, 551.044 238.550, 552.750 240.033 C 552.888 240.152, 553.337 240.313, 553.750 240.390 C 554.163 240.467, 555.082 240.900, 555.794 241.351 C 556.537 241.823, 557.702 241.662, 558.531 240.974 C 559.325 240.315, 560.768 240.084, 561.737 240.460 C 565.550 241.939, 574.290 242.046, 575.905 240.634 C 578.026 238.779, 588.574 237.502, 589.493 238.989 C 589.990 239.794, 590.561 239.779, 591.578 238.935 C 592.348 238.296, 592.763 237.425, 592.500 237 C 591.708 235.718, 594.578 233.958, 597.006 234.238 C 600.188 234.605, 600.667 232.261, 597.688 230.904 C 596.034 230.150, 594.641 230.102, 593.469 230.757 C 592.261 231.433, 590.925 231.324, 589.150 230.403 C 586.211 228.878, 582.659 230.948, 583.674 233.594 C 584.006 234.457, 583.567 235, 582.540 235 C 581.307 235, 581.037 234.459, 581.515 232.952 C 582.832 228.804, 578.293 226.519, 574.878 229.610 C 573.281 231.056, 573.249 231.451, 574.572 233.469 C 575.802 235.347, 575.823 235.902, 574.699 236.835 C 573.322 237.978, 563.924 237.689, 561.906 236.442 C 561.306 236.071, 556.155 235.636, 550.458 235.474 C 544.762 235.313, 539.665 234.911, 539.131 234.581 C 538.597 234.251, 537.272 235.110, 536.186 236.490 C 533.944 239.341, 531.816 239.688, 530 237.500 C 529.315 236.675, 527.305 236, 525.533 236 C 523.593 236, 521.598 235.213, 520.521 234.024 C 519.538 232.937, 518.284 232.324, 517.737 232.663 C 517.189 233.001, 516.950 232.653, 517.206 231.889 C 517.463 231.125, 518.308 230.488, 519.086 230.474 C 521.197 230.434, 523.112 228.990, 522.457 227.931 C 522.141 227.419, 522.696 226.985, 523.691 226.967 C 524.686 226.949, 528.648 226.529, 532.495 226.034 C 538.329 225.283, 539.778 225.394, 541.226 226.705 C 542.999 228.309, 546.647 226.855, 545.501 225.001 C 545.238 224.576, 546.031 223.983, 547.262 223.683 C 556.648 221.396, 558.732 220.565, 561.777 217.891 C 567.141 213.181, 569.050 212.810, 575.945 215.139 C 579.277 216.264, 581.783 217.542, 581.513 217.979 C 580.220 220.071, 584.225 221.440, 585.865 219.468 C 587.260 217.789, 588.307 217.588, 593 218.101 C 599.213 218.780, 601.565 217.651, 598.559 215.433 C 596.879 214.193, 590.868 213.463, 585.990 213.907 C 585.160 213.983, 581.201 212.929, 577.192 211.565 C 568.983 208.773, 567.320 209.024, 561.777 213.891 C 549.548 224.628, 461.057 229.155, 393 222.524 C 374.333 220.706, 359.342 219.095, 355.975 218.546 C 354.614 218.324, 350.125 217.650, 346 217.049 C 338.908 216.016, 332.299 214.651, 318.500 211.371 C 299.188 206.780, 287.430 197.950, 296.909 195.157 C 298.884 194.575, 301.850 193.820, 303.500 193.478 C 307.335 192.684, 312 188.271, 312 185.435 C 312 184.231, 312.662 182.695, 313.471 182.024 C 314.281 181.352, 316.182 178.239, 317.696 175.106 C 320.449 169.410, 320.449 169.410, 322.474 171.749 C 324.238 173.784, 337.040 176.838, 344.417 176.982 C 345.436 177.002, 344.223 178.491, 343.167 178.515 C 340.575 178.575, 339.958 180.329, 341.817 182.355 C 342.899 183.535, 344.946 187.759, 346.368 191.742 C 355.299 216.776, 358.593 216.761, 378.257 191.589 C 383.014 185.500, 383.014 185.500, 380.257 183.255 C 377.500 181.010, 377.500 181.010, 381.595 181.005 C 385.827 181, 389.318 178.551, 388.948 175.848 C 388.450 172.218, 389.105 164.947, 389.887 165.430 C 390.374 165.731, 391.348 165.285, 392.051 164.439 C 393.422 162.786, 391.345 159.646, 388.725 159.413 C 388.051 159.354, 386.488 159.236, 385.250 159.152 C 384.012 159.069, 383 158.498, 383 157.883 C 383 157.269, 383.874 156.995, 384.943 157.275 C 388.308 158.155, 389.923 155.014, 390.467 146.527 C 390.788 141.523, 390.569 138.185, 389.863 137.335 C 388.956 136.242, 390.093 136.001, 396.128 136.004 C 403.500 136.007, 403.500 136.007, 400 138.143 C 396.500 140.279, 396.500 140.279, 399.182 142.284 C 401.780 144.226, 401.805 144.340, 399.988 145.895 C 395.822 149.459, 397.681 158, 402.622 158 C 403.930 158, 405 158.450, 405 159 C 405 159.550, 403.720 160, 402.155 160 C 397.267 160, 396 162.524, 396.480 171.312 C 396.712 175.558, 397.140 179.418, 397.432 179.890 C 397.723 180.361, 395.768 181.038, 393.086 181.394 C 386.462 182.273, 385.695 183.467, 388.197 189.003 C 389.315 191.477, 390.925 194.290, 391.775 195.256 C 392.625 196.222, 393.037 197.296, 392.690 197.643 C 392.343 197.990, 393.058 199.675, 394.278 201.387 C 395.498 203.099, 396.498 204.800, 396.498 205.166 C 396.499 205.533, 397.618 207.333, 398.985 209.166 C 400.352 211, 401.375 212.806, 401.258 213.181 C 400.877 214.404, 407.104 219, 409.142 219 C 410.236 219, 412.070 219.502, 413.216 220.116 C 415.394 221.281, 429.099 208.414, 430.550 203.843 C 430.872 202.829, 431.526 202, 432.005 202 C 432.483 202, 435.319 199.119, 438.307 195.597 C 443.739 189.194, 443.739 189.194, 447.204 193.347 C 450.697 197.533, 454.390 203.073, 458.145 209.759 C 464.171 220.487, 470.636 224.272, 475.436 219.883 C 475.969 219.396, 477.099 219.685, 478.060 220.554 C 480.167 222.461, 484.520 217.611, 494.266 202.500 C 496.040 199.750, 497.493 197.264, 497.496 196.976 C 497.498 196.687, 498.465 195.225, 499.644 193.726 C 502.690 189.853, 505.206 190.243, 507.880 195 C 509.116 197.200, 509.905 199, 509.632 199 C 509.359 199, 510.680 201.295, 512.568 204.100 C 514.455 206.906, 516 209.964, 516 210.898 C 516 213.126, 523.505 220.424, 524.906 219.558 C 525.504 219.189, 527.007 218.697, 528.246 218.466 C 532.116 217.743, 536.912 210.013, 545.210 191.124 C 547.242 186.500, 547.242 186.500, 548.871 192.398 C 551.909 203.400, 556.400 202.659, 559.430 190.657 C 561.559 182.227, 559.557 177.054, 554.754 178.578 C 553.071 179.112, 553.010 178.956, 554.177 177.087 C 555.252 175.366, 555.246 174.624, 554.142 172.855 C 552.982 170.998, 553.007 170.789, 554.328 171.296 C 556.642 172.184, 558.393 169.571, 556.523 168.019 C 555.698 167.334, 555.245 166.412, 555.518 165.971 C 555.791 165.529, 555.543 163.927, 554.966 162.411 C 554.390 160.895, 554.224 158.945, 554.598 158.078 C 554.972 157.210, 555.379 155.825, 555.502 155 C 555.625 154.175, 555.859 153.050, 556.022 152.500 C 556.184 151.950, 555.961 150.682, 555.526 149.683 C 555.058 148.609, 555.198 147.402, 555.867 146.733 C 558.535 144.065, 555.742 138, 551.846 138 C 547.982 138, 545.851 142.465, 545.689 150.897 C 545.604 155.354, 545.189 159.056, 544.767 159.125 C 543.396 159.348, 542.539 159.585, 540.125 160.406 C 536.695 161.573, 536.160 159.978, 536.760 150.367 C 537.206 143.218, 537.017 141.676, 535.487 139.985 C 533.726 138.040, 533.762 138, 537.288 138 C 539.815 138, 541.327 137.372, 542.363 135.892 C 543.176 134.732, 544.346 134.096, 544.964 134.478 C 545.582 134.860, 546.748 134.624, 547.556 133.953 C 549.275 132.527, 547.950 130.335, 544.535 128.953 C 543.381 128.486, 550.295 128.210, 560.502 128.315 C 578.505 128.500, 578.505 128.500, 586.191 132.250 C 590.418 134.312, 594.794 136, 595.915 136 C 598.005 136, 601.778 131.445, 600.635 130.302 C 600.286 129.953, 600 130.096, 600 130.621 C 600 131.145, 598.538 131.672, 596.750 131.791 C 593.500 132.007, 593.500 132.007, 596.802 129.872 C 599.116 128.377, 600.014 127.103, 599.802 125.619 C 599.412 122.880, 596.416 123.302, 592.945 126.584 C 589.803 129.555, 590.053 129.558, 582.295 126.455 C 575.933 123.910, 575.933 123.910, 544.716 124.384 C 518.525 124.782, 510.683 124.552, 496 122.957 C 481.450 121.377, 474.876 121.177, 457 121.772 C 421.391 122.956, 324.557 121.778, 313.690 120.027 C 308.076 119.123, 307.397 119.218, 305.291 121.196 C 300.920 125.303, 304.725 130.085, 312.698 130.503 C 320.825 130.930, 320.500 130.790, 318.496 133.004 C 316.978 134.682, 316.873 135.427, 317.854 137.579 C 318.498 138.993, 318.768 140.566, 318.454 141.075 C 317.523 142.580, 311.352 142.129, 309.962 140.454 C 309.257 139.604, 308.066 139.144, 307.317 139.432 C 306.226 139.851, 306.178 139.537, 307.074 137.861 C 309.624 133.097, 295.588 129.348, 290.942 133.552 C 289.015 135.296, 288.859 135.256, 285.680 132.175 C 281.822 128.436, 280.940 128.304, 278.414 131.095 C 276.542 133.164, 276.553 133.219, 279.315 135.595 C 280.853 136.918, 281.706 138, 281.211 138 C 280.715 138, 279.490 137.094, 278.487 135.986 C 277.440 134.829, 275.945 134.200, 274.973 134.508 C 274.043 134.804, 272.714 134.360, 272.019 133.523 C 271.324 132.685, 269.937 132, 268.937 132 C 267.936 132, 266.840 131.550, 266.500 131 C 266.160 130.450, 266.343 130, 266.906 130 C 267.470 130, 269.473 128.646, 271.358 126.990 C 273.447 125.156, 275.402 124.217, 276.364 124.586 C 277.241 124.923, 279.123 124.262, 280.605 123.096 C 282.071 121.943, 284.498 121, 285.999 121 C 287.500 121, 292.952 119.427, 298.114 117.505 C 303.276 115.583, 308.625 114.003, 310 113.995 C 313.315 113.976, 322.010 109.834, 324.418 107.128 C 325.901 105.460, 327.045 105.105, 329.469 105.560 C 332.107 106.055, 333.383 105.504, 337.533 102.074 C 340.245 99.833, 343.052 98, 343.772 98 C 344.491 98, 346.844 97.100, 349 96 C 351.156 94.900, 353.788 94, 354.848 94 C 359.018 94, 392.345 77.824, 397.186 73.451 C 399.251 71.585, 403.542 68.681, 406.720 66.997 C 413.335 63.494, 420.569 58.927, 426.829 54.301 C 433.188 49.603, 437.324 48.460, 441.295 50.302 C 443.058 51.120, 446.033 52.113, 447.906 52.508 C 449.779 52.904, 453.379 54.672, 455.906 56.437 C 458.433 58.202, 463.110 60.963, 466.300 62.573 C 469.490 64.183, 474.440 67.571, 477.300 70.101 C 480.695 73.105, 488.054 77.418, 498.500 82.525 C 507.300 86.827, 518.814 92.744, 524.086 95.674 C 531.107 99.575, 534.722 101, 537.596 101 C 540.417 101, 541.865 101.554, 542.750 102.972 C 543.428 104.057, 544.595 104.709, 545.343 104.422 C 546.092 104.135, 547.411 104.978, 548.275 106.296 C 549.138 107.615, 551.342 109.304, 553.173 110.051 C 555.003 110.798, 558.501 112.667, 560.946 114.205 C 563.391 115.742, 566.026 117, 566.801 117 C 567.577 117, 569.548 118.125, 571.182 119.500 C 572.816 120.875, 574.957 122, 575.938 122 C 578.278 122, 589.806 116.744, 593.004 114.219 C 594.382 113.131, 596.407 112.068, 597.504 111.857 C 600.267 111.325, 600.263 107.370, 597.500 107.840 C 596.400 108.027, 594.790 108.815, 593.921 109.590 C 593.053 110.366, 591.421 111, 590.294 111 C 589.167 111, 587.657 111.708, 586.939 112.573 C 582.680 117.705, 575.408 119.056, 571.182 115.500 C 569.548 114.125, 567.630 113, 566.919 113 C 566.193 113, 566.803 111.771, 568.311 110.198 C 571.052 107.336, 570.466 104.500, 567.378 105.685 C 565.168 106.533, 565.786 104.956, 568.500 102.821 C 569.875 101.740, 571 100.213, 571 99.427 C 571 98.463, 572.135 98, 574.500 98 C 578.813 98, 578.910 98.951, 574.902 101.914 C 572.764 103.495, 572.126 104.526, 572.841 105.241 C 573.557 105.957, 573.279 106.777, 571.945 107.889 C 569.228 110.153, 571.310 114.084, 575.927 115.408 C 579.576 116.454, 586 111.085, 586 106.988 C 586 103.575, 589.425 101.707, 591.493 103.992 C 593.623 106.346, 597.246 106.613, 598.964 104.544 C 600.467 102.732, 599.463 100.885, 597.404 101.675 C 596.488 102.027, 595.272 101.406, 594.380 100.131 C 592.508 97.460, 589.847 97.407, 587.506 99.994 C 585.717 101.970, 585.673 101.955, 582.601 98.404 C 577.968 93.049, 571.782 92.093, 568.807 96.271 C 565.205 101.330, 559.637 105.944, 558.387 104.907 C 557.664 104.306, 556.823 104.509, 556.019 105.477 C 555.334 106.302, 554.353 106.718, 553.838 106.400 C 553.285 106.058, 553.380 105.247, 554.069 104.416 C 554.711 103.643, 555.007 102.133, 554.726 101.061 C 554.351 99.628, 554.783 99.030, 556.354 98.805 C 557.679 98.616, 559.148 97.103, 560.218 94.826 C 562.367 90.253, 562.746 90.025, 569.923 89.011 C 580.759 87.479, 600 77.483, 600 73.385 C 600 70.755, 597.003 70.727, 593.223 73.319 C 591.175 74.724, 588.150 76.180, 586.500 76.555 C 584.850 76.930, 581.542 78.354, 579.149 79.720 C 576.059 81.483, 573.306 82.201, 569.649 82.196 C 561.773 82.186, 554 86.886, 554 91.658 C 554 92.649, 553.009 92.938, 550.541 92.666 C 547.888 92.374, 546.564 92.835, 544.866 94.642 C 541.009 98.748, 535.367 97.942, 524.086 91.673 C 518.814 88.743, 507.018 82.688, 497.874 78.218 C 488.730 73.747, 480.999 69.439, 480.694 68.645 C 480.063 66.999, 472.343 61.791, 463.500 57.043 C 460.200 55.271, 456.146 52.796, 454.490 51.543 C 452.835 50.290, 449.910 48.932, 447.990 48.527 C 446.071 48.121, 443.058 47.120, 441.295 46.302 C 437.324 44.460, 433.188 45.603, 426.829 50.301 C 420.569 54.927, 413.335 59.494, 406.720 62.997 C 403.542 64.681, 399.228 67.606, 397.134 69.498 C 393.791 72.518, 382.964 78.115, 362.434 87.437 C 359.098 88.952, 355.251 90.045, 353.884 89.866 C 352.423 89.674, 350.233 90.459, 348.565 91.770 C 347.006 92.997, 344.995 94, 344.097 94 C 343.198 94, 340.285 95.800, 337.623 98 C 332.412 102.306, 330.473 102.797, 327.443 100.582 C 325.535 99.187, 325.540 99.113, 327.752 96.122 C 328.988 94.450, 330 92.253, 330 91.240 C 330 90.228, 330.498 88.902, 331.106 88.294 C 332.907 86.493, 333.239 74.363, 331.575 71.145 C 329.219 66.589, 324.825 63.857, 323.445 66.089 C 322.104 68.259, 319.782 67.003, 320.422 64.454 C 321.077 61.845, 319.723 60.054, 312.713 54.257 C 311.221 53.023, 310 51.155, 310 50.107 C 310 46.185, 299.357 37.933, 296.326 39.506 C 294.060 40.682, 293.267 40.672, 290.886 39.441 C 286.878 37.368, 285.505 37.618, 281.483 41.149 C 278.783 43.519, 277.614 44.014, 276.749 43.149 C 276.117 42.517, 273.242 42, 270.359 42 C 267.476 42, 264.840 41.550, 264.500 41 C 262.711 38.105, 256.706 40.014, 250.520 45.445 C 245.061 50.238, 244.142 50.714, 242.847 49.418 C 240.387 46.958, 234.500 51.552, 234.500 55.932 C 234.500 62.137, 230.168 64.032, 224.876 60.140 C 222.528 58.413, 220.132 56.981, 219.553 56.957 C 218.974 56.934, 216.524 55.179, 214.109 53.059 C 210.274 49.691, 209.377 49.321, 207.027 50.140 C 205.285 50.748, 203.367 50.710, 201.584 50.032 C 200.071 49.457, 198.309 49.309, 197.671 49.704 C 193.052 52.558, 186.526 51.722, 183.005 47.826 C 179.625 44.086, 179.403 44, 176.780 45.400 C 174.265 46.741, 173.780 46.661, 170.381 44.354 C 167.856 42.641, 165.948 42.047, 164.299 42.461 C 162.691 42.865, 161.042 42.392, 159.314 41.032 C 155.138 37.747, 150.055 38.317, 145.975 42.526 C 140.985 47.674, 136.441 48.776, 131.210 46.107 C 126.084 43.492, 124.784 43.476, 122.500 46 C 120.007 48.755, 115.852 48.536, 113 45.500 C 110.822 43.182, 110.483 43.109, 108.360 44.500 C 107.101 45.325, 105.383 46, 104.544 46 C 103.704 46, 102.455 46.900, 101.768 48 C 100.393 50.201, 97.005 50.733, 96.991 48.750 C 96.921 39.151, 79.193 23.800, 73.807 28.675 C 71.094 31.130, 66.611 29.419, 66.187 25.768 C 65.869 23.030, 60.505 17.570, 59.029 18.482 C 58.588 18.755, 58.005 18.128, 57.734 17.091 C 56.681 13.062, 52.446 11.546, 49.034 13.976 C 47.365 15.164, 46 16.568, 46 17.096 C 46 17.663, 44.087 17.797, 41.333 17.423 C 38.557 17.047, 35.148 17.291, 32.922 18.026 C 28.640 19.439, 24 18.651, 24 16.511 C 24 15.713, 22.650 14.062, 21 12.842 C 19.350 11.622, 18 10.118, 18 9.499 C 18 4.967, 1.844 -0.362, 0.300 3.660 M 20.452 36.411 C 19.380 37.195, 18.841 38.174, 19.254 38.587 C 19.667 39, 19.317 40.097, 18.477 41.025 C 17.106 42.540, 17.110 42.847, 18.519 44.016 C 19.843 45.114, 20.326 44.980, 21.601 43.159 C 23.628 40.266, 25.086 40.437, 28.466 43.964 C 30.028 45.595, 31.634 46.726, 32.035 46.478 C 32.437 46.230, 33.947 46.957, 35.392 48.094 C 38.583 50.604, 43.500 49.584, 43.500 46.412 C 43.500 43.805, 44.909 41.826, 46.199 42.623 C 46.808 42.999, 47.064 42.687, 46.801 41.889 C 46.215 40.110, 42.289 39.515, 40.567 40.945 C 39.640 41.714, 38.438 41.737, 36.556 41.021 C 34.684 40.310, 33.248 40.332, 31.824 41.094 C 30.082 42.027, 29.231 41.655, 26.090 38.588 C 22.737 35.314, 22.224 35.116, 20.452 36.411 M 13.553 44 C 14.022 44.825, 15.413 46.299, 16.644 47.276 C 19.719 49.717, 20.525 52.763, 18.644 54.841 C 17.133 56.511, 22.460 60.304, 29.273 62.407 C 30.248 62.708, 31.217 63.527, 31.427 64.227 C 32.870 69.044, 33.016 69.232, 34.409 68.076 C 35.170 67.444, 35.572 66.081, 35.302 65.048 C 34.685 62.687, 38.920 59.689, 41.609 60.584 C 42.649 60.930, 42.038 60.272, 40.250 59.121 C 38.462 57.971, 36.986 56.460, 36.969 55.765 C 36.951 55.069, 35.781 53.657, 34.368 52.627 C 31.374 50.446, 32.318 53.359, 35.445 55.955 C 39.283 59.139, 36.374 62.089, 30.850 60.614 C 23.028 58.527, 18.920 50.503, 24.565 48.337 C 25.354 48.034, 26 47.081, 26 46.219 C 26 44.970, 25.529 45.094, 23.686 46.826 C 20.669 49.659, 20.228 49.596, 16.147 45.750 C 14.251 43.962, 13.084 43.175, 13.553 44 M 282.461 46.683 C 279.529 50.196, 279.337 50.268, 276.961 48.759 C 274.197 47.003, 260.347 45.747, 262.003 47.403 C 263.527 48.927, 263.063 52.089, 260.668 56.487 C 257.858 61.646, 255.624 61.997, 251.435 57.937 C 247.507 54.130, 243.079 55.220, 246.613 59.125 C 247.963 60.616, 248.041 61.246, 247.026 62.469 C 245.679 64.092, 246.284 67, 247.969 67 C 248.536 67, 249 66.395, 249 65.655 C 249 62.868, 252.296 61.003, 254.441 62.576 C 257.264 64.647, 259.175 64.352, 264.021 61.097 C 268.389 58.163, 270.100 58.103, 273.213 60.773 C 274.155 61.581, 275.595 61.986, 276.414 61.671 C 278.566 60.846, 282.479 64.308, 281.698 66.346 C 280.565 69.297, 274.364 71.576, 270.960 70.291 C 268.853 69.496, 268 69.486, 268 70.258 C 268 70.855, 267.212 72.278, 266.250 73.421 C 264.520 75.477, 264.524 75.480, 266.623 73.710 C 267.882 72.648, 270.119 71.990, 272.123 72.093 C 276.419 72.312, 279.571 71.024, 285.960 66.434 C 290.899 62.885, 291.143 62.820, 293.034 64.531 C 294.379 65.748, 294.685 66.674, 294.012 67.485 C 292.499 69.308, 299.127 69.059, 301.250 67.212 C 303.990 64.829, 303.299 63.574, 300.322 65.525 C 297.468 67.394, 294 65.106, 294 61.354 C 294 60.291, 293.542 60.175, 292.196 60.895 C 291.204 61.426, 289.789 61.488, 289.052 61.032 C 288.315 60.577, 286.400 60.662, 284.797 61.221 C 280.445 62.738, 275.943 58.612, 278.816 55.739 C 282.076 52.479, 288.176 50.879, 290.250 52.740 C 291.212 53.603, 292.056 54.015, 292.125 53.655 C 292.194 53.295, 292.313 52.663, 292.390 52.250 C 292.830 49.900, 294.226 48.943, 295.578 50.065 C 296.348 50.704, 296.731 51.626, 296.430 52.113 C 295.174 54.145, 297.213 54.784, 299.946 53.216 C 305.351 50.114, 311.308 59.040, 306.406 62.895 C 305.046 63.965, 304.338 65.091, 304.833 65.397 C 305.328 65.703, 306.538 65.063, 307.521 63.976 C 308.505 62.889, 310.365 62, 311.655 62 C 314.809 62, 314.654 61.542, 310 57.115 C 307.800 55.022, 306 52.372, 306 51.226 C 306 47.997, 303.286 46, 298.896 46 C 296.718 46, 293.320 45.325, 291.346 44.500 C 286.395 42.432, 285.911 42.551, 282.461 46.683 M 153.558 46.906 C 153.175 47.526, 152.481 47.797, 152.016 47.510 C 151.550 47.222, 149.894 48.058, 148.335 49.368 C 144.969 52.196, 133.875 53.971, 131.563 52.053 C 129.163 50.060, 128.517 52.961, 130.843 55.288 C 132.808 57.253, 133.038 57.276, 134.793 55.687 C 137.387 53.339, 138.552 53.563, 140.898 56.857 C 142.955 59.746, 140.863 64, 137.386 64 C 136.842 64, 136.592 65.632, 136.828 67.649 C 137.252 71.286, 138.971 70.342, 139.644 66.103 C 140.214 62.518, 142.402 61.981, 145.754 64.604 C 149.662 67.663, 149.815 69.214, 146.466 71.848 C 142.897 74.655, 145.149 75.475, 149.847 73.078 C 153.907 71.007, 157 72.196, 157 75.829 C 157 76.473, 158.238 77.070, 159.750 77.157 C 161.262 77.243, 163.752 77.401, 165.283 77.508 C 166.813 77.615, 168.302 77.320, 168.592 76.851 C 168.881 76.383, 168.472 76, 167.681 76 C 164.158 76, 163.437 72.881, 166.377 70.352 C 168.565 68.470, 168.939 67.631, 168.060 66.573 C 166.467 64.653, 169.396 57.686, 173.110 54.561 C 176.537 51.677, 176.697 51, 173.950 51 C 172.823 51, 170.461 50.228, 168.700 49.284 C 166.940 48.340, 164.600 47.482, 163.500 47.377 C 162.400 47.273, 159.870 46.871, 157.877 46.484 C 155.552 46.032, 154.005 46.183, 153.558 46.906 M 256.246 48.261 C 253.030 52.324, 252.553 57.011, 255.357 56.992 C 256.674 56.983, 259 52.430, 259 49.860 C 259 47.576, 257.484 46.696, 256.246 48.261 M 26.163 51.303 C 24.721 53.041, 26.920 56.385, 29.160 55.859 C 30.502 55.543, 30.482 55.164, 28.990 52.721 C 27.608 50.460, 27.082 50.196, 26.163 51.303 M 104.610 53.038 C 101.179 56.050, 96.993 56.415, 95.402 53.841 C 95.059 53.287, 94.234 53.391, 93.386 54.095 C 92.150 55.120, 92.146 55.511, 93.356 56.893 C 95.359 59.180, 96.264 62.719, 95.041 63.475 C 94.468 63.829, 94 65.147, 94 66.404 C 94 70.172, 90.900 72.318, 88.194 70.423 C 85.640 68.634, 85.442 69.407, 87.463 73.281 C 88.261 74.810, 88.687 76.651, 88.411 77.371 C 88.135 78.091, 88.604 79.257, 89.454 79.962 C 91.489 81.651, 91.407 82.620, 88.932 86.095 C 87.609 87.953, 87.099 89.736, 87.515 91.047 C 88.366 93.729, 86.397 96, 83.223 96 C 80.797 96, 80.763 96.081, 82.410 97.901 C 83.536 99.145, 83.762 100.029, 83.065 100.460 C 81.537 101.404, 81.752 104.550, 83.441 105.951 C 84.233 106.608, 84.633 107.793, 84.329 108.584 C 83.961 109.543, 84.262 109.837, 85.228 109.466 C 87.305 108.669, 89.433 111.412, 87.762 112.731 C 87.068 113.279, 85.713 113.799, 84.750 113.888 C 78.760 114.436, 79.058 114.160, 81.246 117.119 C 82.494 118.807, 82.927 120.311, 82.406 121.155 C 81.880 122.009, 82.555 121.861, 84.253 120.750 C 87.481 118.639, 91.807 118.539, 94.418 120.515 C 96.447 122.050, 99.876 119.227, 98.563 117.102 C 98.259 116.611, 98.865 115.153, 99.910 113.863 C 101.900 111.405, 106 113.180, 106 116.500 C 106 117.155, 106.960 118.547, 108.133 119.595 C 110.241 121.478, 110.258 121.475, 109.610 119.391 C 108.854 116.957, 110.621 115.115, 113.300 115.547 C 115.764 115.945, 118.105 118.021, 117.392 119.175 C 117.069 119.697, 118.744 121.969, 121.114 124.223 C 124.843 127.770, 125.382 128.804, 125.127 131.911 C 124.832 135.500, 124.832 135.500, 128.344 132.124 C 131.347 129.237, 132.266 128.865, 134.678 129.563 C 136.230 130.012, 138.870 130.269, 140.545 130.135 C 142.575 129.972, 144.211 130.576, 145.451 131.946 C 147.311 134.001, 147.311 134.001, 148.856 131.795 C 151.679 127.765, 150.393 117.599, 147.378 120.101 C 142.800 123.900, 135.805 120.465, 138.356 115.671 C 140.809 111.059, 141.086 110.827, 142.613 112.094 C 144.274 113.472, 145.545 112.691, 144.470 110.952 C 144.069 110.303, 143.658 107.164, 143.557 103.978 C 143.313 96.299, 139.050 91.925, 133.993 94.164 C 132.100 95.001, 131.177 96.018, 131.513 96.894 C 132.190 98.657, 129.235 102, 127 102 C 124.423 102, 121.748 98.652, 123.181 97.219 C 124.052 96.348, 123.866 95.899, 122.417 95.385 C 113.042 92.059, 110.082 89.811, 112.013 87.485 C 113.403 85.810, 123.427 86.279, 125.648 88.123 C 127.267 89.467, 127.183 89.666, 127.496 83.731 C 127.634 81.108, 127.332 78.705, 126.825 78.392 C 124.876 77.188, 128.168 75.084, 131.087 75.667 C 133.411 76.132, 134 75.898, 134 74.512 C 134 72.727, 133.144 72.730, 125.804 74.546 C 117.966 76.484, 113.542 63.282, 119.819 56.686 C 121.611 54.803, 121.922 54.093, 120.761 54.538 C 119.702 54.945, 117.292 54.189, 114.584 52.602 C 109.021 49.342, 108.808 49.351, 104.610 53.038 M 175.827 56.447 C 172.442 59.602, 171.469 62.639, 172.955 65.415 C 174.973 69.187, 186.900 66.922, 186.985 62.750 C 186.999 62.044, 185.411 61.703, 184.654 62.250 C 183.862 62.821, 180.774 59.435, 179.679 56.796 C 178.500 53.955, 178.500 53.955, 175.827 56.447 M 123.254 57.230 C 121.563 59.030, 121.128 60.662, 121.224 64.858 C 121.367 71.155, 122.230 71.743, 128.572 69.871 C 134.170 68.218, 134.195 63.863, 128.636 58.220 C 125.406 54.939, 125.406 54.939, 123.254 57.230 M 189.624 57.800 C 189.293 58.335, 189.680 59.320, 190.485 59.987 C 192.348 61.534, 190.416 65.741, 186.385 68.912 C 184.925 70.060, 184.289 71, 184.971 71 C 185.653 71, 187.548 69.875, 189.182 68.500 C 193.085 65.216, 196.331 65.299, 198.910 68.750 C 200.041 70.263, 201.384 71.877, 201.894 72.339 C 207.437 77.346, 208.158 78.288, 207.721 79.960 C 207.174 82.052, 211.707 83.303, 214.391 81.801 C 215.217 81.339, 217.812 81.408, 220.193 81.958 C 227.234 83.582, 227.756 83.402, 228.482 79.109 C 228.847 76.949, 230.214 74.208, 231.557 72.946 C 234.121 70.538, 233.324 67.555, 230.414 68.671 C 229.622 68.975, 228.342 68.699, 227.570 68.058 C 226.451 67.129, 224.913 67.844, 220.015 71.569 C 213.866 76.245, 213.866 76.245, 211.183 73.726 C 209.007 71.683, 208.172 71.421, 206.764 72.340 C 204.579 73.765, 199.852 69.748, 201.626 67.974 C 204.076 65.524, 201.702 59.574, 197.985 58.852 C 196.068 58.479, 193.538 57.871, 192.363 57.500 C 191.187 57.129, 189.955 57.264, 189.624 57.800 M 79.864 61.428 C 77.690 63.907, 76.967 64.218, 75.741 63.200 C 73.792 61.583, 71 62.706, 71 65.107 C 71 66.447, 71.713 67, 73.441 67 C 74.784 67, 76.127 67.396, 76.426 67.881 C 77.591 69.765, 81.714 69.688, 82.918 67.759 C 83.835 66.292, 84.426 66.109, 85.467 66.973 C 88.083 69.144, 88.309 65.934, 85.734 63.169 C 84.368 61.701, 83.081 60.032, 82.875 59.461 C 82.669 58.890, 81.314 59.775, 79.864 61.428 M 210.041 60.456 C 208.759 61.821, 207.325 62.701, 206.855 62.410 C 206.385 62.120, 206 62.782, 206 63.882 C 206 68.185, 210.424 66.813, 213.185 61.654 C 214.849 58.545, 212.630 57.700, 210.041 60.456 M 237.210 62.001 C 233.922 65.829, 233.921 65.833, 236.418 65.558 C 241.608 64.989, 245.105 61.505, 242.800 59.200 C 241.151 57.551, 240.941 57.656, 237.210 62.001 M 268 62.876 C 268 64.452, 271.684 67, 273.964 67 C 276.270 67, 276.270 67, 273.885 65.170 C 270.969 62.933, 268 61.776, 268 62.876 M 253 66.918 C 253 68.809, 248.121 71.345, 246.719 70.182 C 245.814 69.430, 244.449 69.561, 241.974 70.635 C 233.831 74.169, 233.530 74.440, 232.500 79.149 C 231.354 84.388, 229.524 87, 227 87 C 226.035 87, 224.680 87.681, 223.990 88.512 C 222.687 90.083, 219.463 88.678, 220.504 86.993 C 221.229 85.820, 216.149 84.817, 214.410 85.791 C 210.419 88.024, 203.595 84.222, 203.531 79.728 C 203.510 78.318, 202.688 77.405, 201.095 77.027 C 198.732 76.465, 197.678 75.227, 196.604 71.750 C 195.816 69.201, 192.887 69.608, 190.504 72.598 C 188.533 75.069, 186.692 75.576, 177.250 76.245 C 176.563 76.293, 175.944 76.708, 175.875 77.167 C 175.227 81.486, 174.535 81.763, 165.270 81.407 C 157.199 81.096, 156.331 80.860, 154.386 78.439 C 152.310 75.855, 152.215 75.838, 149.063 77.467 C 146.027 79.038, 145.654 79.021, 142.095 77.166 C 137.271 74.652, 130.354 79.781, 131.504 85.019 C 131.848 86.582, 131.652 88.097, 131.059 88.464 C 130.476 88.824, 130 89.541, 130 90.059 C 130 91.330, 133.721 91.261, 134.515 89.976 C 137.197 85.637, 147.029 95.284, 147.584 102.797 C 148.054 109.173, 149.977 116.027, 152.057 118.741 C 153.001 119.974, 154.081 122.616, 154.455 124.613 C 155.136 128.244, 155.136 128.244, 158.150 125.372 C 161.164 122.500, 161.164 122.500, 163.405 125.294 C 165.645 128.088, 165.645 128.088, 170.784 125.422 C 176.816 122.293, 177.939 122.553, 181.878 127.990 C 183.517 130.253, 185.122 131.611, 185.477 131.037 C 186.290 129.721, 191.682 129.677, 192.487 130.980 C 192.869 131.596, 193.816 131.507, 195.046 130.739 C 196.520 129.819, 197.447 129.798, 198.820 130.655 C 199.820 131.280, 201.848 131.561, 203.325 131.278 C 204.803 130.996, 206.617 131.267, 207.357 131.881 C 209.055 133.291, 214.749 129.623, 222.385 122.201 C 228.528 116.231, 228.844 116.141, 231.971 119.469 C 234.894 122.581, 236.025 121.929, 235.313 117.541 C 234.439 112.155, 238.931 109.864, 249.532 110.290 C 253.950 110.467, 258.083 110.933, 258.717 111.325 C 259.352 111.717, 261.380 111.191, 263.225 110.155 C 269.856 106.430, 284.090 108.809, 281.383 113.189 C 280.418 114.750, 283.136 117, 285.986 117 C 287.494 117, 292.952 115.427, 298.114 113.505 C 303.276 111.583, 308.625 110.003, 310 109.995 C 312.618 109.980, 323 105.556, 323 104.456 C 323 104.107, 322.066 103.065, 320.925 102.140 C 318.850 100.460, 318.850 100.460, 320.961 97.777 C 322.122 96.301, 323.569 93.610, 324.177 91.797 C 324.786 89.984, 325.907 87.775, 326.670 86.890 C 327.665 85.735, 327.794 84.590, 327.128 82.837 C 326.538 81.286, 326.566 79.741, 327.203 78.601 C 329.222 74.993, 326.314 74.452, 323.144 77.846 C 319.859 81.362, 318.795 81.662, 317.053 79.564 C 316.168 78.498, 316.146 77.596, 316.966 76.064 C 317.612 74.856, 317.674 74, 317.115 74 C 316.589 74, 315.864 75.345, 315.503 76.989 C 314.206 82.893, 310.008 83.280, 304.856 77.972 C 300.178 73.151, 297.188 71.840, 293.345 72.926 C 291.171 73.540, 290.007 73.284, 288.412 71.843 C 286.365 69.993, 286.276 69.995, 283.780 71.958 C 280.262 74.726, 276.032 76.302, 272.632 76.111 C 271.055 76.023, 269.189 76.428, 268.484 77.013 C 265.721 79.306, 262.735 78.892, 257.394 75.475 C 251.452 71.674, 251.306 71.425, 253.565 68.928 C 254.603 67.781, 254.771 66.977, 254.065 66.540 C 253.479 66.178, 253 66.348, 253 66.918 M 314.041 70.942 C 311.559 74.428, 310.415 74.685, 307.823 72.339 C 305.011 69.795, 304.544 71.465, 307.100 74.921 C 309.694 78.430, 310.799 78.751, 311.678 76.250 C 312.016 75.287, 313.432 73.267, 314.824 71.760 C 316.215 70.254, 317.099 68.765, 316.786 68.453 C 316.474 68.140, 315.238 69.261, 314.041 70.942 M 298.626 82.861 C 294.694 87.205, 299.182 93.751, 305.306 92.602 C 307.752 92.143, 309.081 92.393, 309.984 93.481 C 311.793 95.661, 315.054 95.347, 318.400 92.670 C 321.300 90.349, 321.300 90.349, 318.170 88.121 C 316.449 86.896, 314.244 85.705, 313.271 85.475 C 306.624 83.907, 304.201 83.178, 302.352 82.189 C 300.651 81.278, 299.943 81.406, 298.626 82.861 M 240.115 114.908 C 239.193 115.491, 238.950 116.666, 239.389 118.415 C 240.149 121.443, 241.823 120.976, 245.924 116.592 C 248.349 114, 248.349 114, 244.924 114.015 C 243.041 114.024, 240.877 114.425, 240.115 114.908 M 252.750 120.635 C 244.934 128.288, 245.212 127.799, 248.772 127.653 C 251.026 127.561, 251.539 127.080, 251.522 125.076 C 251.484 120.800, 256.230 118.928, 259.446 121.949 C 260.851 123.269, 262 124.919, 262 125.615 C 262 126.312, 262.563 127.206, 263.250 127.601 C 263.938 127.997, 264.166 127.952, 263.759 127.502 C 262.492 126.104, 265.074 123.817, 266.544 125.036 C 269.466 127.461, 268.490 124.137, 264.846 119.250 C 260.029 112.791, 260.856 112.696, 252.750 120.635 M 27.528 115.954 C 26.309 117.926, 28.187 121.632, 30.929 122.667 C 32.998 123.448, 34.634 125.548, 37.121 130.614 C 40.500 137.500, 40.500 137.500, 40.812 133.148 C 41.035 130.054, 40.613 128.230, 39.354 126.839 C 37.480 124.768, 37.311 119.535, 39.051 117.439 C 39.758 116.586, 39.391 116.070, 37.771 115.636 C 34.277 114.700, 28.187 114.889, 27.528 115.954 M 273.500 118 C 276.804 121.448, 277.654 121.702, 277.697 119.250 C 277.743 116.602, 276.044 115, 273.190 115 C 270.626 115, 270.626 115, 273.500 118 M 57.601 118.402 C 58.590 120.979, 65.023 121.421, 67.371 119.073 C 69.444 117, 69.444 117, 63.254 117 C 58.354 117, 57.175 117.292, 57.601 118.402 M 101.060 121.428 C 100.123 122.557, 100.408 123.857, 102.423 127.643 C 105.089 132.650, 104.791 134.104, 100.980 134.685 C 98.048 135.133, 93.911 138.047, 94.608 139.175 C 94.944 139.718, 96.002 139.403, 97.062 138.444 C 98.918 136.764, 99.307 136.822, 103.939 139.476 C 106.166 140.751, 106.473 140.684, 107.461 138.703 C 109.530 134.553, 113.564 134.185, 117.300 137.806 C 122.536 142.881, 127.426 141.444, 122.698 136.219 C 121.764 135.187, 121 133.225, 121 131.858 C 121 128.192, 115.759 123.380, 114.032 125.461 C 111.985 127.928, 109.434 127.258, 106.568 123.500 C 103.616 119.629, 102.805 119.325, 101.060 121.428 M 71.135 123.337 C 70.289 124.357, 70.568 125.185, 72.310 126.821 C 74.595 128.968, 74.595 128.968, 74.188 125.484 C 73.754 121.768, 72.923 121.183, 71.135 123.337 M 85.685 124.378 C 85.394 125.136, 85.567 126.167, 86.068 126.668 C 86.618 127.218, 86.610 128.874, 86.048 130.834 C 85.115 134.087, 85.115 134.087, 89.224 131.793 C 93.404 129.460, 94.762 126.624, 92.821 124.284 C 91.401 122.574, 86.352 122.640, 85.685 124.378 M 307 124.258 C 307 125.801, 312.449 127.458, 314.122 126.424 C 317.928 124.072, 324.890 129.993, 322.538 133.582 C 320.258 137.062, 321.100 137.587, 324.004 134.496 C 326.564 131.770, 331.151 131.271, 338.325 132.935 C 342.048 133.800, 342.104 133.772, 340.420 131.912 C 338.780 130.099, 338.781 129.900, 340.442 128.064 C 342.632 125.644, 341.133 125.336, 323.500 124.590 C 316.900 124.310, 310.488 123.786, 309.250 123.424 C 307.628 122.950, 307 123.183, 307 124.258 M 349.750 125.732 C 352.087 125.943, 355.913 125.943, 358.250 125.732 C 360.587 125.522, 358.675 125.349, 354 125.349 C 349.325 125.349, 347.413 125.522, 349.750 125.732 M 366.500 126 C 368.150 126.420, 373.100 126.753, 377.500 126.741 C 385.346 126.719, 385.394 126.704, 380 125.958 C 372.433 124.912, 362.347 124.943, 366.500 126 M 442 126 C 434.500 126.640, 434.500 126.640, 444.500 126.805 C 450 126.895, 455.175 126.533, 456 126 C 457.675 124.918, 454.689 124.918, 442 126 M 473.500 127 C 475.771 129.509, 477.159 129.516, 480.139 127.033 C 482.500 125.067, 482.500 125.067, 477.095 125.033 C 471.753 125, 471.711 125.023, 473.500 127 M 526.421 129.533 C 534.606 130.909, 540.353 130.981, 541.610 129.723 C 542.008 129.325, 541.021 128.978, 539.417 128.950 C 537.813 128.923, 532.450 128.744, 527.500 128.551 C 518.500 128.202, 518.500 128.202, 526.421 129.533 M 468.675 129.658 C 467.506 130.828, 470.172 133, 472.777 133 C 475.247 133, 475.265 132.950, 473.500 131 C 471.661 128.968, 469.865 128.468, 468.675 129.658 M 218.726 130.974 C 220.408 132.865, 218.356 135.541, 216.443 133.952 C 214.953 132.717, 208.750 136.200, 204.742 140.523 C 202.509 142.931, 201.854 143.080, 195.226 142.700 C 191.141 142.466, 187.673 142.727, 187.087 143.313 C 186.526 143.874, 181.889 144.357, 176.783 144.387 C 171.677 144.416, 168.625 144.585, 170 144.762 C 171.375 144.939, 173.456 145.560, 174.625 146.144 C 176.136 146.898, 177.345 146.885, 178.809 146.102 C 181.421 144.705, 191.262 144.662, 192.642 146.042 C 193.366 146.766, 194.077 146.612, 194.965 145.542 C 196.667 143.492, 205.295 143.446, 206.983 145.479 C 207.924 146.614, 208.677 146.708, 210.216 145.885 C 211.319 145.294, 214.084 145, 216.361 145.230 C 218.637 145.460, 221.913 145.270, 223.641 144.808 C 225.555 144.295, 227.864 144.378, 229.554 145.020 C 231.468 145.748, 232.647 145.753, 233.363 145.037 C 234.552 143.848, 244.100 143.624, 245.597 144.750 C 246.145 145.162, 244.656 143.700, 242.288 141.500 C 239.921 139.300, 237.987 136.952, 237.992 136.281 C 237.996 135.611, 237.388 135.298, 236.640 135.585 C 235.892 135.872, 233.875 134.925, 232.159 133.480 C 229.989 131.655, 228.407 131.054, 226.971 131.509 C 225.834 131.870, 224.291 131.656, 223.541 131.034 C 222.557 130.218, 221.989 130.208, 221.500 131 C 221.018 131.780, 220.342 131.736, 219.161 130.847 C 217.771 129.800, 217.700 129.821, 218.726 130.974 M 404.500 131 C 397.506 131.646, 397.508 131.647, 407.500 131.808 C 414.268 131.917, 417.015 131.656, 416 131 C 415.175 130.467, 413.825 130.103, 413 130.192 C 412.175 130.281, 408.350 130.644, 404.500 131 M 479.759 131.386 C 477.369 133.200, 487.854 134.053, 509.901 133.838 C 526.500 133.677, 526.500 133.677, 512 132.960 C 504.025 132.565, 494.575 131.741, 491 131.129 C 482.858 129.734, 481.906 129.756, 479.759 131.386 M 429.449 131.918 C 430.220 133.165, 447.740 133.229, 448.507 131.988 C 448.894 131.362, 445.409 131, 439 131 C 433.110 131, 429.119 131.384, 429.449 131.918 M 130.067 135.250 C 129.082 137.802, 130.220 139.401, 133.784 140.471 C 135.812 141.079, 136.015 140.869, 135.603 138.594 C 135.347 137.185, 135.605 135.744, 136.176 135.391 C 136.845 134.978, 136.731 134.445, 135.857 133.890 C 133.443 132.361, 130.957 132.945, 130.067 135.250 M 146.574 135.880 C 146.182 136.514, 145.415 136.756, 144.868 136.418 C 143.636 135.657, 139.847 138.943, 140.583 140.134 C 141.248 141.210, 149.705 141.287, 150.363 140.222 C 150.627 139.794, 150.043 138.383, 149.065 137.086 C 147.869 135.500, 147.053 135.105, 146.574 135.880 M 291.131 137.342 C 289.606 139.180, 290.820 140.129, 292.975 138.783 C 294.857 137.608, 296.076 137.949, 299.957 140.736 C 301.309 141.706, 302.089 141.969, 301.691 141.319 C 301.293 140.670, 301.425 139.856, 301.984 139.510 C 302.543 139.165, 303 138.234, 303 137.441 C 303 135.502, 292.730 135.416, 291.131 137.342 M 326.361 141.991 C 326.437 145.286, 326.725 147.859, 327 147.709 C 327.275 147.559, 328.738 146.816, 330.250 146.057 C 332.154 145.103, 333 143.906, 333 142.168 C 333 140.787, 333.745 138.835, 334.655 137.829 C 336.238 136.080, 336.089 136, 331.266 136 C 326.222 136, 326.222 136, 326.361 141.991 M 355.880 139.775 C 356.496 140.926, 357 143.191, 357 144.806 C 357 147.439, 357.398 147.808, 360.831 148.357 C 362.939 148.694, 365.483 149.877, 366.486 150.985 C 368.888 153.639, 369.516 153.551, 374.088 149.930 C 376.220 148.242, 378.444 147.156, 379.030 147.519 C 380.113 148.188, 387 141.629, 387 139.929 C 387 139.418, 384.595 139, 381.656 139 C 378.716 139, 371.462 138.703, 365.535 138.341 C 354.818 137.685, 354.765 137.693, 355.880 139.775 M 513.826 140.314 C 516.363 143.016, 516.596 145.260, 514.518 146.985 C 513.210 148.071, 513.210 148.461, 514.518 150.330 C 517.809 155.028, 515.389 163, 510.671 163 C 509.752 163, 509 163.450, 509 164 C 509 164.550, 509.675 165, 510.500 165 C 512.966 165, 513.449 165.128, 514.606 166.088 C 516.025 167.265, 516.188 180.069, 514.805 181.735 C 513.984 182.724, 514.769 183, 518.401 183 C 522.988 183, 523.028 182.972, 521.574 180.750 C 517.380 174.343, 519.516 165, 525.174 165 C 527.997 165, 527.353 161.708, 524.177 159.902 C 521.062 158.130, 520.750 152.186, 523.601 148.936 C 524.420 148.002, 524.610 146.996, 524.073 146.436 C 522.537 144.839, 522.435 141.385, 523.873 139.654 C 525.126 138.143, 524.657 138, 518.448 138 C 511.651 138, 511.651 138, 513.826 140.314 M 403 140.941 C 403 141.459, 403.478 142.177, 404.062 142.538 C 404.646 142.899, 405.545 144.303, 406.060 145.657 C 406.575 147.012, 407.406 147.867, 407.907 147.557 C 408.408 147.248, 411.495 149.231, 414.766 151.964 C 420.714 156.934, 420.714 156.934, 423.031 154.467 C 425.045 152.323, 426.221 152, 432.008 152 C 436.641 152, 438.682 151.620, 438.718 150.750 C 438.746 150.063, 439.209 147.654, 439.745 145.397 C 440.721 141.295, 440.721 141.295, 428.111 140.651 C 410.537 139.755, 403 139.842, 403 140.941 M 252.232 143 C 251.086 144.836, 251.233 145, 254.027 145 C 256.760 145, 256.961 144.796, 256 143 C 255.411 141.900, 254.604 141, 254.205 141 C 253.807 141, 252.919 141.900, 252.232 143 M 320.570 143.534 C 319.656 144.928, 317.692 146.313, 316.205 146.611 C 312.115 147.433, 309.478 149.663, 310.756 151.219 C 311.335 151.923, 311.939 154.075, 312.098 156 C 312.466 160.455, 312.858 161.211, 314.319 160.282 C 316.532 158.874, 320.641 160.153, 319.555 161.911 C 319.322 162.287, 319.545 163.249, 320.051 164.048 C 320.678 165.040, 320.974 163.855, 320.985 160.309 C 320.993 157.454, 321.422 154.857, 321.938 154.539 C 322.769 154.025, 323.360 141, 322.553 141 C 322.375 141, 321.483 142.140, 320.570 143.534 M 338.667 141.667 C 338.300 142.033, 338 143.118, 338 144.078 C 338 145.037, 336.650 146.958, 335 148.347 C 331.371 151.401, 331.205 153.587, 334.413 156.110 C 335.884 157.268, 337.084 159.535, 337.487 161.922 C 338.544 168.179, 350 170.444, 350 164.396 C 350 160.150, 354.170 156.902, 358.154 158.044 C 359.987 158.570, 361.602 159, 361.743 159 C 361.885 159, 362 158.155, 362 157.122 C 362 154.834, 360.367 153.381, 356.785 152.482 C 352.976 151.526, 351.652 149.514, 351.831 144.952 C 351.986 141, 351.986 141, 345.659 141 C 342.180 141, 339.033 141.300, 338.667 141.667 M 478.500 147.153 C 478.500 153.500, 478.500 153.500, 485.213 153.795 C 491.051 154.051, 492.189 154.425, 493.952 156.667 C 495.825 159.047, 496.152 159.132, 498.240 157.780 C 501.390 155.740, 505.756 154.797, 506.498 155.996 C 507.571 157.733, 508.749 157.094, 509.244 154.506 C 509.512 153.104, 509.136 151.528, 508.386 150.906 C 507.300 150.004, 507.538 149.162, 509.665 146.372 C 513.260 141.659, 512.934 141.545, 494.667 141.153 C 478.500 140.805, 478.500 140.805, 478.500 147.153 M 527 143.300 C 527 144.565, 527.423 146.028, 527.940 146.550 C 529.524 148.150, 529.929 152.814, 528.581 153.933 C 527.885 154.510, 527.020 154.687, 526.658 154.325 C 526.296 153.963, 526 153.988, 526 154.381 C 526 154.774, 527.237 156.166, 528.750 157.475 C 532.088 160.363, 532.685 158.957, 532.882 147.750 C 533 141, 533 141, 530 141 C 527.536 141, 527 141.411, 527 143.300 M 549.661 147.967 C 548.881 155.433, 549.767 158.535, 551.489 154.367 C 552.346 152.293, 552.376 151.016, 551.596 149.750 C 550.809 148.472, 550.853 147.464, 551.759 146.014 C 553.374 143.428, 553.333 142, 551.642 142 C 550.720 142, 550.085 143.914, 549.661 147.967 M 39.511 145.103 C 39.072 146.421, 38.653 147.950, 38.580 148.500 C 38.199 151.371, 36.881 151.968, 34.448 150.374 C 33.028 149.443, 32 149.222, 32 149.846 C 32 151.526, 35.921 154.763, 38.843 155.497 C 43.930 156.773, 45.365 159.842, 42.798 163.952 C 41.850 165.470, 41.880 166.407, 42.941 168.390 C 43.867 170.120, 44.109 172.866, 43.716 177.198 C 43.369 181.023, 43.489 182.878, 44.022 181.926 C 45.272 179.691, 45.944 169.527, 44.947 167.915 C 44.422 167.064, 44.871 165.327, 46.154 163.251 C 47.730 160.701, 47.935 159.627, 47.050 158.561 C 46.345 157.711, 46.273 156.950, 46.862 156.585 C 48.259 155.722, 47.679 153.407, 45.448 150.943 C 44.377 149.759, 43.725 148.715, 44 148.624 C 44.275 148.532, 43.557 147.163, 42.405 145.582 C 40.310 142.706, 40.310 142.706, 39.511 145.103 M 445 146.489 C 445 152.666, 440.088 157.668, 435.018 156.654 C 432.840 156.218, 432.018 156.599, 430.990 158.519 C 429.255 161.761, 430.896 163.693, 436.609 165.132 C 441.658 166.403, 442.701 167.416, 443.162 171.500 C 443.495 174.458, 443.609 174.512, 451.240 175.368 C 463.215 176.711, 472.303 175.232, 472.443 171.917 C 472.680 166.273, 475.377 164.080, 481.323 164.694 C 485.737 165.149, 486.804 164.952, 487.329 163.584 C 488.518 160.488, 485.883 158, 481.414 158 C 476.270 158, 473.939 155.636, 473.275 149.746 C 472.786 145.412, 472.786 145.412, 466.143 145.386 C 462.489 145.372, 456.238 145.027, 452.250 144.619 C 445 143.879, 445 143.879, 445 146.489 M 113 145.709 C 113.825 146.013, 115.303 146.961, 116.285 147.817 C 117.916 149.239, 118.260 149.185, 120.258 147.187 C 122.444 145, 122.444 145, 116.972 145.079 C 113.963 145.122, 112.175 145.406, 113 145.709 M 582.442 146.958 C 581.876 147.524, 580.166 148.091, 578.643 148.217 C 574.895 148.528, 573.340 150.496, 575.128 152.665 C 576.384 154.190, 576.108 154.277, 571.872 153.701 C 568.209 153.203, 566.932 153.429, 565.745 154.786 C 563.371 157.499, 561.413 177.634, 562.946 183.569 C 563.490 185.675, 563.309 187.224, 562.369 188.510 C 558.437 193.887, 562.590 197.488, 574.500 199.025 C 579.450 199.664, 584.175 200.452, 585 200.777 C 589.085 202.382, 598.575 203.728, 599.500 202.833 C 601.135 201.251, 597.308 199.182, 591.375 198.441 C 588.404 198.070, 585.728 197.369, 585.428 196.883 C 585.128 196.397, 583.802 196, 582.482 196 C 575.154 196, 565 193.703, 565 192.045 C 565 189.480, 565.534 189.299, 571.013 190.002 C 576.379 190.690, 577.222 190.241, 578.521 186 C 580.266 180.308, 584.039 176.795, 586.602 178.475 C 589.574 180.422, 593.298 180.414, 597.091 178.453 C 600.508 176.686, 601.241 165.667, 597.962 165.365 C 597.158 165.291, 596.163 165.123, 595.750 164.990 C 595.337 164.858, 594.663 164.655, 594.250 164.539 C 593.837 164.422, 592.706 163.978, 591.735 163.551 C 590.764 163.124, 589.075 163.009, 587.981 163.295 C 585.015 164.070, 581.776 160.911, 581.464 156.936 C 580.988 150.891, 582.052 150.115, 591.264 149.790 C 597.789 149.560, 599.500 149.188, 599.500 148 C 599.500 146.182, 584.156 145.244, 582.442 146.958 M 49 149 C 49 149.550, 50.548 150, 52.441 150 C 54.334 150, 56.160 149.550, 56.500 149 C 56.873 148.396, 55.510 148, 53.059 148 C 50.827 148, 49 148.450, 49 149 M 66.569 148.888 C 66.267 149.376, 67.478 149.998, 69.260 150.269 C 72.851 150.815, 74.330 150.344, 73.457 148.931 C 72.724 147.745, 67.297 147.711, 66.569 148.888 M 86.459 149.067 C 86.096 149.653, 86.071 150.404, 86.402 150.735 C 87.616 151.950, 83.606 155, 80.795 155 C 75.835 155, 67.248 160.611, 55.585 171.472 C 52.911 173.962, 50.363 176, 49.923 176 C 49.484 176, 49.195 176.934, 49.281 178.076 C 49.427 180.020, 49.850 180.111, 55.969 179.513 C 59.561 179.162, 66.325 178.747, 71 178.591 C 79.500 178.307, 79.500 178.307, 80.130 170.651 C 80.961 160.552, 81.508 160, 90.696 160 C 98.677 160, 100.541 158.075, 95.157 155.391 C 91.407 153.521, 90.525 152.277, 91.834 150.700 C 92.466 149.939, 92.687 149.020, 92.325 148.658 C 91.277 147.611, 87.182 147.896, 86.459 149.067 M 60.036 150.456 C 59.372 151.257, 59.087 152.331, 59.403 152.843 C 60.102 153.974, 57.584 156.251, 56.658 155.325 C 56.296 154.963, 56 155.144, 56 155.726 C 56 157.920, 58.870 157.767, 61.040 155.457 C 62.784 153.601, 63.036 152.748, 62.155 151.687 C 61.529 150.933, 61.313 150.020, 61.675 149.658 C 62.037 149.296, 62.088 149, 61.789 149 C 61.490 149, 60.701 149.655, 60.036 150.456 M 299.209 151.191 C 298.639 151.761, 296.380 152.056, 294.187 151.846 C 290.201 151.466, 290.201 151.466, 290.728 154.714 C 291.529 159.645, 289.015 162.725, 283.519 163.549 C 278.951 164.234, 278.622 164.618, 278.973 168.846 C 279.081 170.136, 278.152 172.274, 276.910 173.596 C 274.651 176, 274.651 176, 276.826 178.314 C 278.056 179.624, 279 181.925, 279 183.614 C 279 186.442, 279.185 186.577, 282.538 186.185 C 285.579 185.830, 286.520 186.269, 289.229 189.302 C 292.302 192.744, 292.469 192.799, 295.940 191.536 C 297.898 190.823, 301.300 189.849, 303.500 189.370 C 306.966 188.616, 307.544 188.100, 307.830 185.500 C 308.012 183.850, 308.951 181.600, 309.918 180.500 C 315.691 173.934, 318.125 164.063, 313.795 164.784 C 311.819 165.112, 308.716 160.860, 308.218 157.140 C 307.718 153.407, 301.259 149.141, 299.209 151.191 M 453.498 156.546 C 447.459 162.831, 447.460 162.776, 453.218 169.407 C 457.359 174.175, 459.893 173.924, 465.970 168.143 C 470.922 163.433, 470.922 163.334, 466.033 157.417 C 459.965 150.074, 459.732 150.058, 453.498 156.546 M 154.760 154.340 C 148.708 157.835, 149.452 161, 156.326 161 C 163.266 161, 165.500 163.265, 166.459 171.277 C 167.151 177.053, 167.151 177.053, 177.825 176.445 C 192.281 175.620, 190.657 176.950, 192.409 164.500 C 192.876 161.179, 198.584 158.439, 201.634 160.072 C 203.752 161.205, 204.270 161.187, 205.050 159.954 C 207.611 155.906, 206.568 155.507, 192.949 155.332 C 184.504 155.223, 179.392 154.740, 178.456 153.963 C 177.315 153.016, 176.479 153.111, 174.491 154.414 C 171.612 156.300, 162.634 155.709, 160 153.460 C 158.762 152.403, 157.847 152.557, 154.760 154.340 M 210 155.743 C 210 161.996, 207.035 165.031, 201.215 164.736 C 196.553 164.500, 196.553 164.500, 195.526 170.971 C 194.326 178.536, 192.597 179.952, 184.500 180.001 C 181.750 180.017, 178.825 180.484, 178 181.037 C 176.969 181.729, 178.927 181.837, 184.267 181.382 C 193.787 180.572, 196.001 181.897, 195.999 188.405 C 195.997 192.500, 195.997 192.500, 201.309 192.168 C 207.276 191.796, 209.500 193.354, 209.500 197.910 C 209.500 201.230, 212.756 201.640, 226 199.990 C 236.291 198.708, 238 197.931, 238 194.533 C 238 191.333, 241.090 189, 245.329 189 C 248.703 189, 249 188.768, 249 186.135 C 249 182.242, 252.484 178.029, 255.823 177.884 C 257.900 177.794, 258.052 177.660, 256.500 177.284 C 252.824 176.395, 249.799 172.753, 250.369 169.903 C 251.407 164.713, 250.121 162.719, 246.151 163.363 C 241.631 164.096, 239 161.929, 239 157.470 C 239 153.789, 236.124 152.619, 229.656 153.668 C 225.650 154.319, 225.500 154.040, 237.750 168.731 C 244.070 176.310, 244.025 175.644, 238.632 181.642 C 236.230 184.314, 234.317 186.770, 234.382 187.099 C 234.588 188.144, 229.608 193.030, 226.790 194.549 C 224.227 195.931, 223.889 195.842, 220.544 192.904 C 218.598 191.196, 217.219 189.455, 217.478 189.035 C 217.738 188.615, 215.719 186.389, 212.991 184.089 C 210.263 181.789, 208.095 179.590, 208.174 179.204 C 208.253 178.817, 207.963 177.686, 207.529 176.690 C 206.963 175.391, 207.486 174.103, 209.384 172.121 C 210.838 170.603, 211.767 169.100, 211.448 168.782 C 211.129 168.463, 212.469 166.981, 214.425 165.490 C 216.380 163.998, 217.777 162.449, 217.529 162.047 C 217.281 161.646, 218.618 159.824, 220.500 158 C 224.795 153.838, 224.174 152.775, 217.932 153.603 C 214.602 154.045, 212.527 153.852, 211.507 153.006 C 210.207 151.927, 210 152.304, 210 155.743 M 260 152.662 C 259.175 152.928, 257.555 153.603, 256.400 154.162 C 254.990 154.844, 253.110 154.848, 250.675 154.176 C 245.385 152.715, 243 153.629, 243 157.117 C 243 160.391, 243.022 160.403, 246.374 158.876 C 251.275 156.642, 255.382 161.094, 254.595 167.788 C 253.951 173.270, 253.951 173.270, 257.725 172.646 C 259.801 172.303, 262.314 172.017, 263.309 172.011 C 264.304 172.005, 264.885 171.623, 264.601 171.163 C 263.684 169.679, 267.044 166, 269.316 166 C 270.528 166, 272.108 165.056, 272.829 163.903 C 273.549 162.749, 274.408 162.075, 274.738 162.405 C 275.068 162.735, 276.127 162.290, 277.091 161.417 C 278.056 160.545, 280.643 159.589, 282.842 159.294 C 286.213 158.842, 286.777 158.437, 286.443 156.703 C 285.891 153.836, 284.032 152.865, 280.328 153.509 C 278.583 153.813, 276.907 153.658, 276.602 153.166 C 276.298 152.673, 274.800 152.421, 273.274 152.606 C 267.606 153.294, 265.450 153.328, 263.500 152.760 C 262.400 152.440, 260.825 152.396, 260 152.662 M 114.500 154 C 114.160 154.550, 112.145 155, 110.023 155 C 104.256 155, 103 155.788, 103 159.407 C 103 164.043, 101.459 165, 94 165 C 85.735 165, 85 165.735, 85 174 C 85 181.758, 84.093 183, 78.425 183 C 72.656 183, 67.917 184.057, 68.616 185.187 C 68.936 185.706, 72.056 186.027, 75.548 185.900 C 84.322 185.582, 85.416 186.638, 84.664 194.691 C 83.965 202.182, 84.012 202.222, 93.530 202.222 C 102.431 202.222, 104.637 203.792, 103.588 209.382 C 102.617 214.558, 102.407 214.541, 122 210.863 C 125.025 210.295, 128.175 209.852, 129 209.878 C 139.949 210.229, 145 208.806, 145 205.369 C 145 199.933, 148.594 197, 155.255 197 C 161.869 197, 163.085 195.902, 162.357 190.588 C 161.641 185.362, 163.507 183.555, 171 182.219 C 176.500 181.238, 176.500 181.238, 170.872 181.119 C 164.082 180.975, 162.935 179.862, 162.457 172.948 C 161.972 165.941, 160.734 164.695, 154.880 165.324 C 149.142 165.941, 147 164.137, 147 158.690 C 147 153.589, 143.317 152.718, 130.104 154.693 C 124.709 155.500, 124.709 155.500, 132.104 161.204 C 136.172 164.341, 140.912 168.054, 142.637 169.454 C 144.363 170.854, 146.187 172, 146.691 172 C 147.195 172, 149.042 173.480, 150.795 175.289 C 153.983 178.577, 153.983 178.577, 148.008 186.039 C 144.722 190.142, 142.026 193.890, 142.017 194.366 C 141.987 195.913, 135.029 204.775, 133.333 205.426 C 132.257 205.838, 130.658 205.007, 128.724 203.029 C 127.095 201.363, 125.273 200, 124.675 200 C 123.263 200, 106.393 189.834, 102.500 186.637 C 99.500 184.174, 99.500 184.174, 101.500 181.664 C 118.736 160.034, 121.982 155.382, 120.722 154.122 C 119.330 152.730, 115.333 152.652, 114.500 154 M 294.377 158.750 C 292.804 160.813, 291.593 162.725, 291.687 163 C 291.781 163.275, 291.269 164.175, 290.549 165 C 286.041 170.170, 285.981 172.015, 290.056 180.250 C 292.166 184.512, 293.636 188, 293.323 188 C 293.011 188, 293.320 188.681, 294.010 189.512 C 295.687 191.533, 296.850 190.520, 304.176 180.663 C 310.979 171.510, 311.117 170.564, 306.564 164.259 C 298.947 153.711, 298.407 153.467, 294.377 158.750 M 27.495 156.787 C 25.153 157.123, 24.713 175.727, 26.949 179.904 C 27.589 181.100, 28.035 182.848, 27.941 183.789 C 27.847 184.730, 27.853 186.400, 27.955 187.500 C 28.562 194.044, 29.697 184.235, 29.302 175.860 C 28.884 167.003, 29.013 166.104, 30.892 164.788 C 32.677 163.538, 32.766 163.111, 31.589 161.428 C 30.847 160.368, 30.074 158.825, 29.870 158 C 29.661 157.152, 28.628 156.625, 27.495 156.787 M 325.543 158.250 C 324.265 162.305, 324.013 168.890, 325.110 169.568 C 327.179 170.847, 360.926 175.721, 373 176.484 C 384.500 177.212, 384.500 177.212, 377.072 170.106 C 372.987 166.198, 369.162 162.939, 368.572 162.865 C 359.217 161.691, 355.004 162.539, 355.002 165.595 C 354.999 170.185, 351.957 172.461, 346.293 172.113 C 337.383 171.565, 331.486 167.616, 332.524 162.891 C 333.374 159.019, 326.700 154.581, 325.543 158.250 M 568 160.244 C 568 162.146, 567.518 165.085, 566.928 166.776 C 566.061 169.265, 566.181 170.347, 567.560 172.451 C 569.137 174.857, 569.142 175.186, 567.632 176.854 C 564.286 180.551, 566.338 185.135, 570.204 182.602 C 571.555 181.717, 572.961 181.295, 573.330 181.663 C 573.698 182.032, 574.037 181.471, 574.082 180.417 C 574.249 176.527, 575.157 172.516, 576.137 171.334 C 577.142 170.124, 577.696 170.146, 581.500 171.543 C 584.079 172.489, 590.223 172.104, 591.450 170.918 C 593.200 169.227, 590.422 167.902, 584.900 167.793 C 578.219 167.661, 575.103 165.366, 575.617 160.954 C 575.914 158.407, 575.630 158, 573.562 158 C 572.243 158, 570.452 157.727, 569.582 157.393 C 568.327 156.912, 568 157.502, 568 160.244 M 219.770 165.813 C 210.328 175.501, 210.329 175.143, 219.737 185.415 C 225.706 191.932, 225.307 191.999, 232.513 183.263 C 238.692 175.771, 238.779 176.556, 230.682 166.678 C 225.312 160.127, 225.312 160.127, 219.770 165.813 M 118.344 168.179 C 106.558 184.057, 106.511 184.179, 111.225 186.616 C 112.998 187.533, 118.110 190.695, 122.585 193.642 C 132.794 200.365, 131.627 200.620, 139.405 189.981 C 147.429 179.008, 147.500 178.136, 140.750 173.507 C 137.863 171.527, 133.475 168.383, 131 166.520 C 124.684 161.766, 122.934 161.995, 118.344 168.179 M 300.584 164.172 C 300.356 164.902, 299.903 167.750, 299.577 170.500 C 299.251 173.250, 298.088 176.719, 296.992 178.210 C 294.828 181.153, 294.440 183.536, 295.972 184.482 C 297.260 185.279, 306 173.340, 306 170.784 C 306 168.217, 301.163 162.311, 300.584 164.172 M 419.522 163.965 C 419.114 164.625, 416.775 166.025, 414.326 167.075 C 411.876 168.125, 410.132 169.405, 410.450 169.920 C 410.768 170.434, 409.011 172.304, 406.546 174.074 C 400.650 178.308, 401.407 179, 411.937 179 C 421.529 179, 424.506 180.384, 422.337 183.834 C 421.154 185.715, 405.448 186.848, 403.774 185.174 C 402.942 184.342, 395.296 184.595, 392.227 185.556 C 390.855 185.986, 391.877 188.493, 395 192.355 C 395.825 193.375, 396.380 194.392, 396.234 194.616 C 396.088 194.839, 396.686 196.118, 397.565 197.458 C 398.443 198.799, 399.259 200.482, 399.377 201.198 C 399.496 201.914, 400.922 204.475, 402.546 206.889 C 404.171 209.303, 405.944 212.116, 406.487 213.139 C 409.198 218.250, 413.152 215.678, 427.453 199.500 C 438.060 187.500, 438.060 187.500, 433.882 187 C 429.045 186.421, 426.881 184.054, 428.930 181.584 C 430.677 179.479, 438.815 179.481, 441.820 181.587 C 443.350 182.658, 444.478 182.856, 445.293 182.194 C 445.957 181.656, 447.400 181.024, 448.500 180.791 C 449.750 180.525, 448.813 180.068, 446 179.570 C 440.352 178.571, 439 177.483, 439 173.937 C 439 170.398, 438.535 170.130, 431.043 169.347 C 425.821 168.801, 424.571 168.267, 422.590 165.735 C 420.990 163.690, 420.033 163.138, 419.522 163.965 M 538.304 165.697 C 536.487 166.931, 535 167.748, 535 167.513 C 535 167.278, 532.975 169.251, 530.500 171.897 C 525.049 177.724, 524.925 178.788, 529.649 179.190 C 533.908 179.552, 536.059 182.019, 534.137 184.335 C 533.243 185.412, 529.788 186.040, 521.961 186.547 C 509.202 187.374, 507.766 188.232, 510.786 193.222 C 515.245 200.591, 520 209.892, 520 211.246 C 520 213.981, 523.594 216.288, 525.917 215.045 C 527.063 214.431, 528 214.226, 528 214.587 C 528 216.704, 531.452 211.711, 534.861 204.664 C 538.612 196.908, 544 185.027, 544 184.510 C 544 184.378, 542.580 184.312, 540.845 184.363 C 533.124 184.591, 535.413 177.850, 543.219 177.372 C 548.687 177.036, 548.264 177.119, 549.930 176.065 C 551.112 175.316, 550.906 174.565, 548.737 171.722 C 545.765 167.826, 546.792 164.596, 550.061 167.556 C 551.605 168.953, 551.750 168.861, 551.750 166.483 C 551.750 164.717, 551.319 164.047, 550.407 164.397 C 549.668 164.681, 548.795 164.477, 548.466 163.945 C 547.473 162.338, 541.818 163.313, 538.304 165.697 M 294.081 167.849 C 292.752 170.331, 292.669 174.678, 293.936 175.460 C 294.923 176.071, 296.628 167.294, 295.701 166.368 C 295.405 166.071, 294.676 166.738, 294.081 167.849 M 494.124 168.350 C 493.444 169.170, 490.604 169.773, 486.902 169.884 C 477.760 170.158, 477.045 170.498, 477.015 174.595 C 476.984 178.833, 474.103 179.984, 462.921 180.225 C 457.190 180.348, 464.200 180.686, 478.500 180.975 C 514.848 181.709, 517.066 180.813, 502.925 171.109 C 496.314 166.572, 495.747 166.395, 494.124 168.350 M 17.310 175.405 C 17.168 180.511, 17.506 182.148, 18.978 183.480 C 20.752 185.085, 20.789 185.002, 19.935 181.325 C 19.447 179.221, 19.037 175.588, 19.024 173.250 C 18.986 166.476, 17.506 168.336, 17.310 175.405 M 321.670 177.823 C 317.244 182.442, 317.694 193.639, 322.510 198.765 C 326.020 202.500, 326.020 202.500, 328.054 200.085 C 329.172 198.757, 329.869 197.100, 329.601 196.403 C 329.333 195.705, 328.805 192.395, 328.426 189.045 C 328.047 185.696, 327.344 182.713, 326.865 182.416 C 326.385 182.120, 326.248 180.859, 326.561 179.615 C 327.563 175.622, 324.762 174.596, 321.670 177.823 M 261.651 176.995 C 262.834 177.472, 265.984 177.496, 268.651 177.049 C 273.478 176.239, 273.469 176.235, 266.500 176.181 C 261.602 176.143, 260.146 176.387, 261.651 176.995 M 261.872 182.313 C 263.016 183.718, 263.023 184.267, 261.916 185.601 C 261.186 186.481, 260.472 187.719, 260.331 188.351 C 260.189 188.983, 259.932 190.175, 259.759 191 C 259.585 191.825, 259.090 193.066, 258.658 193.757 C 257.551 195.531, 260.294 196.358, 265.130 195.709 C 269.954 195.062, 270.490 194.639, 269.460 192.293 C 268.424 189.934, 268.465 190.074, 267.561 185.750 C 267.130 183.688, 266.189 182, 265.470 182 C 264.752 182, 263.339 181.691, 262.332 181.313 C 260.719 180.708, 260.664 180.828, 261.872 182.313 M 347 181.809 C 347 183.233, 352.957 198.996, 355.034 203.068 C 357.641 208.177, 359.857 208.101, 364.243 202.750 C 366.159 200.412, 369.026 197.095, 370.614 195.378 C 375.052 190.578, 378.243 185.910, 377.556 185.223 C 375.945 183.612, 347 180.378, 347 181.809 M 553.143 183.071 C 551.221 183.840, 550.908 184.495, 551.442 186.624 C 551.802 188.059, 552.356 190.531, 552.673 192.117 C 553.518 196.340, 554.390 195.666, 555.773 189.721 C 557.690 181.472, 557.614 181.280, 553.143 183.071 M 47.002 185 C 47.006 186.812, 62.521 187.708, 65 186.040 C 66.823 184.813, 67.467 184.952, 56.250 184.156 C 48.402 183.599, 47 183.727, 47.002 185 M 271 183.663 C 271 184.028, 271.788 186.725, 272.750 189.656 C 274.484 194.935, 274.538 194.985, 278.500 194.922 C 286.866 194.791, 288.053 192.171, 280.142 191.299 C 275.549 190.793, 274 189.426, 274 185.878 C 274 183.986, 273.486 183, 272.500 183 C 271.675 183, 271 183.299, 271 183.663 M 174.298 186.180 C 173.309 186.554, 171.262 186.891, 169.750 186.930 C 167.663 186.983, 167 187.497, 167 189.059 C 167 190.191, 167.419 190.859, 167.931 190.543 C 168.443 190.226, 169.145 190.426, 169.492 190.986 C 169.909 191.662, 170.740 191.675, 171.956 191.024 C 173.260 190.326, 174.108 190.425, 174.891 191.369 C 176.451 193.248, 172.982 196.308, 170.395 195.337 C 168.708 194.704, 168.653 194.814, 169.899 196.345 C 171.075 197.790, 171.089 198.700, 169.988 202.037 C 169.267 204.222, 168.893 206.226, 169.157 206.490 C 170.474 207.808, 189.204 205.629, 189.768 204.093 C 190.090 203.217, 191.511 200.948, 192.926 199.050 C 194.342 197.153, 194.969 195.923, 194.319 196.317 C 192.489 197.426, 191.614 195.066, 191.895 189.777 C 192.151 184.948, 192.151 184.948, 184.124 185.224 C 179.709 185.376, 175.288 185.806, 174.298 186.180 M 323.063 190.559 C 323.029 192.791, 323.654 195.491, 324.454 196.559 C 325.786 198.337, 325.858 198.163, 325.305 194.500 C 324.308 187.891, 323.137 185.833, 323.063 190.559 M 453 189.333 C 453 190.067, 453.313 190.980, 453.696 191.362 C 454.078 191.745, 454.474 192.620, 454.575 193.308 C 454.676 193.996, 456.950 197.626, 459.629 201.375 C 462.308 205.124, 465.148 209.161, 465.939 210.346 C 471.071 218.026, 472.814 218.418, 478.659 213.207 C 482.649 209.651, 496 190.994, 496 188.975 C 496 188.372, 487.803 188, 474.500 188 C 457.250 188, 453 188.264, 453 189.333 M 197 197.041 C 197 198.239, 204.869 198.020, 205.623 196.801 C 205.895 196.360, 204.066 196, 201.559 196 C 199.052 196, 197 196.468, 197 197.041 M 162.686 202.648 C 162.329 203.004, 159.667 203.341, 156.769 203.398 C 152.015 203.490, 151.467 203.733, 151.163 205.880 C 150.858 208.042, 151.087 208.193, 153.663 207.526 C 158.192 206.354, 159.341 206.158, 162.133 206.077 C 163.887 206.026, 164.941 205.332, 165.290 204 C 165.793 202.075, 164.125 201.208, 162.686 202.648 M 388.006 228.010 C 388.642 229.199, 389.410 229.924, 389.713 229.621 C 390.015 229.318, 391.057 229.495, 392.026 230.014 C 393.271 230.680, 394.142 230.533, 394.987 229.516 C 396.025 228.265, 396.511 228.289, 398.652 229.691 C 400.927 231.182, 401.247 231.181, 402.750 229.678 C 404.961 227.467, 404.696 227.358, 395.175 226.553 C 386.861 225.850, 386.851 225.853, 388.006 228.010 M 462.159 231.882 C 463.101 233.391, 463.908 233.600, 466.224 232.936 C 467.814 232.480, 469.876 232.392, 470.807 232.741 C 472.284 233.293, 472.325 233.159, 471.128 231.687 C 469.005 229.078, 460.522 229.262, 462.159 231.882 M 473.980 231.524 C 472.314 233.531, 472.496 233.623, 479.500 234.317 C 483.666 234.731, 484.806 234.628, 483.228 233.980 C 481.978 233.468, 480.692 232.362, 480.371 231.524 C 479.616 229.556, 475.613 229.557, 473.980 231.524" stroke="none" fill="#1A1A1A" fill-rule="evenodd"/>
</svg>