<svg xmlns="http://www.w3.org/2000/svg" viewBox="0 0 600 338" version="1.1" preserveAspectRatio="xMidYMid meet">
	<path d="M 0.554 1.146 C 0.299 1.891, 0.183 4.295, 0.296 6.490 C 0.493 10.336, 0.686 10.546, 5.680 12.340 C 9.197 13.603, 10.693 14.638, 10.338 15.562 C 9.367 18.091, 5.968 18.319, 3.520 16.019 C 0.893 13.551, -0.723 14.781, 0.977 17.956 C 3.570 22.803, 8.277 22.836, 12.316 18.036 L 14.720 15.179 21.026 20.679 C 26.639 25.574, 27.671 26.102, 30.416 25.483 C 34.242 24.620, 49.014 24.210, 54.822 24.806 C 58.116 25.143, 59.342 25.769, 59.976 27.436 C 61.084 30.351, 67.400 35.811, 70.589 36.612 C 71.993 36.964, 75.022 36.999, 77.321 36.690 C 80.937 36.203, 81.930 36.514, 84.689 38.995 C 89.583 43.396, 91.307 47.264, 89.280 49.292 C 87.603 50.968, 89.161 54.636, 91.053 53.467 C 91.508 53.186, 93.369 53.864, 95.190 54.974 C 98.725 57.129, 103.481 57.649, 104.504 55.993 C 104.847 55.439, 106.470 54.291, 108.113 53.442 C 110.888 52.006, 111.332 52.042, 114.417 53.949 C 116.243 55.077, 118.765 56, 120.023 56 C 122.264 56, 122.273 56.041, 120.458 58.046 C 117.990 60.774, 117.634 68.811, 119.868 71.365 C 124.866 77.077, 138.252 73.140, 137.257 66.252 C 136.949 64.120, 137.381 63.275, 139.174 62.500 C 142.125 61.225, 142.667 58.394, 140.433 55.926 C 138.738 54.053, 138.809 54, 143.031 54 C 146.155 54, 148.043 53.370, 149.768 51.750 C 152.771 48.932, 165.317 48.708, 169.166 51.404 C 170.420 52.282, 173.482 53.018, 175.973 53.039 L 180.500 53.078 177.450 54.407 C 171.439 57.025, 167.361 63.961, 170.176 66.776 C 171.078 67.678, 170.962 68.385, 169.676 69.805 C 167.380 72.343, 167.569 73.671, 170.500 75.592 C 174.670 78.324, 173.428 79.120, 165.819 78.591 C 159.980 78.185, 158.190 77.645, 156.249 75.703 C 154.086 73.540, 153.488 73.415, 149.904 74.371 C 146.592 75.255, 145.381 75.122, 142.463 73.550 C 138.640 71.491, 137.211 71.865, 131.502 76.417 C 127.980 79.225, 127.016 87.143, 129.788 90.487 C 130.706 91.594, 129.892 91.089, 127.979 89.364 C 126.065 87.640, 123.037 85.952, 121.250 85.614 C 112.831 84.023, 112.416 83.814, 110.464 80.179 C 108.725 76.941, 107.926 76.439, 103.500 75.801 C 97.005 74.866, 93.335 77.503, 96.407 80.897 C 97.387 81.980, 98.821 82.622, 99.594 82.326 C 100.522 81.970, 101 82.487, 101 83.846 C 101 85.047, 102.668 87.246, 105 89.120 C 107.458 91.096, 109 93.174, 109 94.512 C 109 98.964, 113.807 101.217, 117.441 98.468 C 120.088 96.466, 120.806 96.616, 121.180 99.250 C 121.379 100.649, 122.917 102.256, 125.247 103.500 C 127.308 104.600, 128.996 106.208, 128.997 107.074 C 128.999 107.940, 130.575 110.863, 132.500 113.571 C 136.228 118.815, 136.853 121, 134.622 121 C 130.898 121, 131.072 123.665, 135.051 127.550 C 139.365 131.762, 142.152 131.632, 142.815 127.186 C 143.073 125.449, 143.626 125.175, 145.938 125.638 C 148.123 126.075, 149.108 125.684, 150.373 123.877 C 151.992 121.566, 152 121.566, 152 123.718 C 152 124.908, 152.457 126.165, 153.016 126.510 C 154.455 127.400, 153.221 129, 151.096 129 C 148.421 129, 145.680 132.545, 146.210 135.317 C 146.644 137.590, 146.299 137.761, 139.083 138.859 C 130.036 140.236, 125.682 140.324, 126.430 139.113 C 126.731 138.626, 126.333 137.691, 125.544 137.036 C 124.755 136.382, 123.395 133.695, 122.522 131.067 C 120.426 124.757, 117.164 121.670, 113.549 122.577 C 111.253 123.153, 110.158 122.590, 106.396 118.898 C 101.223 113.821, 99.119 114.200, 97.635 120.476 C 96.813 123.952, 96.991 124.485, 99.871 127.177 C 101.592 128.785, 102.993 130.866, 102.985 131.801 C 102.975 132.985, 102.591 132.742, 101.718 131 C 101.028 129.625, 99.460 128.056, 98.232 127.513 C 97.005 126.970, 96 126.036, 96 125.437 C 96 124.178, 91.785 120, 90.514 120 C 90.043 120, 88.870 120.713, 87.907 121.584 C 86.293 123.045, 86.027 122.970, 84.492 120.628 C 82.776 118.009, 83.163 116, 85.385 116 C 87.949 116, 91.227 111.434, 89.620 110.100 C 87.397 108.254, 86.430 99.141, 88.264 97.308 C 89.571 96, 90.343 96.040, 94.863 97.645 C 99.954 99.453, 99.993 99.451, 102.148 97.296 C 105.123 94.322, 102.631 90, 97.942 90 C 96.285 90, 93.824 89.276, 92.473 88.390 C 91.121 87.505, 89.250 87.074, 88.314 87.433 C 86.714 88.047, 86.714 87.974, 88.306 86.214 C 90.018 84.322, 90.558 80.891, 89.335 79.668 C 88.969 79.302, 88.546 77.844, 88.395 76.427 C 87.981 72.540, 86.559 71.408, 78.960 68.917 C 71.529 66.481, 70.336 64.637, 73.214 60.029 C 74.229 58.404, 74.084 57.709, 72.329 55.792 C 71.174 54.532, 69.936 52.528, 69.576 51.340 C 68.275 47.041, 66.003 46.258, 63.594 49.279 C 61.087 52.423, 58.956 52.678, 54.952 50.312 C 52.186 48.679, 51.918 48.714, 46.526 51.442 C 39.872 54.809, 39.292 55.560, 41.476 57.973 C 43.056 59.719, 42.993 59.894, 40.324 61.169 C 38.738 61.927, 37.363 63.480, 37.187 64.712 C 36.784 67.528, 33.053 68.845, 31.803 66.612 C 30.529 64.335, 20.361 58, 17.981 58 C 15.397 58, 15.474 57.617, 18.709 54.382 L 21.418 51.673 16.225 47.021 C 12.672 43.838, 11.355 42.045, 12.058 41.342 C 12.760 40.640, 12.561 39.881, 11.428 38.940 C 9.994 37.751, 9.545 37.843, 8.101 39.627 C 7.182 40.762, 5.096 42.135, 3.465 42.678 C 1.834 43.222, 0.500 44.304, 0.500 45.083 C 0.500 46.567, 3.075 46.817, 6.548 45.670 C 7.993 45.193, 9.854 45.918, 12.860 48.128 L 17.122 51.263 14.417 54.087 C 11.806 56.812, 11.770 57, 13.379 59.455 C 14.443 61.079, 15.968 62, 17.593 62 C 20.245 62, 27.113 66.226, 30.405 69.884 C 33.114 72.893, 34.797 72.539, 39.054 68.064 C 41.466 65.528, 44.066 63.891, 46.363 63.460 C 51.545 62.488, 52.834 60.517, 50.154 57.664 C 46.616 53.898, 51.095 51.245, 55.441 54.532 C 57.911 56.400, 60.980 56.403, 63.640 54.539 C 66.611 52.459, 71.150 56.929, 69.214 60.029 C 65.974 65.217, 68.973 69.509, 78 72.600 C 84.280 74.751, 85.790 76.164, 82.937 77.219 C 78.762 78.763, 79.832 84, 84.322 84 C 85.858 84, 86.107 84.293, 85.278 85.122 C 83.993 86.407, 80.574 86.494, 62.588 85.699 L 49.677 85.128 43.588 88.417 C 40.240 90.227, 35.075 93.200, 32.112 95.024 L 26.724 98.341 24.793 95.691 C 22.495 92.535, 16.282 90.562, 12.806 91.884 C 8.039 93.696, 7.030 96.779, 5.733 113.500 C 5.575 115.533, 4.613 117.060, 2.750 118.235 C 0.968 119.360, -0 120.835, -0 122.426 C -0 125.307, 1.702 126.698, 3.287 125.113 C 5.373 123.027, 7.150 123.849, 6.816 126.745 C 6.566 128.914, 5.870 129.599, 3.500 130.008 C 0.755 130.481, 0.500 130.863, 0.500 134.512 L 0.500 138.500 4.750 138.232 C 9.195 137.951, 9.541 138.380, 8.376 142.726 C 7.873 144.603, 7.464 144.784, 5.773 143.878 C 2.350 142.046, 1.139 144.579, 0.399 155.119 C -0.154 162.989, 0.020 165.334, 1.357 168.013 C 2.883 171.073, 2.876 171.371, 1.245 172.576 C -1.855 174.867, 1.138 176.497, 4.885 174.559 C 7.856 173.023, 8 173.039, 8 174.893 C 8 178.766, 6.998 180.015, 4.927 178.722 C 3.400 177.769, 2.715 177.856, 1.398 179.174 C -0.401 180.972, 0.288 183.211, 2.391 182.403 C 3.319 182.047, 3.685 182.766, 3.609 184.792 C 3.541 186.601, 2.977 187.655, 2.108 187.595 C -1.423 187.354, 0.371 190.117, 5.240 192.420 C 9.274 194.329, 11.140 195.958, 12.753 198.980 C 15.386 203.913, 15.071 203.962, 10.030 199.408 C 6.557 196.270, 5.702 195.933, 3.277 196.741 C -0.545 198.015, -0.396 200.566, 3.483 200.280 C 5.592 200.124, 7.351 200.898, 9.483 202.918 C 11.142 204.490, 13.949 206.506, 15.720 207.398 C 19.930 209.519, 21.302 212.250, 20.511 216.932 C 19.944 220.291, 20.209 220.998, 22.882 223.247 C 25.644 225.571, 26.575 225.758, 34.196 225.523 C 46.171 225.154, 64.869 223.141, 67.023 221.988 C 68.038 221.445, 70.648 221, 72.823 221 C 77.785 221, 82.061 217.984, 80.229 215.776 C 79.566 214.977, 77.130 213.756, 74.816 213.063 C 70.580 211.794, 56.099 198.098, 56.030 195.295 C 55.988 193.614, 61.180 192.833, 70 193.194 L 77.500 193.500 77.807 199.496 C 78.274 208.606, 80.353 210.380, 89.750 209.688 C 97.263 209.135, 97.884 209.481, 95.931 213.130 C 94.452 215.893, 96.088 217.598, 100.967 218.379 C 104.408 218.929, 147.309 214.704, 150.830 213.468 C 151.561 213.212, 156.274 212.535, 161.303 211.966 C 167.930 211.215, 171.011 210.399, 172.500 209 C 175.593 206.094, 184.917 205.244, 188.432 207.547 C 190.837 209.123, 191.890 209.202, 197.330 208.207 C 200.724 207.587, 209.350 206.797, 216.500 206.453 C 223.650 206.108, 234 204.994, 239.500 203.976 C 254.978 201.114, 268.856 200.742, 271.866 203.109 C 273.267 204.211, 275.857 205, 278.076 205 C 280.169 205, 282.146 205.427, 282.469 205.949 C 283.355 207.384, 276.535 208.334, 269.631 207.737 C 261.565 207.041, 253.340 208.225, 251.210 210.389 C 249.595 212.030, 249.655 212.260, 252.297 214.556 C 253.836 215.892, 256.311 217.279, 257.797 217.637 C 259.284 217.995, 263.075 219.573, 266.221 221.144 C 269.368 222.715, 272.661 224, 273.538 224 C 274.416 224, 276.608 225.125, 278.411 226.500 C 282.657 229.738, 282.549 229.762, 287.449 224.500 L 291.640 220 300.197 220 C 306.708 220, 309.063 220.371, 310.042 221.551 C 310.750 222.403, 312.463 222.966, 313.848 222.801 C 315.538 222.599, 317.271 223.406, 319.107 225.250 C 322.225 228.380, 323.407 228.558, 328.128 226.605 C 332.087 224.968, 337.740 226.324, 339.154 229.250 C 339.619 230.213, 340.386 231.787, 340.857 232.750 C 341.329 233.713, 342.564 234.667, 343.603 234.871 C 344.641 235.074, 346.566 236.087, 347.880 237.121 C 349.195 238.154, 351.790 239, 353.648 239 C 355.507 239, 357.862 239.521, 358.882 240.158 C 360.295 241.041, 362.020 241.021, 366.119 240.077 C 375.497 237.916, 383.275 239.296, 390.220 244.351 C 392.856 246.271, 393.059 246.277, 396.851 244.567 C 400.092 243.106, 401.160 243.015, 403.073 244.039 C 404.344 244.719, 406.534 245.625, 407.942 246.052 C 410.174 246.729, 410.229 246.839, 408.372 246.914 C 405.324 247.037, 403.404 249.577, 404.951 251.441 C 405.608 252.233, 406.739 252.654, 407.464 252.375 C 408.189 252.097, 410.294 253.188, 412.141 254.800 C 416.005 258.171, 419.544 259.547, 420.475 258.041 C 420.829 257.468, 422.822 257, 424.904 257 C 429.500 257, 432 254.600, 432 250.190 C 432 245.920, 435.555 244.944, 440.337 247.899 C 442.311 249.119, 445.417 250, 447.746 250 C 450.090 250, 452.272 250.623, 453 251.500 C 453.685 252.325, 455.202 252.999, 456.372 252.998 C 459.815 252.994, 473.392 245.568, 474.500 243.083 C 475.372 241.127, 476.006 240.920, 479.462 241.466 C 484.616 242.280, 484.780 242.541, 481.996 245.504 L 479.651 248 481.868 250.359 C 483.894 252.516, 484.744 252.687, 491.792 252.360 C 504.977 251.748, 510.703 251.176, 514.671 250.074 C 520.480 248.461, 523.672 248.770, 527.770 251.340 C 532.858 254.531, 538.155 255.280, 541.090 253.224 C 542.879 251.971, 545.378 251.672, 552.231 251.889 C 557.090 252.042, 563.287 251.599, 566.003 250.903 C 570.359 249.786, 571.160 249.835, 572.799 251.318 C 574.872 253.194, 579.054 253.546, 580.624 251.976 C 581.322 251.278, 582.230 251.596, 583.479 252.976 C 585.485 255.194, 593.340 255.877, 594.538 253.938 C 594.899 253.354, 596.312 252.452, 597.678 251.932 C 600.763 250.759, 600.226 248.605, 596.746 248.191 C 595.316 248.020, 593.608 247.233, 592.951 246.441 C 591.608 244.823, 586.436 244.486, 585.527 245.956 C 585.202 246.482, 584.347 246.687, 583.628 246.411 C 582.909 246.135, 581.743 246.604, 581.038 247.454 C 579.346 249.493, 575.125 249.423, 572.799 247.318 C 571.156 245.831, 570.365 245.785, 565.949 246.917 C 563 247.672, 557.119 248.054, 551.583 247.848 C 543.978 247.566, 541.860 247.809, 540.355 249.137 C 537.959 251.251, 532.791 250.518, 527.770 247.352 C 523.675 244.770, 520.487 244.459, 514.671 246.074 C 510.702 247.176, 504.975 247.748, 491.788 248.360 L 484.077 248.718 486.038 246.224 C 489.620 241.670, 487.477 238.618, 479.914 237.500 C 475.625 236.866, 475.155 237.027, 472.672 239.978 C 469.765 243.433, 459.753 248.967, 456.372 248.987 C 455.202 248.994, 453.685 248.325, 453 247.500 C 452.263 246.613, 450.070 245.997, 447.628 245.993 C 445.192 245.990, 442.270 245.172, 440.500 244 C 436.535 241.374, 434.766 241.485, 431.077 244.589 C 428.939 246.388, 428 248.066, 428 250.089 C 428 252.716, 427.678 253, 424.700 253 C 422.885 253, 420.933 253.467, 420.363 254.037 C 419.097 255.303, 415.018 253.931, 413.071 251.585 C 411.930 250.210, 411.982 249.677, 413.414 248.095 C 415.015 246.326, 414.962 246.115, 412.417 244.114 C 410.939 242.951, 409.094 242, 408.315 242 C 407.537 242, 405.514 241.283, 403.820 240.407 C 400.974 238.935, 400.442 238.948, 396.839 240.572 C 393.062 242.276, 392.854 242.269, 390.220 240.351 C 383.275 235.296, 375.497 233.916, 366.119 236.077 C 362.020 237.021, 360.295 237.041, 358.882 236.158 C 357.862 235.521, 355.507 235, 353.648 235 C 350.506 235, 345.522 232.192, 343.790 229.446 C 339.779 223.087, 333.512 220.344, 328.128 222.592 C 323.467 224.538, 322.089 224.365, 321.079 221.709 C 319.921 218.662, 317.385 216.567, 316.530 217.951 C 315.568 219.507, 311.428 219.221, 310 217.500 C 309.077 216.388, 306.615 216, 300.469 216 L 292.183 216 286.758 220.420 L 281.332 224.840 278.416 222.456 C 276.812 221.145, 274.700 220.056, 273.721 220.036 C 272.743 220.016, 269.368 218.715, 266.221 217.144 C 263.075 215.573, 259.150 213.922, 257.500 213.475 L 254.500 212.662 258.500 212.065 C 260.700 211.736, 268.453 211.532, 275.728 211.612 C 290.352 211.772, 293.009 210.878, 289.483 206.981 C 288.497 205.892, 287.155 205, 286.500 205 C 285.845 205, 284.495 204.100, 283.500 203 C 282.310 201.685, 280.420 201, 277.980 201 C 275.834 201, 273.239 200.190, 271.826 199.078 C 269.324 197.110, 261.832 196.949, 247.580 198.558 C 243.388 199.032, 242.836 198.902, 243.849 197.682 C 244.687 196.672, 246.351 196.398, 249.492 196.752 C 253.561 197.211, 254.251 196.949, 257.473 193.727 C 261.101 190.099, 262.004 186.404, 259.800 184.200 C 258.867 183.267, 259.616 183, 263.172 183 L 267.744 183 268.395 187.068 C 269.462 193.743, 272.951 196.399, 279.623 195.614 C 285.692 194.901, 289 196.060, 289 198.900 C 289 208.610, 314.617 217.746, 359 223.863 C 383.157 227.193, 389.887 227.936, 405 228.942 C 418.938 229.870, 426.226 230.230, 458 231.554 C 465.975 231.886, 479.250 231.663, 487.500 231.057 C 495.750 230.452, 507.450 229.733, 513.500 229.460 C 523.568 229.005, 532.330 227.898, 550 224.847 C 553.922 224.170, 559.276 222.219, 563.500 219.929 L 570.500 216.132 575.968 217.566 C 578.975 218.355, 582.357 219, 583.483 219 C 584.609 219, 587.256 219.925, 589.365 221.056 C 593.730 223.395, 599.500 223.363, 599.500 221 C 599.500 220.012, 598.136 219.306, 595.500 218.930 L 591.500 218.360 595.500 217.930 C 600.397 217.404, 601.147 214.640, 596.500 214.245 C 592.001 213.863, 582.180 211.951, 576.181 210.290 C 569.835 208.534, 568.123 208.882, 561.244 213.330 C 555.902 216.784, 552.616 217.673, 535 220.426 C 493.536 226.907, 398.854 224.614, 348.500 215.910 C 323.095 211.519, 312.938 208.892, 302.843 204.102 C 296.368 201.029, 296.153 200.806, 294.979 195.913 C 293.567 190.028, 290.076 185.476, 285.509 183.568 C 282.020 182.110, 280.459 177.596, 282.028 173.500 C 282.735 171.654, 282.879 171.716, 283.897 174.315 C 284.504 175.863, 285 177.550, 285 178.062 C 285 179.515, 292.086 187, 293.461 187 C 297.189 187, 301.616 175.428, 302.541 163.263 C 303.130 155.528, 303.065 155.196, 300.579 153.241 L 298.007 151.218 301.754 150.562 C 303.814 150.201, 309.203 149.656, 313.728 149.351 L 321.956 148.797 321.728 154.789 C 321.548 159.510, 321.907 161.233, 323.419 162.907 L 325.338 165.031 327.483 163.016 C 330.595 160.092, 332 160.506, 332 164.345 C 332 168.331, 333.998 170.383, 339.915 172.470 C 349.418 175.823, 357 173.992, 357 168.345 C 357 166.304, 357.487 165.998, 360.750 165.986 C 362.813 165.979, 365.400 165.748, 366.500 165.473 C 367.973 165.104, 370.450 166.835, 375.898 172.038 C 388.459 184.034, 392.445 180.802, 391.977 159 C 391.948 157.625, 392.331 154.250, 392.828 151.500 L 393.733 146.500 393.866 151.550 C 393.940 154.328, 394.492 157.092, 395.093 157.693 C 395.883 158.483, 395.881 159.354, 395.087 160.838 C 394.482 161.967, 393.893 166.035, 393.777 169.877 C 393.368 183.449, 399.436 184.418, 413.790 173.072 C 419.313 168.706, 421.083 168.190, 422.923 170.407 C 423.565 171.181, 426.770 172.125, 430.045 172.505 C 434.874 173.066, 436 173.539, 436 175.009 C 436 176.006, 437.385 177.987, 439.077 179.411 C 442.112 181.965, 442.373 182, 458.500 182 C 474.722 182, 474.871 181.980, 477.994 179.351 C 480.435 177.298, 481.008 176.169, 480.547 174.329 C 479.838 171.505, 480.200 171.352, 489.500 170.549 L 496.500 169.944 503.380 174.972 C 510.616 180.260, 513.251 180.988, 516.035 178.468 C 517.573 177.076, 517.880 177.168, 519.387 179.468 C 522.119 183.638, 524.806 182.696, 532.237 174.964 C 535.957 171.094, 539.006 167.157, 539.013 166.214 C 539.060 159.760, 528.179 140, 524.577 140 C 520.085 140, 516.884 156.005, 520.563 160.070 C 522.084 161.751, 522.195 162.420, 521.179 163.809 C 520.499 164.739, 519.663 166.343, 519.322 167.374 C 518.784 169, 518.541 168.868, 517.490 166.374 C 516.789 164.712, 516.624 162.822, 517.098 161.893 C 517.549 161.009, 517.997 156.853, 518.095 152.659 C 518.388 140.002, 515.232 138.861, 505.244 148.013 L 498.682 154.027 493.591 153.464 C 481.654 152.143, 482 152.302, 482 148.129 C 482 145.379, 481.311 143.702, 479.473 141.974 C 475.475 138.218, 442.650 137.539, 439.330 141.144 C 438.137 142.440, 437.012 144.837, 436.830 146.472 C 436.509 149.366, 436.373 149.436, 431.613 149.138 C 428.356 148.934, 425.635 149.420, 423.453 150.595 L 420.179 152.358 410.575 145.109 C 400.063 137.172, 398.671 136.881, 395.285 141.905 C 394.028 143.770, 393 144.624, 393 143.803 C 393 142.117, 389.914 139, 388.245 139 C 387.641 139, 383.481 141.250, 379 144 C 370.416 149.269, 369.474 149.559, 365.797 148.069 C 364.534 147.557, 362.262 146.874, 360.750 146.550 C 358.631 146.097, 358 145.382, 358 143.435 C 358 138.743, 354.280 136.392, 345.614 135.607 C 336.887 134.816, 335.584 135.362, 333.332 140.750 C 332.584 142.538, 331.523 144, 330.972 144 C 329.469 144, 326.008 137.834, 326.004 135.147 C 326 132.493, 324.417 132.507, 357 134.866 C 393.779 137.530, 544.588 139.482, 554.680 137.426 C 557.644 136.822, 561.476 133.798, 562.189 131.500 C 562.863 129.333, 577.769 130.675, 582.272 133.309 C 585.316 135.089, 588.486 135.915, 593.593 136.260 L 600.686 136.739 600.732 133.120 C 600.766 130.529, 600.597 130.115, 600.139 131.661 C 599.554 133.642, 599.249 133.718, 596.500 132.577 L 593.500 131.332 596.831 129.598 C 598.920 128.511, 599.962 127.343, 599.625 126.464 C 599.329 125.694, 599.518 124.798, 600.044 124.473 C 600.570 124.148, 600.993 122.671, 600.985 121.191 C 600.973 119.086, 600.758 118.827, 600 120 C 599.467 120.825, 599.024 121.151, 599.015 120.724 C 598.997 119.802, 593.214 122.616, 590.822 124.711 C 589.775 125.627, 588.326 125.921, 586.972 125.491 C 584.856 124.820, 584.884 124.715, 588.070 121.427 C 589.869 119.571, 593.177 117.441, 595.420 116.693 C 599.372 115.376, 599.500 115.195, 599.500 110.917 C 599.500 105.451, 596.504 104.272, 593.221 108.446 C 590.784 111.544, 590.251 111.584, 587.381 108.888 L 585.133 106.776 582.465 109.445 C 580.748 111.161, 579.978 112.806, 580.305 114.056 C 580.726 115.669, 580.291 116, 577.744 116 C 575.065 116, 572.415 114.739, 563.500 109.223 C 562.400 108.542, 560.375 107.452, 559 106.799 C 552.928 103.919, 551.246 100.835, 555.941 101.192 C 557.605 101.319, 559.714 100.663, 560.798 99.683 C 562.506 98.137, 562.850 98.115, 563.979 99.475 C 565.442 101.237, 568.134 101.466, 569.642 99.958 C 570.366 99.234, 571.043 99.347, 571.855 100.325 C 572.763 101.420, 572.687 102.015, 571.512 102.990 C 569.310 104.817, 569.649 106.579, 572.657 108.945 C 575.692 111.332, 577.862 110.995, 582.682 107.385 C 588.503 103.026, 587.350 96.498, 580.880 97.177 C 579.355 97.337, 577.326 96.700, 576.246 95.722 C 574.416 94.066, 574.239 94.079, 572.511 95.988 C 571.142 97.501, 570.371 97.723, 569.369 96.891 C 566.917 94.857, 569.564 92, 573.900 92 C 576.056 92, 578.773 91.207, 580.115 90.186 C 581.427 89.189, 584.948 87.115, 587.940 85.577 C 597.130 80.855, 599.816 78.217, 599.647 74.082 C 599.473 69.840, 597.766 69.728, 592.090 73.585 C 590.135 74.913, 587.807 76, 586.917 76 C 586.026 76, 583.093 77.185, 580.399 78.634 C 577.121 80.397, 573.080 81.513, 568.187 82.008 C 560.598 82.775, 555.909 85.562, 554.444 90.176 C 554.047 91.428, 552.887 92, 550.747 92 C 548.936 92, 546.673 92.898, 545.347 94.144 C 540.412 98.780, 534.403 98.003, 522.802 91.228 C 517.136 87.919, 506.425 82.256, 499 78.643 C 489.588 74.064, 483.966 70.625, 480.434 67.287 C 475.083 62.230, 456.665 52.049, 449.295 50.074 C 446.983 49.454, 443.768 47.834, 442.151 46.474 C 440.534 45.113, 438.699 44, 438.072 44 C 436.230 44, 426.714 49.025, 424 51.432 C 419.707 55.238, 411.362 60.788, 405.310 63.861 C 402.114 65.484, 398.150 68.247, 396.500 70.002 C 391.826 74.975, 360.712 90, 355.090 90 C 353.539 90, 351.126 90.900, 349.727 92 C 348.329 93.100, 345.881 94, 344.288 94 C 342.306 94, 340.349 95.076, 338.085 97.412 C 334.234 101.386, 331.763 102.279, 329.400 100.551 C 327.837 99.408, 327.938 98.822, 330.714 92.906 C 334.943 83.893, 335.827 75.074, 332.965 70.444 C 330.365 66.237, 327.617 64.628, 324.407 65.434 C 322.314 65.959, 322 65.689, 322 63.363 C 322 61.462, 320.597 59.359, 317.147 56.094 C 314.478 53.567, 311.723 50.035, 311.024 48.244 C 309.048 43.183, 301.356 38.050, 295.914 38.161 C 293.486 38.211, 290.275 37.920, 288.777 37.514 C 286.631 36.933, 285.392 37.334, 282.929 39.406 C 280.016 41.857, 279.353 41.991, 273.152 41.383 C 269.493 41.024, 265.742 40.341, 264.816 39.865 C 260.857 37.832, 256.909 38.924, 251.679 43.500 C 247.885 46.818, 245.696 48, 243.344 48 C 239.050 48, 234 52.264, 234 55.889 C 234 60.971, 228.968 62.833, 225.523 59.026 C 224.540 57.940, 222.783 56.755, 221.618 56.393 C 220.453 56.031, 217.756 54.170, 215.625 52.257 C 212.329 49.299, 211.235 48.862, 208.308 49.337 C 206.415 49.645, 203.767 49.395, 202.424 48.784 C 200.652 47.976, 199.368 47.971, 197.741 48.764 C 191.654 51.731, 187.923 51.362, 184.722 47.478 C 181.916 44.074, 181.416 43.859, 177.602 44.416 C 174.458 44.875, 172.800 44.547, 170.500 43.014 C 168.850 41.913, 166.150 40.994, 164.500 40.971 C 162.850 40.948, 160.375 40.286, 159 39.500 C 154.953 37.186, 152.089 37.759, 146.851 41.930 C 140.792 46.754, 137.398 47.611, 132.481 45.557 C 127.788 43.596, 124.596 43.577, 123 45.500 C 121.269 47.585, 117.743 47.372, 114.727 45 C 111.336 42.333, 110.160 42.459, 104.699 46.076 C 100.083 49.133, 98 49.234, 98 46.401 C 98 43.321, 94.007 37.297, 88.534 32.121 L 82.861 26.755 75.929 27.438 C 69.001 28.121, 68.996 28.120, 67.932 25.311 C 66.688 22.029, 63.151 18, 61.513 18 C 60.887 18, 59.081 16.650, 57.500 15 C 53.989 11.335, 51.107 11.193, 47.971 14.531 C 45.881 16.756, 45.062 16.982, 41.200 16.403 C 38.466 15.993, 35.272 16.250, 32.745 17.084 L 28.683 18.425 21.092 10.279 C 14.074 2.750, 13.160 2.104, 9 1.737 C 6.525 1.519, 3.716 0.992, 2.758 0.566 C 1.627 0.063, 0.855 0.267, 0.554 1.146 M 9.200 29.200 C 6.694 31.706, 9.616 36, 13.829 36 C 16.339 36, 16.441 36.321, 14.780 38.981 C 12.492 42.644, 19.325 49.527, 22.983 47.243 C 26.547 45.017, 27.439 45.932, 24.597 48.898 C 22.311 51.284, 22.009 52.149, 22.888 53.790 C 24.508 56.817, 30.018 61.099, 31.335 60.355 C 34.135 58.772, 36 56.551, 36 54.801 C 36 53.762, 36.563 53.025, 37.250 53.164 C 42.067 54.132, 51.818 45.154, 50.491 40.973 C 49.515 37.897, 45.674 35.793, 42.493 36.591 C 39.800 37.267, 39.790 37.250, 41.396 34.799 C 43.760 31.191, 40.415 28.027, 35.998 29.695 C 33.750 30.543, 32.690 30.483, 31.298 29.427 C 28.758 27.501, 26.597 27.683, 24.500 30 C 22.174 32.570, 17.541 32.570, 14.273 30 C 11.308 27.668, 10.811 27.589, 9.200 29.200 M 25.139 34.033 C 23.841 35.115, 22.262 36, 21.630 36 C 19.842 36, 17.837 39.910, 18.520 42.063 C 19.228 44.293, 21.166 44.538, 24.017 42.757 C 26.228 41.377, 28.571 42.334, 30.433 45.377 C 31.292 46.781, 30.966 47.586, 28.760 49.504 C 25.835 52.048, 25.915 54.349, 28.986 55.993 C 30.995 57.067, 32 56.399, 32 53.988 C 32 51.503, 35.098 49.209, 38.424 49.231 C 40.539 49.245, 42.121 48.316, 44.145 45.875 C 48.338 40.817, 47.890 40.453, 37 40.075 C 36.175 40.047, 34.171 40.131, 32.546 40.262 C 28.583 40.581, 26.193 36.549, 28.702 33.777 C 31.001 31.237, 28.260 31.434, 25.139 34.033 M 284.098 48.113 C 282.044 50.738, 281.248 51.089, 278.598 50.540 C 276.894 50.186, 273.025 49.519, 270 49.057 C 266.975 48.595, 263.375 47.881, 262 47.472 C 259.940 46.859, 259.720 46.963, 260.750 48.064 C 262.545 49.983, 262.287 53.017, 260.011 56.750 C 257.679 60.574, 256.448 60.769, 253.301 57.813 C 251.505 56.126, 250.702 55.898, 249.787 56.813 C 249.134 57.466, 247.786 58, 246.792 58 C 245.233 58, 245.156 58.277, 246.232 60 C 247.214 61.573, 247.222 62.414, 246.269 63.942 C 244.315 67.070, 248.477 67.868, 250.933 64.835 C 252.782 62.552, 252.840 62.545, 254.905 64.414 C 256.088 65.485, 257 67.537, 257 69.129 C 257 72.962, 261.584 75.490, 265.694 73.923 C 267.237 73.335, 270.768 72.999, 273.540 73.177 C 278.012 73.464, 279.066 73.115, 282.885 70.091 C 287.065 66.781, 287.270 66.728, 289.919 68.293 C 291.420 69.180, 293.574 69.663, 294.707 69.366 C 297.269 68.696, 302.334 71.227, 307.253 75.636 C 309.921 78.028, 311.967 79, 314.331 79 C 317.542 79, 317.654 78.866, 317.578 75.105 C 317.534 72.894, 316.743 70.373, 315.750 69.276 C 314.788 68.213, 314 66.131, 314 64.650 C 314 60.547, 309.775 58.923, 306.676 61.835 C 303.763 64.572, 302.506 64.560, 300.557 61.777 C 298.163 58.360, 298.603 54.458, 301.653 52.059 C 304.999 49.426, 304.308 48.775, 296.668 47.361 C 293.276 46.733, 289.600 45.955, 288.500 45.632 C 287.049 45.206, 285.841 45.887, 284.098 48.113 M 431.500 50.656 C 428.750 52.065, 425.375 54.215, 424 55.433 C 419.701 59.242, 411.358 64.790, 405.310 67.861 C 402.114 69.484, 398.150 72.247, 396.500 74.002 C 391.826 78.975, 360.712 94, 355.090 94 C 353.539 94, 351.126 94.900, 349.727 96 C 348.329 97.100, 345.924 98, 344.384 98 C 342.538 98, 340.374 99.182, 338.031 101.470 C 336.076 103.378, 333.492 105.090, 332.287 105.274 C 331.082 105.458, 329.106 106.867, 327.896 108.405 C 325.522 111.423, 319.349 114.469, 313.307 115.602 L 309.533 116.310 313.517 117.775 C 316.602 118.910, 323.923 119.294, 346 119.479 C 361.675 119.610, 386.650 120.061, 401.500 120.481 C 419.453 120.989, 431.516 120.880, 437.500 120.157 C 451.517 118.463, 479.915 118.362, 494.500 119.954 C 502.760 120.855, 519.036 121.396, 539.138 121.436 L 570.776 121.500 565.416 118.500 C 562.468 116.850, 557.456 113.980, 554.278 112.123 C 551.100 110.265, 546.761 107.867, 544.636 106.794 C 542.511 105.721, 540.546 103.978, 540.269 102.922 C 539.893 101.483, 538.878 101, 536.226 101 C 533.717 101, 529.746 99.286, 522.593 95.116 C 517.042 91.880, 505.860 85.980, 497.744 82.004 C 488.093 77.276, 482.077 73.690, 480.353 71.638 C 478.903 69.912, 476.768 67.861, 475.608 67.080 C 473.663 65.770, 473.676 65.855, 475.783 68.180 C 477.843 70.453, 477.911 70.829, 476.480 72.017 C 473.818 74.226, 458.661 74.915, 447.500 73.333 C 442 72.553, 436.327 72.135, 434.894 72.404 C 432.884 72.781, 431.539 72.120, 429.012 69.512 L 425.735 66.132 429.099 64.086 C 431.585 62.574, 433.975 62.082, 438.252 62.200 C 441.577 62.291, 444.543 61.857, 445.220 61.180 C 446.584 59.816, 456.770 59.594, 460.185 60.854 C 461.458 61.323, 463.850 62.003, 465.500 62.365 C 469.673 63.281, 454.209 55.403, 449.170 54.046 C 446.926 53.442, 443.768 51.834, 442.151 50.474 C 438.537 47.432, 437.763 47.446, 431.500 50.656 M 255.476 53.075 C 255.114 54.217, 255.108 55.441, 255.463 55.796 C 256.213 56.546, 257.962 54.085, 257.985 52.250 C 258.010 50.223, 256.191 50.821, 255.476 53.075 M 131.473 55.972 C 134.095 58.709, 134.421 58.808, 135.589 57.222 C 136.696 55.719, 136.453 55.351, 133.678 54.326 C 128.754 52.507, 128.404 52.769, 131.473 55.972 M 303 57.500 C 303 60.309, 304.160 60.717, 305.964 58.544 C 307.354 56.869, 306.551 55, 304.441 55 C 303.571 55, 303 55.990, 303 57.500 M 86.200 57.200 C 84.498 58.902, 84.702 60.351, 87.065 63.355 C 88.201 64.799, 88.881 66.384, 88.576 66.877 C 88.271 67.370, 88.658 68.301, 89.435 68.946 C 90.575 69.893, 91.344 69.388, 93.424 66.327 C 96.583 61.678, 96.607 60.919, 93.686 58.174 C 91.122 55.766, 88.036 55.364, 86.200 57.200 M 123.941 58.571 C 123.224 59.435, 122.539 62.320, 122.420 64.981 C 122.168 70.583, 123.604 71.548, 129.500 69.739 C 134.334 68.255, 134.625 62.578, 130.040 59.188 C 126.518 56.584, 125.662 56.497, 123.941 58.571 M 174.939 60.061 C 171.211 63.789, 172.694 66.453, 178.688 66.800 C 185.859 67.215, 187.450 64.657, 182.484 60.695 C 178.427 57.458, 177.611 57.389, 174.939 60.061 M 198.055 58.945 C 197.260 59.448, 194.335 59.599, 191.555 59.281 C 186.579 58.711, 186.528 58.733, 188.250 60.680 C 190.536 63.264, 190.522 63.336, 186.896 67.465 C 184.488 70.209, 183.032 71, 180.396 71 C 177.942 71, 177 71.446, 177 72.608 C 177 73.844, 177.607 74.065, 179.617 73.560 C 181.056 73.199, 183.643 72.640, 185.367 72.317 C 187.090 71.995, 189.468 70.855, 190.652 69.783 C 193.474 67.229, 196.961 67.832, 198.924 71.213 C 199.791 72.705, 201.771 74.901, 203.325 76.094 C 204.878 77.287, 206.578 79.390, 207.102 80.767 C 207.987 83.095, 208.400 83.231, 212.962 82.691 C 216.905 82.224, 218.357 82.493, 220.351 84.062 C 224.128 87.032, 227.770 85.292, 228.596 80.124 C 229.036 77.372, 230.385 75.053, 233.072 72.430 C 237.762 67.850, 237.250 66.221, 232.059 69.208 L 228.232 71.411 224.581 68.205 C 222.573 66.442, 220.314 65, 219.560 65 C 218.806 65, 216.304 63.425, 214 61.500 C 209.657 57.871, 201.754 56.605, 198.055 58.945 M 266.675 61.806 C 262.977 65.893, 271.874 71.615, 276.217 67.943 L 278.500 66.013 275.234 63.007 C 271.498 59.567, 269.017 59.219, 266.675 61.806 M 445.268 65.132 C 444.645 65.755, 441.406 66.317, 438.069 66.382 C 434.581 66.450, 432.108 66.925, 432.251 67.500 C 432.388 68.050, 433.514 68.370, 434.754 68.212 C 435.994 68.053, 441.844 68.547, 447.754 69.310 C 458.559 70.704, 474.721 70.290, 472.236 68.682 C 466.912 65.238, 447.692 62.708, 445.268 65.132 M 251.091 69.379 C 250.125 70.550, 248.851 70.907, 247.046 70.510 C 244.287 69.904, 236.091 72.936, 234.262 75.238 C 233.712 75.932, 232.972 78.109, 232.618 80.075 C 231.418 86.748, 224.430 91.270, 220.317 88.035 C 218.337 86.477, 216.893 86.190, 213.432 86.664 C 208.325 87.364, 204.382 85.371, 203.439 81.613 C 203.113 80.314, 201.780 78.765, 200.476 78.171 C 199.172 77.577, 197.355 75.946, 196.438 74.546 C 194.454 71.518, 193.322 71.382, 190.564 73.840 C 189.429 74.852, 185.973 76.221, 182.885 76.882 C 179.300 77.649, 176.425 78.983, 174.930 80.574 C 171.705 84.008, 158.764 83.471, 155.500 79.769 C 153.730 77.761, 153.055 77.610, 149.638 78.454 C 146.562 79.213, 145.171 79.061, 142.807 77.704 C 138.873 75.446, 137.782 75.546, 134.651 78.447 C 132.564 80.382, 132.043 81.736, 132.167 84.906 L 132.325 88.917 136.527 88.341 C 140.591 87.784, 140.845 87.917, 144.248 92.374 C 146.889 95.833, 147.942 98.383, 148.469 102.596 C 148.854 105.683, 150.750 111.716, 152.682 116.002 L 156.194 123.795 159.044 122.160 C 161.812 120.571, 161.979 120.605, 164.833 123.340 L 167.773 126.157 171.962 124.019 C 177.724 121.080, 180.950 121.655, 183.842 126.137 L 186.189 129.774 196.493 130.476 C 203.848 130.978, 207.471 130.831, 209.149 129.964 C 214.276 127.315, 222 120.672, 222 118.912 C 222 116.046, 228.522 110.214, 233.243 108.858 C 240.019 106.912, 279.003 106.867, 281.250 108.803 C 283.528 110.765, 283.460 112.273, 280.994 114.506 C 279.890 115.504, 279.213 116.546, 279.488 116.821 C 279.763 117.096, 280.920 116.477, 282.059 115.446 C 283.541 114.105, 285.749 113.548, 289.815 113.487 C 293.736 113.428, 297.322 112.564, 301.371 110.701 C 304.600 109.215, 308.245 108, 309.472 108 C 314.924 108, 317.804 106.064, 317.702 102.467 C 317.641 100.332, 318.987 96.414, 321.303 91.980 C 325.422 84.093, 326.422 78.403, 323.171 81.345 C 322.165 82.255, 320.108 83, 318.599 83 L 315.855 83 317.927 85.635 C 320.628 89.068, 320.541 90.429, 317.466 92.848 C 315.429 94.451, 314.319 94.665, 311.801 93.943 C 310.079 93.449, 307.583 93.318, 306.254 93.651 C 304.636 94.057, 302.907 93.568, 301.011 92.166 C 298.559 90.354, 298.021 90.270, 296.969 91.538 C 294.567 94.431, 289 91.839, 289 87.826 C 289 84.878, 292.850 82.425, 295.188 83.885 C 296.974 85.001, 297.541 84.903, 299.263 83.181 C 301.117 81.327, 301.554 81.284, 305.257 82.591 C 307.454 83.366, 310.657 83.980, 312.376 83.956 C 315.484 83.912, 315.480 83.905, 311.500 82.495 C 309.300 81.716, 306.600 79.989, 305.500 78.658 C 302.833 75.432, 297.259 72.699, 294.707 73.366 C 293.574 73.663, 291.381 73.156, 289.832 72.242 C 287.052 70.599, 286.969 70.624, 283.258 74.194 C 279.702 77.616, 279.221 77.782, 274.316 77.284 C 271.465 76.995, 267.715 77.252, 265.982 77.856 C 260.888 79.632, 253.595 75.318, 252.846 70.085 C 252.527 67.857, 252.391 67.802, 251.091 69.379 M 461.676 78.358 C 458.858 82.053, 459.536 84, 463.641 84 C 464.874 84, 466.160 84.450, 466.500 85 C 467.627 86.823, 470.589 86.038, 473.313 83.195 C 476.485 79.884, 476.618 78.870, 474.171 76.655 C 470.830 73.631, 464.638 74.475, 461.676 78.358 M 242.564 78.128 C 241.154 79.238, 240 80.943, 240 81.918 C 240 83.705, 242.927 87, 244.514 87 C 244.986 87, 246.433 87.997, 247.730 89.217 C 249.579 90.953, 250.459 91.201, 251.795 90.359 C 254.499 88.656, 254.320 86.574, 251.051 81.731 C 247.298 76.170, 245.840 75.551, 242.564 78.128 M 466.040 80.548 C 467.504 82.313, 471.138 82.123, 471.755 80.250 C 472.035 79.401, 470.978 79, 468.461 79 C 465.229 79, 464.919 79.198, 466.040 80.548 M 104.752 82.767 C 105.015 84.557, 106.377 86.333, 108.610 87.796 C 110.816 89.242, 112.276 91.131, 112.656 93.029 C 113.337 96.437, 114.092 96.641, 117.572 94.361 C 119.951 92.802, 120.196 92.835, 122.537 95.035 C 123.892 96.307, 125 97.937, 125 98.655 C 125 99.374, 126.237 100.258, 127.750 100.619 C 131.704 101.563, 133 102.879, 133 105.946 C 133 107.432, 134.575 110.863, 136.500 113.571 C 138.425 116.278, 140 119.006, 140 119.633 C 140 120.623, 145.961 122.242, 146.814 121.484 C 148.317 120.149, 145.386 113.682, 142.883 112.809 C 141.194 112.221, 138.395 109.514, 136.038 106.192 C 132.227 100.820, 132.120 100.465, 133.625 98.169 C 134.817 96.349, 134.872 95.883, 133.849 96.246 C 132.002 96.903, 127.280 94.392, 126.055 92.102 C 125.498 91.062, 123.477 89.951, 121.525 89.612 C 119.586 89.276, 116.313 88.722, 114.250 88.381 C 109.509 87.600, 108.386 86.681, 107.646 82.978 C 106.871 79.107, 104.187 78.911, 104.752 82.767 M 244.692 80.641 C 243.534 81.799, 243.916 83, 245.443 83 C 246.237 83, 247.587 84, 248.443 85.223 C 249.299 86.445, 249.984 87.007, 249.964 86.473 C 249.904 84.847, 245.433 79.901, 244.692 80.641 M 301 87.044 C 301 89.276, 300.834 89.213, 307.500 89.527 C 310.250 89.656, 313.119 89.928, 313.875 90.131 C 314.631 90.334, 315.456 89.938, 315.708 89.250 C 316.019 88.403, 315.053 88, 312.709 88 C 310.807 88, 307.395 87.345, 305.126 86.544 C 301.202 85.160, 301 85.184, 301 87.044 M 566 88.658 C 565.175 88.933, 563.825 89.378, 563 89.646 C 561.743 90.055, 561.787 90.295, 563.267 91.126 C 564.593 91.871, 565.687 91.604, 567.652 90.059 C 570.111 88.125, 569.402 87.524, 566 88.658 M 85 92.189 C 83.075 92.743, 79.426 93, 76.890 92.759 C 73.194 92.407, 72.053 92.685, 71.132 94.160 C 69.628 96.568, 67.329 96.499, 65.768 94 C 63.712 90.709, 52.258 91.218, 44.500 94.945 L 38.500 97.828 52.063 97.268 L 65.626 96.708 67.658 99.292 C 69.124 101.156, 70.575 101.850, 72.868 101.785 C 74.911 101.727, 76.930 102.525, 78.523 104.021 C 81.557 106.872, 81.596 107.736, 78.826 110.686 L 76.651 113 79.244 113 C 84.200 113, 84.738 112.329, 83.894 107.206 C 82.417 98.235, 82.657 97.261, 87.150 94.006 C 91.455 90.888, 90.962 90.471, 85 92.189 M 140.856 95.176 C 143.178 99.388, 142.095 101.361, 138.042 100.301 C 136.198 99.819, 135.869 99.990, 136.523 101.092 C 138.883 105.069, 142.273 108.838, 143.864 109.254 C 146.575 109.963, 144.183 96.715, 141.049 93.662 L 138.829 91.500 140.856 95.176 M 210.444 99.062 C 206.489 103.432, 209.666 111, 215.456 111 C 220.143 111, 222.729 104.759, 219.250 101.842 C 214.114 97.536, 212.334 96.974, 210.444 99.062 M 16.374 103.250 C 16.705 105.037, 17.400 108.975, 17.920 112 C 18.722 116.663, 20.782 124.584, 22.573 129.886 C 22.949 130.997, 23.438 130.913, 25.036 129.467 C 26.990 127.699, 26.992 127.619, 25.154 125.581 C 22.926 123.110, 21.171 118.359, 19.953 111.500 C 18.189 101.562, 17.757 100, 16.773 100 C 16.188 100, 16.023 101.349, 16.374 103.250 M 42.500 101.983 C 39.750 102.369, 35.925 103.523, 34 104.547 C 32.075 105.571, 28.908 106.430, 26.963 106.455 C 23.668 106.497, 23.454 106.691, 23.833 109.296 C 24.211 111.890, 24.367 111.978, 25.990 110.509 C 27.530 109.115, 30.619 109.009, 51.841 109.619 C 73.980 110.256, 75.996 110.174, 76.595 108.613 C 77.513 106.221, 76.772 105.805, 71.310 105.643 C 67.355 105.525, 66.324 105.100, 65.513 103.250 C 64.593 101.153, 63.948 101.010, 56.013 101.141 C 51.331 101.218, 45.250 101.597, 42.500 101.983 M 576.745 102.761 C 573.530 104.755, 573.698 106.620, 577.057 106.227 C 579.465 105.945, 583 103.339, 583 101.845 C 583 100.452, 579.686 100.938, 576.745 102.761 M 212.557 102.907 C 212.247 103.409, 212.268 104.535, 212.604 105.410 C 213.370 107.407, 217 107.511, 217 105.535 C 217 103.755, 213.363 101.604, 212.557 102.907 M 232.643 113.028 C 228.928 114.141, 226 116.836, 226 119.141 C 226 120.704, 226.648 120.498, 230.424 117.736 C 233.784 115.278, 237.392 111.428, 235.719 112.086 C 235.598 112.133, 234.214 112.557, 232.643 113.028 M 238.487 115.246 C 237.944 116.481, 236.237 118.092, 234.694 118.827 C 231.157 120.511, 229.559 124.321, 231.253 127.033 C 232.936 129.729, 233.482 129.542, 235.902 125.441 C 237.057 123.484, 238.451 122.161, 239.001 122.500 C 240.024 123.133, 251 115.141, 251 113.763 C 251 113.343, 248.407 113, 245.237 113 C 240.224 113, 239.346 113.292, 238.487 115.246 M 271.063 116.750 C 275.852 122.242, 279.709 123.537, 276.446 118.557 C 275.412 116.980, 275.245 115.967, 275.946 115.534 C 278.279 114.091, 276.751 113, 272.396 113 L 267.793 113 271.063 116.750 M 44.305 118.647 C 43.957 119.554, 44.279 121.691, 45.021 123.397 C 45.762 125.104, 46.544 130.213, 46.758 134.750 L 47.147 143 54.823 143.052 C 59.046 143.080, 67.551 143.226, 73.724 143.377 C 89.417 143.759, 90.466 142.137, 78.429 136.099 C 75.091 134.424, 71.533 132.142, 70.524 131.027 C 69.516 129.912, 68.178 129, 67.551 129 C 63.883 129, 55.518 123.332, 54.638 120.250 C 53.773 117.218, 53.416 117, 49.324 117 C 46.173 117, 44.759 117.464, 44.305 118.647 M 71.418 120.262 L 69.336 123.500 72.076 125.750 C 73.583 126.987, 75.378 128, 76.064 128 C 76.750 128, 78.826 129.156, 80.678 130.568 C 82.530 131.981, 83.961 132.768, 83.859 132.318 C 83.756 131.868, 84.021 130.255, 84.449 128.733 C 85.089 126.453, 84.785 125.618, 82.725 123.998 C 81.350 122.917, 79.941 120.900, 79.593 119.516 C 78.626 115.661, 74.112 116.073, 71.418 120.262 M 31 118.781 C 31 119.210, 32.350 120.071, 34 120.694 C 36.683 121.706, 37 121.624, 37 119.913 C 37 118.454, 36.288 118, 34 118 C 32.350 118, 31 118.351, 31 118.781 M 300.500 119.578 C 298.300 120.313, 293.940 121.642, 290.811 122.531 C 287.682 123.420, 284.635 124.735, 284.039 125.453 C 283.443 126.171, 281.526 127.045, 279.780 127.394 C 275.789 128.192, 271.748 130.783, 272.527 132.044 C 273.634 133.836, 277.207 133.006, 279.179 130.500 C 280.260 129.125, 281.755 128, 282.500 128 C 283.245 128, 284.740 129.125, 285.821 130.500 C 287.849 133.078, 290.415 133.755, 291.500 132 C 291.840 131.450, 295.320 131, 299.233 131 L 306.349 131 304.174 128.686 C 301.607 125.953, 301.413 123.284, 303.557 120.223 C 304.413 119, 304.975 118.054, 304.807 118.120 C 304.638 118.186, 302.700 118.842, 300.500 119.578 M 101.525 120.922 C 101.026 122.494, 101.661 123.989, 103.923 126.565 C 107.423 130.551, 107.628 131.659, 105.443 134.777 C 104.001 136.836, 104.024 137, 105.752 137 C 106.778 137, 108.491 136.339, 109.559 135.532 C 112.440 133.353, 117.013 133.673, 119.830 136.250 L 122.288 138.500 120.756 136 C 119.913 134.625, 118.679 131.786, 118.015 129.692 C 116.888 126.139, 116.605 125.928, 113.796 126.545 C 111.186 127.118, 110.215 126.646, 106.495 122.995 C 102.447 119.022, 102.165 118.905, 101.525 120.922 M 257.154 122.884 C 256.163 123.512, 256.602 124.014, 258.819 124.787 C 261.985 125.891, 263 125.538, 263 123.333 C 263 121.849, 259.242 121.560, 257.154 122.884 M 242.528 124.954 C 241.317 126.914, 243.116 131.148, 244.627 129.894 C 245.661 129.037, 245.738 128.390, 244.926 127.411 C 244.322 126.683, 244.118 125.618, 244.473 125.044 C 244.828 124.470, 244.668 124, 244.118 124 C 243.568 124, 242.853 124.429, 242.528 124.954 M 342.595 127.895 C 340.935 129.730, 341.064 129.809, 346.690 130.389 C 375.487 133.362, 539.849 135.710, 531.500 133.030 C 530.950 132.853, 528.152 132.616, 525.281 132.503 C 522.411 132.389, 519.486 131.842, 518.781 131.287 C 516.460 129.458, 510.232 129.015, 508.928 130.587 C 506.758 133.201, 490.845 130.678, 492.510 127.983 C 492.779 127.549, 490.754 127.037, 488.010 126.846 C 484.786 126.623, 482.859 126.922, 482.564 127.692 C 482.313 128.347, 480.901 129.674, 479.426 130.640 C 476.767 132.383, 476.720 132.370, 473.850 129.159 C 470.988 125.955, 470.875 125.925, 463.521 126.373 C 459.011 126.648, 455.194 127.451, 453.820 128.413 C 451.041 130.360, 446.638 130.473, 445.113 128.636 C 443.788 127.039, 398.229 127.456, 396.550 129.081 C 395.085 130.498, 391.386 130.170, 390 128.500 C 388.445 126.626, 384.616 126.552, 383.111 128.367 C 381.482 130.329, 371.582 129.837, 369.194 127.675 C 366.895 125.595, 362.656 125.504, 361 127.500 C 360.250 128.403, 358.062 129, 355.500 129 C 352.938 129, 350.750 128.403, 350 127.500 C 348.281 125.428, 344.652 125.622, 342.595 127.895 M 29.260 129.750 C 30.123 130.713, 31.277 133.075, 31.825 135 C 32.372 136.925, 32.858 137.825, 32.904 137 C 33.096 133.597, 30.853 128, 29.298 128 C 27.835 128, 27.832 128.158, 29.260 129.750 M 170.538 129.348 C 169.462 130.135, 169.007 131.202, 169.445 131.911 C 170.381 133.425, 167.281 137, 165.032 137 C 164.120 137, 162.081 135.650, 160.500 134 C 157.383 130.746, 156 130.238, 156 132.345 C 156 133.085, 155.130 134.477, 154.067 135.439 C 149.756 139.341, 154.381 141.271, 165.754 140.317 C 171.839 139.807, 172.682 139.499, 172.273 137.936 C 171.988 136.848, 172.601 135.642, 173.827 134.876 C 175.692 133.711, 175.737 133.391, 174.400 130.806 C 172.711 127.541, 172.908 127.615, 170.538 129.348 M 255.804 129.736 C 255.060 130.633, 253.367 131.028, 251.301 130.787 C 248.689 130.482, 247.426 130.990, 245.315 133.194 L 242.639 135.987 244.994 138.493 C 247.665 141.337, 250.176 141.698, 252 139.500 C 252.685 138.675, 254.131 138, 255.215 138 C 256.298 138, 258.316 137.110, 259.699 136.022 C 262.657 133.696, 265.541 134.662, 266.986 138.464 C 268.192 141.634, 269.363 142.186, 271.526 140.605 C 273.237 139.353, 273.171 139.164, 270.423 137.452 C 266.364 134.923, 262.986 131.832, 263.454 131.075 C 264.386 129.566, 257.017 128.275, 255.804 129.736 M 40.308 130.250 C 39.711 131.046, 39.828 132.772, 40.629 135 L 41.887 138.500 41.944 133.750 C 42.003 128.706, 41.797 128.264, 40.308 130.250 M 537.694 131.579 L 534.888 134 543.694 133.986 C 555.184 133.969, 557.284 133.428, 555.704 130.898 C 554.280 128.618, 549.756 128.384, 548 130.500 C 546.434 132.386, 544.121 132.417, 542.079 130.579 C 540.700 129.338, 540.145 129.464, 537.694 131.579 M 11.172 132.096 C 10.056 133.883, 10.122 134.477, 11.615 136.127 C 14.238 139.026, 16.636 136.490, 14.892 132.662 C 13.429 129.451, 12.876 129.367, 11.172 132.096 M 225 133 C 221.993 135.352, 220.639 135.475, 219.036 133.543 C 217.995 132.289, 217.249 132.454, 213.663 134.734 C 208.805 137.824, 202.827 143.161, 203.486 143.820 C 204.164 144.498, 242.047 144.286, 242.733 143.600 C 243.777 142.557, 229.556 130.708, 227.636 131.022 C 227.561 131.034, 226.375 131.924, 225 133 M 24.982 133.521 C 24.266 134.385, 23.124 134.878, 22.446 134.617 C 21.552 134.274, 21.415 134.882, 21.951 136.822 C 22.473 138.708, 23.255 139.411, 24.596 139.200 C 25.643 139.035, 27.010 138.847, 27.632 138.783 C 28.408 138.703, 28.497 137.731, 27.913 135.698 C 26.808 131.843, 26.540 131.644, 24.982 133.521 M 199.638 136.500 C 199.955 137.325, 200.561 138, 200.985 138 C 201.408 138, 202.315 137.325, 203 136.500 C 204.052 135.232, 203.844 135, 201.654 135 C 199.762 135, 199.218 135.405, 199.638 136.500 M 308.879 137.202 C 309.915 140.004, 312.263 141.497, 314.364 140.691 C 317.045 139.662, 316.228 137.484, 312.679 136.201 C 308.206 134.583, 307.937 134.654, 308.879 137.202 M 191.137 137.848 C 192.366 139.815, 195.921 141.413, 196.897 140.437 C 197.645 139.689, 194.765 137.294, 192.187 136.520 C 190.067 135.883, 189.980 135.994, 191.137 137.848 M 295.411 139.500 C 296.136 140.600, 297.803 141.651, 299.115 141.835 C 300.427 142.019, 301.928 142.581, 302.450 143.085 C 302.972 143.588, 304.998 143.995, 306.950 143.989 L 310.500 143.978 307.240 141.409 C 305.448 139.996, 304.203 138.480, 304.475 138.041 C 304.747 137.601, 302.522 137.299, 299.531 137.371 C 294.331 137.494, 294.151 137.588, 295.411 139.500 M 182.500 139 C 182.840 139.550, 184.243 140, 185.618 140 C 187.030 140, 187.849 139.565, 187.500 139 C 187.160 138.450, 185.757 138, 184.382 138 C 182.970 138, 182.151 138.435, 182.500 139 M 260.271 140.271 C 258.906 141.763, 258.467 143.137, 258.941 144.427 C 259.582 146.168, 259.713 146.190, 260.303 144.653 C 260.662 143.717, 261.831 142.625, 262.900 142.226 C 264.545 141.612, 264.650 141.233, 263.578 139.771 C 262.394 138.156, 262.175 138.189, 260.271 140.271 M 337.651 140.467 C 337.293 141.400, 337 142.994, 337 144.009 C 337 145.024, 335.875 146.740, 334.500 147.821 C 331.439 150.229, 331.284 153.599, 334.127 155.902 C 335.312 156.861, 336.534 159.349, 336.887 161.519 C 337.591 165.853, 339.185 166.723, 346.750 166.900 C 350.777 166.995, 351 166.851, 351 164.155 C 351 160.231, 353.813 158, 358.761 158 C 362.067 158, 362.996 157.587, 363.540 155.875 C 364.335 153.370, 362.707 152.038, 358.823 152.015 C 355.323 151.995, 352 147.782, 352 143.365 C 352 140.495, 351.653 140, 349.640 140 C 348.341 140, 345.259 139.723, 342.791 139.385 C 339.128 138.883, 338.183 139.082, 337.651 140.467 M 288.324 141.788 C 286.578 141.968, 284.610 142.765, 283.952 143.558 C 283.294 144.351, 281.937 145, 280.937 145 C 279.936 145, 278.872 145.399, 278.570 145.886 C 277.584 147.481, 281.635 147.768, 285.609 146.385 C 287.749 145.640, 290.512 145.023, 291.750 145.015 C 292.999 145.007, 294 144.380, 294 143.607 C 294 141.874, 292.416 141.367, 288.324 141.788 M 12.131 143.128 C 12.059 144.023, 11.333 145.308, 10.518 145.985 C 9.210 147.071, 9.210 147.461, 10.518 149.330 C 12.534 152.207, 12.379 154.347, 10 156.500 C 8.070 158.247, 7.930 158.247, 6 156.500 C 4.023 154.711, 4 154.753, 4.015 160.095 C 4.032 165.976, 5.102 168.673, 6.962 167.523 C 8.116 166.810, 13 170.536, 13 172.129 C 13 173.627, 17.964 177.867, 18.570 176.887 C 19.557 175.290, 21.692 177.709, 22.394 181.220 C 23.096 184.731, 29.488 194.589, 31.582 195.393 C 32.652 195.804, 32.690 195.413, 31.774 193.403 C 30.915 191.518, 30.926 190.095, 31.817 187.630 C 33.529 182.895, 33.409 181.415, 31.445 183.045 C 28.991 185.082, 26.074 181.424, 25.363 175.415 C 24.515 168.260, 26.994 166.180, 30.098 171.442 C 32.301 175.174, 34.030 175.794, 32.081 172.151 C 29.514 167.355, 33.103 161.334, 37.056 163.803 C 38.659 164.804, 39 164.752, 39 163.508 C 39 162.601, 38.084 162, 36.700 162 C 35.435 162, 33.939 161.539, 33.376 160.976 C 32.678 160.278, 31.768 160.599, 30.514 161.984 C 28.793 163.887, 28.558 163.910, 26.838 162.353 C 23.131 158.999, 25.328 149.761, 29.455 151.344 C 32.221 152.406, 32.128 150.015, 29.308 147.533 C 25.671 144.334, 25.257 144.388, 25.786 147.994 C 26.133 150.361, 25.586 151.584, 23.172 153.839 C 20.318 156.505, 20.228 156.800, 21.793 158.364 C 23.082 159.653, 23.216 160.435, 22.376 161.769 C 19.671 166.064, 14.479 163.596, 15.320 158.414 C 15.604 156.666, 15.367 154.767, 14.794 154.194 C 14.221 153.621, 13.417 150.530, 13.007 147.326 C 12.597 144.122, 12.203 142.232, 12.131 143.128 M 378.671 148.087 C 374.365 150.789, 370.251 153, 369.529 153 C 368.807 153, 367.908 154.238, 367.530 155.750 C 367.153 157.262, 366.092 159.347, 365.172 160.383 C 363.582 162.174, 363.612 162.231, 365.782 161.555 C 367.669 160.968, 369.421 162.069, 375.914 167.923 C 384.993 176.107, 385.527 176.277, 386.358 171.250 C 387.397 164.964, 387.125 161, 385.655 161 C 384.915 161, 383.562 160.173, 382.647 159.162 C 381.093 157.445, 381.104 157.216, 382.821 155.662 C 383.831 154.748, 385.185 154, 385.829 154 C 386.473 154, 387 152.931, 387 151.625 C 387 150.319, 387.281 147.844, 387.625 146.125 C 388.425 142.123, 388.039 142.207, 378.671 148.087 M 400 149.263 C 400 154.799, 400.261 155.640, 402.250 156.513 C 405.113 157.769, 405.143 160.218, 402.312 161.461 C 401.108 161.989, 399.877 163.339, 399.575 164.461 C 398.617 168.026, 398.950 177, 400.040 177 C 401.965 177, 408.600 173.174, 413.790 169.072 C 419.367 164.663, 421.079 164.185, 423 166.500 C 423.685 167.325, 424.943 168, 425.797 168 C 427.020 168, 426.888 167.510, 425.174 165.686 C 422.369 162.699, 422.401 158.282, 425.250 155.177 C 427.573 152.646, 427.371 152.625, 422.795 154.922 C 420.201 156.224, 419.731 156.008, 411.295 149.646 C 400.299 141.353, 400 141.343, 400 149.263 M 444.975 145.565 C 444.439 146.976, 444 149.303, 444 150.736 C 444 152.170, 443.212 154.218, 442.250 155.287 C 440.573 157.151, 440.584 157.217, 442.500 156.857 C 443.876 156.599, 444.812 155.236, 445.500 152.491 C 446.940 146.742, 447.677 146, 451.937 146 C 458.553 146, 459.202 148.831, 453.850 154.342 C 449.187 159.144, 448.341 164.644, 451.632 168.762 C 454.119 171.874, 453.253 174, 449.500 174 C 446.420 174, 444.684 171.608, 445.202 168.078 C 445.684 164.791, 444.333 164.038, 437.905 164.014 C 434.125 163.999, 429.874 160.814, 431.935 159.540 C 433.965 158.286, 432.986 157, 430 157 C 427.256 157, 427 157.290, 427 160.393 C 427 164.399, 428.100 165, 435.427 165 C 441.408 165, 443.627 166.651, 444.166 171.500 L 444.500 174.500 457.346 175.293 C 471.098 176.141, 473 175.692, 473 171.600 C 473 166.866, 475.624 165.001, 482.307 164.985 C 489.572 164.967, 491.297 164.138, 490.837 160.887 C 490.527 158.689, 489.987 158.476, 484.019 158.196 C 475.744 157.809, 474 156.354, 474 149.845 L 474 145 469.559 145 C 467.116 145, 464.840 144.550, 464.500 144 C 464.160 143.450, 459.847 143, 454.916 143 C 446.212 143, 445.922 143.075, 444.975 145.565 M 246.049 146.441 C 245.392 147.233, 243.649 148.066, 242.177 148.291 C 239.541 148.694, 239.538 148.702, 242 148.828 C 243.375 148.898, 245.625 148.076, 247 147 C 248.375 145.924, 248.993 145.034, 248.372 145.022 C 247.752 145.010, 246.707 145.648, 246.049 146.441 M 326.289 152.689 C 326.081 160.127, 326.107 160.213, 328.035 158.468 C 329.487 157.154, 329.715 156.361, 328.916 155.398 C 328.323 154.684, 327.975 152.513, 328.142 150.573 C 328.309 148.633, 328.008 146.617, 327.473 146.093 C 326.844 145.477, 326.425 147.812, 326.289 152.689 M 525.202 150.685 C 524.245 156.142, 524.323 156.623, 526.468 158.500 C 527.725 159.600, 529.004 161.245, 529.309 162.156 C 529.871 163.829, 527.239 167, 525.288 167 C 524.012 167, 523.032 170.338, 523.014 174.750 C 522.995 179.281, 524.600 178.850, 530.283 172.797 C 535.813 166.907, 535.822 166.780, 531.568 155.631 C 527.295 144.433, 526.417 143.751, 525.202 150.685 M 505.032 152.119 C 500.544 156.304, 497.942 158.032, 496.532 157.765 C 494.747 157.426, 494.497 157.903, 494.474 161.690 C 494.459 164.060, 494.919 166, 495.495 166 C 496.071 166, 499.629 168.250, 503.401 171 C 507.173 173.750, 510.876 176, 511.630 176 C 513.927 176, 513.346 168.997, 510.826 166.314 L 508.651 164 510.826 161.686 C 512.991 159.380, 514.216 145.928, 512.250 146.044 C 511.837 146.069, 508.589 148.802, 505.032 152.119 M 83.750 147.654 C 82.787 147.925, 82 148.641, 82 149.245 C 82 149.848, 81.267 151.152, 80.371 152.142 C 78.814 153.863, 79.049 153.922, 85.675 153.485 C 89.488 153.233, 93.992 153.424, 95.683 153.909 C 98.419 154.694, 98.703 154.582, 98.261 152.890 C 97.988 151.845, 98.322 150.317, 99.004 149.495 C 100.074 148.206, 99.625 148, 95.747 148 C 93.274 148, 89.956 147.811, 88.375 147.581 C 86.794 147.350, 84.713 147.383, 83.750 147.654 M 463.238 148.250 C 461.869 149.949, 463.177 152.918, 466.807 156.351 L 469.821 159.203 471.493 156.650 C 474.257 152.433, 471.728 147, 467 147 C 465.485 147, 463.792 147.563, 463.238 148.250 M 145 149.503 C 150.400 151.278, 153.214 154.301, 152.418 157.472 C 151.886 159.592, 152.217 159.770, 157.489 160.208 C 164.928 160.824, 167.804 163.552, 168.663 170.806 L 169.281 176.020 179.391 175.410 C 191.529 174.677, 190.565 175.190, 190.867 169.308 C 191.210 162.616, 194.671 159, 200.732 159 L 205.091 159 204.432 155.489 C 204.037 153.385, 204.224 151.435, 204.899 150.622 C 205.802 149.533, 205.300 149.148, 202.356 148.670 C 198.181 147.993, 196.288 148.688, 197.906 150.306 C 198.983 151.383, 195.695 156, 193.851 156 C 193.410 156, 190.479 158.700, 187.337 162 C 184.195 165.300, 181.076 168, 180.405 168 C 178.536 168, 170.723 158.164, 171.332 156.577 C 171.756 155.473, 171.271 155.349, 169.037 155.989 C 162.749 157.793, 152.298 153.756, 154.958 150.550 C 156.072 149.209, 155.843 149, 153.262 149 C 151.621 149, 148.079 148.780, 145.390 148.512 L 140.500 148.024 145 149.503 M 49.500 150 C 50.286 151.272, 55.032 151.272, 57 150 C 58.083 149.300, 57.165 149.026, 53.691 149.015 C 50.736 149.006, 49.120 149.386, 49.500 150 M 220.694 151.532 C 217.512 154.331, 214.282 154.680, 211.441 152.532 C 208.337 150.184, 207.701 150.729, 208.406 155.134 C 209.322 160.867, 207.288 163, 200.904 163 C 195.309 163, 195.189 163.128, 194.860 169.486 C 194.436 177.669, 192.670 178.776, 178.909 179.488 C 165.459 180.185, 165.539 180.229, 164.697 171.645 C 164 164.542, 164.260 164.820, 157.772 164.236 C 151.446 163.666, 147.585 160.789, 148.461 157.299 C 148.924 155.456, 148.523 154.926, 146.263 154.394 C 144.744 154.036, 142.091 152.898, 140.370 151.864 L 137.240 149.985 135.597 152.493 C 133.340 155.936, 128.226 155.934, 124.988 152.487 C 123.393 150.789, 122.298 150.302, 121.613 150.987 C 121.056 151.544, 119.452 152.014, 118.050 152.032 C 116.647 152.049, 114.626 152.724, 113.559 153.532 C 112.491 154.339, 109.741 155, 107.448 155 C 103.516 155, 103.305 155.146, 103.765 157.551 C 104.620 162.024, 100.728 165, 94.026 165 C 86.892 165, 86 165.959, 86 173.627 C 86 182.966, 84.974 183.516, 65.995 184.337 C 56.703 184.739, 50.148 184.614, 49.025 184.014 C 47.486 183.190, 47.280 183.354, 47.723 185.050 C 48.029 186.218, 47.499 187.896, 46.465 189.039 C 45.483 190.124, 44.953 191.286, 45.288 191.622 C 45.623 191.957, 46.937 191.022, 48.208 189.544 C 50.452 186.936, 50.957 186.833, 65.510 186.010 C 84.584 184.931, 84.792 185.029, 85.206 195.244 L 85.500 202.500 92.334 202.154 C 100.556 201.739, 104 203.959, 104 209.674 C 104 213.585, 103.545 213.521, 117.372 211.574 C 122.942 210.790, 131.325 209.857, 136 209.501 C 145.347 208.789, 149 207.152, 149 203.677 C 149 199.102, 153.458 197.879, 162.499 199.975 C 167.316 201.091, 169.118 199.892, 166.676 197.195 C 164.553 194.848, 164.400 186.743, 166.448 185.043 C 168.075 183.693, 169.733 183.384, 182.500 182.052 C 193.623 180.891, 195.012 181.824, 194.232 189.936 L 193.746 194.998 199.985 194.749 C 206.410 194.493, 207.023 194.824, 208.417 199.303 C 208.922 200.927, 209.847 201.042, 217.739 200.464 C 234.584 199.230, 238.234 198.364, 241.043 194.936 C 243.327 192.148, 243.963 191.902, 247.286 192.526 C 255.233 194.017, 259.685 189.900, 254.520 185.837 L 251.878 183.759 254.113 181.379 C 258.928 176.254, 272 178.727, 272 184.764 C 272 190.779, 273.667 192.315, 279.459 191.634 C 282.433 191.284, 286.021 191.438, 287.433 191.974 C 290.257 193.048, 290.482 192.768, 289.008 190.016 C 288.463 188.996, 286.710 187.875, 285.112 187.525 C 278.954 186.172, 276.363 179.587, 278.598 170.969 C 280.657 163.032, 283.919 160.807, 288.035 164.532 C 289.576 165.926, 289.887 165.813, 291.494 163.282 C 292.464 161.752, 294.438 159.152, 295.879 157.504 L 298.500 154.507 295.808 156.873 L 293.116 159.239 291.062 155.870 C 289.932 154.016, 289.006 152.072, 289.004 151.550 C 289.002 151.027, 288.460 151.140, 287.800 151.800 C 286.352 153.248, 279.367 153.402, 278.503 152.005 C 278.165 151.458, 276.901 150.512, 275.694 149.902 C 274.487 149.292, 275.224 150.252, 277.331 152.036 L 281.162 155.279 278.577 157.889 C 277.156 159.325, 274.137 162.637, 271.869 165.250 C 266.307 171.656, 264.522 171.496, 257.722 163.982 C 252.941 158.699, 252.116 158.155, 250.973 159.533 C 247.765 163.398, 240.148 159.194, 242.766 155.003 C 243.865 153.244, 243.768 153, 241.969 153 C 240.842 153, 238.091 152.067, 235.856 150.926 C 233.620 149.786, 232.102 149.356, 232.482 149.970 C 233.483 151.590, 231.121 154, 228.533 154 C 226.160 154, 222.548 150.786, 223.664 149.669 C 225.364 147.970, 223.202 149.325, 220.694 151.532 M 246 152 C 246 152.550, 246.810 153, 247.800 153 C 248.790 153, 250.140 153.540, 250.800 154.200 C 251.460 154.860, 252 155.022, 252 154.560 C 252 153.437, 248.816 151.072, 247.250 151.032 C 246.563 151.014, 246 151.450, 246 152 M 550.655 152.829 C 549.745 153.835, 549 155.215, 549 155.895 C 549 156.576, 547.875 158.608, 546.500 160.411 C 543.151 164.802, 543.347 166.975, 547.450 170.952 C 550.808 174.207, 550.967 174.251, 553.434 172.635 C 556.810 170.423, 557.552 166.968, 555.503 163.005 C 554.128 160.347, 554.049 159.296, 555.043 156.896 C 556.986 152.206, 553.849 149.299, 550.655 152.829 M 39.646 152.764 C 39.164 153.543, 37.906 153.764, 36.274 153.354 C 34.089 152.805, 33.778 152.978, 34.336 154.432 C 34.701 155.384, 35 156.629, 35 157.198 C 35 157.772, 35.980 157.977, 37.198 157.658 C 38.407 157.342, 39.982 157.570, 40.698 158.164 C 42.166 159.383, 42.280 158.224, 41.108 154.010 C 40.634 152.310, 40.171 151.914, 39.646 152.764 M 45.501 155.776 C 45.889 157.274, 46.153 161.374, 46.088 164.886 L 45.970 171.272 53.735 164.454 C 58.006 160.704, 62.112 157.089, 62.861 156.421 C 63.940 155.458, 62.825 155.289, 57.469 155.606 C 52.821 155.880, 49.794 155.545, 47.756 154.528 L 44.796 153.052 45.501 155.776 M 256.083 154.927 C 254.950 155.645, 255.520 156.843, 258.926 160.912 C 263.829 166.767, 266.869 167.480, 269.703 163.438 C 270.691 162.028, 272.500 159.616, 273.722 158.076 C 274.944 156.537, 275.657 154.990, 275.305 154.639 C 274.327 153.660, 257.691 153.910, 256.083 154.927 M 455.973 157.873 C 452.233 161.613, 452.118 165.161, 455.645 167.935 C 458.204 169.949, 458.385 169.959, 461.280 168.258 C 466.366 165.268, 467.416 162.799, 464.940 159.651 C 461.190 154.883, 459.332 154.515, 455.973 157.873 M 120.826 159.037 C 119.547 160.707, 117.354 163.519, 115.953 165.287 C 114.553 167.054, 110.978 171.822, 108.010 175.883 L 102.614 183.266 105.791 185.883 C 113.688 192.387, 115.826 194, 116.553 194 C 116.982 194, 120.618 196.048, 124.635 198.552 C 134.026 204.405, 133.858 204.495, 146.815 186.683 C 148.089 184.932, 150.058 182.510, 151.192 181.301 C 154.166 178.127, 153.240 176.914, 142.316 169.683 C 136.917 166.109, 130.949 161.568, 129.054 159.592 C 124.856 155.216, 123.807 155.145, 120.826 159.037 M 219.500 161.692 C 211.347 170.986, 209 174.178, 209 175.971 C 209 178.343, 223.770 194, 226.007 194 C 227.916 194, 239.379 182.162, 241.237 178.271 C 242.112 176.439, 241.834 175.368, 239.671 172.247 C 234.525 164.820, 227.400 156.508, 225.961 156.252 C 225.158 156.109, 222.250 158.556, 219.500 161.692 M 76.892 158.335 C 75.026 158.794, 72.150 160.202, 70.500 161.465 C 65.529 165.268, 54 176.119, 54 176.994 C 54 177.760, 78.017 177.157, 78.914 176.369 C 79.142 176.169, 79.229 173.263, 79.109 169.912 C 78.792 161.131, 80.423 159, 87.464 159 C 90.444 159, 93.165 158.542, 93.511 157.983 C 94.250 156.786, 82.143 157.042, 76.892 158.335 M 175.032 157.750 C 175.077 158.838, 179.760 164, 180.702 164 C 181.141 164, 182.757 162.425, 184.293 160.500 L 187.085 157 181.043 157 C 177.719 157, 175.014 157.338, 175.032 157.750 M 458.122 160.278 C 456.806 161.594, 456.635 164.657, 457.837 165.399 C 459.205 166.245, 462.961 163.063, 462.381 161.550 C 461.631 159.595, 459.455 158.945, 458.122 160.278 M 221.406 164.220 C 215.828 170.229, 213 174.137, 213.004 175.827 C 213.011 178.222, 223.805 190, 225.993 190 C 227.953 190, 238 178.718, 238 176.517 C 238 174.625, 227.697 161.565, 225.937 161.226 C 225.119 161.069, 223.080 162.416, 221.406 164.220 M 294.699 166.993 C 292.031 171.740, 291.989 172.037, 293.481 175.608 C 295.406 180.216, 295.706 179.905, 297.472 171.466 C 299.364 162.420, 298.266 160.648, 294.699 166.993 M 548.667 162.667 C 547.466 163.867, 547.968 167.728, 549.488 168.990 C 551.392 170.570, 552.512 168.176, 551.589 164.498 C 550.967 162.021, 549.950 161.383, 548.667 162.667 M 121.281 166.250 C 115.960 172.041, 109 181.486, 109 182.916 C 109 184.943, 131.193 199.264, 133.104 198.469 C 134.511 197.884, 143.347 185.963, 145.847 181.276 C 147.485 178.205, 147.045 177.701, 135.645 169.589 C 127.041 163.467, 124.402 162.854, 121.281 166.250 M 35 168.418 C 35 170.485, 36.093 173, 36.990 173 C 38.303 173, 38.834 169.234, 37.684 168.084 C 36.182 166.582, 35 166.729, 35 168.418 M 340.048 178.449 C 337.512 181.148, 337.860 183.889, 340.838 184.668 C 342.007 184.973, 343.835 188.005, 345.905 193.068 C 354.014 212.899, 358.791 215.296, 369.304 204.810 C 372.783 201.339, 377.743 196.025, 380.326 193 C 384.084 188.599, 385.203 187.800, 385.923 189 C 389.230 194.507, 401.662 211.487, 402.391 211.493 C 402.881 211.497, 403.770 210.726, 404.368 209.779 C 405.236 208.402, 404.367 205.936, 400.007 197.421 C 393.507 184.725, 390.144 181.480, 382.664 180.684 C 379.824 180.382, 371.200 179.216, 363.500 178.095 C 344.952 175.393, 342.890 175.424, 340.048 178.449 M 550.373 179.714 C 548.654 179.931, 546.179 181.249, 544.873 182.643 L 542.500 185.177 545.075 187.339 C 546.492 188.527, 548.428 191.602, 549.378 194.171 C 550.328 196.740, 551.683 199.322, 552.390 199.909 C 554.620 201.759, 557.723 197.161, 558.986 190.134 C 560.069 184.106, 560.011 183.641, 557.891 181.384 C 556.659 180.073, 555.167 179.072, 554.576 179.160 C 553.984 179.248, 552.093 179.497, 550.373 179.714 M 343.610 181.439 C 344.740 182.231, 347.313 186.843, 349.328 191.689 C 357.014 210.176, 359.282 211.143, 369.614 200.343 C 374.166 195.585, 375.700 193.343, 374.989 192.486 C 374.299 191.655, 374.751 190.172, 376.467 187.644 C 377.827 185.640, 378.789 184, 378.605 184 C 378.420 184, 371.623 183.100, 363.500 182 C 355.377 180.900, 347.116 180, 345.143 180 C 341.736 180, 341.658 180.073, 343.610 181.439 M 16.924 184.592 C 15.631 186.150, 12.476 186.128, 8.750 184.534 C 6.060 183.384, 6.547 186.472, 9.250 187.706 C 12.978 189.408, 28.204 207.524, 30.743 213.278 L 32.500 217.262 42.798 216.596 C 53.978 215.874, 59.019 215.103, 58.967 214.125 C 58.948 213.781, 56.344 210.635, 53.179 207.133 L 47.425 200.767 47.819 204.897 C 48.267 209.592, 46.019 214, 43.177 214 C 40.898 214, 27.615 198.576, 22.299 189.757 C 18.752 183.873, 18.067 183.215, 16.924 184.592 M 439.376 184.870 C 437.658 185.941, 432.965 190.796, 428.947 195.659 C 424.928 200.521, 419.472 206.836, 416.820 209.690 C 411.741 215.159, 411.076 216.989, 413.452 218.960 C 416.049 221.116, 418.650 219.123, 431.075 205.458 C 437.805 198.056, 443.804 192.011, 444.406 192.025 C 445.008 192.039, 448.968 197.104, 453.207 203.281 C 457.446 209.457, 462.685 216.239, 464.848 218.351 L 468.781 222.192 474.641 220.945 C 481.854 219.409, 488.249 213.710, 496.739 201.250 C 499.831 196.713, 502.922 193, 503.608 193 C 504.294 193, 506.429 195.588, 508.354 198.750 C 513.155 206.642, 517.297 210.552, 518.861 208.668 C 520.312 206.919, 519.799 205.608, 513.564 195.140 C 505.975 182.398, 508.377 183.191, 478.264 183.496 C 464.094 183.640, 451.600 183.867, 450.500 184 C 449.400 184.134, 447.150 183.946, 445.500 183.583 C 443.375 183.115, 441.589 183.490, 439.376 184.870 M 551.250 183.706 C 548.547 184.226, 548.573 183.739, 551 188.500 C 552.100 190.658, 553.014 193.115, 553.030 193.961 C 553.090 196.953, 554.714 192.761, 555.437 187.750 C 556.160 182.738, 556.179 182.756, 551.250 183.706 M 182 186.097 C 177.875 186.551, 173.262 187.036, 171.750 187.174 C 169.296 187.398, 169 187.820, 169 191.090 C 169 193.128, 169.666 195.308, 170.500 196 C 172.662 197.794, 172.365 199.276, 169.247 202.263 C 166.762 204.644, 166.104 204.810, 162.497 203.974 C 155.433 202.337, 153.653 202.738, 151.969 206.345 L 150.437 209.626 154.969 208.846 C 157.461 208.417, 162.115 207.790, 165.312 207.453 C 169.449 207.017, 171.299 206.359, 171.732 205.170 C 172.067 204.252, 173.389 202.228, 174.670 200.673 C 175.952 199.119, 177 196.806, 177 195.534 C 177 194.262, 177.873 192.159, 178.939 190.861 C 180.877 188.501, 180.879 188.501, 182.853 190.500 C 183.940 191.600, 185.957 195.200, 187.335 198.500 C 190.114 205.152, 189.617 204.974, 201.114 203.437 C 205.569 202.842, 205.689 202.737, 204.614 200.400 C 203.574 198.141, 203.130 198.021, 197.960 198.595 C 190.791 199.392, 189.576 198.123, 190.209 190.498 C 190.459 187.474, 190.403 185.061, 190.082 185.136 C 189.762 185.210, 186.125 185.643, 182 186.097 M 439.958 188.463 C 438.560 189.224, 435.341 192.487, 432.805 195.715 C 430.269 198.944, 425.450 204.612, 422.097 208.312 C 418.744 212.013, 416 215.278, 416 215.570 C 416 217.034, 419.884 213.319, 430.971 201.250 C 437.666 193.963, 443.749 188, 444.489 188 C 445.229 188, 447.494 189.912, 449.522 192.250 C 452.734 195.951, 452.911 196.048, 450.892 193 C 446.813 186.843, 444.614 185.930, 439.958 188.463 M 453.300 187.793 C 452.468 188.322, 455.100 192.994, 461.893 203.044 L 471.685 217.531 475.304 216.676 C 477.473 216.163, 479.163 215.063, 479.522 213.930 C 479.852 212.890, 482.465 208.769, 485.328 204.770 C 492.050 195.384, 496.096 188.429, 495.298 187.632 C 494.393 186.726, 454.739 186.879, 453.300 187.793 M 78.500 191 C 79.495 192.100, 80.465 193, 80.655 193 C 80.845 193, 81 192.100, 81 191 C 81 189.619, 80.333 189, 78.845 189 C 76.753 189, 76.743 189.059, 78.500 191 M 35 190.694 C 35 191.286, 35.657 193.285, 36.461 195.135 C 37.791 198.198, 37.922 198.276, 37.929 196 C 37.933 194.625, 37.276 192.626, 36.468 191.559 C 35.661 190.491, 35 190.102, 35 190.694 M 181.026 195.615 C 181.012 196.778, 180.088 198.890, 178.973 200.307 L 176.947 202.883 180.723 202.300 C 182.801 201.979, 184.548 201.668, 184.608 201.608 C 184.667 201.549, 183.891 199.700, 182.884 197.500 C 181.590 194.675, 181.045 194.121, 181.026 195.615 M 458 204.500 C 460.784 208.625, 463.286 212, 463.561 212 C 463.836 212, 461.784 208.625, 459 204.500 C 456.216 200.375, 453.714 197, 453.439 197 C 453.164 197, 455.216 200.375, 458 204.500 M 66.042 212.665 C 67.944 214.956, 70.400 216.855, 71.500 216.885 L 73.500 216.939 71.500 215.838 C 70.400 215.232, 67.944 213.333, 66.042 211.618 L 62.584 208.500 66.042 212.665 M 182.032 212.773 L 179.842 214.547 181.882 216.393 C 184.265 218.549, 191.964 217.953, 194.041 215.451 C 197.341 211.474, 186.595 209.078, 182.032 212.773 M 147.199 216.133 C 142.070 218.485, 141.573 219.303, 143.961 221.465 C 147.814 224.952, 159.237 220.401, 156.105 216.627 C 154.177 214.303, 151.513 214.155, 147.199 216.133 M 249 221 C 248.175 221.533, 245.441 221.976, 242.924 221.985 C 239.447 221.996, 237.827 222.556, 236.174 224.314 C 233.246 227.432, 233.402 228.434, 237.620 233.582 C 241.804 238.688, 243.117 238.983, 245.723 235.406 C 247.678 232.722, 250.140 232.245, 255.311 233.548 C 257.587 234.122, 258.683 233.720, 261.061 231.441 C 264.798 227.862, 264.761 227.466, 260.305 223.385 C 256.510 219.909, 252.121 218.983, 249 221 M 249 225 C 248.175 225.533, 245.363 225.976, 242.750 225.985 C 237.245 226.002, 236.589 227.498, 240.409 231.318 L 242.818 233.727 245.280 231.266 C 247.788 228.758, 250.059 228.379, 255.632 229.540 C 259.513 230.348, 260.866 228.614, 258.443 225.937 C 256.565 223.862, 251.533 223.363, 249 225 M 213.719 227.758 C 211.533 230.173, 211.555 231.287, 213.829 233.345 C 217.456 236.627, 225 234.991, 225 230.922 C 225 226.968, 216.573 224.604, 213.719 227.758 M 228.857 234.020 C 227.953 234.548, 226.331 235.115, 225.253 235.279 C 224.175 235.444, 222.136 236.336, 220.723 237.262 C 217.262 239.529, 218.711 243.514, 225.207 249.594 C 230.391 254.446, 232.602 254.952, 236.131 252.095 C 238.379 250.275, 238.406 250.106, 236.741 248.267 C 234.720 246.033, 234.475 241.813, 236.206 239.042 C 238.509 235.354, 233.010 231.595, 228.857 234.020 M 192.522 234.965 C 192.051 235.726, 188.114 236.042, 180.659 235.917 C 170.073 235.740, 162.338 236.958, 159.263 239.287 C 158.583 239.802, 156.978 239.960, 155.697 239.639 C 154.327 239.295, 152.443 239.702, 151.122 240.627 C 149.615 241.683, 147.802 241.998, 145.606 241.586 C 143.107 241.117, 141.919 241.432, 140.570 242.923 C 138.143 245.604, 139.048 246.584, 147.781 250.729 L 155.363 254.328 158.004 251.164 C 161.334 247.176, 161.178 247.156, 167.341 252.341 C 174.016 257.958, 175.068 258.259, 179.119 255.711 C 188.451 249.842, 196.602 248.690, 203.673 252.241 C 211.192 256.017, 216.758 256.576, 219.662 253.848 L 222.028 251.625 219.044 248.545 C 216.926 246.360, 216.124 244.622, 216.280 242.558 C 216.620 238.063, 211.498 235.004, 203.602 234.986 C 200.246 234.979, 196.538 234.715, 195.363 234.399 C 194.187 234.084, 192.909 234.338, 192.522 234.965 M 226.864 239.255 C 222.672 241.843, 222.858 244.170, 227.552 247.862 C 231.303 250.813, 231.565 250.635, 231.149 245.408 C 230.948 242.876, 231.281 240.319, 231.892 239.708 C 235.132 236.468, 231.856 236.173, 226.864 239.255 M 192.367 239.215 C 192.065 239.704, 186.786 240.012, 180.637 239.899 C 170.076 239.705, 164.827 240.519, 159.317 243.203 C 158.117 243.787, 156.424 243.993, 155.556 243.660 C 154.688 243.327, 152.502 243.814, 150.699 244.742 L 147.420 246.430 150.916 248.212 L 154.411 249.994 157.560 246.941 C 161.430 243.190, 164.046 243.578, 168.990 248.634 C 174.288 254.052, 175.400 254.376, 178.822 251.496 C 180.454 250.123, 182.624 248.984, 183.644 248.965 C 184.665 248.945, 186.625 248.286, 188 247.500 C 191.826 245.313, 198.563 245.675, 203.900 248.356 C 206.479 249.651, 210.820 251.039, 213.545 251.440 L 218.500 252.169 215.151 248.685 C 212.707 246.142, 211.977 244.649, 212.449 243.161 C 212.895 241.755, 212.538 240.831, 211.298 240.184 C 208.859 238.913, 193.054 238.103, 192.367 239.215 M 502.719 257.758 C 500.075 260.680, 500.622 262.449, 505.370 266.340 L 509.740 269.921 518.348 269.314 C 524.927 268.849, 527.351 268.269, 528.633 266.853 C 530.372 264.931, 533 264.344, 533 265.878 C 533 266.360, 532.325 267.315, 531.500 268 C 529.432 269.716, 529.479 278.323, 531.566 280.054 C 532.864 281.132, 533.632 281.058, 536.068 279.619 C 538.967 277.907, 539.018 277.916, 539.940 280.341 C 542.196 286.276, 547.859 286.918, 551.098 281.607 C 553.627 277.460, 553.493 275.789, 550.418 273.116 C 548.874 271.773, 548.070 270.261, 548.418 269.353 C 548.738 268.519, 549 267.216, 549 266.459 C 549 265.701, 550.203 263.965, 551.673 262.602 C 554.018 260.428, 554.175 259.916, 552.954 258.444 C 551.771 257.019, 550.420 256.871, 544.030 257.466 C 532.907 258.501, 515.668 258.065, 507.969 256.553 C 505.184 256.006, 504.074 256.261, 502.719 257.758 M 505 260.746 C 505 261.244, 506.026 262.615, 507.279 263.793 C 509.370 265.757, 510.279 265.883, 518.280 265.318 C 523.720 264.934, 527.424 264.194, 528.123 263.351 C 529.418 261.791, 529.814 261.869, 519 261.555 C 514.875 261.435, 510.038 261.001, 508.250 260.589 C 506.426 260.169, 505 260.238, 505 260.746 M 538 262 L 535.500 262.801 538.128 262.900 C 544.518 263.143, 543.279 270, 536.845 270 C 534.257 270, 534 270.318, 534 273.523 L 534 277.046 536.630 275.323 C 539.414 273.499, 541.108 274.607, 544.539 280.495 C 545.520 282.178, 545.675 282.182, 547.289 280.568 C 549.154 278.704, 549.640 276.487, 547.956 277.527 C 544.538 279.640, 543.036 269.538, 545.958 264.079 C 547.598 261.014, 544.008 260.076, 538 262 M 588.648 277.261 C 586.190 279.719, 583.579 279.750, 572.410 277.455 C 568.223 276.595, 562.880 280.860, 564.601 283.689 C 565.206 284.685, 566.945 285.647, 568.465 285.827 C 569.984 286.007, 572.914 287.807, 574.976 289.827 C 582.975 297.664, 586.600 299.392, 588.993 296.509 C 589.992 295.304, 589.840 294.198, 588.203 290.759 C 585.920 285.963, 586.491 284.583, 590.355 285.553 C 593.385 286.313, 593.290 286.106, 592.067 289.324 C 590.958 292.241, 594.556 296.425, 597.661 295.827 C 600.207 295.336, 599.976 292.568, 597.358 292.195 C 594.800 291.830, 595.212 288.492, 598 287 C 599.857 286.006, 600.408 281.370, 598.788 280.369 C 598.259 280.042, 597.325 280.275, 596.713 280.887 C 596.101 281.499, 594.303 282, 592.717 282 C 588.127 282, 590.040 279.570, 595.078 279 C 601.111 278.318, 601.241 275.626, 595.261 275.193 C 591.883 274.948, 590.541 275.368, 588.648 277.261 M 572 282.754 C 573.925 283.815, 575.944 285.655, 576.487 286.842 C 577.030 288.029, 577.755 289, 578.098 289 C 578.440 289, 580.291 290.065, 582.209 291.367 L 585.697 293.734 583.983 290.210 C 583.040 288.272, 582.473 285.908, 582.722 284.957 C 583.077 283.599, 582.348 283.107, 579.337 282.670 C 577.227 282.364, 573.925 281.823, 572 281.469 L 568.500 280.825 572 282.754 M 465.189 305.308 L 460.961 309.615 463.565 312.058 L 466.168 314.500 468.536 311.750 C 469.838 310.238, 471.531 309, 472.297 309 C 473.063 309, 474.434 308.178, 475.344 307.173 C 476.891 305.463, 476.849 305.207, 474.684 303.173 C 471.414 300.100, 469.984 300.422, 465.189 305.308 M 536.655 305.829 C 534.265 308.469, 534.488 309.071, 539.784 314.288 C 545.205 319.627, 546.337 319.942, 548.459 316.703 C 552.833 310.028, 541.938 299.991, 536.655 305.829 M 487.447 307.059 C 484.626 310.176, 486.577 312.426, 492.430 312.808 C 499.999 313.301, 502.212 310.319, 496.750 306.989 C 492.590 304.453, 489.786 304.474, 487.447 307.059 M 575.655 307.829 C 573.334 310.394, 573.563 311.454, 577.077 314.411 C 581.821 318.403, 587.820 316.833, 588.619 311.389 C 589.204 307.403, 578.660 304.508, 575.655 307.829 M 539 308.750 C 539 309.163, 540.589 310.768, 542.532 312.318 L 546.064 315.136 545.601 312.585 C 545.347 311.181, 544.856 309.576, 544.510 309.016 C 543.789 307.850, 539 307.618, 539 308.750 M 555.200 309.200 C 554.540 309.860, 554 311.189, 554 312.153 C 554 313.117, 553.479 315.050, 552.841 316.449 C 550.625 321.313, 557.012 325.109, 561.135 321.378 C 563.056 319.640, 562.802 311.870, 560.739 309.250 C 559.492 307.666, 556.759 307.641, 555.200 309.200 M 578 310.893 C 578 311.995, 580.482 313, 583.204 313 C 584.905 313, 585.037 312.750, 584 311.500 C 582.662 309.888, 578 309.416, 578 310.893" stroke="none" fill="#1A1A1A" fill-rule="evenodd"/>
</svg>