<svg xmlns="http://www.w3.org/2000/svg" viewBox="0 0 600 338" version="1.1" preserveAspectRatio="xMidYMid meet">
	<path d="M 0.499 1.146 C -1.386 6.074, 0.430 9.327, 6.231 11.413 C 12.854 13.795, 13.895 16.071, 10.220 20.141 C 7.432 23.228, 8.789 27.505, 13.546 30.622 C 17.859 33.448, 21.819 28.667, 18.345 24.829 C 15.526 21.714, 19.271 22.543, 22.469 25.742 C 25.734 29.007, 33.880 30.971, 39.054 29.740 C 43.576 28.665, 43.644 28.659, 49.750 28.842 L 55 29 55 32.453 L 55 35.907 52.034 34.205 C 47.152 31.403, 44.852 34.406, 47.991 39.485 L 50.246 43.134 47.470 46.031 C 45.150 48.453, 44.904 49.179, 45.970 50.464 C 47.811 52.682, 49.501 52.374, 53.215 49.140 C 55.022 47.567, 58.300 45.712, 60.500 45.017 C 62.700 44.323, 65.327 43.331, 66.337 42.814 C 67.890 42.020, 68.076 42.187, 67.534 43.893 C 66.568 46.936, 69.066 53.997, 71.726 55.740 C 73.898 57.163, 74.246 57.118, 76.352 55.139 C 79.193 52.470, 80.056 52.470, 83.449 55.138 L 86.168 57.277 88.251 55.193 C 89.991 53.453, 90.122 52.852, 89.045 51.555 C 88.198 50.534, 88.134 50, 88.859 50 C 89.465 50, 90.253 51.237, 90.608 52.750 C 91.718 57.475, 96.837 62, 101.074 62 C 105.877 62, 108.385 64.614, 104.515 65.586 C 103.050 65.953, 100.809 65.779, 99.534 65.198 C 97.591 64.312, 96.847 64.534, 94.934 66.571 C 93.678 67.907, 91.900 69, 90.981 69 C 87.583 69, 84.441 74.919, 87 76.500 C 87.550 76.840, 88 78.819, 88 80.899 C 88 86.577, 86.199 87.024, 66.222 86.307 L 49.348 85.700 42.424 89.504 C 38.616 91.597, 33.482 94.564, 31.016 96.099 L 26.533 98.889 23.694 95.444 C 20.106 91.092, 13.722 90.525, 10.254 94.250 C 8.310 96.337, 5.944 107.642, 5.967 114.731 C 5.972 116.200, 4.955 117.489, 2.987 118.507 C 0.922 119.575, 0 120.797, 0 122.467 C -0 125.313, 1.710 126.690, 3.287 125.113 C 5.373 123.027, 7.150 123.849, 6.816 126.745 C 6.566 128.915, 5.871 129.598, 3.500 130.005 C 1.108 130.415, 0.500 131.024, 0.500 133.010 C 0.500 136.472, 7.594 137.211, 10.457 134.048 C 13.130 131.094, 13.871 131.444, 16.179 136.750 C 18.877 142.949, 20.762 145, 23.761 145 C 25.108 145, 27.582 146.154, 29.258 147.564 C 31.537 149.482, 33.206 150.049, 35.886 149.818 C 40.315 149.437, 41.217 152.254, 41.389 167 C 41.505 176.937, 42.285 179.838, 44.375 178.103 C 45.248 177.380, 45.631 177.814, 45.788 179.704 C 46.047 182.838, 47.689 185, 49.810 185 C 50.962 185, 50.667 185.738, 48.687 187.805 C 47.209 189.347, 46 191.039, 46 191.564 C 46 192.089, 45.125 193.065, 44.056 193.733 C 42.336 194.807, 42.170 195.784, 42.619 202.224 L 43.126 209.500 37.076 203 C 28.429 193.709, 24.308 186.643, 23.076 178.993 C 21.800 171.071, 19.979 168.804, 17.031 171.472 C 15.914 172.483, 15 172.960, 15 172.533 C 15 172.105, 14.325 172.315, 13.500 173 C 12.298 173.997, 12 173.988, 12 172.951 C 12 168.415, 5.410 167.556, 1.132 171.535 C -0.994 173.513, 0.617 175.096, 3.601 173.962 C 7.891 172.331, 8.315 172.685, 7.674 177.361 C 6.682 184.602, 11.961 188.179, 17.365 183.927 C 19.668 182.116, 20 182.066, 20 183.527 C 20 186.505, 26.876 196.443, 34.909 205.074 C 42.680 213.423, 42.771 213.483, 44.827 211.639 C 46.261 210.354, 46.996 208.303, 47.202 205.014 L 47.500 200.250 53.855 207.375 L 60.211 214.500 57.355 215.159 C 51.985 216.399, 39.967 218, 36.028 218 C 32.331 218, 31.974 217.731, 30.118 213.533 C 29.031 211.076, 26.085 206.867, 23.571 204.179 C 21.057 201.492, 19 198.842, 19 198.291 C 19 197.157, 9.433 188.080, 6.462 186.395 C 4.856 185.485, 4.735 185.025, 5.769 183.778 C 8.115 180.952, 4.397 179.158, 1.727 181.828 C -0.297 183.852, -0.328 184.100, 1.239 185.667 C 2.774 187.203, 2.780 187.441, 1.304 188.520 C -0.565 189.887, 0.347 191.998, 2.809 192.004 C 5.777 192.010, 10.593 195.644, 12.920 199.633 L 15.175 203.500 11.296 199.750 C 7.133 195.727, 3.180 194.874, 0.980 197.524 C -0.738 199.595, 0.449 200.497, 4.438 200.154 C 7.180 199.917, 8.155 200.409, 9.951 202.931 C 11.151 204.616, 13.235 206.272, 14.582 206.610 C 18.535 207.602, 21 211.617, 21 217.062 C 21 224.101, 23.427 225.711, 33.664 225.463 C 44.314 225.206, 63.374 223.188, 66.544 221.983 C 67.966 221.443, 70.576 221, 72.343 221 C 80.449 221, 81.382 216.337, 73.876 213.334 C 69.218 211.470, 55.524 196.683, 56.383 194.445 C 56.860 193.201, 58.801 192.981, 67.232 193.215 L 77.500 193.500 78.004 199.842 C 78.714 208.757, 80.891 210.476, 90.365 209.600 L 97.229 208.965 96.595 212.344 C 95.329 219.093, 98.777 219.577, 126.183 216.495 C 138.458 215.115, 149.098 213.764, 149.830 213.494 C 150.561 213.223, 155.286 212.541, 160.330 211.979 C 166.987 211.237, 170.311 210.364, 172.460 208.793 C 176.547 205.806, 185.040 205.141, 188.676 207.523 C 191.038 209.071, 192.133 209.154, 197.438 208.186 C 200.772 207.578, 208.900 206.812, 215.500 206.485 C 222.100 206.158, 232.675 205.032, 239 203.983 C 256.113 201.146, 268.647 200.241, 271.284 201.652 C 272.489 202.297, 273.839 202.599, 274.284 202.324 C 274.730 202.049, 276.985 202.787, 279.297 203.964 C 288.515 208.658, 288.794 208.498, 271.323 208.526 C 257.013 208.550, 254.803 208.771, 253.259 210.339 C 251.578 212.046, 251.625 212.234, 254.306 214.563 C 255.849 215.903, 258.151 217, 259.421 217 C 260.691 217, 262.872 217.898, 264.268 218.996 C 268.037 221.961, 271.197 222.894, 273.210 221.637 C 274.617 220.758, 275.576 221.166, 278.295 223.801 C 281.617 227.021, 281.661 227.032, 283.443 225.063 C 288.666 219.291, 306.473 216.403, 311.088 220.580 C 312.437 221.801, 313.292 221.914, 314.851 221.080 C 317.554 219.633, 319 219.719, 319 221.326 C 319 222.055, 320.129 223.712, 321.508 225.008 L 324.016 227.364 327.040 225.129 C 331.383 221.917, 337.335 224.074, 341.322 230.304 C 342.309 231.846, 343.878 233.391, 344.808 233.738 C 345.739 234.085, 347.046 235.126, 347.714 236.052 C 349.238 238.166, 354.578 239.296, 356.977 238.012 C 358.287 237.311, 359.131 237.453, 360.017 238.521 C 361.453 240.251, 368.097 240.503, 369.710 238.890 C 371.947 236.653, 384.764 238.854, 388.473 242.111 C 392.204 245.386, 393.410 245.572, 398.112 243.595 C 401.113 242.333, 401.832 242.384, 405.187 244.095 C 407.240 245.143, 409.629 246, 410.495 246 C 411.791 246, 411.869 246.376, 410.933 248.125 C 408.855 252.008, 416.188 259.040, 420.121 256.935 C 421.082 256.421, 423.463 256, 425.411 256 C 429.409 256, 432.619 252.474, 431.727 249.063 C 430.902 245.908, 436.809 244.778, 440.527 247.380 C 441.612 248.139, 444.525 248.975, 447 249.237 C 449.475 249.499, 452.955 250.324, 454.734 251.070 C 458.586 252.686, 469.086 248.063, 473.512 242.803 C 475.661 240.249, 476.407 239.976, 479.727 240.528 C 486.291 241.620, 486.356 241.691, 483.909 245.128 C 480.887 249.371, 482.229 251.451, 488.113 251.643 C 490.526 251.721, 493.628 252.090, 495.007 252.463 C 496.817 252.952, 498.525 252.454, 501.147 250.675 C 504.248 248.570, 504.984 248.413, 506.170 249.598 C 508.153 251.581, 520.807 248.931, 523.160 246.040 C 524.073 244.918, 525.366 244, 526.033 244 C 526.933 244, 526.902 244.414, 525.913 245.605 C 524.763 246.991, 525.052 247.600, 528.041 250.078 C 533.312 254.449, 537.774 254.964, 540.719 251.540 C 542.916 248.987, 543.300 248.881, 546.136 250.056 C 550.568 251.892, 559.692 252.004, 565.820 250.298 C 570.611 248.965, 571.316 248.976, 572.899 250.409 C 575.206 252.496, 577.589 252.419, 580.846 250.152 C 585.233 247.097, 588.039 246.879, 592.740 249.227 C 596.683 251.196, 597.185 251.244, 598.643 249.786 C 600.421 248.008, 599.684 245.800, 597.582 246.607 C 596.838 246.893, 594.519 246.210, 592.430 245.090 C 588.234 242.841, 585.178 243.120, 580.846 246.146 C 577.591 248.419, 575.208 248.498, 572.899 246.409 C 571.314 244.974, 570.617 244.964, 565.820 246.307 C 559.868 247.973, 550.123 247.782, 545.397 245.905 C 541.720 244.445, 539.010 245.245, 538.288 248.005 C 538.001 249.102, 536.994 250, 536.050 250 C 533.291 250, 532.853 248.791, 535.054 247.250 C 537.101 245.816, 536.256 243, 533.779 243 C 533.242 243, 531.305 242.289, 529.474 241.421 C 525.254 239.418, 521.766 239.895, 520.560 242.640 C 519.895 244.155, 518.421 244.945, 515.515 245.343 C 513.257 245.652, 510.649 246.198, 509.719 246.554 C 508.509 247.019, 507.757 246.490, 507.076 244.699 C 505.380 240.238, 500.141 240.609, 501.317 245.106 C 502.018 247.785, 496.881 249.608, 493.074 248.031 C 491.464 247.364, 489.147 247.136, 487.924 247.524 L 485.700 248.230 487.909 245.128 L 490.117 242.026 487.769 239.678 C 483.422 235.332, 476.193 235.242, 472.190 239.485 C 466.820 245.177, 458.639 248.713, 454.684 247.051 C 452.933 246.316, 449.475 245.499, 447 245.237 C 444.525 244.975, 441.612 244.139, 440.527 243.380 C 435.703 240.005, 426.756 244.273, 427.751 249.476 C 428.189 251.768, 427.924 252.001, 424.867 252.015 C 423.015 252.024, 420.888 252.419, 420.139 252.893 C 416.556 255.163, 413.297 251.636, 415.174 247.518 C 416.574 244.444, 414.875 242, 411.338 242 C 410.008 242, 407.240 241.143, 405.187 240.095 C 401.832 238.384, 401.113 238.333, 398.112 239.595 C 393.410 241.572, 392.204 241.386, 388.473 238.111 C 384.764 234.854, 371.947 232.653, 369.710 234.890 C 368.098 236.502, 362.934 236.250, 360.958 234.462 C 359.562 233.198, 358.790 233.138, 356.625 234.125 C 353.049 235.754, 352.175 234.507, 354.878 231.630 L 357.097 229.268 354.607 226.309 L 352.117 223.351 357.809 224.161 C 360.939 224.607, 369.569 225.692, 376.986 226.573 C 384.403 227.453, 390.779 228.363, 391.154 228.595 C 391.528 228.827, 398.960 229.264, 407.668 229.568 C 416.375 229.871, 428 230.457, 433.500 230.868 C 454.029 232.406, 520.811 230.536, 532.500 228.096 C 535.250 227.523, 541.325 226.568, 546 225.975 C 552.651 225.132, 556.236 224.007, 562.479 220.803 C 570.086 216.899, 570.658 216.761, 574.744 217.854 C 577.100 218.484, 580.305 219, 581.865 219 C 583.426 219, 586.862 220.148, 589.502 221.552 C 594.627 224.277, 599.500 224.496, 599.500 222 C 599.500 221.062, 598.188 220.284, 596 219.923 L 592.500 219.347 596 218.923 C 600.134 218.423, 600.875 215.665, 597 215.200 C 595.625 215.036, 590.225 213.964, 585 212.820 C 568.865 209.285, 568.640 209.292, 562.306 213.497 C 528.537 235.919, 295.203 222.038, 294.981 197.595 C 294.940 193.036, 289.305 186.072, 285.116 185.403 C 281.493 184.823, 281.165 184.490, 280.425 180.640 C 279.987 178.363, 279.746 175.825, 279.889 175 C 280.031 174.175, 280.452 171.732, 280.824 169.570 C 281.385 166.307, 282 165.507, 284.450 164.853 C 288.285 163.830, 288.412 164.068, 286.349 168.395 C 284.336 172.615, 285.342 176.961, 289.671 182.750 C 294.079 188.644, 297.344 185.833, 298.364 175.264 C 298.695 171.835, 299.846 166.435, 300.922 163.264 C 303.934 154.387, 299.107 149.059, 294.115 155.750 L 292.063 158.500 292.032 154.750 L 292 151 297.066 151 C 299.852 151, 303.015 150.527, 304.096 149.949 C 307.367 148.198, 321.978 147.557, 322.111 149.158 C 322.172 149.896, 322.285 152.696, 322.361 155.380 C 322.532 161.394, 324.738 163.452, 327.923 160.570 C 330.521 158.219, 333 159.910, 333 164.034 C 333 167.610, 337.721 171.706, 342.779 172.518 C 344.826 172.846, 347.458 173.309, 348.629 173.546 C 351.534 174.135, 355.801 170.567, 356.186 167.228 C 356.487 164.612, 356.763 164.488, 362.876 164.199 L 369.252 163.898 377.104 171.540 C 381.423 175.742, 385.501 179, 386.167 178.778 C 390.312 177.396, 391.690 171.626, 391.009 158.500 C 390.952 157.400, 391.447 153.941, 392.109 150.812 C 393.159 145.848, 393.098 144.799, 391.633 142.562 C 389.279 138.969, 388.016 139.262, 378.325 145.644 C 370.032 151.105, 369.671 151.238, 367.128 149.759 C 365.683 148.919, 363.038 147.918, 361.250 147.536 C 359.463 147.154, 357.967 146.539, 357.926 146.171 C 357.048 138.249, 354.101 136, 344.599 136 C 337.035 136, 334 137.491, 334 141.206 C 334 146.205, 328.610 145.705, 326.438 140.506 C 324.049 134.788, 325.350 132, 330.408 132 C 335.206 132, 337.576 130.400, 335.854 128.324 C 334.988 127.281, 335.326 127, 337.445 127 C 339.654 127, 340.024 127.347, 339.518 128.944 C 338.316 132.730, 342.190 133.736, 362.500 134.909 C 406.654 137.459, 524.707 139.070, 545.789 137.410 C 555.268 136.663, 559.489 134.500, 557.095 131.615 C 554.658 128.678, 575.039 129.339, 581.637 132.411 C 586.874 134.850, 597.384 136.160, 599.750 134.669 C 600.437 134.236, 600.968 132.896, 600.930 131.691 C 600.878 130.068, 600.683 129.895, 600.180 131.022 C 599.615 132.285, 598.923 132.354, 596.101 131.423 C 592.585 130.264, 592.680 129.993, 597.500 127.442 C 598.600 126.859, 599.438 125.627, 599.363 124.702 C 599.288 123.778, 599.625 123.268, 600.113 123.570 C 600.601 123.871, 600.964 122.854, 600.921 121.309 C 600.878 119.764, 600.624 119.037, 600.356 119.694 C 600.089 120.350, 599.312 120.673, 598.630 120.412 C 597.948 120.150, 595.475 121.322, 593.136 123.016 C 590.503 124.924, 588.195 125.879, 587.078 125.525 C 584.422 124.682, 590.380 118.456, 595.558 116.663 C 600.686 114.888, 601.614 109.354, 596.727 109.691 C 595.202 109.797, 594.185 109.510, 594.466 109.055 C 595.389 107.562, 592.246 105.900, 589.705 106.538 C 588.315 106.887, 586.923 106.684, 586.548 106.078 C 585.474 104.341, 582.478 106.502, 579.175 111.397 C 577.014 114.598, 576.502 116.102, 577.301 116.901 C 580.959 120.559, 567.078 114.001, 562.498 109.906 C 561.397 108.922, 558.086 106.830, 555.142 105.256 C 549.007 101.978, 548.505 100.395, 553.711 100.739 C 557.698 101.002, 559.762 99.757, 561.079 96.291 C 561.662 94.758, 562.766 94, 564.416 94 C 565.772 94, 567.134 93.592, 567.442 93.094 C 567.750 92.595, 570.364 91.866, 573.251 91.473 C 576.138 91.080, 579.690 89.916, 581.145 88.886 C 582.600 87.856, 584.634 86.673, 585.664 86.257 C 586.695 85.840, 590.296 83.777, 593.668 81.671 C 599.452 78.057, 599.789 77.634, 599.649 74.171 C 599.472 69.813, 597.663 69.673, 591.946 73.575 C 589.992 74.909, 587.696 76, 586.845 76 C 585.994 76, 583.093 77.185, 580.399 78.634 C 577.121 80.397, 573.080 81.513, 568.187 82.008 C 560.598 82.775, 555.909 85.562, 554.444 90.176 C 554.047 91.428, 552.887 92, 550.747 92 C 548.890 92, 546.660 92.910, 545.234 94.250 C 540.611 98.593, 533.212 97.514, 522 90.861 C 516.775 87.761, 506.200 82.086, 498.500 78.251 C 489.166 73.601, 482.992 69.814, 479.976 66.888 C 475.156 62.212, 456.467 51.962, 449.295 50.062 C 446.983 49.449, 443.768 47.834, 442.151 46.474 C 440.534 45.113, 438.701 44, 438.077 44 C 436.445 44, 425.266 49.760, 424.504 50.994 C 423.596 52.463, 410.370 61.274, 405 63.986 C 402.525 65.237, 398.623 67.977, 396.329 70.077 C 390.077 75.801, 360.547 90, 354.896 90 C 353.452 90, 351.126 90.900, 349.727 92 C 348.329 93.100, 345.881 94, 344.288 94 C 342.306 94, 340.349 95.076, 338.085 97.412 C 334.218 101.402, 331.763 102.278, 329.365 100.525 C 327.757 99.349, 327.850 98.822, 330.728 92.881 C 337.753 78.378, 334.206 62.975, 324.407 65.434 C 322.314 65.959, 322 65.689, 322 63.363 C 322 61.462, 320.597 59.359, 317.147 56.094 C 314.478 53.567, 311.723 50.035, 311.024 48.244 C 309.048 43.183, 301.356 38.050, 295.914 38.161 C 293.486 38.211, 290.275 37.920, 288.777 37.514 C 286.631 36.933, 285.392 37.334, 282.929 39.406 C 280.016 41.857, 279.353 41.991, 273.152 41.383 C 269.493 41.024, 265.742 40.341, 264.816 39.865 C 260.857 37.832, 256.909 38.924, 251.679 43.500 C 247.885 46.818, 245.696 48, 243.344 48 C 239.050 48, 234 52.264, 234 55.889 C 234 60.971, 228.968 62.833, 225.523 59.026 C 224.540 57.940, 222.783 56.755, 221.618 56.393 C 220.453 56.031, 217.756 54.170, 215.625 52.257 C 212.329 49.299, 211.235 48.862, 208.308 49.337 C 206.415 49.645, 203.767 49.395, 202.424 48.784 C 200.652 47.976, 199.368 47.971, 197.741 48.764 C 191.654 51.731, 187.923 51.362, 184.722 47.478 C 181.916 44.074, 181.416 43.859, 177.602 44.416 C 174.458 44.875, 172.800 44.547, 170.500 43.014 C 168.850 41.913, 166.150 40.994, 164.500 40.971 C 162.850 40.948, 160.375 40.286, 159 39.500 C 154.953 37.186, 152.089 37.759, 146.851 41.930 C 140.792 46.754, 137.398 47.611, 132.481 45.557 C 127.788 43.596, 124.596 43.577, 123 45.500 C 121.269 47.585, 117.743 47.372, 114.727 45 C 111.336 42.333, 110.160 42.459, 104.699 46.076 C 100.083 49.133, 98 49.234, 98 46.401 C 98 43.321, 94.007 37.297, 88.534 32.121 L 82.861 26.755 75.929 27.438 C 69.001 28.121, 68.996 28.120, 67.932 25.311 C 66.688 22.029, 63.151 18, 61.513 18 C 60.887 18, 59.081 16.650, 57.500 15 C 53.989 11.335, 51.107 11.193, 47.971 14.531 C 45.881 16.756, 45.062 16.982, 41.200 16.403 C 38.466 15.993, 35.272 16.250, 32.745 17.084 L 28.683 18.425 21.092 10.279 C 14.074 2.750, 13.160 2.104, 9 1.737 C 6.525 1.519, 3.716 0.992, 2.758 0.566 C 1.631 0.066, 0.834 0.270, 0.499 1.146 M 16.015 15.750 C 16.042 17.037, 17.404 18.447, 20 19.875 C 22.367 21.177, 22.344 21.084, 19.563 18.125 C 16.484 14.850, 15.990 14.519, 16.015 15.750 M 49.139 23.033 L 46.778 25 51.234 25 C 56.821 25, 59 27.153, 59 32.674 C 59 37.631, 56 41.075, 53.495 38.996 C 51.243 37.127, 50.867 38.173, 52.848 40.799 C 54.608 43.132, 59.130 42.462, 66.346 38.800 C 69.032 37.437, 72.313 40.617, 71.512 43.807 C 71.182 45.124, 71.418 47.735, 72.036 49.610 L 73.161 53.018 75.715 51.009 C 78.960 48.457, 80.064 48.487, 83.615 51.223 C 85.500 52.676, 86.019 52.843, 85.112 51.705 C 83.437 49.603, 86.007 46, 89.181 46 C 91.718 46, 89.623 41.896, 84.643 37.110 C 80.952 33.562, 80.807 33.545, 71.888 35.584 C 68.800 36.289, 62.364 31.297, 61.397 27.447 C 61.016 25.926, 59.828 24.901, 57.975 24.495 C 56.415 24.152, 54.602 23.225, 53.947 22.436 C 52.423 20.600, 51.997 20.653, 49.139 23.033 M 33 24.500 L 30.500 25.929 33 26.083 C 36.061 26.271, 37.760 26.117, 41 25.357 C 43.346 24.807, 43.377 24.721, 41.500 23.956 C 38.502 22.734, 35.785 22.908, 33 24.500 M 283.337 48.092 L 280.175 51.287 276.067 49.643 C 273.808 48.740, 270.589 48, 268.914 48 C 267.239 48, 264.947 47.507, 263.821 46.904 C 261.798 45.822, 261.795 45.844, 263.555 48.824 C 265.225 51.651, 265.232 51.997, 263.668 54.384 C 260.710 58.899, 262.722 62.450, 266 58.500 C 267.658 56.502, 270.206 56.606, 273.115 58.790 C 274.427 59.774, 276.724 61.108, 278.219 61.754 C 279.715 62.401, 281.479 63.794, 282.140 64.852 C 283.319 66.740, 283.400 66.741, 286.701 64.887 C 291.051 62.444, 291.937 62.502, 295.995 65.496 L 299.379 67.993 301.504 65.996 C 302.673 64.898, 304.403 64, 305.350 64 C 306.296 64, 308.121 63.312, 309.405 62.470 L 311.740 60.940 308.370 57.570 C 306.346 55.546, 305 53.205, 305 51.707 C 305 48.841, 303.541 48.020, 296.500 46.919 C 293.750 46.489, 290.375 45.858, 289 45.517 C 287.046 45.032, 285.809 45.594, 283.337 48.092 M 151.198 49.625 C 148.049 52.105, 147.975 52.315, 149.603 54.113 C 151.215 55.895, 151.207 56.114, 149.468 58.035 C 148.455 59.155, 147.035 59.844, 146.313 59.567 C 143.965 58.666, 144.925 61.328, 148.148 64.652 C 151.183 67.784, 151.238 67.989, 149.668 70.384 L 148.041 72.868 151.560 72.297 C 154.232 71.863, 155.611 72.208, 157.289 73.730 C 160.941 77.042, 169.195 77.595, 165.907 74.307 C 165.117 73.517, 165.117 72.650, 165.907 71.173 C 167.595 68.019, 167.237 67.312, 164.180 67.760 C 161.291 68.184, 155 64.059, 155 61.740 C 155 58.725, 158.197 57.118, 163.049 57.692 C 167.251 58.190, 168.297 57.928, 170.921 55.720 L 173.947 53.174 170.066 51.151 C 167.931 50.039, 164.772 49.169, 163.046 49.218 C 161.320 49.267, 159.388 48.788, 158.754 48.154 C 156.966 46.366, 154.796 46.789, 151.198 49.625 M 431.500 50.656 C 428.750 52.065, 425.375 54.231, 424 55.469 C 420.540 58.584, 410.409 65.260, 405 67.989 C 402.525 69.238, 398.623 71.977, 396.329 74.077 C 390.077 79.801, 360.547 94, 354.896 94 C 353.452 94, 351.126 94.900, 349.727 96 C 348.329 97.100, 345.924 98, 344.384 98 C 342.554 98, 340.358 99.184, 338.042 101.420 C 336.094 103.301, 333.606 104.988, 332.514 105.170 C 331.422 105.351, 329.426 106.789, 328.078 108.365 C 325.419 111.475, 319.285 114.481, 313.307 115.602 L 309.533 116.310 313.517 117.789 C 316.655 118.955, 323.860 119.310, 347.500 119.464 C 364 119.572, 388.975 120.017, 403 120.452 C 420.158 120.986, 431.444 120.886, 437.500 120.147 C 450.691 118.538, 480.705 118.356, 494.509 119.802 C 506.945 121.104, 521.209 121.423, 550.717 121.055 C 560.186 120.938, 568.399 121.128, 568.967 121.480 C 569.535 121.831, 570 121.874, 570 121.576 C 570 121.278, 567.862 119.876, 565.250 118.460 C 562.638 117.045, 558.250 114.566, 555.500 112.953 C 552.750 111.339, 548.312 108.856, 545.637 107.435 C 542.962 106.014, 540.562 104.039, 540.302 103.046 C 539.969 101.774, 538.583 101.100, 535.604 100.765 C 532.906 100.460, 527.968 98.289, 521.939 94.756 C 516.748 91.714, 505.975 85.996, 498 82.049 C 490.025 78.103, 482.492 73.929, 481.260 72.773 C 479.162 70.804, 478.905 70.776, 477.182 72.336 C 476.170 73.251, 474.731 74, 473.984 74 C 473.155 74, 473.673 75.093, 475.312 76.804 L 477.999 79.609 474.592 82.911 C 471.331 86.072, 470.957 86.182, 465.842 85.495 C 457.228 84.336, 456.381 82.914, 461.104 77.535 C 464.544 73.616, 464.174 72.932, 460.273 76 C 457.113 78.486, 455.484 78.524, 453.807 76.153 C 452.398 74.160, 438.817 71.556, 434.687 72.486 C 433.179 72.825, 431.289 71.934, 428.598 69.612 L 424.696 66.245 427.432 64.452 C 431.839 61.565, 456.344 59.424, 463.500 61.301 C 468.449 62.599, 456.158 56.251, 450.238 54.451 C 447.344 53.571, 443.680 51.760, 442.094 50.426 C 438.541 47.436, 437.749 47.453, 431.500 50.656 M 255.532 50.965 C 254.277 52.352, 253.946 53.749, 254.408 55.715 C 255.572 60.667, 255.525 61.207, 253.836 62.302 C 252.583 63.115, 251.154 62.922, 248.055 61.525 L 243.938 59.668 240.469 63.030 C 238.561 64.879, 237 67.120, 237 68.009 C 237 68.898, 235.692 70.879, 234.094 72.410 C 232.493 73.944, 230.707 77.106, 230.115 79.457 C 228.691 85.112, 226.953 86.450, 222.242 85.520 C 220.184 85.114, 216.326 84.855, 213.669 84.946 C 208.321 85.128, 206.020 83.839, 205.961 80.628 C 205.938 79.342, 204.652 77.705, 202.711 76.491 C 200.945 75.386, 199.056 73.473, 198.513 72.241 C 197.160 69.170, 192.411 69.248, 189.055 72.397 C 185.286 75.933, 178.959 76.717, 176.462 73.958 C 174.529 71.823, 174.532 71.797, 176.869 69.905 C 178.163 68.857, 180.511 68, 182.088 68 C 186.108 68, 189.425 63.253, 186.566 61.590 C 185.535 60.990, 183.284 59.302, 181.564 57.838 C 178.122 54.909, 177.195 55.087, 171.545 59.768 C 169.070 61.818, 167.813 62.140, 163.795 61.754 C 161.158 61.501, 159 61.669, 159 62.128 C 159 63.235, 163.624 64.358, 165.391 63.680 C 168.068 62.653, 171.496 67.615, 170.151 70.568 C 169.119 72.834, 169.254 73.388, 171.236 75.014 C 173.376 76.769, 173.406 76.967, 171.787 78.613 C 169.224 81.219, 159.463 80.783, 156.422 77.927 C 154.539 76.158, 153.456 75.916, 150.015 76.497 C 143.485 77.601, 140.886 74.776, 144.729 70.752 C 147.431 67.924, 147.451 67.816, 145.557 66.424 C 143.814 65.144, 143.341 65.257, 140.980 67.519 C 138.431 69.961, 138.294 69.982, 136.674 68.192 C 133.799 65.015, 135.210 61, 139.200 61 C 141.278 61, 141.650 58.187, 139.672 57.428 C 138.942 57.148, 137.074 57.401, 135.522 57.992 C 133.119 58.905, 132.354 58.741, 130.386 56.893 C 128.221 54.859, 127.929 54.823, 125.787 56.327 C 120.805 59.823, 120.406 60.474, 120.461 65 C 120.530 70.666, 121.165 71.621, 125.388 72.413 C 130.192 73.314, 131.388 75.152, 130.655 80.503 C 129.652 87.821, 130.972 89.870, 136.304 89.269 C 140.639 88.781, 140.819 88.876, 143.840 93.268 C 145.654 95.904, 147.324 99.989, 147.873 103.133 C 148.594 107.265, 154.018 122.320, 155.718 124.911 C 155.866 125.136, 156.778 124.642, 157.744 123.813 C 161.021 120.998, 161.827 120.983, 165.032 123.680 L 168.232 126.373 172.366 124.184 C 174.640 122.980, 177.247 121.996, 178.161 121.997 C 179.700 122, 184.362 126.624, 185.154 128.933 C 185.865 131.002, 207.591 131.493, 210.701 129.510 C 217.512 125.167, 223 120.460, 223 118.962 C 223 116.663, 230.370 111.019, 235.866 109.110 C 242.658 106.750, 279.740 107.632, 281.351 110.191 C 282.661 112.272, 279.730 116, 276.786 116 C 275.739 116, 275.160 116.450, 275.500 117 C 276.516 118.644, 279.567 118.136, 281.500 116 C 282.887 114.468, 284.580 114, 288.738 114 C 292.438 114, 296.552 113.045, 301.659 111 C 305.780 109.350, 310.264 108, 311.625 108 C 315.949 108, 320.190 105.224, 319.068 103.127 C 317.840 100.832, 318.622 97.779, 322.047 91.500 C 323.547 88.750, 325.013 84.544, 325.305 82.153 L 325.836 77.806 323.603 79.903 C 320.643 82.684, 318.406 82.549, 316.387 79.468 C 314.826 77.086, 314.619 77.035, 312.890 78.600 C 311.175 80.152, 310.878 80.150, 308.472 78.574 C 303.134 75.076, 304.030 68.216, 309.640 69.625 C 311.687 70.138, 312 69.856, 312 67.493 C 312 64.829, 311.947 64.805, 309.535 66.385 C 308.180 67.273, 306.521 68, 305.850 68 C 305.178 68, 303.598 68.969, 302.338 70.152 L 300.047 72.305 296.220 69.652 C 294.115 68.194, 291.868 67, 291.227 67 C 289.830 67, 283.139 70.637, 280.921 72.601 C 278.783 74.495, 270.598 74.426, 269 72.500 C 267.191 70.320, 269.175 68.387, 274.019 67.613 C 277.524 67.052, 279.793 65, 276.908 65 C 276.307 65, 274.671 64.100, 273.273 63 C 270.225 60.603, 267.704 60.447, 265.960 62.548 C 262.205 67.072, 256.242 60.246, 259.351 54.983 C 262.370 49.873, 259.373 46.720, 255.532 50.965 M 105.095 54.573 C 102.019 57.162, 99.327 57.217, 96.250 54.755 C 95.543 54.189, 95 54.156, 95 54.678 C 95 56.560, 97.499 58, 100.766 58 C 102.617 58, 105.056 58.495, 106.186 59.100 C 107.689 59.904, 108.057 59.901, 107.555 59.089 C 107.177 58.478, 108.213 56.633, 109.857 54.989 C 112.811 52.036, 112.818 52, 110.500 52 C 109.209 52, 106.777 53.158, 105.095 54.573 M 198 57 C 197.175 57.533, 194.743 57.976, 192.595 57.985 C 188.751 58, 188.718 58.031, 190.504 60.004 C 191.927 61.577, 192.097 62.491, 191.293 64.254 C 190.301 66.429, 190.429 66.496, 195.344 66.371 C 200.005 66.252, 200.495 66.007, 201.340 63.371 C 201.847 61.792, 202.897 59.768, 203.674 58.874 C 205.829 56.392, 201.270 54.886, 198 57 M 111.543 57.931 C 111.226 58.443, 111.425 59.144, 111.984 59.490 C 113.177 60.227, 115 59.291, 115 57.941 C 115 56.724, 112.293 56.716, 111.543 57.931 M 205.098 64.149 C 203.507 68.712, 203.701 69.290, 206.634 68.730 C 208.211 68.428, 210.530 68.970, 212.408 70.078 C 214.261 71.171, 216.461 71.692, 217.774 71.349 C 220.756 70.569, 220.611 69, 217.557 69 C 214.930 69, 212 65.719, 212 62.777 C 212 59.354, 206.380 60.471, 205.098 64.149 M 216 63.618 C 216 64.465, 217.084 65, 218.800 65 C 221.905 65, 223.996 66.586, 224.008 68.950 C 224.021 71.631, 229.018 73.294, 231.181 71.336 C 233.657 69.096, 233.480 67.673, 230.898 69.054 C 229.121 70.005, 228.351 69.752, 225.912 67.415 C 222.302 63.957, 216 61.542, 216 63.618 M 115.035 64.542 C 116.037 65.749, 116.052 66.348, 115.105 67.292 C 113.910 68.486, 112.269 68.741, 102.500 69.253 C 99.750 69.397, 96.387 70.299, 95.027 71.257 C 93.668 72.216, 91.980 73, 91.277 73 C 89.767 73, 89.560 75.610, 91 76.500 C 92.572 77.472, 92.186 84.601, 90.484 86.013 C 88.604 87.573, 92.545 90, 96.959 90 C 100.588 90, 103.817 93.480, 102.351 95.809 C 100.816 98.246, 98.242 98.446, 94.479 96.419 C 91.356 94.737, 91.054 94.735, 88.550 96.375 C 86.036 98.022, 85.942 98.395, 86.535 104.302 C 86.877 107.711, 87.332 111.062, 87.546 111.748 C 88.258 114.029, 83.106 116.259, 75.938 116.772 C 72.089 117.048, 69.180 117.513, 69.473 117.807 C 69.767 118.100, 69.320 119.389, 68.480 120.670 C 67.437 122.262, 67.327 123, 68.133 123 C 68.781 123, 70.786 124.125, 72.589 125.500 C 74.392 126.875, 76.493 128, 77.259 128 C 78.025 128, 79.708 129.125, 81 130.500 C 85.008 134.766, 85.950 133.834, 85.648 125.899 C 85.347 117.969, 87.286 115.248, 92.524 116.249 C 94.546 116.636, 95.658 115.957, 98.143 112.820 C 101.097 109.089, 101.328 108.987, 103.120 110.609 C 104.154 111.545, 105 113.062, 105 113.981 C 105 115.685, 108.933 120, 110.486 120 C 110.957 120, 112.210 119.215, 113.270 118.255 C 115.121 116.581, 115.298 116.631, 117.684 119.505 C 122.001 124.706, 123.992 128.412, 123.996 131.250 C 124.001 134.779, 126.504 134.900, 129.179 131.500 C 131.755 128.224, 133.997 128.343, 137.441 131.939 C 139.475 134.062, 140.123 135.576, 139.775 137.395 C 139.374 139.492, 139.570 139.765, 140.947 139.029 C 141.890 138.524, 145.541 138.509, 149.452 138.994 C 155.812 139.783, 156.436 139.688, 158.120 137.672 C 159.117 136.477, 159.933 135.275, 159.933 135 C 159.933 134.107, 156.452 130.528, 154.518 129.433 C 153.481 128.846, 152.135 126.887, 151.526 125.078 C 150.538 122.143, 150.274 121.964, 149.071 123.414 C 146.198 126.876, 139.174 124.028, 135.887 118.067 C 134.805 116.105, 132.838 113.008, 131.516 111.185 C 130.194 109.362, 129.315 107.337, 129.562 106.685 C 129.809 106.033, 128.321 104.600, 126.256 103.500 C 124.190 102.400, 122.056 100.487, 121.513 99.250 C 120.337 96.571, 119.706 96.491, 116.465 98.615 C 113.061 100.845, 109 98.376, 109 94.076 C 109 91.869, 108.216 90.735, 105.637 89.213 C 100.344 86.091, 100.193 77, 105.434 77 C 106.927 77, 112 82.513, 112 84.136 C 112 84.676, 112.418 84.860, 112.929 84.544 C 113.881 83.955, 122.304 85.650, 125.006 86.974 C 126.255 87.586, 126.510 86.759, 126.506 82.106 C 126.501 77.083, 126.270 76.467, 124.286 76.185 C 119.850 75.554, 115.812 70.519, 116.557 66.548 C 117.111 63.592, 116.933 63, 115.489 63 C 114.040 63, 113.965 63.253, 115.035 64.542 M 445.586 64.750 C 445.175 65.162, 441.940 65.725, 438.399 66 C 434.820 66.278, 432.079 66.944, 432.229 67.500 C 432.378 68.050, 433.400 68.419, 434.500 68.321 C 439.863 67.841, 453.576 70.322, 455.105 72.050 C 456.589 73.727, 456.831 73.740, 458.342 72.229 C 459.404 71.167, 462.247 70.452, 466.475 70.182 C 470.050 69.955, 472.738 69.384, 472.447 68.915 C 470.633 65.979, 447.877 62.451, 445.586 64.750 M 205.398 74.474 C 207.104 75.615, 208.949 77.561, 209.497 78.798 C 210.309 80.630, 211.237 81.022, 214.497 80.911 C 216.699 80.836, 220.188 81.109, 222.250 81.518 C 225.643 82.191, 226 82.059, 226 80.131 C 226 78.959, 225.380 78, 224.622 78 C 223.865 78, 222.655 77.289, 221.933 76.420 C 221.114 75.432, 219.668 75.022, 218.079 75.325 C 216.680 75.593, 214.178 75.095, 212.518 74.220 C 210.858 73.344, 207.879 72.577, 205.898 72.513 L 202.296 72.399 205.398 74.474 M 319.583 75.645 C 318.758 77.794, 318.829 78, 320.393 78 C 322.292 78, 323.202 75.292, 321.520 74.646 C 320.775 74.360, 319.903 74.810, 319.583 75.645 M 463.800 78.741 C 462.341 80.499, 463.112 81.071, 467.788 81.698 C 472.133 82.281, 473.958 80.860, 471.959 78.450 C 470.513 76.709, 465.333 76.894, 463.800 78.741 M 105.015 82.250 C 105.038 84.085, 106.787 86.546, 107.537 85.796 C 108.411 84.922, 107.099 81, 105.933 81 C 105.420 81, 105.007 81.563, 105.015 82.250 M 112.773 88.560 C 112.179 89.155, 112.813 94.927, 113.574 95.847 C 113.732 96.039, 115.253 95.373, 116.955 94.368 C 120.532 92.255, 122.704 93.065, 124.776 97.283 C 126.698 101.197, 129.739 101.716, 132.802 98.652 C 135.222 96.232, 135.244 96.124, 133.194 96.659 C 131.604 97.075, 130.100 96.300, 127.550 93.750 C 125.602 91.802, 122.629 90.011, 120.787 89.676 C 118.979 89.347, 116.589 88.809, 115.475 88.481 C 114.361 88.153, 113.145 88.188, 112.773 88.560 M 57 91.962 C 49.671 92.519, 38 96.435, 38 98.338 C 38 98.505, 40.362 98.305, 43.250 97.894 C 55.485 96.151, 64.680 96.778, 66.821 99.500 C 68.180 101.228, 69.767 102, 71.960 102 C 78.942 102, 82.590 106.638, 78.836 110.743 L 76.500 113.296 79 112.662 C 80.375 112.313, 81.900 112.021, 82.388 112.014 C 82.885 112.006, 82.981 108.745, 82.605 104.598 C 81.938 97.234, 81.950 97.184, 84.937 94.848 L 87.939 92.500 80.220 92.500 C 73.732 92.500, 72.236 92.818, 70.845 94.491 C 69.226 96.441, 69.147 96.443, 67.119 94.608 C 65.979 93.576, 65.288 92.343, 65.583 91.866 C 65.877 91.390, 65.979 91.071, 65.809 91.158 C 65.639 91.246, 61.675 91.607, 57 91.962 M 571.129 94.363 C 569.908 95.663, 568.983 97.125, 569.073 97.613 C 569.466 99.739, 568.868 100.801, 567.005 101.288 C 564.143 102.037, 563.452 104.737, 565.534 107.037 C 567.819 109.562, 568.582 109.509, 571.467 106.624 C 572.774 105.317, 575.228 103.262, 576.921 102.056 C 580.695 99.369, 580.837 96.804, 577.365 94.073 C 574.062 91.474, 573.832 91.485, 571.129 94.363 M 137.853 98.177 L 135.207 100.236 138.353 104.516 C 142.656 110.369, 145.015 111.010, 144.313 106.135 C 142.847 95.955, 142.020 94.936, 137.853 98.177 M 573.271 97.948 C 573.357 99.090, 573.894 99.869, 574.464 99.679 C 575.885 99.205, 575.773 96.758, 574.307 96.269 C 573.611 96.037, 573.180 96.736, 573.271 97.948 M 16 101.486 C 16 105.861, 22.339 130, 23.487 130 C 26.153 130, 27.021 127.653, 25.132 125.557 C 22.829 123.003, 20.981 118.027, 19.910 111.500 C 18.422 102.430, 17.783 100, 16.887 100 C 16.399 100, 16 100.669, 16 101.486 M 42.863 101.917 C 40.313 102.274, 37.613 103.033, 36.863 103.603 C 34.635 105.298, 27.291 107.309, 25.268 106.780 C 23.693 106.368, 23.456 106.748, 23.806 109.129 C 24.215 111.920, 24.262 111.939, 26.461 110.209 C 28.460 108.637, 30.025 108.534, 41.100 109.248 C 59.908 110.461, 76.500 109.876, 76.500 108 C 76.500 106.919, 75.168 106.415, 71.737 106.195 C 67.981 105.954, 66.635 105.373, 65.372 103.445 C 63.663 100.837, 54.841 100.238, 42.863 101.917 M 133.690 106.366 C 133.401 107.118, 134.031 109.030, 135.088 110.616 C 136.145 112.202, 137.953 114.963, 139.104 116.750 C 140.255 118.537, 141.791 120, 142.517 120 C 143.243 120, 144.571 120.282, 145.469 120.626 C 146.831 121.149, 146.987 120.776, 146.413 118.376 C 145.506 114.589, 144.170 113, 141.890 113 C 140.802 113, 138.974 111.334, 137.500 109 C 134.705 104.573, 134.447 104.394, 133.690 106.366 M 583.591 111.173 C 582.741 112.386, 582.222 113.555, 582.437 113.771 C 583.061 114.395, 587 112.023, 587 111.024 C 587 109.014, 585.044 109.099, 583.591 111.173 M 236.293 112.648 C 232.315 114.057, 225.545 120.298, 226.198 121.955 C 226.827 123.551, 236.185 131, 237.561 131 C 238.531 131, 239 129.892, 239 127.604 C 239 124.169, 241.965 120.690, 248.594 116.347 C 250.938 114.810, 251.238 114.810, 252.765 116.336 C 254.292 117.863, 254.171 118.229, 251.079 121.419 C 248.402 124.180, 247.876 125.371, 248.404 127.474 C 248.925 129.547, 248.443 130.711, 246.092 133.062 L 243.122 136.031 245.607 138.516 C 248.601 141.510, 248.542 141.505, 251.749 138.982 C 253.160 137.873, 255.068 137.204, 255.989 137.497 C 256.942 137.799, 258.450 137.160, 259.487 136.014 C 260.490 134.906, 261.887 134, 262.593 134 C 266.025 134, 263.421 130.163, 259.570 129.547 C 252.331 128.390, 249.998 124.229, 254.314 120.174 C 258.898 115.868, 266.876 118.345, 268.245 124.500 C 268.658 126.352, 268.748 126.368, 269.467 124.713 C 269.982 123.526, 269.625 122.243, 268.405 120.895 C 266.601 118.902, 266.642 118.799, 270.533 115.469 L 274.500 112.075 258.832 112.038 C 250.214 112.017, 242.564 111.811, 241.832 111.579 C 241.099 111.348, 238.607 111.829, 236.293 112.648 M 99.036 117.456 C 98.372 118.257, 98.130 119.402, 98.500 120 C 98.870 120.598, 98.628 121.743, 97.964 122.544 C 97.209 123.453, 97.148 124, 97.801 124 C 99.836 124, 105 129.207, 105 131.260 C 105 132.405, 104.255 134.165, 103.345 135.171 C 102.026 136.629, 101.975 137.007, 103.095 137.036 C 103.868 137.056, 108.893 137.203, 114.262 137.363 L 124.023 137.654 122.012 135.513 C 120.905 134.335, 119.998 132.275, 119.996 130.936 C 119.989 126.228, 115.155 120.323, 113.500 123 C 112.228 125.058, 108.875 123.875, 105 120 C 100.434 115.434, 100.641 115.522, 99.036 117.456 M 44.305 118.647 C 43.957 119.554, 44.271 121.691, 45.003 123.397 C 45.734 125.104, 46.596 130.100, 46.917 134.500 L 47.500 142.500 65.500 143.059 C 86.400 143.708, 88.020 143.471, 84.988 140.218 C 83.852 138.998, 82.320 138, 81.583 138 C 80.847 138, 79.685 137.325, 79 136.500 C 78.315 135.675, 76.994 135, 76.065 135 C 75.135 135, 73.081 133.650, 71.500 132 C 69.919 130.350, 67.923 128.974, 67.063 128.943 C 63.171 128.800, 55.568 123.477, 54.641 120.245 C 53.774 117.220, 53.414 117, 49.324 117 C 46.173 117, 44.759 117.464, 44.305 118.647 M 31.006 118.750 C 31.010 119.162, 32.360 120.267, 34.006 121.203 C 36.981 122.896, 37 122.891, 37 120.453 C 37 118.394, 36.518 118, 34 118 C 32.350 118, 31.003 118.338, 31.006 118.750 M 303 118.930 C 302.175 119.407, 298.350 120.566, 294.500 121.504 C 290.650 122.442, 286.375 123.950, 285 124.855 C 283.625 125.760, 280.475 127.175, 278 128 C 275.358 128.881, 273.500 130.114, 273.500 130.986 C 273.500 133.558, 276.970 133.308, 279.115 130.581 C 281.662 127.343, 283.322 127.323, 285.821 130.500 C 287.849 133.078, 290.415 133.755, 291.500 132 C 291.840 131.450, 295.320 131, 299.233 131 L 306.349 131 304.174 128.686 C 301.607 125.953, 301.413 123.284, 303.557 120.223 C 305.268 117.780, 305.211 117.649, 303 118.930 M 89.733 124.250 C 90.430 129.717, 90.750 129.983, 93.010 126.987 C 94.851 124.546, 94.847 124.466, 92.767 122.252 C 89.738 119.027, 89.118 119.435, 89.733 124.250 M 579.250 121.706 C 578.013 121.944, 577 122.510, 577 122.963 C 577 123.978, 580.090 125.244, 580.810 124.524 C 581.098 124.236, 580.978 124, 580.544 124 C 580.110 124, 580.315 123.325, 581 122.500 C 581.685 121.675, 582.077 121.061, 581.872 121.136 C 581.668 121.211, 580.487 121.467, 579.250 121.706 M 256 123.383 C 256 124.144, 257.012 125.038, 258.250 125.370 C 262.370 126.474, 264 126.086, 264 124 C 264 122.333, 263.333 122, 260 122 C 257.261 122, 256 122.436, 256 123.383 M 243.667 123.667 C 243.300 124.033, 243 125.908, 243 127.833 C 243 129.758, 243.332 131.002, 243.737 130.596 C 244.284 130.049, 244.915 123.001, 244.417 123 C 244.371 123, 244.033 123.300, 243.667 123.667 M 458.286 127.606 C 456.288 129.766, 455.250 130, 447.658 130 C 440.015 130, 435.676 128.658, 437.481 126.852 C 437.736 126.597, 434.845 126.414, 431.056 126.444 C 427.268 126.475, 424.356 126.688, 424.586 126.919 C 425.286 127.620, 421.781 131, 420.353 131 C 419.618 131, 418.455 130.100, 417.768 129 C 415.920 126.042, 403.614 126.075, 400.450 129.047 C 398.339 131.031, 397.726 131.063, 380.386 130.119 C 370.549 129.584, 360.700 129.511, 358.500 129.958 C 353.590 130.955, 350.106 130.755, 401 132.390 C 424.375 133.141, 462.850 133.753, 486.500 133.750 C 517.333 133.746, 525.114 133.545, 514 133.037 C 505.475 132.648, 494.777 131.726, 490.227 130.988 C 483.883 129.960, 481.679 129.921, 480.777 130.823 C 478.794 132.806, 475.509 132.141, 472.673 129.181 C 471.187 127.630, 470.278 126.055, 470.653 125.681 C 471.027 125.306, 468.896 125.048, 465.917 125.106 C 461.567 125.190, 460.064 125.683, 458.286 127.606 M 38.707 127.627 C 38.362 127.972, 38.737 129.524, 39.540 131.077 C 40.343 132.630, 41 134.673, 41 135.617 C 41 136.561, 41.226 137.107, 41.503 136.830 C 42.228 136.106, 40.864 127, 40.031 127 C 39.647 127, 39.051 127.282, 38.707 127.627 M 97.345 129.829 C 99.559 132.275, 99.455 132.915, 96.313 136.195 C 93.695 138.928, 93.682 139, 95.813 139 C 97.016 139, 98 138.380, 98 137.622 C 98 136.865, 98.675 135.685, 99.500 135 C 101.473 133.362, 101.422 129.376, 99.418 128.607 C 96.509 127.491, 95.674 127.983, 97.345 129.829 M 170.635 129.185 C 169.246 129.961, 169.133 130.456, 170.083 131.599 C 171.519 133.330, 168.753 137, 166.012 137 C 165.089 137, 164.333 137.675, 164.333 138.500 C 164.333 139.745, 166.259 140, 175.667 140 C 183.060 140, 187 139.627, 187 138.928 C 187 138.339, 185.988 137.973, 184.750 138.115 C 180.759 138.573, 177.899 136.910, 175.109 132.511 C 172.865 128.972, 172.070 128.381, 170.635 129.185 M 226.531 128.824 C 227.278 130.281, 223.394 135, 221.448 135 C 220.786 135, 219.703 134.347, 219.040 133.548 C 218.013 132.311, 216.993 132.672, 212.115 136.001 C 206.154 140.071, 202.039 143.960, 203.595 144.055 C 208.486 144.351, 242.292 144.042, 242.636 143.697 C 243.316 143.017, 237.509 137.478, 233.556 135.034 C 231.648 133.855, 229.134 131.678, 227.969 130.195 C 226.805 128.713, 226.157 128.096, 226.531 128.824 M 24.592 133.557 C 23.554 134.315, 22.387 134.739, 21.997 134.498 C 21.608 134.257, 21.503 135.179, 21.764 136.545 C 22.358 139.653, 23.672 140.517, 25.500 139 C 26.277 138.355, 27.301 138.068, 27.775 138.361 C 28.250 138.654, 28.443 137.563, 28.204 135.935 C 27.664 132.254, 26.984 131.807, 24.592 133.557 M 281.078 133.406 C 279.668 135.105, 280.418 137, 282.500 137 C 284.665 137, 285.384 134.956, 283.782 133.354 C 282.510 132.082, 282.172 132.088, 281.078 133.406 M 130.032 135.466 L 127.651 138 131.895 138 C 135.719 138, 136.107 137.778, 135.820 135.760 C 135.370 132.612, 132.834 132.483, 130.032 135.466 M 308.669 137.158 C 307.967 139.842, 309.503 141.122, 312.991 140.759 C 315.929 140.454, 316.894 137.487, 314.298 136.743 C 313.309 136.459, 311.772 135.925, 310.881 135.557 C 309.733 135.082, 309.090 135.547, 308.669 137.158 M 190.693 137.933 C 191.175 139.777, 198.356 141.977, 199.654 140.679 C 200.382 139.952, 196.031 137.361, 192.845 136.624 C 190.581 136.100, 190.264 136.293, 190.693 137.933 M 267.729 138.073 C 268.006 139.133, 269.081 140, 270.117 140 C 272.736 140, 272.470 138.535, 269.613 137.233 C 267.499 136.270, 267.283 136.366, 267.729 138.073 M 300.206 138.252 C 298.828 139.912, 303.849 145.653, 306.271 145.186 C 308.539 144.750, 308.454 143.721, 305.965 141.468 C 304.845 140.455, 304.156 139.035, 304.433 138.313 C 305.085 136.616, 301.605 136.565, 300.206 138.252 M 318.876 140.618 C 317.278 143.948, 317.288 144, 319.538 144 C 323.509 144, 326.917 149.177, 326.263 154.219 C 325.710 158.481, 325.716 158.492, 327.771 156.670 C 331.201 153.628, 337 158.324, 337 164.145 C 337 167.140, 340.037 168.611, 347.417 169.192 C 350.986 169.473, 351.403 169.246, 352.109 166.643 C 353.560 161.296, 355.652 160, 362.833 160 L 369.356 160 377.145 167.580 C 385.012 175.235, 387 175.989, 387 171.319 C 387 169.240, 386.736 168.974, 385.606 169.912 C 383.392 171.750, 370.106 158.782, 371.940 156.572 C 373.738 154.406, 375.609 154.604, 377.392 157.150 C 378.220 158.332, 380.589 160.248, 382.656 161.407 C 384.797 162.608, 386.712 164.587, 387.107 166.008 L 387.801 168.500 387.900 165.815 C 387.955 164.338, 387.550 161.946, 387 160.500 C 386.366 158.832, 386.345 157.224, 386.942 156.107 C 388.567 153.072, 389.417 144, 388.076 144 C 387.427 144, 383.137 146.475, 378.543 149.500 C 369.755 155.288, 367.971 155.875, 366.087 153.605 C 365.450 152.837, 363.402 151.923, 361.536 151.573 C 357.153 150.750, 354.182 148.202, 353.601 144.766 C 352.853 140.346, 352.225 140, 344.941 140 C 339.287 140, 338 140.292, 338 141.577 C 338 143.857, 332.515 149, 330.083 149 C 327.969 149, 322 141.917, 322 139.409 C 322 136.748, 320.445 137.350, 318.876 140.618 M 260.495 140.399 C 259.392 141.603, 258.635 143.344, 258.813 144.270 C 259.083 145.671, 259.504 145.526, 261.334 143.398 L 263.531 140.844 266.275 143.002 C 267.784 144.189, 269.577 144.935, 270.260 144.659 C 271.024 144.350, 270.863 144.128, 269.839 144.079 C 268.925 144.036, 267.042 142.650, 265.653 141 C 262.738 137.536, 263.082 137.576, 260.495 140.399 M 397.073 140.635 C 394.750 143.587, 394.057 155.657, 396.093 157.693 C 396.835 158.435, 396.868 159.381, 396.196 160.643 C 393.817 165.107, 393.693 175.340, 395.983 178.251 C 398.966 182.044, 399.256 181.950, 410.478 173.541 C 419.742 166.600, 420.556 166.193, 422.200 167.681 C 423.172 168.561, 427.012 169.780, 430.734 170.390 C 436.834 171.391, 437.533 171.746, 437.838 174 C 438.689 180.304, 440.754 181, 458.602 181 L 474.855 181 476.927 178.365 C 478.067 176.916, 479 174.748, 479 173.547 C 479 171.560, 479.779 171.260, 487.694 170.201 C 497.332 168.911, 498.059 169.152, 508.735 177.160 C 512.763 180.181, 513.063 180.253, 514.859 178.627 C 517.390 176.337, 518.326 169.173, 516.467 166.320 C 515.235 164.431, 515.242 163.764, 516.517 161.320 C 519.527 155.550, 517.707 142, 513.922 142 C 513.392 142, 510.380 144.521, 507.229 147.602 C 499.742 154.922, 497.450 156.419, 495.258 155.416 C 494.291 154.973, 490.575 154.136, 487 153.556 L 480.500 152.500 480.195 147.737 C 479.745 140.723, 478.574 140.264, 458.983 139.434 C 440.307 138.642, 440.426 138.602, 438.456 146.379 L 437.412 150.500 431.291 150.796 C 427.464 150.980, 424.717 151.636, 423.962 152.546 C 421.881 155.053, 420.157 154.222, 410.378 146 C 399.624 136.957, 399.883 137.062, 397.073 140.635 M 290.559 141.532 C 289.491 142.339, 287.798 143, 286.795 143 C 285.793 143, 284.191 143.417, 283.236 143.927 C 282.281 144.437, 280.600 145.181, 279.500 145.582 C 275.906 146.890, 280.674 147.338, 285.370 146.134 C 287.641 145.551, 291.442 144.788, 293.815 144.438 C 297.981 143.824, 298.071 143.736, 296.410 141.901 C 294.365 139.641, 293.160 139.565, 290.559 141.532 M 522.071 142.414 C 519.574 145.424, 519.470 157.807, 521.920 160.415 L 524.136 162.773 521.568 165.341 C 516.634 170.275, 518.931 183.498, 524.361 181.415 C 527.338 180.273, 538 167.035, 538 164.481 C 538 161.427, 531.599 147.865, 528.316 143.963 C 525.567 140.697, 523.850 140.271, 522.071 142.414 M 399.639 142.694 C 398.551 143.782, 398.936 156.536, 400.093 157.693 C 400.869 158.469, 400.878 159.359, 400.125 160.767 C 398.709 163.413, 398.213 176.187, 399.508 176.647 C 400.063 176.844, 405.002 173.644, 410.485 169.536 C 419.592 162.712, 420.631 162.184, 422.512 163.416 C 424.469 164.698, 424.551 164.596, 424.174 161.369 C 423.952 159.461, 424.367 157.211, 425.122 156.236 C 426.380 154.611, 426.334 154.612, 424.404 156.250 C 421.286 158.897, 420.523 158.576, 411.170 150.683 C 401.300 142.353, 400.521 141.813, 399.639 142.694 M 249.357 144.387 C 248.178 145.042, 246.603 146.075, 245.857 146.681 C 245.110 147.288, 243.600 148.006, 242.500 148.276 C 240.515 148.764, 240.515 148.769, 242.518 148.884 C 244.332 148.988, 252 144.605, 252 143.464 C 252 142.908, 252.048 142.891, 249.357 144.387 M 442.379 147.032 C 441.585 151.997, 438.125 155, 433.198 155 C 431.256 155, 429.938 155.271, 430.269 155.603 C 430.601 155.934, 430.448 157.322, 429.929 158.687 C 428.728 161.845, 431.508 167, 434.411 167 C 437.177 167, 442 171.901, 442 174.712 L 442 177.050 458.250 176.775 L 474.500 176.500 474.805 173.873 C 475.324 169.391, 478.682 167.402, 487.826 166.159 C 497.265 164.876, 497.753 165.024, 506.997 171.969 L 512.494 176.099 513.263 172.398 C 513.816 169.736, 513.612 168.058, 512.539 166.419 C 511.222 164.409, 511.220 163.807, 512.517 161.320 C 513.355 159.713, 513.990 155.787, 513.994 152.195 L 514 145.890 505.994 152.945 C 498.549 159.505, 494.922 161.300, 493.561 159.098 C 493.254 158.603, 490.230 157.875, 486.839 157.481 C 479.091 156.582, 476 153.935, 476 148.198 L 476 144.306 464.750 143.657 C 458.563 143.301, 451.143 143.007, 448.262 143.005 L 443.024 143 442.379 147.032 M 524.644 147.199 C 523.250 152.401, 523.969 157.174, 526.619 160.324 L 529.239 163.437 526.119 166.041 C 522.723 168.877, 521.112 179.207, 524.364 177.300 C 527.333 175.558, 534 166.744, 534 164.560 C 534 162.232, 530.111 152.927, 526.952 147.699 L 525.260 144.898 524.644 147.199 M 82.856 147.640 C 81.953 147.896, 81.002 149.207, 80.745 150.553 C 80.282 152.976, 80.351 153, 87.916 153 C 93.322 153, 96.227 153.471, 97.856 154.611 C 100.091 156.177, 100.119 156.163, 98.837 154.111 C 97.776 152.412, 97.763 151.610, 98.768 150 C 99.838 148.286, 99.765 147.994, 98.258 147.962 C 97.291 147.940, 93.800 147.755, 90.500 147.549 C 87.200 147.343, 83.760 147.384, 82.856 147.640 M 48.328 149.500 C 48.510 150.050, 51.998 150.634, 56.079 150.799 C 60.876 150.992, 63.145 150.756, 62.499 150.130 C 61.125 148.798, 47.899 148.211, 48.328 149.500 M 145 149.089 C 150.614 150.823, 152.076 152.675, 151.361 157.145 C 151.022 159.265, 151.139 161.023, 151.622 161.051 C 152.105 161.078, 154.694 161.211, 157.375 161.346 C 164.207 161.689, 167 164.969, 167 172.650 L 167 178.188 171.750 177.635 C 174.363 177.331, 179.940 176.805, 184.144 176.466 L 191.788 175.849 192.486 170.175 C 193.400 162.736, 195.028 161, 201.088 161 C 206.734 161, 208.306 158.642, 205.507 154.370 C 204.595 152.978, 204.093 151.200, 204.393 150.419 C 204.732 149.535, 204.289 148.995, 203.219 148.986 C 202.273 148.979, 200.449 148.691, 199.164 148.347 C 197.230 147.829, 196.885 148.064, 197.163 149.707 C 197.624 152.423, 195.264 155, 192.319 155 C 190.807 155, 190.139 155.416, 190.559 156.096 C 191.313 157.316, 182.267 167, 180.373 167 C 178.234 167, 170.886 157.843, 171.973 156.533 C 172.699 155.657, 172.154 155.471, 169.856 155.808 C 163.140 156.794, 151.977 152.937, 154.110 150.367 C 155.025 149.265, 154.688 148.998, 152.372 148.989 C 150.793 148.983, 147.700 148.760, 145.500 148.493 L 141.500 148.008 145 149.089 M 44.350 153.791 C 44.942 156.381, 45.443 161.482, 45.463 165.127 L 45.500 171.753 49.500 168.314 C 51.700 166.422, 57.006 161.922, 61.292 158.313 C 68.388 152.337, 71.769 147.890, 65.418 152.886 C 60.902 156.438, 49.689 155.949, 46.038 152.041 L 43.273 149.081 44.350 153.791 M 180.500 150 C 180.111 150.630, 182.403 150.994, 186.691 150.985 C 191.456 150.974, 193.050 150.678, 192 150 C 190.022 148.722, 181.290 148.722, 180.500 150 M 210.250 150.031 C 207.981 150.943, 207.432 152.099, 208.676 153.342 C 209.048 153.714, 210.285 153.150, 211.426 152.089 C 212.567 151.028, 214.850 149.967, 216.500 149.730 C 219.348 149.321, 219.323 149.295, 216 149.213 C 214.075 149.166, 211.488 149.534, 210.250 150.031 M 249.166 149.876 C 246.802 151.375, 250.842 152.120, 255.107 150.971 C 257.248 150.395, 259 149.715, 259 149.461 C 259 148.645, 250.546 149.001, 249.166 149.876 M 266.250 149.716 C 267.762 149.945, 270.238 149.945, 271.750 149.716 C 273.262 149.487, 272.025 149.300, 269 149.300 C 265.975 149.300, 264.738 149.487, 266.250 149.716 M 285.105 150.085 C 283.787 150.612, 282.887 151.151, 283.105 151.282 C 283.322 151.414, 284.458 152.325, 285.630 153.307 C 287.722 155.060, 287.767 155.038, 288.207 152.046 C 288.694 148.726, 288.619 148.679, 285.105 150.085 M 102 151.833 C 102 154.691, 103.184 155.183, 104.734 152.969 C 105.960 151.219, 106.824 151.040, 111.225 151.624 C 114.933 152.116, 116.111 151.988, 115.592 151.149 C 114.291 149.043, 102 149.662, 102 151.833 M 162.500 151 C 163.244 152.204, 170.699 152.204, 173.500 151 C 174.890 150.403, 173.423 150.119, 168.691 150.070 C 164.390 150.026, 162.110 150.368, 162.500 151 M 25.978 152.527 C 25.281 153.367, 24.715 155.279, 24.721 156.777 C 24.820 180.873, 26.597 188.484, 31.160 184.355 C 32.681 182.978, 32.881 181.821, 32.326 177.597 C 31.497 171.296, 31.547 165.815, 32.485 160.173 C 33.495 154.095, 29.030 148.849, 25.978 152.527 M 232.622 156.487 C 235.227 159.505, 237.439 161.867, 237.538 161.737 C 238.488 160.474, 236.489 153.994, 235.141 153.968 C 234.238 153.951, 232.626 153.276, 231.559 152.468 C 227.578 149.457, 228.031 151.169, 232.622 156.487 M 133.222 157.750 C 137.340 160.912, 143.677 165.619, 147.304 168.208 C 159.446 176.877, 159.448 176.762, 146.977 194.089 C 140.401 203.226, 139.112 205.569, 140.512 205.848 C 142.526 206.250, 143.963 204.419, 143.985 201.424 C 144.011 197.837, 148.200 194.938, 154.262 194.312 L 159.769 193.744 160.463 189.122 C 161.288 183.630, 161.285 182.406, 160.421 174.250 L 159.760 168 154.803 168 C 148.430 168, 143.509 163.801, 144.218 158.968 C 144.623 156.206, 144.432 156, 141.462 156 C 139.706 156, 137.126 155.100, 135.727 154 C 134.218 152.813, 131.670 152, 129.460 152 L 125.736 152 133.222 157.750 M 213.976 154.750 C 213.963 155.162, 213.553 157.221, 213.065 159.325 C 212.185 163.117, 212.194 163.134, 214.196 161.325 C 215.307 160.321, 217.098 158.262, 218.176 156.750 L 220.136 154 217.068 154 C 215.381 154, 213.989 154.338, 213.976 154.750 M 244.638 155.501 C 243.488 158.498, 243.951 159, 247.865 159 C 254.033 159, 257.204 162.130, 256.856 167.876 C 256.578 172.462, 256.600 172.497, 259.538 172.164 C 261.167 171.979, 262.928 171.417, 263.450 170.914 C 263.972 170.411, 265.435 170, 266.700 170 C 267.974 170, 268.888 169.459, 268.750 168.787 C 268.613 168.119, 269.400 167.157, 270.500 166.647 C 271.600 166.138, 273.400 164.322, 274.500 162.611 C 275.600 160.900, 277.953 158.825, 279.728 158 C 286.551 154.830, 281.019 153.501, 264.753 154.402 C 258.564 154.744, 252.600 155.071, 251.500 155.128 C 250.400 155.185, 248.550 154.918, 247.388 154.535 C 245.895 154.043, 245.089 154.326, 244.638 155.501 M 455.547 157.093 C 450.941 161.137, 450.787 164.802, 455.072 168.408 C 458.341 171.158, 459.997 170.930, 464.343 167.133 C 467.953 163.978, 468.164 162.348, 465.389 159.050 C 461.002 153.836, 459.578 153.553, 455.547 157.093 M 107 158.860 C 107 164.514, 102.751 168.190, 95.522 168.790 L 90 169.248 90 173.656 C 90 176.081, 89.373 179.564, 88.607 181.397 C 87.752 183.444, 87.553 185.264, 88.092 186.115 C 88.575 186.877, 88.976 190.221, 88.985 193.547 L 89 199.595 95.463 199.183 C 102.604 198.729, 108 202.110, 108 207.040 C 108 209.304, 112.757 209.388, 124.745 207.335 L 127.989 206.779 125.745 205.091 C 124.510 204.162, 118.668 200.352, 112.761 196.623 C 96.273 186.215, 95.694 184.823, 103.759 175 C 106.242 171.975, 108.849 168.150, 109.552 166.500 C 110.254 164.850, 112.503 162.023, 114.548 160.217 C 118.926 156.353, 118.974 156.447, 112.250 155.687 L 107 155.094 107 158.860 M 223.491 155.765 C 219.784 158.463, 208 173.413, 208 175.418 C 208 176.909, 210.924 181.188, 216 187.124 C 220.400 192.270, 224 197.047, 224 197.740 C 224 198.433, 224.975 199, 226.167 199 C 227.358 199, 228.047 198.713, 227.696 198.363 C 226.848 197.515, 230.201 192.793, 236.691 185.693 C 244.294 177.377, 244.231 176.653, 234.829 164.250 C 228.263 155.588, 226.030 153.917, 223.491 155.765 M 74.500 158.903 C 72.300 159.926, 66.450 164.617, 61.500 169.327 L 52.500 177.892 65.500 177.307 C 72.650 176.985, 78.725 176.522, 79 176.277 C 79.275 176.033, 79.500 172.790, 79.500 169.072 C 79.500 160.278, 80.557 159.005, 87.872 158.985 C 90.968 158.976, 94.175 158.533, 95 158 C 98.056 156.025, 78.874 156.870, 74.500 158.903 M 177 160 C 178.175 161.650, 179.696 163, 180.381 163 C 181.066 163, 182.919 161.650, 184.500 160 L 187.374 157 181.119 157 L 174.864 157 177 160 M 285.139 159.076 C 283.764 160.196, 283.347 160.994, 284.139 160.985 C 286.173 160.962, 288.295 159.374, 287.872 158.191 C 287.659 157.596, 286.491 157.974, 285.139 159.076 M 294.709 160.750 C 289.464 168.425, 288.513 171.496, 289.994 175.983 C 292.087 182.325, 293.987 183.208, 294.058 177.872 C 294.111 173.858, 296.618 162.937, 298.449 158.750 C 299.837 155.574, 297.330 156.915, 294.709 160.750 M 457.690 159.154 C 455.718 160.257, 455.387 165.614, 457.250 166.282 C 458.659 166.787, 462.149 165.241, 463.180 163.654 C 464.887 161.028, 460.608 157.521, 457.690 159.154 M 278.783 162.750 C 276.165 165.751, 274.899 168.819, 275.997 169.498 C 276.549 169.839, 277 169.171, 277 168.014 C 277 166.856, 278.105 164.805, 279.455 163.455 C 280.805 162.105, 281.549 161, 281.110 161 C 280.670 161, 279.623 161.787, 278.783 162.750 M 132.094 163.387 C 131.299 164.344, 129.692 164.634, 127.106 164.287 C 123.355 163.784, 123.159 163.927, 115.617 172.638 C 110.454 178.601, 108.031 182.190, 108.210 183.611 C 108.356 184.772, 107.945 186.361, 107.296 187.143 C 106.335 188.302, 106.983 189.103, 110.809 191.486 C 113.389 193.093, 119.233 196.820, 123.796 199.768 C 128.359 202.717, 132.821 204.987, 133.711 204.814 C 134.601 204.641, 138.923 199.550, 143.314 193.500 C 147.706 187.450, 150.936 182.834, 150.492 183.241 C 149.336 184.302, 147 182.088, 147 179.933 C 147 178.930, 144.978 176.215, 142.507 173.899 C 139.318 170.910, 138.301 169.342, 139.004 168.496 C 139.975 167.325, 139.418 166.607, 134.883 163.193 C 133.593 162.222, 133.028 162.262, 132.094 163.387 M 241.739 168 C 248.039 176.483, 247.905 177.627, 239.500 187 C 233.146 194.086, 231.976 196, 234 196 C 234.550 196, 235 195.585, 235 195.077 C 235 192.145, 240.324 188, 244.089 188 C 247.778 188, 248 187.828, 248 184.965 C 248 183.295, 248.707 180.851, 249.571 179.532 C 250.835 177.604, 250.911 176.703, 249.962 174.930 C 249.314 173.718, 249.028 171.212, 249.329 169.363 C 249.874 166.003, 249.871 166, 245.766 166 C 243.282 166, 240.866 165.308, 239.656 164.250 C 238.555 163.287, 239.492 164.975, 241.739 168 M 209.139 166.033 C 207.715 167.220, 205.290 168, 203.028 168 L 199.278 168 198.713 174.228 C 198.402 177.654, 198.403 182.604, 198.713 185.228 L 199.279 190 203.984 190 C 208.963 190, 211.149 191.485, 212.449 195.750 C 213.137 198.007, 214.987 198.459, 218.248 197.167 C 219.711 196.588, 218.692 194.950, 211.998 187.122 C 202.612 176.145, 202.327 174.770, 208.127 168.478 C 212.575 163.653, 212.879 162.917, 209.139 166.033 M 275.020 172.476 C 274.217 173.444, 272.048 174, 269.078 174 C 266.505 174, 263.965 174.435, 263.434 174.966 C 262.212 176.188, 256.833 176.633, 255.233 175.644 C 254.403 175.131, 254.222 175.414, 254.656 176.545 C 255.180 177.912, 256.191 178.082, 260.560 177.536 C 269.138 176.464, 278.339 180.061, 275.158 183.242 C 274.521 183.879, 274 186.168, 274 188.329 L 274 192.258 279.750 191.609 C 284.317 191.093, 286.014 191.313, 288 192.682 C 290.441 194.364, 290.465 194.359, 289 192.452 C 286.885 189.699, 285.800 189.033, 283.405 189.015 C 278.999 188.983, 273.840 178.037, 276.175 173.674 C 277.445 171.301, 276.666 170.493, 275.020 172.476 M 340.724 178.705 C 339.117 180.312, 339.155 180.557, 341.386 182.955 C 342.688 184.355, 344.743 188.200, 345.953 191.500 C 354.164 213.895, 360.335 214.827, 376.674 196.139 C 380.828 191.387, 384.590 187.500, 385.034 187.500 C 385.478 187.500, 388.118 190.988, 390.900 195.250 C 396.173 203.327, 396.968 203.948, 398.958 201.550 C 399.926 200.384, 399.433 198.713, 396.443 193.023 C 391.733 184.060, 388.244 181.008, 382.673 180.977 C 380.378 180.964, 372.650 180.075, 365.500 179 C 349.037 176.525, 342.975 176.453, 340.724 178.705 M 258.250 181.723 C 254.568 182.180, 254.358 182.858, 256.572 187.140 C 257.437 188.812, 257.893 190.835, 257.586 191.635 C 256.767 193.770, 250.560 196.060, 247.312 195.426 C 245.202 195.014, 244.198 195.372, 243.292 196.858 C 241.993 198.988, 247.551 199.047, 263.177 197.069 C 266.954 196.591, 269.598 196.750, 271.079 197.542 C 272.303 198.197, 274.083 198.529, 275.036 198.280 C 275.988 198.031, 278.732 199.098, 281.133 200.650 C 283.535 202.202, 287.479 204.248, 289.899 205.196 L 294.297 206.919 291.649 204.155 C 290.192 202.635, 289 200.660, 289 199.767 C 289 196.256, 286.084 194.846, 280.317 195.566 C 275.511 196.167, 274.609 195.981, 272.444 193.948 C 269.751 191.417, 268.992 184.741, 271.240 183.352 C 273.840 181.745, 265.998 180.762, 258.250 181.723 M 345.858 182.329 C 346.464 183.060, 348.118 186.732, 349.532 190.489 C 354.101 202.626, 356.709 206.223, 360.361 205.421 C 364.834 204.438, 367.100 202.706, 373.061 195.711 C 375.972 192.295, 379.183 188.563, 380.195 187.417 L 382.035 185.334 366.767 183.166 C 348.572 180.582, 344.265 180.409, 345.858 182.329 M 77 183.952 L 70.500 184.558 77.086 185.029 C 81.940 185.376, 83.671 185.171, 83.669 184.250 C 83.668 183.563, 83.629 183.078, 83.583 183.173 C 83.537 183.268, 80.575 183.618, 77 183.952 M 186.917 184.406 C 186.688 184.629, 182.450 185.131, 177.500 185.521 C 166.441 186.392, 167 186.029, 167 192.337 C 167 200.411, 165.230 202.207, 157.659 201.817 C 152.075 201.528, 151.513 201.684, 151.408 203.542 C 151.345 204.665, 150.732 206.632, 150.047 207.913 C 149.361 209.193, 149.234 209.973, 149.764 209.646 C 150.294 209.318, 154.803 208.589, 159.784 208.024 C 170.019 206.865, 172 206.304, 172 204.567 C 172 203.897, 173.102 202.314, 174.448 201.049 C 175.795 199.784, 177.174 197.486, 177.512 195.944 C 179.092 188.750, 183.476 190.437, 187.678 199.855 C 190.063 205.200, 190.076 205.210, 193.784 204.552 C 195.828 204.190, 199.630 203.649, 202.234 203.351 C 206.533 202.859, 206.873 202.632, 205.938 200.884 C 205.371 199.825, 205.180 198.518, 205.513 197.979 C 205.879 197.386, 203.986 197, 200.714 197 C 193.884 197, 192 195.199, 192 188.671 C 192 184.444, 191.778 184, 189.667 184 C 188.383 184, 187.146 184.183, 186.917 184.406 M 438.150 186.880 C 436.521 188.321, 430.805 194.675, 425.447 201 C 420.089 207.325, 415.034 213.279, 414.214 214.231 C 412.588 216.120, 413.966 219, 416.496 219 C 417.184 219, 423.306 213.037, 430.099 205.750 C 436.892 198.463, 443.177 192.366, 444.066 192.201 C 445.145 192.002, 448.044 195.322, 452.796 202.201 C 456.708 207.866, 461.923 214.475, 464.384 216.888 L 468.858 221.277 473.867 219.638 C 476.622 218.737, 479.577 218, 480.435 218 C 483.093 218, 489.236 211.606, 495.465 202.357 C 502.460 191.970, 502.822 191.653, 505.606 193.477 C 510.097 196.420, 511.370 191.782, 507.374 187.033 L 504.748 183.912 472.930 184.086 L 441.112 184.261 438.150 186.880 M 56.264 185.718 C 57.784 185.947, 60.034 185.941, 61.264 185.704 C 62.494 185.467, 61.250 185.279, 58.500 185.286 C 55.750 185.294, 54.744 185.488, 56.264 185.718 M 250.151 189.870 L 247.801 192.267 250.649 191.552 C 254.191 190.663, 254.383 190.468, 253.342 188.811 C 252.681 187.761, 251.994 187.989, 250.151 189.870 M 440 189.282 C 439.175 189.952, 435.821 193.650, 432.547 197.500 C 429.273 201.350, 427.856 203.375, 429.398 202 C 432.250 199.457, 442.486 187.974, 441.849 188.032 C 441.657 188.049, 440.825 188.612, 440 189.282 M 448.896 191.534 C 450.448 193.302, 454.468 198.764, 457.830 203.673 C 467.171 217.310, 467.587 217.603, 474.685 215.523 C 484.260 212.717, 484.598 212.459, 490.660 203.348 C 493.872 198.521, 497.948 193.063, 499.717 191.219 L 502.934 187.866 474.505 188.094 L 446.075 188.321 448.896 191.534 M 79.592 191.500 C 80.493 192.875, 81.403 194, 81.615 194 C 81.827 194, 82 192.875, 82 191.500 C 82 189.657, 81.468 189, 79.977 189 C 78.049 189, 78.031 189.117, 79.592 191.500 M 50.015 191.750 C 50.024 192.713, 50.467 194.175, 51 195 C 51.799 196.237, 51.972 196.140, 51.985 194.450 C 51.993 193.322, 52.540 191.860, 53.200 191.200 C 54.133 190.267, 53.911 190, 52.200 190 C 50.766 190, 50.005 190.609, 50.015 191.750 M 181.032 196.921 C 181.014 197.703, 180.255 199.165, 179.345 200.171 C 177.775 201.906, 177.852 202, 180.845 202 C 184.333 202, 184.874 200.538, 182.532 197.441 C 181.494 196.070, 181.054 195.917, 181.032 196.921 M 54.996 200.500 C 61.170 207.952, 70.063 217.146, 70.783 216.822 C 71.178 216.645, 67.041 212, 61.591 206.500 C 56.141 201, 53.173 198.300, 54.996 200.500 M 295.991 208.489 C 298.537 211.557, 294.303 212.424, 277.269 212.323 L 260.750 212.226 263.625 214.568 C 267.233 217.507, 271.748 219.216, 272.537 217.940 C 273.639 216.156, 276.861 217.008, 278.922 219.627 C 280.423 221.536, 281.332 221.975, 282.244 221.232 C 289.704 215.157, 306.526 212.451, 311.099 216.590 C 312.385 217.753, 313.333 217.913, 314.635 217.184 C 316.146 216.339, 315.817 216.028, 312.457 215.123 C 310.280 214.537, 305.453 212.524, 301.729 210.651 C 298.005 208.777, 295.423 207.805, 295.991 208.489 M 321.463 218.959 C 322.308 219.893, 323 221.185, 323 221.829 C 323 223.504, 324.437 223.277, 327.007 221.195 L 329.236 219.391 324.581 218.326 C 320.231 217.330, 320.027 217.372, 321.463 218.959 M 250 221.500 C 248.625 222.286, 245.432 222.945, 242.905 222.965 C 239.662 222.990, 237.794 223.570, 236.557 224.937 C 234.643 227.051, 234.798 227.523, 239.300 233.311 L 242.264 237.121 245.088 234.416 C 247.653 231.958, 248.390 231.768, 253.153 232.332 C 261.895 233.367, 264.298 229.686, 258.896 223.535 C 255.524 219.694, 253.835 219.308, 250 221.500 M 340.588 224.658 L 344.500 228.500 346.874 225.708 C 349.763 222.311, 349.872 222.417, 342.588 221.533 L 336.676 220.816 340.588 224.658 M 250.500 225.252 C 249.400 225.907, 246.309 226.681, 243.630 226.971 L 238.761 227.500 240.795 230 L 242.830 232.500 245.382 230.107 C 247.608 228.019, 248.577 227.790, 252.967 228.310 C 258.382 228.951, 258.532 228.862, 256.965 225.934 C 255.794 223.746, 253.444 223.498, 250.500 225.252 M 348.583 228.643 C 347.757 230.797, 348.396 231.327, 350.874 230.540 C 352.113 230.147, 352.682 229.336, 352.342 228.449 C 351.593 226.497, 349.363 226.612, 348.583 228.643 M 225.677 238.936 L 220.503 243.872 223.439 246.936 C 228.248 251.955, 234 250.014, 234 243.371 C 234 241.737, 234.529 239.871, 235.176 239.224 C 236.078 238.322, 235.925 237.575, 234.521 236.024 C 231.977 233.212, 231.520 233.363, 225.677 238.936 M 191.289 236.378 C 190.409 236.871, 185.273 237.030, 179.876 236.733 C 169.663 236.170, 164.658 237.050, 159.962 240.232 C 158.566 241.179, 156.091 241.909, 154.462 241.856 C 144.204 241.519, 139.941 244.637, 145.630 248.315 C 151.663 252.216, 155.122 252.564, 157.949 249.554 C 161.096 246.205, 164.047 247.010, 169.231 252.634 C 173.817 257.610, 175.682 257.969, 179.673 254.648 C 181.228 253.355, 183.625 252.019, 185 251.681 C 198.031 248.472, 197.031 248.463, 203.861 251.852 C 210.881 255.335, 216.375 255.876, 219.158 253.357 C 220.897 251.783, 220.824 251.547, 217.424 247.785 C 214.571 244.626, 214.107 243.576, 215.060 242.428 C 216.518 240.671, 214.861 238.324, 211.041 236.734 C 207.889 235.421, 193.462 235.162, 191.289 236.378 M 227.856 240.837 C 224.543 243.798, 224.629 246, 228.059 246 C 229.518 246, 230 245.305, 230 243.200 C 230 241.660, 230.540 239.860, 231.200 239.200 C 233.631 236.769, 230.929 238.092, 227.856 240.837 M 191.303 240.370 C 190.431 240.858, 185.393 241.019, 180.109 240.728 C 174.468 240.417, 168.745 240.656, 166.250 241.307 C 161.780 242.472, 160.549 244, 164.079 244 C 165.222 244, 168.183 246.025, 170.658 248.500 C 175.859 253.701, 175.682 253.647, 178.589 250.916 C 180.709 248.925, 182.917 248.136, 193.008 245.764 C 197.159 244.788, 198.018 244.953, 203.861 247.852 C 207.350 249.583, 211.622 250.998, 213.353 250.995 L 216.500 250.990 213.873 248.745 C 210.810 246.127, 209.628 243.348, 211.172 242.394 C 214.813 240.144, 195.265 238.153, 191.303 240.370 M 150.547 245.905 C 148.897 246.550, 149.116 246.773, 151.957 247.341 C 155.698 248.090, 157.229 247.389, 154.971 245.961 C 153.273 244.887, 153.153 244.885, 150.547 245.905 M 503.032 257.773 C 497.537 262.223, 510.252 271.611, 516.932 268.036 C 518.130 267.395, 519.773 267.466, 521.842 268.247 C 524.691 269.322, 525.205 269.178, 527.976 266.523 C 533.307 261.416, 530.397 257.292, 522.228 258.375 C 517.741 258.971, 510.612 258.134, 506.915 256.579 C 505.998 256.194, 504.360 256.697, 503.032 257.773 M 541 258 C 540.175 258.533, 538.557 258.976, 537.405 258.985 C 536.253 258.993, 534.562 259.827, 533.647 260.838 C 531.870 262.801, 533.144 264.873, 537 266.291 C 538.038 266.672, 537.855 266.866, 536.405 266.921 C 529.645 267.176, 529.987 276.152, 536.781 276.813 C 538.701 277, 540 277.684, 540 278.508 C 540 281.343, 544.476 285.301, 546.835 284.552 C 550.751 283.310, 552.628 279.351, 550.445 276.939 C 549.445 275.834, 548.030 275.158, 547.301 275.438 C 546.367 275.797, 546.124 275.290, 546.477 273.723 C 548.866 263.142, 548.983 260.779, 547.215 258.750 C 545.520 256.805, 543.269 256.533, 541 258 M 507 262.500 C 509.430 265.087, 514.142 265.829, 516.931 264.064 C 517.976 263.402, 517.303 262.985, 514.431 262.516 C 512.269 262.162, 509.466 261.451, 508.203 260.936 C 504.674 259.498, 504.451 259.787, 507 262.500 M 520.518 262.971 C 519.800 264.132, 524.433 265.468, 525.943 264.535 C 526.524 264.176, 527 263.459, 527 262.941 C 527 261.697, 521.289 261.723, 520.518 262.971 M 538.750 270.298 C 534.138 271.406, 533.936 272.607, 538.250 273.279 C 541.805 273.833, 543.377 272.987, 542.844 270.804 C 542.574 269.700, 541.692 269.591, 538.750 270.298 M 566.592 279.898 C 564.328 282.400, 565.598 284.533, 569.915 285.481 C 571.442 285.817, 573.628 287.358, 574.773 288.907 C 580.103 296.116, 590.336 297.422, 587.177 290.490 C 586.530 289.069, 586 286.632, 586 285.075 C 586 280.740, 585.406 280.456, 571.980 278.379 C 569.244 277.955, 568.045 278.293, 566.592 279.898 M 575.500 285.122 C 578.951 289.158, 583.568 291.922, 582.587 289.365 C 582.264 288.524, 582 287.024, 582 286.032 C 582 284.844, 581.060 284.066, 579.250 283.755 C 577.737 283.495, 575.600 282.907, 574.500 282.448 C 572.919 281.788, 573.128 282.348, 575.500 285.122" stroke="none" fill="#1A1A1A" fill-rule="evenodd"/>
</svg>