<svg xmlns="http://www.w3.org/2000/svg" viewBox="0 0 560 560" preserveAspectRatio="xMidYMid meet">
  <rect width="560" height="560" fill="white"/>
  
  <!-- Cabells -->
  <ellipse cx="140" cy="95" rx="78" ry="88" fill="none" stroke="#1A1A1A" stroke-width="3.5"/>
  <!-- Cara -->
  <ellipse cx="140" cy="130" rx="60" ry="68" fill="none" stroke="#1A1A1A" stroke-width="3.5"/>
  <!-- Coll -->
  <rect x="118" y="175" width="44" height="55" rx="8" fill="none" stroke="#1A1A1A" stroke-width="3"/>
  <!-- Espatlla -->
  <ellipse cx="140" cy="255" rx="85" ry="50" fill="none" stroke="#1A1A1A" stroke-width="3"/>
  <!-- Zones dels ulls (per pintar la ombra) -->
  <ellipse cx="120" cy="118" rx="18" ry="10" fill="none" stroke="#1A1A1A" stroke-width="2.5"/>
  <ellipse cx="160" cy="118" rx="18" ry="10" fill="none" stroke="#1A1A1A" stroke-width="2.5"/>
  <!-- Ulls -->
  <ellipse cx="120" cy="118" rx="9" ry="11" fill="none" stroke="#1A1A1A" stroke-width="2.5"/>
  <ellipse cx="160" cy="118" rx="9" ry="11" fill="none" stroke="#1A1A1A" stroke-width="2.5"/>
  <!-- Nas -->
  <ellipse cx="140" cy="138" rx="8" ry="5" fill="none" stroke="#1A1A1A" stroke-width="2"/>
  <!-- Boca -->
  <ellipse cx="140" cy="157" rx="24" ry="13" fill="none" stroke="#1A1A1A" stroke-width="3"/>
  <path d="M 120 150 Q 140 156 160 150" fill="none" stroke="#1A1A1A" stroke-width="2"/>
  
  <!-- Cabells -->
  <ellipse cx="420" cy="95" rx="78" ry="88" fill="none" stroke="#1A1A1A" stroke-width="3.5"/>
  <!-- Cara -->
  <ellipse cx="420" cy="130" rx="60" ry="68" fill="none" stroke="#1A1A1A" stroke-width="3.5"/>
  <!-- Coll -->
  <rect x="398" y="175" width="44" height="55" rx="8" fill="none" stroke="#1A1A1A" stroke-width="3"/>
  <!-- Espatlla -->
  <ellipse cx="420" cy="255" rx="85" ry="50" fill="none" stroke="#1A1A1A" stroke-width="3"/>
  <!-- Zones dels ulls (per pintar la ombra) -->
  <ellipse cx="400" cy="118" rx="18" ry="10" fill="none" stroke="#1A1A1A" stroke-width="2.5"/>
  <ellipse cx="440" cy="118" rx="18" ry="10" fill="none" stroke="#1A1A1A" stroke-width="2.5"/>
  <!-- Ulls -->
  <ellipse cx="400" cy="118" rx="9" ry="11" fill="none" stroke="#1A1A1A" stroke-width="2.5"/>
  <ellipse cx="440" cy="118" rx="9" ry="11" fill="none" stroke="#1A1A1A" stroke-width="2.5"/>
  <!-- Nas -->
  <ellipse cx="420" cy="138" rx="8" ry="5" fill="none" stroke="#1A1A1A" stroke-width="2"/>
  <!-- Boca -->
  <ellipse cx="420" cy="157" rx="24" ry="13" fill="none" stroke="#1A1A1A" stroke-width="3"/>
  <path d="M 400 150 Q 420 156 440 150" fill="none" stroke="#1A1A1A" stroke-width="2"/>
  
  <!-- Cabells -->
  <ellipse cx="140" cy="375" rx="78" ry="88" fill="none" stroke="#1A1A1A" stroke-width="3.5"/>
  <!-- Cara -->
  <ellipse cx="140" cy="410" rx="60" ry="68" fill="none" stroke="#1A1A1A" stroke-width="3.5"/>
  <!-- Coll -->
  <rect x="118" y="455" width="44" height="55" rx="8" fill="none" stroke="#1A1A1A" stroke-width="3"/>
  <!-- Espatlla -->
  <ellipse cx="140" cy="535" rx="85" ry="50" fill="none" stroke="#1A1A1A" stroke-width="3"/>
  <!-- Zones dels ulls (per pintar la ombra) -->
  <ellipse cx="120" cy="398" rx="18" ry="10" fill="none" stroke="#1A1A1A" stroke-width="2.5"/>
  <ellipse cx="160" cy="398" rx="18" ry="10" fill="none" stroke="#1A1A1A" stroke-width="2.5"/>
  <!-- Ulls -->
  <ellipse cx="120" cy="398" rx="9" ry="11" fill="none" stroke="#1A1A1A" stroke-width="2.5"/>
  <ellipse cx="160" cy="398" rx="9" ry="11" fill="none" stroke="#1A1A1A" stroke-width="2.5"/>
  <!-- Nas -->
  <ellipse cx="140" cy="418" rx="8" ry="5" fill="none" stroke="#1A1A1A" stroke-width="2"/>
  <!-- Boca -->
  <ellipse cx="140" cy="437" rx="24" ry="13" fill="none" stroke="#1A1A1A" stroke-width="3"/>
  <path d="M 120 430 Q 140 436 160 430" fill="none" stroke="#1A1A1A" stroke-width="2"/>
  
  <!-- Cabells -->
  <ellipse cx="420" cy="375" rx="78" ry="88" fill="none" stroke="#1A1A1A" stroke-width="3.5"/>
  <!-- Cara -->
  <ellipse cx="420" cy="410" rx="60" ry="68" fill="none" stroke="#1A1A1A" stroke-width="3.5"/>
  <!-- Coll -->
  <rect x="398" y="455" width="44" height="55" rx="8" fill="none" stroke="#1A1A1A" stroke-width="3"/>
  <!-- Espatlla -->
  <ellipse cx="420" cy="535" rx="85" ry="50" fill="none" stroke="#1A1A1A" stroke-width="3"/>
  <!-- Zones dels ulls (per pintar la ombra) -->
  <ellipse cx="400" cy="398" rx="18" ry="10" fill="none" stroke="#1A1A1A" stroke-width="2.5"/>
  <ellipse cx="440" cy="398" rx="18" ry="10" fill="none" stroke="#1A1A1A" stroke-width="2.5"/>
  <!-- Ulls -->
  <ellipse cx="400" cy="398" rx="9" ry="11" fill="none" stroke="#1A1A1A" stroke-width="2.5"/>
  <ellipse cx="440" cy="398" rx="9" ry="11" fill="none" stroke="#1A1A1A" stroke-width="2.5"/>
  <!-- Nas -->
  <ellipse cx="420" cy="418" rx="8" ry="5" fill="none" stroke="#1A1A1A" stroke-width="2"/>
  <!-- Boca -->
  <ellipse cx="420" cy="437" rx="24" ry="13" fill="none" stroke="#1A1A1A" stroke-width="3"/>
  <path d="M 400 430 Q 420 436 440 430" fill="none" stroke="#1A1A1A" stroke-width="2"/>
  <line x1="280" y1="0" x2="280" y2="560" stroke="#1A1A1A" stroke-width="5"/>
  <line x1="0" y1="280" x2="560" y2="280" stroke="#1A1A1A" stroke-width="5"/>
</svg>