<svg xmlns="http://www.w3.org/2000/svg" viewBox="0 0 700 700" preserveAspectRatio="xMidYMid meet">
  <rect width="700" height="700" fill="white"/>
  <path d="M69.18,20.00 L69.18,56.00 L38.00,74.00 L6.82,56.00 L6.82,20.00 L38.00,2.00 Z" fill="none" stroke="#1A1A1A" stroke-width="2.5" stroke-linejoin="round"/>
  <path d="M134.99,20.00 L134.99,56.00 L103.82,74.00 L72.64,56.00 L72.64,20.00 L103.82,2.00 Z" fill="none" stroke="#1A1A1A" stroke-width="2.5" stroke-linejoin="round"/>
  <path d="M200.81,20.00 L200.81,56.00 L169.64,74.00 L138.46,56.00 L138.46,20.00 L169.64,2.00 Z" fill="none" stroke="#1A1A1A" stroke-width="2.5" stroke-linejoin="round"/>
  <path d="M266.63,20.00 L266.63,56.00 L235.45,74.00 L204.28,56.00 L204.28,20.00 L235.45,2.00 Z" fill="none" stroke="#1A1A1A" stroke-width="2.5" stroke-linejoin="round"/>
  <path d="M332.45,20.00 L332.45,56.00 L301.27,74.00 L270.09,56.00 L270.09,20.00 L301.27,2.00 Z" fill="none" stroke="#1A1A1A" stroke-width="2.5" stroke-linejoin="round"/>
  <path d="M398.27,20.00 L398.27,56.00 L367.09,74.00 L335.91,56.00 L335.91,20.00 L367.09,2.00 Z" fill="none" stroke="#1A1A1A" stroke-width="2.5" stroke-linejoin="round"/>
  <path d="M464.08,20.00 L464.08,56.00 L432.91,74.00 L401.73,56.00 L401.73,20.00 L432.91,2.00 Z" fill="none" stroke="#1A1A1A" stroke-width="2.5" stroke-linejoin="round"/>
  <path d="M529.90,20.00 L529.90,56.00 L498.73,74.00 L467.55,56.00 L467.55,20.00 L498.73,2.00 Z" fill="none" stroke="#1A1A1A" stroke-width="2.5" stroke-linejoin="round"/>
  <path d="M595.72,20.00 L595.72,56.00 L564.54,74.00 L533.37,56.00 L533.37,20.00 L564.54,2.00 Z" fill="none" stroke="#1A1A1A" stroke-width="2.5" stroke-linejoin="round"/>
  <path d="M661.54,20.00 L661.54,56.00 L630.36,74.00 L599.18,56.00 L599.18,20.00 L630.36,2.00 Z" fill="none" stroke="#1A1A1A" stroke-width="2.5" stroke-linejoin="round"/>
  <path d="M727.36,20.00 L727.36,56.00 L696.18,74.00 L665.00,56.00 L665.00,20.00 L696.18,2.00 Z" fill="none" stroke="#1A1A1A" stroke-width="2.5" stroke-linejoin="round"/>
  <path d="M102.09,77.00 L102.09,113.00 L70.91,131.00 L39.73,113.00 L39.73,77.00 L70.91,59.00 Z" fill="none" stroke="#1A1A1A" stroke-width="2.5" stroke-linejoin="round"/>
  <path d="M167.90,77.00 L167.90,113.00 L136.73,131.00 L105.55,113.00 L105.55,77.00 L136.73,59.00 Z" fill="none" stroke="#1A1A1A" stroke-width="2.5" stroke-linejoin="round"/>
  <path d="M233.72,77.00 L233.72,113.00 L202.54,131.00 L171.37,113.00 L171.37,77.00 L202.54,59.00 Z" fill="none" stroke="#1A1A1A" stroke-width="2.5" stroke-linejoin="round"/>
  <path d="M299.54,77.00 L299.54,113.00 L268.36,131.00 L237.19,113.00 L237.19,77.00 L268.36,59.00 Z" fill="none" stroke="#1A1A1A" stroke-width="2.5" stroke-linejoin="round"/>
  <path d="M365.36,77.00 L365.36,113.00 L334.18,131.00 L303.00,113.00 L303.00,77.00 L334.18,59.00 Z" fill="none" stroke="#1A1A1A" stroke-width="2.5" stroke-linejoin="round"/>
  <path d="M431.18,77.00 L431.18,113.00 L400.00,131.00 L368.82,113.00 L368.82,77.00 L400.00,59.00 Z" fill="none" stroke="#1A1A1A" stroke-width="2.5" stroke-linejoin="round"/>
  <path d="M496.99,77.00 L496.99,113.00 L465.82,131.00 L434.64,113.00 L434.64,77.00 L465.82,59.00 Z" fill="none" stroke="#1A1A1A" stroke-width="2.5" stroke-linejoin="round"/>
  <path d="M562.81,77.00 L562.81,113.00 L531.63,131.00 L500.46,113.00 L500.46,77.00 L531.63,59.00 Z" fill="none" stroke="#1A1A1A" stroke-width="2.5" stroke-linejoin="round"/>
  <path d="M628.63,77.00 L628.63,113.00 L597.45,131.00 L566.28,113.00 L566.28,77.00 L597.45,59.00 Z" fill="none" stroke="#1A1A1A" stroke-width="2.5" stroke-linejoin="round"/>
  <path d="M694.45,77.00 L694.45,113.00 L663.27,131.00 L632.09,113.00 L632.09,77.00 L663.27,59.00 Z" fill="none" stroke="#1A1A1A" stroke-width="2.5" stroke-linejoin="round"/>
  <path d="M760.27,77.00 L760.27,113.00 L729.09,131.00 L697.91,113.00 L697.91,77.00 L729.09,59.00 Z" fill="none" stroke="#1A1A1A" stroke-width="2.5" stroke-linejoin="round"/>
  <path d="M69.18,134.00 L69.18,170.00 L38.00,188.00 L6.82,170.00 L6.82,134.00 L38.00,116.00 Z" fill="none" stroke="#1A1A1A" stroke-width="2.5" stroke-linejoin="round"/>
  <path d="M134.99,134.00 L134.99,170.00 L103.82,188.00 L72.64,170.00 L72.64,134.00 L103.82,116.00 Z" fill="none" stroke="#1A1A1A" stroke-width="2.5" stroke-linejoin="round"/>
  <path d="M200.81,134.00 L200.81,170.00 L169.64,188.00 L138.46,170.00 L138.46,134.00 L169.64,116.00 Z" fill="none" stroke="#1A1A1A" stroke-width="2.5" stroke-linejoin="round"/>
  <path d="M266.63,134.00 L266.63,170.00 L235.45,188.00 L204.28,170.00 L204.28,134.00 L235.45,116.00 Z" fill="none" stroke="#1A1A1A" stroke-width="2.5" stroke-linejoin="round"/>
  <path d="M332.45,134.00 L332.45,170.00 L301.27,188.00 L270.09,170.00 L270.09,134.00 L301.27,116.00 Z" fill="none" stroke="#1A1A1A" stroke-width="2.5" stroke-linejoin="round"/>
  <path d="M398.27,134.00 L398.27,170.00 L367.09,188.00 L335.91,170.00 L335.91,134.00 L367.09,116.00 Z" fill="none" stroke="#1A1A1A" stroke-width="2.5" stroke-linejoin="round"/>
  <path d="M464.08,134.00 L464.08,170.00 L432.91,188.00 L401.73,170.00 L401.73,134.00 L432.91,116.00 Z" fill="none" stroke="#1A1A1A" stroke-width="2.5" stroke-linejoin="round"/>
  <path d="M529.90,134.00 L529.90,170.00 L498.73,188.00 L467.55,170.00 L467.55,134.00 L498.73,116.00 Z" fill="none" stroke="#1A1A1A" stroke-width="2.5" stroke-linejoin="round"/>
  <path d="M595.72,134.00 L595.72,170.00 L564.54,188.00 L533.37,170.00 L533.37,134.00 L564.54,116.00 Z" fill="none" stroke="#1A1A1A" stroke-width="2.5" stroke-linejoin="round"/>
  <path d="M661.54,134.00 L661.54,170.00 L630.36,188.00 L599.18,170.00 L599.18,134.00 L630.36,116.00 Z" fill="none" stroke="#1A1A1A" stroke-width="2.5" stroke-linejoin="round"/>
  <path d="M727.36,134.00 L727.36,170.00 L696.18,188.00 L665.00,170.00 L665.00,134.00 L696.18,116.00 Z" fill="none" stroke="#1A1A1A" stroke-width="2.5" stroke-linejoin="round"/>
  <path d="M102.09,191.00 L102.09,227.00 L70.91,245.00 L39.73,227.00 L39.73,191.00 L70.91,173.00 Z" fill="none" stroke="#1A1A1A" stroke-width="2.5" stroke-linejoin="round"/>
  <path d="M167.90,191.00 L167.90,227.00 L136.73,245.00 L105.55,227.00 L105.55,191.00 L136.73,173.00 Z" fill="none" stroke="#1A1A1A" stroke-width="2.5" stroke-linejoin="round"/>
  <path d="M233.72,191.00 L233.72,227.00 L202.54,245.00 L171.37,227.00 L171.37,191.00 L202.54,173.00 Z" fill="none" stroke="#1A1A1A" stroke-width="2.5" stroke-linejoin="round"/>
  <path d="M299.54,191.00 L299.54,227.00 L268.36,245.00 L237.19,227.00 L237.19,191.00 L268.36,173.00 Z" fill="none" stroke="#1A1A1A" stroke-width="2.5" stroke-linejoin="round"/>
  <path d="M365.36,191.00 L365.36,227.00 L334.18,245.00 L303.00,227.00 L303.00,191.00 L334.18,173.00 Z" fill="none" stroke="#1A1A1A" stroke-width="2.5" stroke-linejoin="round"/>
  <path d="M431.18,191.00 L431.18,227.00 L400.00,245.00 L368.82,227.00 L368.82,191.00 L400.00,173.00 Z" fill="none" stroke="#1A1A1A" stroke-width="2.5" stroke-linejoin="round"/>
  <path d="M496.99,191.00 L496.99,227.00 L465.82,245.00 L434.64,227.00 L434.64,191.00 L465.82,173.00 Z" fill="none" stroke="#1A1A1A" stroke-width="2.5" stroke-linejoin="round"/>
  <path d="M562.81,191.00 L562.81,227.00 L531.63,245.00 L500.46,227.00 L500.46,191.00 L531.63,173.00 Z" fill="none" stroke="#1A1A1A" stroke-width="2.5" stroke-linejoin="round"/>
  <path d="M628.63,191.00 L628.63,227.00 L597.45,245.00 L566.28,227.00 L566.28,191.00 L597.45,173.00 Z" fill="none" stroke="#1A1A1A" stroke-width="2.5" stroke-linejoin="round"/>
  <path d="M694.45,191.00 L694.45,227.00 L663.27,245.00 L632.09,227.00 L632.09,191.00 L663.27,173.00 Z" fill="none" stroke="#1A1A1A" stroke-width="2.5" stroke-linejoin="round"/>
  <path d="M760.27,191.00 L760.27,227.00 L729.09,245.00 L697.91,227.00 L697.91,191.00 L729.09,173.00 Z" fill="none" stroke="#1A1A1A" stroke-width="2.5" stroke-linejoin="round"/>
  <path d="M69.18,248.00 L69.18,284.00 L38.00,302.00 L6.82,284.00 L6.82,248.00 L38.00,230.00 Z" fill="none" stroke="#1A1A1A" stroke-width="2.5" stroke-linejoin="round"/>
  <path d="M134.99,248.00 L134.99,284.00 L103.82,302.00 L72.64,284.00 L72.64,248.00 L103.82,230.00 Z" fill="none" stroke="#1A1A1A" stroke-width="2.5" stroke-linejoin="round"/>
  <path d="M200.81,248.00 L200.81,284.00 L169.64,302.00 L138.46,284.00 L138.46,248.00 L169.64,230.00 Z" fill="none" stroke="#1A1A1A" stroke-width="2.5" stroke-linejoin="round"/>
  <path d="M266.63,248.00 L266.63,284.00 L235.45,302.00 L204.28,284.00 L204.28,248.00 L235.45,230.00 Z" fill="none" stroke="#1A1A1A" stroke-width="2.5" stroke-linejoin="round"/>
  <path d="M332.45,248.00 L332.45,284.00 L301.27,302.00 L270.09,284.00 L270.09,248.00 L301.27,230.00 Z" fill="none" stroke="#1A1A1A" stroke-width="2.5" stroke-linejoin="round"/>
  <path d="M398.27,248.00 L398.27,284.00 L367.09,302.00 L335.91,284.00 L335.91,248.00 L367.09,230.00 Z" fill="none" stroke="#1A1A1A" stroke-width="2.5" stroke-linejoin="round"/>
  <path d="M464.08,248.00 L464.08,284.00 L432.91,302.00 L401.73,284.00 L401.73,248.00 L432.91,230.00 Z" fill="none" stroke="#1A1A1A" stroke-width="2.5" stroke-linejoin="round"/>
  <path d="M529.90,248.00 L529.90,284.00 L498.73,302.00 L467.55,284.00 L467.55,248.00 L498.73,230.00 Z" fill="none" stroke="#1A1A1A" stroke-width="2.5" stroke-linejoin="round"/>
  <path d="M595.72,248.00 L595.72,284.00 L564.54,302.00 L533.37,284.00 L533.37,248.00 L564.54,230.00 Z" fill="none" stroke="#1A1A1A" stroke-width="2.5" stroke-linejoin="round"/>
  <path d="M661.54,248.00 L661.54,284.00 L630.36,302.00 L599.18,284.00 L599.18,248.00 L630.36,230.00 Z" fill="none" stroke="#1A1A1A" stroke-width="2.5" stroke-linejoin="round"/>
  <path d="M727.36,248.00 L727.36,284.00 L696.18,302.00 L665.00,284.00 L665.00,248.00 L696.18,230.00 Z" fill="none" stroke="#1A1A1A" stroke-width="2.5" stroke-linejoin="round"/>
  <path d="M102.09,305.00 L102.09,341.00 L70.91,359.00 L39.73,341.00 L39.73,305.00 L70.91,287.00 Z" fill="none" stroke="#1A1A1A" stroke-width="2.5" stroke-linejoin="round"/>
  <path d="M167.90,305.00 L167.90,341.00 L136.73,359.00 L105.55,341.00 L105.55,305.00 L136.73,287.00 Z" fill="none" stroke="#1A1A1A" stroke-width="2.5" stroke-linejoin="round"/>
  <path d="M233.72,305.00 L233.72,341.00 L202.54,359.00 L171.37,341.00 L171.37,305.00 L202.54,287.00 Z" fill="none" stroke="#1A1A1A" stroke-width="2.5" stroke-linejoin="round"/>
  <path d="M299.54,305.00 L299.54,341.00 L268.36,359.00 L237.19,341.00 L237.19,305.00 L268.36,287.00 Z" fill="none" stroke="#1A1A1A" stroke-width="2.5" stroke-linejoin="round"/>
  <path d="M365.36,305.00 L365.36,341.00 L334.18,359.00 L303.00,341.00 L303.00,305.00 L334.18,287.00 Z" fill="none" stroke="#1A1A1A" stroke-width="2.5" stroke-linejoin="round"/>
  <path d="M431.18,305.00 L431.18,341.00 L400.00,359.00 L368.82,341.00 L368.82,305.00 L400.00,287.00 Z" fill="none" stroke="#1A1A1A" stroke-width="2.5" stroke-linejoin="round"/>
  <path d="M496.99,305.00 L496.99,341.00 L465.82,359.00 L434.64,341.00 L434.64,305.00 L465.82,287.00 Z" fill="none" stroke="#1A1A1A" stroke-width="2.5" stroke-linejoin="round"/>
  <path d="M562.81,305.00 L562.81,341.00 L531.63,359.00 L500.46,341.00 L500.46,305.00 L531.63,287.00 Z" fill="none" stroke="#1A1A1A" stroke-width="2.5" stroke-linejoin="round"/>
  <path d="M628.63,305.00 L628.63,341.00 L597.45,359.00 L566.28,341.00 L566.28,305.00 L597.45,287.00 Z" fill="none" stroke="#1A1A1A" stroke-width="2.5" stroke-linejoin="round"/>
  <path d="M694.45,305.00 L694.45,341.00 L663.27,359.00 L632.09,341.00 L632.09,305.00 L663.27,287.00 Z" fill="none" stroke="#1A1A1A" stroke-width="2.5" stroke-linejoin="round"/>
  <path d="M760.27,305.00 L760.27,341.00 L729.09,359.00 L697.91,341.00 L697.91,305.00 L729.09,287.00 Z" fill="none" stroke="#1A1A1A" stroke-width="2.5" stroke-linejoin="round"/>
  <path d="M69.18,362.00 L69.18,398.00 L38.00,416.00 L6.82,398.00 L6.82,362.00 L38.00,344.00 Z" fill="none" stroke="#1A1A1A" stroke-width="2.5" stroke-linejoin="round"/>
  <path d="M134.99,362.00 L134.99,398.00 L103.82,416.00 L72.64,398.00 L72.64,362.00 L103.82,344.00 Z" fill="none" stroke="#1A1A1A" stroke-width="2.5" stroke-linejoin="round"/>
  <path d="M200.81,362.00 L200.81,398.00 L169.64,416.00 L138.46,398.00 L138.46,362.00 L169.64,344.00 Z" fill="none" stroke="#1A1A1A" stroke-width="2.5" stroke-linejoin="round"/>
  <path d="M266.63,362.00 L266.63,398.00 L235.45,416.00 L204.28,398.00 L204.28,362.00 L235.45,344.00 Z" fill="none" stroke="#1A1A1A" stroke-width="2.5" stroke-linejoin="round"/>
  <path d="M332.45,362.00 L332.45,398.00 L301.27,416.00 L270.09,398.00 L270.09,362.00 L301.27,344.00 Z" fill="none" stroke="#1A1A1A" stroke-width="2.5" stroke-linejoin="round"/>
  <path d="M398.27,362.00 L398.27,398.00 L367.09,416.00 L335.91,398.00 L335.91,362.00 L367.09,344.00 Z" fill="none" stroke="#1A1A1A" stroke-width="2.5" stroke-linejoin="round"/>
  <path d="M464.08,362.00 L464.08,398.00 L432.91,416.00 L401.73,398.00 L401.73,362.00 L432.91,344.00 Z" fill="none" stroke="#1A1A1A" stroke-width="2.5" stroke-linejoin="round"/>
  <path d="M529.90,362.00 L529.90,398.00 L498.73,416.00 L467.55,398.00 L467.55,362.00 L498.73,344.00 Z" fill="none" stroke="#1A1A1A" stroke-width="2.5" stroke-linejoin="round"/>
  <path d="M595.72,362.00 L595.72,398.00 L564.54,416.00 L533.37,398.00 L533.37,362.00 L564.54,344.00 Z" fill="none" stroke="#1A1A1A" stroke-width="2.5" stroke-linejoin="round"/>
  <path d="M661.54,362.00 L661.54,398.00 L630.36,416.00 L599.18,398.00 L599.18,362.00 L630.36,344.00 Z" fill="none" stroke="#1A1A1A" stroke-width="2.5" stroke-linejoin="round"/>
  <path d="M727.36,362.00 L727.36,398.00 L696.18,416.00 L665.00,398.00 L665.00,362.00 L696.18,344.00 Z" fill="none" stroke="#1A1A1A" stroke-width="2.5" stroke-linejoin="round"/>
  <path d="M102.09,419.00 L102.09,455.00 L70.91,473.00 L39.73,455.00 L39.73,419.00 L70.91,401.00 Z" fill="none" stroke="#1A1A1A" stroke-width="2.5" stroke-linejoin="round"/>
  <path d="M167.90,419.00 L167.90,455.00 L136.73,473.00 L105.55,455.00 L105.55,419.00 L136.73,401.00 Z" fill="none" stroke="#1A1A1A" stroke-width="2.5" stroke-linejoin="round"/>
  <path d="M233.72,419.00 L233.72,455.00 L202.54,473.00 L171.37,455.00 L171.37,419.00 L202.54,401.00 Z" fill="none" stroke="#1A1A1A" stroke-width="2.5" stroke-linejoin="round"/>
  <path d="M299.54,419.00 L299.54,455.00 L268.36,473.00 L237.19,455.00 L237.19,419.00 L268.36,401.00 Z" fill="none" stroke="#1A1A1A" stroke-width="2.5" stroke-linejoin="round"/>
  <path d="M365.36,419.00 L365.36,455.00 L334.18,473.00 L303.00,455.00 L303.00,419.00 L334.18,401.00 Z" fill="none" stroke="#1A1A1A" stroke-width="2.5" stroke-linejoin="round"/>
  <path d="M431.18,419.00 L431.18,455.00 L400.00,473.00 L368.82,455.00 L368.82,419.00 L400.00,401.00 Z" fill="none" stroke="#1A1A1A" stroke-width="2.5" stroke-linejoin="round"/>
  <path d="M496.99,419.00 L496.99,455.00 L465.82,473.00 L434.64,455.00 L434.64,419.00 L465.82,401.00 Z" fill="none" stroke="#1A1A1A" stroke-width="2.5" stroke-linejoin="round"/>
  <path d="M562.81,419.00 L562.81,455.00 L531.63,473.00 L500.46,455.00 L500.46,419.00 L531.63,401.00 Z" fill="none" stroke="#1A1A1A" stroke-width="2.5" stroke-linejoin="round"/>
  <path d="M628.63,419.00 L628.63,455.00 L597.45,473.00 L566.28,455.00 L566.28,419.00 L597.45,401.00 Z" fill="none" stroke="#1A1A1A" stroke-width="2.5" stroke-linejoin="round"/>
  <path d="M694.45,419.00 L694.45,455.00 L663.27,473.00 L632.09,455.00 L632.09,419.00 L663.27,401.00 Z" fill="none" stroke="#1A1A1A" stroke-width="2.5" stroke-linejoin="round"/>
  <path d="M760.27,419.00 L760.27,455.00 L729.09,473.00 L697.91,455.00 L697.91,419.00 L729.09,401.00 Z" fill="none" stroke="#1A1A1A" stroke-width="2.5" stroke-linejoin="round"/>
  <path d="M69.18,476.00 L69.18,512.00 L38.00,530.00 L6.82,512.00 L6.82,476.00 L38.00,458.00 Z" fill="none" stroke="#1A1A1A" stroke-width="2.5" stroke-linejoin="round"/>
  <path d="M134.99,476.00 L134.99,512.00 L103.82,530.00 L72.64,512.00 L72.64,476.00 L103.82,458.00 Z" fill="none" stroke="#1A1A1A" stroke-width="2.5" stroke-linejoin="round"/>
  <path d="M200.81,476.00 L200.81,512.00 L169.64,530.00 L138.46,512.00 L138.46,476.00 L169.64,458.00 Z" fill="none" stroke="#1A1A1A" stroke-width="2.5" stroke-linejoin="round"/>
  <path d="M266.63,476.00 L266.63,512.00 L235.45,530.00 L204.28,512.00 L204.28,476.00 L235.45,458.00 Z" fill="none" stroke="#1A1A1A" stroke-width="2.5" stroke-linejoin="round"/>
  <path d="M332.45,476.00 L332.45,512.00 L301.27,530.00 L270.09,512.00 L270.09,476.00 L301.27,458.00 Z" fill="none" stroke="#1A1A1A" stroke-width="2.5" stroke-linejoin="round"/>
  <path d="M398.27,476.00 L398.27,512.00 L367.09,530.00 L335.91,512.00 L335.91,476.00 L367.09,458.00 Z" fill="none" stroke="#1A1A1A" stroke-width="2.5" stroke-linejoin="round"/>
  <path d="M464.08,476.00 L464.08,512.00 L432.91,530.00 L401.73,512.00 L401.73,476.00 L432.91,458.00 Z" fill="none" stroke="#1A1A1A" stroke-width="2.5" stroke-linejoin="round"/>
  <path d="M529.90,476.00 L529.90,512.00 L498.73,530.00 L467.55,512.00 L467.55,476.00 L498.73,458.00 Z" fill="none" stroke="#1A1A1A" stroke-width="2.5" stroke-linejoin="round"/>
  <path d="M595.72,476.00 L595.72,512.00 L564.54,530.00 L533.37,512.00 L533.37,476.00 L564.54,458.00 Z" fill="none" stroke="#1A1A1A" stroke-width="2.5" stroke-linejoin="round"/>
  <path d="M661.54,476.00 L661.54,512.00 L630.36,530.00 L599.18,512.00 L599.18,476.00 L630.36,458.00 Z" fill="none" stroke="#1A1A1A" stroke-width="2.5" stroke-linejoin="round"/>
  <path d="M727.36,476.00 L727.36,512.00 L696.18,530.00 L665.00,512.00 L665.00,476.00 L696.18,458.00 Z" fill="none" stroke="#1A1A1A" stroke-width="2.5" stroke-linejoin="round"/>
  <path d="M102.09,533.00 L102.09,569.00 L70.91,587.00 L39.73,569.00 L39.73,533.00 L70.91,515.00 Z" fill="none" stroke="#1A1A1A" stroke-width="2.5" stroke-linejoin="round"/>
  <path d="M167.90,533.00 L167.90,569.00 L136.73,587.00 L105.55,569.00 L105.55,533.00 L136.73,515.00 Z" fill="none" stroke="#1A1A1A" stroke-width="2.5" stroke-linejoin="round"/>
  <path d="M233.72,533.00 L233.72,569.00 L202.54,587.00 L171.37,569.00 L171.37,533.00 L202.54,515.00 Z" fill="none" stroke="#1A1A1A" stroke-width="2.5" stroke-linejoin="round"/>
  <path d="M299.54,533.00 L299.54,569.00 L268.36,587.00 L237.19,569.00 L237.19,533.00 L268.36,515.00 Z" fill="none" stroke="#1A1A1A" stroke-width="2.5" stroke-linejoin="round"/>
  <path d="M365.36,533.00 L365.36,569.00 L334.18,587.00 L303.00,569.00 L303.00,533.00 L334.18,515.00 Z" fill="none" stroke="#1A1A1A" stroke-width="2.5" stroke-linejoin="round"/>
  <path d="M431.18,533.00 L431.18,569.00 L400.00,587.00 L368.82,569.00 L368.82,533.00 L400.00,515.00 Z" fill="none" stroke="#1A1A1A" stroke-width="2.5" stroke-linejoin="round"/>
  <path d="M496.99,533.00 L496.99,569.00 L465.82,587.00 L434.64,569.00 L434.64,533.00 L465.82,515.00 Z" fill="none" stroke="#1A1A1A" stroke-width="2.5" stroke-linejoin="round"/>
  <path d="M562.81,533.00 L562.81,569.00 L531.63,587.00 L500.46,569.00 L500.46,533.00 L531.63,515.00 Z" fill="none" stroke="#1A1A1A" stroke-width="2.5" stroke-linejoin="round"/>
  <path d="M628.63,533.00 L628.63,569.00 L597.45,587.00 L566.28,569.00 L566.28,533.00 L597.45,515.00 Z" fill="none" stroke="#1A1A1A" stroke-width="2.5" stroke-linejoin="round"/>
  <path d="M694.45,533.00 L694.45,569.00 L663.27,587.00 L632.09,569.00 L632.09,533.00 L663.27,515.00 Z" fill="none" stroke="#1A1A1A" stroke-width="2.5" stroke-linejoin="round"/>
  <path d="M760.27,533.00 L760.27,569.00 L729.09,587.00 L697.91,569.00 L697.91,533.00 L729.09,515.00 Z" fill="none" stroke="#1A1A1A" stroke-width="2.5" stroke-linejoin="round"/>
  <path d="M69.18,590.00 L69.18,626.00 L38.00,644.00 L6.82,626.00 L6.82,590.00 L38.00,572.00 Z" fill="none" stroke="#1A1A1A" stroke-width="2.5" stroke-linejoin="round"/>
  <path d="M134.99,590.00 L134.99,626.00 L103.82,644.00 L72.64,626.00 L72.64,590.00 L103.82,572.00 Z" fill="none" stroke="#1A1A1A" stroke-width="2.5" stroke-linejoin="round"/>
  <path d="M200.81,590.00 L200.81,626.00 L169.64,644.00 L138.46,626.00 L138.46,590.00 L169.64,572.00 Z" fill="none" stroke="#1A1A1A" stroke-width="2.5" stroke-linejoin="round"/>
  <path d="M266.63,590.00 L266.63,626.00 L235.45,644.00 L204.28,626.00 L204.28,590.00 L235.45,572.00 Z" fill="none" stroke="#1A1A1A" stroke-width="2.5" stroke-linejoin="round"/>
  <path d="M332.45,590.00 L332.45,626.00 L301.27,644.00 L270.09,626.00 L270.09,590.00 L301.27,572.00 Z" fill="none" stroke="#1A1A1A" stroke-width="2.5" stroke-linejoin="round"/>
  <path d="M398.27,590.00 L398.27,626.00 L367.09,644.00 L335.91,626.00 L335.91,590.00 L367.09,572.00 Z" fill="none" stroke="#1A1A1A" stroke-width="2.5" stroke-linejoin="round"/>
  <path d="M464.08,590.00 L464.08,626.00 L432.91,644.00 L401.73,626.00 L401.73,590.00 L432.91,572.00 Z" fill="none" stroke="#1A1A1A" stroke-width="2.5" stroke-linejoin="round"/>
  <path d="M529.90,590.00 L529.90,626.00 L498.73,644.00 L467.55,626.00 L467.55,590.00 L498.73,572.00 Z" fill="none" stroke="#1A1A1A" stroke-width="2.5" stroke-linejoin="round"/>
  <path d="M595.72,590.00 L595.72,626.00 L564.54,644.00 L533.37,626.00 L533.37,590.00 L564.54,572.00 Z" fill="none" stroke="#1A1A1A" stroke-width="2.5" stroke-linejoin="round"/>
  <path d="M661.54,590.00 L661.54,626.00 L630.36,644.00 L599.18,626.00 L599.18,590.00 L630.36,572.00 Z" fill="none" stroke="#1A1A1A" stroke-width="2.5" stroke-linejoin="round"/>
  <path d="M727.36,590.00 L727.36,626.00 L696.18,644.00 L665.00,626.00 L665.00,590.00 L696.18,572.00 Z" fill="none" stroke="#1A1A1A" stroke-width="2.5" stroke-linejoin="round"/>
  <path d="M102.09,647.00 L102.09,683.00 L70.91,701.00 L39.73,683.00 L39.73,647.00 L70.91,629.00 Z" fill="none" stroke="#1A1A1A" stroke-width="2.5" stroke-linejoin="round"/>
  <path d="M167.90,647.00 L167.90,683.00 L136.73,701.00 L105.55,683.00 L105.55,647.00 L136.73,629.00 Z" fill="none" stroke="#1A1A1A" stroke-width="2.5" stroke-linejoin="round"/>
  <path d="M233.72,647.00 L233.72,683.00 L202.54,701.00 L171.37,683.00 L171.37,647.00 L202.54,629.00 Z" fill="none" stroke="#1A1A1A" stroke-width="2.5" stroke-linejoin="round"/>
  <path d="M299.54,647.00 L299.54,683.00 L268.36,701.00 L237.19,683.00 L237.19,647.00 L268.36,629.00 Z" fill="none" stroke="#1A1A1A" stroke-width="2.5" stroke-linejoin="round"/>
  <path d="M365.36,647.00 L365.36,683.00 L334.18,701.00 L303.00,683.00 L303.00,647.00 L334.18,629.00 Z" fill="none" stroke="#1A1A1A" stroke-width="2.5" stroke-linejoin="round"/>
  <path d="M431.18,647.00 L431.18,683.00 L400.00,701.00 L368.82,683.00 L368.82,647.00 L400.00,629.00 Z" fill="none" stroke="#1A1A1A" stroke-width="2.5" stroke-linejoin="round"/>
  <path d="M496.99,647.00 L496.99,683.00 L465.82,701.00 L434.64,683.00 L434.64,647.00 L465.82,629.00 Z" fill="none" stroke="#1A1A1A" stroke-width="2.5" stroke-linejoin="round"/>
  <path d="M562.81,647.00 L562.81,683.00 L531.63,701.00 L500.46,683.00 L500.46,647.00 L531.63,629.00 Z" fill="none" stroke="#1A1A1A" stroke-width="2.5" stroke-linejoin="round"/>
  <path d="M628.63,647.00 L628.63,683.00 L597.45,701.00 L566.28,683.00 L566.28,647.00 L597.45,629.00 Z" fill="none" stroke="#1A1A1A" stroke-width="2.5" stroke-linejoin="round"/>
  <path d="M694.45,647.00 L694.45,683.00 L663.27,701.00 L632.09,683.00 L632.09,647.00 L663.27,629.00 Z" fill="none" stroke="#1A1A1A" stroke-width="2.5" stroke-linejoin="round"/>
  <path d="M760.27,647.00 L760.27,683.00 L729.09,701.00 L697.91,683.00 L697.91,647.00 L729.09,629.00 Z" fill="none" stroke="#1A1A1A" stroke-width="2.5" stroke-linejoin="round"/>
  <path d="M69.18,704.00 L69.18,740.00 L38.00,758.00 L6.82,740.00 L6.82,704.00 L38.00,686.00 Z" fill="none" stroke="#1A1A1A" stroke-width="2.5" stroke-linejoin="round"/>
  <path d="M134.99,704.00 L134.99,740.00 L103.82,758.00 L72.64,740.00 L72.64,704.00 L103.82,686.00 Z" fill="none" stroke="#1A1A1A" stroke-width="2.5" stroke-linejoin="round"/>
  <path d="M200.81,704.00 L200.81,740.00 L169.64,758.00 L138.46,740.00 L138.46,704.00 L169.64,686.00 Z" fill="none" stroke="#1A1A1A" stroke-width="2.5" stroke-linejoin="round"/>
  <path d="M266.63,704.00 L266.63,740.00 L235.45,758.00 L204.28,740.00 L204.28,704.00 L235.45,686.00 Z" fill="none" stroke="#1A1A1A" stroke-width="2.5" stroke-linejoin="round"/>
  <path d="M332.45,704.00 L332.45,740.00 L301.27,758.00 L270.09,740.00 L270.09,704.00 L301.27,686.00 Z" fill="none" stroke="#1A1A1A" stroke-width="2.5" stroke-linejoin="round"/>
  <path d="M398.27,704.00 L398.27,740.00 L367.09,758.00 L335.91,740.00 L335.91,704.00 L367.09,686.00 Z" fill="none" stroke="#1A1A1A" stroke-width="2.5" stroke-linejoin="round"/>
  <path d="M464.08,704.00 L464.08,740.00 L432.91,758.00 L401.73,740.00 L401.73,704.00 L432.91,686.00 Z" fill="none" stroke="#1A1A1A" stroke-width="2.5" stroke-linejoin="round"/>
  <path d="M529.90,704.00 L529.90,740.00 L498.73,758.00 L467.55,740.00 L467.55,704.00 L498.73,686.00 Z" fill="none" stroke="#1A1A1A" stroke-width="2.5" stroke-linejoin="round"/>
  <path d="M595.72,704.00 L595.72,740.00 L564.54,758.00 L533.37,740.00 L533.37,704.00 L564.54,686.00 Z" fill="none" stroke="#1A1A1A" stroke-width="2.5" stroke-linejoin="round"/>
  <path d="M661.54,704.00 L661.54,740.00 L630.36,758.00 L599.18,740.00 L599.18,704.00 L630.36,686.00 Z" fill="none" stroke="#1A1A1A" stroke-width="2.5" stroke-linejoin="round"/>
  <path d="M727.36,704.00 L727.36,740.00 L696.18,758.00 L665.00,740.00 L665.00,704.00 L696.18,686.00 Z" fill="none" stroke="#1A1A1A" stroke-width="2.5" stroke-linejoin="round"/>
</svg>