<svg xmlns="http://www.w3.org/2000/svg" viewBox="0 0 476 600" version="1.1" preserveAspectRatio="xMidYMid meet">
	<path d="M 85.861 0.473 C 84.953 1.380, 73.440 2.445, 66 2.309 C 19.959 1.469, 0 3.180, 0 7.967 C -0 9.703, 1.965 10.089, 4.229 8.796 C 7.970 6.661, 32.073 5.690, 66 6.309 C 79.851 6.562, 91.321 3.946, 89.473 0.956 C 88.854 -0.045, 86.671 -0.338, 85.861 0.473 M 92.570 0.887 C 91.219 3.073, 99.451 6.525, 109.750 8.091 C 121.069 9.813, 121 12.602, 109.500 18.334 C 100.590 22.775, 95.882 22.845, 92.633 18.586 C 87.924 12.412, 78.485 15.997, 79.428 23.601 C 79.661 25.485, 79.513 26.817, 79.098 26.561 C 78.684 26.304, 76.647 28.125, 74.572 30.607 C 70.543 35.428, 70.140 40.212, 73.526 43.022 C 74.337 43.695, 75 44.769, 75 45.410 C 75 46.977, 83.868 55.328, 87 56.710 C 93.807 59.715, 97.680 60.759, 99.092 59.968 C 99.925 59.502, 101.707 58.966, 103.053 58.775 C 104.399 58.585, 107.500 56.968, 109.945 55.182 C 112.389 53.397, 115.013 52.175, 115.776 52.468 C 116.539 52.760, 117.571 53, 118.069 53 C 118.567 53, 120.111 54.800, 121.500 57 C 122.889 59.200, 124.694 61, 125.513 61 C 128.845 61, 124.636 67.792, 114 79.580 C 109.042 85.076, 108.327 86.455, 106.746 93.588 C 105.008 101.429, 99.160 114.646, 96.751 116.175 C 94.505 117.601, 91.531 117.046, 87.785 114.500 C 85.762 113.125, 83.388 112, 82.510 112 C 81.632 112, 78.925 109.841, 76.493 107.201 C 73.869 104.352, 69.579 101.211, 65.935 99.469 L 59.797 96.535 57.518 99.184 C 55.395 101.652, 54.826 101.795, 49.156 101.280 C 41.468 100.583, 35.258 105.343, 36.496 110.983 C 37.071 113.599, 36.877 114, 35.039 114 C 33.873 114, 31.700 114.868, 30.210 115.929 C 27.917 117.561, 26.730 117.724, 22.500 116.988 C 6.402 114.190, 2.815 116.311, 2.730 128.679 C 2.697 133.387, 3.369 138.801, 4.418 142.281 L 6.160 148.061 3.080 154.643 C -0.725 162.774, -0.747 164.621, 2.887 170.684 C 4.476 173.333, 6.849 177.525, 8.163 180 C 10.136 183.718, 11.053 184.507, 13.438 184.539 C 16.592 184.582, 17.937 187.152, 20.164 197.398 C 20.750 200.092, 22.298 204.592, 23.605 207.398 C 25.531 211.535, 25.982 214.152, 25.990 221.234 C 26.008 237.101, 32.148 239.964, 42.476 228.922 C 50.384 220.468, 52.966 220.074, 58.338 226.500 C 62.765 231.796, 64.129 232.032, 67 228 C 71.517 221.657, 79.241 230.078, 75.706 237.491 C 74.768 239.458, 74 241.926, 74 242.975 C 74 246.827, 71.728 246.056, 65.524 240.098 C 58.887 233.726, 55.534 232.573, 50.878 235.065 C 46.203 237.567, 46.630 240.878, 52.643 248.756 C 57.309 254.868, 58.999 259.284, 59.004 265.372 C 59.006 268.744, 59.696 271.630, 61.019 273.799 C 63.280 277.508, 63.567 279.718, 62.540 285.500 C 61.458 291.588, 65.102 294.820, 70.504 292.563 C 75.661 290.408, 76 290.526, 76 294.465 C 76 298.913, 81.038 305, 84.719 305 C 86.101 305, 89.317 305.667, 91.866 306.483 C 94.415 307.298, 97.700 308.198, 99.167 308.481 C 100.634 308.764, 104.451 311.229, 107.649 313.958 C 110.847 316.688, 116.035 320.176, 119.178 321.710 C 127.523 325.784, 127.863 330.353, 119.750 329.401 C 113.150 328.627, 109.851 331.182, 111.833 335.532 C 112.852 337.769, 112.725 338.154, 110.714 338.919 C 100.580 342.771, 99.899 349.371, 108.778 357.685 L 113.247 361.870 112.373 368.685 C 110.822 380.792, 112.218 396.645, 115.610 405.437 C 116.967 408.954, 109.212 402.159, 105.516 396.592 C 103.656 393.791, 100.839 390.259, 99.256 388.743 L 96.376 385.986 89.599 387.659 C 83.183 389.242, 82.557 389.236, 77.835 387.538 C 70.207 384.795, 66.164 387.757, 62.570 398.722 C 60.610 404.701, 61.204 418.419, 63.630 423.200 C 64.383 424.686, 65 428.024, 65 430.618 C 65 449.899, 72.856 462, 85.374 462 C 89.468 462, 91.317 463.467, 93.567 468.500 C 94.550 470.700, 96.206 473.738, 97.246 475.250 L 99.136 478 94.318 477.990 C 91.668 477.985, 85.106 478.525, 79.736 479.190 C 71.902 480.159, 66.958 480.132, 54.736 479.053 C 46.356 478.313, 32.075 477.343, 23 476.898 C 13.925 476.452, 5.150 475.955, 3.500 475.794 C 1.430 475.591, 0.500 475.943, 0.500 476.928 C 0.500 478.807, 4.619 479.965, 15 481.006 L 23.500 481.858 14.500 481.428 C 9.550 481.191, 4.375 480.885, 3 480.749 C 1.334 480.583, 0.500 481, 0.500 482 C 0.500 484.429, 8.346 485.781, 23 485.877 C 30.425 485.926, 41.225 486.404, 47 486.940 C 52.775 487.475, 73.025 488.385, 92 488.962 C 136.961 490.329, 140.796 490.673, 111 490.669 C 97.525 490.667, 75.475 490.064, 62 489.329 C 0.420 485.972, -2.435 485.965, 0.787 489.187 C 1.546 489.946, 8.381 490.666, 19.737 491.184 C 29.507 491.629, 48.525 492.595, 62 493.330 C 97.575 495.270, 159.199 496.090, 164.634 494.696 L 167.768 493.892 171.008 501.696 C 174.841 510.931, 180.251 521.853, 183.691 527.303 C 185.790 530.628, 186.530 532.898, 186.931 537.247 C 186.969 537.658, 188.504 539.683, 190.343 541.747 C 192.181 543.811, 195.657 548.875, 198.068 553 C 204.648 564.260, 212.021 571.206, 219.652 573.334 C 234.725 577.535, 269.374 578.136, 280.378 574.387 C 294.418 569.603, 305.833 550.917, 320.626 508.504 C 323.119 501.356, 325.337 495.330, 325.555 495.112 C 326.054 494.612, 336.384 496.690, 345.370 499.098 C 351.482 500.736, 356.676 500.946, 392.370 501.002 C 433.787 501.066, 468.701 501.569, 472.899 502.161 C 476.357 502.650, 476.669 500.229, 473.331 498.803 C 470.159 497.449, 454.383 497.098, 392.370 497.002 C 356.676 496.946, 351.482 496.736, 345.370 495.098 C 323.041 489.115, 323.394 488.951, 316.606 508.500 C 302.331 549.619, 292.572 566.232, 280.222 570.440 C 262.908 576.339, 218.279 572.283, 210.067 564.064 C 204.107 558.099, 182.117 519.043, 175.061 501.892 C 170.896 491.767, 168.512 489.523, 163.362 490.881 C 161.238 491.442, 154.325 491.846, 148 491.780 C 138.035 491.675, 137.234 491.552, 142 490.857 C 145.025 490.416, 150.163 490.112, 153.417 490.182 C 161.538 490.357, 165.575 486.367, 164.624 479.107 C 164.292 476.573, 163.814 468.875, 163.560 462 L 163.100 449.500 164.461 463.500 C 165.210 471.200, 165.862 477.803, 165.911 478.173 C 166.315 481.235, 171.499 485.002, 175.339 485.024 C 182.244 485.065, 187.754 486.818, 193.778 490.892 C 196.925 493.020, 200.625 495.087, 202 495.485 C 203.375 495.883, 207.331 497.769, 210.791 499.676 C 215.615 502.335, 218.996 503.372, 225.291 504.124 C 250.821 507.173, 255.835 506.326, 250.996 499.781 C 248.922 496.976, 248.780 496.146, 249.646 491.918 C 250.179 489.318, 250.263 486.240, 249.833 485.079 C 246.565 476.243, 247.863 467.882, 253.553 461.120 C 256.682 457.401, 258.580 457.197, 261.033 460.315 C 262.035 461.589, 264.577 463.407, 266.682 464.357 C 269.592 465.669, 270.946 467.137, 272.328 470.478 C 275.544 478.255, 290.136 486.626, 298.991 485.775 C 302.288 485.458, 304.616 485.747, 305.759 486.614 C 308.294 488.539, 313.124 488.249, 316 486 C 317.375 484.924, 319.259 484.034, 320.187 484.022 C 321.115 484.010, 324.439 480.977, 327.574 477.282 C 334.014 469.691, 339.504 464.989, 341.888 465.023 C 342.774 465.035, 342.011 465.779, 340.191 466.676 C 335.446 469.015, 330.212 475.823, 329.438 480.665 C 327.862 490.519, 342.782 495.426, 363.752 491.950 C 373.674 490.305, 403.663 490.341, 445.597 492.046 C 462.927 492.751, 471.539 492.745, 473.428 492.027 C 478.832 489.973, 475.617 488.835, 463.472 488.504 C 456.887 488.324, 434.622 487.649, 413.992 487.004 C 380.695 485.963, 375.547 486.009, 368.132 487.416 C 355.611 489.791, 335.851 488.819, 333.759 485.725 C 329.529 479.470, 339.843 467.355, 347.211 469.924 C 357.199 473.405, 363.997 470.996, 375.320 459.961 L 382.462 453 388.627 453 C 396.627 453, 401 448.908, 401 441.422 C 401 437.459, 401.544 436.333, 405.500 432.103 C 415.830 421.060, 405.739 393.779, 391.173 393.371 C 387.650 393.273, 386.209 392.725, 385.035 391.041 C 384.191 389.830, 382.294 387.413, 380.820 385.669 L 378.141 382.500 374.667 384.355 C 372.086 385.734, 368.536 386.294, 360.855 386.534 C 350.192 386.868, 346.661 388.517, 344.827 394.020 C 344.152 396.045, 340.341 393.499, 337.624 389.207 C 336.333 387.168, 333.639 383.545, 331.638 381.155 C 326.780 375.354, 326.878 374.914, 335.358 364.302 C 339.401 359.243, 343.701 352.718, 344.914 349.802 C 348.758 340.561, 350.438 337.816, 352.815 336.896 C 355.947 335.684, 355.495 335.493, 360.565 340.167 C 365.847 345.035, 371.691 345.858, 376.546 342.417 C 384.195 336.995, 384.409 336.911, 388.854 337.539 C 393.888 338.250, 396.787 336.246, 400.118 329.750 C 401.843 326.385, 402.441 326, 405.948 326 C 411.276 326, 414.028 322.625, 413.275 317.012 C 412.794 313.431, 412.997 312.952, 415.371 312.049 C 416.816 311.499, 418.898 309.576, 419.996 307.775 L 421.993 304.500 421.996 309.281 C 421.999 312.934, 421.587 314.209, 420.250 314.683 C 416.152 316.137, 414.908 318.204, 415.551 322.493 C 416.398 328.140, 414.595 329.648, 408.766 328.168 C 403.520 326.837, 400.500 329.078, 399.491 335.051 C 398.585 340.418, 397.025 341.386, 390.391 340.701 C 385.019 340.146, 384.669 340.261, 380.659 343.880 C 378.372 345.944, 374.321 348.884, 371.658 350.413 C 363.910 354.860, 362.044 360.609, 365.969 367.942 C 367.394 370.604, 385.870 379.290, 388.431 378.502 C 397.306 375.770, 396.966 375.675, 399.603 381.637 C 401.067 384.946, 403.103 387.727, 404.761 388.680 C 408.700 390.945, 413 396.873, 413 400.039 C 413 401.533, 413.675 403.315, 414.500 404 C 415.325 404.685, 416 406.288, 416 407.563 C 416 410.089, 417.374 411.325, 420.432 411.550 C 421.513 411.630, 422.557 412.101, 422.750 412.598 C 425.162 418.787, 426.747 420.575, 431.004 421.905 C 436.043 423.480, 436.949 424.398, 437.016 428 C 437.041 429.375, 438.175 432.300, 439.535 434.500 L 442.007 438.500 438.959 441.010 C 437.283 442.391, 435.940 444.416, 435.975 445.510 C 436.010 446.605, 436.151 449.916, 436.288 452.869 C 436.486 457.136, 436.071 458.870, 434.269 461.314 C 429.222 468.153, 433.260 473.557, 442.696 472.590 C 452.566 471.579, 458.651 472.732, 461.824 476.215 C 463.296 477.831, 465.492 480.243, 466.705 481.576 C 469.092 484.201, 473.769 484.831, 475.800 482.800 C 477.143 481.457, 477.398 479.937, 476.250 480.118 C 471.617 480.850, 468.802 479.779, 466.904 476.562 C 463.237 470.346, 458.993 468.641, 447 468.566 C 435.051 468.491, 433.758 467.428, 438.233 461.362 C 440.128 458.794, 440.530 457.025, 440.479 451.485 C 440.423 445.386, 440.686 444.468, 443.218 441.936 C 446.168 438.986, 445.922 436.290, 442.307 431.921 C 441.588 431.053, 441 429.175, 441 427.748 C 441 424.073, 436.557 419.195, 432.521 418.438 C 430.094 417.983, 428.841 417.031, 428.001 415.003 C 427.362 413.460, 425.816 411.236, 424.565 410.061 C 423.106 408.690, 422.445 407.125, 422.719 405.690 C 423.178 403.289, 419.441 397.609, 417.992 398.505 C 417.526 398.793, 416.860 398.135, 416.513 397.042 C 416.167 395.950, 413.254 392.385, 410.040 389.121 C 406.826 385.857, 403.593 381.516, 402.854 379.474 C 400.339 372.517, 397.767 371.635, 388.390 374.512 C 385.044 375.540, 369.332 367.390, 368.156 364.017 C 366.841 360.245, 369.080 355.522, 373.175 353.431 C 375.004 352.497, 378.372 350.021, 380.659 347.929 C 384.693 344.241, 384.989 344.143, 390.462 344.708 C 397.415 345.426, 402.374 341.667, 403.534 334.798 C 403.989 332.103, 404.618 331.023, 405.529 331.373 C 413.873 334.575, 420.797 330.385, 419.594 322.861 C 419.090 319.709, 419.310 319.036, 421.026 318.492 C 424.984 317.236, 426.318 313.601, 425.578 306.091 C 424.944 299.659, 425.103 298.833, 428.065 293.182 C 433.201 283.385, 433.029 277.528, 427.350 268.795 C 425.671 266.212, 425.672 265.779, 427.366 259.248 C 428.393 255.286, 428.856 251.274, 428.465 249.715 L 427.789 247.023 432.394 249.597 C 434.928 251.013, 437 252.729, 437 253.411 C 437 255.584, 441.529 259, 444.410 259 C 454.012 259, 459.658 245.013, 455.001 232.761 C 452.114 225.166, 452.373 224.211, 459.341 216.750 C 468.273 207.186, 467.903 206.444, 467.813 233.750 C 467.748 253.331, 468.020 258.290, 469.363 262 C 471.959 269.171, 472.488 276.320, 470.747 280.694 C 469.560 283.675, 469.218 289.325, 469.170 306.757 C 469.137 318.999, 468.842 329.447, 468.515 329.975 C 467.690 331.310, 470.479 341.555, 472.511 344.658 C 475.218 348.788, 476.458 346.112, 474.499 340.370 C 472.601 334.805, 472.682 336.616, 472.994 307 C 473.177 289.679, 473.580 283.624, 474.747 280.694 C 476.488 276.321, 475.959 269.173, 473.365 262 C 472.026 258.299, 471.750 253.329, 471.808 234 C 471.877 211.403, 471.799 210.415, 469.766 208.250 C 467.004 205.311, 466.747 205.357, 461.753 209.690 C 459.414 211.719, 461.471 209.314, 466.324 204.345 C 476.744 193.678, 476.948 192.990, 474.616 176.500 C 471.300 153.051, 467.394 147.378, 450.500 141.470 C 437.517 136.929, 434.297 137.497, 410.228 148.574 C 407.328 149.908, 403.645 151, 402.043 151 C 396.356 151, 394.199 152.634, 390.868 159.465 C 386.630 168.158, 384.005 168.045, 383.997 159.168 C 383.993 154.347, 378.290 131.142, 376.390 128.214 C 375.574 126.956, 371.102 121.913, 366.453 117.008 C 361.804 112.102, 358 107.654, 358 107.125 C 358 104.738, 347.739 95.042, 344.588 94.451 C 340.141 93.616, 333.625 95.508, 326.869 99.594 C 320.059 103.713, 319.552 103.774, 321.359 100.250 C 333.085 77.392, 336.005 62.581, 331.955 46.504 C 329.278 35.878, 327.203 32.994, 310.132 16.176 L 295.592 1.851 290.046 2.487 C 286.067 2.944, 283.449 2.682, 280.782 1.562 C 278.114 0.441, 273.737 0.004, 265.282 0.015 C 252.872 0.030, 252.643 0.093, 244.395 5.750 C 239.101 9.382, 236.516 9.777, 233.847 7.362 C 230.470 4.305, 227.935 7.922, 224.818 20.249 C 223.683 24.735, 221.910 30.377, 220.878 32.786 C 219.845 35.195, 218.984 39.266, 218.965 41.833 C 218.945 44.400, 218.290 47.625, 217.509 49 C 216.476 50.819, 216.253 53.340, 216.688 58.250 C 217.306 65.208, 216.828 66.057, 213.615 63.708 C 212.367 62.795, 211.687 60.520, 211.300 55.958 C 210.427 45.674, 206.217 41.957, 200.700 46.599 C 196.917 49.782, 192.654 49.418, 186.884 45.420 C 183.920 43.366, 182.411 42.923, 180.272 43.481 C 178.747 43.878, 175.025 44.422, 172 44.690 C 168.124 45.033, 165.762 45.856, 164 47.478 C 162.625 48.743, 158.800 50.543, 155.500 51.478 C 138.664 56.246, 111.008 84.487, 111.001 96.917 C 111 97.696, 110.767 98.101, 110.483 97.816 C 108.806 96.139, 112.677 86.123, 116.927 81.142 C 125.025 71.654, 130.949 63.542, 130.975 61.905 C 131.003 60.142, 127.969 57, 126.239 57 C 125.632 57, 124.872 56.171, 124.550 55.158 C 122.530 48.793, 115.713 46.967, 109.881 51.228 C 107.471 52.989, 104.399 54.585, 103.053 54.775 C 101.707 54.966, 99.925 55.502, 99.092 55.968 C 97.678 56.760, 93.726 55.693, 87 52.703 C 83.692 51.232, 80.013 47.980, 78.851 45.500 C 78.336 44.400, 77.265 42.375, 76.472 41 C 74.229 37.113, 74.650 34.502, 77.750 33.053 C 79.263 32.346, 81.175 31.425, 82 31.005 C 83.077 30.457, 83.451 28.800, 83.326 25.121 C 83.081 17.941, 86.318 16.952, 91.977 22.477 C 95.566 25.982, 96.065 26.167, 100.150 25.505 C 109.963 23.915, 122 15.600, 122 10.410 C 122 7.004, 119.714 5.877, 108.847 3.925 C 103.268 2.923, 98.230 1.630, 97.652 1.052 C 96.370 -0.230, 93.321 -0.329, 92.570 0.887 M 258.910 3.940 C 252.493 4.480, 250.715 5.053, 247.410 7.645 C 240.225 13.279, 236.381 14.369, 233.965 11.458 C 232.097 9.207, 231.250 10.630, 228.881 20 C 227.712 24.623, 225.910 30.377, 224.878 32.786 C 223.845 35.195, 222.984 39.266, 222.965 41.833 C 222.945 44.400, 222.290 47.625, 221.509 49 C 220.476 50.820, 220.253 53.340, 220.689 58.261 C 221.629 68.851, 217.991 71.768, 211.388 65.716 C 208.114 62.716, 207.757 61.845, 207.258 55.630 C 206.616 47.633, 205.388 46.654, 200.820 50.498 C 196.910 53.788, 192.719 53.463, 186.884 49.420 C 183.920 47.366, 182.411 46.923, 180.272 47.481 C 178.747 47.878, 175.025 48.422, 172 48.690 C 168.112 49.034, 165.767 49.854, 164 51.487 C 162.625 52.758, 159.250 54.483, 156.500 55.320 L 151.500 56.842 156 56.359 C 158.475 56.093, 163.425 55.256, 167 54.500 C 180.933 51.552, 184.919 51.824, 197 56.546 C 205.649 59.926, 211.412 67.792, 212.892 78.238 C 213.409 81.889, 214.354 85.692, 214.991 86.688 C 216.063 88.363, 216.100 88.348, 215.477 86.500 C 211.877 75.819, 216.515 68.069, 222.354 75.008 L 224.885 78.017 224.360 70.758 C 224.071 66.766, 223.422 62.195, 222.918 60.601 C 221.638 56.557, 221.793 53.158, 223.471 48.500 C 224.264 46.300, 224.932 42.891, 224.956 40.925 C 225.075 31.283, 231.685 18.770, 238.500 15.289 C 240.150 14.446, 244.200 11.907, 247.500 9.646 L 253.500 5.534 264.500 5.495 C 273.036 5.465, 276.566 5.882, 280.260 7.356 C 283.819 8.776, 286.260 9.091, 289.931 8.604 L 294.841 7.952 307.621 19.959 C 314.651 26.563, 321.662 33.841, 323.201 36.133 C 324.740 38.426, 325.998 39.896, 325.996 39.400 C 325.985 37.078, 319.423 29.333, 308 18.162 L 295.500 5.936 289.995 6.538 C 285.685 7.009, 283.443 6.690, 279.663 5.070 C 274.724 2.953, 272.250 2.818, 258.910 3.940 M 255.500 12.021 C 253.850 12.558, 248.941 15.585, 244.591 18.749 L 236.682 24.500 233.881 33 C 226.888 54.227, 226.852 54.401, 227.524 63.730 C 228.120 72.010, 232.255 87.652, 235.541 94.058 C 238.853 100.516, 254.955 114.398, 262.811 117.569 C 265.940 118.831, 270.157 121.245, 272.183 122.932 C 276.719 126.711, 276.944 126.712, 280.521 122.978 C 282.114 121.315, 285.911 119.042, 288.958 117.926 C 309.811 110.292, 327.087 73.778, 321.423 49.312 C 318.119 35.042, 299.460 15, 289.478 15 C 287.153 15, 283.282 14.293, 280.876 13.429 C 275.616 11.541, 259.690 10.657, 255.500 12.021 M 176.848 60.917 C 175.390 61.389, 170.440 62.100, 165.848 62.499 C 149.902 63.882, 143.515 66.709, 134.039 76.579 C 118.095 93.187, 113.255 112.003, 121.492 125.360 C 131.467 141.536, 134.072 145.329, 138.584 150.252 C 141.380 153.302, 145.880 156.927, 148.584 158.306 C 154.941 161.549, 158.393 165.297, 160.734 171.500 C 161.772 174.250, 164.056 178.480, 165.811 180.900 C 167.565 183.320, 169 186.150, 169 187.190 C 169 193.124, 178.596 204.729, 188.312 210.544 C 196.662 215.541, 210.404 216.398, 218.232 212.410 C 228.077 207.395, 233.303 210.804, 228.598 219.173 C 224.090 227.192, 226.437 237.757, 231.640 232.869 C 234.281 230.387, 238 232.275, 238 236.098 C 238 237.969, 234.207 241.246, 232.944 240.465 C 232.064 239.922, 230.661 244.995, 231.468 245.801 C 231.779 246.112, 232.566 245.834, 233.217 245.183 C 236.711 241.689, 245.028 245.429, 247.635 251.668 C 248.400 253.501, 249.428 255, 249.919 255 C 250.409 255, 252.696 256.575, 255 258.500 C 257.304 260.425, 259.752 262, 260.440 262 C 262.475 262, 265 265.460, 265 268.248 C 265 270.184, 263.171 272.518, 257.750 277.495 C 246.398 287.918, 243.454 288.778, 237.183 283.500 C 233.811 280.663, 233 280.436, 233 282.326 C 233 283.055, 231.913 284.672, 230.585 285.920 C 227.333 288.975, 224.796 288.018, 220.818 282.236 C 217.263 277.069, 216.011 277.975, 218.073 284.222 C 219.843 289.585, 217.986 293.113, 212.698 294.431 C 204.784 296.403, 200.938 289.451, 204.939 280.405 C 206.073 277.842, 207 274.964, 207 274.008 C 207 273.052, 207.903 271.122, 209.006 269.720 L 211.011 267.170 207.448 264.968 C 205.371 263.684, 202.589 260.470, 200.778 257.260 L 197.670 251.754 190.392 252.414 L 183.114 253.073 180.809 249.955 C 178.272 246.524, 174.949 246.293, 168.254 249.083 C 161.570 251.868, 160.783 248.181, 166.706 241.831 C 172.722 235.382, 173.529 233.457, 171.513 230.380 C 169.047 226.616, 164.978 225.057, 158.933 225.559 C 155.972 225.805, 152.189 225.595, 150.525 225.092 C 148.861 224.590, 144.912 223.946, 141.750 223.661 L 136 223.145 136 227.649 C 136 231.321, 135.445 232.708, 133 235.154 C 129.371 238.783, 129.262 239.777, 132.405 240.566 C 136.666 241.635, 139.334 245.408, 138.599 249.326 L 137.954 252.764 144.466 253.179 C 154.695 253.830, 159.721 259.278, 155.565 265.210 C 153.447 268.234, 153.006 267.464, 162.406 277.153 C 176.650 291.834, 178.277 303.613, 166.217 304.741 C 160.196 305.304, 151.691 296.087, 146.894 283.801 C 146.188 281.993, 144.629 280.710, 142.170 279.915 C 140.152 279.261, 136.380 277.665, 133.789 276.367 C 127.427 273.178, 107.756 272.491, 101.652 275.244 L 97.805 276.979 100.522 280.209 C 102.977 283.126, 103.183 283.972, 102.660 288.977 L 102.081 294.517 108.791 300.583 C 117.404 308.372, 119.739 309.848, 126.087 311.523 C 131.770 313.022, 137.447 317.662, 138.441 321.620 C 138.895 323.432, 139.720 324, 141.894 324 C 143.465 324, 146.092 324.268, 147.732 324.596 C 150.588 325.168, 150.742 325.018, 151.380 321.026 C 153.295 309.051, 159.812 307.140, 171.250 315.199 C 176.434 318.851, 173.577 329, 167.365 329 C 165.426 329, 165.649 330.468, 168.584 337.008 C 171.308 343.078, 172.896 343.955, 181.215 343.989 C 190.335 344.026, 194.566 356.483, 187.882 363.619 C 186.791 364.784, 185.118 367.934, 184.164 370.619 C 182.783 374.510, 181.424 376.170, 177.466 378.805 C 171.796 382.578, 169.199 389.211, 169.068 400.250 L 169 406 173.386 406 C 175.798 406, 179.060 405.328, 180.636 404.506 C 182.211 403.685, 184.175 403.010, 185 403.008 C 186.604 403.003, 201 417.241, 201 418.833 C 201 419.356, 202.238 420.080, 203.750 420.444 C 205.262 420.807, 208.413 422.459, 210.751 424.115 C 216.608 428.263, 220.614 428.748, 226.062 425.968 C 230.016 423.951, 231.386 423.789, 239.830 424.344 C 261.036 425.737, 272.169 415.850, 274.896 393.204 C 276.119 383.043, 281.004 380.539, 292.910 383.970 C 295.644 384.757, 297.205 384.561, 300.787 382.976 C 306.271 380.550, 309.944 380.528, 316.750 382.879 C 322.869 384.993, 322.975 384.874, 319 380.347 C 314.696 375.445, 315.133 373.246, 322.250 364.025 C 332.069 351.302, 332.937 349.953, 334.094 345.599 C 334.693 343.345, 336.154 339.925, 337.341 338 C 339.140 335.084, 339.510 332.915, 339.562 325 C 339.619 316.321, 339.862 315.156, 342.374 311.519 C 345.187 307.447, 345.333 305.049, 343.387 294.838 C 342.827 291.900, 336.454 288.215, 327.157 285.454 C 324.041 284.529, 321.228 282.868, 319.805 281.113 C 316.860 277.482, 309.779 273.414, 302.892 271.397 C 291.179 267.966, 288.412 257.363, 297.649 251.310 C 298.942 250.463, 300 248.912, 300 247.863 C 300 244.267, 310.967 235, 315.221 235 C 318.811 235, 318.914 234.904, 317.975 232.435 C 316.569 228.736, 316.775 225.432, 318.500 224 C 320.731 222.148, 320.340 220.151, 317 216.347 C 315.350 214.468, 314 212.031, 314 210.932 C 314 205.924, 324.183 191, 327.599 191 C 329.453 191, 334.993 197.819, 337.063 202.647 C 339.187 207.601, 341.114 208.104, 347.599 205.394 C 350.127 204.338, 352.878 203.986, 355.642 204.364 C 359.681 204.918, 359.996 204.759, 363.835 200.220 L 367.827 195.500 372.798 197.250 C 380.786 200.063, 381.454 199.800, 381.045 194 C 380.814 190.717, 377.352 181.319, 374.923 177.382 C 373.866 175.667, 372.993 173.417, 372.985 172.382 C 372.958 169.085, 371.238 167.207, 370.372 169.528 C 369.376 172.195, 361.985 180.937, 359.686 182.168 C 355.630 184.339, 353.746 180.523, 354.525 171.718 C 355.113 165.075, 354.957 163.610, 353.490 161.989 C 350.865 159.088, 354.586 150, 358.398 150 C 360.240 150, 363.773 154.150, 364.162 156.773 L 364.500 159.045 367.132 156.592 C 370.077 153.846, 370.265 149.209, 367.899 137.702 C 366.594 131.356, 360.416 124.743, 352.832 121.574 C 348.265 119.666, 346.714 117.686, 345.500 112.215 C 343.342 102.490, 337.661 104.464, 324 119.687 C 316.475 128.073, 316 129.004, 315.994 135.388 C 315.991 138.749, 315.506 143.240, 314.915 145.366 C 313.619 150.034, 314.236 152.921, 317.332 156.673 C 325.776 166.904, 323.842 173.961, 311.428 178.220 C 299.544 182.298, 291.101 181.375, 281.592 174.957 C 276.129 171.271, 276.235 171.267, 267.433 175.500 C 263.431 177.425, 259.667 179, 259.069 179 C 257.978 179, 253.820 185.244, 249.609 193.207 C 248.368 195.554, 245.857 198.348, 244.028 199.416 L 240.704 201.357 238.455 198.742 C 234.571 194.227, 234.199 186.712, 237.655 182.573 C 239.220 180.699, 241.268 178.057, 242.207 176.702 C 243.207 175.258, 245.334 173.972, 247.346 173.595 C 250.804 172.946, 252.729 169.959, 251.223 167.576 C 250.849 166.984, 250.682 164.013, 250.851 160.973 C 251.150 155.604, 251.063 155.396, 247.829 153.715 C 245.998 152.763, 242.025 149.958, 239 147.481 C 235.975 145.004, 232.150 142.258, 230.500 141.377 C 228.850 140.497, 226.040 138.390, 224.255 136.697 C 221.876 134.439, 219.936 133.562, 216.987 133.412 C 208.634 132.985, 204.616 127.102, 209.318 122.185 C 214.730 116.525, 215.029 103.284, 210.035 90.500 C 208.531 86.650, 206.990 81.510, 206.611 79.077 C 205.321 70.803, 201.346 65.394, 194.803 63.009 C 188.114 60.569, 180.624 59.697, 176.848 60.917 M 130.081 72.750 C 123.856 80.005, 123.047 81.220, 126.923 77.500 C 131.253 73.342, 139.670 63, 138.722 63 C 138.571 63, 134.683 67.388, 130.081 72.750 M 218 78.971 C 218 80.605, 219.350 85.642, 221 90.163 C 223.598 97.281, 224 99.746, 224 108.555 L 224 118.726 228.750 123.152 C 231.363 125.586, 236.425 129.328, 240 131.467 C 243.575 133.607, 247.745 136.379, 249.267 137.628 C 251.892 139.783, 252.244 139.825, 256.143 138.450 C 258.402 137.652, 261.265 137, 262.503 137 C 269.802 137, 268.400 129.342, 260.546 126.308 C 257.271 125.043, 252.996 122.516, 251.046 120.693 C 249.096 118.870, 245.827 116.156, 243.781 114.662 C 234.340 107.766, 226.313 96.758, 222.920 86.054 C 219.713 75.937, 218 73.472, 218 78.971 M 314.791 101.795 C 309.264 110.987, 305.942 114.280, 296.026 120.393 C 286.357 126.353, 287.824 126.285, 299.082 120.250 C 307.934 115.505, 310.564 115.192, 311.747 118.742 C 312.292 120.376, 299.339 133.698, 296.518 134.406 C 295.179 134.742, 292.694 137.038, 290.994 139.508 C 287.578 144.474, 286.171 144.952, 283.537 142.041 C 280.142 138.289, 280.298 131.548, 283.861 127.985 C 287.444 124.402, 284.911 124.464, 279.790 128.084 C 276.366 130.505, 275.741 130.484, 273.405 127.862 C 271.765 126.022, 266.229 123, 264.497 123 C 264.186 123, 265.521 124.397, 267.465 126.104 C 273.065 131.020, 269.624 141, 262.328 141 C 261.186 141, 258.402 141.652, 256.143 142.450 C 252.246 143.824, 251.891 143.782, 249.267 141.634 C 241.118 134.964, 238.936 134.816, 245.568 141.383 C 252.499 148.246, 254.865 149.184, 258.619 146.554 C 259.754 145.759, 262.821 144.570, 265.433 143.912 C 268.046 143.255, 271.483 141.623, 273.071 140.286 C 276.621 137.300, 277.441 137.765, 280.675 144.595 C 282.082 147.568, 283.835 150, 284.570 150 C 286.406 150, 291 147.838, 291 146.974 C 291 146.587, 291.946 145.067, 293.102 143.597 C 295.849 140.106, 298 141.683, 298 147.188 C 298 159.475, 307.152 156.733, 311.072 143.272 C 312.225 139.313, 312.135 138.802, 309.652 135.219 C 306.175 130.202, 306.070 130.626, 313.073 121.454 C 320.386 111.876, 325.190 106.725, 330.400 102.879 C 335.956 98.778, 333.995 99.320, 325.919 104.118 C 316.458 109.738, 313.524 107.774, 318.070 98.863 C 321.585 91.972, 319.666 93.689, 314.791 101.795 M 230.823 96.500 C 234.227 103.101, 257.797 123.536, 259.752 121.581 C 260.072 121.261, 259.853 121, 259.267 121 C 257.393 121, 242.542 108.420, 236.057 101.340 C 232.611 97.578, 230.256 95.400, 230.823 96.500 M 347.677 100.772 C 348.875 101.723, 350.675 103.421, 351.677 104.547 C 352.680 105.673, 353.071 105.898, 352.547 105.047 C 350.749 102.126, 347.650 99, 346.576 99.022 C 345.984 99.034, 346.480 99.822, 347.677 100.772 M 58.047 103.450 C 55.942 105.690, 55.214 105.851, 49.570 105.324 C 41.891 104.607, 39.577 106.226, 40.586 111.609 C 41.391 115.898, 39.778 117.988, 35.628 118.036 C 33.894 118.056, 31.253 119.093, 29.701 120.362 L 26.903 122.652 30.918 124.463 C 34.480 126.069, 35.191 126.110, 37.217 124.825 C 38.473 124.028, 43.325 122.101, 48 120.544 C 52.675 118.986, 56.862 117.097, 57.305 116.346 C 59.433 112.738, 70.645 110.662, 72.958 113.449 C 73.619 114.246, 75.811 115.421, 77.830 116.060 C 79.848 116.699, 83.300 118.235, 85.500 119.474 C 98.216 126.633, 101.309 128.095, 102.645 127.583 C 104.215 126.980, 109.325 129.211, 112.250 131.776 C 113.450 132.828, 114 134.785, 114 138.005 C 114 141.564, 114.721 143.763, 116.982 147.100 C 119.542 150.878, 119.966 152.439, 119.982 158.140 C 119.999 164.510, 120.193 165.033, 124.750 171.004 C 133.053 181.883, 133.782 183.479, 131.565 185.929 C 130.534 187.068, 129.148 188, 128.485 188 C 127.822 188, 125.659 189.100, 123.678 190.443 C 120.859 192.357, 119.289 192.759, 116.439 192.296 C 107.835 190.900, 109.903 205.295, 119.283 212.090 C 124.232 215.675, 126.280 215.748, 128.463 212.416 C 129.394 210.996, 131.583 209.202, 133.328 208.430 C 135.073 207.658, 137.850 205.898, 139.500 204.518 C 143.160 201.458, 145.107 201.356, 147.584 204.093 C 150.289 207.081, 152.807 208.268, 158.500 209.234 C 161.250 209.701, 164.963 210.339, 166.750 210.651 C 170.943 211.384, 171.091 209.337, 167.173 204.785 C 163.097 200.048, 158.884 192.038, 153.970 179.686 C 150.058 169.851, 149.323 168.695, 145.862 166.930 C 143.768 165.862, 140.380 163.528, 138.332 161.744 C 134.475 158.384, 134.573 159.171, 138.707 164.762 C 140.034 166.555, 142.638 168.657, 144.493 169.433 C 146.349 170.208, 148.560 172.183, 149.408 173.822 C 156.168 186.895, 155.717 195.730, 148.429 192.982 C 144.870 191.640, 139 186.152, 139 184.167 C 139 183.375, 135.810 179.764, 131.911 176.142 C 122.882 167.755, 122.004 166.043, 122.715 158.206 C 123.503 149.514, 124.787 148.866, 130.692 154.176 L 135.500 158.500 131.231 153.752 C 128.883 151.140, 124.882 145.740, 122.340 141.752 C 119.798 137.763, 116.473 133.150, 114.951 131.500 C 111.645 127.917, 108.006 116.369, 107.985 109.392 C 107.969 103.982, 107.413 104.422, 103.427 113 C 99.701 121.018, 94.491 122.915, 87.996 118.616 C 85.822 117.177, 83.269 116, 82.322 116 C 81.376 116, 78.547 113.811, 76.035 111.135 C 72.463 107.331, 62.889 101, 60.708 101 C 60.510 101, 59.313 102.103, 58.047 103.450 M 461.410 104.246 C 456.289 110.178, 451.158 120.828, 452.430 122.886 C 452.681 123.293, 452.015 124.947, 450.950 126.562 C 446.331 133.569, 450.728 141, 459.494 141 C 463.372 141, 464.206 141.448, 467.323 145.200 C 473.248 152.333, 476.683 143.191, 472.471 131.500 C 471.679 129.300, 470.988 124.575, 470.938 121 C 470.761 108.576, 465.563 99.436, 461.410 104.246 M 346.749 105.320 C 347.931 106.872, 349.181 110.022, 349.525 112.320 C 350.084 116.046, 350.600 116.691, 354.272 118.260 L 358.392 120.019 355.806 117.260 C 354.384 115.742, 352.318 112.700, 351.216 110.500 C 350.114 108.300, 348.175 105.600, 346.906 104.500 L 344.600 102.500 346.749 105.320 M 329.860 107.276 C 324.891 111.066, 310.970 128.576, 311.063 130.918 C 311.101 131.862, 311.515 131.528, 312.090 130.091 C 313.388 126.845, 325.957 112.139, 331.244 107.679 C 336.584 103.175, 335.609 102.891, 329.860 107.276 M 461.292 109.819 C 458.978 112.949, 455.712 121.725, 456.430 122.886 C 456.681 123.293, 456.015 124.947, 454.950 126.562 C 450.606 133.151, 452.597 137.008, 460.332 136.991 C 463.819 136.983, 464.945 137.515, 467.223 140.241 L 469.946 143.500 469.929 139.500 C 469.920 137.300, 469.264 133.700, 468.471 131.500 C 467.679 129.300, 467.023 124.755, 467.015 121.399 C 467.001 115.756, 465.657 109.549, 464.057 107.743 C 463.688 107.327, 462.444 108.261, 461.292 109.819 M 356.385 112.500 C 357.185 114.150, 359.937 117.525, 362.501 120 C 368.600 125.888, 370.850 129.096, 373.646 135.892 C 376.253 142.230, 376.745 140.858, 374.528 133.432 C 373.363 129.530, 371.163 126.517, 363.993 119 C 358.285 113.017, 355.469 110.611, 356.385 112.500 M 219.175 115.462 C 218.978 121.051, 224.988 127.997, 234.211 132.840 C 236.652 134.121, 237.423 134.327, 236 133.318 C 227.632 127.381, 220.100 118.734, 219.727 114.636 C 219.357 110.585, 219.346 110.603, 219.175 115.462 M 62.500 117.167 C 61.400 117.775, 59.600 119.055, 58.500 120.011 C 57.400 120.967, 54.108 122.527, 51.185 123.477 C 48.262 124.427, 46.062 125.396, 46.297 125.630 C 46.531 125.864, 47.939 125.593, 49.426 125.028 C 51.578 124.210, 53.148 124.438, 57.126 126.150 L 62.123 128.299 64.811 126.144 C 71.457 120.818, 71.548 120.784, 75.155 122.292 C 76.995 123.061, 79.169 124.496, 79.986 125.482 C 80.803 126.467, 83.444 128.119, 85.854 129.152 C 93.694 132.512, 103.628 143.661, 104.512 150.090 C 104.920 153.055, 106.097 157.053, 107.127 158.976 C 108.157 160.898, 109 163.208, 109 164.110 C 109 165.122, 110.118 165.974, 111.918 166.334 C 113.523 166.655, 116.529 168.398, 118.597 170.209 L 122.358 173.500 119.179 169.100 C 116.380 165.226, 115.998 163.911, 115.982 158.100 C 115.966 152.443, 115.538 150.871, 112.982 147.100 C 110.811 143.896, 110 141.523, 110 138.375 C 110 133.789, 106.153 130.237, 102.645 131.583 C 101.309 132.095, 98.216 130.633, 85.500 123.474 C 83.300 122.235, 79.848 120.699, 77.830 120.060 C 75.811 119.421, 73.619 118.246, 72.958 117.449 C 71.546 115.748, 65.367 115.581, 62.500 117.167 M 7 122.918 C 7 124.523, 6.724 126.661, 6.386 127.668 C 5.995 128.835, 6.630 128.482, 8.136 126.694 C 10.121 124.339, 11.784 123.687, 18.500 122.633 L 26.500 121.376 21 120.697 C 9.373 119.261, 7 119.637, 7 122.918 M 213.250 122.227 C 209.276 126.470, 212.065 130.842, 217.790 129.345 C 219.149 128.989, 221.036 129.930, 223.648 132.266 C 225.766 134.161, 228.566 136.271, 229.868 136.954 C 231.171 137.638, 234.918 140.290, 238.194 142.849 C 241.470 145.407, 245.578 148.394, 247.323 149.487 L 250.495 151.473 246.498 146.657 C 244.299 144.008, 239.842 140.274, 236.593 138.360 C 229.277 134.049, 216.220 123.348, 215.806 121.325 C 215.570 120.166, 214.988 120.372, 213.250 122.227 M 297.500 124.731 C 292.550 127.285, 287.825 129.673, 287 130.039 C 285.246 130.817, 284.573 134.162, 285.459 137.694 C 286.076 140.150, 286.141 140.121, 290.078 135.649 C 292.274 133.154, 295.068 130.812, 296.286 130.446 C 299.356 129.522, 309.319 119.652, 306.785 120.044 C 306.628 120.068, 302.450 122.178, 297.500 124.731 M 115.543 126.250 C 116.114 128.147, 118.440 131.170, 123.431 136.500 C 124.430 137.568, 122.221 133.873, 118.198 127.750 C 115.386 123.470, 114.566 123.007, 115.543 126.250 M 68.254 127.819 C 64.407 131.942, 62.095 132.372, 56.671 129.973 L 52.017 127.914 45.758 130.548 C 37.137 134.177, 35.591 134.425, 30.488 132.997 C 26.649 131.922, 25.689 131.974, 23.551 133.375 C 22.187 134.269, 19.705 135, 18.035 135 C 14.584 135, 14.462 135.517, 16.167 142.904 C 17.248 147.586, 17.125 148.479, 14.506 154.985 C 11.435 162.614, 11.627 163.946, 15.543 162.162 C 23.230 158.660, 30.020 163.015, 28.337 170.369 C 26.722 177.429, 31.064 177.160, 35.807 169.907 C 37.857 166.773, 40.379 164.322, 42.439 163.461 C 45.117 162.342, 45.900 161.336, 46.462 158.286 C 46.969 155.535, 48.518 153.218, 52.128 149.812 C 57.154 145.069, 59.081 144.181, 69 142.037 C 78.102 140.071, 83.500 131.258, 77.804 127.662 C 73.039 124.655, 71.178 124.685, 68.254 127.819 M 15.739 126.959 C 11.157 127.848, 11.177 127.829, 10.366 132.073 L 9.712 135.500 12.170 133.250 C 13.655 131.891, 15.905 131, 17.850 131 C 19.621 131, 22.176 130.275, 23.528 129.390 C 25.098 128.361, 26.981 128.003, 28.743 128.398 L 31.500 129.016 29 127.544 C 26.334 125.973, 21.845 125.775, 15.739 126.959 M 39.097 127.722 C 37.225 128.644, 36.181 129.560, 36.777 129.759 C 37.372 129.957, 39.579 129.213, 41.680 128.104 C 46.275 125.679, 43.944 125.334, 39.097 127.722 M 79.962 138.551 C 75.520 144.564, 74.247 145.298, 65.432 146.928 C 56.914 148.503, 52.332 152.048, 50.450 158.523 C 48.849 164.030, 46.817 166.555, 43.500 167.156 C 40.297 167.738, 35 176.517, 35 181.245 C 35 187.860, 38.237 192, 43.407 192 C 47.954 192, 51.123 194.365, 52.452 198.750 C 53.254 201.393, 56.501 201.738, 59.672 199.517 C 61.387 198.316, 63.847 198.165, 72.644 198.722 C 88.484 199.725, 90.669 199.609, 92.829 197.655 C 93.893 196.692, 96.420 195.447, 98.445 194.888 C 101.487 194.048, 102.463 193.086, 104.063 189.353 C 106.536 183.583, 106.549 183.695, 103 179.653 C 99.356 175.502, 99.304 174.488, 102.500 169.785 C 105.489 165.387, 105.596 163.588, 103.143 158.985 C 102.121 157.068, 100.960 153.304, 100.562 150.620 C 99.929 146.348, 99.036 144.945, 93.406 139.370 C 85.578 131.619, 85.105 131.590, 79.962 138.551 M 273.515 143.983 C 272.488 145.118, 269.140 146.775, 266.074 147.666 C 263.008 148.556, 259.487 149.948, 258.248 150.759 C 257.010 151.569, 254.848 152.013, 253.444 151.745 L 250.893 151.257 253.074 153.579 C 254.928 155.552, 255.186 156.742, 254.792 161.493 C 254.537 164.569, 254.706 167.318, 255.168 167.604 C 257.989 169.348, 253.241 176.537, 248.685 177.418 C 241.472 178.814, 236.748 189.900, 240.658 196.253 C 241.610 197.800, 245.099 194.771, 247.045 190.707 C 251.594 181.210, 256.217 175.858, 261.500 173.974 C 264.250 172.993, 268.283 171.248, 270.461 170.095 C 275.602 167.377, 276.375 167.436, 281.592 170.957 C 292.034 178.004, 310.779 178.315, 317.818 171.558 C 319.547 169.898, 316.775 160.937, 313.090 156.276 L 310.541 153.052 307.473 156.026 C 305.786 157.662, 303.460 159, 302.306 159 C 300.029 159, 294 152.827, 294 150.495 C 294 149.438, 293.042 149.711, 290.360 151.530 C 284.477 155.523, 281.311 154.109, 277.198 145.653 L 275.382 141.920 273.515 143.983 M 435 142.726 C 432.385 143.200, 419.254 148.420, 410.228 152.574 C 407.328 153.908, 403.503 155.007, 401.728 155.015 C 397.485 155.035, 396.779 155.610, 393.940 161.354 C 392.621 164.024, 390.202 167.335, 388.564 168.714 L 385.586 171.220 383.293 168.554 C 380.652 165.484, 380.611 165.539, 382.138 170.101 C 384.941 178.473, 389.241 181.546, 390.355 175.974 C 391.742 169.042, 400.968 158.020, 405.437 157.956 C 407.122 157.932, 410.300 157.264, 412.500 156.471 C 414.700 155.679, 417.267 155.023, 418.203 155.015 C 419.140 155.007, 421.856 153.023, 424.238 150.606 C 430.554 144.200, 438.355 142.450, 447 145.500 C 453.936 147.947, 454.039 147.110, 447.128 144.451 C 440.783 142.010, 439.753 141.864, 435 142.726 M 455.999 148.123 C 462.121 150.564, 465.569 155.941, 468.106 167 C 469.052 171.125, 469.865 173.365, 469.913 171.978 C 470.285 161.180, 461.678 146.802, 455 147.067 C 454.175 147.100, 454.625 147.575, 455.999 148.123 M 431.676 149.452 C 429.572 150.202, 427.739 150.970, 427.602 151.158 C 427.465 151.346, 426.367 152.928, 425.163 154.674 C 423.779 156.679, 421.782 158.093, 419.736 158.515 C 417.956 158.882, 414.572 159.816, 412.215 160.591 C 409.858 161.366, 406.660 162, 405.107 162 C 401.811 162, 395.924 169.856, 394.076 176.718 C 390.519 189.927, 378.492 179.464, 376.445 161.379 C 375.378 151.956, 374.900 149.944, 373.881 150.573 C 373.322 150.919, 373.066 151.730, 373.314 152.375 C 374.003 154.172, 370.548 160.539, 369.062 160.208 C 368.340 160.048, 366.880 160.704, 365.816 161.666 C 363.103 164.121, 360.587 162.325, 360.190 157.649 C 359.829 153.411, 358.442 152.936, 356.820 156.496 C 355.882 158.554, 355.997 159.339, 357.473 160.970 C 359.019 162.678, 359.167 164.041, 358.563 170.969 C 358.001 177.410, 358.123 178.888, 359.182 178.474 C 360.650 177.899, 368 167.703, 368 166.241 C 368 165.729, 368.822 164.566, 369.827 163.656 C 372.286 161.431, 375.528 164.735, 376.541 170.500 C 376.927 172.700, 378.086 175.899, 379.117 177.610 C 389.024 194.057, 386.005 206.223, 373.227 201.343 L 368.888 199.686 364.194 204.291 C 359.825 208.577, 359.221 208.858, 355.464 208.345 C 352.881 207.992, 350.048 208.371, 347.592 209.397 C 342.094 211.694, 339.757 211.400, 336.500 208 C 334.363 205.770, 332.711 204.998, 330.063 204.994 C 328.103 204.990, 325.319 204.372, 323.876 203.618 C 321.362 202.307, 321.183 202.392, 319.626 205.658 C 316.372 212.483, 320.273 219.847, 326.072 217.825 C 332.883 215.451, 344.771 219.208, 347.181 224.498 C 348.661 227.747, 349.731 227.653, 353.565 223.937 C 357.113 220.498, 367.611 217.118, 377.263 216.306 C 384.185 215.724, 385.253 214.339, 384.887 206.424 C 384.649 201.289, 384.845 200.784, 388.317 197.604 C 390.343 195.748, 392 193.288, 392 192.135 C 392 180.708, 402.976 171.213, 411.798 175.009 C 415.722 176.697, 417.260 176.931, 418.843 176.084 C 419.957 175.488, 422.219 175, 423.869 175 C 428.187 175, 431.513 173.510, 436.825 169.196 C 443.308 163.932, 448.329 161.794, 451.438 162.976 C 457.607 165.322, 465.887 175.633, 466.079 181.210 C 466.122 182.470, 466.375 182.968, 466.640 182.318 C 467.382 180.496, 462.973 160.960, 460.883 156.814 C 457.732 150.563, 440.640 146.255, 431.676 149.452 M 137.964 156.682 C 139.124 158.156, 141.069 160.026, 142.287 160.836 C 143.504 161.646, 142.721 160.439, 140.547 158.154 C 136.033 153.410, 134.869 152.747, 137.964 156.682 M 126.658 159.478 C 125.815 165.630, 127.649 168.972, 134.917 174.525 C 137.851 176.767, 141.048 180.154, 142.022 182.052 C 143.935 185.780, 146.474 188.332, 149.250 189.317 C 151.426 190.088, 151.433 190.223, 148.912 182.737 C 146.098 174.386, 145.368 173.193, 142.836 172.820 C 141.533 172.628, 138.750 169.906, 135.861 166 C 133.217 162.425, 130.214 158.408, 129.187 157.073 L 127.320 154.647 126.658 159.478 M 8 164.789 C 8 165.394, 9.032 167.088, 10.293 168.554 L 12.586 171.220 15.899 168.432 C 19.900 165.065, 22.219 165.933, 23.038 171.104 L 23.575 174.500 24.336 170.733 C 25.532 164.810, 22.880 163.468, 15.357 166.188 C 12.522 167.213, 11.794 167.123, 10.036 165.533 C 8.916 164.519, 8 164.185, 8 164.789 M 151.643 167.335 C 153.214 169.180, 154.648 170.573, 154.830 170.431 C 155.492 169.914, 151.836 165.151, 150.333 164.574 C 149.472 164.244, 150.054 165.469, 151.643 167.335 M 444.639 167.973 C 442.515 168.957, 438.827 171.393, 436.444 173.385 C 431.506 177.513, 428.175 179, 423.869 179 C 422.219 179, 419.969 179.481, 418.871 180.069 C 417.324 180.897, 415.684 180.646, 411.606 178.956 C 402.947 175.367, 398.727 178.937, 395.850 192.287 C 395.114 195.705, 393.986 197.690, 391.909 199.225 C 386.546 203.191, 387.600 210.712, 394.015 214.250 C 400.209 217.666, 400.246 217.665, 405.440 213.936 L 409.707 210.871 419.860 212.383 C 425.444 213.215, 431.010 214.594, 432.229 215.448 C 438.343 219.730, 446.036 214.793, 458.634 198.500 C 468.882 185.247, 458.101 161.732, 444.639 167.973 M 105.661 170.996 C 102.349 176.604, 106.532 182.520, 112.621 180.839 C 114.517 180.315, 116.841 180.127, 117.784 180.421 C 123.840 182.304, 120.055 173.383, 113.815 171.065 C 111.992 170.387, 109.785 169.462, 108.911 169.009 C 107.743 168.403, 106.882 168.929, 105.661 170.996 M 9.300 174.881 C 11.971 180.036, 12.849 180.973, 14.610 180.545 C 18.295 179.650, 22.505 187.364, 24.441 198.556 C 25.339 203.749, 27.911 208.653, 27.965 205.274 C 27.984 204.050, 28.863 201.629, 29.919 199.894 C 31.927 196.591, 31.721 194, 29.449 194 C 25.142 194, 19 181.916, 19 173.443 L 19 169.822 15.856 172.468 L 12.712 175.113 9.406 171.909 L 6.099 168.704 9.300 174.881 M 156.071 174.230 C 155.956 175.414, 159.214 183.120, 159.646 182.687 C 159.864 182.470, 159.164 180.313, 158.092 177.896 C 157.019 175.478, 156.109 173.828, 156.071 174.230 M 23.033 176.027 C 23.126 180.222, 26.969 188.580, 29.357 189.782 C 30.758 190.487, 32.823 192.231, 33.946 193.658 L 35.986 196.252 33.815 200.115 C 31.119 204.912, 32.129 206.478, 34.942 201.863 C 37.694 197.349, 37.533 195.314, 34 190 C 32.220 187.322, 31.007 184.184, 31.004 182.250 C 31.001 179.471, 30.646 179, 28.557 179 C 27.165 179, 25.443 178.043, 24.557 176.777 C 23.544 175.332, 23.011 175.070, 23.033 176.027 M 124.483 177.315 C 127.012 181.200, 124.199 184.228, 117.815 184.495 C 115.442 184.595, 112.697 184.749, 111.714 184.838 C 110.638 184.936, 109.195 186.713, 108.080 189.314 C 106.067 194.010, 100.904 199, 98.058 199 C 97.075 199, 95.197 199.838, 93.885 200.862 C 92.573 201.887, 90.446 203.055, 89.159 203.459 C 86.342 204.342, 84 209.465, 84 214.745 C 84 219.320, 81.484 223.400, 79.202 222.524 C 77.928 222.035, 77.979 222.319, 79.461 223.957 C 83.287 228.184, 84.962 225.801, 84.986 216.096 C 84.999 211.091, 85.292 210.424, 88.960 207.037 C 97.821 198.856, 98.488 199.052, 107.529 212.501 C 113.226 220.975, 114.064 223.872, 111.445 226.045 C 107.864 229.018, 107.876 230.662, 111.510 235.012 C 114.884 239.050, 114.972 239.699, 112.598 243.049 C 111.994 243.901, 112.513 243.538, 113.750 242.243 C 114.987 240.948, 116 238.858, 116 237.599 C 116 234.702, 118.521 232.422, 122.993 231.273 C 126.055 230.487, 126.564 229.897, 127.117 226.495 C 127.844 222.026, 132.266 217.487, 134.875 218.534 C 135.769 218.892, 139.200 219.404, 142.500 219.671 C 145.800 219.939, 149.743 220.629, 151.263 221.205 C 153.614 222.097, 154.593 221.861, 157.817 219.627 C 164.172 215.223, 169.359 217.163, 172.777 225.222 C 174.460 229.189, 177.844 229.620, 183.762 226.620 C 190.249 223.333, 192.387 224.897, 191.387 232.194 C 190.636 237.674, 192.663 239.621, 200.153 240.615 C 207.088 241.535, 209.762 244.660, 208.051 249.844 C 206.118 255.701, 207.664 257.817, 214.154 258.198 C 221.068 258.604, 225.501 263.538, 225.144 270.429 C 225.019 272.850, 225.415 275.139, 226.025 275.515 C 227.718 276.562, 228.233 275.498, 228.443 270.524 C 228.720 263.947, 233.931 261.471, 234.023 267.872 C 234.036 268.768, 235.274 271.750, 236.773 274.500 C 241.179 282.580, 243.879 281.787, 259.463 267.837 C 260.561 266.853, 254.398 261.340, 249.585 259 C 247.888 258.175, 245.736 255.925, 244.803 254 C 241.619 247.432, 236.366 245.728, 232.493 250.008 C 229.390 253.436, 226.612 249.985, 227.441 243.735 C 228.087 238.861, 223.730 231.070, 220.328 231.018 C 219.683 231.008, 217.328 228.863, 215.095 226.250 L 211.033 221.500 202.086 221.429 C 193.359 221.360, 193.044 221.274, 189.262 217.929 C 187.129 216.043, 183.380 213.122, 180.931 211.439 C 174.805 207.228, 167.883 198.850, 163.632 190.500 C 161.672 186.650, 160.053 183.962, 160.034 184.528 C 159.970 186.474, 168.051 201.294, 171.023 204.679 C 175.977 210.321, 173.635 215.846, 166.795 214.656 C 164.983 214.341, 161.250 213.701, 158.500 213.234 C 152.807 212.268, 150.289 211.081, 147.584 208.093 C 145.054 205.297, 143.173 205.506, 139.038 209.041 C 137.134 210.668, 135.128 212, 134.580 212 C 134.032 212, 131.913 213.632, 129.869 215.628 C 125.260 220.129, 123.231 219.811, 116.199 213.489 C 104.269 202.763, 104.308 186.705, 116.259 188.308 C 119.281 188.713, 120.938 188.303, 123.613 186.488 C 125.512 185.199, 127.561 183.980, 128.165 183.778 C 129.510 183.330, 126.966 178.038, 124.391 175.927 C 122.822 174.640, 122.831 174.777, 124.483 177.315 M 471.160 187.747 C 471.023 192.251, 470.475 193.597, 467.296 197.247 C 460.107 205.502, 459.604 206.442, 465.265 201.040 C 471.254 195.327, 472.519 192.372, 471.737 185.933 C 471.424 183.355, 471.280 183.807, 471.160 187.747 M 128.655 192.829 C 127.745 193.835, 127 195.247, 127 195.967 C 127 196.977, 125.546 197.127, 120.634 196.624 C 110.304 195.566, 109.349 200.053, 118.089 208.587 C 122.720 213.109, 124.282 212.736, 127.500 206.339 C 128.600 204.152, 131.294 200.747, 133.486 198.771 C 137.434 195.213, 137.454 195.159, 135.581 193.090 C 133.251 190.515, 130.832 190.424, 128.655 192.829 M 324.494 197.006 C 322.251 199.485, 322.747 200.022, 327.917 200.716 C 332.466 201.326, 332.707 201.009, 330.385 197.465 C 328.426 194.475, 326.893 194.356, 324.494 197.006 M 41 197.360 C 41 198.109, 39.875 200.379, 38.500 202.405 C 35.900 206.235, 34.877 216.188, 36.950 217.469 C 37.473 217.792, 40.158 214.711, 42.917 210.623 C 45.676 206.534, 48.401 203.033, 48.973 202.842 C 49.671 202.610, 49.609 201.425, 48.787 199.248 C 47.478 195.779, 41 194.209, 41 197.360 M 117.015 202.104 C 120.387 208.610, 122.074 209.165, 124.299 204.500 L 125.968 201 123.234 200.986 C 121.730 200.979, 119.436 200.688, 118.137 200.340 C 115.917 199.746, 115.849 199.854, 117.015 202.104 M 59.759 203.385 C 58.119 204.631, 58.135 204.813, 60.049 206.544 C 62.035 208.342, 62.149 208.312, 65.271 205.191 L 68.462 202 64.981 202.032 C 63.066 202.049, 60.717 202.658, 59.759 203.385 M 75.772 202.802 C 74.248 203.099, 74.207 203.395, 75.426 205.319 C 76.186 206.519, 77.098 209.309, 77.453 211.520 C 78.429 217.604, 79.966 219.389, 79.985 214.461 C 79.993 212.240, 80.831 208.794, 81.846 206.803 L 83.691 203.183 80.596 202.824 C 78.893 202.627, 76.722 202.617, 75.772 202.802 M 92.842 207.979 C 89.423 210.797, 89.207 211.334, 88.834 217.930 C 88.254 228.203, 84.183 232.343, 79.177 227.750 L 76.724 225.500 79.087 229.667 C 81.394 233.736, 81.409 233.920, 79.725 237.451 C 78.776 239.440, 78 241.892, 78 242.899 C 78 245.046, 74.346 250, 72.762 250 C 72.161 250, 68.858 247.300, 65.421 244 C 53.634 232.681, 46.605 236.864, 57.021 249 L 59.167 251.500 57.354 248.226 C 55.971 245.729, 55.799 244.542, 56.627 243.226 C 58.595 240.101, 60.739 240.820, 66.232 246.445 C 72.070 252.425, 74.316 253.113, 78.152 250.095 C 81.371 247.563, 86.689 247.284, 91.027 249.421 L 94.553 251.157 98.319 247.606 C 100.390 245.652, 103.820 243.587, 105.940 243.016 C 111.192 241.602, 111.529 239.822, 107.463 234.956 C 103.877 230.664, 103.874 229.010, 107.445 226.045 C 110.039 223.893, 109.240 221.027, 103.765 212.834 C 97.831 203.953, 97.763 203.923, 92.842 207.979 M 44.697 213.806 C 38.504 222.644, 37.353 223.484, 34.661 221.134 C 32.923 219.617, 32.840 219.692, 33.161 222.514 C 33.658 226.894, 35.313 226.253, 42.891 218.750 C 51.111 210.611, 53.514 210.143, 59.096 215.594 L 62.777 219.188 66.824 216.859 L 70.871 214.530 73.597 217.015 C 75.096 218.382, 75.939 218.841, 75.470 218.036 C 75.001 217.230, 74.109 214.305, 73.488 211.536 C 72.110 205.395, 69.032 204.075, 66.825 208.679 C 65.034 212.416, 62.378 212.737, 59.115 209.610 C 53.391 204.126, 50.990 204.825, 44.697 213.806 M 97.655 213.829 C 96.745 214.835, 96 216.566, 96 217.675 C 96 218.785, 94.468 221.270, 92.596 223.198 C 90.724 225.126, 88.254 228.541, 87.108 230.788 L 85.024 234.874 87.647 236.937 C 89.089 238.072, 90.814 239, 91.480 239 C 92.145 239, 93.505 239.900, 94.500 241 C 99.355 246.364, 109.107 241.681, 105.591 235.673 C 102.151 229.797, 101.891 226.283, 104.653 223.001 C 109.030 217.798, 102.184 208.825, 97.655 213.829 M 217.773 216.646 L 213.045 219.189 216.273 223.076 C 219.723 227.232, 221.997 228.095, 222.005 225.250 C 222.008 224.287, 223.119 221.700, 224.474 219.500 C 228.455 213.036, 226.240 212.093, 217.773 216.646 M 45.711 220.122 C 42.810 222.962, 42.509 223.450, 44.745 221.691 C 51.250 216.572, 55.623 216.962, 59.631 223.019 C 62.800 227.807, 63.006 227.836, 65.915 223.902 C 67.776 221.384, 68.757 220.884, 71.151 221.235 C 73.839 221.630, 73.958 221.529, 72.511 220.084 C 71.065 218.639, 70.570 218.705, 66.852 220.844 L 62.777 223.188 59.096 219.594 C 54.102 214.717, 51.113 214.835, 45.711 220.122 M 100 218.022 C 100 219.135, 98.264 221.947, 96.142 224.272 C 90.431 230.530, 88.432 235, 91.345 235 C 92.085 235, 93.505 235.900, 94.500 237 C 95.623 238.241, 97.580 239, 99.655 239 C 103.434 239, 103.687 238.426, 101.372 235.120 C 98.183 230.568, 97.926 226.241, 100.653 223.001 C 102.667 220.607, 102.915 219.709, 102.021 218.039 C 100.639 215.456, 100 215.451, 100 218.022 M 385.392 217.903 C 383.682 218.946, 379.857 220.024, 376.892 220.300 C 367.398 221.183, 357.031 224.577, 353.565 227.937 C 349.491 231.885, 349.106 231.830, 344.430 226.628 C 335.638 216.846, 318.938 219.842, 321.837 230.680 C 323.396 236.508, 321.643 239, 315.985 239 C 311.659 239, 305.769 243.801, 304.656 248.233 C 304.287 249.705, 302.413 252.109, 300.492 253.574 C 295.332 257.510, 295.732 260.371, 301.750 262.571 C 304.363 263.527, 309.425 265.533, 313 267.030 C 324.925 272.023, 333 272.012, 333 267.002 C 333 262.964, 335.985 259.849, 340.562 259.112 C 344.163 258.531, 344.528 258.185, 344.826 255.068 C 345.066 252.564, 346.784 249.823, 351.294 244.748 C 360.752 234.106, 363.500 233.669, 363.500 242.807 C 363.500 249.379, 366.693 249.531, 369.079 243.072 C 372.975 232.524, 383.477 229.693, 394.760 236.149 C 397.787 237.881, 400.992 240.581, 401.882 242.150 C 402.772 243.719, 404.063 244.777, 404.750 244.502 C 405.438 244.226, 406.698 243.718, 407.550 243.374 C 410.145 242.325, 417.792 251.121, 418.269 255.702 L 418.664 259.500 418.832 255.674 C 419.081 249.999, 412.146 241.282, 404.864 238.118 C 401.914 236.836, 397.575 234.935, 395.223 233.894 C 392.871 232.852, 389.934 232, 388.696 232 C 382.972 232, 380.711 227.909, 384.073 223.635 C 386.573 220.456, 389.651 220.273, 394.739 223 C 398.802 225.178, 404.480 225.650, 405.561 223.901 C 405.935 223.297, 407.649 222.190, 409.370 221.440 C 413.227 219.762, 410.069 219.451, 403.850 220.896 C 400.741 221.618, 399.479 221.320, 395.350 218.889 C 389.582 215.494, 389.376 215.473, 385.392 217.903 M 451.618 219.880 C 448.825 222.739, 447.947 224.382, 448.278 226.130 L 448.728 228.500 448.864 226.042 C 448.939 224.690, 450.666 221.878, 452.703 219.792 C 454.740 217.706, 456.181 216, 455.906 216 C 455.631 216, 453.701 217.746, 451.618 219.880 M 445.790 220.450 C 441.573 224.162, 441.291 227.280, 444.599 233.604 C 447.618 239.374, 447.306 242.103, 443.544 242.842 C 441.664 243.212, 436 238.394, 436 236.425 C 436 233.976, 429.729 221.925, 427.962 220.980 C 424.923 219.353, 424.526 219.867, 426.884 222.377 C 428.361 223.949, 429.403 226.779, 429.963 230.737 C 430.428 234.028, 431.355 237.571, 432.022 238.610 C 433.461 240.851, 444.487 248, 446.504 248 C 449.844 248, 449.477 237.900, 445.878 230.790 C 443.367 225.829, 443.505 224.126, 446.687 220.805 C 449.960 217.388, 449.482 217.199, 445.790 220.450 M 435.755 226 C 437.135 229.025, 438.833 233.059, 439.527 234.965 C 440.222 236.871, 441.287 238.596, 441.895 238.798 C 443.524 239.341, 443.274 238.376, 440.500 233.407 C 437.665 228.330, 437.463 226.552, 439.317 223 C 440.596 220.549, 440.549 220.500, 436.934 220.500 L 433.246 220.500 435.755 226 M 131.168 226.527 C 130.926 230.884, 128.490 233.791, 124.087 234.976 C 120.911 235.832, 120.140 236.551, 119.622 239.139 C 118.899 242.753, 113.834 247.902, 108.522 250.422 C 106.500 251.382, 102.659 254.435, 99.988 257.207 C 94.751 262.640, 93.525 262.880, 86.255 259.897 C 83.458 258.749, 82.383 258.797, 78.483 260.243 C 75.993 261.165, 73.291 261.665, 72.478 261.353 C 70.110 260.445, 70.648 267.819, 73.292 272.500 C 75.297 276.050, 76.023 276.534, 79.747 276.806 C 84.008 277.117, 88 280.435, 88 283.665 C 88 284.714, 88.962 284.506, 91.881 282.826 C 95.242 280.892, 95.611 280.342, 94.631 278.726 C 89.865 270.865, 120.802 265.973, 134 272.501 C 136.475 273.725, 140.121 275.251, 142.103 275.893 C 146.067 277.175, 149.302 280.152, 150.914 284 C 155.138 294.085, 160.654 300.500, 165.101 300.500 C 173.854 300.500, 170.669 289.532, 158.379 277.352 C 149.321 268.375, 149.290 268.321, 151.468 265.441 C 155.393 260.252, 152.174 257, 143.109 257 C 136.786 257, 133.783 254.112, 134.637 248.851 C 135.172 245.551, 134.994 245.216, 132.359 244.558 C 125.642 242.881, 124.446 239.199, 129.068 234.430 C 131.651 231.765, 132.073 230.650, 131.736 227.382 C 131.406 224.181, 131.307 224.031, 131.168 226.527 M 409.370 225.440 C 407.649 226.190, 405.935 227.297, 405.561 227.901 C 404.470 229.667, 398.786 229.169, 394.634 226.944 C 390.566 224.763, 386.927 224.679, 386.245 226.750 C 385.988 227.531, 386.792 228, 388.390 228 C 389.796 228, 392.871 228.857, 395.223 229.904 C 397.575 230.952, 401.511 232.639, 403.970 233.654 C 409.701 236.021, 412.966 238.808, 418.628 246.167 C 423.590 252.615, 423.803 254.229, 420.922 263.614 C 419.692 267.622, 419.747 267.834, 423.070 271.791 C 427.297 276.826, 428.193 276.401, 424.646 271.042 C 421.581 266.409, 421.481 265.260, 423.557 258.500 C 425.573 251.938, 424.757 248.126, 420.443 243.945 C 412.291 236.044, 410.547 230.401, 415.077 226.589 L 418.153 224 415.327 224.039 C 413.772 224.061, 411.092 224.691, 409.370 225.440 M 422.826 226.314 C 424.022 227.587, 425.052 229.950, 425.116 231.564 C 425.190 233.443, 425.404 233.834, 425.709 232.650 C 426.688 228.847, 425.048 224, 422.780 224 L 420.651 224 422.826 226.314 M 39.523 226.974 C 36.859 229.918, 34.144 230.440, 31.928 228.435 C 30.437 227.085, 30.003 227.008, 30.015 228.095 C 30.051 231.385, 31.657 232.385, 34.809 231.079 C 37.439 229.990, 43.201 225, 41.829 225 C 41.544 225, 40.506 225.889, 39.523 226.974 M 333.077 227.081 C 326.596 230.558, 326.325 231.318, 329.859 236.123 C 333.693 241.337, 333.713 241.684, 330.218 242.452 C 328.688 242.788, 325.426 244.397, 322.968 246.027 C 320.511 247.658, 318.007 248.993, 317.405 248.996 C 312.553 249.015, 310.465 262.647, 314.792 266.051 C 319.638 269.863, 325.592 267.680, 329.098 260.807 C 330.189 258.669, 332.076 256.539, 333.291 256.074 C 336.898 254.695, 339.198 251.449, 338.859 248.217 C 338.631 246.041, 339.416 244.291, 341.879 241.486 C 349.175 233.175, 342.397 222.082, 333.077 227.081 M 417.250 228.662 C 415.359 229.425, 415.733 231.689, 418.545 236.487 C 422.675 243.535, 423.959 243.971, 422.354 237.783 C 421.609 234.913, 421 231.537, 421 230.282 C 421 228.082, 419.884 227.599, 417.250 228.662 M 181.250 231.649 C 178.153 233.114, 176 234.786, 176 235.725 C 176 236.601, 173.863 239.316, 171.250 241.759 C 167.019 245.714, 166.850 246.025, 169.700 244.600 C 174.611 242.145, 178.209 242.565, 181.475 245.974 C 184.252 248.872, 184.504 248.932, 191.485 248.342 C 198.334 247.763, 198.736 247.849, 200.683 250.324 L 202.719 252.912 203.859 250.409 C 205.591 246.608, 205.262 245.001, 202.750 244.994 C 193.806 244.972, 186.437 239.236, 187.280 232.952 C 187.894 228.374, 188.087 228.416, 181.250 231.649 M 333.836 230.798 L 331.173 232.413 334.256 236.707 C 338.701 242.897, 341.849 240.987, 340.487 232.925 C 339.749 228.552, 338.302 228.090, 333.836 230.798 M 426.496 237.905 C 427.116 241.998, 428.363 243.632, 432.427 245.680 C 436.365 247.664, 441 251.993, 441 253.687 C 441 256.240, 447.655 255.255, 449.927 252.365 C 452.722 248.812, 452.561 247.124, 449.686 249.826 C 446.560 252.762, 446.095 252.668, 438.093 247.492 C 431.731 243.376, 428.379 240.015, 426.633 236 C 426.274 235.175, 426.212 236.032, 426.496 237.905 M 375.828 238.036 C 374.909 238.573, 373.853 240.393, 373.482 242.080 C 371.063 253.096, 360.811 254.634, 359.049 244.247 L 358.413 240.500 355.721 244.707 C 354.241 247.021, 352.123 249.399, 351.015 249.992 C 349.610 250.744, 349 252.086, 349 254.424 C 349 259.004, 346.217 262.118, 341.438 262.888 C 337.925 263.454, 337.467 263.859, 337.196 266.638 C 336.487 273.899, 326.750 276.701, 316.416 272.618 C 314.262 271.767, 313.370 271.617, 314.434 272.285 C 315.498 272.953, 318.213 275.154, 320.466 277.176 C 322.720 279.198, 325.899 281.174, 327.532 281.567 C 335.025 283.370, 345.159 289.136, 346.461 292.337 C 349.478 299.758, 349.321 307.225, 346.046 312.058 C 341.797 318.330, 342.183 324.770, 346.521 319.976 C 348.655 317.619, 350.315 317.470, 351.987 319.485 C 352.665 320.301, 355.265 321.989, 357.766 323.235 C 360.266 324.481, 364.155 327.637, 366.406 330.250 C 371.500 336.159, 371.951 336.147, 377.765 329.955 L 382.501 324.911 387.373 326.705 L 392.246 328.500 393.873 326.041 C 397.519 320.532, 400.263 318, 402.589 318 C 403.915 318, 405.044 317.663, 405.099 317.250 C 405.153 316.837, 405.290 314.608, 405.402 312.296 C 405.607 308.077, 408.139 304, 410.554 304 C 411.278 304, 411.994 302.223, 412.266 299.750 C 412.522 297.413, 413.885 292.800, 415.294 289.500 C 419.764 279.032, 419.757 278.534, 415.103 274.356 C 410.596 270.309, 409.829 266.672, 412.500 262 C 416.967 254.185, 410.958 244.099, 404.745 248.986 C 401.894 251.228, 400.754 250.501, 399.609 245.709 C 398.080 239.316, 382.340 234.237, 375.828 238.036 M 60.013 245.031 C 60.020 245.289, 61.370 248.151, 63.013 251.391 C 64.656 254.631, 66 258.132, 66 259.171 C 66 260.964, 66.148 260.950, 68.905 258.912 C 70.503 257.731, 72.254 257.039, 72.797 257.374 C 73.340 257.710, 75.860 257.215, 78.397 256.275 C 82.381 254.798, 83.452 254.747, 86.255 255.897 C 93.468 258.857, 94.434 258.630, 100.273 252.602 C 106.598 246.071, 106.027 245.090, 99.436 251.165 L 94.917 255.331 91.209 253.507 C 86.703 251.292, 81.413 251.530, 78.152 254.095 C 74.284 257.138, 71.994 256.432, 65.779 250.281 C 62.601 247.136, 60.006 244.774, 60.013 245.031 M 326.461 248.127 C 315.771 253.869, 316.500 253.108, 316.500 258.525 C 316.500 264.846, 321.387 266.521, 324.619 261.309 C 327.211 257.127, 332.211 252, 333.696 252 C 334.478 252, 335 250.799, 335 249 C 335 245.259, 332.313 244.985, 326.461 248.127 M 379.031 264.591 C 373.551 269.542, 372.753 279.240, 376.632 293.750 C 377.136 295.637, 376.836 296, 374.772 296 C 369.545 296, 367.494 301.236, 371.314 304.826 C 374.924 308.216, 382 305.916, 382 301.352 C 382 300.792, 382.563 300.291, 383.250 300.240 C 389.857 299.744, 395.071 295.380, 394.795 290.578 C 394.697 288.885, 395.427 283.998, 396.416 279.717 C 399.959 264.392, 389.410 255.214, 379.031 264.591 M 415.607 263.582 C 414.231 267.169, 415.143 269.908, 419 273.765 C 423.985 278.750, 424.214 277.779, 419.384 272.135 C 416.428 268.683, 415.876 267.371, 416.359 264.955 C 416.997 261.766, 416.589 261.022, 415.607 263.582 M 381.012 266.789 C 377.193 269.882, 378.103 293.592, 382.136 296.084 C 388.576 300.064, 397.218 272.361, 391.363 266.506 C 389.312 264.454, 383.706 264.608, 381.012 266.789 M 219.550 268.944 C 218.582 270.014, 216.391 271.026, 214.681 271.194 C 212.143 271.444, 211.448 272.052, 210.904 274.500 C 210.538 276.150, 209.510 279.173, 208.619 281.218 C 205.462 288.467, 206.962 291.979, 212.609 290.562 C 215.353 289.873, 215.376 289.618, 213.434 281.699 C 211.545 273.993, 218.942 272.780, 223.527 280.043 C 226.040 284.024, 229 285.328, 229 282.455 C 229 281.605, 230.064 279.845, 231.365 278.544 C 232.766 277.144, 233.421 275.682, 232.974 274.958 C 232.444 274.101, 232.029 274.334, 231.584 275.736 C 229.180 283.309, 220.379 279.306, 221.171 271.001 C 221.381 268.800, 221.498 267, 221.431 267 C 221.365 267, 220.518 267.875, 219.550 268.944 M 71.377 278.446 C 72.411 281.751, 72.774 282, 76.545 282 C 81.525 282, 82.995 283.352, 83.015 287.950 C 83.038 293.281, 84.269 294.729, 87.368 293.071 C 90.715 291.279, 92.641 292.204, 94.417 296.456 C 95.232 298.405, 96.441 300, 97.104 300 C 97.851 300, 97.633 299.252, 96.532 298.035 C 95.261 296.631, 94.949 295.275, 95.437 293.285 C 97.723 283.978, 97.333 283.395, 91.320 287.111 C 87.458 289.498, 84.442 288.107, 83.806 283.646 C 83.560 281.918, 82.721 281.446, 79.500 281.221 C 76.494 281.011, 74.849 280.189, 72.882 277.917 L 70.265 274.893 71.377 278.446 M 422.336 281.750 C 422.005 282.712, 420.722 286.087, 419.484 289.250 C 418.246 292.413, 417.398 295, 417.599 295 C 418.253 295, 422.694 285.582, 423.376 282.750 C 424.103 279.730, 423.297 278.954, 422.336 281.750 M 66.521 284.873 C 65.611 290.262, 65.845 290.446, 71.004 288.382 C 74.360 287.039, 75.652 286.926, 77.129 287.848 C 78.647 288.796, 79 288.732, 79 287.508 C 79 286.421, 77.908 286, 75.083 286 C 71.983 286, 70.758 285.439, 69.204 283.306 L 67.241 280.611 66.521 284.873 M 423.206 292.391 C 421.443 295.862, 420.052 300.007, 420.115 301.601 C 420.224 304.361, 420.265 304.332, 420.969 301 C 421.375 299.075, 422.966 295.130, 424.504 292.234 C 426.042 289.337, 427.101 286.768, 426.857 286.523 C 426.612 286.279, 424.970 288.919, 423.206 292.391 M 80 295.911 C 80 298.760, 82.162 301, 84.913 301 C 86.477 301, 89.371 301.675, 91.346 302.500 C 96.200 304.528, 96.763 304.388, 93.635 301.927 C 92.186 300.788, 91 299.239, 91 298.486 C 91 296.535, 89.026 295.574, 87.713 296.887 C 86.133 298.467, 83.952 298.266, 81.829 296.345 C 80.626 295.257, 80 295.108, 80 295.911 M 373 301.500 C 373 302.433, 373.944 303, 375.500 303 C 377.056 303, 378 302.433, 378 301.500 C 378 300.567, 377.056 300, 375.500 300 C 373.944 300, 373 300.567, 373 301.500 M 106.715 304.196 C 114.412 310.695, 115.371 311.221, 110.324 306.175 C 107.478 303.329, 104.650 301, 104.040 301 C 103.430 301, 104.634 302.438, 106.715 304.196 M 412.250 307.055 C 410.462 308.731, 409.014 310.866, 409.030 311.801 C 409.058 313.368, 409.140 313.364, 410.080 311.750 C 410.641 310.787, 412.427 309.313, 414.050 308.474 C 415.672 307.635, 417 306.285, 417 305.474 C 417 303.288, 415.867 303.666, 412.250 307.055 M 104.904 307.315 C 106.455 309.261, 114 315.419, 114 314.741 C 114 314.505, 111.638 312.343, 108.750 309.934 C 105.862 307.526, 104.132 306.347, 104.904 307.315 M 158.232 314.550 C 156.982 315.426, 155.909 317.655, 155.493 320.244 C 154.652 325.470, 152.526 329, 150.220 329 C 148.787 329, 148.546 329.756, 148.832 333.357 C 149.132 337.122, 148.808 338.006, 146.454 339.857 C 143.442 342.227, 145.343 342.812, 148.441 340.468 C 151.535 338.128, 153.450 338.700, 158.892 343.593 C 165.050 349.129, 165.263 351.115, 160.250 356.278 L 156.500 360.141 159.447 359.412 C 161.069 359.012, 163.471 357.405, 164.786 355.842 C 166.102 354.279, 167.954 353, 168.902 353 C 169.850 353, 171.919 351.650, 173.500 350 L 176.374 347 173.861 347 C 170.651 347, 167.794 343.924, 164.576 337 C 160.947 329.193, 161.743 325.885, 167.500 324.845 C 168.921 324.588, 169.590 323.558, 169.810 321.289 C 170.227 316.983, 161.779 312.066, 158.232 314.550 M 406.500 320.610 C 404.541 322.125, 404.550 322.151, 406.922 321.829 C 408.254 321.648, 409.529 320.938, 409.755 320.250 C 410.308 318.572, 408.940 318.723, 406.500 320.610 M 126.750 322.179 C 132.277 328.197, 128.768 335.221, 121.027 333.635 C 115.193 332.440, 114.145 333.046, 116.315 336.358 C 118.138 339.141, 116.765 341.096, 112 342.500 C 104.491 344.712, 104.393 348.269, 111.623 356.134 L 117.246 362.250 116.671 367.875 L 116.095 373.500 117.532 369 C 119.635 362.418, 119.346 359.813, 116.028 355.428 C 110.153 347.663, 114.807 342.694, 125.676 345.127 C 132.577 346.671, 132.574 346.677, 131.087 335.240 C 129.469 322.790, 129.295 322.222, 126.682 320.863 L 124.500 319.729 126.750 322.179 M 347.955 322.750 C 347.552 329.492, 346.466 335.364, 344.949 339 C 343.916 341.475, 343.618 342.631, 344.286 341.570 C 350.271 332.055, 354.545 330.617, 360.505 336.111 C 365.849 341.037, 371.669 341.874, 376.546 338.417 C 384.183 333.004, 384.383 332.927, 389.181 333.556 C 393.716 334.150, 393.914 334.065, 395.558 330.834 L 397.254 327.500 394.596 329.954 L 391.937 332.408 387.239 330.667 L 382.541 328.926 379.174 332.979 C 373.014 340.395, 369.851 340.550, 365.115 333.667 C 363.410 331.189, 360.379 328.545, 357.722 327.218 C 355.246 325.981, 352.665 324.301, 351.987 323.485 C 350.702 321.936, 348.033 321.450, 347.955 322.750 M 134.341 331.334 C 138.834 343.801, 135.449 351.112, 126.079 349.177 C 116.574 347.214, 115.024 348.815, 120.028 355.428 C 123.436 359.932, 123.632 362.018, 121.377 369.775 C 118.865 378.415, 119.818 393.803, 123.311 401.011 L 125.971 406.500 125.235 401 C 123.598 388.749, 124.374 379.172, 127.236 376.309 L 129.847 373.699 135.794 375.923 C 143.968 378.980, 154 376.095, 154 370.687 C 154 367.719, 159.474 363.945, 162.811 364.612 C 164.636 364.977, 167.328 364.692, 169.138 363.943 C 172.052 362.736, 172.435 362.818, 174.236 365.043 L 176.183 367.447 173.076 370.224 C 171.367 371.751, 169.127 373, 168.099 373 C 162.773 373, 160.106 375.348, 161.545 378.770 C 162.905 382.003, 164.773 383.456, 163.583 380.355 C 162.728 378.127, 165.457 375.328, 169.871 373.907 C 174.858 372.302, 175.827 371.357, 177.018 366.934 C 177.651 364.584, 179.201 362.281, 181.025 360.982 C 182.661 359.817, 184 357.965, 184 356.866 C 184 350.536, 178.307 348.982, 173.500 354 C 171.919 355.650, 170.006 357, 169.248 357 C 168.491 357, 166.815 358.255, 165.525 359.788 C 164.013 361.584, 161.360 363.042, 158.064 363.887 C 153.958 364.939, 152.635 365.820, 151.358 368.349 C 146.830 377.312, 142.053 378.235, 132.280 372.035 C 127.666 369.107, 125.919 367.368, 125.514 365.295 C 125.213 363.758, 124.552 360.700, 124.043 358.500 C 122.682 352.609, 124.349 351.262, 131.236 352.692 C 137.747 354.043, 139.198 353.177, 137.915 348.704 C 135.739 341.116, 137.352 336.715, 142.117 337.238 C 144.205 337.468, 144.538 337.036, 144.810 333.750 C 145.167 329.438, 144.773 329.247, 141.245 332.022 L 138.675 334.043 136.177 331.772 C 134.077 329.862, 133.785 329.792, 134.341 331.334 M 147.973 344.668 C 146.613 345.586, 145.411 346.387, 145.303 346.449 C 145.195 346.510, 144.841 348.122, 144.517 350.030 C 143.541 355.779, 143.002 356.862, 140.079 358.944 C 137.838 360.539, 136.647 360.759, 134.138 360.040 C 128.661 358.469, 129.626 363.170, 135.827 368.266 C 141.325 372.785, 145.142 372.110, 147.839 366.142 C 149.180 363.175, 151.974 359.649, 155.017 357.082 C 161.102 351.952, 161.487 349.236, 156.656 345.551 C 152.732 342.558, 151.314 342.414, 147.973 344.668 M 336.757 355.750 C 335.377 357.813, 331.720 362.650, 328.630 366.500 C 321.990 374.772, 321.719 376.864, 326.510 382.891 C 332.834 390.846, 330.647 394.109, 321.500 390.368 C 302.991 382.799, 297.342 386.347, 304.686 400.928 C 308.528 408.555, 309.361 409.305, 317 412.011 C 326.791 415.479, 328.979 413.727, 328.994 402.405 C 329.004 395.393, 331.546 394.163, 338.231 397.935 C 344.829 401.659, 345.949 401.700, 351.532 398.429 L 355.920 395.857 362.643 399.617 C 368.516 402.901, 370.485 403.458, 378.197 404.014 C 387.999 404.721, 392.189 407.197, 393.343 412.963 C 393.745 414.973, 394.689 415.955, 396.701 416.457 C 404.665 418.445, 405.183 424.264, 398.012 431.175 L 393.024 435.983 394.694 439.484 C 397.175 444.687, 393.802 448.190, 386.518 447.976 C 379.144 447.760, 379.182 447.748, 377.507 450.987 C 376.658 452.629, 374.553 455.667, 372.831 457.737 C 371.109 459.806, 372.384 458.688, 375.664 455.250 L 381.629 449 388.279 449 C 395.908 449, 397 448.001, 397 441.023 C 397 437.533, 397.677 436.190, 401.500 432.103 C 405.903 427.396, 406 427.149, 406 420.618 C 406 410.325, 398.708 397.642, 392.664 397.421 C 385.672 397.166, 385.119 396.926, 382.119 392.847 C 380.439 390.563, 378.889 388.200, 378.674 387.597 C 378.418 386.878, 377.060 387.140, 374.738 388.355 C 372.118 389.727, 368.502 390.295, 360.870 390.534 C 354.007 390.749, 350.414 391.258, 350.149 392.052 C 347.613 399.662, 342.435 399.966, 336.644 392.847 C 321.733 374.519, 322.027 375.930, 330.831 364.989 C 337.147 357.141, 340.644 352, 339.668 352 C 339.447 352, 338.137 353.688, 336.757 355.750 M 157.649 371.297 C 154.130 379.719, 144.962 383.352, 135.838 379.939 C 128.633 377.245, 128.898 376.984, 128.478 387.173 C 128.198 393.964, 128.262 394.444, 128.827 389.776 C 129.774 381.952, 131.312 380.556, 137.238 382.141 C 140.657 383.056, 143.303 383.098, 147.660 382.306 C 154.834 381.003, 157.633 381.933, 159.506 386.242 C 160.508 388.548, 160.924 388.915, 160.930 387.500 C 160.934 386.400, 159.842 383.263, 158.503 380.528 L 156.068 375.556 158.129 373.363 C 159.262 372.156, 161.384 370.855, 162.845 370.470 C 165.307 369.822, 165.355 369.712, 163.500 368.956 C 160.015 367.535, 159.062 367.917, 157.649 371.297 M 169.186 378.055 C 167.913 378.565, 167.170 379.466, 167.535 380.057 C 167.972 380.764, 168.931 380.515, 170.349 379.326 C 171.532 378.333, 172.688 377.404, 172.917 377.261 C 173.888 376.653, 171.315 377.201, 169.186 378.055 M 133.001 389.143 C 133.002 391.539, 133.677 397.325, 134.500 402 C 136.504 413.374, 136.389 415.482, 133.382 422.500 C 129.520 431.516, 129.441 432.584, 132.329 436.772 C 133.742 438.822, 135.382 442.676, 135.973 445.336 C 136.564 447.996, 137.936 451.915, 139.023 454.046 C 142.612 461.080, 139.531 469, 133.206 469 C 131.293 469, 130.937 469.367, 131.506 470.750 C 133.189 474.837, 133.067 475.802, 130.622 477.726 L 128.082 479.724 141.791 479.727 L 155.500 479.731 155.537 461.116 C 155.571 444.404, 155.801 441.896, 157.787 436.593 C 161.010 427.990, 160.992 427.979, 148.432 430.549 C 146.004 431.046, 144.701 430.619, 142.182 428.500 C 137.748 424.769, 138.109 422.230, 144.127 414.816 C 150.378 407.115, 155.166 397.327, 155.773 391.009 C 156.312 385.398, 155.300 384.686, 148.873 386.161 C 144.509 387.162, 138.063 386.862, 134.750 385.503 C 133.241 384.885, 133 385.387, 133.001 389.143 M 280.693 387.327 C 279.868 387.982, 279.014 390.786, 278.761 393.673 C 276.771 416.402, 261.864 429.724, 239.976 428.334 C 231.393 427.789, 230.018 427.950, 226.061 429.969 C 220.614 432.748, 216.607 432.263, 210.751 428.115 C 208.413 426.459, 205.255 424.805, 203.733 424.439 C 202.211 424.074, 199.961 422.479, 198.733 420.895 C 189.435 408.904, 182.273 404.514, 179.452 409.077 C 178.640 410.392, 166.623 410.223, 165.278 408.878 C 164.661 408.261, 164.383 407.024, 164.660 406.128 C 165.426 403.652, 162.233 407.747, 159.927 412.200 L 158.010 415.900 165.118 415.700 C 171.840 415.511, 172.342 415.652, 174.347 418.302 L 176.468 421.104 174.097 427.302 C 170.007 437.990, 168.117 446.247, 168.058 453.691 L 168 460.881 170.564 459.551 C 175.237 457.127, 181 461.430, 181 467.344 C 181 468.864, 182.601 471.728, 185 474.500 C 187.212 477.056, 189 480.168, 189 481.464 C 189 487.675, 204.252 493.856, 207.786 489.076 C 210.253 485.739, 213.033 485.130, 214.998 487.498 C 216.017 488.726, 215.766 489.619, 213.598 492.460 L 210.955 495.925 214.079 497.541 C 218.355 499.752, 248 503.178, 248 501.460 C 248 501.019, 247.240 499.817, 246.310 498.790 C 244.887 497.218, 244.778 496.156, 245.618 492.057 C 246.166 489.380, 246.263 486.240, 245.833 485.079 C 242.100 474.987, 243.917 467.169, 251.995 458.558 C 255.765 454.539, 256.880 452.538, 257.421 448.820 C 258.134 443.914, 261.184 439, 263.516 439 C 267.831 439, 268.722 449.413, 264.773 453.699 C 262.168 456.527, 262.961 458.429, 267.768 460.882 C 272.289 463.188, 273.402 464.400, 276.328 470.197 C 281.243 479.935, 297.388 484.725, 306 479 C 313.287 474.156, 319.152 476.170, 312.952 481.387 C 309.145 484.590, 311.964 485.157, 316 482 C 317.375 480.924, 319.180 480.034, 320.011 480.022 C 320.842 480.010, 323.530 477.483, 325.984 474.407 C 333.362 465.161, 339.647 460.729, 344.484 461.360 C 359.959 463.380, 359.655 463.392, 364.520 460.541 C 367.398 458.854, 370.370 455.902, 372.443 452.671 C 377.650 444.555, 379.066 443.638, 386.010 443.889 C 392.582 444.126, 392.936 443.712, 390.384 438.776 L 388.769 435.652 393.884 430.924 C 400.476 424.831, 400.673 422.225, 394.750 419.474 C 391.265 417.855, 390.308 416.794, 389.431 413.577 C 388.165 408.927, 386.626 408.165, 378.315 408.070 C 374.913 408.032, 370.911 407.537, 369.422 406.970 C 366.802 405.974, 366.833 406.073, 370.357 409.973 C 373.942 413.942, 374.960 417.640, 373.006 419.594 C 372.459 420.141, 369.808 424.903, 367.115 430.176 L 362.219 439.764 364.734 442.280 C 372.174 449.720, 358.698 462.042, 345.773 459.617 C 340.377 458.605, 334.625 449.586, 338.033 447.480 C 340.641 445.868, 338.606 444.983, 333.750 445.617 C 327.200 446.472, 319.056 449.542, 307.709 455.435 C 294.802 462.138, 287.065 461.019, 286.966 452.436 C 286.947 450.821, 286.063 447.700, 285 445.500 C 282.468 440.258, 282.521 437.877, 285.250 434.414 C 286.488 432.843, 288.032 428.968, 288.682 425.803 C 289.975 419.510, 297.577 407.586, 300.987 406.504 C 302.764 405.940, 302.704 405.556, 299.923 399.703 C 297.813 395.262, 297.151 392.683, 297.595 390.625 C 297.964 388.910, 297.830 387.987, 297.263 388.337 C 296.740 388.661, 294.780 388.536, 292.906 388.061 C 286.367 386.402, 282.176 386.150, 280.693 387.327 M 305.536 389.960 C 301.222 394.728, 307.157 404.756, 313.581 403.551 C 316.270 403.046, 317.754 403.400, 320.175 405.124 L 323.299 407.349 325.149 405.064 C 331.756 396.905, 312.601 382.154, 305.536 389.960 M 69.793 391.750 C 66.240 395.850, 63.772 408.515, 65.880 411.839 C 66.435 412.715, 66.892 411.475, 67.201 408.258 C 68.288 396.946, 72.369 393.341, 80.550 396.466 C 82.910 397.367, 87.915 398.438, 91.671 398.845 C 99.253 399.668, 110.532 407.271, 115.076 414.623 C 116.849 417.491, 117.730 418, 120.927 418 C 126.385 418, 128.489 420.548, 126.329 424.540 C 121.455 433.548, 121.605 432.770, 123.562 438.856 C 124.560 441.960, 126.943 446.865, 128.858 449.755 L 132.339 455.010 130.047 457.450 C 128.786 458.793, 126.575 460.028, 125.134 460.195 C 123.360 460.402, 122.066 461.467, 121.125 463.500 C 118.917 468.264, 116.918 469.998, 113.595 470.032 C 111.893 470.049, 109.626 470.724, 108.559 471.532 C 105.590 473.777, 103.086 473.304, 99.901 469.894 C 98.306 468.186, 97 467.047, 97 467.364 C 97 468.291, 101.076 475.357, 102.610 477.088 C 105.302 480.127, 101.576 481.663, 89.500 482.492 C 63.739 484.261, 64.604 484.521, 99.500 485.493 C 159.732 487.171, 161.034 487.055, 160.906 480 C 160.871 478.075, 160.595 477.175, 160.294 478 C 158.317 483.407, 157.352 483.637, 135.869 483.804 C 116.748 483.954, 115.605 483.855, 112.731 481.808 L 109.707 479.655 111.964 477.828 C 113.658 476.456, 115.926 476, 121.052 476 C 128.761 476, 129.408 475.541, 127.779 471.227 C 126.270 467.227, 127.848 465.220, 132.826 464.806 C 137.425 464.423, 138.273 460.416, 135.081 454.159 C 133.962 451.966, 132.564 447.996, 131.973 445.336 C 131.382 442.676, 129.742 438.822, 128.329 436.772 C 125.441 432.584, 125.520 431.516, 129.382 422.500 C 132.059 416.250, 132.454 412.250, 131.057 405.500 C 130.451 402.568, 130.199 402.193, 130.115 404.095 C 129.788 411.482, 124.243 410.892, 119.837 403.001 C 118.762 401.075, 118.136 400.329, 118.446 401.343 C 120.011 406.466, 120.122 408.148, 118.989 409.513 C 116.439 412.586, 107.928 406.250, 101.406 396.425 C 96.816 389.509, 97.387 389.737, 89.525 391.677 C 83.278 393.219, 82.506 393.218, 78.161 391.661 C 72.349 389.577, 71.670 389.585, 69.793 391.750 M 308 393.435 C 308 398.058, 309.965 400.229, 313.542 399.558 C 316.241 399.052, 317.737 399.388, 320.025 401.018 L 323 403.136 323 401.002 C 323 397.458, 321.268 395.324, 317.009 393.620 C 311.947 391.595, 308 391.514, 308 393.435 M 72.189 403.250 C 69.595 413.538, 70.758 423.490, 76.154 437.185 C 77.169 439.762, 78 443.723, 78 445.986 C 78 450.470, 81.472 453, 87.623 453 C 91.499 453, 96.640 457.355, 99.555 463.109 C 102.539 468.997, 104.316 469.929, 108.249 467.672 C 109.851 466.752, 112.245 466, 113.568 466 C 115.354 466, 116.336 465.133, 117.381 462.631 C 119.008 458.737, 122.451 456, 125.723 456 C 128.703 456, 128.598 455.126, 125.025 450.194 C 118.563 441.272, 117.109 432.558, 121.131 426.846 C 123.722 423.166, 123.475 422, 120.104 422 C 117.429 422, 113.388 418.612, 110.333 413.810 C 106.970 408.522, 98 403.290, 91.318 402.718 C 87.568 402.397, 82.827 401.429, 80.782 400.567 C 74.738 398.019, 73.402 398.436, 72.189 403.250 M 333 402.549 C 333 418.919, 327.537 421.087, 308.228 412.378 C 305.328 411.070, 302.554 410, 302.063 410 C 299.863 410, 293.873 420.119, 292.776 425.688 C 292.146 428.885, 290.589 432.932, 289.315 434.683 C 286.526 438.519, 286.475 440.272, 289 445.500 C 290.063 447.700, 290.947 450.962, 290.966 452.750 C 291.018 457.746, 296.365 457.326, 307.709 451.435 C 326.402 441.728, 338.551 438.858, 341.553 443.441 C 342.717 445.217, 342.927 446.394, 342.235 447.255 C 339.969 450.073, 341.987 454.907, 345.723 455.608 C 356.301 457.592, 367.205 450.114, 361.543 444.758 C 360.230 443.516, 359.011 441.825, 358.835 441 C 358.501 439.439, 364.967 425.470, 368.165 420.846 C 371.255 416.376, 370.516 414.206, 363.750 407.883 C 357.051 401.622, 355.802 401.180, 351.364 403.494 C 347.162 405.686, 344.290 405.354, 338.331 401.991 L 333 398.983 333 402.549 M 84.352 409.992 C 83.171 410.470, 81.907 411.341, 81.543 411.930 C 81.180 412.518, 79.853 413, 78.596 413 C 72.692 413, 71.127 423.623, 76.050 430.281 C 77.199 431.836, 78.795 435.313, 79.595 438.007 C 82.267 447.004, 87.677 451.224, 91.345 447.171 C 93.694 444.575, 93.417 442.398, 90.036 436.905 L 87.073 432.088 91.039 427.070 C 94.620 422.539, 95.302 422.110, 98.048 422.660 C 103.410 423.732, 105.244 423.539, 106.357 421.786 C 108.579 418.284, 102.664 413.210, 94 411.186 C 91.525 410.608, 88.825 409.908, 88 409.630 C 87.175 409.352, 85.534 409.515, 84.352 409.992 M 153.104 414.838 C 149.078 421.112, 149.038 421.023, 155.750 420.864 C 158.912 420.789, 160.534 420.539, 159.354 420.308 C 155.169 419.489, 153.623 416.629, 155.453 413.091 C 157.854 408.447, 156.612 409.371, 153.104 414.838 M 146.546 416.644 C 140.644 424.373, 142.467 428.238, 151 426.087 C 154.001 425.330, 154.130 425.190, 151.905 425.102 C 146.304 424.881, 144.925 421.046, 148.536 415.732 C 152.104 410.482, 150.792 411.083, 146.546 416.644 M 85.329 413.775 C 84.685 414.185, 83.854 415.735, 83.481 417.219 C 83.109 418.703, 82.173 420.442, 81.402 421.081 C 79.075 423.012, 81.043 430, 83.913 430 C 85.287 430, 93 419.014, 93 417.057 C 93 415.646, 88.401 412.742, 86.601 413.015 C 86.545 413.024, 85.973 413.366, 85.329 413.775 M 97 417.387 C 97 418.162, 98.320 418.967, 99.998 419.213 C 102.846 419.631, 102.913 419.561, 101.343 417.827 C 99.388 415.667, 97 415.425, 97 417.387 M 164.500 419.719 C 167.454 420.439, 169.989 423.023, 170.079 425.405 C 170.144 427.138, 170.333 427.019, 171.173 424.717 C 172.759 420.371, 171.671 418.984, 166.781 419.116 C 164.427 419.180, 163.400 419.451, 164.500 419.719 M 162.345 425.829 C 163.255 426.835, 164.032 428.522, 164.070 429.579 C 164.138 431.420, 164.177 431.416, 165 429.500 C 166.660 425.637, 166.167 424, 163.345 424 C 160.836 424, 160.781 424.101, 162.345 425.829 M 69.152 432 C 68.861 448.698, 74.686 458, 85.433 458 C 87.953 458, 89.966 458.909, 92.633 461.250 C 96.008 464.211, 96.218 464.278, 95.005 462 C 93.143 458.504, 90.990 457.072, 87.500 457.010 C 79.675 456.870, 74 452.045, 74 445.534 C 74 443.555, 73.266 440.263, 72.369 438.218 C 71.473 436.173, 70.399 432.925, 69.984 431 L 69.230 427.500 69.152 432 M 85.105 442.332 C 86.544 445.489, 89 445.874, 89 442.941 C 89 441.765, 88.552 441.159, 87.956 441.527 C 87.382 441.882, 86.232 441.608, 85.401 440.918 C 84.073 439.815, 84.037 439.987, 85.105 442.332 M 262.596 443.845 C 261.479 445.651, 260.734 453.510, 261.774 452.500 C 262.341 451.950, 263.014 449.587, 263.271 447.250 C 263.736 443.011, 263.585 442.245, 262.596 443.845 M 226.800 447.750 C 219.248 456.502, 218.944 464, 226.141 464 C 227.698 464, 231.056 464.558, 233.604 465.239 C 240.330 467.038, 246.630 459.416, 244.042 452.610 C 242.043 447.352, 230.059 443.973, 226.800 447.750 M 226.595 454.428 C 223.317 460.021, 223.173 459.618, 228.750 460.438 C 237.816 461.771, 238.349 461.689, 239.782 458.734 C 243.884 450.281, 231.412 446.209, 226.595 454.428 M 172 462.785 C 168.817 463.877, 168.008 469.888, 170.053 477.250 C 171.024 480.749, 171.350 481, 174.922 481 C 177.027 481, 180.156 481.281, 181.875 481.625 C 186.264 482.503, 185.989 480.265, 181 474.500 C 178.313 471.395, 177 468.925, 177 466.974 C 177 463.888, 174.614 461.888, 172 462.785 M 338.687 475.805 C 332.546 482.215, 335.673 484.376, 350.750 484.144 C 366.633 483.899, 369.615 481.847, 363.677 475.250 C 360.276 471.472, 342.459 471.867, 338.687 475.805 M 340.459 478.067 C 339.186 480.127, 341.511 480.484, 354.250 480.183 C 360.391 480.038, 362 479.689, 362 478.500 C 362 476.660, 341.582 476.249, 340.459 478.067 M 29.750 481.723 C 31.538 481.945, 34.462 481.945, 36.250 481.723 C 38.038 481.502, 36.575 481.320, 33 481.320 C 29.425 481.320, 27.962 481.502, 29.750 481.723 M 194.628 504.859 C 193.030 506.625, 193.160 506.903, 197.223 510.414 C 199.575 512.447, 203.075 515.662, 205 517.558 C 208.452 520.960, 211.694 521.905, 213.550 520.051 C 214.855 518.746, 220.503 521.593, 222.424 524.524 C 223.260 525.800, 226.175 528.059, 228.901 529.542 C 235.493 533.131, 237.275 537.014, 233.952 540.551 L 231.630 543.023 234.997 546.496 C 236.848 548.407, 238.549 549.784, 238.776 549.557 C 239.003 549.331, 240.540 550.685, 242.193 552.567 C 246.524 557.500, 252.056 555.834, 255.695 548.502 C 256.514 546.851, 258.563 544.329, 260.248 542.898 C 261.934 541.467, 263.392 539.217, 263.489 537.898 C 263.646 535.763, 264.142 535.500, 268 535.500 C 272.815 535.500, 274.498 537.407, 270.556 538.397 C 265.274 539.722, 264.268 543.508, 267.848 548.586 C 269.581 551.046, 271 553.472, 271 553.978 C 271 555.672, 277.459 559.824, 281.160 560.510 C 287.346 561.657, 297.109 548.591, 303.137 531.093 C 306.121 522.434, 304.303 516, 298.874 516 C 298.050 516, 296.378 514.650, 295.158 513 C 292.664 509.626, 289.851 509.200, 284.591 511.398 C 282.039 512.464, 279.497 512.593, 273.873 511.942 C 269.818 511.472, 259.665 511.068, 251.312 511.044 C 242.021 511.017, 233.673 510.451, 229.812 509.585 C 226.340 508.807, 221.475 508.148, 219 508.120 C 216.525 508.092, 211.246 506.928, 207.269 505.534 C 198.636 502.509, 196.841 502.413, 194.628 504.859 M 199.438 507.900 C 199.817 508.513, 201.468 509.708, 203.106 510.555 C 204.745 511.402, 206.505 513.199, 207.018 514.548 C 207.982 517.082, 210.807 517.793, 212.637 515.963 C 214.180 514.420, 217.998 516.198, 223.852 521.185 C 232.180 528.277, 240.794 534.104, 244.442 535.112 C 248.752 536.302, 253.542 541.642, 251.984 543.520 C 250.268 545.587, 244.095 548.172, 242.739 547.391 C 242.058 546.999, 242.529 547.809, 243.787 549.193 C 247.093 552.828, 250.166 551.897, 252.807 546.460 C 253.974 544.058, 256.081 541.337, 257.490 540.415 C 259.209 539.288, 259.866 538.153, 259.488 536.963 C 258.227 532.991, 272.248 528.355, 274.500 532 C 275.435 533.513, 278 533.197, 278 531.568 C 278 529.775, 283.175 526.017, 286.464 525.421 C 289.285 524.909, 292.464 528.628, 291.455 531.258 C 291.130 532.105, 291.293 533.063, 291.818 533.387 C 292.411 533.754, 292.340 535.210, 291.628 537.239 C 290.151 541.450, 289.042 543.144, 288.133 542.582 C 287.732 542.335, 286.751 542.547, 285.952 543.054 C 284.887 543.730, 283.781 543.113, 281.801 540.738 C 279.460 537.928, 278.864 537.668, 277.301 538.770 C 276.311 539.469, 274.038 540.712, 272.250 541.534 C 268.166 543.410, 268.176 543.523, 272.972 550.221 C 280.464 560.684, 285.498 559.286, 293.067 544.642 C 300.559 530.145, 303.070 520, 299.167 520 C 298.158 520, 296.996 519.663, 296.583 519.250 C 296.171 518.837, 295.308 518.500, 294.667 518.500 C 294.025 518.500, 293.056 517.487, 292.513 516.250 C 291.374 513.653, 289.300 513.430, 284.591 515.398 C 282.039 516.464, 279.497 516.593, 273.873 515.942 C 269.818 515.472, 259.665 515.068, 251.312 515.044 C 242.021 515.017, 233.673 514.451, 229.812 513.585 C 226.340 512.807, 221.427 512.150, 218.893 512.125 C 216.359 512.099, 211.859 511.199, 208.893 510.125 C 200.411 507.051, 198.659 506.639, 199.438 507.900 M 282.938 531.062 L 280.920 533.080 283.133 536.186 L 285.345 539.293 287.187 537.017 C 288.566 535.314, 288.753 534.407, 287.929 533.414 C 287.323 532.685, 287.089 531.665, 287.408 531.149 C 288.611 529.202, 284.870 529.130, 282.938 531.062 M 241.430 539.887 C 242.070 540.922, 239.633 543.212, 238.650 542.500 C 238.283 542.234, 238.418 542.534, 238.949 543.166 C 239.675 544.029, 240.277 544.015, 241.369 543.109 C 242.247 542.380, 243.055 542.280, 243.412 542.858 C 244.229 544.180, 248 543.056, 248 541.490 C 248 540.788, 247.288 539.941, 246.418 539.607 C 244.043 538.695, 240.806 538.877, 241.430 539.887" stroke="none" fill="#1A1A1A" fill-rule="evenodd"/>
</svg>