<svg xmlns="http://www.w3.org/2000/svg" viewBox="0 0 507 600" version="1.1" preserveAspectRatio="xMidYMid meet">
	<path d="M 308.500 68.938 C 296.905 70.126, 278.366 80.525, 274.495 88.010 C 273.344 90.236, 272.198 90.890, 268.778 91.274 C 263.820 91.830, 258.562 93.742, 255 96.284 C 253.625 97.265, 250.025 98.792, 247 99.677 C 243.975 100.562, 239.475 102.166, 237 103.240 C 234.525 104.315, 230.759 105.372, 228.631 105.589 C 226.504 105.806, 223.129 106.997, 221.131 108.236 C 219.134 109.475, 217.275 110.507, 217 110.530 C 216.725 110.552, 215.600 111.073, 214.500 111.687 C 213.400 112.301, 212.050 112.919, 211.500 113.061 C 209.505 113.575, 189.806 132.591, 187.736 136 C 186.568 137.925, 183.738 141.669, 181.448 144.320 C 177.404 149.002, 175.291 152.665, 171.245 162 C 168.029 169.420, 167.793 170.239, 166.911 177 C 165.394 188.635, 164.791 191.476, 163.514 193 C 159.301 198.028, 157.522 208.070, 159.618 215 C 160.366 217.475, 160.983 221.161, 160.989 223.191 C 160.995 225.221, 161.423 227.143, 161.940 227.463 C 162.497 227.807, 162.294 229.446, 161.441 231.487 C 157.593 240.696, 156.482 265.149, 159.456 275.165 C 160.305 278.024, 161 282.125, 161 284.278 C 161 288.307, 163.349 298.160, 165.044 301.236 C 165.570 302.191, 166 304.127, 166 305.538 C 166 306.949, 166.859 309.768, 167.909 311.802 C 172.008 319.742, 177 333.402, 177 336.679 C 177 340.116, 182.744 348.482, 187.330 351.723 C 199.917 360.621, 213.532 363.480, 224.500 359.529 C 233.342 356.343, 235.369 357.111, 239.930 365.373 C 242.168 369.428, 244 373.916, 244 375.346 C 244 377.629, 236.456 389.800, 229.923 398.054 C 228.724 399.570, 227.338 403.841, 226.517 408.554 C 224.483 420.228, 223.594 423.076, 220.628 427.426 C 219.155 429.585, 217.017 434.426, 215.876 438.183 C 214.735 441.940, 212.645 446.699, 211.232 448.757 C 204.205 458.999, 202.353 464.729, 202.107 477 C 201.867 488.920, 199.262 497.518, 194.077 503.500 C 193.124 504.600, 190.877 509.325, 189.085 514 C 187.293 518.675, 184.904 524.075, 183.777 526 C 182.649 527.925, 180.593 531.525, 179.208 534 C 177.823 536.475, 175.410 540.065, 173.845 541.978 C 172.129 544.076, 170.994 546.655, 170.985 548.478 C 170.971 551.500, 170.423 552.732, 166.302 559.010 C 165.093 560.852, 164.344 562.748, 164.638 563.223 C 164.932 563.699, 164.528 565.081, 163.740 566.294 C 162.952 567.507, 161.324 571.356, 160.122 574.847 C 158.919 578.338, 156.150 583.882, 153.968 587.168 C 149.719 593.565, 148.782 598.595, 151.636 599.691 C 154.101 600.636, 156.187 598.828, 157.690 594.442 C 158.432 592.274, 159.737 588.925, 160.588 587 C 162.864 581.851, 163.660 579.888, 165.046 576 C 165.732 574.075, 168.325 568.102, 170.808 562.727 C 175.323 552.955, 175.323 552.955, 177.499 554.999 C 179.675 557.043, 179.675 557.043, 182.338 554.949 C 183.802 553.797, 185 552.390, 185 551.821 C 185 551.253, 186.288 549.148, 187.863 547.144 C 191.322 542.741, 194.349 537.016, 193.609 536.276 C 193.313 535.980, 193.730 534.796, 194.535 533.646 C 195.341 532.496, 196 530.825, 196 529.932 C 196 529.040, 196.838 527.552, 197.861 526.625 C 198.885 525.699, 200.568 523.067, 201.601 520.777 C 202.634 518.486, 204.400 515.687, 205.525 514.556 C 209.144 510.921, 210.631 499.345, 207.947 495.714 C 206.032 493.125, 205.931 492.472, 207.078 490.141 C 207.869 488.532, 208.414 483.398, 208.473 477 C 208.567 466.714, 209.913 460.332, 212.707 456.921 C 213.418 456.053, 214 455.022, 214 454.630 C 214 454.237, 215.346 451.037, 216.992 447.517 C 218.638 443.997, 220.893 438.728, 222.004 435.808 C 224.321 429.715, 227.502 425.169, 228.646 426.313 C 229.077 426.744, 228.882 427.862, 228.212 428.798 C 227.543 429.734, 226.546 431.625, 225.997 433 C 225.448 434.375, 224.549 436.281, 224 437.236 C 222.455 439.919, 222.788 441.452, 225.460 443.963 C 227.921 446.274, 227.921 446.274, 225.460 448.210 C 222.892 450.230, 222.228 453.828, 224.081 455.681 C 225.785 457.385, 231.820 455.061, 234.134 451.812 C 235.235 450.265, 236.936 449, 237.913 449 C 238.890 449, 240.505 448.100, 241.500 447 C 242.495 445.900, 244.331 445, 245.578 445 C 246.826 445, 249.295 443.782, 251.064 442.293 C 252.938 440.716, 257.042 438.896, 260.891 437.937 C 268.102 436.138, 270.307 436.396, 267.073 438.661 C 265.933 439.460, 265 440.880, 265 441.816 C 265 443.873, 261.374 446.415, 260.487 444.980 C 259.388 443.201, 254.550 443.970, 251.505 446.406 C 248.540 448.778, 248.530 448.823, 250.414 450.905 C 252.785 453.525, 251.342 457.666, 247.882 458.173 C 246.655 458.353, 244.942 459.681, 244.076 461.124 C 243.209 462.568, 240.542 465.474, 238.150 467.582 C 235.757 469.690, 231.789 474.494, 229.332 478.258 C 226.875 482.021, 223.883 485.477, 222.682 485.936 C 217.331 487.982, 215.848 491.858, 217.081 500.566 C 217.860 506.070, 217.757 507.721, 216.517 509.614 C 215.683 510.888, 215 512.586, 215 513.388 C 215 514.190, 213.829 516.238, 212.399 517.938 C 210.968 519.638, 210.043 521.669, 210.342 522.450 C 210.652 523.257, 209.182 525.735, 206.940 528.185 C 204.770 530.558, 202.491 534.075, 201.876 536 C 201.262 537.925, 199.713 540.625, 198.436 542 C 197.158 543.375, 194.921 547.200, 193.464 550.500 C 192.007 553.800, 188.458 561.225, 185.579 567 C 182.699 572.775, 180.029 578.750, 179.645 580.277 C 179.262 581.804, 177.571 585.293, 175.886 588.030 C 172.510 593.518, 171.291 598.444, 173.041 599.525 C 174.566 600.468, 175.775 599.086, 176.382 595.705 C 176.658 594.168, 178.248 590.692, 179.916 587.982 C 181.584 585.271, 183.262 581.804, 183.645 580.277 C 184.029 578.750, 186.699 572.775, 189.579 567 C 192.458 561.225, 196.007 553.800, 197.464 550.500 C 198.921 547.200, 201.158 543.375, 202.436 542 C 203.713 540.625, 205.270 537.897, 205.895 535.938 C 206.520 533.978, 208.825 530.624, 211.018 528.483 C 213.521 526.038, 214.812 523.984, 214.488 522.963 C 214.203 522.065, 214.875 520.518, 215.986 519.513 C 217.094 518.510, 218 517.285, 218 516.790 C 218 516.295, 218.901 513.912, 220.003 511.494 C 221.736 507.689, 221.882 506.223, 221.085 500.594 C 219.945 492.544, 220.404 490.663, 223.826 489.372 C 225.479 488.748, 228.449 485.484, 231.510 480.927 C 234.255 476.842, 236.950 473.313, 237.500 473.084 C 238.050 472.855, 240.525 470.478, 243 467.801 C 245.475 465.124, 248.615 462.377, 249.979 461.698 C 251.342 461.018, 253.396 458.789, 254.543 456.745 C 256.206 453.779, 256.882 453.278, 257.885 454.264 C 259.290 455.645, 263.493 451.607, 262.434 449.894 C 262.129 449.400, 263.053 448.550, 264.488 448.004 C 266.038 447.415, 267.698 445.573, 268.579 443.466 C 269.394 441.515, 270.416 440.139, 270.851 440.408 C 271.998 441.117, 278.199 437.131, 277.559 436.096 C 277.034 435.246, 282.471 435.544, 286.500 436.585 C 287.600 436.869, 289.850 437.316, 291.500 437.579 C 297.893 438.596, 298.898 439.100, 300.822 442.248 C 302.553 445.082, 302.757 446.842, 302.408 455.932 C 301.948 467.873, 302.837 472.176, 306.564 476.067 C 309.136 478.751, 309.152 478.848, 307.210 479.888 C 305.489 480.808, 304.096 479.953, 297.008 473.626 C 290.969 468.234, 288.166 466.367, 286.404 466.560 C 285.086 466.705, 283.787 466.465, 283.517 466.027 C 282.813 464.889, 277.101 465.499, 275.743 466.857 C 275.114 467.486, 274.908 468, 275.285 468 C 277.351 468, 271.553 474.517, 267.852 476.356 C 264.928 477.808, 263.394 479.262, 263.177 480.786 C 262.999 482.034, 261.762 484.148, 260.427 485.482 C 259.092 486.817, 258 488.838, 258 489.973 C 258 491.108, 257.055 495.516, 255.901 499.768 C 254.746 504.021, 253.706 507.950, 253.590 508.500 C 252.279 514.687, 245.078 519.209, 242.153 515.684 C 240.614 513.829, 229.499 514.744, 224.818 517.110 C 220.778 519.152, 219.830 520.256, 219.414 523.404 C 219.262 524.557, 218.490 529.325, 217.700 534 C 216.909 538.675, 216.182 544.290, 216.084 546.477 C 215.745 554.077, 212.683 565, 210.893 565 C 209.064 565, 205.113 572.729, 204.503 577.500 C 203.630 584.323, 202.424 586.647, 196.596 592.742 C 192.814 596.698, 191.867 598.267, 192.736 599.136 C 194.048 600.448, 206 589.108, 206 586.552 C 206 585.763, 206.387 584.879, 206.859 584.587 C 207.331 584.295, 208.020 581.486, 208.389 578.344 C 208.920 573.827, 209.819 571.707, 212.684 568.211 C 216.832 563.148, 218.703 558.381, 219.627 550.517 C 220.963 539.147, 222.965 547.978, 221.946 560.750 C 221.869 561.712, 222.151 564.750, 222.571 567.500 C 223.428 573.102, 223.434 573.860, 222.705 583 C 222.420 586.575, 221.409 591.442, 220.458 593.815 C 219.170 597.034, 219.019 598.419, 219.865 599.265 C 223.001 602.401, 226.859 589.513, 227.280 574.500 C 227.310 573.400, 226.992 570.250, 226.571 567.500 C 226.151 564.750, 225.869 561.712, 225.946 560.750 C 226.411 554.926, 226.335 551.854, 225.595 546.500 C 224.725 540.197, 224.753 528.913, 225.642 528.024 C 226.484 527.183, 229 531.202, 229 533.386 C 229 534.489, 230.097 536.540, 231.438 537.945 C 232.778 539.350, 234.059 541.625, 234.284 543 C 234.509 544.375, 235.042 546.307, 235.470 547.294 C 235.898 548.280, 235.982 550.721, 235.658 552.717 C 235.011 556.710, 236.269 563.835, 238.446 568.500 C 240.507 572.917, 243.991 584.661, 244.642 589.386 C 245.347 594.499, 250.361 601.039, 252.181 599.219 C 253.104 598.296, 252.909 597.515, 251.317 595.763 C 250.185 594.518, 248.969 591.574, 248.613 589.221 C 247.860 584.233, 244.464 572.825, 242.446 568.500 C 240.269 563.835, 239.011 556.710, 239.658 552.717 C 239.982 550.721, 239.898 548.280, 239.470 547.294 C 239.042 546.307, 238.516 544.445, 238.299 543.156 C 238.083 541.867, 236.905 539.167, 235.681 537.156 C 234.458 535.145, 232.447 531.412, 231.213 528.860 C 228.602 523.459, 226.629 521.545, 224.513 522.357 C 221.958 523.337, 222.836 522.136, 225.791 520.608 C 229.363 518.761, 239.634 518.234, 241.217 519.817 C 244.832 523.432, 256.070 516.200, 257.444 509.374 C 257.652 508.344, 258.762 504.021, 259.911 499.768 C 261.060 495.516, 262 491.180, 262 490.133 C 262 489.087, 263.092 487.514, 264.427 486.640 C 265.762 485.765, 267 484.053, 267.177 482.836 C 267.382 481.435, 268.967 479.867, 271.500 478.562 C 273.943 477.303, 276.044 475.265, 276.897 473.328 C 278.318 470.102, 281.542 468.417, 283.448 469.905 C 284.027 470.357, 285.512 470.639, 286.748 470.531 C 290.025 470.245, 303.117 482.835, 302.399 485.582 C 301.771 487.982, 305.065 491.330, 307.568 490.838 C 310.276 490.305, 311.703 487.356, 310.323 485.145 C 309.372 483.623, 309.537 482.908, 311.225 481.219 C 313.290 479.154, 313.290 479.154, 310.072 475.090 C 307.316 471.611, 306.797 470.054, 306.460 464.263 C 306.068 457.500, 306.068 457.500, 307.415 462.189 C 308.156 464.768, 309.757 468.489, 310.974 470.458 C 314.206 475.688, 321.611 496, 320.286 496 C 319.994 496, 320.175 496.562, 320.689 497.250 C 321.748 498.667, 321.734 499.523, 320.602 502.851 C 320.133 504.226, 320.220 505.620, 320.810 506.210 C 321.489 506.889, 321.480 508.192, 320.783 510.191 C 319.468 513.966, 320.290 527.439, 321.959 529.450 C 322.784 530.445, 322.991 532.277, 322.556 534.736 C 321.821 538.897, 321.778 539.944, 321.878 551.500 C 321.915 555.900, 321.933 561.075, 321.917 563 C 321.900 564.925, 322.195 568.975, 322.572 572 C 322.949 575.025, 322.903 577.166, 322.470 576.759 C 320.942 575.318, 319 578.294, 319 582.078 C 319 585.780, 317.071 589.671, 311.976 596.252 C 310.083 598.696, 310.027 599.073, 311.473 599.628 C 313.224 600.300, 318 596.522, 318 594.465 C 318 593.813, 319.125 591.621, 320.500 589.595 C 321.875 587.569, 323 585.013, 323 583.915 C 323 582.817, 323.962 580.618, 325.138 579.028 C 326.933 576.599, 327.162 575.365, 326.567 571.318 C 326.177 568.668, 325.878 564.925, 325.902 563 C 325.927 561.075, 325.915 555.900, 325.878 551.500 C 325.778 539.944, 325.821 538.897, 326.556 534.736 C 326.991 532.277, 326.784 530.445, 325.959 529.450 C 324.290 527.439, 323.468 513.966, 324.783 510.191 C 325.480 508.192, 325.489 506.889, 324.810 506.210 C 324.220 505.620, 324.133 504.226, 324.602 502.851 C 325.734 499.523, 325.748 498.667, 324.689 497.250 C 324.175 496.563, 323.994 496, 324.286 496 C 325.610 496, 318.207 475.689, 314.980 470.468 C 311.992 465.632, 309.075 453.858, 309.704 449.168 C 310.271 444.945, 306.923 437.042, 303.108 433.595 C 301.888 432.493, 301 430.470, 301 428.795 C 301 425.362, 299.017 421.230, 296.102 418.593 C 292.767 415.574, 294.842 407.252, 300.486 401.016 C 302.198 399.124, 302.904 386.012, 301.607 380.194 C 300.497 375.215, 308.178 369, 315.442 369 C 316.838 369, 325.225 366.172, 337.209 361.662 C 344.663 358.856, 358.507 356, 364.654 356 C 373.304 356, 374.652 350.660, 368.346 341.369 C 366.019 337.939, 366.019 337.939, 369.759 338.097 C 381.187 338.583, 388.680 342.531, 384.600 345.917 C 382.483 347.674, 382.814 353.867, 385.100 355.295 C 388.801 357.606, 387.543 360.954, 383.171 360.427 C 380.213 360.071, 378.925 360.425, 377.516 361.983 C 375.340 364.387, 371.302 364.571, 366.329 362.493 C 363.698 361.393, 362.368 361.280, 361.413 362.072 C 360.693 362.670, 357.653 363.011, 354.658 362.830 C 350.388 362.571, 348.757 362.912, 347.102 364.409 C 345.369 365.976, 344.559 366.120, 342.572 365.215 C 340.705 364.364, 339.897 364.419, 339.038 365.455 C 338.164 366.507, 337.284 366.556, 334.965 365.681 C 330.999 364.184, 327.798 366.846, 329.770 370.003 C 332.475 374.335, 330.597 378.422, 327.482 374.980 C 326.120 373.475, 325.376 373.273, 324.348 374.126 C 322.338 375.794, 322.707 377.616, 325.469 379.667 C 327.868 381.448, 327.894 381.600, 326.380 385 C 323.729 390.951, 323.370 391.466, 321.068 392.634 C 317.073 394.660, 316.516 395.726, 318 398.500 C 318.985 400.341, 319.058 401.342, 318.264 402.136 C 317.604 402.796, 317.378 405.272, 317.695 408.366 C 318.142 412.719, 317.901 413.790, 316.111 415.405 C 314.950 416.453, 314 418.140, 314 419.155 C 314 420.293, 313.281 421, 312.122 421 C 308.961 421, 307.421 423.703, 309.362 425.847 C 311.519 428.231, 311.429 429.589, 308.876 433.175 C 306.344 436.730, 307.408 440.444, 311.391 441.958 C 312.719 442.463, 314.101 443.354, 314.462 443.938 C 314.823 444.522, 315.844 445, 316.730 445 C 317.617 445, 319.157 445.737, 320.153 446.638 C 322.351 448.628, 325.258 446.890, 324.271 444.177 C 323.735 442.703, 323.913 442.721, 325.743 444.326 C 326.889 445.330, 329.405 446.277, 331.335 446.431 C 333.446 446.598, 336.428 447.963, 338.816 449.855 C 341.001 451.585, 343.623 453.003, 344.644 453.006 C 345.670 453.010, 347.291 454.401, 348.268 456.118 C 349.564 458.395, 350.561 459.087, 352.006 458.709 C 353.090 458.425, 354.994 458.973, 356.238 459.927 C 357.482 460.880, 359.288 461.947, 360.250 462.298 C 361.555 462.775, 362 464.057, 362 467.346 C 362 473.192, 364.138 475.159, 367.282 472.205 C 369.506 470.116, 369.506 470.116, 371.761 473.557 C 373.019 475.476, 375.955 477.909, 378.399 479.058 C 381.867 480.688, 382.674 481.530, 382.266 483.092 C 381.645 485.464, 384.563 489, 387.142 489 C 388.263 489, 389.500 490.261, 390.332 492.250 C 391.926 496.064, 394.347 498.291, 397.348 498.702 C 400.173 499.089, 405.223 505.003, 404.419 506.983 C 402.486 511.742, 402.780 515.871, 405.225 518.316 C 406.799 519.889, 407.595 521.698, 407.424 523.307 C 407.063 526.685, 410.436 529.845, 412.807 528.350 C 414.176 527.486, 414.924 527.863, 416.751 530.340 C 419.432 533.975, 418.381 535.950, 414.665 534.257 C 412.690 533.357, 411.925 533.519, 410.253 535.192 C 408.229 537.215, 408.229 537.215, 408.979 533.117 C 409.497 530.284, 409.347 528.703, 408.495 527.996 C 405.813 525.770, 399.379 528.926, 400.514 531.910 C 400.891 532.902, 400.777 533.124, 400.210 532.500 C 399.711 531.950, 398.265 527.097, 396.998 521.715 C 395.731 516.333, 394.312 511.693, 393.844 511.403 C 393.376 511.114, 393.248 509.859, 393.561 508.615 C 394.523 504.781, 391.674 503.384, 388.094 505.933 C 383.548 509.170, 383.121 512.467, 386.424 518.853 C 387.291 520.529, 388 523.507, 388 525.469 C 388 528.572, 392.081 537.971, 394.921 541.410 C 395.416 542.009, 396.145 544.300, 396.541 546.500 C 396.937 548.700, 397.691 551.043, 398.216 551.706 C 398.742 552.370, 398.821 553.480, 398.392 554.175 C 397.307 555.930, 397.170 560.987, 398.190 561.617 C 398.653 561.904, 398.793 562.526, 398.500 563 C 398.207 563.474, 398.425 564.144, 398.984 564.490 C 400.550 565.458, 400.187 567, 398.393 567 C 397.412 567, 396.999 566.444, 397.334 565.573 C 398.221 563.261, 395.520 561.669, 393.940 563.573 C 392.995 564.711, 391.735 564.986, 389.557 564.529 C 387.876 564.177, 385.100 563.738, 383.388 563.553 C 381.677 563.369, 379.374 562.735, 378.270 562.144 C 377.166 561.554, 376.035 561.299, 375.756 561.577 C 375.477 561.856, 374.046 560.655, 372.576 558.908 C 369.904 555.732, 369.904 555.732, 372.200 554.588 C 373.462 553.958, 374.540 552.781, 374.595 551.972 C 374.650 551.162, 374.820 550.163, 374.973 549.750 C 375.125 549.337, 375.345 548.663, 375.461 548.250 C 375.578 547.837, 375.932 546.825, 376.248 546 C 379.729 536.928, 380.642 526.493, 378.944 515.192 C 378.042 509.193, 378.100 507.492, 379.265 505.692 C 383.830 498.639, 380.903 492.981, 375.814 499.022 C 372.883 502.500, 372.883 502.500, 373.173 496.334 C 373.613 486.971, 369.927 483.502, 366.609 490.157 C 365.232 492.919, 362.509 493.667, 360.351 491.876 C 358.264 490.144, 356.292 489.944, 355.129 491.345 C 354.132 492.546, 354.049 492.851, 353.926 495.750 C 353.885 496.712, 353.048 495.700, 352.065 493.500 C 350.329 489.616, 350.334 489.419, 352.231 486.716 C 354.055 484.117, 354.077 483.767, 352.569 481.466 C 350.465 478.254, 349.780 478.347, 346.292 482.320 C 343.378 485.639, 343.378 485.639, 342.189 483.120 C 341.535 481.735, 341 479.621, 341 478.423 C 341 473.589, 336.914 473.283, 331.804 477.734 C 330.220 479.115, 330.266 479.461, 332.497 482.996 C 333.811 485.077, 334.685 486.981, 334.440 487.227 C 334.194 487.473, 336.019 489.820, 338.496 492.442 C 344.540 498.840, 343.629 504, 336.456 504 C 334.381 504, 332.079 507.513, 331.595 511.418 C 331.333 513.530, 330.556 517.453, 329.868 520.137 C 328.900 523.913, 328.887 525.287, 329.809 526.209 C 330.464 526.864, 331 528.372, 331 529.560 C 331 530.749, 332.046 533.262, 333.324 535.146 C 335.044 537.680, 335.535 539.541, 335.213 542.299 C 334.962 544.448, 335.310 546.668, 336.033 547.540 C 336.790 548.452, 337.344 552.386, 337.430 557.461 C 337.533 563.536, 338.011 566.374, 339.153 567.685 C 341.268 570.113, 341.153 573.045, 338.841 575.595 C 337.699 576.855, 336.717 579.844, 336.377 583.095 C 336.066 586.068, 335.149 589.979, 334.341 591.787 C 332.603 595.674, 332.908 599.500, 334.955 599.500 C 335.843 599.500, 336.728 597.971, 337.225 595.578 C 337.673 593.421, 338.424 591.171, 338.894 590.578 C 339.363 589.985, 339.963 587.133, 340.228 584.240 C 340.508 581.178, 341.453 578.157, 342.489 577.012 C 344.899 574.350, 345.247 569.931, 343.224 567.695 C 341.990 566.332, 341.536 563.720, 341.429 557.377 C 341.347 552.536, 340.794 548.394, 340.143 547.743 C 338.721 546.321, 338.650 541.750, 340.028 540.372 C 340.731 539.669, 340.100 538.143, 338.028 535.535 C 336.362 533.439, 335 530.881, 335 529.849 C 335 528.817, 334.484 527.147, 333.854 526.137 C 331.921 523.042, 333.560 518.715, 336.083 520.253 C 337.854 521.332, 338.393 521.179, 340.080 519.121 C 342.262 516.458, 341.233 514, 337.937 514 C 335.616 514, 334.953 512.898, 335.656 510.208 C 336.307 507.719, 342.207 507.340, 344.135 509.662 C 344.745 510.398, 344.996 511, 344.692 511 C 344.388 511, 344.601 512.462, 345.165 514.250 C 345.728 516.038, 346.133 519.121, 346.063 521.101 C 345.986 523.284, 346.555 525.216, 347.507 526.006 C 348.908 527.169, 348.777 527.626, 346.289 530.247 C 343.500 533.184, 343.500 533.184, 347.666 536.904 C 351.666 540.474, 351.752 540.674, 349.819 541.881 C 348.711 542.573, 348.070 543.403, 348.394 543.727 C 348.718 544.051, 348.531 544.860, 347.979 545.525 C 346.287 547.564, 349.668 549.689, 352.144 548.142 C 353.233 547.462, 354.933 547.161, 355.921 547.475 C 359.024 548.460, 360.494 545.459, 357.825 543.590 C 355.555 542, 355.555 542, 357.777 542 C 359 542, 359.929 542.337, 359.841 542.750 C 359.544 544.156, 361.288 547.495, 363.671 550.081 C 364.979 551.500, 366.251 553.708, 366.498 554.987 C 366.744 556.266, 367.862 558.288, 368.982 559.481 C 370.102 560.673, 370.778 561.888, 370.485 562.182 C 369.629 563.037, 372.330 564.839, 375.265 565.372 C 376.751 565.641, 378.459 566.166, 379.060 566.537 C 379.661 566.909, 381.581 567.373, 383.327 567.569 C 391.637 568.501, 394.698 569.403, 397.059 571.613 C 400.514 574.847, 404.823 574.480, 406.930 570.773 C 407.794 569.255, 409.007 568.010, 409.628 568.006 C 410.248 568.003, 411.315 567.325, 412 566.500 C 413.897 564.214, 411.508 561.658, 408.819 563.097 C 407.052 564.043, 406.959 563.944, 407.924 562.141 C 409.352 559.473, 407.970 555.994, 404.233 552.849 C 402.340 551.256, 401.031 548.974, 400.557 546.438 C 400.152 544.272, 399.416 542.009, 398.921 541.410 C 396.081 537.971, 392 528.572, 392 525.469 C 392 523.507, 391.285 520.519, 390.412 518.830 C 388.190 514.534, 387.585 510.696, 389.213 511.234 C 389.921 511.468, 391.780 516.798, 393.344 523.080 C 396.647 536.344, 396.432 535.998, 403.542 539.477 C 406.544 540.945, 409 542.639, 409 543.240 C 409 543.841, 408.704 544.037, 408.342 543.675 C 406.587 541.920, 405.213 545.188, 406.189 548.795 C 407.718 554.443, 410.818 557.306, 414.496 556.465 C 416.148 556.087, 418.279 555.799, 419.230 555.825 C 422.658 555.919, 424.098 547.978, 421.240 544.750 C 420.387 543.787, 420.040 543, 420.467 543 C 420.895 543, 420.678 542.317, 419.984 541.481 C 418.953 540.238, 419.050 539.603, 420.517 537.981 C 421.503 536.892, 421.960 536, 421.533 536 C 421.105 536, 421.263 535.389, 421.883 534.641 C 422.744 533.604, 422.536 532.680, 421.005 530.734 C 419.902 529.332, 419 527.079, 419 525.727 C 419 522.545, 415.120 517.480, 413.739 518.861 C 412.229 520.371, 407 516.116, 407 513.377 C 407 512.141, 407.460 509.919, 408.023 508.440 C 408.884 506.174, 408.647 505.226, 406.523 502.441 C 405.135 500.622, 404 498.723, 404 498.222 C 404 496.508, 400.503 494.454, 397.796 494.578 C 395.633 494.676, 394.879 494.093, 394.033 491.665 C 392.627 487.633, 390.137 485, 387.728 485 C 386.262 485, 385.898 484.497, 386.288 483.008 C 386.847 480.871, 382.602 476.559, 378.343 474.940 C 377.095 474.466, 374.927 472.260, 373.525 470.039 C 370.889 465.863, 369.265 465.135, 367.200 467.200 C 366.267 468.133, 366 467.842, 366 465.887 C 366 463.564, 361.487 458, 359.603 458 C 359.170 458, 357.703 457.125, 356.344 456.056 C 354.985 454.987, 353.339 454.312, 352.686 454.557 C 352.034 454.803, 350.733 453.652, 349.797 452.002 C 348.587 449.870, 347.338 449, 345.487 449 C 344.043 449, 340.815 447.424, 338.251 445.466 C 335.705 443.522, 332.981 442.177, 332.198 442.477 C 331.415 442.778, 329.229 442.068, 327.339 440.901 C 324.095 438.895, 323.799 438.872, 322.024 440.478 C 320.302 442.037, 319.910 442.048, 317.323 440.614 C 315.770 439.754, 313.712 438.761, 312.750 438.408 C 310.499 437.583, 310.567 436.111, 313 433 C 315.105 430.309, 315.572 427.472, 314.065 426.540 C 313.550 426.222, 314.225 424.866, 315.565 423.526 C 316.904 422.187, 318 420.240, 318 419.200 C 318 418.161, 318.947 416.453, 320.103 415.406 C 321.860 413.817, 322.128 412.682, 321.728 408.525 C 321.408 405.188, 321.721 402.829, 322.679 401.367 C 323.486 400.136, 323.707 398.937, 323.187 398.616 C 322.680 398.302, 324.015 396.207, 326.153 393.960 C 328.291 391.713, 329.753 389.409, 329.402 388.842 C 328.647 387.620, 330.598 383.425, 333.414 380.212 C 335.560 377.765, 335.784 372.649, 333.848 370.316 C 332.594 368.805, 333.809 368.593, 335.952 369.949 C 336.751 370.455, 337.876 370.573, 338.452 370.212 C 340.233 369.097, 342.124 369.100, 344.582 370.219 C 347.154 371.391, 350.474 369.677, 349.673 367.590 C 349.383 366.836, 352.220 366.605, 358.877 366.840 C 364.170 367.028, 370.570 367.251, 373.101 367.337 C 375.863 367.430, 378.401 366.912, 379.452 366.040 C 386.455 360.228, 389.206 369.125, 390.571 402 C 390.811 407.775, 391.263 414.525, 391.576 417 C 392.220 422.098, 392.416 441.477, 391.915 450.500 C 391.732 453.800, 391.716 462.073, 391.880 468.884 C 392.309 486.746, 391.855 486.401, 413.744 485.521 C 424.472 485.089, 431.296 484.376, 432.944 483.515 C 435.613 482.120, 441.900 476, 440.664 476 C 440.273 476, 440.670 474.907, 441.546 473.570 C 443.002 471.348, 443.002 470.933, 441.547 468.711 C 440.199 466.655, 440.167 466.106, 441.338 465.135 C 442.156 464.456, 442.517 462.926, 442.223 461.387 C 441.940 459.905, 442.255 458.461, 442.956 458.027 C 444.378 457.148, 453.017 457.894, 454.500 459.023 C 456.062 460.213, 464.705 459.119, 471.409 456.882 C 483.681 452.787, 487.581 445.525, 485.433 430.766 C 485.054 428.162, 484.186 425.569, 483.504 425.004 C 482.747 424.375, 482.439 422.471, 482.712 420.104 C 483.026 417.387, 482.495 414.931, 480.932 411.867 C 479.707 409.465, 478.765 407.275, 478.840 407 C 479.126 405.949, 477.665 402.396, 475.938 399.943 C 472.155 394.567, 466.998 383.021, 466.956 379.831 C 466.932 377.999, 466.264 374.700, 465.471 372.500 C 464.679 370.300, 464.023 367.352, 464.015 365.950 C 464.007 364.547, 463.460 362.860, 462.800 362.200 C 462.140 361.540, 461.967 361, 462.415 361 C 462.863 361, 462.490 359.871, 461.586 358.491 C 460.682 357.111, 459.779 354.299, 459.579 352.241 C 458.981 346.072, 457.131 339.294, 455.021 335.538 C 453.928 333.592, 453.262 332, 453.540 332 C 453.818 332, 453.408 330.987, 452.629 329.750 C 451.125 327.362, 449.527 317.346, 449.917 312.753 C 450.053 311.154, 448.849 307.731, 447.036 304.563 C 445.323 301.569, 443.267 296.604, 442.466 293.529 C 441.665 290.455, 439.995 286.040, 438.755 283.720 C 437.327 281.048, 436.475 277.666, 436.432 274.500 C 436.357 268.926, 431.829 253.574, 429.502 251.002 C 428.676 250.089, 428 248.344, 428 247.123 C 428 245.902, 427.102 243.045, 426.005 240.775 C 424.228 237.096, 424.173 236.466, 425.505 234.994 C 427.441 232.855, 427.398 232.367, 424.964 228.950 C 423.726 227.211, 422.355 226.310, 421.464 226.652 C 420.472 227.033, 420 226.553, 420 225.166 C 420 224.040, 419.581 222.859, 419.070 222.543 C 418.223 222.020, 416.752 213.649, 416.573 208.333 C 416.533 207.141, 416.163 205.829, 415.750 205.416 C 415.337 205.004, 415 201.701, 415 198.077 C 415 194.452, 414.525 189.915, 413.945 187.993 C 413.365 186.072, 412.722 183.743, 412.516 182.819 C 411.757 179.410, 406.152 160.420, 405.192 158 C 403.593 153.973, 398.099 146.982, 396.745 147.252 C 395.182 147.563, 394.439 138.381, 395.885 136.638 C 398.276 133.758, 393.883 126.859, 381.910 114.691 C 377.018 109.719, 373.250 105.417, 373.535 105.131 C 373.821 104.845, 375.426 106.274, 377.100 108.306 C 381.691 113.875, 389.611 112.423, 386.030 106.669 C 379.423 96.049, 360.895 79, 355.961 79 C 355.228 79, 353.700 78.168, 352.564 77.152 C 348.219 73.262, 341.493 71.575, 318.500 68.607 C 316.850 68.395, 312.350 68.543, 308.500 68.938 M 318.750 83.658 C 315.316 85.083, 313.694 87, 315.923 87 C 316.431 87, 318.210 88.148, 319.877 89.550 C 326.516 95.136, 335.581 98.956, 340.736 98.339 C 349.602 97.279, 351.253 87.248, 342.939 84.953 C 330.666 81.564, 324.584 81.239, 318.750 83.658 M 354 84.398 C 354 85.241, 355.428 87.557, 357.173 89.544 C 360.123 92.905, 360.700 94.424, 360.917 99.417 C 361.006 101.469, 362.017 101.065, 362.353 98.842 C 362.465 98.104, 362.854 97.024, 363.218 96.443 C 363.582 95.861, 363.716 94.511, 363.516 93.443 C 363.317 92.374, 363.119 91.217, 363.077 90.870 C 362.883 89.280, 354 82.946, 354 84.398 M 281.278 86.250 C 279.007 89.187, 279.186 89.577, 282.621 89.176 C 285.961 88.786, 286.032 88.693, 284.396 86.885 C 282.372 84.649, 282.497 84.674, 281.278 86.250 M 352.471 90.029 C 352.786 90.869, 352.415 92.418, 351.646 93.469 C 350.412 95.157, 350.493 95.579, 352.342 97.076 C 355.206 99.395, 352.962 102.368, 348.809 101.759 C 346.254 101.384, 346.137 101.494, 347.502 103.002 C 348.326 103.913, 349 105.136, 349 105.722 C 349 106.307, 349.627 107.027, 350.394 107.321 C 352.380 108.083, 363.137 116.372, 365.405 118.887 C 367.498 121.209, 369.509 121.603, 370.563 119.898 C 370.948 119.275, 368.585 116.328, 365.122 113.113 C 360.755 109.059, 359 106.710, 359 104.915 C 359 103.532, 358.573 101.972, 358.051 101.450 C 357.529 100.927, 356.911 98.770, 356.678 96.655 C 356.439 94.483, 355.307 91.873, 354.076 90.655 C 352.719 89.312, 352.114 89.076, 352.471 90.029 M 367.189 93.511 C 367.144 95.705, 366.813 99.392, 366.453 101.704 C 365.868 105.462, 366.102 106.190, 368.649 108.552 C 373.509 113.058, 375.881 113.770, 372.250 109.633 C 368.436 105.288, 368.366 104.884, 371.004 102.496 C 373.515 100.224, 377.431 101.657, 379.175 105.485 C 379.805 106.868, 380.954 108, 381.729 108 C 383.567 108, 381.207 104.665, 373.243 96.011 C 367.272 89.522, 367.272 89.522, 367.189 93.511 M 289.146 94.492 C 287.852 95.205, 283.127 96.350, 278.646 97.038 C 265.392 99.071, 263.640 102, 275.677 102 C 279.534 102, 282.011 102.584, 283.919 103.942 C 285.419 105.010, 289.088 106.195, 292.073 106.575 C 295.058 106.955, 298.050 107.701, 298.722 108.232 C 302.399 111.140, 317.233 117.874, 315.294 115.755 C 314.159 114.515, 312.921 112.483, 312.544 111.239 C 311.742 108.594, 308.637 106.822, 300.821 104.550 C 293.348 102.378, 290.062 98.040, 293.109 94.369 C 294.581 92.595, 292.474 92.660, 289.146 94.492 M 306.527 94.044 C 306.882 94.618, 306.628 95.743, 305.964 96.544 C 304.388 98.443, 305.967 98.412, 308.712 96.489 C 309.898 95.658, 311.104 95.360, 311.392 95.826 C 311.680 96.292, 313.586 96.736, 315.628 96.812 C 320.323 96.989, 325.648 101.514, 323.793 103.750 C 323.134 104.544, 321.577 104.961, 320.233 104.704 C 318.141 104.304, 318.293 104.617, 321.459 107.227 C 325.365 110.447, 324.933 113.274, 320.586 112.939 C 319.439 112.851, 318.135 112.828, 317.689 112.889 C 316.665 113.029, 325.359 120.598, 328.303 122.129 C 329.511 122.757, 332.405 125.236, 334.733 127.636 C 337.061 130.036, 339.549 132, 340.261 132 C 340.973 132, 342.555 132.701, 343.777 133.557 C 347.667 136.281, 346.402 132.925, 341.372 127.175 C 338.702 124.123, 336.177 122.102, 335.404 122.399 C 334.667 122.681, 333.787 122.464, 333.448 121.916 C 333.109 121.367, 332.052 121.166, 331.099 121.469 C 327.279 122.681, 322.389 113.582, 325.481 111.016 C 326.445 110.216, 327.563 110.602, 329.849 112.526 C 333.090 115.253, 336.069 114.869, 337.339 111.560 C 338.043 109.724, 336.353 108.517, 334.706 109.680 C 332.434 111.284, 327.325 109.901, 328.500 108 C 328.793 107.526, 328.553 106.842, 327.968 106.480 C 327.226 106.022, 327.256 105.397, 328.065 104.422 C 328.704 103.652, 329.586 103.244, 330.026 103.516 C 330.465 103.787, 330.712 103.244, 330.575 102.309 C 330.438 101.374, 329.690 100.413, 328.913 100.174 C 328.136 99.935, 326.691 99.033, 325.702 98.171 C 323.825 96.534, 322.973 96.274, 316.672 95.414 C 314.567 95.127, 311.725 94.466, 310.357 93.946 C 307.110 92.711, 305.725 92.747, 306.527 94.044 M 296.349 97.466 C 296.707 98.400, 297 99.407, 297 99.704 C 297 100.002, 297.675 99.685, 298.500 99 C 299.650 98.045, 300.329 98.028, 301.411 98.926 C 302.296 99.660, 303.047 99.733, 303.425 99.121 C 303.757 98.583, 303.010 97.851, 301.765 97.493 C 295.559 95.708, 295.674 95.708, 296.349 97.466 M 340.238 108.811 C 347.065 115.970, 348.571 118.607, 346.947 120.564 C 345.480 122.332, 341.897 122.428, 339.950 120.752 C 339.153 120.065, 340.525 121.744, 343 124.483 C 345.475 127.222, 347.602 129.648, 347.726 129.874 C 347.850 130.100, 348.564 129.777, 349.312 129.156 C 350.615 128.074, 356.963 129.208, 362.250 131.466 C 364.543 132.446, 364.494 130.860, 362.110 126.941 C 360.903 124.956, 359.964 124.249, 359.511 124.982 C 359.007 125.798, 358.259 125.639, 356.924 124.431 C 354.740 122.455, 355.213 121.250, 358.692 119.927 C 361.108 119.008, 360.955 118.809, 353.927 113.739 C 349.934 110.857, 346.179 107.600, 345.583 106.500 C 344.029 103.630, 343.229 103.239, 338.785 103.178 C 334.813 103.123, 334.813 103.123, 340.238 108.811 M 252.699 106.634 C 252.351 106.983, 251.038 107.393, 249.783 107.546 C 242.686 108.409, 217.294 116.245, 210.930 119.536 C 209.353 120.351, 206.385 122.833, 204.333 125.051 C 202.281 127.268, 199.106 130.008, 197.277 131.138 C 195.448 132.268, 193.228 134.612, 192.344 136.347 C 191.460 138.081, 188.778 141.610, 186.385 144.190 C 183.991 146.769, 181.168 150.819, 180.111 153.190 C 171.057 173.494, 171.034 173.573, 173.699 175.522 C 175.108 176.552, 176.006 176.364, 178.949 174.421 C 184.828 170.541, 189.982 169.145, 195.024 170.066 C 204.727 171.839, 209.088 173.001, 211.736 174.516 C 213.256 175.386, 217.135 177.651, 220.357 179.549 C 223.578 181.447, 226.814 183, 227.548 183 C 228.282 183, 229.160 183.450, 229.500 184 C 229.840 184.550, 230.820 185, 231.677 185 C 232.534 185, 234.805 186.377, 236.722 188.061 C 240.025 190.961, 240.306 191.033, 242.077 189.430 C 244.474 187.261, 248.910 188.067, 253.390 191.484 C 257.550 194.657, 258.017 194.633, 257.926 191.250 C 257.796 186.432, 254.655 181.260, 249.272 177.002 C 246.397 174.727, 244.144 172.558, 244.266 172.183 C 244.388 171.807, 243.433 169.800, 242.145 167.722 C 237.554 160.318, 243.997 158.229, 249 165.500 C 250.703 167.975, 252.862 170.001, 253.798 170.003 C 254.734 170.005, 258.624 171.580, 262.443 173.503 C 270.047 177.333, 271.924 177.819, 269.955 175.445 C 268.877 174.147, 269.015 173.540, 270.797 171.759 C 273.228 169.328, 276.271 170.994, 278.090 175.750 C 278.563 176.988, 279.678 178, 280.568 178 C 281.457 178, 283.346 178.913, 284.765 180.030 C 287.927 182.517, 288.962 181.380, 288.985 175.398 C 289.002 170.644, 292.514 164.654, 295.542 164.212 C 296.769 164.033, 299.686 165.859, 303.252 169.037 C 310.741 175.712, 312.341 175.434, 313 167.344 C 313.564 160.426, 315.354 157.725, 320.643 155.812 C 324.772 154.319, 324.772 154.267, 320.655 149.430 C 315.782 143.705, 314.728 141.376, 315.965 139.066 C 317.308 136.555, 317.270 136, 315.753 136 C 315.067 136, 312.425 133.863, 309.882 131.250 C 300.803 121.922, 294.367 117, 291.250 117 C 289.625 117, 286.767 115.880, 284.898 114.511 C 273.185 105.932, 273.360 106, 262.971 106 C 257.670 106, 253.048 106.285, 252.699 106.634 M 378.419 115.668 C 380.040 117.629, 380.175 118.523, 379.286 121.419 C 378.367 124.415, 378.599 125.574, 381.117 130.566 C 383.160 134.617, 384 137.754, 384 141.336 C 384 145.427, 384.500 146.912, 386.621 149.127 C 389.658 152.297, 391.581 170.176, 390.036 180.877 C 388.455 191.819, 388.765 212.440, 390.488 211.010 C 393.109 208.834, 394.651 211.374, 394.875 218.236 C 395.311 231.598, 396.852 240.983, 399.137 244.193 C 401.108 246.960, 401.399 248.827, 401.747 260.904 C 401.962 268.382, 402.396 275.175, 402.711 276 C 403.026 276.825, 403.437 280.200, 403.625 283.500 C 404.165 292.971, 406.045 305.223, 407.461 308.500 C 408.755 311.492, 410.794 323.021, 411.706 332.500 C 411.971 335.250, 412.612 338.175, 413.132 339 C 414.180 340.666, 414.113 339.313, 411.643 309 C 410.770 298.275, 409.335 280.515, 408.456 269.534 C 407.576 258.552, 406.453 248.877, 405.959 248.034 C 405.465 247.190, 405.047 246.916, 405.030 247.424 C 405.014 247.933, 403.944 247.356, 402.653 246.144 C 399.940 243.595, 399.959 236.816, 402.687 233.796 C 403.979 232.366, 404.114 230.196, 403.528 220.296 C 403.145 213.808, 402.692 206.053, 402.522 203.062 C 402.254 198.321, 401.799 197.284, 398.979 194.983 C 395.704 192.310, 394.574 188.587, 396.325 186.238 C 397.380 184.822, 400.395 186.552, 399.473 188.044 C 399.195 188.494, 399.377 189.115, 399.877 189.424 C 401.138 190.204, 402.295 185.074, 401.178 183.654 C 399.878 182.001, 399.023 174.104, 400.075 173.454 C 400.561 173.153, 400.433 172.065, 399.790 171.035 C 398.142 168.397, 400.514 165.352, 402.763 167.218 C 404.063 168.297, 404.161 168.003, 403.506 164.980 C 402.367 159.725, 398.898 152.882, 397.098 152.338 C 394.227 151.471, 392.500 150.302, 392.500 149.224 C 392.500 148.643, 392.163 147.829, 391.750 147.417 C 390.681 146.348, 390.818 136.230, 391.911 135.555 C 394.085 134.211, 389.882 127.252, 381.867 118.923 C 378.915 115.856, 377.364 114.391, 378.419 115.668 M 300.483 118.250 C 303.104 120.588, 306.220 122.950, 307.408 123.500 C 312.730 125.964, 316.112 129.160, 314.919 130.598 C 313.988 131.720, 314.148 132, 315.723 132 C 319.154 132, 321.524 135.555, 320.130 138.613 C 318.828 141.472, 319.581 143.159, 325.438 150.499 C 328.457 154.283, 328.310 156.478, 324.933 158.022 C 317.332 161.497, 317.516 161.285, 317.192 166.960 C 316.532 178.504, 311.719 180.583, 303.211 173 C 295.560 166.181, 293.132 166.814, 292.900 175.684 C 292.665 184.681, 289.900 187.781, 285.204 184.309 C 282.025 181.959, 279.087 181.181, 277.397 182.243 C 276.025 183.105, 271.572 181.645, 262.425 177.334 C 252.685 172.744, 250.504 172.869, 255.208 177.750 C 265.057 187.970, 263.574 203.252, 253.481 195.553 C 251.717 194.208, 248.974 192.823, 247.387 192.477 C 244.500 191.847, 244.500 191.847, 248 194.897 C 249.925 196.574, 252.218 197.958, 253.095 197.973 C 253.972 197.988, 255.505 198.900, 256.500 200 C 257.495 201.100, 258.831 202, 259.468 202 C 260.105 202, 261.919 203.350, 263.500 205 C 265.081 206.650, 267.104 208, 267.996 208 C 270.155 208, 273.489 210.505, 273.545 212.169 C 273.570 212.901, 274.180 213.372, 274.901 213.215 C 276.503 212.866, 279.161 214.930, 278.496 216.007 C 278.231 216.436, 279.023 217.044, 280.257 217.359 C 283.880 218.285, 289.999 223.910, 290.007 226.323 C 290.016 229.514, 292.919 233.415, 301.377 241.603 C 305.521 245.615, 310.551 251.366, 312.555 254.385 C 314.668 257.567, 318.992 261.963, 322.849 264.848 C 326.507 267.585, 331.279 271.664, 333.453 273.912 C 337.336 277.928, 340.249 279.024, 341.530 276.951 C 341.973 276.234, 342.622 276.271, 343.583 277.069 C 345.033 278.272, 348.890 274.930, 348.967 272.405 C 349.050 269.659, 353.287 267.761, 355.790 269.349 C 356.634 269.885, 357.778 269.280, 359.098 267.603 C 360.207 266.192, 361.652 265.142, 362.308 265.269 C 364.180 265.632, 364.271 259.783, 362.469 254.913 C 358.734 244.821, 360.591 240.096, 366.399 244.916 C 367.810 246.087, 368.021 245.844, 368.178 242.872 C 368.461 237.528, 368.412 236.667, 367.660 233.729 C 367.100 231.541, 367.469 230.440, 369.411 228.498 C 370.764 227.145, 371.450 225.778, 370.935 225.460 C 369.382 224.500, 369.879 220.978, 371.985 218.021 C 373.971 215.232, 373.971 215.232, 371.745 212.403 C 369.368 209.381, 369.316 206.476, 371.593 203.921 C 373.519 201.760, 373.360 200.095, 370.835 196 C 366.319 188.676, 366.925 181.889, 371.952 183.485 C 374.521 184.300, 374.508 183.937, 371.805 179.280 C 370.598 177.201, 368.636 173.634, 367.444 171.354 C 363.183 163.202, 349.837 147.970, 344.637 145.325 C 341.962 143.965, 339.557 142.098, 339.292 141.176 C 338.408 138.099, 324.804 128.471, 320 127.523 C 317.545 127.038, 311.550 123.242, 310.352 121.414 C 309.527 120.156, 307.424 118.817, 305.676 118.439 C 303.929 118.061, 301.306 116.907, 299.846 115.876 C 295.213 112.602, 295.548 113.848, 300.483 118.250 M 372.819 122.065 C 370.138 124.066, 370.138 124.066, 372.319 126.348 C 374.557 128.688, 376.952 128.852, 375.027 126.533 C 374.295 125.651, 374.272 124.415, 374.954 122.622 C 376.135 119.515, 376.209 119.534, 372.819 122.065 M 365.825 126.307 C 370.188 133.944, 367.761 137.388, 359.986 134.592 C 353.295 132.186, 350.680 132.692, 353.970 135.758 C 355.294 136.991, 357.169 138, 358.138 138 C 359.751 138, 365 143.688, 365 145.437 C 365 145.848, 365.908 147.339, 367.018 148.749 C 370.638 153.352, 367.564 158.860, 362.760 156.376 C 360.057 154.978, 360.428 155.719, 366.111 163.074 L 372.500 171.343 373.017 162.421 C 373.301 157.515, 373.860 152.986, 374.260 152.357 C 375.203 150.873, 373.143 135.579, 371.462 131.584 C 370.748 129.888, 368.698 127.150, 366.906 125.500 C 363.649 122.500, 363.649 122.500, 365.825 126.307 M 341 136.250 C 341 136.522, 344.849 139.952, 349.553 143.872 C 356.979 150.061, 359.923 151.778, 361.346 150.750 C 361.537 150.613, 362.437 151.118, 363.346 151.872 C 365.520 153.676, 365.463 151.904, 363.250 148.873 C 362.288 147.555, 361.002 145.582, 360.393 144.489 C 359.784 143.395, 358.434 142.341, 357.393 142.147 C 356.352 141.952, 354.796 141.171, 353.936 140.410 C 352.870 139.467, 352.047 139.353, 351.349 140.051 C 350.213 141.187, 347.058 140.150, 343.250 137.388 C 342.012 136.490, 341 135.978, 341 136.250 M 377.630 159.304 C 376.852 166.899, 377.766 174.561, 379.634 176.112 C 381.255 177.456, 381.449 181.605, 379.935 182.540 C 379.216 182.984, 379.330 183.736, 380.283 184.849 C 383.520 188.631, 383.912 192.277, 381.385 195.107 C 380.145 196.495, 380.143 196.874, 381.372 197.893 C 382.154 198.542, 382.564 199.950, 382.284 201.022 C 382.004 202.093, 382.118 203.764, 382.538 204.735 C 382.958 205.706, 383.425 207.104, 383.576 207.842 C 384.085 210.334, 385 210.350, 385 207.867 C 385 206.510, 384.449 204.849, 383.775 204.175 C 382.844 203.244, 382.825 202.510, 383.696 201.115 C 384.802 199.344, 384.879 165.473, 383.792 158.737 C 383.401 156.316, 380.658 153.124, 378.888 153.032 C 378.552 153.014, 377.986 155.837, 377.630 159.304 M 183.500 176.447 C 178.655 178.251, 174.404 183.098, 172.929 188.500 C 172.329 190.700, 171.171 193.539, 170.357 194.809 C 167.872 198.685, 168.919 201.556, 172.686 201.195 C 181.685 200.332, 191.314 218.279, 189.427 232.396 C 188.742 237.520, 183.035 245.219, 178.965 246.511 C 176.468 247.304, 169.433 243.591, 167.320 240.366 C 165.750 237.970, 165.551 237.910, 164.876 239.629 C 163.819 242.317, 163.949 264.588, 165.055 270.500 C 165.570 273.250, 166.455 278.425, 167.023 282 C 167.887 287.446, 171.707 301.489, 172.712 302.921 C 172.875 303.152, 174.048 302.364, 175.318 301.171 C 177.806 298.834, 181.012 298.401, 183.999 299.999 C 185.484 300.794, 185.992 300.600, 186.484 299.049 C 187.406 296.144, 184.695 291.768, 179.040 287.033 C 173.135 282.090, 173.095 281.874, 177 276 C 178.645 273.525, 179.993 270.784, 179.996 269.908 C 179.998 269.033, 182.211 263.858, 184.914 258.408 C 189.849 248.457, 192.347 240.215, 193.522 230 C 195.287 214.669, 200.895 205.002, 206.745 207.210 C 209.463 208.236, 210.184 208.144, 211.950 206.545 C 213.077 205.525, 214 204.996, 214 205.371 C 214 205.745, 215.383 205.336, 217.073 204.462 C 218.955 203.489, 221.229 203.111, 222.941 203.487 C 225.474 204.043, 225.710 203.863, 225.457 201.555 C 225.303 200.154, 225.545 198.781, 225.995 198.503 C 227.441 197.609, 223.535 186, 221.788 186 C 221.333 186, 219.210 184.895, 217.072 183.545 C 205.930 176.512, 191.513 173.463, 183.500 176.447 M 408.660 187 C 408.321 187.825, 408.659 190.975, 409.411 194 C 410.779 199.500, 410.779 199.500, 410.790 195 C 410.803 189.453, 409.564 184.798, 408.660 187 M 227.687 188.750 C 228.030 189.713, 228.630 190.950, 229.021 191.500 C 230.180 193.131, 230.798 198.007, 229.915 198.553 C 229.465 198.831, 230.178 201.182, 231.499 203.779 C 234.488 209.654, 233.131 212.442, 228.696 209.536 C 227.302 208.623, 225.562 207.974, 224.830 208.095 C 224.099 208.216, 222.758 207.989, 221.851 207.590 C 220.835 207.142, 218.156 207.901, 214.872 209.565 C 210.267 211.898, 209.137 212.113, 206.563 211.141 C 202.927 209.769, 202.785 209.918, 200.131 217.944 C 197.089 227.144, 197.311 231.102, 200.508 224.657 C 203.448 218.728, 204.834 217.004, 207.465 215.999 C 209.793 215.110, 212.981 217.347, 213.032 219.905 C 213.054 221.007, 213.698 220.650, 215.115 218.750 C 217.692 215.296, 221.001 215.210, 224.694 218.500 C 227.500 221, 227.500 221, 224.500 223.473 C 218.053 228.788, 217.753 229.153, 218.900 230.300 C 219.700 231.100, 220.327 231.073, 221.200 230.200 C 221.860 229.540, 223.669 229, 225.220 229 C 227.893 229, 235.145 225.192, 236.429 223.114 C 237.180 221.899, 242.656 223.379, 244.890 225.400 C 248.396 228.574, 251.811 229.107, 253.469 226.741 C 255.459 223.899, 255.427 218.055, 253.405 215.168 C 252.491 213.863, 252.051 211.931, 252.375 210.642 C 253.018 208.081, 241.364 195.860, 232.820 190.136 C 227.418 186.516, 226.834 186.359, 227.687 188.750 M 372.015 189.750 C 372.024 190.713, 372.417 192.111, 372.890 192.857 C 374.092 194.754, 375.316 192.572, 374.497 189.991 C 373.717 187.534, 371.994 187.366, 372.015 189.750 M 254.715 206.089 C 256.168 207.706, 256.735 209.297, 256.364 210.715 C 256.046 211.933, 256.497 213.872, 257.400 215.160 C 260.319 219.328, 259.028 226.142, 254.178 232.170 C 253.020 233.609, 253.123 233.996, 254.921 234.958 C 256.745 235.934, 257.148 235.723, 258.112 233.288 C 258.719 231.754, 259.695 229.600, 260.281 228.500 C 260.867 227.400, 261.546 223.109, 261.789 218.966 C 262.232 211.431, 262.232 211.431, 257.366 207.528 C 254.690 205.381, 253.497 204.734, 254.715 206.089 M 169.726 206.584 C 168.201 207.412, 166.518 207.820, 165.988 207.492 C 164.302 206.450, 166.231 210.331, 169.342 214.240 C 171.255 216.644, 172.709 217.667, 173.409 217.103 C 174.009 216.621, 176.412 215.911, 178.750 215.525 C 183.588 214.727, 183.501 214.870, 181.506 211.011 C 178.605 205.402, 174.648 203.915, 169.726 206.584 M 407.076 210.219 C 407.015 214.021, 407.291 214.825, 408.500 214.362 C 410.259 213.687, 410.259 213.567, 408.500 209 C 407.152 205.500, 407.152 205.500, 407.076 210.219 M 265.784 219.464 C 265.521 223.569, 264.848 227.506, 264.290 228.214 C 263.732 228.921, 263.005 230.637, 262.675 232.028 C 262.344 233.418, 260.760 235.814, 259.155 237.351 C 256.237 240.147, 256.237 240.147, 252.869 237.220 C 248.589 233.501, 245.719 232, 242.891 232 C 240.651 232, 240.651 232, 242.899 234.393 C 245.147 236.786, 245.147 236.786, 241.729 239.393 C 237.935 242.287, 236.086 242.611, 233.998 240.750 C 232.806 239.687, 232.794 239.761, 233.921 241.250 C 234.649 242.213, 236.507 243, 238.050 243 C 239.851 243, 241.559 243.895, 242.821 245.500 C 245.347 248.710, 246.023 248.651, 249.983 244.866 C 253.288 241.707, 257.648 241.330, 268.202 243.287 C 276.222 244.775, 277.842 259.392, 271.044 268.939 C 269.920 270.517, 268.990 272.414, 268.978 273.154 C 268.966 273.894, 268.066 276.462, 266.978 278.860 C 265.889 281.258, 264.818 284.220, 264.596 285.442 C 264.375 286.664, 263.475 289.780, 262.597 292.367 C 261.719 294.954, 261 297.885, 261 298.881 C 261 301.253, 258.235 306.922, 255.717 309.713 C 253.771 311.871, 253.767 311.995, 255.551 314.713 C 256.558 316.246, 257.289 318.738, 257.175 320.250 C 257.036 322.102, 257.451 323, 258.445 323 C 259.927 323, 264 319.258, 264 317.897 C 264 316.480, 274.001 309.854, 275.656 310.174 C 276.581 310.353, 278.080 311.839, 278.987 313.475 C 280.446 316.108, 281.097 316.418, 284.642 316.162 C 290.104 315.767, 291.155 317.313, 290.708 325.078 C 290.305 332.082, 287.725 335.185, 276.500 342.165 C 273.750 343.875, 270.309 346.091, 268.854 347.090 C 267.399 348.088, 263.626 349.778, 260.468 350.843 C 255.045 352.674, 254.889 352.817, 257.631 353.419 C 259.228 353.770, 262.275 353.454, 264.403 352.717 C 267.422 351.672, 269.241 351.624, 272.687 352.499 C 283.775 355.315, 303.210 352.491, 315.343 346.303 C 316.907 345.505, 318.407 345.074, 318.678 345.345 C 320.097 346.763, 326.339 343.229, 326.477 340.929 C 326.556 339.593, 326.968 337.470, 327.391 336.211 C 328.089 334.131, 327.923 333.981, 325.567 334.573 C 321.357 335.629, 317.503 329.661, 321 327.500 C 322.700 326.449, 322.104 320.948, 320 318.273 C 318.900 316.874, 317.993 314.778, 317.985 313.615 C 317.962 310.498, 316.582 308.839, 314.633 309.587 C 312.779 310.299, 309 307.527, 309 305.456 C 309 302.388, 312.730 299.573, 316.461 299.824 C 319.795 300.049, 320.752 299.475, 326.137 294.022 C 333.490 286.578, 334.705 283.623, 332.544 278.451 C 330.969 274.681, 330.969 274.681, 328.734 276.712 C 323.383 281.578, 318.077 284.309, 316.507 283.006 C 314.427 281.279, 314.619 276.692, 316.890 273.887 C 319.261 270.960, 318.389 268.270, 313.203 262.507 C 311.166 260.244, 308.245 256.938, 306.711 255.161 C 305.177 253.384, 303.523 252.177, 303.035 252.478 C 302.547 252.780, 299.527 250.062, 296.324 246.438 C 287.805 236.802, 280.725 229.652, 277.252 227.179 C 273.913 224.802, 271.417 219.478, 273.142 218.412 C 274.319 217.685, 269.268 212, 267.444 212 C 266.684 212, 266.092 214.661, 265.784 219.464 M 164.566 218.527 C 165.474 222.299, 165.492 222.317, 166.854 220.676 C 167.735 219.614, 167.524 218.879, 165.921 217.429 C 163.863 215.566, 163.855 215.573, 164.566 218.527 M 206.255 221.250 C 204.092 223.982, 199.048 238.818, 198.521 244 C 197.739 251.682, 195.955 257.106, 191.779 264.500 C 191.158 265.600, 189.349 268.965, 187.759 271.977 C 186.169 274.990, 184.470 277.934, 183.983 278.521 C 182.576 280.216, 190.212 279.025, 192.250 277.231 C 194.136 275.570, 198.192 277.857, 197.710 280.310 C 197.385 281.966, 200.325 282.214, 202.389 280.705 C 204.134 279.429, 204.018 279.143, 200.370 275.695 C 194.560 270.205, 199.986 265.057, 205.921 270.429 C 207.942 272.258, 207.942 272.258, 207.723 254.199 C 207.516 237.059, 207.615 235.997, 209.663 233.320 C 210.850 231.769, 212.284 230.603, 212.850 230.730 C 213.415 230.856, 214.152 230.096, 214.487 229.041 C 214.822 227.986, 216.696 225.718, 218.653 224 C 221.896 221.153, 222.678 218.266, 219.592 220.535 C 212.497 225.753, 212.952 225.646, 210.418 222.700 C 207.761 219.611, 207.598 219.554, 206.255 221.250 M 280.211 222.675 C 279.346 223.023, 280.318 224.720, 283.173 227.846 C 287.851 232.968, 290.233 234.598, 287.650 230.911 C 286.743 229.615, 286 227.692, 286 226.638 C 286 225.583, 285.212 224.123, 284.250 223.392 C 282.346 221.946, 282.125 221.907, 280.211 222.675 M 169.361 224.502 C 168.814 225.928, 169.753 231.645, 170.407 230.868 C 170.578 230.666, 170.977 228.813, 171.296 226.750 C 171.866 223.056, 170.517 221.489, 169.361 224.502 M 373.730 229.399 C 371.315 231.324, 371.117 231.922, 371.942 234.797 C 373.625 240.667, 369.136 253.438, 366.058 251.536 C 365.611 251.260, 365.892 252.911, 366.683 255.206 C 369.144 262.349, 367.371 270, 363.255 270 C 362.466 270, 360.990 271.012, 359.975 272.250 C 358.447 274.114, 357.805 274.302, 356.237 273.349 C 354.283 272.160, 350.401 275.729, 348.707 280.273 C 347.849 282.572, 345.167 283.572, 343.118 282.356 C 339.889 280.441, 336.295 284.085, 334.592 291 C 333.701 294.620, 320.279 304.178, 316.616 303.802 C 314.804 303.617, 313.494 304.022, 313.216 304.855 C 312.885 305.845, 313.353 306.023, 314.953 305.515 C 317.933 304.569, 320.801 307.330, 321.574 311.887 C 321.911 313.874, 323.045 316.719, 324.093 318.210 C 326.229 321.244, 326.621 326.979, 324.817 328.783 C 323.204 330.396, 324.597 331.579, 326.374 330.105 C 328.639 328.225, 332.101 333.246, 331.300 337.250 C 330.752 339.990, 330.897 340.251, 332.591 339.582 C 337.024 337.833, 348.237 335.779, 358.500 334.836 C 372.069 333.590, 371.224 333.570, 378.617 335.316 C 384.734 336.760, 384.734 336.760, 383.872 332.927 C 383.398 330.818, 383.013 326.935, 383.017 324.297 C 383.048 297.738, 381.356 260.610, 379.916 256.246 C 379.205 254.091, 378.962 249.992, 379.304 245.912 C 380.002 237.591, 379.124 228.262, 377.588 227.672 C 376.959 227.431, 375.223 228.208, 373.730 229.399 M 408 232.228 C 408 236.334, 409.343 245.063, 410.548 248.785 C 410.874 249.791, 411.473 249.736, 413.312 248.531 C 414.603 247.685, 415.903 247.236, 416.199 247.533 C 416.779 248.112, 415.472 240.902, 413.877 234.721 C 413.341 232.643, 412.505 231.188, 412.020 231.488 C 411.534 231.788, 410.431 231.026, 409.568 229.794 C 408.048 227.624, 408 227.698, 408 232.228 M 166.701 233.336 C 166.391 234.146, 167.522 236.051, 169.328 237.759 C 175.655 243.744, 179.169 244.143, 182.974 239.306 C 185.792 235.723, 185.534 235, 181.434 235 C 179.473 235, 176.969 234.519, 175.870 233.931 C 174.412 233.150, 173.479 233.187, 172.417 234.069 C 171.261 235.028, 170.582 234.931, 169.105 233.595 C 167.554 232.191, 167.157 232.149, 166.701 233.336 M 221.098 236.149 C 219.414 240.979, 219.704 242.002, 222.750 241.985 C 226.291 241.965, 227.248 241.205, 228.641 237.308 C 230.008 233.486, 229.646 233, 225.431 233 C 222.701 233, 222.024 233.492, 221.098 236.149 M 235.558 234.775 C 235.251 235.082, 235 235.965, 235 236.736 C 235 238.399, 239.152 238.083, 239.713 236.377 C 240.101 235.197, 236.518 233.815, 235.558 234.775 M 211.592 242.548 C 210.925 249.904, 210.985 250.193, 213.939 253.923 C 216.998 257.786, 216.573 262.292, 212.937 264.539 C 210.820 265.847, 211.916 273.146, 214.538 275.208 C 216.682 276.895, 216.876 277.450, 215.788 278.794 C 215.049 279.706, 214.984 280.094, 215.637 279.703 C 218.580 277.939, 220.806 287.405, 218.291 290.995 C 217.506 292.116, 216.495 292.806, 216.045 292.528 C 215.595 292.250, 214.710 292.645, 214.078 293.406 C 213.446 294.168, 211.386 295.080, 209.499 295.434 C 201.428 296.948, 206.051 305.297, 215.541 306.343 C 218.538 306.673, 220.356 307.793, 223.784 311.421 C 228.616 316.535, 228.498 317.657, 222.823 320.592 C 219.223 322.453, 219.247 324.328, 222.904 326.932 C 228.343 330.804, 230.428 329.379, 231.406 321.120 C 231.757 318.160, 232.266 315.379, 232.538 314.939 C 232.810 314.498, 232.575 313.856, 232.016 313.510 C 229.721 312.091, 231.002 308.017, 234.454 305.759 C 236.353 304.517, 238.895 301.700, 240.102 299.500 C 241.309 297.300, 242.976 294.712, 243.805 293.749 C 245.234 292.089, 245.146 292.080, 242.119 293.590 C 238.831 295.231, 235.999 294.322, 236.001 291.628 C 236.002 290.152, 243.745 282.655, 245.539 282.391 C 249.452 281.817, 255.909 274.555, 257.002 269.500 C 257.121 268.950, 258.539 266.126, 260.153 263.225 C 261.767 260.324, 262.866 257.592, 262.595 257.154 C 262.324 256.715, 262.727 255.153, 263.490 253.681 C 266.600 247.687, 258.102 247.286, 251.375 253.108 C 246.847 257.027, 246.379 257.196, 241.249 256.771 C 234.311 256.195, 229.698 252.315, 231.852 248.865 C 233.817 245.720, 231.417 243.511, 227.608 244.959 C 221.815 247.161, 216 244.369, 216 239.386 C 216 237.459, 214.283 235, 212.938 235 C 212.574 235, 211.968 238.397, 211.592 242.548 M 384.882 235.527 C 384.816 236.062, 384.786 236.747, 384.814 237.049 C 384.843 237.351, 385.377 246.792, 386.002 258.029 C 386.626 269.266, 387.578 278.992, 388.117 279.641 C 388.763 280.420, 388.733 281.047, 388.027 281.483 C 387.355 281.898, 387.748 282.785, 389.081 283.865 C 391.007 285.424, 391.056 285.709, 389.603 286.915 C 385.728 290.130, 390.275 296.776, 394.758 294.451 C 396.187 293.709, 397.687 293.306, 398.091 293.556 C 398.494 293.805, 398.673 293.220, 398.489 292.255 C 398.304 291.290, 398.119 288.307, 398.077 285.628 C 398.014 281.625, 397.756 280.958, 396.633 281.890 C 394.479 283.677, 393.154 281.139, 393.665 276.204 C 394.018 272.791, 393.698 271.559, 392.108 270.204 C 389.316 267.826, 388.792 260.204, 391.313 258.631 C 392.793 257.707, 393.464 257.912, 394.973 259.750 C 397.658 263.019, 397.865 262.663, 397.297 255.750 C 396.950 251.536, 396.004 248.286, 394.392 245.771 C 393.076 243.721, 392 241.175, 392 240.115 C 392 238.719, 391.480 238.323, 390.117 238.680 C 388.904 238.997, 387.659 238.351, 386.617 236.864 C 385.728 235.594, 384.947 234.993, 384.882 235.527 M 419.502 242.097 C 420.972 250.117, 420.712 252.408, 418.207 253.500 C 415.324 254.757, 415.663 257.739, 421.507 282.500 C 422.805 288, 424.358 294.975, 424.960 298 C 426.212 304.298, 427.959 307.932, 427.985 304.289 C 428.006 301.206, 424.119 284.850, 423.058 283.560 C 421.695 281.903, 421.955 271.718, 423.403 270.017 C 425.736 267.279, 426.047 265.175, 424.042 265.699 C 419.401 266.913, 417.477 258.276, 421.702 255.198 C 424.791 252.949, 425.125 247.076, 422.458 241.919 C 419.945 237.060, 418.594 237.141, 419.502 242.097 M 296.961 242.688 C 299.623 246.094, 303 248.883, 303 247.677 C 303 247.534, 300.905 245.410, 298.344 242.958 C 293.688 238.500, 293.688 238.500, 296.961 242.688 M 250.169 249.088 C 246.199 252.698, 242.051 252.756, 240.502 249.224 C 239.379 246.664, 237.247 246.654, 235.643 249.202 C 234.136 251.594, 235.222 252.271, 241.391 252.782 C 246.462 253.203, 247.007 253.018, 250.640 249.642 C 252.763 247.669, 254.275 246.055, 254 246.056 C 253.725 246.058, 252.001 247.422, 250.169 249.088 M 267.386 249.140 C 268.580 250.846, 268.591 251.561, 267.451 253.757 C 266.709 255.187, 266.324 256.715, 266.595 257.154 C 266.866 257.592, 265.642 260.549, 263.875 263.725 C 262.107 266.901, 260.804 269.500, 260.979 269.500 C 262.181 269.500, 256.417 278.228, 253.085 281.453 C 249.763 284.667, 249 286.093, 249 289.081 C 249 291.102, 248.373 293.275, 247.608 293.911 C 246.842 294.546, 245.638 296.514, 244.933 298.283 C 242.961 303.230, 240.010 307.046, 237.382 308.045 C 234.951 308.969, 234.110 312.332, 236.016 313.510 C 236.575 313.856, 236.797 314.520, 236.509 314.986 C 236.221 315.452, 235.702 318.458, 235.357 321.666 C 234.997 325.001, 233.929 328.522, 232.864 329.885 C 231.839 331.197, 231 332.794, 231 333.435 C 231 337.105, 228.564 336.739, 223.418 332.296 C 214.486 324.585, 213.475 319.352, 220.574 317.571 C 225.355 316.371, 221.816 311.057, 215.780 310.372 C 213.976 310.168, 211.825 309.702, 211 309.336 C 210.175 308.971, 209.151 308.634, 208.725 308.586 C 207.064 308.401, 200.902 299.482, 201.323 297.872 C 201.686 296.486, 200.902 296.116, 197.023 295.839 C 192.280 295.500, 192.280 295.500, 193.162 298.500 C 194.544 303.207, 189.410 307.465, 183.354 306.635 C 180.959 306.307, 179 306.198, 179 306.393 C 179 309.888, 184.510 315.753, 188.834 316.861 C 197.787 319.155, 200 322.242, 195.854 326.655 C 193.709 328.939, 193.709 328.939, 196.104 329.939 C 197.422 330.489, 201.200 332.896, 204.500 335.287 C 210.500 339.636, 210.500 339.636, 210.382 345.343 C 210.299 349.389, 209.717 351.667, 208.382 353.171 C 206.221 355.607, 205.726 355.626, 223.500 352.578 C 228.450 351.729, 235.286 351.027, 238.691 351.017 C 242.096 351.008, 245.160 350.550, 245.500 350 C 245.840 349.450, 247.779 348.997, 249.809 348.994 C 257.750 348.982, 273.549 341.638, 282.460 333.816 C 288.120 328.848, 289.164 319.455, 283.970 320.218 C 281.663 320.556, 280.373 319.949, 277.829 317.324 C 274.609 314.001, 274.609 314.001, 271.823 316.670 C 269.647 318.754, 269.286 319.640, 270.176 320.712 C 271.499 322.307, 270.156 324.156, 267.260 324.727 C 264.273 325.315, 263.569 325.558, 261.421 326.741 C 258.124 328.559, 252.755 324.895, 253.154 321.098 C 253.318 319.534, 252.579 316.634, 251.513 314.654 C 249.574 311.054, 249.574 311.054, 252.037 308.277 C 255.322 304.573, 257 301.453, 257 299.049 C 257 297.960, 257.719 294.954, 258.597 292.367 C 259.475 289.780, 260.375 286.664, 260.596 285.442 C 260.818 284.220, 261.889 281.258, 262.978 278.860 C 264.066 276.462, 264.966 273.894, 264.978 273.154 C 264.990 272.414, 265.920 270.517, 267.044 268.939 C 272.421 261.388, 272.972 247.650, 267.914 247.268 C 266.162 247.136, 266.110 247.319, 267.386 249.140 M 188.354 259.538 C 185.818 264.785, 183.970 269.304, 184.248 269.581 C 184.858 270.192, 188.499 264.178, 189.520 260.873 C 189.923 259.568, 190.959 257.150, 191.822 255.500 C 193.453 252.380, 194.133 250, 193.393 250 C 193.157 250, 190.889 254.292, 188.354 259.538 M 219.112 260.365 C 217.278 262.575, 216.993 265.750, 218.516 267.013 C 219.535 267.859, 219.641 268.815, 218.924 270.699 C 217.912 273.363, 219.134 276, 221.382 276 C 222.007 276, 223.114 276.953, 223.842 278.118 C 225.662 281.033, 227.439 279.097, 227.664 273.954 C 227.793 270.995, 227.329 269.643, 225.822 268.588 C 224.490 267.655, 224.013 266.533, 224.414 265.272 C 225.294 262.500, 220.796 258.336, 219.112 260.365 M 429.553 268.200 C 429.981 272.504, 433 277.320, 433 273.699 C 433 271.210, 430.639 264, 429.824 264 C 429.445 264, 429.323 265.890, 429.553 268.200 M 322.145 269.601 C 322.321 270.645, 321.686 272.613, 320.733 273.973 C 316.911 279.426, 319.018 280.480, 324.288 275.750 C 327.909 272.500, 327.909 272.500, 324.866 270.101 C 322.114 267.931, 321.854 267.883, 322.145 269.601 M 206.822 277.659 C 207.832 279.553, 207.542 280.195, 204.451 282.909 C 200.416 286.452, 199.364 286.621, 196.257 284.228 C 193.916 282.424, 184 282.281, 184 284.051 C 184 284.522, 186.090 286.504, 188.644 288.454 C 193.896 292.465, 198.299 293.027, 204.422 290.468 C 206.438 289.626, 208.487 289.183, 208.975 289.484 C 211.920 291.305, 210.287 279.305, 207.248 276.800 C 205.855 275.651, 205.806 275.750, 206.822 277.659 M 415.862 290.500 C 415.351 299.940, 417.211 324.249, 418.952 330.899 C 419.470 332.879, 420.863 339.450, 422.046 345.500 C 423.230 351.550, 425.242 359.650, 426.519 363.500 C 431.144 377.454, 435.060 386.562, 433.611 379.998 C 432.924 376.884, 427.656 341.500, 425.544 325.814 C 423.728 312.332, 419.925 295.080, 417.647 290 C 416.078 286.500, 416.078 286.500, 415.862 290.500 M 388.307 303.730 C 388.164 308.622, 388.403 309.997, 389.250 309.150 C 390.793 307.607, 395 311.560, 395 314.552 C 395 317.624, 392.337 319.691, 390.144 318.322 C 388.599 317.357, 388.484 317.892, 388.837 324.382 C 389.308 333.033, 389.285 333.003, 392.548 329.126 C 393.994 327.407, 395.979 326, 396.957 326 C 398.791 326, 399.774 316.013, 398.185 313.525 C 397.825 312.961, 397.500 312.275, 397.462 312 C 397.425 311.725, 397.044 308.462, 396.617 304.750 C 395.829 297.896, 395.327 297.073, 393.224 299.176 C 392.322 300.078, 391.633 299.982, 390.274 298.764 C 388.596 297.261, 388.490 297.530, 388.307 303.730 M 427.232 308.122 C 427.566 309.014, 428.151 311.827, 428.533 314.372 C 429.215 318.920, 430.214 320.080, 431.566 317.893 C 432.473 316.426, 430.075 309.300, 428.148 307.736 C 426.887 306.712, 426.730 306.778, 427.232 308.122 M 198.004 310.495 C 196.691 312.078, 199.070 317.272, 200.866 316.744 C 201.321 316.610, 203.069 317.962, 204.748 319.750 C 208.438 323.677, 209.916 323.783, 213.923 320.411 C 218.895 316.228, 217.026 312.667, 209.202 311.416 C 206.866 311.043, 204.714 310.346, 204.419 309.869 C 203.550 308.463, 199.350 308.874, 198.004 310.495 M 404.121 317.450 C 404.035 322.369, 404.311 324.089, 405.066 323.334 C 405.796 322.604, 405.834 320.419, 405.186 316.384 C 404.241 310.500, 404.241 310.500, 404.121 317.450 M 436.636 314.229 C 435.603 318.083, 435.841 320.559, 437.122 319.278 C 437.739 318.661, 438.818 318.377, 439.521 318.646 C 440.906 319.178, 442.285 317.509, 442.709 314.786 C 442.891 313.621, 442.496 313.256, 441.476 313.648 C 440.650 313.965, 439.360 313.714, 438.609 313.091 C 437.537 312.200, 437.114 312.444, 436.636 314.229 M 207.142 316.855 C 208.602 319.194, 209.714 319.466, 211.971 318.039 C 213.862 316.843, 213.143 316.179, 209.078 315.366 C 205.927 314.735, 205.853 314.792, 207.142 316.855 M 178.024 317.471 C 177.136 318.541, 177.222 319.522, 178.393 321.683 C 179.233 323.232, 179.938 324.130, 179.960 323.677 C 179.982 323.225, 181.657 324.220, 183.682 325.890 C 187.272 328.848, 187.399 328.875, 188.739 326.962 C 189.495 325.883, 190.988 325, 192.057 325 C 195.903 325, 193.968 322.252, 189.250 321.013 C 186.637 320.328, 183.304 318.936, 181.841 317.921 C 179.590 316.358, 179.005 316.289, 178.024 317.471 M 308.589 321.077 C 305.352 324.923, 305.317 327.408, 308.455 330.545 C 311.568 333.659, 312.270 333.624, 316.144 330.163 C 319.320 327.325, 319.320 327.325, 316.112 322.663 C 312.319 317.150, 311.957 317.074, 308.589 321.077 M 438.657 325.659 C 437.416 327.318, 437.023 328.956, 437.454 330.674 C 438.472 334.728, 441.994 331.082, 441.308 326.683 C 440.685 322.685, 440.838 322.744, 438.657 325.659 M 431.364 329.640 C 431.714 332.191, 432.014 335.229, 432.030 336.390 C 432.057 338.240, 432.181 338.294, 433.037 336.828 C 433.679 335.727, 433.640 333.419, 432.923 330.078 C 431.560 323.723, 430.513 323.428, 431.364 329.640 M 182 331.773 C 182 341.172, 194.472 351.223, 196.434 343.405 C 197.362 339.710, 195.285 337.063, 188.123 332.812 C 182 329.178, 182 329.178, 182 331.773 M 404 329.814 C 403.175 330.090, 401.863 331.215, 401.085 332.313 C 399.682 334.292, 399.653 334.290, 397.810 332.013 C 396.787 330.750, 395.830 329.893, 395.683 330.108 C 389.702 338.895, 389.783 338.588, 390.482 349.862 C 391.503 366.359, 392.988 377.323, 394.427 378.985 C 395.149 379.818, 395.511 381.175, 395.232 382 C 394.930 382.894, 395.771 382.539, 397.314 381.121 C 399.903 378.742, 399.903 378.742, 397.797 377.036 C 395.690 375.331, 395.690 375.331, 398.008 373.707 C 399.283 372.814, 400.815 372.376, 401.413 372.734 C 402.011 373.091, 401.905 372.650, 401.178 371.752 C 399.443 369.612, 400.042 364.988, 402.231 363.618 C 404.706 362.068, 407.353 365.006, 407.262 369.202 C 407.222 371.016, 407.876 374.393, 408.714 376.707 C 409.553 379.020, 409.959 382.027, 409.618 383.387 C 409.276 384.748, 409.520 387.130, 410.160 388.681 C 410.800 390.231, 411.195 391.950, 411.038 392.500 C 410.203 395.430, 411.108 408.310, 412.566 414.250 C 412.667 414.663, 412.806 415.477, 412.875 416.059 C 412.944 416.641, 413.416 416.861, 413.924 416.547 C 414.431 416.233, 415.862 417.402, 417.102 419.144 C 419.249 422.158, 419.279 422.449, 417.725 425.156 C 416.008 428.148, 416.874 429.061, 419 426.500 C 419.685 425.675, 420.865 425, 421.622 425 C 424.460 425, 423.350 416.216, 420.131 413.194 C 417.637 410.852, 417.175 409.520, 416.597 403 C 416.231 398.875, 415.679 393.574, 415.369 391.219 C 415.011 388.497, 415.260 386.391, 416.053 385.437 C 417.016 384.276, 417.041 383.092, 416.161 380.218 C 415.535 378.173, 414.077 369.531, 412.920 361.014 C 411.764 352.496, 410.331 344.621, 409.737 343.514 C 409.143 342.406, 407.947 338.758, 407.079 335.406 C 405.893 330.828, 405.127 329.438, 404 329.814 M 447 335.050 C 447 337.257, 449.872 343.461, 450.571 342.763 C 451.048 342.286, 448.037 333, 447.406 333 C 447.183 333, 447 333.922, 447 335.050 M 198.856 337.267 C 201.387 341.362, 200.891 346.263, 197.722 348.482 C 195.777 349.845, 195.829 349.951, 199.263 351.588 C 203.725 353.716, 205.541 353.044, 206.358 348.961 C 207.659 342.455, 207.225 341.349, 201.855 337.491 C 196.710 333.795, 196.710 333.795, 198.856 337.267 M 361.175 346.500 C 367.102 354.425, 371.152 354.138, 367.043 346.083 C 364.991 342.061, 363.406 341, 359.449 341 C 357.142 341, 357.200 341.184, 361.175 346.500 M 433.089 344.500 C 433.104 346.700, 433.516 350.300, 434.005 352.500 C 434.894 356.500, 434.894 356.500, 434.594 351.718 C 434.429 349.088, 434.678 346.699, 435.147 346.409 C 436.364 345.657, 436.209 344.658, 434.532 342.441 C 433.163 340.631, 433.065 340.770, 433.089 344.500 M 340 342.925 C 340.825 343.401, 343.300 343.439, 345.500 343.010 C 349.471 342.236, 349.460 342.229, 344 342.145 C 340.454 342.091, 339.033 342.368, 340 342.925 M 443.544 346.500 C 443.991 347.600, 444.389 349.830, 444.428 351.455 C 444.468 353.088, 445.484 355.393, 446.699 356.608 C 448.350 358.259, 448.826 359.768, 448.609 362.654 C 448.322 366.448, 449.992 371.259, 452.033 372.520 C 452.714 372.941, 452.858 372.281, 452.444 370.634 C 451.958 368.697, 452.443 367.466, 454.504 365.405 C 455.987 363.922, 456.513 362.973, 455.673 363.295 C 453.501 364.129, 452.143 362.066, 450.103 354.830 C 449.121 351.348, 447.760 348.500, 447.078 348.500 C 446.397 348.500, 445.140 347.600, 444.285 346.500 C 442.731 344.500, 442.731 344.500, 443.544 346.500 M 349.644 346.689 C 349.376 346.957, 345.859 347.218, 341.828 347.269 C 337.798 347.320, 335.625 347.544, 337 347.768 C 340.031 348.262, 344.232 351.954, 343.608 353.578 C 343.023 355.103, 350.797 353.458, 352.985 351.594 C 353.818 350.885, 355.325 350.010, 356.333 349.651 C 359.289 348.599, 357.646 346.513, 353.734 346.351 C 351.752 346.269, 349.912 346.422, 349.644 346.689 M 416.011 350.050 C 416.076 352.665, 419.983 372.303, 420.541 372.817 C 420.948 373.193, 421.023 372.375, 420.708 371 C 420.393 369.625, 419.584 364.675, 418.911 360 C 418.237 355.325, 417.307 351.072, 416.843 350.550 C 416.379 350.028, 416.005 349.803, 416.011 350.050 M 320.500 352.665 C 319.400 352.903, 314.675 353.955, 310 355.003 C 305.325 356.051, 299.250 357.202, 296.500 357.562 C 293.750 357.921, 291.168 358.415, 290.762 358.659 C 290.356 358.903, 287.656 359.720, 284.762 360.475 C 261.337 366.580, 237.466 388.166, 232.061 408.130 C 229.475 417.680, 230.705 417.295, 243.671 404.493 C 254.274 394.023, 257.194 391.759, 266.658 386.662 C 277.911 380.604, 287.296 375.131, 293.116 371.235 C 294.977 369.989, 298.300 368.469, 300.500 367.858 C 318.998 362.719, 332.449 357.600, 338.393 353.437 C 340.442 352.002, 326.366 351.395, 320.500 352.665 M 264.841 356.557 C 263.003 357.188, 258.696 357.622, 255.269 357.522 C 250.517 357.384, 249.275 357.626, 250.035 358.542 C 251.101 359.826, 261.773 363.984, 264.103 364.023 C 265.714 364.050, 276.994 358.761, 276.998 357.977 C 277.004 356.526, 267.994 355.473, 264.841 356.557 M 435.581 362.500 C 436.506 370.722, 437.035 372.216, 438.571 370.941 C 439.309 370.329, 440.382 370.118, 440.956 370.473 C 441.593 370.867, 442 369.939, 442 368.090 C 442 365.971, 441.598 365.217, 440.660 365.577 C 439.044 366.197, 437.189 364.129, 435.940 360.314 C 435.229 358.141, 435.147 358.639, 435.581 362.500 M 244.361 361.497 C 244.677 362.321, 246.555 365.527, 248.534 368.621 C 252.133 374.247, 252.133 374.247, 254.817 371.757 C 256.292 370.388, 258.355 368.815, 259.399 368.261 C 261.075 367.372, 260.840 367.109, 257.399 366.022 C 255.255 365.345, 251.822 363.713, 249.771 362.395 C 245.508 359.656, 243.528 359.328, 244.361 361.497 M 292 377 C 289.051 379.200, 286.270 381, 285.819 381 C 283.813 381, 285.331 384.165, 289.023 387.677 C 294.715 393.093, 295.310 397.438, 291.030 402.313 C 289.052 404.566, 287.953 406.800, 288.124 408.218 C 288.275 409.473, 287.859 411.483, 287.199 412.684 C 285.277 416.185, 285.731 417.398, 290.601 421.774 C 295.202 425.908, 295.202 425.908, 293.033 428.954 C 291.840 430.629, 290.444 432, 289.932 432 C 287.159 432, 289.563 433.629, 292.642 433.837 C 294.645 433.971, 297.179 434.561, 298.272 435.146 C 300.180 436.167, 300.194 436.116, 298.630 433.882 C 297.734 432.602, 297 430.276, 297 428.712 C 297 425.311, 295.805 422.896, 292.477 419.568 C 291.114 418.205, 290 415.991, 290 414.647 C 290 412.384, 294.764 402.194, 297.187 399.274 C 298.092 398.184, 298.282 392.003, 297.795 379.500 C 297.731 377.850, 298.024 375.712, 298.446 374.750 C 299.643 372.021, 297.820 372.658, 292 377 M 438.116 377.150 C 438.619 379.542, 439.596 387.125, 440.286 394 C 441.092 402.037, 441.936 406.425, 442.651 406.290 C 443.262 406.174, 444.528 406.926, 445.465 407.961 C 447.083 409.749, 447.039 409.928, 444.584 411.537 C 441.956 413.259, 440.933 418.223, 442.950 419.469 C 444.214 420.250, 446.143 416.536, 445.433 414.686 C 445.089 413.790, 446.057 412.384, 447.936 411.045 C 449.621 409.845, 451 409.175, 451 409.554 C 451 409.934, 451.653 409.703, 452.452 409.040 C 453.251 408.377, 454.798 408.119, 455.891 408.465 C 458.352 409.247, 460.015 406.532, 459.965 401.816 C 459.928 398.421, 457.104 391.972, 457.035 395.128 C 456.975 397.886, 454.155 399.578, 451.932 398.190 C 449.219 396.495, 448.982 396.660, 449.611 399.806 C 449.988 401.692, 449.652 403.044, 448.586 403.928 C 446.506 405.655, 444.524 404.059, 444.222 400.414 C 444.099 398.923, 443.558 397.172, 443.020 396.524 C 442.179 395.511, 441.208 390.289, 439.499 377.604 C 439.284 376.012, 438.679 374.279, 438.154 373.754 C 437.548 373.148, 437.534 374.388, 438.116 377.150 M 270 389.535 C 264.225 392.556, 259.050 395.764, 258.500 396.664 C 257.950 397.565, 255.129 401, 252.231 404.298 C 249.333 407.597, 247.160 410.493, 247.401 410.735 C 247.987 411.320, 245.051 421.187, 243.854 422.655 C 242.779 423.974, 240.820 423.875, 238.851 422.402 C 232.992 418.018, 229.922 419.684, 232.291 425.960 C 233.186 428.332, 233.101 429.247, 231.847 430.700 C 226.919 436.408, 226.226 440.583, 229.618 444.123 C 232.236 446.855, 232.236 446.855, 229.663 449.428 C 225.811 453.280, 228.410 452.528, 232.868 448.500 C 234.999 446.575, 237.406 445, 238.216 445 C 239.027 445, 240.505 444.100, 241.500 443 C 242.495 441.900, 244.331 441, 245.578 441 C 246.826 441, 249.295 439.782, 251.064 438.293 C 255.017 434.967, 266.647 431.810, 269.194 433.372 C 270.469 434.154, 271.372 433.973, 272.845 432.640 C 274.200 431.414, 275.015 431.215, 275.497 431.995 C 275.972 432.764, 276.587 432.580, 277.439 431.414 C 278.533 429.919, 282.186 428.909, 287 428.770 C 291.186 428.650, 291.041 426.697, 286.527 422.372 C 281.772 417.815, 281.238 416.263, 283.194 412.684 C 283.850 411.483, 284.261 409.212, 284.107 407.638 C 283.900 405.537, 284.681 403.892, 287.038 401.461 C 291.326 397.037, 290.713 392.208, 285.470 389.115 C 283.561 387.989, 282 386.377, 282 385.534 C 282 383.334, 281.600 383.467, 270 389.535 M 423.253 386.250 C 421.557 388.388, 424.200 394.669, 425.923 392.593 C 426.948 391.358, 427.589 391.244, 428.633 392.110 C 431.031 394.101, 430.180 390.776, 427.516 387.750 C 424.750 384.607, 424.599 384.554, 423.253 386.250 M 404.129 393.039 C 402.925 394.668, 401.252 396, 400.411 396 C 399.570 396, 399.154 396.439, 399.485 396.976 C 399.817 397.514, 400.254 404.506, 400.455 412.516 C 400.700 422.254, 401.238 427.581, 402.078 428.594 C 404.010 430.922, 407.097 432.303, 408.108 431.292 C 408.976 430.424, 409.421 418.004, 408.691 415 C 406.988 407.989, 406.186 397.197, 407.113 393.763 C 408.157 389.901, 406.709 389.550, 404.129 393.039 M 467.466 394.500 C 467.846 396.150, 468.866 398.288, 469.733 399.250 C 470.600 400.212, 471.009 401, 470.642 401 C 470.274 401, 470.641 402.598, 471.456 404.550 C 472.272 406.503, 473.624 411.411, 474.459 415.458 C 475.295 419.504, 476.434 424.011, 476.990 425.473 C 477.545 426.934, 478 429.480, 478 431.131 C 478 434.742, 479.724 438.288, 481.075 437.454 C 482.340 436.672, 481.135 426.986, 479.526 425 C 478.858 424.175, 478.493 421.847, 478.715 419.827 C 478.986 417.365, 478.392 414.728, 476.912 411.827 C 475.698 409.447, 474.765 407.275, 474.840 407 C 475.146 405.875, 473.687 402.729, 470.327 397.270 C 467.590 392.822, 466.935 392.188, 467.466 394.500 M 463.158 413.457 C 462.008 415.406, 460.700 417, 460.252 417 C 457.968 417, 458.043 434.376, 460.347 438.994 C 461.256 440.816, 462.016 443.701, 462.035 445.404 C 462.055 447.107, 462.714 449.625, 463.500 451 C 464.929 453.500, 464.929 453.500, 464.965 450.450 C 465.011 446.446, 466.680 444.759, 469.239 446.128 C 471.760 447.477, 472.306 446.811, 471.081 443.879 C 470.534 442.571, 469.599 437.225, 469.002 432 C 466.299 408.338, 466.257 408.204, 463.158 413.457 M 239.437 414.234 C 237.822 416.013, 237.437 416.687, 238.581 415.732 C 239.726 414.777, 240.927 414.260, 241.250 414.583 C 241.573 414.907, 242.340 414.233, 242.954 413.086 C 244.625 409.963, 242.764 410.571, 239.437 414.234 M 435.015 417.750 C 435.025 422.147, 435.345 424.004, 435.932 423.076 C 437.079 421.264, 437.025 411, 435.868 411 C 435.391 411, 435.007 414.038, 435.015 417.750 M 447.610 420.250 C 447.430 420.938, 446.741 423.184, 446.080 425.241 C 444.890 428.941, 446.838 435, 449.216 435 C 450.360 435, 450.175 433.226, 448.951 432.470 C 448.257 432.041, 448.236 431.421, 448.890 430.632 C 449.928 429.382, 449.838 423.504, 448.764 422.431 C 448.420 422.086, 448.380 421.173, 448.676 420.402 C 448.972 419.631, 448.927 419, 448.576 419 C 448.224 419, 447.790 419.563, 447.610 420.250 M 419.707 430.722 C 418.252 432.176, 417.639 432.256, 415.957 431.205 C 414.204 430.110, 413.648 430.298, 411.602 432.677 C 410.178 434.331, 408.125 435.470, 406.378 435.573 C 400.668 435.909, 400.799 435.809, 401.563 439.250 C 401.960 441.038, 402.212 444.637, 402.124 447.250 C 401.933 452.909, 403.324 453.380, 408.524 449.414 C 410.388 447.992, 412.383 447.119, 412.957 447.473 C 413.604 447.873, 414 446.808, 414 444.665 C 414 440.794, 419.003 434.404, 421.334 435.298 C 422.067 435.579, 422.719 435.290, 422.783 434.655 C 422.847 434.020, 423.035 432.648, 423.200 431.608 C 423.606 429.046, 421.833 428.596, 419.707 430.722 M 437.340 436.625 C 437.645 438.206, 438.197 441.975, 438.568 445 C 439.257 450.623, 440.288 452.210, 442.659 451.300 C 445.556 450.189, 443.527 435.533, 440.470 435.485 C 439.937 435.476, 438.889 435.082, 438.143 434.610 C 437.078 433.935, 436.905 434.369, 437.340 436.625 M 419.200 440.200 C 417.041 442.359, 417.701 451.643, 420.177 453.950 C 422.947 456.531, 422.829 456.912, 422.243 447.250 C 421.737 438.901, 421.364 438.036, 419.200 440.200 M 479.644 443.500 C 477.953 450.134, 477.952 450.477, 479.625 448.804 C 480.579 447.849, 481.010 446.016, 480.779 443.890 C 480.409 440.500, 480.409 440.500, 479.644 443.500 M 432.269 448.955 C 432.234 452.506, 432.613 456.481, 433.110 457.789 C 433.739 459.444, 433.387 462.762, 431.953 468.696 C 430.819 473.387, 430.137 477.470, 430.437 477.770 C 430.737 478.070, 430.481 478.920, 429.869 479.658 C 429.256 480.396, 429.148 480.998, 429.628 480.996 C 431.096 480.990, 437.022 477.074, 436.792 476.262 C 436.673 475.843, 437.141 474.480, 437.832 473.233 C 438.856 471.386, 438.834 470.601, 437.714 469.002 C 436.638 467.467, 436.560 465.960, 437.352 462.092 C 438.161 458.142, 438.077 456.800, 436.933 455.435 C 436.145 454.495, 434.787 451.200, 433.916 448.113 C 432.332 442.500, 432.332 442.500, 432.269 448.955 M 398.600 463.278 C 398.718 475.427, 398.778 476.101, 399.896 477.866 C 401.578 480.521, 413.518 480.275, 423.837 477.372 C 424.796 477.102, 424.442 476.126, 422.587 473.921 C 420.232 471.122, 419.476 469.044, 419.929 466.609 C 420.211 465.087, 417.196 459.487, 415.047 457.542 C 413.921 456.524, 413 455.085, 413 454.345 C 413 452.794, 411.827 452.593, 410.450 453.907 C 408.001 456.245, 402.264 456.820, 400.361 454.917 C 398.546 453.103, 398.502 453.312, 398.600 463.278 M 421.836 460.720 C 425.138 465.430, 426 465.578, 426 461.437 C 426 458.278, 425.787 457.932, 424.500 459 C 423.297 459.998, 422.661 459.973, 421.289 458.872 C 420.141 457.951, 420.320 458.558, 421.836 460.720 M 338 485.500 C 338.685 486.325, 338.903 487, 338.486 487 C 338.068 487, 339.813 489.231, 342.363 491.957 C 344.913 494.684, 347 497.834, 347 498.957 C 347 500.450, 347.650 501, 349.411 501 C 351.823 501, 351.823 501, 349.161 495.519 C 347.538 492.175, 345.852 490.030, 344.839 490.019 C 343.925 490.009, 342.042 488.650, 340.653 487 C 339.265 485.350, 337.820 484, 337.442 484 C 337.064 484, 337.315 484.675, 338 485.500 M 366.559 495.571 C 364.191 497.314, 360.819 497.419, 359.200 495.800 C 358.296 494.896, 358 494.889, 358 495.774 C 358 496.420, 359.239 497.589, 360.752 498.372 C 366.096 501.135, 367.495 503.540, 364.841 505.399 C 362.167 507.272, 358.754 507.453, 355.684 505.883 C 353.774 504.906, 353.688 504.946, 355 506.199 C 357.958 509.023, 361.640 509.988, 363.650 508.465 C 366.108 506.603, 369.941 506.637, 372.044 508.540 C 373.590 509.939, 373.795 509.893, 374.279 508.040 C 374.612 506.769, 374.329 506, 373.529 506 C 371.381 506, 369.595 503.004, 369.033 498.458 C 368.531 494.392, 368.388 494.225, 366.559 495.571 M 202.250 501.498 C 201.012 503.409, 200 505.619, 200 506.409 C 200 507.200, 198.955 509.119, 197.679 510.673 C 192.833 516.575, 181.404 542.193, 180.407 549.389 C 180.023 552.160, 180.145 552.098, 183.353 547.889 C 187.315 542.692, 190.364 537.031, 189.609 536.276 C 189.313 535.980, 189.730 534.796, 190.535 533.646 C 191.341 532.496, 192 530.609, 192 529.452 C 192 528.295, 193.089 526.326, 194.420 525.076 C 195.750 523.825, 197.397 521.384, 198.079 519.651 C 198.761 517.918, 200.309 515.375, 201.519 514 C 203.299 511.977, 206 502.836, 206 498.833 C 206 497.044, 204.398 498.182, 202.250 501.498 M 347.508 506.750 C 347.906 507.712, 348.408 509.845, 348.624 511.488 C 348.840 513.132, 349.322 515.382, 349.695 516.488 C 350.068 517.595, 350.252 519.549, 350.104 520.831 C 349.957 522.112, 350.624 524.033, 351.588 525.098 C 353.270 526.956, 353.233 527.148, 350.671 529.822 C 347.314 533.325, 347.323 533.420, 351.250 535.840 C 356.496 539.072, 364.412 539.166, 364.829 536 C 365.010 534.625, 366.242 532.474, 367.568 531.220 C 374.685 524.486, 371.281 507.188, 363.861 512.385 C 362.231 513.527, 361.201 513.643, 359.725 512.853 C 358.511 512.203, 357.994 512.182, 358.374 512.796 C 358.712 513.344, 358.092 514.851, 356.995 516.146 C 355 518.500, 355 518.500, 353.050 516.201 C 351.978 514.937, 351.346 513.262, 351.646 512.479 C 352.399 510.518, 349.819 505, 348.149 505 C 347.242 505, 347.028 505.586, 347.508 506.750 M 279.549 512.920 C 279.171 513.532, 278.494 513.805, 278.044 513.527 C 277.595 513.249, 276.707 513.648, 276.072 514.413 C 275.437 515.178, 273.701 516.109, 272.215 516.482 C 268.664 517.373, 266.847 518.951, 267.744 520.363 C 269.630 523.331, 268.921 537.453, 266.772 539.742 C 265.146 541.474, 264.720 543.067, 264.901 546.742 C 265.386 556.591, 264.750 563.730, 263.114 566.787 C 261.074 570.599, 261.704 581.422, 264.092 583.583 C 265.680 585.021, 266.058 586.258, 265.658 588.720 C 265.369 590.504, 265.552 592.223, 266.066 592.541 C 267.714 593.559, 267.072 594.856, 264.250 596.209 C 261.152 597.694, 260.964 599.349, 263.842 599.804 C 267.021 600.307, 271.752 595.541, 270.354 593.244 C 269.724 592.208, 269.434 590.179, 269.711 588.734 C 270.037 587.026, 269.476 585.073, 268.106 583.149 C 265.734 579.817, 265.165 570.430, 267.114 566.787 C 268.210 564.739, 269.198 557.908, 269.109 553 C 268.971 545.420, 269.231 543.724, 270.984 540.752 C 272.275 538.564, 272.857 535.846, 272.759 532.466 C 272.678 529.700, 272.963 526.869, 273.392 526.175 C 273.821 525.480, 273.722 524.370, 273.171 523.706 C 270.112 520.020, 275.698 518.115, 280.155 521.324 C 281.615 522.375, 283.252 522.963, 283.792 522.629 C 284.332 522.295, 285.217 522.580, 285.758 523.261 C 286.733 524.487, 286.686 525.544, 285.481 529.570 C 283.981 534.580, 287.793 534.629, 292.834 529.664 C 298.422 524.159, 299.614 523.920, 300.239 528.176 C 300.585 530.534, 299.856 532.786, 297.407 536.926 C 293.661 543.259, 292.583 553.919, 294.923 561.500 C 295.602 563.700, 296.123 566.625, 296.081 568 C 295.904 573.759, 295.974 575.765, 296.530 580.828 C 296.852 583.758, 296.698 586.683, 296.188 587.328 C 294.102 589.964, 293.905 595.661, 295.818 598.024 C 298.016 600.738, 300.571 599.936, 299.011 597.021 C 297.957 595.051, 298.663 589.291, 300.199 587.328 C 300.703 586.683, 300.852 583.758, 300.530 580.828 C 299.974 575.765, 299.904 573.759, 300.081 568 C 300.123 566.625, 299.602 563.700, 298.923 561.500 C 296.538 553.775, 297.655 543.268, 301.562 536.666 C 303.461 533.458, 304.791 530.471, 304.518 530.030 C 304.245 529.588, 304.680 528.680, 305.485 528.012 C 306.748 526.964, 306.620 526.368, 304.547 523.649 C 301.912 520.193, 295.694 519.349, 292.485 522.013 C 291.173 523.101, 290.474 522.870, 288.045 520.543 C 286.460 519.024, 284.676 518.082, 284.081 518.450 C 282.241 519.587, 280.751 518.005, 282.116 516.361 C 283.079 515.200, 283.011 514.582, 281.782 513.354 C 280.709 512.281, 280.026 512.148, 279.549 512.920 M 374.996 522.750 C 374.994 524.813, 374.101 527.850, 373.011 529.500 C 367.558 537.753, 367.186 538.941, 368.958 542.417 C 371.279 546.969, 372.171 546.682, 373.968 540.804 C 375.476 535.873, 376.673 519, 375.516 519 C 375.232 519, 374.998 520.688, 374.996 522.750 M 412.208 539.676 C 411.216 540.074, 411.187 540.520, 412.081 541.597 C 412.970 542.669, 412.951 543.354, 412 544.500 C 411.315 545.325, 411.090 546, 411.500 546 C 411.910 546, 411.759 546.586, 411.164 547.302 C 409.804 548.941, 410.792 553, 412.552 553 C 416.036 553, 418.881 551.037, 418.645 548.796 C 418.452 546.959, 414.243 538.770, 413.651 539.079 C 413.568 539.122, 412.919 539.391, 412.208 539.676 M 368.200 575.200 C 366.805 576.595, 366.610 579.641, 367.866 580.417 C 368.871 581.038, 368.158 585.958, 366.817 587.661 C 365.618 589.184, 367.782 590.531, 370.803 590.141 C 372.070 589.977, 373.757 590.383, 374.553 591.044 C 375.681 591.981, 376.330 591.971, 377.500 591 C 379.207 589.584, 379.494 586.423, 378 585.500 C 377.450 585.160, 377 583.581, 377 581.992 C 377 577.742, 370.599 572.801, 368.200 575.200" stroke="none" fill="#1A1A1A" fill-rule="evenodd"/>
</svg>