<svg xmlns="http://www.w3.org/2000/svg" viewBox="0 0 507 600" version="1.1" preserveAspectRatio="xMidYMid meet">
	<path d="M 300.083 67.588 C 292.364 69.663, 285.502 73.923, 277.841 81.395 C 272.101 86.993, 270.101 88.252, 263.341 90.518 C 259.029 91.964, 253.250 94.410, 250.500 95.954 C 247.750 97.498, 243.700 99.078, 241.500 99.466 C 235.883 100.455, 219.768 106.555, 211.781 110.715 C 204.202 114.663, 189.621 128.456, 179.341 141.401 C 171.513 151.259, 165.297 165.627, 164.022 176.811 C 163.082 185.051, 160.803 192.843, 158.143 196.909 C 156.222 199.846, 155.972 220.578, 157.804 225.134 C 158.632 227.196, 158.424 229.152, 156.844 234.134 C 152.286 248.507, 156.248 286.325, 164.897 311 C 178.047 348.520, 179.848 351.485, 193.429 357.966 C 203.973 362.998, 211.862 363.808, 223.984 361.101 C 229.582 359.852, 234.315 358.982, 234.503 359.169 C 235.400 360.066, 242 374.596, 242 375.674 C 242 376.351, 239.863 379.860, 237.250 383.472 C 224.844 400.627, 224.762 400.802, 222.809 414.500 C 222.063 419.735, 220.703 424.231, 218.875 427.508 C 217.339 430.263, 215.394 434.465, 214.554 436.847 C 213.714 439.228, 210.532 446.230, 207.482 452.406 C 201.976 463.559, 201.933 463.719, 201.082 475.959 L 200.226 488.283 188.031 512.844 C 181.325 526.352, 174.761 538.684, 173.445 540.248 C 172.129 541.812, 170.553 544.983, 169.942 547.295 C 169.331 549.608, 167.519 553.564, 165.916 556.088 C 164.312 558.611, 163 560.993, 163 561.381 C 163 563.417, 155.488 581.713, 152.433 587.118 C 147.429 595.971, 147.839 599.500, 153.869 599.500 L 158.238 599.500 159.948 593 C 160.888 589.425, 163.310 582.827, 165.329 578.338 C 167.348 573.849, 169 569.674, 169 569.059 C 169 567.993, 173.914 557.986, 175.833 555.145 C 176.593 554.020, 177.167 554.064, 179.212 555.403 C 182.071 557.277, 183.330 556.345, 186.516 550 C 187.483 548.075, 189.562 544.860, 191.137 542.856 C 195.584 537.196, 194.928 530.926, 189.776 529.858 C 188.523 529.598, 188.307 529.093, 188.985 528.008 C 189.683 526.891, 190.203 526.803, 191.058 527.658 C 192.915 529.515, 200.181 523.930, 202.845 518.596 C 204.095 516.093, 205.541 513.784, 206.059 513.464 C 206.576 513.144, 207 511.613, 207 510.063 C 207 508.513, 207.699 505.572, 208.553 503.527 C 209.963 500.152, 209.959 499.587, 208.509 497.373 C 207.631 496.033, 206.480 495.204, 205.951 495.530 C 205.423 495.857, 206.067 494.099, 207.383 491.624 C 209.222 488.165, 209.943 484.787, 210.499 477.012 C 211.058 469.207, 211.782 465.826, 213.670 462.199 C 215.016 459.615, 217.842 452.325, 219.950 446 C 224.012 433.812, 229.426 422.841, 230.243 425.142 C 230.509 425.889, 230.119 427.702, 229.377 429.172 C 225.764 436.334, 224.899 440.708, 226.411 444.182 C 227.204 446.007, 228.102 448.298, 228.404 449.273 C 229.398 452.472, 231.713 452.197, 238.505 448.070 C 242.696 445.524, 246.419 444, 248.447 444 C 250.391 444, 252.396 443.220, 253.453 442.052 C 255.195 440.127, 266.239 436.009, 269.709 435.990 C 270.694 435.985, 273.907 434.860, 276.849 433.490 C 279.791 432.121, 282.993 431, 283.964 431 C 286 431, 291 427.340, 291 425.850 C 291 425.298, 289.615 423.461, 287.922 421.768 L 284.844 418.691 286.117 412.095 C 286.961 407.723, 288.335 404.328, 290.195 402.022 C 294.384 396.829, 294.033 392.673, 289.003 387.888 L 285.006 384.086 290.253 380.080 L 295.500 376.074 296.189 386.173 C 296.933 397.088, 296.298 399.217, 289.416 408.898 C 286.128 413.522, 286.344 416.275, 290.250 419.535 C 294.371 422.975, 295.920 425.696, 295.965 429.576 C 295.987 431.563, 296.917 433.509, 298.592 435.076 C 302.761 438.976, 304.001 442.020, 300.073 438.715 C 298.298 437.222, 295.643 435.737, 294.173 435.417 C 292.703 435.097, 290.195 434.422, 288.601 433.917 C 284.225 432.533, 280.841 432.803, 276.985 434.847 C 275.068 435.862, 272.268 436.994, 270.763 437.362 C 269.257 437.731, 267.263 439.262, 266.331 440.766 C 265.398 442.270, 263.643 444.625, 262.430 446 C 261.217 447.375, 259.949 449.416, 259.613 450.536 C 259.276 451.656, 255.676 454.713, 251.612 457.329 C 246.586 460.565, 240.783 465.830, 233.466 473.793 C 227.549 480.231, 221.436 486.273, 219.881 487.219 C 216.011 489.572, 214.872 495.026, 216.522 503.309 C 217.450 507.966, 215.602 514.459, 212.327 518.055 C 211.047 519.460, 210 521.324, 210 522.198 C 210 523.071, 209.326 524.045, 208.503 524.360 C 207.680 524.676, 205.500 527.987, 203.658 531.717 C 201.817 535.448, 198.704 540.851, 196.741 543.724 C 194.777 546.597, 192.851 550.422, 192.461 552.224 C 192.071 554.026, 190.907 556.694, 189.876 558.154 C 188.844 559.614, 188 561.232, 188 561.749 C 188 562.267, 187.128 563.479, 186.062 564.444 C 184.328 566.013, 180 577.499, 180 580.531 C 180 581.188, 178.652 583.421, 177.004 585.495 C 172.871 590.696, 173.316 602.473, 177.514 598.988 C 178.681 598.020, 178.920 596.651, 178.460 593.582 C 177.924 590.005, 178.243 588.969, 180.922 585.598 C 182.615 583.468, 184 581.188, 184 580.531 C 184 577.499, 188.328 566.013, 190.062 564.444 C 191.128 563.479, 192 562.267, 192 561.749 C 192 561.232, 192.844 559.614, 193.876 558.154 C 194.907 556.694, 196.076 554.002, 196.472 552.172 C 196.869 550.342, 199.073 546.067, 201.371 542.672 C 203.669 539.277, 206.383 534.612, 207.402 532.305 C 208.421 529.998, 210.322 527.107, 211.627 525.881 C 212.932 524.655, 214 522.967, 214 522.130 C 214 521.294, 215.047 519.460, 216.327 518.055 C 219.601 514.461, 221.449 507.966, 220.524 503.309 C 218.920 495.231, 219.691 492.317, 224.780 487.228 C 227.381 484.628, 233.190 478.592, 237.688 473.815 C 242.187 469.038, 249.046 463.036, 252.931 460.477 C 259.634 456.060, 264 451.849, 264 449.798 C 264 448.277, 270.393 441.038, 271.754 441.018 C 272.443 441.008, 274.686 440.100, 276.739 439 C 281.176 436.622, 283.134 436.540, 290.380 438.427 C 297.207 440.205, 299.661 441.498, 301.018 444.033 C 302.276 446.385, 301.311 459.738, 299.502 465 C 298.841 466.925, 298.506 469.097, 298.759 469.826 C 299.103 470.822, 298.754 470.915, 297.359 470.199 C 294.568 468.768, 287.829 466.702, 285 466.411 C 283.625 466.269, 281.561 465.861, 280.414 465.503 C 278.409 464.878, 272 469.018, 272 470.940 C 272 471.359, 268.860 474.976, 265.022 478.977 C 259.760 484.463, 257.906 487.144, 257.484 489.876 C 257.176 491.869, 255.801 497.325, 254.428 502 C 251.247 512.832, 250.012 513.842, 239.958 513.842 C 221.485 513.842, 218.402 517.282, 216.515 540 C 215.407 553.338, 212.426 563.786, 208.484 568.149 C 205.750 571.176, 205 572.852, 205 575.938 C 205 581.753, 203.777 584.097, 196.909 591.438 C 192.429 596.227, 190.992 598.392, 191.775 599.175 C 192.558 599.958, 194.448 598.550, 198.528 594.143 C 207.528 584.422, 208.177 583.349, 208.934 576.931 C 209.499 572.132, 210.250 570.337, 212.785 567.722 C 215.155 565.277, 216.378 562.587, 217.735 556.839 L 219.536 549.204 219.750 568.852 C 219.868 579.658, 219.706 589.321, 219.391 590.325 C 218.748 592.371, 210.480 596.442, 207.690 596.085 C 205.551 595.812, 202.786 597.844, 203.570 599.113 C 205.495 602.227, 219.909 597.011, 222.333 592.323 C 223.534 590, 223.803 584.029, 223.789 559.987 C 223.770 525.697, 224.250 522.419, 229.441 521.445 C 234.539 520.489, 236.234 521.487, 239.287 527.244 C 241.653 531.705, 241.927 532.995, 241.102 535.768 C 240.567 537.565, 239.815 544.818, 239.431 551.886 C 238.754 564.330, 238.814 564.915, 241.326 570.401 C 242.753 573.517, 244.878 579.618, 246.049 583.959 C 248.507 593.068, 249.784 594.509, 256.128 595.329 C 263.329 596.261, 264.188 594.720, 263.376 582.330 C 262.846 574.239, 263.052 571.360, 264.464 567.107 C 266.740 560.257, 266.353 540.141, 263.857 535.500 C 260.161 528.628, 259.757 527.036, 260.190 521.054 C 260.540 516.210, 261.084 514.630, 262.816 513.417 C 264.017 512.575, 265 511.237, 265 510.443 C 265 509.649, 265.470 509, 266.045 509 C 266.620 509, 268.262 507.829, 269.692 506.398 L 272.294 503.797 276.397 506.047 C 278.654 507.285, 281.175 508.852, 282 509.530 C 286.119 512.916, 292.568 511.189, 299.622 504.810 C 301.506 503.107, 301.813 503.071, 302.358 504.491 C 302.696 505.371, 304.553 506.751, 306.486 507.559 C 310.309 509.156, 310.800 510.943, 308.530 515 C 307.649 516.575, 307.332 518.997, 307.673 521.545 C 308.113 524.827, 307.763 526.148, 305.815 528.545 C 303.544 531.340, 301.785 533.812, 297.755 539.875 C 295.694 542.976, 295.586 547.131, 297.158 562.888 C 298.332 574.657, 300.088 579, 303.674 579 C 305.843 579, 305.182 582.069, 302.572 584.122 C 296.382 588.991, 297.561 597, 304.468 597 C 307.708 597, 313 592.738, 313 590.129 C 313 589.434, 314.125 587.392, 315.500 585.589 C 316.875 583.786, 318.003 581.454, 318.006 580.406 C 318.010 579.358, 318.651 577.276, 319.431 575.781 C 320.545 573.646, 320.608 572.421, 319.724 570.081 C 318.767 567.545, 318.890 566.779, 320.550 564.945 C 322.241 563.076, 322.517 561.175, 322.626 550.645 C 322.695 543.965, 323.065 537.150, 323.448 535.500 C 324.001 533.115, 323.530 531.588, 321.150 528.050 C 318.360 523.903, 318.253 523.411, 319.578 520.849 C 320.360 519.337, 321 516.794, 321 515.199 C 321 513.604, 321.505 510.849, 322.123 509.078 C 324.021 503.632, 319.070 481.560, 313.890 472.378 C 312.300 469.561, 311 466.886, 311 466.434 C 311 465.326, 315.685 471.648, 318.088 476 C 320.163 479.757, 321.529 482.011, 324.176 486.046 C 326.363 489.379, 326.750 499.579, 325.181 512.500 C 324.160 520.906, 324.200 523.392, 325.431 528.098 C 326.558 532.406, 326.760 537.278, 326.309 549.255 C 325.764 563.714, 325.867 565.052, 327.754 568.158 C 329.324 570.740, 329.570 572.065, 328.838 573.986 C 328.317 575.353, 328.092 577.245, 328.339 578.190 C 328.610 579.223, 327.877 580.506, 326.501 581.407 C 323.817 583.166, 318.433 596.080, 319.368 598.517 C 320.486 601.431, 322.043 599.633, 324.506 592.584 C 325.829 588.799, 328.168 584.388, 329.705 582.781 C 331.242 581.174, 332.373 579.070, 332.217 578.106 C 332.061 577.142, 332.351 575.261, 332.860 573.926 C 333.565 572.077, 333.302 570.705, 331.754 568.158 C 329.867 565.052, 329.764 563.714, 330.309 549.255 C 330.760 537.278, 330.558 532.406, 329.431 528.098 C 328.200 523.392, 328.160 520.906, 329.181 512.500 C 330.835 498.882, 330.385 489.349, 327.926 485.896 C 326.867 484.408, 326 482.905, 326 482.555 C 326 482.205, 325.177 480.700, 324.172 479.210 C 314.137 464.339, 312.030 459.397, 312.011 450.685 C 311.999 445.571, 308.882 436.863, 305.835 433.436 C 303.391 430.686, 303.472 424.379, 306.004 420.226 C 308.457 416.203, 308.459 415.898, 306.089 410.695 C 304.554 407.326, 304.348 405.612, 305.045 401.999 C 305.522 399.525, 305.932 395.423, 305.956 392.885 C 305.984 389.992, 306.686 387.380, 307.839 385.885 C 308.980 384.405, 309.538 382.354, 309.310 380.481 C 308.761 375.982, 310.775 374.115, 319.553 370.983 C 323.924 369.424, 331.377 366.540, 336.115 364.574 C 344.966 360.901, 350.190 359.608, 362.695 357.992 C 366.652 357.481, 371.595 356.149, 373.680 355.032 C 375.765 353.914, 377.898 353, 378.421 353 C 378.943 353, 380.348 352.082, 381.542 350.960 L 383.713 348.921 384.259 357.210 C 384.559 361.770, 385.146 366.400, 385.562 367.500 C 385.978 368.600, 385.951 369.166, 385.501 368.759 C 384.322 367.689, 382 369.919, 382 372.122 C 382 373.628, 381.251 374, 378.223 374 C 376.145 374, 373.502 374.661, 372.349 375.468 C 370.461 376.790, 370.075 376.741, 368.471 374.968 C 367.492 373.886, 365.906 373, 364.949 373 C 362.627 373, 357.059 379.454, 356.359 382.957 C 355.925 385.123, 355.237 385.750, 353.294 385.750 C 351.828 385.750, 349.509 387.030, 347.703 388.835 C 344.678 391.860, 344.654 391.960, 346.470 393.966 C 348.697 396.428, 347.958 397.583, 345.125 396.067 C 343.770 395.342, 341.736 395.274, 339.101 395.866 C 335.582 396.657, 334.866 396.487, 332.899 394.392 C 331.090 392.467, 330.400 392.253, 329.201 393.248 C 326.806 395.236, 323 401.802, 323 403.946 C 323 405.038, 322.261 407.482, 321.358 409.375 C 318.789 414.764, 321.959 419.157, 325.866 415.621 C 327.920 413.762, 330.016 413.384, 328.200 415.200 C 325.988 417.412, 326.857 420.765, 330.250 423.108 C 332.037 424.342, 333.677 425.487, 333.893 425.652 C 334.108 425.817, 333.718 426.635, 333.024 427.471 C 331.999 428.706, 332.066 429.451, 333.382 431.460 C 335.842 435.215, 335.441 436.173, 331.702 435.472 C 329.201 435.003, 327.810 435.354, 325.952 436.923 L 323.500 438.994 326.306 441.497 C 328.323 443.296, 330.253 444, 333.174 444 C 336.261 444, 338.056 444.720, 340.653 447 C 342.532 448.650, 344.902 450, 345.920 450 C 346.937 450, 348.540 451.176, 349.482 452.612 C 350.985 454.907, 351.659 455.150, 355.024 454.612 C 359.164 453.950, 360.350 454.898, 364.254 461.990 C 365.219 463.743, 367.357 465.686, 369.004 466.308 C 371.276 467.165, 372 468.068, 372 470.045 C 372 472.943, 375.196 476.373, 378.967 477.521 C 381.796 478.383, 390.675 487.368, 393.203 491.928 C 394.372 494.035, 395.663 495, 397.314 495 C 400.048 495, 406 504.754, 406 509.235 C 406 511.605, 408.686 514.992, 410.579 515.008 C 414.452 515.040, 424.095 543.083, 422.115 548.558 C 421.502 550.254, 421 552.895, 421 554.427 C 421 556.207, 420.098 557.922, 418.500 559.179 C 415.194 561.780, 415.340 563.522, 419.439 570.328 C 424.770 579.182, 424.757 580.401, 419.185 594.283 C 418.028 597.166, 417.944 598.344, 418.833 599.233 C 420.704 601.104, 422.451 597.822, 426.504 584.825 C 428.247 579.237, 428.241 579.092, 426.144 575.325 C 424.972 573.221, 423.023 569.591, 421.812 567.258 L 419.610 563.017 422.305 560.204 C 423.954 558.482, 425 556.275, 425 554.516 C 425 552.935, 425.502 550.254, 426.115 548.558 C 428.435 542.143, 419.124 517.389, 412.403 512.102 C 411.081 511.063, 410 509.474, 410 508.573 C 410 503.979, 401.190 491, 398.072 491 C 397.109 491, 395.817 489.893, 395.200 488.540 C 394.113 486.155, 394.162 486.112, 396.790 487.136 C 398.554 487.824, 403.165 487.924, 410 487.422 C 415.775 486.998, 422.788 486.617, 425.584 486.576 C 437.031 486.405, 448.612 472.952, 444.371 464.751 C 442.332 460.807, 443.651 459.606, 449.163 460.389 C 466.833 462.899, 472.285 461.829, 480.803 454.176 C 487.966 447.742, 489.672 439.321, 486.202 427.528 C 484.991 423.411, 484 418.930, 484 417.570 C 484 410.581, 480.407 401.398, 475.545 395.957 C 470.973 390.841, 468.377 384.793, 466.120 374 C 461.934 353.988, 458.829 341.245, 456.495 334.500 C 455.162 330.650, 453.625 323.588, 453.079 318.807 C 452.373 312.627, 451.238 308.433, 449.150 304.298 C 447.535 301.098, 445.434 295.335, 444.480 291.490 C 443.527 287.646, 442.091 283.212, 441.289 281.637 C 437.972 275.121, 436.676 267.473, 436.571 253.813 C 436.472 240.757, 436.355 240.006, 434.032 237.534 C 432.692 236.108, 431.012 235.165, 430.298 235.439 C 429.402 235.783, 428.993 234.940, 428.978 232.719 C 428.945 227.892, 425.503 221.194, 422.044 219.225 C 419.194 217.603, 419.012 217.137, 419.006 211.450 C 419.003 208.123, 418.476 204.876, 417.835 204.235 C 417.096 203.496, 416.638 198.934, 416.585 191.785 C 416.507 181.369, 416.291 180.152, 413.787 175.975 C 412.295 173.487, 410.150 168.459, 409.021 164.803 C 406.123 155.421, 401.178 145.238, 398.664 143.477 C 396.844 142.202, 396.711 141.692, 397.765 140.005 C 398.444 138.917, 399 137.527, 399 136.916 C 399 135.462, 388.377 118.172, 385.655 115.194 C 384.191 113.593, 384.025 113.073, 385.113 113.490 C 387.687 114.478, 389.378 111.524, 388.190 108.116 C 387.128 105.070, 376.959 92.021, 372.858 88.442 C 366.251 82.675, 352.385 73.681, 347.525 72.009 C 332.964 66.999, 310.173 64.875, 300.083 67.588 M 302.081 76.607 C 295.944 77.947, 286.272 82.605, 287.362 83.695 C 287.648 83.981, 290.399 82.774, 293.476 81.014 C 299.425 77.610, 302.735 78.082, 301.663 82.182 C 301.130 84.218, 301.302 84.149, 307.912 79.670 C 312.317 76.686, 312.326 76.685, 313.978 78.724 C 315.383 80.460, 315.967 80.588, 317.859 79.576 L 320.086 78.384 317.793 77.264 C 313.896 75.361, 308.773 75.146, 302.081 76.607 M 293.500 85.007 C 291.011 86.650, 290.841 86.985, 292.500 86.978 C 295.117 86.967, 297.341 85.518, 296.872 84.130 C 296.637 83.433, 295.397 83.756, 293.500 85.007 M 325.500 84.442 C 324.950 84.653, 323.192 85.116, 321.594 85.471 C 317.701 86.336, 319.360 87.901, 328 91.514 C 337.135 95.334, 339.955 95.610, 343.261 93.009 C 344.768 91.824, 346 90.547, 346 90.172 C 346 87.870, 328.975 83.112, 325.500 84.442 M 356 86.281 C 356 86.628, 357.125 88.569, 358.500 90.595 C 360.402 93.398, 361 93.809, 361 92.314 C 361 91.233, 359.875 89.292, 358.500 88 C 357.125 86.708, 356 85.935, 356 86.281 M 364.801 94.084 C 364.095 101.154, 364.753 102.581, 367.518 99.983 C 369.980 97.670, 369.873 95.797, 367.067 92.084 L 365.242 89.669 364.801 94.084 M 372.196 94.151 L 374.359 98.302 371.680 100.438 C 368.395 103.058, 368.200 106.521, 371.250 108.078 C 372.488 108.709, 376.399 111.988, 379.943 115.363 C 383.486 118.738, 385.736 120.622, 384.943 119.548 C 384.149 118.474, 382.165 116.388, 380.534 114.911 C 377.303 111.985, 378.105 109, 382.122 109 C 385.285 109, 384.272 106.650, 377.445 98.156 C 370.030 88.930, 369.108 88.226, 372.196 94.151 M 312.560 91.903 C 312.253 92.399, 313.423 93.300, 315.159 93.906 C 318.275 94.992, 318.292 94.980, 316.503 93.003 C 314.525 90.817, 313.421 90.509, 312.560 91.903 M 292.566 92.898 C 291.186 93.439, 290.983 93.872, 291.859 94.413 C 292.533 94.829, 293.744 96.819, 294.551 98.835 C 295.768 101.878, 296.510 102.500, 298.924 102.500 C 301.135 102.500, 301.582 102.201, 300.793 101.250 C 299.291 99.441, 301.642 96.998, 304.872 97.010 C 306.318 97.015, 309.975 98.186, 313 99.612 C 316.025 101.038, 320.300 102.826, 322.500 103.585 L 326.500 104.965 323.330 102.226 C 321.407 100.565, 315.683 98.014, 308.785 95.744 C 296.959 91.852, 295.771 91.643, 292.566 92.898 M 349.272 93.128 C 348.665 93.735, 347.154 94.742, 345.913 95.366 C 343.060 96.801, 342.272 99, 344.612 99 C 345.590 99, 347.674 100.230, 349.243 101.732 C 352.307 104.668, 353.959 103.889, 353.978 99.500 C 353.992 96.375, 350.607 91.793, 349.272 93.128 M 283.251 98.246 L 280.003 99.289 283.196 101.644 C 286.362 103.980, 292 104.879, 292 103.047 C 292 98.059, 288.987 96.406, 283.251 98.246 M 328.080 101.750 C 328.809 102.713, 330.229 104.445, 331.236 105.600 C 336.105 111.184, 327.048 110.503, 314.783 104.362 C 308.461 101.196, 307.854 101.387, 312.814 104.980 C 315.077 106.619, 317.631 109.319, 318.490 110.980 C 319.349 112.641, 320.455 114, 320.949 114 C 321.443 114, 323.206 115.144, 324.868 116.543 C 327.481 118.741, 328.165 118.914, 329.922 117.817 C 331.726 116.690, 332.429 116.992, 336.213 120.524 C 338.556 122.711, 339.400 123.276, 338.090 121.779 C 335.051 118.311, 336.567 115.505, 340.643 117.054 C 345.968 119.079, 345.170 117.070, 337.963 110.304 C 334.465 107.020, 332.144 104.068, 332.444 103.286 C 332.753 102.479, 331.937 101.546, 330.416 100.968 C 326.891 99.628, 326.558 99.739, 328.080 101.750 M 347.388 105.181 C 348.351 106.655, 350.219 108.569, 351.539 109.434 C 355.105 111.770, 353.531 109.088, 349.232 105.500 L 345.637 102.500 347.388 105.181 M 337.584 104.864 C 337.290 105.340, 339.259 107.591, 341.959 109.868 C 348.204 115.134, 349.103 117.654, 345.764 120.527 C 343.439 122.526, 343.368 122.855, 344.703 125.402 C 345.824 127.542, 346.428 127.889, 347.493 127.006 C 348.975 125.776, 357.985 127.912, 360.653 130.127 C 362.899 131.991, 363.282 130.446, 361.451 126.905 C 360.047 124.191, 359.972 123.275, 361.013 121.607 C 361.879 120.221, 361.934 119.478, 361.190 119.230 C 357.985 118.162, 347.860 110.718, 345.374 107.602 C 342.639 104.174, 338.836 102.838, 337.584 104.864 M 252 107.048 C 249.525 108.017, 244.638 109.331, 241.141 109.967 C 237.643 110.603, 229.583 112.968, 223.231 115.223 C 212.265 119.114, 211.247 119.719, 203.119 127.181 C 198.410 131.503, 194.140 135.818, 193.629 136.770 C 193.119 137.721, 190.502 140.852, 187.815 143.728 C 183.076 148.798, 175.994 162.130, 174.598 168.610 C 173.652 173.001, 177.550 174.523, 183.291 172.004 C 194.530 167.074, 203.682 168.802, 219.807 178.900 C 228.210 184.162, 235.661 186.455, 241.677 185.631 C 246.087 185.026, 246.634 185.221, 251.109 188.995 C 258.260 195.024, 259.910 193.804, 256.063 185.331 C 253.732 180.196, 250.969 178.617, 244.500 178.723 C 236.664 178.852, 233.617 175.020, 238.500 171.179 C 240.158 169.875, 241 168.218, 241 166.261 C 241 163.340, 243.573 160, 245.822 160 C 246.463 160, 248.359 161.893, 250.034 164.206 C 254.304 170.101, 267.940 175.829, 270.629 172.858 C 272.858 170.394, 273.992 170.512, 276.989 173.519 C 278.370 174.905, 281.300 177.422, 283.500 179.114 L 287.500 182.189 288.128 176.496 C 288.761 170.761, 290.843 166.844, 294.575 164.366 C 296.374 163.172, 297.203 163.498, 302.542 167.506 C 310.186 173.244, 310.709 173.179, 311.557 166.388 C 312.283 160.581, 316.558 154, 319.604 154 C 321.612 154, 321.359 153.054, 318 148 C 316.355 145.525, 315.007 142.198, 315.004 140.606 C 314.999 137.246, 309.915 132.102, 303.500 128.968 C 301.300 127.893, 297.475 125.438, 295 123.513 C 286.744 117.091, 274.883 108.513, 272.678 107.371 C 268.657 105.286, 256.965 105.103, 252 107.048 M 300 106.547 C 300 107.325, 307.463 111.795, 310 112.536 C 312.467 113.256, 312.475 113.238, 310.649 111.192 C 309.021 109.369, 300 105.433, 300 106.547 M 360.192 112.065 C 359.170 113.700, 359.562 114.245, 363.351 116.466 C 371.018 120.959, 372.376 119.410, 365.678 113.811 C 361.614 110.414, 361.288 110.310, 360.192 112.065 M 315.051 115.439 C 313.769 116.983, 314.631 117.663, 322.399 121.240 C 327.062 123.387, 328.166 122.920, 324.506 120.348 C 323.059 119.332, 320.605 117.491, 319.053 116.258 C 316.653 114.352, 316.055 114.229, 315.051 115.439 M 296.500 118.551 C 298.700 120.489, 301.850 122.665, 303.500 123.386 C 305.150 124.107, 309.538 127.293, 313.250 130.466 C 319.307 135.642, 320 136.610, 320 139.901 C 320 142.386, 321.122 145.309, 323.483 148.974 C 326.739 154.028, 326.859 154.498, 325.328 156.190 C 323.797 157.881, 323.826 158, 325.763 158 C 326.903 158, 328.573 158.283, 329.473 158.628 C 331.067 159.240, 328.726 153.890, 325.846 150.340 C 325.214 149.561, 325.588 148.702, 326.985 147.723 C 328.726 146.504, 328.961 145.611, 328.426 142.264 C 327.888 138.895, 328.123 138.027, 329.915 136.772 C 332.539 134.934, 332.402 134.814, 320.551 128.569 C 315.629 125.975, 310.454 123.076, 309.051 122.127 C 306.118 120.144, 302.206 118.359, 296.500 116.401 L 292.500 115.028 296.500 118.551 M 372.652 120.661 C 371.635 122.023, 371 123.334, 371.241 123.575 C 371.937 124.270, 375.243 120.220, 374.853 119.150 C 374.659 118.620, 373.668 119.299, 372.652 120.661 M 377.697 121.612 C 375.428 124.638, 376.447 126.810, 379.036 124.467 C 380.047 123.552, 381.397 123.127, 382.037 123.523 C 382.910 124.062, 382.924 123.727, 382.094 122.176 C 380.433 119.072, 379.674 118.974, 377.697 121.612 M 365.677 127.448 C 367.077 130.385, 367.538 130.681, 369.146 129.677 C 371.702 128.080, 371.513 127.615, 367.531 125.716 L 364.062 124.062 365.677 127.448 M 384.814 126.429 C 383.336 127.730, 382.397 129.064, 382.726 129.393 C 383.055 129.722, 384.337 133.706, 385.575 138.246 C 386.812 142.786, 388.615 148.525, 389.581 151 C 391.015 154.672, 391.409 159.547, 391.724 177.500 C 392.059 196.601, 392.371 200.129, 394.092 204.272 C 395.319 207.226, 396.754 215.032, 397.860 224.772 C 398.842 233.422, 400.185 241.500, 400.844 242.723 C 402.593 245.970, 403.817 253.362, 404.988 267.758 C 405.558 274.766, 406.452 281.850, 406.976 283.500 C 407.816 286.150, 407.877 285.974, 407.498 282 C 407.262 279.525, 406.791 271.875, 406.450 265 C 406.109 258.125, 405.216 248.900, 404.466 244.500 C 403.715 240.100, 402.815 230.650, 402.465 223.500 C 402.115 216.350, 400.951 203.750, 399.878 195.500 C 395.852 164.538, 395.526 159.181, 397.532 156.965 C 399.246 155.070, 399.409 155.060, 401.272 156.742 C 402.882 158.196, 402.748 157.539, 400.493 152.937 C 398.993 149.877, 396.807 146.952, 395.633 146.437 C 393.261 145.395, 392.236 141.364, 393.915 139.685 C 395.674 137.926, 395.207 136.137, 391.358 129.901 C 389.355 126.655, 387.667 124.014, 387.608 124.032 C 387.549 124.049, 386.291 125.128, 384.814 126.429 M 339.010 126.488 C 338.125 127.555, 337.288 127.689, 335.961 126.979 C 334.955 126.441, 333.167 126, 331.989 126 C 329.996 126, 330.044 126.162, 332.673 128.311 C 334.228 129.583, 337.525 131.836, 340 133.319 C 342.475 134.802, 345.573 136.782, 346.885 137.719 L 349.270 139.423 347.530 136.058 C 343.744 128.737, 340.328 124.900, 339.010 126.488 M 353.528 134.104 C 354.480 135.972, 356.837 139.669, 358.766 142.320 L 362.273 147.140 360.251 149.874 L 358.229 152.609 363.191 157.810 C 369.713 164.648, 372 165.914, 372 162.690 C 372 161.381, 371.100 159.495, 370 158.500 C 368.900 157.505, 368 155.948, 368 155.041 C 368 154.134, 365.789 150.042, 363.086 145.946 C 358.461 138.938, 358.269 138.392, 359.823 136.660 C 361.363 134.942, 361.345 134.725, 359.546 133.410 C 358.485 132.634, 357.066 132, 356.391 132 C 355.716 132, 354.406 131.709, 353.481 131.354 C 351.920 130.755, 351.923 130.954, 353.528 134.104 M 365.200 133.200 C 363.567 134.833, 363.692 136, 365.500 136 C 366.333 136, 367 135.111, 367 134 C 367 131.669, 366.814 131.586, 365.200 133.200 M 364.260 141.500 C 367.624 147.817, 371.998 153.159, 371.926 150.862 C 371.644 141.879, 370.666 139.711, 366.848 139.603 C 363.496 139.508, 363.283 139.664, 364.260 141.500 M 332.584 143.798 C 333.028 146.576, 332.774 147.943, 331.638 148.885 C 330.253 150.035, 330.373 150.706, 332.762 155.128 C 335.664 160.501, 335.080 163.847, 331.362 163.152 C 322.009 161.401, 321.211 161.578, 320.079 165.655 C 319.492 167.770, 319.009 170.547, 319.006 171.827 C 318.996 175.837, 313.543 180.350, 309.718 179.513 C 307.948 179.125, 303.800 178.739, 300.500 178.655 L 294.500 178.501 294.779 183 C 295.076 187.775, 292.211 194.037, 289.765 193.960 C 289.069 193.938, 286.025 192.589, 283 190.961 C 279.975 189.332, 276.813 188, 275.973 188 C 275.132 188, 273.438 187.295, 272.207 186.432 C 267.679 183.261, 265.557 184.796, 265 191.646 C 264.673 195.666, 263.861 198.499, 262.652 199.833 C 260.564 202.140, 260.997 203.285, 265.342 206.941 C 269.211 210.197, 271 214.740, 271 221.309 C 271 226.230, 271.336 227.024, 275 230.762 C 277.200 233.007, 279.002 235.666, 279.004 236.671 C 279.006 237.677, 279.985 240.075, 281.180 242 C 287.949 252.903, 288.470 256, 283.537 256 C 281.364 256, 280.207 258.749, 274.488 277.500 C 271.311 287.918, 271.293 290, 274.378 290 C 277.351 290, 279.569 287.433, 279.177 284.445 C 278.991 283.020, 280.003 280.919, 281.880 278.834 C 284.593 275.819, 285.087 275.626, 287.036 276.818 C 288.883 277.948, 289.469 277.885, 291.131 276.381 C 293.858 273.914, 298.241 277.783, 296.278 280.926 C 295.330 282.445, 295.384 283.074, 296.545 284.037 C 298.426 285.599, 298.405 288.419, 296.500 290 C 294.337 291.795, 294.628 293.981, 297.892 300.452 C 300.142 304.912, 300.667 307.064, 300.255 310.133 C 299.828 313.317, 300.167 314.549, 302.007 316.507 L 304.288 318.935 307.221 316.468 C 310.663 313.571, 314.076 313.299, 316.224 315.750 C 319.337 319.300, 321.185 324.266, 320.819 328.100 C 320.487 331.585, 320.703 331.995, 323.157 332.535 C 326.779 333.330, 328.358 335.437, 327.599 338.460 C 327.080 340.530, 327.270 340.842, 328.738 340.319 C 331.764 339.241, 331.983 338.954, 331.105 337.204 C 328.892 332.786, 325.768 324.200, 325.397 321.512 C 324.726 316.658, 323.906 314.645, 321.523 312 C 316.812 306.770, 317.249 305.425, 327.040 295.026 C 337.841 283.556, 341.608 279.660, 345.290 276.156 C 348.045 273.534, 348.336 270.645, 346.363 265.503 C 346.073 264.748, 347.010 263.384, 348.484 262.419 C 350.955 260.800, 351.347 260.795, 354.596 262.344 C 360.692 265.251, 363 264.650, 363 260.155 C 363 257.580, 362.339 255.712, 361 254.500 C 356.557 250.479, 360.256 238.626, 365.345 240.579 C 366.773 241.127, 367 240.384, 367 235.166 C 367 231.840, 367.391 228.876, 367.869 228.581 C 368.346 228.286, 369.017 226.293, 369.360 224.152 C 370.176 219.045, 372.364 217.114, 374.818 219.335 C 376.831 221.157, 376.819 220.952, 373.521 196.500 C 372.630 189.900, 371.540 181.125, 371.097 177 L 370.292 169.500 363.896 162.909 C 360.378 159.285, 353.675 153.412, 349 149.860 C 333.844 138.343, 331.578 137.506, 332.584 143.798 M 350.791 141.617 C 349.176 143.251, 349.257 143.476, 352.235 145.673 C 357.987 149.917, 359.720 148.469, 355.250 143.156 C 352.646 140.061, 352.409 139.979, 350.791 141.617 M 380.179 165 C 380.162 170.205, 380.346 170.989, 381.101 168.933 C 381.684 167.347, 381.692 164.863, 381.123 162.433 C 380.249 158.704, 380.200 158.837, 380.179 165 M 400.135 162.500 C 400.087 165.994, 404.489 201.895, 405.571 206.838 C 405.961 208.624, 406.390 208.921, 407.383 208.097 C 408.099 207.503, 409.052 207.351, 409.502 207.759 C 409.952 208.166, 410.050 208.024, 409.720 207.442 C 409.389 206.860, 408.891 201.385, 408.612 195.275 C 408.237 187.044, 407.444 182.196, 405.553 176.562 C 404.149 172.380, 402.980 168.405, 402.955 167.729 C 402.867 165.327, 400.165 160.317, 400.135 162.500 M 294.035 169.934 C 293.466 170.998, 293 172.292, 293 172.809 C 293 174.177, 298.285 175.018, 301.491 174.161 L 304.245 173.424 300.689 170.712 C 296.463 167.489, 295.410 167.366, 294.035 169.934 M 247.617 170.644 C 247.887 171.674, 249.840 173.515, 251.959 174.734 C 254.078 175.954, 257.067 178.878, 258.602 181.234 L 261.392 185.517 263.651 183.258 C 266.232 180.677, 269.619 180.397, 272.441 182.532 C 273.509 183.339, 275.084 184.001, 275.941 184.002 C 276.799 184.003, 280.145 185.399, 283.379 187.103 C 289.494 190.326, 290.947 190.066, 290.985 185.742 C 290.997 184.282, 290.686 184.179, 289.156 185.135 C 287.594 186.110, 286.330 185.524, 280.889 181.302 C 274.502 176.345, 274.457 176.329, 272.843 178.409 C 271.348 180.335, 270.955 180.392, 267.860 179.138 C 266.012 178.389, 261.575 176.671, 258 175.319 C 254.425 173.968, 250.516 171.941, 249.314 170.816 C 247.279 168.913, 247.161 168.901, 247.617 170.644 M 241.521 172.976 C 239.738 174.947, 239.745 175, 241.786 175 C 244.255 175, 245.169 173.891, 244.110 172.179 C 243.553 171.277, 242.869 171.487, 241.521 172.976 M 187.500 176.541 C 180.830 178.239, 175.989 183.623, 173.687 191.903 C 171.548 199.597, 171.553 199.671, 174.277 200.355 C 175.529 200.669, 178.472 202.568, 180.817 204.575 C 193.492 215.424, 194.188 237.742, 182.102 245.749 C 177.423 248.849, 174.953 248.578, 171.038 244.539 C 169.193 242.635, 167.304 241.312, 166.842 241.598 C 164.111 243.286, 167.470 278.524, 171.766 293.250 C 173.439 298.985, 174.257 299.757, 176.894 298.087 C 177.717 297.566, 179.478 297.619, 181.195 298.218 C 182.794 298.775, 184.365 298.969, 184.686 298.648 C 185.856 297.478, 182.774 292.195, 178.441 287.942 C 172.225 281.842, 171.904 283.462, 184.374 258 C 190.461 245.572, 192.497 238.244, 193.544 225 C 194.525 212.606, 200.630 202.937, 206.540 204.421 C 210.433 205.398, 212.611 203.333, 210.338 200.821 C 208.716 199.029, 208.736 198.820, 210.718 196.838 C 212.973 194.583, 217.788 193.580, 219.508 195.006 C 220.090 195.490, 221.161 195.519, 221.887 195.070 C 223.849 193.857, 221.959 190.969, 215.761 185.709 C 205.588 177.075, 196.711 174.196, 187.500 176.541 M 382.451 177.250 C 381.887 178.488, 380.814 179.365, 380.065 179.201 C 378.972 178.960, 378.830 180.258, 379.343 185.782 C 380.270 195.754, 381.004 198.667, 382.592 198.667 C 383.723 198.667, 384 196.343, 384 186.833 C 384 180.325, 383.882 175, 383.737 175 C 383.593 175, 383.014 176.012, 382.451 177.250 M 410.588 178.964 C 410.963 180.319, 411.641 183.694, 412.093 186.464 L 412.915 191.500 412.535 185.799 C 412.326 182.664, 411.648 179.289, 411.030 178.299 C 410.067 176.760, 410.003 176.857, 410.588 178.964 M 219.098 184.205 C 226.552 191.168, 227.737 193.536, 225.361 196.718 C 223.160 199.666, 220.297 200.445, 218.034 198.710 C 217.153 198.035, 217.289 198.460, 218.353 199.710 C 220.172 201.845, 220.159 201.932, 217.648 204.443 C 216.242 205.849, 214.197 207, 213.104 207 C 212.012 207, 210.831 207.464, 210.481 208.031 C 210.117 208.620, 208.420 208.794, 206.519 208.438 C 203.404 207.853, 203.029 208.094, 200.597 212.245 C 199.122 214.762, 198.019 218.150, 198.044 220.088 L 198.088 223.500 200.022 219.840 C 205.517 209.439, 224.159 206.164, 232.620 214.112 C 233.929 215.342, 235 216.945, 235 217.674 C 235 218.445, 236.151 219.015, 237.750 219.035 C 239.262 219.055, 241.625 219.714, 243 220.500 C 249.395 224.156, 250.092 222.408, 246.558 211.580 C 244.309 204.691, 243.417 203.402, 235.294 195.299 C 230.234 190.253, 223.919 185.095, 220.486 183.205 L 214.500 179.910 219.098 184.205 M 245 192.378 C 245 192.586, 247.926 195.324, 251.502 198.464 C 255.077 201.603, 257.721 203.435, 257.375 202.535 C 256.991 201.534, 257.670 199.896, 259.123 198.318 C 261.307 195.947, 261.326 195.843, 259.358 197.042 C 257.467 198.194, 256.635 197.975, 252.270 195.173 C 247.890 192.363, 245 191.252, 245 192.378 M 167 204.500 L 167 208 172.441 208 C 175.434 208, 178.159 208.448, 178.497 208.995 C 178.835 209.542, 180.088 210.512, 181.281 211.150 C 183.390 212.279, 183.406 212.245, 181.864 209.922 C 180.636 208.072, 169.131 201, 167.350 201 C 167.158 201, 167 202.575, 167 204.500 M 250.308 210.963 C 253.595 220.818, 253.232 224.604, 248.891 225.739 C 247.322 226.149, 247.149 226.479, 248.165 227.123 C 252.396 229.805, 257 225.781, 257 219.400 C 257 216.147, 252.369 206.696, 249.417 203.922 C 247.439 202.064, 247.499 202.543, 250.308 210.963 M 281.303 204.097 C 279.898 205.502, 286.953 215.202, 290.583 216.856 C 299.275 220.816, 308.775 215.011, 301.250 210.338 C 299.738 209.399, 297.600 207.852, 296.500 206.899 C 295.051 205.645, 285.565 203, 282.516 203 C 282.452 203, 281.906 203.494, 281.303 204.097 M 257.844 210.500 C 259.063 212.700, 260.458 215.850, 260.944 217.500 L 261.828 220.500 261.914 217.700 C 262.013 214.487, 259.934 210.008, 257.379 207.927 C 255.965 206.776, 256.055 207.272, 257.844 210.500 M 287.918 209.846 C 289.442 212.694, 292.144 214, 296.511 214 L 300.153 214 297.282 211.584 C 295.703 210.255, 292.696 208.846, 290.600 208.453 C 286.952 207.768, 286.837 207.828, 287.918 209.846 M 217.500 213.679 C 207.402 215.936, 205.393 216.954, 203.605 220.720 L 201.810 224.500 204.220 222.250 C 207.152 219.512, 208.619 219.416, 210.148 221.865 C 210.850 222.990, 212.047 223.539, 213.162 223.247 C 215.399 222.662, 218.233 224.781, 217.328 226.363 C 216.970 226.988, 217.763 226.544, 219.089 225.375 C 222.473 222.392, 225.447 221, 228.434 221 C 230.494 221, 231 220.514, 231 218.539 C 231 216.438, 230.240 215.852, 225.818 214.539 C 222.969 213.692, 220.381 213.052, 220.068 213.116 C 219.756 213.180, 218.600 213.433, 217.500 213.679 M 408.419 219.673 C 408.738 223.618, 409.439 229.018, 409.977 231.673 C 410.514 234.328, 411.220 238.246, 411.546 240.380 C 411.977 243.196, 412.441 243.959, 413.236 243.164 C 414.032 242.368, 414.007 240.138, 413.144 235.038 C 412.490 231.172, 411.479 225.163, 410.898 221.685 C 409.320 212.236, 407.711 210.930, 408.419 219.673 M 160.418 215.332 C 160.738 216.339, 161.007 218.814, 161.015 220.832 C 161.027 223.568, 161.277 224.119, 162 223 C 163.443 220.767, 163.202 217.630, 161.418 215.441 C 159.971 213.665, 159.886 213.656, 160.418 215.332 M 265.699 219.500 C 264.337 228.350, 259.679 237, 256.276 237 C 255.520 237, 253.461 236.263, 251.700 235.363 C 248.541 233.747, 248.523 233.752, 250.250 235.692 C 254.138 240.058, 249.591 247.501, 244.463 245.165 C 241.045 243.608, 241.015 243.627, 242.344 246.492 C 243.834 249.704, 244.921 249.639, 249.414 246.068 C 254.093 242.350, 257.027 241.747, 264.500 242.967 C 276.356 244.903, 278.018 251.679, 270.614 267.894 C 268.202 273.178, 265.430 279.975, 264.454 283 C 259.503 298.349, 256.812 305.335, 254.806 308.048 C 252.480 311.195, 252.118 315.165, 253.479 322.630 C 254.206 326.621, 254.383 326.781, 258.755 327.380 C 265.457 328.298, 265.638 328.257, 269.423 324.933 C 274.665 320.331, 278.767 321.020, 281.728 327 C 284.719 333.039, 284.299 334.798, 279 338.439 C 264.199 348.608, 256.276 351.992, 247.215 352.014 C 239.358 352.032, 236.612 352.828, 238.122 354.647 C 239.113 355.842, 239.565 355.799, 241.153 354.362 C 242.907 352.775, 243.601 352.803, 252.759 354.842 C 264.634 357.486, 266.999 357.514, 276.239 355.115 C 280.232 354.078, 285.975 352.754, 289 352.173 C 305.579 348.988, 306.213 348.813, 305.105 347.705 C 303.566 346.166, 303.727 343.835, 305.552 341.229 L 307.105 339.013 311.101 341.052 C 313.299 342.173, 315.330 343.695, 315.613 344.435 C 315.910 345.209, 316.967 345.560, 318.104 345.262 C 319.191 344.978, 319.830 344.497, 319.526 344.192 C 319.221 343.888, 320.152 342.407, 321.595 340.901 C 324.161 338.222, 324.161 336, 321.596 336 C 320.889 336, 319.509 335.114, 318.529 334.032 C 317.186 332.548, 316.304 332.302, 314.940 333.032 C 311.972 334.621, 309.486 334.147, 307.021 331.522 L 304.693 329.044 300.957 332.420 C 298.902 334.276, 296.311 336.084, 295.199 336.437 C 294.087 336.790, 291.990 338.636, 290.538 340.539 C 287.814 344.111, 285.289 344.889, 283.200 342.800 C 281.026 340.626, 281.943 338.022, 285.860 335.240 C 287.982 333.733, 291.147 330.346, 292.892 327.713 C 294.637 325.080, 297.175 322.504, 298.532 321.988 C 301.598 320.822, 301.593 320.684, 298.379 317.469 C 296.133 315.224, 295.828 314.220, 296.250 310.476 C 296.641 307.007, 296.149 304.926, 293.871 300.411 C 290.662 294.048, 290.277 290.845, 292.500 289 C 294.616 287.244, 294.362 286.093, 291.995 286.712 C 289.361 287.400, 287 285.352, 287 282.378 C 287 279.158, 284.217 279.289, 283.399 282.547 C 283.047 283.947, 283.048 285.381, 283.400 285.734 C 284.484 286.818, 276.726 294, 274.471 294 C 271.860 294, 267.991 290.060, 268.024 287.436 C 268.051 285.352, 271.476 273.624, 275.216 262.815 C 276.488 259.138, 278.554 255.039, 279.807 253.705 C 282.343 251.006, 281.927 249.113, 277.259 242.110 C 276.017 240.246, 275 237.912, 275 236.923 C 275 235.935, 273.313 233.535, 271.250 231.590 C 267.795 228.332, 267.459 227.520, 266.984 221.277 L 266.468 214.500 265.699 219.500 M 417.668 224.809 C 417.955 226.839, 418.903 231.425, 419.775 235 C 420.647 238.575, 421.266 244.200, 421.152 247.500 C 420.470 267.209, 420.722 270.504, 423.910 283.500 C 430.526 310.475, 432.071 318.552, 435.002 341.500 C 436.125 350.300, 438.127 363.800, 439.450 371.500 C 440.773 379.200, 442.160 388.922, 442.532 393.105 C 442.904 397.288, 444.044 402.463, 445.065 404.605 L 446.922 408.500 446.606 399.500 C 446.039 383.383, 442.078 349.921, 438.497 331 C 437.196 324.125, 435.437 314.450, 434.588 309.500 C 433.740 304.550, 432.171 296.675, 431.103 292 C 429.192 283.645, 429.192 283.467, 431.062 281.546 C 432.946 279.610, 432.993 279.619, 436.103 282.546 L 439.242 285.500 437.537 282.137 C 434.453 276.055, 432.749 267.649, 432.623 257.903 C 432.510 249.054, 432.364 248.390, 430.761 249.386 C 427.635 251.330, 424.242 246.847, 425.772 242.794 C 426.573 240.671, 426.647 239.247, 425.992 238.592 C 425.446 238.046, 424.999 235.778, 424.998 233.550 C 424.997 228.580, 422.248 222.936, 419.322 221.894 C 417.288 221.169, 417.179 221.361, 417.668 224.809 M 259.522 224.930 C 259.159 226.074, 257.728 228.358, 256.342 230.005 C 254.104 232.665, 254.028 233, 255.661 232.996 C 257.473 232.993, 261.897 224.564, 260.710 223.377 C 260.420 223.087, 259.885 223.786, 259.522 224.930 M 373 225.441 C 373 226.784, 372.550 228.160, 372 228.500 C 371.450 228.840, 371 231.691, 371 234.837 C 371 241.886, 368.941 245.453, 365.387 244.561 C 363.144 243.998, 363 244.225, 363 248.326 C 363 251.420, 363.582 253.217, 365 254.500 C 367.445 256.712, 367.676 262.590, 365.443 265.777 C 363.618 268.383, 358.869 268.712, 355 266.500 C 350.781 264.088, 350.095 264.537, 351.221 268.974 C 352.189 272.786, 352.060 273.151, 348.065 277.922 C 345.774 280.658, 343.091 283.154, 342.102 283.468 C 341.113 283.782, 339.762 285.226, 339.101 286.678 C 338.439 288.130, 334.326 292.676, 329.960 296.780 C 321.231 304.986, 320.730 306.702, 325.516 312 C 327.914 314.653, 328.740 316.687, 329.380 321.512 C 329.701 323.929, 333.415 333.516, 334.539 334.826 C 335.379 335.805, 362 331.413, 362 330.295 C 362 329.608, 363.064 328.349, 364.365 327.496 C 367.164 325.663, 370.562 326.612, 375.216 330.528 C 376.832 331.888, 378.563 333, 379.063 333 C 380.135 333, 379.416 295.478, 377.923 273.500 C 377.362 265.250, 376.735 253.004, 376.530 246.286 C 376.195 235.314, 374.555 223, 373.429 223 C 373.193 223, 373 224.098, 373 225.441 M 203.975 229.750 C 202.770 232.946, 201.558 239.054, 201.247 243.500 C 200.830 249.465, 200.108 252.390, 198.409 255 C 197.156 256.925, 195.356 260.525, 194.410 263 C 193.464 265.475, 191.184 269.639, 189.345 272.252 C 185.500 277.714, 185.359 278.163, 187.750 277.320 C 190.195 276.457, 194 272.890, 194 271.461 C 194 269.259, 198.125 265, 200.258 265 C 201.420 265, 203.338 265.909, 204.520 267.019 L 206.669 269.038 206.585 250.910 L 206.500 232.783 210 229.760 C 211.925 228.097, 212.998 227.010, 212.384 227.345 C 211.770 227.679, 210.462 227.063, 209.479 225.976 C 206.857 223.080, 206.363 223.419, 203.975 229.750 M 223.250 226.220 C 222.012 226.817, 221 228.127, 221 229.131 C 221 231.281, 224.962 230.055, 228.472 226.818 C 230.423 225.019, 230.418 225.001, 227.972 225.068 C 226.613 225.105, 224.488 225.624, 223.250 226.220 M 388.345 233.980 C 390.310 252.904, 390.364 262.941, 388.511 264.987 C 386.051 267.706, 386.998 276.610, 389.969 278.691 C 391.086 279.473, 392 281.158, 392 282.434 C 392 284.978, 389.777 287.419, 388.534 286.241 C 388.104 285.834, 388.098 286.623, 388.521 287.996 C 389.256 290.380, 391.653 292.900, 393.250 292.968 C 394.173 293.007, 394.141 289.153, 393.039 267.500 C 392.280 252.586, 392.369 250.283, 393.760 248.730 C 395.217 247.104, 395.169 246.720, 393.173 244.020 C 391.571 241.854, 391 239.657, 391 235.663 C 391 231.826, 390.514 229.844, 389.336 228.872 C 387.803 227.608, 387.725 228.012, 388.345 233.980 M 213.892 231.286 C 211.386 233.414, 209.375 238, 210.948 238 C 212.620 238, 217 232.968, 217 231.048 C 217 228.565, 217.107 228.557, 213.892 231.286 M 168.247 233.713 C 167.084 236.219, 167.258 236.680, 170.700 240.205 C 175.620 245.243, 181.357 244.902, 183.854 239.422 C 184.868 237.196, 184.769 237.096, 182.080 237.634 C 179.777 238.095, 178.467 237.513, 175.244 234.602 C 170.476 230.294, 169.871 230.217, 168.247 233.713 M 223.200 234.200 C 222.540 234.860, 222 236.435, 222 237.700 C 222 240.679, 225.484 240.832, 227.042 237.922 C 229.066 234.140, 226.117 231.283, 223.200 234.200 M 240.493 234.989 C 240.880 235.615, 240.456 236.944, 239.552 237.943 C 238.004 239.653, 238.072 239.790, 240.704 240.286 C 242.242 240.576, 244.512 241.133, 245.750 241.523 C 250.071 242.887, 248.553 238.323, 243.895 235.947 C 241.638 234.795, 240.107 234.364, 240.493 234.989 M 216.161 238.305 C 214.154 240.724, 213.438 247.676, 214.196 257.384 C 214.588 262.398, 214.679 267.691, 214.398 269.146 C 214.088 270.749, 214.894 274.185, 216.443 277.866 C 218.419 282.560, 219 285.646, 219 291.447 C 219 298.311, 219.210 299.091, 221.452 300.560 C 223.726 302.050, 224.085 302.034, 226.420 300.333 C 227.804 299.325, 228.951 298.129, 228.969 297.676 C 228.986 297.222, 231.475 294.257, 234.500 291.085 C 237.525 287.914, 240 284.778, 240 284.117 C 240 283.455, 241.925 280.796, 244.278 278.207 C 246.630 275.618, 249.345 271.766, 250.311 269.646 C 251.925 266.102, 253.784 256.984, 252.886 257.012 C 252.674 257.018, 250.166 257.645, 247.314 258.404 C 240.189 260.302, 234.348 258.986, 230.005 254.505 C 226.932 251.335, 226.795 250.908, 227.953 248.114 C 229.497 244.385, 228.786 243.127, 225.489 243.757 C 222.741 244.283, 219.291 241.910, 218.077 238.662 C 217.479 237.061, 217.232 237.015, 216.161 238.305 M 415.456 245.071 C 415.092 245.660, 415.104 248.211, 415.484 250.740 C 416.323 256.339, 417.961 254.709, 417.985 248.250 C 417.999 244.192, 416.874 242.777, 415.456 245.071 M 231.631 248.798 C 230.821 251.135, 232.261 254, 234.245 254 C 234.897 254, 234.888 253.566, 234.218 252.750 C 233.654 252.063, 233.019 250.375, 232.809 249 L 232.426 246.500 231.631 248.798 M 237.180 249.250 C 237.391 250.733, 238.305 251.614, 239.860 251.834 C 242.215 252.167, 242.216 252.163, 240.360 249.615 C 238.049 246.444, 236.761 246.296, 237.180 249.250 M 268.317 248.758 C 269.998 250.652, 270.024 251.173, 268.668 255.653 C 266.360 263.278, 259.638 277.055, 255.757 282.116 C 253.811 284.655, 251.887 288.237, 251.483 290.076 C 250.153 296.132, 247.195 301.789, 243.066 306.172 C 240.502 308.895, 238.790 311.786, 238.433 313.995 C 235.347 333.119, 229.290 342.440, 223.490 336.991 C 222.121 335.704, 221 334.056, 221 333.329 C 221 332.601, 219.425 330.262, 217.500 328.132 C 215.575 326.001, 214 323.671, 214 322.954 C 214 322.164, 213.011 322.580, 211.488 324.012 L 208.975 326.372 206.238 324.384 C 202.436 321.624, 198.329 313.275, 199.715 311.125 C 200.839 309.380, 202.752 309.196, 207.500 310.377 C 210.087 311.020, 209.865 310.716, 205.880 308.166 C 199.302 303.956, 197.584 301.283, 199.539 298.300 C 201.011 296.054, 200.965 296, 197.618 296 C 194.205 296, 194.193 296.017, 194.719 299.940 C 195.201 303.534, 194.971 304.047, 192.097 305.795 C 189.275 307.511, 189.114 307.850, 190.558 309.048 C 191.588 309.903, 192.019 311.420, 191.750 313.249 C 191.390 315.703, 191.794 316.305, 194.585 317.471 C 199.468 319.511, 200.715 322.542, 198.116 326.057 L 196.033 328.875 201.766 332.363 C 211.075 338.027, 213.349 340.952, 212.494 346.162 C 212.102 348.548, 211.087 351.288, 210.236 352.250 C 208.272 354.474, 208.970 354.446, 217.503 351.966 C 221.481 350.810, 230.541 349.473, 238.500 348.866 C 254.847 347.620, 259.903 346.296, 268.893 340.902 C 280.325 334.044, 280.454 333.899, 278.920 329.655 C 277.229 324.978, 274.136 324.796, 269.253 329.083 C 265.892 332.033, 265.477 332.137, 259.620 331.476 C 252.137 330.632, 250.464 329.265, 249.505 323.208 C 248.167 314.755, 248.472 311.206, 250.806 308.048 C 252.812 305.335, 255.503 298.349, 260.454 283 C 261.430 279.975, 264.202 273.178, 266.614 267.894 C 271.824 256.484, 272.530 249.873, 268.750 247.890 C 266.542 246.731, 266.534 246.747, 268.317 248.758 M 254.233 250.502 C 252.206 251.964, 251.949 254.768, 253.956 253.527 C 255.843 252.361, 257.262 256.137, 256.705 260.841 C 255.936 267.339, 253.394 272.578, 248.278 278.207 C 245.925 280.796, 244 283.455, 244 284.117 C 244 286.070, 225.640 306, 223.841 306 C 221.389 306, 215 298.600, 215 295.761 C 215 293.494, 214.693 292.999, 213.750 293.747 C 213.063 294.293, 210.867 295.265, 208.871 295.907 C 198.686 299.185, 201.567 304.377, 215.548 307.937 C 220.276 309.141, 225.559 314.100, 224.647 316.477 C 224.310 317.355, 222.680 318.844, 221.024 319.787 C 217.144 321.994, 217.224 323.399, 221.500 328.132 C 223.425 330.262, 225 332.679, 225 333.503 C 225 334.326, 225.666 335, 226.480 335 C 229.112 335, 232.477 326.112, 234.436 313.980 C 234.793 311.771, 236.706 308.515, 239.577 305.234 C 243.496 300.754, 248 291.556, 248 288.034 C 248 287.475, 249.642 284.876, 251.648 282.259 C 257.866 274.149, 267.030 252.630, 265.092 250.692 C 263.343 248.943, 256.560 248.824, 254.233 250.502 M 198.667 269.667 C 198.300 270.033, 198 271.104, 198 272.046 C 198 273.969, 190.706 280.333, 187.250 281.424 C 184.904 282.165, 184.336 283.472, 185.931 284.457 C 186.443 284.774, 187.144 284.575, 187.490 284.016 C 188.644 282.149, 192.625 282.972, 195.076 285.585 L 197.500 288.170 195.139 290.085 L 192.778 292 196.350 292 C 198.314 292, 202.455 291.220, 205.553 290.266 C 211.124 288.550, 211.180 288.495, 210.646 285.207 C 209.316 277.008, 201.485 266.849, 198.667 269.667 M 435.179 292.264 C 437.325 301.811, 439.640 314.392, 440.533 321.361 C 441.129 326.010, 441.221 326.130, 442.646 324.094 C 443.466 322.924, 444.470 322.173, 444.878 322.425 C 446.300 323.304, 444.737 310.472, 442.999 307 C 442.035 305.075, 440.069 299.620, 438.630 294.878 C 435.016 282.966, 432.694 281.207, 435.179 292.264 M 394.721 295.707 C 393.388 297.041, 392.750 297.150, 391.807 296.207 C 389.704 294.104, 389.287 294.840, 388.743 301.619 C 387.912 311.969, 388.879 319.844, 390.917 319.312 C 391.831 319.072, 393.447 319.837, 394.509 321.010 C 396.417 323.119, 396.416 323.185, 394.411 326.821 C 393.295 328.845, 391.846 330.387, 391.191 330.250 C 389.893 329.978, 389.726 332.449, 390.850 335.299 C 391.499 336.942, 391.766 336.878, 393.943 334.561 C 395.765 332.621, 396.639 332.286, 397.663 333.135 C 398.764 334.049, 398.988 332.589, 398.930 324.872 C 398.856 315.061, 397.976 310.611, 396.563 312.898 C 395.210 315.087, 390 309.204, 390 305.487 C 390 302.079, 394.038 297.287, 395.926 298.454 C 396.584 298.861, 397 298.128, 397 296.559 C 397 293.528, 396.928 293.501, 394.721 295.707 M 405.376 302.500 C 405.761 306.350, 407.186 312.650, 408.541 316.500 L 411.005 323.500 410.461 314 C 409.813 302.676, 409.008 296.659, 408.243 297.424 C 407.935 297.731, 407.007 297.424, 406.179 296.741 C 404.854 295.648, 404.758 296.335, 405.376 302.500 M 174.639 303.275 C 172.993 304.478, 173.022 304.879, 175.146 310.430 C 176.384 313.664, 177.568 315.796, 177.778 315.167 C 177.987 314.539, 177.448 312.600, 176.579 310.858 C 174.691 307.073, 174.579 304.821, 176.200 303.200 C 177.781 301.619, 176.841 301.664, 174.639 303.275 M 418.111 304.792 C 418.050 306.603, 418.741 311.553, 419.646 315.792 C 420.551 320.031, 421.226 324.577, 421.145 325.893 C 420.973 328.706, 426.796 358.157, 427.682 358.955 C 428.015 359.255, 427.974 357.925, 427.592 356 C 427.209 354.075, 426.266 347.515, 425.496 341.422 C 423.123 322.656, 418.313 298.794, 418.111 304.792 M 216.703 314.469 C 218.716 317.234, 219.554 317.531, 220.594 315.848 C 221.368 314.595, 218.447 312, 216.262 312 C 215.241 312, 215.349 312.608, 216.703 314.469 M 204.590 316.870 C 205.943 320.108, 207.553 321.944, 209.076 321.985 C 210.317 322.018, 214.297 316.963, 213.588 316.255 C 213.174 315.840, 210.645 315.008, 207.969 314.405 L 203.102 313.309 204.590 316.870 M 180.299 322.960 C 181.380 326.257, 182.675 328.701, 183.176 328.391 C 183.678 328.081, 185.306 328.611, 186.794 329.569 L 189.500 331.310 187.612 329.174 C 185.442 326.718, 186.761 324, 190.122 324 C 193.966 324, 191.830 322.098, 187.250 321.442 C 184.637 321.068, 181.563 319.907, 180.417 318.863 L 178.334 316.965 180.299 322.960 M 296.901 328.106 C 293.434 331.817, 293.144 333.513, 296.250 331.907 C 299.612 330.168, 302 327.858, 302 326.345 C 302 324.117, 299.973 324.818, 296.901 328.106 M 402.906 331.036 C 402.638 343.760, 403.326 354.882, 404.588 358.242 C 405.365 360.309, 406.636 363.694, 407.414 365.765 C 408.692 369.168, 411.206 382.540, 413.849 400 C 414.762 406.029, 414.795 405.791, 414.295 396.713 C 413.845 388.530, 414.025 386.629, 415.397 385.114 C 416.920 383.431, 416.902 383, 415.149 379.084 C 413.825 376.127, 413.413 373.519, 413.769 370.358 C 414.221 366.349, 414.068 365.885, 412.389 366.174 C 407.736 366.977, 402.469 345.455, 406.286 341.237 C 408.120 339.210, 406.896 330.648, 404.400 328.036 C 403.190 326.770, 402.987 327.178, 402.906 331.036 M 365.350 332.507 C 364.113 335.162, 364.636 335.440, 374.703 337.487 C 376.465 337.845, 379.052 339.040, 380.453 340.142 L 383 342.145 383 338.450 C 383 335.333, 382.773 334.944, 381.548 335.960 C 379.769 337.437, 376.876 336.603, 373.245 333.568 C 368.893 329.930, 366.688 329.634, 365.350 332.507 M 185.038 334.730 C 186.944 339.993, 188.345 342, 190.110 342 C 194.714 342, 193.457 337.329, 188.018 334.230 L 184.034 331.960 185.038 334.730 M 195.456 336.293 C 197.498 339.409, 196.842 342.193, 193.434 344.874 L 190.985 346.799 194.142 347.900 C 199.090 349.624, 200.655 349.247, 201.998 346.006 C 203.475 342.440, 202.032 339.583, 196.914 335.938 L 193.746 333.683 195.456 336.293 M 204.750 339.396 C 207.478 342.881, 207.487 343.089, 205.091 348.048 C 203.243 351.872, 203.241 352, 205.032 352 C 207.376 352, 207.654 351.509, 208.496 345.885 C 209.157 341.469, 209.042 341.167, 205.843 338.896 L 202.500 336.523 204.750 339.396 M 395.667 337.667 C 395.300 338.033, 395 339.155, 395 340.158 C 395 341.162, 394.100 342.545, 393 343.232 C 390.032 345.086, 390.564 348.186, 394.509 352.009 L 398.018 355.410 397.308 350.455 C 396.918 347.730, 396.576 343.589, 396.549 341.253 C 396.522 338.917, 396.462 337.005, 396.417 337.003 C 396.371 337.001, 396.033 337.300, 395.667 337.667 M 368.251 341.725 C 371.144 344.921, 372.431 349.776, 370.882 351.643 C 369.903 352.821, 370.597 352.684, 373.512 351.122 C 375.689 349.955, 378.069 349, 378.802 349 C 379.663 349, 380.021 348.033, 379.816 346.257 C 379.465 343.214, 376.951 341.665, 370.514 340.526 C 366.642 339.841, 366.577 339.875, 368.251 341.725 M 358.612 342.943 C 362.241 344.473, 365.228 349.020, 363.763 350.786 C 362.690 352.078, 362.865 352.181, 365.008 351.520 C 368.468 350.453, 368.456 350.487, 366.858 346.272 C 365.522 342.748, 365.135 342.485, 360.964 342.276 C 357.577 342.107, 357.010 342.268, 358.612 342.943 M 445 343.837 C 445 344.848, 445.672 350.135, 446.494 355.587 C 447.316 361.039, 447.991 368.143, 447.994 371.372 C 447.999 376.479, 448.196 377.082, 449.500 376 C 450.626 375.066, 451.341 375.038, 452.368 375.891 C 453.507 376.836, 453.604 376.313, 452.946 372.763 C 452.085 368.117, 453.667 363.289, 455.892 363.775 C 456.674 363.946, 456.951 363.378, 456.623 362.275 C 456.333 361.299, 455.797 359.250, 455.432 357.723 C 454.942 355.667, 454.449 355.212, 453.537 355.970 C 451.697 357.496, 449.513 354.478, 447.589 347.750 C 445.917 341.906, 445 340.520, 445 343.837 M 346.887 349.159 C 347.943 351.022, 349.017 351.792, 350 351.391 C 350.825 351.054, 353.413 350.545, 355.750 350.259 C 364.393 349.203, 359.505 345.765, 349.887 346.136 L 345.273 346.314 346.887 349.159 M 322.500 353.006 C 316.031 353.944, 290.082 359.605, 283.074 361.607 C 274.540 364.046, 258.906 372.389, 254.868 376.660 C 244.059 388.091, 235.055 401.144, 233.594 407.500 C 233.215 409.150, 232.671 411.288, 232.385 412.250 C 231.386 415.614, 233.645 413.917, 245.031 402.750 C 254.291 393.668, 258.140 390.652, 265.001 387.100 C 274.923 381.963, 283.703 376.908, 289.933 372.745 C 292.372 371.116, 300.472 367.635, 307.933 365.011 C 321.528 360.229, 337.559 353.775, 338.716 352.617 C 339.515 351.818, 328.950 352.071, 322.500 353.006 M 392.026 356.750 C 392.041 357.712, 392.904 360.300, 393.945 362.500 L 395.838 366.500 395.919 362.684 C 396.004 358.670, 394.593 355, 392.965 355 C 392.434 355, 392.012 355.788, 392.026 356.750 M 257.630 361.126 C 260.710 362.731, 262.488 363.074, 264.630 362.477 C 267.369 361.714, 267.286 361.643, 262.839 360.934 C 260.275 360.526, 257.125 359.918, 255.839 359.583 C 254.553 359.249, 255.358 359.943, 257.630 361.126 M 402.581 367.250 C 402.914 369.587, 403.591 374.200, 404.086 377.500 C 405.389 386.198, 405.225 388.501, 403.115 391.107 C 401.425 393.194, 401.046 393.283, 399.458 391.968 C 397.787 390.583, 397.723 390.839, 398.326 396.500 C 398.677 399.800, 399.261 409.025, 399.624 417 C 400.461 435.387, 400.794 436.380, 405.837 435.528 C 411.879 434.507, 414.896 439.363, 410.411 442.891 C 407.308 445.332, 407.371 445.920, 410.713 445.688 C 413.055 445.526, 413.801 446.235, 416.173 450.877 C 422.392 463.050, 424.488 462.875, 423.642 450.250 C 422.709 436.331, 421.239 431, 418.334 431 C 415.035 431, 412.720 427.008, 413.527 422.709 C 413.947 420.471, 413.449 416.652, 412.116 411.876 C 410.983 407.819, 409.774 401.800, 409.428 398.500 C 408.095 385.787, 403.616 363, 402.450 363 C 402.189 363, 402.249 364.913, 402.581 367.250 M 251.068 368.908 C 253.248 372.785, 253.344 372.834, 255.555 371.185 C 256.896 370.185, 257.344 369.332, 256.657 369.088 C 256.021 368.861, 254.002 367.836, 252.171 366.810 L 248.841 364.945 251.068 368.908 M 303.118 374.864 L 299.736 376.488 300.284 386.424 C 300.873 397.113, 299.431 401.851, 293.313 409.327 C 290.136 413.210, 290.408 415.541, 294.452 419.092 C 296.351 420.759, 298.184 423.006, 298.527 424.084 C 299.042 425.707, 299.567 425.222, 301.570 421.272 C 304.483 415.533, 304.464 415.909, 302.089 410.695 C 300.554 407.326, 300.348 405.612, 301.045 401.999 C 301.522 399.525, 301.932 395.423, 301.956 392.885 C 301.984 389.975, 302.684 387.388, 303.850 385.885 C 304.962 384.452, 305.547 382.402, 305.316 380.749 C 305.104 379.235, 305.433 377.059, 306.047 375.913 C 307.545 373.113, 307.097 372.953, 303.118 374.864 M 399.070 377.583 C 399.109 379.738, 399.543 382.400, 400.035 383.500 C 400.619 384.806, 400.721 383.592, 400.329 380 C 399.608 373.394, 398.973 372.174, 399.070 377.583 M 429.013 376.128 C 429.020 376.882, 430.151 379.750, 431.526 382.500 L 434.026 387.500 433.524 383.500 C 433.248 381.300, 433.017 378.637, 433.011 377.583 C 433.005 376.529, 432.704 375.963, 432.342 376.325 C 431.980 376.687, 431.080 376.481, 430.342 375.869 C 429.330 375.029, 429.003 375.093, 429.013 376.128 M 383.660 376.750 C 383.232 377.438, 380.979 378, 378.654 378 C 374.668 378, 374.412 378.173, 374.196 381.017 C 374.064 382.739, 374.806 385.208, 375.924 386.767 C 377.002 388.270, 378.094 390.958, 378.353 392.740 C 378.644 394.749, 379.995 396.966, 381.911 398.579 C 383.751 400.127, 385 402.129, 385 403.530 C 385 407.459, 386.750 407.238, 387.276 403.242 C 388.099 396.995, 385.034 374.541, 383.660 376.750 M 361.382 380.750 C 357.919 388.938, 357.494 389.497, 354.661 389.602 C 351.077 389.733, 349.139 391.539, 350.800 393.200 C 354.075 396.475, 349.782 402.133, 345.501 400.183 C 342.566 398.845, 337.224 399.646, 334.746 401.796 C 333.331 403.024, 332.501 403.094, 330.449 402.159 C 327.026 400.599, 327.005 400.609, 326.965 403.750 C 326.945 405.262, 326.286 407.625, 325.500 409 C 323.515 412.472, 323.657 413.620, 325.829 411.655 C 328.213 409.497, 329.299 409.568, 331.521 412.024 C 332.925 413.575, 333.078 414.322, 332.176 415.224 C 330.364 417.036, 330.779 419.811, 333.043 421.023 C 334.732 421.927, 335.413 421.717, 336.980 419.808 C 338.536 417.913, 339.199 417.704, 340.687 418.640 C 343.270 420.265, 342.583 425.782, 339.383 429.122 C 337.764 430.812, 337.230 432.024, 337.918 432.449 C 339.738 433.574, 339.124 436.799, 336.777 438.443 C 334.940 439.731, 334.855 440, 336.287 440 C 337.239 440, 339.431 441.350, 341.157 443 C 342.884 444.650, 345.150 446, 346.194 446 C 347.237 446, 349.230 447.139, 350.622 448.531 C 352.672 450.582, 353.774 450.945, 356.427 450.448 C 359.836 449.808, 361.985 451.742, 367.321 460.250 C 368.270 461.762, 369.632 463, 370.349 463 C 372.517 463, 376 467.459, 376 470.235 C 376 472.307, 376.604 472.974, 378.944 473.488 C 380.564 473.843, 383.432 475.842, 385.318 477.930 C 388.745 481.724, 391.920 484.298, 390.663 482.264 C 390.308 481.689, 390.037 472.057, 390.062 460.859 C 390.128 430.956, 390.106 430.224, 388.852 421.325 L 387.700 413.149 385.600 416.231 C 381.951 421.585, 380.306 421.966, 376.943 418.234 C 375.324 416.438, 373.993 413.963, 373.985 412.734 C 373.976 411.505, 373.639 410.007, 373.235 409.404 C 372.271 407.965, 363 406.711, 363 408.019 C 363 408.559, 364.280 409, 365.845 409 C 369.226 409, 371.988 411.713, 372.032 415.079 C 372.049 416.410, 372.724 418.374, 373.532 419.441 C 374.339 420.509, 375 422.164, 375 423.119 C 375 425.174, 370.459 429, 368.020 429 C 367.080 429, 365.495 429.900, 364.500 431 C 361.053 434.809, 356.095 431.449, 357.550 426.290 C 357.983 424.756, 358.374 423.200, 358.418 422.833 C 358.463 422.467, 358.837 421.829, 359.250 421.417 C 360.837 419.829, 359.877 419.075, 357.002 419.650 C 350.981 420.854, 350.080 417.525, 354.746 411.314 C 356.737 408.664, 356.948 407.770, 355.999 405.997 C 355.078 404.278, 355.210 403.372, 356.679 401.308 C 357.681 399.901, 359.228 397.657, 360.118 396.322 C 361.009 394.986, 362.659 393.035, 363.786 391.984 C 365.592 390.303, 365.704 389.644, 364.727 386.462 C 363.917 383.824, 363.916 382.060, 364.722 379.925 C 366.450 375.348, 363.341 376.116, 361.382 380.750 M 368.394 380.566 C 368.029 382.022, 368.200 384.746, 368.775 386.619 C 369.725 389.715, 369.533 390.388, 366.660 394.005 C 359.717 402.748, 358.792 404.125, 359.428 404.762 C 359.793 405.126, 360.890 404.925, 361.867 404.315 C 366.983 401.120, 378 406.365, 378 411.995 C 378 417.517, 381.076 418.645, 383.062 413.851 C 384.185 411.139, 384.132 410.296, 382.683 407.770 C 381.757 406.157, 381 404.193, 381 403.405 C 381 402.617, 379.626 400.741, 377.948 399.236 C 376.045 397.530, 374.695 395.182, 374.362 393 C 374.069 391.075, 372.912 388.513, 371.793 387.306 C 370.354 385.756, 369.890 384.202, 370.212 382.012 C 370.779 378.147, 369.297 376.968, 368.394 380.566 M 452.313 385 C 452.676 386.375, 452.979 388.118, 452.986 388.872 C 452.997 389.961, 453.302 389.994, 454.456 389.036 C 456.487 387.351, 457.855 388.496, 460.118 393.775 C 461.474 396.938, 462.389 398.011, 463.114 397.286 C 463.838 396.562, 463.369 394.688, 461.578 391.155 C 460.160 388.356, 459 385.377, 459 384.533 C 459 382.711, 457.846 382.554, 456.242 384.158 C 455.366 385.034, 454.669 384.974, 453.369 383.908 C 451.812 382.631, 451.714 382.732, 452.313 385 M 279.274 385.126 C 278.654 385.746, 273.424 388.784, 267.652 391.877 C 256.653 397.770, 246.393 406.222, 247.703 408.310 C 250.342 412.517, 248.423 420.986, 243.509 426.814 L 240.715 430.128 236.836 426.340 C 234.703 424.257, 233.178 421.978, 233.447 421.276 C 233.717 420.574, 233.501 420, 232.969 420 C 231.573 420, 231.833 422.196, 233.489 424.383 C 234.724 426.013, 234.721 426.638, 233.472 429.055 C 229.565 436.609, 228.820 440.748, 230.717 444.364 L 232.500 447.765 238.850 443.883 C 242.343 441.747, 246.364 440, 247.786 440 C 249.208 440, 251.300 439.152, 252.436 438.116 C 253.571 437.080, 257.875 435.264, 262 434.081 C 269.426 431.950, 274.224 430.405, 281 427.960 C 282.925 427.265, 285.137 426.526, 285.915 426.316 C 286.922 426.046, 286.381 424.957, 284.042 422.543 L 280.753 419.150 282.072 412.325 C 282.958 407.733, 284.308 404.362, 286.195 402.022 C 288.926 398.636, 289.874 393.697, 288.214 391.500 C 285.324 387.674, 280.305 384.095, 279.274 385.126 M 418.785 403.500 C 419.035 409.550, 419.664 415.175, 420.184 416 C 421.326 417.813, 420.452 400.009, 419.178 395.500 C 418.643 393.609, 418.498 396.565, 418.785 403.500 M 426.784 395.981 C 427.030 397.655, 427.694 399.311, 428.261 399.661 C 428.936 400.078, 429.044 399.298, 428.575 397.399 C 427.574 393.348, 426.243 392.294, 426.784 395.981 M 472.400 399.065 C 473.756 401.504, 475.374 405.750, 475.995 408.500 C 476.615 411.250, 477.586 415.525, 478.151 418 C 479.440 423.650, 483.140 434.194, 483.653 433.681 C 483.864 433.469, 483.134 430.417, 482.031 426.898 C 480.928 423.379, 480.020 419.284, 480.013 417.799 C 479.980 410.942, 475.897 400.027, 472.070 396.563 C 470.080 394.762, 470.102 394.933, 472.400 399.065 M 454.981 397.523 C 454.033 398.665, 453.407 398.753, 452.367 397.890 C 451.238 396.953, 451 397.755, 451 402.500 C 451 407.409, 451.211 408.070, 452.452 407.040 C 453.251 406.377, 454.826 406.127, 455.952 406.485 C 457.830 407.081, 458 406.719, 458 402.126 C 458 396.723, 456.960 395.138, 454.981 397.523 M 464.629 408.688 C 464.230 409.892, 462.351 412.241, 460.452 413.908 C 457.189 416.773, 457 417.290, 457 423.362 C 457 426.895, 457.644 433.097, 458.431 437.143 C 459.219 441.189, 460.139 446.188, 460.477 448.250 C 461.211 452.734, 463.392 453.157, 468.739 449.852 C 471.922 447.885, 472.164 447.402, 471.621 444.102 C 471.295 442.121, 470.284 434.650, 469.374 427.500 C 467.391 411.921, 465.734 405.351, 464.629 408.688 M 357.750 412.470 C 355.447 415.637, 355.541 416.153, 358.294 415.462 C 361.256 414.719, 364.596 418.107, 363.470 420.713 C 363.045 421.696, 362.563 422.950, 362.399 423.500 C 362.235 424.050, 361.800 425.512, 361.434 426.750 C 360.607 429.538, 362.094 429.659, 364.500 427 C 365.495 425.900, 367.154 425, 368.186 425 C 370.834 425, 371.505 422.420, 369.610 419.527 C 368.724 418.176, 368 416.155, 368 415.035 C 368 413.559, 367.347 413, 365.622 413 C 364.315 413, 362.685 412.325, 362 411.500 C 360.346 409.507, 359.816 409.628, 357.750 412.470 M 240.750 416.844 C 236.441 421.626, 236.328 422.082, 238.886 424.397 C 240.694 426.033, 240.862 425.917, 242.960 421.584 C 244.163 419.098, 245.002 416.078, 244.824 414.874 C 244.529 412.876, 244.169 413.050, 240.750 416.844 M 443.017 414.595 C 443.051 418.286, 445.879 429.866, 447.524 433.046 C 449.739 437.329, 451.309 448.554, 450.028 450.948 C 449.269 452.366, 449.440 452.882, 450.788 453.234 C 453.415 453.921, 453.539 445.374, 451.051 434.997 C 449.931 430.324, 449.011 423.598, 449.007 420.050 C 449.002 415.075, 448.729 413.871, 447.814 414.786 C 446.899 415.701, 446.213 415.597, 444.814 414.331 C 443.122 412.801, 443.001 412.819, 443.017 414.595 M 436.212 424 C 436.130 433.724, 436.632 435.409, 439.705 435.730 L 441.909 435.960 439.773 432.340 C 438.517 430.211, 437.359 425.998, 436.961 422.110 L 436.284 415.500 436.212 424 M 417 424.887 C 417 426.218, 417.882 426.903, 420 427.213 C 422.637 427.600, 423 427.357, 423 425.204 C 423 423.209, 422.738 422.972, 421.589 423.926 C 420.624 424.727, 419.973 424.765, 419.530 424.049 C 418.483 422.354, 417 422.845, 417 424.887 M 350.529 433.554 C 349.444 434.374, 348.015 434.836, 347.352 434.582 C 345.326 433.804, 343.534 436.733, 344.973 438.468 C 345.644 439.275, 346.486 439.877, 346.846 439.804 C 347.206 439.731, 348.743 440.021, 350.263 440.448 C 354.908 441.752, 358.159 436.559, 354.800 433.200 C 353.294 431.694, 352.952 431.722, 350.529 433.554 M 403.853 439.706 C 401.654 440.044, 401.125 440.738, 400.728 443.807 C 400.095 448.709, 400.837 462.386, 401.891 465.235 C 402.385 466.568, 402.307 468.427, 401.702 469.754 C 400.402 472.607, 401.037 473.209, 405.587 473.441 C 407.604 473.543, 409.760 474.274, 410.377 475.064 C 411.204 476.122, 413.249 476.413, 418.141 476.169 C 425.451 475.806, 426 475.131, 426 466.514 C 426 463.656, 425.725 463.330, 423.651 463.726 C 421.718 464.096, 420.476 463.077, 416.651 457.989 C 414.093 454.586, 412 451.183, 412 450.426 C 412 449.431, 411.171 449.216, 409.002 449.650 C 403.477 450.755, 401.720 446.373, 406.100 442.410 C 408.009 440.682, 408.648 438.870, 407.250 439.150 C 406.837 439.232, 405.309 439.483, 403.853 439.706 M 481.647 444.750 C 481.378 445.712, 480.847 447.625, 480.467 449 C 480.003 450.676, 480.107 451.171, 480.782 450.500 C 481.882 449.408, 483.475 443, 482.647 443 C 482.365 443, 481.915 443.788, 481.647 444.750 M 433.079 453.372 C 433.011 456.719, 433.205 457.075, 434.512 455.990 C 435.443 455.217, 435.687 454.305, 435.147 453.617 C 434.664 453.003, 434.019 451.825, 433.713 451 C 433.408 450.175, 433.122 451.243, 433.079 453.372 M 435.521 460.250 C 435.291 460.938, 434.901 463.975, 434.654 467 C 434.012 474.833, 433.046 478.161, 430.622 480.886 L 428.500 483.271 431 481.980 C 439.746 477.461, 443.434 470.673, 440.365 464.739 C 439.535 463.133, 439.099 461.185, 439.396 460.410 C 439.751 459.486, 439.247 459, 437.937 459 C 436.837 459, 435.750 459.563, 435.521 460.250 M 304.004 463.500 C 303.254 465.700, 302.711 468.452, 302.798 469.615 C 303.021 472.617, 299.711 475.400, 297.346 474.200 C 293.710 472.355, 285.767 470.026, 284.913 470.554 C 284.433 470.850, 283.115 470.597, 281.983 469.991 C 279.142 468.470, 276.319 469.592, 275.581 472.535 C 275.234 473.914, 273.210 476.105, 270.981 477.512 C 268.791 478.894, 267 480.408, 267 480.875 C 267 481.343, 265.650 483.424, 264 485.500 C 262.350 487.576, 261 490.385, 261 491.741 C 261 493.097, 259.818 498, 258.372 502.635 C 255.077 513.206, 250.158 518.264, 243.500 517.931 C 237.081 517.611, 236.348 517.795, 238.260 519.250 C 242.049 522.132, 246.079 531.990, 245.053 535.866 C 244.525 537.865, 243.786 545.137, 243.412 552.028 C 242.739 564.441, 242.760 564.619, 245.747 571.528 C 247.405 575.362, 249.284 580.754, 249.923 583.509 C 251.452 590.104, 251.845 590.587, 256.251 591.283 L 260.002 591.875 259.362 582.113 C 258.847 574.247, 259.061 571.334, 260.464 567.107 C 262.887 559.814, 262.352 540.143, 259.593 535 C 256.168 528.618, 256 528.061, 256 523.079 C 256 515.985, 257.140 513.791, 264.612 506.500 C 270.831 500.432, 274.104 498.741, 275.441 500.905 C 275.748 501.402, 278.574 503.262, 281.719 505.037 L 287.438 508.264 291.936 505.882 C 294.409 504.572, 297.744 502.398, 299.347 501.051 L 302.261 498.602 304.448 501.051 C 305.650 502.398, 307.910 504.175, 309.468 505 C 313.799 507.292, 314.706 509.364, 313.068 513.225 C 312.304 515.026, 311.762 518.590, 311.864 521.144 C 312.005 524.695, 311.503 526.461, 309.731 528.644 C 307.537 531.349, 305.759 533.853, 301.755 539.875 C 299.679 542.999, 299.592 546.525, 301.190 562.750 C 301.950 570.458, 302.815 575, 303.524 575 C 305.073 575, 309 579.315, 309 581.017 C 309 581.780, 307.700 583.776, 306.110 585.452 C 304.521 587.129, 302.906 589.544, 302.521 590.820 C 301.875 592.959, 302.081 593.115, 305.152 592.820 C 307.526 592.592, 308.591 591.934, 308.857 590.532 C 309.062 589.450, 310.304 587.157, 311.615 585.438 C 312.927 583.718, 314.003 581.454, 314.006 580.406 C 314.010 579.358, 314.651 577.276, 315.431 575.781 C 316.545 573.646, 316.608 572.421, 315.724 570.081 C 314.767 567.545, 314.890 566.779, 316.550 564.944 C 318.240 563.076, 318.508 561.236, 318.559 551.144 C 318.591 544.740, 318.966 538.030, 319.392 536.233 C 320.037 533.511, 319.658 532.199, 317.119 528.365 C 314.247 524.030, 314.155 523.600, 315.535 520.932 C 316.341 519.374, 317 516.794, 317 515.199 C 317 513.604, 317.505 510.849, 318.123 509.078 C 320.018 503.642, 315.071 481.562, 309.907 472.409 C 308.327 469.608, 306.659 465.558, 306.201 463.409 L 305.367 459.500 304.004 463.500 M 400.043 477.081 C 400.758 478.416, 402.143 479, 404.594 479 C 406.726 479, 407.870 478.599, 407.490 477.984 C 407.144 477.425, 406.437 477.230, 405.918 477.551 C 405.399 477.871, 403.634 477.465, 401.995 476.648 C 399.153 475.230, 399.063 475.250, 400.043 477.081 M 199.344 512.162 C 195.527 518.619, 194.231 522.423, 196.055 521.815 C 196.751 521.583, 198.089 519.960, 199.028 518.208 C 199.968 516.456, 201.278 514.369, 201.941 513.572 C 202.603 512.774, 202.999 510.929, 202.822 509.473 C 202.524 507.023, 202.264 507.224, 199.344 512.162 M 389.701 517.778 C 387.805 519.873, 389.790 529.955, 392.749 533.258 C 396.563 537.514, 399.514 529.514, 396.638 522.718 C 394.416 517.468, 391.720 515.547, 389.701 517.778 M 371.784 530.750 C 367.832 535.284, 369.252 547.526, 373.337 544.135 C 375.591 542.265, 377.550 532.367, 376.029 530.535 C 374.394 528.565, 373.656 528.602, 371.784 530.750 M 186.223 538.750 C 182.347 547.435, 182.395 548.973, 186.380 543.810 C 189.666 539.553, 191.245 534, 189.171 534 C 188.715 534, 187.388 536.138, 186.223 538.750 M 380.129 538.563 C 378.958 540.052, 378 542.082, 378 543.076 C 378 544.069, 377.550 545.160, 377 545.500 C 376.450 545.840, 376 547.656, 376 549.536 C 376 553.610, 379.980 557.091, 382.370 555.108 C 383.393 554.259, 384.436 554.345, 386.575 555.455 C 391.685 558.105, 395.313 552.403, 391 548.500 C 389.900 547.505, 389 545.723, 389 544.541 C 389 543.359, 387.483 540.922, 385.629 539.125 L 382.257 535.857 380.129 538.563 M 382 542.727 C 382 543.912, 381.550 545.160, 381 545.500 C 380.450 545.840, 380.036 547.329, 380.079 548.809 C 380.124 550.351, 380.392 550.859, 380.706 550 C 381.008 549.175, 382.184 547.478, 383.321 546.229 C 385.263 544.096, 385.285 543.857, 383.694 542.265 C 382.102 540.674, 382 540.701, 382 542.727 M 341.121 545.354 C 339.854 546.881, 346.042 556, 348.346 556 C 352.603 556, 352.860 552.049, 348.896 547.535 C 345.638 543.824, 343.004 543.085, 341.121 545.354 M 348.452 560.433 C 346.517 563.387, 347.196 564.905, 352.947 570.478 C 357.626 575.013, 360.265 574.625, 360.800 569.323 C 361.046 566.888, 360.278 565.589, 356.573 562.174 C 351.305 557.318, 350.593 557.166, 348.452 560.433 M 351 562.925 C 351 563.499, 352.337 565.438, 353.971 567.234 C 356.625 570.152, 356.944 570.277, 356.971 568.405 C 356.998 566.458, 355.240 564.294, 352.250 562.593 C 351.563 562.202, 351 562.351, 351 562.925 M 232.525 569.972 C 231.095 571.552, 230.865 572.944, 231.370 576.972 C 231.717 579.738, 232.277 584.192, 232.615 586.871 C 233.202 591.524, 233.067 591.891, 229.594 595.051 C 224.848 599.370, 226.369 601.481, 231.440 597.613 C 236.310 593.899, 237.349 591.569, 236.575 586.104 C 234.929 574.476, 234.785 572, 235.754 572 C 237.007 572, 239 579.658, 239 584.475 C 239 591.050, 245.641 601.759, 248.157 599.243 C 249.112 598.288, 248.918 597.540, 247.253 595.763 C 244.491 592.814, 243.001 588.765, 242.994 584.185 C 242.986 578.897, 241.138 572.857, 238.730 570.250 C 236.176 567.485, 234.831 567.425, 232.525 569.972 M 342.952 579.253 C 339.055 581.880, 338.242 584.215, 340.050 587.593 C 341.145 589.639, 340.963 590.360, 338.560 593.510 C 335.960 596.919, 335.694 600, 338 600 C 338.585 600, 339.353 599.212, 339.708 598.250 C 340.063 597.288, 341.398 595.108, 342.676 593.406 C 345.144 590.119, 345.643 587.516, 344 586.500 C 342.401 585.512, 342.842 583.155, 344.826 582.093 C 346.810 581.031, 354.167 583.001, 354.750 584.750 C 354.926 585.278, 353.479 586.923, 351.535 588.406 C 347.202 591.711, 347.073 594.042, 351.040 597.381 L 354.081 599.939 359.544 597.523 C 363.999 595.553, 365.545 595.294, 367.920 596.122 C 371.315 597.306, 374.839 595.837, 380.475 590.888 C 382.777 588.866, 385.437 587.628, 388.239 587.275 C 390.582 586.979, 393.175 586.190, 394 585.521 C 397.495 582.687, 398.005 582.845, 399.942 587.366 C 402.023 592.219, 404.335 594, 408.557 594 C 410.823 594, 411.051 594.234, 410.011 595.487 C 408.704 597.062, 409.280 600, 410.895 600 C 411.422 600, 412.564 598.576, 413.432 596.835 C 415.458 592.775, 413.577 590.259, 408.176 589.804 C 405.049 589.541, 404.437 589.057, 403.624 586.206 C 402.252 581.391, 398.130 578.696, 394.937 580.526 C 391.265 582.629, 390.807 582.793, 386.690 583.479 C 384.450 583.852, 381.360 585.472, 379.190 587.412 C 373.642 592.373, 371.369 593.324, 367.933 592.126 C 365.559 591.299, 364.018 591.540, 359.754 593.408 C 356.864 594.673, 353.938 595.512, 353.250 595.271 C 351.229 594.563, 351.811 592.354, 354.479 590.606 C 361.151 586.234, 360.515 581.336, 353 579.208 C 351.075 578.663, 348.800 577.929, 347.945 577.576 C 347.063 577.213, 344.903 577.939, 342.952 579.253" stroke="none" fill="#1A1A1A" fill-rule="evenodd"/>
</svg>