<svg xmlns="http://www.w3.org/2000/svg" viewBox="0 0 507 600" version="1.1" preserveAspectRatio="xMidYMid meet">
	<path d="M 303.108 67.082 C 294.825 68.708, 286.170 73.629, 278.485 81.080 C 272.100 87.271, 270.159 88.521, 263.170 90.941 C 258.768 92.466, 253.216 94.854, 250.833 96.249 C 248.450 97.644, 243.350 99.567, 239.500 100.522 C 231.472 102.512, 220.608 106.655, 211.941 111.030 C 205.512 114.275, 188.858 128.966, 185.567 134.294 C 184.478 136.057, 181.479 139.898, 178.902 142.828 C 171.642 151.084, 162.669 173.369, 164.590 178.374 C 165.179 179.909, 162.364 188.986, 159.123 196 C 156.731 201.177, 156.457 207.648, 158.110 219.928 C 159.076 227.107, 158.988 228.905, 157.432 233.837 C 151.742 251.869, 158.436 299.632, 170 323.500 C 170.533 324.600, 172.369 329.550, 174.081 334.500 C 178.022 345.895, 179.835 348.824, 185.432 352.844 C 196.963 361.124, 208.404 363.909, 220.587 361.398 C 235.662 358.292, 233.991 357.815, 238.250 366.439 C 243.009 376.077, 242.971 376.740, 237.250 384.028 C 226.884 397.232, 224.788 401.742, 222.912 414.872 C 222.179 420.010, 220.669 424.558, 217.932 429.872 C 215.772 434.068, 214.003 438.137, 214.002 438.915 C 214.001 439.693, 212.206 443.598, 210.014 447.592 C 203.350 459.734, 202.027 464.113, 201.166 476.878 L 200.378 488.566 189.074 511.533 C 182.857 524.165, 176.216 536.843, 174.316 539.707 C 172.417 542.571, 170.406 546.621, 169.848 548.707 C 169.291 550.793, 167.769 554.075, 166.467 556 C 165.166 557.925, 162.687 563.550, 160.959 568.500 C 159.231 573.450, 155.809 581.269, 153.355 585.876 C 148.160 595.626, 147.875 599.346, 152.297 599.677 C 155.088 599.887, 155.647 599.227, 157.439 593.614 C 157.991 591.886, 158.188 591.860, 159.786 593.306 C 160.745 594.174, 163.469 595.320, 165.839 595.852 C 168.209 596.385, 170.722 597.605, 171.423 598.563 C 172.762 600.394, 175 599.789, 175 597.596 C 175 595.482, 171.657 593.105, 167.455 592.232 C 162.292 591.160, 162.153 589.743, 166.338 580.840 C 168.235 576.803, 170.105 571.925, 170.493 570 C 170.880 568.075, 172.341 564.475, 173.739 562 C 177.703 554.982, 181.596 546.847, 182.887 542.888 C 183.534 540.901, 185.512 536.850, 187.282 533.884 C 189.052 530.919, 191.597 525.794, 192.937 522.496 C 196.024 514.901, 206.234 496.445, 208.944 493.560 C 210.075 492.356, 211 490.892, 211 490.306 C 211 489.342, 215.811 478.076, 216.646 477.086 C 216.838 476.858, 218.746 476.741, 220.886 476.824 C 224.362 476.961, 225.171 476.497, 228.456 472.488 C 230.479 470.020, 232.608 468, 233.187 468 C 234.299 468, 240.337 464.394, 247.128 459.674 C 250.917 457.040, 251.149 456.607, 250.533 453.323 C 250.037 450.679, 250.314 449.310, 251.644 447.841 C 253.906 445.341, 252.451 442.637, 248.598 442.179 C 245.481 441.808, 236.706 446.993, 234.340 450.604 C 233.513 451.866, 231.314 453.797, 229.453 454.895 L 226.070 456.891 225.394 453.286 C 225.007 451.221, 225.173 448.952, 225.784 447.974 C 226.569 446.717, 226.470 445.531, 225.406 443.482 C 223.733 440.257, 224.180 438.362, 228.129 431.944 C 229.708 429.378, 231 425.896, 231 424.207 C 231 422.160, 231.584 420.949, 232.750 420.577 C 233.713 420.270, 238.775 415.673, 244 410.362 C 253.842 400.359, 258.936 396.565, 270 391.002 C 273.575 389.205, 278.372 386.450, 280.659 384.881 L 284.819 382.028 287.875 384.883 C 293.583 390.215, 293.811 397.156, 288.471 403 C 286.082 405.614, 284.015 411.672, 284.006 416.089 C 284.002 417.831, 285.309 419.890, 288 422.380 C 292.472 426.517, 292.850 427.595, 290.132 428.458 C 283.779 430.474, 284.224 435.471, 290.850 436.531 C 298.205 437.708, 299.096 438.110, 300.885 441.051 C 302.272 443.332, 302.841 446.926, 303.262 456.079 C 303.727 466.173, 304.221 468.945, 306.331 473.304 C 307.714 476.162, 309.077 480.795, 309.358 483.599 C 309.854 488.544, 309.798 488.684, 307.479 488.241 C 306.164 487.989, 304.383 486.707, 303.521 485.392 C 300.511 480.797, 292.412 484.540, 293.235 490.145 C 293.516 492.061, 293.217 493, 292.327 493 C 291.597 493, 291 492.090, 291 490.978 C 291 489.865, 289.111 486.906, 286.803 484.402 L 282.606 479.849 276.565 480.550 C 269.623 481.356, 260 488.230, 260 492.384 C 260 496.001, 255.073 510.286, 252.466 514.229 C 251.110 516.279, 250 518.362, 250 518.856 C 250 521.520, 247.241 521.886, 245.016 519.517 C 241.879 516.178, 236.703 514.632, 231.190 515.387 C 221.725 516.685, 219.316 520.758, 217.953 537.763 C 217.436 544.218, 216.557 552.650, 216 556.500 C 215.443 560.350, 214.717 568.403, 214.387 574.396 C 213.715 586.618, 211.851 590, 205.788 590 C 201.936 590, 199.609 591.335, 196.947 595.075 C 193.639 599.720, 196.103 601.720, 199.611 597.238 C 201.585 594.716, 202.899 594, 205.555 594 C 208.208 594, 209.945 593.056, 213.379 589.750 L 217.794 585.500 218.390 574.500 C 218.718 568.450, 219.443 560.350, 220 556.500 C 220.557 552.650, 221.437 544.210, 221.955 537.744 C 223.123 523.167, 224.134 520.797, 229.685 519.626 C 236.015 518.291, 240.727 519.591, 244.505 523.714 C 247.944 527.468, 250.524 527.671, 251.613 524.273 C 252.577 521.265, 254.364 517.655, 256.697 514 C 259.023 510.357, 263.947 496.012, 264.072 492.512 C 264.201 488.917, 269.856 485.323, 276.613 484.542 C 282.455 483.867, 282.820 483.956, 284.863 486.553 C 286.038 488.047, 287 490.031, 287 490.961 C 287 492.942, 291.022 497, 292.986 497 C 295.727 497, 297.931 493.907, 297.331 490.903 C 296.513 486.813, 299.291 485.971, 302.810 489.241 C 306.103 492.303, 310.654 493.532, 312.628 491.893 C 314.678 490.192, 313.495 479.862, 310.522 473.500 C 309.237 470.750, 307.935 466.025, 307.628 463 L 307.071 457.500 308.623 462.448 C 309.477 465.169, 311.425 469.219, 312.951 471.448 C 314.477 473.676, 316.071 476.625, 316.493 478 C 316.914 479.375, 318.270 482.525, 319.505 485 C 323.332 492.666, 324.063 498.493, 322.854 511.662 C 321.892 522.144, 321.967 524.090, 323.513 528.653 C 324.725 532.230, 325.037 534.983, 324.534 537.653 C 323.275 544.339, 323.554 566.297, 324.930 568.870 C 326.521 571.842, 325.568 577.176, 323.037 579.466 C 321.979 580.424, 320.807 582.623, 320.432 584.354 C 320.058 586.084, 318.998 588.625, 318.077 590 C 315.569 593.744, 313.901 598.031, 314.546 599.075 C 315.756 601.032, 317.120 599.802, 319.639 594.481 C 321.076 591.446, 322.645 588.719, 323.126 588.422 C 323.607 588.125, 324 587.096, 324 586.135 C 324 585.175, 325.120 582.871, 326.488 581.016 C 329.602 576.795, 330.577 571.947, 328.930 568.870 C 327.554 566.297, 327.275 544.339, 328.534 537.653 C 329.037 534.983, 328.725 532.230, 327.513 528.653 C 325.967 524.090, 325.892 522.144, 326.854 511.662 C 328.063 498.493, 327.332 492.666, 323.505 485 C 322.270 482.525, 320.914 479.375, 320.493 478 C 320.071 476.625, 318.421 473.595, 316.826 471.266 C 313.516 466.434, 310.018 453.977, 310.703 449.464 C 311.167 446.406, 307.355 436.198, 304.567 433.034 C 302.508 430.697, 301.572 421.448, 303.037 417.911 C 304.136 415.257, 304.034 414.665, 302.122 412.630 C 300.042 410.416, 300.024 410.188, 301.570 405.919 C 302.450 403.489, 303.562 396.816, 304.041 391.091 C 305.482 373.846, 305.229 374.159, 321.457 369.525 C 324.734 368.589, 329.470 366.782, 331.983 365.509 C 338.580 362.166, 349.059 359.231, 360.327 357.572 C 369.317 356.248, 370.615 355.769, 375.577 351.941 C 383.346 345.947, 382.270 342.408, 371.500 338.535 C 364.993 336.195, 364.557 335.710, 366.987 333.512 C 368.967 331.720, 369.081 331.727, 371.260 333.769 C 373.882 336.225, 378.165 338, 381.469 338 C 383.737 338, 383.826 338.325, 384.428 348.750 C 384.769 354.662, 385.226 360.911, 385.443 362.635 C 385.779 365.312, 385.559 365.697, 383.936 365.273 C 382.578 364.918, 381.531 365.656, 380.268 367.862 C 378.006 371.810, 374.099 372.762, 370.028 370.358 C 367.157 368.662, 366.849 368.658, 364.096 370.284 C 362.498 371.228, 360.102 372, 358.770 372 C 355.185 372, 351.734 376.093, 352.557 379.370 C 352.920 380.819, 352.793 382, 352.273 382 C 350.252 382, 342 389.357, 342 391.159 C 342 394.297, 337.171 395.510, 334.535 393.033 C 333.345 391.915, 331.434 391, 330.289 391 C 327.611 391, 322 397.366, 322 400.404 C 322 401.688, 320.907 406.060, 319.570 410.119 C 317.225 417.243, 317.204 417.565, 318.948 419.350 C 320.470 420.908, 321.115 421.009, 323.024 419.987 C 325.132 418.859, 325.248 418.941, 324.660 421.137 C 324.312 422.436, 324.021 424.512, 324.014 425.750 C 324.006 426.988, 323.380 428, 322.622 428 C 318.613 428, 316.164 436.896, 319.369 439.818 C 322.165 442.367, 330.034 445.750, 333.166 445.750 C 334.529 445.750, 337.515 446.931, 339.802 448.375 C 342.089 449.819, 344.389 451, 344.912 451 C 345.436 451, 346.825 452.350, 348 454 C 349.210 455.700, 351.045 457, 352.232 457 C 356.365 457, 361.564 460.149, 363.547 463.853 C 364.922 466.420, 366.284 467.591, 368.149 467.807 C 370.289 468.054, 370.923 468.778, 371.446 471.564 C 372.124 475.179, 374.551 477.310, 379.221 478.393 C 380.718 478.740, 382.455 480.031, 383.081 481.262 C 383.707 482.493, 385.632 484.880, 387.359 486.568 C 389.087 488.255, 391.271 491.075, 392.214 492.835 C 393.322 494.905, 394.923 496.235, 396.748 496.600 C 400.222 497.294, 405.084 505.765, 404.850 510.715 C 404.675 514.413, 406.421 517, 409.093 517 C 415.334 517, 422.723 540.436, 420.285 552.500 C 419.567 556.054, 419.124 556.534, 416.313 556.808 C 411.648 557.262, 410.187 559.485, 412.717 562.279 C 415.402 565.245, 422 577.295, 422 579.233 C 422 581.849, 415.909 582.156, 413.208 579.676 C 411.284 577.910, 410.600 577.769, 408.958 578.794 C 407.222 579.878, 407 579.750, 407 577.663 C 407 574.593, 403.664 571.593, 401.020 572.285 C 399.623 572.650, 398.050 571.896, 396.064 569.910 C 392.971 566.817, 386.020 565.849, 382.072 567.961 C 380.689 568.702, 379.747 568.360, 377.975 566.474 C 375.634 563.981, 373 564.525, 373 567.500 C 373 568.190, 372.325 569.315, 371.500 570 C 369.491 571.667, 369.611 573.306, 371.947 576.139 C 373.882 578.487, 373.912 578.490, 377.175 576.665 L 380.457 574.830 382.729 577.471 C 385.719 580.947, 385.633 581.328, 381.398 583.347 C 379.417 584.292, 377.579 585.896, 377.313 586.911 C 376.829 588.761, 373.112 591, 370.524 591 C 367.607 591, 366 587.938, 366 582.379 C 366 579.366, 365.379 575.686, 364.620 574.200 C 363.862 572.715, 362.932 570.066, 362.555 568.314 C 361.888 565.217, 361.973 565.120, 365.583 564.814 C 370.566 564.393, 372.035 562.021, 369.730 558.120 C 368.778 556.509, 368 554.552, 368 553.770 C 368 551.620, 363.426 547.771, 361.347 548.172 C 360.339 548.366, 358.600 550.457, 357.481 552.819 C 355.384 557.243, 354 557.439, 354 553.311 C 354 550.341, 346.829 542.425, 343.347 541.551 C 341.595 541.111, 340.159 541.451, 338.882 542.606 C 336.499 544.763, 336.516 545.008, 339.338 549.165 C 342.280 553.501, 343.302 559.524, 341.800 563.678 C 340.433 567.458, 342.016 570.201, 345.414 569.939 C 348.948 569.667, 350 569.953, 350 571.186 C 350 571.838, 351.012 573.490, 352.250 574.859 C 354.305 577.130, 354.167 577.098, 350.659 574.485 C 346.418 571.326, 344.804 571.645, 342.032 576.190 C 341.190 577.571, 339.649 579.912, 338.608 581.392 C 337.062 583.590, 336.920 584.530, 337.833 586.533 C 338.776 588.603, 338.559 589.561, 336.439 592.685 C 335.058 594.720, 334.056 597.049, 334.214 597.860 C 334.731 600.525, 336.967 600.218, 338.060 597.331 C 338.650 595.774, 340.065 593.505, 341.204 592.289 C 343.042 590.327, 343.134 589.737, 342.019 587.045 C 340.707 583.878, 340.906 583.327, 345.459 577.569 C 346.964 575.665, 347.017 575.667, 349.243 577.694 C 353.304 581.394, 355.456 582.069, 357.845 580.396 C 361.405 577.902, 360.050 573, 355.800 573 C 354.810 573, 354 572.365, 354 571.589 C 354 569.404, 348.205 564.984, 346.299 565.715 C 344.968 566.226, 344.822 565.978, 345.536 564.424 C 346.818 561.633, 346.223 552.915, 344.625 551.075 C 343.873 550.209, 342.711 548.445, 342.043 547.155 C 340.909 544.966, 340.983 544.855, 343.164 545.486 C 346.605 546.481, 350 550.701, 350 553.983 C 350 556.949, 354.256 561.405, 356.419 560.703 C 357.014 560.511, 358.546 558.474, 359.825 556.177 C 362.279 551.768, 364 550.792, 364 553.809 C 364 554.804, 364.661 556.491, 365.468 557.559 C 367.592 560.366, 367.350 561, 364.155 561 C 358.619 561, 357.009 564.765, 359.665 571.500 C 361.760 576.814, 363.001 589.246, 361.295 587.830 C 359.493 586.335, 354.569 587.765, 351.961 590.541 C 349.738 592.907, 349.725 593.038, 351.491 594.990 C 354.127 597.903, 358.116 597.532, 361.439 594.063 L 364.253 591.127 367.046 593.192 C 370.744 595.926, 374.098 595.038, 379.291 589.948 C 381.506 587.777, 383.852 586, 384.504 586 C 385.942 586, 389 582.768, 389 581.248 C 389 580.646, 387.779 578.703, 386.287 576.929 C 382.126 571.984, 382.413 571, 388.020 571 C 392.280 571, 393.126 571.368, 395.040 574.056 C 396.859 576.610, 397.678 577.010, 400.034 576.492 L 402.853 575.873 402.676 581.904 C 402.459 589.327, 405.361 593.505, 409.109 591.164 C 411.711 589.539, 411.888 589.728, 412.803 595.112 C 413.859 601.332, 416.915 601.679, 420.508 595.987 C 424.278 590.016, 424.451 589.163, 422.371 586.791 C 421.342 585.617, 421.082 584.997, 421.794 585.414 C 423.755 586.563, 426 584.117, 426 580.832 C 426 579.224, 423.977 574.104, 421.504 569.454 C 418.579 563.954, 417.477 561, 418.349 561 C 422.045 561, 425.450 552.180, 425.107 543.500 C 424.719 533.691, 415.800 515.015, 410.551 513.019 C 408.836 512.367, 408.397 511.517, 408.649 509.336 C 409.162 504.899, 402.202 493.592, 398.707 493.184 C 397.169 493.004, 395.498 491.924, 394.840 490.684 C 392.232 485.771, 381.530 474.856, 378.783 474.307 C 376.802 473.910, 375.792 472.972, 375.356 471.122 C 374.593 467.889, 371.194 464.013, 369.076 463.961 C 368.209 463.940, 366.591 462.478, 365.480 460.711 C 363.319 457.275, 356.870 453.213, 353.365 453.081 C 352.191 453.036, 350.515 451.909, 349.642 450.576 C 348.768 449.243, 347.029 447.827, 345.777 447.430 C 344.524 447.033, 341.772 445.618, 339.661 444.285 C 337.549 442.953, 334.849 441.835, 333.661 441.803 C 332.472 441.770, 329.222 440.853, 326.439 439.766 C 321.840 437.969, 321.414 437.537, 321.782 435.035 C 322.063 433.119, 323.133 431.858, 325.299 430.891 C 328.151 429.617, 328.423 429.080, 328.542 424.500 C 328.682 419.113, 326.077 414.650, 323.394 415.679 C 321.550 416.387, 321.628 415.488, 324 408.740 C 325.100 405.611, 326 402.109, 326 400.959 C 326 395.266, 330.484 393.227, 334.567 397.063 C 337.428 399.751, 343.286 397.689, 345.248 393.304 C 346.606 390.267, 350.834 386.082, 352.595 386.032 C 355.072 385.960, 357.199 382.181, 356.515 379.067 C 355.894 376.241, 356.051 376, 358.516 376 C 359.988 376, 362.498 375.228, 364.096 374.284 C 366.846 372.660, 367.159 372.662, 369.986 374.332 C 374.185 376.813, 379.605 375.698, 381.930 371.875 L 383.674 369.007 385.401 379.607 C 386.351 385.436, 387.557 397.022, 388.082 405.353 C 388.606 413.684, 389.295 421.327, 389.613 422.337 C 389.930 423.347, 390.318 435.497, 390.475 449.337 C 390.872 484.308, 390.655 481.746, 393.455 484.545 C 396.158 487.249, 403.650 487.655, 423.210 486.160 C 431.849 485.500, 431.959 485.457, 436.541 480.997 C 443.920 473.814, 445.068 470.240, 442.521 462.377 C 441.560 459.410, 446.808 458.511, 453.409 460.512 C 459.654 462.405, 462.010 462.381, 469.240 460.353 C 483.352 456.393, 490.112 444.086, 486.120 429.623 C 485.039 425.705, 483.374 418.675, 482.420 414 C 480.686 405.499, 478.705 401.032, 474.267 395.616 C 470.115 390.549, 468.173 385.585, 465.575 373.399 C 460.804 351.016, 458.936 343.494, 456.036 335 C 454.440 330.325, 452.719 322.675, 452.211 318 C 451.606 312.433, 450.425 307.775, 448.787 304.500 C 447.413 301.750, 445.287 296.125, 444.063 292 C 442.840 287.875, 441.195 283.496, 440.409 282.269 C 438.772 279.715, 435 261.613, 435 256.311 C 435 253.553, 434.239 252.073, 431.562 249.621 C 428.182 246.525, 428.112 246.295, 427.421 235.986 L 426.719 225.500 422.681 221.620 C 419.066 218.147, 418.602 217.152, 418.256 212.120 C 418.043 209.029, 417.471 205.600, 416.986 204.500 C 416.500 203.400, 415.944 197.550, 415.750 191.500 C 415.449 182.098, 415.026 179.774, 412.843 175.500 C 411.437 172.750, 409.342 167.350, 408.185 163.500 C 405.645 155.040, 400.922 147.301, 397.508 146.003 C 394.689 144.931, 394.133 141.375, 396.250 137.952 C 397.862 135.345, 391.573 122.767, 385.421 116.293 C 382.606 113.329, 381.847 112, 382.971 112 C 385.043 112, 387 110.064, 387 108.016 C 387 103.464, 373.682 89.142, 361 80.055 C 346.879 69.938, 319.644 63.834, 303.108 67.082 M 300.995 75.807 C 297.417 76.757, 292.917 78.511, 290.995 79.704 C 286.558 82.458, 278.855 91.470, 281.606 90.688 C 282.648 90.392, 284.937 89.861, 286.693 89.508 C 288.761 89.092, 289.708 88.404, 289.382 87.553 C 288.845 86.155, 293.431 82, 295.512 82 C 297.838 82, 299.396 84.818, 298 86.500 C 295.502 89.509, 299.168 88.081, 303.132 84.500 C 306.999 81.006, 310.296 80.051, 311.540 82.065 C 311.983 82.781, 312.740 82.658, 313.849 81.690 C 314.757 80.898, 316.817 79.577, 318.426 78.755 C 321.218 77.328, 321.261 77.210, 319.349 76.187 C 315.595 74.178, 307.743 74.015, 300.995 75.807 M 351.924 85.900 C 353.616 88.320, 355 90.852, 355 91.528 C 355 93.744, 357.683 95.269, 358.381 93.449 C 358.794 92.374, 357.327 90.145, 353.922 86.674 L 348.847 81.500 351.924 85.900 M 320.730 85.103 L 317.959 86.180 320.387 88.090 C 321.723 89.141, 323.107 90, 323.464 90 C 323.820 90, 326.899 91.387, 330.306 93.083 C 337.069 96.448, 341.638 96.542, 345.124 93.388 C 347.959 90.822, 347.434 89.571, 342.484 87.099 C 337.280 84.500, 325.146 83.387, 320.730 85.103 M 305.551 86.339 C 303.788 87.628, 303.787 87.704, 305.530 88.373 C 306.601 88.784, 307.673 88.544, 308.155 87.784 C 309.996 84.882, 308.602 84.108, 305.551 86.339 M 359.437 87.834 C 361.832 90.416, 362.339 91.783, 362.183 95.250 C 361.910 101.329, 363.456 103.185, 364.702 98.274 C 365.977 93.254, 365.084 91.047, 360.356 87.534 L 356.500 84.668 359.437 87.834 M 366.623 89.072 C 369.623 92.503, 369.848 93.848, 368.370 99.474 C 367.057 104.471, 368.280 109, 370.942 109 C 372.699 109, 383 119.233, 383 120.978 C 383 121.955, 382.354 123.291, 381.565 123.946 C 380.326 124.974, 380.380 125.721, 381.961 129.409 C 382.968 131.758, 384.326 136.255, 384.980 139.403 C 385.633 142.550, 387.123 147.234, 388.291 149.812 C 390.208 154.046, 390.478 156.972, 391.068 180 C 391.594 200.504, 392.035 206.092, 393.320 208.520 C 395.044 211.780, 397.976 227.991, 398.018 234.500 C 398.032 236.700, 398.963 240.525, 400.087 243 C 402.247 247.756, 403.144 254.187, 405.043 278.500 C 405.687 286.750, 406.600 295.300, 407.071 297.500 C 408.330 303.385, 407.300 256.947, 405.983 248.500 C 404.068 236.211, 402.194 216.437, 402.695 213.813 C 402.962 212.417, 402.252 204.125, 401.117 195.387 C 398.042 171.706, 397.747 164.937, 399.695 162.785 C 400.916 161.436, 401.629 161.277, 402.652 162.126 C 404.487 163.649, 404.353 162.690, 401.950 157.105 C 400.725 154.257, 398.110 150.843, 395.450 148.620 C 390.743 144.686, 389.875 141.792, 392.250 137.952 C 393.956 135.193, 387.290 122.360, 381.010 116.310 C 376.198 111.675, 376.144 108.881, 380.852 108.180 C 383.752 107.749, 383.628 107.287, 378.911 100.973 C 373.629 93.903, 371.185 91.279, 367.500 88.725 L 364.500 86.645 366.623 89.072 M 310.500 91 C 310.160 91.550, 310.246 92.006, 310.691 92.014 C 311.136 92.021, 312.625 92.302, 314 92.639 C 316.439 93.235, 316.451 93.211, 314.500 91.657 C 312.143 89.779, 311.336 89.647, 310.500 91 M 320.230 93.158 C 321.748 95.537, 321.765 95.950, 320.395 97.088 C 319.134 98.134, 317.027 97.796, 308.476 95.179 C 296.393 91.481, 291.470 91.029, 292.908 93.750 C 293.417 94.713, 294.375 96.963, 295.038 98.750 C 295.918 101.124, 296.862 102, 298.540 102 C 299.803 102, 301.661 102.291, 302.668 102.647 C 304.151 103.171, 304.266 103.042, 303.274 101.971 C 302.376 101.002, 302.342 100.293, 303.146 99.324 C 304.692 97.461, 306.225 97.648, 313.102 100.543 C 316.424 101.941, 321.430 103.987, 324.225 105.089 L 329.308 107.092 326.569 103.501 C 323.684 99.719, 324.202 97.102, 327.872 96.919 C 328.768 96.875, 327.865 96.073, 325.867 95.138 C 323.869 94.204, 321.401 92.778, 320.384 91.969 C 318.601 90.553, 318.595 90.595, 320.230 93.158 M 347.386 95.075 L 344.320 98.142 349.910 103.642 C 357.774 111.379, 359.913 112.467, 357.197 107.349 C 356.074 105.232, 354.909 101.727, 354.609 99.560 C 354.309 97.393, 353.252 94.807, 352.258 93.814 C 350.518 92.073, 350.343 92.119, 347.386 95.075 M 283.792 97.828 L 279.084 99.500 282.528 101.750 C 285.476 103.676, 293 104.957, 293 103.534 C 293 102.475, 289.586 96.006, 289.065 96.078 C 288.754 96.120, 286.381 96.908, 283.792 97.828 M 333.541 106.042 C 337.861 110.428, 338.255 111.174, 336.942 112.487 C 335.629 113.799, 334.376 113.505, 326.107 109.940 C 320.965 107.723, 316.611 106.056, 316.432 106.235 C 315.445 107.221, 321.441 113, 323.450 113 C 324.718 113, 326.315 113.675, 327 114.500 C 327.685 115.325, 329.221 116, 330.414 116 C 331.662 116, 334.447 117.898, 336.969 120.469 C 341.235 124.815, 341.394 124.882, 342.776 122.910 C 343.646 121.668, 345.072 120.997, 346.459 121.179 C 347.704 121.342, 349.457 120.865, 350.356 120.120 C 351.743 118.968, 352.379 119.018, 354.562 120.449 L 357.134 122.134 355.513 119.661 C 353.974 117.312, 354.007 117.108, 356.169 115.594 C 357.421 114.717, 357.955 114, 357.357 114 C 356.758 114, 353.781 111.610, 350.740 108.688 C 345.555 103.706, 345.311 103.583, 346.800 106.708 C 350.205 113.846, 343.535 114.510, 337.145 107.669 C 335.850 106.282, 335.046 104.735, 335.358 104.230 C 335.670 103.726, 334.289 102.811, 332.290 102.197 L 328.655 101.081 333.541 106.042 M 253.890 106.515 C 252.455 107.286, 248.405 108.377, 244.890 108.940 C 238.278 109.999, 217.731 116.536, 212.485 119.250 C 209.036 121.034, 196.190 133.630, 187.572 143.677 C 181.771 150.440, 174.169 165.527, 174.049 170.513 C 173.960 174.190, 177.865 174.805, 183.489 172 C 192.667 167.421, 206.366 169.691, 218.161 177.744 C 226.484 183.427, 235.465 186.554, 242.222 186.122 C 246.383 185.856, 247.464 186.247, 251.325 189.410 C 258.229 195.068, 259.831 193.632, 256.010 185.212 C 253.738 180.205, 248.686 177.461, 243.523 178.430 C 241.040 178.896, 239.903 178.526, 238.179 176.690 L 235.989 174.359 238.494 172.005 C 240.147 170.453, 241 168.572, 241 166.481 C 241 162.915, 244.074 159.431, 246.423 160.332 C 247.247 160.648, 248.951 162.481, 250.210 164.406 C 253.483 169.407, 268.098 175.674, 269.870 172.837 C 271.685 169.930, 273.601 170.610, 280.780 176.710 L 287.500 182.419 287.764 179.460 C 288.397 172.367, 289.282 169.748, 292.153 166.479 C 295.949 162.156, 295.473 162.110, 302.576 167.473 C 310.198 173.229, 310.710 173.167, 311.557 166.388 C 312.283 160.581, 316.558 154, 319.604 154 C 321.612 154, 321.359 153.054, 318 148 C 316.355 145.525, 315.007 142.261, 315.004 140.747 C 315 137.688, 308.690 131.175, 304.218 129.613 C 302.822 129.125, 299.389 126.952, 296.589 124.784 C 274.795 107.902, 273.438 107.019, 268.417 106.462 C 265.713 106.162, 261.925 105.736, 260 105.515 C 258.075 105.293, 255.326 105.743, 253.890 106.515 M 301.115 107.859 C 304.001 110.107, 309.516 113, 310.919 113 C 313.429 113, 310.410 109.993, 305.993 108.092 C 299.973 105.503, 297.969 105.406, 301.115 107.859 M 287.500 113.590 C 294.910 119.809, 301.928 124.839, 304.117 125.501 C 305.428 125.897, 307.926 127.574, 309.668 129.227 C 311.411 130.881, 313.877 132.753, 315.149 133.387 C 316.420 134.021, 318.008 135.637, 318.676 136.977 L 319.892 139.415 320.842 136.917 C 322.233 133.257, 324.581 131.712, 327.991 132.212 C 329.646 132.455, 331 132.529, 331 132.377 C 331 132.071, 315.439 123.801, 304.500 118.294 C 298.405 115.224, 286.938 110.930, 285.120 111.036 C 284.779 111.056, 285.850 112.205, 287.500 113.590 M 362.206 113.843 C 361.554 115.224, 361.129 116.421, 361.260 116.503 C 366.830 119.973, 369.332 121.087, 370.525 120.629 C 373.160 119.618, 372.091 117.203, 367.696 114.237 L 363.391 111.332 362.206 113.843 M 316.384 113.812 C 316.817 114.514, 316.649 115.718, 316.010 116.488 C 314.340 118.500, 323.898 123.207, 330.276 123.513 C 333.191 123.653, 335.926 124.469, 337.279 125.600 C 338.501 126.622, 337.949 125.779, 336.054 123.729 C 334.158 121.678, 331.657 120, 330.495 120 C 329.333 120, 327.509 119.339, 326.441 118.532 C 325.374 117.724, 323.773 117.049, 322.885 117.032 C 321.997 117.014, 319.993 115.996, 318.433 114.768 C 316.872 113.541, 315.950 113.111, 316.384 113.812 M 375.026 116.618 C 376.700 119.366, 375.794 121.546, 372.030 123.836 C 369.066 125.638, 369.038 125.725, 370.900 127.410 C 373.007 129.316, 377.250 127.816, 376.355 125.482 C 376.110 124.843, 376.604 123.743, 377.454 123.038 C 379.650 121.215, 379.381 119.700, 376.369 116.924 C 374.042 114.781, 373.887 114.746, 375.026 116.618 M 360.660 121.807 C 361.502 125.029, 358.358 126.643, 355.048 124.687 C 352.539 123.205, 352.089 123.188, 350.972 124.533 C 350.209 125.453, 348.941 125.799, 347.734 125.415 C 345.503 124.707, 345.577 124.896, 350.243 131.786 C 354.853 138.593, 356.614 144.664, 354.618 146.869 C 353.124 148.521, 353.271 148.784, 356.810 150.773 C 358.897 151.946, 361.439 153.827, 362.457 154.953 C 364.875 157.624, 366 157.543, 366 154.699 C 366 152.720, 362.443 146.636, 356.382 138.250 C 353.922 134.847, 356.154 132.609, 361.202 133.416 C 364.931 134.013, 365 133.966, 365 130.841 C 365 129.090, 365.672 126.915, 366.492 126.009 C 367.841 124.518, 367.610 124.149, 364.082 122.166 C 360.492 120.149, 360.219 120.120, 360.660 121.807 M 330.461 127.937 C 330.879 128.613, 333.758 130.768, 336.860 132.725 C 339.962 134.683, 344.483 137.883, 346.908 139.838 L 351.315 143.392 350.583 140.446 C 350.179 138.826, 348.657 135.609, 347.200 133.298 C 344.714 129.356, 344.440 129.197, 342.755 130.721 C 341.090 132.228, 340.750 132.191, 338.080 130.217 C 334.606 127.649, 329.302 126.061, 330.461 127.937 M 369.030 133.128 C 368.989 136.670, 366.695 138.389, 362.998 137.650 C 360.115 137.073, 358.908 138.207, 361.017 139.511 C 363.848 141.260, 370 152.605, 370 156.076 C 370 160.735, 368.024 162.618, 364.893 160.943 C 363.185 160.029, 363.574 160.895, 366.545 164.624 C 368.682 167.306, 370.446 169.575, 370.465 169.667 C 370.484 169.758, 370.667 166.833, 370.871 163.167 C 371.629 149.527, 371.290 134.342, 370.185 132.437 C 369.145 130.645, 369.059 130.697, 369.030 133.128 M 323.750 138.470 C 321.301 141.838, 321.486 142.736, 326.002 149.385 C 328.201 152.622, 330 155.604, 330 156.013 C 330 157.365, 326.769 159.485, 323.113 160.531 C 319.711 161.504, 319.434 161.905, 318.196 167.650 C 317.253 172.021, 316.049 174.537, 313.923 176.574 L 310.963 179.410 305.231 176.455 C 302.079 174.830, 298.710 172.865, 297.744 172.089 C 295.367 170.180, 295.021 170.747, 293.669 178.761 C 291.955 188.922, 289.600 190.975, 284.210 187.005 C 282.719 185.907, 280.150 184.844, 278.500 184.643 C 274.025 184.097, 266.823 181.818, 264.080 180.080 L 261.659 178.547 262.369 182.023 C 264.584 192.873, 264.496 193.704, 260.732 197.468 C 258.789 199.411, 257.562 201, 258.005 201 C 258.448 201, 260.696 202.575, 263 204.500 C 265.304 206.425, 267.849 208, 268.654 208 C 269.460 208, 272.455 210.170, 275.310 212.822 C 278.164 215.475, 282.004 218.685, 283.843 219.957 C 285.682 221.228, 287.995 224.121, 288.983 226.384 C 290.967 230.928, 300.463 242.284, 306.309 247.103 C 308.371 248.803, 310.918 251.880, 311.970 253.941 C 313.932 257.786, 320.220 264, 322.150 264 C 322.744 264, 326.741 267.417, 331.033 271.593 C 339.689 280.018, 341.185 280.358, 345.139 274.805 C 347.245 271.847, 347.269 271.561, 345.744 267.447 C 344.248 263.410, 344.264 263.071, 346.030 261.473 C 347.770 259.899, 348.237 259.893, 352.629 261.389 C 360.096 263.933, 363 263.597, 363 260.188 C 363 258.255, 362.108 256.716, 360.147 255.267 C 357.501 253.311, 357.344 252.824, 357.987 248.583 C 358.803 243.207, 361.336 240, 364.764 240 C 367.022 240, 367.179 239.700, 366.721 236.250 C 366.015 230.931, 369.568 219.077, 372.736 216.180 L 375.273 213.861 373.034 210.833 C 371.403 208.627, 371.095 207.505, 371.898 206.702 C 373.506 205.094, 373.246 199.655, 371.332 194.872 C 369.921 191.345, 369.849 190.014, 370.864 186.219 C 371.986 182.023, 371.865 181.310, 368.994 175.173 C 364.250 165.035, 351.868 150.585, 344.783 146.917 C 342.739 145.859, 340.586 144.094, 339.998 142.995 C 338.808 140.773, 330.062 135.982, 327.283 136.031 C 326.302 136.049, 324.712 137.146, 323.750 138.470 M 378.233 144.666 C 378.265 149.866, 378.610 151.703, 379.493 151.364 C 380.392 151.019, 380.478 149.546, 379.821 145.699 C 378.381 137.256, 378.187 137.130, 378.233 144.666 M 379.750 157.579 C 378.837 158.497, 378.914 166.695, 379.899 173.500 L 380.623 178.500 381.436 170.679 C 382.219 163.138, 381.303 156.016, 379.750 157.579 M 245.003 167.177 C 245.001 169.996, 244.358 171.360, 242.250 173.019 L 239.500 175.183 243.010 174.525 C 247.246 173.731, 251.544 175.215, 255.250 178.751 C 257.781 181.165, 258 181.216, 258 179.387 C 258 178.294, 258.509 176.891, 259.132 176.268 C 259.974 175.426, 259.270 174.735, 256.382 173.565 C 254.247 172.700, 250.814 170.082, 248.753 167.746 L 245.005 163.500 245.003 167.177 M 404.865 193.786 C 406.968 210.511, 407.608 213.571, 409.005 213.571 C 410.521 213.571, 410.506 213.088, 408.828 207.697 C 407.746 204.219, 407 198.780, 407 194.366 C 407 187.133, 404.464 174, 403.067 174 C 402.687 174, 403.496 182.904, 404.865 193.786 M 189 175.586 C 179.518 179.060, 176.678 182.094, 173.324 192.336 C 172.046 196.238, 171 199.523, 171 199.637 C 171 199.751, 172.547 200.356, 174.438 200.980 C 186.366 204.916, 194.432 224.278, 189.089 236.148 C 184.499 246.346, 176.133 249.879, 170.500 244 C 168.919 242.350, 167.260 241, 166.813 241 C 163.169 241, 169.156 292.875, 173.601 299.819 C 173.713 299.995, 174.714 299.571, 175.824 298.878 C 177.399 297.894, 178.675 297.872, 181.621 298.776 C 183.699 299.413, 185.560 299.773, 185.758 299.576 C 186.766 298.567, 182.680 291.970, 178.614 288.042 C 173.310 282.917, 173.110 281.744, 176.426 275.251 C 189.356 249.936, 193.951 236.512, 193.987 223.946 C 194.012 215.373, 201.431 204.343, 206.371 205.537 C 209.456 206.283, 219.123 202.463, 221.750 199.460 C 226.918 193.553, 222.772 187.897, 206.500 178.662 C 201.616 175.890, 192.530 174.293, 189 175.586 M 272.269 176.942 C 270.975 179.013, 272.411 179.961, 277.763 180.570 C 279.865 180.808, 279.805 180.620, 276.907 177.913 C 273.207 174.456, 273.750 174.570, 272.269 176.942 M 408.040 175.007 C 408.018 175.285, 408.500 177.085, 409.111 179.007 C 409.721 180.928, 410.576 187.225, 411.009 193 L 411.797 203.500 411.610 192 C 411.471 183.384, 411.005 179.748, 409.752 177.500 C 408.833 175.850, 408.062 174.728, 408.040 175.007 M 384.320 184 C 384.320 187.575, 384.502 189.037, 384.723 187.250 C 384.945 185.463, 384.945 182.537, 384.723 180.750 C 384.502 178.963, 384.320 180.425, 384.320 184 M 223.893 187.500 C 228.375 192.363, 228.740 193.985, 226.537 199.258 C 224.531 204.057, 210.740 211.005, 206.126 209.540 C 202.981 208.542, 198 216.597, 198 222.680 C 198 225.180, 198.200 225.033, 200.250 221.020 C 205.692 210.371, 221.900 207.015, 230.250 214.808 C 234.546 218.817, 233.248 222.680, 227 224.486 C 222.750 225.714, 220 227.950, 220 230.178 C 220 232.180, 220.111 232.209, 221.829 230.655 C 222.835 229.745, 224.541 229, 225.621 229 C 226.700 229, 229.571 226.975, 232 224.500 C 236.998 219.407, 238.301 219.147, 243.976 222.104 C 251.540 226.047, 252.529 223.231, 248.068 210.457 C 245.582 203.340, 232.992 189.977, 224.643 185.594 L 219.787 183.045 223.893 187.500 M 241.968 191.940 C 242.539 193.007, 245.062 195.357, 247.575 197.161 C 250.087 198.965, 254.586 203.303, 257.571 206.801 C 262.637 212.735, 262.998 213.505, 262.977 218.330 C 262.945 225.385, 258.703 233.362, 254.740 233.817 C 252.127 234.118, 252.061 234.249, 253.490 236.290 C 255.831 239.632, 255.327 241.472, 250.997 245.384 C 246.352 249.580, 245.919 249.673, 243.500 247 C 240.511 243.697, 237.915 244.316, 239.306 248 C 240.938 252.324, 246.023 251.683, 252.356 246.354 C 255.095 244.049, 256.033 243.827, 260.908 244.330 C 271.609 245.434, 274.064 250.269, 269.475 261.201 C 268.020 264.665, 265.491 270.862, 263.855 274.970 C 262.218 279.079, 260.450 282.958, 259.924 283.592 C 259.399 284.225, 258.270 287.097, 257.415 289.974 C 255.698 295.757, 249.195 307.198, 244.413 312.851 C 242.246 315.411, 241.003 318.290, 240.245 322.500 C 237.664 336.838, 236.289 339.765, 230.802 342.602 C 226.508 344.823, 224.260 344.281, 219.478 339.873 C 216.402 337.038, 214.990 334.924, 214.968 333.123 C 214.951 331.680, 214.276 329.626, 213.468 328.559 C 211.291 325.680, 211.677 322.537, 214.640 319.016 C 217.884 315.160, 217.597 314.885, 207 311.690 C 196.507 308.525, 192.657 307.963, 187.378 308.826 C 183.673 309.432, 183.337 309.718, 184.061 311.656 C 185.273 314.902, 190.737 315.821, 192.644 313.099 C 197.221 306.563, 203.939 319.866, 199.490 326.656 C 198.096 328.783, 198.274 328.965, 204.774 332.072 C 211.339 335.209, 218 340.401, 218 342.380 C 218 343.820, 213.925 352.227, 212.311 354.117 C 211.042 355.604, 211.599 355.619, 219.215 354.311 C 234.872 351.622, 235.879 351.581, 238.041 353.537 C 239.285 354.663, 241.811 355.406, 244.767 355.516 C 247.616 355.621, 251.576 356.747, 254.717 358.345 C 261.371 361.731, 264.146 361.682, 273.302 358.016 C 277.401 356.374, 283.060 354.537, 285.877 353.933 C 291.990 352.622, 292.603 351, 286.985 351 C 283.825 351, 282.192 350.287, 279.312 347.647 L 275.654 344.295 277.761 341.335 C 278.920 339.708, 282.005 336.406, 284.617 333.999 C 290.176 328.875, 291.813 324.902, 291.052 318.384 C 290.527 313.885, 290.212 313.477, 284.500 309.899 C 280.507 307.398, 277.260 306.117, 274.792 306.070 C 270.212 305.983, 262.995 299.758, 263.008 295.905 C 263.028 289.448, 265.432 280.274, 269.568 270.874 C 277.118 253.712, 276.810 244.153, 268.630 241.841 C 266.359 241.198, 263.927 240.157, 263.227 239.527 C 261.639 238.099, 261.344 232.104, 262.732 229.471 C 264.512 226.094, 265.307 215.453, 263.974 212.847 C 263.314 211.556, 260.050 207.712, 256.720 204.304 C 251.612 199.078, 250.863 197.870, 251.927 196.588 C 253.750 194.391, 248.672 190.074, 244.215 190.032 C 241.270 190.003, 241.037 190.201, 241.968 191.940 M 247.735 202.110 C 250.035 204.670, 253.814 214.156, 254.682 219.552 C 255.067 221.948, 254.541 223.280, 252.233 225.751 C 249.221 228.975, 249.622 230, 253.897 230 C 256.369 230, 259 223.828, 259 218.027 C 259 212.888, 254.940 206.757, 248.127 201.610 L 245.500 199.624 247.735 202.110 M 167 204.608 C 167 207.657, 167.481 208.745, 169.168 209.513 C 170.361 210.056, 171.823 211.400, 172.418 212.500 C 173.013 213.600, 173.614 214.689, 173.754 214.921 C 173.894 215.152, 175.114 214.302, 176.467 213.031 C 178.882 210.763, 178.976 210.754, 181.713 212.535 C 184.445 214.314, 184.471 214.311, 183.047 212.425 C 179.439 207.643, 177.460 205.979, 174.103 204.903 C 172.121 204.267, 169.713 203.059, 168.750 202.219 C 167.121 200.796, 167 200.961, 167 204.608 M 278.090 202.392 C 276.718 204.045, 287.855 216.253, 291.853 217.479 C 297.864 219.321, 305 217.172, 305 213.519 C 305 212.249, 301.415 208.718, 299 207.610 C 298.175 207.231, 296.375 206.271, 295 205.476 C 293.625 204.680, 291.349 204.023, 289.941 204.015 C 288.534 204.007, 286.509 203.339, 285.441 202.532 C 282.970 200.663, 279.578 200.598, 278.090 202.392 M 286 208.708 C 288.465 211.599, 290.683 213.081, 293.500 213.718 C 297.643 214.654, 301 214.333, 301 213 C 301 212.578, 300.212 211.949, 299.250 211.601 C 298.288 211.253, 296.375 210.307, 295 209.499 C 293.625 208.691, 291.363 208.023, 289.973 208.015 C 288.582 208.007, 286.332 207.236, 284.973 206.302 C 283.022 204.962, 283.239 205.470, 286 208.708 M 390.369 215.460 C 390.726 218.187, 391.410 220.810, 391.887 221.287 C 392.365 221.765, 392.321 219.758, 391.789 216.828 C 390.547 209.973, 389.519 208.984, 390.369 215.460 M 268.321 219.254 C 268.222 223.239, 267.493 228.026, 266.701 229.892 C 264.721 234.557, 265.444 236.291, 270.316 238.555 C 280.579 243.326, 281.544 252.859, 273.586 270.874 C 269.482 280.166, 267.029 289.426, 267.008 295.711 C 266.996 299.061, 270.772 302, 275.088 302 C 283.011 302, 294.610 311.627, 295.170 318.668 C 295.725 325.653, 293.882 329.474, 286.594 336.446 C 282.967 339.916, 280 343.244, 280 343.842 C 280 345.429, 283.417 347, 286.869 347 C 288.520 347, 291.127 347.478, 292.664 348.062 C 294.771 348.863, 297.551 348.713, 303.979 347.448 C 314.247 345.427, 314.716 345.190, 312.081 343.344 C 308.926 341.134, 307.622 338.160, 309.053 336.436 C 309.996 335.300, 309.942 335, 308.797 335 C 308 335, 306.309 333.893, 305.037 332.540 C 299.115 326.236, 308.866 311.024, 315.217 316.660 C 318.562 319.628, 321.179 326.400, 320.089 329.266 C 319.263 331.439, 319.539 331.887, 322.611 333.352 C 327.180 335.530, 327.790 337.513, 324.877 340.711 C 322.742 343.055, 322.704 343.243, 324.500 342.558 C 325.600 342.139, 327.760 341.340, 329.301 340.782 C 331.869 339.853, 331.973 339.627, 330.551 338.056 C 329.698 337.114, 329 335.219, 329 333.846 C 329 332.472, 327.875 330.292, 326.500 329 C 324.628 327.242, 323.999 325.627, 323.996 322.576 C 323.994 320.170, 323.114 317.066, 321.849 315 C 320.670 313.075, 318.913 310.098, 317.945 308.385 L 316.186 305.271 324.662 296.885 C 329.324 292.273, 333.906 286.925, 334.845 285 L 336.552 281.500 332.857 277.713 C 330.610 275.410, 328.902 274.349, 328.498 275.004 C 327.241 277.037, 319.814 281.142, 318.384 280.594 C 315.736 279.578, 315.864 277.270, 318.810 272.950 L 321.740 268.653 315.812 263.166 C 312.552 260.147, 309.190 256.334, 308.341 254.692 C 307.492 253.050, 304.104 249.214, 300.813 246.167 C 294.532 240.351, 286.502 230.532, 285.242 227.125 C 284.504 225.130, 270.585 211.996, 269.217 212.004 C 268.823 212.007, 268.419 215.269, 268.321 219.254 M 161.851 218.598 C 162.102 221.744, 162.506 222.811, 163.096 221.879 C 164.333 219.925, 164.204 217.661, 162.740 215.659 C 161.675 214.202, 161.538 214.656, 161.851 218.598 M 216.500 214.645 C 206.701 217.012, 205.249 217.953, 203.147 223.298 C 202.021 226.159, 200.190 232.775, 199.077 238 C 196.353 250.785, 195.990 251.850, 190.066 264.442 C 186.322 272.400, 185.493 274.863, 187.030 273.473 C 188.191 272.422, 190.652 268.294, 192.497 264.300 C 195.231 258.383, 196.524 256.718, 199.480 255.308 C 204.377 252.973, 206.095 254.226, 208.115 261.602 L 209.731 267.500 209.615 252.861 C 209.512 239.773, 209.702 237.997, 211.405 236.111 C 212.453 234.950, 213.915 234, 214.655 234 C 215.469 234, 216 232.868, 216 231.135 C 216 227.136, 219.228 223.460, 224.511 221.443 C 226.980 220.500, 229 219.103, 229 218.339 C 229 216.043, 220.775 213.612, 216.500 214.645 M 319.447 219.059 C 317.267 221.468, 318.150 223.621, 322.280 225.967 C 326.741 228.500, 331.460 221.860, 327.800 218.200 C 325.931 216.331, 321.503 216.786, 319.447 219.059 M 371.840 226.803 C 370.938 229.936, 370.431 233.963, 370.714 235.752 C 371.381 239.974, 368.937 243.760, 365.272 244.181 C 361.207 244.649, 360.660 251.158, 364.436 254.129 C 367.434 256.486, 367.888 261.288, 365.443 264.777 C 363.573 267.447, 359.236 267.700, 353.010 265.504 C 348.785 264.013, 348.771 264.016, 349.478 266.254 C 351.584 272.926, 351.427 273.409, 345.337 278.972 C 342.127 281.905, 338.678 285.653, 337.673 287.302 C 336.669 288.951, 332.304 293.634, 327.973 297.708 L 320.099 305.115 321.902 308.307 C 322.893 310.063, 324.670 313.075, 325.849 315 C 327.114 317.066, 327.994 320.170, 327.996 322.576 C 327.999 325.627, 328.628 327.242, 330.500 329 C 331.875 330.292, 333 332.395, 333 333.674 C 333 336.428, 332.358 336.375, 343 334.500 C 347.675 333.677, 354.036 333.002, 357.135 333.001 C 362.041 333, 362.982 332.677, 364.408 330.500 C 366.473 327.348, 369.048 327.328, 372.740 330.435 C 374.332 331.774, 376.892 333.186, 378.428 333.571 L 381.222 334.272 380.467 329.886 C 380.053 327.474, 379.614 316.275, 379.493 305 C 379.162 274.301, 376.125 225.833, 374.331 222.627 C 373.711 221.519, 373.034 222.655, 371.840 226.803 M 417.702 228.831 C 421.069 247.462, 421.154 248.380, 419.920 252.784 C 418.331 258.460, 419.197 266.553, 423.046 282 C 424.760 288.875, 427.409 300.514, 428.935 307.865 C 431.384 319.670, 431.780 320.776, 432.329 317.345 C 432.671 315.208, 432.585 312.119, 432.139 310.480 C 431.693 308.841, 431.745 305.967, 432.254 304.093 C 433.346 300.079, 433.080 298.277, 429.730 287 C 428.341 282.325, 426.729 276.025, 426.146 273 C 422.424 253.668, 422.517 255.039, 424.774 252.781 C 426.605 250.950, 426.690 250.454, 425.483 248.602 C 424.708 247.412, 423.813 242.092, 423.420 236.337 C 422.660 225.211, 422.652 225.185, 418.908 222.808 L 416.317 221.161 417.702 228.831 M 388.350 226.500 C 388.656 228.700, 389.214 235, 389.591 240.500 C 389.968 246, 390.498 249.825, 390.768 249 C 391.039 248.175, 391.913 246.750, 392.710 245.833 C 393.813 244.564, 393.902 243.685, 393.080 242.149 C 392.486 241.039, 391.989 238.414, 391.976 236.316 C 391.945 231.322, 390.461 225.047, 388.975 223.628 C 388.073 222.766, 387.925 223.444, 388.350 226.500 M 179.057 225.893 C 178.147 227.593, 178.214 228, 179.406 228 C 181.387 228, 182.473 226.073, 181.206 224.806 C 180.512 224.112, 179.824 224.460, 179.057 225.893 M 168.599 233.488 L 166.145 236.136 169.944 239.568 C 175.355 244.457, 182.781 243.771, 184.225 238.249 C 184.623 236.727, 184.185 236.497, 181.490 236.811 C 178.996 237.103, 177.476 236.479, 174.667 234.013 L 171.053 230.840 168.599 233.488 M 408 233.215 C 408 234.567, 408.672 240.135, 409.494 245.587 C 410.316 251.039, 410.991 257.693, 410.994 260.372 C 410.999 264.590, 411.202 265.078, 412.500 264 C 413.325 263.315, 414.062 263.148, 414.137 263.628 C 414.212 264.107, 414.719 261.575, 415.264 258 C 417.195 245.332, 415.447 229.555, 412.392 232.089 C 411.334 232.967, 410.640 232.946, 409.500 232 C 408.236 230.951, 408 231.142, 408 233.215 M 222.390 234.427 C 221.460 236.849, 222.418 240.464, 224.072 240.779 C 225.641 241.078, 228 237.279, 228 234.453 C 228 232.545, 223.120 232.522, 222.390 234.427 M 240.143 234.857 C 241.215 236.573, 241.123 237.207, 239.551 238.944 C 237.731 240.954, 237.735 241, 239.710 241 C 240.821 241, 242.847 241.878, 244.212 242.952 C 246.486 244.741, 246.877 244.775, 248.903 243.355 C 253.314 240.266, 250.072 236.129, 241.187 233.508 C 239.066 232.882, 238.979 232.994, 240.143 234.857 M 215.802 237.788 C 213.253 238.296, 212.727 244.503, 213.836 261 C 214.543 271.502, 215.425 277.214, 217.035 281.718 C 219.108 287.515, 219.160 288.236, 217.793 292.385 C 216.780 295.464, 216.631 297.377, 217.312 298.593 C 218.565 300.832, 223.190 304.929, 224.500 304.961 C 226.784 305.015, 242 287.153, 242 284.418 C 242 283.728, 243.824 281.264, 246.054 278.943 C 250.370 274.452, 258 259.414, 258 255.401 C 258 252.713, 255.903 252.207, 254.045 254.445 C 251.977 256.938, 243.386 259.241, 238.950 258.492 C 233.211 257.522, 228.819 253.568, 229.083 249.609 C 229.461 243.953, 229.133 242.467, 227.800 243.800 C 225.277 246.323, 218.543 243.224, 217.817 239.205 C 217.629 238.165, 216.808 237.587, 215.802 237.788 M 233.639 247.694 C 232.389 248.945, 233.025 252.796, 234.582 253.393 C 237.445 254.492, 238.336 254.030, 236.785 252.250 C 235.947 251.287, 235.451 249.979, 235.683 249.342 C 236.169 248.009, 234.594 246.739, 233.639 247.694 M 252.445 250.441 C 250.212 252.473, 250.030 252.863, 251.694 252.055 C 252.901 251.469, 254.165 250.542, 254.503 249.995 C 255.355 248.617, 259.347 248.747, 260.800 250.200 C 264.095 253.495, 257.682 270.984, 250.123 279.317 C 248.037 281.618, 246.054 284.263, 245.717 285.196 C 244.045 289.823, 227.143 309, 224.736 309 C 224.241 309, 221.820 307.347, 219.355 305.327 C 214.138 301.053, 211.717 297.060, 213.058 294.941 C 214.621 292.470, 214.101 292.043, 211.250 293.456 C 201.281 298.397, 197.894 299.399, 194.936 298.282 C 193.314 297.670, 192.217 297.543, 192.500 298 C 192.783 298.458, 192.579 299.978, 192.046 301.378 C 191.135 303.776, 191.294 303.959, 194.789 304.524 C 201.813 305.661, 217.747 311.062, 219.372 312.859 C 221.511 315.222, 221.448 315.679, 218.500 319.182 C 215.668 322.548, 215.319 325.718, 217.468 328.559 C 218.276 329.626, 218.951 331.705, 218.968 333.177 C 219.003 336.123, 223.048 340, 226.088 340 C 232.103 340, 233.495 337.599, 236.236 322.500 C 236.998 318.301, 238.252 315.405, 240.413 312.851 C 245.195 307.198, 251.698 295.757, 253.415 289.974 C 254.270 287.097, 255.399 284.225, 255.924 283.592 C 256.450 282.958, 258.217 279.079, 259.852 274.970 C 261.487 270.862, 263.979 264.800, 265.389 261.500 C 268.083 255.194, 268.696 250.548, 266.974 249.484 C 266.410 249.135, 263.573 248.605, 260.669 248.305 C 255.945 247.818, 255.081 248.042, 252.445 250.441 M 427 255.190 C 427 256.547, 428.556 265.151, 430.715 275.724 C 431.974 281.894, 432.590 283.148, 434.938 284.319 L 437.686 285.690 435.270 281.368 C 433.941 278.990, 433.143 276.578, 433.495 276.007 C 434.352 274.622, 432.003 263.894, 430.428 262 C 429.742 261.175, 429.310 259.038, 429.468 257.250 C 429.665 255.017, 429.324 254, 428.378 254 C 427.620 254, 427 254.535, 427 255.190 M 391.224 261 C 391.210 264.575, 391.540 269.975, 391.958 273 L 392.718 278.500 392.785 271 C 392.822 266.875, 392.491 261.475, 392.051 259 C 391.267 254.593, 391.250 254.635, 391.224 261 M 199.743 259.237 C 198.822 259.931, 196.966 263.014, 195.619 266.086 C 194.272 269.158, 191.107 273.735, 188.585 276.257 C 184.076 280.766, 181.622 286.462, 185.829 282.655 C 188.093 280.605, 192.972 280.512, 195.559 282.468 C 198.301 284.542, 201.711 284.342, 205.131 281.907 C 207.585 280.159, 208.329 280.028, 209.634 281.111 C 210.964 282.215, 210.937 281.819, 209.454 278.454 C 208.494 276.280, 206.726 270.925, 205.524 266.556 C 203.217 258.173, 202.447 257.198, 199.743 259.237 M 205.131 285.867 L 202.761 287.689 205.810 287.241 C 207.906 286.934, 208.691 286.357, 208.322 285.397 C 207.675 283.711, 207.995 283.664, 205.131 285.867 M 188.425 285.878 C 189.868 288.213, 195.999 290.056, 199.225 289.125 C 202.136 288.286, 202.222 288.167, 200 288.058 C 198.625 287.991, 196.626 287.276, 195.559 286.468 C 193.486 284.900, 187.515 284.407, 188.425 285.878 M 391.287 287.912 C 390.438 289.272, 390.434 290.034, 391.272 290.872 C 392.908 292.508, 394.002 292.257, 393.985 290.250 C 393.957 287.101, 392.553 285.884, 391.287 287.912 M 436.105 291 C 436.060 291.825, 436.702 294.975, 437.532 298 C 438.361 301.025, 439.701 307.550, 440.510 312.500 C 442.655 325.630, 444.521 334.626, 448.653 351.756 C 451.970 365.509, 452.193 367.270, 450.926 369.639 C 449.323 372.633, 449.315 382.111, 450.910 389 C 451.482 391.475, 451.962 397.122, 451.976 401.549 L 452 409.598 455.394 409.202 C 458.247 408.869, 458.886 408.322, 459.394 405.778 C 460.311 401.197, 460.126 397.370, 458.853 394.577 C 457.510 391.628, 459.307 388.520, 461.802 389.477 C 462.907 389.902, 463.016 389.723, 462.230 388.773 C 461.651 388.073, 460.637 384.575, 459.977 381 C 457.448 367.298, 451.626 343.932, 447.395 330.500 C 444.970 322.800, 442.989 314.828, 442.993 312.784 C 442.997 310.740, 442.337 307.590, 441.527 305.784 C 440.717 303.978, 439.184 299.575, 438.121 296 C 437.057 292.425, 436.150 290.175, 436.105 291 M 201 292.584 C 199.075 293.324, 196.375 293.707, 195 293.435 C 193.078 293.054, 192.847 293.174, 194 293.954 C 196.217 295.455, 199.068 295.153, 203 293 C 207.009 290.805, 206.112 290.619, 201 292.584 M 389 296.918 C 389 298.523, 388.707 300.661, 388.350 301.668 C 387.930 302.851, 388.978 302.294, 391.309 300.094 C 394.511 297.072, 395.113 296.846, 396.646 298.094 C 398.182 299.344, 398.298 299.296, 397.687 297.668 C 397.309 296.661, 397 295.419, 397 294.910 C 397 294.400, 396.111 294.538, 395.025 295.216 C 393.466 296.190, 392.792 296.192, 391.825 295.225 C 389.867 293.267, 389 293.787, 389 296.918 M 418.017 305.750 C 418.027 308.363, 418.702 313.650, 419.517 317.500 C 420.333 321.349, 421 325.754, 421 327.288 C 421 330.746, 426.787 359.142, 427.652 359.928 C 427.998 360.242, 427.973 358.250, 427.597 355.500 C 427.220 352.750, 426.482 346.675, 425.958 342 C 425.433 337.325, 424.364 330.350, 423.583 326.500 C 422.801 322.650, 421.394 315.337, 420.456 310.250 C 418.540 299.851, 417.992 298.840, 418.017 305.750 M 174.591 303.900 C 172.953 305.709, 173.065 306.254, 176.936 315.349 C 179.171 320.601, 181 325.623, 181 326.508 C 181 327.394, 181.458 327.835, 182.018 327.489 C 182.578 327.143, 184.716 327.875, 186.768 329.116 C 190.471 331.354, 190.485 331.355, 188.620 329.214 C 186.758 327.076, 186.769 327.040, 189.864 325.278 C 194.029 322.907, 193.873 322.596, 187.750 321.067 C 182.412 319.735, 178 316.699, 178 314.360 C 178 313.649, 177.231 311.455, 176.291 309.484 C 174.904 306.575, 174.811 305.532, 175.799 303.950 C 177.346 301.473, 176.807 301.451, 174.591 303.900 M 392.200 303.200 C 390.425 304.975, 390.739 307.454, 393 309.500 C 394.973 311.285, 395 311.247, 395 306.655 C 395 301.902, 394.328 301.072, 392.200 303.200 M 405.552 314.500 C 405.898 317.800, 407.031 321.888, 408.069 323.584 C 409.108 325.280, 410.658 329.998, 411.515 334.070 C 412.371 338.141, 413.567 341.928, 414.172 342.486 C 414.960 343.212, 415.087 342.791, 414.618 341 C 414.259 339.625, 413.442 333.689, 412.803 327.810 C 412.105 321.390, 411.217 317.196, 410.579 317.310 C 409.995 317.414, 408.484 315.475, 407.220 313 L 404.923 308.500 405.552 314.500 M 388.340 312.137 C 388.688 313.436, 388.979 315.175, 388.986 316 C 388.995 316.930, 389.951 317.500, 391.500 317.500 C 392.875 317.500, 394 317.417, 394 317.315 C 394 315.605, 391.581 311.846, 389.902 310.947 C 387.882 309.866, 387.758 309.961, 388.340 312.137 M 397.322 315.842 C 396.674 316.888, 396.511 318.139, 396.959 318.622 C 399.712 321.585, 399.104 324.053, 394.487 328.671 L 389.834 333.324 391.336 338.412 C 392.410 342.049, 392.862 342.751, 392.919 340.872 C 392.964 339.427, 393.675 337.685, 394.500 337 C 397.040 334.892, 398.863 337.507, 399.263 343.833 C 399.461 346.950, 399.674 343.425, 399.737 336 C 399.876 319.599, 399.085 312.996, 397.322 315.842 M 436.097 319 C 436.055 320.925, 436.692 324.709, 437.511 327.409 C 438.330 330.109, 439 334.136, 439 336.359 C 439 339.348, 439.292 340.108, 440.123 339.277 C 441.236 338.164, 439.474 325.991, 437.116 318.500 L 436.172 315.500 436.097 319 M 391.580 322.653 C 390.707 324.926, 391.927 326.305, 393.589 324.926 C 395.383 323.437, 395.381 322.360, 393.583 321.670 C 392.803 321.371, 391.902 321.813, 391.580 322.653 M 404.082 330.872 C 404.015 336.933, 404.239 338.047, 405.342 337.131 C 406.080 336.519, 407.020 336.351, 407.431 336.759 C 408.485 337.804, 406.999 330.106, 405.451 326.500 C 404.240 323.679, 404.158 323.940, 404.082 330.872 M 433 328.647 C 433 331.734, 435.758 351.929, 438.510 369 C 439.885 377.525, 441.429 388.646, 441.940 393.713 C 442.860 402.822, 445.385 410.498, 447.110 409.432 C 448.592 408.516, 448.099 392.797, 446.500 390 C 445.714 388.625, 445.047 385.250, 445.018 382.500 C 444.989 379.750, 444.250 374.350, 443.376 370.500 C 442.501 366.650, 441.466 361.377, 441.076 358.781 C 440.686 356.186, 439.655 353.261, 438.786 352.281 C 437.917 351.302, 436.961 348.475, 436.661 346 C 434.957 331.932, 433 322.658, 433 328.647 M 184.538 334.250 C 185.768 338.367, 188.586 342.489, 190.410 342.841 C 195.535 343.827, 194.155 337.469, 188.523 334.146 C 183.985 331.468, 183.709 331.475, 184.538 334.250 M 313.882 332.576 C 313.816 333.084, 313.832 333.885, 313.917 334.355 C 314.001 334.826, 313.531 335.861, 312.871 336.655 C 310.528 339.478, 314.179 341.563, 318.957 340.131 C 323.480 338.776, 324.115 337.473, 320.750 336.452 C 319.512 336.077, 317.488 334.843, 316.250 333.711 C 315.012 332.578, 313.947 332.067, 313.882 332.576 M 196.162 336 C 198.145 341.283, 198.095 341.996, 195.562 344.529 C 192.376 347.715, 192.358 347.581, 196.149 348.902 C 200.960 350.579, 201.749 350.291, 203.036 346.391 C 204.073 343.249, 203.981 342.452, 202.330 340.240 C 199.837 336.902, 195.340 333.810, 196.162 336 M 204.828 338.427 C 208.360 342.482, 208.463 344.257, 205.509 350.250 C 204.068 353.174, 204.848 353.763, 208.372 352.411 C 210.373 351.643, 214.362 343.385, 213.640 341.504 C 213.333 340.703, 210.926 339.063, 208.291 337.859 C 205.656 336.654, 203.050 335.430, 202.500 335.138 C 201.950 334.847, 202.997 336.327, 204.828 338.427 M 364.752 342.250 C 367.609 345.311, 368.575 349.602, 366.870 351.657 C 364.862 354.076, 369.519 352.503, 373.750 349.333 C 378.330 345.902, 377.860 344.791, 370.750 342.241 C 362.937 339.439, 362.129 339.440, 364.752 342.250 M 350.643 344.742 C 345.034 345.091, 344.856 345.184, 346.447 346.941 C 347.360 347.950, 348.181 349.751, 348.271 350.942 C 348.406 352.741, 348.863 352.999, 350.967 352.463 C 352.360 352.108, 355.647 351.475, 358.271 351.055 C 364.039 350.133, 364.272 349.933, 363.440 346.618 C 362.891 344.429, 362.268 344.031, 359.642 344.189 C 357.914 344.293, 353.864 344.542, 350.643 344.742 M 408.047 346.550 C 408.072 347.623, 408.728 351.425, 409.505 355 L 410.916 361.500 410.385 354 C 409.922 347.474, 407.916 341.080, 408.047 346.550 M 416.019 349.250 C 416.697 358.275, 420.345 379.710, 421.762 383 C 424.575 389.530, 426.874 401.114, 427.519 412 C 427.828 417.225, 428.499 425.775, 429.010 431 C 429.520 436.225, 430.215 443.561, 430.554 447.302 C 431.072 453.015, 431.397 453.916, 432.585 452.929 C 433.678 452.022, 434.398 452.068, 435.750 453.128 C 437.270 454.320, 437.355 454.303, 436.394 453 C 434.003 449.758, 429.811 423.530, 430.372 415.324 C 430.666 411.021, 430.943 406.825, 430.988 406 C 431.208 401.969, 429.132 394.030, 426.804 390 C 424.260 385.595, 420.375 370.690, 418.008 356.250 C 417.354 352.262, 416.635 349, 416.410 349 C 416.184 349, 416.008 349.113, 416.019 349.250 M 321 352.996 C 316.775 353.680, 310.163 355.145, 288.500 360.197 C 278.180 362.603, 258.790 371.723, 255.207 375.855 C 240.653 392.642, 234.201 402.563, 232.512 410.750 C 231.482 415.741, 232.828 414.899, 245.322 402.736 C 255.212 393.109, 258.462 390.634, 267.696 385.700 C 279.007 379.657, 284.757 376.388, 292.374 371.672 C 294.886 370.117, 302.017 367.120, 308.221 365.014 C 321.159 360.620, 337.054 354.258, 338.450 352.914 C 339.563 351.844, 327.777 351.899, 321 352.996 M 392.669 353.664 C 391.506 354.828, 391.941 359.274, 393.677 363.967 C 395.819 369.753, 395.662 369.616, 397.850 367.635 C 400.419 365.311, 401.477 366.878, 402.877 375.082 C 404.356 383.749, 404.294 387.511, 402.652 388.874 C 401.253 390.035, 399.042 388.332, 397.621 385 C 397.270 384.175, 397.185 385.525, 397.432 388 C 397.680 390.475, 398.382 401.275, 398.992 412 C 400.438 437.426, 399.997 435.824, 405.653 436.195 C 412.150 436.622, 413.435 438.893, 409.503 442.997 L 406.562 446.067 410.031 445.784 C 413.335 445.513, 413.625 445.761, 416.140 451 C 417.592 454.025, 419.955 457.591, 421.390 458.924 L 424 461.349 423.949 455.424 C 423.903 450.130, 423.261 444.177, 421.369 431.500 C 421.041 429.300, 420.800 425.700, 420.833 423.500 C 421.086 406.822, 420.880 402.559, 419.504 396.021 C 417.377 385.907, 417.125 386.218, 417.736 398.206 C 418.183 406.967, 418.016 408.742, 416.632 409.891 C 412.996 412.908, 411.863 409.844, 408.534 388 C 406.404 374.018, 405.207 368.485, 403.018 362.500 C 402.013 359.750, 400.917 356.662, 400.583 355.637 C 400.083 354.103, 399.711 353.995, 398.469 355.025 C 397.247 356.040, 396.621 355.967, 395.150 354.636 C 394.153 353.734, 393.037 353.297, 392.669 353.664 M 250 360.493 C 250 361.170, 258.123 365.211, 258.575 364.758 C 258.785 364.549, 256.941 363.398, 254.478 362.202 C 252.015 361.005, 250 360.236, 250 360.493 M 248 364.685 C 248 365.153, 249.164 367.249, 250.588 369.344 C 253.073 373.001, 253.251 373.083, 255.088 371.421 C 257.974 368.808, 257.679 368.472, 248.750 364.193 C 248.338 363.995, 248 364.216, 248 364.685 M 337 367.709 C 331.358 369.784, 330.279 375.977, 334.805 380.313 C 338.046 383.418, 339.497 383.596, 343.852 381.424 C 349.736 378.488, 349.792 374.527, 344.018 369.668 C 340.831 366.987, 339.770 366.691, 337 367.709 M 409.315 369.500 C 409.666 371.150, 410.475 375.806, 411.113 379.846 L 412.272 387.192 414.603 384.346 C 415.894 382.770, 416.668 380.831, 416.337 380 C 416.008 379.175, 415.515 376.112, 415.241 373.192 C 414.848 369.006, 414.426 368.006, 413.245 368.460 C 412.421 368.776, 411.056 368.464, 410.212 367.767 C 408.875 366.663, 408.760 366.886, 409.315 369.500 M 337.170 371.874 C 336.414 372.353, 335.982 373.966, 336.170 375.609 C 336.557 378.996, 339.757 379.984, 342.995 377.716 L 345.021 376.297 342.938 373.648 C 340.761 370.881, 339.398 370.461, 337.170 371.874 M 299.410 375.295 C 297.161 376.508, 294.063 378.512, 292.526 379.750 L 289.730 382 292.251 383.982 C 293.773 385.180, 295.035 387.457, 295.439 389.732 C 295.806 391.805, 296.317 394.222, 296.574 395.104 C 296.832 395.987, 295.232 399.420, 293.018 402.734 C 286.850 411.973, 286.565 416.715, 291.875 421.766 C 296.815 426.466, 296.889 427.074, 292.923 430.411 L 289.847 433 293.173 433.004 C 295.003 433.006, 298.075 433.958, 300 435.119 L 303.500 437.230 301.366 434.865 C 298.630 431.832, 297.305 422.092, 299.054 417.869 C 300.133 415.265, 300.024 414.654, 298.122 412.630 C 296.042 410.416, 296.024 410.188, 297.570 405.919 C 298.451 403.489, 299.600 396.335, 300.125 390.023 C 300.650 383.711, 301.702 377.298, 302.463 375.773 C 303.224 374.248, 303.769 373.020, 303.673 373.045 C 303.578 373.070, 301.660 374.083, 299.410 375.295 M 430.170 381.138 C 430.798 382.987, 431.917 385.388, 432.656 386.473 C 433.901 388.300, 433.999 388.190, 433.985 384.973 C 433.972 382.090, 432.063 376.661, 432.015 379.372 C 432.007 379.852, 431.331 379.690, 430.513 379.011 C 429.213 377.932, 429.170 378.200, 430.170 381.138 M 369.860 388.782 C 363.614 396.492, 362.580 400.405, 365.974 403.477 C 367.785 405.115, 368.146 405.134, 370.331 403.703 C 372.501 402.281, 372.860 402.289, 374.361 403.789 C 375.890 405.319, 376.164 405.280, 378.201 403.243 L 380.395 401.049 378.071 398.576 C 376.793 397.215, 375.970 395.516, 376.242 394.801 C 377.747 390.847, 372.328 385.736, 369.860 388.782 M 471.473 399.605 C 472.863 402.297, 474.924 408.876, 476.052 414.224 C 478.358 425.151, 481.813 435.760, 481.927 432.264 C 482.193 424.122, 474.366 399.209, 470.546 396.038 C 469.483 395.156, 469.794 396.353, 471.473 399.605 M 434 400.500 C 434 401.875, 434.450 403, 435 403 C 435.550 403, 436 401.875, 436 400.500 C 436 399.125, 435.550 398, 435 398 C 434.450 398, 434 399.125, 434 400.500 M 464.513 408.259 C 464.109 409.776, 461.941 412.544, 459.695 414.410 L 455.611 417.802 456.747 427.509 C 457.991 438.141, 458.264 438.856, 460.402 437.082 C 461.199 436.420, 462.448 435.977, 463.176 436.097 C 463.904 436.217, 465.293 435.969, 466.263 435.546 C 467.330 435.080, 468.687 435.314, 469.700 436.138 C 471.169 437.333, 471.290 437.276, 470.687 435.668 C 470.309 434.661, 470 432.903, 470 431.763 C 470 429.784, 469.913 429.769, 468.085 431.423 C 466.241 433.092, 466.018 432.964, 462.085 427.988 C 457.183 421.787, 457.162 421.533, 461.120 416.151 C 464.068 412.143, 464.342 412, 466.070 413.563 C 467.825 415.151, 467.858 415.061, 466.891 411.359 C 465.327 405.376, 465.292 405.330, 464.513 408.259 M 462.512 419.962 C 462.034 421.468, 462.250 422.540, 463.143 423.099 C 464.848 424.165, 465.522 421.755, 464.186 419.369 C 463.344 417.863, 463.157 417.929, 462.512 419.962 M 442.543 423.032 C 443.391 428.988, 444.911 433.827, 446.180 434.611 C 446.828 435.012, 446.979 434.509, 446.585 433.266 C 445.887 431.069, 448.246 428.416, 449.956 429.473 C 451.105 430.183, 451.411 425.233, 450.383 422.556 C 449.899 421.295, 449.462 421.202, 448.354 422.121 C 447.237 423.048, 446.414 422.798, 444.424 420.929 L 441.907 418.564 442.543 423.032 M 436.262 429 C 436.437 433.056, 436.861 434.423, 437.875 434.208 C 438.631 434.048, 440.170 434.723, 441.295 435.708 C 443.151 437.335, 443.135 437.217, 441.113 434.428 C 439.888 432.738, 438.242 429.588, 437.455 427.428 L 436.024 423.500 436.262 429 M 477.086 435.500 C 477.116 436.600, 477.527 438.400, 478 439.500 C 478.787 441.332, 478.864 441.290, 478.914 439 C 478.945 437.625, 478.533 435.825, 478 435 C 477.200 433.762, 477.040 433.849, 477.086 435.500 M 440.683 443 C 441.011 445.475, 441.441 447.688, 441.639 447.917 C 442.391 448.785, 441.820 442.410, 440.974 440.500 C 440.383 439.165, 440.286 439.995, 440.683 443 M 401.309 441.250 C 400.864 441.938, 400.500 449.443, 400.500 457.928 C 400.500 473.722, 401.235 476.891, 404.598 475.601 C 405.335 475.318, 407.100 475.689, 408.521 476.426 C 410.341 477.371, 412.194 477.513, 414.802 476.907 C 416.836 476.434, 419.904 476.037, 421.619 476.024 C 424.441 476.002, 424.797 475.642, 425.358 472.250 C 426.505 465.310, 426.212 462.579, 424.474 464.022 C 422.613 465.566, 414.722 457.624, 412.774 452.247 C 411.516 448.774, 409.999 448.635, 405.342 451.567 C 403.520 452.714, 403.006 452.712, 402.043 451.552 C 401.260 450.608, 401.231 449.975, 401.951 449.530 C 402.528 449.174, 403 448.069, 403 447.076 C 403 446.082, 403.933 444.084, 405.073 442.635 L 407.145 440 404.632 440 C 403.249 440, 401.754 440.563, 401.309 441.250 M 469.569 441.764 C 469.178 442.155, 468.103 442.480, 467.179 442.487 C 466.001 442.496, 465.596 443.189, 465.823 444.810 C 466.340 448.506, 464.164 450.459, 461.857 448.370 C 460.106 446.786, 460 446.806, 460 448.723 C 460 452.819, 462.708 453.618, 467.578 450.958 C 471.388 448.876, 472 448.097, 472 445.330 C 472 442.093, 470.881 440.452, 469.569 441.764 M 214.746 451.940 C 209.425 462.944, 207.962 468.971, 208.082 479.386 L 208.164 486.500 210.461 481.500 C 213.456 474.981, 216.132 472.643, 220.413 472.804 C 222.571 472.885, 224.285 472.306, 225.108 471.216 C 226.202 469.767, 226.188 469.692, 225.015 470.736 C 223.903 471.727, 223.267 471.647, 221.814 470.331 C 219.781 468.492, 219.247 460.583, 221.079 459.451 C 221.770 459.024, 221.914 457.013, 221.481 453.863 C 221.092 451.036, 221.223 448.421, 221.787 447.720 C 222.834 446.420, 221.650 441.960, 220.282 442.053 C 219.852 442.083, 217.361 446.532, 214.746 451.940 M 480.180 446.250 C 479.231 450.043, 479.272 450.291, 480.558 448.559 C 481.833 446.843, 482.618 442, 481.622 442 C 481.414 442, 480.765 443.913, 480.180 446.250 M 241.202 448.969 C 238.948 450.601, 236.617 452.847, 236.022 453.958 C 235.427 455.070, 233.653 456.645, 232.078 457.460 C 229.785 458.645, 229.139 459.742, 228.831 462.970 C 228.463 466.836, 229.183 468.131, 230.509 465.985 C 230.854 465.427, 232.568 464.300, 234.318 463.482 C 243.293 459.285, 246.512 456.453, 246.226 453.008 C 246.060 450.996, 246.608 448.986, 247.631 447.855 C 250.477 444.711, 246.012 445.484, 241.202 448.969 M 448.747 449.859 C 448.376 451.279, 448.628 451.696, 449.626 451.313 C 450.396 451.018, 451.695 451.332, 452.513 452.011 C 453.768 453.052, 454 452.816, 454 450.500 C 454 448.336, 453.720 447.988, 452.676 448.854 C 451.758 449.616, 451.033 449.633, 450.310 448.910 C 449.587 448.187, 449.108 448.478, 448.747 449.859 M 434 461.316 C 434 467.411, 432.110 477.091, 430.400 479.750 C 428.042 483.419, 430.795 482.440, 435.187 478.048 C 438.814 474.421, 439.083 473.784, 438.461 470.298 C 438.088 468.209, 437.855 464.740, 437.942 462.590 C 438.085 459.044, 436.949 457.060, 434.750 457.015 C 434.337 457.007, 434 458.942, 434 461.316 M 397.744 477.442 C 398.218 479.918, 400.447 480.963, 405.309 480.986 C 407.003 480.995, 407.863 480.587, 407.475 479.959 C 407.121 479.387, 406.021 479.176, 405.030 479.491 C 403.925 479.841, 402.079 479.096, 400.259 477.564 L 397.290 475.066 397.744 477.442 M 362.655 496.829 C 360.492 499.219, 360.536 499.525, 363.619 503.567 C 367.452 508.592, 372 507.754, 372 502.023 C 372 496.095, 366.224 492.885, 362.655 496.829 M 365 499.878 C 365 500.360, 365.675 501.315, 366.500 502 C 367.753 503.040, 368 502.896, 368 501.122 C 368 499.902, 367.362 499, 366.500 499 C 365.675 499, 365 499.395, 365 499.878 M 341.238 514.250 C 340.684 514.938, 339.911 516.994, 339.521 518.819 C 338.830 522.046, 338.756 522.089, 336.847 520.361 C 332.799 516.698, 328.418 522.368, 331.781 526.918 C 333.002 528.569, 334 530.521, 334 531.257 C 334 533.108, 341.228 540, 343.170 540 C 344.042 540, 345.315 540.675, 346 541.500 C 347.594 543.421, 349.417 543.408, 351.030 541.464 C 352.096 540.179, 351.846 539.449, 349.503 537.003 L 346.701 534.079 348.443 528.289 C 349.400 525.105, 350.382 521.764, 350.623 520.864 C 351.706 516.830, 343.703 511.190, 341.238 514.250 M 388.558 515.271 C 385.009 520.688, 392.146 539.206, 396.689 536.370 C 399.582 534.565, 399.062 524.642, 395.804 519.481 C 391.838 513.198, 390.446 512.390, 388.558 515.271 M 373.267 515.225 C 372.706 515.926, 371.930 519.200, 371.543 522.500 C 371.156 525.800, 370.256 529.411, 369.544 530.524 C 366.708 534.959, 366.618 542.447, 369.363 545.608 C 371.625 548.213, 372.029 548.348, 373.436 546.966 C 377.775 542.702, 379.826 518.963, 376.143 515.630 C 374.663 514.290, 374.080 514.208, 373.267 515.225 M 343.436 519.750 C 343.104 521.263, 342.656 523.073, 342.439 523.773 C 341.759 525.970, 339.006 526.315, 336.957 524.461 C 334.173 521.941, 333.209 523.529, 335.829 526.318 C 337.023 527.589, 338 529.543, 338 530.659 C 338 532.476, 340.781 536, 342.215 536 C 342.522 536, 343.006 534.763, 343.291 533.250 C 343.576 531.737, 344.497 528.096, 345.338 525.159 C 346.830 519.948, 346.676 517, 344.912 517 C 344.431 517, 343.767 518.237, 343.436 519.750 M 392.564 524.500 C 393.743 531.050, 395.128 533.206, 394.516 527.540 C 394.222 524.813, 393.500 522.113, 392.913 521.540 C 392.157 520.804, 392.055 521.670, 392.564 524.500 M 372.841 531.500 C 372.504 532.050, 371.954 534.975, 371.619 538 L 371.008 543.500 372.560 538.661 C 374.012 534.134, 374.203 529.276, 372.841 531.500 M 224.200 534.200 C 222.719 535.681, 222.660 541.236, 224.071 546.317 C 224.654 548.417, 225.268 553.367, 225.435 557.317 C 225.884 567.929, 226.916 577.816, 228.200 583.786 L 229.336 589.071 225.534 592.965 C 223.105 595.453, 221.949 597.426, 222.335 598.429 C 223.137 600.520, 224.910 600.425, 225.691 598.250 C 226.037 597.288, 227.874 595.042, 229.775 593.260 C 232.775 590.446, 233.145 589.591, 232.585 586.760 C 231.550 581.526, 229.902 566.151, 229.471 557.714 C 229.253 553.432, 228.610 548.257, 228.043 546.214 C 227.475 544.171, 227.019 541.825, 227.028 541 C 227.051 538.888, 230.949 544.011, 230.978 546.191 C 230.990 547.121, 231.391 548.124, 231.869 548.419 C 232.346 548.714, 233.048 552.228, 233.428 556.228 C 233.869 560.881, 235.004 565.218, 236.579 568.271 C 237.933 570.895, 240.140 577.580, 241.483 583.127 C 244.307 594.790, 248.668 601.999, 251.304 599.363 C 251.654 599.012, 251.027 597.442, 249.910 595.873 C 248.793 594.304, 246.790 588.525, 245.460 583.031 C 244.129 577.537, 241.933 570.895, 240.579 568.271 C 239.004 565.218, 237.869 560.881, 237.428 556.228 C 237.048 552.228, 236.346 548.714, 235.869 548.419 C 235.391 548.124, 235 547.209, 235 546.386 C 235 544.658, 227.304 533, 226.163 533 C 225.743 533, 224.860 533.540, 224.200 534.200 M 248.047 540.444 C 247.376 541.252, 247.099 542.351, 247.430 542.887 C 247.762 543.423, 247.565 544.151, 246.993 544.504 C 246.395 544.874, 246.015 548.508, 246.098 553.075 C 246.186 557.918, 245.781 561.558, 245.058 562.430 C 244.136 563.541, 244.218 564.521, 245.430 566.865 C 247.743 571.338, 248.899 571.563, 252.267 568.194 C 255.505 564.957, 255.430 565.499, 254.588 551.265 C 254.451 548.936, 253.646 546.236, 252.799 545.265 C 251.953 544.294, 251.442 543.005, 251.664 542.400 C 252.399 540.394, 249.424 538.785, 248.047 540.444 M 282.500 551.923 C 279.670 553.113, 276.712 556.644, 277.248 558.192 C 277.497 558.911, 276.869 560.573, 275.851 561.885 C 273.464 564.960, 273.497 565.249, 276.659 569.007 C 279.134 571.948, 279.648 572.128, 284.061 571.590 C 290.121 570.852, 291.978 570.172, 294.750 567.677 C 297.827 564.907, 297.603 563.376, 293.189 557 C 289.263 551.330, 286.750 550.137, 282.500 551.923 M 282.701 555.699 C 281.712 555.955, 281.021 556.916, 281.165 557.833 C 281.310 558.750, 280.647 560.674, 279.691 562.109 C 276.988 566.171, 278.393 568.283, 283.390 567.670 C 293.900 566.380, 294.812 565.222, 290.364 558.804 C 287.834 555.152, 286.652 554.674, 282.701 555.699 M 250 559.800 C 250 560.790, 249.503 562.097, 248.896 562.704 C 248.122 563.478, 248.102 564.357, 248.831 565.654 C 249.800 567.376, 249.930 567.338, 250.766 565.091 C 251.259 563.766, 251.460 561.628, 251.214 560.341 C 250.684 557.564, 250 557.260, 250 559.800 M 280.040 576.452 C 279.309 577.332, 279.130 578.809, 279.584 580.202 C 280.670 583.534, 280.784 592.205, 279.770 594.278 C 279.153 595.538, 277.921 595.990, 275.541 595.830 C 272.227 595.607, 268.579 597.510, 269.491 598.986 C 269.750 599.404, 271.963 599.786, 274.410 599.835 C 281.235 599.972, 284.767 595.544, 284.458 587.238 C 284.334 583.909, 283.889 580.581, 283.470 579.843 C 282.855 578.761, 282.968 578.743, 284.053 579.750 C 285.739 581.315, 291.219 581.381, 292.745 579.855 C 294.709 577.891, 295.193 582.972, 293.614 588.979 C 292.149 594.554, 292.501 596.511, 295.402 598.918 C 297.727 600.848, 299.236 599.297, 297.562 596.698 C 296.336 594.796, 296.348 593.713, 297.653 588.651 C 298.857 583.978, 298.921 582.225, 297.973 579.934 C 296.332 575.974, 294.255 574.345, 292.758 575.842 C 291.338 577.262, 285.350 577.376, 284.500 576 C 283.605 574.553, 281.433 574.773, 280.040 576.452 M 406 583.796 C 406 585.633, 407.186 588, 408.107 588 C 409.538 588, 409.137 585.359, 407.500 584 C 406.592 583.246, 406 583.166, 406 583.796 M 415 588.435 C 415 588.674, 415.484 590.137, 416.075 591.685 C 417.111 594.400, 417.200 594.431, 418.575 592.559 C 420.703 589.660, 420.311 588, 417.500 588 C 416.125 588, 415 588.196, 415 588.435" stroke="none" fill="#1A1A1A" fill-rule="evenodd"/>
</svg>