<svg xmlns="http://www.w3.org/2000/svg" width="375" height="500" viewBox="0 0 375 500" version="1.1">
	<rect x="0" y="0" width="100%" height="100%" fill="#FFFFFF" />
	<path d="M 22.557 1.250 C 22.348 1.938, 20.510 12.625, 18.473 25 C 16.435 37.375, 14.593 47.691, 14.377 47.924 C 14.162 48.157, 11.177 47.184, 7.743 45.763 C 3.918 44.180, 1.129 43.535, 0.543 44.097 C -0.812 45.395, 1.532 47.281, 7.685 49.842 C 14.214 52.559, 15.608 52.546, 17.380 49.750 C 19.080 47.067, 26.514 3.782, 25.658 1.551 C 24.943 -0.312, 23.087 -0.492, 22.557 1.250 M 43.632 0.812 C 42.410 2.864, 35.124 48.045, 34.854 55.242 C 34.725 58.678, 35.203 60.579, 36.588 62.140 C 38.879 64.723, 52.183 71, 55.365 71 C 57.849 71, 69.607 76.741, 74.808 80.493 C 76.627 81.805, 80.145 83.654, 82.624 84.601 C 90.307 87.535, 91.055 86.071, 95.961 58.500 C 98.212 45.850, 101.867 28.128, 104.083 19.117 C 108.320 1.887, 108.403 -0.341, 104.787 0.180 C 101.936 0.591, 96.945 20.213, 90.843 55 C 88.576 67.925, 86.596 78.650, 86.443 78.834 C 86.291 79.017, 84.042 78.227, 81.445 77.079 L 76.725 74.991 77.413 68.245 C 78.181 60.728, 85.164 19.320, 87.469 8.616 C 89.133 0.889, 88.922 0, 85.420 0 C 82.311 -0, 81.746 1.355, 78.548 16.500 C 76.300 27.141, 69 69.015, 69 71.266 C 69 72.306, 65.323 71.309, 62.414 69.481 C 59.978 67.949, 60.717 59.508, 65.524 34 C 68.994 15.585, 71.139 3.787, 71.336 2.042 C 71.533 0.293, 64.497 -0.613, 63.481 1.031 C 62.562 2.517, 56.485 33.320, 54.510 46.500 C 53.603 52.550, 52.555 58.713, 52.181 60.194 L 51.500 62.889 46.750 60.817 C 40.915 58.272, 40.985 60.107, 45.615 31.127 C 50.285 1.902, 50.332 0.645, 46.771 0.349 C 45.270 0.225, 43.858 0.433, 43.632 0.812 M 120.001 2.499 C 115.833 13.460, 107.138 50.329, 103.417 72.821 C 100.726 89.084, 100.723 89.152, 102.667 91.821 C 104.712 94.628, 112.684 98.996, 116.506 99.404 C 119.136 99.684, 141.817 109.708, 144 111.555 C 146.577 113.735, 162.394 120.982, 164.595 120.991 C 168.462 121.007, 170.002 117.664, 173.031 102.676 C 178.479 75.721, 188.865 47.553, 204.092 18.446 C 212.461 2.447, 213.050 -0.038, 208.392 0.320 C 205.956 0.508, 204.828 2.164, 197.370 16.514 C 180.982 48.048, 169.691 79.143, 164.967 105.750 C 163.918 111.657, 163.339 113, 161.840 113 C 159.389 113, 159.458 111.067, 162.492 94.639 C 167.263 68.807, 174.089 48.151, 188.020 17.387 C 191.882 8.857, 194.816 1.512, 194.540 1.064 C 193.792 -0.145, 189.177 0.079, 188.122 1.375 C 187.306 2.378, 182.983 11.972, 173.025 34.874 C 165.624 51.896, 158.028 78.089, 154.865 97.500 C 153.609 105.200, 152.493 111.646, 152.384 111.824 C 152.228 112.079, 146.221 109.326, 145.275 108.565 C 144.731 108.127, 149.393 83.420, 152.053 72.644 C 157.066 52.337, 163.145 34.733, 172.220 14.240 C 177.300 2.769, 177.680 -0.395, 173.908 0.180 C 168.085 1.067, 146.211 65.023, 141.712 94.314 C 140.883 99.712, 139.999 104.334, 139.748 104.585 C 139.394 104.940, 122.237 97.571, 121.350 96.683 C 121.026 96.360, 125.804 69.185, 127.535 61.500 C 129.885 51.073, 137.367 24.926, 141.492 12.728 C 145.309 1.441, 145.317 0, 141.563 0 C 138.157 0, 137.722 0.880, 131.662 20 C 123.542 45.618, 114 84.274, 114 91.549 C 114 91.825, 112.627 91.341, 110.949 90.474 C 108.886 89.407, 108.053 88.346, 108.376 87.198 C 108.639 86.264, 109.146 83.475, 109.503 81 C 112.235 62.070, 117.422 37.656, 123.089 17.054 C 125.275 9.108, 126.860 2.077, 126.611 1.429 C 125.783 -0.730, 120.929 0.056, 120.001 2.499 M 216.202 9.250 C 194.032 50.512, 183.447 77.114, 177.460 106.626 C 174.366 121.874, 174.384 123.042, 177.750 126.232 C 180.737 129.063, 191.122 134, 194.091 134 C 196.576 134, 202.861 136.942, 206.327 139.728 C 207.974 141.052, 210.519 142, 212.426 142 C 214.408 142, 217.435 143.177, 220.100 144.982 C 231.130 152.456, 232.080 150.127, 236.003 106 C 236.974 95.078, 241.037 72.597, 242.934 67.650 C 244.359 63.932, 247.939 48.009, 248.924 41 C 249.350 37.975, 251.341 28.629, 253.349 20.231 C 257.457 3.053, 257.651 1.187, 255.424 0.333 C 252.519 -0.782, 244.579 10.685, 228.994 38.500 C 209.253 73.734, 201.320 93.457, 196.415 119.500 C 194.407 130.163, 194.061 130.682, 190.056 129.023 C 186.535 127.565, 186.563 127.636, 188.370 124.715 C 189.123 123.497, 190.307 119.575, 191.001 116 C 196.924 85.487, 207.695 60.718, 233.697 17.818 C 241.991 4.133, 244.076 -0.916, 240.973 0.197 C 240.509 0.364, 235.823 7.614, 230.560 16.308 C 203.768 60.569, 192.823 85.642, 186.932 116.250 C 185.887 121.679, 185.272 123, 183.785 123 C 180.681 123, 180.632 120.416, 183.471 106.190 C 189.009 78.432, 201.014 49.216, 222.728 10.658 C 227.399 2.363, 227.596 0, 223.618 0 C 221.559 0, 220.388 1.461, 216.202 9.250 M 269.304 1.250 C 268.786 1.938, 267.581 6.100, 266.626 10.500 C 265.670 14.900, 264.250 20.300, 263.469 22.500 C 259.952 32.410, 254.914 56.536, 255.537 60.483 C 255.886 62.692, 257.230 70.350, 258.524 77.500 C 261.311 92.893, 264.436 114.388, 266.011 129 C 267.571 143.469, 270.864 146.591, 280.374 142.617 C 283.690 141.232, 292.465 139.644, 303.260 138.477 C 312.697 137.456, 315 134.798, 315 124.926 C 315 117.517, 313.040 93.118, 309.494 56.405 C 307.384 34.546, 306.015 16.919, 305.735 8 L 305.500 0.500 302 0.500 L 298.500 0.500 298.799 13 C 298.963 19.875, 300.189 36.750, 301.522 50.500 C 305.190 88.308, 306.864 107.345, 307.602 119.641 L 308.271 130.782 305.064 131.486 C 303.300 131.873, 301.701 132.035, 301.511 131.844 C 301.321 131.654, 300.643 125.874, 300.006 118.999 C 298.536 103.152, 294.470 68.838, 292.363 54.500 C 291.474 48.450, 289.783 33.825, 288.604 22 L 286.462 0.500 283.481 0.500 L 280.500 0.500 280.791 10.847 C 281.089 21.453, 282.645 35.826, 287.951 77 C 290.797 99.079, 294.374 135.030, 293.772 135.503 C 293.622 135.621, 291.835 135.974, 289.801 136.287 L 286.101 136.858 285.596 132.679 C 285.318 130.381, 284.604 123.550, 284.010 117.500 C 282.512 102.254, 279.512 80.281, 275.546 55.500 C 273.697 43.950, 271.883 32.250, 271.514 29.500 C 271.146 26.750, 270.277 23.600, 269.583 22.500 C 268.541 20.846, 268.703 18.856, 270.520 11 C 271.728 5.775, 272.529 1.163, 272.300 0.750 C 271.673 -0.374, 270.362 -0.155, 269.304 1.250 M 316.688 0.646 C 315.073 2.261, 316.492 36.452, 319.463 67.500 C 320.305 76.300, 321.669 93.139, 322.494 104.921 C 324.448 132.826, 324.984 133.744, 338 131.482 C 342.125 130.765, 351.953 129.134, 359.840 127.856 C 371.416 125.981, 374.375 125.168, 375.193 123.639 C 375.750 122.598, 375.823 121.465, 375.353 121.123 C 374.884 120.780, 374.500 119.825, 374.500 119 C 374.500 116.697, 365.791 117.300, 362.208 119.852 C 359.604 121.706, 346.521 124.919, 345.636 123.922 C 345.431 123.690, 344.751 113.600, 344.126 101.500 C 343.501 89.400, 342.316 67.125, 341.493 52 C 340.670 36.875, 339.885 19.100, 339.748 12.500 C 339.544 2.610, 339.236 0.500, 338 0.500 C 336.757 0.500, 336.407 3.074, 335.959 15.500 C 335.662 23.750, 335.324 27.223, 335.209 23.218 C 335.094 19.213, 334.309 14.282, 333.464 12.261 C 332.242 9.335, 332.163 8.020, 333.078 5.811 C 334.330 2.790, 333.659 -0.386, 331.894 0.202 C 329.370 1.043, 327.955 8.248, 329.478 12.500 C 330.401 15.076, 331.304 24.691, 332.013 39.500 C 332.619 52.150, 333.516 66.325, 334.005 71 C 334.494 75.675, 335.427 89.400, 336.078 101.500 C 336.729 113.600, 337.652 124.257, 338.130 125.183 C 339.031 126.928, 338.761 127.092, 332.864 128.397 C 328.573 129.347, 328.076 127.515, 326.489 104.891 C 325.664 93.126, 324.322 76.525, 323.507 68 C 322.044 52.697, 320.227 23.983, 319.747 8.580 C 319.521 1.321, 318.544 -1.211, 316.688 0.646 M 245.333 20.129 C 218.317 64.591, 208.095 87.398, 201.948 116.924 C 199.615 128.135, 199.224 131.520, 200.194 132.120 C 201.965 133.215, 201.941 133.275, 204.499 121.326 C 205.774 115.372, 208.244 106.225, 209.987 101 C 215.971 83.068, 235.699 45.213, 243.114 37.433 C 245.875 34.536, 251.706 15.619, 250.736 12.707 C 250.562 12.185, 248.130 15.524, 245.333 20.129 M 262.036 43.343 C 258.795 57.409, 258.764 57.773, 260.364 62.590 C 263.203 71.139, 271.880 127.994, 271.988 138.750 C 272.001 140.084, 275.051 140.361, 278.765 139.366 C 281.423 138.654, 281.430 138.841, 277.404 105 C 275.274 87.103, 266.398 30.065, 265.622 29.289 C 265.466 29.133, 263.853 35.458, 262.036 43.343 M 336.349 42 C 336.349 46.675, 336.522 48.587, 336.732 46.250 C 336.943 43.912, 336.943 40.087, 336.732 37.750 C 336.522 35.412, 336.349 37.325, 336.349 42 M 337.328 59.500 C 337.333 63.350, 337.513 64.802, 337.730 62.728 C 337.946 60.653, 337.943 57.503, 337.722 55.728 C 337.501 53.952, 337.324 55.650, 337.328 59.500 M 230.873 71.250 C 223.904 85.157, 216.980 101.632, 217.020 104.212 C 217.030 104.921, 218.969 100.984, 221.327 95.464 C 223.685 89.944, 228.241 80.533, 231.450 74.550 C 236.467 65.196, 239.714 57, 238.401 57 C 238.188 57, 234.800 63.412, 230.873 71.250 M 0.510 65.301 C -0.950 69.818, 0.384 71.261, 9 74.482 C 19.202 78.296, 61.790 95.774, 101 112.239 C 116.675 118.821, 133.824 125.931, 139.109 128.039 C 144.394 130.147, 152.944 133.663, 158.109 135.852 C 163.274 138.041, 175.825 142.766, 186 146.353 C 218.425 157.781, 224.384 160.058, 229.735 163.061 C 235.529 166.314, 239.115 166.772, 241 164.500 C 241.685 163.675, 242.977 163.002, 243.872 163.004 C 245.550 163.009, 286.790 155.407, 342 144.916 C 372.348 139.150, 376 138.077, 376 134.931 C 376 132.174, 372.800 131.928, 363.312 133.954 C 347.543 137.320, 319.694 142.707, 303.500 145.522 C 295.250 146.956, 279.050 149.822, 267.500 151.890 C 238.326 157.113, 233.734 156.964, 216 150.218 C 208.575 147.394, 193.725 141.937, 183 138.091 C 163.378 131.056, 122.486 114.461, 83 97.510 C 79.975 96.211, 73 93.339, 67.500 91.127 C 62 88.915, 48.275 83.240, 37 78.514 C 8.347 66.506, 0.983 63.840, 0.510 65.301 M 233.716 87.207 C 228.517 99.863, 224.987 109.320, 225.333 109.666 C 225.573 109.906, 226.280 108.636, 226.905 106.844 C 227.529 105.052, 229.044 102.519, 230.270 101.216 C 231.643 99.756, 232.938 96.472, 233.639 92.673 C 234.752 86.638, 234.781 84.614, 233.716 87.207 M 247.748 99.750 C 245.126 102.688, 241.999 118.790, 240.475 137.214 C 239.868 144.540, 239.963 145.054, 242.359 147.450 C 245.107 150.198, 248.633 150.157, 254.293 147.309 C 258.450 145.218, 258.865 142.793, 257.428 129 C 254.532 101.214, 252.344 94.601, 247.748 99.750 M 0.709 99.709 C 0.456 100.144, 0.306 101.799, 0.375 103.387 C 0.493 106.113, 1.032 106.458, 10 109.540 C 34.964 118.121, 71.385 130.965, 99.500 141.101 C 139.998 155.702, 158.196 161.813, 176.500 166.960 C 214.154 177.549, 218.406 179.238, 216.190 182.727 C 215.192 184.297, 205.056 182.783, 197.058 179.869 C 187.068 176.230, 169.928 171, 167.988 171 C 165.381 171, 138.994 163.249, 118.782 156.545 C 101.278 150.739, 97.058 150.021, 95.004 152.495 C 93.057 154.841, 93.743 156.135, 111.211 183.070 C 120.281 197.057, 131.317 214.575, 135.735 222 C 146.921 240.799, 169 276.399, 190.001 309.500 C 199.772 324.900, 210.695 342.450, 214.274 348.500 C 222.225 361.939, 224.304 364.125, 226.781 361.647 C 228.343 360.084, 228.515 356.294, 228.664 320.213 C 229.035 230.713, 229.620 196.537, 230.820 194.316 C 231.469 193.114, 232 190.359, 232 188.194 C 232 184.413, 232.150 184.232, 235.750 183.674 C 240.411 182.952, 287.970 176.752, 309.500 174.060 C 345.334 169.579, 372.575 165.952, 373.817 165.495 C 374.589 165.212, 375.003 163.871, 374.817 162.256 C 374.424 158.840, 373.887 158.844, 348 162.439 C 337.825 163.853, 322.300 165.903, 313.500 166.997 C 226.419 177.818, 227.611 177.721, 222.495 174.395 C 220.480 173.085, 202.254 167.304, 179 160.599 C 157.816 154.491, 138.783 148.428, 132.500 145.787 C 129.200 144.400, 119.750 140.905, 111.500 138.021 C 94.984 132.247, 81.469 127.366, 70 123.032 C 65.875 121.473, 58.225 118.838, 53 117.177 C 47.775 115.515, 34.950 111.019, 24.500 107.187 C 1.791 98.858, 1.294 98.702, 0.709 99.709 M 228.694 116.516 C 225.364 127.258, 222.634 140.603, 223.372 142.528 C 224.488 145.435, 227.874 144.236, 228.391 140.750 C 229.481 133.387, 231.985 108.652, 231.672 108.339 C 231.486 108.153, 230.146 111.833, 228.694 116.516 M 249.776 119 C 249.417 120.375, 248.809 125.888, 248.425 131.250 L 247.726 141 250.413 141 C 253.088 141, 253.097 140.976, 252.483 135.250 C 250.544 117.178, 250.430 116.493, 249.776 119 M 1 122.813 C 1 124.221, 2.791 125.144, 9 126.939 C 14.748 128.600, 17.005 129.708, 17.016 130.875 C 17.038 132.980, 19.287 136.642, 31.954 155.191 C 52.156 184.773, 65 204.289, 64.992 205.389 C 64.988 206, 63.907 206.999, 62.591 207.610 C 60.389 208.630, 59.890 208.309, 56.371 203.610 C 54.268 200.799, 51.077 196.700, 49.281 194.500 C 47.485 192.300, 39.600 181.915, 31.758 171.423 C 13.875 147.495, 3.116 134, 1.923 134 C -0.337 134, 1.461 137.579, 7.250 144.605 C 10.688 148.777, 14.400 153.460, 15.500 155.011 C 18.403 159.104, 41.368 189.564, 46.301 195.863 C 55.598 207.737, 60.119 213, 61.023 213 C 61.546 213, 62.601 214.463, 63.367 216.250 C 64.134 218.037, 66.335 220.997, 68.258 222.827 L 71.754 226.154 73.895 223.147 C 75.300 221.175, 75.666 219.912, 74.960 219.475 C 74.351 219.099, 74.148 217.605, 74.491 216.041 C 74.955 213.931, 74.460 212.511, 72.413 210.079 C 70.935 208.323, 68.984 205.449, 68.076 203.693 C 67.168 201.937, 65.572 199.150, 64.529 197.500 C 52.431 178.358, 121.466 274.158, 140.914 303.500 C 147.559 313.525, 150.472 318.551, 148.013 315.750 C 143.444 310.543, 142.137 310.087, 139.655 312.829 C 136.148 316.704, 132.922 311.224, 185.946 391.480 C 203.328 417.788, 204.932 420.576, 203.355 421.730 C 200.132 424.086, 197.635 423.063, 193.556 417.716 C 191.387 414.872, 182.813 403.535, 174.502 392.523 C 134.485 339.495, 126.400 328.966, 109.984 308.500 C 100.279 296.400, 86.733 279.300, 79.882 270.500 C 73.032 261.700, 62.691 248.425, 56.903 241 C 51.115 233.575, 36.584 214.792, 24.612 199.261 C 1.752 169.604, 1.526 169.340, 0.482 171.029 C -0.252 172.216, 0.745 173.566, 35.625 218.653 C 74.010 268.270, 82.891 279.614, 104.012 306 C 122.272 328.814, 130.733 339.824, 170.542 392.575 C 178.874 403.616, 188.051 415.652, 190.935 419.322 C 195.527 425.166, 195.950 426.074, 194.339 426.632 C 193.328 426.983, 190.594 428.081, 188.265 429.072 L 184.030 430.874 173.208 416.687 C 139.830 372.929, 127.456 357.127, 109.917 335.861 C 99.238 322.913, 82.400 302.244, 72.500 289.930 C 62.600 277.615, 50.209 262.356, 44.964 256.020 C 39.720 249.684, 29.646 237.300, 22.578 228.500 C 2.980 204.099, -0 201.389, -0 207.971 C -0 210.974, 1.347 212.737, 34.025 252.500 C 42.612 262.950, 59.300 283.425, 71.108 298 C 82.916 312.575, 100.703 334.400, 110.635 346.500 C 128.064 367.733, 176 430.487, 176 432.070 C 176 432.496, 174.358 433.387, 172.350 434.049 C 169.072 435.131, 168.537 435.049, 167.100 433.238 C 155.947 419.185, 128.677 386.253, 118.461 374.500 C 94.528 346.967, 73.634 322.487, 59.500 305.417 C 51.800 296.119, 38.300 280.176, 29.500 269.989 C 20.700 259.803, 11.078 248.646, 8.117 245.195 C 2.327 238.447, 0.641 237.903, 0.400 242.704 C 0.268 245.326, 2.940 248.854, 19.277 267.629 C 29.745 279.658, 45.981 298.725, 55.358 310 C 73.758 332.125, 82.311 342.121, 107.980 371.500 C 117.110 381.950, 132.199 399.950, 141.511 411.500 C 161.490 436.281, 166.654 442, 169.054 442 C 171.504 442, 178.724 438.810, 183.288 435.710 C 185.372 434.295, 190.097 432.142, 193.788 430.926 C 197.480 429.709, 204.775 426.540, 210 423.882 C 215.955 420.853, 220.260 419.250, 221.538 419.586 C 222.768 419.910, 224.649 419.277, 226.288 417.988 L 229 415.855 229 400.664 L 229 385.473 221.521 371.769 C 217.407 364.232, 198.368 333.413, 179.212 303.282 C 160.055 273.152, 140.045 241.505, 134.745 232.956 C 129.444 224.407, 119.532 209.332, 112.719 199.456 C 105.905 189.580, 96.993 176.668, 92.915 170.761 C 88.837 164.855, 83.475 156.815, 81 152.894 C 73.840 141.553, 78.402 143.482, 12.500 123.927 C 0.792 120.453, 1 120.473, 1 122.813 M 25.119 133.273 C 25.761 134.498, 30.192 141.125, 34.966 148 C 39.741 154.875, 47.642 166.350, 52.523 173.500 C 61.533 186.696, 65.911 192.800, 80.499 212.500 C 109.462 251.613, 133.318 285.998, 200.042 384.806 C 222.976 418.768, 224.239 420.058, 224.807 410.097 C 225.081 405.297, 224.796 404.377, 222.173 401.607 C 220.555 399.898, 216.110 393.775, 212.295 388 C 208.479 382.225, 192.105 357.925, 175.908 334 C 159.710 310.075, 141.319 282.625, 135.039 273 C 117.368 245.919, 102.212 224.003, 77.846 190.300 C 69.664 178.982, 61.235 166.119, 50.271 148.218 C 47.818 144.212, 46.059 140.288, 46.363 139.497 C 46.780 138.410, 44.426 137.307, 36.707 134.974 C 31.093 133.277, 25.927 131.698, 25.227 131.466 C 24.222 131.134, 24.199 131.514, 25.119 133.273 M 56.200 145.076 C 57.210 147.706, 76.641 177.559, 83.538 187.078 C 104.801 216.423, 114.886 231.124, 159.312 297.534 C 226.639 398.179, 222.610 392.344, 221.436 387.498 C 219.571 379.802, 208.078 360.501, 167.847 297.500 C 152.744 273.850, 136.056 247.525, 130.763 239 C 125.470 230.475, 115.287 214.950, 108.133 204.500 C 100.980 194.050, 89.418 177.059, 82.441 166.742 L 69.756 147.985 64.128 146.357 C 61.033 145.461, 57.859 144.487, 57.076 144.191 C 56.144 143.838, 55.841 144.144, 56.200 145.076 M 101.720 158.297 C 107.914 166.700, 134.424 208.194, 151.951 236.922 C 164.173 256.954, 183.518 288.454, 194.940 306.922 C 206.363 325.390, 217.114 342.975, 218.832 346 L 221.956 351.500 221.978 346.094 C 222.002 340.255, 216.621 328.872, 204.207 308.500 C 195.701 294.542, 157.758 231.173, 148.223 215 C 140.426 201.776, 115.090 161, 114.670 161 C 114.573 161, 111.420 160.121, 107.663 159.047 C 103.254 157.786, 101.147 157.520, 101.720 158.297 M 233.166 159.876 C 232.102 160.551, 232.169 160.851, 233.498 161.361 C 236.342 162.452, 239.699 162.067, 241 160.500 C 242.070 159.210, 241.702 159.002, 238.372 159.015 C 236.243 159.024, 233.900 159.411, 233.166 159.876 M 120.278 163.321 C 129.218 177.085, 143.079 199.701, 160.530 229 C 172.160 248.525, 187.675 274.400, 195.008 286.500 C 202.340 298.600, 211.525 314.206, 215.420 321.180 L 222.500 333.860 222.804 329.445 C 223.168 324.162, 214.175 306.437, 189.346 263.500 C 181.077 249.200, 169.899 229.850, 164.506 220.500 C 155.732 205.287, 132.285 165.976, 131.517 165.191 C 131.351 165.021, 128.436 164.040, 125.039 163.012 L 118.863 161.142 120.278 163.321 M 138.055 169.115 C 138.754 170.427, 143.692 178.700, 149.030 187.500 C 154.367 196.300, 163.139 211.150, 168.522 220.500 C 173.906 229.850, 185.078 249.200, 193.349 263.500 C 201.620 277.800, 211.787 295.959, 215.943 303.852 L 223.500 318.205 223.776 302.434 C 224.048 286.934, 224.011 286.620, 221.624 284.082 C 220.289 282.662, 215.248 274.326, 210.422 265.558 C 205.596 256.789, 200.264 248.014, 198.574 246.058 C 194.106 240.887, 191.386 236.804, 190.526 233.981 C 190.110 232.616, 188.965 230.600, 187.981 229.500 C 186.997 228.400, 185.461 225.925, 184.568 224 C 183.675 222.075, 181.382 218.045, 179.472 215.044 C 177.562 212.044, 176 208.347, 176 206.829 C 176 205.207, 174.799 202.702, 173.088 200.753 C 171.486 198.928, 169.028 195.278, 167.625 192.640 C 166.223 190.002, 163.570 185.741, 161.731 183.172 C 157.605 177.407, 156.864 175.536, 158.185 174.215 C 159.117 173.283, 150.111 169.987, 139.642 167.428 C 136.884 166.753, 136.829 166.812, 138.055 169.115 M 367.094 171.288 C 365.220 171.955, 362.772 173.734, 361.654 175.243 C 359.495 178.155, 359.795 200.516, 363.027 277.500 C 363.558 290.150, 364.438 311.075, 364.981 324 C 365.912 346.131, 367.030 376.862, 368.555 422.254 C 369.144 439.796, 369.440 442.289, 371.189 444.514 C 375.338 449.787, 375.275 451.753, 373.073 385.500 C 371.873 349.398, 370.369 281.990, 369.365 219.331 L 368.689 177.163 371.594 176.831 C 374.083 176.548, 374.500 176.069, 374.500 173.500 C 374.500 169.987, 372.460 169.378, 367.094 171.288 M 169 175.511 C 169 175.867, 178.849 194.234, 190.888 216.329 C 202.926 238.423, 215.390 261.759, 218.586 268.186 C 221.782 274.614, 224.757 279.650, 225.198 279.377 C 225.639 279.105, 226 273.903, 226 267.819 C 226 258.651, 225.769 256.947, 224.652 257.874 C 222.570 259.602, 221.036 257.441, 211.251 239 C 204.382 226.056, 183.903 188.651, 181.806 185.222 C 180.181 182.563, 180.037 181.661, 181.043 180.448 C 182.551 178.632, 182.586 178.661, 177 177.117 C 174.525 176.432, 171.713 175.646, 170.750 175.369 C 169.787 175.092, 169 175.156, 169 175.511 M 335 176.079 C 321.774 178.113, 301.037 181.003, 295.782 181.546 C 290.957 182.044, 289.647 182.631, 287.401 185.300 L 284.739 188.464 285.381 246.982 C 286.196 321.191, 287.888 412.643, 288.593 420.639 C 288.997 425.214, 289.692 427.289, 291.318 428.780 C 294.040 431.276, 303.413 433.384, 305.892 432.058 C 307.102 431.410, 310.006 431.721, 315.081 433.041 C 330.900 437.158, 334.779 437.873, 342.950 438.181 C 351.083 438.488, 351.452 438.406, 352.767 436 C 353.901 433.924, 354.029 421.874, 353.521 365 C 353.185 327.325, 352.885 270.223, 352.856 238.106 L 352.802 179.711 350.447 177.356 C 347.883 174.792, 344.951 174.550, 335 176.079 M 163.131 176.898 C 162.052 177.582, 162.579 178.897, 165.631 183.136 C 167.759 186.091, 170.625 190.668, 172 193.308 C 173.375 195.948, 175.585 199.096, 176.911 200.304 C 178.237 201.512, 179.084 202.050, 178.794 201.500 C 175.727 195.702, 164.817 176.004, 164.680 176.015 C 164.581 176.024, 163.884 176.421, 163.131 176.898 M 336.803 179.703 C 334.539 179.955, 333.250 180.577, 333.476 181.307 C 333.679 181.963, 334.115 208.375, 334.446 240 C 334.776 271.625, 335.516 327.163, 336.089 363.418 C 336.663 399.673, 336.885 430.322, 336.583 431.527 C 336.073 433.556, 336.483 433.766, 342.119 434.355 C 345.467 434.705, 348.643 434.721, 349.177 434.391 C 349.802 434.004, 349.893 400.965, 349.431 341.645 C 349.036 290.965, 348.666 233.750, 348.607 214.500 L 348.500 179.500 344.500 179.396 C 342.300 179.338, 338.836 179.476, 336.803 179.703 M 185.754 185.137 C 188.311 189.318, 209.540 228.166, 216.281 241 C 222.460 252.763, 223.420 253.838, 222.716 248.206 C 221.973 242.273, 194.175 185.383, 191.156 183.619 C 190.795 183.408, 188.969 182.907, 187.099 182.505 L 183.698 181.775 185.754 185.137 M 320 183.309 L 316.500 184.504 316.543 214.502 C 316.580 240.618, 317.999 290.223, 319.561 320 C 319.835 325.225, 320.475 339.400, 320.983 351.500 C 322.256 381.820, 324.024 417.264, 324.632 424.652 C 325.136 430.774, 325.155 430.807, 328.671 431.466 C 330.614 431.831, 332.412 431.921, 332.666 431.668 C 333.097 431.236, 331.673 315.467, 330.523 257.500 C 330.239 243.200, 330.006 220.363, 330.004 206.750 L 330 182 326.750 182.056 C 324.962 182.087, 321.925 182.651, 320 183.309 M 223 185.359 C 223 186.722, 222.727 188.548, 222.393 189.418 C 221.995 190.456, 222.338 191, 223.393 191 C 225.221 191, 225.741 184.576, 224 183.500 C 223.436 183.152, 223 183.962, 223 185.359 M 310 183.888 C 307.723 184.295, 306.937 184.793, 307.750 185.315 C 308.736 185.949, 309 206.869, 309 284.397 C 309 338.451, 309.296 392.852, 309.658 405.289 L 310.316 427.902 315.207 428.951 C 317.897 429.528, 320.265 430, 320.469 430 C 320.881 430, 320.585 423.007, 318.503 383.500 C 317.720 368.650, 316.824 350.200, 316.511 342.500 C 316.198 334.800, 315.714 323.325, 315.436 317 C 312.261 244.820, 311.178 186.695, 312.968 184.538 C 313.671 183.692, 314.077 183.059, 313.872 183.132 C 313.668 183.204, 311.925 183.544, 310 183.888 M 211.744 209.883 C 223.844 233.487, 224.516 234.560, 224.813 230.765 C 225.041 227.855, 224.588 226.182, 223.150 224.632 C 222.063 223.459, 217.312 214.625, 212.593 205 C 203.316 186.080, 202.661 185, 200.455 185 C 199.469 185, 203.168 193.152, 211.744 209.883 M 262 186.630 C 259.525 187.417, 253.827 188.195, 249.339 188.357 C 239.725 188.706, 236.384 190.370, 235.508 195.242 C 235.187 197.034, 235.053 247.252, 235.212 306.837 L 235.500 415.173 238.306 417.587 C 241.597 420.417, 246.237 420.726, 250.854 418.423 C 254.246 416.731, 257.910 418.117, 263.688 423.278 C 267.399 426.592, 274.257 426.760, 276.746 423.596 L 278.812 420.969 278.280 304.734 C 277.811 202.382, 277.565 188.291, 276.219 186.750 C 274.358 184.620, 268.472 184.570, 262 186.630 M 292.329 189.584 C 291.520 191.694, 293.749 358.705, 295.012 390.500 C 296.171 419.699, 296.615 424, 298.472 424 C 300.747 424, 301.338 409.141, 300.640 369.500 C 300.282 349.150, 299.946 311.125, 299.894 285 C 299.842 258.875, 299.557 226.363, 299.261 212.750 L 298.722 188 295.830 188 C 294.113 188, 292.690 188.644, 292.329 189.584 M 214.050 191.781 C 214.078 192.177, 216.126 196.325, 218.602 201 C 223.369 210.001, 223.487 209.612, 219.272 198.792 C 217.132 193.296, 213.848 188.888, 214.050 191.781 M 266.750 191.689 C 264.620 192.246, 264.495 213.043, 266.044 309.500 C 267.135 377.472, 268.031 396.459, 270.251 398.679 C 272.602 401.031, 273.195 366.561, 272.397 273.834 C 271.624 184.127, 272.049 190.305, 266.750 191.689 M 242 192.729 C 241.175 193.043, 240.169 193.795, 239.765 194.400 C 238.568 196.193, 238.833 411.819, 240.035 414.066 C 240.691 415.292, 242.127 416, 243.956 416 C 246.761 416, 246.860 415.825, 247.520 409.657 C 247.894 406.168, 247.954 399.756, 247.653 395.407 C 247.353 391.058, 247.083 343.513, 247.053 289.750 C 246.995 183.148, 247.387 190.678, 242 192.729 M 252 299.875 C 252 359.206, 251.704 409.232, 251.341 411.043 C 250.767 413.914, 250.909 414.249, 252.454 413.656 C 253.524 413.245, 255.564 413.804, 257.609 415.067 L 260.992 417.158 260.506 405.329 C 259.886 390.240, 259.017 291.536, 259.007 235.250 L 259 192 255.500 192 L 252 192 252 299.875 M 180 207.050 C 180 209.653, 182.567 214.770, 185.494 218 C 186.739 219.375, 188.280 222.133, 188.917 224.129 C 189.554 226.125, 190.918 228.521, 191.948 229.453 C 192.978 230.385, 194.087 232.210, 194.413 233.508 C 195.198 236.636, 199.152 242.745, 200.849 243.451 C 201.656 243.788, 201.211 242.305, 199.739 239.757 C 198.387 237.415, 193.570 228.637, 189.036 220.250 C 184.501 211.863, 180.613 205, 180.395 205 C 180.178 205, 180 205.922, 180 207.050 M 67.125 210.923 C 65.554 211.894, 67.099 218.007, 69.398 219.915 C 70.430 220.772, 70.663 220.073, 70.542 216.491 C 70.374 211.529, 69.211 209.633, 67.125 210.923 M 73.074 226.410 C 71.486 228.324, 77.309 235.203, 79.730 234.273 C 80.930 233.813, 81.185 234.077, 80.717 235.295 C 80.370 236.199, 80.739 238.190, 81.537 239.719 C 82.335 241.249, 82.997 242.950, 83.007 243.500 C 83.018 244.050, 86.318 248.079, 90.339 252.453 L 97.652 260.407 100.280 256.539 L 102.908 252.671 99.870 248.836 C 98.199 246.726, 97.183 245, 97.612 245 C 98.041 245, 96.887 243.447, 95.048 241.549 C 93.208 239.652, 91.208 238.189, 90.602 238.299 C 89.996 238.410, 89.354 236.925, 89.175 235 C 88.790 230.841, 85.278 226.524, 83.489 228.009 C 82.672 228.687, 81.742 228.372, 80.497 226.996 C 78.394 224.673, 74.755 224.386, 73.074 226.410 M 87.324 243.284 C 86.999 243.810, 88.143 245.344, 89.867 246.693 C 91.590 248.041, 93 249.772, 93 250.537 C 93 252.231, 96.656 254.366, 97.425 253.121 C 97.726 252.635, 96.866 250.609, 95.516 248.619 C 94.165 246.628, 93.362 245, 93.730 245 C 94.099 245, 93.867 244.467, 93.216 243.816 C 91.735 242.335, 88.113 242.009, 87.324 243.284 M 0.750 274.574 C -1.330 276.679, 0.654 280.202, 9.155 289.500 C 14.184 295, 26.217 308.725, 35.894 320 C 45.572 331.275, 65.643 353.953, 80.495 370.395 C 126.750 421.600, 145.005 442.616, 144.996 444.649 C 144.991 445.802, 137.040 449, 134.177 449 C 132.591 449, 128.862 445.956, 122.187 439.211 C 105.407 422.255, 48.866 363.102, 35.483 348.500 C 1.006 310.885, 0.761 310.662, 0.312 316.504 C 0.132 318.844, 1.561 320.881, 8.326 327.926 C 12.855 332.642, 21.722 342.120, 28.030 348.990 C 34.339 355.859, 55.700 378.541, 75.500 399.393 C 123.847 450.311, 127.314 454.024, 126.877 454.426 C 126.670 454.616, 123.387 456.009, 119.583 457.522 L 112.665 460.271 78.583 425.881 C 59.837 406.966, 34.964 381.662, 23.309 369.650 C 3.589 349.326, -0.005 346.421, 0.003 350.809 C 0.005 351.739, 24.530 377.228, 54.503 407.450 C 84.476 437.673, 108.662 462.700, 108.250 463.066 C 107.265 463.939, 91.133 470, 89.792 470 C 88.747 470, 70.899 453.187, 26.206 410.105 C 9.852 394.341, 1.583 387.017, 0.903 387.697 C -0.222 388.822, 16.437 405.324, 68.268 454.431 L 85.035 470.317 76.268 473.638 C 71.445 475.465, 66.600 476.952, 65.500 476.942 C 63.450 476.924, 49.418 465.219, 19.010 438.164 C 6.457 426.995, 1.473 423.127, 0.671 423.929 C -0.131 424.731, 1.052 426.317, 5.026 429.765 C 8.028 432.369, 16.525 439.900, 23.910 446.500 C 31.294 453.100, 42.548 462.929, 48.918 468.343 C 55.288 473.756, 60.847 478.513, 61.270 478.913 C 61.694 479.313, 56.317 481.910, 49.321 484.683 L 36.601 489.725 29.551 483.596 C 15.452 471.339, 1.963 460.905, 0.993 461.504 C 0.447 461.842, -0 463.340, -0 464.834 C -0 467.106, 2.297 469.458, 14.042 479.218 L 28.084 490.886 22.292 493.693 C 19.107 495.237, 16.500 497.161, 16.500 497.970 C 16.500 501.364, 28.541 499.392, 35 494.940 C 36.375 493.993, 42.900 491.181, 49.500 488.693 C 56.100 486.204, 67.575 481.878, 75 479.079 C 82.425 476.279, 89.024 473.992, 89.665 473.995 C 91.555 474.003, 107.367 467.833, 109 466.449 C 110.995 464.759, 130.039 457, 132.193 457 C 135.547 457, 147.848 451.790, 150.065 449.431 C 151.944 447.430, 152.145 446.635, 151.242 444.760 C 149.456 441.051, 124.936 412.288, 99.413 383.962 C 71.532 353.021, 55.063 334.305, 34.216 309.873 C 16.136 288.683, 1.776 273.536, 0.750 274.574 M 117.262 284.138 C 115.680 285.720, 119.832 293.454, 124.943 298.445 C 128.819 302.229, 128.940 302.270, 131.446 300.627 C 132.851 299.707, 134 298.262, 134 297.417 C 134 295.521, 127.001 287, 125.443 287 C 124.820 287, 123.495 286.100, 122.500 285 C 120.450 282.735, 118.917 282.483, 117.262 284.138 M 123.092 291 C 124.975 294.342, 128.153 298, 129.174 298 C 131.108 298, 129.544 295.253, 125.757 292 C 122.220 288.961, 121.869 288.829, 123.092 291 M 142 316.450 C 142 318.210, 145.689 324.233, 162.105 349.273 C 175.577 369.823, 208.147 419.228, 208.672 419.911 C 208.846 420.137, 210.678 419.462, 212.744 418.411 C 214.810 417.360, 216.636 416.439, 216.803 416.364 C 217.112 416.225, 213.706 411.317, 194.345 384 C 163.093 339.905, 144.473 315, 142.758 315 C 142.341 315, 142 315.653, 142 316.450 M 265 409.832 C 265 421.758, 265.105 421.946, 271.750 421.986 C 273.937 422, 274 421.715, 274 411.800 C 274 403.959, 273.727 401.873, 272.819 402.781 C 271.911 403.689, 270.871 403.376, 268.319 401.430 L 265 398.898 265 409.832 M 230 428.707 C 227.694 429.551, 158.655 461.236, 139.500 470.241 C 130.150 474.637, 119.350 479.468, 115.500 480.978 C 111.650 482.488, 101.890 486.307, 93.811 489.465 C 78.916 495.288, 74.028 498.306, 77.399 499.600 C 78.321 499.954, 81.634 499.099, 84.786 497.695 C 93.499 493.812, 110.905 487, 112.113 487 C 112.703 487, 128.557 479.852, 147.343 471.115 C 180.430 455.727, 211.876 441.266, 224.770 435.509 L 231.041 432.709 243.770 435.429 C 250.772 436.925, 270.675 441.290, 288 445.129 C 316.146 451.365, 327.177 453.701, 363.395 461.092 C 370.705 462.583, 373.578 462.817, 374.395 461.988 C 375.962 460.396, 372.848 458.311, 367.658 457.477 C 362.613 456.666, 317.868 447.294, 298.500 442.991 C 290.800 441.280, 279.550 438.781, 273.500 437.437 C 267.450 436.092, 256.105 433.637, 248.289 431.980 C 240.473 430.323, 233.498 428.785, 232.789 428.563 C 232.080 428.340, 230.825 428.405, 230 428.707" stroke="none" fill="#000000" fill-rule="evenodd"/>
</svg>