<svg xmlns="http://www.w3.org/2000/svg" width="500" height="344" viewBox="0 0 500 344" version="1.1">
	<rect x="0" y="0" width="100%" height="100%" fill="#FFFFFF" />
	<path d="M 196.017 4.581 L 191.119 9.162 183.310 6.425 C 172.634 2.685, 161.724 2.085, 152.986 4.758 C 142.534 7.956, 135.746 8.454, 131.822 6.313 C 129.113 4.835, 126.285 4.512, 116.500 4.565 C 79.465 4.766, 55 27.295, 55 61.198 L 55 71.185 49.421 77.343 C 46.353 80.729, 42.078 86.139, 39.921 89.364 C 37.765 92.589, 36 94.794, 36 94.263 C 36 91.369, 38.696 86.166, 41.404 83.832 C 43.894 81.686, 44.255 80.914, 43.250 79.882 C 42.563 79.177, 42 76.755, 42 74.500 C 42 72.245, 41.476 69.876, 40.835 69.235 C 40.194 68.594, 39.739 66.305, 39.823 64.148 C 40.036 58.716, 38.397 57.596, 33.015 59.495 C 30.669 60.323, 27.649 61, 26.304 61 C 22.895 61, 15 66.621, 15 69.048 C 15 71.169, 13.963 71.563, 12.426 70.026 C 11.795 69.395, 10.455 69.570, 8.612 70.526 C 7.050 71.337, 5.158 72, 4.409 72 C 1.859 72, -0.133 76.565, 0.192 81.663 C 0.366 84.394, 0.965 86.418, 1.568 86.311 C 2.204 86.198, 2.461 87.314, 2.203 89.070 C 1.622 93.031, 3.585 95.190, 7.420 94.808 C 11.257 94.424, 12.177 97.625, 9.044 100.460 C 7.920 101.478, 7 103.281, 7 104.468 C 7 105.655, 5.656 107.914, 4.012 109.488 C 2.369 111.062, 0.736 113.889, 0.383 115.769 C -0.910 122.664, 4.434 131.949, 8.883 130.537 C 11.983 129.553, 17.113 121.229, 18.642 114.700 C 19.389 111.511, 20.675 107.595, 21.500 106 C 22.325 104.405, 23 102.392, 23 101.527 C 23 99.545, 15.456 91.279, 12.908 90.471 C 11.858 90.138, 11 89.299, 11 88.607 C 11 87.915, 9.888 86.304, 8.529 85.028 C 6.367 82.997, 5.844 82.881, 4.342 84.103 C 2.820 85.341, 2.704 85.292, 3.313 83.668 C 3.691 82.661, 4.004 80.636, 4.008 79.168 C 4.021 74.749, 8.446 73.356, 12.265 76.570 C 16.107 79.802, 19.010 77.885, 18.798 72.257 C 18.637 67.973, 21.485 65.471, 27.430 64.674 C 29.669 64.373, 32.588 63.802, 33.919 63.403 C 35.849 62.825, 36.218 62.989, 35.748 64.215 C 35.424 65.060, 35.798 66.984, 36.579 68.490 C 37.361 69.996, 38 72.951, 38 75.055 C 38 77.160, 38.489 79.184, 39.087 79.554 C 39.774 79.978, 39.092 81.379, 37.232 83.363 C 33.951 86.861, 33.259 88.413, 31.973 95.165 C 31.484 97.731, 29.514 102.284, 27.595 105.285 C 22.174 113.759, 19.865 131.684, 21.160 155.255 L 21.640 164.011 19.070 161.777 C 17.657 160.548, 14.925 158.135, 13 156.414 C 8.429 152.329, 7.055 151.937, 3.110 153.596 C -0.332 155.043, -0.701 157.709, 2.608 157.221 C 7.604 156.484, 8.926 156.946, 12.345 160.625 C 14.325 162.756, 15.958 165.232, 15.973 166.128 C 16.012 168.481, 18.374 170.226, 19.711 168.889 C 20.462 168.138, 20.972 168.145, 21.446 168.913 C 21.816 169.511, 21.886 170, 21.603 170 C 21.320 170, 21.747 171.865, 22.551 174.145 C 24.894 180.786, 25.075 183.260, 23.356 185.159 C 22.307 186.319, 21.914 188.138, 22.195 190.542 C 22.607 194.078, 22.543 194.159, 19.739 193.598 C 16.698 192.990, 12.289 194.742, 10.039 197.453 C 8.475 199.338, 11.403 203.443, 13.687 202.567 C 14.409 202.290, 15 202.724, 15 203.531 C 15 204.339, 14.395 205, 13.655 205 C 11.675 205, 9 208.336, 9 210.806 C 9 213.160, 13.288 216.558, 14.956 215.527 C 17.670 213.850, 17.604 216.503, 14.835 220.431 C 12.825 223.283, 12.047 225.267, 12.592 226.148 C 13.051 226.891, 13.299 228.711, 13.144 230.193 C 12.743 234.010, 7.162 255.830, 7.073 253.924 C 6.947 251.198, 2.187 247.410, 0.737 248.881 C -0.246 249.878, -0.193 250.381, 1 251.337 C 4.049 253.782, 5.131 257.184, 4.899 263.591 C 4.771 267.116, 4.932 270.265, 5.256 270.589 C 6.086 271.420, 4.959 278.016, 3.476 281 C 1.385 285.208, -0.351 303.947, 1.017 307.544 C 1.554 308.957, 1.556 310.156, 1.023 310.486 C -1.134 311.819, 0.528 316.496, 3.519 317.511 C 10.169 319.767, 10.798 320.585, 7.735 322.994 C 5.858 324.470, 5 326.072, 5 328.097 C 5 330.351, 4.389 331.282, 2.419 332.031 C 0.999 332.571, 0.024 333.572, 0.252 334.256 C 1.532 338.100, 9 333.712, 9 329.115 C 9 326.595, 10.840 324.552, 15.739 321.634 C 17.188 320.771, 16.677 322.766, 14.170 327.761 C 12.836 330.420, 12.761 331.388, 13.767 332.998 C 15.325 335.493, 15.361 340.239, 13.833 341.767 C 12.943 342.657, 13.096 343.100, 14.477 343.630 C 18.184 345.052, 20.539 337.438, 17.767 332.998 C 16.748 331.366, 16.865 330.407, 18.438 327.485 C 20.926 322.865, 22.362 323.510, 23.093 329.579 C 23.758 335.094, 26.116 341.021, 28.398 342.916 C 31.333 345.351, 31.817 342.995, 29.409 338.002 C 28.084 335.256, 27 331.254, 27 329.108 C 27 325.914, 26.376 324.659, 23.557 322.184 C 20.275 319.303, 20.169 319.003, 21.307 315.830 C 21.963 313.999, 23.497 311.692, 24.716 310.704 C 25.934 309.717, 28.362 306.225, 30.110 302.944 C 33.276 297.005, 34.045 296.288, 49.378 284.988 C 52.745 282.507, 57.823 278.187, 60.662 275.389 C 63.501 272.591, 67.442 269.347, 69.420 268.180 L 73.016 266.058 75.973 271.298 C 77.599 274.179, 80.858 278.817, 83.215 281.603 C 87.290 286.419, 96.145 297.465, 98.684 300.899 C 99.336 301.779, 100.348 307.675, 100.933 314 L 101.998 325.500 97.999 328.833 C 90.608 334.993, 94.122 342.131, 105.194 343.451 C 110.662 344.103, 111.030 343.998, 114.482 340.815 C 119.716 335.988, 122.394 324.909, 122.455 307.825 C 122.505 293.834, 121.774 291.761, 115.289 287.500 C 113.293 286.188, 111.630 283.779, 110.457 280.500 C 107.189 271.363, 102.064 260.856, 98.522 256.030 L 95.023 251.263 100.889 248.630 C 111.981 243.653, 115.154 242.821, 118.217 244.090 C 121.451 245.430, 124 244.014, 124 240.878 C 124 239.845, 124.152 239, 124.337 239 C 124.523 239, 129.135 237.655, 134.587 236.011 C 143.207 233.413, 146.065 233.022, 156.500 233.017 C 171.592 233.010, 174.379 233.805, 180.739 239.935 C 186.746 245.725, 191.848 247.352, 195.014 244.487 C 197.666 242.087, 198.242 239.767, 196.998 236.495 C 196.089 234.103, 196.251 233.507, 198.194 232.113 C 200.659 230.344, 212.542 223.600, 220.650 219.369 L 225.800 216.682 232.150 221.202 C 240.114 226.871, 244.890 229.291, 252.500 231.513 C 269.536 236.486, 270.223 236.827, 278.408 244.376 C 287.184 252.469, 287.758 253.953, 287.927 269 C 288.105 284.761, 291.402 298.519, 298.355 312.507 C 308.062 332.036, 314.194 338.235, 325.638 340.086 C 344.490 343.135, 358.674 344.337, 359.526 342.958 C 360.133 341.975, 355.320 338.450, 350.781 336.553 C 348.947 335.787, 342.031 334.455, 335.414 333.594 C 320.094 331.601, 317.533 330.701, 315.889 326.731 C 315.173 325.005, 311.910 319.521, 308.636 314.546 C 296.634 296.308, 294.688 289.156, 295.197 265.144 L 295.480 251.787 292.694 249.644 C 291.161 248.465, 286.542 244.477, 282.428 240.781 C 270.854 230.385, 268.870 229.141, 260.403 226.975 C 244.579 222.929, 233.649 215.910, 217.715 199.565 C 211.145 192.826, 208.591 190.799, 207.583 191.527 C 202.310 195.334, 187.195 209.268, 186.081 211.348 C 184.472 214.355, 186.650 230.212, 189.395 235.476 C 191.350 239.224, 190.045 240.897, 186.604 239.056 C 183.490 237.389, 183.038 235.507, 184.288 229.404 C 185.162 225.138, 185.007 223.804, 183.150 219.606 C 180.312 213.191, 180.433 211.540, 183.922 209.055 C 185.597 207.863, 187.609 204.953, 188.637 202.237 C 189.622 199.632, 192.169 194.467, 194.295 190.760 C 198.065 184.188, 198.143 183.852, 197.442 177.260 C 196.709 170.368, 192.232 160.410, 189.374 159.313 C 188.638 159.031, 186.140 160.195, 183.821 161.900 C 178.288 165.969, 177.307 165.864, 167.107 160.114 C 162.340 157.427, 155.528 154.487, 151.970 153.580 C 139.194 150.326, 134.456 147.306, 121.119 133.916 C 114.318 127.087, 106.938 119.116, 104.719 116.201 C 98.579 108.135, 98.046 108.046, 90.203 113.784 C 80.927 120.571, 80.804 120.627, 81.524 117.760 C 82.454 114.053, 79.661 112.218, 77.590 115.175 C 76.716 116.423, 76 117.755, 76 118.133 C 76 120.268, 67.183 134.061, 63.797 137.221 C 59.945 140.816, 59.823 141.129, 60.156 146.518 C 60.481 151.787, 60.382 152.064, 58.364 151.557 C 57.097 151.238, 55.708 151.647, 54.948 152.563 C 53.861 153.873, 54.490 154.965, 59.122 159.803 C 66.214 167.210, 74 178.982, 74 182.297 C 74 185.952, 72.106 189.700, 69.346 191.509 C 66.354 193.469, 66.411 196.012, 69.614 203.500 C 73.856 213.416, 76.733 223.042, 77.982 231.500 C 79.884 244.384, 80.595 246.217, 85.513 250.904 C 92.378 257.447, 95.778 263.020, 100.096 274.813 C 105.310 289.052, 106.945 292.069, 110.500 294.010 C 116.268 297.159, 117.489 314.096, 112.969 328.250 L 110.814 335 106.803 335 L 102.793 335 106.027 331.316 L 109.261 327.633 108.588 317.066 C 107.536 300.572, 107.414 300.179, 101.151 293.223 C 93.120 284.303, 84.706 272.887, 82.038 267.292 C 80.781 264.656, 78.829 260.700, 77.700 258.500 C 76.572 256.300, 74.490 252.218, 73.074 249.430 C 71.658 246.641, 68.640 242.141, 66.368 239.430 C 64.095 236.718, 59.544 230.450, 56.255 225.500 C 49.708 215.646, 46.756 212.494, 44.787 213.255 C 44.079 213.529, 40.833 218.196, 37.574 223.627 C 31.906 233.070, 31.619 233.871, 31.012 242 C 30.368 250.622, 27.229 258.672, 18.544 273.985 C 15.799 278.824, 15.370 282.895, 17.088 287.823 C 18.020 290.496, 17.859 291.389, 15.967 294.046 C 14.449 296.179, 13.595 299.176, 13.237 303.633 C 12.871 308.194, 12.403 309.803, 11.658 309.058 C 11.076 308.476, 9.340 308, 7.800 308 C 4.605 308, 4.351 307.374, 6.558 304.936 C 7.428 303.975, 8.750 299.082, 9.551 293.857 C 10.341 288.711, 11.662 282.025, 12.488 279 C 13.314 275.975, 14.260 269.675, 14.589 265 C 14.919 260.325, 16.452 251.100, 17.997 244.500 C 19.541 237.900, 21.317 229.974, 21.944 226.886 C 23.148 220.949, 31.144 205.915, 36.128 200.215 C 39.647 196.191, 39.762 197.845, 34.998 183.995 C 30.157 169.919, 28.800 160.206, 29.552 145 C 30.611 123.584, 33.014 114.905, 42.054 99.846 C 50.630 85.559, 56.327 78.466, 58.265 79.664 C 58.739 79.957, 59.998 79.407, 61.063 78.443 C 62.780 76.889, 63 75.286, 63 64.349 C 63 48.023, 67.166 35.256, 75.160 27.087 C 86.630 15.365, 123.046 8.058, 131.308 15.820 C 133.697 18.064, 137.439 18.717, 138.458 17.067 C 138.775 16.554, 141.615 15.628, 144.767 15.008 C 147.920 14.388, 152.493 13.233, 154.928 12.441 C 160.682 10.569, 167.706 10.614, 175.356 12.574 C 183.129 14.566, 190.635 18.765, 189.123 20.277 C 188.355 21.045, 187.451 20.813, 185.965 19.468 C 184.271 17.935, 183.568 17.809, 182.191 18.794 C 177.293 22.300, 168.697 22.200, 158.267 18.516 C 147.811 14.824, 139 15.802, 139 20.655 C 139 21.395, 138.213 22.065, 137.250 22.145 C 126.851 23.007, 119.585 21.511, 114.859 17.535 C 109.379 12.924, 104.345 14.597, 94.200 24.403 C 90.247 28.224, 85.206 31.806, 80.696 34 C 74.746 36.894, 73.447 37.958, 73.194 40.145 C 72.844 43.163, 76.542 63.276, 77.920 65.850 C 78.486 66.908, 78.440 68.249, 77.799 69.394 C 76.588 71.559, 77.623 82.841, 79.209 84.752 C 81.728 87.786, 86.036 76.263, 84.569 70.418 C 84.235 69.088, 84.325 68, 84.768 68 C 85.212 68, 85.645 68.941, 85.732 70.091 C 86.232 76.735, 92.023 80.412, 102.064 80.462 C 106.337 80.483, 110.148 80.816, 110.534 81.201 C 111.715 82.381, 106.113 83.287, 101.525 82.658 C 93.543 81.564, 93.679 83.816, 102.136 92.810 C 110.966 102.200, 116.983 111.010, 123.909 124.690 C 128.831 134.411, 133.464 140, 136.599 140 C 139.650 140, 150.971 145.953, 156.530 150.482 C 163.243 155.949, 168.134 156.320, 172.743 151.712 L 175.180 149.275 172.130 145.801 C 170.453 143.891, 167.287 141.085, 165.094 139.565 C 155.877 133.178, 151.373 122.361, 154.805 114.852 C 160.649 102.067, 173.994 94.372, 197 90.523 C 206.709 88.898, 211 86.407, 211 82.395 C 211 79.498, 214.273 74.437, 219.822 68.752 C 226.397 62.016, 225.991 60.510, 217.223 59.124 C 214.394 58.677, 211.409 57.754, 210.588 57.073 C 209.767 56.392, 208.202 56.119, 207.109 56.465 C 204.219 57.383, 202.923 54.310, 204.594 50.500 C 205.633 48.132, 205.919 47.932, 205.955 49.550 C 206.029 52.935, 208.059 54.256, 210.204 52.316 C 211.922 50.761, 212.206 50.823, 214.822 53.329 C 219.154 57.480, 224.182 57.053, 229.118 52.118 C 233.409 47.826, 233.962 45.181, 231.109 42.598 C 229.304 40.965, 229.113 41.032, 226.951 44.069 C 224.727 47.193, 224.573 47.240, 218.695 46.626 C 215.400 46.282, 212.088 45.488, 211.334 44.862 C 210.282 43.989, 209.491 44.151, 207.938 45.556 C 206.505 46.853, 206.048 46.966, 206.373 45.944 C 206.626 45.150, 207.112 43.233, 207.452 41.683 L 208.072 38.867 209.867 41.084 L 211.662 43.300 215.747 39.610 C 218.339 37.268, 220.081 36.322, 220.513 37.021 C 221.765 39.047, 225.992 40.075, 228.205 38.890 C 234.407 35.571, 235.647 35.842, 239.431 41.337 C 249.096 55.376, 252.580 75.246, 247.993 90.153 C 246.749 94.194, 245.587 99.300, 245.410 101.500 C 245.233 103.700, 244.596 107.975, 243.994 111 C 243.392 114.025, 242.436 119.200, 241.869 122.500 C 240.601 129.881, 234.481 143.244, 230.064 148.274 C 226.893 151.886, 226.836 152.101, 228.413 154.507 C 229.311 155.878, 230.542 157, 231.148 157 C 234.914 157, 227.054 171.564, 219.751 178.115 L 214.607 182.730 219.046 190.076 C 226.768 202.856, 229.154 204.917, 243.570 211.252 C 250.941 214.492, 252.757 214.860, 264.570 215.511 C 281.434 216.440, 283.092 214.967, 280.535 201.337 L 279.877 197.828 286.689 198.463 C 301.536 199.847, 327.432 208.363, 337 215.007 C 338.375 215.962, 341.926 217.966, 344.891 219.460 C 350.259 222.165, 362.309 231.079, 358.500 229.528 C 357.400 229.080, 352.981 227.917, 348.680 226.945 C 339.106 224.779, 331.290 221.755, 323.873 217.348 C 318.630 214.233, 317.831 214.048, 312.152 214.642 C 305.072 215.382, 301.764 217.806, 304.061 220.573 C 304.796 221.459, 308.846 224.396, 313.062 227.100 C 322.730 233.302, 329.159 240.097, 336.063 251.408 C 339.356 256.804, 343.274 261.733, 346 263.908 C 353.088 269.566, 360.751 277.911, 365.580 285.234 C 370.820 293.179, 372.537 294.421, 380.500 296.026 C 391.586 298.261, 402.700 305.812, 408.555 315.087 C 410.271 317.806, 411.788 318.925, 414.427 319.420 C 416.866 319.878, 418.852 321.210, 420.742 323.657 C 422.303 325.676, 425.888 328.346, 429 329.806 C 433.642 331.984, 434.129 332.448, 432.121 332.780 C 429.124 333.275, 421.767 330.508, 418.211 327.549 C 415.755 325.506, 410.311 323.206, 392.511 316.692 C 388.403 315.189, 385.104 313.046, 382.011 309.872 C 374.950 302.626, 354.982 294.879, 345.340 295.644 C 341.578 295.942, 336.490 295.721, 334.033 295.151 C 326.656 293.440, 325.358 296.177, 329.001 305.761 C 330.100 308.654, 331 312.732, 331 314.824 C 331 318.878, 332.942 321.294, 340 326.023 C 341.925 327.313, 345.234 329.902, 347.354 331.776 C 350.594 334.640, 351.726 335.086, 354.449 334.576 C 356.877 334.120, 358.363 334.498, 360.379 336.084 C 361.859 337.247, 364.854 338.439, 367.035 338.731 C 371.157 339.284, 372.125 340.354, 369.437 341.386 C 368.577 341.716, 368.153 342.439, 368.496 342.993 C 369.563 344.721, 374.604 344.096, 376.500 342 C 378.792 339.468, 380.622 339.448, 381.276 341.948 C 382.005 344.736, 387.382 344.285, 387.797 341.401 C 388.459 336.811, 384.781 334.754, 369.153 330.976 C 367.313 330.531, 364.838 329.286, 363.653 328.208 C 360.266 325.127, 357.757 324.200, 354.247 324.734 C 351.564 325.141, 350.319 324.617, 347.134 321.740 C 345.011 319.822, 342.522 317.832, 341.603 317.318 C 340.684 316.803, 339.075 313.552, 338.028 310.092 L 336.123 303.800 339.811 304.503 C 341.840 304.889, 347.100 305.320, 351.500 305.460 C 360.712 305.753, 367.791 308.734, 377.873 316.563 C 383.086 320.611, 407.146 331, 411.309 331 C 411.984 331, 414.210 332.138, 416.256 333.528 C 418.302 334.918, 421.964 336.427, 424.394 336.881 C 426.824 337.335, 430.040 338.673, 431.541 339.853 C 436.477 343.736, 442 341.546, 442 335.706 C 442 332.233, 436.597 326.153, 431.500 323.891 C 429.300 322.915, 425.749 320.015, 423.608 317.447 C 421.467 314.880, 418.238 312.162, 416.431 311.407 C 414.624 310.652, 412.889 309.224, 412.574 308.234 C 410.440 301.509, 392.712 289.783, 382.118 288.089 C 378.607 287.528, 375.639 286.941, 375.521 286.784 C 375.403 286.628, 374.010 284.081, 372.426 281.125 C 370.459 277.454, 366.210 272.721, 359.023 266.195 C 351.238 259.127, 347.329 254.687, 344 249.130 C 341.471 244.909, 335.558 237.582, 330.500 232.403 L 321.500 223.187 327 225.953 C 330.025 227.475, 336.209 229.943, 340.743 231.439 C 348.120 233.874, 348.881 234.354, 347.993 236.014 C 346.462 238.874, 346.732 239.697, 350.610 243.990 C 356.192 250.169, 360.642 251.069, 366.693 247.242 C 374.396 242.371, 376.825 242.273, 383.533 246.564 C 391.151 251.437, 400.706 252.945, 411.273 250.942 C 415.248 250.188, 420.656 249.555, 423.290 249.536 L 428.081 249.500 430.552 256.798 C 435.543 271.539, 438.978 276.867, 448.955 285.353 C 453.984 289.630, 458.487 294.151, 458.962 295.400 C 460.195 298.642, 457.622 309.885, 454.277 315.877 L 451.504 320.843 453.926 323.421 C 459.375 329.221, 473.711 323.381, 475.557 314.609 C 475.917 312.899, 477.514 309.195, 479.106 306.378 C 482.831 299.786, 482.776 299.155, 477.977 293.359 C 475.764 290.686, 473.495 286.700, 472.936 284.500 C 470.844 276.275, 467.626 268.798, 463.871 263.438 C 459.028 256.523, 458.681 253.863, 463.055 257.182 C 464.736 258.457, 468.061 260.626, 470.444 262.001 C 472.827 263.377, 480.074 269.582, 486.548 275.791 C 494.544 283.458, 498.647 286.753, 499.339 286.061 C 500.750 284.650, 477.359 261.748, 471.214 258.523 C 468.621 257.162, 465.440 255.140, 464.145 254.029 L 461.791 252.010 463.761 242.231 C 465.692 232.652, 465.846 232.335, 471.345 226.703 C 475.799 222.141, 477.284 219.772, 478.538 215.227 C 479.407 212.077, 481.875 205.900, 484.021 201.500 C 486.168 197.100, 488.357 191.025, 488.886 188 C 489.415 184.975, 490.310 180.700, 490.875 178.500 C 491.441 176.300, 492.244 172.250, 492.661 169.500 C 493.402 164.604, 493.432 164.687, 494.104 173.500 C 495.149 187.213, 494.168 197.688, 491.360 202.785 C 490.062 205.142, 489 208.368, 489 209.954 C 489 215.018, 488.117 216.113, 484.570 215.447 C 480.541 214.691, 478.301 216.826, 479.931 219.870 C 480.519 220.969, 481 222.764, 481 223.858 C 481 224.951, 482.171 227.238, 483.601 228.938 C 486.521 232.408, 486.242 234.684, 482.836 235.172 C 475.100 236.281, 480.010 250.579, 488.954 252.987 C 491.004 253.540, 493.459 254.849, 494.407 255.898 C 496.188 257.865, 499.135 258.095, 499.729 256.313 C 499.915 255.756, 499.377 254.728, 498.533 254.028 C 497.690 253.328, 497 253.075, 497 253.466 C 497 253.858, 495.615 253.013, 493.923 251.589 C 492.231 250.165, 490.051 249, 489.078 249 C 486.930 249, 484.505 246.459, 483.083 242.718 C 482.140 240.239, 482.283 239.843, 484.412 239.033 C 489.843 236.968, 491.382 231.563, 487.500 228.187 C 486.125 226.991, 485 225.147, 485 224.088 C 485 223.030, 484.749 221.509, 484.442 220.709 C 484.027 219.628, 484.483 219.370, 486.220 219.702 C 489.447 220.319, 492.054 217.139, 492.677 211.828 C 493.216 207.230, 495.813 200.480, 496.701 201.368 C 496.993 201.659, 496.729 203.338, 496.116 205.098 C 494.714 209.118, 494.660 217.672, 496.031 218.519 C 497.159 219.217, 496.510 224.765, 494.764 229.344 C 493.887 231.643, 494.019 232.763, 495.452 235.189 C 496.714 237.325, 497.051 239.282, 496.619 241.978 C 496.034 245.640, 497.719 248.948, 499.342 247.325 C 500.447 246.219, 500.073 235.163, 498.906 234.442 C 498.263 234.044, 498.089 232.681, 498.485 231.133 C 499.559 226.932, 499.917 193.618, 498.901 192.387 C 498.340 191.707, 498.403 188.249, 499.062 183.508 C 499.830 177.987, 499.833 175.433, 499.071 174.671 C 498.482 174.082, 498 171.807, 498 169.614 C 498 166.908, 497.307 164.892, 495.842 163.332 L 493.685 161.036 496.513 158.768 C 498.069 157.521, 499.828 156.162, 500.421 155.750 C 501.153 155.241, 501.028 154.697, 500.034 154.057 C 499.098 153.456, 498.119 153.486, 497.329 154.142 C 496.356 154.949, 496.302 154.455, 497.077 151.835 C 497.619 150.001, 498.516 144.985, 499.070 140.689 C 500.073 132.914, 500.063 132.853, 496.842 127.225 C 495.040 124.075, 493.697 120.393, 493.810 118.913 C 494.064 115.583, 491.620 113.241, 489.622 114.899 C 487.817 116.397, 487.393 114.726, 487.107 105 C 486.643 89.146, 481.897 77.015, 471.118 64.130 C 467.607 59.933, 462.829 53.575, 460.500 50 C 458.171 46.425, 455.030 42.375, 453.521 41 C 452.012 39.625, 449.047 35.966, 446.931 32.868 C 441.215 24.496, 436.271 21.010, 427.833 19.402 C 419.376 17.791, 418 16.806, 418 12.364 C 418 10.499, 417.457 8.104, 416.794 7.042 C 415.806 5.460, 415.908 4.759, 417.360 3.155 C 420.216 -0.001, 417.258 -0.713, 414.161 2.385 C 411.898 4.648, 411.702 5.294, 412.765 6.995 C 413.444 8.083, 414 10.835, 414 13.111 C 414 17.213, 413.972 17.244, 410.875 16.625 C 409.156 16.281, 406.851 16, 405.753 16 C 404.123 16, 403.976 15.734, 404.956 14.553 C 406.484 12.712, 405.344 2.530, 403.432 0.944 C 401.064 -1.022, 400.207 0.726, 401.126 5.647 C 402.222 11.513, 402.016 11.696, 399.102 7.443 C 397.248 4.738, 396.998 3.708, 397.923 2.593 C 398.776 1.565, 398.793 0.990, 397.986 0.491 C 396.382 -0.500, 392.810 3.062, 393.529 4.935 C 393.858 5.794, 392.772 5.197, 391.114 3.609 C 388.948 1.534, 386.955 0.657, 384.028 0.492 C 378.209 0.164, 378.203 1.430, 384.002 5.597 C 387.004 7.754, 389.936 10.940, 391.160 13.375 C 392.300 15.644, 393.925 18.287, 394.771 19.250 C 396.198 20.873, 396.077 21, 393.105 21 C 391.343 21, 388.551 20.302, 386.900 19.448 C 385.250 18.595, 383.076 18.159, 382.068 18.478 C 379.585 19.267, 378.880 17.001, 380.235 12.585 C 382.025 6.754, 375.752 1.222, 372.768 6 C 371.841 7.485, 370.436 8, 367.316 8 C 362.575 8, 360 10.488, 360 15.068 C 360 20.286, 352.044 23.916, 348.702 20.223 C 347.140 18.497, 347.115 18.149, 348.475 17.021 C 349.314 16.325, 350.004 15.248, 350.010 14.628 C 350.015 14.007, 351.228 11.025, 352.706 8 C 354.183 4.975, 355.416 2.050, 355.446 1.500 C 355.516 0.201, 350.846 -0.060, 349.339 1.158 C 348.668 1.701, 347.946 1.721, 347.627 1.205 C 347.324 0.715, 343.121 0.447, 338.288 0.610 C 306.232 1.694, 301.722 1.986, 300.420 3.066 C 299.645 3.710, 298.005 3.973, 296.775 3.651 C 295.198 3.239, 293.742 3.831, 291.830 5.663 C 288.868 8.500, 286 8.265, 286 5.186 C 286 1.437, 282.565 -0.328, 276.778 0.446 C 270.063 1.345, 255.940 1.453, 252.663 0.630 C 249.166 -0.247, 243.643 4.352, 244.268 7.622 C 244.658 9.661, 244.223 9.994, 240.423 10.564 C 236.017 11.225, 226.674 8.900, 225.391 6.824 C 223.738 4.148, 212.382 0.002, 206.707 0.001 C 201.205 0, 200.668 0.230, 196.017 4.581 M 454.342 3.601 C 452.318 6.690, 453.320 9.005, 457.294 10.422 C 462.663 12.336, 465.008 6.724, 460.365 3.073 C 456.980 0.410, 456.400 0.460, 454.342 3.601 M 249.122 4.899 C 245.118 7.449, 251.671 8.975, 256 6.500 L 258.500 5.071 255.832 5.035 C 254.364 5.016, 252.564 4.780, 251.832 4.511 C 251.099 4.241, 249.880 4.416, 249.122 4.899 M 272.500 5.012 C 271.400 5.491, 268.628 5.639, 266.340 5.341 C 260.378 4.565, 258.326 5.900, 261.026 8.797 C 262.154 10.009, 263.698 11, 264.455 11 C 265.212 11, 268.358 13.791, 271.445 17.202 C 276.411 22.690, 277.448 23.379, 280.438 23.177 C 284.940 22.874, 292.327 32.024, 293.409 39.245 C 293.901 42.525, 294.787 44.285, 296.514 45.417 C 299.832 47.592, 299.416 47.973, 304.200 38.362 C 308.940 28.840, 317.301 19, 320.652 19 C 321.795 19, 323.910 18.072, 325.353 16.937 C 326.795 15.803, 331.087 14.144, 334.891 13.251 C 341.089 11.797, 341.973 11.281, 343.403 8.280 C 344.282 6.439, 345 4.834, 345 4.713 C 345 4.451, 334.487 4.692, 315.665 5.386 C 307.357 5.692, 301.270 6.361, 300.428 7.060 C 299.657 7.700, 297.965 7.957, 296.669 7.632 C 294.956 7.202, 293.674 7.718, 291.981 9.520 C 290.700 10.884, 289.115 12, 288.461 12 C 286.348 12, 282 7.913, 282 5.927 C 282 3.809, 276.483 3.277, 272.500 5.012 M 200.452 10.646 C 197.691 13.626, 197.245 15.504, 199.506 14.636 C 200.987 14.068, 204.104 17.887, 208.248 25.351 C 209.321 27.283, 209.997 27.845, 209.998 26.806 C 210.001 23.623, 214.634 19.347, 216.689 20.631 C 218.573 21.807, 218.779 23.437, 217.685 28.500 C 217.259 30.471, 217.542 32.162, 218.511 33.431 C 219.960 35.329, 220.025 35.325, 222.307 33.181 C 224.083 31.513, 225.860 31, 229.869 31 C 232.750 31, 239.110 29.875, 244 28.500 C 255.680 25.216, 256.197 25.272, 260.672 30.307 C 262.777 32.676, 268.844 37.432, 274.154 40.876 C 281.668 45.750, 284.613 48.350, 287.438 52.604 C 292.787 60.660, 300.869 64.702, 301.805 59.790 C 302.044 58.536, 300.444 57.312, 295.816 55.206 C 289.231 52.210, 288.141 51.160, 275 35.166 C 264.238 22.066, 257.033 18.411, 242.548 18.702 C 230.721 18.939, 223.418 17.184, 218.590 12.945 C 212.097 7.244, 204.497 6.281, 200.452 10.646 M 372.811 10.431 C 370.163 12.763, 370.151 12.827, 372.061 14.555 C 373.127 15.520, 374 17.175, 374 18.232 C 374 20.638, 368.774 25.976, 366.327 26.070 C 362.951 26.200, 368.103 27.852, 372.128 27.930 C 377.575 28.035, 379.194 30.577, 375.718 33.567 C 371.932 36.823, 372.183 40.208, 376.500 44.136 C 379.310 46.693, 380 48.060, 380 51.066 C 380 53.882, 380.869 55.851, 383.507 59.008 C 385.435 61.317, 387.267 64.397, 387.576 65.853 C 388.875 71.963, 391.533 77.648, 394.176 79.968 C 395.729 81.330, 397 82.950, 397 83.568 C 397 85.350, 393.543 88, 391.218 88 C 387.270 88, 389.351 97.084, 395.166 105.233 C 400.246 112.352, 400.758 113.842, 398.800 115.800 C 395.155 119.445, 387.432 111.495, 386.763 103.409 L 386.543 100.751 377.522 101.279 C 365.492 101.983, 350.625 106.067, 339.875 111.619 C 330.850 116.280, 328.710 118.264, 320.181 129.872 C 311.895 141.150, 310.096 144.193, 306.303 153.345 C 304.080 158.708, 300.832 164.377, 298.248 167.403 C 293.019 173.530, 292.115 176.364, 294.536 179.040 C 298.279 183.175, 298.870 182.450, 303.507 168.039 C 306.973 157.269, 307.948 155.852, 315.685 150.331 C 322.889 145.190, 325.420 141.501, 323.768 138.549 C 322.609 136.479, 324.819 134.159, 336.675 125 L 342.500 120.500 356.500 120.412 C 369.026 120.333, 371.273 120.044, 377.846 117.662 C 386.513 114.521, 389.112 114.361, 391.345 116.829 C 393.661 119.388, 393.514 119.915, 388.918 125.476 C 383.786 131.686, 382.549 134.092, 380.581 141.689 C 377.611 153.150, 379.757 169.863, 386.257 185.882 C 388.496 191.398, 389.388 195.293, 389.493 200 C 389.573 203.575, 389.974 207.509, 390.384 208.741 C 390.992 210.570, 390.196 211.970, 386.065 216.338 C 380.571 222.147, 380.139 223.391, 382.655 226.171 C 384.198 227.876, 384.187 228.136, 382.487 230.014 C 381.358 231.262, 379.967 231.807, 378.832 231.447 C 373.249 229.675, 380.793 236.300, 388.753 240.160 C 396.936 244.127, 400.999 244.569, 411.663 242.649 C 423.155 240.580, 432.451 240.299, 434.452 241.960 C 435.303 242.667, 436 244.752, 436 246.594 C 436 251.020, 441.180 265.061, 444.957 270.874 C 446.610 273.418, 450.402 277.627, 453.384 280.227 C 456.367 282.827, 460.939 287.451, 463.546 290.502 L 468.285 296.049 467.119 303.111 C 466.477 306.995, 465.007 312.026, 463.851 314.291 L 461.750 318.410 464.070 316.870 C 466.589 315.197, 466.548 315.261, 470.581 306.560 C 474.071 299.028, 474.336 300.639, 467.136 285.670 C 460.113 271.067, 454.375 262.116, 450.077 259.054 C 444.778 255.282, 445.240 249.647, 450.800 250.233 C 453.593 250.528, 455.180 246.408, 456.576 235.238 C 457.261 229.752, 463.026 219.698, 467.507 216.173 C 468.687 215.245, 469.955 212.974, 470.325 211.126 C 470.694 209.279, 472.516 205.232, 474.372 202.134 C 478.635 195.021, 480.661 188.480, 481.488 179.161 C 482.090 172.367, 482.004 171.863, 480.319 172.390 C 478.950 172.819, 476.274 170.511, 469.500 163.060 C 459.878 152.477, 456.384 150.759, 452.462 154.681 C 450.124 157.019, 451.016 164.323, 454.031 167.533 C 456.725 170.400, 455.148 174.198, 452.259 171.800 C 451.063 170.807, 450.512 170.947, 449.348 172.538 C 447.364 175.249, 444.700 184.777, 445.410 186.626 C 446.242 188.794, 444.290 191.939, 441.439 193.023 C 439.275 193.846, 439 194.551, 439 199.275 C 439 206.884, 438.720 207.017, 424.090 206.320 C 414.209 205.849, 409.913 206.082, 404.124 207.401 C 395.294 209.412, 392.439 208.124, 393.310 202.523 C 393.592 200.708, 392.925 197.502, 391.640 194.500 C 389.413 189.296, 388.736 178.300, 390.195 171.044 C 391.035 166.870, 389.411 158.586, 387.431 156.943 C 385.303 155.177, 385.691 152.639, 388.490 150.010 C 390.902 147.743, 391.041 147.727, 392.980 149.482 C 394.933 151.249, 395.105 151.176, 400.240 146.420 C 418.590 129.423, 424.538 111.875, 420.549 86.500 C 418.367 72.614, 416.377 67.020, 408.114 51.539 C 406.951 49.360, 406 46.300, 406 44.739 C 406 43.178, 405.283 40.515, 404.407 38.821 C 402.900 35.906, 402.927 35.629, 404.903 33.653 C 406.968 31.588, 407.042 31.585, 411.745 33.397 C 423.802 38.042, 436.493 40.374, 435.432 37.750 C 434.491 35.423, 425.409 30.021, 417.935 27.343 C 411.720 25.116, 408.694 24.659, 399.500 24.561 C 392.794 24.489, 387.630 23.957, 386.271 23.197 C 385.044 22.512, 383 22.213, 381.727 22.532 C 377.151 23.681, 374.773 18.559, 376.488 11.250 C 377.388 7.411, 376.472 7.207, 372.811 10.431 M 292.174 15.314 C 289.248 18.429, 289.338 18.804, 294.384 24.527 C 298.748 29.477, 298.778 29.491, 300.884 27.595 C 304.067 24.729, 303.709 19.555, 300.077 15.923 C 296.548 12.395, 295.027 12.277, 292.174 15.314 M 192.181 14.773 C 191.181 15.106, 191.272 15.643, 192.571 17.078 C 195.808 20.655, 189.708 26.856, 186.134 23.621 C 183.052 20.832, 183.007 21.853, 186.077 24.923 C 189.764 28.610, 189.736 29.173, 185.636 33.747 C 173.560 47.221, 177.493 57.609, 195 58.478 C 197.475 58.601, 200.386 59.079, 201.469 59.542 C 203.370 60.353, 203.365 60.266, 201.321 57.037 C 199.214 53.711, 199.213 53.669, 201.101 49.263 C 202.146 46.827, 203 44.058, 203 43.108 C 203 42.159, 203.661 40.509, 204.468 39.441 C 208.780 33.740, 204.170 20.063, 197.525 18.844 C 196.439 18.645, 195.085 17.550, 194.517 16.410 C 193.949 15.271, 192.898 14.534, 192.181 14.773 M 366.072 18.250 C 365.596 19.492, 365.591 20.907, 366.062 21.408 C 367.247 22.668, 370 20.200, 370 17.878 C 370 15.254, 367.117 15.527, 366.072 18.250 M 496.378 18.237 C 493.371 21.647, 492.213 25.066, 491.452 32.789 C 490.785 39.558, 490.849 39.855, 493.332 41.482 C 494.745 42.408, 496.711 43.010, 497.701 42.819 C 500.324 42.314, 499.903 39.557, 497.142 39.166 C 494.851 38.842, 494.805 38.646, 495.495 32.166 C 495.885 28.500, 497.060 23.724, 498.106 21.554 C 500.320 16.960, 499.274 14.952, 496.378 18.237 M 294.036 18.250 C 294.056 18.938, 295.179 20.850, 296.531 22.500 L 298.990 25.500 298.995 22.450 C 299 19.240, 297.481 17, 295.300 17 C 294.585 17, 294.016 17.563, 294.036 18.250 M 358.954 23.054 C 354.916 26.132, 351.172 26.510, 348.604 24.097 C 345.608 21.283, 343.029 21.444, 332.462 25.105 C 322.685 28.492, 321.416 29.311, 318.637 34.029 L 316.774 37.191 319.137 35.940 C 320.437 35.251, 324.347 32.746, 327.827 30.371 L 334.154 26.054 337.008 28.164 C 340.980 31.101, 350.858 31.333, 353.926 28.562 C 355.106 27.497, 357.761 26.372, 359.826 26.062 C 363.283 25.544, 363.494 25.330, 362.494 23.342 C 361.424 21.216, 361.371 21.212, 358.954 23.054 M 104.500 25.189 C 103.400 25.810, 99.555 29.076, 95.955 32.448 C 92.356 35.819, 87.743 39.368, 85.705 40.336 C 81.988 42.099, 81.081 44.443, 82.593 48.381 C 83.118 49.749, 83.441 49.757, 85.430 48.454 C 87.471 47.117, 87.847 47.173, 89.567 49.074 C 91.426 51.128, 91.420 51.233, 89.254 55.189 L 87.049 59.213 90.775 58.539 C 92.824 58.167, 97.566 56.026, 101.313 53.779 C 108.896 49.233, 115.396 47.985, 121.317 49.940 C 125.242 51.235, 132 58.044, 132 60.703 C 132 62.023, 132.267 62.133, 133.200 61.200 C 133.860 60.540, 135.648 60, 137.173 60 C 138.699 60, 141.959 59.022, 144.420 57.827 L 148.893 55.654 153.016 58.511 C 155.284 60.083, 157.797 62.641, 158.601 64.195 C 159.775 66.466, 160.534 66.904, 162.459 66.421 C 163.777 66.090, 165.652 66.265, 166.625 66.810 C 168.794 68.024, 171.885 66.952, 176.611 63.348 L 180.085 60.698 177.665 58.099 C 170.903 50.838, 171.252 44.215, 178.903 34.612 C 180.606 32.474, 182 30.449, 182 30.112 C 182 29.776, 178.287 29.482, 173.750 29.460 C 168.158 29.432, 163.406 28.737, 159 27.303 C 148.032 23.733, 148.038 23.733, 143.817 27.546 C 141.714 29.446, 139.476 31, 138.842 31 C 138.156 31, 138.359 31.740, 139.345 32.829 C 141.693 35.424, 141.482 36.123, 137.045 40.456 C 133.701 43.721, 132.850 44.120, 131.545 43.037 C 129.533 41.367, 129.596 40.215, 131.952 35.595 L 133.903 31.767 128.202 32.348 C 125.066 32.668, 121.101 33.212, 119.391 33.558 C 115.785 34.286, 109 29.283, 109 25.896 C 109 23.762, 107.459 23.520, 104.500 25.189 M 434.027 25.651 C 435.387 26.559, 438.034 28.697, 439.908 30.401 C 442.497 32.755, 442.945 32.945, 441.773 31.191 C 440.042 28.603, 434.161 24, 432.583 24 C 432.018 24, 432.668 24.743, 434.027 25.651 M 282.745 33.958 C 285.839 37.556, 288.720 40.911, 289.148 41.414 C 289.577 41.916, 289.645 40.566, 289.299 38.414 C 288.402 32.823, 283.458 26.933, 279.891 27.205 L 277.121 27.416 282.745 33.958 M 254.345 36.829 C 255.255 37.835, 256 39.342, 256 40.180 C 256 41.017, 256.503 43.144, 257.117 44.906 C 258.207 48.033, 258.269 48.061, 259.674 46.055 C 262.978 41.337, 269.430 47.138, 268.857 54.313 L 268.500 58.793 271.101 57.448 C 274.116 55.889, 278 57.764, 278 60.779 C 278 62.205, 278.296 62.148, 280.061 60.383 L 282.123 58.322 280.015 54.750 C 278.856 52.786, 277.202 50.908, 276.340 50.577 C 273.639 49.540, 258.449 39.154, 256.525 37.027 C 255.516 35.912, 254.240 35, 253.690 35 C 253.140 35, 253.435 35.823, 254.345 36.829 M 397.200 38.200 C 396.540 38.860, 396 40.162, 396 41.093 C 396 43.041, 394.035 44, 390.041 44 C 384.484 44, 383.600 48.381, 388.508 51.597 C 391.906 53.824, 397.006 51.679, 400.003 46.763 C 402.756 42.248, 402.217 37, 399 37 C 398.670 37, 397.860 37.540, 397.200 38.200 M 440.095 38.615 C 441.242 39.996, 441.118 40.486, 439.238 42.009 C 437.331 43.553, 437.236 43.951, 438.520 45.017 C 439.334 45.692, 440 46.878, 440 47.652 C 440 48.687, 440.784 48.480, 442.958 46.873 C 445.513 44.984, 446.160 44.870, 447.708 46.040 C 448.694 46.785, 447.267 45.056, 444.538 42.197 C 439.811 37.247, 437.238 35.172, 440.095 38.615 M 248 39.826 C 248 40.280, 249.197 41.742, 250.660 43.076 C 252.802 45.028, 253.192 45.143, 252.660 43.668 C 252.297 42.661, 252 41.198, 252 40.418 C 252 39.638, 251.100 39, 250 39 C 248.900 39, 248 39.372, 248 39.826 M 311.285 40.915 C 310.351 42.411, 310.362 43.056, 311.336 43.864 C 312.756 45.043, 315.504 41.624, 314.475 39.959 C 313.577 38.507, 312.608 38.798, 311.285 40.915 M 354 39.947 C 352.075 40.321, 346.094 40.420, 340.709 40.166 C 331.317 39.723, 330.807 39.807, 328.209 42.228 C 326.719 43.615, 324.164 45.177, 322.531 45.698 C 319.733 46.592, 319.493 47.095, 318.349 54.494 C 315.513 72.835, 300.819 77.816, 286.096 65.427 C 282.989 62.813, 282.883 62.796, 280.870 64.618 C 278.852 66.444, 278.766 66.422, 276.052 63.385 C 273.421 60.440, 273.158 60.361, 270.525 61.741 C 266.410 63.897, 264.567 61.621, 264.529 54.335 C 264.511 50.729, 264.047 48.529, 263.250 48.258 C 262.563 48.024, 262 48.476, 262 49.262 C 262 51.799, 258.252 54.454, 256.602 53.085 C 254.254 51.136, 254.153 54.901, 256.431 59.500 C 258.003 62.676, 258.382 65.340, 258.270 72.432 C 258.140 80.631, 258.336 81.610, 260.653 84.364 C 262.713 86.812, 263.034 87.928, 262.401 90.432 C 261.974 92.119, 261.554 95.980, 261.469 99.012 C 261.384 102.043, 260.748 106.884, 260.056 109.769 C 259.075 113.854, 259.053 116.481, 259.952 121.646 C 261.085 128.150, 261.057 128.332, 258.503 130.997 C 256.712 132.866, 255.767 135.121, 255.477 138.220 C 255.245 140.699, 254.594 143.936, 254.032 145.415 C 253.141 147.761, 253.361 148.408, 255.755 150.477 L 258.500 152.850 260.154 149.675 C 263.583 143.095, 270.928 139.201, 277.565 140.446 C 280.140 140.929, 281 140.743, 281 139.700 C 281 137.153, 284.760 134.556, 286.435 135.946 C 288.586 137.731, 295.218 141, 296.688 141 C 299.017 141, 301.269 136.250, 300.609 132.731 C 299.890 128.897, 302.093 125, 304.980 125 C 306.007 125, 308.231 123.835, 309.923 122.411 C 313.074 119.760, 314.035 117.666, 311.687 118.567 C 307.252 120.268, 304.079 102.712, 307.935 97.810 C 309.071 96.366, 310 94.774, 310 94.271 C 310 92.691, 318.557 84.349, 320.772 83.770 C 324.920 82.685, 326.499 86.100, 324.435 91.694 C 323.459 94.337, 322.100 97.175, 321.415 98 C 320.730 98.825, 319.840 101.300, 319.439 103.500 C 319.037 105.700, 318.119 109.188, 317.398 111.250 C 316.193 114.701, 316.629 116.038, 318.387 114.280 C 318.783 113.884, 319.949 113.547, 320.979 113.530 C 322.009 113.514, 323.905 111.940, 325.193 110.033 C 327.493 106.628, 327.503 106.503, 325.773 103.006 C 323.700 98.817, 324.578 94.143, 328.150 90.340 C 332.831 85.357, 336.329 88.974, 335.839 98.290 L 335.500 104.727 338.500 103.684 C 340.150 103.110, 343.696 101.349, 346.380 99.770 C 350.695 97.231, 358.699 94.835, 363 94.795 C 366.437 94.763, 372.931 92.697, 372.383 91.810 C 371.625 90.584, 376.060 85.809, 377.458 86.346 C 379.454 87.112, 377.499 71.920, 374.775 65.500 C 373.375 62.200, 371.917 58.037, 371.535 56.249 C 371.153 54.461, 369.337 51.199, 367.500 49 C 365.663 46.801, 363.883 43.746, 363.546 42.211 C 362.876 39.159, 360.707 38.644, 354 39.947 M 417.007 46.691 C 417.016 47.809, 424.167 64.753, 426.351 68.831 C 427.651 71.259, 428.592 71.984, 429.818 71.507 C 432.900 70.307, 433.357 70.482, 434.820 73.421 C 436.486 76.770, 435.641 78.929, 432.050 80.500 C 429.827 81.472, 429.785 81.748, 430.508 90.500 C 432.316 112.376, 430.278 125.793, 424.355 130.993 C 422.473 132.646, 421.547 134.147, 422.081 134.681 C 422.576 135.176, 423.123 139.163, 423.296 143.541 C 423.661 152.794, 425.629 156.985, 429.281 156.287 C 432.639 155.645, 436.549 160.105, 435.063 162.883 C 434.453 164.022, 433.064 165.430, 431.977 166.012 C 429.916 167.115, 429.207 171, 431.067 171 C 431.653 171, 433.608 172.125, 435.411 173.500 C 437.214 174.875, 438.930 176, 439.226 176 C 440.461 176, 441.689 166.874, 441.598 158.371 L 441.500 149.242 436.920 144.345 L 432.340 139.449 430.548 141.824 C 428.770 144.181, 428.740 144.185, 426.802 142.247 C 423.059 138.503, 423.294 132.964, 427.353 129.270 C 430.885 126.056, 431.188 125.208, 432.497 114.885 C 432.819 112.347, 433.724 109.422, 434.509 108.385 C 435.294 107.348, 435.951 105.332, 435.968 103.905 C 436 101.271, 438.693 98, 440.829 98 C 441.473 98, 442 96.666, 442 95.035 C 442 93.172, 443.105 90.811, 444.973 88.684 C 447.621 85.668, 447.841 84.933, 446.989 81.960 C 446.222 79.287, 446.369 78.250, 447.726 76.750 C 449.750 74.513, 448.244 73.041, 443.905 73.015 C 440.960 72.998, 437.443 69.711, 438.514 67.977 C 438.905 67.345, 437.975 64.532, 436.447 61.726 C 434.920 58.920, 433.391 55.246, 433.049 53.562 C 432.477 50.745, 431.902 50.372, 425.860 48.899 C 422.248 48.019, 418.777 46.980, 418.146 46.590 C 417.516 46.201, 417.003 46.246, 417.007 46.691 M 225.666 50.127 C 224.657 50.714, 222.107 51.030, 220 50.829 C 217.892 50.628, 216.382 50.809, 216.643 51.232 C 217.466 52.563, 224.532 52.065, 226.559 50.532 C 228.823 48.819, 228.313 48.588, 225.666 50.127 M 444.482 50.030 C 442.970 52.476, 451.437 63.123, 458.250 67.343 C 462.015 69.675, 461.731 68.763, 456.467 61.637 C 446.574 48.244, 445.955 47.645, 444.482 50.030 M 304.200 53.200 C 303.303 54.097, 303.424 54.811, 304.714 56.236 C 306.101 57.769, 306.204 58.622, 305.293 61.036 C 303.585 65.559, 307.545 63.024, 309.502 58.342 C 311.340 53.942, 311.464 52.136, 309.814 53.786 C 308.899 54.701, 308.255 54.636, 307 53.500 C 305.755 52.374, 305.097 52.303, 304.200 53.200 M 108.244 55.976 C 105.903 57.039, 102.528 59.020, 100.744 60.379 C 98.960 61.738, 95.354 63.389, 92.730 64.049 C 88.815 65.033, 88.169 65.498, 89.123 66.648 C 89.762 67.418, 90.033 68.301, 89.724 68.609 C 88.580 69.753, 91.241 74.943, 93.334 75.648 C 94.525 76.050, 98.951 76.406, 103.169 76.439 C 109.863 76.492, 111.167 76.808, 113.419 78.924 L 116 81.349 118.595 78.924 C 125.474 72.498, 128.355 62.259, 124.486 57.985 C 120.883 54.003, 114.366 53.197, 108.244 55.976 M 144 62 C 142.075 63.054, 139.262 63.935, 137.750 63.958 C 135.761 63.988, 135 64.510, 135 65.840 C 135 72.449, 124.548 85.876, 117.507 88.314 L 113.537 89.688 119.306 95.188 C 123.842 99.512, 125.203 101.521, 125.677 104.593 C 126.733 111.456, 127.638 112.430, 130.709 110.014 C 133.089 108.142, 133.496 108.098, 135.407 109.497 C 139.218 112.286, 139.899 112.217, 144.320 108.594 C 146.732 106.617, 149.429 105, 150.313 105 C 152.437 105, 159.587 97.193, 159.188 95.310 C 158.692 92.974, 163.813 84.019, 169.230 77.750 C 173.905 72.339, 177.085 70.710, 178.500 73 C 179.752 75.025, 181.142 73.916, 180.849 71.125 C 180.683 69.544, 181.154 67.519, 181.896 66.625 C 183.065 65.217, 182.978 65, 181.245 65 C 180.145 65, 178.627 65.746, 177.872 66.658 C 175.372 69.681, 168.980 71.948, 166.346 70.748 C 164.672 69.985, 163.312 69.992, 161.596 70.774 C 158.915 71.996, 156.828 70.441, 155.559 66.276 C 154.835 63.899, 150.461 59.973, 148.615 60.042 C 148.002 60.065, 145.925 60.946, 144 62 M 441.989 64.487 C 442.668 65.305, 442.980 66.609, 442.683 67.384 C 442.310 68.355, 443.064 68.929, 445.104 69.229 L 448.066 69.663 444.837 66.332 C 441.561 62.952, 439.732 61.767, 441.989 64.487 M 185.626 67.190 C 184.831 67.634, 184.459 68.950, 184.729 70.363 C 184.983 71.690, 184.697 73.697, 184.095 74.822 C 182.944 76.974, 183.729 79.997, 186.261 83.162 C 187.485 84.691, 188.185 84.702, 195.046 83.303 C 203.969 81.483, 203.888 81.540, 200.942 79.154 C 198.741 77.372, 198.695 77.114, 200.169 74.864 C 201.032 73.548, 202.053 71.034, 202.439 69.278 L 203.140 66.085 195.062 66.257 C 190.619 66.352, 186.373 66.772, 185.626 67.190 M 206.432 69.511 C 206.070 71.442, 205.374 73.269, 204.887 73.570 C 204.399 73.871, 204.007 74.879, 204.015 75.809 C 204.029 77.438, 205.636 75.290, 207.613 71 C 207.993 70.175, 208.980 68.713, 209.807 67.750 C 211.171 66.161, 211.115 66, 209.200 66 C 207.580 66, 206.938 66.814, 206.432 69.511 M 140.250 71.149 C 139.563 71.837, 139 73.622, 139 75.116 C 139 77.068, 137.927 78.682, 135.188 80.851 C 130.379 84.660, 128.454 90.043, 130.490 93.981 C 131.740 96.397, 131.683 96.872, 129.941 98.614 C 128.138 100.417, 128.114 100.718, 129.597 102.835 C 132.524 107.014, 139.006 103.442, 136.314 99.132 C 135.445 97.740, 135.434 96.966, 136.272 96.128 C 137.639 94.761, 140.357 94.614, 139.530 95.952 C 139.206 96.475, 140.208 98.321, 141.757 100.054 L 144.572 103.204 150.036 100.256 C 156.665 96.680, 158.011 93.881, 156.062 87.728 C 155.326 85.403, 154.761 81.635, 154.808 79.356 C 154.904 74.644, 153.165 72.537, 148.500 71.715 C 146.850 71.425, 144.600 70.897, 143.500 70.543 C 142.388 70.185, 140.945 70.454, 140.250 71.149 M 451.823 73.236 L 454.146 75.784 452.094 77.222 C 450.341 78.449, 450.180 79.140, 450.988 81.957 C 452.020 85.557, 451.373 87.447, 448.093 90.416 C 446.933 91.465, 446 93.539, 446 95.066 C 446 96.901, 444.997 98.666, 443 100.347 C 441.314 101.765, 440 103.850, 440 105.107 C 440 106.336, 439.322 108.092, 438.493 109.008 C 437.664 109.923, 436.590 113.832, 436.105 117.694 C 435.109 125.621, 434.098 127.991, 430.506 130.816 C 428.912 132.070, 428 133.793, 428 135.549 C 428 138.287, 428.017 138.294, 430.092 136.416 C 432.174 134.533, 432.221 134.562, 439.092 141.956 C 442.892 146.044, 446 149.792, 446 150.284 C 446 150.775, 447.339 150.051, 448.976 148.674 C 450.613 147.296, 453.333 145.866, 455.021 145.495 C 459.293 144.557, 462.626 139.045, 463.483 131.500 C 463.858 128.200, 465.255 122.220, 466.588 118.212 C 469.161 110.475, 469.096 105.227, 466.361 99.800 C 465.597 98.283, 465 94.005, 465 90.040 C 465 84.519, 464.619 82.674, 463.250 81.574 C 453.618 73.832, 449.882 71.106, 451.823 73.236 M 338.834 75.750 C 335.281 79.596, 334.642 81.947, 336.570 84.077 C 340.484 88.402, 348.714 78.975, 344.966 74.459 C 343.203 72.335, 341.695 72.652, 338.834 75.750 M 466.141 74.330 C 465.295 75.349, 465.737 76.332, 468.025 78.524 C 471.899 82.236, 473.722 80.769, 470.858 76.244 C 468.597 72.673, 467.788 72.345, 466.141 74.330 M 143 74.555 C 143 74.898, 143.914 75.927, 145.031 76.840 C 147.900 79.185, 145.127 83.721, 142.012 81.776 C 139.647 80.298, 136.440 82.809, 134.333 87.787 C 132.643 91.780, 133.788 95.166, 135.948 92.563 C 136.661 91.703, 138.020 91, 138.967 91 C 140.985 91, 144.438 94.482, 143.664 95.735 C 141.972 98.473, 144.920 99.107, 148.865 96.853 C 153.540 94.183, 154.118 91.610, 151.466 85.263 C 150.574 83.131, 150.188 80.418, 150.545 78.795 C 151.068 76.413, 150.842 76, 149.014 76 C 147.834 76, 145.998 75.534, 144.934 74.965 C 143.870 74.395, 143 74.211, 143 74.555 M 173.038 78.399 C 172.537 79.719, 171.280 81.406, 170.246 82.149 C 168.010 83.756, 163.395 91.729, 164.223 92.556 C 164.541 92.874, 167.084 91.978, 169.874 90.564 C 174.558 88.190, 174.876 87.803, 174.011 85.529 C 173.350 83.790, 173.509 82.027, 174.551 79.533 C 175.453 77.372, 175.624 76, 174.989 76 C 174.418 76, 173.540 77.080, 173.038 78.399 M 178.239 80.375 C 176.262 84.713, 178.348 87.331, 181.960 85.046 C 183.230 84.242, 183.215 83.886, 181.841 82.311 C 180.972 81.315, 180.073 79.886, 179.843 79.137 C 179.578 78.274, 178.989 78.728, 178.239 80.375 M 387.744 79.675 C 386.339 82.155, 385.926 86.306, 387.187 85.270 C 387.909 84.677, 389.554 84.036, 390.843 83.846 L 393.186 83.500 390.699 81.175 C 389.330 79.896, 388.001 79.221, 387.744 79.675 M 316.687 90.805 C 315.209 92.347, 314 94.087, 314 94.670 C 314 95.253, 313.072 96.910, 311.938 98.352 C 310.115 100.669, 309.957 101.792, 310.574 108.051 C 311.393 116.368, 312.359 115.991, 314.643 106.463 C 315.561 102.633, 316.836 98.825, 317.475 98 C 318.115 97.175, 319.359 94.588, 320.239 92.250 C 322.171 87.119, 320.766 86.548, 316.687 90.805 M 329.104 95.585 C 328.489 97.811, 328.462 100.086, 329.032 101.585 C 330.656 105.855, 332 104.231, 332 98 C 332 91.295, 330.609 90.135, 329.104 95.585 M 209.200 94.200 C 208.540 94.860, 208 96.830, 208 98.578 C 208 102.021, 206.877 103.349, 203 104.492 C 201.625 104.897, 198.250 106.888, 195.500 108.916 C 188.141 114.342, 184.214 116.519, 177.300 119.003 C 166.827 122.767, 165.719 125.792, 173.005 130.732 C 188.791 141.436, 188.505 141.134, 194.552 153.476 C 201.658 167.979, 205.322 170.798, 211.045 166.165 C 213.062 164.532, 213.188 163.978, 212.194 161.128 C 210.324 155.764, 214.160 150, 219.600 150 C 223.547 150, 224.102 147.995, 222.390 139.920 C 219.917 128.255, 220.803 123.255, 227.884 108.908 C 233.206 98.124, 233.798 96.369, 232.534 95.105 C 230.164 92.736, 223.810 95.235, 219.549 100.213 C 216.749 103.485, 215.720 104.120, 214.766 103.166 C 213.812 102.212, 213.830 101.503, 214.850 99.869 C 215.979 98.060, 215.855 97.475, 213.900 95.394 C 211.332 92.660, 210.860 92.540, 209.200 94.200 M 475.446 94.087 C 475.077 94.685, 473.925 94.952, 472.887 94.681 C 470.621 94.088, 470.543 94.893, 472.444 99.216 C 473.239 101.022, 474.168 104.233, 474.509 106.352 C 475.409 111.946, 476.055 110.316, 476.587 101.107 C 477.043 93.207, 476.824 91.858, 475.446 94.087 M 118.556 100.906 C 120.061 103.180, 121.434 104.899, 121.607 104.727 C 122.479 103.854, 120.563 100.280, 118.340 98.635 L 115.820 96.771 118.556 100.906 M 13.297 100.825 C 12.215 102.296, 11.023 104.732, 10.649 106.237 C 10.274 107.743, 8.863 109.699, 7.511 110.585 C 6.022 111.561, 4.796 113.572, 4.398 115.691 C 3.662 119.615, 5.670 127, 7.472 127 C 9.593 127, 13.218 120.827, 14.616 114.834 C 15.377 111.571, 16.675 107.595, 17.500 106 C 19.472 102.186, 19.392 100.726, 17.133 99.315 C 15.556 98.330, 14.960 98.565, 13.297 100.825 M 225.728 99.342 C 224.204 99.979, 222.145 101.848, 221.154 103.495 C 219.391 106.426, 219.397 106.514, 221.426 107.542 C 223.270 108.476, 223.813 108.050, 226.323 103.703 C 229.561 98.096, 229.516 97.761, 225.728 99.342 M 253.767 106.142 C 252.374 109.639, 250.900 114.975, 250.491 118 C 250.083 121.025, 249.146 125.507, 248.409 127.960 C 247.274 131.739, 247.284 132.656, 248.472 133.969 C 251.990 137.856, 247.159 148.829, 243.057 146.267 C 240.974 144.967, 240 147.801, 240 155.157 C 240 157.306, 239.325 160.680, 238.500 162.654 C 237.675 164.629, 237 166.425, 237 166.647 C 237 167.397, 242.423 169.116, 249.451 170.595 C 253.299 171.404, 257.824 172.879, 259.507 173.872 C 262.536 175.658, 262.584 175.653, 264.379 173.273 C 267.478 169.164, 269.980 168.621, 275.736 170.808 L 280.865 172.757 281.517 168.900 C 281.875 166.779, 281.873 163.697, 281.511 162.051 L 280.854 159.058 278.424 161.779 L 275.994 164.500 273.997 162.139 C 271.461 159.141, 271.437 154.820, 273.943 152.552 C 275.807 150.864, 275.987 150.896, 278.443 153.352 C 280.703 155.612, 281 155.691, 281 154.031 C 281 150.295, 285.939 145.852, 289.894 146.031 C 297.228 146.362, 297.653 146.012, 292.803 143.635 C 290.220 142.369, 287.407 140.753, 286.553 140.044 C 285.269 138.978, 285 139.009, 285 140.223 C 285 143.049, 281.385 145.244, 277.966 144.493 C 276.178 144.100, 272.824 144.349, 270.267 145.065 C 264.379 146.714, 260.187 154.369, 262.126 159.931 C 264.017 165.357, 261.617 166.748, 255.431 163.811 C 248.058 160.311, 246.821 155.987, 250.133 145.295 C 250.679 143.532, 251.298 140.207, 251.509 137.906 C 251.762 135.134, 252.765 132.810, 254.481 131.019 C 257.023 128.366, 257.050 128.188, 255.935 121.408 C 254.994 115.693, 255.066 113.477, 256.350 108.574 C 258.637 99.843, 256.919 98.227, 253.767 106.142 M 262.153 107.247 C 258.723 110.677, 263.795 121.793, 267.683 119.366 C 269.831 118.025, 270.008 111.919, 267.970 109.464 C 265.826 106.880, 263.432 105.968, 262.153 107.247 M 392.632 109.250 C 393.588 111.313, 394.737 113, 395.185 113 C 396.573 113, 396.030 111.621, 393.411 108.500 L 390.893 105.500 392.632 109.250 M 144.477 112.522 C 139.771 116.549, 139.561 116.586, 136.255 113.986 C 133.257 111.628, 132.680 111.878, 133.508 115.176 C 134.132 117.662, 136.927 120.722, 145.392 128.186 L 150.285 132.500 148.142 128.290 C 145.611 123.315, 145.382 117.096, 147.574 112.857 C 149.753 108.644, 149.093 108.573, 144.477 112.522 M 200.929 115.976 C 195.876 118.648, 194.578 120.405, 196.488 121.990 C 198.440 123.610, 198.436 128.393, 196.481 130.016 C 194.178 131.927, 190.707 128.450, 191.247 124.773 C 191.471 123.248, 191.291 122, 190.847 122 C 189.678 122, 182 125.143, 182 125.621 C 182 125.844, 186.269 130.295, 191.487 135.513 C 200.847 144.872, 201.039 145, 205.796 145 C 212.683 145, 214.102 143.618, 212.983 138 C 211.640 131.254, 211.824 124.750, 213.493 120.019 C 214.314 117.692, 214.738 115.385, 214.434 114.894 C 213.459 113.316, 204.621 114.025, 200.929 115.976 M 485.762 118.511 C 486.341 119.617, 487.822 121.417, 489.053 122.511 C 491.289 124.498, 491.290 124.498, 490.238 122.489 C 489.659 121.383, 488.178 119.583, 486.947 118.489 C 484.711 116.502, 484.710 116.502, 485.762 118.511 M 314.053 122.945 C 311.432 125.665, 308.087 128.191, 306.620 128.559 C 304.215 129.163, 304.014 129.558, 304.581 132.577 C 305.047 135.064, 304.649 136.832, 303.034 139.445 C 301.838 141.380, 301.171 143.468, 301.552 144.084 C 301.957 144.739, 303.460 142.979, 305.168 139.852 C 306.776 136.909, 309.611 132.925, 311.467 131 C 314.589 127.761, 320.494 118, 319.330 118 C 319.049 118, 316.674 120.225, 314.053 122.945 M 471.691 120.701 C 471.423 121.141, 470.660 125.100, 469.997 129.500 C 468.697 138.116, 467.535 141.023, 463.447 145.880 L 460.822 149 463.525 152.250 C 472.428 162.957, 479.173 168.978, 481.105 167.944 C 482.170 167.374, 483.493 167.186, 484.044 167.527 C 484.691 167.927, 484.813 166.681, 484.386 164.013 C 483.792 160.300, 484.043 159.551, 486.847 156.658 C 492.421 150.907, 493.069 136.716, 488.048 130.334 C 481.519 122.034, 478.999 119.930, 476.916 121.045 C 475.429 121.841, 474.505 121.834, 473.525 121.021 C 472.784 120.406, 471.959 120.262, 471.691 120.701 M 91.868 123.008 C 89.745 124.129, 87.982 125.935, 87.626 127.352 C 86.868 130.374, 80.596 136, 77.986 136 C 75.007 136, 72 142.791, 72 149.519 C 72 152.599, 72.369 154.890, 72.821 154.611 C 75.936 152.686, 84.283 162.690, 81.494 165.005 C 80.240 166.045, 80.382 166.796, 82.520 170.444 C 83.884 172.771, 85 175.493, 85 176.493 C 85 178.247, 85.070 178.247, 87 176.500 C 92.196 171.798, 95.386 183.011, 90.503 188.814 C 88.538 191.149, 88.141 192.453, 88.637 194.934 C 89.132 197.409, 88.766 198.621, 86.934 200.570 C 84.630 203.022, 84.624 203.093, 86.420 206.134 C 88.228 209.194, 88.223 209.231, 85.712 211.743 C 83.263 214.191, 83.230 214.399, 84.645 218.385 C 85.448 220.648, 86.372 225.313, 86.697 228.750 C 87.064 232.617, 87.747 235, 88.490 235 C 91.275 235, 93.142 238.696, 92.507 242.954 L 91.887 247.110 94.880 245.562 C 96.526 244.711, 98.153 243.561, 98.496 243.007 C 98.838 242.453, 100.835 242, 102.933 242 C 106.667 242, 113.265 240.140, 117.751 237.823 C 118.990 237.184, 120.920 235.105, 122.042 233.204 C 123.932 230.002, 124.368 229.786, 127.978 230.270 C 133.005 230.944, 133.493 230.328, 130.186 227.483 C 127.736 225.375, 127.602 224.901, 128.659 222.096 C 129.297 220.405, 129.594 218.162, 129.319 217.113 C 129.045 216.063, 129.390 214.146, 130.086 212.852 C 132.182 208.955, 131.296 202.821, 128.288 200.418 C 122.239 195.583, 130.554 183, 139.799 183 C 144.853 183, 152 175.644, 152 170.442 C 152 167.931, 152.603 165.745, 153.500 165 C 154.325 164.315, 155 163.360, 155 162.878 C 155 161.334, 147.725 161.939, 145.847 163.638 C 143.984 165.325, 140.331 163.891, 141.534 161.945 C 141.816 161.489, 140.520 160.392, 138.655 159.506 C 136.789 158.621, 131.867 154.768, 127.716 150.943 L 120.170 143.989 118.117 147.310 C 116.988 149.137, 115.107 151.498, 113.938 152.556 C 111.826 154.467, 111.793 154.461, 109.405 151.685 C 108.082 150.147, 107 148.196, 107 147.349 C 107 144.943, 110.973 139.961, 113.726 138.914 C 116.865 137.721, 115.750 136.125, 108.500 131.434 C 105.750 129.654, 101.949 126.579, 100.054 124.599 C 96.067 120.435, 96.556 120.530, 91.868 123.008 M 76.176 125.513 C 75.038 128.011, 75.046 128.016, 77.507 126.403 C 78.869 125.511, 79.735 124.380, 79.432 123.891 C 78.482 122.353, 77.362 122.911, 76.176 125.513 M 135.976 127.049 C 136.713 128.665, 138.724 130.136, 141.624 131.178 C 146.013 132.757, 146.084 132.750, 144.432 130.924 C 143.499 129.894, 141.783 128.761, 140.618 128.407 C 139.453 128.053, 137.675 127.038, 136.666 126.151 C 134.925 124.620, 134.890 124.665, 135.976 127.049 M 371.022 127.529 C 368.558 128.296, 363.496 129.224, 359.772 129.591 L 353 130.258 353 134.455 C 353 140.495, 346.004 146.051, 343.500 142 C 343.160 141.450, 341.554 141, 339.930 141 C 336.703 141, 319.435 157.419, 316.267 163.500 C 315.407 165.150, 313.645 167.892, 312.352 169.594 C 310.968 171.415, 309.991 174.091, 309.978 176.094 C 309.966 177.967, 309.068 181.458, 307.982 183.851 C 305.619 189.057, 306.020 190, 310.594 190 C 313.697 190, 313.961 189.796, 313.056 188.104 C 312.205 186.515, 312.725 185.651, 316.270 182.768 C 326.109 174.768, 328.267 174.578, 329.585 181.600 C 330.473 186.336, 335.124 186.267, 345.446 181.365 C 351.279 178.595, 354.503 177.693, 358.997 177.574 C 364.090 177.439, 365.363 176.991, 368.333 174.289 C 371.741 171.188, 371.762 171.116, 370.671 166.330 C 368.306 155.954, 370.506 141.422, 375.982 131.250 C 379.174 125.319, 378.864 125.086, 371.022 127.529 M 343.171 131.318 C 340.505 134.156, 340.441 135, 342.892 135 C 344.098 135, 345.021 134.052, 345.440 132.382 C 346.329 128.843, 345.751 128.572, 343.171 131.318 M 150 134.109 C 150 136.137, 151.795 138.214, 156 141.051 L 159.500 143.413 155.609 138.956 C 153.469 136.505, 151.332 134.072, 150.859 133.550 C 150.340 132.976, 150 133.197, 150 134.109 M 410.331 146.703 C 401.654 155.417, 401.821 154.978, 404.194 162.815 C 405.088 165.768, 405.379 165.977, 406.849 164.730 C 415.199 157.646, 424.708 161.829, 422.026 171.407 C 421.328 173.901, 419.686 177.392, 418.378 179.165 C 416.875 181.202, 416 183.761, 416 186.118 C 416 190.035, 412.079 196, 409.504 196 C 408.779 196, 406.119 193.701, 403.593 190.892 C 401.067 188.082, 399.002 185.945, 399.005 186.142 C 399.013 186.761, 403.692 198.026, 404.119 198.452 C 404.342 198.675, 407.894 198.216, 412.012 197.430 C 416.131 196.645, 420.757 196.002, 422.294 196.001 C 424.205 196, 424.995 195.541, 424.794 194.546 C 424.632 193.747, 426.011 191.824, 427.859 190.274 C 431.866 186.911, 435.539 178.355, 433.850 176.319 C 433.248 175.593, 431.775 175, 430.578 175 C 425.276 175, 424.365 168.940, 429 164.500 C 432.579 161.071, 432.794 159.793, 429.750 160.039 C 425.638 160.372, 425.044 160.029, 422.321 155.750 C 420.230 152.463, 419.562 150.061, 419.373 145.148 C 419.239 141.654, 418.987 138.729, 418.814 138.648 C 418.641 138.566, 414.824 142.191, 410.331 146.703 M 93.001 141.123 C 86.733 143.623, 84.222 149.267, 87.468 153.559 C 88.276 154.626, 88.963 156.175, 88.995 157 C 89.027 157.825, 90.293 159.994, 91.808 161.820 C 95.140 165.836, 96.509 164.889, 99.921 156.213 C 102.547 149.535, 102.549 145.967, 99.927 142.635 C 97.687 139.787, 96.825 139.599, 93.001 141.123 M 112.200 144.200 C 110.888 145.512, 110.606 148.273, 111.675 149.341 C 112.328 149.995, 115.980 145.266, 115.993 143.750 C 116.004 142.577, 113.529 142.871, 112.200 144.200 M 201.710 151 C 201.998 152.100, 202.561 153, 202.962 153 C 203.362 153, 204.505 152.100, 205.500 151 C 207.273 149.041, 207.247 149, 204.249 149 C 201.680 149, 201.271 149.322, 201.710 151 M 232.028 150.467 C 230.827 151.913, 230.832 152.280, 232.064 153.050 C 233.052 153.667, 233.602 153.482, 233.827 152.455 C 234.420 149.746, 233.484 148.711, 232.028 150.467 M 296.674 149.659 C 296.312 150.021, 293.773 150.238, 291.031 150.141 C 285.065 149.930, 284.859 150.375, 285.244 162.593 L 285.500 170.685 287.750 167.648 C 288.988 165.978, 290 164.179, 290 163.650 C 290 163.121, 291.058 161.296, 292.352 159.594 C 296.350 154.333, 299.701 146.633, 296.674 149.659 M 91.301 153.215 C 92.235 154.708, 93 156.594, 93 157.406 C 93 160.167, 94.604 159.887, 95.720 156.931 C 96.388 155.161, 96.437 154.230, 95.842 154.598 C 95.297 154.934, 93.671 154.150, 92.227 152.855 L 89.601 150.500 91.301 153.215 M 390 153.255 C 390 154.080, 390.675 155.315, 391.500 156 C 392.720 157.012, 393 156.965, 393 155.745 C 393 154.920, 392.325 153.685, 391.500 153 C 390.280 151.988, 390 152.035, 390 153.255 M 112.751 155.981 C 110.099 158.067, 106.989 164.576, 106.385 169.305 C 106.180 170.907, 104.479 173.569, 102.418 175.512 C 99.043 178.695, 98.854 179.193, 99.489 183.208 C 101.696 197.163, 107.392 202.788, 109.359 192.954 C 109.689 191.303, 110.756 189.673, 111.730 189.331 C 112.703 188.989, 115.750 186.577, 118.500 183.971 C 121.250 181.364, 125.502 177.343, 127.950 175.034 L 132.399 170.836 128.313 167.063 C 126.066 164.987, 123.899 162.212, 123.498 160.895 C 121.608 154.680, 117.053 152.597, 112.751 155.981 M 114.180 159.283 C 112.533 161.267, 110.799 166.138, 110.365 170 C 110.085 172.489, 108.940 174.387, 106.402 176.570 L 102.832 179.641 103.916 185.504 C 104.512 188.729, 105 191.525, 105 191.718 C 105 191.912, 106.397 190.479, 108.104 188.535 C 109.811 186.591, 111.791 185, 112.505 185 C 113.219 185, 114.736 183.418, 115.877 181.485 C 117.017 179.551, 118.974 177.576, 120.225 177.095 C 121.476 176.615, 123.757 175.050, 125.293 173.618 L 128.087 171.015 124.583 167.939 C 122.656 166.247, 120.522 163.319, 119.839 161.431 C 118.552 157.871, 116.118 156.948, 114.180 159.283 M 65 159.640 C 65 160.799, 76.129 177.204, 76.598 176.735 C 77.482 175.851, 74.900 170.658, 70.720 164.913 C 66.890 159.649, 65 157.907, 65 159.640 M 410.896 166.331 C 409.463 166.974, 407.499 168.160, 406.531 168.968 C 404.957 170.280, 404.582 170.202, 402.987 168.232 C 400.822 165.559, 400.400 166.341, 399.445 174.787 C 398.832 180.199, 398.984 180.917, 401.207 183.105 C 402.546 184.422, 404.423 186.762, 405.379 188.304 C 408.829 193.870, 411.956 192.725, 411.985 185.885 C 411.994 183.773, 412.853 181.185, 414.052 179.662 C 416.627 176.388, 419.386 168.448, 418.631 166.482 C 417.965 164.745, 414.577 164.679, 410.896 166.331 M 156 170.822 C 156 175.496, 155.802 175.820, 149.573 181.322 C 144.415 185.879, 142.467 187, 139.708 187 C 132.261 187, 127.361 195.259, 132.366 199.377 C 135.345 201.829, 136.238 208.833, 134.082 212.852 C 133.388 214.146, 133.055 216.104, 133.343 217.203 C 133.630 218.302, 133.402 220.217, 132.837 221.459 C 131.987 223.324, 132.234 224.143, 134.256 226.165 C 135.603 227.512, 136.908 229.225, 137.158 229.973 C 137.524 231.072, 138.250 231.109, 140.954 230.166 C 142.794 229.525, 148.561 229, 153.772 229 C 161.940 229, 163.079 228.800, 162.040 227.548 C 158.970 223.849, 165.200 217.520, 170.953 218.492 L 174.500 219.091 174.500 214.126 C 174.500 210.409, 175.047 208.575, 176.675 206.831 C 178.836 204.514, 178.838 204.486, 176.905 202.115 C 175.446 200.326, 175.119 198.884, 175.595 196.348 C 175.957 194.418, 175.694 191.676, 174.983 189.958 C 173.500 186.379, 175.717 183, 179.547 183 C 181.079 183, 181.975 182.238, 182.391 180.579 C 183.252 177.149, 182.274 175.309, 179.708 175.533 C 176.735 175.793, 165.347 171.497, 160.946 168.456 C 156.187 165.167, 156 165.256, 156 170.822 M 211.298 167.195 C 209 170.087, 209.108 177.753, 211.479 179.980 C 214.578 182.892, 216.451 180.558, 216.134 174.177 C 215.872 168.875, 213.120 164.903, 211.298 167.195 M 268.099 173.892 C 265.793 175.394, 277.480 188, 281.178 188 C 283.521 188, 284 187.576, 284 185.500 C 284 183.692, 283.463 183, 282.059 183 C 279.802 183, 278.431 181.221, 278.828 178.808 C 279.324 175.788, 271.026 171.986, 268.099 173.892 M 454.482 178.204 C 449.805 183.763, 452.047 191.904, 459.286 195.648 L 462.076 197.091 457.562 202.251 C 452.395 208.157, 449.343 215.503, 451.151 217.682 C 452.742 219.599, 455.091 217.349, 461.194 208.058 C 463.883 203.965, 467.798 199.015, 469.894 197.058 C 474.404 192.848, 476.245 185.817, 473.545 183.117 C 472.167 181.738, 471.617 181.968, 468.117 185.386 C 462.602 190.771, 460.500 190.105, 460.500 182.974 C 460.500 174.344, 458.838 173.027, 454.482 178.204 M 234.819 177.979 C 231.850 179.822, 230.399 189.242, 232.328 194.154 C 233.567 197.308, 233.692 198.666, 232.836 199.697 C 231.311 201.535, 233.216 202.846, 243.943 207.342 C 251.593 210.548, 253.783 210.998, 264.597 211.583 C 278.485 212.336, 278.251 212.479, 276.914 204.022 C 276.444 201.044, 276.255 198.412, 276.495 198.171 C 276.736 197.931, 275.799 196.843, 274.413 195.753 C 273.028 194.664, 270.183 191.455, 268.091 188.623 C 262.409 180.932, 255.811 177.687, 245 177.266 C 240.218 177.080, 235.765 177.392, 234.819 177.979 M 368.041 183.457 C 365.880 185.756, 365.553 185.820, 362.916 184.457 C 357.869 181.847, 352.525 182.605, 345 187 C 335.649 192.461, 328.503 192.724, 324.584 187.750 C 323.175 185.963, 322.017 184.984, 322.011 185.576 C 322.005 186.167, 323.164 187.742, 324.587 189.076 C 326.629 190.989, 327.067 192.163, 326.666 194.649 C 326.229 197.362, 326.489 197.860, 328.549 198.254 C 329.864 198.505, 330.733 198.377, 330.481 197.969 C 328.502 194.767, 336.721 194.756, 340.500 197.956 C 341.600 198.887, 345.425 200.911, 349 202.454 C 352.575 203.997, 356.210 205.876, 357.079 206.630 C 357.947 207.383, 359.174 208, 359.806 208 C 360.437 208, 361.635 209.039, 362.467 210.309 C 363.738 212.250, 364.786 212.599, 369.050 212.502 C 371.839 212.439, 374.350 212.757, 374.630 213.210 C 374.909 213.662, 375.572 213.764, 376.103 213.437 C 376.633 213.109, 375.927 211.944, 374.534 210.848 C 373.140 209.752, 372 208.057, 372 207.082 C 372 203.819, 368.739 201.794, 366.269 203.524 C 363.777 205.270, 360.524 204.366, 357.595 201.115 C 355.731 199.046, 355.731 198.955, 357.567 196.926 C 358.791 195.573, 360.264 195.008, 361.800 195.302 C 363.369 195.602, 364.943 194.966, 366.510 193.399 C 367.805 192.105, 370.682 190.755, 372.904 190.399 C 377.294 189.697, 378.891 187.361, 377.091 184.270 C 376.525 183.297, 376.047 182.863, 376.030 183.307 C 376.014 183.750, 375 183.413, 373.777 182.557 C 370.897 180.539, 370.762 180.560, 368.041 183.457 M 184.530 185.951 C 184.174 186.528, 182.510 187, 180.834 187 C 178.280 187, 177.921 187.283, 178.621 188.750 C 179.080 189.713, 179.420 192.653, 179.375 195.284 C 179.271 201.451, 180.503 200.958, 184.538 193.219 C 187.105 188.296, 187.496 186.827, 186.468 185.973 C 185.572 185.230, 184.980 185.223, 184.530 185.951 M 287.797 187.931 L 287.346 191 294.673 191 C 298.703 191, 302 190.651, 302 190.224 C 302 189.797, 300.165 189.622, 297.922 189.836 C 294.558 190.157, 293.354 189.755, 291.046 187.544 L 288.247 184.863 287.797 187.931 M 26.284 190.750 C 27.016 197.151, 25.298 199.197, 20.341 197.828 C 16.108 196.660, 15.090 197.337, 17.339 199.823 C 19.215 201.895, 19.539 205.549, 17.935 206.540 C 17.229 206.977, 17.398 207.782, 18.437 208.930 C 19.299 209.883, 19.703 210.963, 19.336 211.331 C 18.968 211.699, 18.959 212, 19.316 212 C 19.674 212, 21.157 209.637, 22.611 206.750 C 24.066 203.863, 26.099 200.306, 27.128 198.846 C 29.788 195.074, 29.530 186, 26.763 186 C 26.133 186, 25.949 187.824, 26.284 190.750 M 317.332 188.136 C 317.772 189.921, 317.485 191.183, 316.443 192.047 C 314.504 193.657, 316.196 194.962, 320.250 194.985 C 323.906 195.005, 323.775 193.035, 319.842 188.856 C 316.738 185.557, 316.695 185.545, 317.332 188.136 M 466.231 191.468 C 463.336 193.464, 463.142 193.873, 464.535 195.029 C 466.419 196.592, 470.443 193.336, 469.847 190.731 C 469.560 189.473, 468.939 189.599, 466.231 191.468 M 80.550 194.505 L 76.859 199.009 80.037 204.564 C 81.785 207.619, 83.435 209.898, 83.705 209.629 C 83.974 209.359, 83.386 207.769, 82.398 206.096 C 80.638 203.117, 80.646 203.005, 82.792 200.722 C 84.443 198.964, 84.924 197.357, 84.742 194.200 C 84.609 191.896, 84.442 190.008, 84.370 190.005 C 84.299 190.002, 82.580 192.027, 80.550 194.505 M 378.208 192.249 C 377.523 193.075, 375.283 194.020, 373.231 194.350 C 370.963 194.714, 368.981 195.785, 368.176 197.079 C 367.448 198.251, 367.299 198.933, 367.845 198.596 C 369.125 197.805, 376 204.259, 376 206.251 C 376 207.784, 379.658 209.368, 380.399 208.156 C 383.034 203.845, 380.977 188.912, 378.208 192.249 M 201.647 204.750 L 196.147 209.500 198.574 212.055 C 201.503 215.139, 201.656 217.978, 199.065 221.139 C 197.366 223.212, 196.872 223.342, 195.012 222.208 C 192.965 220.960, 192.917 221.045, 193.568 224.708 C 194.505 229.973, 195.150 230.340, 198.773 227.668 C 200.515 226.382, 203.742 224.518, 205.943 223.526 L 209.946 221.721 206.798 220.110 C 199.822 216.542, 200.945 211.256, 208.426 212.452 C 213.540 213.270, 216.489 215.706, 214.811 217.727 C 213.897 218.829, 219.738 216.015, 221.945 214.291 C 222.495 213.861, 208.825 200, 207.850 200 C 207.464 200, 204.672 202.137, 201.647 204.750 M 335 204.474 C 335 204.735, 336.295 205.618, 337.879 206.437 C 340.530 207.808, 340.897 207.771, 342.534 205.963 C 344.275 204.039, 344.217 204, 339.655 204 C 337.095 204, 335 204.213, 335 204.474 M 142.970 208.532 C 141.121 210.500, 140.504 212.451, 140.201 217.282 C 139.464 229.047, 146.922 231.274, 151.982 220.801 C 154.693 215.191, 154.523 212.156, 151.313 208.805 C 147.990 205.337, 146.032 205.273, 142.970 208.532 M 344.598 208.605 C 344.246 209.523, 345.721 210.838, 348.925 212.462 C 353.355 214.707, 353.840 214.773, 354.394 213.213 C 354.728 212.271, 355.251 210.976, 355.556 210.335 C 356.178 209.028, 353.602 207.999, 348.532 207.527 C 346.315 207.321, 344.947 207.696, 344.598 208.605 M 144.644 212.198 C 143.520 216.394, 143.896 224.201, 145.202 223.766 C 147.301 223.066, 150.118 216.853, 149.804 213.618 C 149.415 209.630, 145.612 208.583, 144.644 212.198 M 469.494 218.765 C 468.941 219.169, 467.179 221.300, 465.579 223.500 L 462.668 227.500 465.920 224.500 C 469.874 220.853, 472.579 216.512, 469.494 218.765 M 394.180 220.283 C 393.595 220.988, 392.651 222.788, 392.083 224.283 C 391.467 225.902, 390.294 227, 389.180 227 C 388.151 227, 386.507 227.887, 385.525 228.972 C 383.793 230.886, 383.836 230.997, 386.986 232.722 C 388.771 233.700, 392.074 236.006, 394.326 237.847 C 397.793 240.681, 398.963 241.104, 401.960 240.608 C 403.907 240.286, 408.728 240.017, 412.673 240.011 C 418.953 240.001, 420.236 239.672, 422.974 237.368 L 426.101 234.737 424.083 232.589 L 422.065 230.440 424.109 229.164 C 426.721 227.533, 424.975 225, 421.239 225 C 419.855 225, 414.051 223.650, 408.341 222 C 396.608 218.610, 395.664 218.495, 394.180 220.283 M 374.571 224.571 C 373.512 225.346, 372.955 226.288, 373.332 226.665 C 373.710 227.043, 373.036 228.398, 371.835 229.676 C 370.179 231.438, 370.014 232, 371.151 232 C 371.976 232, 373.721 230.862, 375.028 229.471 C 376.399 228.011, 378.035 227.183, 378.896 227.514 C 379.956 227.920, 379.828 227.422, 378.455 225.793 C 377.391 224.532, 376.516 223.424, 376.509 223.332 C 376.502 223.239, 375.630 223.797, 374.571 224.571 M 43.084 228.691 C 40.926 232.158, 39.980 235.216, 39.458 240.417 C 39.070 244.287, 38.132 249.207, 37.376 251.352 C 35.569 256.473, 35.496 256.317, 39.362 255.592 C 43.509 254.814, 44.581 255.949, 46.429 263.074 L 47.805 268.379 44.691 271.289 C 41.643 274.136, 41.611 274.258, 43.210 277.042 C 44.108 278.607, 44.600 280.813, 44.304 281.944 C 43.523 284.933, 44.924 284.480, 49.113 280.389 C 51.147 278.403, 53.704 276.266, 54.795 275.639 C 55.887 275.013, 59.493 272.187, 62.809 269.360 C 66.126 266.533, 69.427 264.024, 70.146 263.785 C 72.318 263.061, 63.534 245.353, 58.100 239.500 C 55.546 236.750, 51.957 232.137, 50.124 229.250 C 48.291 226.363, 46.614 224, 46.398 224 C 46.181 224, 44.690 226.111, 43.084 228.691 M 169 227.441 C 169 229.196, 169.587 229.569, 173.750 230.462 C 176.757 231.107, 177 230.966, 177 228.579 C 177 226.237, 176.633 226, 173 226 C 170.184 226, 169 226.427, 169 227.441 M 400 230.500 C 400 231.611, 401.103 231.979, 404.250 231.919 L 408.500 231.838 405.500 230.464 C 401.555 228.658, 400 228.668, 400 230.500 M 360 236.472 C 360 238.865, 362.794 239.460, 366.280 237.810 L 369.386 236.339 365.644 236.198 C 363.586 236.121, 361.474 235.793, 360.951 235.470 C 360.428 235.146, 360 235.598, 360 236.472 M 354.541 236.933 C 353.600 238.456, 354.663 239.779, 358.313 241.628 L 361.500 243.242 358.500 239.876 C 356.850 238.025, 355.433 236.365, 355.350 236.188 C 355.268 236.012, 354.904 236.347, 354.541 236.933 M 37.691 259.722 C 34.634 260.182, 33.311 261.967, 27.489 273.487 L 23.945 280.500 25.889 285.981 C 27.679 291.026, 27.712 291.743, 26.308 294.981 C 24.029 300.239, 23.653 302, 24.811 302 C 26.117 302, 30 297.151, 30 295.520 C 30 293.772, 33.666 290.716, 37.191 289.526 C 39.955 288.592, 40.244 288.079, 40.402 283.820 C 40.497 281.245, 39.996 278.347, 39.287 277.378 C 37.269 274.618, 37.760 272.307, 40.829 270.122 C 43.553 268.182, 43.619 267.938, 42.602 263.554 C 42.021 261.049, 41.310 259.067, 41.023 259.150 C 40.735 259.232, 39.236 259.490, 37.691 259.722 M 143.015 333.855 C 139.648 334.841, 137.116 339.374, 138.609 341.741 C 140.332 344.473, 142.551 343.941, 142.196 340.881 C 141.960 338.858, 142.416 338.121, 144.196 337.645 C 149.072 336.338, 152.199 337.851, 150.028 340.466 C 148.976 341.734, 148.948 342.347, 149.896 343.292 C 151.146 344.537, 154.927 340.900, 154.978 338.405 C 155.044 335.134, 147.912 332.422, 143.015 333.855" stroke="none" fill="#000000" fill-rule="evenodd"/>
</svg>