<svg xmlns="http://www.w3.org/2000/svg" width="493" height="500" viewBox="0 0 493 500" version="1.1">
	<rect x="0" y="0" width="100%" height="100%" fill="#FFFFFF" />
	<path d="M 8.580 1.306 C 8.407 1.963, 7.315 5.425, 6.155 9 C 4.084 15.377, 4.064 16.152, 5.092 50 C 5.668 68.975, 6.012 99.350, 5.856 117.500 C 5.298 182.606, 5.312 183.307, 7.277 186.302 C 8.965 188.876, 9.172 188.933, 11.437 187.449 C 13.524 186.082, 19.680 185.912, 60.910 186.089 L 108 186.291 108 268.146 L 108 350 62.750 349.986 C 13.619 349.972, 13 349.927, 13 346.442 C 13 345.164, 12.567 343.851, 12.038 343.524 C 11.422 343.143, 11.422 342.019, 12.038 340.399 C 13.540 336.450, 13.175 332.468, 11.143 330.630 C 8.149 327.920, 6.976 330.540, 7.121 339.606 C 7.191 343.948, 6.719 350.200, 6.073 353.500 C 4.679 360.624, 5.007 489.005, 6.430 492.886 C 7.253 495.133, 7.118 495.244, 4.108 494.803 C 0.495 494.272, -0.754 495.387, 1.036 497.544 C 2.739 499.596, 6.283 499.352, 9.304 496.976 C 11.773 495.033, 11.819 494.812, 10.439 491.508 C 8.158 486.048, 8.479 484.165, 11.250 486.752 C 13.460 488.815, 14.435 488.863, 65.500 489.411 C 94.100 489.718, 119.016 490.005, 120.869 490.048 C 122.976 490.096, 125.057 489.356, 126.426 488.070 C 127.992 486.598, 128.921 486.321, 129.693 487.093 C 132.177 489.577, 425.405 491.559, 428.361 489.112 C 429.797 487.923, 430.286 487.940, 431.769 489.232 C 432.721 490.061, 434.175 490.952, 435 491.213 C 435.825 491.474, 377.402 491.922, 305.171 492.209 C 185.375 492.684, 173.698 492.873, 172.207 494.365 C 170.751 495.821, 170.736 496.165, 172.077 497.505 C 173.910 499.339, 276.096 500.307, 277 498.500 C 277.316 497.868, 272.162 497.300, 263 496.958 C 255.025 496.660, 299.181 496.322, 361.124 496.208 C 459.178 496.027, 474.308 495.803, 478.075 494.474 C 486.175 491.616, 485.844 492.844, 485.924 465.351 C 485.964 451.891, 486.249 439.218, 486.559 437.189 C 486.868 435.160, 486.683 429.685, 486.146 425.022 C 484.704 412.484, 483.953 412, 465.944 412 L 452 412 452 398.647 C 452 391.302, 451.711 382.527, 451.358 379.147 L 450.715 373 466.670 373 L 482.626 373 485.186 370.250 L 487.746 367.500 488.378 218.697 C 488.726 136.856, 489.271 57.206, 489.591 41.697 C 490.150 14.559, 490.096 13.381, 488.145 10.323 L 486.119 7.147 360.309 7.036 C 291.114 6.976, 212 6.506, 184.500 5.993 C 109.706 4.596, 113.737 4.509, 110.064 7.599 L 106.975 10.199 107.566 79.137 L 108.157 148.075 61.161 147.788 C 35.313 147.629, 13.901 147.236, 13.579 146.913 C 12.140 145.472, 14.068 25.044, 15.627 19 C 15.981 17.625, 17.394 15.289, 18.766 13.810 C 21.627 10.723, 21.229 8.418, 17.597 7.037 C 15.950 6.411, 15.037 5.187, 14.821 3.318 C 14.562 1.072, 13.957 0.492, 11.697 0.322 C 10.156 0.206, 8.753 0.649, 8.580 1.306 M 9.678 10.666 C 8.375 14.761, 8.244 19.625, 8.821 42.500 L 9.503 69.500 10.241 45.500 C 11.012 20.389, 11.805 14.950, 15.020 12.699 C 16.904 11.379, 16.876 11.256, 14.089 8.586 L 11.216 5.833 9.678 10.666 M 116 82.911 L 116 151.822 112.913 154.420 L 109.826 157.017 62.413 156.759 L 14.999 156.500 15 166.657 L 15 176.813 24.250 177.352 C 29.338 177.647, 37.550 177.870, 42.500 177.845 C 47.450 177.820, 64.862 177.845, 81.194 177.900 L 110.888 178 113.694 180.413 L 116.500 182.826 116.335 268.008 L 116.170 353.190 113.911 355.595 L 111.651 358 63.326 358 L 15 358 15 361.972 L 15 365.943 62.396 366.222 C 107.385 366.486, 109.898 366.597, 111.896 368.405 C 113.987 370.298, 114 370.652, 114 426.541 L 114 482.773 117.250 483.279 C 119.037 483.558, 120.950 483.362, 121.500 482.844 C 122.132 482.249, 122.684 461.266, 123 425.868 L 123.500 369.834 126.766 366.917 L 130.032 364 261.266 363.769 C 333.445 363.641, 401.070 363.529, 411.545 363.519 C 432.910 363.498, 434.861 364.020, 436.938 370.311 C 437.748 372.767, 437.808 387.630, 437.156 424.596 C 436.137 482.332, 436.202 484, 439.466 484 C 442.416 484, 442.980 479.513, 442.991 455.937 L 443 438.374 445.805 435.687 C 448.503 433.102, 449.028 433, 459.680 433 C 474.634 433, 477.004 432.469, 476.986 429.125 C 476.949 421.893, 477.169 422, 462.318 422 C 441.737 422, 442.332 422.877, 441.851 391.826 L 441.500 369.163 443.924 366.581 C 446.339 364.011, 446.416 364, 462.674 364 C 476.519 364, 479 363.772, 479 362.500 C 479 361.217, 475.854 360.979, 457.250 360.858 C 425.390 360.650, 402.764 360.394, 342.500 359.555 C 312.800 359.142, 284.900 358.774, 280.500 358.737 C 276.100 358.700, 240.325 358.267, 201 357.774 L 129.500 356.880 127.233 354.650 L 124.965 352.420 124.982 185.632 C 124.991 93.899, 124.726 17.755, 124.391 16.422 C 123.878 14.378, 123.175 14, 119.892 14 L 116 14 116 82.911 M 330.500 14.900 C 333.250 15.239, 337.836 16.741, 340.691 18.237 C 347.660 21.889, 353.232 22.734, 356.449 20.625 C 359.302 18.756, 365.073 18.473, 366.722 20.122 C 367.339 20.739, 369.730 21.462, 372.035 21.729 C 382.180 22.900, 388.839 28.392, 384.975 32.401 C 383.370 34.065, 382.768 34.147, 380.132 33.055 C 377.349 31.902, 376.822 32.048, 373.147 35.002 C 369.901 37.611, 368.617 38.075, 366.150 37.533 C 364.077 37.078, 362.316 37.402, 360.539 38.567 C 358.108 40.159, 357.834 40.160, 356.083 38.575 C 354.312 36.972, 354.102 37.047, 351.961 40.055 C 349.938 42.896, 349.306 43.170, 345.852 42.707 C 341.273 42.093, 341.157 42.371, 344.716 45.432 L 347.431 47.768 348.491 45.634 C 350.402 41.783, 358 43.259, 358 47.481 C 358 48.125, 359.125 49.708, 360.500 51 C 365.487 55.685, 362.209 61.284, 353.750 62.528 C 348.819 63.254, 347.772 64.736, 350.559 67.049 C 351.697 67.993, 351.951 69.333, 351.498 72.011 C 350.649 77.036, 354.319 83.093, 358 82.740 C 359.711 82.576, 360.598 81.813, 360.810 80.323 C 360.981 79.125, 361.759 77.615, 362.540 76.967 C 363.742 75.969, 363.617 75.507, 361.730 73.959 C 359.608 72.218, 359.584 72.043, 361.243 70.357 C 362.538 69.041, 363.276 68.876, 364.115 69.715 C 364.736 70.336, 365.797 70.631, 366.474 70.372 C 367.151 70.112, 369.129 71.522, 370.870 73.505 L 374.036 77.111 377.165 74.882 L 380.294 72.654 383.897 76.770 C 385.879 79.033, 388.400 80.963, 389.500 81.058 C 394.661 81.503, 397.084 80.822, 399.463 78.257 C 402.537 74.941, 405.624 76.067, 405.312 80.391 C 405.203 81.900, 405.646 83, 406.362 83 C 409.035 83, 409.808 85.077, 408.278 88.145 C 407.354 89.996, 407.052 92.144, 407.481 93.813 C 407.860 95.291, 408.128 98.016, 408.077 99.868 C 408.025 101.720, 408.887 104.698, 409.991 106.486 C 412.489 110.528, 412.517 112.222, 410.120 114.391 C 407.508 116.756, 406.697 126.595, 408.844 129.880 C 410.316 132.131, 410.251 132.387, 407.644 134.630 C 406.111 135.949, 403.598 137, 401.979 137 C 395.215 137, 396.960 142.385, 403.991 143.208 C 405.553 143.391, 406.971 144.524, 407.795 146.250 C 409.224 149.241, 411.119 149.767, 412.868 147.659 C 414.245 146, 422.591 145.757, 423.764 147.341 C 425.048 149.074, 424.387 151.214, 420.472 158 C 418.139 162.043, 418.642 165.359, 421.960 167.812 C 424.964 170.033, 429.435 170.723, 430.426 169.119 C 431.521 167.348, 436.070 167.267, 438.283 168.980 C 439.502 169.923, 441.817 171.326, 443.426 172.097 C 447.602 174.099, 447.598 175.332, 443.403 179.976 C 439.692 184.084, 439.689 184.094, 441.815 185.583 C 443.668 186.881, 443.907 187.896, 443.656 193.390 C 443.372 199.603, 443.428 199.756, 447.139 202.871 C 450.747 205.900, 450.955 205.953, 451.955 204.084 C 452.530 203.010, 453 201.272, 453 200.221 C 453 196.650, 456.498 194.549, 460.015 196.006 C 468.970 199.715, 469.949 203.272, 463.500 208.662 C 460.233 211.393, 459 213.154, 459 215.089 C 459 219.336, 456.605 220.621, 453.396 218.097 C 449.860 215.316, 448.116 215.415, 450.709 218.250 C 453.253 221.031, 454.778 231.358, 452.967 233.540 C 452.312 234.329, 452.043 236.035, 452.368 237.331 C 452.799 239.046, 452.281 240.327, 450.472 242.026 L 447.984 244.364 445.083 242.220 C 442.523 240.327, 442.035 240.253, 440.927 241.588 C 438.875 244.060, 434.709 242.916, 433.003 239.412 C 430.612 234.500, 421.252 222.933, 422.555 226.500 C 422.956 227.600, 423.607 230.525, 424 233 C 424.393 235.475, 425.061 238.310, 425.484 239.301 C 426.285 241.178, 422.747 246, 420.568 246 C 419.902 246, 419.620 247.694, 419.836 250.403 C 420.055 253.160, 419.540 256.167, 418.459 258.446 C 416.761 262.024, 416.771 262.128, 419.082 264.588 C 421.535 267.198, 421.113 269.560, 417.933 271.028 C 417.145 271.392, 415.494 272.209, 414.264 272.845 C 410.691 274.690, 408.313 274.214, 404.535 270.896 C 402.143 268.796, 401 268.272, 401 269.274 C 401 270.089, 401.722 271.354, 402.604 272.086 C 403.486 272.819, 404.600 274.449, 405.079 275.709 C 405.654 277.219, 406.769 278, 408.353 278 C 412.458 278, 413.701 280.624, 410.972 283.529 C 408.154 286.529, 407.597 286.561, 403.908 283.934 L 401.006 281.868 397.011 284.114 C 393.337 286.179, 393.140 286.497, 394.565 288.071 C 395.453 289.053, 396.944 289.566, 398.062 289.273 C 401.333 288.418, 403.428 290.869, 401.370 293.143 C 400.446 294.165, 399.134 295, 398.454 295 C 396.986 295, 394 302.015, 394 305.464 C 394 310.830, 386.864 312.682, 384.203 308.006 C 382.005 304.142, 380.715 304.228, 375.659 308.579 C 372.237 311.524, 370.930 312.067, 368.283 311.647 C 363.689 310.918, 358.799 315.383, 360.360 318.881 C 361.272 320.925, 361.008 321.601, 358.417 323.873 L 355.419 326.500 362.709 333.694 C 368.383 339.292, 370 341.521, 370 343.744 C 370 347.177, 368.391 349, 365.359 349 C 364.126 349, 362.840 349.450, 362.500 350 C 361.578 351.492, 357.417 351.207, 356.049 349.559 C 355.234 348.578, 354.160 348.375, 352.677 348.924 C 351.443 349.380, 349.527 349.286, 348.253 348.705 C 346.637 347.969, 344.811 348.066, 341.753 349.049 L 337.500 350.417 348.748 351.111 C 354.934 351.493, 387.222 352.043, 420.498 352.334 L 481 352.862 481.214 325.181 C 481.332 309.956, 481.471 281.075, 481.522 261 C 481.574 240.925, 481.982 177.677, 482.428 120.449 L 483.239 16.399 478.043 15.199 C 469.324 13.187, 399.865 13.516, 402.777 15.557 C 407.838 19.101, 404.229 25, 397 25 C 391.683 25, 388.560 22.691, 390.067 19.874 C 390.619 18.843, 390.760 18, 390.380 18 C 390.001 18, 390.505 17.100, 391.500 16 C 393.307 14.003, 393.251 14, 359.405 14.141 C 340.757 14.218, 327.750 14.560, 330.500 14.900 M 129.628 183.198 C 129.719 275.558, 129.974 351.308, 130.196 351.530 C 130.418 351.752, 152.178 352.246, 178.550 352.628 C 222.371 353.263, 226.387 353.186, 225.183 351.728 C 224.057 350.365, 224.238 349.890, 226.433 348.452 C 229.561 346.402, 229.600 345.731, 226.808 341.954 C 225.046 339.571, 224.537 337.270, 224.218 330.244 L 223.820 321.500 229.519 316.750 C 232.653 314.137, 235.648 312, 236.175 312 C 236.702 312, 238.608 310.875, 240.411 309.500 C 244.089 306.695, 249.108 306.221, 251 308.500 C 252.121 309.851, 255 310.626, 255 309.577 C 255 308.104, 248.582 303.018, 247.760 303.840 C 246.764 304.836, 242.861 304.062, 239.432 302.188 C 238.369 301.608, 235.327 300.544, 232.672 299.825 C 227.194 298.341, 225.329 296.777, 227.238 295.265 C 228.689 294.116, 238.947 290.554, 243.750 289.532 C 247.192 288.800, 247.769 286.496, 247.071 276.279 C 246.778 272.003, 250.852 267.674, 254.343 268.550 C 256.122 268.996, 256.848 268.685, 257.201 267.324 C 257.893 264.657, 257.077 263, 255.072 263 C 251.758 263, 249.795 259.738, 251.577 257.194 C 252.422 255.987, 253.736 255, 254.498 255 C 256.463 255, 257.430 253.030, 256.113 251.713 C 254.199 249.799, 254.870 245.471, 257.458 243.040 C 259.620 241.008, 260.534 240.813, 265.074 241.415 C 269.221 241.966, 270.606 241.761, 272.140 240.373 C 273.554 239.094, 274.339 238.939, 275.173 239.773 C 276.008 240.608, 277.217 240.142, 279.848 237.974 C 283.014 235.364, 283.572 235.208, 285.029 236.527 C 285.927 237.339, 286.899 237.768, 287.189 237.478 C 287.478 237.189, 288.219 237.559, 288.835 238.301 C 290.203 239.949, 284.185 252.650, 282.226 252.250 C 281.552 252.112, 281 252.450, 281 253 C 281 254.738, 283.467 254.083, 284.768 252 C 286.266 249.600, 289.684 249.404, 292.088 251.580 C 293.461 252.823, 294.278 252.922, 295.917 252.045 C 298.386 250.723, 298.535 249.689, 296.500 248 C 292.881 244.996, 298.182 238, 304.077 238 C 306.304 238, 307 237.538, 307 236.059 C 307 233.403, 305.478 232.684, 303.057 234.197 C 300.438 235.832, 297.500 233.195, 297.500 229.208 C 297.500 226.613, 297.292 226.504, 292.500 226.593 C 288.004 226.677, 280.504 227.731, 271.194 229.585 C 266.671 230.486, 262.577 226.867, 263.409 222.705 C 263.767 220.915, 263.598 220.131, 262.941 220.536 C 262.375 220.886, 260.864 220.486, 259.583 219.647 C 258.302 218.807, 256.378 218.350, 255.307 218.630 C 254.236 218.910, 252.824 218.492, 252.168 217.702 C 250.580 215.789, 253.166 213.578, 257.228 213.373 C 260.975 213.185, 262.875 211.475, 261.200 209.800 C 260.540 209.140, 260 208.275, 260 207.877 C 260 206.308, 265.275 201, 266.839 200.994 C 267.753 200.990, 269.850 200.264, 271.500 199.379 C 274.784 197.618, 286.771 197.391, 288.450 199.057 C 289.723 200.320, 300 200.269, 300 199 C 300 198.450, 298.884 198, 297.520 198 C 294.728 198, 287.279 195.315, 285 193.486 C 281.730 190.863, 276.783 189.886, 274.989 191.510 C 273.477 192.878, 273.051 192.828, 270.742 191.012 C 269.330 189.901, 267.188 189.107, 265.982 189.246 C 259.501 189.996, 258.212 176.671, 264.400 172.898 C 267.001 171.312, 267.166 171.007, 265.424 171.004 C 263.261 171, 259 167.189, 259 165.258 C 259 164.646, 260.191 163.208, 261.647 162.063 C 264.205 160.051, 264.233 159.915, 262.509 158.010 C 261.091 156.443, 260.971 155.740, 261.925 154.591 C 262.585 153.795, 263.319 151.169, 263.555 148.755 C 263.943 144.789, 263.690 144.147, 260.932 142.108 C 257.944 139.899, 258.158 137, 261.308 137 C 263.825 137, 266.949 132.773, 265.892 130.798 C 264.551 128.292, 266.017 126.497, 270.272 125.437 L 273.500 124.633 269.765 124.257 C 264.862 123.764, 262.826 120.941, 263.651 115.780 C 264.122 112.834, 263.829 111.467, 262.382 109.863 C 261.282 108.644, 260.420 106.057, 260.307 103.639 C 259.835 93.500, 260.101 84.581, 260.905 83.584 C 262.292 81.866, 261.930 76.661, 260.296 74.813 C 259.475 73.885, 259.060 72.713, 259.372 72.207 C 259.684 71.702, 257.478 68.808, 254.470 65.775 C 251.461 62.743, 249 59.603, 249 58.797 C 249 56.519, 247.955 56.011, 245.903 57.292 C 244.350 58.263, 243.645 58.089, 241.854 56.298 C 238.730 53.175, 241.291 49.172, 246.478 49.070 C 248.415 49.031, 251.575 48.968, 253.500 48.929 C 256.366 48.871, 257 48.478, 257 46.758 C 257 45.603, 257.647 43.943, 258.437 43.069 C 263.956 36.971, 251.502 24.361, 245.515 29.985 C 244.243 31.181, 242.307 32.011, 241.215 31.830 C 240.063 31.639, 238.446 32.454, 237.365 33.771 C 236.339 35.020, 234.600 36.216, 233.500 36.427 C 232.400 36.639, 230.244 37.133, 228.710 37.525 C 224.920 38.492, 222 35.803, 222 31.345 C 222 29.204, 221.514 28, 220.650 28 C 218.334 28, 211 22.078, 211 20.208 C 211 19.216, 210.225 18.386, 209.250 18.333 C 208.287 18.281, 203 17.750, 197.500 17.152 C 192 16.555, 174.442 15.887, 158.482 15.667 L 129.464 15.269 129.628 183.198 M 215.357 18.513 C 214.639 20.382, 216.469 22.707, 219.340 23.576 C 223.021 24.690, 226 28.138, 226 31.283 C 226 33.990, 226.213 34.162, 228.750 33.504 C 230.262 33.113, 232.040 32.703, 232.700 32.595 C 233.360 32.486, 234.867 31.167, 236.050 29.663 C 237.601 27.692, 238.756 27.105, 240.189 27.560 C 241.577 28.001, 242.644 27.526, 243.720 25.989 C 245.524 23.414, 251.575 23.806, 256 26.783 C 259.767 29.318, 263 30.950, 263 30.318 C 263 30.009, 263.686 30.325, 264.525 31.021 C 265.889 32.153, 265.879 32.476, 264.431 34.076 C 263.319 35.305, 263.012 36.777, 263.450 38.773 C 263.893 40.790, 263.616 42.074, 262.544 42.963 C 261.695 43.668, 261 45.710, 261 47.500 C 261 51.577, 259.461 52.856, 255 52.484 C 253.075 52.324, 251.210 52.371, 250.855 52.590 C 249.632 53.345, 254.050 60.512, 258.683 65.289 C 265.517 72.335, 267.978 79.607, 264.876 83.584 C 264.096 84.584, 263.840 93.616, 264.307 103.639 C 264.420 106.057, 265.282 108.644, 266.382 109.863 C 267.842 111.481, 268.123 112.828, 267.637 115.866 C 266.941 120.220, 265.844 119.581, 277.511 121.611 C 283.670 122.682, 286.804 129.057, 282.905 132.586 C 280.836 134.458, 280.781 134.447, 278.397 131.675 C 275.307 128.083, 270.500 128.168, 270.500 131.815 C 270.500 133.248, 269.168 135.219, 267.005 136.989 L 263.509 139.849 265.740 142.223 C 268.128 144.765, 268.303 151.725, 266.048 154.442 C 265.265 155.386, 265.384 156.074, 266.488 156.990 C 268.748 158.865, 268.317 161.746, 265.500 163.592 C 262.813 165.353, 262.215 167, 264.263 167 C 264.957 167, 265.970 165.988, 266.513 164.750 C 267.194 163.198, 268.196 162.597, 269.743 162.812 C 271.403 163.042, 272.301 162.392, 273.195 160.312 C 277.742 149.727, 281.938 149.168, 289.882 158.092 C 293.886 162.590, 294.974 164.426, 294.132 165.268 C 292.174 167.226, 292.879 169.184, 296.750 172.534 C 300.473 175.756, 300.486 175.795, 298.595 177.890 C 297.547 179.050, 295.635 180, 294.345 180 C 293.047 180, 292 180.601, 292 181.345 C 292 182.085, 291.107 183.498, 290.015 184.487 C 288.116 186.205, 287.830 186.207, 283.454 184.536 C 280.938 183.575, 278.635 183.032, 278.336 183.330 C 278.038 183.628, 276.701 183.457, 275.364 182.948 C 273.732 182.328, 272.315 182.411, 271.048 183.202 C 269.578 184.120, 268.814 184.091, 267.581 183.067 C 264.458 180.476, 266.843 173.656, 270.206 175.561 C 271.185 176.115, 271.224 175.994, 270.368 175.065 C 268.449 172.981, 265.286 175.807, 264.578 180.239 C 263.864 184.704, 264.431 186.155, 266.569 185.335 C 267.397 185.017, 268.960 185.558, 270.041 186.537 C 271.650 187.993, 272.456 188.113, 274.466 187.197 C 277.102 185.997, 282.083 187.102, 285 189.534 C 286.344 190.655, 290.889 192.280, 299.396 194.682 C 303.617 195.874, 304.750 198.206, 302.658 201.399 C 301.148 203.704, 300.295 204, 295.177 204 C 292 204, 288.876 203.476, 288.236 202.836 C 287.351 201.951, 287.214 202.546, 287.664 205.317 C 288.070 207.817, 287.748 209.736, 286.639 211.428 C 285.750 212.785, 285.279 214.564, 285.593 215.382 C 286.171 216.889, 278.914 223, 276.546 223 C 275.112 223, 269 216.793, 269 215.337 C 269 214.750, 269.956 213.054, 271.125 211.568 C 272.997 209.188, 273.711 208.944, 277.125 209.521 C 281.289 210.225, 282.504 208.493, 279.559 206.049 C 278.767 205.392, 278.350 204.251, 278.633 203.514 C 279.719 200.683, 274.618 201.350, 269.067 204.767 C 268.828 204.913, 269.166 205.566, 269.817 206.217 C 272.607 209.007, 270.042 213.210, 264.741 214.533 C 263.223 214.912, 261.687 215.698, 261.327 216.281 C 260.907 216.959, 261.323 217.090, 262.481 216.646 C 265.552 215.467, 268.143 218.718, 267.379 222.793 L 266.730 226.250 270.615 225.598 C 272.752 225.240, 276.975 224.525, 280 224.009 C 295.046 221.444, 295.836 221.469, 299.099 224.594 C 300.934 226.353, 301.929 228.165, 301.648 229.239 C 301.116 231.274, 302.073 231.527, 303.793 229.807 C 305.529 228.071, 311 233.523, 311 236.987 C 311 240.538, 309.273 241.997, 305.050 242.015 C 299.667 242.039, 298.117 243.367, 300.458 245.954 C 301.491 247.095, 302.395 248.818, 302.466 249.782 C 302.537 250.746, 302.955 252.118, 303.395 252.831 C 304.743 255.012, 301.191 258.136, 298.952 256.738 C 297.490 255.825, 296.728 255.936, 295.242 257.281 C 293.259 259.076, 291 258.021, 291 255.300 C 291 253.276, 287.624 253.772, 286.232 256 C 283.566 260.268, 276.155 257.574, 277.328 252.763 C 278.436 248.219, 274.465 245.531, 266.250 245.266 C 259.122 245.035, 259 245.074, 259 247.529 C 259 248.903, 259.563 250.952, 260.250 252.083 C 261.343 253.882, 261.164 254.413, 258.818 256.320 L 256.135 258.500 259.041 261.736 C 262.188 265.241, 262.118 266.927, 258.668 270.759 C 257.371 272.200, 255.704 272.924, 254.067 272.759 C 251.523 272.502, 251.498 272.572, 251.251 280.424 C 250.931 290.611, 249.833 292.276, 242.345 293.931 C 234.866 295.583, 232.336 296.928, 236.628 296.970 C 238.348 296.986, 240.274 297.625, 240.908 298.389 C 242.391 300.177, 246.611 300.989, 247.871 299.729 C 249.265 298.335, 258.999 306.925, 259 309.550 C 259 313.678, 253.623 315.661, 251 312.500 C 249.108 310.221, 244.089 310.695, 240.411 313.500 C 238.608 314.875, 236.668 316, 236.100 316 C 235.532 316, 233.423 317.644, 231.414 319.653 L 227.761 323.306 228.217 331.186 C 228.565 337.205, 229.184 339.758, 230.837 341.993 C 233.415 345.480, 233.452 345.843, 231.456 348.049 C 229.163 350.583, 248.133 352.095, 250.892 349.598 C 253.094 347.605, 254.406 347.580, 256 349.500 C 257.673 351.516, 262.898 351.402, 265.221 349.300 C 266.987 347.702, 267.293 347.701, 270.300 349.290 C 275.276 351.919, 322.320 352.322, 323.925 349.750 C 324.696 348.514, 326.309 348, 329.419 348 C 331.841 348, 336.385 347.019, 339.517 345.821 C 343.995 344.107, 345.786 343.858, 347.900 344.656 C 349.378 345.214, 351.468 345.350, 352.544 344.958 C 353.715 344.531, 355.599 344.882, 357.240 345.833 C 359.384 347.074, 360.244 347.156, 361.190 346.210 C 361.856 345.544, 363.210 345, 364.200 345 C 367.787 345, 365.859 341.519, 358.294 334.336 L 350.588 327.020 353.887 323.617 C 356.751 320.662, 357.033 319.930, 356.030 318.056 C 354.329 314.877, 363.096 306.692, 367.256 307.576 C 369.396 308.031, 371.103 307.361, 374.890 304.581 C 381.495 299.732, 387 300.014, 387 305.200 C 387 308.850, 389.585 306.853, 390.817 302.250 C 393.087 293.775, 392.886 291.545, 389.823 291.191 C 385.405 290.680, 384.286 288.389, 387.028 285.471 C 388.304 284.112, 389.961 283, 390.710 283 C 393.038 283, 401.906 277.457, 401.184 276.452 C 399.255 273.767, 397.096 272.878, 395.098 273.947 C 393.412 274.850, 392.521 274.544, 389.821 272.132 L 386.574 269.230 390.037 267.119 C 391.942 265.958, 394.422 265.006, 395.550 265.004 C 396.677 265.002, 398.067 264.533, 398.637 263.963 C 400.156 262.444, 405.075 264.570, 405.716 267.023 C 406.619 270.476, 412.054 270.601, 416.921 267.279 C 417.152 267.121, 416.304 265.888, 415.036 264.539 C 412.765 262.121, 412.757 262.032, 414.489 258.382 C 415.769 255.685, 416.100 253.258, 415.707 249.455 C 415.110 243.667, 416.029 242, 419.817 242 C 421.867 242, 422.125 241.659, 421.522 239.750 C 421.131 238.513, 420.431 235.475, 419.967 233 C 419.503 230.525, 418.834 227.348, 418.481 225.939 C 418.043 224.192, 418.351 222.954, 419.449 222.042 C 421.822 220.073, 425.351 222.044, 428.700 227.210 C 430.229 229.570, 432.047 231.860, 432.740 232.300 C 433.433 232.740, 434.687 234.427, 435.526 236.050 C 437.326 239.532, 439.020 239.799, 440.838 236.888 L 442.157 234.776 444.883 237.388 C 448.301 240.662, 449.211 240.688, 448.407 237.487 C 448.053 236.074, 448.298 234.346, 448.967 233.540 C 450.723 231.424, 449.275 221.559, 446.892 219.402 C 443.199 216.060, 446.372 211.524, 451.663 212.583 C 454.124 213.075, 454.949 212.727, 456.335 210.611 C 457.261 209.198, 459.365 207.346, 461.009 206.495 C 464.800 204.535, 464.814 202.472, 461.050 200.526 C 457.319 198.597, 457.001 198.614, 456.996 200.750 C 456.991 203.133, 453.356 208.926, 451.393 209.680 C 450.406 210.058, 448.787 209.276, 447.149 207.628 C 445.692 206.163, 443.317 204.082, 441.871 203.004 C 439.432 201.187, 439.266 200.579, 439.576 194.637 C 439.857 189.283, 439.590 187.939, 437.956 186.460 C 435.252 184.013, 435.502 182.428, 439 179.842 C 442.853 176.993, 442.751 175.898, 438.434 173.750 C 434.497 171.790, 431.427 171.500, 430.500 173 C 429.106 175.255, 424.396 173.898, 419.725 169.894 C 414.965 165.814, 414.951 165.784, 415.355 160.397 C 415.578 157.425, 416.336 154.301, 417.038 153.454 C 419.120 150.945, 416.583 149.163, 414.112 151.399 C 411.249 153.990, 406.822 153.143, 405.174 149.689 C 404.192 147.631, 403.223 146.959, 401.555 147.177 C 400.303 147.341, 398.504 146.833, 397.558 146.048 C 396.142 144.873, 395.476 144.846, 393.792 145.898 C 390.143 148.177, 387.916 144.783, 390.945 141.558 C 392.228 140.192, 393.789 138.046, 394.414 136.787 C 395.156 135.292, 396.927 134.199, 399.525 133.632 C 406.577 132.092, 406.386 132.238, 404.697 129.661 C 402.662 126.554, 403.815 115.967, 406.513 112.985 C 408.370 110.934, 408.362 110.824, 406.048 106.588 C 404.604 103.945, 403.917 101.426, 404.271 100.073 C 404.860 97.821, 402.636 91.032, 401.831 92.624 C 401.587 93.106, 401.264 95.075, 401.114 97 C 400.711 102.167, 399.114 103.402, 395.299 101.499 C 389.444 98.578, 389.082 97.148, 393.303 93.604 C 396.100 91.256, 396.766 90.166, 395.920 89.320 C 395.075 88.475, 395.428 87.766, 397.309 86.533 C 398.697 85.624, 400.081 84.231, 400.386 83.437 C 400.851 82.224, 400.567 82.238, 398.607 83.522 C 393.474 86.885, 386.405 85.531, 382.522 80.440 L 379.867 76.959 376.784 79.154 L 373.701 81.349 370.935 78.253 C 368.324 75.331, 368.079 75.255, 366.584 76.907 C 365.713 77.870, 365 79.604, 365 80.761 C 365 83.134, 360.210 87, 357.270 87 C 353.133 87, 346.636 77.114, 347.482 72.108 C 347.958 69.292, 347.711 68.005, 346.505 67.004 C 344.962 65.723, 345.012 56.408, 346.575 53.878 C 347.488 52.401, 345.152 49.287, 341.526 47.148 C 335.407 43.538, 338.303 37.526, 345.590 38.708 C 348.286 39.146, 349.099 38.878, 349.634 37.378 C 351.277 32.772, 353.133 31.777, 355.659 34.149 C 357.893 36.248, 358.052 36.263, 359.950 34.546 C 361.456 33.182, 362.783 32.924, 365.583 33.450 C 368.750 34.044, 369.784 33.705, 373.213 30.949 C 376.642 28.193, 377.507 27.910, 379.590 28.859 C 380.916 29.463, 382 29.753, 382 29.504 C 382 28.431, 376.152 26.188, 372.172 25.736 C 369.792 25.466, 367.339 24.739, 366.722 24.122 C 365.073 22.473, 359.302 22.756, 356.449 24.625 C 353.194 26.758, 347.841 25.905, 340.241 22.043 C 332.774 18.249, 321.012 17.500, 268.855 17.500 C 234.407 17.500, 231.046 17.649, 229.277 19.250 C 226.784 21.505, 225.395 21.456, 222.273 19 C 219.254 16.625, 216.165 16.408, 215.357 18.513 M 394.667 18.667 C 393.172 20.161, 394.191 21, 397.500 21 C 399.944 21, 401 20.548, 401 19.500 C 401 17.971, 396.018 17.315, 394.667 18.667 M 352 49.865 C 352 53.068, 355.378 58, 357.573 58 C 359.902 58, 359.198 53.943, 356.500 51.821 C 355.125 50.740, 354 49.213, 354 48.427 C 354 47.642, 353.550 47, 353 47 C 352.450 47, 352 48.289, 352 49.865 M 353.438 90.069 C 351.653 92.041, 351.643 92.355, 353.228 96.763 C 354.840 101.245, 354.829 101.431, 352.866 102.807 C 350.461 104.491, 350.930 107.887, 354.191 112.404 C 355.861 114.717, 356.059 115.676, 355.163 117.111 C 354.244 118.582, 354.442 119.196, 356.241 120.456 C 360.191 123.223, 364.852 121.383, 363.410 117.627 C 363.024 116.619, 363.303 115.995, 364.143 115.986 C 364.889 115.979, 366.512 115.701, 367.750 115.370 C 369.524 114.894, 370 115.182, 370 116.728 C 370 117.807, 370.827 119.438, 371.838 120.353 C 373.555 121.907, 373.784 121.896, 375.338 120.179 C 376.252 119.169, 377 117.772, 377 117.076 C 377 116.379, 377.741 114.555, 378.646 113.022 C 380.203 110.386, 380.176 109.995, 378.146 105.802 C 376.966 103.364, 376 100.830, 376 100.171 C 376 96.986, 368.619 88, 366.004 88 C 365.122 88, 363.860 88.540, 363.200 89.200 C 362.267 90.133, 361.733 90.133, 360.800 89.200 C 358.963 87.363, 355.519 87.769, 353.438 90.069 M 356 93.032 C 356 93.600, 356.683 95.699, 357.518 97.698 C 358.945 101.114, 358.914 101.463, 356.990 103.511 C 354.686 105.963, 355.044 107.926, 358.576 112.215 C 360.406 114.437, 361.018 114.683, 361.942 113.570 C 363.800 111.331, 369.929 110.626, 371.914 112.422 C 373.657 113.999, 376 112.963, 376 110.616 C 376 109.682, 372.929 102.506, 370.928 98.764 C 370.418 97.809, 370 96.401, 370 95.636 C 370 94.871, 369.247 93.627, 368.327 92.872 C 366.836 91.650, 366.717 91.746, 367.233 93.751 C 368.120 97.192, 363.501 100.584, 360.593 98.627 C 359.338 97.783, 358.516 96.175, 358.539 94.610 C 358.562 93.126, 358.023 92, 357.289 92 C 356.580 92, 356 92.464, 356 93.032 M 341.009 100.489 C 340.329 101.308, 339.448 101.777, 339.050 101.531 C 338.652 101.285, 337.364 101.757, 336.188 102.581 C 331.538 105.838, 335.691 117, 341.552 117 C 342.833 117, 344.160 117.450, 344.500 118 C 345.578 119.745, 350.615 119.083, 352.553 116.941 C 354.927 114.319, 353.751 112.187, 348.556 109.693 C 345.043 108.007, 344.899 107.769, 346.396 106.115 C 348.562 103.721, 348.415 102.404, 345.777 100.557 C 343.028 98.631, 342.557 98.624, 341.009 100.489 M 386.315 106.642 L 384.584 109.284 389.542 113.622 C 394.745 118.173, 397.006 118.902, 398.888 116.635 C 399.743 115.605, 399.652 114.561, 398.517 112.385 C 397.689 110.798, 397.010 108.963, 397.006 108.307 C 396.984 104.093, 388.818 102.821, 386.315 106.642 M 389 108.839 C 389 109.301, 390.179 110.216, 391.620 110.873 C 393.901 111.912, 394.159 111.858, 393.620 110.451 C 393.279 109.563, 393 108.648, 393 108.418 C 393 108.188, 392.100 108, 391 108 C 389.900 108, 389 108.378, 389 108.839 M 339 111.639 C 339 112.415, 340.048 113, 341.441 113 C 342.784 113, 344.160 113.450, 344.500 114 C 344.840 114.550, 346.329 114.998, 347.809 114.996 L 350.500 114.993 347.494 113.160 C 343.398 110.661, 339 109.874, 339 111.639 M 367.606 128.883 C 366.387 130.230, 364.020 130.873, 358.939 131.237 C 349.927 131.881, 346.804 134.098, 350.045 137.548 C 351.187 138.763, 352.656 139.741, 353.310 139.721 C 357.933 139.580, 358.535 139.937, 356.308 141.497 C 351.429 144.914, 358.416 152.946, 365.008 151.498 C 366.680 151.131, 369.365 149.722, 370.974 148.368 C 374.156 145.691, 374.101 144.055, 370.704 140.279 C 368.337 137.648, 369.765 134.864, 373.042 135.721 C 374.125 136.004, 375.626 135.725, 376.379 135.101 C 377.131 134.476, 378.406 134.219, 379.213 134.528 C 380.020 134.838, 381.220 134.439, 381.881 133.643 C 385.045 129.831, 370.989 125.144, 367.606 128.883 M 357.212 136.150 C 359.039 136.818, 360.509 136.802, 361.712 136.101 C 363.135 135.273, 362.582 135.071, 359 135.109 C 354.846 135.154, 354.709 135.234, 357.212 136.150 M 291.597 139.102 C 286.557 143.067, 294.406 146.205, 299.841 142.399 C 302.015 140.876, 302.043 140.705, 300.408 138.899 C 298.162 136.417, 294.916 136.491, 291.597 139.102 M 362.093 143.364 C 358.492 145.879, 358.293 146.641, 361.016 147.505 C 364.342 148.561, 369.879 146.252, 369.303 144.050 C 368.572 141.254, 365.528 140.964, 362.093 143.364 M 441.357 142.387 C 434.994 145.923, 434.437 148.706, 439.344 152.449 C 443.675 155.752, 444.188 155.688, 447.974 151.377 L 451.154 147.755 447.881 144.377 C 444.277 140.659, 444.399 140.696, 441.357 142.387 M 441.602 146.501 C 439.531 148.068, 440.826 151, 443.587 151 C 445.615 151, 447.155 147.555, 445.753 146.153 C 444.303 144.703, 443.936 144.734, 441.602 146.501 M 393.310 150.495 C 390.825 152.236, 390.867 154.091, 393.457 156.952 C 395.842 159.588, 397.150 159.533, 399.826 156.686 C 402.572 153.762, 402.562 152.507, 399.777 150.557 C 397.013 148.620, 396.001 148.610, 393.310 150.495 M 278.203 159.098 C 275.316 164.351, 272.932 167, 271.094 167 C 268.286 167, 269.050 169.801, 272.597 172.506 C 274.392 173.875, 276.015 176.009, 276.204 177.248 C 276.399 178.527, 277.141 179.371, 277.922 179.201 C 278.678 179.036, 281.039 179.599, 283.168 180.451 C 288.012 182.389, 288 182.389, 288 180.122 C 288 177.522, 290.789 175.460, 293.776 175.852 C 296.123 176.159, 296.055 175.987, 292.637 172.986 C 288.937 169.737, 288.124 167.276, 290.098 165.302 C 291.443 163.957, 284.149 156, 281.571 156 C 280.656 156, 279.140 157.394, 278.203 159.098 M 358 160.500 C 356.136 161.875, 353.552 163, 352.256 163 C 349.545 163, 344.909 165.199, 343.149 167.321 C 342.165 168.506, 342.542 169.278, 345.186 171.503 C 348.230 174.065, 348.830 174.191, 354.956 173.564 C 358.963 173.153, 362.259 172.214, 363.492 171.132 C 364.596 170.162, 366.738 168.601, 368.250 167.662 C 373.328 164.508, 370.712 158, 364.366 158 C 362.728 158, 359.864 159.125, 358 160.500 M 358 164.500 C 356.136 165.875, 353.461 167.007, 352.056 167.015 C 348.706 167.035, 346.333 168.470, 347.973 169.483 C 352.059 172.008, 367 166.955, 367 163.048 C 367 161.088, 361.401 161.991, 358 164.500 M 423.500 184.966 C 416.510 186.566, 412.716 190.181, 415.924 192.185 C 417.183 192.971, 418 194.532, 418 196.152 C 418 200.271, 423.511 204.566, 426.374 202.676 C 427.543 201.905, 428.650 199.974, 428.834 198.387 C 429.017 196.799, 429.887 194.699, 430.766 193.720 C 434.235 189.856, 429.110 183.682, 423.500 184.966 M 424 188.756 C 421.663 189.062, 421.522 189.402, 421.842 193.970 C 422.198 199.064, 425 202.277, 425 197.591 C 425 196.301, 425.675 194.685, 426.500 194 C 428.067 192.700, 428.545 189.368, 427.250 188.773 C 426.837 188.584, 425.375 188.576, 424 188.756 M 386.687 191.793 C 383.298 195.539, 386.231 198.913, 392.798 198.822 C 401.651 198.700, 404.133 191.601, 395.387 191.420 C 393.249 191.375, 390.797 191.022, 389.937 190.634 C 388.973 190.200, 387.727 190.644, 386.687 191.793 M 7.914 211.606 C 6.137 213.750, 6.240 227.379, 8.050 229.560 C 9.138 230.871, 9.524 230.837, 11.256 229.275 C 12.968 227.731, 13.164 226.546, 12.758 220.182 C 12.229 211.877, 10.389 208.620, 7.914 211.606 M 273.438 214.101 C 272.147 216.190, 276.481 219.348, 278.878 218.065 C 281.706 216.552, 281.555 215.162, 278.435 213.975 C 275.148 212.726, 274.274 212.748, 273.438 214.101 M 282.200 240.200 C 280.744 241.656, 280.628 244.652, 281.996 245.497 C 283.400 246.365, 285.616 241.216, 284.373 239.973 C 283.742 239.342, 282.978 239.422, 282.200 240.200 M 299.921 288.595 C 297.325 291.723, 303.255 298.591, 306.683 296.428 C 310.194 294.213, 310.582 292.249, 308.042 289.545 C 305.323 286.651, 301.870 286.247, 299.921 288.595 M 269.025 298.097 C 264.767 301.182, 264.757 301.202, 266.726 303.170 C 269.341 305.786, 275.088 304.787, 279.354 300.975 C 285.904 295.122, 276.680 292.552, 269.025 298.097 M 299.500 316.733 C 295.325 317.337, 292.636 319.856, 294.179 321.716 C 294.912 322.599, 296.262 322.900, 297.782 322.519 C 299.233 322.154, 301.156 322.527, 302.556 323.445 C 304.736 324.873, 305.008 324.827, 306.435 322.789 C 307.848 320.771, 307.799 320.415, 305.811 318.299 C 304.623 317.034, 303.392 316.067, 303.076 316.150 C 302.759 316.232, 301.150 316.495, 299.500 316.733 M 14.002 371.250 C 14.003 371.938, 13.966 397.121, 13.919 427.212 C 13.873 457.304, 14.067 482.299, 14.350 482.757 C 14.633 483.215, 36.157 483.569, 62.182 483.545 L 109.500 483.500 109.758 427.564 C 109.962 383.478, 109.750 371.459, 108.758 370.830 C 106.504 369.399, 14 369.809, 14.002 371.250 M 131.297 428.392 L 131.113 483.784 151.306 484.398 C 187.613 485.503, 405.745 487.256, 416.411 486.529 L 426.811 485.820 427.331 482.660 C 427.616 480.922, 427.913 455.538, 427.991 426.250 L 428.132 373 279.806 373 L 131.481 373 131.297 428.392 M 481.022 438.474 C 480.067 439.624, 476.584 440.008, 465.149 440.224 L 450.500 440.500 450 463.648 C 449.452 489.010, 449.113 490.377, 443.146 491.294 C 441.691 491.517, 448.150 491.734, 457.500 491.774 C 468.848 491.823, 475.664 491.428, 478 490.586 L 481.500 489.323 481.719 465.912 C 481.840 453.035, 482.099 441.262, 482.296 439.750 C 482.710 436.564, 482.654 436.507, 481.022 438.474" stroke="none" fill="#000000" fill-rule="evenodd"/>
</svg>