<svg xmlns="http://www.w3.org/2000/svg" width="500" height="281" viewBox="0 0 500 281" version="1.1">
	<rect x="0" y="0" width="100%" height="100%" fill="#FFFFFF" />
	<path d="M 0.583 1.170 C -0.874 5.834, 0.813 8.603, 5.954 9.987 C 8.243 10.604, 10.076 11.871, 10.719 13.282 C 11.293 14.542, 14.288 17.522, 17.374 19.903 L 22.986 24.232 35.243 23.866 L 47.500 23.500 47.586 27.580 C 47.697 32.836, 48.588 34.169, 51.849 33.959 C 56.812 33.639, 57.865 33.999, 58.551 36.250 C 60.160 41.532, 67.374 44.163, 70.887 40.750 C 71.921 39.745, 72.499 39.968, 73.837 41.892 C 80.137 50.949, 85.872 53.348, 90.601 48.905 C 92.635 46.995, 93.151 46.925, 96.445 48.116 C 99.615 49.263, 100.471 49.201, 103.416 47.615 C 106.196 46.118, 107.164 46.017, 109.051 47.028 C 110.508 47.807, 113.707 48.063, 117.915 47.738 C 121.828 47.435, 123.628 47.559, 122.352 48.044 C 119.183 49.248, 118.587 50.886, 120.534 53.037 C 124.364 57.270, 130 55.667, 130 50.345 C 130 47.649, 132.133 47.314, 135.925 49.414 C 138.069 50.602, 138.868 50.482, 142.824 48.379 C 148.413 45.407, 149.103 45.416, 152 48.500 C 153.292 49.875, 154.833 51.003, 155.424 51.006 C 156.016 51.010, 157.267 52.360, 158.203 54.006 C 159.329 55.984, 160.696 57, 162.231 57 C 165.145 57, 169.250 54.213, 168.389 52.820 C 168.034 52.246, 168.364 51.384, 169.122 50.904 C 171.733 49.249, 174.703 50.009, 178.297 53.250 C 190.159 63.948, 191.435 64.105, 197.842 55.664 C 201.979 50.214, 202.485 49.868, 205.497 50.434 C 209.064 51.103, 210.174 50.229, 211.675 45.571 C 213.003 41.451, 215.245 40.258, 218.445 41.971 L 221.021 43.349 218.995 45.505 C 217.035 47.591, 217.029 47.716, 218.798 49.317 C 220.081 50.478, 220.942 50.658, 221.682 49.918 C 222.792 48.808, 225.896 49.953, 233.235 54.184 C 236.801 56.239, 237.058 56.257, 238.902 54.589 C 240.346 53.282, 241.303 53.092, 242.693 53.836 C 243.929 54.497, 245.154 54.494, 246.348 53.825 C 247.684 53.077, 248.626 53.256, 250.026 54.524 C 251.593 55.942, 252.445 56.041, 255.104 55.114 C 259.388 53.620, 259.995 53.699, 260.032 55.750 C 260.049 56.712, 260.724 58.374, 261.532 59.441 C 262.339 60.509, 263 62.127, 263 63.036 C 263 63.946, 263.900 65.505, 265 66.500 C 266.930 68.247, 267.070 68.247, 269 66.500 C 270.953 64.733, 271 64.753, 271 67.374 C 271 68.849, 269.615 72.800, 267.923 76.153 C 265.960 80.042, 265.051 83.067, 265.413 84.510 C 266.122 87.332, 264.622 88.613, 259.500 89.561 C 257.300 89.969, 253.586 91.119, 251.246 92.117 C 248.907 93.115, 244.632 94.224, 241.746 94.581 C 238.861 94.938, 235.475 95.872, 234.222 96.656 C 231.085 98.621, 229.418 97.292, 232.196 95.042 C 234.113 93.490, 234.242 92.997, 233.095 91.615 C 231.958 90.245, 229.191 90, 214.858 90 C 198.481 90, 197.836 90.078, 193.932 92.543 C 191.717 93.941, 189.652 95.742, 189.345 96.545 C 189.037 97.347, 186.921 99.276, 184.642 100.831 C 182.364 102.386, 178.700 104.905, 176.500 106.429 C 172.654 109.093, 172.175 109.174, 164.047 108.531 C 155.895 107.887, 155.478 107.731, 152.365 104.181 L 149.136 100.500 144.948 102.849 L 140.759 105.198 137.698 102.935 C 134.836 100.819, 134.462 100.772, 131.942 102.219 L 129.246 103.766 128.012 99.633 C 127.333 97.360, 125.927 93.830, 124.889 91.790 C 123.850 89.749, 123 86.907, 123 85.474 C 123 79.586, 118.125 74, 112.986 74 C 108.906 74, 106.652 71.048, 107.693 67.068 C 108.390 64.401, 105.491 61, 102.519 61 C 101.325 61, 99.315 59.900, 98.052 58.555 C 94.797 55.090, 90.799 53.873, 87.794 55.432 C 86.464 56.122, 83.457 56.944, 81.111 57.258 C 74.915 58.089, 72.936 60.251, 73.643 65.413 C 74.468 71.431, 72.532 72.071, 55.795 71.316 L 42.500 70.716 36.037 73.980 C 32.482 75.775, 27.926 78.284, 25.911 79.556 L 22.248 81.868 19.437 78.934 C 15.921 75.265, 11.276 74.979, 8.305 78.250 C 6.759 79.951, 6.107 82.451, 5.629 88.500 C 5.076 95.494, 4.682 96.731, 2.498 98.333 C -0.311 100.395, -0.666 102.708, 1.395 105.525 C 2.600 107.174, 2.578 107.588, 1.232 108.572 C -0.880 110.116, 0.378 113, 3.164 113 C 4.389 113, 6.629 111.814, 8.142 110.364 L 10.893 107.729 13.696 113.614 C 15.833 118.100, 17.213 119.740, 19.500 120.510 C 21.150 121.066, 23.738 122.356, 25.252 123.377 C 26.765 124.397, 28.860 125.008, 29.906 124.735 C 32.193 124.137, 32.952 126.802, 33.684 138 C 34.234 146.423, 35.343 148.773, 37.820 146.762 C 39.138 145.692, 39.272 145.774, 38.697 147.306 C 38.245 148.512, 38.806 149.897, 40.388 151.479 C 42.683 153.774, 43.127 153.831, 54.628 153.309 C 61.381 153.003, 67.362 152.236, 68.500 151.530 C 70.366 150.373, 70.503 150.547, 70.548 154.130 L 70.596 157.969 68.469 155.971 C 65.079 152.786, 43.796 154.172, 40.972 157.762 C 39.409 159.750, 39.257 160.620, 40.168 162.357 C 41.252 164.425, 41.222 164.439, 39.332 162.764 C 36.698 160.429, 35 162.169, 35 167.200 C 35 172.102, 34.344 171.990, 29.452 166.250 C 23.734 159.539, 21.273 155.180, 20.002 149.509 C 18.633 143.401, 17.275 141.527, 15.367 143.110 C 14.615 143.734, 14 145.225, 14 146.422 C 14 148.645, 12.309 151, 10.712 151 C 10.224 151, 10.113 149.292, 10.466 147.203 C 11.288 142.338, 8.805 139.704, 3.844 140.180 C -0.652 140.610, -0.722 143.382, 3.752 143.813 C 6.926 144.120, 6.989 144.218, 6.389 147.967 C 5.540 153.279, 9.409 156.272, 13.587 153.535 C 15.009 152.603, 16.247 151.989, 16.337 152.170 C 20.016 159.605, 22.706 163.495, 28.195 169.313 C 34.812 176.328, 34.913 176.389, 36.945 174.550 C 38.154 173.456, 39.013 171.416, 39.032 169.595 L 39.064 166.500 44 172 C 46.715 175.025, 48.951 177.760, 48.968 178.077 C 49.019 179.006, 30.713 181.070, 28.313 180.405 C 27.110 180.072, 25.680 178.519, 25.134 176.955 C 24.589 175.390, 22.392 172.172, 20.253 169.805 C 18.114 167.437, 15.387 164.087, 14.193 162.361 C 11.487 158.448, 1.837 151.832, 0.592 153.037 C 0.051 153.560, 0.172 154.502, 0.891 155.369 C 1.756 156.411, 1.785 157.015, 0.996 157.503 C -0.829 158.630, 0.420 160.295, 3.994 161.498 C 6.064 162.195, 8.262 164.047, 9.682 166.292 L 11.997 169.949 9.749 169.071 C 8.512 168.588, 6.161 167.486, 4.524 166.623 C 1.538 165.047, -0.857 165.804, 0.445 167.911 C 1.308 169.307, 11.200 174, 13.279 174 C 15.735 174, 16.464 177.829, 14.435 180.072 C 12.772 181.909, 12.780 182.099, 14.593 184.102 C 18.139 188.021, 21.192 188.908, 29.586 188.456 C 40.526 187.868, 49.141 187.088, 50.965 186.521 C 51.809 186.259, 55.535 185.618, 59.245 185.098 C 63.877 184.449, 66.987 183.373, 69.168 181.666 C 72.125 179.352, 72.507 179.286, 74.691 180.717 C 77.412 182.500, 93.040 182.931, 104.500 181.538 C 110.714 180.783, 111.358 180.859, 110.238 182.211 C 107.811 185.139, 111.427 186.514, 121.165 186.365 C 130.768 186.218, 131.579 186.800, 127.063 190.600 C 125.442 191.965, 123.986 194.288, 123.813 195.786 C 123.551 198.059, 123.070 198.456, 120.857 198.229 C 118.929 198.031, 117.503 198.802, 115.589 201.076 C 113.729 203.287, 111.818 204.349, 109.023 204.724 C 102.378 205.615, 101.224 208.050, 105.748 211.636 C 110.102 215.087, 114.457 217, 118 217.020 C 133.290 217.105, 147.463 215.805, 151.017 213.991 C 155.685 211.610, 158.315 211.470, 160.010 213.512 C 161.428 215.220, 164 213.844, 164 211.378 C 164 209.404, 166.321 209.678, 169.273 212 C 171.842 214.021, 182.723 214.944, 184.385 213.281 C 184.780 212.886, 187.958 212.549, 191.446 212.531 C 198.282 212.498, 202 210.486, 202 206.822 C 202 205.124, 202.205 205.085, 204.250 206.396 C 208.255 208.962, 218.546 207.809, 222.111 204.394 C 224.908 201.714, 225.499 201.571, 232.563 201.866 C 239.812 202.169, 242.457 202.941, 250.119 206.994 L 253.737 208.909 255.869 206.640 C 260.027 202.214, 257.056 197.944, 249.188 197.039 C 242.070 196.221, 244.077 194.500, 252.151 194.500 C 260.511 194.500, 262.246 195.860, 260.337 200.918 C 258.226 206.512, 267.389 210.246, 273.856 206.426 C 276.830 204.669, 276.981 204.673, 279.067 206.558 C 280.330 207.701, 282.714 208.521, 284.857 208.551 C 286.861 208.578, 290.975 208.948, 294 209.372 C 299.370 210.126, 299.593 210.058, 303.421 206.530 C 305.772 204.364, 307.943 203.148, 308.844 203.493 C 310.062 203.961, 309.936 204.357, 308.173 205.592 C 303.444 208.903, 307.105 213, 314.793 213 C 319.529 213, 320.110 212.732, 322.275 209.546 L 324.622 206.092 327.702 207.965 C 329.396 208.995, 331.082 210.324, 331.450 210.919 C 331.817 211.514, 333.588 212, 335.385 212 C 337.576 212, 339.424 212.823, 341 214.500 C 342.292 215.875, 343.804 217, 344.360 217 C 344.916 217, 346.451 218.012, 347.770 219.250 L 350.170 221.500 351.838 219.445 C 353.503 217.393, 353.509 217.394, 355.885 220.262 C 357.572 222.299, 358.575 222.825, 359.332 222.068 C 359.919 221.481, 361.048 221, 361.840 221 C 362.631 221, 361.694 222.076, 359.757 223.390 C 356.945 225.298, 355.350 225.681, 351.855 225.287 C 345.918 224.618, 341.522 227.709, 344.201 230.669 C 346.324 233.015, 354.175 235.427, 359.822 235.468 C 363.636 235.496, 364.609 235.001, 368.108 231.250 C 373.293 225.691, 376.787 225.281, 374.287 230.525 C 372.659 233.937, 372.675 234.119, 374.768 236.212 C 376.873 238.318, 376.982 238.326, 378.965 236.532 C 380.084 235.519, 381 234.163, 381 233.519 C 381 232.875, 382.026 231.385, 383.279 230.207 C 384.533 229.030, 385.659 226.850, 385.782 225.364 C 386.056 222.055, 386.488 221.562, 388.183 222.625 C 391.936 224.977, 396.558 221.781, 394.328 218.377 C 391.954 214.755, 393.279 214.533, 395.923 218.110 C 397.585 220.358, 397.905 221.495, 397.102 222.298 C 396.496 222.904, 396 224.184, 396 225.143 C 396 226.975, 392.193 230.237, 390.950 229.469 C 390.552 229.223, 389.731 229.619, 389.126 230.348 C 387.251 232.608, 391.735 235.653, 397.959 236.347 C 407.357 237.394, 410.256 231.527, 403.851 224.425 C 402.012 222.385, 402.022 222.326, 404.424 221.041 C 405.768 220.321, 407.843 219.987, 409.035 220.299 C 410.226 220.610, 412.328 220.352, 413.706 219.724 C 417.222 218.122, 422.294 223.836, 421.611 228.628 C 421.239 231.238, 421.809 232.384, 425.057 235.556 C 428.872 239.281, 428.989 239.320, 430.983 237.516 C 432.834 235.840, 432.877 235.521, 431.460 233.955 C 428.779 230.993, 430.524 227, 434.500 227 C 437.230 227, 437.897 227.453, 438.458 229.689 C 439.868 235.308, 442.923 238.229, 446.885 237.749 C 448.873 237.508, 451.508 237.761, 452.740 238.311 C 454.421 239.062, 455.984 238.860, 458.993 237.503 C 462.860 235.759, 463.076 235.759, 464.999 237.499 C 466.464 238.825, 466.711 239.643, 465.930 240.585 C 464.416 242.409, 469.195 245.387, 472.592 244.738 C 476.122 244.063, 481.515 245.855, 484.039 248.541 L 486.124 250.761 482.944 251.870 C 481.194 252.480, 478.740 252.722, 477.491 252.408 C 476.241 252.095, 474.918 252.324, 474.550 252.919 C 473.224 255.064, 469.516 253.949, 467.500 250.798 C 463.622 244.737, 458.262 244.490, 458.688 250.391 C 458.903 253.366, 457.858 253.739, 455.903 251.383 C 454.856 250.121, 453.399 249.885, 449.280 250.311 C 445.779 250.672, 444 250.485, 444 249.756 C 444 249.152, 443.272 247.853, 442.381 246.869 C 440.829 245.154, 440.598 245.165, 436.739 247.133 C 433.726 248.670, 432.186 248.942, 430.608 248.216 C 428.235 247.124, 417.470 245, 414.312 245 C 408.793 245, 409.613 251.065, 415.187 251.470 C 416.459 251.563, 419.002 251.989, 420.837 252.418 L 424.174 253.197 421.510 254.579 C 419.149 255.804, 418.402 255.735, 414.962 253.981 C 409.320 251.102, 406.934 251.459, 402.676 255.820 C 396.992 261.641, 399.040 262.884, 413.739 262.532 C 425.754 262.244, 428.537 261.268, 427.415 257.734 C 426.737 255.598, 427.877 255.912, 431.224 258.784 C 432.851 260.180, 432.837 260.420, 430.974 263.036 C 428.576 266.405, 428.522 267.358, 430.631 269.109 C 432.053 270.289, 432.675 269.984, 435.487 266.731 C 439.288 262.334, 442.379 261.941, 445.179 265.500 C 446.337 266.972, 448.170 268, 449.638 268 C 451.010 268, 452.914 268.419, 453.870 268.930 C 454.829 269.443, 456.216 269.485, 456.964 269.023 C 457.778 268.519, 459.654 268.821, 461.660 269.778 C 464.698 271.227, 465.297 271.229, 468.286 269.804 C 471.307 268.363, 471.851 268.377, 475.036 269.980 C 483.042 274.010, 491.730 272.674, 487.550 268.056 C 485.882 266.212, 485.968 266.131, 490.162 265.609 C 492.548 265.312, 495.608 265.166, 496.962 265.284 C 500.522 265.596, 500.998 260.330, 497.529 259.011 C 496.232 258.518, 494.881 257.201, 494.526 256.083 C 494.172 254.966, 492.777 253.183, 491.428 252.122 L 488.974 250.191 493.986 249.502 C 499.240 248.779, 500.947 247.547, 499.164 245.764 C 498.416 245.016, 496.433 245.039, 492.437 245.841 C 487.009 246.931, 486.693 246.879, 484.903 244.604 C 482.906 242.065, 477.397 240.417, 472.500 240.894 C 470.850 241.054, 469.822 240.860, 470.215 240.461 C 470.608 240.063, 470.294 238.830, 469.517 237.721 C 468.245 235.905, 468.353 235.510, 470.607 233.737 C 473.451 231.500, 473.481 228.296, 470.673 226.602 C 469.160 225.689, 468.388 226.022, 466.173 228.544 C 462.668 232.536, 455.995 235.470, 452.860 234.398 C 451.562 233.955, 448.975 233.571, 447.111 233.546 C 444.086 233.505, 443.575 233.081, 442.363 229.605 C 440.432 224.068, 439.247 223, 435.033 223 C 431.046 223, 428.472 225.030, 426.357 229.841 C 425.223 232.422, 425.203 232.398, 425.671 229 C 426.420 223.568, 417.614 213.944, 413.577 215.783 C 411.732 216.624, 410.321 216.706, 409.180 216.041 C 407.700 215.177, 407.690 215.057, 409.095 215.030 C 409.972 215.014, 411.473 214.135, 412.429 213.078 C 414.092 211.241, 414.064 211.088, 411.794 209.601 C 408.974 207.753, 399.706 208.445, 397.885 210.638 C 396.249 212.610, 394.959 212.334, 391.839 209.346 C 388.465 206.113, 383.345 206.932, 381.290 211.034 C 380.538 212.533, 379.343 213.392, 378.240 213.223 C 377.242 213.071, 375.128 214.301, 373.542 215.956 C 370.732 218.889, 370.705 219.017, 372.484 220.983 C 374.080 222.746, 374.107 223, 372.702 223 C 371.818 223, 369.654 224.793, 367.893 226.984 C 365.710 229.700, 363.613 231.170, 361.299 231.604 C 355.923 232.612, 356.095 231.184, 361.969 226.030 C 366.743 221.840, 367.267 221.026, 366.096 219.616 C 364.968 218.257, 364.982 218, 366.181 218 C 366.966 218, 369.057 216.505, 370.828 214.677 C 373.940 211.467, 373.986 211.297, 372.196 209.677 C 371.176 208.755, 370.019 208, 369.623 208 C 369.228 208, 367.827 206.762, 366.511 205.250 L 364.118 202.500 361.872 204.715 C 359.761 206.797, 359.727 207.040, 361.299 208.778 C 362.507 210.113, 362.669 210.931, 361.883 211.717 C 361.135 212.465, 361.109 213.373, 361.801 214.609 C 363.779 218.143, 358.957 219.102, 356.125 215.737 C 353.872 213.059, 353.655 213.002, 351.875 214.613 C 350.129 216.193, 349.874 216.196, 348.171 214.655 C 347.165 213.745, 345.836 213, 345.217 213 C 344.598 213, 342.966 211.875, 341.591 210.500 C 339.898 208.807, 337.986 208, 335.668 208 C 333.781 208, 331.662 207.297, 330.945 206.434 C 326.748 201.377, 321.902 201.497, 319.921 206.709 C 319.181 208.653, 318.330 209, 314.302 209 C 309.720 209, 309.632 208.946, 311.777 207.443 C 314.768 205.349, 314.575 203.546, 311.096 201.068 C 307.106 198.227, 305.973 198.437, 302.415 202.674 L 299.331 206.348 292.240 205.177 C 288.340 204.533, 284.412 204.289, 283.511 204.634 C 282.469 205.034, 281.329 204.487, 280.380 203.131 C 278.603 200.596, 276.776 200.445, 273.536 202.569 C 272.205 203.441, 269.667 203.996, 267.821 203.819 C 264.715 203.521, 264.521 203.285, 264.822 200.189 C 265.050 197.846, 264.412 195.917, 262.637 193.591 C 260.231 190.437, 259.836 190.298, 252.874 190.170 C 247.582 190.072, 245.155 190.455, 243.908 191.583 C 242.773 192.611, 241.978 192.773, 241.540 192.065 C 240.466 190.326, 236.445 190.851, 234.517 192.981 C 233.050 194.603, 232.953 195.238, 233.984 196.481 C 235.073 197.793, 234.744 198, 231.573 198 C 227.643 198, 223.169 196.114, 221.055 193.566 C 219.097 191.207, 216.693 191.668, 213.483 195.018 L 210.591 198.036 212.754 200.199 C 214.690 202.135, 215.306 202.242, 218.632 201.221 C 222.004 200.186, 222.203 200.225, 220.783 201.645 C 219.757 202.671, 216.893 203.324, 212.463 203.541 C 206.054 203.856, 205.576 203.722, 203.131 200.936 C 200.108 197.491, 198.001 197.236, 195.491 200.010 C 193.724 201.963, 193.740 202.094, 196.059 204.563 C 199.248 207.957, 197.372 209.271, 190.264 208.624 C 187.383 208.362, 184.769 208.564, 184.454 209.074 C 183.304 210.936, 171.988 210.135, 169.273 208 C 166.588 205.888, 161.542 205.313, 160.500 207 C 160.160 207.550, 158.766 208, 157.401 208 C 156.037 208, 153.164 208.896, 151.017 209.991 C 147.912 211.575, 144.393 212.090, 133.807 212.506 C 115.789 213.216, 115.260 213.187, 111.656 211.311 L 108.500 209.667 111.646 208.373 C 113.377 207.661, 115.720 205.900, 116.854 204.459 C 118.274 202.654, 119.502 202.024, 120.800 202.437 C 123.643 203.339, 128 199.465, 128 196.034 C 128 192.188, 130.581 191.372, 132.217 194.702 C 134.381 199.109, 136.141 199.577, 142.876 197.538 C 147.161 196.240, 149.312 196.007, 150.218 196.744 C 153.871 199.711, 159.363 198.107, 162.989 193.015 C 165.108 190.040, 168.297 189.053, 169.500 191 C 170.561 192.717, 175.605 192.094, 177.488 190.013 C 178.719 188.653, 180.433 188.071, 182.919 188.168 C 184.917 188.246, 187.618 187.740, 188.921 187.042 C 190.524 186.184, 193.168 185.987, 197.102 186.432 C 201.796 186.963, 203.775 186.697, 207.396 185.047 C 213.306 182.355, 213.887 181.160, 210.644 178.370 L 207.968 176.068 210.934 174.534 C 212.566 173.690, 214.498 173, 215.228 173 C 215.958 173, 217.577 172.284, 218.825 171.410 C 221.525 169.519, 220.095 166.766, 216.586 167.096 C 215.439 167.204, 213.406 166.849, 212.069 166.307 C 209.677 165.338, 209.692 165.312, 213.004 164.649 C 216.776 163.895, 220 161.415, 220 159.268 C 220 158.465, 221.127 159.186, 222.589 160.923 C 225.002 163.791, 225.630 164, 231.839 164.003 C 238.479 164.005, 238.506 164.017, 240.500 167.675 C 244.469 174.956, 257.145 180.144, 281.618 184.505 C 289.803 185.964, 299.744 187.797, 303.708 188.579 C 307.672 189.360, 312.622 190.011, 314.708 190.024 C 316.794 190.038, 320.337 190.473, 322.581 190.992 C 324.826 191.510, 333.826 192.187, 342.581 192.495 C 359.762 193.100, 372.640 193.654, 389.390 194.510 C 395.900 194.843, 400.783 194.652, 401.967 194.018 C 403.031 193.448, 412.137 192.821, 422.201 192.624 C 432.265 192.428, 443.425 191.756, 447 191.131 C 450.575 190.507, 456.084 189.530, 459.243 188.960 C 462.402 188.391, 467.221 186.802, 469.952 185.430 C 476.447 182.168, 486.964 182.771, 489.438 186.546 C 491.239 189.294, 497.694 191.706, 499.205 190.195 C 500.655 188.745, 499.432 187.254, 496.210 186.546 C 494.688 186.212, 492.861 185.007, 492.150 183.869 C 490.906 181.876, 491.003 181.825, 494.827 182.471 C 497.421 182.909, 499.042 182.740, 499.510 181.983 C 500.710 180.042, 498.961 179.328, 486.628 176.724 L 474.757 174.217 468.431 177.573 C 456.309 184.004, 424.923 187.168, 379.500 186.539 C 308.668 185.558, 246 175.014, 246 164.077 C 246 160.977, 241.067 155.074, 237.759 154.217 C 234.130 153.277, 232.751 149.466, 233.730 143.077 C 234.396 138.724, 235.643 137, 238.122 137 C 240.130 137, 240.650 138.480, 239 139.500 C 236.417 141.097, 239.280 151.009, 242.881 152.936 C 245.969 154.589, 248.433 150.541, 246.942 146.264 C 246.017 143.609, 246.280 142.389, 248.892 137.213 C 251.878 131.299, 251.890 131.210, 249.956 129.460 C 248.084 127.766, 247.914 127.768, 246 129.500 C 244.048 131.267, 244 131.247, 244 128.655 C 244 126.385, 244.425 126, 246.935 126 C 248.549 126, 250.912 125.612, 252.185 125.138 C 253.458 124.664, 257.826 123.955, 261.892 123.563 L 269.283 122.851 268.745 126.864 C 268.087 131.770, 270.085 134.107, 274.250 133.300 C 276.546 132.855, 277 133.113, 277 134.868 C 277 139.508, 282.057 143.230, 288.553 143.371 C 294.287 143.495, 294.554 143.387, 296 140.355 C 297.213 137.813, 298.254 137.108, 301.436 136.675 C 306.302 136.014, 309.116 137.418, 314.958 143.420 C 317.410 145.939, 320.212 148, 321.185 148 C 323.867 148, 326.080 143.779, 325.970 138.874 C 325.820 132.180, 325.919 129.905, 326.588 124.726 C 327.715 116.007, 324.665 115.011, 315.210 121.010 C 309.023 124.934, 305.673 125.898, 304.548 124.077 C 304.234 123.569, 302.632 122.858, 300.989 122.497 C 298.705 121.996, 298 121.287, 298 119.493 C 298 113.407, 284.860 110.327, 280.174 115.314 C 278.978 116.587, 278 118.110, 278 118.698 C 278 119.984, 274.608 121.009, 273.268 120.127 C 271.716 119.106, 270.932 112.996, 272.078 110.854 C 272.846 109.419, 272.811 108.477, 271.949 107.439 C 270.926 106.206, 271.862 106.097, 278.630 106.662 C 284.347 107.139, 286.830 107.783, 287.705 109.015 C 288.432 110.038, 291.012 110.991, 294.205 111.417 C 304.900 112.844, 370.514 114.618, 404.312 114.394 C 439.783 114.160, 442.912 113.819, 441.577 110.340 C 441.166 109.269, 443.718 108.950, 454.281 108.750 C 475.435 108.350, 481.518 108.699, 485.033 110.517 C 487.708 111.900, 496.111 112.191, 500.750 111.061 C 500.887 111.027, 501 110.298, 501 109.441 C 501 108.584, 500.581 108.141, 500.069 108.457 C 499.557 108.774, 498.844 108.557, 498.485 107.976 C 498.126 107.394, 496.857 107.213, 495.666 107.572 C 494.308 107.982, 494.806 107.332, 497 105.829 C 499.191 104.328, 500.584 102.509, 500.724 100.966 C 500.847 99.610, 500.705 99.037, 500.409 99.694 C 500.113 100.350, 499.241 100.646, 498.471 100.350 C 497.701 100.055, 495.748 100.755, 494.131 101.907 C 490.997 104.138, 489 104.590, 489 103.068 C 489 101.893, 493.902 98.368, 497.369 97.050 C 498.979 96.438, 500 95.286, 500 94.084 C 500 91.448, 498.486 90.669, 495.975 92.013 C 494.065 93.036, 494.005 92.964, 495.189 91.070 C 495.893 89.942, 497.151 89.128, 497.984 89.260 C 501.500 89.817, 500.175 85.293, 496.218 83.231 L 492.332 81.205 487.398 86.352 C 478.901 95.219, 478.550 95.752, 480.030 97.536 C 481.198 98.944, 481.054 98.982, 478.668 97.895 C 475.864 96.617, 475.331 95.532, 477 94.500 C 477.550 94.160, 478 92.514, 478 90.842 C 478 88.754, 478.939 86.925, 481 85 C 484.599 81.638, 484.777 79.680, 481.696 77.355 L 479.392 75.618 486.946 71.666 C 497.806 65.984, 500 64.259, 500 61.401 C 500 58.175, 497.627 57.359, 494.397 59.476 C 490.075 62.307, 480.964 64.773, 472.024 65.530 C 467.362 65.925, 461.793 66.867, 459.648 67.624 C 449.806 71.096, 432.223 68.967, 428.035 63.795 C 426.644 62.077, 426.113 61.991, 423.698 63.092 C 421.593 64.051, 420.670 64.070, 419.773 63.173 C 419.128 62.528, 417.552 62, 416.271 62 C 413.102 62, 402.377 56.472, 397.570 52.361 C 395.409 50.513, 393.201 49, 392.664 49 C 392.128 49, 390.214 47.875, 388.411 46.500 C 386.608 45.125, 384.766 43.987, 384.317 43.972 C 383.868 43.957, 381.732 42.607, 379.572 40.972 C 375.686 38.032, 375.673 38, 378.367 38 C 379.867 38, 382.113 36.978, 383.366 35.725 C 385.331 33.760, 397.111 30.051, 403.018 29.537 C 403.852 29.465, 405.040 29.093, 405.657 28.712 C 406.274 28.331, 408.966 28.512, 411.639 29.115 C 419.560 30.902, 426.927 31.305, 428.456 30.036 C 429.355 29.290, 431.902 29.094, 435.673 29.482 C 438.878 29.811, 443.345 30.219, 445.601 30.389 C 447.856 30.559, 450.139 30.968, 450.673 31.298 C 451.206 31.628, 452.900 31.246, 454.436 30.449 C 458.113 28.541, 463.905 28.604, 466.083 30.575 C 467.343 31.715, 470.669 32.280, 478.133 32.620 C 483.804 32.878, 490.151 33.473, 492.238 33.942 C 495.246 34.618, 496.476 34.435, 498.175 33.059 C 500.592 31.102, 499.860 28.419, 497.301 29.852 C 496.440 30.334, 494.094 30.359, 492.089 29.909 C 490.084 29.458, 483.804 28.878, 478.133 28.620 C 470.669 28.280, 467.343 27.715, 466.083 26.575 C 463.905 24.604, 458.113 24.541, 454.436 26.449 C 452.900 27.246, 451.206 27.628, 450.673 27.298 C 450.139 26.968, 447.856 26.559, 445.601 26.389 C 443.345 26.219, 438.878 25.811, 435.673 25.482 C 431.902 25.094, 429.355 25.290, 428.456 26.036 C 426.927 27.305, 419.560 26.902, 411.639 25.115 C 408.966 24.512, 406.274 24.331, 405.657 24.712 C 405.040 25.093, 403.852 25.465, 403.018 25.537 C 396.960 26.064, 385.138 29.679, 382.945 31.675 C 380.986 33.458, 379.225 34, 375.386 34 C 372.535 34, 369.547 34.631, 368.441 35.468 C 366.079 37.255, 363.007 37.593, 364.722 35.878 C 365.339 35.261, 365.641 34.227, 365.392 33.580 C 365.144 32.933, 366.079 31.335, 367.471 30.028 C 370.594 27.094, 370.631 25.941, 367.693 23.182 C 364.026 19.736, 356.552 19.133, 353.464 22.034 C 350.660 24.668, 350.312 27.184, 352.500 29 C 354.733 30.853, 354.378 31.533, 350.250 33.314 C 344.759 35.683, 335.685 37.051, 332.344 36.014 C 327.655 34.558, 313.909 32.625, 307.500 32.520 C 304.200 32.466, 300.565 31.902, 299.423 31.268 C 297.415 30.153, 291 29.836, 267.298 29.678 C 258.086 29.617, 255.761 29.906, 254.216 31.304 C 253.183 32.239, 252.010 32.677, 251.610 32.276 C 251.209 31.876, 248.771 31.428, 246.191 31.281 C 237.577 30.790, 236.221 30.510, 234.355 28.835 C 233.009 27.627, 230.549 27.155, 225.385 27.112 C 221.471 27.079, 217.055 26.591, 215.570 26.026 C 212.225 24.755, 206.550 24.697, 204.236 25.911 C 198.088 29.138, 192.896 29.977, 178 30.150 C 155.682 30.408, 145.148 30.026, 139.811 28.763 C 134.254 27.448, 130.920 28.986, 133.238 31.796 C 134.342 33.136, 134.227 33.182, 132.316 32.164 C 129.282 30.547, 126.979 30.709, 124.786 32.694 C 123.251 34.083, 123.020 34.111, 123.502 32.854 C 123.826 32.011, 123.508 30.874, 122.796 30.328 C 121.282 29.169, 107.929 26.896, 100 26.448 C 96.975 26.277, 91.233 25.830, 87.239 25.455 C 79.552 24.733, 76.340 25.838, 77.482 28.813 C 77.796 29.633, 75.966 28.380, 73.414 26.028 C 68.852 21.822, 68.685 21.762, 63.367 22.387 C 58.296 22.983, 57.902 22.872, 57.039 20.603 C 56.533 19.272, 54.939 17.355, 53.497 16.342 C 52.055 15.329, 49.601 13.488, 48.043 12.250 C 44.804 9.676, 42.347 9.404, 40.079 11.367 C 39.210 12.118, 35.037 13.010, 30.804 13.349 L 23.107 13.965 17.954 8.040 C 14.572 4.152, 11.803 1.923, 9.900 1.558 C 8.305 1.251, 5.650 0.739, 3.999 0.420 C 1.968 0.028, 0.864 0.270, 0.583 1.170 M 41.139 18.087 C 38.745 20.027, 39.569 20.342, 43.883 19.133 C 45.836 18.585, 46.016 18.259, 44.883 17.319 C 43.816 16.435, 42.960 16.611, 41.139 18.087 M 52 27.152 C 52 29.256, 52.407 30.058, 53.302 29.714 C 55.836 28.742, 61.049 31.841, 62.139 34.969 C 62.720 36.636, 63.806 38, 64.551 38 C 65.614 38, 65.539 37.357, 64.203 35.023 C 62.787 32.547, 62.713 31.703, 63.768 30.008 C 64.981 28.058, 64.866 27.998, 61.089 28.602 C 57.717 29.141, 56.767 28.858, 54.571 26.662 L 52 24.091 52 27.152 M 355 25.465 C 355 27.630, 358.002 28.784, 362.250 28.251 C 366.817 27.679, 367.195 25.489, 362.875 24.625 C 357.713 23.593, 355 23.882, 355 25.465 M 70.077 30.923 C 71.685 32.531, 73 34.508, 73 35.316 C 73 36.125, 73.685 37.049, 74.523 37.371 C 75.801 37.861, 75.861 37.596, 74.901 35.727 C 73.537 33.075, 68.932 28, 67.890 28 C 67.485 28, 68.469 29.315, 70.077 30.923 M 82 29.514 C 82 29.929, 82.514 31.982, 83.141 34.077 L 84.283 37.886 87.486 35.443 C 91.138 32.657, 94.190 32.319, 96 34.500 C 96.685 35.325, 97.810 36, 98.500 36 C 99.190 36, 100.315 35.325, 101 34.500 C 102.580 32.596, 107.906 32.614, 110.441 34.532 C 112.895 36.388, 116.407 36.419, 117.919 34.597 C 119.208 33.045, 109.412 30.814, 99.500 30.402 C 96.750 30.288, 91.688 29.872, 88.250 29.477 C 84.813 29.083, 82 29.099, 82 29.514 M 204.684 29.649 C 200.948 33.386, 171.812 35.894, 157.326 33.726 L 152.152 32.951 155.085 36.091 C 157.545 38.724, 158.458 39.107, 160.759 38.464 C 162.266 38.042, 166.875 37.771, 171 37.861 C 178.243 38.019, 178.603 38.144, 181.500 41.513 C 183.150 43.431, 184.921 45, 185.436 45 C 185.950 45, 187.379 45.947, 188.612 47.105 C 191.309 49.639, 193 48.872, 193 45.115 C 193 41.177, 199.123 36, 203.781 36 C 204.833 36, 207.315 34.425, 209.297 32.500 L 212.901 29 209.117 29 C 207.036 29, 205.041 29.292, 204.684 29.649 M 356.952 33.558 C 353.793 37.364, 337.838 41.581, 332.500 40.020 C 327.392 38.527, 313.796 36.623, 307.500 36.520 C 304.200 36.466, 300.524 35.880, 299.331 35.219 C 298.128 34.552, 293.677 34.043, 289.331 34.075 C 285.024 34.108, 277.819 33.823, 273.320 33.443 C 268.821 33.062, 263.519 33.055, 261.538 33.427 L 257.936 34.103 259.968 36.686 C 261.086 38.107, 262 40.063, 262 41.032 C 262 43.426, 270.095 52.960, 272.146 52.982 C 274.253 53.005, 280 59.506, 280 61.865 C 280 63.903, 285.486 64.451, 303.271 64.192 C 312.559 64.057, 325.927 60.407, 329.302 57.086 C 329.743 56.652, 323.207 56.488, 314.779 56.721 C 300.282 57.123, 299.308 57.030, 296.727 55 C 293.412 52.392, 293.313 50.992, 296.250 48.241 C 300.005 44.724, 303.921 43.850, 317.761 43.441 L 331.023 43.049 334.146 45.839 C 336.883 48.284, 337.124 48.900, 336.096 50.820 L 334.924 53.011 339.212 50.916 C 341.570 49.764, 345.011 46.842, 346.858 44.422 C 348.705 42.003, 352.647 38.633, 355.618 36.933 C 358.589 35.233, 360.764 33.427, 360.451 32.921 C 359.618 31.573, 358.418 31.792, 356.952 33.558 M 236.233 39.457 C 233.661 41.622, 232.772 41.864, 230.528 41.011 C 226.710 39.559, 225.526 39.723, 227 41.500 C 227.937 42.629, 227.963 43.340, 227.105 44.374 C 225.943 45.773, 227.700 47.428, 233.842 50.721 L 236.184 51.977 234.144 48.520 L 232.105 45.063 234.687 43.031 C 236.108 41.914, 237.806 41, 238.461 41 C 240.554 41, 244 45.537, 244 48.293 C 244 50.771, 244.175 50.878, 246.496 49.820 C 248.528 48.894, 249.333 48.992, 250.831 50.347 C 253.671 52.918, 259.911 50.664, 257.458 47.954 C 256.554 46.955, 255.069 44.645, 254.157 42.819 C 252.695 39.890, 251.912 39.431, 247.500 38.911 C 244.750 38.587, 241.776 38.001, 240.890 37.608 C 239.851 37.147, 238.199 37.803, 236.233 39.457 M 125.500 40.469 C 123.382 42.205, 122.978 42.939, 124.128 42.964 C 125.023 42.984, 126.299 43.655, 126.963 44.455 C 127.916 45.604, 128.564 45.665, 130.035 44.746 C 131.503 43.830, 132.624 43.927, 135.305 45.206 C 138.468 46.714, 138.896 46.708, 141.308 45.126 C 143.812 43.483, 143.836 43.378, 141.966 42.211 C 140.900 41.545, 139.009 40.984, 137.764 40.965 C 136.519 40.945, 134.375 40.286, 133 39.500 C 129.596 37.554, 128.955 37.637, 125.500 40.469 M 359.500 42.179 C 358.400 42.794, 354.350 45.642, 350.500 48.508 C 346.650 51.374, 341.599 54.685, 339.275 55.867 C 336.951 57.049, 332.884 59.938, 330.238 62.288 C 324.649 67.252, 302.247 78.617, 296.121 79.597 C 293.830 79.963, 291.714 80.654, 291.419 81.131 C 291.124 81.609, 289.726 82, 288.312 82 C 286.770 82, 284.161 83.429, 281.786 85.574 C 279.610 87.540, 277.200 88.907, 276.430 88.612 C 275.645 88.310, 274.547 88.978, 273.929 90.132 C 273.324 91.263, 270.279 93.372, 267.164 94.818 L 261.500 97.446 266 98.085 C 270.193 98.681, 311.312 99.377, 347 99.456 C 355.525 99.475, 366.100 99.167, 370.500 98.771 C 383.877 97.569, 398.782 97.603, 413.500 98.869 C 421.200 99.532, 437.333 99.945, 449.352 99.787 L 471.204 99.500 462.852 94.599 C 453.725 89.243, 449.792 86.145, 450.553 84.914 C 450.824 84.476, 449.572 84.342, 447.772 84.616 C 445.167 85.012, 442.870 84.172, 436.500 80.489 C 432.100 77.946, 423.100 73.105, 416.500 69.731 C 409.500 66.153, 402.458 61.702, 399.599 59.048 C 396.359 56.041, 395.115 55.291, 395.929 56.833 C 396.949 58.768, 396.886 59.469, 395.554 60.940 C 394.119 62.526, 394.111 62.847, 395.475 63.979 C 397.622 65.761, 397.379 67.295, 394.528 69.974 C 391.331 72.977, 384.272 71.933, 382.402 68.180 C 380.309 63.980, 372.521 61, 363.638 61 C 361.361 61, 359.555 60.145, 357.666 58.174 C 355.047 55.440, 355.019 55.293, 356.808 53.674 C 357.825 52.753, 359.254 52, 359.984 52 C 360.903 52, 360.725 51.352, 359.405 49.890 C 357.513 47.794, 357.527 47.756, 361.417 44.390 C 365.411 40.933, 364.209 39.546, 359.500 42.179 M 367.286 43.606 C 364.708 46.393, 365.456 46.552, 372.980 44.815 C 377.877 43.685, 378.007 43.572, 375.806 42.351 C 372.459 40.493, 369.802 40.885, 367.286 43.606 M 87.139 45.033 C 84.034 47.620, 86.435 47.590, 89.727 45 C 91.145 43.885, 91.657 43.015, 90.885 43.033 C 90.123 43.052, 88.438 43.952, 87.139 45.033 M 237.035 45.750 C 237.055 46.163, 237.714 47.625, 238.500 49 L 239.929 51.500 239.965 48.250 C 239.989 46.012, 239.533 45, 238.500 45 C 237.675 45, 237.016 45.337, 237.035 45.750 M 165 47 C 164.175 47.533, 162.530 47.976, 161.344 47.985 C 159.405 47.998, 159.304 48.250, 160.344 50.492 C 161.490 52.962, 164 53.966, 164 51.955 C 164 51.380, 165.105 49.805, 166.455 48.455 C 168.870 46.039, 167.934 45.104, 165 47 M 301.954 48.850 C 294.126 51.457, 297.763 52.504, 314.377 52.427 C 327.579 52.366, 330.337 52.092, 331.727 50.701 C 332.637 49.792, 333.032 48.699, 332.605 48.274 C 331.245 46.918, 306.352 47.386, 301.954 48.850 M 369 49.456 C 365.975 50.105, 364.175 50.877, 365 51.171 C 365.825 51.465, 368.735 51.051, 371.466 50.250 C 374.219 49.443, 378.205 49.032, 380.414 49.329 C 383.030 49.680, 383.899 49.549, 382.948 48.947 C 381.094 47.774, 375.968 47.961, 369 49.456 M 186.580 55.219 C 187.843 57.006, 189.356 57.908, 191 57.853 C 193.042 57.783, 193.133 57.679, 191.500 57.284 C 190.400 57.018, 188.411 55.833, 187.080 54.650 L 184.661 52.500 186.580 55.219 M 128.620 55.838 C 125.184 57.856, 124.981 59.120, 127.855 60.589 C 129.027 61.188, 130.916 62.519, 132.052 63.547 C 134.420 65.690, 136.153 65.016, 139.377 60.697 C 143.364 55.357, 135.492 51.801, 128.620 55.838 M 360.477 56.037 C 360.136 56.589, 361.507 57.006, 363.691 57.014 C 365.786 57.021, 368.625 57.324, 370 57.687 C 372.168 58.259, 372.332 58.141, 371.233 56.800 C 369.813 55.067, 361.443 54.473, 360.477 56.037 M 386.148 57.135 C 385.082 58.842, 385.333 59, 389.114 59 C 392.530 59, 393.045 58.759, 392.090 57.608 C 390.194 55.324, 387.417 55.103, 386.148 57.135 M 87.491 59.589 C 85.995 60.365, 83.735 61, 82.467 61 C 78.050 61, 77.111 61.908, 77.710 65.601 C 78.566 70.874, 72.834 76, 66.081 76 C 63.809 76, 63.205 76.371, 63.638 77.500 C 63.955 78.325, 64.808 79, 65.534 79 C 67.927 79, 71 84.086, 71 88.046 C 71 93.128, 66.617 97, 60.864 97 C 58.353 97, 57.120 97.385, 57.527 98.044 C 57.882 98.618, 57.619 99.754, 56.944 100.568 C 56.268 101.382, 55.892 102.151, 56.107 102.278 C 56.323 102.404, 57.859 103.454, 59.519 104.613 C 61.180 105.771, 63.502 107.025, 64.679 107.398 C 65.856 107.772, 67.365 108.735, 68.032 109.539 C 68.699 110.342, 69.918 111, 70.740 111 C 71.563 111, 73.774 112.350, 75.653 114 C 79.311 117.212, 84.395 118.386, 81.965 115.458 C 80.995 114.289, 80.966 113.634, 81.842 112.758 C 85.428 109.172, 82.126 106.107, 77.980 109.173 C 73.752 112.299, 71.727 110.854, 70.739 104.007 C 69.861 97.921, 70.650 96.448, 75.319 95.447 C 77.402 95.001, 80.167 92.907, 83.330 89.383 C 88.845 83.236, 89.680 83.018, 93.952 86.613 C 97.711 89.776, 96.577 92.265, 91.592 91.793 C 89.103 91.557, 88.442 91.907, 88.202 93.588 C 87.748 96.764, 90.606 98.727, 93.267 97.065 C 95.185 95.868, 95.754 96.156, 99.686 100.317 C 102.457 103.251, 104 105.798, 104 107.442 C 104 110.482, 105.065 110.691, 107.402 108.108 C 109.542 105.743, 111.984 106.331, 115.570 110.073 C 118.130 112.745, 118.220 113.100, 116.749 114.733 C 115.232 116.416, 116.125 116.518, 135.447 116.867 C 156.371 117.246, 157.044 117.137, 157.633 113.250 C 157.858 111.767, 154.392 111.557, 153.500 113 C 152.197 115.109, 148.987 113.874, 146.586 110.341 L 144.099 106.681 141.327 109.841 C 137.879 113.771, 135.868 113.821, 132.700 110.055 C 131.337 108.436, 129.950 107.383, 129.617 107.716 C 128.654 108.679, 125 104.871, 125 102.904 C 125 100.779, 123.400 99.545, 122.510 100.984 C 120.967 103.480, 114 99.679, 114 96.341 C 114 94.779, 117.434 92, 119.364 92 C 120.741 92, 120.871 91.627, 120.035 90.066 C 119.466 89.002, 119 86.998, 119 85.613 C 119 80.710, 116.982 78, 113.331 78 C 110.265 78, 110.085 78.164, 111.197 79.944 C 112.201 81.551, 112.089 82.245, 110.551 83.944 C 108.010 86.752, 106.298 86.531, 102.967 82.964 C 100.713 80.551, 99.603 80.062, 97.553 80.576 C 94.246 81.406, 92 79.555, 92 76 C 92 70.267, 99.649 69.620, 105.359 74.871 L 108.218 77.500 105.621 73.628 C 103.794 70.904, 103.207 69.024, 103.642 67.290 C 104.218 64.996, 104.025 64.845, 100.866 65.117 C 96.650 65.480, 95.043 64.553, 95.677 62.126 C 96.410 59.324, 91.146 57.693, 87.491 59.589 M 133 59.500 C 133.685 60.325, 134.592 61, 135.015 61 C 135.439 61, 136.045 60.325, 136.362 59.500 C 136.782 58.405, 136.238 58, 134.346 58 C 132.156 58, 131.948 58.232, 133 59.500 M 171.732 59.750 C 170.283 61.357, 170.376 61.827, 172.875 65.500 C 175.415 69.233, 175.927 69.505, 180.548 69.582 C 187.424 69.696, 189.923 67.611, 186.841 64.331 C 185.637 63.049, 184.037 62, 183.286 62 C 182.535 62, 180.156 61.100, 178 60 C 173.271 57.587, 173.668 57.603, 171.732 59.750 M 388.500 65.896 C 386.011 66.443, 385.812 66.678, 387.332 67.277 C 390.341 68.465, 393 68.100, 393 66.500 C 393 65.675, 392.663 65.053, 392.250 65.118 C 391.837 65.183, 390.150 65.533, 388.500 65.896 M 423.661 67.166 C 422.092 68.048, 423.487 69.146, 433.161 74.646 C 445.579 81.707, 448.553 82.185, 454.176 78.028 C 455.685 76.912, 457.753 76, 458.771 76 C 459.790 76, 461.622 74.650, 462.842 73 C 465.422 69.510, 465.509 69.556, 460 71.500 C 450.018 75.022, 433.272 73.192, 427.500 67.949 C 425.973 66.562, 425.065 66.377, 423.661 67.166 M 282.382 68.017 C 279.416 69.167, 273.554 81.758, 275.112 83.635 C 276.735 85.590, 277.279 85.403, 281.297 81.500 C 283.785 79.084, 285.827 78, 287.891 78 C 289.536 78, 291.124 77.609, 291.419 77.131 C 291.714 76.654, 293.686 75.986, 295.801 75.648 C 297.916 75.310, 303.438 73.232, 308.073 71.031 C 312.708 68.831, 315.247 67.301, 313.714 67.632 C 309.776 68.484, 293.269 68.625, 288.500 67.848 C 286.300 67.489, 283.547 67.565, 282.382 68.017 M 470.063 76.725 C 469.272 77.036, 467.545 78.576, 466.224 80.146 C 464.616 82.056, 462.879 83, 460.970 83 C 456.204 83, 456.645 84.778, 462.210 88.006 C 465.120 89.694, 468.611 91.845, 469.970 92.787 L 472.439 94.500 470.720 92.027 C 468.336 88.600, 468.569 86.329, 471.500 84.408 C 472.875 83.507, 474 82.070, 474 81.214 C 474 80.358, 474.745 78.835, 475.655 77.829 C 477.223 76.096, 477.157 76.004, 474.405 76.079 C 472.807 76.122, 470.853 76.413, 470.063 76.725 M 47.500 78.008 C 36.495 79.131, 35.114 80.402, 44.196 81.046 C 49.435 81.418, 52.493 82.137, 53.775 83.296 C 54.810 84.233, 57.168 85, 59.014 85 C 61.117 85, 63.268 85.841, 64.773 87.250 L 67.175 89.500 66.837 86.540 C 66.587 84.340, 65.858 83.430, 64 82.997 C 62.625 82.677, 60.913 81.197, 60.195 79.708 C 58.787 76.784, 59.092 76.825, 47.500 78.008 M 478 81.326 C 478 82.055, 476.875 83.708, 475.500 85 C 474.125 86.292, 473.029 88.058, 473.063 88.924 C 473.109 90.059, 473.358 89.941, 473.954 88.500 C 474.409 87.400, 475.955 85.409, 477.391 84.076 C 480.103 81.556, 480.717 80, 479 80 C 478.450 80, 478 80.597, 478 81.326 M 13.395 84.750 C 13.686 85.713, 14.351 89.217, 14.872 92.537 C 16.691 104.116, 18.902 110.123, 20.944 109.030 C 23.077 107.889, 25.155 109.833, 26.791 114.500 C 27.654 116.965, 27.856 117.110, 27.921 115.315 C 28.055 111.600, 26.014 107.636, 22.456 104.703 C 19.249 102.060, 16.513 95.849, 17.185 92.739 C 17.495 91.308, 14.301 83, 13.441 83 C 13.124 83, 13.103 83.787, 13.395 84.750 M 30.628 86.850 C 28.499 87.885, 27.149 88.965, 27.628 89.251 C 29.450 90.338, 61.847 91.057, 62.485 90.024 C 62.874 89.395, 61.679 89, 59.388 89 C 57.238 89, 54.839 88.259, 53.725 87.250 C 50.774 84.577, 35.839 84.319, 30.628 86.850 M 492 86.380 C 492 87.322, 490.701 88.838, 489.114 89.749 C 487.526 90.661, 485.712 92.231, 485.083 93.239 C 484.026 94.932, 484.246 94.915, 487.953 93.024 C 491.720 91.102, 494.247 86.914, 492.620 85.287 C 492.279 84.946, 492 85.438, 492 86.380 M 192.968 98.153 L 188.938 102.305 191.219 104.781 C 192.474 106.143, 194.887 107.849, 196.583 108.572 C 198.278 109.295, 201.314 111.712, 203.330 113.943 C 207.413 118.463, 207.685 118.574, 209.921 116.622 C 210.790 115.865, 213.589 114.944, 216.142 114.577 C 220.303 113.979, 220.986 114.167, 222.738 116.394 C 224.495 118.628, 224.848 118.724, 226.227 117.344 C 227.607 115.964, 227.396 115.471, 224.131 112.465 L 220.500 109.121 224.688 104.811 C 228.499 100.889, 228.749 100.327, 227.455 98.582 C 226.402 97.161, 226.320 96.319, 227.139 95.332 C 228.052 94.232, 225.520 94, 212.621 94 L 196.998 94 192.968 98.153 M 81.139 97.084 C 79.841 98.138, 77.955 99, 76.948 99 C 74.463 99, 74.042 99.969, 74.837 103.860 L 75.514 107.170 78.337 104.949 L 81.160 102.729 83.830 104.715 C 86.788 106.915, 87.763 110.376, 86.017 112.480 C 85.072 113.618, 86.368 113.905, 93.690 114.180 C 103.909 114.564, 103.837 114.582, 101.661 112.177 C 100.747 111.168, 100 109.166, 100 107.727 C 100 104.076, 95.590 99.056, 93.870 100.750 C 91.817 102.771, 89.969 102.217, 86.635 98.584 L 83.500 95.167 81.139 97.084 M 212.535 99.104 C 208.158 102.946, 208.103 104.482, 212.250 107.011 C 216.613 109.671, 218.127 109.521, 221.403 106.102 C 224.491 102.878, 224.045 100.546, 219.770 97.551 C 216.812 95.480, 216.614 95.522, 212.535 99.104 M 37.366 98.487 C 37.052 99.306, 37.270 101.335, 37.849 102.998 C 38.429 104.660, 39.202 108.668, 39.569 111.904 L 40.234 117.787 47.367 118.385 C 54.004 118.942, 64.392 119.262, 69.833 119.079 C 73.398 118.958, 71.975 117.012, 65.982 113.810 C 63.002 112.217, 59.874 110.303, 59.031 109.557 C 58.189 108.810, 55.716 107.462, 53.537 106.561 C 48.795 104.602, 46.075 102.297, 44.910 99.250 C 43.892 96.588, 38.312 96.024, 37.366 98.487 M 214.441 101.481 C 212.761 102.763, 212.702 103.097, 214 103.966 C 217.430 106.261, 221.319 104.295, 218.964 101.456 C 217.450 99.633, 216.859 99.636, 214.441 101.481 M 245.500 101.817 C 236.300 104.398, 235.076 105.322, 237.426 107.918 C 239.422 110.124, 242.470 110.667, 243.500 109 C 243.840 108.450, 245.801 108, 247.858 108 C 251.562 108, 251.597 107.962, 251.549 104.003 C 251.522 101.805, 251.500 100.035, 251.500 100.070 C 251.500 100.106, 248.800 100.892, 245.500 101.817 M 385.729 103.730 C 383.655 103.946, 382.200 104.515, 382.496 104.993 C 383.529 106.664, 378.537 109, 373.932 109 C 369.299 109, 365.058 106.356, 366.748 104.521 C 367.162 104.072, 366.375 103.990, 365 104.339 C 363.625 104.687, 355.788 104.979, 347.583 104.986 C 339.379 104.994, 332.963 105.296, 333.325 105.658 C 333.687 106.020, 333.504 106.893, 332.918 107.599 C 331.264 109.591, 335.505 109.928, 367.677 110.358 L 396.854 110.748 393.898 108.261 C 391.565 106.297, 391.185 105.482, 392.094 104.387 C 393.332 102.896, 393.528 102.916, 385.729 103.730 M 32.618 105 C 32.290 105.825, 32.672 108.300, 33.467 110.500 L 34.912 114.500 34.886 111 C 34.852 106.483, 33.476 102.843, 32.618 105 M 229 108.500 C 227.963 109.749, 228.092 110, 229.771 110 C 230.879 110, 232.045 109.325, 232.362 108.500 C 232.698 107.624, 232.377 107, 231.591 107 C 230.851 107, 229.685 107.675, 229 108.500 M 190 110.381 C 190 113.634, 178.852 118.952, 176.363 116.886 C 175.625 116.274, 175.269 115.374, 175.570 114.887 C 175.871 114.399, 175.954 114, 175.753 114 C 175.159 114, 168.571 118.993, 169.056 119.076 C 171.476 119.489, 200.416 119.361, 201.107 118.934 C 202.082 118.331, 199.822 116.092, 193.750 111.645 C 191.004 109.634, 190 109.295, 190 110.381 M 399.500 110 C 398.155 110.578, 399.955 110.850, 405 110.830 C 410.204 110.810, 411.735 110.556, 410 110 C 406.682 108.937, 401.973 108.937, 399.500 110 M 108.040 112.452 C 106.919 113.802, 107.229 114, 110.461 114 C 112.978 114, 114.035 113.599, 113.755 112.750 C 113.138 110.877, 109.504 110.687, 108.040 112.452 M 232.324 114.404 C 230.210 115.576, 230.202 115.645, 232.060 116.805 C 235.687 119.070, 240.470 116.870, 237.776 114.176 C 236.360 112.760, 235.199 112.808, 232.324 114.404 M 245.972 116.471 C 247.898 118.520, 248.077 119.202, 247.024 120.471 C 245.472 122.342, 247.319 122.520, 252.884 121.036 C 254.873 120.505, 259.087 119.798, 262.250 119.464 C 266.844 118.978, 268 118.502, 268 117.095 C 268 114.209, 267.018 114.073, 264.485 116.606 C 261.473 119.618, 260.512 119.603, 257.409 116.500 C 255.335 114.426, 253.951 114, 249.280 114 L 243.651 114 245.972 116.471 M 330.557 118.223 C 328.772 120.770, 328.463 129.063, 330.093 130.693 C 330.883 131.483, 330.883 132.350, 330.093 133.827 C 328.255 137.261, 328.720 146.436, 330.829 148.345 C 333.402 150.673, 333.641 150.590, 342 144.450 C 346.270 141.314, 350.361 139.049, 351.500 139.190 C 352.600 139.327, 354.096 139.068, 354.824 138.614 C 355.656 138.096, 356.956 138.517, 358.324 139.746 C 359.521 140.822, 361.249 141.965, 362.165 142.287 C 363.080 142.609, 364.430 144.125, 365.165 145.657 C 367.379 150.274, 370.235 151.087, 383.148 150.779 C 395.654 150.479, 398.519 149.385, 399.194 144.646 C 399.461 142.774, 400.434 142.386, 406.821 141.603 L 414.142 140.706 420.022 144.853 C 423.256 147.134, 426.305 149, 426.796 149 C 430.186 149, 432.502 139.902, 429.800 137.200 C 428.867 136.267, 428.867 135.733, 429.800 134.800 C 432.475 132.125, 430.881 119, 427.882 119 C 427.487 119, 424.764 121.076, 421.832 123.613 C 414.171 130.241, 410.397 131.713, 407.631 129.151 C 406.459 128.064, 404.375 127.023, 403 126.838 C 401.002 126.568, 400.437 125.853, 400.188 123.274 C 399.597 117.153, 396.623 116, 381.422 116 C 366.927 116, 365 116.789, 365 122.723 C 365 124.416, 364.423 125.002, 362.750 125.006 C 361.512 125.010, 359.272 125.653, 357.771 126.436 C 353.358 128.738, 349.619 127.554, 342.342 121.552 C 334.960 115.464, 332.897 114.881, 330.557 118.223 M 282 118.276 C 282 120.232, 277.640 124.076, 275.213 124.259 C 273.817 124.364, 273.043 125.256, 272.778 127.062 C 272.458 129.237, 272.721 129.624, 274.242 129.226 C 276.659 128.594, 280.617 132.337, 281.337 135.935 C 281.769 138.094, 282.618 138.874, 285.073 139.365 C 290.985 140.547, 292.423 140.122, 294 136.728 C 295.303 133.924, 296.145 133.409, 300.414 132.809 C 306.369 131.973, 308.773 133.065, 314.958 139.420 C 317.410 141.939, 319.969 144, 320.645 144 C 322.183 144, 322.785 138.549, 321.719 134.265 C 321.234 132.317, 321.329 130.253, 321.957 129.080 C 322.531 128.008, 323 125.704, 323 123.959 C 323 120.229, 322.547 120.309, 314.483 125.468 C 309.007 128.971, 305.646 129.854, 304.548 128.077 C 304.234 127.569, 302.689 126.871, 301.114 126.525 C 297.849 125.808, 294.370 122.449, 293.840 119.500 C 293.389 116.991, 282 115.814, 282 118.276 M 214 119 C 210.762 119.682, 210.898 119.747, 215.809 119.868 C 219.124 119.951, 220.886 119.624, 220.500 119 C 219.824 117.906, 219.198 117.906, 214 119 M 435.775 119.738 C 432.850 123.048, 432.480 129.818, 435.073 132.578 L 437.349 135 435.135 137.357 C 431.585 141.135, 431.293 146.001, 434.439 148.949 L 437.053 151.398 442.512 145.532 C 449.682 137.828, 449.742 137.461, 445.296 128.420 C 440.889 119.458, 438.193 117.001, 435.775 119.738 M 75 121.565 C 73.625 122.318, 72.493 123.286, 72.485 123.717 C 72.455 125.259, 70.759 127.155, 68.648 128.007 C 67.075 128.641, 68.140 128.890, 72.628 128.937 C 78.372 128.996, 82.045 130.621, 80.325 132.342 C 79.963 132.704, 80.192 133, 80.833 133 C 82.544 133, 82.255 129.940, 80.345 127.829 C 78.804 126.125, 78.809 125.868, 80.428 124.080 C 82.084 122.249, 82.071 122.109, 80.149 121.080 C 77.826 119.837, 78.225 119.799, 75 121.565 M 116.415 120.863 C 117.722 122.977, 125.893 124.287, 129.207 122.914 C 132.429 121.580, 132.431 121.574, 129.969 120.888 C 126.341 119.876, 115.794 119.857, 116.415 120.863 M 333 124.800 C 333 127.440, 333.492 130.092, 334.093 130.693 C 334.883 131.483, 334.883 132.350, 334.093 133.827 C 332.866 136.119, 332.587 146.011, 333.750 145.980 C 334.163 145.968, 337.866 143.493, 341.980 140.480 C 346.094 137.466, 349.983 135, 350.623 135 C 352.844 135, 352.964 132.123, 350.773 131.428 C 349.604 131.057, 345.714 128.334, 342.129 125.377 C 333.979 118.654, 333 118.592, 333 124.800 M 369 122.297 C 369 125.168, 365.395 128.704, 362 129.162 C 359.912 129.444, 359.449 130.112, 359.192 133.212 C 358.909 136.618, 359.171 137.045, 362.364 138.379 C 364.278 139.179, 366.657 141.108, 367.649 142.666 C 370.326 146.870, 370.646 146.968, 381.668 146.985 C 392.711 147.001, 395 146.549, 395 144.348 C 395 141.807, 399.721 138, 402.873 138 C 408.226 138, 408.995 137.297, 407.318 133.935 C 406.330 131.955, 405.100 131, 403.538 131 C 400.155 131, 396.942 127.953, 396.130 123.976 L 395.421 120.500 382.210 120.221 L 369 119.942 369 122.297 M 222 123.155 C 220.625 123.722, 216.800 123.949, 213.500 123.661 C 209.185 123.285, 206.955 123.540, 205.559 124.569 C 204.491 125.356, 202.575 126, 201.300 126 C 199.399 126, 199.153 126.314, 199.931 127.750 C 200.453 128.713, 201.140 130.738, 201.459 132.250 C 201.925 134.465, 202.588 135, 204.864 135 C 209.065 135, 210.917 137.706, 211.050 144.043 C 211.290 155.397, 209.727 158.801, 203.934 159.534 C 202.170 159.757, 200.671 160.066, 200.603 160.220 C 200.535 160.374, 199.583 161.564, 198.489 162.863 L 196.500 165.227 200.500 163.468 C 202.700 162.501, 206.896 161.410, 209.824 161.044 C 214.984 160.399, 216.828 159.120, 217.100 156 C 217.172 155.175, 217.291 153.876, 217.365 153.112 C 217.439 152.349, 218.250 151.250, 219.166 150.670 C 221.585 149.140, 223.886 151.436, 224.637 156.130 L 225.256 160 231.546 160 C 235.006 160, 238.661 160.309, 239.668 160.687 C 241.281 161.292, 241.336 161.172, 240.128 159.687 C 239.373 158.759, 237.994 158, 237.065 158 C 236.135 158, 234.092 156.662, 232.526 155.027 C 226.717 148.964, 229.356 135.801, 236.831 133.543 C 239.624 132.700, 240 132.160, 240 128.993 C 240 127.017, 240.428 124.973, 240.950 124.450 C 241.550 123.850, 239.247 123.496, 234.700 123.488 C 230.740 123.481, 226.825 123.172, 226 122.800 C 225.175 122.429, 223.375 122.589, 222 123.155 M 41.207 124.149 C 41.918 124.600, 44.975 124.941, 48 124.906 C 54.644 124.829, 53.606 124.301, 45.707 123.740 C 42.473 123.510, 40.485 123.691, 41.207 124.149 M 146.500 123.639 C 132.522 124.439, 127.857 126.124, 135.873 127.479 C 138.459 127.916, 141.003 127.608, 143.528 126.553 C 147.406 124.932, 154.293 125.143, 160.365 127.068 C 164.196 128.282, 165.947 127.052, 162.763 125.384 C 159.657 123.756, 154.370 123.189, 146.500 123.639 M 437.424 126.556 C 436.878 129.463, 437.183 130.566, 439.095 132.601 C 440.740 134.352, 441.147 135.479, 440.467 136.405 C 436.635 141.617, 435.885 143.155, 436.183 145.192 C 436.502 147.380, 436.714 147.292, 440.262 143.500 C 445.367 138.044, 445.461 137.294, 442.004 129.669 C 438.500 121.942, 438.313 121.815, 437.424 126.556 M 36.439 127.040 C 36.839 128.943, 37.394 133.096, 37.673 136.268 L 38.179 142.036 42.840 138.112 C 47.357 134.309, 55.621 126.735, 53.600 128.250 C 51.001 130.198, 42.176 129.019, 38.932 126.290 L 35.711 123.579 36.439 127.040 M 84.064 124.939 C 82.864 125.698, 82.847 126.110, 83.958 127.449 C 85.174 128.915, 85.444 128.908, 87.143 127.370 C 90.368 124.452, 87.906 122.508, 84.064 124.939 M 172.120 126.068 L 168.739 128.129 170.917 129.655 C 173.962 131.787, 171.923 134, 166.913 134 C 162.499 134, 161 135.846, 161 141.279 C 161 146.816, 158.623 148.143, 149.117 147.914 C 139.983 147.694, 139.276 147.237, 138.192 140.857 C 137.576 137.231, 137.036 136.442, 134.976 136.155 L 132.500 135.809 134.840 138.315 C 136.931 140.554, 137.195 141.840, 137.314 150.358 C 137.474 161.749, 135.783 164.670, 128.726 165.199 C 126.365 165.376, 124.416 166.120, 124.007 167 C 123.624 167.825, 122.787 169.512, 122.147 170.750 C 120.723 173.504, 121.028 173.525, 125.739 171 C 128.088 169.741, 131.381 169, 134.628 169 C 140.064 169, 140.188 168.895, 142.034 162.750 C 142.641 160.731, 142.513 160, 141.553 160 C 138.793 160, 137.899 157.401, 140.004 155.497 C 141.102 154.503, 142 153.962, 142 154.294 C 142 154.626, 143.580 154.238, 145.511 153.431 C 149.427 151.795, 158.727 151.749, 159.723 153.362 C 160.077 153.934, 160.398 156.541, 160.436 159.154 C 160.525 165.293, 161.906 166.763, 165.419 164.461 C 167.777 162.916, 168.231 162.894, 169.776 164.250 C 170.724 165.082, 172.489 166.065, 173.699 166.433 C 175.855 167.089, 175.867 167.041, 174.328 163.956 C 172.950 161.193, 172.345 160.858, 169.366 161.205 C 163.012 161.947, 160.448 155.527, 162.420 143.810 C 163.352 138.271, 165.242 136.275, 169.978 135.828 C 173.231 135.521, 173.503 135.218, 174.194 131.143 C 174.600 128.747, 175.452 126.160, 176.089 125.393 C 177.750 123.391, 176.032 123.683, 172.120 126.068 M 422.954 126.549 C 421.637 127.951, 418.076 130.746, 415.042 132.761 L 409.524 136.423 412.684 137.069 C 414.422 137.425, 418.077 139.355, 420.806 141.358 C 423.535 143.361, 426.045 145, 426.384 145 C 427.512 145, 427.019 138.419, 425.800 137.200 C 424.867 136.267, 424.867 135.733, 425.800 134.800 C 427.140 133.460, 427.468 124, 426.174 124 C 425.720 124, 424.271 125.147, 422.954 126.549 M 95.706 126.385 C 101.980 128.567, 101.899 129.096, 93.620 140.035 C 83.595 153.280, 83.595 153.247, 93.500 159.761 C 97.900 162.654, 103.525 166.476, 106 168.253 C 108.475 170.030, 110.819 171.488, 111.209 171.492 C 112.613 171.508, 126.957 150.451, 126.978 148.345 C 126.999 146.263, 114.647 136.155, 105.029 130.382 C 103.088 129.217, 101.541 127.642, 101.591 126.882 C 101.656 125.909, 100.325 125.466, 97.091 125.385 C 92.507 125.271, 92.505 125.272, 95.706 126.385 M 213.756 127.720 L 211.013 130.596 215.294 134.798 C 220.813 140.215, 222.921 140.154, 227.599 134.444 C 231.271 129.964, 231.301 129.857, 229.416 128.022 C 228.271 126.906, 225.288 125.892, 222 125.500 C 216.844 124.885, 216.328 125.024, 213.756 127.720 M 109.673 129.329 C 117.868 136.080, 124.467 140.409, 122.232 137.568 C 121.005 136.007, 120 133.666, 120 132.365 C 120 130.588, 119.440 129.992, 117.750 129.968 C 116.513 129.951, 114.626 129.276, 113.559 128.468 C 112.491 127.661, 110.544 127, 109.232 127 L 106.847 127 109.673 129.329 M 194.056 129.559 C 195.591 131.194, 196.608 131.677, 196.868 130.897 C 197.092 130.224, 196.452 129.073, 195.446 128.337 C 192.372 126.089, 191.509 126.848, 194.056 129.559 M 178.374 129.467 C 177.228 132.453, 178.613 133.041, 180.944 130.559 L 183.349 128 181.143 128 C 179.930 128, 178.684 128.660, 178.374 129.467 M 378.687 130.805 C 377.209 132.347, 376 134.519, 376 135.630 C 376 137.999, 379.918 142, 382.238 142 C 384.471 142, 390 137.168, 390 135.216 C 390 133.090, 385.062 128, 383 128 C 382.106 128, 380.165 129.262, 378.687 130.805 M 90 131.969 C 90 136.685, 85.341 141, 80.250 141 L 76.346 141 75.258 147.250 C 74.659 150.688, 74.412 156.088, 74.709 159.250 L 75.248 165 80.535 165 C 85.708 165, 89.709 167.626, 91.158 171.973 C 91.527 173.082, 104.008 172.240, 103.990 171.108 C 103.985 170.773, 99.462 167.637, 93.940 164.139 C 83.364 157.438, 80.496 154.478, 81.653 151.462 C 82.271 149.851, 87.890 141.831, 94.097 133.700 C 96.527 130.517, 96.494 130.413, 92.748 129.473 C 90.181 128.829, 90 128.994, 90 131.969 M 128 130.552 C 128 131.601, 129.170 131.978, 132.250 131.921 C 134.588 131.878, 135.825 131.617, 135 131.343 C 128.473 129.169, 128 129.116, 128 130.552 M 179.618 136.750 C 175.991 141.012, 173.020 145.175, 173.016 146 C 173.012 146.825, 175.944 150.875, 179.532 155 C 183.682 159.772, 185.897 163.137, 185.621 164.250 C 185.270 165.668, 185.857 166, 188.716 166 C 191.610 166, 192.038 165.751, 191.095 164.614 C 190.184 163.517, 190.910 162.110, 194.573 157.864 C 202.405 148.786, 202.888 147.059, 199.204 141.322 C 195.073 134.890, 189.584 129, 187.721 129 C 186.891 129, 183.245 132.488, 179.618 136.750 M 215.658 129.676 C 214.559 130.774, 219.167 135.003, 221.424 134.969 C 222.566 134.951, 224.267 133.882, 225.204 132.592 C 226.896 130.262, 226.884 130.243, 223.204 129.634 C 218.379 128.837, 216.486 128.847, 215.658 129.676 M 140.251 131.660 C 139.289 132.050, 139.347 132.657, 140.501 134.305 C 141.326 135.482, 142 137.400, 142 138.568 C 142 142.176, 145.089 144, 151.199 144 L 156.740 144 157.252 139.459 C 157.533 136.962, 158.590 133.925, 159.601 132.709 C 160.611 131.494, 159.187 132.637, 156.435 135.250 C 150.340 141.036, 150.552 141.029, 145.554 135.577 C 143.324 133.145, 140.938 131.382, 140.251 131.660 M 148.235 133.689 C 150.864 136.318, 150.970 136.337, 152.962 134.534 C 156.038 131.751, 155.466 131, 150.273 131 L 145.545 131 148.235 133.689 M 380.709 132.624 C 379.222 134.112, 379.977 138, 381.750 137.985 C 384.497 137.961, 386.230 136.433, 385.838 134.380 C 385.477 132.487, 382.027 131.306, 380.709 132.624 M 58.340 136.866 C 55.678 138.993, 52.375 141.982, 51 143.510 L 48.500 146.288 52 145.453 C 53.925 144.994, 57.413 144.604, 59.750 144.586 L 64 144.553 64 140.358 C 64 138.051, 64.273 135.452, 64.607 134.582 C 65.602 131.988, 63.476 132.764, 58.340 136.866 M 47.831 141.379 C 42.607 146.189, 41.407 149.205, 44.468 149.829 C 46.154 150.173, 46.250 150.006, 45.134 148.662 C 44.022 147.321, 44.519 146.360, 48.553 142.047 C 54.311 135.891, 54.051 135.651, 47.831 141.379 M 203.591 141.919 C 206.588 146.329, 206.582 146.863, 203.500 151.405 C 200.438 155.917, 200.438 155.821, 203.499 155.644 C 205.194 155.546, 205.999 154.916, 205.999 153.684 C 206 152.686, 206.446 151.034, 206.992 150.015 C 207.538 148.996, 207.707 146.143, 207.369 143.676 C 206.827 139.721, 206.425 139.143, 203.968 138.782 L 201.181 138.373 203.591 141.919 M 127.804 143.298 C 131.988 147.614, 131.854 149, 126.514 156.638 C 123.618 160.781, 122.709 162.691, 123.948 162.028 C 125.004 161.462, 127.414 161, 129.303 161 C 132.587 161, 132.762 160.814, 133.307 156.750 C 133.621 154.412, 133.615 149.688, 133.294 146.250 L 132.711 140 128.659 140 L 124.608 140 127.804 143.298 M 166.378 144.250 C 165.851 146.588, 165.588 150.543, 165.794 153.039 C 166.162 157.506, 166.220 157.573, 169.403 157.201 C 172.075 156.889, 173.160 157.418, 175.637 160.239 C 177.620 162.498, 179.199 163.456, 180.300 163.070 C 181.640 162.600, 180.701 161.023, 175.487 154.993 C 168.806 147.267, 167.922 145.140, 170.500 143 C 172.674 141.196, 172.342 140, 169.668 140 C 167.743 140, 167.170 140.739, 166.378 144.250 M 286.929 148.857 C 284.649 150.703, 284.646 150.735, 286.438 154.607 C 296.751 176.892, 298.627 177.630, 311.711 164.546 C 323.697 152.560, 322.939 151.240, 302.542 148.567 C 288.014 146.663, 289.675 146.633, 286.929 148.857 M 289 151.313 C 289 151.721, 293.630 161.582, 295.779 165.750 C 298.533 171.090, 301.889 170.296, 309.739 162.446 C 313.574 158.611, 315.921 155.526, 315.396 155.008 C 314.328 153.954, 289 150.408, 289 151.313 M 363.050 157.952 C 353.556 167.493, 346.011 177.764, 347.554 179.044 C 348.710 180.004, 350.884 178.227, 359.306 169.441 C 365.847 162.617, 370.079 158.931, 370.836 159.399 C 371.494 159.805, 374.231 163.369, 376.918 167.319 C 379.605 171.269, 383.818 176.453, 386.280 178.839 L 390.758 183.179 396.629 181.407 C 403.569 179.313, 408.337 175.193, 414.158 166.257 C 416.400 162.816, 418.802 160, 419.495 160 C 422.282 160, 423.388 157.086, 421.424 154.917 C 419.638 152.942, 418.665 152.879, 393.587 153.125 L 367.601 153.379 363.050 157.952 M 147.467 156.765 C 146.898 157.169, 146.432 158.175, 146.430 159 C 146.421 162.778, 144.887 166.981, 142.464 169.860 C 139.284 173.639, 140.373 173.914, 145 170.500 C 146.864 169.125, 148.006 168, 147.539 168 C 147.072 168, 147.505 167.100, 148.500 166 C 149.495 164.900, 150.845 164, 151.500 164 C 152.155 164, 153.505 164.900, 154.500 166 C 155.495 167.100, 155.960 168, 155.533 168 C 155.105 168, 155.315 168.675, 156 169.500 C 156.685 170.325, 158.488 171, 160.008 171 C 163.308 171, 169.308 168.641, 168.376 167.710 C 168.015 167.348, 166.462 167.795, 164.925 168.703 C 162.493 170.140, 161.909 170.169, 160.411 168.927 C 158.242 167.128, 156 161.845, 156 158.532 C 156 156.270, 155.600 156.002, 152.250 156.015 C 150.188 156.024, 148.035 156.361, 147.467 156.765 M 376.010 157.892 C 374.291 158.371, 373.909 158.826, 374.776 159.362 C 375.467 159.789, 378.223 163.369, 380.901 167.319 C 383.579 171.269, 386.897 175.544, 388.274 176.820 L 390.778 179.141 397.139 177.207 C 403.853 175.166, 403.582 175.419, 413.213 162.125 L 416.925 157 397.713 157.100 C 387.146 157.155, 377.380 157.511, 376.010 157.892 M 61.535 158.952 C 64.013 159.956, 65.622 161.839, 66.276 164.500 C 66.547 165.600, 66.820 164.588, 66.884 162.250 L 67 158 63.250 158.063 C 60.270 158.114, 59.918 158.296, 61.535 158.952 M 43.707 159.627 C 42.746 160.587, 45.478 165.209, 48.655 167.996 L 51.500 170.493 48.750 167.442 C 45.767 164.132, 45.326 162.074, 47.200 160.200 C 48.133 159.267, 47.948 159, 46.367 159 C 45.248 159, 44.051 159.282, 43.707 159.627 M 50 163.281 C 50 166.216, 59.844 175, 63.133 175 C 66.071 175, 66.196 174.868, 64.790 173.250 C 63.954 172.287, 63.001 169.736, 62.671 167.581 C 62.341 165.425, 61.492 163.295, 60.785 162.846 C 58.631 161.479, 50 161.827, 50 163.281 M 67 170.376 C 67 171.304, 67.694 172.329, 68.543 172.655 C 70.970 173.586, 71.205 172.495, 69.006 170.506 C 67.175 168.849, 67 168.837, 67 170.376 M 200.500 170.569 C 197.750 171.333, 192.747 172.249, 189.382 172.604 C 184.717 173.096, 183.292 173.618, 183.382 174.802 C 183.504 176.412, 177.643 181, 175.463 181 C 174.780 181, 173.163 180.143, 171.869 179.095 C 169.551 177.218, 169.545 177.160, 171.414 175.095 C 173.304 173.007, 173.299 173, 169.905 173.015 C 164.475 173.040, 163.533 174.279, 166.998 176.840 C 170.029 179.081, 171.079 183.215, 168.951 184.530 C 167.264 185.573, 169.906 188, 172.729 188 C 174.166 188, 176.016 186.979, 177.120 185.574 C 178.701 183.565, 179.512 183.287, 181.844 183.955 C 183.717 184.492, 185.804 184.274, 188.080 183.301 C 190.452 182.287, 193.216 182.027, 197.099 182.452 C 200.258 182.798, 203.917 182.602, 205.495 182.002 L 208.291 180.939 206.034 178.536 L 203.776 176.133 206.343 173.566 C 207.754 172.155, 209.406 171, 210.014 171 C 210.621 171, 210.840 170.550, 210.500 170 C 209.689 168.688, 206.640 168.862, 200.500 170.569 M 149.315 172.079 C 145.491 173.494, 146.116 174.506, 150.595 174.149 C 153.018 173.956, 155 173.446, 155 173.016 C 155 171.778, 151.630 171.223, 149.315 172.079 M 54.750 175.114 C 56.538 177.028, 58 179.136, 58 179.798 C 58 181.166, 62.504 181.287, 65.500 180 C 67.128 179.300, 66.836 179.127, 63.930 179.070 C 61.349 179.019, 59.133 177.980, 55.930 175.316 L 51.500 171.632 54.750 175.114 M 74.852 172.686 L 72.204 173.113 74.530 175.439 C 75.809 176.718, 78.386 177.943, 80.256 178.161 C 83.569 178.548, 83.641 178.480, 83.043 175.529 C 82.397 172.345, 80.674 171.747, 74.852 172.686 M 127.352 173.993 C 126.171 174.470, 124.847 175.454, 124.410 176.180 C 123.780 177.227, 123.962 177.220, 125.289 176.143 C 126.210 175.397, 129.334 174.440, 132.231 174.018 C 137.086 173.310, 137.186 173.245, 133.500 173.188 C 131.300 173.154, 128.534 173.517, 127.352 173.993 M 152.251 177.723 C 149.029 178.123, 149.016 178.146, 150.751 180.448 L 152.500 182.769 156.201 180.640 C 159.809 178.565, 159.980 178.557, 162.951 180.312 C 164.628 181.303, 166 181.649, 166 181.082 C 166 179.599, 160.507 176.972, 157.800 177.160 C 156.535 177.248, 154.038 177.502, 152.251 177.723 M 123.511 180.988 C 121.818 182.858, 121.869 182.895, 125.366 182.328 C 127.881 181.920, 129.756 182.265, 131.604 183.476 C 134.184 185.167, 134.309 185.145, 136.873 182.551 L 139.500 179.895 134.390 180.558 C 131.330 180.955, 128.472 180.788, 127.266 180.142 C 125.654 179.280, 124.904 179.449, 123.511 180.988 M 138.054 186.200 C 132.733 192.922, 134.760 195.995, 142.890 193.533 C 147.048 192.274, 149.337 192.016, 150.218 192.707 C 153.719 195.450, 156.182 194.938, 160.873 190.492 C 165.378 186.224, 165.447 186.067, 163.500 184.586 C 160.713 182.465, 159.793 182.595, 153.500 186 C 147.606 189.189, 144.145 189.745, 142.214 187.814 C 141.299 186.899, 141.403 186.213, 142.669 184.814 C 144.199 183.122, 144.182 183.004, 142.405 183.055 C 141.357 183.086, 139.399 184.501, 138.054 186.200 M 250.459 202.964 C 253.666 205.078, 254.581 204.957, 253.655 202.543 C 253.317 201.661, 251.871 201.003, 250.281 201.007 L 247.500 201.013 250.459 202.964 M 91.964 203.450 C 91.159 204.247, 87.848 205.484, 84.608 206.200 C 76.813 207.920, 74.006 211.178, 76.374 215.757 C 77.935 218.775, 77.932 218.783, 74.971 219.218 C 72.154 219.631, 72.087 219.561, 73.657 217.827 C 75.197 216.125, 75.186 215.863, 73.500 214 C 69.814 209.927, 59.994 213.396, 62.687 217.820 C 63.688 219.466, 63.490 220.131, 61.412 222.083 C 58.982 224.365, 58.975 224.420, 60.876 226.320 C 62.674 228.119, 63.008 228.143, 65.940 226.680 C 68.928 225.189, 69.253 225.232, 72.679 227.557 C 74.659 228.901, 76.822 230, 77.485 230 C 78.917 230, 82 226.787, 82 225.294 C 82 224.717, 82.740 223.631, 83.644 222.880 C 85.097 221.675, 85.212 221.758, 84.630 223.590 C 83.774 226.286, 86.569 228.859, 90.694 229.174 C 94.290 229.447, 97.350 227.353, 96.519 225.188 C 96.204 224.368, 96.435 220.130, 97.031 215.771 C 97.852 209.781, 97.828 207.498, 96.936 206.423 C 96.286 205.640, 96.090 205, 96.500 205 C 96.910 205, 96.685 204.325, 96 203.500 C 94.449 201.632, 93.809 201.624, 91.964 203.450 M 91.971 208.028 C 91.162 208.533, 88.145 209.439, 85.267 210.041 C 82.390 210.642, 79.784 211.541, 79.477 212.038 C 78.465 213.674, 81.888 218.980, 83.545 218.344 C 85.576 217.565, 89.241 220.972, 88.680 223.117 C 88.375 224.283, 88.970 224.952, 90.588 225.262 C 91.881 225.509, 92.706 225.333, 92.420 224.871 C 92.134 224.408, 92.401 220.376, 93.012 215.910 C 94.220 207.090, 94.163 206.658, 91.971 208.028 M 430.630 208.857 C 429.302 210.324, 429.217 210.903, 430.225 211.617 C 437.465 216.747, 445.281 218.225, 449.012 215.168 C 452.555 212.265, 450.429 210.510, 441 208.556 C 431.813 206.652, 432.647 206.628, 430.630 208.857 M 470.027 208.114 C 468.667 208.656, 465.946 208.829, 463.981 208.497 C 458.881 207.635, 455.638 210.932, 459.159 213.399 C 460.416 214.279, 462.408 215, 463.585 215 C 464.762 215, 467.401 216.332, 469.450 217.960 C 474.381 221.879, 476.342 222.392, 479.718 220.646 C 482.268 219.327, 488 219.425, 488 220.788 C 488 221.093, 487.272 222.147, 486.382 223.130 C 484.876 224.794, 484.974 225.128, 487.797 227.951 C 490.777 230.931, 492.820 231.221, 498.637 229.488 C 500.691 228.876, 499.684 222.698, 497.474 222.357 C 496.388 222.189, 494.041 221.764, 492.258 221.413 L 489.016 220.775 491.562 218.772 C 497.142 214.383, 492.583 210.138, 481.321 209.234 C 477.815 208.952, 474.707 208.334, 474.414 207.861 C 473.767 206.814, 473.202 206.846, 470.027 208.114 M 41.647 211.838 C 39.454 214.260, 42.139 217, 46.706 217 C 48.383 217, 50.315 217.675, 51 218.500 C 52.584 220.408, 54.415 220.410, 55.996 218.505 C 59.872 213.834, 45.770 207.282, 41.647 211.838 M 385 212.500 C 383.683 214.086, 383.929 214.237, 388.170 214.441 C 390.437 214.550, 390.696 214.300, 389.885 212.785 C 388.719 210.607, 386.670 210.487, 385 212.500 M 470.626 211.877 C 468.930 212.543, 469.055 212.869, 471.953 215.307 C 475.660 218.426, 476.134 218.499, 479.931 216.536 C 481.968 215.482, 483.634 215.321, 485.868 215.962 C 487.585 216.454, 489.210 216.469, 489.503 215.995 C 490.392 214.557, 488.091 213.777, 481.369 213.237 C 477.836 212.954, 474.707 212.334, 474.414 211.861 C 473.798 210.863, 473.199 210.866, 470.626 211.877 M 403.214 212.882 C 400.188 213.451, 400.081 213.594, 401.860 214.694 C 403.459 215.681, 404.095 215.552, 405.551 213.944 C 406.518 212.875, 407.128 212.059, 406.905 212.132 C 406.682 212.204, 405.021 212.542, 403.214 212.882 M 378.811 220.434 C 376.146 222.778, 376.139 222.816, 378.096 224.587 C 379.182 225.570, 379.835 226.988, 379.547 227.739 C 379.259 228.490, 379.456 228.837, 379.984 228.510 C 380.784 228.015, 383.283 220.600, 383.181 219.025 C 383.095 217.710, 381.218 218.315, 378.811 220.434 M 235.084 223.750 C 230.719 228.843, 230.329 229.929, 232.200 231.800 C 234.641 234.241, 242.260 231.689, 246.489 227.014 L 248.477 224.815 245.223 221.908 C 240.864 218.014, 239.842 218.199, 235.084 223.750 M 76 222.909 C 72.530 223.549, 72.520 223.565, 74.836 224.858 C 76.120 225.575, 77.260 226.013, 77.369 225.831 C 77.477 225.649, 78.169 224.713, 78.905 223.750 C 79.642 222.787, 80.077 222.059, 79.872 222.132 C 79.668 222.204, 77.925 222.554, 76 222.909 M 237.158 226 C 234.667 229.369, 235.584 229.770, 240.300 227.373 C 244.552 225.211, 244.683 225.043, 242.971 223.961 C 240.583 222.451, 239.502 222.830, 237.158 226 M 203.655 226.829 C 202.745 227.835, 202 229.534, 202 230.606 C 202 231.678, 201.347 233.487, 200.550 234.626 C 196.811 239.963, 204.991 242.857, 211.592 238.532 C 213.946 236.989, 213.954 236.924, 212.331 232.736 C 209.415 225.209, 206.758 223.400, 203.655 226.829 M 398.242 228.886 L 396.109 231.772 399.179 232.386 C 403.823 233.315, 403.892 233.258, 402.739 229.500 C 401.436 225.254, 400.974 225.191, 398.242 228.886 M 206.064 230.527 C 206.029 231.643, 205.299 233.555, 204.443 234.777 C 203.007 236.829, 203.026 236.999, 204.693 236.985 C 208.648 236.951, 209.565 235.412, 207.774 231.811 C 206.505 229.258, 206.113 228.964, 206.064 230.527 M 385.750 252.112 C 379.974 257.093, 379.965 257.237, 385.170 261.008 L 389.340 264.029 391.485 262.015 C 392.664 260.907, 394.543 260, 395.659 260 C 400.784 260, 402.448 254.167, 398.189 251.135 C 393.020 247.454, 390.965 247.615, 385.750 252.112 M 435.621 251.640 C 433.229 252.935, 432.340 252.985, 430.372 251.932 C 429.069 251.234, 427.763 250.903, 427.470 251.196 C 426.594 252.072, 438.958 259, 441.397 259 C 442.637 259, 444.708 260.125, 446 261.500 C 447.292 262.875, 449.200 264, 450.240 264 C 451.280 264, 452.914 264.419, 453.870 264.930 C 454.829 265.443, 456.216 265.485, 456.964 265.023 C 457.778 264.519, 459.654 264.821, 461.660 265.778 C 464.707 267.231, 465.291 267.232, 468.313 265.791 C 470.512 264.742, 472.172 264.517, 473.252 265.121 C 474.649 265.903, 474.803 265.563, 474.342 262.720 C 473.477 257.390, 475.881 256.231, 480.904 259.555 C 484.383 261.858, 485.589 262.139, 489.480 261.555 L 494.007 260.876 491.385 257.438 C 488.371 253.487, 488.435 253.503, 483.614 255.517 C 481.617 256.351, 478.911 256.765, 477.601 256.436 C 476.290 256.107, 474.918 256.324, 474.550 256.919 C 473.233 259.050, 469.192 258.017, 466.548 254.874 C 465.101 253.155, 463.636 252.030, 463.292 252.374 C 462.948 252.718, 463.036 253, 463.488 253 C 463.940 253, 463.495 253.900, 462.500 255 C 460.311 257.419, 457.717 257.569, 455.903 255.383 C 454.861 254.128, 453.400 253.885, 449.377 254.301 C 444.813 254.772, 443.923 254.547, 441.923 252.418 C 439.276 249.601, 439.365 249.612, 435.621 251.640 M 387.832 254.413 C 385.865 256.146, 385.457 257.057, 386.282 257.882 C 387.820 259.420, 389.521 259.282, 391 257.500 C 391.685 256.675, 393.315 256, 394.622 256 C 397.770 256, 397.658 254.201, 394.435 252.975 C 391.021 251.677, 390.911 251.701, 387.832 254.413 M 405 257.500 C 403.964 258.748, 404.090 259, 405.753 259 C 409.998 259, 414.195 257.739, 412.831 256.874 C 410.699 255.523, 406.352 255.870, 405 257.500 M 341.114 258.750 C 336.625 262.477, 337.237 266.222, 343.099 270.890 C 351.844 277.853, 359.579 275.165, 353.170 267.390 C 351.427 265.275, 350 263.050, 350 262.446 C 350 261.069, 345.739 257, 344.296 257 C 343.705 257, 342.273 257.788, 341.114 258.750 M 310 261.500 C 308.808 262.937, 310.464 266.869, 311.729 265.605 C 311.973 265.361, 313.458 266.587, 315.030 268.331 L 317.887 271.500 320.141 269.275 L 322.395 267.049 320.091 264.597 C 318.824 263.248, 317.232 262.357, 316.554 262.618 C 315.875 262.878, 314.743 262.396, 314.038 261.546 C 312.432 259.611, 311.576 259.601, 310 261.500 M 320.984 261.519 C 319.957 262.757, 320.027 263.372, 321.362 264.847 C 322.263 265.843, 323 267.790, 323 269.174 C 323 273.657, 328.352 276.690, 330.883 273.641 C 331.741 272.607, 331.565 271.712, 330.143 269.891 C 329.116 268.576, 327.933 266.375, 327.515 265 C 326.002 260.022, 323.385 258.627, 320.984 261.519 M 342.518 262.944 C 341.774 265.287, 347.237 271, 350.221 271 C 351.915 271, 351.778 270.553, 349.073 267.272 C 347.383 265.222, 346 262.972, 346 262.272 C 346 260.255, 343.200 260.796, 342.518 262.944 M 478 262.968 C 478 263.999, 482.917 266.417, 483.608 265.725 C 483.790 265.544, 482.602 264.606, 480.969 263.641 C 479.256 262.629, 478 262.344, 478 262.968 M 297.250 265.134 C 296.563 265.830, 296 266.901, 296 267.513 C 296 269.560, 301.578 274, 304.150 274 C 307.179 274, 310.485 270.706, 309.647 268.522 C 308.547 265.655, 299.245 263.112, 297.250 265.134 M 404.777 266.908 C 401.559 269.783, 401.544 269.838, 403.416 271.908 C 406.015 274.779, 410.116 274.571, 413.076 271.416 L 415.500 268.832 412.694 266.416 C 409.143 263.358, 408.721 263.384, 404.777 266.908" stroke="none" fill="#000000" fill-rule="evenodd"/>
</svg>