<svg xmlns="http://www.w3.org/2000/svg" width="360" height="500" viewBox="0 0 360 500" version="1.1">
	<rect x="0" y="0" width="100%" height="100%" fill="#FFFFFF" />
	<path d="M 12.990 14.511 C 10.553 17.105, 5.371 17.224, 2.262 14.757 C 1.399 14.072, 0.835 14.267, 0.400 15.400 C -0.510 17.771, 1.806 20, 5.179 20 C 7.190 20, 9.011 20.984, 10.970 23.128 C 13.593 26.001, 14.082 26.167, 16.951 25.167 C 20.164 24.047, 24.193 24.886, 25.462 26.938 C 25.823 27.522, 27.141 28, 28.392 28 C 31.584 28, 31.991 28.729, 30.763 32.251 C 29.778 35.075, 29.953 35.569, 32.860 38.166 C 34.604 39.725, 36.699 41, 37.516 41 C 38.548 41, 39 42.076, 39 44.535 C 39 46.480, 39.734 49.191, 40.632 50.561 C 42.141 52.864, 42.141 53.187, 40.632 54.854 C 38.276 57.457, 38.488 57.996, 43.940 63.256 C 46.907 66.119, 48.994 69.063, 49.184 70.655 C 49.358 72.109, 50.288 73.681, 51.250 74.149 C 52.212 74.617, 53.788 75.456, 54.750 76.013 C 55.712 76.570, 58.300 77.914, 60.500 79 C 62.700 80.086, 65.286 81.540, 66.247 82.230 C 67.600 83.203, 68.418 83.220, 69.881 82.306 C 70.920 81.658, 72.718 81.375, 73.877 81.678 C 75.396 82.075, 76.839 81.313, 79.049 78.947 C 81.921 75.873, 82.552 75.660, 89.028 75.583 L 95.941 75.500 95.367 79.097 C 94.564 84.133, 99.543 90, 104.619 90 C 109.389 90, 120.031 86.977, 122.885 84.810 C 125.517 82.813, 136.393 82.210, 137.500 84 C 137.840 84.550, 137.193 85, 136.062 85 C 132.258 85, 125.773 91.929, 126.195 95.543 L 126.563 98.696 121.131 97.278 C 114.514 95.549, 106.211 97.301, 96.500 102.474 L 90.500 105.671 90.243 100.614 C 89.894 93.736, 88.133 92.030, 83.770 94.346 C 71.678 100.765, 70.288 102.788, 73.586 109.166 C 74.458 110.853, 74.968 113.013, 74.719 113.965 C 74.471 114.917, 74.866 116.777, 75.598 118.098 C 76.330 119.419, 76.945 121.707, 76.965 123.182 C 77.013 126.867, 82.325 130.805, 84.647 128.878 C 85.514 128.158, 86.549 126.690, 86.947 125.615 C 87.583 123.896, 88.039 124.193, 90.727 128.080 C 94.960 134.198, 105.902 143.600, 109.783 144.452 C 112.786 145.112, 112.998 145.437, 112.968 149.329 C 112.951 151.623, 112.275 154.374, 111.468 155.442 C 109.522 158.014, 109.682 168.682, 111.714 171.889 C 112.983 173.891, 113.028 174.885, 111.990 178.030 C 110.862 181.448, 110.996 182.304, 113.493 187.641 C 118.013 197.304, 121.215 198.913, 129.902 195.884 C 134.118 194.414, 134.808 195.345, 132.574 199.492 C 130.899 202.603, 130.287 202.931, 125.652 203.202 C 121.132 203.467, 120.314 203.877, 118.284 206.898 C 115.679 210.774, 115.292 216.168, 117.489 217.991 C 119.662 219.794, 118.641 220.655, 112.753 221.987 C 109.864 222.640, 106.600 223.416, 105.500 223.711 C 103.935 224.131, 104.098 223.770, 106.250 222.051 C 107.763 220.843, 109 219.297, 109 218.615 C 109 216.839, 103.947 212.352, 101 211.511 C 99.625 211.118, 96.780 209.445, 94.677 207.793 L 90.854 204.788 88.307 207.144 C 86.907 208.440, 84.716 211.136, 83.439 213.137 L 81.118 216.773 72.046 216.859 C 61.676 216.956, 60.188 217.513, 54 223.612 C 43.545 233.915, 37.735 237.938, 31.710 239.048 C 27.955 239.740, 27.936 239.727, 29.710 237.695 C 30.694 236.567, 32.819 234.439, 34.431 232.966 C 37.250 230.390, 37.308 230.159, 35.967 226.921 C 35.200 225.069, 34.556 222.693, 34.536 221.641 C 34.462 217.751, 31.798 217.619, 24.522 221.145 C 16.301 225.129, 14.787 227.002, 17.430 229.923 C 20.566 233.388, 17.985 235.174, 10.335 234.830 C 4.990 234.590, 3.680 234.876, 1.883 236.672 C -0.836 239.391, 0.201 241.539, 3.302 239.612 C 4.796 238.684, 7.001 238.447, 10.188 238.873 L 14.876 239.500 12.175 242.798 L 9.473 246.096 5.693 244.516 C 1.969 242.960, 0 243.165, -0 245.107 C -0 245.651, 1.462 246.715, 3.250 247.471 L 6.500 248.845 3.724 249.907 C 0.853 251.007, -0.614 253.198, 0.411 254.856 C 1.269 256.245, 11.728 250.287, 14.125 247.044 C 16.017 244.486, 16.817 244.243, 25.140 243.704 C 35.010 243.064, 38.421 241.604, 47.428 234.161 C 50.201 231.869, 54.219 229.680, 56.877 229.012 C 59.419 228.373, 62.235 227.187, 63.132 226.376 C 66.056 223.737, 69.839 225.576, 70.195 229.810 C 70.443 232.749, 71.290 234.003, 74.689 236.466 C 77.024 238.157, 78.905 240.357, 78.939 241.436 C 78.973 242.500, 79.864 244.300, 80.921 245.436 C 81.978 246.571, 83.890 249.484, 85.171 251.910 C 88.590 258.382, 90.267 259.077, 93.952 255.546 C 95.616 253.952, 97.237 251.827, 97.556 250.824 C 98.960 246.401, 110 249.336, 110 254.131 C 110 255.225, 112.330 258.584, 115.179 261.595 C 120.027 266.722, 120.250 267.178, 118.679 268.750 C 117.671 269.757, 117 269.957, 117 269.249 C 117 268.600, 115.603 266.479, 113.896 264.535 C 107.585 257.346, 101.732 260.649, 93.839 275.854 C 90.158 282.945, 89 283.232, 89 277.053 C 89 274.274, 85.680 269, 83.930 269 C 81.639 269, 74.906 276.650, 71.510 283.113 C 68.059 289.680, 67.659 290.088, 66.147 288.575 C 63.824 286.252, 63.237 272.235, 65.291 268.119 C 66.650 265.394, 66.630 264.975, 65.065 263.559 C 62.925 261.622, 61.970 261.613, 58.364 263.494 C 56.789 264.315, 54.477 264.990, 53.228 264.994 C 51.951 264.997, 48.935 266.861, 46.343 269.250 L 41.731 273.500 32.346 273.547 C 20.272 273.607, 17.796 275.323, 20.028 282.086 C 21.356 286.109, 21.288 286.495, 18.219 292.383 C 11.598 305.087, 9.202 318.153, 13.058 320.536 C 15.634 322.128, 13.108 333.513, 9.957 334.514 C 7.727 335.221, 2 342.189, 2 344.194 C 2 344.967, 2.563 346.206, 3.250 346.947 C 4.269 348.046, 4.183 348.183, 2.782 347.691 C 1.837 347.359, 0.786 347.537, 0.446 348.087 C -0.519 349.648, 1.992 352, 4.622 352 C 5.985 352, 7 352.593, 7 353.389 C 7 356.036, 10.512 358.887, 14.498 359.476 C 16.697 359.802, 19.130 360.702, 19.904 361.476 C 21.551 363.122, 20.039 363.613, 11.204 364.302 C 6.863 364.641, 5.345 365.290, 2.795 367.899 C -1.231 372.016, 0.381 374.869, 4.530 370.971 C 6.527 369.096, 8.629 368.428, 14.126 367.924 C 19.415 367.439, 21.699 366.745, 23.311 365.134 L 25.456 362.989 21.978 359.521 C 18.894 356.446, 16.438 355.323, 12.250 355.074 C 11.563 355.033, 11 354.163, 11 353.140 C 11 352.116, 9.824 349.547, 8.388 347.430 C 5.359 342.967, 5.731 341.843, 11.555 337.860 C 16.685 334.353, 20.415 322.610, 17.058 320.536 C 13.195 318.149, 15.599 305.084, 22.246 292.333 C 25.249 286.572, 25.376 285.929, 24.168 282.588 C 22.368 277.610, 23.150 276.942, 29.940 277.652 C 38.670 278.564, 42.702 277.459, 47.190 272.926 C 49.371 270.724, 52.048 268.997, 53.289 268.994 C 54.505 268.990, 56.789 268.315, 58.364 267.494 C 62.107 265.542, 62.065 265.515, 60.840 269.029 C 59.235 273.632, 60.159 286.413, 62.265 288.740 C 63.219 289.795, 64 292.029, 64 293.706 C 64 297.568, 66.335 299.797, 68.500 298 C 70.642 296.223, 70.354 298.280, 68.052 301.207 C 66.762 302.847, 66.308 304.496, 66.709 306.091 C 67.295 308.424, 67.251 308.444, 65.328 306.750 C 62.882 304.594, 61.168 304.538, 58.954 306.542 C 57.997 307.408, 54.745 308.265, 51.528 308.500 C 48.381 308.729, 45.154 309.457, 44.358 310.118 C 41.509 312.482, 45.539 322.769, 48.824 321.519 C 50.058 321.050, 50.207 321.177, 49.388 322.003 C 48.572 322.825, 48.625 324.135, 49.586 326.926 C 51.249 331.751, 49.674 337.793, 46.433 339.026 C 43.978 339.959, 40 344.613, 40 346.551 C 40 347.256, 41.149 348.670, 42.554 349.694 C 44.303 350.968, 44.900 352.097, 44.447 353.277 C 43.566 355.574, 42 355.475, 42 353.122 C 42 348.834, 39.530 348.939, 35.196 353.410 C 29.846 358.931, 29.913 359.764, 36.250 366.441 C 41.004 371.450, 41.878 373.130, 45.500 384.205 C 50.477 399.425, 54.172 404, 61.487 404 C 65.726 404, 66.059 404.206, 67.537 407.750 C 68.398 409.813, 70.517 412.963, 72.247 414.750 L 75.392 418 72.216 421.277 C 70.469 423.080, 68.742 426.039, 68.379 427.853 C 67.918 430.161, 66.635 431.845, 64.110 433.458 C 62.124 434.726, 59.089 437.376, 57.365 439.348 C 54.373 442.769, 54.005 442.906, 49.318 442.351 C 46.380 442.003, 41.270 442.418, 36.596 443.385 C 32.301 444.273, 26.195 445, 23.028 445 C 15.765 445, 12.280 447.396, 11.383 453.009 C 11.038 455.163, 9.711 457.863, 8.382 459.110 C 5.713 461.618, 5.448 463.143, 7.194 465.939 C 8.120 467.422, 8.120 468.441, 7.194 470.473 C 6.537 471.915, 6 473.836, 6 474.742 C 6 475.649, 4.909 477.540, 3.576 478.945 C 1.446 481.190, 1.248 482.020, 1.947 485.779 C 3.013 491.517, 4.735 493.145, 12.189 495.461 C 15.660 496.539, 18.860 498.001, 19.300 498.711 C 20.454 500.572, 21.769 500.299, 23.034 497.936 C 24.540 495.123, 22.680 493.017, 18.628 492.944 C 16.907 492.913, 13.475 492.068, 11 491.065 C 5.134 488.689, 3.591 483.197, 7.594 478.945 C 8.917 477.540, 10 475.649, 10 474.742 C 10 473.836, 10.537 471.915, 11.194 470.473 C 12.120 468.441, 12.120 467.422, 11.194 465.939 C 9.458 463.160, 9.701 462.023, 12.500 459.821 C 13.972 458.663, 15 456.830, 15 455.362 C 15 450.261, 16.571 449, 22.928 449 C 26.150 449, 32.301 448.273, 36.596 447.385 C 41.295 446.413, 46.376 446.003, 49.351 446.355 C 54.139 446.922, 54.424 446.809, 58.397 442.750 C 60.654 440.445, 64.388 437.333, 66.696 435.835 C 69.934 433.735, 71.151 432.153, 72.022 428.917 C 72.669 426.514, 74.556 423.394, 76.440 421.611 C 79.997 418.246, 79.690 418.243, 89.821 421.732 L 94.142 423.220 92.188 425.360 C 91.113 426.537, 89.458 429.033, 88.510 430.907 C 87.562 432.781, 84.817 436.420, 82.410 438.993 C 76.321 445.503, 69.382 459.143, 67.936 467.446 C 66.797 473.989, 66.829 474.213, 69.290 476.825 C 71.628 479.304, 71.774 480.018, 71.284 486.581 C 70.775 493.401, 70.857 493.742, 73.513 495.831 C 76.466 498.155, 84.157 498.827, 87 497.011 C 88.096 496.311, 88.937 496.626, 90.122 498.182 C 92.719 501.592, 95.339 499.986, 93.428 496.156 C 91.080 491.450, 89.311 490.408, 87.087 492.421 C 85.738 493.643, 83.851 494.032, 80.356 493.809 L 75.500 493.500 75.500 485.832 C 75.500 479.194, 75.189 477.834, 73.185 475.699 C 70.987 473.357, 70.926 472.920, 71.994 467.034 C 73.658 457.856, 75.714 454.111, 77.502 457.003 C 77.913 457.668, 78.785 457.650, 80.093 456.950 C 81.900 455.983, 81.999 456.128, 81.282 458.698 C 78.723 467.867, 81.628 475.597, 88.017 476.619 C 91.561 477.185, 92 477.564, 92 480.055 C 92 484.832, 100.164 489.627, 104.106 487.166 C 105.768 486.128, 105.933 486.567, 106.205 492.770 L 106.500 499.500 109.500 499.500 C 113.063 499.500, 113.169 498.380, 111.704 476.270 C 110.915 464.375, 111.044 462.086, 112.980 453.586 C 114.663 446.198, 114.983 442.597, 114.442 437.108 C 113.666 429.237, 112.491 427.610, 106.850 426.600 C 104.843 426.241, 102.593 425.213, 101.850 424.316 C 100.034 422.123, 87.122 416, 84.313 416 C 80.858 416, 75.516 410.675, 74.078 405.798 C 72.184 399.378, 69.530 397, 64.260 397 C 58.414 397, 56.398 395.756, 54.953 391.258 C 54.289 389.191, 52.678 384.926, 51.373 381.780 C 50.068 378.634, 48.997 375.034, 48.994 373.780 C 48.990 372.526, 48.315 370.211, 47.494 368.636 C 45.220 364.276, 45.557 363.378, 51.635 357.584 C 56.544 352.904, 57.183 351.865, 56.595 349.522 C 56.224 348.043, 56.229 342.338, 56.608 336.845 C 57.281 327.072, 57.345 326.870, 59.588 327.433 C 61.160 327.827, 62.759 327.251, 64.680 325.599 L 67.481 323.189 65.491 320.983 L 63.500 318.778 65.811 317.139 C 72.247 312.574, 72.833 311.602, 75.494 301.066 C 76.943 295.327, 78.757 289.477, 79.525 288.066 C 80.883 285.568, 80.921 285.628, 80.960 290.307 C 81.010 296.358, 82.795 303.585, 84.611 305.092 C 85.375 305.726, 86 306.942, 86 307.794 C 86 308.646, 86.679 310.093, 87.509 311.010 C 88.885 312.530, 88.681 312.779, 85.199 313.822 C 83.099 314.451, 80.332 316.082, 79.051 317.446 C 76.812 319.829, 76.787 320.026, 78.413 322.507 C 79.343 323.927, 81.276 325.534, 82.707 326.079 L 85.309 327.068 82.575 329.922 L 79.841 332.775 82.143 334.388 C 83.409 335.274, 85.331 336, 86.414 336 C 88.359 336, 88.359 336.017, 86.441 337.442 C 84.654 338.770, 84.062 338.453, 78.971 333.442 C 72.814 327.382, 71.332 326.953, 68.174 330.314 C 64.076 334.677, 65.767 338.835, 73.166 342.584 C 77.950 345.008, 79.283 345.147, 83 343.605 C 83.932 343.218, 86.582 344.691, 89.993 347.491 C 97.440 353.604, 101 353.259, 101 346.422 C 101 344.675, 101.675 342.685, 102.500 342 C 106.510 338.672, 102.860 335.690, 94.913 335.803 L 88.872 335.889 91.377 333.918 C 92.755 332.835, 94.185 330.947, 94.556 329.724 C 94.927 328.501, 96.129 326.516, 97.229 325.314 L 99.228 323.129 97.046 320.064 C 94.423 316.381, 94.678 316.339, 101.314 319.362 C 104.166 320.661, 107.625 322.063, 109 322.476 C 110.375 322.890, 112.850 324.015, 114.500 324.976 C 124.446 330.773, 131.173 331.034, 131.816 325.649 C 132.293 321.660, 133.570 322.422, 136.523 328.458 C 137.992 331.460, 139.771 334.395, 140.476 334.980 C 141.182 335.566, 142.031 337.404, 142.363 339.065 C 142.698 340.741, 145.199 344.445, 147.983 347.389 C 152.491 352.155, 153 353.154, 153 357.237 C 153 361.053, 153.724 362.764, 157.529 367.933 C 160.020 371.317, 162.709 374.335, 163.503 374.640 C 164.298 374.944, 166.315 377.417, 167.987 380.133 C 169.659 382.850, 171.808 385.357, 172.763 385.703 C 173.718 386.050, 176.189 387.833, 178.253 389.667 C 180.317 391.500, 182.412 393, 182.908 393 C 183.891 393, 189 401.247, 189 402.833 C 189 404.603, 180.598 402.840, 176.772 400.266 C 174.370 398.650, 172.236 397.950, 170.772 398.298 C 167.316 399.119, 159.009 402.051, 154.212 404.142 C 149.944 406.002, 149.929 406.002, 151.001 403.999 C 152.470 401.253, 148.720 397.540, 142.892 395.971 C 140.507 395.329, 137.270 393.722, 135.701 392.401 C 132.178 389.437, 129.318 389.353, 126.366 392.126 L 124.103 394.252 128.742 399.626 C 131.294 402.582, 134.135 405, 135.056 405 C 135.977 405, 137.936 405.949, 139.410 407.108 C 141.090 408.429, 142.998 409.042, 144.523 408.751 C 146.947 408.287, 146.945 408.298, 143.978 411.678 C 139.891 416.333, 140.115 417.102, 147.250 422.945 C 150.688 425.760, 155.302 429.842, 157.504 432.017 C 160.012 434.495, 164.495 437.223, 169.504 439.322 C 188.822 447.416, 187.066 446.145, 194.355 457.309 C 202.550 469.861, 212.208 481.497, 217.541 485.245 C 225.286 490.688, 241.897 491.202, 247.983 486.185 C 250.748 483.906, 252.263 478.463, 250.532 477.027 C 249.626 476.275, 249.369 474.072, 249.681 469.725 C 250.247 461.832, 248.304 458.471, 241.169 455 L 236.031 452.500 236.132 447 C 236.187 443.975, 236.451 442.400, 236.719 443.500 C 238.238 449.732, 243 449.676, 243 443.426 C 243 439.260, 240.433 429.226, 238.891 427.369 C 236.549 424.547, 235.200 427.624, 235.754 434.525 C 236.450 443.195, 235.571 442.696, 233.508 433.250 C 232.577 428.988, 231.228 424.573, 230.510 423.441 C 229.792 422.309, 229.439 420.156, 229.725 418.657 C 230.012 417.159, 229.540 414.035, 228.678 411.716 C 224.849 401.426, 225.528 395.167, 230.071 398.869 C 232.497 400.847, 232.503 400.847, 234.772 398.730 C 237.041 396.613, 237.053 396.613, 244.405 398.444 C 257.554 401.718, 265.521 399.330, 283.500 386.727 C 290.965 381.495, 293.609 380.218, 299 379.241 C 310.828 377.098, 350.042 356.068, 357.855 347.677 C 361.723 343.522, 359.385 342.555, 354.683 346.366 C 352.383 348.230, 347.350 351.750, 343.500 354.188 C 333.499 360.519, 333.229 360.653, 335.351 358.231 C 338.281 354.888, 338.368 347.287, 335.497 345.406 C 332.451 343.410, 328.501 344.487, 326.003 347.996 C 323.391 351.664, 318 352.678, 318 349.501 C 318 341.860, 304.566 340.732, 300.145 348.002 C 298.521 350.673, 298.130 350.861, 297.010 349.513 C 295.317 347.473, 284.907 348.340, 276.317 351.237 L 270.134 353.322 264.934 351.161 C 262.074 349.973, 258.714 349, 257.468 349 C 254.656 349, 244.796 354.085, 239.644 358.191 C 236.515 360.685, 236.002 360.865, 236.924 359.143 C 237.548 357.976, 239.492 356.280, 241.244 355.374 C 242.996 354.468, 247.214 351.592, 250.619 348.983 C 254.023 346.374, 258.989 343.451, 261.654 342.489 C 269.780 339.555, 278.219 335.251, 283.975 331.104 C 291.344 325.795, 313.054 315, 316.361 315 C 317.178 315, 319.312 313.767, 321.103 312.260 L 324.359 309.520 341.930 309.386 C 355.638 309.281, 359.500 308.965, 359.500 307.948 C 359.500 305.694, 353.959 304.938, 339.500 305.218 L 325.500 305.489 319.502 301.710 C 316.203 299.632, 311.703 297.424, 309.502 296.802 C 303.232 295.033, 302.595 294.052, 304.549 289.170 C 306.111 285.266, 306.102 284.725, 304.401 279.994 C 301.537 272.030, 299.126 270.333, 292.929 271.922 C 290.153 272.633, 287.743 273.054, 287.573 272.858 C 287.403 272.661, 285.129 269.800, 282.521 266.500 C 279.913 263.200, 275.815 258.475, 273.415 256 C 266.613 248.987, 263.145 244.472, 265.546 245.757 C 266.633 246.339, 268.332 247.710, 269.322 248.803 C 271.113 250.783, 271.141 250.780, 275.630 248.272 C 278.109 246.886, 280.669 244.870, 281.319 243.793 C 282.876 241.210, 288.206 238.568, 295 237.012 C 300.816 235.679, 305 232.746, 305 230 C 305 227.819, 308.826 224.422, 312.173 223.632 C 315.745 222.788, 321 218.263, 321 216.030 C 321 214.751, 322.238 213.926, 325.316 213.151 C 327.690 212.553, 330.460 211.149, 331.471 210.032 C 332.944 208.404, 334.547 208, 339.533 208 C 343.844 208, 346.137 207.539, 347 206.500 C 350.248 202.586, 355.847 206.430, 356.624 213.109 C 357.335 219.214, 360 219.372, 360 213.309 C 360 205.071, 351.045 197.626, 347 202.500 C 346.137 203.539, 343.844 204, 339.533 204 C 334.576 204, 332.941 204.408, 331.496 206.004 C 330.499 207.107, 327.841 208.497, 325.591 209.094 C 320.978 210.317, 317 213.521, 317 216.014 C 317 217.598, 313.229 220, 310.741 220 C 308.952 220, 301 228.204, 301 230.049 C 301 231.222, 299.381 232.041, 295.250 232.958 C 288.105 234.543, 284.484 236.318, 280 240.432 C 273.484 246.410, 271.516 247.228, 269.363 244.848 C 268.341 243.719, 266.325 242.185, 264.883 241.440 C 261.611 239.747, 261.984 235.859, 265.812 231.750 C 268.889 228.447, 269.700 228.370, 272.609 231.103 C 274.634 233.004, 275.213 233.088, 278.674 231.980 C 283.390 230.469, 287.044 227.278, 286.295 225.326 C 285.987 224.523, 286.221 222.883, 286.816 221.683 C 287.410 220.482, 288.033 218.643, 288.198 217.594 C 288.364 216.546, 289.346 215.565, 290.381 215.414 C 291.415 215.262, 293.665 213.801, 295.381 212.165 C 297.569 210.080, 300.291 208.829, 304.500 207.975 C 309.405 206.980, 311.276 205.982, 314.750 202.510 C 319.975 197.289, 319.994 196.669, 315.038 193.240 C 309.397 189.339, 310.137 186.999, 318.047 183.736 C 319.997 182.931, 322.697 180.973, 324.047 179.386 C 326.557 176.433, 331.896 174, 335.866 174 C 337.090 174, 339.109 172.988, 340.354 171.750 C 343.085 169.034, 349.345 166.657, 351.754 167.422 C 353.189 167.877, 353.500 169.182, 353.500 174.738 C 353.500 180.253, 353.938 182.114, 355.873 184.827 C 359.059 189.295, 360.999 187.625, 358.569 182.505 C 356.484 178.109, 356.700 170.036, 358.950 168.311 C 360.343 167.242, 360.330 166.950, 358.819 165.416 C 355.667 162.216, 343.503 163.431, 339.169 167.378 C 337.888 168.545, 336.748 169.275, 336.637 169 C 336.526 168.725, 334.650 169.249, 332.468 170.164 C 323.037 174.120, 315.009 176.886, 308.167 178.539 C 298.785 180.806, 295.422 183.139, 291.257 190.270 L 287.887 196.041 289.972 198.692 C 291.119 200.150, 291.707 201.637, 291.279 201.998 C 288.143 204.635, 280.038 210, 279.189 210 C 277.745 210, 274.009 214.916, 273.957 216.885 C 273.934 217.773, 271.619 220.271, 268.814 222.436 C 266.008 224.601, 262.833 227.864, 261.757 229.686 C 259.406 233.673, 256.309 234.023, 253.150 230.659 C 251.267 228.655, 249.265 228.130, 239.226 227.007 C 223.995 225.303, 222 224.330, 222 218.599 C 222 216.207, 221.719 212.844, 221.375 211.125 C 220.847 208.485, 221.051 208, 222.688 208 C 225.280 208, 230 202.946, 230 200.171 C 230 198.746, 230.862 197.623, 232.404 197.037 C 233.725 196.534, 236.276 194.295, 238.071 192.061 C 239.866 189.828, 242.090 188, 243.012 188 C 247.614 188, 249.593 179.558, 246.412 173.500 C 245.439 171.647, 245.042 169.218, 245.372 167.147 C 245.762 164.707, 245.340 163.026, 243.823 160.974 C 242.390 159.036, 241.907 157.269, 242.278 155.327 C 242.575 153.772, 242.199 151.018, 241.442 149.206 C 240.384 146.674, 240.347 145.832, 241.283 145.566 C 241.952 145.376, 244.588 144.477, 247.140 143.569 C 249.693 142.661, 254.352 141.731, 257.495 141.502 C 260.638 141.273, 264.710 140.591, 266.543 139.986 C 269.250 139.092, 270.485 139.199, 273.104 140.554 C 278.769 143.483, 285.270 142.126, 290.650 136.890 C 295.754 131.922, 298 128.199, 298 124.705 C 298 123.388, 298.874 121.519, 299.943 120.551 C 301.012 119.584, 302.173 117.489, 302.523 115.896 C 302.873 114.303, 303.798 113, 304.579 113 C 306.379 113, 306.363 113.517, 304.470 116.405 C 303.014 118.627, 303.111 118.890, 306.470 121.840 C 308.412 123.544, 310 125.333, 310 125.814 C 310 127.398, 313.576 129.966, 316.566 130.529 C 318.739 130.938, 320.269 130.454, 322.468 128.661 L 325.436 126.241 326.497 128.370 C 328.216 131.819, 330.313 130.849, 333.337 125.207 C 335.614 120.956, 335.935 119.627, 334.964 118.457 C 333.112 116.226, 335.940 116.606, 339 119 C 342.208 121.509, 344.237 121.501, 346.527 118.970 C 349.606 115.567, 339.796 106.520, 330.964 104.616 C 329.569 104.315, 327.440 102.733, 326.233 101.101 L 324.038 98.133 330.019 92.721 C 336.256 87.077, 337.121 84.896, 334.341 81.825 C 332.879 80.209, 332.841 79.513, 334.015 75.955 C 335.247 72.221, 335.563 71.965, 338.215 72.547 C 341.858 73.347, 344 71.616, 344 67.871 C 344 66.011, 344.920 64.190, 346.592 62.743 C 350.641 59.239, 351.274 57.400, 349.819 53.375 C 348.663 50.179, 348.724 49.675, 350.413 48.440 C 351.448 47.683, 352.678 47.301, 353.147 47.591 C 353.616 47.881, 354.562 47.766, 355.250 47.335 C 355.938 46.905, 357.136 46.541, 357.914 46.526 C 360.186 46.484, 360.302 44.232, 358.092 43.049 C 356.361 42.123, 356.216 41.563, 357.105 39.232 C 358.486 35.610, 357.370 28.645, 355.076 26.569 C 353.342 24.999, 353.067 25.127, 350.088 28.889 C 346.979 32.814, 346.949 32.957, 347.946 39.144 C 348.882 44.955, 348.796 45.588, 346.785 47.729 C 344.809 49.832, 344.728 50.359, 345.886 53.561 C 347.112 56.953, 347.028 57.226, 343.579 61.044 C 341.611 63.223, 340 65.904, 340 67.003 C 340 69.320, 339.984 69.325, 336.425 67.972 C 333.530 66.871, 329.394 69.211, 330.648 71.240 C 330.979 71.775, 330.672 73.963, 329.966 76.102 C 328.847 79.492, 328.896 80.227, 330.341 81.825 C 331.254 82.833, 332 84.316, 332 85.121 C 332 86.813, 324.351 94.419, 321.727 95.336 C 318.251 96.550, 318.707 98.865, 323.333 103.491 C 326.146 106.304, 329.123 108.262, 331.183 108.654 C 336.002 109.571, 339.471 111.544, 341.375 114.449 C 343.460 117.632, 342.854 117.652, 338.294 114.554 L 334.693 112.107 329.386 116.641 C 326.467 119.135, 323.829 121.964, 323.523 122.928 C 322.271 126.871, 314 128.149, 314 124.399 C 314 123.592, 312.426 122.004, 310.501 120.868 L 307.003 118.804 308.693 115.943 C 310.792 112.390, 308.485 109, 303.967 109 C 300.649 109, 299.464 110.369, 298.592 115.215 C 298.224 117.258, 297.442 119.227, 296.854 119.590 C 296.125 120.041, 296.058 119.495, 296.643 117.875 C 301.754 103.713, 290.545 78.085, 276.021 70.727 C 273.010 69.201, 269.187 66.682, 267.524 65.128 C 261.642 59.632, 260.015 58.996, 252.027 59.070 C 247.887 59.109, 243.600 59.501, 242.500 59.941 C 241.181 60.469, 239.237 60.105, 236.790 58.871 C 230.781 55.841, 224.315 56.390, 216.368 60.607 C 206.564 65.807, 199.279 72.336, 197.811 77.235 C 196.636 81.160, 196.678 81.289, 200.050 84.041 C 201.940 85.584, 203.265 87.065, 202.994 87.333 C 202.722 87.600, 196.875 87.374, 190 86.829 C 175.303 85.665, 159.405 85.358, 152.808 86.112 C 148.511 86.602, 147.937 86.405, 145.993 83.777 C 144.547 81.821, 143.299 81.088, 142.077 81.476 C 141.074 81.794, 139.725 81.373, 139.019 80.523 C 137.127 78.244, 126.005 78.442, 122.885 80.810 C 120.013 82.990, 109.379 86, 104.550 86 C 100.228 86, 98.582 83.432, 99.484 78.097 C 100.374 72.826, 98.412 71.411, 90.820 71.849 C 86.568 72.094, 84.232 71.727, 82.401 70.527 C 79.241 68.456, 76.556 70.094, 77.426 73.561 C 78.086 76.189, 75.764 78.507, 73.386 77.595 C 72.484 77.249, 71.153 77.458, 70.428 78.060 C 68.402 79.742, 53 71.959, 53 69.253 C 53 68.689, 50.750 65.831, 48 62.902 C 42.301 56.832, 42.472 57.240, 44.632 54.854 C 46.141 53.187, 46.141 52.864, 44.632 50.561 C 43.734 49.191, 43 46.558, 43 44.709 C 43 41.092, 40.243 37.759, 36.250 36.548 C 33.697 35.773, 33.577 35.244, 35.067 31.324 C 36.019 28.819, 35.832 28.277, 33.317 26.264 C 31.768 25.024, 29.543 24.008, 28.372 24.005 C 27.202 24.002, 25.685 23.325, 25 22.500 C 24.315 21.675, 23.213 21, 22.551 21 C 21.793 21, 21.503 19.934, 21.769 18.124 C 22.087 15.956, 21.619 14.847, 19.873 13.624 C 16.752 11.438, 15.756 11.566, 12.990 14.511 M 15 18 C 15 19.111, 15.667 20, 16.500 20 C 17.333 20, 18 19.111, 18 18 C 18 16.889, 17.333 16, 16.500 16 C 15.667 16, 15 16.889, 15 18 M 351.548 31.923 C 351.223 32.449, 351.265 34.802, 351.640 37.153 C 352.181 40.534, 352.484 41.017, 353.092 39.464 C 354.756 35.208, 353.452 28.841, 351.548 31.923 M 228.500 62.013 C 231.800 62.420, 235.400 63.065, 236.500 63.446 C 237.828 63.906, 237.660 63.623, 236 62.605 C 234.476 61.670, 231.353 61.110, 228 61.172 L 222.500 61.274 228.500 62.013 M 214.922 65.280 C 202.931 72.202, 198.644 78.264, 203.149 81.928 L 205.500 83.840 206.092 81.170 C 207.662 74.086, 211.455 68.527, 216.956 65.250 C 219.956 63.462, 221.981 62.014, 221.456 62.030 C 220.930 62.047, 217.990 63.509, 214.922 65.280 M 258.970 64.583 C 260.879 65.411, 263.241 66.813, 264.220 67.699 C 265.199 68.585, 266 68.827, 266 68.237 C 266 66.779, 259.717 62.991, 257.382 63.039 C 256.197 63.064, 256.785 63.635, 258.970 64.583 M 349.491 66.010 C 347.724 67.963, 347.740 68.094, 350.034 70.536 C 353.377 74.095, 358.088 76.313, 359.435 74.961 C 360.562 73.830, 356.657 70.066, 354.309 70.022 C 353.654 70.010, 352.797 69.480, 352.404 68.844 C 351.890 68.013, 352.713 67.854, 355.326 68.278 C 359.533 68.961, 361.231 67.374, 358.462 65.348 C 355.780 63.387, 351.584 63.697, 349.491 66.010 M 219.534 69.152 C 216.802 71.301, 213 78.681, 213 81.833 C 213.001 83.709, 222.442 84.708, 224.447 83.044 C 225.040 82.552, 228.106 81.184, 231.262 80.003 C 235.887 78.273, 237 77.424, 237 75.628 C 237 74.403, 237.540 72.860, 238.200 72.200 C 239.441 70.959, 237.463 70.542, 232.299 70.954 C 231.019 71.057, 229.559 70.266, 228.809 69.065 C 227.122 66.364, 223.030 66.402, 219.534 69.152 M 255.139 70.033 L 252.778 72 257.389 72 C 262.229 72, 263.329 70.781, 260.066 69.035 C 257.660 67.748, 257.954 67.688, 255.139 70.033 M 247.500 72.491 C 246.950 72.675, 245.262 73.098, 243.750 73.432 C 242.006 73.816, 241 74.690, 241 75.819 C 241 76.799, 240.438 78.231, 239.750 79.002 C 238.307 80.620, 240.850 78.972, 244.500 75.925 C 245.600 75.006, 247.850 73.783, 249.500 73.206 C 251.546 72.491, 251.864 72.158, 250.500 72.158 C 249.400 72.158, 248.050 72.308, 247.500 72.491 M 266.500 74 C 264.252 75.489, 263.955 75.988, 265.316 75.993 C 267.645 76.002, 271 74.214, 271 72.965 C 271 71.525, 269.832 71.793, 266.500 74 M 271.027 77.693 C 268.843 79.224, 261.246 81.234, 252.080 82.708 C 250.198 83.011, 246.598 84.544, 244.080 86.115 C 241.561 87.687, 238.375 89.523, 237 90.196 C 235.625 90.870, 233.433 92.221, 232.129 93.199 C 230.629 94.324, 228.886 94.758, 227.381 94.381 C 225.566 93.925, 224.318 94.518, 222.101 96.892 C 218.594 100.646, 217.693 100.696, 210.849 97.510 C 203.665 94.165, 199.712 94.351, 187.226 98.617 C 178.314 101.662, 175.811 102.136, 171.381 101.615 C 165.886 100.969, 163.978 101.907, 166.511 104.009 C 168.496 105.656, 168.389 107.338, 166.171 109.345 C 163.886 111.413, 161.624 111.457, 159.972 109.467 C 158.841 108.104, 158.459 108.159, 156.535 109.967 C 153.799 112.537, 148.901 112.590, 144.136 110.100 C 138.706 107.263, 121.493 104.571, 113.535 105.315 C 105.386 106.075, 95.291 110.994, 94.373 114.649 C 93.186 119.378, 97.233 126.986, 103.868 132.500 L 107.477 135.500 105.723 132.761 C 103.990 130.057, 104.011 129.962, 107.318 125.261 L 110.667 120.500 119.584 120.333 C 124.488 120.242, 133.675 120.017, 140 119.833 C 150.633 119.525, 151.802 119.679, 155.500 121.872 C 157.700 123.176, 161.584 124.865, 164.130 125.625 C 170.265 127.455, 171.881 129.369, 169.506 131.993 C 166.792 134.992, 164.147 135.394, 160.403 133.378 C 156.248 131.140, 155.126 131.975, 151.361 140.107 L 148.863 145.500 151.682 142.827 C 154.891 139.784, 158.689 139.894, 161.605 143.116 C 163.244 144.927, 163.222 145.135, 161.155 147.335 C 158.655 149.996, 159.184 151, 163.085 151 C 167.712 151, 169.116 150.086, 167.920 147.851 C 166.551 145.292, 168.254 140.049, 171.423 137.073 C 174.828 133.873, 183.781 133.723, 187.937 136.795 C 189.577 138.008, 191.905 139, 193.110 139 C 194.962 139, 194.698 138.562, 191.400 136.164 C 189.255 134.604, 185.814 131.454, 183.753 129.164 C 181.692 126.874, 179.299 125, 178.437 125 C 174.939 125, 167 118.923, 167 116.246 C 167 113.757, 177.273 103, 179.650 103 C 182.451 103, 185.579 106.941, 186.446 111.565 C 186.973 114.375, 187.401 114.912, 188.432 114.056 C 189.155 113.456, 190.367 113.203, 191.125 113.494 C 191.966 113.817, 194.216 111.876, 196.901 108.512 C 201.291 103.009, 204.268 101.668, 206.696 104.096 C 207.490 104.890, 210.219 104.201, 216.616 101.594 C 225.282 98.060, 225.474 98.030, 227.338 99.894 C 229.180 101.735, 229.182 101.883, 227.421 104.865 C 225.289 108.474, 225.330 108.536, 230.414 109.322 C 233.390 109.782, 234.049 109.649, 233.164 108.764 C 229.054 104.654, 237.193 96.573, 248.363 93.675 C 256.384 91.593, 257.868 92.280, 260.993 99.514 C 261.947 101.722, 263.493 104.164, 264.429 104.941 C 270.851 110.271, 269.071 116.743, 261.514 115.542 C 259.306 115.191, 256.375 114.637, 255 114.311 L 252.500 113.718 254.889 116.322 C 259.003 120.805, 256.038 123.655, 244.500 126.308 C 243.400 126.561, 245.252 126.820, 248.615 126.884 C 253.089 126.969, 255.413 127.537, 257.273 129 C 260.290 131.373, 262.903 131.541, 265.559 129.532 C 268.461 127.336, 270.319 127.680, 273.500 131 C 277.451 135.124, 281.200 135, 285.600 130.600 C 287.698 128.502, 289 126.218, 289 124.637 C 289 123.227, 289.900 119.791, 291 117 C 292.100 114.209, 292.939 110.255, 292.864 108.213 C 292.784 106.036, 292.552 105.401, 292.304 106.677 C 290.987 113.441, 284.226 110.159, 285.339 103.296 C 285.790 100.518, 285.260 99.381, 281.683 95.461 L 277.500 90.875 267.330 90.855 C 258.663 90.838, 256.909 90.557, 255.459 88.955 C 251.693 84.793, 254.902 82.870, 268.777 80.975 L 278.054 79.709 282.267 83.094 L 286.480 86.480 282.990 82.125 C 279.957 78.342, 276.581 76, 274.157 76 C 273.766 76, 272.357 76.762, 271.027 77.693 M 248.419 78.075 C 246.724 78.567, 244.474 79.963, 243.419 81.178 L 241.500 83.386 245.307 81.193 C 247.401 79.987, 250.326 78.993, 251.807 78.985 C 253.288 78.976, 255.175 78.533, 256 78 C 257.949 76.741, 252.840 76.791, 248.419 78.075 M 265.500 85.538 C 260.301 86.505, 259.529 86.824, 262.500 86.780 C 276.963 86.565, 277.750 86.740, 282.001 91.121 C 285.597 94.825, 286 95.014, 286 92.989 C 286 91.701, 284.470 89.293, 282.429 87.368 C 278.419 83.586, 276.889 83.421, 265.500 85.538 M 143.841 91.127 C 144.215 95.051, 142.034 101.243, 139.790 102.630 C 139.017 103.107, 139.275 103.583, 140.566 104.061 C 141.965 104.579, 143.375 103.947, 145.663 101.776 C 147.403 100.126, 149.419 98.973, 150.143 99.214 C 152.239 99.913, 154.993 95.855, 153.859 93.737 C 153.336 92.759, 153.223 91.448, 153.609 90.823 C 154.102 90.025, 153.398 89.870, 151.238 90.302 C 149.055 90.739, 147.484 90.382, 145.816 89.070 L 143.468 87.223 143.841 91.127 M 211.665 88.570 C 212.432 90.569, 215.624 91.271, 218.048 89.974 C 220.827 88.487, 219.858 87.660, 215.046 87.415 C 212.123 87.266, 211.276 87.555, 211.665 88.570 M 160.250 90.723 C 156.694 91.165, 156.198 92.089, 158.494 93.995 C 159.559 94.879, 161.904 95.029, 166.668 94.519 C 176.063 93.513, 177.082 92.896, 171.907 91.348 C 167.500 90.030, 166.337 89.968, 160.250 90.723 M 179.657 91.547 C 180.328 93.298, 178.383 95.894, 175.535 97.048 C 173.737 97.777, 173.712 97.881, 175.322 97.937 C 177.099 97.998, 196.337 91.948, 195.780 91.503 C 195.626 91.380, 191.808 91.007, 187.295 90.674 C 180.305 90.159, 179.173 90.289, 179.657 91.547 M 131.384 92.442 C 130.092 95.809, 131.535 96.634, 133.826 93.839 C 136.135 91.021, 136.137 91, 134.045 91 C 132.886 91, 131.688 91.649, 131.384 92.442 M 137.750 93.718 C 136.787 94.785, 136 96.510, 136 97.551 C 136 99.344, 136.111 99.333, 138.097 97.347 C 139.251 96.194, 140.038 94.469, 139.847 93.514 C 139.528 91.918, 139.360 91.935, 137.750 93.718 M 217.500 94.068 C 214.770 95.817, 214.699 95.990, 216.715 95.995 C 217.933 95.998, 219.411 95.100, 220 94 C 221.270 91.628, 221.312 91.626, 217.500 94.068 M 267.502 94.998 C 265.772 96.910, 265.769 97.178, 267.442 101.248 C 270.912 109.689, 274.059 115.565, 276.950 119 C 279.894 122.497, 279.898 122.498, 281.872 120.500 C 284.419 117.923, 284.521 117.119, 283.575 107.198 C 282.556 96.525, 280.071 93, 273.566 93 C 270.582 93, 268.770 93.597, 267.502 94.998 M 335.098 94.302 C 333.301 96.099, 333.828 97.741, 336.904 99.932 C 341.610 103.283, 347 102.227, 347 97.955 C 347 94.149, 338.010 91.390, 335.098 94.302 M 81.690 99.436 C 79.612 100.846, 77.481 102, 76.956 102 C 75.519 102, 75.806 105.724, 77.494 108.988 C 78.316 110.577, 78.942 112.917, 78.885 114.189 C 78.829 115.460, 79.350 118.075, 80.043 120 C 80.736 121.925, 81.477 124.144, 81.689 124.930 C 81.926 125.806, 82.752 125.031, 83.821 122.930 C 84.781 121.044, 86.014 119.579, 86.561 119.676 C 88.012 119.932, 87.725 111.578, 86.220 109.766 C 85.249 108.595, 85.207 107.640, 86.047 105.796 C 86.744 104.265, 86.842 102.170, 86.311 100.120 L 85.469 96.871 81.690 99.436 M 270.514 98.750 C 270.915 99.713, 272.020 102.525, 272.971 105 C 276.020 112.939, 279.493 118.030, 280.128 115.487 C 280.366 114.534, 278.904 100.514, 278.382 98.750 C 278 97.458, 276.809 97, 273.826 97 C 270.368 97, 269.891 97.252, 270.514 98.750 M 246.083 99.804 C 238.231 102.818, 239.544 104.488, 250.659 105.627 L 257.294 106.306 256.566 103.409 C 255.105 97.587, 253.393 96.998, 246.083 99.804 M 216.140 105.685 C 210.106 108.208, 207.477 108.877, 206.690 108.090 C 205.439 106.839, 202 106.613, 202 107.781 C 202 108.211, 199.785 110.885, 197.078 113.723 C 193.089 117.905, 192.413 119.098, 193.514 120.011 C 194.490 120.822, 195.434 120.838, 196.870 120.069 C 200.774 117.980, 206.661 118.754, 208.944 121.656 L 211.033 124.312 226.267 123.644 C 249.707 122.618, 259.779 119.458, 247.305 117.045 C 244.112 116.427, 239.475 115.422, 237 114.812 C 234.525 114.202, 230.925 113.493, 229 113.237 C 222.638 112.390, 220.599 109.068, 223.615 104.465 C 224.503 103.109, 225.066 102.042, 224.865 102.094 C 224.664 102.146, 220.738 103.762, 216.140 105.685 M 147.694 103.639 C 146.540 104.793, 148.068 106, 150.681 106 C 152.847 106, 153.052 105.767, 152 104.500 C 150.699 102.932, 148.784 102.549, 147.694 103.639 M 236 105.719 C 236 107.937, 237.850 109.048, 241.332 108.921 C 242.790 108.868, 243.009 108.663, 242 108.294 C 241.175 107.992, 239.488 106.824, 238.250 105.698 L 236 103.651 236 105.719 M 258.694 108.532 C 256.989 110.032, 256.450 111, 257.319 111 C 258.106 111, 260.202 111.290, 261.976 111.645 L 265.201 112.290 263.575 109.145 C 261.651 105.424, 262.154 105.488, 258.694 108.532 M 176.895 114.774 C 175.145 116.756, 175.055 117.020, 176.564 115.756 C 178.156 114.423, 178.899 114.299, 179.814 115.214 C 180.729 116.129, 181 116.025, 181 114.759 C 181 111.945, 179.388 111.951, 176.895 114.774 M 131 123.954 C 125.775 124.363, 119.475 124.495, 117 124.246 C 112.868 123.831, 112.309 124.054, 110.164 126.973 C 107.940 130, 107.911 130.244, 109.557 132.063 C 112.140 134.917, 123.315 140.784, 127.677 141.576 C 132.196 142.397, 138.104 145.216, 139.939 147.427 C 142.219 150.174, 143.481 149.172, 146.460 142.250 C 150.267 133.407, 151.817 131.082, 155.327 128.947 L 158.240 127.176 154.958 125.478 C 150.987 123.425, 143.678 122.960, 131 123.954 M 201.083 123.377 C 201.313 123.584, 203.525 124.765, 206 126 L 210.500 128.246 208.076 125.623 C 206.707 124.142, 204.566 123, 203.159 123 C 201.788 123, 200.854 123.170, 201.083 123.377 M 142 124.685 C 138.648 125.946, 135 130.295, 136.141 131.670 C 139.474 135.686, 151.060 130.506, 148.364 126.205 C 147.234 124.401, 144.494 123.747, 142 124.685 M 0.550 131.919 C -0.420 133.489, 0.617 134.687, 3.593 135.434 C 5.029 135.794, 7.364 137.468, 8.782 139.152 C 11.037 141.833, 11.836 142.151, 15.179 141.703 C 20.715 140.960, 20.680 142.308, 15.039 147.064 C 12.294 149.379, 9.782 152.111, 9.457 153.136 C 8.781 155.264, 7 155.663, 7 153.687 C 7 151.605, 1.345 146.632, 0.512 147.981 C 0.123 148.611, 0.547 149.947, 1.456 150.951 C 2.364 151.955, 3.162 153.839, 3.228 155.138 C 3.295 156.437, 4.027 158.300, 4.856 159.279 C 6.261 160.939, 6.946 160.453, 15.091 152.016 C 19.891 147.043, 23.728 142.351, 23.616 141.588 C 23.120 138.211, 20.792 136.909, 16.423 137.564 C 12.550 138.145, 11.892 137.920, 9.327 135.138 C 6.293 131.847, 1.647 130.143, 0.550 131.919 M 198.773 133.580 C 202.057 135.548, 206.572 136.691, 218.273 138.518 C 226.648 139.825, 234.850 141.163, 236.500 141.491 C 238.150 141.819, 241.385 141.505, 243.688 140.794 C 247.596 139.587, 247.780 139.370, 246.442 137.565 C 245.144 135.812, 243.378 135.589, 227.754 135.209 C 214.354 134.883, 209.223 134.366, 204.782 132.894 C 196.188 130.047, 193.408 130.365, 198.773 133.580 M 242.663 131.931 C 247.200 132.672, 250 134.463, 250 136.622 C 250 138.294, 250.252 138.304, 255.134 136.842 C 263.078 134.462, 257.791 130.950, 246.527 131.125 C 240 131.227, 239.278 131.378, 242.663 131.931 M 176.308 138.719 C 172.507 139.194, 170.043 144.343, 171.930 147.869 C 172.808 149.509, 172.472 150.267, 169.915 152.418 C 165.926 155.774, 161.084 155.838, 157.306 152.584 L 154.500 150.168 156.802 147.714 L 159.104 145.260 156.819 144.663 C 154.045 143.937, 153.587 144.396, 151.990 149.500 C 151.302 151.700, 150.386 153.950, 149.954 154.500 C 149.448 155.146, 150.763 155.374, 153.661 155.144 C 158.353 154.771, 162.751 156.089, 173.797 161.181 C 180.590 164.312, 182.150 166.279, 179.744 168.684 C 178.372 170.056, 178.384 170.517, 179.858 173.174 C 181.478 176.096, 181.458 176.171, 178.328 178.825 L 175.156 181.515 177.828 184.767 C 179.298 186.555, 180.993 188.014, 181.595 188.009 C 183.398 187.994, 186.201 191.720, 185.831 193.640 C 185.527 195.218, 183.309 197.061, 177.573 200.500 C 176.082 201.395, 176.293 202.133, 179.573 207.500 C 182.839 212.842, 185.374 217.259, 189.525 224.841 C 191.352 228.176, 191.734 226.409, 192.946 209.037 C 193.917 195.122, 194.110 194.252, 198.028 186.087 C 201.245 179.382, 201.647 178.009, 199.942 179.550 C 197.786 181.499, 197.784 181.499, 194.892 178.038 C 192.858 175.603, 192 173.488, 192 170.910 C 192 166.724, 190.761 165.436, 186.500 165.189 C 180.971 164.869, 177.969 157.901, 181.621 153.866 C 183.102 152.230, 183.495 152.205, 186.149 153.577 C 189.409 155.263, 194.238 154.822, 200.227 152.292 C 203.253 151.013, 204.241 150.955, 205.477 151.981 C 207.372 153.553, 207.398 152.381, 205.585 147.241 C 204.568 144.359, 204.475 142.925, 205.254 142.146 C 207.564 139.836, 201.775 139.107, 198.769 141.329 L 196.003 143.374 198.176 145.687 L 200.349 148 198 150.500 C 195.025 153.666, 191.986 153.679, 189.035 150.537 C 186.806 148.164, 186.784 147.979, 188.428 145.470 C 189.757 143.441, 189.874 142.554, 188.959 141.450 C 187.915 140.193, 181.295 137.765, 180 138.166 C 179.725 138.251, 178.064 138.500, 176.308 138.719 M 212.035 145.750 C 212.054 146.162, 212.697 149.424, 213.463 152.999 C 215.058 160.442, 213.423 170.757, 210.054 174.500 C 207.778 177.028, 201.444 191.393, 200.613 195.912 C 200.010 199.190, 200.058 199.257, 201.849 197.636 C 204.678 195.077, 206.063 197.539, 206.602 206.083 C 206.852 210.043, 207.319 213.708, 207.641 214.228 C 208.316 215.320, 205.325 222.665, 203.150 225.258 C 201.773 226.900, 201.553 226.906, 199.838 225.353 C 196.636 222.456, 197.851 225.634, 201.866 230.660 C 207.714 237.981, 210.855 240.606, 212.405 239.467 C 219.053 234.579, 218.927 234.624, 220.942 236.448 C 222.584 237.934, 222.760 239.138, 222.273 245.580 C 221.629 254.093, 222.172 254.544, 227.472 249.890 C 230.495 247.236, 231.526 246.876, 234.507 247.435 C 240.904 248.635, 238.626 244.737, 227.643 235.687 C 225.086 233.580, 220.217 230.951, 216.758 229.811 C 208.001 226.924, 207.174 225.968, 210.002 221.997 C 212.723 218.176, 212.977 210.481, 210.570 204.782 C 207.420 197.322, 209.244 192.529, 215.500 191.834 C 218.114 191.543, 218.459 191.149, 218.181 188.773 C 217.754 185.112, 222.147 180.569, 225.340 181.370 C 227.534 181.921, 227.582 181.741, 227.732 172.378 C 227.840 165.625, 228.342 162.127, 229.443 160.447 C 233.153 154.784, 229.331 147.666, 221.702 146.029 C 216.046 144.817, 211.986 144.699, 212.035 145.750 M 191 148 C 191 148.550, 192.125 149, 193.500 149 C 194.875 149, 196 148.550, 196 148 C 196 147.450, 194.875 147, 193.500 147 C 192.125 147, 191 147.450, 191 148 M 136.250 149.614 C 137.213 150.738, 138 152.725, 138 154.029 C 138 155.820, 138.282 156.118, 139.153 155.247 C 139.979 154.421, 140.864 154.392, 142.270 155.144 C 144.575 156.378, 146.382 154.942, 147.485 151 L 148.185 148.500 146.536 150.750 C 144.357 153.722, 141.876 153.589, 137.827 150.285 C 135.826 148.653, 135.198 148.385, 136.250 149.614 M 122 150.777 C 122 151.755, 121.308 153.544, 120.461 154.752 C 119.158 156.612, 119.073 158.419, 119.904 166.542 C 120.444 171.818, 120.649 176.752, 120.359 177.507 C 120.070 178.261, 120.307 179.693, 120.886 180.689 C 121.857 182.358, 121.942 182.329, 121.970 180.323 C 122.004 177.843, 126.351 174, 129.121 174 C 130.265 174, 131.493 172.757, 132.332 170.750 C 134.452 165.678, 135.890 164.945, 141.868 165.890 C 146.242 166.582, 147.015 166.480, 146.553 165.277 C 146.249 164.485, 146 162.722, 146 161.359 C 146 159.976, 145.562 159.153, 145.008 159.495 C 144.462 159.832, 143.225 159.666, 142.259 159.125 C 140.986 158.413, 140.024 158.574, 138.769 159.709 C 136.375 161.876, 134.205 159.939, 133.806 155.279 C 133.517 151.909, 133.220 151.636, 128.500 150.399 C 122.005 148.696, 122 148.697, 122 150.777 M 199.801 156.584 C 196.719 158.213, 188.355 158.819, 185.750 157.603 C 184.379 156.963, 184 157.242, 184 158.893 C 184 160.052, 184.563 161.037, 185.250 161.083 C 190.086 161.406, 191.608 162.006, 193.669 164.401 C 195.231 166.217, 196 168.372, 196 170.933 C 196 176.352, 198.470 178.186, 199.854 173.796 C 201.441 168.760, 203.246 158.483, 202.851 156.725 C 202.541 155.341, 202.186 155.325, 199.801 156.584 M 114.230 163.115 C 114.221 166.753, 114.610 170.353, 115.092 171.115 C 116.174 172.823, 116.106 163.853, 115.004 159.500 C 114.430 157.232, 114.241 158.115, 114.230 163.115 M 159.365 161.073 C 162.784 163.762, 162.693 165.962, 159.017 169.483 C 156.055 172.322, 156.020 172.328, 153.860 170.421 C 151.690 168.503, 151.687 168.504, 152.329 171 C 152.683 172.375, 152.979 174.001, 152.986 174.612 C 152.994 175.224, 154.378 177.458, 156.061 179.577 C 157.745 181.696, 159.626 185.312, 160.242 187.614 C 160.880 190.002, 161.849 191.611, 162.498 191.362 C 164.455 190.611, 168.801 194.864, 170.065 198.766 C 170.730 200.820, 172.642 205.200, 174.313 208.500 C 176.796 213.404, 177.364 215.779, 177.425 221.500 C 177.497 228.185, 177.612 228.515, 180 228.841 C 183.249 229.285, 185.941 231.708, 187.638 235.719 C 188.394 237.505, 191.416 240.721, 194.428 242.947 C 197.412 245.152, 200.137 247.413, 200.483 247.972 C 200.829 248.532, 202.099 249.503, 203.306 250.130 C 206.851 251.974, 201.610 246.581, 195.265 241.857 C 189.806 237.792, 187.004 233.708, 186.994 229.800 C 186.990 228.535, 186.370 226.375, 185.616 225 C 181.240 217.028, 178.857 212.869, 175.608 207.538 C 171.488 200.778, 171.493 200.261, 175.707 197.500 C 182.665 192.941, 182.617 192.987, 181 192.322 C 178.640 191.351, 169.087 180.668, 169.696 179.682 C 169.998 179.195, 171.764 178.161, 173.622 177.385 C 177.471 175.776, 177.620 175.330, 175.378 172.130 C 173.908 170.031, 173.903 169.669, 175.319 168.252 C 177.058 166.513, 175.239 165.334, 164.213 161.053 C 157.496 158.445, 156.032 158.451, 159.365 161.073 M 233.133 160.830 C 232.348 162.249, 231.803 167.051, 231.739 173.109 C 231.624 184.117, 230.988 185.405, 225.639 185.465 C 222.791 185.497, 222.491 185.802, 222.400 188.756 C 222.291 192.297, 219.605 196, 217.145 196 C 215.985 196, 215.885 196.285, 216.744 197.144 C 218.351 198.751, 224 196.330, 224 194.034 C 224 192.182, 226.980 189, 228.714 189 C 230.027 189, 233 184.578, 233 182.624 C 233 181.829, 234.278 180.102, 235.840 178.788 C 238.597 176.468, 238.644 176.268, 237.460 171.949 C 236.789 169.502, 235.831 165.475, 235.331 163 C 234.454 158.655, 234.378 158.580, 233.133 160.830 M 154.015 164.250 C 154.024 164.938, 154.455 166.171, 154.974 166.992 C 156.208 168.944, 158.538 166.844, 157.664 164.567 C 156.951 162.708, 153.993 162.451, 154.015 164.250 M 136.589 169.744 C 136.265 170.068, 136 171.128, 136 172.099 C 136 174.045, 131.078 178, 128.655 178 C 126.508 178, 125.702 179.678, 126.439 182.614 C 126.838 184.202, 127.693 185.037, 128.783 184.904 C 129.728 184.788, 131.175 184.947, 132 185.258 C 132.825 185.569, 134.998 186.303, 136.830 186.888 L 140.160 187.952 137.080 185.075 C 135.386 183.492, 134 181.288, 134 180.177 C 134 177.421, 141.898 170.740, 144.386 171.391 C 145.432 171.664, 145.886 171.522, 145.394 171.074 C 144.233 170.018, 137.355 168.978, 136.589 169.744 M 140.250 176.674 C 137.029 178.921, 137.449 181.056, 141.985 185.485 L 145.970 189.377 148.474 187.025 L 150.977 184.673 148.883 183.206 C 147.731 182.399, 146.155 180.222, 145.381 178.369 C 143.800 174.586, 143.423 174.461, 140.250 176.674 M 98.549 179.124 C 95.218 183.082, 96.593 185.815, 102.950 187.875 C 106.918 189.161, 107.331 189.113, 109.308 187.137 L 111.421 185.023 106.961 180.532 C 101.630 175.164, 101.850 175.201, 98.549 179.124 M 182.500 176.945 C 178.412 178.619, 176.853 181.345, 178.577 183.806 C 180.725 186.873, 184.111 186.539, 187.563 182.922 L 190.500 179.843 188.139 177.922 C 185.533 175.800, 185.368 175.771, 182.500 176.945 M 115.032 180.404 C 115.014 181.450, 116.138 184.713, 117.529 187.654 C 119.677 192.193, 120.469 192.998, 122.779 192.989 L 125.500 192.978 122.381 190.519 C 120.666 189.167, 119.006 186.809, 118.693 185.280 C 118.380 183.751, 117.436 181.600, 116.594 180.500 C 115.122 178.576, 115.062 178.573, 115.032 180.404 M 239.250 180.477 C 238.012 181.026, 237 182.260, 237 183.220 C 237 184.179, 234.975 187.078, 232.500 189.661 C 230.025 192.244, 228 194.592, 228 194.879 C 228 195.166, 228.540 194.860, 229.200 194.200 C 229.860 193.540, 231.221 193, 232.225 193 C 233.297 193, 234.477 191.867, 235.086 190.250 C 235.656 188.738, 237.496 186.076, 239.174 184.337 C 242.602 180.782, 242.638 178.976, 239.250 180.477 M 309 182.194 C 298.944 185.037, 297.566 185.893, 294.720 191.060 L 291.940 196.108 293.985 198.709 C 296.540 201.956, 295.823 202.906, 285.250 210.299 C 277.278 215.872, 275.750 219, 281 219 C 283.492 219, 284 218.598, 284 216.622 C 284 213.842, 285.578 212.297, 289.062 211.665 C 290.437 211.416, 292.991 209.877, 294.738 208.244 C 296.991 206.141, 299.708 204.924, 304.077 204.065 C 308.209 203.252, 311.070 202.021, 312.763 200.328 L 315.288 197.803 310.894 193.982 C 306.183 189.886, 306.187 190.303, 310.818 184.103 C 312.093 182.396, 312.993 181.046, 312.818 181.102 C 312.643 181.158, 310.925 181.649, 309 182.194 M 148.249 191.195 C 146.611 192.834, 145.792 193.072, 144.757 192.213 C 143.691 191.329, 143.162 191.733, 142.261 194.119 C 141.355 196.518, 141.376 196.933, 142.361 196.115 C 143.045 195.548, 144.588 195.341, 145.790 195.655 C 150.446 196.873, 155 195.151, 155 192.173 C 155 188.647, 151.329 188.115, 148.249 191.195 M 161.930 203.052 L 160.616 211.146 151.573 219.163 L 142.529 227.181 130.015 226.927 C 118.866 226.701, 99.517 228.149, 98.371 229.296 C 98.133 229.534, 99.077 230.475, 100.469 231.388 C 102.616 232.794, 103 233.801, 103 238.023 C 103 242.991, 103.006 243, 106.313 243 C 108.689 243, 110.439 243.849, 112.500 246 C 115.986 249.638, 115.839 249.633, 123.114 246.368 C 127.913 244.215, 129.252 243.965, 130.489 244.991 C 134.105 247.992, 131.146 252.216, 123.975 254.292 C 118.740 255.808, 118.386 256.655, 121.431 260.382 C 123.688 263.144, 123.882 263.196, 126.115 261.632 C 129.073 259.560, 131.852 259.556, 134.133 261.621 C 135.797 263.127, 136.145 263.056, 139.039 260.621 C 142.651 257.582, 143.307 257.460, 145.013 259.516 C 146.296 261.061, 145.381 269.857, 143.455 274.500 C 142.723 276.264, 142.820 276.342, 144.273 275.161 C 145.543 274.128, 146.990 274.049, 150.583 274.816 L 155.246 275.810 154.659 271.527 C 153.542 263.381, 159.052 261.712, 162.065 269.283 C 163.788 273.612, 163.713 273.570, 166.011 271.490 C 167.985 269.704, 168.106 269.727, 170.936 272.439 C 172.532 273.968, 174.108 276.295, 174.438 277.610 C 175.214 280.699, 178 280.770, 178 277.700 C 178 276.435, 177.539 274.939, 176.976 274.376 C 175.470 272.870, 179.531 269.384, 181.231 270.724 C 181.929 271.274, 183.709 272.013, 185.187 272.365 C 186.790 272.748, 190.822 276.247, 195.187 281.044 C 199.209 285.465, 204.863 290.662, 207.750 292.594 C 210.637 294.526, 213 296.758, 213 297.553 C 213 300.604, 216.061 298.702, 224.356 290.500 C 229.084 285.825, 233.638 282, 234.476 282 C 236.771 282, 236.344 277.696, 233.897 276.168 C 232.108 275.050, 231.888 274.229, 232.424 270.656 C 233.222 265.339, 231.185 261.772, 228.584 263.930 C 227.288 265.006, 226.981 267.011, 227.094 273.648 C 227.298 285.635, 223.142 289.350, 221.656 278.509 C 220.719 271.673, 218.457 267.154, 215.302 265.815 C 211.957 264.396, 206 259.065, 206 257.491 C 206 256.877, 203.231 254.153, 199.846 251.437 C 189.232 242.922, 184.215 237.993, 183.578 235.454 C 183.101 233.552, 182.307 233, 180.054 233 C 175.228 233, 172.673 228.781, 173.291 221.832 C 173.741 216.778, 173.374 215.260, 169.909 207.832 C 167.771 203.249, 166.017 198.993, 166.011 198.372 C 166.005 197.752, 165.380 196.730, 164.622 196.102 C 163.485 195.158, 163.015 196.372, 161.930 203.052 M 223.019 199.642 C 221.104 201.001, 218.723 201.899, 217.728 201.639 C 216.264 201.256, 216.045 201.580, 216.583 203.333 C 216.949 204.525, 217.338 205.608, 217.447 205.739 C 217.556 205.871, 219.481 205.257, 221.726 204.376 C 224.962 203.104, 225.894 202.176, 226.230 199.886 C 226.463 198.299, 226.619 197.039, 226.577 197.086 C 226.535 197.133, 224.933 198.283, 223.019 199.642 M 144 200.095 C 144 200.422, 144.900 201.505, 146 202.500 C 148.875 205.102, 148.509 206.497, 144 210.120 C 140.316 213.081, 138.767 216, 140.879 216 C 142.583 216, 150.187 207.796, 151.585 204.451 C 153.592 199.648, 153.500 199.500, 148.500 199.500 C 146.025 199.500, 144 199.768, 144 200.095 M 135 202.411 C 135 204.278, 129.323 209, 127.078 209 C 124.377 209, 122 212.279, 122 216.003 L 122 219.349 124.314 217.174 C 125.587 215.978, 127.351 215, 128.233 215 C 130.865 215, 133 213.872, 133 212.482 C 133 211.765, 134.369 210.026, 136.042 208.618 C 138.998 206.131, 139.037 205.987, 137.427 203.529 C 135.540 200.649, 135 200.400, 135 202.411 M 88.557 211.223 C 86.524 214.124, 86.591 214.920, 88.820 214.337 C 89.821 214.075, 91.176 214.508, 91.832 215.298 C 93.434 217.228, 90.791 219.561, 88.263 218.448 C 85.364 217.173, 84.601 217.280, 82.341 219.273 C 80.965 220.487, 78.971 221.092, 76.841 220.943 C 75.004 220.815, 71.925 220.775, 70 220.856 L 66.500 221.003 70 222.752 C 73.052 224.276, 73.539 225.033, 73.803 228.661 C 74.069 232.312, 74.536 233.027, 77.614 234.487 C 79.543 235.402, 81.370 236.800, 81.674 237.592 C 82.245 239.080, 89 230.630, 89 228.428 C 89 226.519, 93.363 223.317, 98.500 221.456 C 101.250 220.460, 103.685 219.503, 103.911 219.329 C 104.760 218.674, 100.620 215, 99.032 215 C 98.120 215, 96.081 213.650, 94.500 212 C 91.061 208.410, 90.571 208.346, 88.557 211.223 M 201.681 212.875 C 201.306 214.731, 201.018 217.431, 201.040 218.875 L 201.080 221.500 202.570 218.754 C 203.637 216.786, 203.819 215.087, 203.210 212.754 L 202.361 209.500 201.681 212.875 M 59.662 222.618 C 58.100 223.464, 57.026 224.359, 57.273 224.606 C 57.930 225.263, 62.694 223.304, 63.462 222.062 C 64.366 220.599, 63.026 220.795, 59.662 222.618 M 25.250 224.562 C 19.456 227.209, 19.257 227.522, 21.664 230.182 C 23.225 231.906, 23.193 232.166, 21.161 234.328 L 18.994 236.635 22.824 236.068 C 24.931 235.755, 28.131 234.250, 29.937 232.722 C 33.101 230.045, 33.171 229.828, 31.872 226.722 C 31.131 224.950, 30.631 223.162, 30.762 222.750 C 30.893 222.338, 30.887 222.037, 30.750 222.082 C 30.613 222.127, 28.138 223.243, 25.250 224.562 M 273.158 222.881 C 272.035 223.593, 272.035 224.121, 273.158 226.116 C 273.896 227.427, 274.569 228.644, 274.653 228.819 C 274.737 228.995, 276.634 228.591, 278.870 227.921 C 282.886 226.717, 283.588 225, 280.063 225 C 279.063 225, 277.685 224.325, 277 223.500 C 275.576 221.784, 275.028 221.696, 273.158 222.881 M 191.136 229.703 C 190.907 233.415, 192.920 236.439, 197.583 239.389 C 200.036 240.941, 202.464 242.999, 202.980 243.964 C 203.497 244.928, 205.140 246.517, 206.632 247.495 C 210.342 249.925, 202.088 240.333, 196.324 235.515 C 194.024 233.592, 191.946 231.002, 191.707 229.759 L 191.272 227.500 191.136 229.703 M 196 230.462 C 196 231.269, 196.879 232.400, 197.954 232.976 C 201.770 235.018, 214 249.904, 214 252.506 C 214 254.427, 214.517 254.999, 216.250 254.995 C 218.393 254.991, 218.500 254.614, 218.504 247.092 C 218.509 238.826, 217.726 238.010, 214.045 242.445 C 211.893 245.039, 210.542 244.303, 203.127 236.497 C 199.207 232.370, 196 229.654, 196 230.462 M 89.600 234.150 L 86.701 238.236 88.850 244.499 C 90.033 247.944, 91.014 251.603, 91.032 252.631 C 91.063 254.443, 91.107 254.443, 92.500 252.603 C 93.290 251.559, 93.687 250.302, 93.382 249.809 C 93.077 249.316, 93.587 247.754, 94.514 246.338 C 96.397 243.465, 95.899 234.568, 93.692 231.644 C 92.657 230.273, 92.117 230.604, 89.600 234.150 M 237.756 232.419 C 240.646 233.172, 244.820 234.511, 247.030 235.395 L 251.048 237.003 249.409 234.502 C 248.319 232.838, 246.850 232, 245.025 232 C 243.515 232, 240.079 231.786, 237.390 231.525 L 232.500 231.051 237.756 232.419 M 237.808 240.519 C 242.679 246.053, 242.833 246.869, 239.585 249.920 C 237.822 251.577, 236.540 252, 234.835 251.490 L 232.500 250.791 234.739 253.107 C 236.492 254.919, 237.241 255.159, 238.189 254.211 C 238.855 253.545, 240.709 253, 242.308 253 C 244.872 253, 245.146 252.718, 244.620 250.621 C 243.941 247.918, 247.003 243.304, 250.281 242.092 C 252.420 241.301, 244.450 237.891, 237.058 236.435 L 233.616 235.757 237.808 240.519 M 253 251.362 C 253 253.593, 251.990 255.996, 250 258.500 C 246.739 262.604, 246.216 266.622, 247.942 274.307 C 253.597 299.487, 253.390 297.958, 251.637 301.636 C 250.737 303.523, 250 306.573, 250 308.412 C 250 315.732, 246.098 320.999, 239.500 322.586 C 234.343 323.827, 233.572 328.304, 237.014 337.035 C 238.121 339.844, 239.134 344.358, 239.264 347.064 C 239.394 349.771, 239.642 351.989, 239.816 351.993 C 240.758 352.014, 245.213 349.120, 250.654 344.953 C 254.039 342.360, 258.989 339.451, 261.654 338.489 C 269.780 335.555, 278.219 331.251, 283.975 327.104 C 291.390 321.762, 310.800 312.143, 317.250 310.614 C 318.762 310.255, 320 309.514, 320 308.966 C 320 307.478, 314.198 304.199, 308.172 302.281 C 301.338 300.106, 297 295.445, 297 290.277 C 297 285.350, 293.336 280.016, 289.946 280.007 C 287.243 280, 284.313 277.284, 277.532 268.500 C 271.462 260.637, 265.926 255.118, 260.396 251.416 C 254.029 247.154, 253 247.146, 253 251.362 M 247 255.500 C 246.315 256.325, 244.655 257, 243.310 257 C 241.236 257, 240.970 257.342, 241.557 259.250 C 241.937 260.488, 242.406 261.676, 242.599 261.892 C 243 262.340, 246.533 258.361, 248.052 255.750 C 249.300 253.606, 248.692 253.461, 247 255.500 M 224.500 261.594 C 223.221 262.572, 221.435 262.916, 219.548 262.547 L 216.596 261.969 219.515 265.015 L 222.433 268.062 223.269 265.801 C 223.729 264.558, 224.826 262.744, 225.708 261.771 C 227.660 259.613, 227.181 259.543, 224.500 261.594 M 138.500 265 C 136.342 267.385, 134.689 267.535, 133 265.500 C 132.315 264.675, 130.798 264.002, 129.628 264.004 C 127.796 264.007, 127.930 264.270, 130.590 265.892 C 132.289 266.928, 134.879 269.289, 136.346 271.138 C 139.169 274.698, 140.932 274.077, 140.998 269.500 C 141.014 268.400, 141.299 266.488, 141.630 265.250 C 142.377 262.463, 140.903 262.345, 138.500 265 M 100.055 271.905 C 94.333 281.703, 94.052 282.796, 94.695 292.721 C 95.511 305.311, 97.156 308.413, 103.225 308.804 L 107.943 309.107 106.471 305.586 C 104.462 300.777, 104.617 298.756, 107.250 295.415 C 110 291.925, 111.734 285.778, 112.605 276.430 C 113.435 267.510, 112.316 265, 107.509 265 C 104.334 265, 103.798 265.497, 100.055 271.905 M 125.692 278.045 C 126.083 281.349, 125.838 283.934, 124.983 285.533 C 123.942 287.477, 123.919 288.785, 124.869 291.957 C 126.134 296.179, 125.421 308.622, 123.859 309.587 C 123.387 309.879, 123 311.138, 123 312.385 C 123 315.711, 119.004 319, 114.963 319 C 111.710 319, 111.648 319.065, 113.613 320.442 C 115.583 321.821, 125.773 325.998, 127.171 325.999 C 127.539 326, 128.127 324.697, 128.477 323.104 C 130.281 314.890, 134.169 316.372, 140.004 327.500 C 141.735 330.800, 143.731 334.175, 144.441 335 C 145.151 335.825, 146.051 337.850, 146.442 339.500 C 146.847 341.211, 149.268 344.459, 152.076 347.060 C 156.006 350.701, 157 352.269, 157 354.833 C 157 358.013, 157.025 358.030, 159.451 356.440 C 161.083 355.371, 162.670 355.091, 164.201 355.604 C 165.465 356.027, 168.525 356.478, 171 356.605 C 173.475 356.733, 176.852 357.133, 178.505 357.496 C 181.076 358.060, 181.838 357.711, 183.785 355.077 C 186.764 351.048, 188.179 351.189, 194.001 356.098 C 201.579 362.488, 201.469 366, 193.690 366 L 189.626 366 192.367 368.861 C 195.449 372.078, 195.287 375.526, 191.910 378.581 C 190.860 379.532, 190 381.080, 190 382.020 C 190 384.982, 186.236 388.875, 183.950 388.277 C 182.109 387.795, 177.157 382.328, 171.445 374.469 C 170.228 372.795, 168.912 371.936, 168.220 372.364 C 165.925 373.782, 174.713 383.493, 184.482 390.335 C 187.342 392.338, 192.951 400.644, 192.981 402.921 C 192.991 403.703, 192.363 405.053, 191.584 405.921 C 190.348 407.298, 190.480 407.883, 192.614 410.500 C 194.885 413.284, 194.997 413.322, 194.171 411.016 C 193.444 408.981, 193.831 407.848, 196.310 404.764 C 199.945 400.240, 201.041 400.822, 206.531 410.187 C 212.565 420.484, 212.940 426.795, 207.455 425.747 C 205.812 425.433, 206.560 426.603, 210.556 430.599 C 213.453 433.496, 216.118 436.796, 216.479 437.933 C 217.151 440.051, 218.140 440.527, 219.352 439.315 C 219.729 438.938, 221.715 438.053, 223.766 437.348 C 228.566 435.697, 229.681 436.783, 230.299 443.702 C 230.783 449.119, 229.599 451.352, 225.821 452.147 C 224.375 452.451, 224.488 452.900, 226.636 455.381 C 228.859 457.949, 229.405 458.137, 231.666 457.106 C 233.817 456.126, 234.007 455.713, 232.915 454.397 C 232.151 453.477, 231.732 450.836, 231.888 447.913 C 232.031 445.201, 231.706 441.524, 231.164 439.741 C 230.623 437.958, 229.893 435.212, 229.543 433.638 C 228.925 430.863, 228.845 430.830, 226.942 432.552 C 223.914 435.293, 220 431.289, 220 425.451 C 220 423.141, 219.358 419.432, 218.574 417.209 C 215.789 409.316, 215.620 404.752, 218.002 401.725 C 219.189 400.216, 220.575 399.237, 221.082 399.551 C 221.589 399.864, 222.406 399.062, 222.898 397.769 C 224.595 393.306, 226.716 392.414, 229.951 394.805 C 232.435 396.642, 232.980 396.730, 234.031 395.463 C 235.038 394.249, 234.634 393.745, 231.654 392.500 C 229.680 391.675, 227.601 391, 227.035 391 C 224.931 391, 218 383.742, 218 381.539 C 218 377.653, 221.487 375.413, 225.357 376.812 C 229.086 378.161, 232.702 378.361, 233.255 377.250 C 233.826 376.105, 229.128 371.984, 228.468 373.051 C 227.035 375.371, 214 366.287, 214 362.968 C 214 362.056, 213.100 360.495, 212 359.500 C 209.299 357.056, 209.475 355.538, 212.960 351.191 C 214.589 349.161, 216.625 345.497, 217.487 343.050 C 221.376 331.996, 224.202 332.418, 232.211 345.250 L 236.112 351.500 235.423 346.500 C 235.044 343.750, 233.851 339.250, 232.773 336.500 C 229.072 327.059, 231.610 319.798, 239.025 318.612 C 243.628 317.876, 245.978 314.418, 246.035 308.300 C 246.055 306.210, 246.714 303.375, 247.500 302 C 249.030 299.324, 249.531 294.554, 248.195 295.379 C 247.753 295.653, 246.356 299.392, 245.091 303.688 C 241.495 315.905, 240.440 316.874, 234.970 312.979 C 230.161 309.554, 228.616 310.890, 229.398 317.797 C 230.029 323.383, 229.946 323.660, 226.693 326.813 C 224.616 328.826, 222.744 329.839, 221.781 329.470 C 220.593 329.014, 219.818 330.171, 218.497 334.372 C 216.285 341.402, 213.151 344.524, 209.301 343.530 C 206.660 342.848, 205.104 342.804, 197.273 343.192 C 193.218 343.393, 190 340.611, 190 336.904 C 190 335.372, 189.504 333.812, 188.898 333.437 C 188.292 333.062, 187.178 331.277, 186.423 329.470 C 185.271 326.713, 184.366 326.069, 180.797 325.466 C 178.458 325.070, 175.570 324.109, 174.379 323.329 C 172.397 322.030, 172.029 322.146, 170.007 324.705 L 167.799 327.500 170.295 327.806 C 171.669 327.975, 173.544 328.944, 174.463 329.959 C 176.038 331.700, 175.984 331.911, 173.505 333.653 C 172.058 334.669, 169.571 336.538, 167.977 337.806 C 165.666 339.644, 164.678 339.898, 163.105 339.056 C 162.019 338.475, 160.067 338, 158.766 338 C 155.645 338, 154 336.226, 154 332.859 C 154 329.950, 152.559 328.286, 151.510 329.984 C 149.154 333.797, 135.036 320.878, 134.956 314.837 C 134.932 313.001, 134.267 309.700, 133.479 307.500 C 132.691 305.300, 131.565 297.650, 130.976 290.500 C 129.612 273.919, 129.405 273, 127.028 273 C 125.293 273, 125.156 273.518, 125.692 278.045 M 157.972 276.452 C 156.862 278.751, 155.915 279.436, 154.118 279.238 C 152.079 279.014, 151.919 279.198, 153.011 280.514 C 154.157 281.894, 154.464 281.890, 156.032 280.471 C 157.650 279.007, 158.056 279.243, 161.585 283.696 C 163.679 286.338, 166.724 289.944, 168.353 291.709 C 170.964 294.540, 171.147 295.119, 169.906 296.620 C 168.614 298.183, 168.676 298.212, 170.669 296.971 C 173.077 295.471, 176 296.925, 176 299.622 C 176 300.492, 177.126 301, 179.051 301 C 181.563 301, 182.348 300.412, 183.493 297.670 C 186.471 290.544, 193.053 289.043, 199.797 293.952 C 204.964 297.714, 205.790 299.469, 203.556 301.938 C 200.942 304.827, 203.566 305.544, 206.789 302.822 C 209.410 300.608, 210.049 297, 207.821 297 C 207.253 297, 202.148 292.275, 196.477 286.500 C 186.316 276.153, 182 273.567, 182 277.826 C 182 279.999, 178.008 284, 175.841 284 C 173.784 284, 171.310 281.119, 170.467 277.741 C 169.508 273.896, 168.269 273.464, 165.975 276.174 L 164.006 278.500 161.725 275.952 L 159.444 273.405 157.972 276.452 M 294 275.581 C 294 277.081, 301.446 287.162, 301.790 286.129 C 302.739 283.284, 298.653 275, 296.302 275 C 295.036 275, 294 275.261, 294 275.581 M 120.982 280.702 C 120.717 283.563, 120.866 285.536, 121.314 285.088 C 121.762 284.639, 121.979 282.298, 121.796 279.886 L 121.463 275.500 120.982 280.702 M 115.632 282.719 C 115.280 284.799, 114.719 288.075, 114.385 290 C 114.050 291.925, 112.702 294.531, 111.388 295.790 C 108.728 298.342, 108.472 300.187, 110.121 304.917 L 111.242 308.132 112.919 305.316 C 113.928 303.621, 115.089 297.969, 115.835 291.120 C 117.040 280.052, 116.921 275.101, 115.632 282.719 M 137.022 285.250 L 137.044 288.500 138.953 286.016 C 140.343 284.207, 140.540 283.328, 139.681 282.781 C 137.559 281.432, 137 281.951, 137.022 285.250 M 237.641 283.772 C 237.242 284.418, 235.446 285.644, 233.651 286.496 C 231.855 287.348, 228.697 290.065, 226.633 292.535 L 222.879 297.025 226.468 295.314 C 230.901 293.200, 239.273 285.319, 238.750 283.751 C 238.463 282.889, 238.183 282.895, 237.641 283.772 M 142.221 286.914 C 139.557 290.519, 139.525 291.315, 141.683 300.590 C 143.311 307.588, 143.472 307.836, 146.613 308.203 C 148.399 308.411, 149.685 308.299, 149.472 307.954 C 149.258 307.609, 149.785 306.324, 150.643 305.100 C 152.117 302.994, 152.304 302.965, 154.076 304.568 C 156.840 307.070, 157.419 309.879, 155.588 311.903 C 154.105 313.542, 154.229 313.735, 157.392 314.706 C 162.072 316.142, 164.055 314.823, 161.484 311.983 C 160.169 310.529, 159.541 308.363, 159.524 305.224 C 159.506 301.790, 158.922 300.025, 157.250 298.348 C 155.736 296.829, 155 294.891, 155 292.423 C 155 289.434, 154.747 288.965, 153.633 289.890 C 152.044 291.208, 150.450 289.780, 149.849 286.500 C 149.235 283.144, 144.832 283.383, 142.221 286.914 M 159 290.917 C 159 294.761, 159.335 296.011, 160.250 295.584 C 160.938 295.263, 162.246 294.734, 163.157 294.408 C 164.624 293.884, 164.531 293.397, 162.350 290.184 C 160.994 288.186, 159.686 286.353, 159.443 286.109 C 159.199 285.866, 159 288.029, 159 290.917 M 237.049 295.450 C 234.079 298.458, 230.441 301.183, 228.965 301.508 C 227.489 301.832, 225.009 303.425, 223.453 305.049 C 221.717 306.861, 219.605 308, 217.981 308 C 215.402 308, 215.346 308.132, 215.764 313.250 C 216.263 319.375, 212.616 324.586, 209.589 322.074 C 208.781 321.403, 207.305 320.956, 206.310 321.081 C 205.314 321.205, 203.647 320.940, 202.605 320.491 C 200.045 319.388, 198 322.294, 198 327.036 C 198 329.420, 197.305 331.319, 196 332.500 C 193.162 335.068, 193.378 338.806, 196.407 339.566 C 199.962 340.458, 202.833 338.575, 202.285 335.711 C 201.746 332.890, 206.255 327, 208.954 327 C 209.931 327, 211.916 327.933, 213.365 329.073 C 215.331 330.619, 216 330.785, 216 329.728 C 216 327.540, 219.702 324.671, 221.590 325.396 C 224.806 326.630, 226.115 324.146, 225.436 318.100 C 224.399 308.882, 228.937 304.683, 235.153 309.109 C 238.717 311.647, 238.149 312.256, 241.392 302.413 C 245.406 290.227, 244.168 288.242, 237.049 295.450 M 119.669 292.421 C 119.301 293.380, 118.986 296.039, 118.968 298.332 C 118.951 300.624, 118.276 303.374, 117.468 304.441 C 116.661 305.509, 116 307.321, 116 308.469 C 116 309.616, 115.299 311.555, 114.443 312.777 C 112.936 314.929, 112.984 315, 115.943 315 C 118.517 315, 119 314.615, 119 312.559 C 119 311.216, 119.391 309.876, 119.869 309.581 C 121.162 308.782, 122.217 295.761, 121.210 293.038 C 120.451 290.988, 120.250 290.907, 119.669 292.421 M 189.667 295.667 C 189.300 296.033, 189 297.283, 189 298.444 C 189 301.719, 186.189 305, 183.384 305 C 181.971 305, 181.151 305.435, 181.500 306 C 181.840 306.550, 183.744 307, 185.730 307 C 187.717 307, 190.101 307.686, 191.028 308.525 C 193.196 310.487, 196.216 307.816, 194.158 305.758 C 192.589 304.189, 192.695 300.498, 194.348 299.126 C 195.376 298.273, 196.120 298.475, 197.482 299.980 C 199.310 302, 201 301.844, 201 299.657 C 201 296.890, 191.713 293.620, 189.667 295.667 M 170.540 300.935 C 170.178 301.521, 168.274 302, 166.309 302 L 162.737 302 163.284 306.078 C 163.584 308.320, 164.651 311.062, 165.654 312.170 C 167.433 314.136, 167.400 314.253, 164.269 317.051 C 160.494 320.424, 156.768 319.817, 151.500 314.973 C 149.645 313.266, 147.036 312.055, 144.663 311.798 C 140.868 311.386, 140.833 311.414, 141.428 314.388 C 141.758 316.042, 142.746 318.490, 143.623 319.828 L 145.217 322.261 147.422 319.495 C 149.795 316.520, 152.775 316.988, 154.830 320.660 C 155.649 322.123, 156.235 322.151, 160.384 320.926 C 167.023 318.966, 169.928 316.281, 171.110 311.015 C 171.663 308.548, 172.768 305.808, 173.566 304.927 C 174.841 303.518, 174.786 303.116, 173.107 301.597 C 171.859 300.467, 170.971 300.238, 170.540 300.935 M 208.243 306.250 C 206.254 308.733, 202.936 316.088, 203.438 316.900 C 203.721 317.358, 205.035 317.525, 206.359 317.272 C 207.683 317.019, 209.070 317.304, 209.442 317.906 C 209.814 318.508, 210.541 319, 211.059 319 C 212.272 319, 212.258 310.956, 211.042 309.034 C 210.454 308.104, 210.504 307.097, 211.180 306.284 C 211.966 305.336, 211.852 305, 210.745 305 C 209.920 305, 208.794 305.563, 208.243 306.250 M 175.667 308.667 C 175.300 309.033, 175 310.323, 175 311.532 C 175 312.741, 174.016 315.028, 172.814 316.615 C 171.612 318.202, 171.013 319.161, 171.484 318.746 C 171.955 318.332, 173.286 318.613, 174.442 319.370 C 178.258 321.871, 184.999 322.488, 185.004 320.338 C 185.006 319.327, 185.906 317.027, 187.004 315.226 C 189.577 311.005, 189.577 311.006, 185.750 310.968 C 183.963 310.951, 181.626 310.276, 180.559 309.468 C 178.468 307.887, 176.731 307.602, 175.667 308.667 M 58.869 310.560 C 57.925 311.504, 55.271 312.195, 52.152 312.310 C 48.326 312.451, 47.125 312.844, 47.498 313.832 C 47.774 314.564, 48 315.760, 48 316.488 C 48 317.268, 48.735 317.620, 49.789 317.345 C 52.686 316.587, 55.440 320.322, 53.856 322.859 C 52.124 325.632, 53.517 326.747, 55.957 324.539 C 57.071 323.531, 58.632 323.029, 59.553 323.382 C 62.229 324.409, 63.284 322.971, 61.390 320.879 C 59.721 319.034, 59.787 318.815, 63.019 315.480 C 66.289 312.106, 66.331 311.961, 64.444 310.534 C 61.937 308.638, 60.785 308.643, 58.869 310.560 M 195.518 314.566 C 194.022 316.527, 193.012 318.346, 193.275 318.608 C 193.863 319.196, 199 313.199, 199 311.923 C 199 310.363, 198.343 310.862, 195.518 314.566 M 85.200 317.679 C 80.319 319.405, 80.196 321.019, 84.826 322.551 C 90.267 324.351, 90.764 325.590, 87.443 329.084 L 84.500 332.181 86.975 331.840 C 88.336 331.653, 89.951 330.491, 90.564 329.257 C 91.176 328.023, 92.457 326.153, 93.409 325.100 C 95.058 323.278, 95.030 323.016, 92.820 319.606 C 91.544 317.636, 90.275 316.055, 90 316.091 C 89.725 316.128, 87.565 316.842, 85.200 317.679 M 150 321.984 C 150 322.731, 149.255 324.165, 148.345 325.171 C 146.795 326.884, 146.814 327, 148.645 327 C 149.720 327, 151.171 326.438, 151.870 325.750 C 153.360 324.283, 158 328.870, 158 331.811 C 158 334.498, 164.971 336.336, 167.270 334.255 C 168.955 332.730, 168.919 332.525, 166.519 330.020 C 164.235 327.636, 164.135 327.203, 165.466 325.443 C 167.275 323.052, 167.444 321.421, 165.750 322.697 C 165.063 323.216, 162.578 324.246, 160.229 324.987 C 156.073 326.298, 155.878 326.257, 152.979 323.480 C 151.203 321.779, 150 321.174, 150 321.984 M 206.468 333.101 C 206.101 334.256, 206.266 335.666, 206.833 336.233 C 208.498 337.898, 211 336.276, 211 333.531 C 211 330.327, 207.455 329.990, 206.468 333.101 M 70 334.480 C 70 336.362, 70.954 337.446, 73.960 338.980 C 81.804 342.982, 83.271 341.102, 76.582 335.620 C 71.376 331.355, 70 331.116, 70 334.480 M 91.750 339.735 C 87.055 340.218, 87.051 341.072, 91.728 344.927 C 96.152 348.574, 97 348.719, 97 345.829 C 97 344.635, 97.745 342.835, 98.655 341.829 C 99.565 340.823, 99.827 340, 99.237 340 C 98.647 340, 97.564 339.854, 96.832 339.674 C 96.099 339.495, 93.813 339.523, 91.750 339.735 M 221.975 341.565 C 221.439 342.976, 221 344.516, 221 344.989 C 221 345.461, 219.425 347.910, 217.500 350.432 C 213.461 355.723, 213.248 357.010, 216 359.500 C 217.100 360.495, 218 362.146, 218 363.168 C 218 364.876, 226.411 370.103, 227.286 368.939 C 228.647 367.129, 235 355.691, 235 355.051 C 235 354.608, 234.357 353.711, 233.571 353.059 C 232.786 352.407, 230.423 348.985, 228.321 345.454 C 224.059 338.293, 223.378 337.876, 221.975 341.565 M 44.640 344.496 C 44.319 345.332, 45.146 347.055, 46.535 348.444 C 49.616 351.525, 49.606 352.126, 46.411 355.923 C 43.766 359.067, 40.304 359.904, 38.287 357.887 C 37.675 357.275, 36.685 357.077, 36.087 357.446 C 34.236 358.590, 34.883 360.877, 37.551 362.625 C 38.954 363.545, 40.787 365.622, 41.625 367.241 C 42.462 368.861, 43.422 369.912, 43.757 369.576 C 44.092 369.241, 43.834 368.434, 43.183 367.783 C 40.915 365.515, 42.038 362.832, 47.574 357.296 C 52.181 352.689, 53.041 351.298, 52.532 349.273 C 52.067 347.419, 51.606 347.082, 50.635 347.888 C 49.205 349.075, 47 347.541, 47 345.359 C 47 343.454, 45.281 342.825, 44.640 344.496 M 304.550 348.340 C 303.081 349.414, 302.856 350.420, 303.418 353.416 C 303.866 355.802, 303.692 357.666, 302.937 358.576 C 301.497 360.311, 302.348 360.365, 306.643 358.812 C 309.917 357.628, 314 359.508, 314 362.200 C 314 364.031, 309.004 368, 306.700 368 C 305.386 368, 303.496 368.900, 302.501 369.999 C 300.694 371.996, 300.698 371.996, 306.118 370.131 C 315.048 367.059, 321.496 363.350, 324.302 359.670 C 326.402 356.918, 327.594 356.231, 330.064 356.350 C 333.052 356.494, 333.187 356.328, 333.404 352.250 C 333.714 346.435, 330.649 346.784, 326.820 353 C 323.701 358.064, 314 355.701, 314 349.878 C 314 347.211, 313.721 347, 310.191 347 C 308.096 347, 305.558 347.603, 304.550 348.340 M 286 352.921 C 282.975 353.265, 278.190 354.394, 275.367 355.429 C 270.453 357.231, 270.048 357.237, 265.867 355.579 C 263.095 354.479, 261.956 354.313, 262.750 355.123 C 263.438 355.826, 264 358.032, 264 360.026 C 264 365.567, 258.388 369.987, 251.316 370.015 C 249.217 370.024, 246.901 370.410, 246.169 370.874 C 243.146 372.791, 258.341 373.719, 266.581 372.122 C 271.964 371.078, 274.245 372.055, 276.890 376.538 C 279.004 380.122, 279.018 380.325, 277.291 382.323 C 276.306 383.461, 277.393 382.842, 279.708 380.946 C 282.917 378.318, 283.510 377.417, 282.208 377.150 C 279.335 376.562, 276.026 372.820, 274.821 368.797 C 273.365 363.937, 276.363 360, 281.519 360 C 283.472 360, 285.421 359.192, 286.594 357.896 C 287.641 356.739, 290.073 354.959, 291.999 353.940 C 295.799 351.930, 295.355 351.855, 286 352.921 M 297.460 354.065 C 297.087 354.668, 295.368 356.070, 293.641 357.179 C 290.877 358.955, 290.800 359.115, 293 358.518 C 294.375 358.144, 296.512 357.597, 297.750 357.303 C 298.988 357.008, 300 356.171, 300 355.442 C 300 353.638, 298.295 352.713, 297.460 354.065 M 74 354.709 C 68.108 356.876, 67.760 360.383, 72.936 365.437 C 76.546 368.962, 77.218 369.234, 81.047 368.720 C 86.494 367.990, 91.769 363.341, 89.607 361.178 C 88.378 359.950, 87.871 359.977, 85.870 361.378 C 82.580 363.683, 82 363.431, 82 359.700 C 82 354.717, 79.026 352.861, 74 354.709 M 184.698 359.233 C 182.036 362.079, 181.981 362.322, 183.604 364.114 C 185.275 365.961, 185.341 365.959, 186.712 364.001 C 187.676 362.625, 189.247 362, 191.744 362 L 195.374 362 192.500 359 C 189.024 355.372, 188.289 355.393, 184.698 359.233 M 248.354 360.045 C 242.064 363.712, 238.452 367.368, 243.903 364.550 C 245.775 363.582, 249.375 362.496, 251.903 362.136 C 255.660 361.602, 256.558 361.073, 256.820 359.241 C 257.266 356.109, 254.682 356.355, 248.354 360.045 M 74.250 358.662 C 72.457 359.386, 72.709 361.427, 74.829 363.345 C 77 365.310, 81.141 365.741, 79.200 363.800 C 78.540 363.140, 78 361.565, 78 360.300 C 78 358.083, 76.888 357.598, 74.250 358.662 M 163.393 363.582 C 163.727 364.452, 164 365.378, 164 365.641 C 164 365.903, 164.450 365.840, 165 365.500 C 166.593 364.515, 166.157 362, 164.393 362 C 163.338 362, 162.995 362.544, 163.393 363.582 M 173.431 364.583 C 173.788 366.004, 175.241 369.006, 176.660 371.254 L 179.241 375.341 180.605 371.421 C 182.403 366.256, 182.548 366.676, 178.114 364.184 C 173.152 361.395, 172.642 361.439, 173.431 364.583 M 294.250 364.662 C 292.434 365.395, 292.719 367.782, 294.750 368.847 C 296.909 369.978, 299.889 368.915, 302.405 366.118 L 304.310 364 299.905 364.079 C 297.482 364.122, 294.938 364.385, 294.250 364.662 M 181.427 377.574 C 179.448 379.624, 179.433 379.816, 181.088 381.860 C 183.199 384.467, 186 384.661, 186 382.200 C 186 381.210, 186.473 379.927, 187.051 379.349 C 187.786 378.614, 187.411 377.866, 185.801 376.862 C 183.719 375.563, 183.303 375.631, 181.427 377.574 M 194.861 376.924 L 192.500 378.848 194.379 382.371 C 195.412 384.308, 197.325 386.896, 198.629 388.121 L 201 390.349 203.448 388.049 C 207.359 384.374, 207.805 380.090, 204.567 377.304 C 201.302 374.495, 197.999 374.366, 194.861 376.924 M 266.500 376.125 C 264.300 376.543, 260.743 376.911, 258.595 376.942 C 254.883 376.997, 254.771 377.090, 256.337 378.820 C 259.477 382.289, 251.331 387.760, 247.054 385.054 C 246.163 384.491, 244.883 384.528, 243.718 385.151 C 241.214 386.491, 241.685 386.802, 248.031 388.006 C 256.923 389.692, 263.844 387.729, 274.819 380.408 C 275.377 380.036, 272.586 376.053, 271.522 375.702 C 270.960 375.518, 268.700 375.708, 266.500 376.125 M 239.654 380.589 C 234.808 383.882, 235.559 384.722, 241.167 382.281 C 244.438 380.857, 246.145 380.629, 248.133 381.349 C 249.581 381.874, 251.606 381.946, 252.633 381.508 C 254.182 380.848, 253.819 380.495, 250.500 379.433 C 244.788 377.606, 243.906 377.700, 239.654 380.589 M 197 379.596 C 197 380.673, 200.416 386, 201.107 386 C 202.070 386, 203.177 381.096, 202.472 379.954 C 201.836 378.926, 197 378.609, 197 379.596 M 342 381.539 C 339.525 382.861, 336.938 383.956, 336.250 383.972 C 334.221 384.018, 327 391.828, 327 393.977 C 327 398.486, 330.890 399.372, 345.237 398.129 C 358.236 397.003, 361.454 396.054, 359.364 393.964 C 358.650 393.250, 354.941 393.250, 347.414 393.963 C 333.123 395.319, 331 395.281, 331 393.674 C 331 392.271, 335.079 388, 336.419 388 C 336.854 388, 339.497 386.851, 342.293 385.447 C 346.454 383.357, 348.438 382.965, 353.226 383.290 C 356.444 383.508, 359.323 383.287, 359.624 382.799 C 362.086 378.816, 348.864 377.870, 342 381.539 M 225.567 383.947 C 226.155 384.545, 228.158 385.472, 230.020 386.006 C 232.897 386.831, 233.187 386.772, 231.953 385.612 C 230.155 383.925, 223.961 382.308, 225.567 383.947 M 131.445 397.373 C 133.195 399.229, 135.570 401.046, 136.723 401.412 C 137.876 401.778, 139.365 402.735, 140.032 403.539 C 141.582 405.406, 145.404 405.423, 146.942 403.570 C 148.284 401.953, 146.757 400.818, 141.567 399.573 C 139.954 399.187, 137.332 397.774, 135.740 396.435 C 134.149 395.096, 131.815 394, 130.555 394 C 128.343 394, 128.373 394.116, 131.445 397.373 M 220.218 406.500 C 220.228 407.600, 220.580 409.850, 221 411.500 C 221.686 414.195, 221.765 414.246, 221.782 412 C 221.792 410.625, 221.440 408.375, 221 407 C 220.373 405.041, 220.203 404.933, 220.218 406.500 M 198.197 407.263 C 196.820 408.922, 199.706 415.331, 203.787 419.679 C 207.603 423.744, 207.981 420.499, 204.482 413.706 C 200.896 406.743, 199.671 405.487, 198.197 407.263 M 152.752 411.841 C 149.486 413.812, 149.293 415.078, 152 416.768 C 153.770 417.874, 154 417.767, 154 415.837 C 154 414.638, 154.745 412.835, 155.655 411.829 C 157.669 409.603, 156.452 409.609, 152.752 411.841 M 173.500 413 C 171.722 413.764, 171.803 413.867, 174.226 413.930 C 175.725 413.968, 178.425 414.898, 180.226 415.996 C 184.792 418.780, 186.117 418.647, 184.656 415.551 C 183.056 412.160, 178.095 411.026, 173.500 413 M 162.441 414.426 C 160.554 415.812, 160.582 415.938, 163.466 418.956 C 165.468 421.051, 166.443 423.106, 166.466 425.280 C 166.499 428.429, 166.610 428.507, 171.493 428.815 C 174.361 428.996, 177.295 429.846, 178.388 430.815 C 180.205 432.424, 180.241 432.404, 179.186 430.392 C 178.578 429.232, 176.825 427.486, 175.291 426.512 C 167.601 421.632, 165.634 418.167, 168.655 414.829 C 170.223 413.096, 170.154 413, 167.346 413 C 165.716 413, 163.509 413.642, 162.441 414.426 M 348.620 415.102 C 336.936 416.808, 332.460 423.579, 340.500 427.386 L 344.500 429.280 340.372 431.047 C 336.124 432.866, 333 436.245, 333 439.023 C 333 442.011, 331.125 442.807, 327.233 441.469 C 322.151 439.722, 319.890 440.871, 317 446.669 C 315.625 449.428, 312.321 453.669, 309.658 456.093 C 305.001 460.332, 301 466.428, 301 469.286 C 301 472.312, 305.627 475.180, 310 474.864 C 313.717 474.596, 314.504 474.942, 316.929 477.913 C 319.657 481.255, 319.673 481.260, 322.370 479.493 C 325.009 477.764, 325.134 477.778, 327.580 480.075 C 329.524 481.901, 330.467 482.196, 331.792 481.391 C 332.757 480.805, 335.833 480.603, 338.864 480.927 L 344.229 481.500 342.077 483.439 C 340.523 484.839, 340.082 486.097, 340.491 487.959 C 340.970 490.141, 340.592 490.716, 338.039 491.679 C 336.298 492.336, 334.589 493.951, 334.003 495.493 C 332.251 500.100, 335.161 501.936, 337.182 497.500 C 337.808 496.125, 339.079 495, 340.006 495 C 341.962 495, 345 491.957, 345 489.997 C 345 489.106, 345.776 489.380, 347.299 490.811 C 350.231 493.565, 354.393 491.462, 353.475 487.690 C 353.064 486.007, 353.642 485.106, 355.970 483.797 C 359.255 481.949, 359.742 479.723, 357.796 475.451 C 356.772 473.204, 356.847 472.665, 358.296 471.854 C 360.676 470.522, 360.420 467.408, 357.777 465.557 C 354.522 463.276, 351.857 463.639, 347.962 466.892 L 344.500 469.785 346.487 471.983 C 349.430 475.238, 346.438 477.206, 339 476.906 C 335.975 476.784, 332.690 477.037, 331.699 477.469 C 330.448 478.014, 329.180 477.578, 327.543 476.041 C 325.611 474.225, 324.817 474.027, 323.117 474.937 C 320.269 476.462, 316.733 474.368, 318.038 471.929 C 318.673 470.742, 318.408 469.774, 317.130 468.618 C 315.452 467.099, 315.196 467.126, 313.507 468.992 C 311.565 471.139, 306.557 471.711, 305.446 469.913 C 304.201 467.898, 308.110 461.527, 312.950 457.685 C 315.766 455.449, 318.518 452.138, 319.600 449.685 C 321.818 444.654, 322.413 444.165, 325.579 444.770 C 329.125 445.448, 329.331 446.431, 326.917 451.163 L 324.758 455.395 327.435 457.697 C 330.668 460.478, 331.147 460.511, 334.058 458.154 C 336.270 456.363, 336.299 456.122, 335.029 450.137 C 333.887 444.756, 333.916 443.745, 335.257 442.234 C 336.102 441.280, 336.958 439.604, 337.159 438.509 C 337.377 437.317, 339.324 435.660, 342.012 434.379 C 350.170 430.491, 352.252 425, 345.569 425 C 342.112 425, 339.465 422.689, 341.238 421.218 C 342.852 419.878, 355.488 417.866, 357.483 418.632 C 359.679 419.475, 360.471 416.818, 358.462 415.348 C 357.447 414.607, 356.141 414.055, 355.559 414.122 C 354.976 414.189, 351.854 414.630, 348.620 415.102 M 145 415.930 C 145 417.057, 148.795 420.695, 153.356 423.940 C 155.375 425.376, 155.375 425.373, 153.440 422.721 C 152.373 421.259, 150.970 420.049, 150.323 420.031 C 149.675 420.014, 148.212 418.814, 147.073 417.365 C 145.933 415.916, 145 415.270, 145 415.930 M 171 418.965 C 171 419.495, 171.965 420.446, 173.144 421.077 C 174.324 421.708, 177.141 423.933, 179.406 426.020 L 183.523 429.815 186.788 426.898 L 190.053 423.981 187.276 422.905 C 185.749 422.314, 182.700 420.967, 180.500 419.912 C 176.257 417.878, 171 417.354, 171 418.965 M 223.330 419.332 C 223.699 420.339, 224.046 423.264, 224.102 425.832 C 224.195 430.036, 224.282 430.202, 224.979 427.500 C 225.404 425.850, 226.049 423.797, 226.412 422.937 C 226.821 421.966, 226.235 420.640, 224.866 419.437 C 222.805 417.627, 222.705 417.620, 223.330 419.332 M 192 427.500 C 191.315 428.325, 190.248 429.025, 189.628 429.055 C 189.007 429.086, 187.506 430.372, 186.291 431.914 L 184.083 434.717 186.541 435.837 C 188.504 436.731, 189 436.680, 189 435.582 C 189 434.826, 190.598 432.804, 192.550 431.090 C 194.503 429.375, 195.827 427.529, 195.491 426.986 C 194.627 425.588, 193.442 425.762, 192 427.500 M 96.243 433.560 C 95.323 436.556, 95.369 436.939, 96.531 435.974 C 97.291 435.344, 98.301 435.068, 98.775 435.361 C 99.250 435.654, 99.443 434.568, 99.206 432.947 C 98.628 429.011, 97.572 429.229, 96.243 433.560 M 92 431.707 C 92 432.279, 89.542 435.503, 86.537 438.870 C 80.861 445.231, 77.122 450.779, 80.247 448.201 C 81.305 447.329, 82.035 447.247, 82.470 447.951 C 82.826 448.528, 83.432 449, 83.815 449 C 84.898 449, 93.363 432.030, 92.641 431.307 C 92.288 430.955, 92 431.135, 92 431.707 M 103 433.204 C 103 435.119, 105.124 438, 106.535 438 C 109.236 438, 108.307 433.292, 105.500 432.755 C 104.125 432.492, 103 432.695, 103 433.204 M 194.750 433.080 C 191.751 434.827, 192.789 438.460, 198.982 447.891 C 204.893 456.894, 207.486 459.773, 204.526 454.050 C 202.508 450.148, 202.601 448.671, 205 446.500 C 206.100 445.505, 206.998 443.972, 206.996 443.095 C 206.990 440.370, 203.231 435.171, 200.094 433.549 C 196.610 431.747, 196.983 431.779, 194.750 433.080 M 96.136 443.250 C 94.109 449.711, 93.668 459.480, 95.341 460.868 C 97.553 462.703, 100.819 460.677, 102.628 456.348 C 104.035 452.980, 103.995 452.784, 101.478 450.804 C 99.558 449.294, 98.912 447.925, 99.035 445.626 C 99.391 438.985, 97.865 437.736, 96.136 443.250 M 103.158 444.720 C 102.958 447.699, 103.163 448.237, 104.128 447.272 C 105.025 446.375, 105.707 446.342, 106.676 447.146 C 107.727 448.018, 108 447.600, 108 445.122 C 108 443.405, 107.587 442, 107.082 442 C 106.577 442, 105.545 441.762, 104.788 441.472 C 103.794 441.091, 103.342 441.990, 103.158 444.720 M 223.323 441.638 C 221.753 442.278, 223.759 448.247, 225.364 447.712 C 225.989 447.504, 226.455 446.808, 226.400 446.167 C 226.345 445.525, 226.233 444.100, 226.150 443 C 225.999 440.991, 225.500 440.750, 223.323 441.638 M 89.227 447.720 C 82.365 463.755, 82.681 472.941, 90.095 472.985 C 93.324 473.004, 95.729 475.578, 96.166 479.482 C 96.412 481.678, 97.219 482.714, 99.230 483.418 C 103.185 484.800, 103.500 483.962, 103.500 472.054 L 103.500 461.283 99.249 464.763 C 95.674 467.689, 94.752 468.039, 93.453 466.961 C 92.604 466.256, 92.165 465.012, 92.479 464.195 C 92.792 463.379, 92.308 461.892, 91.402 460.892 C 89.979 459.320, 89.890 458.020, 90.741 451.287 C 91.932 441.870, 91.831 441.633, 89.227 447.720 M 211.021 443.936 C 211.009 444.725, 210.018 446.416, 208.818 447.693 C 206.706 449.942, 206.690 450.127, 208.318 453.542 C 210.503 458.122, 210.439 459.709, 208.010 461.226 C 206.130 462.400, 206.394 462.847, 212.733 469.235 C 220.392 476.953, 222.525 477.956, 218.081 471.750 C 212.167 463.491, 213.422 456.316, 219.965 460.975 C 223.579 463.548, 223.799 462.911, 220.750 458.708 C 219.512 457.003, 216.822 452.658, 214.771 449.054 C 212.720 445.449, 211.032 443.146, 211.021 443.936 M 329.676 453.402 C 329.111 454.874, 329.758 456, 331.167 456 C 331.625 456, 332 455.100, 332 454 C 332 451.707, 330.477 451.315, 329.676 453.402 M 240.959 461 C 243.412 463.153, 245.560 464.773, 245.733 464.601 C 246.645 463.688, 244.404 460.846, 241.354 459.046 C 236.132 455.965, 235.995 456.642, 240.959 461 M 218.823 466.052 C 219.641 468.261, 221.219 468.843, 221.786 467.143 C 221.970 466.589, 221.205 465.645, 220.085 465.045 C 218.268 464.073, 218.132 464.182, 218.823 466.052 M 235.698 465.730 C 234.331 467.098, 233.588 467.224, 232.161 466.332 C 230.698 465.419, 230.122 465.574, 229.140 467.148 C 228.472 468.217, 227.077 469.409, 226.040 469.796 C 223.170 470.868, 225.605 473.479, 231.722 475.891 C 237.222 478.058, 238.212 477.102, 234.600 473.111 C 232.702 471.013, 232.960 469.986, 236.323 466.250 C 238.699 463.611, 238.218 463.210, 235.698 465.730 M 244.014 470.967 C 243.338 472.599, 242.174 474.441, 241.427 475.061 C 240.321 475.979, 240.629 476.658, 243.090 478.729 C 244.828 480.192, 245.879 481.872, 245.567 482.687 C 245.266 483.470, 245.465 483.831, 246.011 483.493 C 247.323 482.682, 247.280 478.291, 245.952 477.470 C 245.308 477.072, 245.159 475.123, 245.566 472.411 C 246.334 467.290, 245.758 466.755, 244.014 470.967 M 350.214 469.186 C 349.299 470.101, 349.421 470.808, 350.750 472.276 C 352.398 474.098, 352.312 474.326, 348.751 477.590 L 345.029 481 350.015 481 C 355.430 481, 355.972 480.227, 353.841 475.551 C 352.890 473.464, 352.980 472.680, 354.341 471.175 C 355.254 470.167, 356 469.040, 356 468.671 C 356 467.529, 351.467 467.933, 350.214 469.186 M 225.484 479.026 C 224.502 480.614, 224.923 480.801, 231.018 481.482 C 236.334 482.076, 236.407 482.052, 233.435 480.674 C 228.311 478.297, 226.204 477.861, 225.484 479.026" stroke="none" fill="#000000" fill-rule="evenodd"/>
</svg>