<svg xmlns="http://www.w3.org/2000/svg" width="600" height="413" viewBox="0 0 600 413" version="1.1">
	<rect x="0" y="0" width="100%" height="100%" fill="#FFFFFF" />
	<path d="M 236.517 6.594 C 229.018 13.910, 230.250 13.709, 218 9.608 C 202.220 4.325, 193.341 3.941, 181 8.007 C 171.586 11.109, 162.570 11.454, 157.323 8.914 C 152.021 6.348, 136.526 5.840, 126.500 7.904 C 87.800 15.871, 69.666 35.682, 68.286 71.500 C 67.747 85.500, 67.747 85.500, 60.535 94 C 51.757 104.345, 46.460 111.659, 45.039 115.397 C 44.453 116.940, 42.368 120.620, 40.407 123.574 C 33.449 134.057, 28.339 154.787, 28.036 173.758 C 28.004 175.743, 27.764 175.870, 26.056 174.803 C 24.462 173.808, 23.771 173.898, 22.218 175.302 C 20.423 176.927, 20.226 176.908, 18.435 174.928 C 17.022 173.366, 15.812 172.988, 13.630 173.424 C 11.999 173.750, 10.093 173.492, 9.307 172.840 C 7.134 171.036, 4.865 173.992, 4.476 179.132 C 4.030 185.034, 3.507 187.827, 2.696 188.638 C 1.606 189.728, 4.005 191.935, 5.610 191.319 C 7.321 190.663, 11 193.668, 11 195.722 C 11 196.696, 10.356 196.931, 8.928 196.477 C 6.172 195.602, 2.521 198.718, 4.090 200.608 C 4.685 201.325, 4.919 202.322, 4.610 202.823 C 4.300 203.323, 4.892 204.497, 5.924 205.431 C 7.220 206.604, 8.015 206.785, 8.491 206.015 C 8.950 205.271, 10.336 205.782, 12.652 207.548 C 15.981 210.088, 16.205 210.125, 18.062 208.444 C 19.606 207.047, 20 206.984, 20 208.132 C 20 208.924, 17.825 211.197, 15.167 213.182 C 9.840 217.158, 9.163 219.406, 12.612 221.665 C 14.527 222.920, 14.736 223.563, 13.924 225.701 C 13.258 227.453, 13.313 228.672, 14.101 229.622 C 14.968 230.666, 14.920 231.391, 13.905 232.615 C 12.756 233.999, 12.897 234.498, 14.893 236.115 C 16.636 237.526, 16.822 238, 15.634 238 C 10.095 238, 9.830 247.953, 15.252 252.318 C 18.561 254.981, 18.836 255.525, 17.580 256.919 C 13.666 261.264, 15.631 267.960, 20.017 265.221 C 21.782 264.119, 21.802 264.230, 20.436 267.500 C 19.646 269.389, 19 272.509, 19 274.433 C 19 276.356, 18.356 279.858, 17.568 282.215 C 14.988 289.938, 11.157 310.272, 10.073 322 C 9.489 328.325, 8.133 336.562, 7.060 340.304 C 5.988 344.045, 4.799 350.273, 4.417 354.143 C 3.945 358.938, 3.154 361.711, 1.933 362.847 C -0.249 364.881, -0.620 375.241, 1.429 376.941 C 2.513 377.841, 9.143 380.402, 16.298 382.685 C 18.278 383.316, 23 379.541, 23 377.326 C 23 376.597, 23.410 376, 23.911 376 C 24.413 376, 27.966 372.063, 31.807 367.250 C 38.940 358.315, 51.081 346, 52.758 346 C 53.270 346, 56.170 343.863, 59.202 341.250 C 72.288 329.975, 86.321 320, 89.097 320 C 90.558 320, 92.405 322.287, 95.155 327.500 C 97.650 332.230, 104.603 341.154, 115.097 353.093 C 122.693 361.737, 122.693 361.737, 123.404 374.530 C 123.795 381.567, 124.348 388.490, 124.633 389.915 C 125.078 392.139, 124.494 392.921, 120.511 395.438 C 109.856 402.174, 115.410 410.227, 130.779 410.326 C 136.006 410.360, 139.061 407.313, 141.172 399.960 C 148.909 373.001, 146.357 349.314, 135.419 346.569 C 132.468 345.828, 131.832 344.625, 127.922 332.396 C 124.161 320.630, 119.195 310.425, 115.601 307.076 C 114.171 305.742, 113.001 304.167, 113.002 303.576 C 113.004 302.264, 121.139 297, 123.164 297 C 123.963 297, 125.491 296.339, 126.559 295.532 C 127.626 294.724, 129.075 294.049, 129.778 294.032 C 130.482 294.014, 134.431 292.399, 138.556 290.441 C 142.680 288.484, 148.630 286.407, 151.777 285.825 C 154.925 285.243, 160.425 283.581, 164 282.133 C 170.271 279.593, 195.046 278.505, 203.500 280.399 C 204.600 280.645, 207.340 280.881, 209.589 280.923 C 212.914 280.986, 213.887 281.456, 214.789 283.437 C 216.623 287.461, 225.689 294, 229.435 294 C 235.169 294, 237.686 288.670, 234.590 283.082 C 233.304 280.762, 233.446 280.561, 238.110 278.082 C 240.784 276.662, 247.590 272.751, 253.235 269.392 C 271.218 258.691, 270.905 258.722, 282.506 266.479 C 290.611 271.898, 305.768 279, 309.228 279 C 315.234 279, 324.497 283.556, 332.707 290.548 C 345.612 301.539, 345.578 301.471, 346.421 317.720 C 346.812 325.255, 347.572 333.687, 348.110 336.460 C 348.649 339.232, 349.276 343.750, 349.504 346.500 C 350.270 355.726, 352.974 363.094, 360.638 376.840 C 364.828 384.353, 368.850 391.625, 369.578 393 C 370.894 395.486, 378.473 402.395, 382.429 404.715 C 383.568 405.383, 386.525 405.965, 389 406.008 C 391.475 406.052, 395.300 406.736, 397.500 407.529 C 399.700 408.321, 403.750 408.996, 406.500 409.029 C 409.250 409.061, 413.300 409.787, 415.500 410.642 C 423.107 413.598, 439.067 413.034, 431.806 410.066 C 430.538 409.547, 425.900 407.570, 421.500 405.672 C 414.595 402.695, 412.062 402.148, 403 401.680 C 390.400 401.029, 381.841 398.550, 381.040 395.321 C 380.743 394.123, 379.474 392.098, 378.219 390.821 C 361.580 373.889, 352.193 346.215, 353.235 317.164 C 353.606 306.835, 353.393 302.843, 352.366 300.807 C 351.451 298.992, 351.348 297.903, 352.052 297.468 C 352.763 297.029, 352.719 296.366, 351.916 295.399 C 350.619 293.836, 347.525 295.422, 348.570 297.113 C 350.199 299.748, 346.716 297.130, 339.444 290.250 C 328.314 279.722, 323.561 276.221, 318.657 274.934 C 309.116 272.432, 298.121 268.568, 292.526 265.752 C 282.945 260.930, 263.324 244.702, 256.249 235.750 C 250.802 228.858, 251.042 228.887, 245.178 234.394 C 242.605 236.810, 237.169 241.648, 233.099 245.144 C 221.747 254.892, 221.348 255.614, 223.351 262.754 C 224.258 265.986, 225 270.537, 225 272.865 C 225 275.194, 225.702 278.457, 226.561 280.117 C 228.395 283.665, 228.124 287.363, 226 287.759 C 223.457 288.234, 218.734 283.083, 219.461 280.630 C 221.571 273.521, 221.277 267.149, 218.633 262.637 C 215.122 256.645, 215.255 255.809, 220.500 250.892 C 222.975 248.573, 225 245.993, 225 245.159 C 225 244.326, 227.717 238.071, 231.039 231.260 C 237.034 218.965, 237.018 209.966, 230.987 202.500 C 230.542 201.950, 230.228 199.802, 230.288 197.727 C 230.478 191.194, 226.661 188.549, 223.105 192.750 C 221.592 194.537, 219.430 196, 218.300 196 C 216.098 196, 213.603 198.270, 214.652 199.318 C 217.406 202.073, 210.911 200.491, 205.542 197.100 C 201.971 194.845, 198.782 193, 198.455 193 C 198.128 193, 195.958 191.691, 193.633 190.092 C 191.203 188.420, 187.300 186.869, 184.453 186.443 C 172.422 184.645, 157.265 177.225, 153.535 171.307 C 152.562 169.763, 146.512 163.325, 140.090 157 C 133.668 150.675, 126.281 142.668, 123.674 139.206 C 117.840 131.459, 116.861 131.053, 112.680 134.644 C 110.851 136.215, 107.174 139.075, 104.509 141 C 101.844 142.925, 98.830 145.124, 97.811 145.886 C 95.899 147.316, 96.061 145.154, 98.066 142.500 C 99.885 140.092, 100.160 134.377, 98.522 133.018 C 96.033 130.953, 93.645 134.027, 89.992 144 C 85.324 156.744, 79.929 166.040, 78.867 163.170 C 77.834 160.377, 75.419 159.407, 73.487 161.011 C 69.348 164.446, 72.124 186.317, 76.487 184.643 C 77.637 184.202, 78 184.807, 78 187.168 C 78 190.274, 78 190.274, 73.043 185.637 C 67.717 180.655, 66.003 180.087, 63.909 182.610 C 62.750 184.006, 63.099 184.678, 66.536 187.662 C 80.065 199.410, 85.143 207.477, 85.143 217.220 C 85.143 223.159, 86.658 225.729, 89.513 224.634 C 90.447 224.275, 90.002 225.357, 88.380 227.390 C 85.796 230.629, 82.879 231.231, 81.395 228.831 C 79.507 225.775, 78.220 230.365, 79.995 233.826 C 83.265 240.204, 89.572 255.320, 90.916 260 C 91.627 262.475, 92.570 265.444, 93.013 266.597 C 93.456 267.751, 94.145 271.351, 94.545 274.597 C 94.945 277.844, 95.401 281.175, 95.559 282 C 95.718 282.825, 95.881 285.733, 95.923 288.463 C 95.995 293.111, 96.334 293.745, 101.276 298.463 C 112.865 309.527, 118.955 320.318, 125.324 341.075 C 128.177 350.371, 130.590 353.582, 133.928 352.523 C 136.681 351.649, 137.858 354.789, 139.169 366.500 C 140.214 375.830, 140.277 375.342, 135.101 398.330 C 133.899 403.673, 133.061 404.210, 127.146 403.425 C 121.082 402.621, 120.856 401.974, 125.423 398.491 C 130.166 394.873, 131.168 391.402, 129.991 382.664 C 129.460 378.724, 128.846 372.234, 128.627 368.241 C 128.230 360.995, 128.219 360.972, 122.365 354.424 C 107.662 337.980, 98.519 325.090, 95.326 316.308 C 94.088 312.902, 91.483 308.030, 89.537 305.481 C 87.285 302.531, 86 299.746, 86 297.817 C 86 295.435, 84.537 293.259, 79.158 287.643 C 75.395 283.715, 69.230 275.775, 65.459 270 C 55.855 255.294, 51.111 249.663, 49.470 251.025 C 48.409 251.906, 48.429 252.595, 49.580 254.801 C 51.868 259.187, 51.294 261.295, 45.408 270.118 C 37.345 282.205, 36.717 283.574, 38.172 285.904 C 40.914 290.294, 37.815 301.040, 28.441 319.646 C 19.300 337.789, 19.129 338.495, 22.114 345.775 C 23.014 347.970, 23.135 349.491, 22.479 350.385 C 17.614 357.016, 17.627 356.974, 17.828 366.606 C 18.029 376.238, 16.765 378.942, 14.487 373.750 C 13.708 371.973, 12.829 371.567, 10.313 371.819 C 4.507 372.399, 2.296 370.364, 5.252 367.161 C 8.404 363.744, 8.907 362.224, 10.098 352.520 C 10.639 348.109, 11.930 341.350, 12.967 337.500 C 14.004 333.650, 15.128 326.225, 15.465 321 C 16.083 311.417, 19.066 294.884, 21.509 287.500 C 22.237 285.300, 23.141 280.800, 23.518 277.500 C 24.603 267.992, 35.433 245.531, 42.590 237.945 C 45.628 234.725, 45.666 235.180, 41.463 224.493 C 32.527 201.770, 30.841 172.603, 36.984 147 C 40.122 133.921, 40.677 132.765, 55.929 107.500 C 62.084 97.304, 67.365 92.322, 70.333 93.911 C 74.607 96.198, 75.801 94.300, 74.823 86.777 C 70.670 54.832, 79.703 33.211, 101.858 22.072 C 115.880 15.021, 129.496 11.687, 142.152 12.205 C 153.090 12.653, 153.503 12.790, 160.238 18.181 C 162.975 20.372, 162.975 20.372, 165.238 18.312 C 166.619 17.055, 169.610 15.987, 172.918 15.570 C 175.898 15.194, 179.948 14.164, 181.918 13.280 C 190.789 9.303, 216.873 12.302, 223.500 18.062 C 224.600 19.018, 226.400 19.964, 227.500 20.164 C 230.134 20.642, 230.309 24.443, 227.830 27.305 C 225.996 29.422, 225.885 29.433, 224.714 27.631 C 220.766 21.555, 220.187 21.268, 217.746 24.178 C 213.937 28.720, 200.327 28.641, 189.534 24.015 C 178.610 19.332, 167.278 20.435, 168.514 26.062 C 169.615 31.078, 151.953 32.200, 146.945 27.432 C 145.540 26.094, 143.846 25, 143.180 25 C 142.514 25, 139.596 23.660, 136.694 22.023 C 129.227 17.809, 126.510 18.756, 115.602 29.373 C 107.733 37.032, 97.330 44, 93.765 44 C 89.833 44, 88.718 47.454, 90.316 54.684 C 91.144 58.433, 92.365 64.875, 93.028 69 C 93.692 73.125, 94.652 77.295, 95.162 78.267 C 95.804 79.491, 95.614 80.713, 94.545 82.240 C 92.277 85.478, 92.332 104.200, 94.615 106.095 C 98.668 109.459, 103.787 86.063, 99.996 81.496 C 98.646 79.868, 99.151 79.542, 104.304 78.710 C 107.107 78.257, 107.107 78.257, 105.016 80.482 C 102.997 82.632, 102.984 82.824, 104.631 86.104 C 105.569 87.972, 106.644 90.175, 107.019 91 C 108.379 93.991, 120.359 96.542, 126.115 95.067 C 131.189 93.767, 139.867 97.949, 134.937 99.318 C 134.147 99.538, 131.852 100.246, 129.839 100.891 C 126.550 101.946, 125.612 101.788, 120.627 99.343 C 115.135 96.649, 115.054 96.641, 112.955 98.541 C 110.291 100.952, 114.836 106.211, 117.601 103.916 C 118.735 102.975, 119 103.218, 119 105.200 C 119 106.955, 120.847 109.277, 125.551 113.432 C 133.796 120.716, 140.037 129.583, 149.092 146.880 C 157.799 163.510, 158.702 164.528, 166.937 166.986 C 173.946 169.078, 180.917 173.090, 190.362 180.469 C 196.585 185.331, 199.285 185.704, 205.988 182.627 C 210.192 180.697, 209.397 178.767, 201.816 172.491 C 188.784 161.704, 182 151.972, 182 144.067 C 182 136.057, 194.877 120.912, 206 115.840 C 216.086 111.241, 239.797 105.437, 245.464 106.180 C 248.127 106.529, 250.998 104.430, 251.006 102.128 C 251.033 94.232, 263.062 78, 268.886 78 C 271.265 78, 271.995 75.215, 270.198 72.996 C 268.659 71.095, 268.028 70.915, 266.249 71.867 C 262.758 73.735, 256.573 73.238, 253.531 70.846 C 250.923 68.794, 250.658 68.771, 247.992 70.346 C 244.386 72.475, 243.698 72.432, 244.918 70.153 C 245.993 68.144, 244.641 66, 242.300 66 C 240.542 66, 240.526 66.055, 244.502 58.427 C 247.012 53.611, 247.711 51.357, 246.972 50.466 C 246.230 49.572, 246.650 48.381, 248.470 46.218 C 252.727 41.159, 250.950 30.707, 244.735 24.250 C 243.015 22.463, 241.976 21, 242.426 21 C 242.877 21, 242.714 20.361, 242.066 19.579 C 241.052 18.358, 240.479 18.392, 237.987 19.822 C 231.106 23.771, 234.517 13.595, 241.650 8.892 C 247.363 5.126, 259.400 8.354, 264.822 15.108 C 266.100 16.698, 267.857 18, 268.727 18 C 270.149 18, 270.143 18.184, 268.669 19.814 C 265.601 23.203, 269.389 25.089, 274.212 22.573 C 284.822 17.038, 308.211 20.238, 319.422 28.759 C 324.707 32.776, 343.919 56.482, 343.969 59.050 C 344.012 61.190, 346.018 63, 348.347 63 C 356.910 63, 365.438 69.084, 363.457 73.778 C 360.794 80.085, 343 70.307, 343 62.537 C 343 60.899, 338.148 56.553, 334 54.476 C 332.075 53.512, 328.475 51.048, 326 49 C 323.525 46.952, 320.069 44.544, 318.321 43.649 C 316.572 42.754, 314.861 41.137, 314.517 40.055 C 312.807 34.665, 306.125 31.932, 299.571 33.942 C 293.911 35.677, 284.566 37.057, 276.746 37.311 C 267.211 37.622, 263.797 39.837, 266.626 43.877 C 268.320 46.295, 275.382 46.326, 281.651 43.943 C 285.425 42.508, 289.527 48.029, 295.560 62.666 C 303.224 81.260, 303.860 97.644, 297.494 112.471 C 296.312 115.224, 295.973 117.784, 296.389 120.820 C 296.865 124.293, 296.576 125.723, 294.994 127.734 C 293.668 129.420, 293 131.788, 293 134.803 C 293 147.872, 284.005 171.519, 276.307 178.688 C 271.882 182.809, 275.057 191.687, 279.607 187.911 C 285.791 182.779, 272.410 207.793, 265.318 214.621 C 259.801 219.934, 258.983 221.911, 261.455 223.963 C 262.255 224.627, 264.546 228.169, 266.544 231.835 C 270.394 238.894, 275.550 245, 277.661 245 C 278.359 245, 280.409 246.252, 282.215 247.782 C 288.976 253.508, 299.217 256.682, 313.500 257.477 C 319 257.784, 325.448 258.302, 327.828 258.630 C 336.644 259.842, 340.336 250.969, 335.896 239.238 C 334.964 236.775, 336.239 236.731, 354.281 238.604 C 364.618 239.676, 390.403 248.951, 402.500 255.947 C 405.250 257.538, 411.325 260.907, 416 263.434 C 423.873 267.690, 432.754 274.579, 431.712 275.621 C 431.466 275.868, 429.292 275.570, 426.882 274.960 C 424.472 274.350, 420.700 273.502, 418.500 273.075 C 407.230 270.891, 389.570 263.488, 384.313 258.744 C 382.330 256.954, 381.664 256.881, 377.162 257.961 C 374.385 258.627, 370.256 258.861, 367.791 258.491 C 364.333 257.973, 363.088 258.189, 362.001 259.499 C 359.617 262.371, 360.101 262.773, 380.789 275.087 C 385.654 277.982, 395.722 288.164, 398.382 292.878 C 398.997 293.968, 401.671 298.078, 404.325 302.012 C 408.550 308.274, 410.006 313.358, 407.051 311.532 C 405.952 310.852, 404.031 313.546, 400.182 321.165 C 398.649 324.200, 396.402 327, 394.937 327.702 C 391.452 329.372, 389.213 332.011, 388.741 335.005 C 388.525 336.377, 387.506 339.199, 386.477 341.275 C 384.616 345.030, 384.617 345.062, 386.799 347.243 C 389.606 350.050, 391.801 348.269, 392.527 342.596 C 392.908 339.619, 394.533 337.161, 400.091 331.152 C 403.984 326.944, 408.299 321.587, 409.680 319.250 C 412.190 314.999, 412.190 314.999, 415.281 316.750 C 418.875 318.785, 436.590 336.686, 438.436 340.149 C 444.559 351.628, 446.534 353.197, 455.950 354.060 C 468.218 355.184, 491.409 371.505, 489.750 377.847 C 489.047 380.536, 492.914 384.298, 495.015 382.969 C 497.825 381.193, 499.331 382.019, 506 389 C 510.907 394.136, 513.376 396, 515.272 396 C 517.564 396, 521 398.212, 521 399.688 C 521 399.988, 519.763 399.960, 518.250 399.625 C 516.737 399.291, 513.274 398.558, 510.553 397.997 C 506.796 397.222, 504.914 396.138, 502.730 393.488 C 501.148 391.570, 499.100 390.002, 498.177 390.005 C 496.106 390.011, 488.312 387.483, 481 384.433 C 477.975 383.172, 474.150 381.826, 472.500 381.442 C 465.019 379.704, 457.828 374.848, 459.688 372.792 C 462.507 369.677, 460.309 367.861, 451.443 365.978 C 443.301 364.249, 437.594 362.208, 425.731 356.782 C 418.962 353.687, 418.962 353.687, 416.731 355.775 C 414.380 357.975, 400.602 356.574, 397.252 353.795 C 392.767 350.072, 392.240 355.937, 396.040 367.280 C 398.076 373.357, 398.873 377.301, 398.452 379.219 C 397.655 382.846, 398.562 383.896, 406.519 388.549 C 410.077 390.629, 413.656 393.352, 414.473 394.599 C 418.095 400.126, 422.673 402.402, 425.577 400.118 C 428.216 398.042, 432 398.591, 432 401.050 C 432 403.057, 438.383 405.808, 444.578 406.471 C 451.483 407.211, 454.346 409, 448.624 409 C 444.229 409, 439.683 410.678, 440.499 411.998 C 441.841 414.170, 451.680 413.140, 454.818 410.500 C 456.452 409.125, 458.161 408, 458.617 408 C 459.072 408, 458.437 408.706, 457.206 409.568 C 454.228 411.654, 455.227 412.936, 459.614 412.655 C 467.422 412.156, 464.100 403, 456.111 403 C 454.070 403, 451.903 402.503, 451.295 401.895 C 450.688 401.288, 447.785 400.566, 444.845 400.292 C 440.236 399.862, 438.852 399.188, 434.793 395.397 C 430.261 391.164, 426.799 389.898, 425.500 392 C 424.409 393.765, 421.416 393.072, 418.993 390.493 C 417.698 389.114, 414.068 386.322, 410.927 384.288 C 405.806 380.972, 405.157 380.162, 404.648 376.448 C 404.336 374.170, 403.355 370.170, 402.468 367.558 C 400.538 361.872, 400.810 361.452, 405.437 362.979 C 407.402 363.628, 414.519 364.493, 421.254 364.902 C 432.690 365.596, 433.827 365.855, 438.446 368.823 C 441.166 370.570, 443.944 372, 444.619 372 C 445.294 372, 447.794 373.467, 450.173 375.260 C 460.043 382.696, 465.474 385.878, 468.421 385.952 C 469.478 385.978, 471.120 386.703, 472.070 387.563 C 473.806 389.134, 486.903 394.497, 492.500 395.928 C 494.150 396.350, 497.205 397.858, 499.288 399.279 C 501.372 400.700, 506.097 402.820, 509.788 403.991 C 513.480 405.161, 517.694 406.767, 519.154 407.560 C 525.875 411.206, 531.418 406.700, 528.133 400.262 C 525.614 395.322, 519.661 390, 516.656 390 C 513.762 390, 512.056 388.553, 508.653 383.211 C 505.668 378.527, 500.782 375.010, 497.250 375.004 C 496.012 375.002, 495 374.551, 495 374.003 C 495 372.171, 480.882 358.116, 475.361 354.451 C 469.659 350.667, 458.793 347, 453.279 347 C 450.647 347, 449.742 346.400, 448.379 343.750 C 442.533 332.393, 427.823 315.979, 417.978 309.828 C 416.590 308.961, 414.148 305.833, 412.550 302.876 C 405.957 290.677, 392.149 275.054, 381.844 268.134 C 373.423 262.480, 378.456 262.211, 388.612 267.773 C 396.193 271.925, 409.864 277.334, 417.233 279.096 C 421.965 280.229, 421.965 280.229, 420.039 282.678 C 413.720 290.711, 430.205 300.858, 439.346 294.562 C 442.190 292.603, 445.317 291, 446.294 291 C 447.271 291, 449.205 290.256, 450.592 289.347 C 452.982 287.782, 453.256 287.808, 455.807 289.842 C 468.555 300.007, 480.792 303.100, 493.500 299.370 C 496.851 298.387, 502.956 297.585, 507.327 297.554 C 515.154 297.500, 515.154 297.500, 517.931 306.126 C 523.117 322.231, 528.150 331.141, 535.745 337.660 C 550.007 349.900, 553.956 354.608, 553.451 358.770 C 552.214 368.954, 549.518 377.525, 546.353 381.327 C 543.350 384.934, 543.386 386.552, 546.516 388.602 C 553.017 392.862, 569 384.163, 569 376.366 C 569 374.955, 570.536 371.259, 572.413 368.151 C 577.570 359.612, 577.577 359.194, 572.675 352.454 C 570.294 349.179, 566.683 342.225, 564.652 337 C 560.916 327.393, 559.523 324.780, 552.750 314.686 C 547.155 306.347, 547.909 303.541, 554.411 308.500 C 556.214 309.875, 557.979 311, 558.333 311 C 561.006 311, 582.642 328.422, 594.610 340.212 C 598.859 344.396, 601.420 344.119, 598.606 339.778 C 597.338 337.823, 597.326 337.233, 598.521 335.617 C 599.716 334.004, 599.705 333.330, 598.447 330.898 C 597.640 329.337, 597.097 327.514, 597.240 326.847 C 597.383 326.180, 596.300 325.034, 594.833 324.302 C 591.938 322.856, 591.087 316.530, 593.083 311.280 C 593.648 309.794, 593.634 308.186, 593.047 307.088 C 592.414 305.905, 592.467 304.933, 593.204 304.196 C 594.385 303.015, 592.459 299.598, 591.089 300.445 C 590.713 300.678, 589.766 300.473, 588.986 299.991 C 586.833 298.661, 585 300.791, 585 304.622 C 585 306.958, 584.537 308, 583.500 308 C 581.726 308, 581.560 306.840, 583.113 305.287 C 583.759 304.641, 583.876 303.614, 583.391 302.837 C 582.932 302.102, 582.472 301.050, 582.370 300.500 C 582.268 299.950, 581.920 298.089, 581.598 296.364 C 581.092 293.658, 581.468 292.880, 584.343 290.687 C 587.129 288.563, 587.601 287.642, 587.224 285.071 C 586.955 283.242, 587.420 281.009, 588.370 279.558 C 590.153 276.837, 586.932 273, 582.865 273 C 581.557 273, 581 272.275, 581 270.572 C 581 267.431, 575.187 262.600, 573.296 264.169 C 572.595 264.751, 572.316 265.702, 572.675 266.283 C 573.076 266.932, 572.714 267.104, 571.737 266.729 C 570.257 266.161, 568.281 267.525, 568.085 269.250 C 568.038 269.663, 567.775 270, 567.500 270 C 566.593 270, 567.093 268.542, 569.043 265.500 C 570.101 263.850, 570.974 262.907, 570.983 263.403 C 570.992 263.900, 572.641 262.617, 574.647 260.551 C 578.295 256.796, 578.295 256.796, 579.606 259.913 C 582.519 266.843, 590.171 262.842, 588.362 255.334 C 587.479 251.667, 588.420 245.161, 590.239 242.363 C 590.645 241.738, 590.308 240.671, 589.489 239.991 C 586.931 237.868, 587.585 230.206, 590.708 225.699 C 593.334 221.911, 593.366 221.702, 591.749 218.885 C 590.120 216.048, 590.148 215.900, 592.916 212.739 C 597.541 207.458, 597.957 200.546, 593.941 195.713 C 591.232 192.454, 590.564 192.106, 589.147 193.213 C 588.241 193.921, 589.117 192.665, 591.093 190.421 C 602.080 177.947, 599.738 159.231, 585.553 146.155 C 578.451 139.609, 576.566 132.444, 578.754 120.307 C 579.842 114.272, 579.342 109.728, 577.016 104.500 C 576.526 103.400, 575.825 101.375, 575.459 100 C 574.143 95.070, 567.937 85.321, 559.546 75 C 554.851 69.225, 550.140 62.700, 549.078 60.500 C 540.132 41.970, 505.851 21.046, 484.333 20.983 C 478.500 20.966, 478.500 20.966, 476.117 15.462 C 472.691 7.548, 464.440 0.143, 459.278 0.349 C 454.407 0.544, 454.666 1.900, 460.125 4.774 C 466.248 7.998, 468.456 10.515, 471.863 18.155 C 475.465 26.232, 474.202 27.364, 466 23.408 C 460.561 20.783, 457.505 20.375, 456.422 22.126 C 455.999 22.810, 455.237 22.091, 454.484 20.299 C 448.628 6.373, 432.543 3.832, 431.497 16.668 C 431.081 21.774, 428.545 25, 424.948 25 C 423.942 25, 422.810 25.499, 422.433 26.108 C 421.096 28.272, 417.155 21.875, 418.077 19.039 C 418.531 17.642, 419.393 14.582, 419.993 12.237 C 420.593 9.892, 422.462 6.405, 424.146 4.487 C 425.830 2.569, 427.048 0.949, 426.854 0.886 C 421.400 -0.873, 415.904 4.972, 414.382 14.149 C 413.786 17.740, 413.688 17.808, 408.138 18.465 C 401.703 19.227, 396.187 20.855, 394 22.635 C 393.175 23.307, 390.440 24.740, 387.921 25.820 C 383.107 27.883, 377.104 34.021, 373.985 40.069 C 372.972 42.032, 370.278 45.999, 367.997 48.884 C 365.717 51.770, 363.390 55.451, 362.827 57.065 C 361.162 61.843, 351.418 59.255, 346.927 52.843 C 327.577 25.216, 305.439 10.599, 289.191 14.724 C 284.775 15.844, 273.631 12.556, 269.282 8.849 C 266.044 6.088, 260.294 3, 258.382 2.994 C 257.347 2.990, 255.211 2.315, 253.636 1.494 C 247.513 -1.699, 243.919 -0.629, 236.517 6.594 M 437 12.809 C 436.109 13.219, 435.401 15.102, 435.257 17.445 C 434.980 21.947, 430.276 27.665, 426.015 28.678 C 424.632 29.007, 422.956 29.703, 422.292 30.225 C 421.042 31.208, 416.753 27.759, 415.848 25.043 C 415.092 22.775, 401.879 25.228, 397.706 28.411 C 395.839 29.835, 393.094 31, 391.606 31 C 387.106 31, 383.393 33.654, 380.113 39.217 C 378.400 42.122, 375.032 47.650, 372.629 51.500 C 367.632 59.506, 366.036 63.508, 368.145 62.749 C 368.890 62.480, 370.288 62.947, 371.250 63.785 C 372.882 65.207, 373.001 65.014, 373.015 60.905 C 373.043 52.686, 376.451 46, 380.613 46 C 383.498 46, 395.503 38.046, 399.145 33.722 C 402.024 30.304, 405.316 31.075, 404.308 34.931 C 403.024 39.840, 421.409 39.841, 427.586 34.932 C 431.344 31.945, 434.389 31.202, 435.500 33 C 436.963 35.367, 447.740 34.146, 449.927 31.365 C 454.842 25.117, 449.941 14.250, 441.500 12.678 C 439.850 12.370, 437.825 12.429, 437 12.809 M 257.497 25.137 C 252.342 29.663, 251.821 31.067, 253.094 37.003 C 254.025 41.344, 253.949 42.399, 252.597 43.893 C 250.631 46.065, 250.533 49.367, 252.387 50.906 C 253.481 51.814, 254.278 51.458, 256.159 49.223 C 257.470 47.665, 259.331 46.087, 260.294 45.717 C 262.955 44.696, 263.451 42.156, 261.426 39.918 C 259.349 37.624, 260.640 30.160, 263.698 26.782 C 264.982 25.362, 265.041 24.755, 264.016 23.519 C 262.256 21.399, 261.557 21.572, 257.497 25.137 M 235.297 24.700 C 234.086 24.934, 232.822 25.987, 232.488 27.037 C 232.155 28.088, 230.558 29.890, 228.941 31.042 C 227.323 32.194, 226 33.595, 226 34.157 C 226 34.718, 223.964 37.500, 221.475 40.339 C 211.667 51.526, 210.274 63.311, 218.166 68.328 C 221.177 70.242, 235.587 71.759, 234.532 70.052 C 234.132 69.404, 234.485 68.115, 235.318 67.187 C 238.642 63.484, 244.022 51.731, 242.972 50.466 C 242.230 49.572, 242.650 48.381, 244.470 46.218 C 249.572 40.155, 243.896 21.366, 237.800 24.136 C 237.635 24.211, 236.509 24.465, 235.297 24.700 M 126.375 26.899 C 124.657 27.954, 119.482 32.251, 114.875 36.446 C 110.269 40.642, 104.080 45.224, 101.121 46.628 C 95.008 49.529, 94.904 50.346, 98.617 66.306 C 100.340 73.713, 100.340 73.713, 103.420 72.990 C 112.163 70.940, 115.422 69.555, 122.632 64.824 C 136.580 55.671, 150.095 57.811, 156.585 70.200 C 161.601 79.774, 149.495 99.495, 135.500 104.549 C 132.750 105.542, 130.315 106.498, 130.089 106.672 C 129.863 106.846, 131.454 109.129, 133.626 111.745 C 140.700 120.266, 144.927 126.620, 150.259 136.748 C 157.367 150.252, 158.492 151.806, 160.062 150.292 C 161.066 149.325, 161.061 148.778, 160.035 147.542 C 159.331 146.694, 159.105 146, 159.533 146 C 159.960 146, 159.571 145.183, 158.667 144.185 C 153.254 138.203, 154.929 131.518, 161.472 132.994 C 163.563 133.465, 165.255 133.345, 165.923 132.677 C 166.515 132.085, 167 131.834, 167 132.120 C 167 132.406, 169.087 130.696, 171.639 128.320 C 176.971 123.354, 179.267 122.952, 181.636 126.568 C 183.319 129.136, 183.319 129.136, 190.992 121.508 C 200.120 112.433, 208.564 108.126, 224.083 104.628 C 227.245 103.915, 227.571 101, 224.488 101 C 221.331 101, 218.360 97.476, 219.926 95.589 C 220.588 94.792, 221.959 94.299, 222.973 94.495 C 224.570 94.802, 224.705 94.457, 223.978 91.925 C 223.517 90.316, 223.388 89, 223.692 89 C 223.996 89, 223.790 88.438, 223.234 87.750 C 222.147 86.406, 222.193 78.114, 223.298 76.327 C 223.697 75.681, 222.821 75.014, 221.123 74.675 C 206.732 71.796, 204.415 54.958, 216.233 39.133 C 220.284 33.709, 220.110 30.801, 215.870 33.070 C 211.351 35.488, 192.617 33.311, 186.830 29.695 C 181.979 26.664, 175.249 26.705, 173.793 29.775 C 171.537 34.530, 164.745 37.122, 156.348 36.434 C 150.868 35.985, 148.474 36.221, 146.111 37.443 C 140.614 40.285, 133.461 35.743, 132.828 29.008 C 132.434 24.816, 130.692 24.247, 126.375 26.899 M 458.677 25.750 C 458.434 26.163, 457.933 27.910, 457.564 29.633 C 456.816 33.123, 450.566 41, 448.545 41 C 446.010 41, 444.789 43.790, 445.495 47.969 C 446.192 52.096, 447.221 52.844, 452.778 53.259 C 458.574 53.693, 460.456 61, 454.771 61 C 453.372 61, 452.965 61.467, 453.393 62.582 C 453.727 63.452, 454 64.799, 454 65.576 C 454 66.353, 455.969 68.986, 458.376 71.427 C 461.290 74.383, 462.987 77.115, 463.453 79.601 C 465.403 89.993, 471.673 100.347, 474.564 97.947 C 476.429 96.399, 478.611 99.559, 477.009 101.489 C 476.329 102.308, 475.341 102.711, 474.813 102.384 C 474.284 102.058, 472.765 102.812, 471.436 104.060 C 469.050 106.302, 468.995 106.306, 466.883 104.414 C 463.357 101.258, 464.591 113.887, 468.185 117.751 C 469.592 119.263, 471.959 122.975, 473.446 126 C 474.933 129.025, 477.105 132.524, 478.272 133.775 C 480.395 136.049, 480.395 136.049, 478.150 138.275 C 475.281 141.118, 467 133.587, 467 128.135 C 467 119.253, 459.456 117.208, 440.688 121.002 C 413.492 126.500, 393.344 137.433, 386.907 150.185 C 385.295 153.377, 381.946 158.109, 379.463 160.700 C 373.475 166.950, 370.982 171.395, 365.501 185.598 C 362.474 193.443, 359.963 198.352, 358.135 200 C 349.245 208.014, 348.563 211.771, 355.169 216.338 C 359.800 219.540, 360.329 219.242, 361.980 212.500 C 362.519 210.300, 363.679 206.475, 364.558 204 C 365.437 201.525, 366.517 197.774, 366.959 195.663 C 367.946 190.956, 373.537 184.921, 380.700 180.833 C 387.524 176.939, 393.204 168.990, 390.008 167.807 C 384.742 165.859, 386.414 162.579, 394.729 158.545 C 397.903 157.005, 402.954 153.665, 405.952 151.122 C 411.404 146.500, 411.404 146.500, 427.452 146.406 C 439.353 146.335, 444.534 145.912, 447.500 144.765 C 467.302 137.110, 475.336 138.267, 467.129 147.591 C 450.570 166.403, 448.374 190.909, 460.459 222 C 465.696 235.473, 465.994 236.763, 465.332 243.093 C 464.813 248.064, 465.019 249.363, 466.602 251.113 C 468.481 253.189, 468.449 253.240, 461.070 259.937 C 453.648 266.672, 453.648 266.672, 456.512 270.427 C 459.884 274.847, 459.085 277.721, 454.637 277.178 C 448.660 276.450, 454.704 284.384, 463.338 288.602 C 475.781 294.682, 481.088 295.198, 499.328 292.106 C 505.473 291.064, 515.450 289.419, 521.500 288.449 C 527.550 287.480, 533.210 286.083, 534.079 285.344 C 534.947 284.605, 536.018 284, 536.459 284 C 536.900 284, 539.488 282.400, 542.211 280.444 C 546.994 277.007, 551.825 276.965, 549.150 280.383 C 548.669 280.997, 547.982 282.732, 547.622 284.237 C 546.773 287.791, 543.598 289.768, 538 290.229 C 535.525 290.433, 532.375 291.321, 531 292.202 C 529.625 293.083, 526.985 294.120, 525.132 294.507 C 517.159 296.173, 529.690 326.416, 542.299 335.936 C 561.582 350.495, 564.447 363.126, 552.576 381.243 C 550.892 383.814, 550.892 383.814, 554.474 383.006 C 560.119 381.733, 564 377.126, 564 371.700 C 564 370.380, 565.350 367.436, 567 365.159 C 570.776 359.946, 570.752 359.362, 566.575 355.042 C 563.380 351.738, 559 341.536, 559 337.400 C 559 336.486, 557.087 332.117, 554.750 327.692 C 550.812 320.239, 548.708 317.771, 537.257 307.186 C 533.673 303.873, 533.673 303.873, 536.249 301.296 C 539.116 298.430, 541.855 298.731, 542.712 302.005 C 543.920 306.628, 545.467 302.882, 549.939 284.500 C 551.697 277.275, 552.353 276.064, 556.715 272 C 564.860 264.410, 568.312 257.547, 565.011 255.507 C 564.437 255.152, 565.744 251.668, 568.128 247.198 C 574.849 234.596, 576 232.171, 576 230.607 C 576 229.788, 576.450 228.840, 577 228.500 C 577.550 228.160, 578.011 225.996, 578.024 223.691 C 578.038 221.386, 578.440 217.700, 578.917 215.500 C 581.515 203.527, 581.306 200.628, 578.100 204.186 C 574.878 207.761, 572.132 207.456, 571.023 203.399 C 570.735 202.348, 568.229 199.378, 565.454 196.798 C 562.679 194.219, 559.408 190.104, 558.184 187.653 C 556.488 184.259, 555.514 183.314, 554.092 183.686 C 553.066 183.955, 551.923 183.685, 551.554 183.087 C 550.272 181.014, 544.053 181.856, 541.455 184.455 C 537.013 188.896, 539.101 198.794, 544.906 200.817 C 548.669 202.129, 549.838 204.591, 547.709 206.719 C 546.291 208.138, 545.808 208.084, 542.515 206.142 C 540.519 204.964, 538.571 204, 538.186 204 C 536.774 204, 534.656 212.728, 534.086 220.896 C 533.422 230.407, 531.749 232.893, 528.182 229.665 C 525.106 226.881, 523.447 237.785, 525.946 244.357 C 527.355 248.065, 525.226 249.450, 520.318 248.017 C 513.034 245.889, 494.280 245.587, 485.195 247.451 C 475.089 249.524, 473.775 248.918, 474.643 242.589 C 475.110 239.179, 474.676 237.328, 472.380 232.935 C 469.794 227.988, 469.559 226.692, 469.773 218.500 C 470.503 190.495, 470.149 186.251, 467.316 189.084 C 465.123 191.277, 462.858 186.175, 464.562 182.881 C 467.222 177.736, 472 177.238, 472 182.106 C 472 193.661, 502.080 154.375, 506.408 137.169 C 511.140 118.354, 502.969 75.171, 492.562 64 C 490.760 62.065, 490.103 59.934, 489.658 54.571 C 489.165 48.633, 488.703 47.338, 486.429 45.525 C 480.843 41.071, 485.410 36.303, 491.381 40.355 C 497.961 44.820, 519.195 50.511, 524.967 49.357 C 528.759 48.598, 526.970 44.058, 522.080 42.033 C 520.423 41.347, 518.542 40.153, 517.901 39.380 C 515.059 35.956, 504.291 31.910, 501.456 33.202 C 498.983 34.329, 498.562 34.188, 496.444 31.532 C 493.456 27.785, 482.225 26.165, 475.370 28.493 C 471.440 29.827, 470.887 29.765, 466.100 27.456 C 460.696 24.848, 459.385 24.547, 458.677 25.750 M 297.500 41.264 C 290.132 43.807, 290.363 43.613, 292.160 45.744 C 293.717 47.589, 300.898 61.139, 300.775 62 C 300.736 62.275, 301.620 64.300, 302.740 66.500 C 305.459 71.842, 307.140 83.349, 306.924 95.141 C 306.721 106.203, 307.312 108.071, 309.977 104.780 C 311.782 102.552, 311.841 102.546, 313.905 104.414 C 316.545 106.803, 316.545 108.197, 313.907 110.584 C 310.397 113.761, 309.908 115.509, 311.590 118.879 C 312.439 120.582, 312.888 122.372, 312.587 122.859 C 312.287 123.345, 314.272 124.184, 316.999 124.723 C 322.363 125.784, 325.060 124.380, 324.476 120.830 C 323.908 117.382, 328.365 114.641, 330.572 117.080 C 332.456 119.161, 332.453 119.215, 330.408 120.871 C 329.267 121.795, 328.285 123.214, 328.225 124.025 C 328.013 126.916, 327.395 128.819, 326.199 130.260 C 324.990 131.717, 325.106 136.012, 326.441 139.160 C 327.120 140.761, 324.909 146.320, 323.164 147.399 C 320.734 148.901, 311.103 138.003, 312.166 134.953 C 313.224 131.919, 312.055 129, 309.782 129 C 309.247 129, 307.502 128.070, 305.905 126.933 C 303.002 124.865, 303.002 124.865, 301.973 127.571 C 300.790 130.683, 301.350 131.785, 303.294 130.171 C 305.238 128.557, 308.781 131.280, 308.552 134.212 C 308.454 135.471, 308.836 137.400, 309.401 138.500 C 309.967 139.600, 310.464 140.725, 310.506 141 C 310.748 142.564, 314.100 147.780, 315.922 149.429 C 318.487 151.750, 314.122 157.375, 308.860 158.531 C 305.584 159.250, 303.866 161.161, 306.913 160.695 C 308.033 160.525, 309.244 160.089, 309.606 159.728 C 309.967 159.366, 311.104 159.520, 312.131 160.070 C 313.159 160.620, 314 160.774, 314 160.413 C 314 160.051, 314.597 160.251, 315.327 160.856 C 316.167 161.553, 319.010 161.739, 323.077 161.362 C 328.707 160.841, 329.726 161.019, 331.329 162.800 C 334.334 166.138, 340 159.246, 340 152.251 C 340 143.712, 344.710 141.770, 348.822 148.614 C 352.063 154.009, 357.874 154.411, 362.908 149.589 C 365.651 146.961, 369.376 146.181, 370.500 148 C 371.515 149.643, 372.474 149.160, 374.284 146.096 C 376.523 142.307, 376.448 141.690, 373.917 143.045 C 370.284 144.989, 368.283 142.007, 367.829 133.976 C 367.261 123.927, 360.997 117.086, 356.192 121.267 C 355.261 122.077, 354.050 122.579, 353.500 122.383 C 352.950 122.187, 351.426 123.683, 350.114 125.706 C 347.729 129.386, 347.729 129.386, 345.364 126.637 C 342.478 123.282, 342.405 121.848, 345 119.500 C 346.248 118.370, 347 116.420, 347 114.311 C 347 111.497, 347.597 110.581, 350.573 108.825 C 353.432 107.138, 354.033 106.268, 353.582 104.473 C 353.252 103.158, 353.595 101.751, 354.409 101.075 C 355.357 100.289, 355.631 98.664, 355.269 95.970 C 354.626 91.172, 361.203 84.154, 364.390 86.239 C 364.610 86.382, 365.625 85.770, 366.645 84.878 C 370.271 81.709, 372.582 81.019, 376.122 82.050 C 378.502 82.743, 380.155 82.689, 381.716 81.866 C 386.069 79.572, 388.579 84.301, 385.410 88.825 C 384.135 90.646, 383.536 90.860, 382.386 89.905 C 381.597 89.251, 380.731 88.936, 380.461 89.206 C 379.743 89.923, 385.052 95, 386.520 95 C 387.813 95, 395.007 102.435, 394.990 103.753 C 394.985 104.164, 393.410 106.476, 391.490 108.891 C 387.908 113.397, 387.247 115.417, 389 116.500 C 391.828 118.248, 388.567 127.454, 384.583 128.968 C 382.135 129.899, 380.732 133.948, 382.094 136.152 C 382.529 136.856, 382.386 138.035, 381.775 138.771 C 380.927 139.793, 381.227 140.627, 383.045 142.305 C 385.426 144.500, 385.426 144.500, 383.558 142.250 C 381.092 139.279, 384.138 134.709, 386.805 137.377 C 388.057 138.629, 388.979 138.276, 393.897 134.658 C 397.005 132.371, 401.456 129.642, 403.787 128.593 C 407.524 126.910, 407.862 126.497, 406.643 125.093 C 403.166 121.085, 404.201 116.500, 408.583 116.500 C 411.313 116.500, 418.337 110.321, 417.648 108.526 C 416.923 106.635, 418.779 105.388, 423.374 104.682 C 425.505 104.354, 428.113 103.303, 429.169 102.347 C 435.618 96.511, 446.167 104.738, 440.402 111.108 C 438.491 113.220, 439.320 115, 442.214 115 C 444.176 115, 444.205 114.884, 442.667 113.185 C 440.891 111.222, 445.831 104.936, 449.582 104.385 C 450.458 104.256, 452.019 103.388, 453.050 102.454 C 454.082 101.521, 455.617 101.023, 456.463 101.347 C 457.815 101.866, 458.745 96.683, 458.161 91.879 C 457.771 88.667, 456.904 85.807, 455.167 82 C 449.498 69.573, 448.090 66.194, 447.447 63.468 C 447.061 61.835, 445.507 59.150, 443.993 57.500 C 440.109 53.267, 439 50.728, 439 46.066 C 439 41.318, 438.365 41.149, 429.339 43.500 C 422.740 45.219, 413.497 45.394, 403.753 43.985 C 396.523 42.939, 396.661 42.881, 381.661 53.249 C 380.332 54.167, 379.605 56.462, 379.042 61.510 C 375.999 88.810, 353.156 91.136, 337.939 65.694 C 335.984 62.426, 333.412 59.609, 331.578 58.729 C 329.885 57.916, 325.738 55.170, 322.363 52.626 C 318.987 50.082, 315.763 48, 315.198 48 C 314.632 48, 312.387 45.975, 310.209 43.500 C 305.743 38.426, 305.727 38.423, 297.500 41.264 M 476.155 43.313 C 475.556 44.036, 475.317 46.178, 475.625 48.075 C 476.433 53.057, 473.367 55.755, 468.571 54.283 C 463.220 52.641, 460.811 56.353, 465.223 59.443 C 470.285 62.989, 476.313 60.202, 480.750 52.264 C 483.992 46.463, 479.998 38.683, 476.155 43.313 M 531.232 51 C 530.545 52.100, 529.354 53, 528.585 53 C 527.680 53, 527.371 53.704, 527.710 55 C 528.335 57.389, 528.732 57.428, 533.251 55.540 C 535.173 54.736, 537.141 54.397, 537.623 54.785 C 538.105 55.173, 537.178 54.030, 535.563 52.245 C 532.086 48.403, 532.737 48.590, 531.232 51 M 496.629 54.250 C 496.988 56.587, 498.072 60.079, 499.038 62.009 C 501.168 66.263, 507.143 81.618, 509.347 88.500 C 511.331 94.694, 514 114.862, 514 123.657 C 514 131.492, 510.339 146.819, 506.813 153.740 C 505.915 155.504, 505.982 156.355, 507.125 157.740 C 507.925 158.708, 508.717 160.850, 508.886 162.500 C 509.056 164.150, 509.678 166.089, 510.269 166.809 C 511.583 168.411, 512.010 171.366, 512.274 180.674 C 512.433 186.286, 512.750 187.623, 513.728 186.811 C 514.415 186.240, 514.769 185.435, 514.513 185.020 C 513.517 183.410, 517.822 180.852, 520.661 181.367 C 526.868 182.493, 528.447 183.019, 529.858 184.430 C 531.642 186.213, 529.763 189.230, 527.427 188.334 C 524.910 187.368, 526.038 189.412, 529.709 192.468 C 533.005 195.212, 533.220 195.267, 532.564 193.202 C 530.531 186.795, 539.868 176, 547.444 176 C 550.856 176, 555.350 166.569, 556.930 156.093 C 557.545 152.019, 559.237 145.944, 560.690 142.593 C 563.980 135.008, 564.053 125.498, 560.863 120.062 C 559.167 117.172, 558.891 115.183, 559.132 107.573 C 559.419 98.522, 559.419 98.522, 554.959 95.594 C 539.139 85.207, 522 65.942, 522 58.548 C 522 56.955, 521.710 56.855, 510.211 54.503 C 506.202 53.682, 501.612 52.334, 500.011 51.506 C 495.969 49.416, 495.896 49.475, 496.629 54.250 M 272 56 C 269.311 59.776, 263.879 60.174, 260.344 56.853 C 258.126 54.770, 255 55.471, 255 58.051 C 255 60.812, 261.942 66, 265.636 66 C 272.972 66, 280.342 58.527, 276.989 54.487 C 275.228 52.365, 274.413 52.612, 272 56 M 531.096 60.449 C 528.945 61.600, 528.945 61.600, 531.473 63.974 C 532.863 65.280, 534 67.121, 534 68.066 C 534 71.421, 548.331 84, 552.154 84 C 554.026 84, 552.745 79.238, 549.715 74.932 C 537.554 57.654, 537.050 57.262, 531.096 60.449 M 128.723 66.433 C 126.207 67.770, 121.872 70.430, 119.091 72.343 C 116.310 74.257, 113.689 75.979, 113.267 76.170 C 100.745 81.861, 112.317 94.971, 126.385 91.032 C 130.845 89.784, 130.926 89.805, 135.377 93.452 C 140.873 97.956, 142.685 97.219, 148.864 87.965 C 159.743 71.674, 146.165 57.158, 128.723 66.433 M 233.750 76.689 C 231.318 77.325, 231.559 80.322, 234.137 81.513 C 235.312 82.056, 236.182 82.878, 236.070 83.341 C 235.958 83.804, 236.649 84.754, 237.604 85.453 C 240.366 87.472, 240.063 89.769, 236.660 92.631 C 234.922 94.092, 233.449 96.115, 233.387 97.126 C 233.325 98.137, 232.699 99.658, 231.995 100.506 C 230.190 102.681, 231.128 103.163, 235.729 102.427 C 240.298 101.697, 241.056 101.267, 242.657 98.500 C 243.293 97.400, 244.298 96.610, 244.890 96.744 C 245.481 96.879, 246.837 95.280, 247.902 93.192 C 248.967 91.104, 251.912 87.090, 254.445 84.273 C 258.584 79.669, 259.367 75.790, 255.512 78.990 C 254.409 79.906, 253.837 79.711, 252.814 78.074 C 251.463 75.911, 243.162 75.958, 240.383 78.145 C 239.694 78.687, 238.783 78.444, 238.010 77.512 C 237.320 76.681, 236.473 76.052, 236.128 76.116 C 235.782 76.180, 234.713 76.438, 233.750 76.689 M 226.595 81.750 C 226.647 84.363, 226.816 86.838, 226.970 87.250 C 227.262 88.032, 227.661 89.533, 227.875 90.655 C 227.944 91.015, 228.892 90.503, 229.981 89.517 C 231.618 88.036, 232.231 87.947, 233.505 89.004 C 234.354 89.709, 235.302 90.032, 235.611 89.722 C 235.920 89.413, 235.020 88.404, 233.610 87.480 C 231.034 85.792, 228 80.853, 228 78.346 C 228 77.606, 227.662 77, 227.250 77 C 226.838 77, 226.543 79.138, 226.595 81.750 M 557 81.777 C 557 82.755, 556.259 84.613, 555.353 85.906 C 553.814 88.104, 553.823 88.321, 555.490 89.255 C 556.471 89.804, 558.974 91.789, 561.053 93.667 C 563.343 95.736, 565.089 96.665, 565.485 96.024 C 565.844 95.443, 566.627 95.269, 567.224 95.638 C 568.465 96.406, 568.426 96.334, 562.316 86.750 C 557.776 79.627, 557 78.902, 557 81.777 M 370.488 86.896 C 369.395 87.956, 366.475 89.496, 364 90.318 C 359.500 91.813, 359.500 91.813, 359.500 96.822 C 359.500 99.576, 359.163 102.168, 358.750 102.582 C 358.337 102.995, 358 104.638, 358 106.233 C 358 109.351, 353.357 116.339, 351.889 115.431 C 351.400 115.129, 351 115.514, 351 116.286 C 351 117.058, 350.100 118.505, 349 119.500 C 347.900 120.495, 347 121.989, 347 122.819 C 347 123.649, 348.630 122.237, 350.621 119.680 C 352.676 117.043, 354.718 115.326, 355.341 115.711 C 355.945 116.084, 357.856 116.422, 359.588 116.463 C 361.319 116.503, 363.451 117.129, 364.324 117.854 C 365.198 118.579, 366.331 118.913, 366.843 118.597 C 368.190 117.765, 370.464 120.879, 370.718 123.904 C 372.015 139.362, 372.156 139.987, 374.115 138.939 C 375.152 138.384, 376.007 138.283, 376.015 138.715 C 376.079 141.973, 377.725 135.798, 377.868 131.767 C 378.071 126.022, 379.518 123.355, 381.527 125.022 C 382.431 125.773, 383.242 125.615, 384.394 124.463 C 386.171 122.686, 386.568 117.469, 385 116.500 C 383.225 115.403, 383.923 113.254, 387.635 108.392 C 391.269 103.630, 391.269 103.630, 388.041 100.745 C 385.027 98.052, 384.692 97.969, 383.007 99.494 C 380.774 101.515, 378 98.381, 378 93.837 C 378 92.341, 377.549 90.839, 376.997 90.498 C 376.330 90.086, 376.342 89.229, 377.032 87.939 C 377.838 86.434, 377.745 86, 376.617 86 C 375.818 86, 374.559 85.768, 373.820 85.484 C 373.081 85.201, 371.581 85.836, 370.488 86.896 M 464.580 97.653 C 464.235 98.551, 464.189 99.522, 464.476 99.810 C 464.764 100.098, 465 99.964, 465 99.512 C 465 99.060, 465.911 99.514, 467.024 100.521 C 468.241 101.623, 469.391 101.984, 469.910 101.426 C 470.412 100.888, 469.609 99.563, 467.990 98.260 C 465.531 96.280, 465.134 96.210, 464.580 97.653 M 566 103.842 C 566 108.705, 566.116 108.944, 567.931 107.811 C 569.724 106.691, 569.757 106.355, 568.399 103.104 C 566.273 98.015, 566 98.099, 566 103.842 M 429.993 106.238 C 428.846 107.469, 427.366 108.526, 426.704 108.586 C 426.042 108.646, 424.657 108.764, 423.628 108.848 C 422.080 108.974, 421.971 109.260, 423 110.500 C 424.557 112.376, 422.776 114.950, 420.206 114.535 C 417.655 114.123, 416.755 115, 418.084 116.601 C 418.936 117.628, 419.622 117.729, 420.544 116.964 C 421.449 116.212, 422.023 116.228, 422.510 117.017 C 422.986 117.786, 423.768 117.615, 425.039 116.465 C 426.376 115.254, 428.241 114.895, 431.857 115.149 C 435.651 115.417, 436.596 115.214, 435.833 114.296 C 435.144 113.468, 435.404 112.120, 436.666 109.972 C 439.682 104.840, 434.169 101.756, 429.993 106.238 M 453.693 109.629 C 449.922 113.500, 449.922 113.500, 454.065 113.813 C 459.174 114.198, 459.210 114.161, 458.248 109.530 C 457.464 105.757, 457.464 105.757, 453.693 109.629 M 250.200 110.200 C 248.730 111.670, 248.657 114.491, 250.023 117.043 C 250.681 118.272, 250.707 119.587, 250.096 120.727 C 249.573 121.702, 248.902 123.287, 248.604 124.250 C 248.291 125.263, 247.079 126, 245.727 126 C 243.497 126, 239.670 128.207, 230.208 134.950 C 224.531 138.996, 216.768 142.880, 210.840 144.640 C 199.109 148.124, 198.813 151.388, 209.739 156.759 C 222.630 163.096, 236 179.003, 236 188.002 C 236 191.416, 247.375 202.764, 249.243 201.213 C 251.924 198.988, 253.551 209.049, 250.933 211.667 C 250.178 212.422, 250.598 213.574, 252.373 215.617 C 255.666 219.405, 258.172 218.050, 259.251 211.897 C 260.443 205.104, 255.797 192.771, 252.755 194.652 C 252.217 194.984, 251.384 194.636, 250.904 193.878 C 247.337 188.247, 257.697 177.389, 264.104 180.043 C 268.347 181.801, 270.516 179.899, 268.567 176.129 C 261.004 161.504, 263.989 141.078, 276.106 124.553 C 280.519 118.534, 277.828 111.881, 272.199 114.894 C 271.134 115.463, 270.059 115.726, 269.810 115.476 C 269.560 115.227, 267.148 117.695, 264.450 120.960 C 259.867 126.506, 259.427 126.792, 257.772 125.294 C 255.831 123.537, 255.423 120.475, 257 119.500 C 258.756 118.415, 258.078 115.246, 255.411 112.077 C 252.541 108.666, 251.948 108.452, 250.200 110.200 M 567.027 113.179 C 564.710 115.056, 564.688 115.202, 566.318 117.962 C 567.243 119.527, 568.006 121.864, 568.014 123.154 C 568.058 130.816, 571.236 132.065, 571.723 124.612 C 571.893 121.999, 571.635 120.107, 571.150 120.407 C 570.664 120.707, 569.521 120.128, 568.608 119.120 C 566.387 116.666, 568.959 113.891, 571.500 116 C 572.743 117.032, 573 116.922, 573 115.363 C 573 112.112, 569.793 110.939, 567.027 113.179 M 269.952 120.253 C 268.113 121.493, 265.749 123.979, 264.698 125.777 C 261.570 131.133, 268.026 130.089, 272.074 124.585 C 276.799 118.160, 275.870 116.265, 269.952 120.253 M 171.361 132.930 C 166.586 137.558, 165.956 137.867, 162.456 137.299 C 158.394 136.640, 158.335 137.308, 162.088 141.500 C 163.073 142.600, 163.840 143.725, 163.793 144 C 163.745 144.275, 164.038 145.545, 164.443 146.822 C 164.940 148.386, 164.662 149.716, 163.590 150.900 C 162.716 151.867, 162 152.948, 162 153.303 C 162 154.579, 167.875 157.012, 168.502 155.996 C 170.696 152.447, 181 159.282, 181 164.286 C 181 165.682, 184.047 169, 185.329 169 C 186.614 169, 185.990 165.236, 184.500 164 C 183.675 163.315, 183 162.205, 183 161.533 C 183 160.860, 182.119 159.512, 181.041 158.537 C 175.882 153.868, 173.395 133.427, 177.754 131.512 C 178.993 130.968, 179.856 130.067, 179.671 129.511 C 178.885 127.149, 176.178 128.263, 171.361 132.930 M 315.849 129.346 C 316.363 129.981, 316.727 132.454, 316.657 134.841 C 316.547 138.578, 319.181 143.152, 320.616 141.717 C 321.437 140.897, 321.721 135.946, 320.975 135.484 C 319.906 134.824, 320.730 132.231, 322.875 129.500 C 323.740 128.400, 323.862 128.007, 323.146 128.627 C 322.312 129.350, 320.602 129.474, 318.380 128.973 C 315.810 128.393, 315.156 128.490, 315.849 129.346 M 238.405 137.707 C 235.506 140.068, 232.812 142, 232.417 142 C 232.022 142, 229.404 143.076, 226.600 144.392 C 223.795 145.708, 219.302 147.802, 216.615 149.047 C 211.730 151.309, 211.730 151.309, 214.697 152.905 C 220.374 155.958, 229.651 164.034, 231.754 167.755 C 236.518 176.183, 242.897 180.982, 246.500 178.851 C 247.050 178.525, 248.346 178.395, 249.380 178.560 C 253.996 179.299, 259.284 174.174, 258.556 169.665 C 256.359 156.053, 256.627 150.780, 259.880 143.603 C 263.629 135.336, 263.593 136.187, 260.250 134.855 C 252.932 131.939, 244.065 133.096, 238.405 137.707 M 570.275 137.372 C 567.802 142.461, 568.763 144.341, 572.313 141.359 C 573.516 140.348, 574.635 139.456, 574.800 139.377 C 574.966 139.298, 574.512 137.790, 573.793 136.027 C 572.485 132.822, 572.485 132.822, 570.275 137.372 M 302.302 134.792 C 300.713 135.802, 301.204 144.842, 303.001 147.669 C 304.698 150.339, 302.684 153.813, 300.494 151.995 C 299.037 150.786, 296.350 154.284, 295.613 158.351 C 295.360 159.742, 293.949 162.937, 292.476 165.451 C 289.123 171.172, 286.760 178.734, 288.072 179.544 C 288.600 179.871, 288.705 180.668, 288.306 181.315 C 287.581 182.486, 286.536 188.155, 285.354 197.314 C 284.897 200.856, 284.107 202.539, 282.367 203.679 C 281.065 204.532, 280 205.683, 280 206.237 C 280 206.795, 280.690 206.672, 281.546 205.962 C 283.118 204.657, 287.323 204.562, 299 205.564 C 309.368 206.454, 320.783 213.495, 326.600 222.589 C 328.484 225.534, 331.032 228.490, 332.263 229.159 C 335.190 230.750, 359.658 230.742, 361.250 229.150 C 362.080 228.320, 362.780 228.384, 363.936 229.397 C 366.077 231.272, 387.470 232.271, 385.937 230.424 C 385.223 229.563, 385.232 228.975, 385.968 228.520 C 386.553 228.158, 386.805 227.494, 386.527 227.044 C 386.249 226.595, 386.652 225.704, 387.422 225.065 C 388.397 224.256, 389.022 224.226, 389.480 224.968 C 389.842 225.553, 390.504 225.806, 390.952 225.530 C 391.399 225.253, 392.874 225.899, 394.229 226.965 C 396.481 228.737, 396.881 228.771, 398.889 227.365 C 400.658 226.126, 401.378 226.069, 402.584 227.070 C 403.824 228.098, 404.663 227.750, 407.450 225.049 C 410.418 222.172, 411.352 221.827, 415.314 222.142 C 417.786 222.339, 419.632 222.213, 419.416 221.863 C 418.436 220.278, 421.755 219, 422.990 220.488 C 423.680 221.319, 423.881 222, 423.435 222 C 422.990 222, 423.889 223.318, 425.433 224.930 C 427.708 227.304, 428.672 227.695, 430.521 226.992 C 433.711 225.779, 436.354 228.741, 435.416 232.478 C 434.689 235.376, 429.573 239.157, 427.471 238.350 C 426.773 238.083, 425.913 238.331, 425.560 238.903 C 425.207 239.474, 425.949 240.151, 427.209 240.408 C 434.239 241.840, 435.614 242.301, 438.077 244.054 C 440.466 245.756, 440.919 245.803, 442.031 244.463 C 443.147 243.118, 443.492 243.136, 445.140 244.627 C 446.325 245.699, 446.664 246.700, 446.079 247.405 C 445.512 248.088, 445.650 249.169, 446.443 250.253 C 447.895 252.238, 449 252.520, 449 250.904 C 449 248.983, 453.114 243.952, 454.158 244.597 C 454.710 244.939, 455.959 246.529, 456.934 248.132 C 458.706 251.046, 458.706 251.046, 459.288 244.106 C 459.890 236.925, 457.417 227.205, 455.122 227.731 C 453.221 228.167, 449.872 222.859, 451.108 221.370 C 451.723 220.628, 452.687 220.306, 453.249 220.654 C 453.811 221.001, 453.257 219.914, 452.018 218.238 C 450.778 216.562, 450.051 214.727, 450.401 214.161 C 450.750 213.595, 450.389 211.415, 449.597 209.316 C 442.721 191.087, 447.074 164.850, 459.542 149.379 C 462.445 145.777, 461.338 145.832, 447.500 149.977 C 441.741 151.702, 438.195 152.040, 427.500 151.882 C 414.500 151.691, 414.500 151.691, 414.500 154.737 C 414.500 158.992, 411.499 162.140, 408.523 161.009 C 405.374 159.812, 402.537 162.007, 399.508 167.984 C 396.590 173.742, 387.059 184.306, 381.769 187.646 C 379.016 189.384, 378 190.713, 378 192.578 C 378 195.829, 376.562 198.549, 372.356 203.253 C 370.150 205.719, 369 208.020, 369 209.963 C 369 222.266, 362.606 230.006, 354.538 227.468 C 341.909 223.496, 339.789 213.498, 348.901 200.885 C 354.618 192.972, 359 186.067, 359 184.973 C 359 181.784, 370.390 160.861, 374.535 156.437 C 379.510 151.126, 380.741 149.211, 380.441 147.250 C 380.336 146.563, 380.194 145.444, 380.125 144.763 C 380.056 144.083, 378.413 145.883, 376.473 148.763 C 372.812 154.200, 371.115 155.049, 369 152.500 C 367.157 150.279, 365.629 150.658, 363.205 153.937 C 361.571 156.147, 360.427 156.764, 358.581 156.429 C 355.558 155.881, 354.644 157.130, 356.355 159.471 C 357.463 160.987, 357.945 161.052, 359.742 159.929 C 365.081 156.595, 366.742 163.947, 361.896 169.465 C 358.334 173.522, 357.028 173.793, 354.500 171 C 353.505 169.900, 353.076 169, 353.548 169 C 354.020 169, 352.672 167.224, 350.553 165.054 C 346.746 161.156, 346.720 161.076, 348.407 158.501 C 350.076 155.955, 350.045 155.815, 347.057 152.413 C 344 148.930, 344 148.930, 344 153.015 C 344 157.306, 342.195 161.764, 339.577 163.936 C 338.173 165.101, 338.188 165.510, 339.726 168.113 C 341.251 170.695, 341.271 171.158, 339.909 172.519 C 337.396 175.032, 330.597 171.033, 330.526 167 C 330.505 165.812, 329.044 165.500, 323.500 165.500 C 319.650 165.500, 315.938 165.136, 315.250 164.691 C 314.563 164.246, 314 164.149, 314 164.476 C 314 164.803, 313.206 164.645, 312.236 164.126 C 311.059 163.496, 309.927 163.580, 308.835 164.378 C 307.057 165.679, 303.112 165.806, 301.200 164.623 C 297.656 162.433, 301.118 158.058, 309.672 153.917 C 313.185 152.216, 313.883 151.514, 312.715 150.860 C 310.558 149.653, 304.750 139.031, 304.750 136.294 C 304.750 133.866, 304.245 133.557, 302.302 134.792 M 112.495 141.679 C 109.356 144.404, 109 145.004, 110.835 144.479 C 113.399 143.746, 118.179 147.261, 117.467 149.356 C 117.253 149.985, 118.748 151.553, 120.789 152.841 C 122.830 154.128, 123.944 154.607, 123.264 153.904 C 122.280 152.888, 122.349 152.272, 123.604 150.886 C 125.401 148.900, 125.080 148.133, 119.995 142.260 C 116.490 138.212, 116.490 138.212, 112.495 141.679 M 572.081 146.163 C 570.200 146.703, 567.838 146.929, 566.831 146.666 C 565.754 146.384, 565 146.719, 565 147.479 C 565 148.190, 564.317 150.060, 563.482 151.636 C 562.573 153.351, 562.030 156.706, 562.129 160 C 562.270 164.694, 561.822 166.196, 559.075 170.251 C 555.857 175.002, 555.857 175.002, 557.928 177.636 C 559.068 179.085, 560 180.947, 560 181.775 C 560 187.666, 567.485 196.527, 571.251 195.095 C 574.762 193.760, 578.068 197.061, 576.206 200.042 C 573.833 203.842, 575.053 203.386, 577.706 199.482 C 579.194 197.292, 580.334 195.275, 580.240 195 C 580.145 194.725, 581.995 192.475, 584.351 190 C 588.954 185.164, 593.068 177.818, 589.227 181.295 C 584.426 185.639, 582.740 171.206, 587.370 165.403 C 590.112 161.966, 590.112 161.966, 588.056 159.079 C 586.925 157.491, 586 155.698, 586 155.096 C 586 153.669, 584.702 153.698, 583.242 155.158 C 581.007 157.393, 578.755 154.303, 580.585 151.511 C 581.932 149.455, 578.247 144.464, 575.846 145.090 C 575.656 145.140, 573.961 145.622, 572.081 146.163 M 108.978 148.868 C 106.847 149.402, 106.536 149.937, 106.978 152.313 C 107.500 155.127, 107.500 155.127, 110.946 151.563 C 114.355 148.038, 114.036 147.601, 108.978 148.868 M 96.545 155.229 C 92.684 159.046, 91.900 160.320, 92.997 160.998 C 93.953 161.589, 94.840 161.246, 95.763 159.928 C 96.510 158.861, 98.444 157.305, 100.061 156.469 C 102.112 155.408, 103 154.201, 103 152.474 C 103 149.197, 102.379 149.462, 96.545 155.229 M 111.844 157.841 C 111.506 161.383, 111.677 161.745, 113.483 161.317 C 114.593 161.054, 116.075 160.801, 116.777 160.753 C 117.528 160.702, 116.910 159.398, 115.277 157.588 C 113.750 155.895, 112.437 154.370, 112.360 154.199 C 112.284 154.028, 112.051 155.667, 111.844 157.841 M 119.820 157.808 C 123.465 160.832, 122.385 163.463, 117.080 164.485 C 115.874 164.717, 113.394 165.830, 111.569 166.957 C 107.818 169.276, 105.019 167.777, 106.538 164.263 C 108.389 159.982, 107.117 157.550, 104.431 160.235 C 104.086 160.580, 103.144 160.609, 102.336 160.299 C 101.489 159.974, 99.519 161.043, 97.678 162.827 C 95.419 165.017, 94.068 165.660, 93.049 165.030 C 92.083 164.433, 90.645 164.829, 88.669 166.235 C 85.728 168.330, 85.728 168.330, 89.114 171.171 C 92.500 174.011, 92.500 174.011, 89.678 176.520 C 88.125 177.900, 86.445 178.775, 85.943 178.465 C 84.919 177.832, 85.692 183.528, 87.543 190.250 C 87.657 190.662, 87.806 191.450, 87.875 192 C 87.944 192.550, 88.637 193, 89.416 193 C 90.894 193, 97.466 200.648, 97.545 202.460 C 97.570 203.032, 98.073 203.407, 98.663 203.294 C 101.385 202.772, 104.247 207.692, 102.654 210.155 C 101.805 211.467, 101.279 214.042, 101.459 216 C 101.665 218.237, 100.918 221.208, 99.391 224.232 C 98.076 226.834, 97 229.694, 97 230.588 C 97 231.481, 95.675 233.886, 94.055 235.931 C 90.818 240.018, 91.438 242.590, 96.809 247.362 C 98.403 248.778, 98.772 249.977, 98.351 252.362 C 97.796 255.500, 97.796 255.500, 100.299 252.505 C 103.317 248.894, 107 250.900, 107 256.155 C 107 257.720, 107.480 259, 108.067 259 C 108.694 259, 108.862 258.139, 108.473 256.915 C 107.754 254.650, 111.252 250, 113.674 250 C 114.465 250, 115 248.851, 115 247.155 C 115 245.576, 115.894 243.501, 117.008 242.492 C 118.764 240.903, 118.848 240.412, 117.673 238.587 C 115.356 234.990, 115.095 232.224, 116.915 230.577 C 120.242 227.566, 125.713 233.929, 123.911 238.715 C 123.406 240.054, 123.476 241.176, 124.087 241.554 C 124.760 241.969, 124.764 242.580, 124.100 243.380 C 123.388 244.237, 124.078 245.360, 126.503 247.295 C 129.963 250.055, 130.732 254.237, 128.491 258.100 C 128.045 258.870, 128.034 259.180, 128.466 258.790 C 128.899 258.399, 130.489 258.719, 132 259.500 C 133.511 260.281, 134.993 260.674, 135.293 260.373 C 136.635 259.032, 139.136 264.878, 138.071 266.867 C 135.730 271.241, 138.485 276.275, 145.163 279.828 C 148.649 281.682, 159.808 278.678, 157.913 276.395 C 156.973 275.262, 157.115 274.531, 158.591 272.900 C 160.458 270.837, 160.458 270.837, 162.632 273.563 C 164.250 275.592, 165.277 276.088, 166.653 275.502 C 167.669 275.069, 173.161 274.580, 178.858 274.416 C 190.048 274.094, 190.942 273.840, 189.020 271.524 C 187.442 269.622, 189.246 267, 192.132 267 C 193.170 267, 194.803 266.074, 195.760 264.942 C 199.188 260.888, 203.536 258.873, 206.459 259.984 C 207.928 260.543, 209.272 261, 209.445 261 C 209.618 261, 209.960 258.230, 210.205 254.845 C 210.581 249.644, 211.067 248.358, 213.344 246.542 C 214.826 245.361, 216.217 243.518, 216.436 242.447 C 216.654 241.376, 217.259 239.375, 217.781 238 C 218.950 234.917, 217.391 231, 214.994 231 C 210.963 231, 207.663 222.354, 210.725 219.813 C 212.023 218.736, 212.763 219.118, 215.487 222.269 C 223.752 231.831, 233.827 218.990, 226.943 207.667 C 225.890 205.935, 224.957 205.261, 224.541 205.933 C 224.168 206.538, 223.491 206.803, 223.037 206.523 C 222.584 206.243, 220.343 206.673, 218.058 207.479 C 214.120 208.869, 213.658 208.819, 209.202 206.517 C 199.415 201.463, 194.216 199.117, 193.776 199.557 C 193.526 199.807, 192.504 199.110, 191.506 198.006 C 189.711 196.023, 187.370 195.171, 188.430 196.887 C 188.731 197.374, 188.308 198.329, 187.489 199.009 C 186.670 199.689, 186 199.895, 186 199.467 C 186 199.040, 185.213 199.366, 184.250 200.193 C 181.812 202.287, 179.175 203.092, 178.473 201.956 C 177.584 200.518, 175 200.807, 175 202.345 C 175 204.692, 171.131 207.531, 169.776 206.176 C 167.986 204.386, 166.707 204.771, 167.272 206.931 C 168.094 210.076, 163.451 213.879, 161.351 211.780 C 160.049 210.478, 159.947 209.592, 160.812 207.108 C 161.473 205.214, 161.520 203.821, 160.936 203.461 C 160.417 203.140, 161.111 201.410, 162.478 199.618 C 165.530 195.617, 158.600 186.242, 154.999 189.501 C 152.867 191.430, 149.290 188.052, 149.855 184.642 C 150.206 182.526, 150.184 182.523, 148.105 184.405 C 146.072 186.245, 145.932 186.248, 144 184.500 C 139.835 180.730, 143.447 174.523, 147.964 177.687 C 149.940 179.072, 149.772 178.565, 146.908 174.515 C 143.674 169.941, 129.100 154.185, 130.412 156.681 C 131.075 157.943, 129.512 159.284, 126.904 159.691 C 126.026 159.828, 123.801 158.829, 121.960 157.470 C 117.404 154.109, 115.688 154.380, 119.820 157.808 M 169.777 160.372 C 168.218 161.556, 168.369 161.778, 171.361 162.696 C 174.508 163.662, 174.646 163.597, 174.217 161.355 C 173.714 158.725, 172.345 158.422, 169.777 160.372 M 497.616 170.045 C 495.480 173.360, 492.780 176.579, 491.616 177.199 C 489.279 178.442, 483.036 183.285, 479.374 186.697 C 477.264 188.662, 477.025 189.723, 477.100 196.784 C 477.147 201.124, 476.866 207.228, 476.476 210.349 C 475.725 216.354, 477.021 221.410, 479.560 222.385 C 482.378 223.466, 484.220 230.015, 482.461 232.700 C 478.518 238.718, 481.021 239.607, 497.211 237.942 C 509.608 236.667, 510.761 236.361, 509.167 234.767 C 506.510 232.110, 510.048 226.037, 513.485 227.356 C 516.302 228.437, 518.836 224.526, 519.673 217.806 C 520.731 209.308, 520.757 209.501, 518.582 209.496 C 514.761 209.487, 511.637 201.690, 514.410 199.084 C 516.732 196.903, 516.732 196.903, 519.972 199.630 C 522.620 201.858, 523.512 202.140, 524.856 201.176 C 525.760 200.526, 527.513 199.557, 528.750 199.022 C 531.221 197.954, 531.911 196.437, 529.505 197.360 C 528.581 197.714, 527.196 196.831, 525.877 195.047 C 524.703 193.460, 523.217 192.363, 522.574 192.610 C 521.930 192.857, 520.332 191.918, 519.022 190.524 C 516.641 187.989, 516.641 187.989, 514.500 190 C 510.439 193.815, 507.635 189.042, 507.560 178.190 C 507.458 163.288, 503.866 160.346, 497.616 170.045 M 8.773 178.909 C 9.004 180.483, 8.663 182.760, 8.016 183.970 C 6.962 185.940, 7.265 186.535, 10.919 189.663 C 15.488 193.573, 16.315 197.500, 13.169 200.347 C 12.162 201.259, 11.149 201.891, 10.919 201.752 C 10.688 201.613, 11.625 202.480, 13 203.677 C 15.500 205.855, 15.500 205.855, 18.549 202.926 C 22.251 199.370, 24 200.435, 24 206.245 C 24 210.127, 22.467 212.264, 16.961 216.057 C 14.726 217.596, 14.722 217.646, 16.551 220.438 C 17.569 221.992, 18.454 224.216, 18.517 225.381 C 18.814 230.899, 19.164 231.754, 21.575 232.852 C 24.200 234.048, 26.462 233.557, 25.500 232 C 25.207 231.526, 25.439 230.847, 26.014 230.491 C 26.621 230.116, 26.799 228.445, 26.438 226.521 C 25.899 223.647, 26.211 222.904, 28.746 221.030 C 31.677 218.863, 31.677 218.863, 29.278 211.739 C 27.959 207.821, 27.096 203.690, 27.361 202.558 C 28.172 199.086, 26.423 180.023, 25.178 178.778 C 23.854 177.454, 20.720 180.737, 21.737 182.383 C 23 184.427, 22.850 188.879, 21.480 190.016 C 20.678 190.682, 20.237 191.575, 20.500 192 C 20.763 192.425, 20.348 193.296, 19.578 193.935 C 18.277 195.015, 17.064 194.281, 16.381 192 C 15.284 188.339, 14.588 187.056, 13.467 186.626 C 9.767 185.206, 9.882 182.154, 13.738 179.437 C 17.500 176.785, 17.500 176.785, 14.107 177.396 C 12.241 177.732, 10.183 177.567, 9.534 177.028 C 8.661 176.304, 8.463 176.794, 8.773 178.909 M 310.165 179.302 C 305.230 185.248, 307.457 200.739, 313.037 199.280 C 316.776 198.302, 317.502 196.163, 315 193.500 C 313.316 191.707, 312.987 190.719, 313.764 189.779 C 315.064 188.206, 315.032 180.959, 313.717 179.250 C 312.490 177.655, 311.520 177.669, 310.165 179.302 M 163 187.140 C 163 187.767, 163.787 188.855, 164.750 189.559 C 165.713 190.263, 166.516 191.213, 166.535 191.669 C 166.627 193.819, 169.287 197.104, 170.545 196.621 C 171.310 196.328, 172.135 196.410, 172.379 196.805 C 173.414 198.478, 183.301 197.550, 183.565 195.754 C 183.706 194.794, 183.405 193.750, 182.895 193.435 C 182.385 193.120, 182.226 192.443, 182.543 191.931 C 182.859 191.419, 181.752 191, 180.082 191 C 178.412 191, 174.057 189.875, 170.404 188.500 C 162.714 185.605, 163 185.658, 163 187.140 M 82.690 197.644 C 82.189 198.144, 84.460 203.216, 87.726 208.893 C 89.154 211.375, 90.716 206.342, 89.353 203.649 C 86.625 198.259, 84.231 196.102, 82.690 197.644 M 589.739 198.238 C 589.045 200.046, 590.042 208.908, 591.006 209.504 C 592.535 210.449, 593.187 199.759, 591.692 198.264 C 590.485 197.056, 590.194 197.052, 589.739 198.238 M 531.499 203.002 C 531.113 203.626, 530.262 203.931, 529.607 203.679 C 527.328 202.805, 524.747 205.545, 526.489 206.991 C 527.320 207.681, 528 207.910, 528 207.500 C 528 207.090, 528.617 207.267, 529.372 207.894 C 530.462 208.798, 531.004 208.405, 532.007 205.984 C 533.248 202.988, 532.872 200.780, 531.499 203.002 M 273.967 212.046 C 272.765 213.734, 272.056 215.389, 272.391 215.724 C 272.726 216.059, 273.113 216.146, 273.250 215.917 C 273.387 215.688, 274.546 214.310, 275.825 212.855 C 277.181 211.314, 277.734 209.954, 277.152 209.594 C 276.602 209.254, 275.169 210.358, 273.967 212.046 M 546.675 211.975 C 539.218 220.836, 543.746 235, 554.035 235 C 557.658 235, 557.839 236.404, 554.497 238.594 C 550.821 241.002, 543.447 251.235, 541.429 256.728 C 540.464 259.352, 538.395 262.875, 536.830 264.556 C 533.985 267.611, 533.985 267.611, 536.819 270.326 C 540.082 273.453, 542.060 272.315, 543.444 266.514 C 544.771 260.955, 557.153 241.710, 562.690 236.601 C 565.772 233.757, 568.018 230.820, 568.044 229.601 C 568.068 228.445, 568.684 225.829, 569.413 223.787 C 572.237 215.877, 565.262 215.124, 562.006 222.987 C 558.363 231.781, 548.610 227.498, 551.854 218.528 C 553.326 214.457, 553.308 211.708, 551.800 210.200 C 550.060 208.460, 549.457 208.668, 546.675 211.975 M 282.318 212.391 C 276.923 214.858, 275.091 227.338, 279 235 C 280.100 237.156, 281 239.760, 281 240.786 C 281 246.607, 296.071 252.498, 313.500 253.489 C 319 253.802, 325.634 254.315, 328.243 254.629 C 334.154 255.341, 334.581 254.506, 333.016 245.303 C 332.379 241.562, 331.815 237.899, 331.763 237.164 C 331.710 236.429, 330.637 235.153, 329.378 234.328 C 328.120 233.504, 325.983 230.955, 324.631 228.664 C 316.723 215.273, 294.613 206.769, 282.318 212.391 M 527.603 213.500 C 526.559 214.290, 525.379 214.734, 524.980 214.488 C 524.259 214.042, 522.742 221.075, 523.414 221.748 C 523.608 221.941, 525.165 219.828, 526.874 217.050 C 528.583 214.273, 529.873 212.014, 529.741 212.032 C 529.608 212.049, 528.646 212.710, 527.603 213.500 M 30.900 224.615 C 30.084 231.841, 30.563 234.716, 32.371 233.451 C 33.699 232.522, 34.970 232.418, 36.744 233.093 C 39.028 233.961, 39.192 233.847, 38.636 231.772 C 38.301 230.522, 38.021 229.114, 38.014 228.643 C 38.006 228.172, 37.342 228.039, 36.537 228.348 C 35.679 228.677, 34.231 227.837, 33.037 226.320 C 31.917 224.895, 30.955 224.128, 30.900 224.615 M 409.251 227.250 C 408.704 227.938, 408.400 229.396, 408.575 230.492 C 408.751 231.588, 407.939 233.500, 406.773 234.742 C 404.651 237, 404.651 237, 408.391 237 C 410.448 237, 413.039 237.486, 414.149 238.080 C 415.708 238.914, 416.563 238.801, 417.912 237.580 C 418.872 236.711, 420.833 236, 422.270 236 C 423.706 236, 425.167 235.538, 425.516 234.973 C 425.865 234.409, 426.679 234.012, 427.325 234.092 C 429.756 234.392, 430.804 233.952, 431.408 232.379 C 431.886 231.134, 431.564 230.881, 430.016 231.286 C 428.908 231.575, 427.782 231.457, 427.514 231.022 C 425.316 227.467, 411.369 224.586, 409.251 227.250 M 561.217 228.891 C 558.345 231.349, 558.126 231.860, 559.467 232.973 C 561.531 234.686, 563.640 232.909, 564.218 228.968 C 564.458 227.336, 564.619 226.018, 564.577 226.041 C 564.535 226.063, 563.023 227.346, 561.217 228.891 M 517.737 229.495 C 516.217 230.833, 514.304 231.670, 513.487 231.357 C 511.864 230.734, 511.348 233.479, 512.906 234.442 C 513.404 234.750, 513.592 235.844, 513.323 236.874 C 512.961 238.256, 513.596 239.012, 515.747 239.762 C 518.661 240.778, 518.661 240.778, 519.614 233.889 C 520.137 230.100, 520.551 227.014, 520.533 227.032 C 520.515 227.049, 519.257 228.158, 517.737 229.495 M 391.262 230.128 C 391.582 231.024, 391.354 232.246, 390.755 232.845 C 389.406 234.194, 390.535 234.607, 397.962 235.482 C 403.375 236.119, 403.407 236.107, 401.614 234.126 C 400.618 233.026, 400.129 231.601, 400.525 230.959 C 400.922 230.318, 400.049 230.577, 398.586 231.536 C 396.001 233.229, 395.851 233.211, 393.303 230.889 C 391.507 229.253, 390.863 229.013, 391.262 230.128 M 28.070 237.869 C 27.520 238.896, 27.278 239.944, 27.531 240.198 C 27.785 240.451, 26.869 241.714, 25.496 243.004 C 22.183 246.116, 22.200 250.122, 25.534 251.668 C 29.848 253.670, 35.099 243.451, 31.309 240.429 C 29.783 239.213, 28.980 237.841, 29.398 237.166 C 29.794 236.524, 29.882 236, 29.594 236 C 29.306 236, 28.620 236.841, 28.070 237.869 M 379.646 236.964 C 380.116 237.389, 382.673 238.546, 385.329 239.535 C 387.985 240.523, 391.810 242.525, 393.829 243.983 C 395.848 245.440, 402.143 248.945, 407.817 251.771 C 417.125 256.406, 422.147 259.628, 430.144 266.094 C 432.666 268.134, 433.009 268.163, 437.644 266.739 C 440.315 265.917, 443.590 265.212, 444.923 265.172 C 447.148 265.104, 451.972 261.522, 450.944 260.700 C 447.408 257.874, 438.116 252, 437.182 252 C 436.504 252, 432.806 250.417, 428.964 248.482 C 418.541 243.233, 412.517 241.340, 402 240.009 C 396.775 239.348, 391.150 238.428, 389.500 237.966 C 385.073 236.725, 378.661 236.073, 379.646 236.964 M 242.081 245.640 C 238.550 249.688, 234.922 253, 234.019 253 C 230.306 253, 227.846 256.802, 229.496 259.993 C 230.323 261.592, 231 264.471, 231 266.391 C 231 268.311, 231.472 270.174, 232.049 270.530 C 232.775 270.979, 232.778 271.563, 232.057 272.431 C 230.421 274.403, 231.894 274.951, 234.826 273.461 C 237.179 272.265, 238.518 271.764, 241.201 271.075 C 241.586 270.976, 243.321 269.568, 245.056 267.947 C 246.792 266.326, 248.929 265, 249.806 265 C 252.439 265, 249.624 262.892, 246.540 262.554 C 241.422 261.992, 240.028 259.284, 243.365 256.386 C 245.981 254.115, 246.380 254.034, 247.952 255.457 C 249.139 256.531, 250.656 256.819, 252.835 256.383 C 256.684 255.613, 259.652 257.509, 257.901 259.620 C 256.045 261.855, 262.469 259.244, 264.590 256.901 C 266.305 255.006, 266.299 254.860, 264.437 253.149 C 263.372 252.170, 259.350 248.423, 255.500 244.824 C 248.500 238.279, 248.500 238.279, 242.081 245.640 M 583.712 240.275 C 584.157 242.604, 581.591 245.924, 580.325 244.658 C 579.559 243.892, 577.076 247.005, 577.032 248.785 C 577.007 249.774, 577.475 249.816, 579.064 248.966 C 580.586 248.151, 581.494 248.165, 582.523 249.019 C 583.648 249.953, 584.034 249.628, 584.519 247.338 C 584.850 245.777, 585.518 243.759, 586.004 242.854 C 586.621 241.703, 586.342 240.715, 585.075 239.568 C 583.371 238.026, 583.290 238.068, 583.712 240.275 M 16.708 241.471 C 14.466 243.111, 14.549 245.237, 16.967 248.139 C 18.933 250.500, 18.933 250.500, 18.967 247.309 C 18.985 245.554, 19.450 243.840, 20 243.500 C 20.550 243.160, 21 242.507, 21 242.048 C 21 240.541, 18.450 240.198, 16.708 241.471 M 118.734 249.820 C 118.369 252.687, 118.837 254.268, 120.855 256.975 C 124.697 262.131, 127 267.075, 127 270.171 C 127 272.095, 128.203 274.033, 131.013 276.632 C 135.376 280.669, 135.497 282.145, 131.886 287.250 C 129.445 290.700, 129.710 290.683, 137.563 286.895 C 145.168 283.228, 145 283.656, 140.058 280.537 C 134.935 277.302, 132.231 271.877, 133.744 267.867 C 134.997 264.547, 132.993 262.666, 129.247 263.646 C 125.638 264.589, 123.259 258.774, 125.096 253.500 C 125.544 252.215, 122.291 247.325, 120.541 246.654 C 119.615 246.299, 119.058 247.275, 118.734 249.820 M 451.376 252.873 C 449.252 255.512, 449.252 255.512, 451.498 257.206 C 455.174 259.979, 459.146 255.397, 455.756 252.297 C 453.500 250.235, 453.500 250.235, 451.376 252.873 M 101.045 257.446 C 100.336 258.301, 99.179 259, 98.475 259 C 97.447 259, 97.461 259.882, 98.549 263.497 C 99.293 265.970, 100.163 269.908, 100.482 272.247 C 101.856 282.317, 101.739 282.129, 105.264 279.985 C 107.600 278.565, 108.731 278.361, 109.721 279.184 C 111.767 280.881, 112.532 279.246, 110.661 277.177 C 109.747 276.168, 109 274.435, 109 273.326 C 109 272.217, 108.098 270.494, 106.996 269.497 C 105.866 268.474, 105.051 266.553, 105.127 265.092 C 105.355 260.698, 102.611 255.559, 101.045 257.446 M 115.465 259.707 C 115.035 260.693, 114.740 261.794, 114.809 262.154 C 114.879 262.514, 114.275 263.356, 113.468 264.027 C 112.661 264.697, 112 264.910, 112 264.500 C 112 264.090, 111.315 264.323, 110.478 265.018 C 109.134 266.134, 109.192 266.446, 110.978 267.697 C 112.317 268.635, 113 270.235, 113 272.434 C 113 274.261, 113.675 276.315, 114.500 277 C 117.662 279.624, 113.611 285.487, 110.137 283.317 C 106.952 281.329, 103.313 284.068, 105.958 286.462 C 107.081 287.479, 108 289.119, 108 290.107 C 108 292.832, 114.131 291.909, 118.075 288.591 C 119.838 287.107, 121.892 286.142, 122.640 286.447 C 123.388 286.751, 124.671 287.272, 125.492 287.604 C 126.411 287.976, 127.236 287.497, 127.644 286.354 C 128.007 285.334, 128.948 283.748, 129.735 282.830 C 130.995 281.359, 130.927 281.032, 129.172 280.092 C 126.577 278.703, 123 272.876, 123 270.036 C 123 268.811, 122.113 266.563, 121.030 265.041 C 119.946 263.520, 119.274 262.060, 119.536 261.798 C 119.798 261.536, 119.165 260.554, 118.130 259.617 C 116.354 258.010, 116.203 258.015, 115.465 259.707 M 199.041 266.582 C 196.386 268.981, 195.257 270.657, 195.878 271.278 C 196.409 271.809, 196.623 272.818, 196.354 273.521 C 195.633 275.399, 196.820 275.807, 205.052 276.506 C 209.148 276.854, 213.046 277.312, 213.713 277.524 C 215.922 278.225, 216.421 271.260, 214.471 266.936 C 212.665 262.930, 211.626 262.178, 210.475 264.041 C 209.906 264.961, 208.252 264.758, 204.335 263.288 C 203.694 263.048, 201.312 264.530, 199.041 266.582 M 474.618 264.715 C 474.225 265.108, 473.037 267.389, 471.978 269.782 C 470.228 273.739, 469.767 274.106, 466.905 273.818 C 459.654 273.086, 460.831 278.965, 468.312 280.848 C 471.107 281.552, 473.326 282.950, 474.788 284.928 C 477.212 288.206, 478.055 288.255, 499.711 286.385 C 509.870 285.508, 513.650 280.836, 506.535 277.952 C 504.962 277.314, 505.431 277.112, 508.595 277.063 C 511.237 277.022, 513.280 276.348, 514.353 275.162 C 517.375 271.823, 513.989 270.343, 501.846 269.693 C 494.173 269.283, 489.116 268.406, 483.771 266.562 C 475.478 263.699, 475.608 263.725, 474.618 264.715 M 49.999 272.693 C 44.915 280.294, 44.851 280.488, 44.572 288.943 C 44.247 298.804, 40.797 308.319, 31.735 324.347 C 26.057 334.391, 25.470 337.799, 27.976 346.176 C 29.334 350.715, 29.295 350.966, 26.637 354.803 C 24.241 358.259, 23.936 359.544, 24.199 365.056 C 24.500 371.358, 24.500 371.358, 30.424 363.929 C 38.992 353.186, 44.755 347.412, 51 343.316 C 60.383 337.162, 63.118 334.124, 61.533 331.616 C 59.760 328.813, 61.152 325.273, 64.533 323.987 C 65.956 323.446, 66.861 322.584, 66.544 322.071 C 66.227 321.558, 66.432 320.851, 67 320.500 C 67.568 320.149, 67.769 319.436, 67.447 318.915 C 67.125 318.394, 66.402 318.251, 65.841 318.598 C 64.354 319.517, 56.995 311.957, 57.030 309.547 C 57.097 304.935, 64.564 298.315, 67.695 300.092 C 69.238 300.968, 70.373 302.247, 70.219 302.936 C 69.750 305.023, 72.052 303.622, 73.786 300.764 C 75.327 298.225, 75.291 297.862, 73.117 293.995 C 71.854 291.748, 71.044 289.328, 71.316 288.618 C 71.589 287.908, 70.392 285.486, 68.656 283.235 C 66.920 280.985, 63.267 275.961, 60.539 272.072 C 54.598 263.604, 56.139 263.513, 49.999 272.693 M 572.340 270.826 C 571.772 271.197, 570.979 272.850, 570.576 274.500 C 569.552 278.696, 567.098 281.166, 564.707 280.407 C 563.335 279.972, 562.972 280.146, 563.493 280.988 C 564.281 282.264, 564.239 282.375, 558.550 294 C 554.880 301.500, 554.880 301.500, 559.690 305.729 C 562.336 308.056, 565.005 309.968, 565.623 309.979 C 567.088 310.006, 578.137 318.455, 584.500 324.413 C 594.024 333.332, 596.370 334.843, 594.453 330.824 C 593.554 328.939, 591.847 326.969, 590.659 326.448 C 588.187 325.363, 587.266 316.911, 589.039 311.588 C 590.316 307.754, 589.522 307.161, 586.682 309.829 C 583.742 312.591, 582.870 312.555, 580.053 309.556 C 577.947 307.315, 577.573 307.234, 575.520 308.579 C 573.579 309.851, 573.125 309.855, 572.093 308.612 C 571.241 307.585, 571.215 306.985, 572 306.500 C 572.787 306.013, 572.766 305.424, 571.926 304.411 C 571.282 303.635, 571.148 302.982, 571.628 302.961 C 572.107 302.939, 571.034 302.285, 569.242 301.506 C 564.628 299.500, 563.491 295.918, 565.943 291.111 C 567.006 289.028, 567.835 285.900, 567.785 284.159 C 567.635 278.861, 570.544 276.539, 574.132 279.094 C 575.709 280.217, 577.014 281.893, 577.032 282.818 C 577.126 287.792, 583 289.277, 583 284.327 C 583 282.975, 583.469 280.991, 584.043 279.919 C 584.876 278.363, 584.725 277.843, 583.293 277.336 C 580.871 276.479, 577 272.914, 577 271.538 C 577 270.278, 573.903 269.805, 572.340 270.826 M 439.140 273.147 C 434.057 274.610, 436.016 275.213, 443.145 274.381 C 448.114 273.800, 448.955 273.482, 447 272.919 C 443.741 271.981, 443.132 271.999, 439.140 273.147 M 477.546 274.570 C 473.591 280.607, 479.647 283.244, 493.201 281.386 C 498.943 280.599, 496.649 277.674, 487.562 274.197 C 480.297 271.416, 479.595 271.443, 477.546 274.570 M 429.319 282.664 C 428.318 283.480, 428.035 283.880, 428.690 283.552 C 429.344 283.224, 431.144 284.541, 432.690 286.478 C 436.038 290.674, 436.358 290.718, 440.182 287.500 C 441.816 286.125, 444.258 285, 445.608 285 C 447.843 285, 449.944 282.611, 448.756 281.422 C 448.485 281.152, 445.647 281.341, 442.448 281.843 C 439.249 282.344, 435.396 282.400, 433.885 281.967 C 431.970 281.418, 430.586 281.629, 429.319 282.664 M 119.445 292.560 C 118.313 294.050, 116.456 295.146, 115 295.184 C 108.786 295.343, 105.771 296.994, 108.161 298.930 C 110.287 300.651, 110.486 300.597, 115.838 296.848 C 118.859 294.732, 122.157 293, 123.166 293 C 125.416 293, 125.580 291.437, 123.418 290.607 C 122.548 290.273, 121.736 290, 121.613 290 C 121.491 290, 120.515 291.152, 119.445 292.560 M 573.434 291.774 C 570.963 293.838, 570.789 297.494, 573.160 297.513 C 574.073 297.521, 575.838 298.421, 577.082 299.513 C 578.326 300.606, 578.975 300.872, 578.523 300.105 C 578.072 299.338, 577.642 296.895, 577.568 294.677 C 577.413 290.056, 576.368 289.322, 573.434 291.774 M 63.105 306.072 C 61.013 308.901, 60.957 309.295, 62.414 310.905 C 63.286 311.869, 64 313.185, 64 313.829 C 64 315.404, 64.419 315.324, 68.185 313.034 C 73.027 310.089, 75.472 312.411, 73.478 318.061 C 71.828 322.738, 72.961 323.861, 76.070 320.631 C 78.364 318.247, 79.165 316.124, 79.119 312.546 C 79.105 311.471, 79.589 309.996, 80.194 309.266 C 82.990 305.898, 79.290 302.578, 75.909 305.423 C 72.109 308.620, 71.265 308.628, 67.996 305.496 C 65.382 302.992, 65.382 302.992, 63.105 306.072" stroke="none" fill="#1A1A1A" fill-rule="evenodd"/>
</svg>