<svg xmlns="http://www.w3.org/2000/svg" width="600" height="413" viewBox="0 0 600 413" version="1.1">
	<rect x="0" y="0" width="100%" height="100%" fill="#FFFFFF" />
	<path d="M 241 3.352 C 238.525 5.219, 235.178 8.153, 233.563 9.873 C 230.115 13.544, 227.884 13.737, 221.333 10.928 C 207.557 5.022, 189.726 3.988, 180.844 8.580 C 179.335 9.361, 176.701 10, 174.992 10 C 173.284 10, 169.944 10.489, 167.572 11.086 C 163.795 12.037, 162.720 11.898, 158.939 9.969 C 147.629 4.199, 111.897 8.630, 98.396 17.476 C 94.294 20.164, 77.885 36.323, 76.461 39.076 C 71.078 49.484, 68.871 58.455, 68.284 72.312 C 67.698 86.125, 67.698 86.125, 58.314 97.312 C 47.340 110.394, 34.867 131.984, 32.784 141.500 C 30.400 152.395, 28.901 163.343, 28.710 171.243 C 28.583 176.534, 28.105 179.859, 27.500 179.661 C 26.950 179.481, 26.500 178.831, 26.500 178.217 C 26.500 177.602, 25.906 176.515, 25.179 175.800 C 22.752 173.412, 19.954 178.258, 20.598 183.734 C 21.340 190.050, 20.412 193.587, 18.440 191.950 C 16.511 190.349, 13 193.307, 13 196.533 C 13 197.755, 12.319 199.320, 11.488 200.010 C 10.323 200.976, 10.241 201.586, 11.130 202.657 C 11.765 203.422, 12.517 203.816, 12.800 203.533 C 13.084 203.249, 13.933 203.529, 14.687 204.155 C 16.225 205.431, 21 201.778, 21 199.326 C 21 198.597, 21.436 198, 21.969 198 C 22.967 198, 22.323 200.672, 20.865 202.578 C 20.412 203.171, 20.437 205.038, 20.922 206.727 C 21.491 208.713, 21.429 210.171, 20.744 210.856 C 19.998 211.602, 20.097 212.446, 21.075 213.708 C 22.215 215.177, 22.053 215.147, 20.174 213.542 C 18.474 212.089, 17.469 211.845, 16.279 212.596 C 13.815 214.150, 13.915 216.898, 16.497 218.590 C 18.530 219.922, 18.709 220.523, 17.897 223.308 C 17.134 225.928, 17.300 226.774, 18.824 228.031 C 20.090 229.075, 20.452 230.187, 19.964 231.531 C 19.051 234.039, 20.603 236, 23.500 236 C 26.739 236, 28.115 233.806, 28.320 228.313 C 28.485 223.904, 28.710 223.497, 31 223.466 C 32.375 223.448, 34.029 223.105, 34.675 222.704 C 35.655 222.096, 39 230.403, 39 233.443 C 39 233.793, 35.695 239.830, 31.655 246.861 C 22.111 263.470, 19 270.386, 19 274.995 C 19 277.060, 18.362 280.557, 17.582 282.767 C 15.175 289.589, 11.005 312.055, 9.982 323.707 C 9.447 329.803, 8.113 337.651, 7.018 341.146 C 5.922 344.641, 5.009 349.300, 4.989 351.500 C 4.938 357.023, 3.407 363.131, 1.828 364.106 C -3.390 367.331, 0.941 377.780, 7.882 378.711 C 10.102 379.009, 12.682 380.096, 13.614 381.126 C 16.426 384.233, 20.457 381.123, 31.926 367 C 39.715 357.408, 47.968 349.065, 52.500 346.199 C 54.700 344.808, 58.750 341.738, 61.500 339.375 C 72.012 330.346, 77.406 326, 78.103 326 C 78.500 326, 81.217 324.425, 84.140 322.500 C 90.754 318.144, 90.165 318.050, 93.399 323.991 C 97.166 330.913, 106.372 342.979, 115.225 352.599 C 122.679 360.698, 122.679 360.698, 123.340 369.599 C 123.704 374.495, 124.277 381.949, 124.615 386.165 C 125.228 393.831, 125.228 393.831, 122.364 395.320 C 111.732 400.850, 114.178 408.147, 127.119 409.509 C 136.551 410.501, 138.949 408.160, 141.977 395 C 144.755 382.927, 145.956 372.158, 144.857 369.185 C 144.385 367.912, 144 365.166, 144 363.084 C 144 355.349, 141.015 350, 135.104 347.142 C 131.957 345.620, 131.365 344.513, 127.005 332 C 120.855 314.349, 120.808 314.246, 116.616 309 C 114.638 306.525, 113.016 304.050, 113.011 303.500 C 113.002 302.324, 121.143 297, 122.951 297 C 123.633 297, 125.386 296.371, 126.846 295.602 C 134.369 291.638, 146.930 286.714, 151.892 285.783 C 154.976 285.204, 160.396 283.564, 163.936 282.137 C 175.414 277.509, 212.839 278.853, 215.494 283.988 C 222.446 297.431, 239.489 295.568, 233.682 282 C 233.225 280.932, 234.199 279.966, 237.065 278.646 C 240.993 276.837, 246.116 273.786, 256.113 267.304 C 268.216 259.455, 273.134 259.106, 281.621 265.494 C 285.826 268.659, 292.020 272.336, 295.384 273.665 C 298.748 274.994, 302.428 276.544, 303.561 277.109 C 304.695 277.674, 307.178 278.259, 309.078 278.410 C 316.368 278.989, 323.409 282.181, 330 287.897 C 333.575 290.997, 338.181 294.782, 340.237 296.308 C 345.536 300.241, 345.666 300.670, 347.445 320.035 C 350.029 348.156, 351.874 360.892, 353.698 363.197 C 354.266 363.914, 357.138 369.225, 360.080 375 C 371.290 396.999, 378.231 404.367, 388.800 405.488 C 392.485 405.879, 397.075 406.858, 399 407.663 C 400.925 408.469, 404.525 409.003, 407 408.849 C 409.659 408.684, 413.750 409.387, 417 410.567 C 422.751 412.655, 431.891 413.220, 432.097 411.500 C 432.352 409.377, 414.786 402.870, 407.500 402.387 C 389.202 401.175, 380 398.822, 380 395.356 C 380 394.481, 378.762 392.259, 377.250 390.419 C 359.999 369.433, 353 348.568, 353 318.124 C 353 309.877, 352.567 301.992, 352.038 300.601 C 351.406 298.939, 351.423 297.857, 352.087 297.446 C 352.747 297.038, 352.688 296.329, 351.916 295.399 C 350.619 293.836, 347.525 295.422, 348.570 297.113 C 350.155 299.677, 346.806 297.213, 339.920 290.750 C 328.327 279.867, 323.373 276.176, 318.717 274.952 C 301.416 270.405, 289.860 265.357, 281.333 258.623 C 278.462 256.355, 274.001 252.938, 271.419 251.028 C 268.838 249.118, 263.121 243.647, 258.715 238.869 C 250.704 230.183, 250.704 230.183, 241.608 237.842 C 226.270 250.755, 221.675 255.607, 222.308 258.220 C 222.612 259.474, 223.331 262.300, 223.907 264.500 C 224.482 266.700, 224.963 270.133, 224.976 272.128 C 224.989 274.123, 225.675 277.371, 226.500 279.346 C 228.745 284.719, 228.534 289.135, 226.076 288.218 C 222.091 286.731, 218.775 282.955, 219.450 280.673 C 221.556 273.560, 221.267 267.312, 218.626 262.805 C 215.092 256.774, 215.275 255.543, 220.401 250.878 C 223.496 248.061, 225.002 245.780, 225.478 243.187 C 225.850 241.159, 227.421 237.475, 228.970 235 C 230.519 232.525, 232.110 229.375, 232.507 228 C 232.904 226.625, 234.149 223.980, 235.275 222.122 C 236.922 219.403, 237.095 218.382, 236.161 216.886 C 235.522 215.863, 234.996 214.234, 234.990 213.264 C 234.985 212.294, 233.835 209.040, 232.436 206.034 C 231.037 203.027, 230.125 199.639, 230.409 198.505 C 231.213 195.304, 226.680 190.169, 224.317 191.602 C 223.318 192.208, 222.352 193.705, 222.170 194.929 C 221.972 196.265, 221.323 196.954, 220.542 196.655 C 218.829 195.997, 217.016 197.879, 217.685 199.622 C 219.373 204.021, 206.007 198.643, 192.286 189.402 C 190.518 188.212, 187.026 186.931, 184.527 186.556 C 171.126 184.547, 158.151 177.763, 151.918 169.507 C 149.771 166.664, 144.275 160.934, 139.704 156.773 C 135.134 152.612, 128.718 145.717, 125.447 141.450 C 116.596 129.905, 117.767 129.785, 100.878 143.960 C 95.970 148.080, 95.738 147.863, 98.194 141.445 C 100.132 136.380, 100.180 135.751, 98.737 134.309 C 96.779 132.351, 94.270 133.203, 93.101 136.222 C 92.615 137.475, 91.545 140.300, 90.722 142.500 C 84.876 158.126, 79.719 166.841, 77.438 164.949 C 74.603 162.596, 72 166.466, 72 173.033 C 72 178.983, 73.594 181.754, 76.399 180.677 C 77.498 180.255, 77.900 181.347, 78.161 185.466 C 78.500 190.800, 78.500 190.800, 74.394 187.012 C 68.324 181.413, 66.596 180.684, 64.607 182.882 C 63.052 184.600, 63.366 185.034, 70.326 190.791 C 77.447 196.681, 85 207.739, 85 212.274 C 85 214.899, 87.888 216.551, 90.081 215.181 C 91.846 214.079, 92 214.287, 92 217.780 C 92 222.830, 88.222 230.019, 84.500 232.049 C 80.881 234.023, 80.952 235.411, 85.139 244.647 C 90.828 257.194, 93.833 267.801, 95.524 281.304 C 97.177 294.500, 97.177 294.500, 101.991 299 C 112.604 308.920, 119.315 320.981, 125.424 341.112 C 128.235 350.376, 130.601 353.579, 133.867 352.542 C 139.013 350.909, 141.407 370.246, 138.009 386 C 136.764 391.775, 135.534 397.909, 135.277 399.632 C 134.739 403.231, 130.914 405.972, 128.784 404.284 C 128.078 403.725, 126.263 403.335, 124.750 403.417 C 120.779 403.632, 121.274 401.416, 126.165 397.075 C 130.874 392.897, 131.005 391.814, 128.977 373.833 C 128.439 369.066, 128.254 364.503, 128.564 363.693 C 128.910 362.792, 126.919 359.753, 123.431 355.860 C 107.877 338.500, 96.993 322.951, 94.428 314.428 C 93.625 311.759, 91.905 308.434, 90.606 307.038 C 87.415 303.609, 86 300.662, 86 297.446 C 86 295.473, 84.249 293.003, 79.397 288.130 C 75.765 284.484, 69.540 276.550, 65.564 270.500 C 55.583 255.314, 53.643 254.133, 50.610 261.392 C 49.810 263.305, 46.646 268.557, 43.578 273.062 C 37.878 281.432, 37.427 282.548, 38.841 284.777 C 41.518 288.995, 35.692 307.369, 26.409 323.988 C 20.051 335.371, 19.203 338.559, 21.403 342.812 C 23.630 347.118, 23.402 349.733, 20.500 353.182 C 17.807 356.383, 17.596 357.680, 17.965 368.750 C 18.220 376.409, 16.894 378.263, 14.223 373.985 C 13.392 372.655, 12.037 372.038, 10.232 372.168 C 4.566 372.578, 2.396 370.240, 5.467 367.034 C 7.496 364.916, 8.381 362.598, 9.153 357.374 C 9.712 353.593, 11.244 345.550, 12.557 339.500 C 13.870 333.450, 15.215 324.450, 15.546 319.500 C 16.075 311.586, 20.300 288.941, 21.658 286.745 C 21.932 286.300, 22.763 281.908, 23.502 276.985 C 24.774 268.519, 29.515 256.658, 33.488 252 C 34.191 251.175, 35.768 248.475, 36.991 246 C 38.215 243.525, 40.613 240.030, 42.321 238.233 C 45.274 235.125, 45.360 234.808, 44.085 231.733 C 30.120 198.047, 29.846 146.631, 43.533 127.795 C 44.850 125.983, 47.567 121.378, 49.571 117.562 C 56.136 105.062, 67.362 91.226, 69.500 93 C 73.008 95.911, 75.185 90.999, 74.157 82.491 C 71.637 61.630, 77.712 41.090, 89.727 29.852 C 106.223 14.422, 148.634 6.108, 158.342 16.402 C 161.927 20.202, 161.927 20.202, 164.450 18.218 C 165.896 17.081, 169.432 15.929, 172.736 15.519 C 175.906 15.126, 180.075 14.085, 182 13.205 C 186.342 11.220, 204.964 11.068, 211.269 12.966 C 218.480 15.137, 223.436 17.114, 225 18.443 C 228.512 21.428, 230.902 20.992, 234.268 16.751 C 240.922 8.368, 242.829 7, 247.856 7.004 C 253.383 7.008, 262.956 11.404, 266.075 15.369 C 267.558 17.253, 269.074 18, 271.419 18 C 273.220 18, 276.112 18.708, 277.847 19.574 C 280.435 20.864, 282.512 20.992, 289.413 20.285 C 306.737 18.508, 317.390 23.931, 332.076 42 C 339.526 51.165, 342.406 55.072, 344.500 58.855 C 345.600 60.841, 346.830 62.383, 347.233 62.280 C 348.814 61.878, 361.525 67.081, 363.302 68.857 C 365.441 70.997, 363.418 77, 360.557 77 C 355.394 77, 343 67.438, 343 63.455 C 343 61.210, 338.792 56.928, 334.151 54.451 C 331.593 53.085, 327.475 50.418, 325 48.523 C 322.525 46.628, 319.379 44.494, 318.009 43.780 C 316.639 43.066, 314.937 41.270, 314.227 39.788 C 312.079 35.306, 308.040 32.760, 304.011 33.349 C 285.124 36.110, 281.404 38.782, 286.695 45.787 C 301.602 65.522, 305.666 90.693, 297.526 112.884 C 296.470 115.762, 296.130 118.687, 296.537 121.399 C 297.031 124.690, 296.734 126.069, 295.078 128.173 C 293.673 129.960, 293 132.273, 293 135.320 C 293 143.808, 290.248 154.543, 285.744 163.627 C 283.324 168.507, 280.727 174.075, 279.972 176 C 279.218 177.925, 277.769 180.103, 276.753 180.840 C 274.522 182.458, 276.038 185, 279.234 185 C 284.261 185, 275.276 204.475, 265.750 214.227 C 259.707 220.413, 259.038 221.957, 261.512 224.010 C 262.343 224.700, 264.420 227.885, 266.127 231.087 C 269.745 237.874, 275.570 245, 277.501 245 C 278.241 245, 280.119 246.065, 281.673 247.366 C 284.663 249.868, 295 255.404, 295 254.503 C 295 254.212, 296.659 254.666, 298.686 255.513 C 301.155 256.545, 305.366 257.026, 311.436 256.969 C 316.421 256.923, 322.072 257.361, 323.993 257.943 C 335.374 261.387, 342.358 249.097, 335.409 237.853 C 334.727 236.749, 336.412 236.777, 349.576 238.089 C 366.044 239.729, 386.498 246.542, 401.580 255.409 C 404.836 257.324, 410.650 260.432, 414.500 262.318 C 418.350 264.203, 423.899 267.828, 426.832 270.373 C 429.764 272.918, 432.358 275, 432.597 275 C 432.835 275, 435.698 274.258, 438.958 273.352 C 444.886 271.704, 444.886 271.704, 450.477 274.532 C 457.820 278.248, 461.541 276.261, 456.700 271.209 C 453.038 267.387, 453.166 266.959, 459.750 260.971 C 466.701 254.649, 467.540 253.355, 465.937 251.424 C 465.099 250.414, 464.907 247.904, 465.324 243.433 C 465.885 237.431, 465.588 235.985, 461.582 225.207 C 448.224 189.267, 449.811 167.265, 467.187 147.525 C 473.013 140.906, 470.671 137.797, 461.891 140.496 C 442.670 146.406, 443.023 146.346, 426.938 146.424 C 411.375 146.500, 411.375 146.500, 406.438 150.856 C 403.722 153.252, 398.496 156.728, 394.824 158.581 C 391.153 160.434, 387.846 162.440, 387.476 163.038 C 386.579 164.489, 390.023 168.205, 391.677 167.570 C 392.977 167.072, 389.107 173.940, 386.233 177.234 C 385.400 178.187, 382.369 180.294, 379.496 181.915 C 373.324 185.399, 367 192.390, 367 195.730 C 367 197.033, 366.325 199.404, 365.500 201 C 364.675 202.595, 363.496 206.285, 362.879 209.200 C 360.802 219.009, 359.589 220.353, 355.911 216.917 C 354.194 215.313, 352.416 214, 351.962 214 C 347.946 214, 351.467 205.913, 358.058 200 C 359.910 198.339, 362.400 193.474, 365.481 185.500 C 370.561 172.349, 374.245 165.389, 377.470 162.848 C 378.624 161.939, 381.577 157.948, 384.034 153.978 C 396.618 133.644, 426.917 119.049, 456.628 119.009 C 465.674 118.997, 466.503 118.171, 465.097 110.566 C 463.789 103.491, 464.449 101.191, 467.098 103.589 C 468.822 105.149, 469.122 105.150, 471.474 103.609 C 474.658 101.523, 474.668 101.598, 470.596 96.841 C 468.312 94.173, 466.308 90.007, 464.505 84.182 C 462.637 78.144, 460.973 74.739, 459.041 73 C 453.374 67.899, 451.856 62.747, 455.218 60.025 C 458.047 57.733, 456.516 55.507, 451.457 54.558 C 445.129 53.371, 442.463 45.329, 446.849 40.661 C 449.534 37.803, 447.153 34.732, 442.283 34.774 C 440.752 34.787, 438.015 34.106, 436.200 33.261 C 432.448 31.514, 428.443 32.629, 427.295 35.741 C 425.700 40.064, 406.953 39.882, 402 35.497 C 400.724 34.367, 399.184 35.052, 391.691 40.084 C 386.846 43.338, 382.294 46, 381.576 46 C 377.073 46, 373 53.609, 373 62.021 C 373 66.247, 372.970 66.283, 371 64.500 C 369.900 63.505, 369 63.075, 369 63.545 C 369 64.015, 368.508 63.908, 367.906 63.306 C 366.438 61.838, 369.641 54.664, 375.353 46.634 C 377.752 43.260, 380.462 39.045, 381.374 37.267 C 383.171 33.766, 386.522 31.663, 391.952 30.627 C 393.850 30.265, 396.338 29.092, 397.479 28.020 C 401.720 24.036, 417.452 22.928, 417.515 26.609 C 417.677 36.021, 434.799 25.868, 435.170 16.140 C 435.336 11.780, 435.336 11.780, 441.408 12.467 C 444.748 12.845, 447.979 13.567, 448.588 14.073 C 450.997 16.072, 453.585 11.305, 451.405 8.884 C 449.542 6.814, 449.541 6.776, 451.393 7.134 C 455.104 7.852, 455.679 10.597, 453.105 15.307 C 450.038 20.922, 453.920 28.680, 457.837 24.763 C 458.694 23.906, 460.010 24.200, 463.104 25.938 C 467.316 28.306, 475.433 28.976, 478.577 27.217 C 480.898 25.918, 492.478 27.533, 497.044 29.792 C 499.338 30.927, 501.793 31.633, 502.501 31.361 C 505.543 30.194, 522.336 40.682, 528.034 47.308 C 531.187 50.974, 531.219 51.097, 528.904 50.616 C 527.582 50.341, 523.648 49.839, 520.163 49.499 C 512.535 48.755, 502.906 45.936, 493.705 41.752 C 484.790 37.699, 481.202 39.489, 486.711 45.241 C 489.189 47.828, 489.980 49.714, 490.549 54.386 C 491.047 58.484, 492.639 62.855, 495.790 68.779 C 507.204 90.235, 511.324 120.896, 505.427 140.500 C 500.850 155.716, 485.507 176.204, 472.049 185.070 C 470.230 186.269, 469.733 187.391, 469.947 189.820 C 470.266 193.424, 470.197 205.210, 469.782 218.500 C 469.522 226.784, 469.719 227.872, 472.250 232.178 C 474.249 235.579, 475 238.207, 475 241.806 C 475 248.656, 476.084 249.300, 484.582 247.500 C 492.784 245.763, 508.834 245.557, 516.015 247.097 C 523.323 248.664, 524.995 246.991, 525.014 238.095 C 525.034 228.318, 525.691 226.406, 528.047 229.275 C 531.240 233.163, 533.481 230.582, 533.592 222.890 C 533.699 215.415, 536.247 205.937, 539.236 201.894 C 541.024 199.476, 541.165 198.658, 540.171 196.476 C 536.393 188.184, 543.766 178.129, 550.846 181.918 C 552.322 182.707, 553.097 182.588, 554.064 181.423 C 555.158 180.105, 555.645 180.612, 557.495 184.989 C 558.752 187.962, 562.019 192.482, 565.326 195.824 C 568.447 198.978, 571 202.038, 571 202.624 C 571 206.641, 575.186 207.476, 578.232 204.067 C 581.279 200.657, 581.279 200.657, 580.670 205.078 C 580.336 207.510, 579.756 212.875, 579.382 217 C 578.631 225.271, 575.206 236.498, 572.104 240.855 C 569.017 245.189, 565.799 254.167, 566.332 256.956 C 567.046 260.690, 564.516 264.861, 557.814 271 C 551.887 276.428, 551.785 276.614, 549.997 285.224 C 548.470 292.576, 545.488 302.406, 544.329 303.911 C 544.155 304.136, 543.083 303.480, 541.948 302.453 C 540.369 301.024, 539.485 300.834, 538.191 301.644 C 535.373 303.411, 535.579 306.616, 538.644 308.660 C 546.463 313.875, 559 331.572, 559 337.394 C 559 341.271, 563.239 350.661, 566.496 353.996 C 570.782 358.385, 570.882 360.800, 567 366.159 C 565.346 368.441, 564 371.572, 564 373.134 C 564 377.038, 559.408 381.902, 554.731 382.952 C 550.962 383.798, 550.962 383.798, 553.037 380.440 C 564.341 362.149, 562.130 352.714, 542.724 336.443 C 529.938 325.723, 518.299 299.747, 523.638 293.847 C 528.204 288.802, 522.087 288.383, 499.117 292.170 C 478.303 295.600, 463.965 292.502, 454.984 282.633 C 451.500 278.804, 450.408 278.797, 448.963 282.597 C 448.400 284.077, 447.246 285, 445.958 285 C 444.808 285, 442.392 286.125, 440.589 287.500 C 436.405 290.691, 435.594 290.642, 433.032 287.045 C 431.745 285.237, 430.360 284.308, 429.464 284.652 C 427.553 285.386, 427.577 283.596, 429.500 282 C 433.619 278.581, 430.653 276.456, 416.765 272.877 C 405.350 269.935, 388.312 262.551, 384.313 258.814 C 382.295 256.928, 381.729 256.866, 376.978 258.005 C 374.146 258.685, 370.085 259.007, 367.954 258.721 C 365.336 258.369, 363.705 258.651, 362.927 259.588 C 360.704 262.267, 361.950 263.494, 375 271.482 C 385.477 277.894, 390.460 281.793, 393.318 285.816 C 395.068 288.279, 397.721 291.915, 399.214 293.897 C 400.707 295.879, 402.812 299.105, 403.891 301.067 C 404.971 303.029, 406.562 305.221, 407.427 305.939 C 409.473 307.637, 409.432 310.399, 407.334 312.128 C 406.418 312.882, 404.126 315.975, 402.241 319 C 400.356 322.025, 396.583 326.525, 393.857 329 C 390.635 331.925, 388.853 334.375, 388.767 336 C 388.694 337.375, 387.757 339.778, 386.685 341.340 C 384.742 344.171, 384.743 344.187, 386.864 346.308 C 389.470 348.914, 391.655 347.336, 392.136 342.500 C 392.333 340.515, 394.305 337.448, 397.967 333.434 C 406.421 324.165, 411.127 317.773, 410.568 316.317 C 409.358 313.164, 418.990 318.044, 423.125 322.679 C 424.019 323.680, 428.169 328.066, 432.347 332.424 C 436.525 336.782, 440.811 342.182, 441.871 344.424 C 445.034 351.114, 447.944 353.145, 455.180 353.717 C 467.529 354.693, 491.813 371.731, 490.576 378.552 C 490.111 381.119, 493.342 384.874, 494.460 383.065 C 496.179 380.283, 499.950 382.136, 505.551 388.515 C 508.892 392.321, 512.358 395.270, 513.885 395.608 C 519.190 396.781, 520.023 397.174, 520.977 398.957 C 521.873 400.631, 521.650 400.706, 518.226 399.882 C 516.177 399.388, 512.428 398.515, 509.896 397.941 C 506.840 397.248, 504.169 395.738, 501.950 393.449 C 500.112 391.552, 497.865 390, 496.958 390 C 496.050 390, 491.526 388.593, 486.904 386.873 C 482.282 385.152, 475.757 382.745, 472.403 381.523 C 461.353 377.495, 457.709 374.979, 459.716 372.762 C 462.469 369.719, 460.262 367.673, 452.894 366.442 C 445.995 365.290, 438.461 362.695, 427.671 357.757 C 420.940 354.676, 420.795 354.656, 417.617 356.367 C 414.531 358.029, 413.991 358.015, 404.984 356.050 C 391.983 353.212, 391.627 353.621, 395.889 366.475 C 398.110 373.172, 398.891 377.064, 398.467 379.323 C 397.771 383.035, 398.639 384.029, 406.500 388.516 C 409.250 390.086, 413.793 393.537, 416.597 396.185 C 422.189 401.468, 422.962 401.726, 426.425 399.457 C 428.668 397.988, 428.994 398.100, 433.306 401.832 C 437.201 405.203, 438.718 405.844, 444.198 406.431 C 452.129 407.280, 455.414 408.963, 449.184 408.985 C 444.469 409.001, 440.604 410.550, 441.531 412.050 C 442.878 414.229, 452.975 413.116, 455.591 410.500 C 458.077 408.014, 460 407.272, 460 408.800 C 460 409.240, 459.475 410.125, 458.833 410.767 C 457.143 412.457, 460.575 413.598, 462.513 411.989 C 466.122 408.994, 462.422 404.034, 456.527 403.965 C 454.862 403.945, 452.375 403.286, 451 402.500 C 449.625 401.714, 446.438 401.055, 443.917 401.035 C 439.822 401.004, 439.006 400.591, 436.243 397.153 C 432.141 392.048, 427.643 390.109, 425.146 392.368 C 422.508 394.756, 421.760 394.487, 416.292 389.189 C 413.561 386.543, 409.951 383.808, 408.270 383.112 C 405.126 381.810, 404.861 381.115, 400.310 362.255 C 399.769 360.010, 399.769 360.010, 404.440 362.076 C 408.200 363.740, 411.323 364.163, 420.453 364.248 C 428.658 364.324, 432.630 364.788, 434.812 365.927 C 447.894 372.749, 451.196 374.711, 456.315 378.702 C 459.513 381.195, 464.189 383.855, 466.706 384.612 C 469.223 385.370, 471.781 386.398, 472.391 386.898 C 473.906 388.138, 493.890 396, 495.529 396 C 496.254 396, 498.122 397.074, 499.682 398.386 C 502.779 400.992, 509.302 404, 511.856 404 C 512.743 404, 515.812 405.227, 518.678 406.727 C 523.887 409.455, 523.887 409.455, 526.443 407.053 C 531.860 401.965, 522.773 390, 513.492 390 C 512.685 390, 510.840 388.087, 509.392 385.750 C 505.372 379.262, 501.927 376, 499.093 376 C 497.212 376, 494.242 373.608, 487.531 366.689 C 475.345 354.125, 463.432 347.558, 453.239 347.786 C 450.551 347.847, 449.692 347.302, 448.343 344.680 C 443.488 335.241, 435.450 325.238, 427.210 318.380 C 415.270 308.443, 415.023 308.180, 410.500 300.533 C 401.196 284.803, 388.610 271.513, 377.603 265.795 C 374.707 264.290, 374.707 264.290, 377.438 263.605 C 380.954 262.723, 382.867 263.373, 389.100 267.567 C 391.905 269.455, 394.947 271, 395.858 271 C 396.770 271, 399.596 272.108, 402.139 273.461 C 404.682 274.815, 410.679 276.905, 415.467 278.105 C 424.171 280.288, 424.171 280.288, 421.460 282.450 C 418.805 284.568, 418.782 284.678, 420.373 287.755 C 424.596 295.921, 432.948 298.793, 438.859 294.112 C 441.027 292.395, 444.288 290.692, 446.106 290.329 C 447.925 289.965, 450.521 289.092, 451.876 288.389 C 454.170 287.199, 454.717 287.454, 459.761 292.064 C 463.690 295.655, 465.912 296.971, 467.840 296.848 C 469.303 296.755, 472.653 297.426, 475.285 298.339 C 481.146 300.374, 487.063 300.452, 493.568 298.582 C 496.281 297.803, 502.250 297.015, 506.833 296.832 C 516.090 296.463, 515.812 296.195, 519.473 309.006 C 520.181 311.484, 522.164 316.107, 523.880 319.279 C 525.596 322.450, 527 325.669, 527 326.432 C 527 328.108, 534.705 336.087, 545.337 345.419 C 549.648 349.202, 553.498 353.173, 553.894 354.243 C 554.756 356.572, 553.193 370.100, 551.906 371.450 C 551.408 371.973, 551 373.339, 551 374.488 C 551 375.636, 549.668 378.134, 548.041 380.038 C 544.446 384.243, 544.366 385.056, 547.274 387.787 C 552.465 392.664, 567.748 383.788, 568.677 375.357 C 568.923 373.118, 570.590 369.339, 572.649 366.348 C 576.705 360.459, 576.611 359.283, 571.512 352.086 C 569.725 349.564, 567.340 345.025, 566.213 342 C 562.075 330.891, 558.777 324.554, 553.451 317.478 C 545.877 307.414, 546.413 302.400, 554.411 308.500 C 556.214 309.875, 557.979 311, 558.333 311 C 561.006 311, 582.642 328.422, 594.610 340.212 C 598.937 344.473, 601.415 344.089, 598.481 339.611 C 597.135 337.557, 597.087 336.833, 598.182 335.080 C 599.226 333.408, 599.238 332.646, 598.240 331.247 C 597.556 330.286, 596.553 328.476, 596.013 327.224 C 595.472 325.973, 594.236 324.651, 593.265 324.286 C 590.614 323.291, 588.989 320.787, 589.259 318.113 C 589.573 315.007, 586.787 313.102, 584.593 314.922 C 583.627 315.724, 583.233 317.082, 583.574 318.439 C 583.914 319.792, 583.522 321.152, 582.564 321.947 C 580.835 323.381, 580.385 322.015, 582.041 320.359 C 583.111 319.289, 576.029 309.634, 573.985 309.375 C 573.443 309.306, 572.663 309.140, 572.250 309.007 C 571.837 308.873, 571.163 308.816, 570.750 308.882 C 570.338 308.947, 570.071 308.662, 570.159 308.250 C 571.327 302.731, 565.288 298.873, 560.518 302.093 C 552.531 307.483, 551.024 305.447, 553.908 293.163 C 555.059 288.262, 556 283.363, 556 282.275 C 556 281.187, 558.675 277.418, 561.943 273.899 C 568.268 267.089, 574.380 256.613, 573.888 253.426 C 573.724 252.367, 574.223 250.375, 574.997 249 C 575.771 247.625, 576.504 245.898, 576.626 245.162 C 576.749 244.427, 577.558 243.041, 578.424 242.084 C 579.291 241.126, 580 239.590, 580 238.671 C 580 236.684, 580.413 236.617, 582.932 238.190 C 587.205 240.858, 589.909 234.038, 585.986 230.487 C 584.878 229.485, 584.186 227.952, 584.448 227.082 C 584.710 226.212, 585.013 222.800, 585.123 219.500 C 585.393 211.325, 586.741 208.185, 588.749 211.052 C 590.389 213.394, 593.322 212.003, 592.309 209.363 C 591.976 208.496, 592.628 207.248, 593.869 206.380 C 597.869 203.577, 594.333 196.764, 589.313 197.603 C 585.856 198.180, 586.754 194.185, 591.186 189.272 C 593.428 186.787, 595 184.029, 595 182.581 C 595 181.227, 595.457 179.835, 596.016 179.490 C 596.575 179.144, 596.762 178.423, 596.430 177.887 C 596.099 177.351, 596.339 176.296, 596.964 175.543 C 601.071 170.595, 594.865 155.752, 584.745 146.316 C 579.026 140.983, 576.115 131.999, 577.927 125.271 C 578.685 122.457, 578.733 119.767, 578.078 116.851 C 577.505 114.302, 577.480 112.127, 578.016 111.481 C 579.071 110.209, 578.256 106.332, 576.345 103.527 C 575.605 102.443, 575 100.801, 575 99.879 C 575 95.643, 568.471 85.712, 557.421 73.141 C 555.177 70.588, 551.720 65.800, 549.740 62.500 C 545.374 55.227, 524.219 34.120, 518.299 31.131 C 506.986 25.418, 491.576 21, 482.964 21 C 478.056 21, 478.056 21, 475.900 15.990 C 473.902 11.344, 463.332 0, 461.002 -0 C 458.399 -0, 459.560 2.282, 464.091 6.076 C 471.185 12.016, 477.142 23.937, 473.105 24.115 C 468.552 24.316, 466.593 23.867, 462.794 21.748 C 459.745 20.047, 458.817 19.907, 457.556 20.953 C 454.960 23.108, 454.517 19.517, 456.903 15.657 C 461.210 8.688, 452.845 -0.906, 447.557 4.937 C 446.593 6.002, 446.124 7.391, 446.514 8.023 C 447.036 8.867, 445.719 8.984, 441.557 8.464 C 434.388 7.568, 431.416 9.746, 431.168 16.078 C 430.948 21.682, 429.574 23.748, 425.271 24.936 C 421.107 26.085, 414.905 22.024, 416.990 19.512 C 417.514 18.880, 418.432 16.084, 419.030 13.297 C 419.627 10.511, 421.216 6.740, 422.561 4.918 C 424.284 2.581, 424.691 1.295, 423.941 0.552 C 421.777 -1.587, 416.450 6.729, 414.600 15.134 C 414.079 17.499, 413.434 17.835, 408.260 18.440 C 400.849 19.305, 396.008 20.801, 393.500 23 C 392.400 23.965, 389.823 25.290, 387.774 25.947 C 383.496 27.316, 376.788 34.382, 373.848 40.614 C 372.781 42.876, 369.904 47.076, 367.454 49.945 C 365.004 52.815, 363 55.769, 363 56.510 C 363 62.750, 350.987 60.077, 346.165 52.765 C 339.453 42.585, 319.806 21.882, 316.381 21.380 C 315.730 21.284, 313.911 20.254, 312.338 19.092 C 308.149 15.994, 305.724 15.547, 293 15.521 C 286.675 15.508, 280.825 15.060, 280 14.524 C 279.175 13.989, 277.375 13.410, 276 13.238 C 274.625 13.066, 272.375 12.039, 271 10.957 C 265.640 6.738, 263.890 5.764, 257.310 3.336 C 246.941 -0.490, 246.093 -0.489, 241 3.352 M 122.440 23.260 C 120.206 25.042, 115.905 29.039, 112.881 32.143 C 109.238 35.881, 104.685 39.142, 99.386 41.806 C 88.727 47.165, 88.643 47.289, 90.400 55.121 C 91.186 58.630, 92.359 64.763, 93.006 68.751 C 94.613 78.667, 96.090 80.319, 102.296 79.147 C 106.953 78.267, 107.043 78.295, 105.387 80.125 C 103.673 82.019, 104.644 88.196, 107.193 91.618 C 109.308 94.458, 121.773 96.252, 126.595 94.411 C 131.137 92.676, 131.137 92.676, 134.226 95.764 C 137.314 98.853, 137.314 98.853, 131.670 100.494 C 128.566 101.396, 125.551 101.840, 124.969 101.481 C 123.353 100.482, 121 102.954, 121 105.652 C 121 107.288, 123.061 110.089, 127.438 114.402 C 134.920 121.774, 140.041 129.467, 149.474 147.500 C 157.724 163.273, 158.794 164.514, 165.898 166.548 C 172.876 168.545, 183.329 174.173, 188.168 178.538 C 195.162 184.847, 196.080 185.194, 201.851 183.717 C 210.324 181.549, 210.418 180.748, 203 173.852 C 199.425 170.528, 194.603 166.036, 192.284 163.868 C 169.621 142.686, 188.059 116.676, 231.858 108.042 C 237.555 106.919, 243.448 106, 244.953 106 C 248.092 106, 251 103.274, 251 100.331 C 251 96.015, 257.055 86.058, 261.567 82.954 C 269.586 77.437, 268.946 73, 260.131 73 C 257.408 73, 254.905 72.251, 253.051 70.879 C 250.363 68.893, 250.036 68.861, 247.869 70.379 C 244.857 72.489, 244.076 72.425, 244.680 70.117 C 244.989 68.934, 244.384 67.682, 243.054 66.751 C 240.936 65.267, 240.936 65.267, 244.470 58.488 C 247.150 53.346, 247.736 51.387, 246.896 50.375 C 246.053 49.359, 246.411 48.300, 248.394 45.943 C 253.153 40.288, 248.673 23, 242.448 23 C 241.786 23, 240.748 22.402, 240.141 21.670 C 238.142 19.261, 233.238 20.912, 229.909 25.114 C 226.365 29.590, 224.300 30.044, 223.421 26.541 C 222.303 22.086, 220.065 21.184, 217.632 24.208 C 214.346 28.291, 198.869 28.676, 191.725 24.853 C 189.737 23.789, 182.203 22.175, 175.226 21.319 C 169.995 20.677, 167.878 22.123, 168.608 25.837 C 169.390 29.814, 165.161 31.337, 155.517 30.551 C 149.570 30.067, 147.515 30.272, 145.577 31.541 C 143.040 33.204, 139 32.199, 139 29.906 C 139 29.337, 139.555 29.229, 140.250 29.663 C 142.251 30.913, 144.332 30.969, 145.728 29.811 C 147.390 28.431, 145.855 26.431, 142.485 25.586 C 141.147 25.250, 138.402 23.856, 136.386 22.487 C 131.358 19.075, 127.410 19.294, 122.440 23.260 M 236.659 24.767 C 235.647 24.995, 233.059 26.941, 230.909 29.091 C 228.759 31.241, 226.325 33, 225.500 33 C 224.675 33, 224 33.707, 224 34.571 C 224 35.434, 222.227 38.247, 220.059 40.821 C 207.916 55.241, 210.029 68.161, 224.995 70.999 C 230.044 71.957, 230.044 71.957, 233.772 67.912 C 239.094 62.139, 243.923 52.824, 242.644 50.798 C 241.889 49.600, 242.300 48.432, 244.322 46.029 C 247.880 41.801, 246.536 27, 242.594 27 C 242.079 27, 240.947 26.404, 240.079 25.676 C 239.210 24.948, 237.672 24.539, 236.659 24.767 M 126.500 26.001 C 125.400 26.482, 120.238 30.771, 115.030 35.532 C 109.821 40.294, 103.441 45.263, 100.851 46.576 C 94.993 49.544, 94.673 50.071, 95.903 54.729 C 96.450 56.803, 97.466 62.020, 98.161 66.322 C 99.561 74.997, 98.582 74.343, 107.555 72.591 C 111.084 71.902, 117.262 69.037, 120.446 66.613 C 133.757 56.481, 147.127 57.190, 154.750 68.433 C 161.888 78.961, 152.066 97.222, 135.592 104.050 C 129.107 106.738, 129.154 106.617, 132.750 111.328 C 134.262 113.310, 137.074 117.084, 138.999 119.715 C 140.923 122.347, 143.293 125.093, 144.266 125.818 C 145.238 126.544, 145.787 127.535, 145.486 128.022 C 145.186 128.509, 147.091 132.750, 149.720 137.448 C 152.349 142.146, 156.326 149.379, 158.557 153.521 C 160.788 157.664, 162.856 160.810, 163.153 160.514 C 163.450 160.217, 166.250 161.105, 169.375 162.487 C 176.392 165.591, 178.015 165.673, 177.480 162.898 C 176.851 159.627, 174.976 157.965, 172.438 158.425 C 171.162 158.657, 169.581 158.200, 168.926 157.411 C 168.090 156.404, 167.366 156.281, 166.500 157 C 163.305 159.652, 160.253 143, 163.247 139.250 C 163.796 138.563, 163.910 138, 163.500 138 C 163.090 138, 163.315 137.325, 164 136.500 C 164.685 135.675, 166.341 135, 167.681 135 C 169.022 135, 169.888 134.627, 169.606 134.172 C 167.961 131.510, 178.320 125.647, 180.379 128.075 C 182.445 130.512, 182.445 130.512, 189.940 122.668 C 200.569 111.543, 227.687 101, 245.675 101 C 245.854 101, 246 100.310, 246 99.467 C 246 96.661, 250.767 88.475, 255.405 83.317 C 260.847 77.264, 260.599 77.130, 243 76.584 C 230.441 76.195, 227.752 77.043, 230.906 80.400 C 233.488 83.148, 233.560 85.183, 231.154 87.360 C 227.797 90.399, 224.053 86.298, 224.472 80.041 C 224.790 75.290, 224.697 75.092, 221.827 74.462 C 207.383 71.290, 204.545 54.494, 216.128 40.740 C 220.519 35.525, 221.181 31.226, 217.500 31.826 C 206.359 33.644, 193.427 32.551, 188.264 29.356 C 183.304 26.286, 174.683 26.494, 172.904 29.726 C 170.530 34.039, 164.930 36.247, 155.539 36.574 C 151.118 36.728, 145.925 37.146, 144 37.502 C 139.168 38.398, 133.569 34.695, 133.342 30.454 C 133.255 28.829, 133.142 26.938, 133.092 26.250 C 132.987 24.830, 129.482 24.697, 126.500 26.001 M 300.500 40 C 298.300 41.018, 295.825 41.892, 295 41.941 C 290.774 42.193, 291.036 43.564, 297.886 57.064 C 308.619 78.214, 310.108 107.549, 301.487 128.030 C 300.120 131.279, 298.559 136.990, 298.020 140.719 C 296.774 149.337, 296.761 149, 298.345 149 C 299.085 149, 300.479 149.872, 301.444 150.938 C 302.791 152.426, 303.736 152.671, 305.521 151.992 C 307.198 151.355, 308.186 151.519, 309.069 152.584 C 310.549 154.367, 306.488 159.401, 304.260 158.546 C 300.833 157.231, 301.158 162.455, 304.735 166.179 C 308.650 170.257, 308.592 172.444, 304.526 173.990 C 303.098 174.533, 302 175.744, 302 176.775 C 302 177.779, 301.501 179.099, 300.892 179.708 C 300.081 180.519, 300.103 181.782, 300.973 184.417 C 302.254 188.300, 304.480 188.292, 303.738 184.408 C 302.959 180.335, 306.675 177.881, 309.095 180.869 C 311.227 183.502, 311.530 185.555, 309.932 186.542 C 309.344 186.905, 309.100 187.817, 309.388 188.569 C 309.677 189.321, 309.482 190.202, 308.956 190.527 C 305.449 192.695, 309.509 197.486, 314.014 196.497 C 316.958 195.850, 317.038 195.707, 315.644 193.580 C 313.638 190.517, 312.716 182.218, 313.832 177.254 C 314.370 174.859, 314.383 172.783, 313.863 172.263 C 312.369 170.769, 317.406 166.984, 321.592 166.455 C 323.741 166.184, 326.336 165.699, 327.358 165.379 C 328.658 164.972, 330.463 166.020, 333.359 168.861 C 337.780 173.200, 342.604 173.535, 338.710 169.232 C 336.506 166.797, 336.543 164.723, 338.829 162.655 C 342.171 159.630, 346 161.256, 346 165.700 C 346 167.567, 346.542 168, 348.878 168 C 350.460 168, 352.315 168.675, 353 169.500 C 357.557 174.991, 366.260 161.031, 361.821 155.351 C 361.243 154.611, 361.762 153.225, 363.279 151.462 C 365.636 148.722, 365.636 148.722, 367.671 151.308 C 369.610 153.774, 372 153.441, 372 150.704 C 372 146.123, 379.346 142.302, 382.001 145.501 C 383.066 146.784, 383.662 146.347, 386.108 142.491 C 390.682 135.278, 403.197 127.910, 423 120.768 C 432.933 117.187, 432.420 117.488, 431.397 115.834 C 428.401 110.986, 436.382 103.140, 439.944 107.432 C 440.841 108.513, 440.676 109.116, 439.197 110.160 C 437.475 111.376, 437.038 114.371, 438.387 115.720 C 438.682 116.015, 440.940 115.749, 443.405 115.128 C 445.869 114.508, 450.338 114, 453.334 114 C 459.703 114, 460.901 112.060, 458.967 104.878 C 458.354 102.602, 458.167 98.513, 458.539 95.536 C 458.984 91.974, 458.824 90.009, 458.052 89.532 C 457.264 89.045, 457.222 88.437, 457.919 87.598 C 459.035 86.253, 456.065 79.074, 452.914 75.500 C 450.947 73.270, 447 63.808, 447 61.325 C 447 60.444, 445.200 57.771, 443 55.384 C 439.581 51.675, 439 50.397, 439 46.590 C 439 41.115, 437.262 40.258, 430.917 42.604 C 424.487 44.980, 410.160 45.455, 407.854 43.368 C 406.724 42.345, 405.422 42.033, 404.287 42.512 C 403.304 42.928, 400.889 43.178, 398.921 43.070 C 396.079 42.912, 394.283 43.708, 390.200 46.936 C 387.373 49.171, 384.596 51, 384.029 51 C 381.255 51, 379 55.095, 379 60.134 C 379 87.251, 350.406 90.473, 337.916 64.764 C 336.364 61.570, 334.832 59.979, 332.491 59.133 C 330.696 58.484, 327.264 56.230, 324.864 54.123 C 322.464 52.017, 319.001 49.522, 317.168 48.579 C 315.335 47.635, 311.925 44.869, 309.589 42.432 C 307.254 39.994, 305.153 38.033, 304.921 38.074 C 304.690 38.115, 302.700 38.982, 300.500 40 M 496.649 54.645 C 497.001 57.315, 498.804 62.535, 500.655 66.245 C 502.506 69.955, 503.981 73.230, 503.934 73.524 C 503.886 73.818, 504.995 77.083, 506.397 80.779 C 516.131 106.437, 515.631 140.210, 505.284 155.982 C 502.728 159.879, 502.295 161.830, 504.367 160.110 C 506.270 158.531, 507.791 160.645, 507.527 164.500 C 507.414 166.150, 507.626 167.950, 507.997 168.500 C 509.019 170.015, 508.981 181.166, 507.947 183.098 C 507.258 184.387, 507.636 185.186, 509.520 186.421 C 510.884 187.315, 512 188.936, 512 190.023 C 512 191.110, 512.477 192, 513.059 192 C 513.641 192, 513.871 191.601, 513.570 191.113 C 512.770 189.818, 515.193 188.208, 517.407 188.563 C 522.378 189.361, 524.357 195.991, 519.628 196.003 C 519.007 196.004, 517.574 197.692, 516.441 199.753 C 515.309 201.814, 513.789 203.368, 513.063 203.207 C 512.141 203.003, 511.929 203.604, 512.359 205.207 C 512.696 206.468, 512.979 207.812, 512.986 208.193 C 512.994 208.574, 513.885 208.715, 514.967 208.506 C 517.812 207.958, 522.992 214.795, 523.027 219.144 C 523.054 222.500, 523.054 222.500, 525.981 219 C 531.015 212.981, 533.486 204.817, 533.496 194.177 C 533.506 183.207, 539.567 176, 548.784 176 C 551.398 176, 555.593 166.430, 557.394 156.360 C 558.194 151.883, 560.002 145.336, 561.412 141.811 C 564.571 133.915, 564.590 122.414, 561.449 118.944 C 559.886 117.216, 559.644 115.509, 559.884 107.904 C 560.216 97.420, 560.313 97.593, 550.622 91.324 C 536.542 82.216, 522 65.340, 522 58.109 C 522 55.476, 521.546 55.273, 514.192 54.618 C 510.734 54.311, 507.423 53.761, 506.834 53.398 C 506.246 53.034, 504.355 52.397, 502.632 51.983 C 500.909 51.569, 498.715 50.906, 497.755 50.510 C 496.189 49.864, 496.075 50.288, 496.649 54.645 M 535.336 54.669 C 536.359 55.693, 532.930 59, 530.845 59 C 523.829 59, 541.240 80.292, 552.311 85.250 C 557.544 87.594, 562.067 87.013, 558.027 84.517 C 557.491 84.186, 556.307 82.341, 555.394 80.418 C 554.481 78.495, 551.833 74.802, 549.509 72.211 C 547.184 69.620, 544.268 65.475, 543.029 63 C 540.567 58.086, 537.221 54, 535.659 54 C 535.113 54, 534.968 54.301, 535.336 54.669 M 132.994 63.883 C 129.360 65.063, 125.227 67.306, 119.150 71.398 C 116.207 73.379, 113.183 75, 112.431 75 C 111.678 75, 111.290 75.591, 111.567 76.313 C 111.844 77.035, 111.155 78.455, 110.035 79.468 C 102.929 85.899, 115.840 94.518, 126.489 90.451 C 130.875 88.776, 130.875 88.776, 135.873 92.990 C 142.172 98.301, 145.553 96.381, 152.078 83.790 C 158.165 72.041, 146.226 59.587, 132.994 63.883 M 462.637 95.226 C 461.542 99.310, 461.801 100.410, 463.519 98.984 C 464.762 97.953, 465.398 98.050, 467.025 99.523 C 470.333 102.516, 470.015 100.748, 466.523 96.726 C 463.360 93.083, 463.225 93.031, 462.637 95.226 M 375.762 98.073 C 372.247 100.121, 371.619 102.966, 374.101 105.608 C 375.854 107.474, 376.102 108.298, 375.187 109.213 C 374.534 109.866, 374 111.824, 374 113.563 C 374 116.228, 373.645 116.700, 371.750 116.555 C 368.626 116.317, 366.668 117.895, 368.038 119.546 C 369.639 121.475, 370.213 126.039, 369.033 127.460 C 367.360 129.476, 371.596 134.287, 373.939 133.033 C 374.928 132.503, 375.965 132.299, 376.244 132.577 C 377.460 133.794, 381.999 126.821, 381.067 125.168 C 380.372 123.936, 380.731 122.847, 382.440 121 C 383.712 119.625, 385.988 116.250, 387.496 113.500 C 389.004 110.750, 390.838 107.643, 391.572 106.595 C 394.124 102.949, 388.800 98.030, 384.655 100.204 C 383.228 100.953, 382.477 100.699, 381.348 99.086 C 379.739 96.789, 378.387 96.544, 375.762 98.073 M 565.597 101.299 C 564.627 107.639, 565.635 112.548, 567.577 110.936 C 568.346 110.298, 569.685 110.049, 570.553 110.382 C 572.432 111.103, 572.005 109.193, 568.567 101.500 C 566.332 96.500, 566.332 96.500, 565.597 101.299 M 384.140 106.707 C 382.885 108.621, 382.085 110.779, 382.362 111.500 C 382.973 113.093, 379.672 116.308, 378.510 115.252 C 378.054 114.838, 377.959 115.275, 378.299 116.223 C 378.700 117.343, 378.154 118.479, 376.736 119.473 C 375.536 120.313, 374.970 121, 375.477 121 C 375.985 121, 375.860 121.540, 375.200 122.200 C 373.529 123.871, 373.699 127.671, 375.476 128.352 C 376.623 128.793, 376.871 128.225, 376.588 125.801 C 376.324 123.532, 376.871 122.038, 378.597 120.312 C 379.902 119.007, 382.101 115.913, 383.484 113.436 C 384.866 110.960, 386.689 107.877, 387.535 106.587 C 388.776 104.693, 388.817 104.144, 387.747 103.733 C 386.988 103.442, 385.449 104.711, 384.140 106.707 M 270.982 121.048 C 269.617 122.097, 268.007 122.966, 267.405 122.978 C 266.803 122.990, 265.495 123.900, 264.500 125 C 262.609 127.089, 258.547 127.694, 257.524 126.038 C 257.167 125.461, 256.023 125.421, 254.664 125.938 C 253.418 126.412, 250.396 126.583, 247.949 126.319 C 243.820 125.873, 242.924 126.245, 235.500 131.489 C 226.375 137.934, 216.320 143.298, 210.349 144.906 C 198.909 147.986, 199.255 151.318, 211.670 157.656 C 223.102 163.491, 233.790 176.649, 236.364 188.055 C 237.701 193.980, 247.593 202.742, 250.138 200.255 C 252.380 198.063, 252.397 197.907, 250.826 193.669 C 248.950 188.608, 254.535 180.643, 260.844 179.381 C 266.794 178.191, 267.546 176.189, 265.656 166.569 C 262.674 151.390, 263.647 145.689, 271.594 131.797 C 276.279 123.605, 276.749 121.867, 274.732 120.193 C 273.816 119.432, 272.777 119.669, 270.982 121.048 M 571 132.763 C 571 133.953, 570.100 137.209, 569 140 C 566.458 146.450, 566.475 146.559, 569.635 144.073 C 571.084 142.933, 572.884 142, 573.635 142 C 575.298 142, 575.359 140.372, 573.864 135.899 C 572.389 131.489, 571 129.968, 571 132.763 M 238.057 138.033 C 234.919 140.551, 230.810 143.222, 228.926 143.968 C 216.829 148.758, 212.487 151.269, 214.362 152.389 C 220.131 155.831, 229.263 163.708, 231.139 166.859 C 236.906 176.543, 241.909 180.003, 245.764 176.971 C 247.531 175.581, 248.666 175.266, 249.371 175.971 C 254.974 181.574, 258.620 175.262, 257.577 161.769 C 256.654 149.831, 256.654 149.831, 259.827 143.396 C 263.664 135.615, 263.672 136.449, 259.750 134.973 C 251.784 131.975, 244.287 133.033, 238.057 138.033 M 111.018 142.101 C 108.002 144.307, 102.322 149.125, 98.395 152.806 C 94.467 156.488, 90.493 160.107, 89.562 160.850 C 87.975 162.117, 87.977 162.317, 89.598 164.108 C 91.165 165.840, 91.483 165.873, 93.038 164.466 C 94.604 163.048, 94.963 163.167, 97.224 165.855 C 99.698 168.794, 99.698 168.794, 102.808 166.825 C 105.095 165.376, 106.384 165.116, 107.678 165.839 C 109.039 166.601, 110.155 166.193, 112.617 164.031 C 115.006 161.934, 116.508 161.362, 118.649 161.733 C 121.500 162.228, 121.500 162.228, 118 159.196 C 115.204 156.774, 114.749 155.909, 115.736 154.896 C 117.564 153.020, 120.621 152.839, 122.018 154.522 C 123.707 156.556, 125.286 156.373, 126.788 153.968 C 127.917 152.160, 127.542 151.303, 123.403 146.222 C 120.843 143.079, 118.532 139.943, 118.267 139.254 C 117.578 137.459, 117.110 137.642, 111.018 142.101 M 169.552 139.586 C 168.536 140.328, 167.322 140.699, 166.853 140.409 C 166.384 140.119, 166 140.782, 166 141.882 C 166 142.982, 166.430 144.148, 166.956 144.473 C 167.482 144.798, 167.623 145.837, 167.269 146.782 C 166.714 148.265, 166.850 148.318, 168.265 147.167 C 169.166 146.434, 170.713 146.092, 171.702 146.405 C 173.044 146.831, 173.540 146.408, 173.658 144.738 C 173.744 143.507, 173.969 141.653, 174.158 140.617 C 174.581 138.291, 172.087 137.732, 169.552 139.586 M 574.500 145.343 C 573.400 145.935, 571.193 147.290, 569.596 148.354 C 567.316 149.872, 566.307 150.048, 564.904 149.172 C 562.790 147.852, 562.638 148.208, 560.915 158.500 C 560.270 162.350, 558.914 167.143, 557.901 169.152 C 556.291 172.346, 556.244 172.958, 557.530 174.025 C 558.338 174.696, 559 176.119, 559 177.187 C 559 181.809, 563.419 189.659, 569.127 195.177 C 572.357 198.300, 575 201.442, 575 202.159 C 575 202.877, 576.141 201.785, 577.536 199.732 C 578.931 197.679, 580.731 196, 581.536 196 C 582.341 196, 583 195.456, 583 194.792 C 583 194.128, 584.510 191.990, 586.355 190.042 C 590.416 185.756, 593.307 176.195, 593.117 167.686 C 592.895 157.738, 580.068 142.344, 574.500 145.343 M 451.500 149.032 C 441.845 151.842, 420.116 153.426, 417.067 151.542 C 415.735 150.718, 414.510 153.102, 414.863 155.831 C 415.338 159.507, 412.460 161.949, 408.423 161.294 C 404.202 160.609, 402.621 161.841, 399.293 168.408 C 396.481 173.957, 386.468 184.930, 381.303 188.122 C 378.904 189.605, 377.999 190.893, 377.996 192.832 C 377.992 195.664, 375.177 200.993, 371.671 204.803 C 370.398 206.186, 369.495 208.584, 369.412 210.803 C 369.335 212.836, 368.097 217.824, 366.661 221.887 C 363.394 231.133, 363.195 230.904, 374.377 230.793 C 379.508 230.742, 384.223 231.020, 384.853 231.409 C 386.698 232.550, 386.185 231.109, 383.485 227.569 C 381.347 224.766, 381.183 224.093, 382.395 223.087 C 383.372 222.277, 384.027 222.235, 384.472 222.954 C 384.882 223.619, 385.743 223.673, 386.811 223.101 C 387.740 222.604, 388.801 222.040, 389.169 221.849 C 389.538 221.657, 390.981 222.573, 392.376 223.884 C 394.393 225.779, 395.571 226.136, 398.120 225.626 C 400.311 225.188, 401.850 225.459, 402.982 226.483 C 404.473 227.833, 404.853 227.690, 406.815 225.037 C 408.258 223.085, 410.257 221.855, 412.746 221.389 C 414.811 221.003, 417.638 219.846, 419.029 218.818 C 421.184 217.227, 422.047 217.120, 424.855 218.099 C 427.296 218.950, 428.443 218.957, 429.276 218.124 C 430.867 216.533, 433.658 216.730, 436.572 218.639 C 438.952 220.199, 439.196 220.165, 441.550 217.953 C 443.461 216.158, 444.298 215.898, 445.213 216.813 C 449.079 220.679, 449.641 215.667, 447.547 196 C 445.387 175.697, 447.700 165.418, 457.395 152.250 C 459.925 148.813, 461.884 146.027, 461.748 146.061 C 461.612 146.095, 457 147.432, 451.500 149.032 M 376.293 149.750 C 375.939 150.713, 373.703 153.686, 371.325 156.358 C 368.946 159.030, 367 162.139, 367 163.266 C 367 168.438, 355.671 176.719, 353 173.500 C 352.315 172.675, 350.348 172.007, 348.628 172.015 C 345.700 172.029, 344.631 172.453, 339.078 175.809 C 337.135 176.983, 336.621 176.806, 334.085 174.091 C 330.811 170.586, 322.144 168.326, 323.274 171.272 C 323.964 173.070, 321.771 175.368, 320.441 174.241 C 319.960 173.834, 320.119 174.228, 320.795 175.117 C 322.036 176.750, 321.175 178.269, 318.500 179.165 C 316.860 179.714, 317.744 190.680, 319.664 193.611 C 321.346 196.177, 321.330 196.314, 319.128 198.097 C 314.569 201.789, 307.278 201.778, 306.310 198.078 C 305.940 196.663, 305.160 196.285, 303.303 196.621 C 299.871 197.244, 298 195.399, 298 191.392 C 298 189.542, 297.467 186.036, 296.816 183.600 C 295.710 179.467, 295.801 178.950, 298.172 175.836 C 301.644 171.276, 302.466 168.393, 300.506 167.641 C 298.379 166.824, 297.083 162.957, 298.064 160.353 C 299.112 157.570, 298.004 156.456, 296.589 158.870 C 290.310 169.584, 287.615 176.842, 288.635 180.298 C 288.927 181.287, 288.740 182.637, 288.221 183.298 C 287.149 184.662, 285.634 194.700, 286.654 193.680 C 287.504 192.830, 290.134 194.974, 289.500 196 C 289.237 196.425, 289.665 197.307, 290.452 197.960 C 291.238 198.612, 291.648 199.754, 291.363 200.496 C 290.678 202.280, 293.291 203.583, 300.068 204.836 C 308.724 206.436, 320.053 213.440, 325.068 220.291 C 328.256 224.648, 334.212 229, 336.985 229 C 338.029 229, 339.120 229.385, 339.411 229.856 C 340.017 230.836, 349.763 230.146, 351.962 228.967 C 353.078 228.369, 352.535 227.658, 349.675 225.971 C 340.705 220.678, 341.001 212.279, 350.650 198.244 C 354.326 192.898, 358.427 185.818, 359.762 182.512 C 364.130 171.698, 370.059 161.243, 375.075 155.511 C 377.784 152.416, 380 149.460, 380 148.942 C 380 147.276, 376.960 147.939, 376.293 149.750 M 123.403 163.104 C 121.332 165.267, 119.826 166.007, 118.149 165.687 C 116.559 165.384, 114.768 166.143, 112.617 168.031 C 110.168 170.182, 109.035 170.599, 107.691 169.847 C 106.409 169.130, 105.051 169.423, 102.577 170.953 C 99.207 173.035, 99.207 173.035, 96.682 170.033 C 93.026 165.689, 92.752 171.180, 96.344 176.794 C 97.725 178.952, 95.028 181.457, 93.244 179.673 C 91.352 177.781, 85.539 180.355, 86.434 182.688 C 86.745 183.500, 87 184.632, 87 185.204 C 87 185.879, 87.480 185.846, 88.367 185.110 C 89.396 184.257, 89.977 184.288, 90.712 185.238 C 92.895 188.057, 92.902 189.955, 90.736 191.473 C 89.533 192.315, 89.151 193, 89.884 193 C 91.885 193, 99 198.957, 99 200.632 C 99 201.437, 100.181 203.112, 101.625 204.353 C 104.158 206.533, 104.210 206.793, 103.125 211.855 C 102.506 214.739, 102 218.243, 102 219.641 C 102 221.040, 101.100 223.329, 100 224.727 C 98.826 226.219, 98 228.784, 98 230.935 C 98 232.951, 97.479 235.121, 96.842 235.758 C 95.490 237.110, 97.346 240, 99.567 240 C 102.601 240, 106.574 244.752, 105.295 246.852 C 104.325 248.443, 104.374 249.065, 105.545 250.037 C 106.345 250.701, 107.002 252.202, 107.004 253.372 C 107.007 255.186, 107.292 255.034, 108.936 252.338 C 109.996 250.599, 111.509 248.799, 112.297 248.338 C 113.086 247.877, 113.931 246.087, 114.176 244.360 C 114.576 241.543, 114.436 241.335, 112.822 242.343 C 107.476 245.682, 104.996 235.810, 108.842 226.500 C 112.327 218.065, 114.306 216.062, 116.865 218.378 C 118.215 219.600, 119.013 219.788, 119.500 219 C 121.365 215.983, 126.257 226.828, 125.109 231.436 C 124.981 231.950, 125.166 233.525, 125.520 234.934 C 126.302 238.051, 129 235.361, 129 231.464 C 129 228.739, 132.313 225.693, 135.783 225.229 C 139.487 224.732, 141.068 223.161, 140.579 220.461 C 139.882 216.618, 143.168 214.409, 146.415 216.537 C 149.168 218.340, 150.029 217.099, 147.488 214.990 C 145.677 213.487, 147.503 210.413, 149.383 211.799 C 151.587 213.424, 157 210.696, 157 207.959 C 157 207.102, 157.420 205.972, 157.933 205.450 C 158.480 204.894, 158.522 203.048, 158.036 201 C 157.579 199.075, 157.159 197.916, 157.102 198.424 C 157.046 198.933, 155.875 198.292, 154.500 197 C 153.125 195.708, 152 195.025, 152 195.481 C 152 195.937, 151.084 195.481, 149.965 194.468 C 148.845 193.455, 148.165 192.012, 148.453 191.261 C 148.741 190.510, 148.575 190.145, 148.082 190.449 C 147.590 190.753, 145.257 188.695, 142.896 185.876 C 138.605 180.750, 138.605 180.750, 142.118 177.531 C 145.631 174.312, 145.631 174.312, 142.065 169.195 C 137.325 162.392, 133.327 159.315, 131.066 160.727 C 130.065 161.352, 128.742 161.435, 127.837 160.929 C 126.741 160.315, 125.480 160.934, 123.403 163.104 M 500.755 165.750 C 499.899 166.713, 498.504 169.183, 497.655 171.240 C 495.835 175.646, 491.418 180.376, 489.962 179.476 C 489.400 179.129, 487.266 180.255, 485.220 181.978 C 483.174 183.701, 480.541 185.905, 479.368 186.875 C 477.129 188.727, 477.257 187.419, 476.646 214.721 C 476.570 218.114, 477.148 219.585, 479.596 222.221 C 485.480 228.559, 486.210 230.612, 484.499 236.002 C 484.038 237.457, 484.152 238.024, 484.824 237.609 C 485.395 237.256, 486.144 237.425, 486.490 237.984 C 487.444 239.527, 490.120 239.201, 492.240 237.283 C 493.283 236.339, 495.344 235.497, 496.819 235.413 C 501.152 235.166, 501.305 235.072, 499.984 233.481 C 498.373 231.540, 501.518 227.641, 504.141 228.327 C 505.115 228.581, 506.846 227.728, 508.132 226.360 C 509.850 224.531, 511.134 224.059, 513.413 224.418 C 518.585 225.233, 520.696 221.007, 517.750 215.736 C 517.063 214.506, 516.429 213.354, 516.342 213.175 C 516.255 212.996, 515.489 212.748, 514.640 212.623 C 509.536 211.874, 506.647 204.536, 509.851 200.462 C 512.039 197.681, 509.558 190.625, 504.916 186.424 C 503.633 185.263, 503.331 184.250, 503.931 183.124 C 505.275 180.608, 504.873 169.139, 503.398 167.915 C 502.695 167.332, 502.365 166.212, 502.666 165.427 C 503.406 163.500, 502.639 163.630, 500.755 165.750 M 152.984 179.519 C 152.105 180.579, 150.748 180.856, 148.501 180.434 C 143.685 179.531, 143.073 182.332, 147.616 184.488 C 149.534 185.398, 151.478 187.123, 151.934 188.322 C 152.391 189.520, 154.792 191.954, 157.271 193.732 C 161.830 197.002, 164.162 202.945, 161.869 205.450 C 161.391 205.973, 161 207.076, 161 207.902 C 161 208.729, 159.537 210.968, 157.750 212.878 C 154.638 216.203, 154.623 216.258, 157.385 214.175 C 158.972 212.979, 160.704 212, 161.234 212 C 161.764 212, 163.709 211.283, 165.557 210.406 C 168.512 209.004, 169.262 208.984, 171.789 210.245 C 173.430 211.063, 176.557 211.529, 179.081 211.331 C 186.207 210.772, 186.089 210.813, 184.871 209.344 C 184.267 208.617, 183.455 208.219, 183.066 208.459 C 181.940 209.155, 176 205.166, 176 203.715 C 176 201.631, 178.178 200, 180.959 200 C 182.381 200, 184.041 199.165, 184.692 198.122 C 185.670 196.555, 186.540 196.367, 189.932 196.988 C 192.170 197.397, 194 197.425, 194 197.050 C 194 195.674, 186.250 192.065, 181.939 191.433 C 172.306 190.020, 163.555 186.251, 159.054 181.578 C 155.164 177.539, 154.745 177.397, 152.984 179.519 M 329.577 183.333 C 327.032 185.877, 326.827 186.648, 326.610 194.495 C 326.516 197.918, 326.183 198.491, 324.286 198.495 C 320.900 198.502, 318.324 201.480, 319.978 203.474 C 320.697 204.340, 321.517 204.816, 321.800 204.533 C 322.084 204.249, 322.920 204.519, 323.658 205.131 C 324.646 205.951, 325.364 205.943, 326.378 205.101 C 327.361 204.285, 328.533 204.252, 330.463 204.986 C 338.690 208.114, 342.710 190.988, 335.410 183.913 C 332.153 180.756, 332.153 180.756, 329.577 183.333 M 331.512 186.387 C 331.230 187.274, 330.802 188.642, 330.559 189.427 C 330.317 190.212, 330.773 191.396, 331.572 192.060 C 332.651 192.955, 332.741 193.607, 331.924 194.592 C 330.553 196.243, 331.735 202.255, 333.326 201.725 C 335.059 201.147, 335.118 187.343, 333.394 185.912 C 332.338 185.036, 331.906 185.145, 331.512 186.387 M 85.457 198.931 C 85.774 199.443, 85.574 200.145, 85.014 200.492 C 83.904 201.177, 85.473 205.068, 86.780 204.872 C 87.176 204.812, 87.725 204.851, 88 204.958 C 90.193 205.813, 91.915 205.660, 91.341 204.662 C 89.306 201.127, 86.740 198, 85.873 198 C 85.328 198, 85.141 198.419, 85.457 198.931 M 25.329 201.540 C 24.546 203.227, 24.457 205.105, 25.059 207.204 C 25.613 209.138, 25.592 210.787, 25.003 211.496 C 24.390 212.235, 24.426 213.026, 25.106 213.706 C 25.807 214.407, 25.838 215.395, 25.199 216.632 C 21.969 222.881, 21.646 224.046, 22.820 225.220 C 23.727 226.127, 24 225.939, 24 224.412 C 24 223.319, 25.302 220.866, 26.894 218.962 C 29.697 215.609, 29.738 215.406, 28.197 212.500 C 27.191 210.603, 26.699 207.569, 26.860 204.250 C 27.149 198.302, 26.974 197.994, 25.329 201.540 M 185.199 202.201 C 184.264 203.136, 184.704 204.131, 187.184 206.690 C 190.424 210.032, 189.106 214.379, 184.732 214.780 C 183.520 214.891, 180.438 215.467, 176.500 216.318 C 175.400 216.556, 173.713 216.062, 172.750 215.220 C 171.787 214.379, 171 214.040, 171 214.467 C 171 214.895, 170.392 214.741, 169.650 214.124 C 168.639 213.286, 167.445 213.396, 164.900 214.565 C 158.950 217.298, 158.494 217.697, 158.815 219.880 C 158.988 221.057, 158.206 223.194, 157.078 224.628 C 155.045 227.213, 155.115 228.103, 157.581 231 C 158.283 231.825, 158.895 232.950, 158.940 233.500 C 158.985 234.050, 159.580 234.512, 160.261 234.526 C 162.131 234.566, 164.099 236.030, 163.527 236.956 C 163.249 237.405, 163.698 238.334, 164.523 239.019 C 165.665 239.967, 165.753 240.593, 164.890 241.633 C 164.266 242.385, 164.105 243, 164.533 243 C 164.960 243, 164.505 243.889, 163.521 244.976 C 162.538 246.063, 161.273 246.669, 160.712 246.322 C 160.124 245.958, 159.996 246.185, 160.411 246.856 C 161.303 248.300, 167 247.981, 167 246.487 C 167 243.718, 169.378 243.006, 171.613 245.106 C 173.839 247.198, 173.839 247.198, 167.420 253.617 C 160.532 260.505, 160.503 260.563, 161.977 264.441 C 162.783 266.559, 162.607 267.229, 160.977 268.246 C 158.654 269.697, 158.401 271, 160.443 271 C 161.237 271, 162.551 271.949, 163.363 273.108 C 164.307 274.456, 165.308 274.927, 166.137 274.415 C 166.850 273.975, 171.124 273.588, 175.634 273.557 C 185.137 273.491, 186.169 272.969, 182.277 270.197 C 178.483 267.496, 178.399 264.504, 182.040 261.812 C 184.166 260.241, 184.679 259.319, 183.931 258.417 C 182.650 256.874, 186.904 253.504, 188.331 254.931 C 189.702 256.302, 191.911 255.080, 193.400 252.129 C 194.724 249.502, 194.512 246.566, 193.062 247.462 C 190.304 249.166, 186.911 242.148, 189.468 240.027 C 190.481 239.186, 190.638 238.178, 190.013 236.534 C 188.576 232.755, 192.918 229.147, 195.486 231.984 C 198.311 235.106, 199.377 234.364, 197.257 230.750 C 193.857 224.952, 201.403 212.803, 205.722 217.122 C 206.415 217.815, 206.679 216.679, 206.544 213.576 C 206.294 207.824, 200.443 201.751, 195.706 202.327 C 194.169 202.514, 192.680 202.292, 192.397 201.833 C 191.620 200.576, 186.566 200.834, 185.199 202.201 M 215.678 209.127 C 212.796 210.631, 212.115 211.433, 212.908 212.389 C 213.487 213.087, 214.094 214.522, 214.258 215.578 C 214.785 218.979, 219.216 224, 221.688 224 C 224.520 224, 224.594 223.025, 222.014 219.745 C 220.476 217.790, 220.307 216.997, 221.264 216.226 C 222.611 215.141, 226.373 216.177, 227.457 217.930 C 227.820 218.518, 228.530 219, 229.034 219 C 230.301 219, 229.029 212.852, 227.363 210.921 C 226.613 210.053, 226 208.888, 226 208.333 C 226 206.570, 219.643 207.059, 215.678 209.127 M 274.331 210.789 C 272.841 212.830, 270.079 216.148, 268.193 218.163 C 264.586 222.016, 264.749 222.701, 271.095 230.350 C 271.483 230.818, 271.809 229.693, 271.819 227.850 C 271.857 221.350, 274.039 214.574, 277.123 211.383 C 279.566 208.854, 279.843 208.154, 278.588 207.672 C 277.561 207.278, 276.132 208.325, 274.331 210.789 M 285.673 210.970 C 277.657 212.520, 273.605 222.991, 277.073 233.196 C 278.110 236.247, 278.503 238.878, 277.998 239.390 C 277.490 239.905, 278.465 241.260, 280.310 242.603 C 284.177 245.418, 295 251.237, 295 250.501 C 295 250.211, 296.630 250.654, 298.622 251.487 C 303.680 253.600, 316.356 253.638, 313.347 251.531 C 309.920 249.130, 309.788 246.287, 312.998 244.001 C 319.007 239.723, 327.109 245.908, 322.364 251.150 C 320.293 253.439, 322.186 254.381, 329 254.453 C 338.757 254.555, 331.500 231.677, 317.868 219.360 C 313.906 215.781, 305.575 212.137, 298.862 211.047 C 291.835 209.907, 291.189 209.903, 285.673 210.970 M 546.783 211.750 C 539.649 219.930, 544.088 235, 553.632 235 C 555.033 235, 556.957 235.960, 557.907 237.134 C 559.983 239.697, 568 233.334, 568 229.123 C 568 227.920, 568.637 225.411, 569.416 223.547 C 572.523 216.112, 565.801 215.550, 562.036 222.930 C 560 226.919, 558.400 228, 554.525 228 C 551.283 228, 549.177 219.245, 552 217.500 C 553.382 216.646, 553.256 212.656, 551.800 211.200 C 550.130 209.530, 548.571 209.701, 546.783 211.750 M 151.578 221.914 C 150.208 223.427, 149.270 223.673, 147.470 222.989 C 145.470 222.228, 144.867 222.561, 143.240 225.319 C 141.962 227.484, 140.483 228.607, 138.715 228.753 C 137.271 228.872, 135.507 229.089, 134.795 229.235 C 133.052 229.592, 131.744 234.491, 131.905 240.058 C 132.065 245.593, 128.294 250.319, 125.540 248.033 C 124.705 247.340, 124.268 246.375, 124.569 245.888 C 124.870 245.402, 124.449 244.051, 123.633 242.887 C 122.818 241.723, 122.377 240.182, 122.652 239.463 C 122.928 238.744, 122.600 237.120, 121.922 235.854 C 121.244 234.588, 120.753 231.931, 120.831 229.950 C 121.124 222.464, 115.747 219.836, 113.035 226.139 C 109.119 235.244, 109.465 240.444, 113.705 236.204 C 117.016 232.893, 120.711 236.001, 118.954 240.620 C 118.430 242, 118 244.351, 118 245.843 C 118 248.961, 115.317 253.314, 113.925 252.453 C 112.901 251.821, 112.214 253.180, 111.679 256.891 C 110.857 262.590, 106.784 262.813, 104.475 257.286 C 103.033 253.835, 102.912 253.770, 101.053 255.452 C 99.993 256.411, 98.679 256.919, 98.132 256.582 C 96.354 255.483, 96.157 257.421, 97.634 261.503 C 99.120 265.612, 101.977 284.052, 101.992 289.632 C 102.012 297.390, 109.431 301.336, 115.717 296.933 C 118.805 294.770, 121.975 293, 122.761 293 C 123.548 293, 125.386 292.371, 126.846 291.602 C 128.306 290.834, 133.100 288.622, 137.500 286.688 C 143.783 283.925, 145.441 282.769, 145.223 281.298 C 144.619 277.212, 150.655 273.327, 153.481 275.982 C 155.388 277.773, 155.714 278.640, 154.865 279.663 C 153.436 281.384, 156.784 281.511, 160.382 279.872 C 163.138 278.616, 162.082 275, 158.959 275 C 155.404 275, 153.694 270.329, 156.420 268.066 C 157.990 266.763, 157.737 261.593, 156.001 259.501 C 155.202 258.538, 155.619 257.716, 157.662 256.228 C 160.391 254.240, 160.391 254.240, 157.489 251.744 C 154.795 249.427, 154.665 248.998, 155.669 245.727 C 156.643 242.553, 156.505 241.959, 154.273 239.727 C 152.189 237.643, 151.975 236.915, 152.928 235.134 C 153.809 233.488, 153.727 232.372, 152.557 230.110 C 151.163 227.415, 151.207 227.006, 153.155 224.530 C 155.727 221.261, 154.304 218.902, 151.578 221.914 M 211.379 223.274 C 211.520 224.593, 212.558 227.209, 213.687 229.086 C 215.084 231.408, 215.598 233.620, 215.297 236 C 214.926 238.929, 215.233 239.665, 217.177 240.511 C 218.497 241.085, 219.435 242.301, 219.350 243.327 C 219.267 244.321, 219.476 244.858, 219.813 244.521 C 221.022 243.312, 223.914 234.670, 223.392 233.826 C 223.099 233.352, 223.884 231.284, 225.136 229.232 C 226.682 226.698, 226.887 225.922, 225.776 226.815 C 222.859 229.158, 216.873 227.907, 215.031 224.569 C 212.950 220.797, 211.043 220.121, 211.379 223.274 M 419.500 223 C 418.505 224.100, 416.510 225, 415.068 225 C 411.106 225, 408 227.636, 408 230.998 C 408 232.584, 407.550 234.160, 407 234.500 C 405.091 235.680, 406.015 237, 408.750 237.001 C 411.864 237.001, 419.758 239.830, 427.279 243.642 C 430.072 245.057, 434.019 246.801, 436.049 247.517 C 438.079 248.233, 442.868 251.052, 446.691 253.780 C 453.643 258.740, 453.643 258.740, 457.071 255.786 C 458.957 254.161, 459.909 253.139, 459.187 253.514 C 455.832 255.257, 452.237 247.163, 455.096 244.304 C 456.834 242.566, 456.556 236.498, 454.602 233.515 C 453.338 231.585, 452.502 231.098, 451.749 231.851 C 451.018 232.582, 451.006 233.320, 451.712 234.208 C 454.610 237.854, 455.347 243.301, 453.179 245.056 C 452.028 245.989, 451.302 246.968, 451.567 247.233 C 451.832 247.498, 451.362 248.284, 450.524 248.980 C 448.453 250.699, 445.651 248.444, 446.382 245.647 C 446.722 244.347, 445.887 242.497, 443.983 240.328 C 440.876 236.789, 440.907 235.368, 444.188 231.093 C 445.268 229.686, 445.786 227.900, 445.435 226.795 C 445.105 225.755, 445.333 224.303, 445.943 223.569 C 447.693 221.460, 444.338 220.733, 441.484 222.603 C 439.285 224.043, 438.791 224.042, 435.880 222.590 C 432.784 221.045, 432.739 221.054, 434.372 222.859 C 436.152 224.826, 431.334 230, 427.722 230 C 425.043 230, 422.451 226.109, 423.747 224.033 C 424.675 222.548, 424.600 222.060, 423.371 221.589 C 421.336 220.808, 421.557 220.728, 419.500 223 M 475.362 224.885 C 476.009 228.298, 479.871 235.462, 480.645 234.688 C 482.268 233.066, 481.380 229.790, 478.270 225.919 C 474.719 221.500, 474.719 221.500, 475.362 224.885 M 200.074 225.862 C 198.952 227.959, 200.702 231.192, 203.153 231.552 C 204.928 231.812, 205.460 227.260, 203.878 225.354 C 202.347 223.508, 201.256 223.654, 200.074 225.862 M 387.603 226.834 C 387.297 227.328, 387.952 228.552, 389.059 229.553 C 390.165 230.555, 390.853 231.942, 390.586 232.636 C 390.024 234.102, 391.457 234.598, 399 235.549 C 404.403 236.230, 404.469 236.207, 402.750 234.292 C 401.788 233.220, 401 231.521, 401 230.516 C 401 228.816, 400.875 228.803, 399.186 230.331 C 398.188 231.235, 396.952 231.601, 396.436 231.146 C 393.833 228.849, 388.090 226.045, 387.603 226.834 M 517.610 227.994 C 515.330 229.452, 514.337 229.603, 512.902 228.707 C 511.420 227.781, 510.617 228.011, 508.551 229.952 C 506.017 232.332, 506.017 232.332, 509.009 234.151 C 510.654 235.152, 512 236.663, 512 237.510 C 512 238.893, 515.662 241, 518.065 241 C 518.579 241, 519 239.275, 519 237.167 C 519 235.058, 519.291 233.043, 519.646 232.687 C 520.165 232.169, 521.114 225.811, 520.634 226.073 C 520.560 226.113, 519.199 226.978, 517.610 227.994 M 209.032 229.550 C 209.014 230.127, 209.521 231.121, 210.158 231.758 C 211.673 233.273, 209.483 236.123, 207.414 235.329 C 205.957 234.770, 203 236.582, 203 238.034 C 203 238.940, 204.966 238.777, 206.637 237.733 C 207.904 236.940, 210.357 239.310, 209.331 240.336 C 208.453 241.213, 211.964 245, 213.655 245 C 215.604 245, 215.307 243.588, 212.901 241.411 C 211.259 239.925, 210.910 238.705, 211.299 235.807 C 211.607 233.512, 211.276 231.418, 210.430 230.302 C 209.678 229.311, 209.049 228.972, 209.032 229.550 M 376 235.972 C 376 236.572, 376.788 237.307, 377.750 237.605 C 381.997 238.922, 391.612 243.685, 393.945 245.628 C 395.350 246.798, 398.750 248.732, 401.500 249.926 C 412.035 254.498, 419.271 258.600, 425.050 263.277 C 431.628 268.599, 431.664 268.608, 440.961 267.124 C 446.791 266.193, 450.995 263.615, 450.946 261 C 450.929 260.111, 438.579 252.243, 436 251.480 C 434.625 251.072, 430.914 249.442, 427.753 247.857 C 418.733 243.333, 412.182 241.270, 403 240.063 C 398.325 239.449, 392.475 238.499, 390 237.951 C 387.525 237.404, 383.921 236.835, 381.990 236.686 C 380.060 236.537, 377.922 236.070, 377.240 235.648 C 376.543 235.217, 376 235.359, 376 235.972 M 194.799 237.256 C 195.708 238.353, 195.771 239.023, 195.008 239.495 C 193.635 240.344, 194.629 243.591, 197.460 247.500 C 198.654 249.150, 199.552 251.495, 199.454 252.711 C 199.307 254.551, 199.580 254.760, 201.083 253.956 C 203.995 252.397, 204.084 251.428, 201.536 249.034 C 199.531 247.151, 199.295 246.354, 200.108 244.216 C 201.405 240.804, 200.741 239.435, 196.801 237.398 C 193.998 235.949, 193.696 235.927, 194.799 237.256 M 249.017 240.095 C 249.008 240.972, 249.837 242.447, 250.859 243.373 C 252.833 245.159, 252.949 249.451, 251.074 251.326 C 249.214 253.186, 249.891 254, 253.300 254 C 256.977 254, 259 255.491, 259 258.200 C 259 260.651, 260.219 260.460, 262.917 257.588 C 265.183 255.176, 265.183 255.176, 257.109 246.838 C 252.475 242.054, 249.027 239.180, 249.017 240.095 M 244.496 246.006 C 244.080 246.679, 242.567 246.863, 240.655 246.472 C 237.505 245.827, 237.503 245.829, 239.776 247.488 C 242.126 249.204, 246.918 248.572, 247.075 246.525 C 247.185 245.093, 245.295 244.713, 244.496 246.006 M 233.750 253.748 C 228.611 256.414, 227.983 258.103, 230.693 261.972 C 231.625 263.302, 232.463 265.765, 232.557 267.445 C 232.878 273.189, 232.856 273.147, 234.934 272.035 C 235.998 271.466, 237.657 271, 238.620 271 C 243.069 271, 245.113 267.015, 242.452 263.526 C 241.103 261.758, 240 259.143, 240 257.715 C 240 256.287, 239.570 254.852, 239.044 254.527 C 238.518 254.202, 238.341 253.275, 238.651 252.468 C 238.960 251.661, 239.053 251.064, 238.857 251.142 C 238.661 251.220, 236.363 252.393, 233.750 253.748 M 115.654 255.174 C 110.439 258.092, 108.630 272.848, 112.926 277.421 C 115.647 280.317, 113.232 283.419, 109.394 281.960 C 105.973 280.659, 103.239 284.502, 105.672 287.190 C 106.575 288.188, 107.794 288.653, 108.402 288.231 C 109.808 287.255, 111.838 287.415, 115.088 288.758 C 121.708 291.494, 135.544 285.465, 133.695 280.649 C 132.605 277.808, 126.896 276.065, 124.260 277.769 C 121.196 279.749, 120.248 277.354, 122.428 273.140 C 124.385 269.354, 124.430 266.602, 122.559 265.049 C 121.767 264.392, 121.350 263.252, 121.632 262.517 C 122.892 259.232, 118.357 253.661, 115.654 255.174 M 244 258.458 C 244 261.454, 244.866 262.100, 247.052 260.736 C 248.518 259.820, 249.287 259.949, 250.864 261.377 C 252.768 263.100, 252.880 263.092, 253.920 261.149 C 255.442 258.305, 255.311 258, 252.559 258 C 251.216 258, 249.875 257.606, 249.577 257.125 C 248.356 255.149, 244 256.190, 244 258.458 M 115.177 262.750 C 112.716 269.101, 114.935 277.026, 118.086 273.139 C 120.382 270.308, 120.537 267.691, 118.510 266.008 C 117.567 265.225, 117.239 263.895, 117.618 262.386 C 118.446 259.085, 116.484 259.378, 115.177 262.750 M 197.218 264.070 C 194.935 266.894, 194.935 266.894, 191.218 264.734 C 188.073 262.906, 187.723 262.851, 188.950 264.380 C 190.927 266.843, 191.157 271.625, 189.371 273.107 C 187.084 275.005, 189.528 275.954, 197 276.069 C 200.575 276.124, 206.085 276.492, 209.245 276.887 C 215.681 277.691, 216.250 277.171, 215.822 270.881 C 215.562 267.068, 212.546 261.307, 211.606 262.828 C 211.135 263.591, 207.500 263.744, 207.500 263 C 207.500 262.266, 203.869 262.403, 203.405 263.154 C 203.041 263.742, 202.145 263.557, 201.151 262.687 C 199.685 261.406, 199.244 261.561, 197.218 264.070 M 49.975 272.215 C 44.500 279.963, 44.500 279.963, 44.500 288.827 C 44.500 294.585, 44.049 298.234, 43.212 299.243 C 42.504 300.097, 41.761 301.629, 41.561 302.648 C 40.813 306.465, 37.474 313.753, 32.924 321.500 C 26.190 332.965, 25.233 336.726, 27.347 343.431 C 29.129 349.086, 28.587 352.588, 25.382 356.130 C 24.308 357.317, 23.985 359.635, 24.202 364.593 C 24.500 371.422, 24.500 371.422, 31.667 362.461 C 39.514 352.649, 44.630 347.453, 50 343.840 C 56.084 339.746, 73 325.947, 73 325.078 C 73 324.620, 72.359 323.713, 71.576 323.063 C 70.355 322.049, 70.349 321.409, 71.536 318.568 C 72.298 316.745, 72.761 315.084, 72.565 314.877 C 70.825 313.033, 71.471 306.906, 73.618 304.889 C 74.928 303.658, 76 303.025, 76 303.481 C 76 303.937, 76.824 303.564, 77.831 302.653 C 78.838 301.741, 80 301.333, 80.412 301.746 C 81.117 302.450, 80.185 297.328, 79.330 295.794 C 79.113 295.405, 78.270 295.343, 77.455 295.656 C 75.218 296.514, 72.696 294.071, 74.088 292.394 C 74.947 291.359, 74.206 289.850, 70.841 285.777 C 66.427 280.435, 64.018 277.157, 58.499 268.983 C 55.449 264.467, 55.449 264.467, 49.975 272.215 M 474.200 265.200 C 473.540 265.860, 473 267.365, 473 268.545 C 473 271.181, 470.051 274, 467.294 274 C 466.167 274, 464.642 274.727, 463.905 275.615 C 462.326 277.517, 465.727 281, 469.162 281 C 470.229 281, 472.542 282.530, 474.301 284.400 C 478.926 289.314, 507.615 287.774, 509.638 282.502 C 510.386 280.553, 508.482 278.242, 505.677 277.696 C 504.480 277.463, 505.343 277.211, 507.595 277.136 C 518.965 276.758, 515.821 270.611, 504.097 270.296 C 495.081 270.053, 488.218 268.730, 481.815 265.998 C 476.338 263.663, 475.794 263.606, 474.200 265.200 M 477.277 274.940 C 473.124 282.156, 481.532 284.776, 497.927 281.376 C 500.759 280.789, 498.758 279.078, 490 274.595 C 481.991 270.495, 479.801 270.554, 477.277 274.940 M 124.203 281.781 C 122.510 282.905, 121.612 283.012, 120.788 282.188 C 119.723 281.123, 117.122 283.212, 117.032 285.203 C 116.977 286.413, 125.740 285.460, 127.411 284.074 C 130.716 281.331, 127.906 279.322, 124.203 281.781 M 425.608 287.726 C 424.389 288.945, 425.073 289.807, 428.581 291.472 C 432.568 293.364, 433.420 293.232, 431.648 290.998 C 430.041 288.971, 426.358 286.976, 425.608 287.726 M 83.238 308.394 C 83.129 309.711, 83.711 311.346, 84.532 312.027 C 86.043 313.280, 84.687 316.542, 83.070 315.543 C 82.684 315.304, 81.699 316.584, 80.881 318.387 C 79.396 321.665, 79.396 321.665, 83.735 318.737 C 88.371 315.608, 88.483 314.913, 85.348 308.750 C 83.641 305.396, 83.488 305.370, 83.238 308.394 M 76.853 308.022 C 75.559 308.778, 75.373 309.722, 75.987 312.442 C 76.416 314.344, 76.482 316.245, 76.133 316.667 C 75.785 317.089, 76.302 316.819, 77.282 316.068 C 78.587 315.068, 79.818 306.325, 78.554 307.030 C 78.525 307.047, 77.759 307.493, 76.853 308.022" stroke="none" fill="#1A1A1A" fill-rule="evenodd"/>
</svg>