<svg xmlns="http://www.w3.org/2000/svg" width="592" height="600" viewBox="0 0 592 600" version="1.1">
	<rect x="0" y="0" width="100%" height="100%" fill="#FFFFFF" />
	<path d="M 0.683 0.650 C -0.372 1.705, -0.134 44.799, 0.931 45.457 C 2.847 46.641, 3.178 43.377, 3.222 22.886 C 3.264 3.643, 2.693 -1.359, 0.683 0.650 M 10.547 0.786 C 10.246 1.087, 10 2.721, 9.999 4.417 C 9.999 6.113, 9.146 9.750, 8.103 12.500 C 6.289 17.283, 6.246 19.607, 7.102 66 C 7.836 105.781, 8.033 302.554, 7.580 545.545 C 7.507 584.835, 7.652 588.821, 9.239 591.243 L 10.978 593.896 5.739 594.198 C -2.359 594.665, -1.657 597.558, 6.500 597.338 C 18.064 597.025, 73.858 597.518, 131.019 598.438 C 199.409 599.538, 370.597 600.368, 372.575 599.610 C 378.022 597.519, 367.075 597.026, 301.488 596.404 C 262.445 596.033, 230.313 595.566, 230.083 595.365 C 229.590 594.932, 258.394 594.866, 433 594.897 C 573.451 594.923, 576.148 594.835, 581.256 590.070 C 583.183 588.273, 584.108 527.701, 582.495 509 C 581.354 495.781, 581.744 496, 559.326 496 L 541 496 541 470.891 L 541 445.781 560.314 446.506 L 579.629 447.230 582.148 444.235 L 584.668 441.241 585.338 281.871 C 585.707 194.217, 586.303 98.424, 586.663 68.998 C 587.338 13.911, 587.136 10.018, 583.449 6.958 C 581.655 5.469, 579 7.295, 579 10.017 C 579 11.551, 578.496 11.674, 575.250 10.929 C 573.188 10.456, 504 9.986, 421.500 9.885 C 339 9.784, 240.991 9.247, 203.703 8.691 C 136.464 7.689, 135.883 7.697, 133.203 9.699 L 130.500 11.717 130.868 95.405 L 131.237 179.093 74.201 178.796 C 42.831 178.633, 16.941 178.275, 16.667 178 C 15.291 176.620, 16.189 31.700, 17.624 23.500 C 18.529 18.330, 19.096 17, 20.393 17 C 21.085 17, 22.657 15.929, 23.887 14.621 L 26.122 12.241 23.426 10.121 C 21.943 8.954, 19.952 8, 19.001 8 C 17.653 8, 17.297 7.184, 17.386 4.299 C 17.493 0.813, 17.314 0.588, 14.297 0.419 C 12.536 0.320, 10.848 0.485, 10.547 0.786 M 11.766 13.250 C 10.595 16.749, 10.438 24.303, 10.879 56 C 11.476 99, 12.694 97.208, 12.918 53 C 13.073 22.226, 13.536 18.717, 17.963 14.750 C 20.512 12.466, 20.711 12, 19.138 12 C 18.097 12, 16.685 11.325, 16 10.500 C 14.066 8.169, 13.300 8.667, 11.766 13.250 M 138.936 20.250 C 138.902 22.587, 138.789 60.202, 138.686 103.837 L 138.500 183.175 136.139 185.087 C 133.875 186.922, 131.399 187, 75.360 187 L 16.942 187 17.221 200.250 L 17.500 213.500 76.339 214 L 135.178 214.500 137.089 216.861 C 138.943 219.151, 139 222.302, 139 321.936 L 139 424.651 136.686 426.826 L 134.371 429 75.686 429 L 17 429 17 434.500 L 17 440 75.345 440 C 130.599 440, 133.778 440.097, 135.345 441.829 C 136.851 443.493, 137 449.790, 137 511.712 L 137 579.767 139.250 580.370 C 143.006 581.376, 147.038 581.073, 147.484 579.750 C 147.716 579.063, 148.041 547.972, 148.207 510.660 L 148.507 442.821 151.309 440.410 L 154.112 438 209.306 437.825 C 239.663 437.728, 303.425 437.531, 351 437.387 C 447.625 437.094, 456.500 436.935, 456.500 435.500 C 456.500 434.497, 447.083 433.869, 433.088 433.938 C 428.875 433.959, 425.071 433.474, 424.276 432.814 C 421.750 430.718, 395.112 430.588, 392.821 432.662 C 391.019 434.293, 390.751 434.283, 387.709 432.464 C 384.653 430.636, 381.813 430.539, 328 430.429 C 296.925 430.365, 245.080 429.953, 212.789 429.512 L 154.077 428.711 151.845 426.335 L 149.612 423.959 149.809 233.729 C 149.918 129.103, 149.729 37.313, 149.391 29.750 L 148.775 16 143.888 16 L 139 16 138.936 20.250 M 260.800 17.200 C 261.460 17.860, 262 19.343, 262 20.496 C 262 21.824, 264.521 24.850, 268.883 28.755 C 275.612 34.779, 275.804 34.874, 277.516 32.982 C 278.479 31.918, 279.662 31.291, 280.145 31.590 C 280.628 31.888, 281.295 30.776, 281.627 29.117 C 281.958 27.459, 283.056 25.355, 284.065 24.441 C 285.745 22.921, 285.771 22.580, 284.365 20.434 C 283.519 19.143, 283.118 17.618, 283.473 17.044 C 283.908 16.340, 280.121 16, 271.859 16 C 262.324 16, 259.867 16.267, 260.800 17.200 M 327.772 17.039 C 329.022 17.541, 330.322 18.676, 330.662 19.561 C 331.125 20.769, 332.078 21.020, 334.484 20.569 C 336.855 20.124, 338.371 20.504, 340.310 22.029 C 342.777 23.970, 343.078 23.995, 345.425 22.457 C 346.796 21.559, 349.849 20.642, 352.209 20.420 C 354.569 20.198, 357.361 19.901, 358.414 19.758 C 362.135 19.256, 364.269 24.853, 362.423 30.273 C 361.560 32.805, 360.212 35.409, 359.427 36.060 C 357.989 37.254, 357.478 41.145, 358.611 42.278 C 358.947 42.614, 360.337 41.564, 361.700 39.945 C 364.663 36.423, 366.356 36.242, 368.443 39.223 C 370.598 42.298, 370.395 44.377, 367.621 47.673 C 366.313 49.228, 365.072 51.389, 364.863 52.475 C 364.653 53.561, 363.542 54.919, 362.393 55.492 C 360.696 56.338, 360.509 56.871, 361.402 58.329 C 362.282 59.770, 362.080 60.470, 360.382 61.866 C 358.298 63.579, 358.294 63.645, 360.147 65.933 C 363.141 69.630, 360.938 71.386, 354.284 70.604 C 351.378 70.262, 349 70.189, 349 70.442 C 349 71.169, 351.092 81.372, 351.510 82.684 C 351.795 83.581, 352.610 83.596, 354.863 82.745 C 358.426 81.401, 361 82.962, 361 86.467 C 361 89.167, 357.622 92.453, 355.631 91.689 C 354.837 91.384, 353.407 91.997, 352.454 93.051 C 350.474 95.239, 347.125 94.843, 342.946 91.926 C 340.566 90.264, 340.321 90.257, 339.344 91.821 C 337.316 95.067, 337.538 95.400, 341.908 95.673 C 350.342 96.198, 352.878 103.721, 349.452 118.053 C 348.729 121.079, 352.395 123.478, 355.276 121.865 C 357.665 120.529, 361.412 121.765, 364.263 124.831 C 368.283 129.154, 367.087 134.562, 362.373 133.379 C 360.145 132.820, 357 134.324, 357 135.949 C 357 136.337, 358.998 136.541, 361.441 136.403 C 365.801 136.157, 368.843 137.827, 367.625 139.797 C 367.325 140.284, 368.487 141.723, 370.208 142.995 L 373.337 145.309 371.058 147.154 C 368.932 148.876, 368.910 149, 370.734 149 C 374.986 149, 377.151 153.894, 374.468 157.441 C 371.973 160.741, 372.743 162.685, 377.626 165.415 C 382.494 168.135, 385.470 168.667, 386.500 167 C 387.310 165.689, 395.815 172.807, 396.610 175.462 C 396.946 176.583, 398.559 178.911, 400.195 180.635 C 406.011 186.765, 404.860 201.803, 398.981 196.483 C 397.892 195.497, 397 193.870, 397 192.868 C 397 191.866, 395.878 190.311, 394.508 189.413 C 391.705 187.577, 388.494 188.239, 389.353 190.476 C 389.862 191.805, 388.488 193.447, 386.833 193.485 C 386.467 193.493, 385.870 193.796, 385.508 194.159 C 384.662 195.004, 388.690 196.310, 389.878 195.576 C 390.370 195.271, 391.329 195.692, 392.009 196.511 C 393.620 198.452, 392.221 200.187, 386.937 202.801 C 383.874 204.317, 383.286 204.992, 384.297 205.832 C 386.208 207.418, 392.545 206.722, 394.804 204.678 C 397.613 202.135, 403.521 205.325, 403.461 209.353 C 403.439 210.809, 403.734 212, 404.117 212 C 404.500 212, 406.706 214.260, 409.019 217.023 C 413.008 221.787, 413.159 222.201, 411.968 225.078 C 411.062 227.266, 411.015 228.415, 411.800 229.200 C 412.586 229.986, 413.069 229.572, 413.535 227.718 C 415.020 221.798, 417.353 221.414, 422.408 226.257 C 427.330 230.973, 428.082 233.710, 425.180 236.337 C 423.572 237.792, 423.136 237.814, 421.430 236.524 C 419.258 234.880, 414.547 234.458, 415.495 235.992 C 415.832 236.538, 415.682 237.746, 415.161 238.677 C 414.540 239.786, 414.601 240.990, 415.337 242.169 C 416.931 244.721, 414.419 246.947, 409.599 247.256 C 404.699 247.569, 402.668 245.129, 405.357 242.158 C 406.532 240.859, 406.766 239.973, 406.050 239.531 C 405.456 239.164, 404.338 237.352, 403.566 235.504 C 402.464 232.866, 401.723 232.260, 400.114 232.680 C 396.545 233.614, 395.478 235.765, 397.483 237.982 C 400.957 241.819, 395.121 247.389, 390.209 244.924 C 385.573 242.597, 385.423 242.655, 388.250 245.673 C 389.762 247.288, 391 249.528, 391 250.650 C 391 253.059, 387.740 256.334, 386.419 255.252 C 385.913 254.838, 386.512 255.654, 387.750 257.064 C 388.988 258.475, 390 260.245, 390 260.998 C 390 261.751, 390.959 265.068, 392.131 268.368 L 394.262 274.370 392.082 276.135 C 390.883 277.105, 389.137 277.633, 388.201 277.308 C 386.628 276.761, 386.623 276.847, 388.124 278.446 C 390.101 280.553, 386.833 287.890, 382.198 291.745 C 380.714 292.980, 379.972 293.992, 380.550 293.995 C 381.127 293.998, 382.172 293.437, 382.871 292.750 C 384.715 290.937, 388.568 295.611, 386.893 297.629 C 385.995 298.711, 386.170 299, 387.723 299 C 392.420 299, 394.481 305.211, 390.500 307.370 C 384.346 310.708, 383.794 311.194, 384.893 312.293 C 385.502 312.902, 386 314.026, 386 314.791 C 386 315.556, 387.569 318.015, 389.486 320.255 C 392.162 323.381, 392.715 324.639, 391.864 325.664 C 390.407 327.420, 388.541 327.357, 387 325.500 C 385.495 323.686, 380.994 323.498, 381.015 325.250 C 381.049 328.014, 382.753 329.450, 384.389 328.093 C 386.017 326.741, 392 329.913, 392 332.127 C 392 332.672, 392.470 332.828, 393.044 332.473 C 394.241 331.733, 397.208 333.854, 396.525 334.960 C 396.275 335.364, 397.405 336.972, 399.036 338.534 C 400.666 340.096, 402 342.190, 402 343.187 C 402 348.175, 410.784 351.141, 413.045 346.917 C 413.936 345.251, 413.806 344.443, 412.397 342.886 C 410.252 340.516, 412.882 336.482, 415.115 338.715 C 415.736 339.336, 416.881 339.599, 417.659 339.301 C 421.655 337.767, 424.363 344.456, 420.984 347.514 L 418.969 349.338 420.972 351.470 C 422.664 353.272, 422.822 354.135, 421.987 357.044 C 421.444 358.938, 421 360.588, 421 360.712 C 421 360.836, 421.681 360.676, 422.513 360.357 C 423.345 360.037, 424.706 360.341, 425.538 361.032 C 428.438 363.438, 419.685 369.697, 414.250 369.103 C 412.639 368.927, 412 369.382, 412 370.706 C 412 371.723, 411.285 373.576, 410.411 374.824 C 409.537 376.072, 409.064 377.725, 409.361 378.498 C 409.657 379.270, 409.046 380.937, 408.003 382.201 C 406.178 384.413, 405.996 384.438, 403.162 382.859 C 399.737 380.950, 395.095 383.005, 395.757 386.137 C 396.111 387.810, 391.677 392, 389.552 392 C 384.960 392, 380.934 382.351, 382.189 374.351 C 382.999 369.185, 382.997 369.180, 378.537 364.591 C 373.844 359.763, 370.198 358.753, 365.852 361.079 C 363.919 362.114, 363.910 362.214, 365.650 363.486 C 366.938 364.428, 367.378 365.837, 367.163 368.335 C 366.984 370.408, 367.547 372.906, 368.533 374.410 C 370.207 376.965, 370.208 376.965, 371.867 374.916 L 373.526 372.867 375.977 375.476 C 378.088 377.723, 378.254 378.364, 377.171 380.097 C 376.103 381.808, 376.210 382.365, 377.884 383.805 C 380.991 386.478, 384 393.115, 384 397.294 C 384 399.696, 384.388 400.878, 385.044 400.473 C 386.308 399.692, 389 401.754, 389 403.504 C 389 404.196, 387.423 405.965, 385.496 407.435 C 382.055 410.060, 381.938 410.077, 379.036 408.362 C 376.259 406.722, 375.968 406.719, 374.212 408.308 C 373.184 409.239, 371.627 410, 370.753 410 C 366.608 410, 365.778 411.135, 368.110 413.617 C 370.263 415.908, 370.275 416.039, 368.509 417.990 C 365.562 421.247, 358.025 418.984, 359.450 415.269 C 360.053 413.698, 358.428 411, 356.878 411 C 356.395 411, 356 411.830, 356 412.845 C 356 417.891, 339.467 420.383, 335.448 415.942 C 332.994 413.231, 334.541 410.616, 338.851 410.187 C 342.150 409.858, 343.007 408.600, 340.570 407.665 C 339.783 407.363, 337.312 408.440, 335.078 410.058 C 332.845 411.676, 330.642 413, 330.183 413 C 328.479 413, 324.511 407.764, 324.813 405.915 C 325.174 403.703, 325.022 403.661, 321.514 404.995 C 319.306 405.834, 318.509 405.600, 316.404 403.495 C 313.244 400.334, 312.866 400.369, 310.797 404.006 C 308.897 407.344, 305.120 408.054, 302.980 405.476 C 302.284 404.638, 301.482 404.185, 301.197 404.470 C 300.912 404.755, 301.433 405.821, 302.355 406.840 C 303.929 408.579, 303.901 408.856, 301.895 411.407 L 299.759 414.122 297.322 411.833 C 295.910 410.506, 295.079 408.807, 295.345 407.789 C 295.724 406.338, 295.475 406.211, 293.902 407.053 C 291.811 408.171, 291.452 409.544, 293 410.500 C 294.601 411.490, 294.213 412.568, 290.507 417.423 L 287.013 422 293.757 422.246 C 297.465 422.382, 319.625 422.530, 343 422.577 C 408.606 422.706, 575.293 424.028, 577.217 424.433 C 578.829 424.773, 578.937 418.992, 578.990 329.148 C 579.044 236.972, 579.242 205.158, 580.552 77.848 L 581.156 19.196 574.130 17.598 C 566.056 15.761, 323.219 15.211, 327.772 17.039 M 155.317 219.275 C 155.417 330.682, 155.725 422.045, 156 422.304 C 156.873 423.126, 278.535 424.255, 277.741 423.434 C 276.467 422.116, 281.177 418, 283.959 418 C 287.412 418, 290.847 412.726, 288.912 410.394 C 287.161 408.284, 292.672 402.746, 296.667 402.602 C 298.799 402.525, 299.500 402.005, 299.500 400.500 C 299.500 399.400, 299.878 397.916, 300.339 397.201 C 301.553 395.322, 304.003 397.600, 303.721 400.345 C 303.561 401.896, 304.126 402.583, 305.750 402.816 C 308.687 403.238, 308.601 401.913, 305.500 399 C 302.450 396.135, 302.300 392.944, 305.095 390.414 C 307.166 388.540, 307.216 388.552, 309.568 391.509 C 315.392 398.833, 319.351 401.784, 322.025 400.795 C 324.902 399.731, 329.377 403.450, 328.635 406.289 C 328.033 408.589, 330.509 409.653, 332.539 407.967 C 333.852 406.878, 333.651 406.466, 331.027 404.870 C 327.486 402.717, 327.321 401.924, 329.926 399.567 C 332.843 396.927, 335.653 398.103, 337.621 402.787 C 337.687 402.946, 338.937 402.530, 340.398 401.865 C 342.471 400.920, 343.319 400.919, 344.260 401.860 C 345.705 403.305, 346.250 410.994, 345.014 412.484 C 344.428 413.189, 345.437 413.572, 348.069 413.641 C 350.513 413.705, 352 413.291, 352 412.546 C 352 411.888, 353.096 410.319, 354.436 409.060 L 356.871 406.772 359.701 408.787 L 362.530 410.801 365.321 408.401 C 366.856 407.080, 369.049 406, 370.196 406 C 371.342 406, 372.829 405.248, 373.501 404.329 C 375.228 401.968, 377.581 401.879, 379.589 404.098 C 380.535 405.144, 381.760 406, 382.310 406 C 382.860 406, 382.565 405.177, 381.655 404.171 C 380.676 403.089, 380 400.651, 380 398.202 C 380 392.449, 376.431 385.699, 374.060 386.968 C 372.204 387.961, 370 386.597, 370 384.455 C 370 383.825, 369.100 382.495, 368 381.500 C 366.900 380.505, 366 378.915, 366 377.967 C 366 377.020, 365.349 375.705, 364.554 375.045 C 363.758 374.384, 362.971 371.967, 362.804 369.672 C 362.623 367.193, 362.032 365.588, 361.346 365.718 C 359.206 366.122, 357.598 363.189, 359.020 361.476 C 359.716 360.638, 360.508 360.175, 360.781 360.448 C 361.054 360.721, 362.600 359.832, 364.216 358.472 C 369.401 354.109, 373.163 354.975, 380.662 362.256 L 387.104 368.511 386.232 374.076 C 385.115 381.200, 386.664 387.500, 389.532 387.500 C 390.784 387.500, 391.502 386.821, 391.506 385.635 C 391.510 384.610, 393.054 382.483, 394.938 380.910 C 398.174 378.209, 398.288 377.906, 396.979 375.460 C 394.484 370.798, 398.073 367.603, 402.099 370.902 C 404.092 372.535, 404.306 373.189, 403.357 374.750 C 402.609 375.981, 402.539 377.212, 403.157 378.315 C 404.649 380.982, 406.081 380.343, 404.998 377.494 C 404.221 375.452, 404.411 374.760, 406.023 373.754 C 407.156 373.046, 408 371.426, 408 369.959 C 408 366.941, 409.667 365, 412.259 365 C 413.281 365, 413.840 364.550, 413.500 364 C 413.160 363.450, 412.078 363, 411.096 363 C 410.114 363, 408.472 362.074, 407.447 360.941 C 403.802 356.914, 408.758 354.196, 415.612 356.463 C 418.489 357.414, 419.644 354.369, 417.362 351.847 C 415.801 350.123, 415.541 350.105, 413.882 351.607 C 412.178 353.149, 410.223 353.177, 403.500 351.757 C 402.361 351.516, 400.735 349.647, 399.724 347.417 C 396.635 340.607, 396.617 340.592, 390.914 340.244 C 383.907 339.817, 381.694 337.902, 385.402 335.472 C 387.481 334.110, 387.793 333.456, 386.885 332.361 C 385.968 331.257, 385.434 331.225, 384.255 332.204 C 383.036 333.215, 382.265 332.861, 379.887 330.200 C 376.345 326.235, 376.235 323.747, 379.490 321.187 C 381.683 319.462, 381.797 319.076, 380.447 317.956 C 379.438 317.119, 379.252 316.348, 379.903 315.697 C 380.447 315.153, 380.632 313.412, 380.315 311.827 C 379.688 308.692, 382.239 304.771, 384.373 305.590 C 385.024 305.840, 386.444 305.374, 387.529 304.554 C 389.442 303.107, 389.425 303.063, 386.950 303.032 C 385.547 303.014, 383.871 303.529, 383.224 304.176 C 382.322 305.078, 381.614 304.961, 380.192 303.674 C 379.172 302.751, 378.048 302.286, 377.693 302.640 C 376.652 303.681, 374 300.928, 374 298.808 C 374 296.564, 379.610 288, 381.080 288 C 382.609 288, 383.909 283.673, 382.796 282.291 C 380.278 279.163, 384.298 272.322, 388.074 273.309 C 389.723 273.740, 390.018 273.504, 389.487 272.177 C 389.118 271.255, 388.098 268.250, 387.219 265.500 C 386.341 262.750, 384.582 259.228, 383.311 257.673 C 382.040 256.119, 381 254.036, 381 253.046 C 381 250.754, 383.557 248.474, 384.470 249.951 C 384.826 250.528, 385.541 251, 386.059 251 C 387.909 251, 386.948 248.754, 383.868 245.876 C 380.833 243.042, 380.791 242.888, 382.523 240.975 C 384.691 238.579, 386.300 238.495, 389.527 240.610 C 393.104 242.954, 395.669 241.794, 393.562 238.785 C 390.568 234.510, 392.547 230.851, 398.828 229.049 C 402.708 227.937, 406.525 230.560, 407.503 235.012 C 407.953 237.064, 408.760 238, 410.079 238 C 412.509 238, 412.486 237.576, 409.860 234.024 C 407.703 231.108, 407.164 227.192, 408.411 223.500 C 408.912 222.016, 408.143 220.533, 405.429 217.750 C 401.502 213.723, 398.717 213.109, 395.287 215.511 C 393.060 217.072, 390 214.676, 390 211.371 C 390 210.673, 389.166 210.405, 387.967 210.719 C 386.814 211.021, 385.142 210.533, 384.102 209.592 C 382.713 208.336, 381.268 208.093, 378.140 208.594 C 372.707 209.462, 370.326 207.801, 372.518 204.670 C 375.758 200.044, 373.078 194.224, 368.301 195.513 C 362.340 197.122, 360.992 196.698, 356.381 191.769 L 351.888 186.966 353.873 184.179 C 356.377 180.661, 353.759 177.988, 349.855 180.078 C 346.631 181.803, 342.758 177.813, 345.245 175.327 C 346.665 173.907, 347.345 173.836, 349.615 174.871 C 351.490 175.725, 352.622 175.778, 353.352 175.048 C 356.424 171.976, 362.411 175.512, 360.181 179.081 C 359.209 180.637, 359.254 181, 360.415 181 C 362.397 181, 368 185.867, 368 187.589 C 368 189.918, 369.361 189.227, 373.921 184.581 C 378.654 179.758, 379.753 179.679, 384.257 183.840 C 386.392 185.813, 387.282 186.118, 388.207 185.193 C 390.018 183.382, 392.158 183.743, 396.302 186.559 L 400.068 189.118 399.407 186.309 C 399.044 184.764, 397.453 182.129, 395.873 180.452 C 394.293 178.776, 393 176.948, 393 176.390 C 393 174.928, 387.207 170.856, 386.577 171.875 C 385.614 173.433, 380.788 171.765, 374.853 167.823 C 368.616 163.680, 367.589 161.248, 370.468 157.441 C 372.621 154.594, 372.318 153, 369.622 153 C 368.315 153, 366.721 152.369, 366.081 151.597 C 365.102 150.418, 364.487 150.406, 362.208 151.524 C 355.150 154.987, 352.701 154.574, 347.771 149.090 C 345.264 146.302, 342.377 143.890, 341.356 143.731 C 337.508 143.132, 336.900 142.094, 338.539 138.925 C 340.014 136.073, 339.968 135.876, 337.294 133.577 C 334.553 131.219, 334.542 131.163, 336.414 129.095 C 338.821 126.435, 340.497 126.444, 342.375 129.125 L 343.864 131.250 346.450 128.459 L 349.037 125.668 346.892 123.385 C 345.284 121.673, 344.912 120.402, 345.405 118.301 C 347.126 110.972, 347.023 100.003, 345.233 99.914 C 338.938 99.602, 336.903 99.166, 334.555 97.628 L 331.910 95.895 334.486 92.834 C 336.027 91.003, 336.840 89.071, 336.509 88.027 C 335.354 84.390, 338.571 83.688, 342.160 86.795 C 348.539 92.316, 355.112 90.953, 349.787 85.214 C 346.076 81.214, 344.163 70.582, 346.658 67.825 C 348.148 66.179, 349.224 65.951, 352.977 66.487 C 357.400 67.119, 357.449 67.096, 355.183 65.463 C 353.824 64.484, 353.100 63.181, 353.433 62.315 C 353.744 61.502, 353.325 59.874, 352.500 58.696 C 350.690 56.112, 350.562 52.838, 352.207 51.193 C 354.708 48.692, 350.927 46.691, 347.207 48.547 C 345.457 49.420, 343.570 49.852, 343.013 49.508 C 341.657 48.670, 341.735 49.603, 343.219 51.980 C 344.434 53.924, 340.270 60, 337.723 60 C 337.227 60, 336.032 60.974, 335.067 62.165 L 333.314 64.330 328.631 62.064 C 323.233 59.450, 319.091 53, 321.518 50.985 C 322.293 50.342, 323.055 50.280, 323.396 50.832 C 324.171 52.086, 329 52.952, 329 51.837 C 329 51.349, 327.863 50.518, 326.474 49.990 C 322.896 48.630, 322.201 46.065, 324.833 43.934 C 326.025 42.969, 327 41.699, 327 41.113 C 327 39.482, 331.753 36.730, 333.116 37.571 C 334.926 38.690, 341.725 38.185, 344.067 36.757 C 346.277 35.411, 350 38.462, 350 41.619 C 350 42.767, 350.358 42.793, 352 41.768 C 353.100 41.081, 354 39.754, 354 38.818 C 354 37.883, 354.496 36.812, 355.102 36.437 C 356.189 35.765, 358.060 31.789, 359.496 27.099 C 360.079 25.192, 359.918 24.817, 358.713 25.280 C 357.878 25.600, 356.905 25.572, 356.550 25.217 C 354.300 22.967, 345 25.198, 345 27.987 C 345 28.972, 344.163 30.812, 343.140 32.075 L 341.281 34.372 338.537 31.628 C 335.955 29.046, 335.892 28.777, 337.462 27.042 C 339.497 24.793, 338.142 23.675, 334.491 24.592 C 332.563 25.076, 331.268 24.661, 329.489 22.990 C 326.613 20.288, 324.026 19.816, 313.500 20.071 C 303.432 20.316, 301.959 20.267, 294.014 19.418 C 288.032 18.779, 287.635 18.855, 288.910 20.392 C 290.109 21.837, 290.008 22.363, 288.147 24.344 C 286.966 25.601, 286 27.353, 286 28.238 C 286 30.077, 281.028 36.361, 280.215 35.549 C 279.921 35.254, 279.051 35.910, 278.283 37.006 C 276.401 39.693, 274.384 39.516, 272.401 36.489 C 271.496 35.107, 267.915 31.717, 264.443 28.954 C 260.808 26.062, 257.996 23.007, 257.815 21.753 C 257.310 18.258, 253.619 17.960, 202.817 17.319 L 155.133 16.718 155.317 219.275 M 344.281 41.162 C 343.182 42.487, 337.063 42.760, 333.372 41.648 C 332.108 41.267, 330.906 41.896, 329.670 43.586 C 327.865 46.055, 327.874 46.113, 330.420 48.116 C 334.617 51.417, 332.211 58.020, 327.395 56.418 C 326.353 56.071, 327.015 56.760, 328.867 57.950 L 332.233 60.112 333.673 58.056 C 334.465 56.925, 335.708 56, 336.434 56 C 338.964 56, 340.241 53.359, 338.815 51.075 C 336.976 48.131, 338.843 45.510, 342.811 45.466 C 346.686 45.422, 347.252 44.856, 346.217 42.057 C 345.551 40.256, 345.176 40.083, 344.281 41.162 M 354.223 46.174 C 354.677 47.542, 362 48.383, 362 47.067 C 362 45.507, 360.621 45.070, 359.261 46.199 C 358.163 47.110, 357.375 47.091, 355.810 46.113 C 354.151 45.077, 353.862 45.088, 354.223 46.174 M 355 55.427 C 355 56.354, 355.855 57, 357.083 57 C 359.520 57, 359.176 54.663, 356.667 54.177 C 355.680 53.985, 355 54.495, 355 55.427 M 355.250 125.662 C 353.586 126.334, 353.657 129.470, 355.367 130.890 C 356.407 131.753, 357.035 131.663, 357.990 130.512 C 358.680 129.681, 360.090 129, 361.122 129 C 363.851 129, 363.422 127.111, 360.435 125.975 C 357.667 124.923, 357.158 124.892, 355.250 125.662 M 345.882 133.750 C 345.816 134.162, 345.835 134.894, 345.923 135.375 C 346.011 135.856, 345.320 137.094, 344.387 138.125 C 343.454 139.156, 343.168 140, 343.751 140 C 344.335 140, 346.461 142.294, 348.475 145.098 C 352.006 150.014, 352.270 150.172, 355.819 149.521 C 361.323 148.509, 361.533 147.590, 357.065 144.051 C 352.559 140.483, 352.233 139.505, 354.655 136.829 C 356.374 134.930, 356.259 134.840, 351.800 134.587 C 350.315 134.503, 348.778 134.111, 348.384 133.717 C 347.447 132.780, 346.032 132.799, 345.882 133.750 M 359 140.360 C 359 140.558, 360.532 142.344, 362.403 144.329 C 365.526 147.640, 365.915 147.796, 367.120 146.219 C 367.843 145.273, 368.035 144.838, 367.548 145.252 C 366.462 146.174, 363 143.200, 363 141.345 C 363 140.605, 362.100 140, 361 140 C 359.900 140, 359 140.162, 359 140.360 M 375.279 187.960 C 372.223 191.599, 372.190 191.747, 373.985 193.599 C 377.294 197.011, 379.939 202.661, 378.773 203.827 C 378.025 204.575, 378.356 204.720, 379.896 204.317 C 381.953 203.779, 381.983 203.638, 380.408 201.898 C 378.782 200.102, 378.867 194.576, 380.630 187.386 C 381.537 183.690, 378.599 184.005, 375.279 187.960 M 356.552 185.915 C 355.490 187.634, 360.666 192.581, 363.402 192.461 C 366.769 192.314, 367.405 191.581, 365.524 190.020 C 364.686 189.324, 364 188.183, 364 187.485 C 364 185.283, 357.756 183.968, 356.552 185.915 M 443.296 212.250 C 441.628 214.079, 441.270 215.717, 441.384 221 C 441.566 229.410, 442.339 230.665, 445.705 228.018 C 447.115 226.908, 448.814 226, 449.480 226 C 451.454 226, 454.111 222.511, 452.991 221.391 C 452.450 220.850, 451.830 218.875, 451.612 217 C 451.259 213.975, 448.109 210, 446.064 210 C 445.670 210, 444.425 211.012, 443.296 212.250 M 445 215.858 C 445 216.971, 445.408 218.134, 445.906 218.442 C 446.404 218.750, 446.561 219.962, 446.254 221.135 C 445.850 222.682, 446.082 223.128, 447.098 222.759 C 447.869 222.479, 448.352 221.639, 448.172 220.891 C 447.992 220.144, 447.760 218.436, 447.657 217.095 C 447.428 214.117, 445 212.987, 445 215.858 M 15.503 222.996 C 15.164 223.543, 14.910 233.781, 14.938 245.746 C 14.965 257.711, 15.049 299.450, 15.124 338.500 C 15.198 377.550, 15.489 412.087, 15.769 415.250 L 16.278 421 73.639 421 L 131 421 131 321.500 L 131 222 73.559 222 C 36.510 222, 15.900 222.353, 15.503 222.996 M 319.204 332.254 C 316.275 335.783, 323.135 339.650, 333.192 340.139 C 335.773 340.265, 338.872 340.896, 340.080 341.543 C 342.843 343.022, 349.640 341.554, 352.475 338.867 C 354.437 337.007, 354.432 336.977, 351.793 334.338 C 349.185 331.730, 349.015 331.702, 342.484 332.784 C 338.347 333.470, 334.931 333.544, 333.450 332.981 C 332.139 332.483, 329.815 332.135, 328.284 332.209 C 326.753 332.282, 324.342 332.012, 322.926 331.607 C 321.196 331.113, 319.975 331.325, 319.204 332.254 M 342 336.896 C 340.205 337.396, 339.923 337.750, 341 338.152 C 341.825 338.460, 344.300 338.149, 346.500 337.461 C 350.239 336.291, 350.304 336.209, 347.500 336.205 C 345.850 336.202, 343.375 336.513, 342 336.896 M 424.500 429 C 424.840 429.550, 426.640 430, 428.500 430 C 430.360 430, 432.160 429.550, 432.500 429 C 432.878 428.388, 431.324 428, 428.500 428 C 425.676 428, 424.122 428.388, 424.500 429 M 437 429.115 C 438.375 429.705, 443.294 430.191, 447.932 430.196 C 455.172 430.203, 456.918 430.554, 460.284 432.679 L 464.204 435.154 461.928 437.577 L 459.651 440 487.691 440 C 514.543 440, 515.842 440.088, 518.365 442.073 L 521 444.145 521.023 466.323 C 521.044 487.145, 521.141 488.306, 522.612 485.325 C 525.488 479.493, 527.844 478.090, 530.095 480.869 C 532.166 483.427, 532.588 486.519, 531 487.500 C 529.509 488.422, 529.792 491.583, 531.493 492.994 C 532.314 493.675, 533.437 495.909, 533.989 497.958 C 535.557 503.782, 538.155 505.598, 542.754 504.085 C 545.250 503.264, 550.293 503.017, 557.867 503.344 C 569.082 503.828, 569.280 503.879, 572.617 507.114 L 576 510.392 576 506.196 L 576 502 557.674 502 C 532.805 502, 535 505.024, 535 470.758 L 535 444.145 537.635 442.073 C 539.084 440.933, 541.136 440, 542.194 440 C 543.298 440, 543.838 439.547, 543.461 438.937 C 542.494 437.373, 545.959 434, 548.533 434 C 551.199 434, 553.441 436.407, 552.664 438.434 C 551.914 440.388, 557.759 441.212, 569.500 440.809 L 578.500 440.500 578.800 434.750 L 579.100 429 547.734 429 C 530.483 429, 497.948 428.785, 475.434 428.522 C 445.799 428.175, 435.190 428.339, 437 429.115 M 15.193 511.917 C 15.362 549.272, 15.781 580.115, 16.123 580.457 C 16.466 580.800, 42.639 581.175, 74.286 581.290 L 131.825 581.500 132.354 578 C 132.645 576.075, 132.922 545.138, 132.970 509.250 L 133.058 444 73.972 444 L 14.885 444 15.193 511.917 M 156.236 513.996 L 156.113 582 190.306 582.007 C 209.113 582.010, 233.500 582.227, 244.500 582.488 C 267.414 583.032, 328.064 583.702, 424.500 584.476 C 493.092 585.026, 512.470 584.476, 514.041 581.934 C 514.515 581.167, 514.934 550.273, 514.972 513.279 L 515.042 446.018 335.701 446.005 L 156.360 445.993 156.236 513.996 M 525.401 493.160 C 523.985 495.451, 522.774 570.001, 524.076 574.715 C 524.717 577.034, 524.965 579.648, 524.629 580.525 C 524.125 581.839, 524.676 582.065, 527.758 581.810 L 531.500 581.500 531.759 556 C 532.150 517.545, 530.704 519.953, 553.659 519.533 C 572.692 519.185, 573.261 519.021, 572.426 514.134 C 571.386 508.048, 569.986 507.491, 555.946 507.572 C 549.101 507.612, 542.319 507.991, 540.876 508.414 C 537.465 509.416, 531.567 503.818, 530.033 498.124 C 528.807 493.569, 526.606 491.211, 525.401 493.160 M 575.457 520.070 C 575.093 520.659, 573.829 521.530, 572.648 522.007 C 570.770 522.764, 570.908 522.881, 573.750 522.937 C 576.354 522.987, 577 522.603, 577 521 C 577 518.779, 576.457 518.451, 575.457 520.070 M 578 525.500 C 576.977 526.733, 573.509 527, 558.520 527 L 540.285 527 539.642 533.147 C 539.289 536.527, 539 549.508, 539 561.992 C 539 583.628, 538.904 584.777, 536.943 586.551 C 534.107 589.118, 522.950 589.853, 519.649 587.690 C 517.679 586.398, 516.576 586.339, 512.897 587.323 C 508.608 588.471, 418.807 588.597, 320.500 587.592 C 189.770 586.257, 155.398 585.670, 154.250 584.753 C 153.396 584.071, 152.485 584.183, 151.374 585.105 C 150.036 586.215, 137.841 586.398, 82.624 586.140 L 15.500 585.825 13.117 583.663 L 10.734 581.500 11.458 585.492 C 11.856 587.688, 12.398 589.835, 12.663 590.264 C 12.928 590.693, 29.650 590.969, 49.822 590.879 C 69.995 590.789, 134.875 590.758, 194 590.812 C 531.096 591.116, 564.106 590.983, 572 589.291 L 579.500 587.684 579.500 555.842 C 579.500 538.328, 579.443 524, 579.372 524 C 579.302 524, 578.685 524.675, 578 525.500 M 218.768 595.725 C 220.565 595.947, 223.265 595.943, 224.768 595.715 C 226.271 595.486, 224.800 595.304, 221.500 595.310 C 218.200 595.315, 216.971 595.502, 218.768 595.725" stroke="none" fill="#1A1A1A" fill-rule="evenodd"/>
</svg>