<svg xmlns="http://www.w3.org/2000/svg" width="592" height="600" viewBox="0 0 592 600" version="1.1">
	<rect x="0" y="0" width="100%" height="100%" fill="#FFFFFF" />
	<path d="M 134.579 11.913 C 133.187 13.451, 132.983 22.955, 132.756 97.072 L 132.500 180.500 73.779 180.500 C 2.839 180.500, 10.829 178.018, 10.879 200.040 C 10.930 222.299, 3.096 219.809, 74.250 220.184 L 133 220.493 133 321.747 L 133 423 74.174 423 C 15.349 423, 15.349 423, 13.243 425.250 C 11.148 427.489, 11.136 427.857, 10.856 500.001 C 10.701 539.877, 10.890 573.013, 11.275 573.636 C 11.661 574.260, 11.472 576.215, 10.857 577.981 C 9.859 580.843, 9.996 581.444, 12.119 583.511 C 15.969 587.262, 148.752 587.958, 152.239 584.246 C 154.499 581.840, 154.499 581.840, 154.860 512.811 L 155.221 443.782 249.360 444.361 C 301.137 444.680, 382.604 444.954, 430.399 444.970 L 517.298 445 516.620 514.655 C 515.834 595.589, 514.944 589, 526.659 589 C 538.798 589, 538.950 588.591, 539.168 555.250 L 539.353 527 558.002 527 C 581.773 527, 581.369 527.263, 580.846 512.161 C 580.321 496.972, 580.646 497.182, 557.929 497.360 L 540.001 497.500 540.001 471.271 L 540 445.041 560.143 444.771 C 580.286 444.500, 580.286 444.500, 582.119 442 C 583.867 439.614, 583.962 434.189, 584.181 323.500 C 584.308 259.700, 584.770 164.750, 585.208 112.500 C 586.090 7.328, 586.383 12.843, 579.892 12.299 C 552.579 10.010, 136.628 9.649, 134.579 11.913 M 137.712 15.622 C 137.320 16.013, 137 53.539, 137 99.012 C 137 181.058, 136.984 181.704, 134.953 183.543 C 133.049 185.266, 130.395 185.410, 97.203 185.596 C 52.304 185.849, 31.343 186.500, 29.747 187.691 C 28.285 188.783, 27.420 188.716, 23.857 187.232 C 18.780 185.117, 17.014 186.546, 16.889 192.867 C 16.828 195.965, 16.620 201.183, 16.426 204.462 C 15.931 212.829, 16.931 213.680, 28.344 214.613 C 38.387 215.434, 46.556 215.541, 55 214.963 C 58.025 214.756, 67.475 214.665, 76 214.762 C 84.525 214.858, 97.350 214.988, 104.500 215.051 C 111.650 215.113, 121.177 215.399, 125.672 215.685 C 138.753 216.517, 137.948 214.128, 138.609 254.095 C 139.251 292.926, 139.318 288.120, 138.031 295 C 137.373 298.517, 137.333 302.303, 137.920 305.500 C 138.425 308.250, 138.668 316.800, 138.461 324.500 C 138.253 332.200, 137.952 357.476, 137.792 380.668 C 137.500 422.836, 137.500 422.836, 135.069 425.425 C 132.638 428.014, 132.638 428.014, 74.976 427.345 C 17.314 426.677, 17.314 426.677, 16.668 430.588 C 14.946 441.013, 8.738 440, 74.326 440 C 132.651 440, 132.651 440, 134.826 442.314 C 137 444.629, 137 444.629, 137 512.864 L 137 581.100 142.691 580.800 C 148.381 580.500, 148.381 580.500, 148.645 576 C 148.896 571.720, 149.810 488.541, 149.939 458.205 C 150.013 440.766, 150.735 439.448, 160.378 439.133 C 167.799 438.890, 168.269 438.785, 169.621 437.062 C 170.409 436.057, 172.411 435.701, 176.273 435.880 C 182.484 436.167, 184.129 434.905, 181.429 431.921 C 179.677 429.986, 179.644 429.986, 177.531 431.971 C 175.566 433.817, 175.275 433.847, 173.778 432.349 C 172.537 431.108, 170.195 430.730, 163.827 430.744 C 153.858 430.766, 151.684 429.363, 149.577 421.546 C 148.290 416.770, 148.096 398.917, 149.235 390 C 149.481 388.075, 149.313 385.185, 148.861 383.578 C 148.356 381.778, 148.444 380.170, 149.090 379.392 C 149.827 378.503, 149.785 377.467, 148.949 375.905 C 148.189 374.485, 147.998 371.841, 148.420 368.591 C 149.685 358.838, 149.918 344.606, 148.834 343.301 C 148.252 342.599, 148.105 341.232, 148.506 340.263 C 149.757 337.243, 149.711 327.846, 148.428 324.112 C 147.754 322.151, 147.429 319.636, 147.706 318.523 C 147.983 317.411, 148.165 315.825, 148.111 315 C 146.766 294.425, 146.759 280.777, 148.090 270.657 C 148.657 266.344, 148.824 260.436, 148.460 257.528 C 148.094 254.596, 148.209 251.989, 148.719 251.674 C 149.247 251.348, 149.479 243.101, 149.265 232.303 C 149.060 221.961, 148.922 212.375, 148.958 211 C 149.542 188.960, 149.791 25.853, 149.248 21.500 C 148.500 15.500, 148.500 15.500, 143.462 15.205 C 140.690 15.043, 138.103 15.230, 137.712 15.622 M 161.250 15.782 L 155 16.095 155.015 218.298 C 155.024 329.509, 155.361 420.998, 155.765 421.606 C 156.837 423.220, 527.011 425.388, 576.020 424.068 C 578.528 424, 578.538 423.961, 578.129 416.250 C 577.902 411.988, 577.836 406.925, 577.981 405 C 578.265 401.235, 578.338 385.728, 578.099 380 C 578.018 378.075, 578.281 366.375, 578.682 354 C 579.612 325.307, 579.586 316.199, 578.533 302 C 577.495 288.007, 577.569 284.031, 578.892 282.708 C 579.566 282.034, 579.574 281.073, 578.918 279.847 C 578.247 278.592, 578.294 277.319, 579.067 275.875 C 579.896 274.326, 580.025 262.063, 579.544 230.625 C 579.181 206.906, 578.862 185.025, 578.834 182 C 578.807 178.975, 579.333 165.025, 580.003 151 C 580.674 136.975, 580.963 116.950, 580.645 106.500 C 580.327 96.050, 579.862 75.213, 579.612 60.196 C 579.293 41.125, 578.796 32.459, 577.963 31.456 C 577.307 30.665, 576.969 28.664, 577.212 27.009 C 577.591 24.428, 577.335 24, 575.416 24 C 574.160 24, 572.077 22.692, 570.671 21.021 C 568.165 18.043, 568.165 18.043, 548.332 18.117 C 537.425 18.158, 526.568 18.143, 524.208 18.084 C 521.847 18.024, 519.006 18.462, 517.894 19.057 C 516.418 19.847, 515.492 19.823, 514.464 18.970 C 513.407 18.093, 483.077 17.804, 392.778 17.812 C 321.859 17.819, 267.370 17.415, 260 16.828 C 248.179 15.886, 174.677 15.107, 161.250 15.782 M 572.463 17.372 C 575.662 20.571, 582.219 21.478, 581.794 18.663 C 581.580 17.247, 580.549 16.624, 578 16.372 C 576.075 16.181, 573.503 15.790, 572.285 15.502 C 570.079 14.982, 570.080 14.989, 572.463 17.372 M 197.452 428.922 C 198.431 430.506, 192.153 436.273, 190.049 435.723 C 188.923 435.429, 187.432 435.971, 186.484 437.018 C 184.163 439.582, 185.503 439.794, 204.500 439.861 C 220.500 439.918, 220.500 439.918, 218.121 437.944 C 216.608 436.689, 215.333 436.300, 214.621 436.875 C 211.142 439.685, 204.403 434.629, 207.175 431.289 C 208.506 429.686, 213.204 429.604, 214.758 431.158 C 215.634 432.034, 216.327 431.974, 217.611 430.908 C 219.957 428.961, 223.059 429.072, 225.885 431.202 C 227.197 432.191, 228.829 433, 229.512 433 C 231.867 433, 233.175 435.610, 231.512 436.990 C 230.681 437.680, 230 438.572, 230 438.972 C 230 440.270, 499.231 439.102, 500.534 437.799 C 500.903 437.430, 502.314 437.549, 503.668 438.064 C 505.156 438.630, 506.803 438.640, 507.830 438.091 C 508.933 437.501, 510.111 437.608, 511.190 438.397 C 514.191 440.591, 521.481 439.765, 521.613 437.216 C 521.818 433.244, 523.802 431.824, 526.592 433.652 C 527.916 434.520, 529.015 434.841, 529.033 434.365 C 529.052 433.889, 529.952 434.562, 531.033 435.861 C 532.324 437.411, 533 437.726, 533 436.777 C 533 435.983, 532.663 434.996, 532.250 434.583 C 531.837 434.171, 531.461 433.533, 531.414 433.167 C 530.937 429.488, 530.114 429.292, 514.899 429.243 C 500.039 429.196, 499.878 429.219, 497.511 431.771 C 495.032 434.445, 491.227 433.458, 492.385 430.440 C 493.030 428.758, 391.537 428.322, 390.498 430.003 C 390.067 430.701, 389.402 430.756, 388.661 430.155 C 387.166 428.941, 196.705 427.713, 197.452 428.922 M 558.636 430.494 C 558.952 431.316, 559.593 431.752, 560.061 431.462 C 560.529 431.173, 561.656 432.072, 562.565 433.460 C 563.475 434.847, 564.569 435.767, 564.996 435.502 C 566.561 434.536, 568.118 437.657, 566.670 438.859 C 565.925 439.477, 565.020 439.687, 564.658 439.325 C 564.296 438.963, 564 439.211, 564 439.875 C 564 440.742, 566.197 441.001, 571.750 440.792 C 579.500 440.500, 579.500 440.500, 579.796 434.875 C 580.092 429.250, 580.092 429.250, 574.565 429.250 C 571.095 429.250, 568.613 429.762, 567.896 430.625 C 566.385 432.446, 562.558 432.377, 561 430.500 C 559.394 428.565, 557.895 428.562, 558.636 430.494 M 539.220 433.265 C 536.423 436.243, 537.466 437.554, 543.246 438.327 C 548 438.962, 553 437.624, 553 435.717 C 553 435.110, 552.539 435.116, 551.750 435.733 C 548.083 438.603, 540.409 435.383, 542.573 431.882 C 543.685 430.083, 541.277 431.077, 539.220 433.265 M 532.299 441.622 C 530.275 442.472, 528.874 442.604, 528.490 441.983 C 527.560 440.479, 525.051 440.809, 522.658 442.750 C 519.849 445.028, 519.747 486.715, 522.544 489.037 C 523.880 490.145, 523.882 490.473, 522.558 491.936 C 521.301 493.325, 520.962 500.816, 520.410 539.293 L 519.755 585 526.127 584.985 C 535.527 584.962, 534.885 587.075, 535.097 555.469 C 535.338 519.642, 532.951 523, 558.174 523 L 577 523 576.986 514.250 C 576.964 499.999, 578.774 501.233, 557.796 501.161 C 533.670 501.078, 536 504.298, 536 471.045 C 536 453.893, 536.371 444.029, 537.042 443.358 C 539.055 441.345, 535.798 440.153, 532.299 441.622 M 36.250 444.772 L 17 445.043 16.879 455.272 C 16.231 509.824, 17.486 577.059, 19.172 578.127 C 20.744 579.124, 20.984 579.131, 50.437 579.001 C 73.374 578.901, 73.374 578.901, 76.588 575.200 C 79.802 571.500, 79.802 571.500, 82.362 573.888 C 84.348 575.740, 84.706 576.680, 83.959 578.077 C 82.732 580.370, 84.506 581.655, 86.552 579.957 C 87.427 579.231, 89.424 578.969, 91.508 579.308 C 94.403 579.777, 95 579.570, 95 578.092 C 95 574.106, 101.047 572.134, 104.494 574.995 C 105.702 575.997, 105.772 576.570, 104.827 577.709 C 103.429 579.393, 105.219 581.027, 107.915 580.529 C 108.787 580.368, 111.523 579.899, 113.997 579.488 C 116.572 579.060, 119.047 577.950, 119.790 576.889 C 121.103 575.015, 127.054 574.643, 129.651 576.273 C 131.293 577.304, 131.578 567.608, 131.847 501.750 L 132.079 445 116.290 444.750 C 95.607 444.423, 60.316 444.432, 36.250 444.772" stroke="none" fill="#1A1A1A" fill-rule="evenodd"/>
</svg>