<svg xmlns="http://www.w3.org/2000/svg" width="592" height="600" viewBox="0 0 592 600" version="1.1">
	<rect x="0" y="0" width="100%" height="100%" fill="#FFFFFF" />
	<path d="M 135.049 12.448 C 133.018 14.610, 133 15.340, 133 97.883 C 133 181.137, 133 181.137, 73.992 180.921 C 2.882 180.660, 11 178.204, 11 199.981 C 11 222.395, 3.011 219.855, 74.259 220.089 C 133 220.281, 133 220.281, 133 321.640 C 133 423, 133 423, 74.174 423 C 15.349 423, 15.349 423, 13.181 425.307 C 11.175 427.443, 10.253 506.418, 11.414 576.722 C 11.577 586.596, 5.627 585.810, 82.755 586.144 C 150.009 586.435, 150.009 586.435, 152.232 584.213 C 154.454 581.990, 154.454 581.990, 154.846 512.834 C 155.237 443.678, 155.237 443.678, 274.369 444.336 C 339.891 444.699, 421.361 444.996, 455.414 444.997 C 517.329 445, 517.329 445, 516.668 514.549 C 515.895 595.833, 514.901 589.654, 528.613 588.774 C 532.712 588.511, 536.255 588.604, 536.487 588.980 C 538.474 592.194, 577.500 589.225, 580.906 585.600 C 583.710 582.615, 584.324 516.729, 581.584 512.816 C 580.696 511.548, 580 508.533, 580 505.952 C 580 497.839, 578.715 497.347, 557.752 497.430 C 540.005 497.500, 540.005 497.500, 539.989 473.500 C 539.980 460.300, 539.701 448.488, 539.370 447.250 C 538.767 445, 538.767 445, 559.311 445 C 579.855 445, 579.855 445, 581.927 442.365 C 583.993 439.740, 584 439.372, 584.024 339.115 C 584.038 283.777, 584.478 188.778, 585.003 128.006 C 586.051 6.608, 586.380 14.886, 580.454 13.510 C 579.379 13.261, 576.700 12.639, 574.500 12.129 C 564.405 9.787, 137.257 10.097, 135.049 12.448 M 137 97.326 C 137 180.651, 137 180.651, 134.609 182.897 C 132.218 185.143, 132.218 185.143, 73.609 184.822 C 14.999 184.500, 14.999 184.500, 15 200.250 C 15 216, 15 216, 63.750 216.250 C 90.563 216.387, 116.937 216.356, 122.360 216.179 C 138.761 215.645, 137 202.974, 137 321.500 C 137 422.651, 137 422.651, 134.686 424.826 C 132.371 427, 132.371 427, 73.686 427 C 15 427, 15 427, 15 433.500 C 15 440, 15 440, 73.826 440 C 132.651 440, 132.651 440, 134.883 442.375 C 137.114 444.750, 137.114 444.750, 136.807 513.875 C 136.500 583.001, 136.500 583.001, 143.093 583 C 150.967 583, 151 582.646, 151 497.015 C 151 444.349, 151 444.349, 153.407 442.088 C 157.091 438.626, 514.986 439.880, 518.881 443.368 C 521.263 445.500, 521.263 445.500, 520.881 515 C 520.500 584.500, 520.500 584.500, 526.334 584.802 C 535.432 585.274, 535 586.756, 535 555.052 C 535 519.825, 532.746 523, 557.755 523 C 578.862 523, 577.424 523.910, 576.510 511.136 C 575.814 501.414, 575.814 501.414, 557.271 501.285 C 543.319 501.188, 538.403 500.828, 537.415 499.828 C 535.123 497.510, 535.214 445.526, 537.514 442.984 C 539.128 441.201, 540.933 441.018, 559.387 440.770 C 579.500 440.500, 579.500 440.500, 579.800 434.750 C 580.100 429, 580.100 429, 462.300 428.969 C 224.678 428.905, 155.838 428.170, 153.309 425.668 C 151.118 423.500, 151.118 423.500, 150.935 233 C 150.707 -5.098, 151.369 14, 143.347 14 C 137 14, 137 14, 137 97.326 M 238 16.500 C 238.685 17.325, 238.852 18.007, 238.372 18.015 C 237.893 18.024, 238.165 18.451, 238.977 18.965 C 239.992 19.606, 241.027 19.380, 242.286 18.241 C 244.399 16.329, 246.796 17.310, 248.577 20.818 C 249.646 22.923, 249.670 22.919, 251.681 20.226 C 253.452 17.853, 253.916 17.685, 255.366 18.889 C 256.412 19.757, 256.693 20.678, 256.127 21.383 C 254.769 23.074, 256.687 27.159, 258.742 26.949 C 262.642 26.551, 264.165 27.154, 267.997 30.616 C 270.537 32.911, 272 35.104, 272 36.616 C 272 40.960, 279.933 38.015, 282.633 32.669 C 285.886 26.229, 290.679 23.054, 292.558 26.094 C 292.930 26.696, 294.320 26.981, 295.647 26.727 C 297.276 26.416, 299.204 27.176, 301.582 29.065 C 306.816 33.225, 310.237 33.672, 313.311 30.598 C 316.700 27.209, 320.579 26.309, 322.869 28.381 C 325.282 30.565, 325.885 30.433, 327.010 27.474 C 328.180 24.396, 330.513 23.351, 332.513 25.011 C 334.478 26.642, 334.402 27.219, 331.781 30.551 C 329.300 33.706, 328.732 35.716, 330.085 36.553 C 331.478 37.413, 328.390 42.586, 325.074 44.947 C 319.741 48.744, 321.616 56.206, 328.820 59.859 C 336.389 63.697, 336.499 63.870, 333.414 67.089 C 329.887 70.771, 327.628 70.769, 324.902 67.081 C 321.758 62.829, 319.716 64.062, 322.033 68.812 C 323.023 70.840, 324.425 73.792, 325.150 75.371 C 325.875 76.950, 327.150 78.483, 327.984 78.776 C 331.482 80.009, 332.130 81.199, 330.365 83.150 C 328.044 85.714, 329.494 86.768, 332.099 84.411 C 336.384 80.533, 341.630 89.126, 337.797 93.745 C 337.202 94.462, 336.892 95.174, 337.107 95.327 C 340.640 97.833, 342.998 98.813, 343.509 97.986 C 343.902 97.350, 344.906 97.430, 346.311 98.210 C 347.515 98.878, 348.794 99.344, 349.154 99.244 C 350.908 98.760, 352.358 102.196, 351.190 104.068 C 350.535 105.116, 350 107.954, 350 110.376 C 350 113.142, 349.324 115.613, 348.181 117.025 C 346.406 119.217, 346.419 119.328, 348.743 121.652 C 352.223 125.132, 347.165 136.047, 342.476 135.175 C 341.135 134.926, 340.902 135.274, 341.475 136.675 C 341.885 137.679, 342.284 139.400, 342.361 140.500 C 342.452 141.806, 344.062 143.274, 346.998 144.728 C 349.471 145.954, 351.946 147.572, 352.498 148.325 C 353.049 149.077, 354.400 149.504, 355.500 149.274 C 356.600 149.044, 358.288 148.860, 359.250 148.866 C 360.212 148.871, 361 148.229, 361 147.438 C 361 146.647, 360.212 145.990, 359.250 145.978 C 354.366 145.916, 350.805 139.978, 353.719 136.758 C 355.205 135.116, 355.174 134.807, 353.305 132.740 C 351.677 130.937, 351.449 129.890, 352.137 127.376 C 354.746 117.841, 366.551 120.426, 367.481 130.735 C 367.691 133.064, 368.126 135.396, 368.448 135.916 C 368.770 136.436, 368.618 137.118, 368.110 137.432 C 365.710 138.915, 368.235 141.897, 371.662 141.627 C 375.901 141.293, 380.137 145.811, 377.577 147.936 C 376.603 148.745, 375.978 148.774, 375.520 148.032 C 375.158 147.447, 374.435 147.231, 373.913 147.554 C 373.384 147.880, 373.827 149.236, 374.914 150.618 C 376.870 153.104, 376.381 157.680, 373.864 160.450 C 372.540 161.906, 372.833 163, 374.545 163 C 375.395 163, 377.144 164.054, 378.432 165.341 C 380.899 167.808, 384.231 168.169, 386.216 166.184 C 386.867 165.533, 387.915 165, 388.543 165 C 389.858 165, 398 174.353, 398 175.863 C 398 176.415, 399.366 179.065, 401.037 181.752 C 402.976 184.872, 404.172 188.237, 404.347 191.068 C 404.497 193.506, 405.187 196.541, 405.880 197.814 C 407.436 200.674, 405.630 203.767, 403.456 201.964 C 400.738 199.708, 401.219 202.836, 404 205.500 C 405.611 207.043, 406.676 208.716, 406.366 209.216 C 406.057 209.717, 406.470 210.885, 407.284 211.813 C 408.098 212.741, 409.085 214.554, 409.478 215.841 C 410.114 217.925, 414.877 220.865, 418.800 221.596 C 420.813 221.970, 423 224.092, 423 225.670 C 423 226.454, 424.204 228.132, 425.675 229.397 C 429.420 232.618, 426.089 237.918, 420.182 238.136 C 418.068 238.214, 417.414 238.451, 418.646 238.692 C 424.511 239.839, 424.723 247, 418.892 247 C 417.181 247, 417.176 247.149, 418.797 250.053 C 420.710 253.483, 418.163 257, 413.767 257 C 412.134 257, 411.979 257.270, 412.944 258.433 C 413.904 259.590, 413.619 260.204, 411.466 261.614 C 408.430 263.604, 405.820 262.667, 405.410 259.441 C 405.275 258.373, 404.871 256.569, 404.512 255.430 C 404.103 254.129, 404.428 252.890, 405.386 252.094 C 406.726 250.982, 406.596 250.557, 404.321 248.600 C 402.102 246.691, 401.896 246.064, 402.883 244.219 C 405.123 240.034, 403.235 234, 399.685 234 C 396.626 234, 396.626 234, 399.287 236.778 C 403.603 241.283, 399.590 246.784, 392.547 246.018 C 390.885 245.837, 390.787 246.038, 391.889 247.366 C 392.957 248.653, 392.903 249.489, 391.581 252.137 C 390.082 255.143, 390.099 255.482, 391.841 257.424 C 394.549 260.445, 395.082 262.687, 393.418 264.068 C 392.138 265.130, 392.154 265.586, 393.549 267.715 C 395.038 269.988, 396.045 272.950, 396.247 275.655 C 396.349 277.019, 398.789 276.307, 401.250 274.193 C 402.212 273.366, 403 273.001, 403 273.380 C 403 273.760, 403.937 273.569, 405.083 272.955 C 406.737 272.070, 407.548 272.186, 409.020 273.518 C 410.040 274.441, 411.291 274.938, 411.801 274.623 C 412.311 274.308, 414.572 276.235, 416.824 278.906 C 421.563 284.526, 420.524 287.200, 413.600 287.200 C 411.663 287.200, 409.556 287.830, 408.917 288.600 C 408.278 289.370, 407.057 290, 406.203 290 C 404.987 290, 405.129 290.509, 406.861 292.352 C 408.698 294.308, 409.947 294.669, 414.285 294.497 C 422.270 294.182, 422.166 294.226, 421.969 291.250 C 421.445 283.296, 423.934 280.121, 428.791 282.545 C 430.601 283.448, 433.526 284.413, 435.291 284.688 C 437.056 284.963, 438.950 285.550, 439.500 285.993 C 440.050 286.436, 441.780 286.654, 443.344 286.477 C 444.909 286.300, 447.834 286.732, 449.844 287.437 C 452.497 288.367, 454.140 288.431, 455.832 287.670 C 457.515 286.913, 458.694 286.952, 460.068 287.811 C 462.487 289.321, 464 289.328, 464 287.829 C 464 287.185, 464.683 285.903, 465.517 284.981 C 467.067 283.268, 470.157 273.054, 469.090 273.172 C 468.765 273.208, 468.050 273.132, 467.500 273.003 C 466.950 272.874, 465.876 272.709, 465.112 272.635 C 462.066 272.339, 461.353 268.996, 463.892 266.912 C 466.670 264.633, 466.766 264.772, 461.219 263.015 C 457.515 261.842, 456.504 261.866, 453.719 263.194 C 446.797 266.493, 440.100 262.623, 441.896 256.362 C 442.388 254.645, 442.388 252.658, 441.895 251.778 C 440.690 249.624, 443.448 247.297, 445.342 248.869 C 446.080 249.481, 447.015 249.652, 447.419 249.248 C 447.823 248.844, 449.418 250.061, 450.962 251.954 C 453.563 255.140, 454.142 255.375, 458.784 255.129 C 461.541 254.982, 464.082 255.324, 464.431 255.888 C 464.779 256.451, 465.749 256.650, 466.586 256.329 C 467.862 255.839, 467.752 255.365, 465.907 253.402 C 463.762 251.118, 464.704 247.081, 467.045 248.528 C 467.495 248.806, 469.459 248.272, 471.409 247.342 C 474.768 245.740, 475.061 245.746, 476.941 247.446 C 478.724 249.060, 483.270 248.936, 481.652 247.318 C 481.303 246.970, 481.458 246.153, 481.996 245.505 C 482.673 244.689, 482.208 243.605, 480.488 241.988 C 479.119 240.703, 478 239.273, 478 238.811 C 478 237.530, 484.235 234.008, 486.509 234.004 C 487.615 234.002, 489.081 233.100, 489.768 232 C 490.459 230.893, 492.100 230, 493.443 230 C 494.778 230, 496.970 229.582, 498.314 229.071 C 503.531 227.087, 505.548 230.435, 501.883 234.996 C 498.317 239.434, 496.307 240.500, 494.437 238.948 C 492.993 237.750, 490.238 238.803, 488.111 241.367 C 487.091 242.596, 487.210 242.758, 488.826 242.335 C 490.104 242.001, 491.316 242.614, 492.379 244.130 C 494.471 247.117, 487.253 255.448, 483.226 254.694 C 480.430 254.170, 479.527 255.460, 479.512 260 C 479.498 264.161, 482.214 266.897, 484.487 265.011 C 485.591 264.094, 486.163 264.288, 487.185 265.924 C 488.684 268.325, 492.939 268.738, 493.125 266.500 C 493.194 265.675, 493.306 264.524, 493.375 263.943 C 493.444 263.361, 494.625 262.021, 496 260.965 C 497.375 259.909, 498.007 259.034, 497.405 259.022 C 496.803 259.010, 495.497 259.898, 494.503 260.996 C 492.221 263.518, 490.103 262.076, 490.217 258.079 C 490.260 256.544, 489.999 254.808, 489.636 254.221 C 487.801 251.252, 497.393 247.672, 503.218 249.152 C 507.352 250.202, 516.836 242.581, 514.545 240.050 C 511.992 237.229, 515.962 231, 520.313 231 C 521.750 231, 521.827 230.696, 520.803 229.056 C 517.679 224.054, 525.554 221.161, 529.025 226.035 C 531.348 229.298, 530.501 232, 527.155 232 C 525.955 232, 526.110 232.389, 527.777 233.557 C 530.582 235.521, 530.603 237.464, 527.841 239.399 C 525.380 241.122, 525.375 241.112, 532.626 248.363 C 537.096 252.833, 537.096 252.833, 535.548 256.539 C 533.571 261.271, 533.471 261, 537.186 261 C 539.111 261, 541.320 260.110, 542.770 258.750 C 545.170 256.500, 545.170 256.500, 547.085 258.861 C 549.657 262.032, 549.553 262.477, 545.509 265.561 C 541.304 268.769, 541.547 271.684, 546.394 276.143 C 549.500 279, 549.500 279, 546.234 282 C 542.811 285.144, 542.704 285.826, 545.952 283.798 C 550.231 281.125, 557.770 288.386, 554.485 292.016 C 552.723 293.964, 552.678 293.964, 549.565 292.040 C 546.424 290.099, 546.424 290.099, 542.114 292.547 C 537.602 295.110, 532 293.452, 532 289.554 C 532 288.834, 531.325 287.685, 530.500 287 C 529.275 285.984, 529 286.042, 529 287.321 C 529 288.182, 528.009 289.580, 526.799 290.428 C 524.282 292.191, 519.682 289.136, 520.204 286.049 C 520.509 284.246, 517.704 277.991, 514.381 273.064 C 512.511 270.293, 512.299 269.343, 513.282 268.151 C 514.336 266.872, 514.195 266.835, 512.243 267.875 C 510.285 268.919, 509.651 268.742, 507.448 266.539 C 504.646 263.737, 502 263.205, 502 265.443 C 502 266.237, 501.051 267.551, 499.892 268.363 C 498.732 269.176, 498.096 270.346, 498.478 270.964 C 498.860 271.582, 498.672 272.690, 498.061 273.427 C 496.353 275.485, 499.313 276.169, 501.946 274.325 C 506.870 270.876, 508.864 276.338, 504.816 282.185 C 503.793 283.662, 503.066 285.237, 503.201 285.685 C 503.335 286.133, 502.574 287.805, 501.509 289.400 C 500.444 290.995, 499.469 293.012, 499.341 293.881 C 499.087 295.612, 493.150 300.930, 491.424 300.973 C 490.833 300.988, 489.292 299.875, 488 298.500 C 486.708 297.125, 486.010 296, 486.448 296 C 486.886 296, 486.685 295.325, 486 294.500 C 484.029 292.125, 482.713 292.720, 483.449 295.653 C 484.150 298.444, 477.245 307, 474.292 307 C 472.239 307, 472.768 308.460, 476.070 311.915 C 479.346 315.344, 478.823 318.289, 475.110 317.319 C 474.067 317.046, 472.060 317.908, 470.397 319.343 C 467.500 321.842, 467.500 321.842, 464.500 319.593 C 462.095 317.790, 460.371 317.387, 455.803 317.560 C 450.100 317.776, 445.156 315.258, 447.924 313.547 C 449.451 312.603, 446.055 307.765, 444.330 308.427 C 443.574 308.717, 441.111 307.216, 438.856 305.092 C 433.647 300.186, 427.915 299.046, 423.729 302.082 C 422.204 303.187, 420.538 303.832, 420.025 303.515 C 418.414 302.520, 408.941 302.287, 408.359 303.228 C 408.054 303.722, 408.593 304.998, 409.557 306.063 C 411.436 308.139, 409.447 312, 406.500 312 C 404.268 312, 401.892 308.508, 403.221 307.179 C 404.846 305.554, 401.887 302.605, 398.482 302.456 C 397.101 302.395, 394.632 301.063, 392.996 299.496 C 389.484 296.132, 387.638 296.921, 390.899 300.392 C 392.131 301.704, 392.995 303.567, 392.819 304.533 C 392.583 305.835, 393.210 306.324, 395.247 306.427 C 399.104 306.622, 401.217 309.150, 401.484 313.888 C 401.610 316.122, 402.250 318.596, 402.905 319.386 C 403.718 320.365, 403.763 321.028, 403.049 321.470 C 400.457 323.072, 403.042 326.583, 405.747 325.135 C 407.348 324.278, 408.106 324.459, 409.536 326.040 C 411.140 327.812, 411.497 327.860, 412.991 326.508 C 416.040 323.749, 420.309 326.801, 419.473 331.142 C 419.120 332.974, 419.241 332.965, 422.087 330.938 C 424.500 329.220, 425.354 329.049, 426.551 330.043 C 428.401 331.578, 427.912 335.860, 425.703 337.475 C 424.188 338.583, 424.253 338.889, 426.448 340.952 C 427.772 342.195, 428.670 343.728, 428.443 344.356 C 428.216 344.985, 429.486 346.175, 431.265 347 C 433.902 348.223, 434.511 349.094, 434.560 351.711 C 434.593 353.477, 435.380 355.763, 436.310 356.790 C 440.214 361.103, 434.661 369.909, 430.501 366.001 C 428.294 363.927, 421.026 368.616, 422.572 371.117 C 424.947 374.959, 416.164 379.500, 413.557 375.777 C 412.061 373.642, 412 373.754, 412 378.655 C 412 384.257, 410.565 386.277, 406.803 385.968 C 403.168 385.669, 402.677 385.905, 403.890 387.367 C 405.432 389.225, 402.767 391.434, 399.891 390.682 C 397.771 390.127, 397.771 390.127, 399.907 392.401 C 402.043 394.675, 402.043 394.675, 399.874 397.433 C 396.701 401.467, 389 399.657, 389 394.878 C 389 392.530, 388.110 392.487, 386.392 394.750 C 384.667 397.022, 384.645 399, 386.345 399 C 387.085 399, 388.494 399.888, 389.477 400.974 C 393.229 405.120, 386.227 410.325, 382.020 406.518 C 380.556 405.193, 380.017 405.348, 376.941 407.977 C 374.750 409.850, 372.229 410.988, 370 411.109 C 366.584 411.295, 366.572 411.310, 369.500 411.738 C 374.537 412.475, 376.149 415.251, 373.232 418.168 C 372.369 419.031, 371.726 419.018, 370.638 418.114 C 369.490 417.162, 368.540 417.309, 366.046 418.826 C 363.191 420.562, 362.309 420.627, 356.459 419.527 C 352.916 418.861, 349.814 418.519, 349.566 418.767 C 349.318 419.015, 347.790 418.274, 346.170 417.121 C 343.592 415.285, 343.071 415.209, 341.990 416.512 C 340.064 418.833, 337.330 418.273, 335.067 415.094 C 333.583 413.011, 332.422 412.338, 330.966 412.719 C 328.618 413.333, 325.213 410.657, 323.869 407.141 C 322.901 404.609, 320 405.703, 320 408.599 C 320 411.648, 315.121 413.503, 311.980 411.648 C 308.429 409.550, 307.718 409.719, 303.252 413.729 C 299.747 416.875, 296.558 416.816, 297.197 413.617 C 297.556 411.819, 294.992 407.887, 293.901 408.561 C 293.260 408.957, 293.330 409.693, 294.098 410.618 C 295.054 411.769, 294.842 412.540, 293.042 414.455 C 291.804 415.773, 291.044 417.262, 291.354 417.763 C 292.774 420.061, 288.878 423, 284.193 423.165 C 259.056 424.048, 324.450 424.770, 439.587 424.882 C 579.674 425.017, 579.674 425.017, 580.578 244.259 C 581.783 3.417, 581.819 17.757, 580 17.385 C 579.175 17.217, 576.700 16.622, 574.500 16.063 C 567.254 14.224, 236.467 14.653, 238 16.500 M 157.265 17.058 C 153.110 18.669, 153.977 416.653, 158.147 421.677 C 159.031 422.742, 166.879 423.015, 197.376 423.040 C 218.344 423.057, 243.375 423.102, 253 423.140 C 270.522 423.208, 271.673 423.083, 277.784 420.427 C 279.590 419.642, 282.654 419, 284.593 419 C 286.892 419, 287.883 418.619, 287.441 417.905 C 287.069 417.303, 287.687 415.562, 288.814 414.037 C 290.018 412.409, 290.496 410.896, 289.971 410.371 C 289.446 409.846, 289.601 408.450, 290.346 406.989 C 291.707 404.320, 299.032 403.632, 301.355 405.955 C 302.960 407.560, 303.658 407.275, 307.467 403.466 C 311.157 399.776, 314.218 399.276, 317.325 401.855 C 318.515 402.843, 319.366 402.874, 321.014 401.992 C 323.922 400.436, 325.892 401.391, 327.135 404.958 C 327.707 406.599, 328.473 407.901, 328.838 407.852 C 329.202 407.803, 329.725 407.851, 330 407.958 C 330.275 408.065, 331.232 408.296, 332.126 408.470 C 333.021 408.644, 334.670 409.078, 335.792 409.434 C 336.914 409.790, 338.115 409.622, 338.462 409.061 C 339.178 407.903, 342.025 409.247, 346 412.622 C 350.015 416.031, 355.270 415, 354.492 410.957 C 353.896 407.864, 358.024 406.119, 360.079 408.595 C 360.720 409.368, 360.949 410, 360.587 410 C 360.226 410, 360.374 410.831, 360.918 411.847 C 361.576 413.075, 361.565 414.035, 360.886 414.714 C 360.192 415.408, 360.379 415.932, 361.471 416.350 C 363.250 417.033, 364.597 414.775, 363.484 412.974 C 362.372 411.174, 367.021 407, 370.138 407 C 373.484 407, 381.242 399.477, 380.622 396.834 C 379.972 394.065, 386.125 388.957, 390.596 388.555 C 392.743 388.361, 394.628 388.157, 394.785 388.101 C 394.942 388.046, 394.605 387.130, 394.036 386.067 C 393.175 384.459, 393.514 383.770, 396.055 381.961 C 399.010 379.857, 400.169 379.806, 405.750 381.536 C 407.828 382.180, 408 381.924, 408 378.176 C 408 375.944, 408.457 373.835, 409.016 373.490 C 409.575 373.144, 409.805 372.494, 409.527 372.044 C 409.249 371.595, 409.652 370.704, 410.422 370.065 C 411.397 369.256, 412.022 369.226, 412.480 369.968 C 412.842 370.553, 413.526 370.793, 414.001 370.500 C 414.475 370.206, 415.522 370.907, 416.327 372.057 C 417.739 374.072, 419.824 373.143, 418.543 371.069 C 418.226 370.557, 418.432 369.851, 419 369.500 C 419.568 369.149, 419.796 368.479, 419.507 368.011 C 419.217 367.543, 420.448 366.004, 422.240 364.591 C 425.033 362.390, 425.207 362.021, 423.450 362.011 C 419.125 361.988, 417.307 356.335, 420.811 353.807 C 423.584 351.806, 424.293 350.058, 422.974 348.469 C 422.316 347.675, 422.045 345.958, 422.372 344.653 C 422.784 343.012, 422.357 341.728, 420.987 340.489 C 419.366 339.021, 419.230 338.407, 420.236 337.098 C 421.017 336.083, 420.659 336.188, 419.252 337.388 C 416.636 339.618, 413.542 338.017, 414.519 334.939 C 416.254 329.475, 416.094 328.615, 413.717 330.615 C 412.497 331.640, 411.327 332.582, 411.115 332.708 C 410.903 332.834, 411.453 334.042, 412.337 335.392 C 415.713 340.544, 411.033 343.379, 406.793 338.750 C 403.692 335.364, 403.102 335.110, 400.245 335.930 C 397.868 336.611, 396.809 336.475, 395.892 335.370 C 395.225 334.566, 394.110 334.128, 393.413 334.395 C 392.716 334.662, 391.641 334.273, 391.025 333.530 C 389.422 331.599, 391.495 330.556, 397 330.525 C 401.015 330.503, 402.676 328.863, 399.200 328.353 C 395.560 327.819, 394.854 325.763, 397.393 323.095 C 399.502 320.880, 399.675 320.244, 398.572 318.750 C 397.189 316.877, 395.441 316.286, 396.539 318.063 C 397.395 319.448, 394.164 323, 392.048 323 C 390.460 323, 383.225 316.370, 382.944 314.657 C 382.867 314.193, 384.047 312.517, 385.565 310.932 C 389.297 307.037, 389.604 303.263, 386.395 300.739 C 384.113 298.944, 384.031 298.623, 385.448 297.058 C 388.070 294.160, 387.390 292.514, 384.384 294.484 C 380.616 296.953, 377.539 294.272, 380.450 291.055 C 381.450 289.951, 382.626 289.269, 383.065 289.540 C 383.503 289.811, 384.149 289.568, 384.500 289 C 384.851 288.432, 385.506 288.195, 385.956 288.473 C 386.405 288.751, 387.325 288.313, 388 287.500 C 388.675 286.687, 389.702 286.316, 390.283 286.675 C 390.932 287.076, 391.104 286.713, 390.729 285.735 C 389.005 281.244, 388.892 277.334, 390.449 276.042 C 391.886 274.850, 391.894 274.540, 390.526 273.028 C 388.612 270.914, 387.884 265.158, 389.253 262.966 C 390.038 261.710, 389.759 260.594, 388.101 258.351 C 386.055 255.584, 386.013 255.204, 387.451 252.447 C 389.483 248.549, 389.439 248.325, 386.342 246.805 C 382.350 244.845, 381.164 242.408, 383.207 240.364 C 384.732 238.839, 385.090 238.829, 387.260 240.250 C 389.450 241.686, 392.645 242.386, 395.750 242.111 C 397.543 241.952, 397.255 239.889, 395.036 237.002 C 391.244 232.066, 401.074 226.992, 405.212 231.750 C 407.302 234.154, 408.310 241.553, 406.904 244.180 C 405.874 246.104, 405.984 246.236, 408.137 245.660 C 409.436 245.312, 411.400 245.014, 412.500 244.998 C 416.432 244.941, 417.640 243.365, 415.536 241.039 C 411.538 236.622, 413.775 230.471, 418.467 232.982 C 422.465 235.122, 425.180 233.355, 421.750 230.845 C 420.238 229.739, 419 227.956, 419 226.883 C 419 225.254, 418.410 225.523, 415.415 228.518 C 411.897 232.036, 408.019 231.999, 409.376 228.462 C 409.633 227.792, 409.410 226.810, 408.879 226.279 C 408.260 225.660, 408.467 224.858, 409.455 224.037 C 410.814 222.909, 410.643 222.357, 407.998 219.345 C 406.349 217.467, 405 215.326, 405 214.588 C 405 213.849, 404.305 212.668, 403.454 211.962 C 402.604 211.257, 402.139 210.080, 402.420 209.348 C 402.719 208.569, 401.692 207.375, 399.948 206.473 C 396.815 204.853, 394.833 206.303, 396.498 208.996 C 397.694 210.931, 394.099 215.327, 392.444 213.954 C 391.662 213.304, 391.271 212.371, 391.574 211.880 C 391.878 211.388, 391.311 210.696, 390.313 210.341 C 387.164 209.221, 385 206.773, 385 204.330 C 385 200.364, 394.595 195.917, 396.500 199 C 397.499 200.616, 398.727 200.154, 399.305 197.943 C 399.696 196.446, 399.523 196.151, 398.668 196.860 C 397.892 197.505, 396.656 197.386, 395.020 196.511 C 392.872 195.361, 392.202 195.432, 389.930 197.050 C 387.971 198.445, 387.026 198.626, 386.173 197.773 C 384.571 196.171, 384.227 196.829, 383.762 202.384 C 383.313 207.756, 380.746 210.864, 378.380 208.900 C 377.674 208.314, 376.238 208.107, 375.189 208.440 C 371.801 209.515, 370.675 206.643, 373.516 204.173 C 374.882 202.985, 376 201.622, 376 201.143 C 376 199.564, 370.780 195.018, 369.720 195.673 C 362.612 200.066, 350.262 188.732, 356.250 183.312 C 360.373 179.581, 362.748 179.748, 367.074 184.074 C 369.320 186.320, 371 187.387, 371 186.568 C 371 184.753, 376.606 180.711, 379.560 180.397 C 382.978 180.032, 386.791 184.504, 385.214 187.029 C 383.122 190.380, 383.600 193.267, 386 191.768 C 387.100 191.081, 388 189.782, 388 188.882 C 388 184.729, 393.280 184.119, 397.250 187.815 C 401.184 191.476, 401.045 188.039, 397 181.661 C 395.350 179.059, 394 176.319, 394 175.572 C 394 173.731, 391.207 172.784, 389.164 173.932 C 387.953 174.613, 386.896 174.301, 385.279 172.787 C 383.492 171.113, 382.773 170.944, 381.596 171.920 C 380.402 172.911, 379.819 172.654, 378.421 170.519 C 377.478 169.081, 375.192 167.271, 373.340 166.497 C 369.403 164.853, 368.198 162.513, 369.892 159.801 C 371.873 156.629, 373.138 152.797, 371.964 153.522 C 371.398 153.872, 369.425 153.268, 367.581 152.180 C 364.661 150.458, 364.041 150.388, 362.786 151.642 C 360.302 154.127, 353.223 154.054, 350.165 151.513 C 348.699 150.295, 347.017 149.467, 346.427 149.673 C 345.837 149.880, 344.530 149.138, 343.522 148.024 C 342.175 146.536, 340.439 146, 336.967 146 C 330.681 146, 329.049 144.144, 331.862 140.194 C 333.644 137.691, 333.764 136.841, 332.786 133.653 C 331.785 130.391, 331.900 129.735, 333.840 127.671 C 335.038 126.395, 335.717 125.050, 335.349 124.682 C 334.980 124.314, 335.504 123.100, 336.513 121.985 C 338.725 119.542, 344.541 123.824, 343.648 127.239 C 343.378 128.270, 343.740 129, 344.520 129 C 346.913 129, 346.713 125.561, 344.158 122.767 C 341.697 120.076, 341.688 120.003, 343.549 117.945 C 345.014 116.327, 347.535 104, 346.402 104 C 344.826 104, 343.170 109.299, 344.220 110.980 C 345.893 113.659, 341.284 118.759, 338.337 117.489 C 335.172 116.126, 334.123 116.146, 332.921 117.595 C 330.202 120.871, 326.342 117.861, 327.924 113.699 C 328.651 111.787, 328.532 110.857, 327.446 109.955 C 325.365 108.228, 325.667 103.611, 328 101.500 C 329.923 99.759, 330.076 99.759, 331.981 101.483 C 333.603 102.950, 334.238 103.047, 335.481 102.016 C 338.369 99.619, 336.967 99, 328.655 99 C 321.537 99, 320.040 98.701, 318.472 96.969 C 315.265 93.425, 318.457 91.500, 327.538 91.500 C 331.642 91.500, 335 91.162, 335 90.750 C 335 90.338, 333.480 90, 331.622 90 C 329.765 90, 327.685 89.325, 327 88.500 C 326.315 87.675, 324.487 87, 322.937 87 C 318.324 87, 316.846 82.227, 320.259 78.355 C 321.498 76.951, 321.779 75.982, 321.075 75.546 C 320.484 75.181, 320 74.024, 320 72.976 C 320 71.927, 318.658 69.541, 317.018 67.673 C 311.773 61.699, 320.020 57.770, 325.926 63.429 C 327.605 65.038, 329.321 65.988, 329.740 65.540 C 330.158 65.092, 329.832 64.490, 329.015 64.201 C 326.041 63.150, 317 53.502, 317 51.379 C 317 50.205, 316.319 48.680, 315.488 47.990 C 313.831 46.615, 315.369 43.492, 317.157 44.597 C 320.907 46.914, 323.959 39.360, 320.871 35.408 C 320.401 34.807, 320.249 34.084, 320.533 33.800 C 320.816 33.517, 320.421 32.764, 319.654 32.128 C 318.543 31.206, 317.728 31.668, 315.639 34.407 C 312.650 38.325, 310.594 38.189, 300.404 33.397 C 297.600 32.078, 294.782 31, 294.140 31 C 293.498 31, 292.020 30.438, 290.856 29.750 C 289.528 28.966, 288.595 28.873, 288.352 29.500 C 285.240 37.547, 277.319 43.658, 271.432 42.553 C 267.809 41.874, 265.254 39.579, 266.951 38.530 C 270.446 36.371, 265.548 30.720, 260.235 30.781 C 258.731 30.799, 256.545 30.207, 255.377 29.467 C 254.210 28.726, 252.295 28.372, 251.122 28.678 C 248.385 29.394, 246.299 27.637, 245.485 23.931 C 244.748 20.576, 244.315 20.405, 241.954 22.541 C 240.408 23.941, 239.986 23.859, 237.366 21.655 C 233.009 17.988, 227.422 16.730, 223.805 18.601 C 221.405 19.842, 220.233 19.902, 217.295 18.932 C 215.265 18.262, 211.387 17.990, 208.350 18.303 C 205.401 18.608, 201.528 18.434, 199.744 17.918 C 197.685 17.322, 193.827 17.348, 189.183 17.989 C 183.926 18.714, 181.275 18.683, 179.769 17.876 C 177.175 16.488, 160.315 15.875, 157.265 17.058 M 350.314 23.250 C 347.995 26.857, 347.318 28.897, 348.050 30.080 C 348.496 30.802, 348.442 32.174, 347.930 33.130 C 344.664 39.233, 350.893 46.090, 355.290 41.232 C 357.327 38.981, 360.949 31.040, 360.978 28.763 C 361.019 25.530, 351.884 20.808, 350.314 23.250 M 352.175 27.225 C 351.504 27.896, 351.429 28.933, 351.977 29.957 C 352.494 30.923, 352.481 32.208, 351.946 33.054 C 350.693 35.033, 350.762 39, 352.049 39 C 353.064 39, 356.934 31.535, 356.978 29.491 C 357.017 27.719, 353.391 26.009, 352.175 27.225 M 342.186 72.276 C 341.427 73.191, 341.576 74.479, 342.713 76.827 C 344.008 79.501, 344.061 80.321, 343.003 81.301 C 342.154 82.086, 341.926 82.108, 342.342 81.363 C 343.327 79.603, 340.780 78.124, 338.352 79.045 C 334.875 80.364, 334.805 81.658, 338.062 84.399 C 339.750 85.819, 340.895 87.361, 340.607 87.827 C 338.799 90.753, 346.460 95.695, 349.141 93.333 C 350.044 92.537, 352.057 91.751, 353.614 91.585 C 358.067 91.110, 360.931 86.686, 358.515 84.016 C 356.906 82.239, 356.476 82.163, 355.088 83.413 C 352.462 85.776, 348.115 81.459, 349.410 77.774 C 351.026 73.181, 345.147 68.708, 342.186 72.276 M 345.494 85.009 C 344.777 86.170, 345.797 90.008, 346.817 89.985 C 349.125 89.933, 350.157 88.163, 349.068 86.127 C 347.838 83.828, 346.486 83.405, 345.494 85.009 M 357.353 125.765 C 356.303 126.438, 355.601 129.144, 355.885 131.424 C 355.948 131.933, 357.112 131.304, 358.471 130.028 C 360.538 128.086, 361.195 127.917, 362.494 128.995 C 363.823 130.098, 363.945 130.011, 363.346 128.391 C 362.201 125.298, 359.756 124.226, 357.353 125.765 M 360 141 C 358.773 141.793, 358.887 141.972, 360.628 141.985 C 362.950 142.001, 364.585 143.536, 365.142 146.224 C 365.409 147.510, 365.880 147.696, 367 146.955 C 368.261 146.121, 368.060 145.632, 365.745 143.894 C 364.230 142.756, 363.244 141.415, 363.554 140.913 C 364.297 139.710, 361.905 139.769, 360 141 M 462.571 178.886 C 462.270 179.373, 459.205 179.551, 455.762 179.281 C 447.201 178.609, 442.787 182.288, 447.838 185.885 C 449.472 187.048, 451.279 188, 451.854 188 C 452.428 188, 454.159 189.278, 455.699 190.839 C 460.650 195.857, 466.427 196.923, 470.020 193.481 C 473.822 189.838, 471.290 186.004, 465.076 185.995 C 461.500 185.990, 461.500 185.990, 464.471 183.613 C 467.039 181.558, 467.260 181.018, 466.098 179.618 C 464.598 177.811, 463.390 177.560, 462.571 178.886 M 453.673 184.553 C 455.419 185.318, 457.444 186.766, 458.173 187.772 C 460.135 190.476, 465.815 192.585, 467.256 191.144 C 468.115 190.285, 467.649 190, 465.387 190 C 462.306 190, 456.267 185.066, 457.653 183.681 C 458.027 183.306, 456.571 183.037, 454.417 183.082 C 450.500 183.163, 450.500 183.163, 453.673 184.553 M 485.504 185.422 C 483.306 186.636, 481.481 188.276, 481.449 189.065 C 481.417 189.854, 480.858 191.753, 480.207 193.285 C 478.417 197.496, 479.425 201.417, 482.333 201.556 C 484.330 201.651, 489.152 197.838, 488.659 196.553 C 488.401 195.882, 488.842 195.333, 489.638 195.333 C 490.435 195.333, 490.867 195.905, 490.599 196.603 C 490.331 197.301, 490.980 198.976, 492.042 200.326 C 493.725 202.466, 493.783 202.935, 492.497 204.003 C 491.686 204.676, 491.281 205.645, 491.597 206.157 C 491.913 206.669, 491.667 207.697, 491.048 208.442 C 490.179 209.490, 490.498 210.247, 492.462 211.792 C 495.485 214.170, 495.656 215, 493.122 215 C 489.965 215, 488.481 217.659, 490.823 219.121 C 492.784 220.346, 492.784 220.374, 490.742 223.136 C 489.039 225.438, 488.906 226.181, 489.965 227.458 C 493.536 231.761, 503.975 221.755, 501.277 216.616 C 499.471 213.177, 498.827 206.225, 500.234 205.355 C 500.727 205.051, 500.392 203.986, 499.490 202.988 C 498.587 201.991, 497.758 200.573, 497.646 199.838 C 497.535 199.102, 497.080 197.918, 496.636 197.206 C 496.187 196.488, 496.317 195.323, 496.926 194.589 C 498.218 193.032, 495.782 190.399, 494.044 191.473 C 492.719 192.292, 492.697 190.435, 494.004 187.993 C 494.799 186.508, 494.545 185.795, 492.781 184.559 C 490.131 182.703, 490.501 182.659, 485.504 185.422 M 360.250 184.771 C 356.102 185.449, 359.243 191.240, 364.282 192.203 C 366.927 192.709, 367.969 191.717, 366.044 190.527 C 365.518 190.202, 365.309 189.359, 365.579 188.655 C 366.286 186.812, 362.893 184.339, 360.250 184.771 M 378 185.086 C 372.514 187.122, 371.844 191.067, 376.160 195.930 C 380.313 200.610, 380.444 200.489, 380.075 192.344 C 379.971 190.058, 380.362 187.894, 380.943 187.535 C 382.143 186.794, 382.395 183.958, 381.250 184.079 C 380.837 184.122, 379.375 184.575, 378 185.086 M 390.250 202.662 C 388.577 203.337, 388.658 205.655, 390.378 206.315 C 391.957 206.921, 394 205.221, 394 203.300 C 394 201.986, 392.541 201.738, 390.250 202.662 M 454.600 209.280 C 453.170 211.155, 452 213.494, 452 214.479 C 452 215.941, 451.629 215.798, 449.974 213.694 C 445.867 208.473, 438.913 210.010, 441.062 215.664 C 443.029 220.838, 442.454 221.590, 436.398 221.764 C 433.317 221.852, 430.167 222.446, 429.398 223.085 C 428.629 223.723, 428 223.910, 428 223.500 C 428 223.090, 427.319 223.320, 426.488 224.010 C 425.330 224.971, 425.244 225.589, 426.120 226.645 C 426.930 227.620, 427.632 227.721, 428.516 226.987 C 429.414 226.241, 429.934 226.385, 430.361 227.499 C 431.221 229.739, 435.123 230.940, 437.241 229.617 C 438.553 228.798, 439.456 228.836, 440.753 229.764 C 444.064 232.131, 445.081 232.237, 447.089 230.420 C 449.050 228.645, 449.161 228.666, 451.302 231.212 C 454.112 234.556, 457.322 235.522, 458.981 233.523 C 459.676 232.685, 459.910 232, 459.500 232 C 459.090 232, 459.324 231.315, 460.019 230.477 C 460.717 229.636, 462.076 229.207, 463.056 229.518 C 468.743 231.323, 469.347 218.485, 463.716 215.504 C 460.734 213.925, 460.042 213.053, 460.450 211.390 C 461.564 206.852, 457.555 205.406, 454.600 209.280 M 527.500 207.126 C 525.850 207.589, 523.680 207.710, 522.678 207.394 C 521.649 207.069, 520.030 207.568, 518.955 208.541 C 517.909 209.487, 515.308 210.360, 513.174 210.481 C 504.122 210.991, 501.469 218.944, 509.794 220.609 C 511.501 220.950, 513.666 222.078, 514.604 223.115 C 517.405 226.211, 519.755 225.330, 526.545 218.640 C 534.722 210.583, 535.187 204.968, 527.500 207.126 M 518.729 212.700 C 517.774 213.655, 515.489 214.400, 513.514 214.400 C 511.297 214.400, 510 214.880, 510 215.700 C 510 216.415, 510.758 217, 511.686 217 C 512.613 217, 514.419 217.984, 515.699 219.187 C 518.598 221.910, 520.928 220.459, 518.892 217.199 C 517.300 214.649, 519.363 211.600, 522.182 212.337 C 523.183 212.599, 523.751 212.405, 523.442 211.907 C 522.573 210.499, 520.597 210.832, 518.729 212.700 M 445.477 216.853 C 446.002 219.275, 445.702 221.138, 444.396 223.563 C 442.126 227.779, 443.043 228.817, 446.723 226.197 C 449.552 224.183, 450.729 220.569, 448.920 219.451 C 448.396 219.127, 448.189 218.503, 448.460 218.065 C 448.731 217.626, 448.007 216.420, 446.851 215.384 C 444.751 213.501, 444.751 213.502, 445.477 216.853 M 455.731 215.922 C 455.442 217.025, 455.791 218.412, 456.506 219.005 C 458.040 220.278, 455.802 225.755, 453.365 226.690 C 452.288 227.104, 452.220 227.561, 453.083 228.600 C 454.017 229.726, 454.845 229.449, 457.780 227.030 C 459.739 225.415, 461.715 224.324, 462.171 224.606 C 462.627 224.888, 463 224.453, 463 223.641 C 463 222.828, 463.266 221.471, 463.591 220.624 C 464.002 219.552, 463.387 218.884, 461.568 218.428 C 460.130 218.067, 458.346 216.905, 457.604 215.845 C 456.277 213.951, 456.246 213.952, 455.731 215.922 M 520.524 244.961 C 520.160 245.550, 519.496 245.806, 519.048 245.530 C 516.170 243.751, 511.868 250.816, 514.500 253 C 515.354 253.709, 516 255.889, 516 258.063 C 516 260.164, 516.394 262.125, 516.875 262.423 C 518.020 263.130, 518.007 267.878, 516.859 268.587 C 515.385 269.498, 516.868 270.847, 518.790 270.345 C 521.860 269.542, 524.705 273.564, 522.663 275.820 C 521.208 277.428, 521.186 277.864, 522.476 279.570 C 523.900 281.452, 523.937 281.445, 523.968 279.309 C 524.002 276.988, 525.523 275.551, 528 275.500 C 528.825 275.483, 530.012 275.144, 530.637 274.746 C 533.044 273.213, 534.242 276.697, 532.334 279.683 C 530.687 282.262, 530.681 282.384, 532.267 281.128 C 533.220 280.373, 534 280.090, 534 280.500 C 534 280.910, 534.564 280.777, 535.253 280.205 C 536.133 279.475, 537.037 279.554, 538.291 280.471 C 539.669 281.479, 540.635 281.517, 542.530 280.638 C 545.302 279.353, 545.775 278, 543.453 278 C 542.603 278, 541.140 276.653, 540.203 275.006 C 539.267 273.360, 537.993 272.010, 537.372 272.006 C 534.755 271.992, 533.775 269.157, 535.924 267.815 C 538.701 266.081, 538.540 265.338, 535.250 264.700 C 533.491 264.359, 531.848 264.753, 530.691 265.792 C 528.064 268.151, 525.500 266.224, 525.500 261.890 C 525.500 257.743, 526.633 255.922, 528.718 256.722 C 530.904 257.561, 533.357 254.135, 531.861 252.332 C 530.566 250.773, 527.386 250.567, 526.509 251.986 C 525.751 253.212, 522.361 252.761, 520.829 251.229 C 519.450 249.850, 521.389 247, 523.706 247 C 525.615 247, 524.803 244.591, 522.760 244.195 C 521.895 244.027, 520.888 244.372, 520.524 244.961 M 471.115 251.393 C 469.472 252.304, 469.104 252.946, 469.931 253.458 C 470.592 253.866, 471.387 253.946, 471.698 253.635 C 472.009 253.325, 473.161 253.551, 474.259 254.138 C 476.661 255.424, 478.529 253.343, 476.820 251.284 C 475.491 249.682, 474.155 249.708, 471.115 251.393 M 500.559 253.905 C 499.467 255.672, 501.888 260, 503.969 260 C 505.505 260, 505.899 259.462, 505.619 257.750 C 505.417 256.512, 505.622 255.031, 506.075 254.459 C 506.600 253.795, 505.854 253.338, 504.015 253.198 C 502.429 253.077, 500.874 253.395, 500.559 253.905 M 445.474 258.042 C 444.647 259.380, 444.852 259.564, 448.008 260.318 C 451.154 261.069, 453.918 259.691, 451.857 258.400 C 449.698 257.049, 446.209 256.853, 445.474 258.042 M 468.320 262.037 C 469.837 263.231, 470.677 264.679, 470.348 265.537 C 469.473 267.815, 471.707 267.257, 473.456 264.759 C 474.965 262.606, 474.899 262.473, 471.763 261.335 C 466.763 259.522, 465.460 259.788, 468.320 262.037 M 486.009 273.489 C 485.329 274.308, 484.374 274.731, 483.887 274.430 C 482.388 273.503, 482.906 275.677, 484.500 277 C 485.325 277.685, 486 279.492, 486 281.015 C 486 283.963, 488.477 285.903, 488.708 283.136 C 489.148 277.864, 490.013 275.408, 491.995 273.803 C 494.222 272, 494.222 272, 490.733 272 C 488.815 272, 486.689 272.670, 486.009 273.489 M 471.443 282.452 C 471.090 284.332, 469.943 286.647, 468.893 287.597 C 467.169 289.157, 467.133 289.489, 468.517 291.019 C 471.810 294.658, 465.077 296.174, 461.216 292.664 C 459.312 290.933, 458.473 290.761, 456.172 291.629 C 454.164 292.387, 452.414 292.325, 449.749 291.403 C 447.735 290.705, 444.656 290.316, 442.907 290.537 C 439.484 290.970, 437.632 292, 440.277 292 C 441.162 292, 442.533 292.922, 443.322 294.049 C 444.373 295.549, 445.413 295.934, 447.203 295.485 C 449.918 294.804, 453.009 297.258, 451 298.500 C 450.212 298.987, 450.230 299.572, 451.065 300.578 C 451.704 301.348, 452.738 301.662, 453.363 301.275 C 453.988 300.888, 456.075 300.489, 458 300.387 C 459.925 300.285, 462.753 299.876, 464.285 299.478 C 466.208 298.977, 467.601 299.227, 468.785 300.284 C 472.954 304.004, 482.235 300.127, 478.648 296.164 C 477.110 294.464, 477.165 294.194, 479.501 291.999 C 480.876 290.708, 482 289.201, 482 288.651 C 482 288.101, 480.913 288.672, 479.585 289.920 C 476.983 292.365, 474.205 292.157, 471.870 289.343 C 470.753 287.998, 470.962 287.442, 473.279 285.594 C 476.511 283.018, 476.671 281.900, 474.042 280.258 C 472.268 279.151, 472.024 279.357, 471.443 282.452 M 394.971 281.535 C 393.388 283.443, 393.612 283.625, 398.547 284.439 C 401.824 284.980, 402.926 284.739, 404.344 283.172 C 406.048 281.290, 405.986 281.236, 402.054 281.181 C 399.831 281.151, 397.610 280.877, 397.119 280.574 C 396.628 280.270, 395.662 280.703, 394.971 281.535 M 425.752 286.855 C 424.950 289.947, 426.017 291.295, 427.910 289.581 C 431.362 286.457, 435.134 291.738, 432.498 296.004 C 432.159 296.552, 432.661 297, 433.612 297 C 434.564 297, 436.278 297.784, 437.421 298.743 C 439.245 300.272, 439.226 300.174, 437.268 297.948 C 435.955 296.454, 435.205 294.530, 435.447 293.273 C 436.062 290.079, 426.549 283.782, 425.752 286.855 M 493.653 287.059 C 492.194 288.206, 490.986 288.775, 490.970 288.323 C 490.953 287.870, 490.484 288.282, 489.927 289.237 C 489.235 290.424, 489.260 291.617, 490.004 293.007 C 490.603 294.126, 490.820 295.482, 490.487 296.021 C 489.541 297.552, 490.965 297.173, 493.424 295.238 C 494.831 294.132, 495.587 292.551, 495.457 290.988 C 495.343 289.620, 495.708 287.927, 496.267 287.226 C 498.046 284.999, 496.405 284.894, 493.653 287.059 M 536.481 287.030 C 536.093 287.659, 536.170 288.570, 536.654 289.054 C 537.850 290.250, 542.174 289.026, 541.713 287.623 C 541.202 286.070, 537.345 285.633, 536.481 287.030 M 390.358 292.478 C 391.351 294.583, 391.621 294.638, 394.677 293.362 C 396.469 292.613, 398.925 292, 400.135 292 C 404.703 292, 401.027 290.930, 395.288 290.589 C 389.385 290.239, 389.314 290.266, 390.358 292.478 M 400 295.805 C 396.646 296.294, 394.936 298, 397.800 298 C 399.010 298, 400.178 297.887, 400.395 297.750 C 400.612 297.613, 401.765 298.382, 402.956 299.460 C 404.975 301.287, 406.969 300.561, 406.969 298 C 406.969 295.660, 405.079 295.064, 400 295.805 M 462 303.976 C 461.175 304.522, 459.514 304.976, 458.309 304.985 C 455.460 305.005, 454.351 306.829, 456.687 307.656 C 457.684 308.009, 459.427 309.129, 460.561 310.145 C 462.571 311.948, 462.694 311.938, 465.589 309.746 C 470.730 305.855, 467.355 300.428, 462 303.976 M 392.750 311.392 C 390.469 313.123, 390.533 314, 392.941 314 C 394.009 314, 395.184 314.489, 395.554 315.087 C 396.021 315.843, 396.544 315.856, 397.270 315.130 C 397.997 314.403, 397.965 313.663, 397.166 312.700 C 396.534 311.939, 396.313 311.020, 396.675 310.658 C 397.910 309.423, 394.505 310.060, 392.750 311.392 M 466.744 313.750 C 466.414 314.413, 466.447 315.413, 466.875 317.655 C 466.944 318.015, 467.889 317.505, 468.976 316.521 C 470.063 315.538, 470.712 314.343, 470.417 313.866 C 469.760 312.803, 467.256 312.723, 466.744 313.750 M 318.294 329.371 C 313.685 330.994, 312.369 332.534, 313.956 334.447 C 314.655 335.289, 315.662 335.709, 316.195 335.380 C 316.727 335.051, 318.433 335.999, 319.986 337.487 C 322.541 339.935, 323.413 340.163, 329.155 339.892 C 335.889 339.575, 340.640 341.170, 339.303 343.300 C 336.819 347.260, 339.367 352.600, 342.500 350 C 343.325 349.315, 344.014 348.023, 344.032 347.128 C 344.076 344.878, 346.003 342.695, 349.188 341.287 C 350.667 340.634, 352.362 339.192, 352.955 338.084 C 355.297 333.708, 342.674 330.202, 337.287 333.732 C 335.488 334.910, 334.614 335.014, 333.749 334.149 C 333.117 333.517, 331.252 333, 329.605 333 C 327.833 333, 325.566 332.028, 324.055 330.621 C 321.784 328.507, 321.143 328.368, 318.294 329.371 M 443.520 330.968 C 443.158 331.553, 442.494 331.805, 442.044 331.527 C 441.595 331.249, 440.704 331.652, 440.065 332.422 C 438.820 333.921, 439.983 335.215, 442.982 335.667 C 443.797 335.790, 444.632 336.396, 444.838 337.013 C 445.888 340.163, 449.798 343.412, 451.170 342.274 C 451.939 341.636, 453.453 341.260, 454.534 341.440 C 455.665 341.627, 457.792 340.544, 459.541 338.889 C 461.214 337.307, 463.830 335.909, 465.354 335.783 C 468.982 335.482, 470.505 333.664, 468.512 332.010 C 467.681 331.320, 467 331.090, 467 331.500 C 467 331.910, 466.438 331.801, 465.750 331.259 C 464.083 329.944, 460.852 330.003, 459 331.383 C 454.717 334.573, 453.424 334.829, 450.962 332.972 C 449.639 331.973, 448.186 331.385, 447.734 331.664 C 447.282 331.944, 446.297 331.662, 445.545 331.038 C 444.589 330.244, 443.980 330.223, 443.520 330.968 M 339 337.078 C 339 337.585, 341.250 338, 344 338 C 346.750 338, 349 337.662, 349 337.249 C 349 336.835, 346.750 336.420, 344 336.327 C 341.250 336.233, 339 336.571, 339 337.078 M 364.067 357.823 C 358.407 360.861, 357.420 363.214, 360.368 366.639 C 362.832 369.500, 362.832 369.500, 365.166 367.424 C 368.061 364.849, 370.638 365.327, 371.255 368.553 C 371.733 371.057, 369.764 372.046, 368.470 369.951 C 367.782 368.837, 365 370.516, 365 372.046 C 365 374.326, 370.134 378.778, 372.154 378.249 C 374.014 377.763, 374.227 378.031, 373.792 380.308 C 373.433 382.187, 373.947 383.541, 375.615 385.108 C 376.893 386.309, 377.732 387.624, 377.480 388.032 C 376.129 390.218, 379.797 390.801, 382.926 388.899 C 386.247 386.879, 386.247 386.879, 385.556 379.873 C 385.089 375.129, 385.236 372.421, 386.012 371.486 C 387.969 369.128, 376.258 357, 372.024 357 C 371.001 357, 369.564 356.771, 368.832 356.490 C 368.099 356.210, 365.955 356.810, 364.067 357.823 M 365.352 361.003 C 363.157 361.879, 361.231 364.026, 362.691 363.968 C 363.136 363.951, 364.294 363.334, 365.264 362.597 C 368.038 360.493, 373.057 362.005, 374.988 365.526 C 376.466 368.221, 376.824 369.906, 377.053 375.230 C 377.094 376.182, 377.506 377.195, 377.970 377.481 C 378.433 377.768, 378.589 378.856, 378.316 379.899 C 377.743 382.090, 379.561 386, 381.152 386 C 381.888 386, 382.009 383.912, 381.532 379.454 C 381.034 374.803, 381.191 372.475, 382.075 371.410 C 383.617 369.552, 377.022 362.248, 373.006 361.365 C 371.628 361.062, 369.825 360.664, 369 360.480 C 368.175 360.296, 366.534 360.531, 365.352 361.003 M 548.901 393.883 C 546.500 395.830, 546.500 395.830, 548.804 398.287 C 551.252 400.898, 549.914 402.672, 546.487 401.357 C 543.356 400.155, 541.279 404.407, 543.356 407.768 C 544.368 409.405, 547.476 409.337, 548.878 407.647 C 549.651 406.715, 551.516 406.439, 554.864 406.761 C 561.622 407.410, 564.664 403.884, 560.479 400.250 C 559.054 399.012, 557.212 398, 556.385 398 C 555.558 398, 555.120 397.615, 555.410 397.145 C 556.941 394.669, 551.372 391.878, 548.901 393.883 M 14.921 489.250 C 14.877 514.138, 14.981 542.825, 15.151 553 C 15.322 563.175, 15.433 573.862, 15.400 576.750 C 15.338 582, 15.338 582, 71.419 582.158 C 129.870 582.324, 131.024 582.309, 131.938 581.396 C 132.247 581.087, 132.633 550.047, 132.796 512.417 C 133.093 444, 133.093 444, 74.046 444 C 15 444, 15 444, 14.921 489.250 M 577.557 525.582 C 576.050 526.684, 571.536 527, 557.309 527 C 539 527, 539 527, 539 554.566 C 539 569.973, 538.583 582.911, 538.054 583.898 C 536.893 586.069, 563.294 586.794, 573.221 584.864 C 578.958 583.748, 579.963 574.054, 579.498 524.332 C 579.498 524.239, 578.624 524.802, 577.557 525.582" stroke="none" fill="#1A1A1A" fill-rule="evenodd"/>
</svg>