<svg xmlns="http://www.w3.org/2000/svg" width="592" height="600" viewBox="0 0 592 600" version="1.1">
	<rect x="0" y="0" width="100%" height="100%" fill="#FFFFFF" />
	<path d="M 135.044 12.453 C 133.019 14.609, 133 15.409, 133 97.883 C 133 181.137, 133 181.137, 73.992 180.921 C 2.882 180.660, 11 178.204, 11 199.981 C 11 222.395, 3.011 219.855, 74.259 220.089 C 133 220.281, 133 220.281, 133 321.640 C 133 423, 133 423, 74.174 423 C 15.349 423, 15.349 423, 13.181 425.307 C 11.175 427.443, 10.253 506.418, 11.414 576.722 C 11.577 586.596, 5.627 585.810, 82.755 586.144 C 150.009 586.435, 150.009 586.435, 152.232 584.213 C 154.454 581.990, 154.454 581.990, 154.846 512.834 C 155.237 443.678, 155.237 443.678, 274.369 444.336 C 339.891 444.699, 421.361 444.996, 455.414 444.997 C 517.329 445, 517.329 445, 516.668 514.549 C 515.895 595.833, 514.901 589.654, 528.613 588.774 C 532.712 588.511, 536.255 588.604, 536.487 588.980 C 538.474 592.194, 577.500 589.225, 580.906 585.600 C 583.710 582.615, 584.324 516.729, 581.584 512.816 C 580.696 511.548, 580 508.533, 580 505.952 C 580 497.839, 578.715 497.347, 557.752 497.430 C 540.005 497.500, 540.005 497.500, 539.989 473.500 C 539.980 460.300, 539.704 448.497, 539.375 447.271 C 538.778 445.041, 538.778 445.041, 559.532 444.771 C 580.286 444.500, 580.286 444.500, 582.117 442 C 583.865 439.612, 583.958 433.793, 584.184 312.500 C 584.315 242.650, 584.755 147.700, 585.162 101.500 C 585.973 9.536, 586.251 14.731, 580.454 13.574 C 579.379 13.359, 576.475 12.714, 574 12.140 C 563.467 9.697, 137.347 10.002, 135.044 12.453 M 137 97.326 C 137 180.651, 137 180.651, 134.609 182.897 C 132.218 185.143, 132.218 185.143, 73.609 184.822 C 14.999 184.500, 14.999 184.500, 15 200.250 C 15 216, 15 216, 63.750 216.250 C 90.563 216.387, 116.937 216.356, 122.360 216.179 C 138.761 215.645, 137 202.974, 137 321.500 C 137 422.651, 137 422.651, 134.686 424.826 C 132.371 427, 132.371 427, 73.686 427 C 15 427, 15 427, 15 433.500 C 15 440, 15 440, 73.826 440 C 132.651 440, 132.651 440, 134.883 442.375 C 137.114 444.750, 137.114 444.750, 136.807 513.875 C 136.500 583.001, 136.500 583.001, 143.093 583 C 150.967 583, 151 582.646, 151 497.015 C 151 444.349, 151 444.349, 153.407 442.088 C 157.091 438.626, 514.986 439.880, 518.881 443.368 C 521.263 445.500, 521.263 445.500, 520.881 515 C 520.500 584.500, 520.500 584.500, 526.334 584.802 C 535.432 585.274, 535 586.756, 535 555.052 C 535 519.825, 532.746 523, 557.755 523 C 578.862 523, 577.424 523.910, 576.510 511.136 C 575.814 501.414, 575.814 501.414, 557.271 501.285 C 533.721 501.122, 536.140 504.473, 535.929 471.714 C 535.709 437.695, 533.110 441.123, 559.387 440.770 C 579.500 440.500, 579.500 440.500, 579.800 434.750 C 580.100 429, 580.100 429, 464.300 428.969 C 226.455 428.906, 155.827 428.156, 153.307 425.666 C 151.114 423.500, 151.114 423.500, 150.937 233 C 150.715 -4.991, 151.373 14, 143.347 14 C 137 14, 137 14, 137 97.326 M 154.844 218.933 C 155.034 331.445, 155.314 423.630, 155.467 423.789 C 155.620 423.949, 251.203 424.355, 367.873 424.694 C 580 425.308, 580 425.308, 580.121 313.404 C 580.188 251.857, 580.369 197.450, 580.524 192.500 C 581.408 164.334, 581.387 17.496, 580.500 17.442 C 579.950 17.408, 577.025 16.853, 574 16.208 C 569.925 15.340, 514.870 14.949, 361.500 14.701 C 154.500 14.367, 154.500 14.367, 154.844 218.933 M 14.921 489.250 C 14.877 514.138, 14.981 542.825, 15.151 553 C 15.322 563.175, 15.433 573.862, 15.400 576.750 C 15.338 582, 15.338 582, 71.419 582.158 C 129.870 582.324, 131.024 582.309, 131.938 581.396 C 132.247 581.087, 132.633 550.047, 132.796 512.417 C 133.093 444, 133.093 444, 74.046 444 C 15 444, 15 444, 14.921 489.250 M 577.557 525.582 C 576.050 526.684, 571.536 527, 557.309 527 C 539 527, 539 527, 539 554.566 C 539 569.973, 538.583 582.911, 538.054 583.898 C 536.893 586.069, 563.294 586.794, 573.221 584.864 C 578.958 583.748, 579.963 574.054, 579.498 524.332 C 579.498 524.239, 578.624 524.802, 577.557 525.582" stroke="none" fill="#1A1A1A" fill-rule="evenodd"/>
</svg>