<svg xmlns="http://www.w3.org/2000/svg" width="507" height="600" viewBox="0 0 507 600" version="1.1">
	<rect x="0" y="0" width="100%" height="100%" fill="#FFFFFF" />
	<path d="M 318.880 67.453 C 318.661 67.672, 315.762 68.091, 312.437 68.383 C 301.316 69.360, 297.530 70.218, 293 72.790 C 285.931 76.803, 278.341 82.680, 275.293 86.500 C 273.757 88.425, 271.911 90, 271.191 90 C 269.109 90, 251.726 96.015, 249.285 97.580 C 248.067 98.361, 246.431 99, 245.649 99 C 243.171 99, 223.330 105.738, 220.663 107.485 C 219.256 108.407, 217.518 109.263, 216.802 109.387 C 211.757 110.258, 186 133.559, 186 137.252 C 186 137.989, 183.531 141.497, 180.514 145.046 C 177.496 148.596, 175.021 152.007, 175.014 152.628 C 175.006 153.248, 174.325 154.315, 173.500 155 C 172.675 155.685, 172 157, 172 157.922 C 172 158.845, 171.471 160.129, 170.824 160.776 C 169.811 161.789, 167.334 169.565, 165.337 178 C 165.011 179.375, 163.887 181.445, 162.839 182.600 C 161.184 184.424, 161.126 184.860, 162.397 185.914 C 164.285 187.482, 163.796 189.779, 160.441 195.093 C 158.274 198.527, 157.644 200.908, 157.310 206.945 C 157.080 211.100, 156.699 215.079, 156.463 215.786 C 156.228 216.494, 156.926 218.735, 158.016 220.768 C 160.988 226.313, 161.351 229.966, 159.380 234.500 C 157.892 237.925, 157.412 241.611, 156.907 253.500 C 156.572 261.390, 157.431 272.999, 158.534 275.500 C 160.241 279.370, 161.337 292.079, 160.122 293.908 C 159.090 295.462, 160.365 299.280, 162.943 302.358 C 163.800 303.380, 164.352 305.112, 164.170 306.208 C 163.989 307.304, 164.851 309.277, 166.085 310.591 C 167.845 312.464, 168.349 314.223, 168.415 318.725 C 168.493 323.967, 168.740 324.584, 171.250 325.789 C 172.762 326.515, 174.014 327.872, 174.032 328.805 C 174.049 329.737, 174.693 331.331, 175.463 332.347 C 176.233 333.363, 176.636 334.785, 176.359 335.507 C 176.082 336.229, 176.664 338.323, 177.652 340.160 C 178.640 341.997, 179.516 344.383, 179.598 345.461 C 179.680 346.540, 180.592 348.020, 181.624 348.750 C 197.395 359.905, 211.186 363.926, 222 360.522 C 232.804 357.121, 235.792 357.332, 237.789 361.637 C 238.775 363.762, 240.574 367.075, 241.787 369 C 245.123 374.293, 244.621 376.701, 238.557 384.500 C 228.138 397.902, 227.514 399.304, 224.768 415.500 C 224.115 419.350, 222.581 423.981, 221.358 425.790 C 220.135 427.600, 218.371 431.200, 217.437 433.790 C 215.213 439.959, 210.948 448.835, 206.083 457.417 C 202.235 464.203, 202.159 464.532, 202.054 474.917 C 201.930 487.057, 201.793 488.302, 200.377 490.149 C 199.807 490.892, 198.315 493.975, 197.061 497 C 195.806 500.025, 194.076 503.297, 193.216 504.271 C 192.355 505.245, 190.645 508.845, 189.414 512.271 C 188.184 515.697, 185.802 520.975, 184.122 524 C 182.442 527.025, 180.098 531.487, 178.913 533.916 C 177.728 536.345, 175.494 539.495, 173.946 540.916 C 171.906 542.791, 170.999 544.735, 170.644 548 C 170.374 550.475, 170.119 552.768, 170.077 553.097 C 170.035 553.425, 168.384 555.357, 166.410 557.390 C 164.202 559.663, 163.045 561.674, 163.404 562.611 C 163.726 563.449, 163.135 566.017, 162.092 568.317 C 161.049 570.618, 159.711 574.312, 159.120 576.526 C 158.528 578.741, 156.874 582.116, 155.444 584.026 C 148.720 593.013, 147.620 600.638, 153.167 599.819 C 154.931 599.559, 156.453 596.768, 161.415 584.691 C 167.500 569.883, 167.500 569.883, 172.993 566.896 C 181.407 562.321, 187 556.148, 187 551.438 C 187 550.525, 188.800 547.628, 191 545 C 193.200 542.372, 195 539.225, 195 538.005 C 195 536.786, 196.065 534.950, 197.367 533.926 C 199.088 532.572, 199.602 531.371, 199.250 529.528 C 198.892 527.657, 199.704 525.847, 202.344 522.625 C 204.313 520.222, 205.639 517.972, 205.291 517.624 C 204.943 517.277, 205.736 515.845, 207.053 514.443 C 208.627 512.768, 209.480 510.627, 209.542 508.197 C 209.594 506.164, 209.960 503.125, 210.355 501.444 C 210.910 499.086, 210.536 497.596, 208.722 494.922 C 206.662 491.886, 206.518 491.094, 207.562 488.539 C 208.317 486.692, 208.569 482.643, 208.249 477.509 C 207.413 464.102, 218.331 436.361, 222.348 441.686 C 223.950 443.810, 224.118 447.215, 222.692 448.641 C 221.518 449.815, 221.925 453.448, 223.480 455.668 C 225.504 458.558, 237.254 454.838, 235.429 451.885 C 235.127 451.396, 236.143 450.516, 237.688 449.929 C 239.233 449.341, 241.229 448.197, 242.126 447.386 C 246.585 443.351, 250.351 445.009, 247.300 449.664 C 245.666 452.159, 245.686 452.327, 247.820 454.055 C 249.891 455.733, 249.917 455.892, 248.201 456.436 C 247.189 456.757, 243.560 459.979, 240.135 463.595 C 235.148 468.861, 233.632 469.939, 232.518 469.015 C 230.766 467.561, 227.547 469.110, 225.890 472.206 C 224.925 474.009, 225.062 474.632, 226.722 475.976 C 229.155 477.946, 225.422 483.306, 219.749 485.985 C 216.080 487.717, 214.692 491.905, 214.898 500.619 C 214.981 504.102, 214.533 506.143, 213.497 507.002 C 212.346 507.958, 212.249 508.596, 213.101 509.621 C 213.983 510.684, 212.878 512.497, 208 518.001 C 203.321 523.278, 201.910 525.547, 202.323 527.127 C 202.626 528.284, 202.484 529.966, 202.010 530.865 C 201.535 531.764, 200.883 533.175, 200.562 534 C 200.241 534.825, 199.195 536.654, 198.239 538.065 C 193.370 545.248, 192.007 547.626, 192.004 548.943 C 191.998 551.031, 185.263 564.537, 183.496 566.003 C 182.673 566.686, 182 568.004, 182 568.931 C 182 569.859, 181.339 571.491, 180.532 572.559 C 179.724 573.626, 179.049 575.907, 179.032 577.628 C 179.014 579.348, 178.278 581.354, 177.396 582.086 C 176.514 582.819, 175.400 584.449, 174.921 585.709 C 174.441 586.969, 173.562 588, 172.966 588 C 172.370 588, 172.129 587.601, 172.430 587.113 C 173.829 584.850, 170.161 583.933, 168.603 586.156 C 166.961 588.501, 168.479 592.794, 170.777 592.298 C 171.292 592.186, 171.591 593.646, 171.441 595.540 C 171.151 599.188, 172.477 600.923, 174.221 599.179 C 174.797 598.603, 175.391 596.585, 175.541 594.694 C 175.802 591.405, 179.773 583.877, 181.959 582.525 C 182.532 582.171, 183.014 580.221, 183.032 578.191 C 183.049 576.161, 183.724 573.626, 184.532 572.559 C 185.339 571.491, 186 569.912, 186 569.049 C 186 568.187, 186.900 566.919, 188 566.232 C 189.100 565.545, 190 564.394, 190 563.675 C 190 562.955, 191.350 559.726, 193 556.500 C 194.650 553.274, 196 549.818, 196 548.820 C 196 547.822, 197.688 545.138, 199.750 542.855 C 201.813 540.572, 203.346 538.658, 203.158 538.602 C 202.813 538.499, 204.538 533.848, 206.003 530.930 C 206.437 530.067, 206.554 528.116, 206.263 526.595 C 205.824 524.300, 206.055 523.882, 207.617 524.140 C 210.471 524.610, 212.350 523.126, 210.984 521.481 C 210.133 520.455, 210.330 519.894, 211.821 519.096 C 215.720 517.009, 218.314 510.981, 218.534 503.500 C 218.803 494.346, 219.837 490.157, 222.134 488.929 C 223.162 488.378, 227.370 483.782, 231.486 478.714 C 240.670 467.406, 245.436 462.471, 250.015 459.530 C 256.411 455.421, 257.695 451.518, 253.050 450.303 C 250.835 449.724, 251.656 447.627, 255.750 443.409 C 260.282 438.740, 257.184 434.291, 252.276 438.421 C 250.655 439.785, 248.031 441.137, 246.446 441.424 C 244.860 441.712, 242.330 442.859, 240.822 443.973 C 239.315 445.088, 237.747 446, 237.338 446 C 236.930 446, 235.224 447.300, 233.548 448.890 C 228.690 453.495, 222.078 453.255, 226.692 448.641 C 228.141 447.192, 227.968 443.622, 226.362 441.848 C 224.806 440.128, 224.805 439.873, 226.345 438.171 C 227.255 437.165, 228 435.834, 228 435.212 C 228 434.590, 229.220 432.950, 230.711 431.567 C 233.227 429.234, 233.335 428.814, 232.211 425.706 C 230.469 420.890, 232.554 416.555, 235.454 418.962 C 236.935 420.191, 240.256 417.062, 239.792 414.875 C 239.631 414.119, 240.033 413.603, 240.684 413.728 C 241.334 413.853, 243.285 412.166, 245.018 409.978 C 246.750 407.790, 247.917 406, 247.610 406 C 244.037 406, 260.339 393.857, 269.869 389.420 C 272.823 388.045, 276.764 385.757, 278.627 384.335 C 282.016 381.750, 282.016 381.750, 284.081 384.375 C 285.216 385.819, 286.761 387, 287.514 387 C 291.166 387, 291.888 397.412, 288.575 402.295 C 287.172 404.361, 285.723 407.278, 285.354 408.776 C 284.985 410.274, 284.092 412.414, 283.370 413.532 C 281.731 416.066, 284.559 421.386, 288.498 423.181 C 289.874 423.808, 291.067 424.699, 291.150 425.161 C 291.638 427.892, 291.214 428.531, 288.607 428.990 C 281.006 430.330, 283.373 435.671, 292.102 436.879 C 300.803 438.083, 305.684 444.118, 303.506 450.980 C 301.545 457.159, 303.730 468.258, 308.433 476 C 309.783 478.223, 310.502 480.959, 310.404 483.500 C 310.319 485.700, 310.656 488.283, 311.154 489.240 C 311.834 490.547, 311.118 490.339, 308.280 488.405 C 306.192 486.983, 304.639 485.163, 304.811 484.341 C 305.188 482.534, 303.110 479.814, 301.916 480.552 C 301.444 480.843, 300.777 479.958, 300.432 478.585 C 299.167 473.545, 293.468 470.530, 289.947 473.038 C 287.725 474.620, 287.193 475.527, 287.950 476.440 C 289.708 478.558, 288.016 478.910, 283.159 477.436 C 274.567 474.828, 273.015 475.291, 265.131 482.808 C 259.797 487.894, 258.029 490.234, 258.142 492.058 C 258.225 493.401, 257.552 497.265, 256.646 500.644 C 255.741 504.024, 255 507.859, 255 509.167 C 255 510.474, 253.602 513.241, 251.893 515.314 C 249.529 518.182, 248.891 519.802, 249.226 522.086 C 249.884 526.572, 248.385 526.570, 245.550 522.080 C 242.472 517.204, 241.041 516.394, 233.936 515.509 C 223.601 514.222, 219.622 519.833, 217.416 538.805 C 216.604 545.787, 215.466 554.425, 214.887 558 C 214.308 561.575, 213.638 565.998, 213.398 567.828 C 213.158 569.658, 212.364 572.587, 211.633 574.336 C 210.851 576.206, 210.624 578.337, 211.082 579.508 C 212.980 584.370, 212.276 585.419, 205.475 587.858 C 198.586 590.329, 193.202 595.477, 194.358 598.490 C 195.208 600.707, 196.924 600.331, 197.921 597.709 C 199.071 594.684, 200.519 593.633, 206.500 591.485 C 214.220 588.712, 216.604 585.981, 215.397 581.291 C 214.693 578.555, 214.775 576.617, 215.691 574.328 C 216.390 572.583, 217.169 569.658, 217.423 567.828 C 221.510 538.374, 222.534 536.352, 223.388 556.050 C 223.568 560.203, 224.289 564.671, 224.989 565.979 C 225.856 567.600, 226.084 570.701, 225.705 575.717 C 225.218 582.160, 225.379 583.220, 227.003 584.234 C 228.765 585.334, 228.719 585.569, 226.073 588.946 C 222.231 593.850, 220.748 596.902, 221.392 598.578 C 222.282 600.899, 224.033 600.204, 225.115 597.100 C 225.671 595.505, 226.959 593.982, 227.977 593.716 C 231.643 592.758, 233.398 587.359, 231.408 583.164 C 230.264 580.754, 229.751 577.565, 229.904 573.815 C 230.032 570.685, 229.586 567.095, 228.913 565.837 C 228.240 564.580, 227.588 560.390, 227.465 556.525 C 227.341 552.661, 226.736 547.076, 226.120 544.114 C 224.547 536.549, 224.667 533.557, 226.386 537.500 C 227.105 539.151, 228.437 541.118, 229.347 541.873 C 230.256 542.627, 231 544, 231 544.922 C 231 545.845, 231.472 547.072, 232.050 547.650 C 232.627 548.227, 233.288 550.679, 233.518 553.100 C 234.464 563.055, 235.071 565.605, 237.167 568.440 C 239.563 571.680, 242.648 581.362, 244.010 589.913 C 244.584 593.522, 245.692 596.146, 247.332 597.786 C 250.579 601.033, 252.788 599.843, 250.353 596.157 C 249.388 594.696, 248.274 591.475, 247.878 589 C 246.646 581.296, 243.463 571.546, 241.167 568.440 C 239.071 565.605, 238.464 563.055, 237.518 553.100 C 237.288 550.679, 236.627 548.227, 236.050 547.650 C 235.472 547.072, 235 545.845, 235 544.922 C 235 544, 234.298 542.662, 233.440 541.950 C 231.727 540.528, 228 533.324, 228 531.435 C 228 529.194, 225.163 527.620, 223.546 528.962 C 221.903 530.326, 222.724 526.253, 224.919 522.151 C 227.248 517.799, 239.415 518.430, 241.690 523.020 C 242.366 524.384, 244.153 526.489, 245.661 527.698 C 248.339 529.845, 248.360 529.945, 246.570 531.923 C 244.878 533.793, 244.858 534.134, 246.316 536.360 C 247.185 537.686, 247.582 539.085, 247.198 539.469 C 246.814 539.853, 246.462 540.467, 246.416 540.833 C 246.370 541.200, 245.808 542.767, 245.166 544.315 C 244.525 545.863, 244 549.051, 244 551.398 C 244 553.746, 243.697 555.970, 243.326 556.341 C 242.955 556.711, 242.508 558.249, 242.333 559.757 C 241.600 566.050, 242.054 568.526, 244.261 570.262 C 245.492 571.231, 248.143 573.356, 250.150 574.985 C 254.631 578.619, 257.453 577.084, 254.937 572.382 C 253.685 570.043, 253.776 569.677, 256.036 567.972 C 257.497 566.869, 258.573 564.970, 258.679 563.306 C 258.778 561.763, 259.149 558.335, 259.504 555.688 C 259.986 552.097, 259.739 550.251, 258.533 548.410 C 257.644 547.053, 257.156 545.557, 257.447 545.085 C 258.187 543.888, 255.318 541.686, 254.044 542.473 C 253.462 542.833, 253 542.296, 253 541.259 C 253 540.237, 252.539 538.939, 251.976 538.376 C 251.278 537.678, 251.601 536.766, 252.992 535.507 C 255.031 533.662, 255.031 533.662, 252.869 531.360 C 251.021 529.393, 250.902 528.823, 252.051 527.438 C 252.791 526.547, 253.292 524.263, 253.164 522.362 C 252.989 519.774, 253.692 517.983, 255.966 515.226 C 257.634 513.201, 259 510.474, 259 509.167 C 259 507.859, 259.741 504.024, 260.646 500.644 C 261.552 497.265, 262.231 493.475, 262.155 492.222 C 262.063 490.695, 262.771 489.658, 264.300 489.076 C 266.638 488.187, 269.882 485, 268.448 485 C 268.010 485, 268.708 483.875, 270 482.500 C 272.770 479.551, 275.921 479.340, 283.642 481.584 C 289.099 483.171, 292.299 482.468, 291.718 479.811 C 291.414 478.420, 295.150 476.214, 295.633 477.500 C 297.164 481.575, 303.097 489.735, 305.305 490.805 C 306.787 491.522, 308 492.734, 308 493.498 C 308 495.832, 312.197 498.231, 313.683 496.746 C 315.912 494.517, 315.103 480.869, 312.453 476 C 310.241 471.935, 307.016 464, 307.576 464 C 307.787 464, 308.921 465.913, 310.096 468.250 C 311.271 470.588, 312.814 473.175, 313.523 474 C 314.233 474.825, 315.345 477.494, 315.994 479.932 C 316.644 482.369, 318.261 485.961, 319.588 487.914 C 320.914 489.867, 322 492.514, 322 493.798 C 322 495.081, 322.485 497.037, 323.077 498.144 C 323.669 499.251, 323.818 500.909, 323.408 501.828 C 322.745 503.313, 322.014 514.233, 322.024 522.500 C 322.025 524.150, 322.782 527.631, 323.706 530.235 C 325.285 534.690, 325.282 535.186, 323.653 538.601 C 322.230 541.586, 322.121 542.838, 323.044 545.632 C 323.703 547.629, 323.969 552.637, 323.690 557.766 C 323.277 565.333, 323.464 566.774, 325.094 568.551 C 327.463 571.134, 326.332 576.001, 322.410 580.093 C 320.933 581.636, 320.096 583.347, 320.500 584 C 320.904 584.654, 320.060 586.372, 318.571 587.926 C 317.115 589.445, 315.703 591.996, 315.433 593.594 C 315.163 595.192, 314.750 597.048, 314.515 597.718 C 313.859 599.586, 316.022 600.409, 317.539 598.868 C 318.280 598.116, 319.038 596.333, 319.223 594.906 C 319.408 593.480, 320.798 590.841, 322.311 589.042 C 323.988 587.050, 324.845 585.087, 324.506 584.018 C 324.141 582.869, 324.773 581.724, 326.336 580.700 C 329.905 578.361, 331.509 571.187, 329.060 568.515 C 327.471 566.781, 327.280 565.282, 327.690 557.766 C 327.969 552.637, 327.703 547.629, 327.044 545.632 C 326.121 542.838, 326.230 541.586, 327.653 538.601 C 329.282 535.186, 329.285 534.690, 327.706 530.235 C 326.782 527.631, 326.021 524.150, 326.013 522.500 C 325.977 515.043, 326.771 504.337, 327.482 502.686 C 327.917 501.676, 327.762 499.773, 327.131 498.389 C 326.509 497.023, 326 494.907, 326 493.685 C 326 492.464, 324.914 489.867, 323.588 487.914 C 322.261 485.961, 320.644 482.369, 319.994 479.932 C 319.345 477.494, 318.233 474.825, 317.523 474 C 313.230 469.009, 311.379 462.890, 310.334 450.227 C 310.004 446.227, 309.344 442.713, 308.867 442.418 C 308.390 442.123, 308 440.964, 308 439.841 C 308 438.718, 306.499 436.299, 304.664 434.464 C 302.029 431.829, 301.418 430.509, 301.760 428.182 C 301.998 426.562, 301.699 424.932, 301.096 424.559 C 300.493 424.187, 300 422.394, 300 420.576 C 300 418.757, 299.106 416.134, 298.014 414.745 C 296.320 412.591, 296.237 412.048, 297.450 411.042 C 301.423 407.744, 304.172 391.763, 302.395 382.290 C 301.430 377.146, 304.722 372.826, 311.191 370.751 C 314.111 369.814, 318.525 368.394, 321 367.596 C 323.475 366.798, 329.834 364.564, 335.131 362.633 C 345.210 358.959, 358.548 356, 365.034 356 C 374.728 356, 376.075 347.425, 367.805 338.355 C 366.532 336.959, 366.225 335.979, 366.925 335.546 C 367.516 335.181, 368 333.960, 368 332.834 C 368 331.377, 368.457 330.961, 369.582 331.393 C 370.452 331.727, 371.378 332, 371.641 332 C 371.903 332, 371.877 332.390, 371.583 332.866 C 369.413 336.377, 380.266 338.749, 382.941 335.348 C 384.977 332.760, 384.790 331.693, 386.592 356.230 C 387.233 364.959, 385.047 369.001, 381.029 366.518 C 379.531 365.592, 377.555 368.955, 378.842 370.242 C 379.479 370.879, 380 371.650, 380 371.955 C 380 372.563, 370.140 372.390, 365.758 371.705 C 364.249 371.469, 362.570 371.813, 362.027 372.468 C 361.483 373.123, 359.675 373.459, 358.010 373.215 C 353.933 372.616, 351.379 374.641, 353.369 376.893 C 355.628 379.449, 354.953 383.564, 352.334 383.202 C 351.109 383.033, 349.602 383.708, 348.840 384.768 C 348.103 385.793, 346.706 386.928, 345.735 387.290 C 344.764 387.652, 343.554 389.042, 343.047 390.377 C 342.007 393.112, 341.539 393.476, 337.971 394.325 C 335.996 394.795, 335.230 394.444, 334.471 392.719 C 333.076 389.549, 330.445 389.464, 327.417 392.492 C 325.971 393.938, 324.540 394.873, 324.236 394.569 C 323.048 393.381, 321.047 396.219, 321.919 397.855 C 323.138 400.141, 322.735 405.409, 321.200 407.259 C 320.497 408.106, 319.799 411.432, 319.650 414.650 C 319.376 420.542, 317.595 425.486, 316.083 424.552 C 315.635 424.274, 314.474 424.924, 313.504 425.996 C 311.801 427.878, 311.849 428.005, 314.908 429.722 C 317.553 431.207, 318.033 432.024, 317.819 434.679 C 317.503 438.590, 320.520 442.359, 323.369 441.614 C 324.461 441.328, 326.406 441.961, 327.793 443.052 C 329.155 444.123, 331.387 445, 332.753 445 C 334.119 445, 336.790 446.364, 338.689 448.032 C 341.630 450.614, 342.663 450.966, 345.656 450.405 C 348.793 449.816, 349.133 449.962, 348.834 451.765 C 348.283 455.095, 351.694 458.067, 354.739 456.909 C 356.607 456.199, 357.706 456.313, 358.890 457.341 C 359.775 458.110, 361.060 458.536, 361.744 458.288 C 362.428 458.040, 363.428 458.995, 363.966 460.409 C 364.567 461.992, 366.494 463.653, 368.972 464.727 C 373.272 466.590, 373.559 467.088, 372.004 469.993 C 370.767 472.304, 375.112 478, 378.111 478 C 380.150 478, 391 488.163, 391 490.074 C 391 493.273, 395.294 497.191, 398.169 496.616 C 400.599 496.130, 401.216 496.438, 402.013 498.533 C 402.534 499.906, 403.931 502.340, 405.115 503.942 C 406.588 505.934, 407.017 507.432, 406.471 508.678 C 406.032 509.680, 405.627 510.725, 405.571 511 C 405.515 511.275, 405.066 512.137, 404.573 512.916 C 403.386 514.791, 408.847 519.372, 410.568 517.944 C 411.921 516.821, 416.504 523.143, 417.618 527.669 C 418.002 529.226, 419.158 532.482, 420.188 534.903 C 422.055 539.294, 422.054 539.314, 419.883 541.624 C 418.239 543.374, 417.976 544.266, 418.808 545.269 C 421.592 548.623, 419.944 557, 416.500 557 C 413.951 557, 412.588 559.882, 414.244 561.769 C 415.080 562.721, 416.091 564.625, 416.492 566 C 416.893 567.375, 418.464 569.850, 419.985 571.500 C 421.505 573.150, 422.734 575.175, 422.717 576 C 422.700 576.825, 423.026 578.557, 423.442 579.849 C 424.092 581.869, 423.924 582.111, 422.240 581.576 C 419.478 580.699, 417.178 583.558, 418.814 585.834 C 421.104 589.017, 421.211 590.035, 419.615 593.399 C 417.333 598.207, 415.500 598.584, 415.500 594.245 C 415.500 590.076, 413.026 587.885, 410.253 589.599 C 407.674 591.195, 406 590.204, 406 587.081 C 406 585.134, 404.828 583.276, 402 580.737 C 398.800 577.864, 398 576.456, 398 573.696 C 398 569.381, 396.021 567.617, 392.136 568.470 C 390.446 568.841, 388.914 568.670, 388.543 568.070 C 387.618 566.573, 383.223 569.668, 381.475 573.048 C 379.974 575.951, 381.594 578.987, 383.888 577.569 C 384.424 577.238, 385.569 577.974, 386.432 579.206 C 388.383 581.992, 388.473 583.638, 386.589 582.074 C 385.558 581.218, 384.992 581.204, 384.488 582.020 C 384.108 582.634, 383.210 582.911, 382.493 582.636 C 380.929 582.036, 378.349 584.724, 377.844 587.479 C 377.409 589.848, 372.981 591.630, 370.367 590.488 C 369.340 590.040, 368.275 589.622, 368 589.560 C 365.781 589.061, 363.890 587.186, 364.947 586.533 C 366.311 585.690, 362.525 581, 360.481 581 C 359.837 581, 358.509 580.114, 357.529 579.032 C 356.144 577.502, 355.325 577.291, 353.846 578.083 C 352.381 578.866, 351.343 578.629, 349.337 577.050 C 345.730 574.213, 344.792 574.431, 341.167 578.941 C 337.584 583.400, 337.385 584.245, 339.500 586 C 341.083 587.314, 341.639 591.513, 340.104 590.564 C 338.543 589.599, 335.092 593.386, 334.790 596.395 C 334.386 600.426, 336.730 600.873, 338.328 597.071 C 339.046 595.363, 339.938 594.271, 340.311 594.644 C 341.440 595.773, 345 591.843, 345 589.467 C 345 588.245, 344.325 586.685, 343.500 586 C 341.412 584.267, 341.596 583.737, 344.950 581.829 C 347.518 580.368, 348.039 580.342, 349.103 581.624 C 349.917 582.605, 351.257 582.883, 353.159 582.465 C 354.722 582.122, 356 582.108, 356 582.434 C 356 583.788, 353.318 587.540, 350.750 589.780 C 346.492 593.492, 348.438 598.084, 354 597.449 C 355.375 597.292, 357.994 597.032, 359.820 596.872 C 362.867 596.606, 364.243 595.708, 364.610 593.750 C 364.687 593.337, 364.806 592.749, 364.875 592.443 C 364.944 592.137, 366 592.587, 367.223 593.443 C 371.208 596.235, 374.784 595.410, 379.696 590.568 C 382.323 587.978, 384.780 586.362, 385.608 586.680 C 386.388 586.979, 387.695 586.668, 388.513 585.989 C 389.331 585.311, 390 585.090, 390 585.500 C 390 585.910, 390.604 585.744, 391.342 585.131 C 392.080 584.519, 392.969 584.303, 393.318 584.651 C 393.666 585, 394.632 584.721, 395.463 584.031 C 396.357 583.289, 397.695 583.091, 398.737 583.547 C 399.707 583.971, 400.837 584.246, 401.250 584.159 C 401.663 584.071, 402 585.250, 402 586.777 C 402 591.474, 407.724 596.873, 409.558 593.906 C 410.811 591.879, 412.108 593.201, 411.814 596.204 C 411.518 599.228, 411.697 599.420, 415 599.612 C 420.412 599.926, 425 594.354, 425 587.469 C 425 585.696, 425.685 583.676, 426.523 582.981 C 427.501 582.169, 427.802 580.964, 427.365 579.609 C 426.992 578.449, 426.700 576.825, 426.717 576 C 426.734 575.175, 425.229 572.514, 423.374 570.086 C 421.518 567.658, 420 564.882, 420 563.918 C 420 562.953, 419.727 561.452, 419.393 560.582 C 419.007 559.577, 419.328 559, 420.271 559 C 423.778 559, 425.945 548.545, 423.040 545.640 C 422.339 544.939, 422.687 543.898, 424.141 542.350 C 426.267 540.086, 426.267 540.086, 424.202 534.793 C 423.066 531.882, 421.817 528.381, 421.426 527.013 C 421.035 525.645, 419.668 522.945, 418.389 521.012 C 417.110 519.079, 415.924 516.598, 415.753 515.499 C 415.205 511.972, 414.061 510.897, 412.020 511.989 C 409.759 513.199, 408.786 511.358, 410.349 508.829 C 411.142 507.546, 410.758 506.258, 408.691 503.276 C 407.211 501.140, 406 498.915, 406 498.331 C 406 495.514, 401.808 492.015, 398.720 492.255 C 396.267 492.446, 395.492 492.062, 395.187 490.500 C 394.710 488.059, 390.262 482, 388.947 482 C 388.423 482, 386.369 480.200, 384.381 478 C 382.159 475.540, 379.882 474, 378.467 474 C 375.727 474, 374.940 472.311, 376.283 469.314 C 377.658 466.247, 376.562 464.136, 372.764 462.530 C 368.521 460.737, 361.410 453.483, 362.958 452.526 C 363.805 452.002, 363.794 451.457, 362.916 450.399 C 361.539 448.740, 358.557 450.474, 359.675 452.283 C 360.083 452.943, 359.699 453.099, 358.655 452.698 C 357.735 452.345, 355.883 452.474, 354.539 452.985 C 352.546 453.743, 352.202 453.636, 352.674 452.406 C 353.719 449.684, 348.973 445.783, 345.427 446.448 C 342.900 446.922, 341.744 446.472, 339.173 444.015 C 337.123 442.056, 334.985 441, 333.068 441 C 331.446 441, 329.840 440.550, 329.500 440 C 328.859 438.963, 330.012 438.664, 333.586 438.939 C 337.532 439.243, 338.647 436.291, 335.750 433.214 C 334.344 431.721, 333.034 429.611, 332.838 428.525 C 332.643 427.439, 331.486 426.054, 330.269 425.447 C 328.879 424.754, 328.408 423.992, 329.002 423.398 C 329.596 422.804, 329.422 421.439, 328.533 419.726 C 327.755 418.227, 327.372 417, 327.682 417 C 327.991 417, 327.668 416.305, 326.962 415.454 C 326.257 414.604, 325.147 414.113, 324.496 414.363 C 323.004 414.936, 323.739 410.146, 325.473 408 C 326.139 407.175, 326.709 404.867, 326.740 402.871 C 326.839 396.391, 329.726 393.364, 332.904 396.408 C 336.482 399.836, 348.109 397.332, 346.621 393.455 C 346.362 392.781, 347.483 390.953, 349.111 389.393 C 352.072 386.557, 352.072 386.557, 354.418 389.499 C 356.835 392.531, 360.624 391.789, 359.372 388.528 C 359.093 387.799, 359.314 386.924, 359.864 386.584 C 360.506 386.187, 360.391 385.055, 359.542 383.419 C 358.218 380.867, 358.548 376.603, 360 377.500 C 360.426 377.763, 361.267 377.383, 361.871 376.655 C 363.495 374.699, 366.611 375.298, 368.786 377.984 C 370.701 380.349, 370.701 380.349, 373.765 378.168 C 375.502 376.931, 377.839 376.151, 379.164 376.367 C 382.185 376.860, 384 375.363, 384 372.378 C 384 371.070, 384.450 370, 385 370 C 385.550 370, 386.337 370.003, 386.750 370.007 C 387.163 370.011, 387.555 371.474, 387.621 373.257 C 387.688 375.041, 388.059 378.525, 388.446 381 C 389.056 384.907, 390.072 408.178, 389.988 416.312 C 389.972 417.859, 390.303 419.659, 390.723 420.312 C 392.046 422.370, 392.219 425.833, 392.361 453.223 C 392.545 488.575, 390.813 486.716, 421.798 484.826 C 432.303 484.186, 436 482.118, 436 476.885 C 436 475.363, 436.450 473.840, 437 473.500 C 437.550 473.160, 438 471.810, 438 470.500 C 438 469.190, 438.486 467.817, 439.081 467.450 C 439.676 467.082, 439.910 465.776, 439.601 464.546 C 439.209 462.983, 439.772 461.623, 441.475 460.024 C 444.038 457.615, 443.983 457.616, 458.353 459.677 C 468.992 461.203, 485.471 452.209, 483.487 445.960 C 483.059 444.609, 483.431 443.181, 484.529 441.968 C 485.778 440.588, 486.059 439.193, 485.572 436.789 C 485.205 434.980, 484.654 432.053, 484.347 430.285 C 484.040 428.517, 483.162 426.549, 482.395 425.913 C 481.628 425.276, 481 423.669, 481 422.342 C 481 421.015, 480.358 418.933, 479.574 417.715 C 478.789 416.497, 478.252 413.700, 478.379 411.500 C 478.610 407.533, 476.518 402.190, 472.690 396.969 C 466.773 388.897, 464.371 383.943, 464.139 379.330 C 463.925 375.061, 462.899 369.955, 458.847 353 C 458.255 350.525, 456.419 344.450, 454.766 339.500 C 452.801 333.617, 451.809 328.727, 451.901 325.380 C 452.080 318.912, 450.105 311.296, 446.117 303.073 C 444.403 299.538, 443 295.803, 443 294.773 C 443 293.743, 442.313 291.573, 441.474 289.950 C 440.635 288.328, 440.196 287, 440.497 287 C 440.799 287, 440.346 285.931, 439.490 284.624 C 438.634 283.318, 437.767 281.405, 437.565 280.374 C 437.010 277.551, 434.890 266.179, 433.825 260.311 C 433.307 257.457, 431.987 253.981, 430.891 252.588 C 428.933 250.100, 426.736 240.063, 427.052 235.049 C 427.660 225.376, 424.635 219.029, 420.102 220.468 C 417.900 221.167, 415.908 210.692, 417.870 208.730 C 418.594 208.006, 418.350 206.893, 417.074 205.093 C 415.870 203.396, 415.034 199.910, 414.654 195 C 413.805 184.031, 413.055 179.974, 411.045 175.500 C 410.057 173.300, 408.927 169.925, 408.533 168 C 407.426 162.583, 405.092 155.969, 403.470 153.653 C 402.661 152.499, 402 150.135, 402 148.400 C 402 145.028, 399.686 142.081, 398.520 143.968 C 398.158 144.553, 397.443 144.774, 396.931 144.457 C 395.315 143.459, 395.920 140.531, 398.012 139.224 C 401.191 137.239, 392.554 123.259, 383.173 115.206 C 380.500 112.911, 380.500 112.911, 383.074 113.520 C 387.618 114.594, 390.402 107.565, 386.735 104.275 C 385.647 103.299, 382.837 100.025, 380.491 97 C 378.146 93.975, 374.488 90.249, 372.363 88.720 C 365.171 83.544, 351.508 75, 350.423 75 C 349.830 75, 346.545 73.862, 343.123 72.472 C 339.701 71.082, 335.461 70.037, 333.701 70.151 C 331.940 70.265, 329.547 69.844, 328.381 69.215 C 327.216 68.585, 326.009 68.325, 325.698 68.635 C 325.387 68.946, 324.541 68.831, 323.817 68.379 C 322.268 67.413, 319.449 66.885, 318.880 67.453 M 300.776 74.929 C 292.950 77.459, 286 81.667, 286 83.875 C 286 86.991, 287.079 86.956, 291.897 83.685 C 300.473 77.864, 301.061 77.632, 302.810 79.381 C 304.218 80.790, 304.183 81.142, 302.433 83.093 C 300.966 84.729, 301.693 84.495, 305.446 82.124 C 310.556 78.896, 312.912 78.328, 314.550 79.928 C 315.136 80.500, 316.840 80.251, 319 79.276 C 321.928 77.954, 322.173 77.622, 320.500 77.245 C 319.400 76.996, 317.731 76.112, 316.791 75.278 C 314.218 72.999, 307.219 72.846, 300.776 74.929 M 348.491 84.250 C 350.497 86.588, 352.384 89.714, 352.684 91.199 C 353.357 94.526, 356.483 97.646, 357.499 96.002 C 357.882 95.382, 357.512 94.115, 356.676 93.187 C 355.840 92.259, 354.838 90.150, 354.449 88.500 C 353.568 84.758, 349.250 80, 346.735 80 C 345.156 80, 345.446 80.701, 348.491 84.250 M 319.503 83.097 C 316.755 84.232, 314.336 85.331, 314.127 85.539 C 313.267 86.400, 320.740 91.664, 325.925 93.851 C 328.991 95.143, 332.261 96.877, 333.191 97.703 C 334.468 98.836, 336.102 99.036, 339.854 98.520 C 342.962 98.093, 345.622 98.263, 346.951 98.974 C 350.746 101.005, 353.656 99.328, 351.086 96.591 C 349.938 95.370, 349 93.553, 349 92.554 C 349 89.663, 345.040 84.038, 342.667 83.559 C 341.475 83.318, 338.074 82.845, 335.110 82.507 C 332.145 82.170, 328.545 81.700, 327.110 81.463 C 325.674 81.226, 322.251 81.961, 319.503 83.097 M 358 87.826 C 358 88.280, 359.093 89.678, 360.429 90.934 C 362.505 92.884, 362.698 93.568, 361.756 95.635 C 360.442 98.520, 362.171 101.229, 364.098 99.302 C 366.739 96.661, 365.711 91.027, 362.212 88.963 C 358.498 86.771, 358 86.637, 358 87.826 M 369.308 93.808 C 369.308 96.072, 368.851 98.504, 368.292 99.212 C 365.988 102.133, 365.979 105.636, 368.270 107.608 C 371.072 110.018, 377.935 113.751, 376.264 111.956 C 373.909 109.426, 377.603 106.743, 381.013 108.507 C 386.920 111.561, 385.136 106.918, 377.003 98.066 C 369.308 89.692, 369.308 89.692, 369.308 93.808 M 290.875 93.458 C 289.885 94.448, 278.277 97.058, 274.460 97.149 C 272.238 97.202, 268.463 98.244, 266.071 99.464 C 261.722 101.682, 261.722 101.682, 267.611 101.986 C 270.850 102.153, 275.016 102.220, 276.868 102.136 C 278.720 102.052, 281.645 102.833, 283.368 103.871 C 285.091 104.910, 288.975 106.371, 292 107.119 C 295.025 107.866, 302.675 111.072, 309 114.244 C 315.325 117.415, 319.207 119.030, 317.627 117.832 C 316.046 116.634, 314.114 114.123, 313.332 112.252 C 312.205 109.554, 310.730 108.350, 306.205 106.434 C 293.298 100.968, 291.109 98.747, 294.709 94.769 C 296.230 93.089, 292.514 91.820, 290.875 93.458 M 308.424 93.877 C 309.923 96.302, 305.697 99.207, 301.619 98.556 C 298.462 98.051, 297.774 98.172, 298.675 99.074 C 299.321 99.720, 302.617 100.391, 305.999 100.564 C 313 100.922, 315.458 102.276, 314.011 104.979 C 313.307 106.295, 313.569 107.205, 315.032 108.529 C 316.114 109.509, 317 110.885, 317 111.589 C 317 112.292, 319.700 114.989, 323 117.581 C 326.300 120.174, 329 122.679, 329 123.148 C 329 124.626, 329.086 124.748, 333.336 129.329 C 338.352 134.734, 349 139.791, 349 136.768 C 349 135.632, 341.842 127.039, 336.141 121.331 C 329.894 115.076, 332.653 111.210, 339.589 116.500 C 346.365 121.669, 345.591 118.071, 338.326 110.630 C 335.206 107.434, 332.583 103.874, 332.498 102.718 C 332.383 101.156, 330.800 99.962, 326.322 98.059 C 323.011 96.651, 319.559 94.882, 318.651 94.128 C 317.338 93.036, 316.697 93.007, 315.521 93.983 C 314.418 94.898, 313.264 94.939, 310.987 94.145 C 309.306 93.559, 308.153 93.439, 308.424 93.877 M 354.019 101.699 C 352.104 103.026, 349.775 103.913, 348.844 103.669 C 344.218 102.460, 349.404 107.110, 367.548 120.441 C 368.356 121.034, 369.678 121.003, 371.128 120.356 C 373.338 119.370, 373.185 119.142, 367.236 114.521 C 361.018 109.693, 360.502 108.957, 359.576 103.587 C 358.841 99.330, 357.898 99.010, 354.019 101.699 M 342.112 110.129 C 349.021 118.104, 350.292 120.513, 348.414 122.071 C 347.636 122.717, 347 122.910, 347 122.500 C 347 122.090, 346.396 122.256, 345.658 122.869 C 344.920 123.481, 343.959 123.649, 343.523 123.241 C 341.811 121.642, 345.026 126.696, 347.823 130 C 350.630 133.317, 350.882 133.412, 352.644 131.820 C 354.388 130.244, 354.846 130.255, 359.991 131.997 C 366.658 134.254, 366.402 134.522, 363.343 128.488 C 361.625 125.099, 361.112 123.047, 361.734 122.060 C 362.433 120.951, 360.868 119.280, 355.074 114.949 C 350.908 111.835, 346.409 108.098, 345.076 106.644 C 339.085 100.111, 336.285 103.403, 342.112 110.129 M 253.075 106.705 C 251.151 107.368, 249.411 107.744, 249.208 107.541 C 248.292 106.626, 216.801 116.519, 210.810 119.604 C 209.331 120.366, 206.289 122.943, 204.051 125.330 C 201.814 127.718, 198.846 130.280, 197.457 131.023 C 196.068 131.766, 193.967 133.978, 192.789 135.937 C 191.610 137.897, 188.708 141.610, 186.339 144.190 C 183.971 146.769, 181.168 150.819, 180.111 153.190 C 173.943 167.022, 172 171.831, 172 173.262 C 172 176.133, 175.691 176.265, 180.307 173.561 C 188.543 168.734, 203.801 169.925, 213.514 176.153 C 219.261 179.839, 228 184.160, 228 183.317 C 228 182.923, 228.540 183.140, 229.200 183.800 C 229.860 184.460, 231.140 185, 232.045 185 C 232.950 185, 234.505 185.900, 235.500 187 C 236.495 188.100, 237.860 189, 238.533 189 C 239.205 189, 240.222 189.562, 240.793 190.250 C 241.835 191.506, 247.488 191.845, 248.613 190.720 C 249.306 190.027, 252.535 191.679, 255.628 194.309 C 258.194 196.492, 259.629 191.479, 257.670 187.176 C 256.901 185.489, 256.939 184.328, 257.806 182.939 C 258.463 181.888, 259 180.416, 259 179.669 C 259 176.814, 262.807 174.523, 264.750 176.208 C 265.712 177.043, 270.074 179.150, 274.442 180.891 C 278.810 182.632, 283.845 185.170, 285.631 186.532 C 289.611 189.568, 290.349 188.644, 289.484 181.716 C 288.690 175.360, 291.108 171.917, 294.931 173.963 C 297.100 175.124, 303.614 174.434, 304.533 172.946 C 304.815 172.491, 306.338 172.861, 307.918 173.768 C 312.083 176.158, 313.694 174.372, 314.546 166.417 C 315.325 159.144, 317.917 156, 323.135 156 C 326.912 156, 326.836 155.758, 321 149.211 C 318.250 146.125, 316 143.085, 316 142.455 C 316 140.594, 319.703 137.796, 321.665 138.174 C 322.755 138.384, 324.613 137.232, 326.317 135.292 C 329.128 132.090, 329.190 130, 326.476 130 C 325.702 130, 323.591 128.750, 321.785 127.221 C 311.251 118.310, 292.101 109.918, 287.927 112.384 C 285.415 113.868, 285.068 113.842, 282.710 111.987 C 281.321 110.894, 279.875 110, 279.497 110 C 279.118 110, 277.569 109.117, 276.054 108.039 C 272.687 105.641, 258.547 104.820, 253.075 106.705 M 375.828 117.668 C 376.833 119.556, 376.596 120.162, 373.996 122.350 C 372.045 123.991, 371.224 125.421, 371.628 126.473 C 372.292 128.202, 374.651 127.953, 374.273 126.194 C 374.148 125.614, 375.341 124.049, 376.924 122.718 C 379.891 120.221, 379.852 119.559, 376.586 117 C 374.788 115.590, 374.742 115.631, 375.828 117.668 M 367.411 128.461 C 371.068 135.917, 368.612 139.407, 361.729 136.531 C 356.373 134.293, 355.433 134.652, 358.936 137.599 C 362.346 140.469, 368.263 148.927, 369.930 153.315 C 372.233 159.376, 370.478 166.472, 367.324 163.854 C 364.907 161.848, 365.954 164.576, 369.250 168.873 C 372.500 173.109, 372.500 173.109, 373.280 160.804 C 374.600 139.978, 373.515 133.489, 367.541 126.500 C 364.978 123.500, 364.978 123.500, 367.411 128.461 M 383.965 125.542 C 383.077 126.612, 382.366 126.766, 381.642 126.042 C 379.681 124.081, 377.458 124.742, 379.261 126.750 C 381.411 129.145, 383.728 135.599, 384.341 140.904 C 384.622 143.325, 385.816 146.613, 386.996 148.208 C 389.366 151.415, 391.321 169.248, 390.481 180 C 388.985 199.150, 388.995 208.939, 390.510 208.358 C 393.555 207.189, 395 209.939, 395 216.899 C 395 227.436, 396.899 240.045, 398.918 242.919 C 401.085 246.004, 401.885 251.254, 402.130 264 C 402.231 269.225, 402.635 273.950, 403.029 274.500 C 403.740 275.492, 405.125 288.237, 405.035 292.958 C 405.009 294.309, 405.891 298.023, 406.994 301.212 C 408.097 304.400, 409 308.780, 409 310.945 C 409 313.110, 409.450 315.160, 410 315.500 C 410.550 315.840, 411.007 318.004, 411.015 320.309 C 411.024 322.614, 411.492 325.175, 412.057 326 C 412.800 327.087, 412.941 326.261, 412.569 323 C 411.587 314.392, 410.081 294.425, 409.514 282.500 C 409.201 275.900, 408.049 263.975, 406.954 256 C 405.860 248.025, 404.306 232.950, 403.500 222.500 C 402.695 212.050, 401.805 202.150, 401.523 200.500 C 400.059 191.928, 398.829 182.422, 397.964 173 C 397.434 167.225, 396.745 161.285, 396.432 159.801 C 396.013 157.812, 396.370 156.786, 397.788 155.900 C 400.305 154.328, 398.858 150.029, 395.082 147.862 C 391.947 146.062, 391.215 141.525, 393.629 138.857 C 395.647 136.628, 394.231 132.472, 389.694 127.304 C 386.414 123.568, 385.768 123.370, 383.965 125.542 M 329.179 137.048 C 327.451 138.658, 327.198 139.501, 327.996 140.992 C 329.198 143.238, 331.168 144.651, 330.775 142.985 C 330.339 141.140, 335.673 137.519, 337.251 138.589 C 337.990 139.090, 337.448 138.490, 336.047 137.255 C 332.903 134.484, 331.962 134.456, 329.179 137.048 M 352.941 138.827 C 352.412 144.863, 352.427 147, 352.998 147 C 353.377 147, 356.494 149.738, 359.925 153.085 C 366.642 159.637, 367.930 159.937, 366.281 154.564 C 364.090 147.423, 353.303 134.698, 352.941 138.827 M 320 142.800 C 320 143.241, 322.250 146.125, 325 149.211 C 327.750 152.296, 330 155.311, 330 155.910 C 330 156.510, 330.337 156.904, 330.750 156.788 C 331.163 156.671, 332.625 157.182, 334 157.923 C 335.375 158.664, 336.166 158.914, 335.759 158.477 C 335.351 158.041, 335.519 157.080, 336.131 156.342 C 336.969 155.332, 336.905 154.962, 335.872 154.848 C 335.118 154.764, 334.050 154.640, 333.500 154.571 C 331.120 154.276, 329.903 152.822, 330.965 151.542 C 333.394 148.615, 331.156 144.261, 328.179 146.121 C 325.922 147.530, 323 145.982, 323 143.378 C 323 142.620, 322.325 142, 321.500 142 C 320.675 142, 320 142.360, 320 142.800 M 334.676 143.402 C 334.380 144.173, 334.418 145.085, 334.761 145.428 C 335.104 145.771, 335.537 147.046, 335.722 148.262 C 335.908 149.478, 337.284 151.457, 338.780 152.662 C 340.909 154.375, 341.239 155.118, 340.297 156.079 C 338.879 157.525, 340.322 161, 342.340 161 C 345.497 161, 351.430 167.998, 349.722 169.706 C 348.009 171.420, 344.366 169.835, 345.563 167.898 C 346.152 166.946, 343.824 167.546, 340.220 169.275 C 338.421 170.139, 337.609 170.038, 336.364 168.792 C 334.928 167.356, 334.534 167.361, 331.955 168.840 C 329.243 170.397, 329.017 170.365, 326.575 168.070 C 323.855 165.515, 324.715 162.293, 327.802 163.477 C 329.044 163.954, 329.072 163.792, 327.973 162.468 C 326.800 161.054, 326.446 161.147, 324.582 163.350 C 323.437 164.704, 321.488 166.320, 320.250 166.941 C 318.534 167.802, 318 168.936, 318 171.721 C 318 178.714, 311.921 181.499, 306.492 176.993 C 305.705 176.340, 304.946 176.278, 304.600 176.838 C 303.647 178.380, 297.183 179.168, 295.014 178.008 C 292.665 176.751, 292.369 178.313, 293.926 183.743 C 294.521 185.817, 294.498 187.192, 293.861 187.586 C 293.316 187.923, 292.995 189.391, 293.148 190.850 C 293.571 194.879, 292.218 196.507, 290.066 194.559 C 288.277 192.941, 283.067 194.465, 281.451 197.080 C 281.127 197.604, 280.518 197.820, 280.097 197.560 C 279.676 197.300, 277.795 196.817, 275.916 196.487 C 274.037 196.157, 271.350 194.788, 269.945 193.444 C 267.168 190.787, 263.433 190.080, 264.315 192.378 C 264.606 193.136, 264.372 194.228, 263.795 194.805 C 263.064 195.536, 263.414 196.934, 264.955 199.427 C 266.169 201.392, 266.823 203, 266.407 203 C 264.774 203, 270.380 207.911, 273.349 209.081 C 277.243 210.617, 281 213.885, 281 215.737 C 281 216.503, 281.785 216.997, 282.750 216.838 C 285.805 216.335, 287.364 217.931, 285.692 219.849 C 284.463 221.259, 284.451 222.083, 285.605 225.500 C 286.348 227.700, 286.748 228.326, 286.494 226.890 C 285.799 222.963, 288.836 220.497, 291.806 222.577 C 293.013 223.422, 294 224.763, 294 225.557 C 294 226.351, 294.845 227, 295.878 227 C 298.303 227, 300.393 229.533, 299.623 231.539 C 299.293 232.400, 299.425 232.855, 299.917 232.551 C 300.749 232.037, 307.956 241.093, 308.036 242.752 C 308.056 243.164, 309.142 244.809, 310.451 246.409 C 312.288 248.657, 312.631 249.839, 311.960 251.606 C 311.210 253.577, 312.039 254.910, 317.947 261.236 C 325.555 269.383, 326.172 272.147, 321.244 276.023 C 319.862 277.110, 319.162 278, 319.689 278 C 320.217 278, 322.415 276.208, 324.574 274.017 C 329.451 269.068, 336 270.010, 336 275.659 C 336 276.226, 336.842 277.452, 337.871 278.383 C 342.347 282.434, 337.369 292.061, 327.500 298.438 C 319.225 303.785, 319.110 304.162, 323.878 310.342 C 327.446 314.967, 328 316.357, 328 320.687 C 328 324.371, 328.512 326.154, 329.943 327.449 C 331.012 328.416, 332.163 330.464, 332.500 332 C 333.566 336.852, 336.101 338.319, 341.096 336.974 C 348.281 335.039, 355.278 333.929, 359.750 334.012 C 363.603 334.085, 364 333.866, 364 331.669 C 364 326.342, 371.039 325.692, 374.946 330.658 C 379.304 336.199, 382.906 329.484, 379.117 322.882 C 377.614 320.262, 377.655 319.996, 379.932 317.573 C 382.196 315.163, 382.235 314.917, 380.639 313.154 C 379.131 311.487, 379.114 311.151, 380.475 310.021 C 382.416 308.410, 382.415 306.037, 380.471 303.262 C 379.630 302.061, 379.159 300.049, 379.425 298.790 C 379.690 297.530, 380.158 294.125, 380.463 291.223 C 380.768 288.321, 381.067 285.621, 381.127 285.223 C 381.759 281.047, 380.819 274.856, 379.622 275.315 C 376.453 276.531, 375.311 266.024, 378.056 260.896 C 378.620 259.842, 378.637 258.894, 378.098 258.560 C 377.059 257.919, 377.726 246.990, 379.077 242.500 C 379.973 239.520, 379.034 228.907, 376.953 218.500 C 376.403 215.750, 375.834 210.530, 375.689 206.900 C 375.536 203.053, 374.779 199.298, 373.875 197.900 C 372.783 196.210, 372.560 194.637, 373.120 192.586 C 373.557 190.983, 373.608 189.183, 373.233 188.586 C 372.858 187.989, 372.426 186.375, 372.273 185 C 371.503 178.067, 370.622 175.698, 367.174 171.293 C 365.110 168.657, 362.249 164.475, 360.815 162 C 357.450 156.192, 346.427 145.622, 344.505 146.360 C 343.712 146.664, 342.816 146.511, 342.512 146.020 C 342.059 145.287, 336.287 142, 335.453 142 C 335.322 142, 334.972 142.631, 334.676 143.402 M 401.672 170 C 401.934 174.675, 402.540 180.750, 403.019 183.500 C 403.498 186.250, 404.192 190.975, 404.562 194 C 404.931 197.025, 405.354 200.175, 405.500 201 C 405.646 201.825, 406.092 204.904, 406.490 207.843 C 406.978 211.449, 407.543 212.857, 408.226 212.174 C 408.909 211.491, 408.816 209.429, 407.939 205.831 C 407.224 202.899, 406.608 195.325, 406.570 189 C 406.518 180.538, 406.066 176.575, 404.857 174 C 403.954 172.075, 402.760 168.475, 402.205 166 C 401.333 162.113, 401.261 162.658, 401.672 170 M 382.514 168.984 C 380.900 170.767, 380.481 170.840, 379.084 169.576 C 377.635 168.264, 377.547 168.988, 378.105 177.625 C 378.633 185.795, 379.015 187.323, 380.859 188.614 C 383.388 190.385, 383.633 193.229, 381.415 195.070 C 379.081 197.008, 381.420 210, 384.103 210 C 384.999 210, 385.799 168.904, 384.926 167.726 C 384.611 167.301, 383.525 167.867, 382.514 168.984 M 183.096 176.109 C 178.185 178.306, 176.744 180.149, 170.992 191.596 C 164.630 204.257, 164.315 209.064, 170 206.746 C 173.759 205.214, 175.910 205.186, 177.129 206.655 C 177.733 207.383, 178.591 207.753, 179.037 207.477 C 180.375 206.650, 186.565 215.200, 187.826 219.616 C 189.625 225.924, 189.297 231.352, 186.935 234.355 C 185.799 235.799, 185.108 237.366, 185.399 237.837 C 185.691 238.308, 184.680 239.890, 183.154 241.352 C 179.625 244.733, 172.574 243.882, 168.028 239.527 C 158.764 230.652, 163.498 283.249, 174.505 311.500 C 177.799 319.955, 177.972 320.198, 177.356 315.507 C 176.995 312.760, 175.786 309.276, 174.668 307.765 C 171.041 302.859, 177.181 298.303, 183.525 301.193 C 190.487 304.365, 188.164 294.574, 180.258 287.423 C 174.645 282.346, 174.645 282.346, 178.323 276.292 C 180.345 272.963, 181.993 269.847, 181.983 269.369 C 181.974 268.891, 183.721 264.900, 185.865 260.500 C 189.529 252.980, 191.940 245.617, 195.361 231.500 C 198.673 217.830, 203.108 210.060, 206.792 211.474 C 207.596 211.782, 208.819 211.565, 209.511 210.991 C 213.601 207.596, 223.677 207.154, 229.573 210.109 C 233.483 212.070, 238.473 209.900, 238.664 206.157 C 238.914 201.260, 229.146 188.614, 222.520 185.257 C 219.774 183.865, 215.722 181.569, 213.514 180.153 C 205.064 174.735, 190.495 172.798, 183.096 176.109 M 262.122 182.087 C 260.392 185.996, 261.185 187.878, 264.311 187.281 C 265.696 187.016, 267.925 187.560, 269.390 188.520 C 270.825 189.460, 272 189.884, 272 189.460 C 272 189.037, 272.920 189.523, 274.045 190.541 C 275.805 192.133, 283.124 193.791, 281.581 192.247 C 281.271 191.938, 281.572 191.015, 282.251 190.198 C 283.294 188.941, 283.154 188.816, 281.338 189.393 C 279.965 189.829, 277.875 189.334, 275.532 188.018 C 273.518 186.887, 271.523 186.177, 271.098 186.439 C 269.973 187.135, 266 184.116, 266 182.566 C 266 179.411, 263.446 179.095, 262.122 182.087 M 239 196.124 C 239 196.985, 239.914 198.517, 241.031 199.528 C 243.267 201.552, 243.309 209.718, 241.096 212.384 C 239.644 214.134, 231.425 215.253, 229.214 214.002 C 225.476 211.887, 220.557 211.408, 215.649 212.681 C 209.391 214.304, 209.350 214.358, 211.886 217.582 C 213.140 219.177, 214 219.686, 214 218.835 C 214 214.755, 221.030 214.914, 225.564 219.096 C 226.700 220.143, 228.246 221, 229 221 C 229.754 221, 231.345 221.915, 232.535 223.033 C 234.440 224.823, 234.850 224.886, 235.949 223.561 C 237.376 221.842, 241.591 223.148, 246.962 226.973 C 253.635 231.725, 257.847 224.410, 253.396 215.800 C 252.628 214.314, 252 211.826, 252 210.271 C 252 208.117, 250.450 205.906, 245.500 201 C 241.676 197.210, 239 195.203, 239 196.124 M 249.550 196.831 C 250.072 197.288, 253.986 200.465, 258.246 203.892 C 262.707 207.480, 266.250 211.149, 266.600 212.543 C 268.076 218.422, 264.842 233.285, 261.212 237.311 C 259.392 239.330, 261.151 241.475, 263.822 240.493 C 264.550 240.226, 265.985 240.457, 267.012 241.006 C 268.258 241.673, 269.085 241.671, 269.500 241 C 270.557 239.289, 273.889 241.799, 275.418 245.458 C 278.329 252.424, 277.295 261.792, 272.901 268.274 C 271.325 270.598, 270.028 272.993, 270.018 273.596 C 270.008 274.199, 269.309 276.078, 268.464 277.771 C 267.620 279.464, 266.333 283.973, 265.606 287.791 C 264.878 291.609, 264.018 295.162, 263.693 295.687 C 263.369 296.212, 264.067 298.185, 265.244 300.071 C 266.421 301.957, 267.261 304.337, 267.111 305.359 C 266.822 307.322, 267.949 307.023, 271.143 304.290 C 272.556 303.080, 273.279 303.090, 276.311 304.357 C 278.250 305.167, 280.033 305.633, 280.273 305.393 C 281.241 304.426, 290.582 311.702, 291.964 314.500 C 295.626 321.911, 294.050 329.919, 288 334.647 C 274.273 345.374, 274.642 344.880, 278.460 347.382 C 280.406 348.657, 281.427 348.763, 283.346 347.888 C 285.377 346.963, 286.500 347.208, 290.224 349.391 C 295.912 352.724, 297.949 352.671, 308.136 348.921 C 312.736 347.227, 318.300 345.421, 320.500 344.907 C 328.623 343.007, 332.214 340.894, 330.512 339.014 C 329.681 338.095, 329 336.215, 329 334.838 C 329 331.462, 328.002 330.688, 325.993 332.506 C 323.652 334.625, 319.954 330.966, 321.975 328.530 C 322.664 327.701, 323.513 327.200, 323.863 327.418 C 325.798 328.623, 323.670 315.324, 321.557 313 C 314.037 304.732, 314.753 302.829, 328.904 293.500 C 334.611 289.737, 337.323 281.507, 333.882 278.393 C 332.847 277.456, 332 276.085, 332 275.345 C 332 273.405, 331.602 273.574, 325.770 277.996 C 319.723 282.580, 318.979 282.739, 316.484 279.983 C 314.708 278.020, 314.727 277.892, 317.217 275.233 C 321.492 270.666, 321.563 268.610, 317.558 265.308 C 310.244 259.280, 306.883 254.438, 307.990 251.526 C 308.768 249.481, 308.713 249.061, 307.747 249.664 C 305.002 251.377, 302.452 250.938, 299.701 248.276 C 298.122 246.749, 295.519 244.215, 293.915 242.644 C 292.312 241.074, 290.990 238.824, 290.978 237.644 C 290.964 236.230, 289.878 234.989, 287.788 234 C 284.550 232.467, 281.402 227.496, 280.822 223 C 280.645 221.625, 279.712 219.912, 278.750 219.193 C 277.788 218.475, 277 217.264, 277 216.502 C 277 214.903, 275.852 214.049, 272.952 213.491 C 270.219 212.965, 261.622 204.421, 262.460 203.065 C 263.087 202.050, 261.863 201.596, 259.335 201.906 C 258.695 201.984, 257.202 200.688, 256.017 199.024 C 254.555 196.970, 253.020 196, 251.232 196 C 249.739 196, 249.011 196.360, 249.550 196.831 M 254.250 205.640 C 255.213 206.749, 256 208.882, 256 210.378 C 256 211.875, 256.628 214.314, 257.396 215.800 C 260.265 221.349, 259.460 226.204, 254.780 231.581 C 253.030 233.592, 253.032 233.719, 254.849 235.363 C 260.163 240.172, 266.132 215.032, 260.858 210.053 C 256.950 206.364, 252.026 203.075, 254.250 205.640 M 171.580 209.870 C 171.273 210.367, 171.692 211.329, 172.511 212.009 C 173.330 212.689, 174 212.895, 174 212.467 C 174 212.040, 174.798 212.412, 175.773 213.294 C 177.012 214.416, 177.990 214.608, 179.023 213.931 C 180.529 212.944, 178.082 210.542, 175.500 210.474 C 174.950 210.459, 173.969 210.114, 173.319 209.707 C 172.670 209.300, 171.887 209.374, 171.580 209.870 M 161.139 213.500 C 161.310 214.600, 161.134 216.002, 160.749 216.616 C 160.363 217.230, 160.906 218.510, 161.956 219.460 C 163.006 220.410, 163.622 221.821, 163.326 222.594 C 162.393 225.025, 164.598 224.120, 166.002 221.496 C 167.207 219.245, 167.100 218.716, 164.936 216.246 C 163.613 214.736, 162.147 213.050, 161.679 212.500 C 161.172 211.905, 160.953 212.309, 161.139 213.500 M 389.750 212.572 C 389.337 212.991, 389 215.148, 389 217.367 C 389 220.227, 389.311 221.089, 390.068 220.332 C 390.656 219.744, 390.993 217.587, 390.818 215.537 C 390.643 213.487, 390.163 212.153, 389.750 212.572 M 206.337 221.250 C 205.908 221.938, 205.462 223.126, 205.346 223.891 C 205.230 224.656, 203.789 228.031, 202.142 231.391 C 198.942 237.924, 197.675 246.092, 199.300 249.720 C 200.297 251.947, 198.654 255.522, 197.081 254.550 C 196.359 254.104, 194.071 258.228, 192.014 263.682 C 191.354 265.432, 189.731 268.332, 188.407 270.126 C 187.083 271.921, 186 274.140, 186 275.059 C 186 275.978, 185.158 277.803, 184.128 279.115 C 182.256 281.500, 182.256 281.500, 188.878 281.669 C 192.520 281.762, 196.899 282.141, 198.609 282.512 C 201.187 283.071, 202.316 282.661, 205.216 280.116 C 207.139 278.427, 209.030 277.363, 209.418 277.752 C 209.807 278.140, 209.613 277.117, 208.988 275.479 C 208.363 273.841, 207.669 267.775, 207.447 262 C 207.224 256.225, 207.002 250.600, 206.953 249.500 C 206.584 241.141, 208.370 232.805, 210.877 231.182 C 215.767 228.017, 221.937 220.913, 220.331 220.297 C 219.488 219.973, 217.498 221.064, 215.636 222.868 C 211.900 226.489, 210.920 226.674, 208.669 224.186 C 207.403 222.787, 207.299 222.101, 208.214 221.186 C 209.076 220.324, 209.088 220, 208.259 220 C 207.631 220, 206.767 220.563, 206.337 221.250 M 168.527 224.915 C 167.545 228.010, 168.967 231.664, 171.624 232.875 C 175.182 234.496, 175.302 234.328, 172.901 231.080 C 171.376 229.017, 170.933 227.404, 171.390 225.580 C 172.171 222.470, 169.500 221.849, 168.527 224.915 M 417.153 228.783 C 417.581 231.927, 418.614 237.200, 419.450 240.500 C 421.608 249.024, 421.465 253.693, 419 255.232 C 416.485 256.803, 416.497 259.884, 419.062 271 C 420.141 275.675, 422.098 284.450, 423.412 290.500 C 424.727 296.550, 426.933 306.675, 428.315 313 C 429.697 319.325, 431.376 329, 432.045 334.500 C 434.841 357.475, 434.997 358.577, 437.483 373 C 438.763 380.425, 440.096 389.875, 440.445 394 C 440.794 398.125, 441.313 402.850, 441.598 404.500 C 441.883 406.150, 442.554 411.280, 443.090 415.900 C 443.809 422.103, 444.971 426.143, 447.532 431.340 C 451.420 439.232, 452.255 447.763, 449.522 451.665 C 448.153 453.620, 448.217 453.808, 450.385 454.223 C 453.138 454.749, 454.215 442.141, 451.903 436.440 C 449.944 431.607, 449.759 406.445, 451.671 404.858 C 452.988 403.765, 453.606 404.003, 455.666 406.398 C 458.673 409.893, 459.354 409.300, 459.495 403.065 C 459.616 397.740, 457.452 392.869, 456.830 397.066 C 455.754 404.331, 450.331 401.137, 448.905 392.398 C 446.302 376.442, 446.772 372.184, 451.013 373.293 C 454.149 374.113, 451.940 357.273, 447.928 349.764 C 447.418 348.809, 447 347.452, 447 346.749 C 447 346.046, 446.100 343.791, 445 341.739 C 443.900 339.686, 442.979 336.993, 442.953 335.754 C 442.927 334.514, 441.836 328.775, 440.529 323 C 438.133 312.418, 438.576 308.384, 441.907 310.442 C 443.158 311.216, 447 319.264, 447 321.112 C 447 321.784, 447.287 322.046, 447.638 321.695 C 448.389 320.944, 446.488 313.088, 444.269 307.767 C 442.967 304.645, 442.339 304.128, 440.437 304.605 C 437.784 305.271, 434.549 301.340, 435.567 298.687 C 435.903 297.810, 435.463 296.072, 434.589 294.824 C 432.597 291.980, 432.550 288.619, 434.479 287.017 C 435.599 286.088, 435.703 285.314, 434.909 283.830 C 434.332 282.752, 433.711 281.112, 433.528 280.185 C 433.030 277.655, 430.896 266.206, 429.806 260.216 C 429.239 257.101, 427.979 254.127, 426.737 252.969 C 424.375 250.769, 424.310 250.436, 423.507 236.500 C 422.830 224.743, 422.528 223.583, 420.365 224.413 C 419.475 224.755, 418.213 224.592, 417.561 224.050 C 416.655 223.299, 416.559 224.419, 417.153 228.783 M 224.500 225.675 C 219.845 226.705, 219.624 226.928, 221.364 228.850 C 223.642 231.366, 223.472 232.089, 219.518 236.708 C 215.562 241.329, 215.274 243.335, 216.276 259.225 C 216.638 264.966, 216.503 269.189, 215.945 269.534 C 214.324 270.536, 214.909 275.615, 216.944 278.201 C 218.013 279.561, 219.198 283.109, 219.577 286.086 C 220.257 291.429, 221.409 294, 223.122 294 C 223.605 294, 224 293.403, 224 292.674 C 224 291.945, 225.124 290.292, 226.499 289.001 C 228.688 286.944, 228.821 286.459, 227.570 285.077 C 225.044 282.286, 226.919 277.858, 229.662 280.134 C 230.748 281.036, 231.552 280.870, 233.279 279.386 C 234.501 278.337, 237.075 276.685, 239 275.715 C 242.695 273.853, 247 268.489, 247 265.747 C 247 264.851, 247.450 263.840, 248 263.500 C 248.550 263.160, 249 262.048, 249 261.029 C 249 259.198, 247.997 259.042, 244.919 260.391 C 244.050 260.772, 241.125 260.567, 238.419 259.934 C 235.714 259.301, 231.717 258.612, 229.538 258.402 C 222.161 257.691, 217.503 246.779, 224 245.427 C 226.913 244.820, 228.517 243.114, 228.632 240.500 C 228.705 238.850, 229.095 236.488, 229.499 235.250 C 230.040 233.593, 229.840 233, 228.739 233 C 224.051 233, 224.341 227.203, 229.095 225.872 C 232.059 225.043, 228.121 224.873, 224.500 225.675 M 408.024 233.027 C 408.059 239.705, 409.577 245.015, 411.917 246.654 C 413.063 247.457, 414 249.186, 414 250.498 C 414 253.370, 415.772 254.757, 416.620 252.547 C 417.689 249.762, 416.001 240, 414.451 240 C 412.669 240, 409.615 235.431, 410.472 234.046 C 410.826 233.473, 410.415 232.003, 409.558 230.779 C 408.049 228.625, 408.001 228.695, 408.024 233.027 M 242.148 235.277 C 244.237 239.181, 238.178 243.376, 234.829 240.345 C 233.823 239.435, 233 239.155, 233 239.723 C 233 241.856, 236.044 243.254, 239.475 242.698 C 242.355 242.230, 243.233 242.549, 244.729 244.603 C 246.526 247.070, 246.526 247.070, 250.351 243.153 C 254.176 239.236, 254.176 239.236, 250.838 236.737 C 246.436 233.442, 240.645 232.469, 242.148 235.277 M 170 236.897 C 170 238.655, 180.507 240.607, 181.481 239.031 C 181.879 238.387, 180.570 238, 177.993 238 C 175.725 238, 172.998 237.534, 171.934 236.965 C 170.734 236.323, 170 236.297, 170 236.897 M 390.250 238.740 C 388.200 239.439, 388.832 242.452, 391.250 243.513 C 392.504 244.063, 393.500 245.385, 393.500 246.500 C 393.500 247.615, 392.504 248.937, 391.250 249.487 C 389.734 250.152, 389 251.336, 389 253.115 C 389 254.567, 388.267 256.363, 387.372 257.106 C 384.786 259.252, 386.285 281.601, 389.171 283.938 C 391.019 285.434, 391.058 285.707, 389.603 286.915 C 387.472 288.683, 387.624 289.953, 390.368 293.305 C 392.244 295.598, 392.870 295.862, 393.792 294.750 C 395.402 292.810, 393.853 270.733, 391.945 268.434 C 391.167 267.496, 390.498 266.227, 390.458 265.614 C 390.418 265.002, 390.012 263.678, 389.556 262.672 C 388.280 259.862, 391.387 257.136, 394.003 258.770 C 396.369 260.247, 398 260.354, 398 259.031 C 398 258.499, 397.409 258.290, 396.687 258.567 C 394.504 259.404, 391.375 255.206, 392.680 253.191 C 393.283 252.261, 394.502 251.563, 395.388 251.639 C 397.888 251.854, 397.360 247.687, 394.555 245.051 C 393.210 243.788, 391.972 241.755, 391.805 240.534 C 391.633 239.280, 390.956 238.500, 390.250 238.740 M 255.895 243.702 C 254.463 243.924, 251.787 245.656, 249.949 247.552 C 248.111 249.449, 246.091 251, 245.459 251 C 243.956 251, 240.817 247.517, 241.607 246.726 C 241.944 246.390, 240.932 246.459, 239.359 246.879 C 236.259 247.708, 234.981 250.739, 237.152 252.115 C 240.743 254.391, 246.788 253.078, 251.500 249 C 254.790 246.153, 257.041 244.996, 259.311 244.985 C 261.738 244.973, 262.141 244.738, 261 244 C 260.175 243.467, 259.275 243.091, 259 243.165 C 258.725 243.239, 257.328 243.481, 255.895 243.702 M 263.788 244.545 C 263.489 244.845, 264.585 246.431, 266.224 248.070 C 268.420 250.266, 268.927 251.383, 268.153 252.316 C 267.575 253.012, 266.848 255.023, 266.538 256.784 C 266.228 258.545, 265.134 261.482, 264.107 263.310 C 263.079 265.139, 261.931 268.036, 261.555 269.749 C 261.179 271.461, 260.225 273.398, 259.436 274.053 C 258.646 274.709, 258 276.094, 258 277.132 C 258 278.169, 256.600 280.477, 254.889 282.259 C 251.482 285.807, 250 288.890, 250 292.428 C 250 293.691, 248.650 296.424, 247 298.500 C 245.350 300.576, 244 302.865, 244 303.587 C 244 304.308, 242.313 306.156, 240.250 307.693 C 235.328 311.362, 235.011 311.898, 236.088 314.732 C 236.659 316.233, 236.626 317.830, 236 319 C 235.450 320.028, 235 321.728, 235 322.779 C 235 323.830, 234.094 325.510, 232.986 326.513 C 231.878 327.515, 231.193 329.048, 231.464 329.918 C 233.552 336.629, 227.136 337.976, 222.014 331.902 C 214.528 323.023, 214.021 318, 220.611 318 C 225.335 318, 220.747 311.549, 215.299 310.531 C 213.210 310.141, 210.938 309.356, 210.250 308.788 C 209.563 308.220, 209 308.114, 209 308.552 C 209 308.990, 207.877 308.293, 206.504 307.004 C 205.131 305.714, 203.710 304.957, 203.346 305.321 C 200.151 308.516, 199.068 299.455, 202.173 295.507 C 204.340 292.753, 204.340 292.748, 202.239 293.872 C 201.080 294.492, 198.286 295, 196.031 295 C 192.179 295, 191.998 295.127, 193.050 297.093 C 195.834 302.295, 190.801 307.639, 183.979 306.724 C 178.832 306.034, 178.420 306.934, 181.633 311.842 C 183.691 314.986, 185.082 316.007, 187.969 316.495 C 192.789 317.309, 198 320.517, 198 322.671 C 198 325.154, 194.077 328.948, 192.144 328.333 C 190.727 327.884, 190.707 327.960, 192 328.890 C 192.825 329.484, 194.110 329.976, 194.856 329.985 C 196.589 330.004, 203.680 335.396, 207.251 339.408 C 210.308 342.845, 210.320 348.121, 207.281 352.903 C 205.643 355.480, 218.192 355.526, 227.083 352.976 C 233.265 351.203, 238.650 351.739, 240.688 354.330 C 241.696 355.611, 243.097 356.468, 243.802 356.233 C 244.808 355.897, 244.824 355.493, 243.878 354.353 C 241.839 351.896, 245.057 349.931, 252.686 348.973 C 269.816 346.822, 272.723 351.967, 256.500 355.723 C 248.500 357.575, 248.500 357.575, 251.876 359.038 C 253.733 359.842, 257.333 361.448, 259.876 362.606 C 264.500 364.711, 264.500 364.711, 271 361.474 C 274.575 359.693, 280.313 357.448, 283.750 356.486 C 290.392 354.627, 291.232 353.730, 287.967 351.982 C 286.471 351.182, 285.019 351.225, 282.471 352.147 C 279.155 353.346, 278.857 353.254, 275.504 350.003 C 270.163 344.827, 271.748 341.920, 284.549 333.424 C 290.571 329.426, 291.524 325.820, 288.886 317.014 C 286.518 309.110, 272.566 306.136, 265.472 312.024 C 263.381 313.759, 260.421 311.402, 262.121 309.355 C 262.993 308.304, 262.826 306.607, 261.422 302.237 C 260.408 299.082, 259.730 296.050, 259.914 295.500 C 260.099 294.950, 260.853 291.429, 261.589 287.675 C 262.326 283.921, 263.620 279.464, 264.464 277.771 C 265.309 276.078, 266.008 274.199, 266.018 273.596 C 266.028 272.993, 267.325 270.598, 268.901 268.274 C 273.045 262.160, 274.284 253.032, 271.824 246.734 C 271.072 244.807, 270.393 244.259, 269.588 244.927 C 268.873 245.521, 267.875 245.533, 266.966 244.958 C 265.265 243.882, 264.545 243.788, 263.788 244.545 M 230.500 247 C 230.160 247.550, 229.057 248, 228.048 248 C 224.965 248, 224.307 253.817, 227.357 254.110 C 235.276 254.869, 235.204 254.883, 233.433 252.926 C 232.319 251.696, 231.975 250.234, 232.401 248.540 C 233.023 246.058, 231.730 245.010, 230.500 247 M 253.048 251.613 C 250.473 253.780, 250.155 254.482, 251.186 255.724 C 252.899 257.788, 253.331 261.992, 252.082 264.451 C 250.844 266.888, 248.702 272.225, 248.584 273.167 C 248.472 274.055, 247.001 275.493, 246.167 275.529 C 245.800 275.545, 243.700 276.683, 241.500 278.059 C 239.300 279.434, 236.619 281.033, 235.542 281.612 C 234.465 282.191, 233.205 284.203, 232.742 286.082 C 232.278 287.962, 231.021 290.247, 229.949 291.160 C 228.877 292.073, 228 293.505, 228 294.342 C 228 299.103, 222.270 300.129, 218.968 295.959 C 216.127 292.372, 215.572 292.070, 214.130 293.320 C 213.233 294.096, 211.153 295.053, 209.506 295.446 C 200.809 297.522, 204.663 304.538, 215.625 306.587 C 224.719 308.286, 230 320.460, 222.158 321.647 C 218.664 322.176, 220.246 326.342, 225.363 330.087 C 227.088 331.349, 227.943 331.694, 227.262 330.854 C 226.242 329.593, 226.476 328.903, 228.600 326.913 C 230.653 324.988, 231.069 323.846, 230.653 321.268 C 230.366 319.491, 230.594 317.751, 231.160 317.401 C 231.726 317.052, 231.965 315.595, 231.691 314.164 C 231.286 312.045, 232.102 310.683, 236.097 306.812 C 238.794 304.199, 241 301.454, 241 300.711 C 241 299.968, 242.125 298.382, 243.500 297.187 C 244.890 295.978, 246 293.930, 246 292.572 C 246 291.229, 246.523 288.863, 247.161 287.315 C 247.800 285.767, 248.261 284.194, 248.185 283.819 C 248.109 283.445, 249.386 282.012, 251.023 280.634 C 252.660 279.256, 254 277.480, 254 276.687 C 254 275.894, 254.646 274.709, 255.436 274.053 C 256.225 273.398, 257.179 271.461, 257.555 269.749 C 257.931 268.036, 259.079 265.139, 260.107 263.310 C 261.134 261.482, 262.228 258.545, 262.538 256.784 C 262.848 255.023, 263.519 253.080, 264.027 252.467 C 267.251 248.583, 257.546 247.828, 253.048 251.613 M 205.127 284.146 C 202.352 286.652, 201.201 287.080, 198.627 286.561 C 193.721 285.574, 185 284.743, 185 285.263 C 185 287.390, 193.627 291.129, 197.367 290.623 C 211.822 288.666, 211.731 288.714, 209.775 284.106 C 208.500 281.102, 208.500 281.102, 205.127 284.146 M 415.685 289.500 C 414.758 295.092, 414.841 301.977, 415.931 309.808 C 416.443 313.489, 417.391 320.775, 418.039 326 C 418.687 331.225, 420.061 338.875, 421.093 343 C 422.125 347.125, 422.976 351.947, 422.985 353.716 C 422.993 355.485, 423.654 358.410, 424.453 360.216 C 425.253 362.022, 427.023 367.100, 428.388 371.500 C 434.749 392.005, 435.936 392.148, 432.541 372 C 429.858 356.077, 428.097 344.094, 426.515 331 C 424.950 318.050, 420.025 294.492, 417.686 288.773 C 416.348 285.500, 416.348 285.500, 415.685 289.500 M 388.357 313.749 C 388.966 334.986, 389.090 335.384, 393.568 330.495 C 395.413 328.481, 397.376 327.115, 397.932 327.458 C 399.334 328.325, 400.315 323.773, 399.698 319.260 C 396.650 296.970, 396.434 296.138, 394.263 298.309 C 392.711 299.860, 392.439 299.821, 390.216 297.736 C 387.834 295.500, 387.834 295.500, 388.357 313.749 M 404.175 314.719 C 404.026 322.547, 404.226 323.850, 405.500 323.362 C 407.172 322.720, 407.580 316.988, 406.063 315.450 C 405.548 314.928, 404.951 312.475, 404.738 310 C 404.524 307.525, 404.271 309.648, 404.175 314.719 M 309.051 319.662 C 305.839 323.746, 305.442 326.774, 307.719 329.837 C 312.302 336.005, 320.369 331.640, 317.888 324.334 C 315.314 316.756, 312.505 315.271, 309.051 319.662 M 180.429 327 C 180.818 328.375, 181.567 331.227, 182.093 333.339 C 183.943 340.760, 186.769 344.827, 192.264 347.978 C 198.662 351.648, 198.652 351.648, 199.285 348.250 C 199.567 346.738, 200.033 344.537, 200.320 343.360 C 201.075 340.271, 198.770 337.578, 192.241 333.921 C 189.084 332.153, 184.975 329.309, 183.111 327.603 C 179.775 324.548, 179.733 324.539, 180.429 327 M 404.250 328.737 C 403.563 328.974, 403 329.734, 403 330.428 C 403 332.304, 399.329 335.342, 398.562 334.101 C 396.936 331.470, 390.077 338.329, 390.038 342.625 C 389.956 351.550, 396.635 360.525, 401.211 357.639 C 403.326 356.305, 405.589 358.131, 406.346 361.782 C 406.657 363.277, 407.401 366.750, 408.001 369.500 C 410.286 379.976, 411.012 384.866, 412.008 396.500 C 412.573 403.100, 413.527 410.657, 414.128 413.292 C 414.744 415.997, 414.922 420.469, 414.536 423.557 C 413.852 429.030, 413.852 429.030, 418.421 428.765 C 422.990 428.500, 422.990 428.500, 423.009 424.500 C 423.019 422.300, 423.324 419.375, 423.687 418 C 424.263 415.816, 424.148 415.663, 422.776 416.788 C 420.130 418.956, 417 413.937, 417 407.524 C 417 404.661, 416.330 400.109, 415.511 397.409 C 413.566 390.999, 413.612 387.086, 415.657 384.826 C 417.039 383.299, 417.134 382.371, 416.228 379.247 C 415.630 377.186, 414.833 372.918, 414.456 369.761 C 414.080 366.605, 413.425 364.238, 412.999 364.500 C 410.725 365.906, 406.386 356.366, 406.640 350.516 C 406.759 347.774, 406.345 344.916, 405.722 344.165 C 404.052 342.153, 404.006 340.240, 405.595 338.921 C 407.928 336.985, 406.727 327.887, 404.250 328.737 M 447.040 335.639 C 447.018 337.388, 447.892 339.824, 449.015 341.139 C 451.031 343.500, 451.031 343.500, 450.377 340.500 C 449.152 334.878, 447.088 331.871, 447.040 335.639 M 412.483 340.634 C 414.682 345.850, 415.917 349.695, 415.956 351.450 C 415.986 352.779, 416.326 353.074, 417.023 352.377 C 418.632 350.768, 416.043 341.093, 413.662 339.819 C 411.961 338.909, 411.803 339.018, 412.483 340.634 M 346.912 341.242 C 335.434 342.815, 334.071 344.140, 343.288 344.762 C 350.456 345.246, 352.095 346.995, 348.630 350.461 C 345.734 353.356, 345.149 355.540, 347.511 354.634 C 348.343 354.315, 352.955 353.548, 357.761 352.929 C 372.289 351.058, 371.067 351.893, 368.239 345.772 C 365.576 340.008, 361.787 339.203, 346.912 341.242 M 204.183 343.217 C 204.101 343.923, 203.750 345.962, 203.403 347.750 C 203.037 349.639, 203.184 351, 203.756 351 C 205.010 351, 206.214 343.814, 205.140 342.740 C 204.697 342.297, 204.266 342.511, 204.183 343.217 M 335.153 350.250 C 334.466 350.938, 330.214 351.770, 325.703 352.100 C 308.036 353.393, 282.360 359.875, 269.500 366.289 C 257.774 372.137, 256.576 372.356, 252.953 369.307 C 248.932 365.924, 248.200 366.859, 252.010 370.510 C 255.921 374.256, 255.840 374.693, 250.250 380.030 C 244.093 385.910, 238.444 393.235, 235.237 399.500 C 232.539 404.770, 229.687 416, 231.047 416 C 232.160 416, 238.308 410.859, 239.397 409.017 C 243.057 402.831, 258.926 390.517, 269.728 385.482 C 272.603 384.142, 276.833 381.685, 279.128 380.023 C 281.422 378.360, 283.791 377, 284.391 377 C 284.992 377, 287.737 375.454, 290.491 373.565 C 295.302 370.266, 308.429 365.552, 320 362.967 C 323.025 362.291, 328.200 360.503, 331.500 358.993 C 334.800 357.482, 338.464 355.951, 339.642 355.590 C 343.823 354.309, 343.400 349, 339.117 349 C 337.623 349, 335.839 349.563, 335.153 350.250 M 250.500 363.371 C 254.803 367.180, 256.245 367.841, 258.484 367.029 C 260.154 366.424, 259.837 366.103, 256.484 365.003 C 254.293 364.285, 251.375 363.026, 250 362.206 C 247.947 360.981, 248.037 361.190, 250.500 363.371 M 399.147 366.128 C 398.938 369.866, 396.436 371.753, 393.840 370.132 C 391.904 368.923, 391.862 369.066, 392.503 374.692 C 393.508 383.523, 393.779 384.155, 395.977 382.782 C 398.492 381.212, 400.748 383.130, 401.324 387.326 C 401.563 389.072, 401.564 387.125, 401.327 383 C 400.793 373.752, 399.347 362.554, 399.147 366.128 M 339.942 367.570 C 339.226 368.433, 337.837 368.929, 336.857 368.673 C 334.514 368.060, 332.891 370.135, 332.784 373.876 C 332.624 379.530, 338.557 385.278, 342.686 383.468 C 343.684 383.031, 344.944 382.634, 345.487 382.586 C 347.450 382.414, 349.274 377.036, 347.922 375.406 C 346.986 374.278, 346.966 373.634, 347.840 372.760 C 348.714 371.886, 348.341 370.922, 346.311 368.802 C 343.253 365.611, 341.801 365.330, 339.942 367.570 M 418.570 371 C 419.245 375.589, 421.537 384.725, 424.723 395.525 C 426.068 400.086, 426.902 401.470, 428.155 401.220 C 429.065 401.039, 430.491 401.864, 431.325 403.053 C 432.183 404.279, 433.341 404.907, 433.995 404.503 C 434.808 404, 434.572 403.154, 433.199 401.645 C 432.125 400.465, 430.949 397.826, 430.584 395.779 C 430.219 393.733, 428.845 390.780, 427.529 389.217 C 426.128 387.552, 424.254 382.883, 423.001 377.938 C 420.533 368.191, 417.445 363.357, 418.570 371 M 456.564 371.500 C 457.730 377.978, 459.114 380.199, 458.433 374.500 C 458.104 371.750, 457.387 369.050, 456.840 368.500 C 456.179 367.836, 456.086 368.844, 456.564 371.500 M 298.776 372.993 C 297.277 373.444, 293.859 375.543, 291.179 377.657 C 286.307 381.500, 286.307 381.500, 290.095 385 C 295.366 389.870, 296.350 396.732, 292.575 402.295 C 291.172 404.361, 289.723 407.278, 289.354 408.776 C 288.985 410.274, 288.043 412.490, 287.259 413.701 C 285.922 415.766, 286.148 416.205, 290.917 420.826 C 296.674 426.404, 296.780 426.739, 293.927 430.365 C 291.855 433, 291.855 433, 293.993 433 C 295.169 433, 297.114 433.515, 298.316 434.146 C 300.394 435.235, 300.421 435.199, 298.863 433.396 C 297.797 432.161, 297.395 430.408, 297.709 428.368 C 297.975 426.646, 297.699 424.932, 297.096 424.559 C 296.493 424.187, 296 422.475, 296 420.755 C 296 418.918, 295.100 416.671, 293.818 415.306 C 291.636 412.984, 291.636 412.984, 293.639 410.242 C 298.202 403.994, 300.230 392.074, 298.395 382.290 C 297.956 379.952, 298.388 378.108, 299.977 375.537 C 301.179 373.592, 302.014 372.039, 301.832 372.086 C 301.649 372.133, 300.274 372.541, 298.776 372.993 M 336.580 373.870 C 335.788 375.152, 338.471 379.467, 340.275 379.814 C 341.224 379.997, 342 379.684, 342 379.119 C 342 377.676, 337.138 372.968, 336.580 373.870 M 406.120 386.795 C 405.995 391.264, 402.093 396.794, 399.985 395.490 C 398.571 394.617, 397.569 397.772, 398.786 399.263 C 399.341 399.943, 399.966 407.475, 400.173 416 C 400.593 433.210, 402.071 438.221, 406.004 435.765 C 410.151 433.175, 411.638 437.101, 408.710 442.912 C 406.659 446.984, 407.210 448.025, 410.052 445.453 C 413.010 442.776, 415.273 444.582, 416.500 450.597 C 417.476 455.385, 420.846 459.959, 424.400 461.323 C 426.356 462.074, 426.356 462.036, 424.500 452.338 C 423.675 448.027, 422.994 442.700, 422.987 440.500 C 422.961 433.085, 422.253 431.936, 418.122 432.597 C 412.493 433.497, 410.524 430.699, 410.410 421.639 C 410.309 413.597, 408.305 392.575, 407.060 386.500 C 406.240 382.500, 406.240 382.500, 406.120 386.795 M 365.500 390.791 C 359.940 394.996, 358.729 398.189, 361.937 400.193 C 364.854 402.015, 364.496 402.968, 361.056 402.532 C 357.566 402.091, 356.470 403.243, 355.718 408.150 C 355.148 411.864, 357.834 416, 360.814 416 C 361.501 416, 362 417.461, 362 419.469 C 362 421.957, 361.621 422.792, 360.660 422.423 C 357.648 421.267, 356.691 424.782, 359.306 427.397 C 360.671 428.762, 361.523 430.144, 361.198 430.468 C 360.539 431.128, 360.332 432.259, 359.525 439.618 C 358.825 446.007, 364.115 451.740, 367.381 448.131 C 369.443 445.852, 369.417 445.394, 367.026 442.036 C 365.059 439.275, 365.060 439.256, 367.034 437.469 C 368.892 435.788, 368.911 435.559, 367.348 433.832 C 366.430 432.817, 365.972 431.694, 366.331 431.336 C 367.347 430.319, 364.912 427.939, 363.637 428.703 C 363.012 429.077, 363.113 428.627, 363.863 427.703 C 364.613 426.778, 365.738 426.342, 366.363 426.732 C 370.442 429.280, 374.142 426.502, 372 422.500 C 370.984 420.602, 370.962 419.751, 371.898 418.623 C 372.771 417.571, 372.793 416.990, 371.980 416.488 C 371.366 416.108, 371.100 415.183, 371.388 414.431 C 371.677 413.679, 371.475 412.794, 370.940 412.463 C 370.405 412.132, 370.195 411.494, 370.473 411.044 C 370.751 410.595, 370.348 409.704, 369.578 409.065 C 368.620 408.269, 367.974 408.234, 367.530 408.951 C 367.174 409.528, 366.009 410, 364.941 410 C 362.526 410, 362.348 407.057, 364.750 406.848 C 368.022 406.563, 368.499 406.448, 369.817 405.623 C 371.375 404.648, 372.263 405.345, 372.526 407.750 C 372.631 408.713, 373.303 410.850, 374.020 412.500 C 374.737 414.150, 375.259 415.813, 375.180 416.195 C 374.805 418.016, 381.076 421.182, 382.582 419.932 C 387.976 415.455, 388.357 413.273, 384.556 408.633 C 381.437 404.827, 381.171 404.103, 382.488 403.010 C 383.320 402.320, 384 402.090, 384 402.500 C 384 402.910, 384.681 402.680, 385.512 401.990 C 387.224 400.569, 385.756 397.803, 383.677 398.532 C 382.203 399.049, 377 394.559, 377 392.770 C 377 386.705, 372.034 385.850, 365.500 390.791 M 367.250 393.648 C 363.501 395.496, 363.189 396.956, 366 399.500 C 367.876 401.198, 368.115 401.206, 369.857 399.630 C 371.856 397.821, 372.974 398.504, 374.366 402.386 C 375.020 404.212, 375.106 404.214, 377.055 402.451 C 379.065 400.631, 379.065 400.627, 376.628 398.564 C 375.286 397.429, 373.680 395.488, 373.059 394.250 C 371.724 391.591, 371.475 391.565, 367.250 393.648 M 464.246 409.724 C 463.044 413.172, 459.704 415.484, 457.272 414.551 C 454.457 413.470, 457.331 439.553, 461.262 450.753 C 462.459 454.163, 464.504 454.400, 468 451.534 C 468.825 450.857, 470.339 450.005, 471.363 449.640 C 472.742 449.149, 473.055 448.393, 472.566 446.738 C 472.202 445.507, 471.268 439.325, 470.489 433 C 467.717 410.459, 466.096 404.417, 464.246 409.724 M 427.247 418.603 C 427.114 429.499, 428.510 430.731, 432.974 423.653 C 434.408 421.378, 433.561 420.290, 431.613 421.906 C 428.523 424.471, 427.694 418.173, 430.681 414.824 C 432.622 412.648, 432.044 409.926, 429.437 408.964 C 427.441 408.227, 427.370 408.541, 427.247 418.603 M 377.862 410.743 C 379.060 412.981, 381.856 415.477, 382.474 414.859 C 383.370 413.963, 380.365 409.501, 378.642 409.170 C 377.142 408.881, 377.009 409.148, 377.862 410.743 M 224.026 431.102 C 220.290 438.111, 221.350 438.235, 226.007 431.334 C 227.852 428.600, 228.754 426.354, 228.221 425.821 C 227.688 425.288, 225.978 427.439, 224.026 431.102 M 478.611 430.700 C 478.766 433.446, 479.554 435.945, 480.567 436.900 C 482.141 438.385, 482.209 438.321, 481.527 436 C 481.122 434.625, 480.564 432.033, 480.285 430.241 C 479.505 425.216, 478.320 425.540, 478.611 430.700 M 438 436.208 C 438 436.572, 438.480 438.131, 439.066 439.674 C 439.652 441.216, 440.155 444.170, 440.184 446.239 C 440.224 449.142, 440.637 450, 441.995 450 C 444.708 450, 443.540 441.294, 440.387 438.023 C 439.074 436.660, 438 435.843, 438 436.208 M 433.082 445.500 C 432.986 447.150, 432.681 453.450, 432.403 459.500 C 432.125 465.550, 431.472 471.850, 430.952 473.500 C 430.007 476.500, 430.007 476.500, 431.981 474 C 433.067 472.625, 433.966 470.514, 433.978 469.309 C 433.990 468.104, 434.468 466.829, 435.041 466.475 C 435.613 466.121, 435.830 465.040, 435.523 464.073 C 435.206 463.074, 435.887 461.142, 437.098 459.602 C 439.168 456.971, 439.176 456.849, 437.366 455.526 C 436.233 454.697, 435.059 451.871, 434.378 448.331 C 433.587 444.217, 433.205 443.383, 433.082 445.500 M 398.173 462.181 C 398.268 478.495, 398.702 479.410, 406.527 479.790 C 418.856 480.387, 426.674 477.411, 423.012 473.513 C 421.714 472.131, 420.971 471, 421.361 471 C 421.751 471, 421.626 470.169, 421.082 469.153 C 420.401 467.881, 420.454 466.946, 421.253 466.147 C 422.132 465.268, 421.275 463.833, 417.706 460.209 C 414.301 456.752, 413 454.638, 413 452.561 C 413 449.890, 412.878 449.800, 411.250 451.274 C 410.288 452.145, 409.050 452.953, 408.500 453.069 C 407.950 453.186, 406.485 453.946, 405.245 454.759 C 402.694 456.431, 400.491 455.305, 398.938 451.535 C 398.429 450.299, 398.129 454.477, 398.173 462.181 M 199.765 505.657 C 196.712 511.071, 191.446 521.575, 188.063 529 C 184.679 536.425, 181.068 544.100, 180.037 546.056 C 179.007 548.012, 177.846 551.387, 177.458 553.556 C 177.070 555.725, 175.832 558.511, 174.706 559.746 C 173.580 560.981, 172.953 562.286, 173.312 562.645 C 174.452 563.786, 183 554.412, 183 552.020 C 183 550.787, 184.800 547.628, 187 545 C 189.200 542.372, 191.010 539.160, 191.022 537.861 C 191.034 536.563, 191.924 534.375, 193 533 C 194.076 531.625, 194.966 529.753, 194.978 528.840 C 194.990 527.927, 196.238 525.289, 197.750 522.979 C 199.262 520.669, 200.500 518.379, 200.500 517.889 C 200.500 517.400, 201.776 515.400, 203.336 513.445 C 204.987 511.376, 205.923 509.242, 205.576 508.338 C 205.249 507.485, 205.454 505.028, 206.032 502.879 C 208.394 494.111, 205.572 495.361, 199.765 505.657 M 373.347 511.234 C 372.295 512.919, 372.108 514.325, 371.916 522 C 371.817 525.958, 371.201 529.133, 370.340 530.119 C 368.109 532.675, 368.058 544.473, 370.269 546.691 C 372.725 549.156, 375.224 547.397, 376.245 542.485 C 376.682 540.380, 377.447 538.166, 377.945 537.566 C 379.596 535.577, 379.456 518.847, 377.756 514.872 C 375.958 510.669, 374.468 509.439, 373.347 511.234 M 388.662 512.821 C 386.172 515.573, 386.936 520.757, 391.353 531.080 C 394.800 539.135, 399.692 538.440, 398.546 530.057 C 396.952 518.404, 391.777 509.379, 388.662 512.821 M 341.678 516.977 C 339.478 519.447, 338.506 519.851, 335.985 519.347 C 329.880 518.126, 327.484 523.876, 332.465 527.794 C 333.706 528.770, 334.558 530.405, 334.397 531.501 C 333.950 534.543, 336.814 537.170, 339.190 535.898 C 340.543 535.174, 341.521 535.188, 342.431 535.943 C 343.389 536.738, 344.068 536.623, 344.990 535.512 C 345.680 534.681, 345.865 534, 345.400 534 C 344.935 534, 345.553 533.301, 346.773 532.447 C 348.306 531.373, 348.973 529.907, 348.934 527.697 C 348.903 525.938, 349.184 523.020, 349.558 521.211 C 350.898 514.735, 346.014 512.111, 341.678 516.977 M 373.768 532 C 373.431 532.825, 372.876 535.300, 372.533 537.500 C 371.911 541.500, 371.911 541.500, 373.502 538.546 C 374.377 536.921, 374.933 534.446, 374.737 533.046 C 374.491 531.284, 374.192 530.962, 373.768 532 M 293.200 533.200 C 292.540 533.860, 291.998 534.872, 291.995 535.450 C 291.992 536.028, 290.911 537.849, 289.592 539.497 C 288 541.487, 287.467 543.005, 288.006 544.012 C 289.032 545.928, 282.818 553, 280.109 553 C 277.599 553, 275.883 555.193, 276.991 556.986 C 277.587 557.950, 277.275 558.819, 276.018 559.700 C 274.566 560.717, 274.238 562.016, 274.494 565.748 C 274.672 568.361, 274.494 570.950, 274.098 571.500 C 272.768 573.345, 274.318 577.540, 275.956 576.527 C 277.790 575.394, 279.310 579.467, 279.511 586.058 C 279.750 593.884, 279.503 594.219, 273.313 594.477 C 268.431 594.681, 264.803 597.203, 266.685 599.085 C 267.439 599.839, 268.374 599.870, 269.655 599.185 C 270.683 598.635, 273.264 598.234, 275.390 598.294 C 281.706 598.473, 283.825 595.130, 283.483 585.527 C 283.227 578.345, 283.316 577.976, 284.934 579.440 C 287.233 581.521, 289.214 581.406, 292.255 579.014 C 294.781 577.027, 294.781 577.027, 294.886 583.957 C 294.944 587.769, 294.544 591.164, 293.996 591.503 C 292.303 592.549, 292.896 596.596, 295.024 598.521 C 296.453 599.815, 297.359 600.041, 298.111 599.289 C 298.862 598.538, 298.855 598.029, 298.087 597.554 C 296.740 596.722, 296.652 592.333, 297.966 591.521 C 299.523 590.559, 299.096 573.975, 297.454 571.631 C 296.233 569.888, 296.238 569.394, 297.490 568.012 C 299.106 566.226, 297.875 559.974, 295.304 556.902 C 293.874 555.195, 294.003 553.013, 295.771 549 C 296.377 547.625, 297.135 544.874, 297.456 542.887 C 297.777 540.900, 298.934 538.465, 300.028 537.475 C 301.889 535.791, 301.910 535.558, 300.353 533.838 C 298.455 531.741, 294.970 531.430, 293.200 533.200 M 248.677 545.073 C 248.319 546.408, 248.021 549.337, 248.014 551.583 C 248.006 553.829, 247.697 555.970, 247.326 556.341 C 246.603 557.064, 246.011 560.947, 246.007 565 C 246.001 570.956, 254.233 568.489, 254.723 562.387 C 254.806 561.349, 255.138 558.250, 255.460 555.500 C 256.177 549.367, 250.048 539.945, 248.677 545.073 M 303.830 547.624 C 299.719 551.735, 305.358 564.369, 310.019 561.488 C 310.628 561.112, 311.998 561.593, 313.063 562.557 C 317.279 566.373, 321.012 558.317, 317.410 553.175 C 316.149 551.374, 315.528 551.147, 314.410 552.075 C 313.281 553.012, 313 552.866, 313 551.345 C 313 545.543, 307.958 543.497, 303.830 547.624 M 286.907 552.240 C 283.831 555.397, 281.545 558.212, 281.827 558.494 C 282.110 558.777, 281.356 560.057, 280.152 561.339 C 278.730 562.852, 278.118 564.517, 278.407 566.085 C 278.651 567.413, 278.885 568.812, 278.926 569.193 C 279 569.881, 280.761 569.680, 286.500 568.326 C 288.150 567.937, 289.829 567.702, 290.231 567.803 C 292.909 568.478, 294.246 562.825, 292.097 559.918 C 289.740 556.729, 289.665 553.158, 291.871 549.164 C 293.917 545.463, 292.892 546.098, 286.907 552.240 M 305.748 549.585 C 305.106 550.227, 306.810 555.985, 308.049 557.363 C 309.642 559.133, 311.056 556.970, 309.798 554.689 C 309.134 553.485, 308.711 551.712, 308.858 550.750 C 309.111 549.098, 307.019 548.315, 305.748 549.585 M 357.500 556 C 356.505 557.100, 355.114 558, 354.410 558 C 353.706 558, 351.863 558.519, 350.315 559.154 C 348.767 559.788, 346.898 560.429, 346.162 560.578 C 341.716 561.478, 340.047 565.602, 342.770 568.964 C 344.540 571.150, 344.540 571.150, 347.449 568.862 C 349.728 567.069, 350.459 566.878, 350.827 567.980 C 353.122 574.867, 360.707 575.390, 361.723 568.731 C 362.113 566.177, 363.836 564, 365.467 564 C 369.276 564, 370.212 560.217, 366.993 557.837 C 365.255 556.551, 363.458 555.500, 363 555.500 C 362.541 555.500, 361.829 555.163, 361.417 554.750 C 360.252 553.585, 359.456 553.839, 357.500 556 M 352.474 563.042 C 351.782 564.161, 355.839 569.737, 356.841 569.043 C 359.845 566.962, 359.524 562.306, 356.368 562.188 C 354.559 562.120, 352.807 562.504, 352.474 563.042 M 286.286 572.332 C 283.072 573.269, 283.072 573.269, 285.444 575.134 C 289.234 578.116, 291.231 577.392, 290.092 573.448 C 289.574 571.654, 289.096 571.513, 286.286 572.332 M 392.334 573.427 C 392.635 574.212, 392.260 575.370, 391.500 576 C 390.740 576.630, 390.370 577.802, 390.678 578.603 C 391.142 579.812, 391.465 579.758, 392.586 578.279 C 394.224 576.120, 394.426 572, 392.893 572 C 392.284 572, 392.032 572.642, 392.334 573.427 M 355.280 589.989 C 351.691 593.254, 351.999 593.990, 356.660 593.281 C 359.739 592.812, 361.133 590.861, 360.254 588.250 C 359.646 586.443, 358.883 586.710, 355.280 589.989" stroke="none" fill="#1A1A1A" fill-rule="evenodd"/>
</svg>