<svg xmlns="http://www.w3.org/2000/svg" width="507" height="600" viewBox="0 0 507 600" version="1.1">
	<rect x="0" y="0" width="100%" height="100%" fill="#FFFFFF" />
	<path d="M 310 68.087 C 308.075 68.573, 304.314 69.180, 301.642 69.436 C 295.940 69.983, 282.232 78.660, 276.130 85.585 C 273.898 88.117, 271.345 89.905, 269.500 90.227 C 267.850 90.514, 262 92.338, 256.500 94.278 C 251 96.219, 244.722 98.087, 242.550 98.430 C 240.377 98.772, 237.902 99.657, 237.050 100.396 C 236.197 101.135, 234.150 102.031, 232.500 102.387 C 218.502 105.413, 201.289 116.730, 192.167 128.903 C 190.884 130.615, 189.473 131.792, 189.031 131.519 C 187.816 130.768, 185.613 133.879, 185.248 136.861 C 185.070 138.312, 184.154 140.471, 183.212 141.657 C 182.271 142.843, 179.925 145.820, 178 148.272 C 176.075 150.724, 173.600 153.129, 172.500 153.615 C 171.400 154.102, 170.346 155.625, 170.159 157 C 169.971 158.375, 169.140 160.259, 168.311 161.187 C 167.482 162.115, 167.068 163.301, 167.391 163.824 C 167.714 164.346, 167.328 165.313, 166.534 165.972 C 165.382 166.928, 165.331 167.557, 166.279 169.076 C 167.255 170.637, 167.040 171.838, 165.086 175.740 C 161.206 183.490, 161.128 183.690, 161.419 185.124 C 161.572 185.881, 162.023 187.246, 162.421 188.158 C 162.904 189.267, 161.931 191.542, 159.482 195.025 C 156.378 199.442, 155.920 200.760, 156.470 203.693 C 156.868 205.813, 156.662 207.703, 155.937 208.576 C 155.287 209.359, 155.090 210, 155.500 210 C 155.910 210, 155.703 210.654, 155.040 211.452 C 152.939 213.983, 153.027 218.328, 155.225 220.706 C 156.347 221.919, 157.393 224.078, 157.550 225.503 C 157.706 226.929, 158.388 228.762, 159.064 229.577 C 160.057 230.774, 159.926 231.485, 158.379 233.279 C 151.855 240.845, 151.037 243.212, 154.184 245.417 C 156.531 247.060, 157.545 256.934, 155.858 261.715 C 155.405 262.999, 155.497 264.189, 156.079 264.549 C 156.630 264.890, 156.852 265.918, 156.572 266.834 C 156.291 267.750, 156.514 270.300, 157.066 272.500 C 159.027 280.314, 159.214 281.583, 159.503 289 C 159.941 300.276, 160.677 303.420, 164.042 308.407 C 166.417 311.926, 167.123 314.079, 167.152 317.895 C 167.183 321.777, 167.701 323.310, 169.583 325.078 C 171.307 326.698, 171.688 327.671, 170.946 328.565 C 170.194 329.472, 170.734 330.387, 172.959 331.970 C 174.723 333.227, 176.013 335.053, 176.032 336.318 C 176.049 337.518, 176.726 339.376, 177.536 340.448 C 178.347 341.519, 178.742 343.238, 178.415 344.269 C 177.817 346.153, 180.405 350, 182.271 350 C 182.800 350, 185.317 351.504, 187.866 353.342 C 191.988 356.315, 195.023 357.931, 196.521 357.952 C 196.796 357.956, 198.254 358.583, 199.760 359.346 C 205.978 362.493, 214.275 362.913, 222 360.473 C 232.352 357.202, 235.100 357.809, 238.486 364.114 C 240.144 367.202, 242.047 370.379, 242.715 371.174 C 244.443 373.232, 242.426 379.528, 238.556 384.152 C 228.376 396.316, 227.114 399.023, 224.885 413.500 C 224.292 417.350, 222.546 422.975, 221.003 426 C 219.461 429.025, 216.542 435.533, 214.517 440.462 C 212.491 445.391, 210.029 450.566, 209.045 451.962 C 203.894 459.271, 202.196 464.403, 202.076 473.026 C 202.011 477.687, 201.553 483.075, 201.060 485 C 199.394 491.491, 195.707 500.480, 193.472 503.500 C 192.251 505.150, 190.457 508.975, 189.485 512 C 188.513 515.025, 186.882 518.694, 185.859 520.154 C 184.837 521.614, 184 523.197, 184 523.672 C 184 524.147, 182.939 526.103, 181.641 528.018 C 180.344 529.933, 178.959 532.625, 178.563 534 C 178.168 535.375, 176.229 537.913, 174.256 539.640 C 171.132 542.372, 170.634 543.434, 170.412 547.834 C 170.195 552.124, 169.659 553.333, 166.868 555.827 C 164.555 557.893, 163.512 559.763, 163.350 562.132 C 162.976 567.590, 157.329 582.047, 154.359 585.147 C 152.850 586.722, 151.509 588.571, 151.377 589.255 C 151.246 589.940, 150.573 591.926, 149.881 593.670 C 148.196 597.913, 149.854 599.970, 154.844 599.827 C 159.770 599.685, 160.963 598.547, 160.322 594.599 C 159.833 591.581, 163.678 578.445, 165.904 575.535 C 166.339 574.966, 167.478 572.025, 168.434 569 C 169.391 565.975, 171.381 561.475, 172.856 559 C 174.331 556.525, 177.087 551.486, 178.980 547.803 C 181.710 542.493, 182.700 541.336, 183.762 542.217 C 186.274 544.302, 188.813 540.556, 186.569 538.076 C 184.829 536.153, 184.883 535.831, 188.249 528.028 C 191.191 521.211, 191.922 520.201, 192.986 521.483 C 193.678 522.317, 194.811 523, 195.504 523 C 196.822 523, 202 516.800, 202 515.222 C 202 513.601, 198.162 510.782, 196.963 511.523 C 195.598 512.367, 196.106 511.343, 201.435 502.520 C 203.421 499.231, 205.498 494.866, 206.048 492.820 C 206.638 490.632, 208.230 488.261, 209.914 487.061 C 212.610 485.141, 213.925 481.537, 214.068 475.674 C 214.104 474.198, 214.389 474.078, 215.556 475.047 C 216.674 475.974, 217.324 475.976, 218.436 475.053 C 219.529 474.146, 220.388 474.137, 222.030 475.016 C 225.315 476.774, 229.780 472.519, 227.405 469.895 C 226.529 468.927, 225.149 468.389, 224.339 468.700 C 222.632 469.355, 218 467.137, 218 465.664 C 218 465.116, 218.296 464.963, 218.658 465.325 C 219.979 466.646, 222.106 463.832, 220.892 462.370 C 220.020 461.319, 220.315 460.257, 222.177 457.752 C 224.844 454.166, 225.349 444.330, 223.011 441.514 C 221.561 439.766, 222.248 437.407, 226.627 429.099 C 228.482 425.579, 230 422.065, 230 421.290 C 230 420.516, 230.386 420.121, 230.859 420.413 C 231.331 420.704, 234.890 417.693, 238.769 413.722 C 242.647 409.750, 248.184 404.250, 251.074 401.500 L 256.327 396.500 251.928 401.732 C 248.022 406.376, 247.498 407.592, 247.251 412.572 C 247.098 415.657, 246.529 419.011, 245.987 420.025 C 245.444 421.039, 245 423.647, 245 425.820 C 245 427.993, 244.393 430.942, 243.650 432.373 C 242.301 434.974, 242.301 434.974, 239.986 430.473 C 236.379 423.459, 235.580 423.217, 232.059 428.077 C 230.377 430.400, 228.923 433.245, 228.829 434.400 C 227.986 444.757, 229.198 448.003, 233.905 447.996 C 236.794 447.992, 243 444.593, 243 443.015 C 243 442.457, 243.787 442.001, 244.750 442.001 C 245.922 442.002, 244.637 443.734, 240.854 447.251 C 237.749 450.138, 234.429 453.745, 233.478 455.267 C 232.084 457.496, 231.470 457.805, 230.323 456.853 C 229.216 455.934, 228.602 455.986, 227.557 457.086 C 221.296 463.681, 230.803 469.614, 238.472 463.896 C 240.608 462.303, 243.035 461, 243.864 461 C 247.181 461, 249.910 457.041, 248.797 453.846 C 247.914 451.316, 248.091 450.532, 250.004 448.496 C 251.590 446.808, 252.067 445.405, 251.638 443.696 C 250.631 439.681, 253.579 438.088, 268 434.859 C 270.475 434.304, 273.985 433.177, 275.801 432.354 C 277.617 431.531, 280.686 430.601, 282.621 430.287 C 289.028 429.247, 290.611 421, 284.404 421 C 282.505 421, 282.122 419.799, 283.152 417.069 C 284.069 414.638, 284.069 414.638, 286.411 418.084 C 287.699 419.979, 289.909 422.149, 291.323 422.905 C 294.900 424.819, 295.417 426.927, 292.956 429.547 C 291.800 430.777, 290.715 432.620, 290.545 433.642 C 290.374 434.664, 289.619 435.322, 288.867 435.105 C 285.303 434.076, 280.783 434.785, 278.057 436.800 C 276.420 438.010, 274.223 439, 273.175 439 C 271.077 439, 266 442.597, 266 444.083 C 266 444.599, 264.425 447.261, 262.500 450 C 260.575 452.739, 259 455.482, 259 456.096 C 259 456.710, 257.852 458.116, 256.448 459.220 C 254.117 461.053, 254.030 461.376, 255.448 462.942 C 257.517 465.228, 257.404 466, 255.002 466 C 253.903 466, 251.093 467.800, 248.757 470 C 246.422 472.200, 243.816 474, 242.967 474 C 238.081 474, 227.991 482.590, 227.261 487.370 C 227.091 488.484, 226.372 490.094, 225.664 490.948 C 223.445 493.621, 221.024 500.370, 221.160 503.505 C 221.316 507.097, 220.237 510.941, 218.494 513 C 217.795 513.825, 215.961 516.975, 214.419 520 C 212.876 523.025, 210.125 527.346, 208.307 529.603 C 206.488 531.860, 205 534.029, 205 534.423 C 205 534.817, 203.650 537.102, 202 539.500 C 200.350 541.898, 199 544.146, 199 544.494 C 199 544.843, 197.875 547.588, 196.500 550.594 C 195.125 553.600, 194 556.314, 194 556.625 C 194 556.937, 193.130 558.413, 192.066 559.907 C 191.003 561.400, 189.834 563.814, 189.468 565.270 C 189.103 566.726, 188.185 568.432, 187.428 569.059 C 186.672 569.687, 185.771 571.701, 185.427 573.535 C 185.083 575.369, 183.947 577.643, 182.901 578.590 C 181.855 579.536, 181 581.115, 181 582.098 C 181 583.081, 180.071 585.461, 178.935 587.386 C 177.321 590.122, 177.102 591.322, 177.934 592.878 C 178.520 593.972, 178.887 595.861, 178.750 597.074 C 178.397 600.193, 180.752 600.638, 182.089 597.705 C 182.903 595.918, 182.908 594.696, 182.106 593.199 C 180.871 590.891, 181.595 588, 183.407 588 C 185.695 588, 186.941 585.879, 185.762 583.991 C 184.900 582.611, 185.128 581.652, 186.834 579.484 C 188.025 577.970, 189 575.952, 189 575 C 189 574.048, 189.831 572.197, 190.848 570.885 C 191.864 569.573, 193.019 567.177, 193.414 565.561 C 193.809 563.945, 195.003 561.400, 196.066 559.907 C 197.130 558.413, 198 556.937, 198 556.625 C 198 556.314, 199.125 553.600, 200.500 550.594 C 201.875 547.588, 203 544.843, 203 544.494 C 203 544.146, 204.350 541.898, 206 539.500 C 207.650 537.102, 209 534.817, 209 534.423 C 209 534.029, 210.488 531.860, 212.307 529.603 C 214.125 527.346, 216.876 523.025, 218.419 520 C 219.961 516.975, 221.795 513.825, 222.494 513 C 224.259 510.915, 225.321 507.083, 225.182 503.304 C 224.845 494.104, 236.412 478, 243.358 478 C 244.640 478, 247.483 476.323, 249.749 474.231 C 256.340 468.147, 266.439 465.551, 265.237 470.250 C 264.463 473.280, 260.078 480.108, 257.584 482.169 C 256.057 483.431, 255.634 484.810, 255.851 487.821 C 256.152 491.984, 253.299 499.677, 250.634 501.889 C 249.539 502.797, 249.390 503.873, 250.043 506.150 C 250.877 509.057, 250.801 509.167, 248.382 508.560 C 246.655 508.126, 244.038 508.794, 240.173 510.655 C 237.053 512.158, 234.050 513.437, 233.500 513.498 C 220.180 514.981, 217.412 519.641, 215.386 544 C 215.043 548.125, 214.141 552.497, 213.381 553.715 C 212.622 554.933, 212 557.048, 212 558.414 C 212 560.068, 210.855 561.772, 208.574 563.511 C 204.143 566.891, 201.853 570.457, 201.253 574.911 C 200.988 576.879, 200.147 579.379, 199.385 580.467 C 198.623 581.555, 198 583.679, 198 585.188 C 198 587.145, 196.671 589.204, 193.359 592.377 C 190.262 595.346, 188.921 597.352, 189.328 598.412 C 190.079 600.370, 191.879 600.480, 192.595 598.612 C 192.888 597.849, 195.124 595.141, 197.564 592.595 C 200.006 590.046, 202 586.997, 202 585.811 C 202 584.627, 202.628 582.947, 203.395 582.079 C 204.162 581.210, 204.997 578.330, 205.251 575.678 C 205.656 571.453, 206.336 570.262, 210.747 566.055 C 215.781 561.254, 215.781 561.254, 216.851 566.877 C 220.402 585.523, 218.717 590.863, 209.046 591.618 C 206.083 591.850, 203.131 592.476, 202.487 593.011 C 201.843 593.545, 201.056 593.723, 200.738 593.405 C 200.420 593.087, 199.382 594.014, 198.431 595.465 C 195.929 599.284, 198.043 601.248, 201.331 598.159 C 203.089 596.507, 205.168 595.864, 209.512 595.630 C 215.104 595.328, 215.486 595.129, 219.074 590.658 C 223.221 585.489, 223.445 582.409, 220.814 566.754 C 219.951 561.618, 219.966 559.057, 220.876 556.018 C 221.534 553.824, 222.321 546.734, 222.626 540.264 C 223.509 521.506, 224.741 519.119, 233.112 519.959 C 237.926 520.442, 238.536 520.766, 238.838 523 C 239.023 524.375, 239.991 526.400, 240.987 527.500 C 243.753 530.553, 242.338 551.478, 239.103 555.376 C 237.869 556.863, 238.941 566.420, 240.665 569.308 C 241.057 569.964, 239.565 568.925, 237.351 567 C 233.898 563.999, 233.512 563.278, 234.642 561.944 C 236.261 560.032, 235.658 556.384, 233.291 553.769 C 231.547 551.842, 231.478 551.863, 228.721 555.156 C 226.058 558.337, 226.009 558.575, 227.711 560.035 C 229.974 561.976, 230.384 563.832, 228.935 565.578 C 227.735 567.024, 227.574 571.509, 228.541 576.500 C 230.598 587.108, 230.307 592.885, 227.684 593.543 C 224.402 594.367, 221.310 597.710, 222.620 599.020 C 223.593 599.993, 229.346 597.617, 232.645 594.880 C 234.428 593.400, 233.735 577.297, 231.638 571.500 C 231.440 570.950, 231.552 569.742, 231.888 568.816 C 233.936 563.181, 243 579.785, 243 589.172 C 243 591.890, 246.835 600, 248.121 600 C 249.934 600, 250.206 596.963, 248.610 594.527 C 247.724 593.176, 247 590.886, 247 589.439 C 247 587.992, 246.283 584.343, 245.407 581.330 C 244.532 578.317, 244.069 575.598, 244.380 575.287 C 245.200 574.467, 247.292 579.926, 247.710 583.982 C 248.317 589.857, 255.500 595.348, 255.500 589.937 C 255.500 589.407, 256.850 587.897, 258.500 586.581 C 261.267 584.373, 261.481 583.749, 261.260 578.538 C 261.124 575.353, 261.642 571.400, 262.446 569.474 C 266.015 560.932, 263.615 539.295, 258.330 532.366 C 256.499 529.965, 256.032 528.484, 256.574 526.797 C 256.980 525.534, 257.422 523.542, 257.555 522.370 C 258.078 517.781, 262.420 506.779, 263.917 506.249 C 266.868 505.206, 268.076 503.797, 267.065 502.578 C 266.437 501.822, 266.595 500.571, 267.522 498.961 C 268.301 497.607, 269.446 495.262, 270.067 493.750 C 271.455 490.367, 272.030 490.338, 275 493.500 C 276.369 494.957, 278.463 496, 280.021 496 C 281.490 496, 284.153 496.728, 285.937 497.618 C 291.880 500.583, 299.379 499.783, 299.602 496.160 C 299.966 490.236, 299.788 490.453, 302.324 492.835 C 303.602 494.036, 304.952 494.714, 305.324 494.342 C 305.696 493.971, 306 494.137, 306 494.711 C 306 495.285, 305.325 496.315, 304.500 497 C 300.907 499.982, 303.894 505.366, 310.326 507.503 C 314.079 508.749, 314.287 512.002, 310.847 515.662 C 309.406 517.197, 308.991 518.463, 309.525 519.699 C 311.112 523.375, 310.757 524.378, 306.106 529.383 C 298.050 538.050, 297.084 540.311, 297.499 549.506 C 297.887 558.111, 297.894 558.363, 297.878 563.250 C 297.854 570.526, 298.193 572.556, 299.715 574.238 C 300.592 575.207, 301.860 576, 302.533 576 C 304.523 576, 306.048 578.542, 306.349 582.360 C 306.635 585.990, 309.581 590.377, 311.101 589.437 C 313.532 587.935, 318.072 575.840, 317.635 572.032 C 317.287 569.001, 317.688 567.396, 319.307 565.337 C 321.303 562.799, 321.423 561.621, 321.216 546.633 C 320.994 530.637, 320.994 530.637, 317.384 527.330 C 313.773 524.022, 313.773 524.022, 316.992 520.356 C 319.716 517.254, 320.123 516.146, 319.638 513.158 C 319.323 511.216, 319.531 509.065, 320.101 508.379 C 320.816 507.517, 320.790 504.714, 320.017 499.316 C 317.594 482.397, 317.656 481.539, 321.030 485.381 C 322.663 487.242, 324 489.743, 324 490.939 C 324 492.136, 324.504 495.115, 325.120 497.561 C 325.980 500.976, 325.948 502.711, 324.983 505.040 C 323.163 509.435, 323.388 525.473, 325.351 531.232 C 326.606 534.914, 326.722 536.579, 325.872 538.732 C 324.257 542.828, 324.707 564.533, 326.479 567.959 C 328.188 571.264, 326.966 577.245, 323.904 580.564 C 322.857 581.700, 322 583.622, 322 584.836 C 322 586.050, 320.890 588.721, 319.532 590.772 C 318.175 592.822, 316.938 595.576, 316.782 596.890 C 316.343 600.608, 318.848 600.574, 320.546 596.838 C 321.381 595.002, 322.916 592.150, 323.959 590.500 C 325.001 588.850, 325.887 586.629, 325.927 585.564 C 325.967 584.500, 326.837 582.700, 327.860 581.564 C 330.823 578.276, 332.167 571.223, 330.460 567.922 C 328.706 564.532, 328.269 542.797, 329.872 538.732 C 330.722 536.579, 330.606 534.914, 329.351 531.232 C 327.388 525.473, 327.163 509.435, 328.983 505.040 C 329.948 502.711, 329.980 500.976, 329.120 497.561 C 328.504 495.115, 328 491.749, 328 490.080 C 328 487.964, 327.259 486.561, 325.551 485.441 C 324.203 484.558, 322.571 482.186, 321.924 480.168 C 321.276 478.151, 318.925 473.802, 316.698 470.505 C 312.601 464.438, 311.456 460.754, 310.014 449 C 308.738 438.598, 308.095 436.647, 305.072 434 C 301.685 431.035, 300.346 424.235, 302.570 421.302 C 304.436 418.842, 304.348 413.533, 302.415 411.929 C 300.728 410.529, 300.800 409.511, 303.271 399.779 C 304.070 396.632, 304.506 393.840, 304.240 393.573 C 303.974 393.307, 304.070 389.315, 304.455 384.702 C 305.310 374.428, 307.250 371.755, 315.069 370.079 C 317.906 369.470, 323.214 367.680, 326.864 366.101 C 341.372 359.824, 356.403 356.005, 366.615 356.001 C 369.245 356, 371.669 355.262, 373.330 353.955 C 374.760 352.831, 376.283 351.992, 376.715 352.092 C 377.147 352.193, 378.381 350.611, 379.457 348.578 C 381.717 344.310, 380.831 341.726, 376.911 341.149 C 375.599 340.957, 373.326 339.944, 371.859 338.899 C 370.392 337.855, 368.465 337, 367.577 337 C 365.795 337, 366.380 332.107, 368.313 330.843 C 369.609 329.995, 372.274 330.975, 373.300 332.675 C 375.698 336.650, 382.606 337.196, 381.917 333.355 C 381.832 332.885, 381.873 332.163, 382.007 331.750 C 382.465 330.338, 382.750 328.999, 382.965 327.250 C 383.494 322.952, 384.916 332.810, 386.007 348.334 C 387.150 364.591, 387.122 365.243, 385.210 367.334 C 384.121 368.525, 382.912 370.546, 382.524 371.825 C 382.135 373.104, 381.547 373.880, 381.216 373.550 C 379.953 372.286, 370.002 383.298, 371.154 384.685 C 371.754 385.408, 371.910 386, 371.500 386 C 371.090 386, 371.293 386.648, 371.951 387.441 C 372.608 388.233, 373.676 388.688, 374.323 388.451 C 376.846 387.529, 378.135 389.515, 376.982 392.548 C 375.966 395.220, 376.182 395.712, 379.943 399.290 C 384.490 403.617, 384.394 403.396, 382.931 406.130 C 382.157 407.575, 382.181 408.514, 383.019 409.523 C 385.424 412.421, 382.315 419.336, 379.614 417.095 C 378.900 416.502, 378.112 416.222, 377.862 416.471 C 377.612 416.721, 377.443 415.705, 377.486 414.213 C 377.587 410.660, 372.190 403.597, 370.467 405.027 C 367.879 407.175, 369.349 419.138, 372 417.500 C 372.425 417.237, 373.319 417.679, 373.986 418.483 C 375.552 420.371, 371.713 427, 369.053 427 C 365.247 427, 361.686 430.995, 363.603 433.114 C 364.542 434.151, 365.985 435, 366.810 435 C 368.087 435, 368.064 435.272, 366.655 436.829 C 364.598 439.101, 364.523 442.359, 366.489 443.991 C 367.308 444.671, 367.713 445.655, 367.390 446.178 C 367.056 446.719, 366.017 446.420, 364.986 445.488 C 363.988 444.584, 362.345 443.932, 361.336 444.038 C 357.922 444.396, 357.547 444.005, 359.794 442.432 C 361.026 441.569, 361.794 440.475, 361.500 440.001 C 361.207 439.526, 361.425 438.856, 361.984 438.510 C 363.493 437.577, 363.214 433.422, 361.548 432.040 C 359.511 430.349, 356.426 431.593, 353.917 435.117 C 351.352 438.719, 350.493 438.367, 352.138 434.389 C 352.795 432.800, 353.370 431.185, 353.416 430.800 C 353.543 429.739, 356 427.478, 356 428.422 C 356 428.875, 356.670 428.689, 357.489 428.009 C 358.308 427.329, 358.719 426.355, 358.403 425.843 C 358.087 425.331, 358.322 424.317, 358.926 423.589 C 360.293 421.942, 358.619 420.346, 355 419.846 C 353.625 419.656, 352.500 418.960, 352.500 418.300 C 352.500 417.640, 351.960 416.560, 351.299 415.899 C 350.365 414.965, 350.809 414.344, 353.299 413.099 C 355.650 411.925, 356.590 410.704, 356.838 408.500 C 357.025 406.850, 357.529 405.050, 357.958 404.500 C 358.388 403.950, 359.252 401.907, 359.878 399.961 C 360.569 397.811, 362.215 395.713, 364.073 394.616 C 368.271 392.136, 369.713 388.766, 367.847 385.791 C 366.015 382.870, 366.082 380.527, 368.003 380.406 C 370.164 380.270, 374.706 378.284, 375.392 377.175 C 376.046 376.116, 373.264 373.402, 372.405 374.262 C 372.105 374.562, 370.677 374.195, 369.232 373.445 C 367.380 372.485, 366.234 372.391, 365.346 373.127 C 364.654 373.702, 363.649 373.901, 363.112 373.569 C 361.498 372.571, 358.860 377.126, 360.151 378.682 C 360.946 379.640, 360.928 380.382, 360.085 381.398 C 359.447 382.167, 358.730 383.803, 358.493 385.035 C 357.843 388.411, 354.971 391.126, 352.784 390.432 C 349.304 389.327, 347.594 391.939, 350.071 394.576 C 353.659 398.395, 350.237 399.764, 343.685 397.131 C 341.697 396.333, 340.294 396.308, 338.914 397.046 C 337.839 397.622, 336.536 397.831, 336.020 397.512 C 335.504 397.193, 334.207 397.478, 333.139 398.145 C 331.563 399.130, 330.724 399.049, 328.690 397.716 C 325.565 395.669, 323.914 397.170, 323.783 402.181 C 323.736 404.006, 323.038 406.512, 322.233 407.750 C 321.428 408.987, 321.102 410, 321.507 410 C 321.913 410, 321.685 410.675, 321 411.500 C 320.315 412.325, 320.090 413, 320.500 413 C 320.910 413, 320.750 413.596, 320.146 414.324 C 317.119 417.971, 323.271 419.072, 326.955 415.543 C 330.187 412.447, 333.612 413.562, 330.712 416.766 C 329.091 418.557, 329.122 418.766, 331.316 420.827 C 334.285 423.617, 335.583 423.566, 337.537 420.584 C 338.408 419.255, 339.693 417.948, 340.393 417.679 C 342.160 417.001, 342.058 420.127, 340.246 422.213 C 339.427 423.155, 339.045 424.674, 339.396 425.590 C 339.747 426.505, 339.574 427.808, 339.012 428.485 C 338.289 429.357, 338.576 430.462, 339.995 432.266 C 342.582 435.555, 342.525 435.882, 339.428 435.542 C 337.807 435.364, 336.440 435.923, 335.734 437.055 C 334.707 438.699, 334.367 438.724, 331.715 437.353 C 328.829 435.860, 325 437.445, 325 440.132 C 325 442.101, 330.059 444.280, 332.284 443.268 C 334.167 442.413, 335.134 442.842, 338.715 446.119 C 342.430 449.519, 343.241 449.859, 345.549 448.981 C 348.717 447.777, 350.341 448.586, 349.698 451.048 C 349.436 452.051, 349.897 453.835, 350.723 455.015 C 352.225 457.159, 352.225 457.159, 355.077 454.426 C 356.645 452.924, 357.664 451.265, 357.339 450.740 C 356.978 450.155, 358.054 450.066, 360.125 450.510 C 364.362 451.419, 364.562 451.618, 363.056 453.432 C 361.704 455.062, 362.003 455.777, 366.312 461.198 C 367.966 463.279, 370.509 465.172, 372.126 465.528 C 375.437 466.255, 375.592 466.688, 373.411 469.099 C 370.931 471.838, 373.433 476.138, 378.300 477.503 C 380.679 478.170, 382.558 479.490, 383.325 481.034 C 383.999 482.390, 385.562 483.645, 386.800 483.823 C 389.381 484.193, 392.227 488.032, 392.615 491.667 C 392.958 494.884, 394.938 497.266, 396.383 496.200 C 399.423 493.957, 407 502.678, 407 508.420 C 407 509.222, 409.475 513.328, 412.500 517.544 C 415.525 521.761, 418.010 525.950, 418.022 526.855 C 418.034 527.760, 419.006 530.525, 420.182 533 C 421.358 535.475, 422.265 537.787, 422.198 538.137 C 422.130 538.488, 422.464 540.130, 422.939 541.786 C 423.486 543.693, 423.422 545.178, 422.764 545.836 C 422.193 546.407, 421.540 549.035, 421.313 551.675 C 421.062 554.601, 420.139 557.288, 418.950 558.553 C 415.990 561.704, 416.516 565.866, 420.510 570.891 C 424.373 575.750, 425.136 580.933, 422.535 584.646 C 421.730 585.796, 421.352 587.019, 421.697 587.364 C 422.395 588.061, 420.163 595.805, 418.707 597.738 C 418.077 598.575, 418.297 599.177, 419.387 599.595 C 421.134 600.265, 424.637 599.303, 423.735 598.401 C 423.431 598.098, 423.619 596.421, 424.153 594.675 C 429.230 578.056, 429.066 573.989, 423.102 568.593 C 420.638 566.362, 420.393 563.328, 422.492 561.009 C 424.047 559.291, 426.346 549.369, 425.505 548.008 C 425.239 547.578, 425.654 546.702, 426.426 546.061 C 427.462 545.201, 427.600 544.094, 426.953 541.835 C 426.470 540.152, 426.130 538.488, 426.198 538.137 C 426.265 537.787, 425.358 535.475, 424.182 533 C 423.006 530.525, 422.023 527.825, 421.996 527 C 421.970 526.175, 420.401 523.070, 418.508 520.100 C 416.616 517.130, 415.282 514.353, 415.543 513.930 C 415.805 513.507, 414.890 512.272, 413.510 511.186 C 412.129 510.100, 411 508.695, 411 508.063 C 411 506.843, 404.509 494.385, 402.742 492.214 C 402.142 491.477, 400.469 491.121, 398.823 491.381 C 396.956 491.675, 396.045 491.424, 396.219 490.663 C 396.696 488.585, 392.227 482.169, 389.219 480.613 C 387.612 479.782, 385.545 477.954, 384.625 476.551 C 383.617 475.012, 382.020 474, 380.599 474 C 376.893 474, 375.314 471.415, 377.526 468.971 C 379.270 467.044, 379.253 466.898, 376.990 464.490 C 375.704 463.120, 374.078 462, 373.376 462 C 372.675 462, 370.763 460.568, 369.128 458.818 C 366.154 455.636, 366.154 455.636, 368.879 451.568 C 371.260 448.013, 371.901 445.804, 371.076 444 C 370.228 442.148, 370.305 439.485, 371.249 437.972 C 372.103 436.605, 371.981 435.619, 370.717 433.691 C 368.865 430.864, 370.041 429.737, 374.040 430.508 C 376.799 431.039, 384.118 426.471, 383.421 424.653 C 383.134 423.906, 384.047 421.137, 385.450 418.499 C 386.852 415.861, 388 413.019, 388 412.184 C 388 408.519, 389.504 412.610, 389.706 416.824 C 389.829 419.396, 390.593 423.300, 391.404 425.500 C 393.019 429.880, 393.298 440.483, 391.944 446 C 391.471 447.925, 391.404 455.469, 391.793 462.765 C 392.183 470.061, 392.205 477.142, 391.841 478.502 C 391.313 480.477, 391.802 481.497, 394.273 483.577 C 397.367 486.180, 397.367 486.180, 413.877 485.515 C 424.503 485.088, 431.299 484.375, 432.944 483.515 C 435.600 482.126, 441.902 476, 440.675 476 C 440.290 476, 441.158 474.125, 442.605 471.834 C 445.116 467.856, 445.162 467.544, 443.617 464.930 C 440.146 459.053, 443.433 456.708, 452.048 458.916 C 462.004 461.467, 472.619 459.790, 477.629 454.874 C 480.033 452.514, 482 450.957, 482 451.414 C 482 454.348, 484.650 449.299, 484.845 445.993 C 484.978 443.743, 485.476 440.878, 485.952 439.627 C 486.826 437.327, 485.744 430.820, 483.687 426 C 483.100 424.625, 482.725 421.849, 482.855 419.831 C 482.994 417.658, 482.268 414.626, 481.074 412.399 C 479.659 409.760, 479.362 408.269, 480.077 407.407 C 480.775 406.566, 480.753 405.966, 480.008 405.505 C 476.824 403.537, 467 384.363, 467 380.116 C 467 378.441, 466.351 375.142, 465.557 372.785 C 464.763 370.428, 463.964 367.375, 463.782 366 C 463.599 364.625, 463.097 362.938, 462.666 362.250 C 462.235 361.563, 462.185 361, 462.556 361 C 462.927 361, 462.490 359.871, 461.586 358.491 C 460.682 357.111, 459.779 354.299, 459.579 352.241 C 458.981 346.072, 457.131 339.294, 455.021 335.538 C 453.928 333.592, 453.341 332, 453.717 332 C 454.093 332, 453.860 331.460, 453.200 330.800 C 452.540 330.140, 452 327.446, 452 324.814 C 452 317.998, 450.305 311.550, 446.397 303.500 C 444.528 299.650, 442.999 295.891, 442.999 295.148 C 443 294.404, 441.650 289.766, 440 284.841 C 438.350 279.916, 437 274.757, 437 273.377 C 437 271.997, 436.541 270.011, 435.981 268.964 C 435.420 267.916, 434.768 264.756, 434.531 261.940 C 434.237 258.443, 433.276 255.739, 431.497 253.408 C 428.300 249.216, 426.806 240.948, 427.632 232.018 C 428.340 224.362, 426.560 221.080, 421.500 220.716 C 418.145 220.474, 416.333 214.129, 418.182 209.099 C 418.868 207.235, 418.598 206.201, 416.976 204.475 C 415.148 202.528, 414.920 201.205, 415.149 193.875 C 415.311 188.727, 414.947 184.658, 414.206 183.316 C 413.543 182.114, 413 180.453, 413 179.623 C 413 178.793, 412.144 176.626, 411.097 174.807 C 410.050 172.988, 408.884 169.925, 408.506 168 C 407.592 163.353, 405.521 157.237, 403.533 153.315 C 402.126 150.540, 402.095 149.705, 403.293 146.815 C 404.855 143.048, 403.451 137.911, 400.391 136.199 C 398.894 135.361, 398.951 134.985, 400.996 132.220 C 403.254 129.165, 403.254 129.165, 401.156 126.220 C 400.003 124.600, 399.290 123.044, 399.572 122.762 C 399.854 122.480, 398.715 121.097, 397.042 119.689 C 395.369 118.281, 394 116.452, 394 115.624 C 394 114.796, 393.543 113.835, 392.984 113.490 C 392.425 113.144, 392.207 112.474, 392.500 111.999 C 392.794 111.525, 392.238 110.544, 391.267 109.818 C 390.295 109.093, 389.355 107.825, 389.178 107 C 389.001 106.175, 387.134 103.700, 385.030 101.500 C 382.925 99.300, 379.263 95.322, 376.892 92.661 C 374.521 89.999, 370.537 86.778, 368.040 85.504 C 365.543 84.229, 362.178 81.795, 360.563 80.093 C 358.948 78.392, 357.183 77, 356.642 77 C 356.100 77, 354.947 76.372, 354.079 75.605 C 353.210 74.838, 350.592 73.952, 348.260 73.636 C 345.928 73.320, 342.680 72.369, 341.043 71.522 C 339.406 70.676, 336.814 69.923, 335.283 69.850 C 333.753 69.778, 330.281 69.106, 327.568 68.359 C 322.094 66.850, 315.321 66.746, 310 68.087 M 302.725 74.006 C 301.199 74.465, 299.113 75.874, 298.089 77.138 C 296.565 79.021, 295.960 79.212, 294.739 78.198 C 292.907 76.678, 282.095 84.302, 280.207 88.445 C 279.112 90.848, 279.206 90.998, 281.771 90.968 C 285.932 90.920, 288.746 88.423, 287.281 86.079 C 285.679 83.513, 289.133 80.036, 291.409 81.925 C 292.549 82.870, 293.516 82.785, 295.958 81.522 C 297.663 80.640, 299.495 80.188, 300.028 80.517 C 300.560 80.846, 301.997 80.415, 303.221 79.558 C 306.122 77.526, 307.667 77.593, 310.572 79.878 C 312.916 81.722, 313.063 81.717, 318.463 79.628 C 324.794 77.180, 324.980 76.895, 321.250 75.347 C 315.447 72.940, 312.998 72.856, 310.307 74.973 C 307.759 76.977, 304.169 76.154, 305.570 73.887 C 305.871 73.399, 305.979 73.039, 305.809 73.086 C 305.639 73.133, 304.251 73.547, 302.725 74.006 M 325 81.142 C 320.475 82.484, 320.364 82.640, 322.365 84.850 C 324.311 87.001, 322.850 88.985, 319.115 89.266 C 317.282 89.404, 317.224 89.590, 318.560 91.067 C 321.867 94.721, 317.174 95.720, 306.871 93.557 C 305.191 93.204, 303.792 93.546, 302.998 94.502 C 301.251 96.607, 298.245 96.364, 296.768 94 C 296.081 92.900, 294.637 92, 293.559 92 C 292.080 92, 291.882 92.282, 292.753 93.153 C 293.507 93.907, 293.587 94.902, 292.985 96.027 C 292.314 97.282, 292.592 98.225, 294.009 99.508 C 295.078 100.476, 295.661 101.770, 295.305 102.384 C 294.948 102.998, 295.521 102.825, 296.578 102 C 302.584 97.312, 304.240 97.146, 311.248 100.527 C 314.128 101.917, 318.071 103.480, 320.008 104.002 C 322.973 104.800, 329.464 108.557, 334.629 112.465 C 338.544 115.427, 336.422 111.340, 331.870 107.153 C 326.526 102.238, 326.509 102.204, 328.405 100.107 C 329.453 98.948, 330.953 98, 331.738 98 C 334.649 98, 332.210 95.498, 329.242 95.439 C 322.561 95.306, 321.599 90.685, 328.148 90.186 C 331.256 89.949, 335.569 87.236, 334.515 86.181 C 333.370 85.036, 336.272 82.981, 337.544 84.036 C 338.448 84.787, 339.020 84.776, 339.500 84 C 339.953 83.267, 340.574 83.232, 341.373 83.894 C 342.034 84.443, 343.162 84.518, 343.899 84.062 C 344.769 83.525, 343.192 82.832, 339.366 82.068 C 329.643 80.128, 328.638 80.063, 325 81.142 M 350.627 85.250 C 352.715 88.138, 355.306 91.728, 356.385 93.229 C 358.642 96.372, 361.783 95.331, 360.014 92.026 C 359.495 91.057, 359.286 90.047, 359.551 89.783 C 360.363 88.971, 350.190 80, 348.458 80 C 347.229 80, 347.761 81.288, 350.627 85.250 M 348.989 93.020 C 348.357 94.202, 346.188 95.888, 344.170 96.765 C 341.183 98.065, 340.872 98.439, 342.500 98.781 C 344.915 99.287, 349 102.893, 349 104.519 C 349 105.163, 351.859 107.789, 355.354 110.355 C 358.849 112.921, 362.519 115.916, 363.509 117.010 C 365.662 119.389, 367 119.565, 367 117.469 C 367 116.628, 365.421 114.553, 363.491 112.858 C 361.561 111.164, 359.691 108.590, 359.335 107.139 C 358.499 103.732, 353.065 93.299, 351.413 91.928 C 350.470 91.145, 349.841 91.429, 348.989 93.020 M 364.246 94.618 C 362.301 97.667, 362.175 98.412, 363.327 100.056 C 365.576 103.267, 370.927 97.101, 369.006 93.512 C 367.283 90.292, 366.957 90.368, 364.246 94.618 M 277.924 95.250 C 277.034 98.190, 277.663 102.693, 278.951 102.605 C 281.348 102.442, 283.400 99.186, 282.095 97.615 C 281.503 96.901, 281.313 96.020, 281.675 95.658 C 282.037 95.296, 281.358 95, 280.167 95 C 278.975 95, 277.966 95.112, 277.924 95.250 M 374.001 96.131 C 374 97.029, 372.425 98.964, 370.500 100.432 C 366.083 103.801, 366.002 106.443, 370.250 108.595 C 372.038 109.500, 374.278 110.923, 375.229 111.757 C 376.793 113.127, 377.135 113.055, 378.796 111.003 C 380.363 109.069, 380.956 108.906, 382.817 109.902 C 384.018 110.545, 385.034 110.942, 385.077 110.785 C 385.805 108.071, 384.862 106.271, 379.892 100.885 C 376.386 97.085, 374.001 95.160, 374.001 96.131 M 286.643 97.513 C 286.963 98.345, 286.742 99.606, 286.154 100.315 C 284.798 101.948, 285.801 106, 287.560 106 C 290.581 106, 292.143 101.781, 289.976 99.474 C 288.879 98.307, 288.286 97.048, 288.658 96.676 C 289.029 96.304, 288.597 96, 287.698 96 C 286.649 96, 286.271 96.542, 286.643 97.513 M 269.500 100.464 C 266.500 101.838, 266.500 101.838, 269.128 101.919 C 270.573 101.963, 272.315 101.325, 273 100.500 C 274.523 98.665, 273.453 98.654, 269.500 100.464 M 293.667 104.667 C 292.389 105.945, 293.021 106.959, 296.079 108.541 C 299.158 110.133, 299.158 110.133, 296.891 107.067 C 294.336 103.611, 294.558 103.776, 293.667 104.667 M 303.101 108.751 C 307.808 113.885, 316.765 119.037, 312.911 114.393 C 312.178 113.510, 311.111 111.872, 310.539 110.755 C 309.968 109.637, 307.080 107.660, 304.123 106.362 C 298.746 104.001, 298.746 104.001, 303.101 108.751 M 253.251 106.640 C 251.439 107.267, 247.828 108.097, 245.228 108.485 C 240.065 109.255, 215.681 117.074, 211.255 119.378 C 209.740 120.166, 206.188 122.992, 203.363 125.656 C 200.537 128.320, 196.801 131.789, 195.060 133.364 C 193.320 134.940, 192.134 136.468, 192.426 136.760 C 192.718 137.052, 190.379 140.048, 187.229 143.418 C 184.078 146.788, 180.660 151.560, 179.634 154.023 C 178.607 156.485, 176.469 161.461, 174.884 165.080 C 170.210 175.745, 171.981 177.972, 181.301 173.149 C 189.810 168.747, 204.843 170.076, 213.500 175.995 C 217.132 178.479, 227.621 184.138, 228.243 183.949 C 228.769 183.789, 232.552 185.176, 234 186.059 C 239.751 189.568, 241.277 190.123, 242.315 189.085 C 244.256 187.144, 248.559 187.936, 252.572 190.972 C 257.306 194.555, 258 194.658, 258 191.783 C 258 186.575, 254.819 181.523, 248.644 176.924 C 245.265 174.407, 242.622 171.792, 242.770 171.113 C 242.919 170.433, 242.258 168.553, 241.302 166.935 C 239.622 164.090, 239.634 163.922, 241.660 161.895 C 244.349 159.207, 246.992 160.444, 250.527 166.043 C 251.901 168.219, 253.770 170, 254.679 170 C 255.589 170, 259.199 171.575, 262.701 173.500 C 269.949 177.484, 271.540 177.837, 269.819 175.081 C 268.871 173.564, 268.904 172.821, 269.973 171.533 C 272.136 168.926, 275.302 170.095, 277.332 174.250 C 278.430 176.496, 279.880 178, 280.947 178 C 281.928 178, 283.865 178.893, 285.253 179.984 C 288.127 182.245, 288.957 181.003, 288.986 174.398 C 289.003 170.530, 292.876 164.601, 295.647 164.198 C 297.015 164, 299.646 165.652, 303.339 169.026 C 310.697 175.751, 312.338 175.466, 313 167.344 C 313.562 160.447, 315.355 157.724, 320.583 155.834 C 324.395 154.455, 324.062 152.933, 318.713 147.280 C 316.674 145.126, 315.667 143.042, 315.667 140.982 C 315.667 137.491, 307.066 128, 303.903 128 C 302.936 128, 301.206 126.806, 300.059 125.347 C 298.911 123.888, 297.682 122.984, 297.328 123.339 C 296.202 124.464, 294.187 122, 294.683 120.104 C 295.066 118.638, 294.401 118.160, 291.284 117.661 C 289.031 117.301, 285.753 115.649, 283.454 113.716 C 275.050 106.647, 273.973 106.187, 264.985 105.833 C 260.318 105.649, 255.073 106.009, 253.251 106.640 M 345.881 107.777 C 347.171 110.188, 345.773 111.660, 342.678 111.150 C 340.947 110.865, 340.940 110.979, 342.546 113.430 C 343.923 115.532, 344.003 116.292, 342.976 117.529 C 341.516 119.288, 341.465 119.219, 345.841 121.446 C 349.003 123.055, 349.287 123.050, 351.147 121.367 C 352.758 119.909, 353.460 119.806, 355.042 120.794 C 358.012 122.649, 358.312 122.251, 356.211 119.250 C 355.152 117.737, 354.457 116.017, 354.667 115.427 C 354.877 114.837, 352.733 112.401, 349.902 110.014 C 346.658 107.279, 345.172 106.452, 345.881 107.777 M 285.559 111.485 C 286.626 112.301, 289.214 113.263, 291.308 113.622 C 293.991 114.081, 296.466 115.624, 299.682 118.840 C 302.193 121.351, 306.219 124.656, 308.630 126.184 C 311.040 127.713, 312.897 129.464, 312.756 130.075 C 312.523 131.087, 313.817 132.060, 318 134.017 C 318.998 134.485, 319.529 136.282, 319.586 139.393 C 319.655 143.163, 320.261 144.688, 322.716 147.283 C 328.616 153.519, 328.781 159, 323.068 159 C 319.170 159, 317 161.915, 317 167.152 C 317 178.303, 311.624 180.599, 303.310 173 C 295.340 165.716, 293.777 166.465, 292.495 178.180 C 291.794 184.592, 289.865 187.127, 287.166 185.185 C 286.250 184.525, 284.375 183.490, 283 182.885 C 281.625 182.280, 279.733 181.392, 278.796 180.913 C 277.761 180.383, 276.848 180.437, 276.468 181.051 C 275.464 182.677, 269.039 180.982, 262.417 177.343 C 259.071 175.504, 255.761 174, 255.061 174 C 254.361 174, 252.132 172.689, 250.108 171.086 C 246.832 168.491, 246.429 168.381, 246.429 170.086 C 246.429 171.139, 246.814 172, 247.285 172 C 251.916 172, 262 185.656, 262 191.928 C 262 197.879, 258.085 199.143, 252.572 194.972 C 250.411 193.337, 247.531 192, 246.172 192 C 243.914 192, 244.058 192.259, 247.841 195 C 250.119 196.650, 252.376 198, 252.856 198 C 253.337 198, 254.912 198.929, 256.355 200.065 C 257.799 201.201, 259.390 201.877, 259.890 201.568 C 260.390 201.259, 262.115 202.468, 263.724 204.253 C 265.334 206.039, 267.292 207.643, 268.075 207.818 C 270.829 208.433, 274.056 211.100, 273.377 212.198 C 272.939 212.907, 273.151 213.025, 273.961 212.524 C 274.756 212.032, 276.217 212.732, 277.866 214.394 C 279.315 215.855, 282.434 218.407, 284.797 220.065 C 289.169 223.133, 289.383 223.443, 290.427 228.218 C 290.946 230.590, 307 248.223, 307 246.421 C 307 244.693, 309.933 248.515, 312.498 253.584 C 314.830 258.193, 316.912 260.371, 323.970 265.587 C 328.713 269.091, 333.598 273.318, 334.827 274.979 C 337.121 278.083, 339.771 278.829, 341.687 276.913 C 342.418 276.182, 342.981 276.161, 343.406 276.848 C 344.061 277.907, 349 273.650, 349 272.027 C 349 269.942, 354.247 266.960, 355.738 268.198 C 356.905 269.166, 357.389 269.056, 358.177 267.647 C 358.719 266.680, 360.310 265.453, 361.713 264.919 C 364.620 263.814, 364.500 256.939, 361.494 252.350 C 357.849 246.787, 361.523 240.881, 366.196 244.793 C 367.691 246.044, 367.893 245.992, 367.899 244.356 C 367.903 243.335, 367.973 240.859, 368.053 238.853 C 368.134 236.847, 367.902 234.267, 367.538 233.119 C 367.068 231.639, 367.600 230.309, 369.373 228.536 C 370.747 227.162, 371.450 225.778, 370.935 225.460 C 369.382 224.500, 369.879 220.978, 371.985 218.021 C 373.971 215.232, 373.971 215.232, 371.745 212.403 C 369.368 209.381, 369.316 206.476, 371.593 203.921 C 373.519 201.760, 373.360 200.095, 370.835 196 C 366.319 188.676, 366.925 181.889, 371.952 183.485 C 374.948 184.436, 374.450 183.170, 367.388 171.886 C 358.337 157.425, 349.850 147.927, 343.092 144.696 C 340.373 143.396, 338.574 141.888, 338.683 141 C 338.951 138.797, 329.358 131.626, 320.880 127.692 C 316.821 125.808, 312.644 123.309, 311.599 122.138 C 309.400 119.675, 301.492 115.828, 291.575 112.396 C 283.457 109.587, 282.984 109.516, 285.559 111.485 M 322.457 113.931 C 322.774 114.443, 322.582 115.141, 322.030 115.481 C 320.775 116.257, 321.237 119.637, 322.814 121.214 C 323.466 121.866, 324 122.069, 324 121.665 C 324 121.260, 325.012 121.506, 326.250 122.210 C 327.488 122.914, 328.950 123.538, 329.500 123.596 C 331.641 123.822, 337.727 126.966, 339.007 128.508 C 339.748 129.401, 341.723 130.840, 343.397 131.705 C 346.106 133.106, 345.856 132.606, 341.114 127.132 C 338.094 123.645, 334.645 120.708, 333.145 120.344 C 331.690 119.992, 328.811 118.195, 326.747 116.352 C 323.073 113.070, 321.311 112.076, 322.457 113.931 M 389.107 121.121 C 395.139 127.924, 398.565 130.035, 393.874 124.059 C 392.568 122.395, 390.499 119.731, 389.276 118.140 C 388.053 116.549, 386.129 115.005, 385 114.710 C 383.578 114.338, 384.838 116.306, 389.107 121.121 M 370.306 118.999 C 368.926 122.657, 370.088 123.665, 372.550 120.945 C 374.145 119.182, 374.188 118.760, 372.901 117.472 C 371.614 116.185, 371.298 116.371, 370.306 118.999 M 377.525 119.921 C 377.171 121.036, 375.524 122.915, 373.864 124.097 C 371.686 125.647, 371.149 126.549, 371.936 127.336 C 372.722 128.122, 373.889 127.377, 376.127 124.662 C 379.155 120.989, 379.279 120.942, 381.260 122.699 C 383.238 124.453, 383.262 124.445, 382.200 122.418 C 380.235 118.668, 378.258 117.612, 377.525 119.921 M 351.947 125.564 C 351.103 126.581, 349.805 126.917, 348.240 126.524 C 345.457 125.826, 345.720 126.510, 350.409 132.155 C 353.232 135.555, 353.533 135.684, 354.717 133.994 C 355.882 132.330, 356.413 132.290, 361.053 133.514 C 364.795 134.501, 366.009 134.543, 365.705 133.675 C 365.478 133.029, 364.518 132.640, 363.572 132.811 C 360.355 133.392, 358.728 131.064, 360.481 128.389 C 361.834 126.323, 361.836 126.126, 360.496 126.640 C 359.665 126.959, 357.879 126.495, 356.527 125.610 C 353.518 123.638, 353.545 123.639, 351.947 125.564 M 385.285 126.135 C 383.118 128.325, 383.026 128.334, 381.013 126.512 C 379.108 124.788, 379.143 125.074, 381.477 130.353 C 382.865 133.490, 384 137.318, 384 138.859 C 384 140.400, 385.107 143.848, 386.460 146.521 C 390.025 153.563, 391.058 162.919, 390.762 185.494 C 390.594 198.321, 390.858 205.495, 391.500 205.509 C 394.334 205.570, 395.002 207.416, 395.044 215.309 C 395.068 219.814, 395.540 225.525, 396.094 228 C 396.648 230.475, 397.508 234.679, 398.005 237.343 C 398.502 240.006, 399.345 242.710, 399.878 243.352 C 400.410 243.994, 401.129 247.440, 401.475 251.010 C 401.821 254.579, 402.359 259.300, 402.669 261.500 C 402.980 263.700, 403.384 267.750, 403.566 270.500 C 403.748 273.250, 404.391 277.975, 404.996 281 C 405.600 284.025, 406.305 288.284, 406.562 290.465 C 406.820 292.646, 407.473 294.873, 408.015 295.415 C 408.557 295.957, 409.032 297.772, 409.070 299.450 C 409.109 301.127, 409.497 303.400, 409.933 304.500 C 411.906 309.477, 407.953 257.814, 405.439 245.765 C 404.666 242.061, 403.775 232.836, 403.457 225.265 C 403.140 217.694, 401.738 203.850, 400.342 194.500 C 396.554 169.130, 395.738 156.947, 397.685 154.796 C 398.542 153.849, 398.967 152.358, 398.631 151.481 C 398.295 150.605, 398.659 148.358, 399.440 146.489 C 400.767 143.313, 400.704 142.872, 398.474 139.795 C 397.161 137.983, 395.440 135.150, 394.648 133.500 C 393.857 131.850, 391.925 129.014, 390.355 127.198 C 387.500 123.896, 387.500 123.896, 385.285 126.135 M 334.109 130.642 C 334.874 131.570, 337.365 133.718, 339.644 135.415 C 341.924 137.112, 346.033 140.410, 348.777 142.745 C 353.766 146.990, 353.766 146.990, 351.740 141.491 C 350.168 137.223, 349.426 136.232, 348.424 137.063 C 347.039 138.212, 343.797 136.630, 339 132.464 C 335.618 129.527, 332.113 128.221, 334.109 130.642 M 369.531 133.314 C 370.281 137.310, 368.278 139.506, 364.798 138.503 C 358.024 136.552, 358.281 136.513, 360.680 139.126 C 364.701 143.506, 370.995 153.480, 371.013 155.500 C 371.059 160.707, 372.851 160.039, 373.536 154.560 C 374.433 147.376, 373.395 136.664, 371.433 132.871 C 369.470 129.075, 368.767 129.239, 369.531 133.314 M 356.021 142.327 C 357.291 145.722, 357.831 148.580, 357.338 149.292 C 356.784 150.091, 358.648 152.702, 362.841 157 C 367.759 162.041, 369.034 162.939, 368.523 161 C 368.161 159.625, 367.514 157.134, 367.086 155.464 C 366.221 152.090, 359.265 141.455, 355.981 138.482 C 353.867 136.570, 353.867 136.570, 356.021 142.327 M 377.710 159.521 C 377.001 166.388, 379.344 191.907, 380.961 194.927 C 381.633 196.182, 381.918 198.859, 381.612 201.042 C 381.304 203.247, 381.517 205.201, 382.105 205.565 C 382.674 205.917, 383.530 207.171, 384.007 208.352 C 384.781 210.272, 384.880 210.176, 384.937 207.450 C 384.971 205.772, 384.490 203.890, 383.867 203.267 C 383.198 202.598, 383.058 201.391, 383.526 200.317 C 385.140 196.611, 385.130 192.801, 383.502 191.002 C 382.426 189.813, 382.233 188.974, 382.935 188.540 C 384.352 187.664, 384.294 183.694, 382.842 182.242 C 382.058 181.458, 382.007 180.668, 382.684 179.792 C 383.233 179.082, 383.386 177.375, 383.023 176 C 382.656 174.611, 382.967 172.027, 383.722 170.185 C 384.891 167.333, 384.868 166.442, 383.557 163.813 C 382.718 162.132, 382.274 160.366, 382.570 159.888 C 383.112 159.010, 380.021 154.090, 378.890 154.031 C 378.554 154.014, 378.023 156.484, 377.710 159.521 M 400.746 165.531 C 400.948 169.364, 401.967 177.900, 403.008 184.500 C 404.050 191.100, 405.208 199.313, 405.581 202.750 C 406.075 207.312, 406.660 209, 407.746 209 C 408.847 209, 409.036 208.415, 408.474 206.750 C 408.057 205.512, 407.821 199.682, 407.950 193.793 C 408.163 184.020, 407.471 179.252, 405.002 173.500 C 404.530 172.400, 403.866 169.925, 403.527 168 C 402.045 159.594, 400.352 158.091, 400.746 165.531 M 370.806 165.609 C 369.218 167.210, 369.217 167.510, 370.792 170.408 C 372.473 173.500, 372.473 173.500, 372.804 170.736 C 373.444 165.396, 372.760 163.640, 370.806 165.609 M 182.935 176.141 C 178.584 178.088, 174.629 182.967, 172.493 189.019 C 171.643 191.429, 170.371 194.098, 169.667 194.950 C 164.533 201.164, 164.813 209.295, 170.072 206.699 C 181.152 201.228, 195.016 224.083, 186.886 234.418 C 185.723 235.896, 185.057 237.391, 185.406 237.740 C 186.104 238.438, 179.101 246, 177.757 246 C 176.717 246, 171.385 242.329, 167.853 239.182 C 164.853 236.509, 164.837 236.552, 163.489 251.074 C 162.313 263.736, 167.626 294.233, 173.588 309.054 C 175.015 312.599, 176.582 316.625, 177.070 318 C 177.716 319.819, 177.799 319.274, 177.373 316 C 177.052 313.525, 175.874 309.996, 174.756 308.158 C 171.873 303.417, 176.750 297.825, 181.905 299.961 C 183.587 300.657, 185.607 300.981, 186.392 300.680 C 188.758 299.772, 186.331 292.382, 182.793 289.719 C 173.958 283.068, 173.727 282.120, 179.125 274.669 C 180.706 272.486, 182 270.256, 182 269.713 C 182 269.170, 183.728 265.075, 185.839 260.613 C 189.678 252.502, 192.517 243.669, 195.520 230.500 C 198.686 216.612, 201.349 212.865, 210 210.120 C 214.125 208.811, 218.175 207.433, 219 207.056 C 219.825 206.680, 221.619 206.945, 222.986 207.646 C 224.353 208.346, 226.497 208.662, 227.749 208.348 C 229.001 208.034, 230.613 208.264, 231.331 208.860 C 232.284 209.650, 233.192 209.554, 234.694 208.502 C 237.625 206.449, 238.269 203.220, 235.897 202.467 C 233.479 201.700, 228.631 195.407, 229.444 194.091 C 230.370 192.592, 222.232 184.961, 215.483 181 C 204.846 174.757, 190.735 172.650, 182.935 176.141 M 167 180.300 C 167 181.565, 166.569 183.031, 166.042 183.558 C 165.515 184.085, 165.445 185.102, 165.888 185.818 C 166.485 186.786, 167.133 186.446, 168.413 184.493 C 169.655 182.598, 169.839 181.511, 169.076 180.591 C 168.494 179.890, 168.313 179.020, 168.675 178.658 C 169.037 178.296, 168.808 178, 168.167 178 C 167.525 178, 167 179.035, 167 180.300 M 233 194.845 C 233 195.310, 233.787 196.366, 234.750 197.193 C 238.185 200.143, 238.964 200.099, 237.230 197.053 C 235.634 194.248, 233 192.873, 233 194.845 M 240.858 201.329 C 244.202 205.358, 235.153 215.750, 231 212.650 C 230.175 212.034, 231.401 213.425, 233.725 215.740 C 236.049 218.055, 239.068 220.230, 240.434 220.573 C 241.800 220.916, 243.442 221.827, 244.081 222.598 C 245.408 224.197, 247.443 224.526, 246.492 222.987 C 246.148 222.430, 246.576 220.552, 247.443 218.813 C 248.921 215.852, 248.889 215.399, 246.942 211.665 C 245.713 209.307, 245.096 206.752, 245.433 205.412 C 245.886 203.604, 245.375 202.835, 242.900 201.600 C 240.830 200.567, 240.151 200.477, 240.858 201.329 M 257.894 207.671 C 264.973 216.470, 264.397 226.406, 256.441 232.754 C 253.653 234.979, 253.316 235.702, 254.104 237.774 C 254.885 239.827, 254.402 240.937, 250.919 245.097 C 246.341 250.564, 245.566 250.879, 243.768 248 C 242.190 245.473, 240.816 245.464, 239.251 247.970 C 235.984 253.201, 245.237 252.724, 251.253 247.352 C 255.391 243.656, 256.515 243.462, 263.907 245.168 C 271.477 246.915, 273.539 249.524, 271.037 254.192 C 269.976 256.171, 269.164 258.625, 269.232 259.645 C 269.299 260.665, 268.308 263.750, 267.029 266.500 C 265.750 269.250, 264.573 272.149, 264.412 272.941 C 263.441 277.743, 262.580 279.640, 259.806 283.092 C 257.367 286.127, 256.955 287.241, 257.867 288.340 C 258.957 289.653, 257.085 292.747, 255.908 291.577 C 255.684 291.354, 255.447 292.596, 255.383 294.336 C 255.240 298.196, 252.044 303.553, 245.773 310.448 C 242.392 314.165, 240.881 316.764, 240.468 319.573 C 239.918 323.307, 238.522 328.740, 237.274 332 C 236.958 332.825, 236.531 334.376, 236.326 335.448 C 235.903 337.650, 232.940 341.273, 232.181 340.515 C 231.908 340.241, 231.171 340.443, 230.544 340.964 C 227.583 343.421, 222.382 342.447, 217.620 338.545 C 212.931 334.702, 212.931 334.702, 214.981 332.520 C 217.031 330.338, 217.031 330.338, 215.016 328.514 C 212.309 326.065, 212.478 323.774, 215.640 320.016 C 217.570 317.722, 217.982 316.582, 217.172 315.772 C 215.759 314.359, 209.126 312.035, 206.450 312.015 C 205.322 312.007, 203.972 311.588, 203.450 311.084 C 202.927 310.580, 200.708 309.891, 198.519 309.553 C 196.329 309.214, 194.146 308.546, 193.668 308.068 C 193.189 307.589, 191.524 307.563, 189.968 308.009 C 188.412 308.455, 185.532 308.458, 183.569 308.016 C 179.316 307.056, 179.277 307.186, 182.535 311.457 C 184.333 313.814, 186.420 315.120, 189.714 315.950 C 199.172 318.331, 201.310 321.599, 196.737 326.686 C 194.771 328.873, 194.771 328.873, 203.334 332.921 C 213.643 337.796, 219.599 342.573, 217.908 344.611 C 217.284 345.363, 216.405 345.751, 215.956 345.473 C 214.968 344.862, 213.670 346.778, 213.253 349.464 C 213.085 350.544, 211.947 352.507, 210.724 353.826 C 208.500 356.224, 208.500 356.224, 215 355.489 C 218.575 355.084, 223.884 354.133, 226.799 353.376 C 233.684 351.588, 235.946 351.641, 238.157 353.642 C 239.315 354.690, 242.059 355.366, 245.742 355.509 C 250.200 355.684, 252.600 356.424, 256.290 358.765 C 259.163 360.587, 261.854 361.589, 263.039 361.279 C 264.124 360.996, 265.577 361.234, 266.270 361.809 C 267.177 362.562, 269.258 362.051, 273.711 359.980 C 277.110 358.400, 281.828 356.611, 284.196 356.006 C 290.418 354.416, 294 352.892, 294 351.833 C 294 351.325, 295.152 349.757, 296.561 348.348 C 299.726 345.183, 298.887 343.818, 295.647 346.862 C 292.090 350.203, 283.518 350.355, 280.900 347.124 C 276.193 341.314, 277 339.505, 288.065 331.069 C 291.767 328.246, 294.601 322.429, 293.135 320.663 C 291.944 319.227, 291.934 317.993, 293.095 315.822 C 294.076 313.989, 289.559 307.537, 287.977 308.514 C 287.515 308.800, 286.483 308.099, 285.683 306.958 C 284.609 305.425, 282.477 304.634, 277.535 303.934 C 260.331 301.497, 258.938 293.840, 271.059 268.332 C 274.850 260.355, 275.438 256.944, 274.951 245.752 C 274.885 244.230, 271.748 241.638, 269.846 241.535 C 269.487 241.516, 267.276 239.323, 264.933 236.661 C 260.805 231.972, 260.721 231.740, 262.201 229.161 C 263.042 227.698, 264.013 223.645, 264.359 220.156 C 264.989 213.813, 264.989 213.813, 259.362 208.156 C 253.734 202.500, 253.734 202.500, 257.894 207.671 M 411.886 204.684 C 412.499 205.886, 413.029 207.911, 413.063 209.184 C 413.127 211.500, 413.127 211.500, 414.100 209.064 C 414.889 207.089, 414.667 206.238, 412.923 204.564 C 410.773 202.500, 410.773 202.500, 411.886 204.684 M 249.331 205.580 C 248.998 206.448, 249.748 209.208, 250.999 211.713 C 253.156 216.030, 253.188 216.411, 251.634 219.043 C 250.732 220.570, 250.275 222.552, 250.618 223.447 C 250.962 224.343, 250.511 225.883, 249.614 226.874 C 248.095 228.553, 248.152 228.748, 250.481 229.810 C 259.027 233.703, 261.974 217.686, 254.410 208.455 C 250.314 203.456, 250.176 203.378, 249.331 205.580 M 171.309 210.091 C 170.753 210.647, 169.363 211.172, 168.220 211.258 C 166.292 211.404, 166.371 211.676, 169.321 215.044 C 171.070 217.040, 172.950 218.409, 173.500 218.086 C 174.050 217.764, 176.466 217.050, 178.870 216.500 C 183.239 215.500, 183.239 215.500, 181.370 213.206 C 180.341 211.944, 178.356 210.791, 176.958 210.643 C 175.559 210.496, 173.944 210.083, 173.368 209.727 C 172.792 209.371, 171.865 209.535, 171.309 210.091 M 389 214.500 C 389 217.324, 389.388 218.878, 390 218.500 C 390.550 218.160, 391 216.360, 391 214.500 C 391 212.640, 390.550 210.840, 390 210.500 C 389.388 210.122, 389 211.676, 389 214.500 M 217 212.251 C 215.075 212.762, 211.525 213.702, 209.110 214.340 C 204.089 215.667, 202.186 218.919, 199.431 230.887 C 195.634 247.379, 191.951 257.536, 184.097 273.171 C 182.253 276.842, 182.253 276.842, 184.542 275.799 C 185.800 275.226, 187.085 274.024, 187.396 273.128 C 189.962 265.746, 197.006 256.423, 200.527 255.750 C 202.911 255.294, 208.045 259.539, 209.297 263 C 209.595 263.825, 209.590 259.894, 209.285 254.265 C 208.912 247.379, 209.099 243.585, 209.857 242.673 C 210.476 241.926, 210.744 241.077, 210.451 240.785 C 210.159 240.492, 212.210 238.336, 215.009 235.993 C 220.097 231.732, 220.097 231.732, 218.049 229.553 C 216.002 227.373, 216.002 227.373, 218.751 224.769 C 223.033 220.714, 230.090 220.028, 232.749 223.408 C 234.840 226.066, 237.403 226.776, 238.500 225 C 238.840 224.450, 238.564 224, 237.888 224 C 237.211 224, 234.709 221.967, 232.329 219.482 C 229.948 216.998, 228 215.268, 228 215.637 C 228 216.007, 227.213 215.623, 226.250 214.783 C 222.976 211.927, 220.633 211.286, 217 212.251 M 267.820 212.582 C 269.200 215.266, 268.222 225.770, 266.307 228.831 C 264.778 231.274, 265.162 234, 267.036 234 C 268.763 234, 279.068 244.370, 278.589 245.626 C 278.352 246.245, 278.767 247.925, 279.511 249.359 C 280.302 250.883, 280.477 252.205, 279.932 252.542 C 279.419 252.859, 279 254.675, 279 256.579 C 279 258.534, 277.298 263.621, 275.089 268.270 C 268.665 281.788, 266.008 290.461, 267.442 293.226 C 268.106 294.506, 268.475 296.074, 268.263 296.712 C 267.848 297.956, 273.871 299.985, 278.007 299.994 C 284.841 300.010, 289.642 302.920, 295.110 310.364 C 297.505 313.625, 297.770 314.562, 296.805 316.364 C 295.598 318.619, 295.614 318.830, 297.119 320.644 C 299.631 323.670, 292.139 333.705, 284.250 337.880 C 281.630 339.266, 281.328 342.185, 283.572 344.429 C 285.592 346.449, 292.623 345.535, 295.564 342.870 C 299.155 339.618, 303.707 342.523, 302.762 347.465 C 302.177 350.523, 302.080 350.517, 310.085 347.914 C 317.195 345.602, 319.679 344, 316.155 344 C 314.920 344, 312.754 342.845, 311.343 341.434 C 308.776 338.867, 308.776 338.867, 310.982 336.519 C 313.184 334.176, 313.184 334.169, 311.155 333.083 C 309.964 332.445, 308.887 332.373, 308.557 332.908 C 307.930 333.922, 306.126 333.835, 304.318 332.705 C 303.426 332.147, 303.485 331.297, 304.562 329.233 C 305.346 327.730, 305.990 325.915, 305.994 325.200 C 306.005 322.836, 308.985 318.078, 311.196 316.895 C 315.713 314.478, 322.358 327.807, 317.984 330.510 C 316.333 331.530, 317.738 332.728, 321.388 333.413 C 327.557 334.570, 327.940 339.592, 322.120 342.993 C 318.958 344.840, 323.256 344.085, 328.666 341.843 C 333.870 339.686, 333.870 339.686, 331.435 337.770 C 329.965 336.614, 329 334.819, 329 333.242 C 329 331.805, 328.047 329.615, 326.883 328.376 C 325.338 326.731, 324.763 324.823, 324.754 321.311 C 324.744 317.600, 324.181 315.897, 322.289 313.860 C 320.940 312.408, 319.410 309.321, 318.888 306.999 C 317.760 301.978, 318.336 301.060, 325.500 296.454 C 335.450 290.057, 338.183 282.855, 332.779 277.274 C 329.730 274.126, 329.621 274.097, 328.259 276.041 C 327.491 277.137, 326.414 277.756, 325.865 277.417 C 325.316 277.077, 324.283 277.599, 323.568 278.575 C 321.853 280.921, 318.394 281.093, 316.436 278.929 C 314.987 277.328, 315.143 276.971, 318.432 274.347 C 323.128 270.600, 323.021 270.116, 316.015 263.433 C 312.723 260.293, 309.483 256.211, 308.814 254.362 C 307.621 251.062, 307.020 250.632, 303.992 250.907 C 302.300 251.060, 291.437 239.230, 292.393 238.274 C 293.195 237.471, 290.033 234, 288.500 234 C 286.854 234, 283.765 230.418, 283.559 228.272 C 283.283 225.391, 280.779 221, 279.412 221 C 278.715 221, 277.212 219.814, 276.073 218.365 C 274.933 216.916, 274 216.104, 274 216.561 C 274 217.018, 272.369 215.842, 270.375 213.946 C 267.996 211.685, 267.117 211.216, 267.820 212.582 M 383.852 214 C 383.511 215.925, 383.606 222.900, 384.063 229.500 C 384.519 236.100, 385.365 249.375, 385.941 259 C 386.518 268.625, 387.292 278.525, 387.663 281 C 388.033 283.475, 388.217 291.645, 388.071 299.156 C 387.721 317.210, 389.841 345.623, 391.650 347.124 C 393.162 348.380, 393.400 347.008, 393.068 338.922 C 392.837 333.269, 394.924 330.847, 398.242 332.919 C 400.322 334.218, 400.322 334.218, 399.674 319.359 C 398.780 298.864, 397.859 288.969, 396.899 289.562 C 396.453 289.838, 396.309 290.641, 396.579 291.345 C 397.684 294.224, 393.526 296.246, 390.893 294.111 C 388.500 292.170, 388.500 292.170, 390.897 289.614 C 392.651 287.744, 393.012 286.715, 392.246 285.779 C 391.114 284.398, 388.952 271.955, 389.642 270.796 C 389.873 270.408, 389.122 263.548, 387.974 255.550 C 386.825 247.553, 385.568 234.145, 385.179 225.755 C 384.753 216.563, 384.226 211.891, 383.852 214 M 159.325 212.658 C 159.687 213.020, 159.493 213.905, 158.895 214.626 C 158.092 215.595, 158.401 217.248, 160.082 220.968 C 162.511 226.341, 163.418 227.038, 164.354 224.250 C 164.678 223.287, 165.486 221.759, 166.151 220.853 C 167.242 219.367, 161.452 212, 159.193 212 C 158.904 212, 158.963 212.296, 159.325 212.658 M 407.729 214.929 C 407.418 216.116, 407.578 218.527, 408.082 220.287 C 408.587 222.047, 409 224.902, 409 226.633 C 409 228.363, 409.913 230.841, 411.029 232.139 C 413.058 234.500, 413.058 234.500, 412.451 230.500 C 412.118 228.300, 411.518 224.250, 411.119 221.500 C 410.164 214.926, 408.548 211.795, 407.729 214.929 M 169.011 224.979 C 167.397 227.995, 168.746 231.466, 172.011 232.698 C 174.905 233.790, 174.905 233.790, 172.824 230.976 C 171.366 229.004, 170.937 227.388, 171.390 225.580 C 172.157 222.526, 170.542 222.118, 169.011 224.979 M 417.161 229.070 C 417.615 232.390, 418.478 236.024, 419.077 237.145 C 420.871 240.496, 421.507 253.684, 419.964 255.543 C 417.795 258.157, 418.323 268.620, 421.199 280 C 422.659 285.775, 424.600 294.100, 425.512 298.500 C 426.424 302.900, 427.825 309.650, 428.626 313.500 C 430.210 321.123, 432.484 336.599, 433.988 350 C 434.513 354.675, 435.393 360.750, 435.945 363.500 C 437.884 373.173, 439.925 386.579, 440.589 394 C 441.298 401.939, 442.059 404.190, 445.198 407.642 C 447.130 409.767, 447.130 409.796, 445.111 411.210 C 443.480 412.352, 443.229 413.211, 443.849 415.528 C 444.347 417.391, 444.889 417.989, 445.370 417.210 C 445.782 416.544, 445.880 415.615, 445.590 415.145 C 445.299 414.675, 446.201 413.220, 447.594 411.911 C 450.005 409.647, 450.095 409.170, 449.477 402.016 C 448.616 392.040, 448.070 388.792, 447.045 387.541 C 446.576 386.968, 446.221 383.746, 446.256 380.379 C 446.305 375.665, 445.830 373.570, 444.190 371.266 C 443.018 369.621, 442.335 367.998, 442.672 367.661 C 443.009 367.324, 442.836 366.475, 442.287 365.774 C 440.046 362.913, 440.150 359.937, 442.586 357.209 C 445.006 354.500, 445.006 354.500, 447.144 357 C 449.281 359.500, 449.281 359.500, 448.557 355.545 C 447.910 352.012, 443 344.342, 443 346.864 C 443 347.424, 443.450 348.160, 444 348.500 C 445.446 349.393, 445.228 352.566, 443.630 353.892 C 441.948 355.288, 437.128 349.517, 436.390 345.224 C 436.132 343.726, 435.632 341.600, 435.278 340.500 C 434.923 339.400, 434.546 336.475, 434.439 334 C 434.332 331.525, 434.138 329.275, 434.007 329 C 433.876 328.725, 433.665 328.050, 433.537 327.500 C 433.409 326.950, 433.175 326.050, 433.016 325.500 C 432.206 322.696, 432.358 317.237, 433.302 315.220 C 434.143 313.426, 434.022 312.593, 432.734 311.306 C 431.220 309.792, 431.250 309.458, 433.133 306.813 C 435.470 303.532, 435.089 298.706, 431.908 291.286 C 430.892 288.914, 430.034 286.868, 430.002 286.737 C 429.157 283.300, 428.404 282.195, 425.945 280.783 C 422.926 279.051, 421.845 274.832, 424.068 273.458 C 424.656 273.095, 424.900 272.183, 424.612 271.431 C 424.323 270.679, 424.518 269.798, 425.044 269.473 C 426.538 268.550, 426.167 265.384, 424.393 263.911 C 423.126 262.860, 422.924 261.512, 423.438 257.539 C 423.797 254.767, 424.075 251.375, 424.057 250 C 424.039 248.625, 423.973 242.453, 423.911 236.285 C 423.808 226.051, 423.625 225.016, 421.824 224.444 C 420.738 224.099, 419.587 224.080, 419.267 224.400 C 418.946 224.720, 418.156 224.544, 417.510 224.008 C 416.618 223.268, 416.534 224.487, 417.161 229.070 M 220.485 227.025 C 220.136 227.588, 220.377 227.926, 221.019 227.775 C 223.900 227.097, 224.335 230.694, 221.785 234.111 C 219.012 237.826, 219.140 239.607, 222.370 242.228 C 225.945 245.128, 228.482 244.527, 228.609 240.750 C 228.668 238.963, 229.058 236.488, 229.475 235.250 C 230.037 233.582, 229.847 233, 228.739 233 C 226.797 233, 224.929 230.707, 224.731 228.080 C 224.567 225.903, 221.629 225.173, 220.485 227.025 M 373.798 229.345 C 371.421 231.241, 371.191 231.920, 371.879 235 C 372.309 236.925, 372.333 239.709, 371.934 241.187 C 371.534 242.664, 371.434 244.101, 371.712 244.379 C 371.991 244.657, 371.220 246.286, 370.001 247.999 C 367.885 250.970, 367.696 251.035, 365.891 249.402 C 363.484 247.223, 363.392 249.143, 365.733 252.716 C 369.197 258.002, 367.344 271.113, 363.350 269.581 C 362.619 269.300, 360.856 270.235, 359.433 271.658 C 357.519 273.572, 356.553 273.953, 355.723 273.123 C 354.163 271.563, 353 271.721, 353 273.492 C 353 274.312, 352.100 275.545, 351 276.232 C 349.900 276.919, 349 278.218, 349 279.118 C 349 281.848, 346.166 283.585, 343.958 282.206 C 341.032 280.379, 339.264 281.752, 338.569 286.391 C 338.024 290.023, 337.124 291.295, 332.428 295.073 C 321.279 304.042, 321.993 303.156, 322.825 307 C 323.241 308.925, 324.014 310.353, 324.541 310.173 C 325.068 309.993, 325.768 310.443, 326.095 311.173 C 326.422 311.903, 327.141 313.400, 327.693 314.500 C 328.246 315.600, 328.696 318.358, 328.695 320.630 C 328.693 323.258, 329.475 325.859, 330.846 327.784 C 332.031 329.448, 333 331.682, 333 332.749 C 333 336.168, 336.497 338.448, 339.724 337.134 C 343.259 335.696, 354.366 333.799, 359.250 333.800 C 363.099 333.800, 363.783 333.183, 361.958 331.358 C 358.310 327.710, 370.560 325.299, 374.402 328.908 C 377.538 331.854, 380.112 329.447, 378.016 325.530 C 377.007 323.644, 376.978 322.145, 377.882 318.555 C 378.515 316.039, 378.743 312.826, 378.389 311.414 C 378.028 309.975, 378.306 307.796, 379.023 306.457 C 379.938 304.747, 379.998 303.703, 379.233 302.781 C 378.505 301.903, 378.449 298.969, 379.057 293.547 C 379.771 287.180, 379.669 285.291, 378.543 284.048 C 377.771 283.195, 376.578 281.147, 375.891 279.498 C 374.755 276.769, 374.609 276.695, 374.261 278.677 C 373.632 282.271, 371.585 283.296, 369.097 281.265 C 366.189 278.891, 368.645 270.685, 373.014 268.177 C 375.245 266.897, 375.778 265.851, 375.882 262.552 C 375.998 258.868, 376.608 254.500, 377.007 254.500 C 377.095 254.500, 377.371 252.250, 377.622 249.500 C 377.872 246.750, 378.549 243.299, 379.126 241.831 C 380.178 239.156, 378.731 228.570, 377.182 227.613 C 376.806 227.380, 375.284 228.160, 373.798 229.345 M 241.851 235.723 C 243.829 239.418, 237.298 242.898, 234.200 239.800 C 233.336 238.936, 233 238.919, 233 239.741 C 233 241.569, 235.001 242.317, 239.704 242.246 C 242.890 242.197, 244.402 242.670, 245.213 243.970 C 246.249 245.629, 246.502 245.557, 248.672 242.978 C 251.405 239.730, 250.920 237.531, 247.170 236.172 C 245.701 235.640, 243.660 234.865, 242.634 234.451 C 241.008 233.794, 240.907 233.958, 241.851 235.723 M 213.606 242.828 C 212.042 245.358, 213.788 275.653, 215.748 280 C 217.127 283.059, 217.800 286.742, 217.849 291.500 C 217.916 297.911, 218.156 298.688, 220.701 300.729 C 223.480 302.958, 223.480 302.958, 228.521 297.979 C 231.294 295.240, 234.016 293, 234.569 293 C 237.246 293, 242.221 287.339, 242.496 283.980 C 242.653 282.066, 242.883 280.275, 243.009 280 C 243.134 279.725, 243.205 279.226, 243.166 278.892 C 243.127 278.557, 244.423 277.011, 246.047 275.455 C 250.766 270.934, 249.466 270.593, 243.714 274.842 C 237.165 279.680, 233.707 280.513, 228.216 278.576 C 225.897 277.758, 224 277.349, 224 277.667 C 224 277.985, 223.334 277.693, 222.521 277.017 C 221.397 276.084, 221.295 275.317, 222.098 273.817 C 223.580 271.048, 222.450 268.799, 219.754 269.147 C 216.812 269.527, 215 268.338, 215 266.026 C 215 263.055, 224.047 257, 228.488 257 C 232.207 257, 232.207 257, 229.082 253.440 C 227.362 251.482, 226.217 249.457, 226.537 248.940 C 226.857 248.423, 226.247 248, 225.181 248 C 224.116 248, 222.692 247.334, 222.017 246.521 C 219.844 243.902, 214.415 241.519, 213.606 242.828 M 411 242.690 C 411 243.240, 411.900 244.505, 413 245.500 C 414.241 246.623, 415 248.580, 415 250.655 C 415 252.495, 415.450 254, 416 254 C 416.550 254, 417 251.975, 417 249.500 C 417 246.728, 416.550 245, 415.829 245 C 415.185 245, 413.835 244.255, 412.829 243.345 C 411.823 242.435, 411 242.140, 411 242.690 M 231.283 247.919 C 229.815 250.269, 232.984 255, 236.026 255 C 237.060 255, 239.064 255.528, 240.480 256.173 C 242.476 257.082, 243.329 257.069, 244.277 256.114 C 245.243 255.140, 245.151 255.014, 243.840 255.513 C 240.757 256.686, 231.405 250.104, 233.935 248.540 C 235.400 247.634, 235.275 246, 233.741 246 C 233.048 246, 231.942 246.863, 231.283 247.919 M 394.673 252 C 395.594 261.613, 396.860 263.819, 396.937 255.941 C 396.978 251.621, 396.497 248.720, 395.526 247.441 C 394.195 245.689, 394.112 246.133, 394.673 252 M 252.077 250.589 C 248.628 253.490, 248.134 254.963, 250.750 254.540 C 254.662 253.907, 256.776 260.281, 253.544 262.963 C 252.489 263.839, 252.231 265.491, 252.607 268.973 C 253.089 273.444, 252.916 273.924, 250.081 275.942 C 248.407 277.135, 247.082 278.423, 247.137 278.805 C 247.192 279.187, 247.134 279.725, 247.009 280 C 246.883 280.275, 246.656 282.004, 246.503 283.843 C 246.313 286.129, 245.004 288.451, 242.362 291.192 C 237.234 296.511, 224.438 307, 223.078 307 C 220.369 307, 214 298.761, 214 295.257 C 214 292.557, 213.712 291.994, 212.742 292.799 C 208.557 296.273, 195.739 299.206, 193.031 297.309 C 191.179 296.012, 191.024 296.084, 191.142 298.198 C 191.213 299.464, 190.907 301.366, 190.462 302.424 C 189.829 303.927, 189.991 304.217, 191.205 303.752 C 192.058 303.424, 193.157 303.557, 193.647 304.047 C 194.137 304.537, 196.329 305.214, 198.519 305.553 C 200.708 305.891, 202.928 306.580, 203.450 307.084 C 203.973 307.588, 205.323 308.007, 206.450 308.015 C 216.197 308.087, 223.784 315.092, 219.556 320.116 C 216.474 323.778, 216.426 324.455, 219.015 327.747 C 220.825 330.047, 220.876 330.480, 219.517 331.981 C 217.263 334.472, 221.814 338.599, 226.312 338.142 C 229.315 337.837, 233.064 335.520, 232.802 334.131 C 232.736 333.784, 232.945 332.825, 233.265 332 C 234.594 328.579, 235.944 323.227, 236.530 319.058 C 237 315.709, 238.068 313.730, 240.869 311.011 C 247.702 304.380, 251.259 298.090, 251.530 292.157 C 251.741 287.558, 252.268 286.306, 255.320 283.157 C 258.478 279.899, 259.365 278.121, 260.412 272.941 C 260.573 272.149, 261.750 269.250, 263.029 266.500 C 264.308 263.750, 265.299 260.665, 265.232 259.645 C 265.164 258.625, 265.987 256.151, 267.060 254.148 C 269.012 250.506, 269.012 250.506, 264.256 249.272 C 257.384 247.490, 255.521 247.691, 252.077 250.589 M 380.034 259.500 C 379.912 261.150, 379.742 264.026, 379.656 265.891 C 379.505 269.173, 378.744 270.016, 374.500 271.604 C 372.582 272.321, 372.592 272.368, 374.741 272.744 C 375.974 272.960, 377.598 274.016, 378.351 275.090 C 379.497 276.727, 379.906 276.819, 380.872 275.655 C 381.759 274.585, 381.670 273.971, 380.487 272.989 C 379.108 271.844, 379.118 271.527, 380.594 269.896 C 381.987 268.357, 382.087 267.193, 381.248 262.289 C 380.547 258.196, 380.192 257.379, 380.034 259.500 M 195.533 265.521 C 193.997 268.558, 192.348 271.285, 191.870 271.580 C 191.391 271.876, 191 273.007, 191 274.093 C 191 275.292, 189.616 276.884, 187.474 278.148 C 183.471 280.510, 181.398 283.510, 183.060 284.537 C 183.646 284.900, 184.921 284.477, 185.892 283.598 C 188.058 281.638, 191.674 281.599, 195 283.500 C 196.375 284.286, 198.668 284.945, 200.095 284.965 C 201.522 284.984, 203.460 285.851, 204.402 286.891 C 206.549 289.265, 201.829 293.270, 197.241 292.968 C 193.207 292.703, 192.342 292.931, 193.821 293.868 C 195.317 294.817, 200.270 293.924, 207.250 291.448 C 213.022 289.400, 213.312 287.530, 209.449 277.273 C 208.047 273.548, 206.447 268.486, 205.895 266.025 C 204.050 257.804, 199.549 257.585, 195.533 265.521 M 228.610 260.819 C 226.470 260.994, 223.653 261.836, 222.350 262.690 C 219.980 264.243, 219.980 264.243, 223.240 265.872 C 225.922 267.211, 226.498 268.076, 226.490 270.752 C 226.471 276.598, 235.119 277.532, 240.834 272.301 C 242.300 270.959, 244.248 269.180, 245.162 268.348 C 246.923 266.746, 248.469 262.136, 247.554 261.220 C 246.936 260.603, 234.472 260.338, 228.610 260.819 M 430.318 268.919 C 430.421 271.422, 431.042 273.517, 431.750 273.752 C 433.403 274.300, 433.332 272.010, 431.568 267.865 C 430.135 264.500, 430.135 264.500, 430.318 268.919 M 188 286.981 C 188 288.020, 190.863 288.782, 195 288.843 C 197.500 288.880, 197.500 288.880, 195 287.476 C 192.097 285.844, 188 285.555, 188 286.981 M 416.744 292.750 C 415.568 294.063, 415.267 296.123, 415.538 301 C 416.084 310.847, 417.926 327.072, 418.627 328.206 C 418.969 328.758, 419.445 330.851, 419.686 332.855 C 419.927 334.860, 420.723 338.975, 421.454 342 C 422.186 345.025, 423.101 349.525, 423.488 352 C 423.875 354.475, 424.891 357.599, 425.745 358.941 C 426.598 360.284, 427.698 362.984, 428.188 364.941 C 429.707 371.008, 429.843 371.500, 430 371.500 C 430.248 371.500, 430.893 374.142, 432.073 380 C 433.331 386.246, 434.923 389.824, 434.964 386.500 C 434.978 385.400, 434.567 382.925, 434.050 381 C 432.762 376.194, 429.145 352.141, 427.434 337 C 425.860 323.067, 421.367 300.147, 419.852 298.322 C 419.312 297.671, 418.831 295.757, 418.783 294.069 C 418.680 290.467, 418.748 290.510, 416.744 292.750 M 404.125 308.857 C 404.021 319.958, 404.238 322.123, 405.406 321.674 C 407.893 320.720, 409.717 324.304, 410.899 332.465 C 411.533 336.846, 412.782 341.545, 413.675 342.907 C 414.568 344.270, 415.635 348.111, 416.047 351.442 C 417.847 365.999, 421.099 383.106, 423.472 390.500 C 426.085 398.643, 427.951 411.814, 427.983 422.333 C 427.995 426.551, 428.346 428.051, 429.250 427.748 C 430.119 427.457, 430.518 424.612, 430.560 418.415 C 430.593 413.512, 431.146 408.535, 431.789 407.355 C 432.725 405.638, 432.663 404.965, 431.479 403.983 C 430.648 403.293, 430 401.089, 430 398.954 C 430 396.327, 429.203 394.206, 427.418 392.084 C 424.839 389.019, 417.571 356.286, 413.481 329.315 C 413.034 326.370, 412.096 324.638, 410.316 323.471 C 408.535 322.304, 408.100 321.500, 408.846 320.754 C 409.592 320.008, 409.148 318.402, 407.345 315.326 C 405.484 312.150, 404.930 310.077, 405.316 307.729 C 405.609 305.953, 405.488 302.475, 405.049 300 C 404.448 296.613, 404.219 298.803, 404.125 308.857 M 409 309.109 C 409 310.489, 409.696 312.491, 410.547 313.559 C 412 315.382, 412.054 315.287, 411.442 312 C 410.621 307.599, 409 305.679, 409 309.109 M 443.334 308.427 C 444.035 310.256, 441.487 312.401, 439.513 311.643 C 438.488 311.250, 438 311.679, 438 312.972 C 438 314.023, 437.550 315.160, 437 315.500 C 435.389 316.496, 435.804 319.289, 437.468 318.651 C 438.275 318.341, 439.215 318.540, 439.557 319.092 C 441.184 321.725, 446.630 312.560, 445.519 309.059 C 445.159 307.926, 444.397 307, 443.826 307 C 443.254 307, 443.032 307.642, 443.334 308.427 M 381.975 318.565 C 380.680 321.971, 380.735 322.535, 382.500 324 C 383.797 325.076, 384 324.618, 384 320.622 C 384 315.412, 383.404 314.806, 381.975 318.565 M 184.489 324.945 C 186.945 327.712, 189.719 329.264, 190.359 328.229 C 190.623 327.801, 188.963 326.384, 186.669 325.078 C 182.502 322.705, 182.501 322.705, 184.489 324.945 M 180.432 327 C 180.819 328.375, 181.578 331.280, 182.119 333.455 C 183.835 340.356, 186.857 344.496, 192.577 347.782 C 198.587 351.234, 198.870 351.088, 199.544 344.207 C 200.090 338.642, 199.332 337.611, 192 333.940 C 189.525 332.701, 185.751 330.070, 183.614 328.094 C 179.974 324.728, 179.772 324.658, 180.432 327 M 203.011 338.020 C 205.056 341.841, 205.084 344.923, 203.111 349.006 C 201.181 353, 201.181 353, 203.841 352.985 C 207.613 352.963, 209.250 351.632, 209.250 348.588 C 209.250 347.021, 210.189 345.210, 211.561 344.131 C 213.871 342.314, 213.871 342.314, 207.864 339.089 C 202.424 336.169, 201.966 336.068, 203.011 338.020 M 318.131 338.342 C 317.519 339.080, 317.298 339.964, 317.640 340.307 C 318.453 341.120, 322 339.215, 322 337.965 C 322 336.541, 319.417 336.793, 318.131 338.342 M 343.500 341.373 C 338.903 342.310, 338.036 342.741, 339.793 343.216 C 341.055 343.557, 343.486 343.434, 345.197 342.943 C 355.394 340.019, 364.257 342.102, 366.606 347.974 C 367.492 350.188, 368.648 352, 369.174 352 C 370.949 352, 374.060 349.907, 373.539 349.063 C 373.255 348.603, 373.703 347.662, 374.534 346.971 C 375.839 345.888, 375.529 345.363, 372.273 343.141 C 367.800 340.088, 353.968 339.238, 343.500 341.373 M 407.845 345 C 407.275 350.352, 412.133 370.201, 413.643 368.690 C 414.352 367.981, 410.886 347.742, 409.500 344.500 C 408.218 341.500, 408.218 341.500, 407.845 345 M 354.500 345.726 C 342.914 346.845, 342.996 346.806, 344.825 350.300 C 345.746 352.060, 346.547 353.622, 346.605 353.772 C 346.718 354.063, 360.597 352.007, 362.864 351.363 C 367.092 350.161, 359.758 345.218, 354.500 345.726 M 336 350.243 C 334.625 350.857, 329.900 351.665, 325.500 352.039 C 307.831 353.539, 281.508 360.223, 269.500 366.258 C 258.290 371.892, 256.860 372.196, 252.852 369.792 C 249.500 367.782, 249.500 367.782, 252.250 370.696 C 255.851 374.511, 255.805 374.726, 250.250 380.030 C 240.130 389.694, 233.579 400.231, 231.463 410.250 C 229.825 418, 230.355 417.761, 243.315 404.903 C 253.915 394.386, 262.022 388.498, 271.104 384.722 C 273.086 383.898, 276.641 381.824, 279.004 380.112 C 281.367 378.400, 283.796 377, 284.403 377 C 285.010 377, 287.651 375.475, 290.271 373.612 C 294.942 370.291, 305.499 366.468, 319.572 363 C 323.462 362.042, 329.530 359.849, 333.057 358.129 C 336.584 356.408, 340.039 355, 340.735 355 C 342.340 355, 342.383 351.783, 340.800 350.200 C 339.389 348.789, 339.255 348.790, 336 350.243 M 391.667 352.667 C 390.361 353.972, 390.988 361.745, 392.500 363 C 393.325 363.685, 394 364.838, 394 365.563 C 394 366.289, 394.563 367.206, 395.250 367.601 C 395.938 367.997, 396.191 367.977, 395.814 367.558 C 395.436 367.138, 395.532 365.732, 396.026 364.433 C 396.578 362.979, 396.554 361.842, 395.962 361.476 C 395.433 361.149, 395 359.595, 395 358.023 C 395 353.218, 393.510 350.824, 391.667 352.667 M 453 358.292 C 453 359.816, 455.354 365, 456.046 365 C 457.069 365, 455.183 359.231, 453.902 358.439 C 453.406 358.133, 453 358.066, 453 358.292 M 243.298 359.586 C 243.737 360.050, 245.087 360.487, 246.298 360.557 C 249.958 360.769, 253.324 362.100, 256.816 364.717 C 258.639 366.084, 260.402 366.932, 260.732 366.601 C 261.063 366.270, 261.146 365.869, 260.917 365.708 C 254.396 361.145, 240.056 356.162, 243.298 359.586 M 448.782 361.124 C 447.852 363.550, 448.761 368.192, 450.500 369.892 C 452.023 371.380, 452.093 371.202, 451.431 367.500 C 450.361 361.519, 449.462 359.354, 448.782 361.124 M 401.925 361.500 C 401.730 362.705, 401.667 362.194, 403.049 370.639 C 404.982 382.456, 405.152 390.629, 403.492 392.006 C 401.575 393.598, 399.182 392.617, 398.039 389.772 C 397.127 387.500, 397.127 387.500, 397.063 389.691 C 397.029 390.896, 397.472 392.174, 398.049 392.530 C 398.769 392.975, 398.742 393.605, 397.962 394.545 C 397.338 395.297, 397.073 396.310, 397.374 396.796 C 397.674 397.281, 398.421 405.734, 399.033 415.579 C 400.249 435.135, 400.135 434.578, 402.707 433.485 C 403.693 433.065, 405.281 432.635, 406.235 432.529 C 407.190 432.423, 408.765 431.643, 409.735 430.795 C 410.706 429.947, 413.075 428.957, 415 428.595 C 422.827 427.123, 424.252 421.732, 421.501 404 C 418.954 387.579, 418.107 385.291, 417.829 394.083 C 417.735 397.063, 417.622 400.487, 417.579 401.694 C 417.379 407.264, 412.292 406.588, 411.538 400.892 C 410.007 389.321, 402.442 358.319, 401.925 361.500 M 410.506 375.500 C 413.018 388.430, 414.022 391.532, 413.580 385 C 413.315 381.080, 413.644 379.008, 414.726 377.787 C 416.279 376.034, 415.753 372.416, 414.094 373.442 C 413.588 373.754, 412.268 372.770, 411.160 371.255 C 409.146 368.500, 409.146 368.500, 410.506 375.500 M 299 373.601 C 294.452 375.009, 288.648 381.428, 292.938 380.306 C 295.415 379.658, 297.348 382.512, 296.683 385.837 C 296.360 387.449, 296.737 389.868, 297.558 391.449 C 299.674 395.527, 299.327 398.598, 296.500 400.821 C 295.125 401.903, 294 403.144, 294 403.579 C 294 404.015, 293.122 405.305, 292.050 406.447 C 287.915 410.849, 288.274 416.257, 292.948 419.959 C 296.929 423.112, 297.157 423.170, 298.518 421.373 C 300.428 418.851, 300.370 413.552, 298.415 411.929 C 296.788 410.579, 296.843 409.372, 298.894 401.379 C 299.476 399.113, 300.172 392.646, 300.440 387.008 C 300.769 380.110, 301.438 375.981, 302.487 374.379 C 303.345 373.071, 303.923 372.047, 303.773 372.104 C 303.623 372.161, 301.475 372.835, 299 373.601 M 395.192 375.500 C 395.168 377.150, 395.509 380.525, 395.949 383 C 396.750 387.500, 396.750 387.500, 396.757 383 C 396.760 380.525, 396.420 377.150, 396 375.500 C 395.237 372.500, 395.237 372.500, 395.192 375.500 M 381.229 377.725 C 380.530 377.975, 379.255 379.540, 378.396 381.200 C 377.538 382.861, 377.286 383.941, 377.837 383.600 C 378.389 383.260, 379.967 384.420, 381.344 386.180 C 383.847 389.379, 383.847 389.379, 381.840 391.931 C 379.833 394.482, 379.833 394.482, 383.416 397.491 C 385.387 399.146, 387 401.100, 387 401.833 C 387 402.567, 387.516 402.995, 388.147 402.784 C 388.916 402.528, 389.234 399.445, 389.109 393.451 C 388.915 384.058, 387.504 377.570, 385.876 378.577 C 385.346 378.904, 384.370 378.744, 383.706 378.220 C 383.043 377.697, 381.928 377.474, 381.229 377.725 M 280 383.267 C 276.500 385.500, 276.500 385.500, 279.308 385.822 C 282.561 386.195, 291 393.794, 291 396.351 C 291 397.282, 289.196 400.001, 286.992 402.393 C 283.087 406.629, 283.023 406.815, 284.486 409.620 C 285.836 412.208, 285.988 412.276, 285.994 410.289 C 285.997 409.073, 288.025 405.592, 290.500 402.553 C 295.439 396.490, 295.691 395.561, 293.534 391.403 C 292.707 389.809, 292.335 387.515, 292.680 386.139 C 293.129 384.352, 292.961 383.906, 292.051 384.469 C 291.332 384.913, 289.605 384.345, 287.945 383.118 C 284.422 380.512, 284.314 380.515, 280 383.267 M 455.704 384.328 C 455.444 385.006, 456.304 386.068, 457.616 386.687 C 460.603 388.097, 460.997 386.104, 458.089 384.288 C 456.598 383.356, 456.074 383.365, 455.704 384.328 M 362.710 384.865 C 363.100 385.586, 360.145 390.635, 358.566 391.945 C 357.705 392.660, 357 393.695, 357 394.245 C 357 394.795, 357.723 394.645, 358.607 393.911 C 359.490 393.178, 361.174 392.099, 362.348 391.514 C 364.931 390.226, 365.509 387.987, 363.779 385.969 C 363.076 385.148, 362.595 384.651, 362.710 384.865 M 270.500 392.062 C 268.850 393.116, 266.825 394.283, 266 394.655 C 258.012 398.261, 251.568 406.173, 251.241 412.777 C 251.094 415.749, 250.529 419.011, 249.987 420.025 C 249.444 421.039, 248.986 424.036, 248.968 426.684 C 248.951 429.333, 248.276 432.374, 247.468 433.441 C 244.306 437.623, 246.502 440.967, 249.840 437.053 C 251.386 435.239, 257.195 433.256, 268 430.852 C 270.475 430.301, 273.927 429.205, 275.670 428.416 C 277.414 427.627, 280.246 426.701, 281.965 426.357 C 285.089 425.732, 285.089 425.732, 282.154 423.947 C 278.041 421.446, 277.647 420.415, 279.433 416.834 C 281.326 413.039, 281.412 410.636, 279.750 407.961 C 278.638 406.171, 278.969 405.501, 282.750 401.899 C 287.708 397.175, 287.945 395.780, 284.354 392.452 C 281.082 389.420, 274.909 389.246, 270.500 392.062 M 453.364 391.493 C 452.406 393.991, 453.471 398.852, 454.462 396.500 C 454.925 395.400, 455.929 393.770, 456.692 392.877 C 457.903 391.461, 457.812 391.184, 455.979 390.705 C 454.718 390.375, 453.672 390.691, 453.364 391.493 M 467.024 393.527 C 467.011 394.643, 467.610 396.443, 468.355 397.527 C 470.239 400.269, 473.615 410.418, 474.832 417 C 475.391 420.025, 476.333 423.767, 476.925 425.315 C 477.516 426.863, 478 429.480, 478 431.131 C 478 434.768, 479.728 438.286, 481.098 437.439 C 482.334 436.676, 481.258 428.282, 479.568 425.500 C 478.900 424.400, 478.532 421.784, 478.750 419.687 C 478.995 417.334, 478.558 414.975, 477.609 413.527 C 476.764 412.236, 475.858 410.002, 475.597 408.563 C 474.920 404.828, 467.054 391.032, 467.024 393.527 M 353.085 400.936 C 351.774 401.925, 349.941 402.536, 349.014 402.293 C 347.975 402.022, 346.662 402.867, 345.597 404.493 C 343.781 407.264, 341 406.551, 341 403.315 C 341 402.500, 340.240 401.999, 339.250 402.162 C 338.288 402.321, 336.918 402.085, 336.206 401.639 C 335.475 401.181, 334.300 401.336, 333.504 401.997 C 332.730 402.639, 331.223 402.888, 330.156 402.550 C 328.491 402.021, 328.162 402.505, 327.832 405.967 C 327.386 410.643, 327.548 410.775, 330.011 407.750 C 331.843 405.500, 331.843 405.500, 334.854 408.372 C 337.370 410.772, 337.676 411.545, 336.720 413.077 C 335.035 415.775, 336.661 416.638, 339.254 414.421 C 343.074 411.154, 345.639 410.039, 346.759 411.159 C 347.446 411.846, 347.991 411.823, 348.446 411.087 C 348.816 410.489, 349.991 410, 351.059 410 C 352.279 410, 353 409.315, 353 408.154 C 353 407.138, 353.722 404.860, 354.604 403.091 C 356.574 399.142, 356.189 398.595, 353.085 400.936 M 464.523 409.016 C 463.493 412.382, 461.058 415, 458.956 415 C 455.214 415, 455.453 424.535, 459.654 442.778 C 462.413 454.760, 463.972 456.305, 467.807 450.857 C 468.525 449.835, 469.833 449, 470.712 449 C 472.133 449, 472.120 448.790, 470.590 447.099 C 469.393 445.777, 469.212 444.987, 469.995 444.503 C 471.860 443.351, 468.928 416.385, 466.109 408.766 C 465.283 406.533, 465.283 406.533, 464.523 409.016 M 345.882 417.191 C 345.816 417.911, 345.832 418.885, 345.917 419.355 C 346.001 419.826, 345.492 420.909, 344.785 421.762 C 342.047 425.067, 343.153 429.487, 346.750 429.619 C 350.354 429.752, 350.646 429.265, 348.621 426.497 C 347.771 425.334, 347.431 423.202, 347.736 420.935 C 348.023 418.789, 347.765 416.973, 347.114 416.571 C 346.501 416.192, 345.947 416.471, 345.882 417.191 M 446.427 421.719 C 443.921 425.500, 445.780 435, 449.026 435 C 450.322 435, 450.272 433.286, 448.951 432.470 C 448.232 432.026, 448.264 431.386, 449.053 430.436 C 450.140 429.126, 449.931 420.598, 448.784 419.451 C 448.502 419.168, 447.441 420.189, 446.427 421.719 M 233.951 431.092 C 231.640 435.409, 231.995 444, 234.483 444 C 240.350 444, 240.886 440.301, 236.347 431.147 C 235.181 428.794, 235.181 428.794, 233.951 431.092 M 415.513 432.743 C 411.015 433.201, 408.670 434.674, 409.746 436.363 C 410.883 438.149, 410.711 439.259, 408.741 442.868 C 406.701 446.603, 407.083 448.006, 409.577 445.936 C 413.659 442.548, 415.226 443.993, 416.699 452.500 C 417.228 455.558, 425.116 463.151, 425.760 461.221 C 425.936 460.692, 425.388 456.938, 424.541 452.879 C 423.694 448.821, 422.995 443.475, 422.987 441 C 422.969 435.282, 422.082 431.953, 420.633 432.168 C 420.010 432.261, 417.706 432.519, 415.513 432.743 M 296.107 438.931 C 297.355 440.619, 299.044 442, 299.859 442 C 300.675 442, 302.164 442.744, 303.169 443.653 C 304.665 445.006, 304.575 444.509, 302.674 440.903 C 300.751 437.255, 299.794 436.445, 297.095 436.181 C 293.837 435.861, 293.837 435.861, 296.107 438.931 M 439.054 439.750 C 439.607 441.262, 440.340 443.175, 440.683 444 C 441.027 444.825, 441.210 446.288, 441.091 447.250 C 440.972 448.212, 441.353 449, 441.937 449 C 443.591 449, 443.195 445.780, 440.977 441.188 C 438.690 436.456, 437.535 435.591, 439.054 439.750 M 282 438.716 C 281.175 439.046, 279.912 440.145, 279.193 441.158 C 278.375 442.312, 276.652 443, 274.582 443 C 271.666 443, 270.792 443.708, 267.139 449.031 C 262.358 455.998, 261.594 460.391, 265.324 459.455 C 266.782 459.089, 268.119 459.438, 268.911 460.393 C 270.025 461.735, 270.623 461.616, 273.998 459.382 C 277.352 457.163, 278.420 456.947, 282.662 457.627 C 285.323 458.053, 287.874 458.424, 288.331 458.451 C 288.787 458.478, 289.732 459.281, 290.429 460.234 C 291.127 461.188, 291.927 461.740, 292.206 461.460 C 292.486 461.181, 293.284 461.638, 293.980 462.476 C 294.676 463.314, 295.607 464, 296.049 464 C 297.424 464, 299.694 458.464, 299.321 456.022 C 299.126 454.745, 299.649 452.658, 300.483 451.385 C 301.318 450.112, 302 448.473, 302 447.742 C 302 445.992, 294.465 443.935, 293.091 445.309 C 291.172 447.228, 288.641 444.054, 290.475 442.028 C 292.459 439.836, 292.401 439.107, 290.250 439.202 C 289.288 439.244, 287.375 439.017, 286 438.698 C 284.625 438.378, 282.825 438.386, 282 438.716 M 342.520 438.968 C 342.158 439.553, 341.471 439.791, 340.993 439.496 C 340.516 439.201, 340.349 440.196, 340.624 441.708 C 341.252 445.174, 342.683 446.071, 345.732 444.912 C 347.282 444.322, 348.853 444.386, 350.173 445.092 C 351.696 445.907, 352.505 445.870, 353.357 444.946 C 354.200 444.032, 354.202 443.873, 353.363 444.342 C 352.071 445.065, 349.668 442.665, 350.675 441.658 C 351.037 441.296, 350.696 440.931, 349.917 440.848 C 349.137 440.764, 347.998 440.645, 347.386 440.583 C 346.773 440.521, 345.575 439.892, 344.725 439.186 C 343.665 438.307, 342.971 438.238, 342.520 438.968 M 479.635 443.500 C 479.210 445.150, 478.412 447.625, 477.863 449 C 476.864 451.500, 476.864 451.500, 479.006 449.398 C 480.574 447.860, 481.050 446.384, 480.779 443.898 C 480.409 440.500, 480.409 440.500, 479.635 443.500 M 432.233 449.962 C 432.158 454.004, 432.546 458.151, 433.094 459.177 C 433.643 460.202, 433.751 461.594, 433.333 462.269 C 432.916 462.945, 432.551 464.173, 432.522 464.999 C 432.415 468.062, 429.749 478.542, 428.769 479.750 C 427.175 481.715, 430.006 481.294, 433.754 479.008 C 435.544 477.917, 436.911 476.681, 436.792 476.262 C 436.673 475.843, 437.160 474.445, 437.874 473.155 C 439.018 471.088, 438.927 470.637, 437.110 469.365 C 435.190 468.020, 435.144 467.665, 436.438 464.210 C 438.085 459.815, 438.139 457.013, 436.614 455.113 C 436.001 454.350, 434.796 451.225, 433.935 448.169 C 432.369 442.612, 432.369 442.612, 432.233 449.962 M 215.383 449.278 C 209.199 459.636, 206.334 470.439, 207.590 478.667 C 208.313 483.396, 208.348 483.435, 209.214 480.500 C 209.701 478.850, 210.241 476.478, 210.415 475.228 C 210.588 473.978, 211.405 472.178, 212.230 471.228 C 213.055 470.278, 214.039 467.700, 214.416 465.500 C 214.794 463.300, 215.207 461.022, 215.333 460.437 C 215.459 459.852, 216.677 457.949, 218.040 456.208 C 220.031 453.664, 220.447 452.154, 220.158 448.521 C 219.703 442.798, 219.204 442.877, 215.383 449.278 M 242.045 450.949 C 233.531 460.547, 232.434 464.546, 239.885 458.830 C 241.197 457.823, 243.086 457, 244.083 457 C 245.671 457, 245.764 456.620, 244.829 453.941 C 243.905 451.289, 244.068 450.557, 246.052 448.445 C 247.311 447.104, 248.113 445.780, 247.835 445.501 C 247.556 445.223, 244.951 447.674, 242.045 450.949 M 450 449.418 C 450 450.198, 449.725 451.553, 449.389 452.430 C 448.943 453.590, 449.210 453.857, 450.369 453.412 C 451.306 453.052, 451.879 451.813, 451.762 450.400 C 451.552 447.863, 450 446.997, 450 449.418 M 411.200 451.187 C 410.485 451.909, 409.585 452.512, 409.200 452.526 C 408.815 452.540, 407.251 453.387, 405.724 454.408 C 403.152 456.128, 402.817 456.144, 401.146 454.632 C 400.154 453.734, 399.153 453, 398.921 453 C 397.481 453, 398.768 476.197, 400.293 477.722 C 402.560 479.989, 411.449 480.379, 418.573 478.523 C 425.740 476.656, 425.849 476.532, 422.996 473.496 C 421.707 472.123, 420.971 471, 421.361 471 C 421.751 471, 421.626 470.169, 421.082 469.153 C 420.401 467.881, 420.454 466.946, 421.253 466.147 C 422.132 465.268, 421.292 463.841, 417.778 460.244 C 414.956 457.355, 413.017 454.400, 412.821 452.687 C 412.557 450.371, 412.270 450.106, 411.200 451.187 M 303.367 455.500 C 304.060 461.811, 297.684 469.787, 294.309 466.833 C 293.314 465.962, 291.710 465.379, 290.745 465.537 C 289.780 465.695, 288.390 464.968, 287.657 463.921 C 285.465 460.791, 276.388 460.697, 276.823 463.810 C 277.264 466.966, 275.326 469, 271.878 469 C 269.975 469, 269 469.513, 269 470.514 C 269 472.468, 267.293 475.482, 263.250 480.668 C 260.943 483.627, 260 485.892, 260 488.473 C 260 492.413, 256.993 499.931, 254.634 501.889 C 253.570 502.772, 253.394 503.886, 253.990 505.965 C 255.196 510.171, 252.706 513.391, 248.845 512.619 C 246.228 512.096, 238 514.444, 238 515.715 C 238 515.988, 239.125 517.097, 240.500 518.179 C 242.093 519.431, 243 521.151, 243 522.918 C 243 524.442, 243.857 526.465, 244.904 527.413 C 247.794 530.029, 246.400 551.403, 243.078 555.406 C 240.889 558.044, 244.128 571.140, 247.316 572.544 C 248.511 573.070, 249.630 574.400, 249.803 575.500 C 249.976 576.600, 250.403 578.175, 250.751 579 C 251.494 580.755, 251.727 581.843, 251.885 584.285 C 251.984 585.816, 252.321 585.901, 254.250 584.885 C 257.490 583.179, 257.967 582.039, 257.344 577.493 C 256.993 574.932, 257.356 572.083, 258.331 569.750 C 262.051 560.847, 259.598 538.432, 254.289 532.815 C 252.253 530.662, 251.898 529.573, 252.497 527.315 C 252.908 525.767, 253.395 523.375, 253.579 522 C 253.763 520.625, 255.097 516.350, 256.544 512.500 C 257.992 508.650, 259.323 504.471, 259.504 503.214 C 259.684 501.957, 261.445 499.143, 263.416 496.961 C 265.387 494.779, 267.056 492.546, 267.125 491.997 C 267.194 491.449, 267.306 490.169, 267.375 489.154 C 267.650 485.096, 270.054 483.702, 272.621 486.113 C 274.833 488.192, 278.925 487.306, 277.531 485.050 C 277.285 484.652, 277.780 483.331, 278.632 482.115 C 280.393 479.600, 283.589 481.024, 282.507 483.842 C 282.147 484.780, 282.993 486.226, 284.712 487.612 C 287.060 489.506, 287.319 490.159, 286.354 491.750 C 285.371 493.371, 285.585 493.781, 287.854 494.626 C 292.334 496.297, 295.484 494.919, 295.600 491.238 C 295.829 483.972, 298.623 483.533, 305.066 489.750 C 310.342 494.840, 310.846 496.053, 308.500 498 C 305.440 500.539, 308.038 504.765, 311.419 502.750 C 311.650 502.613, 313.023 503.612, 314.470 504.972 C 317.101 507.444, 317.101 507.444, 316.416 500.472 C 316.038 496.637, 315.368 492.793, 314.925 491.928 C 314.483 491.064, 314.146 488.507, 314.177 486.247 C 314.214 483.581, 313.484 481.084, 312.098 479.138 C 309.220 475.096, 305.017 463.714, 304.930 459.727 C 304.891 457.952, 304.450 455.600, 303.949 454.500 C 303.198 452.850, 303.096 453.025, 303.367 455.500 M 312.577 472.531 C 314.515 477.169, 317.110 481.224, 317.738 480.596 C 318.368 479.965, 313.935 471.191, 312.302 469.835 C 311.369 469.061, 311.447 469.825, 312.577 472.531 M 388.568 514.925 C 386.692 516.998, 387.300 520.612, 390.632 527.197 C 391.382 528.680, 392.131 530.774, 392.295 531.849 C 392.743 534.790, 395.059 537.196, 396.383 536.097 C 398.321 534.486, 398.275 525.381, 396.308 521.257 C 395.322 519.190, 394.512 517.105, 394.508 516.622 C 394.486 514.144, 390.345 512.961, 388.568 514.925 M 342.070 517.125 C 340.215 520.176, 340.179 520.624, 341.613 522.813 C 343.059 525.019, 343.018 525.352, 341.053 527.444 C 338.948 529.684, 338.947 529.713, 340.883 532.099 C 342.830 534.500, 342.830 534.500, 345.472 532.022 C 347.100 530.495, 347.931 528.843, 347.636 527.716 C 347.373 526.710, 347.910 524.571, 348.829 522.963 C 352.044 517.336, 345.421 511.615, 342.070 517.125 M 373.241 515.224 C 372.666 515.926, 372.215 519.093, 372.240 522.263 C 372.272 526.214, 371.779 528.587, 370.673 529.809 C 368.970 531.691, 369.334 538.470, 371.200 539.624 C 371.712 539.940, 371.364 541.045, 370.427 542.081 C 368.601 544.098, 369.824 547, 372.500 547 C 374.554 547, 376.487 544.087, 375.253 542.853 C 374.503 542.103, 374.825 540.718, 376.345 538.145 C 379.502 532.805, 379.535 517.439, 376.394 515.349 C 374.694 514.218, 374.087 514.193, 373.241 515.224 M 308.736 530.876 C 302.186 537.806, 301.097 540.610, 301.499 549.506 C 301.887 558.111, 301.894 558.363, 301.878 563.250 C 301.852 571.052, 302.065 571.666, 305.301 573.100 C 307.477 574.065, 308.746 575.520, 309.383 577.782 C 309.892 579.587, 310.773 580.909, 311.341 580.720 C 313.183 580.106, 314.324 574.982, 313.138 572.651 C 310.330 567.128, 311.356 561.757, 315.037 562.720 C 317.391 563.336, 317.281 564.214, 317.108 546.281 C 316.977 532.686, 316.865 531.956, 314.566 529.656 C 312.160 527.251, 312.160 527.251, 308.736 530.876 M 379.650 538.835 C 378.716 539.867, 378.203 541.367, 378.511 542.168 C 378.819 542.970, 378.155 544.455, 377.035 545.468 C 373.714 548.474, 374.821 555, 378.652 555 C 380.182 555, 386.354 546.230, 386.533 543.801 C 386.604 542.838, 385.466 540.905, 384.005 539.505 C 381.418 537.026, 381.302 537.009, 379.650 538.835 M 352.487 558.846 C 352.142 559.192, 351.154 559.480, 350.292 559.487 C 345.713 559.525, 346.467 562.910, 352.330 568.634 C 358.949 575.097, 361.465 574.744, 361.188 567.391 C 360.997 562.306, 354.958 556.375, 352.487 558.846 M 352.596 562.844 C 352.307 563.312, 353.348 564.918, 354.910 566.413 C 357.748 569.133, 357.748 569.133, 357.252 566.536 C 356.742 563.870, 353.535 561.326, 352.596 562.844 M 343.235 580.777 C 340.182 583.323, 340.046 583.700, 341.137 586.572 C 342.251 589.503, 342.102 589.833, 337.902 593.761 C 334.264 597.163, 333.729 598.105, 334.817 599.189 C 335.904 600.271, 336.486 600.019, 338.154 597.745 C 339.265 596.230, 340.549 595.221, 341.007 595.504 C 341.465 595.787, 342.774 594.832, 343.915 593.380 C 345.991 590.742, 345.991 590.742, 345.631 593.838 C 345.390 595.902, 345.871 597.478, 347.072 598.565 C 349.014 600.323, 351.633 599.586, 350.283 597.661 C 348.789 595.531, 349.561 593.531, 353.296 589.850 C 355.333 587.843, 357 585.345, 357 584.300 C 357 581.677, 354.966 579.784, 353.476 581.020 C 352.676 581.684, 351.729 581.358, 350.497 579.996 C 348.144 577.396, 347.162 577.502, 343.235 580.777 M 391.394 582.006 C 390.868 582.532, 388.453 583.213, 386.028 583.517 C 381.349 584.105, 379 585.439, 379 587.507 C 379 589.751, 374.571 591.785, 370.152 591.570 C 367.810 591.457, 365.666 591.732, 365.388 592.182 C 365.109 592.632, 364.078 593, 363.095 593 C 361.107 593, 355.323 595.668, 354.531 596.950 C 353.330 598.892, 356.987 600.322, 358.847 598.638 C 359.843 597.737, 361.608 597, 362.770 597 C 363.931 597, 365.109 596.632, 365.388 596.182 C 365.666 595.732, 367.782 595.456, 370.090 595.567 C 374.641 595.788, 382.685 592.247, 382.260 590.210 C 381.917 588.564, 385.154 587.083, 388.333 587.432 C 389.827 587.596, 391.308 587.310, 391.625 586.797 C 391.943 586.284, 392.817 586.100, 393.569 586.388 C 394.321 586.677, 395.203 586.481, 395.529 585.954 C 395.893 585.364, 396.964 585.462, 398.311 586.210 C 399.515 586.878, 400.744 587.360, 401.042 587.282 C 401.341 587.203, 401.656 588.081, 401.743 589.234 C 401.968 592.222, 404.127 594.016, 407.809 594.275 C 409.653 594.405, 410.997 595.052, 410.998 595.809 C 410.999 596.529, 410.601 596.871, 410.113 596.570 C 409.626 596.269, 408.675 596.687, 408.001 597.499 C 407.015 598.687, 407.079 599.093, 408.329 599.573 C 413.705 601.636, 417.753 595.298, 413.668 591.213 C 411.713 589.258, 410.800 588.921, 409.774 589.773 C 407.953 591.284, 405.559 589.674, 405.526 586.917 C 405.500 584.769, 404.488 583.863, 400.500 582.421 C 397.124 581.200, 396.032 581.139, 395.415 582.138 C 395.042 582.741, 394.364 582.717, 393.587 582.072 C 392.800 581.419, 392.005 581.395, 391.394 582.006 M 347.416 583.250 C 347.737 583.938, 348.276 585.288, 348.616 586.250 C 349.339 588.300, 352 588.619, 352 586.655 C 352 585.260, 348.911 582, 347.588 582 C 347.173 582, 347.096 582.563, 347.416 583.250 M 282.414 585.095 C 280.548 587.157, 280.552 587.219, 282.627 588.899 C 284.713 590.588, 284.715 590.633, 282.821 592.973 C 280.645 595.660, 280.751 599.500, 283 599.500 C 283.825 599.500, 284.643 598.497, 284.817 597.270 C 285.100 595.276, 287.676 592.854, 292 590.517 C 293.219 589.858, 293.266 589.959, 292.250 591.053 C 290.502 592.936, 290.724 595.084, 292.968 598 C 295.441 601.213, 297.984 599.548, 295.842 596.118 C 294.854 594.537, 294.798 593.554, 295.619 592.238 C 298.220 588.074, 293.976 583.734, 290.499 587.001 C 288.381 588.991, 288.176 589.026, 288.445 587.356 C 289.125 583.126, 285.444 581.747, 282.414 585.095" stroke="none" fill="#1A1A1A" fill-rule="evenodd"/>
</svg>