<svg xmlns="http://www.w3.org/2000/svg" width="507" height="600" viewBox="0 0 507 600" version="1.1">
	<rect x="0" y="0" width="100%" height="100%" fill="#FFFFFF" />
	<path d="M 303.411 67.432 C 294.075 69.543, 285.526 74.376, 278.115 81.731 C 272.365 87.438, 270.451 88.657, 263.476 91.056 C 259.063 92.574, 253.259 94.982, 250.577 96.408 C 247.896 97.833, 245.101 99, 244.366 99 C 241.446 99, 223.972 105.359, 215.079 109.657 C 207.047 113.540, 204.135 115.692, 195.329 124.260 C 189.648 129.787, 185 134.704, 185 135.185 C 185 135.666, 182.498 139.009, 179.440 142.614 C 176.383 146.218, 173.480 150.142, 172.991 151.334 C 172.501 152.525, 170.698 156.794, 168.983 160.820 C 167.269 164.846, 165.434 170.921, 164.906 174.320 C 164.377 177.719, 163.649 181.175, 163.287 182 C 162.926 182.825, 162.546 184.850, 162.442 186.500 C 162.339 188.150, 161.064 192.077, 159.608 195.228 C 156.635 201.663, 155.870 215.058, 157.950 224.296 C 158.794 228.048, 158.715 230.225, 157.586 234.296 C 155.607 241.433, 154.681 259.122, 155.873 267 C 156.414 270.575, 157.607 278.450, 158.524 284.500 C 159.441 290.550, 161.669 300, 163.476 305.500 C 165.283 311, 167.068 316.814, 167.442 318.421 C 167.817 320.028, 168.996 322.451, 170.062 323.806 C 171.128 325.161, 172 327.019, 172 327.935 C 172 328.851, 172.382 330.028, 172.850 330.550 C 173.317 331.073, 174.727 334.775, 175.984 338.778 C 180.952 354.603, 202.296 365.384, 220.691 361.359 C 224.436 360.540, 229.180 359.616, 231.234 359.305 L 234.968 358.741 239.117 367.388 L 243.266 376.034 238.975 382.267 C 236.616 385.695, 233.679 389.625, 232.450 391 C 228.381 395.551, 225.246 403.376, 223.589 413.116 C 222.500 419.517, 220.952 424.580, 218.960 428.258 C 217.313 431.298, 215.120 436.244, 214.086 439.249 C 213.053 442.254, 211.064 446.523, 209.667 448.736 C 203.951 457.791, 201.955 464.470, 201.297 476.750 L 200.674 488.370 188.453 512.935 C 181.731 526.446, 174.830 539.249, 173.116 541.388 C 171.402 543.526, 170 546.368, 170 547.703 C 170 550.542, 168.622 553.395, 165.351 557.327 C 164.058 558.881, 163 560.884, 163 561.776 C 163 564.070, 156.981 580, 154.980 583 C 147.695 593.925, 147.320 599.500, 153.869 599.500 L 158.238 599.500 159.948 593 C 160.888 589.425, 163.310 582.827, 165.329 578.338 C 167.348 573.849, 169 569.668, 169 569.047 C 169 568.426, 171.834 562.424, 175.297 555.709 C 178.760 548.994, 185.044 536.300, 189.261 527.500 C 193.477 518.700, 199.935 505.774, 203.612 498.776 C 209.358 487.838, 210.354 485.170, 210.708 479.776 C 210.938 476.251, 211.845 472.404, 212.775 471 C 215.429 466.995, 218.107 458.978, 218.955 452.500 C 220.454 441.050, 227.972 423.778, 232.015 422.495 C 233.051 422.166, 237.124 418.433, 241.067 414.199 C 251.974 402.485, 251.935 402.466, 247.390 417.302 C 246.076 421.593, 245 426.184, 245 427.505 C 245 430.222, 243.054 435, 241.948 435 C 241.546 435, 240.908 433.762, 240.530 432.250 C 239.738 429.076, 237.245 426, 235.464 426 C 233.703 426, 228.727 432.846, 229.335 434.431 C 229.617 435.165, 229.358 437.691, 228.761 440.044 C 227.732 444.099, 227.819 444.448, 230.435 446.698 C 233.793 449.586, 236.101 449.102, 241 444.482 C 244.173 441.491, 244.691 441.313, 246.546 442.578 C 248.862 444.157, 253 442.186, 253 439.505 C 253 438.622, 254.716 437.867, 257.750 437.415 C 260.363 437.025, 263.400 436.148, 264.500 435.465 C 265.600 434.783, 268.123 433.941, 270.106 433.594 C 273.856 432.938, 284.497 427.622, 285.586 425.861 C 285.929 425.306, 285.230 423.809, 284.032 422.534 C 282.036 420.409, 281.957 419.875, 283.087 416.105 C 284.044 412.911, 284.053 411.412, 283.129 409.383 C 282.029 406.970, 282.283 406.405, 286.470 401.929 C 288.961 399.265, 290.998 396.729, 290.996 396.293 C 290.986 394.188, 286.736 388.915, 283.844 387.420 C 280.234 385.552, 280.520 385.052, 287.640 380.787 C 289.213 379.845, 291.444 378.374, 292.597 377.517 C 295.838 375.110, 297.133 395.976, 294.006 400.206 C 292.903 401.698, 292 403.184, 292 403.507 C 292 403.831, 290.883 405.087, 289.518 406.298 C 284.594 410.666, 286.052 422, 291.537 422 C 293.495 422, 295.330 425.852, 295.186 429.660 C 295.093 432.138, 295.805 433.499, 298.283 435.584 C 300.052 437.072, 302.087 439.687, 302.804 441.395 C 303.812 443.793, 303.823 444.216, 302.854 443.250 C 302.164 442.563, 300.617 442, 299.415 442 C 298.213 442, 296.561 440.979, 295.744 439.732 C 294.900 438.444, 292.061 436.762, 289.172 435.838 C 284.192 434.245, 283.993 434.261, 279.589 436.606 C 277.115 437.923, 274.262 439, 273.249 439 C 270.715 439, 264.456 445.647, 262.419 450.500 C 258.340 460.218, 258.593 461.278, 265.297 462.531 C 270.062 463.421, 269.401 464.164, 263.383 464.682 C 258.050 465.140, 255.835 466.133, 251.232 470.132 C 249.434 471.694, 246.847 473.203, 245.482 473.486 C 244.117 473.768, 241.910 474.225, 240.579 474.499 C 230.742 476.528, 220 492.940, 220 505.941 C 220 509.902, 213.111 523.762, 208.537 529 C 204.739 533.351, 185.135 570.658, 184.966 573.858 C 184.947 574.211, 184.063 576.300, 183 578.500 C 181.937 580.700, 181.053 583.218, 181.034 584.095 C 181.015 584.972, 180.100 586.505, 179 587.500 C 172.073 593.769, 185.827 601.027, 194.171 595.506 C 197.618 593.225, 202 586.755, 202 583.948 C 202 583.325, 202.900 581.671, 204 580.273 C 205.171 578.784, 206 576.216, 206 574.077 C 206 570.981, 206.674 569.860, 210.414 566.734 C 213.853 563.859, 215.081 561.989, 215.969 558.272 C 218.325 548.415, 218.973 547.146, 218.405 553.500 C 217.764 560.662, 217.769 561.354, 218.584 575.742 C 219.493 591.793, 219.562 591.644, 210.757 592.505 C 203.633 593.201, 200 594.920, 200 597.596 C 200 599.686, 202.211 600.431, 203.437 598.755 C 204.152 597.778, 207.055 596.939, 211.295 596.485 C 222.133 595.324, 223.369 593.197, 222.584 577.057 C 221.664 558.136, 222.895 528.654, 224.804 523.881 C 226.526 519.573, 237.278 519.149, 238.607 523.336 C 238.978 524.505, 240.155 526.644, 241.224 528.088 C 243.147 530.690, 243.147 530.853, 241.211 544.724 C 238.936 561.030, 239.357 565.707, 243.906 574.658 C 245.608 578.007, 247 581.895, 247 583.297 C 247 586.878, 251.457 591.955, 254.014 591.286 C 255.112 590.999, 256.708 591.343, 257.560 592.050 C 259.832 593.935, 263.650 590.093, 262.209 587.372 C 261.034 585.152, 262.278 569.218, 263.857 566.267 C 267.157 560.101, 263.779 536.587, 258.838 531.328 C 254.886 527.121, 259.373 511.423, 265.716 507.267 C 267.085 506.370, 269.254 503.974, 270.536 501.944 C 272.460 498.895, 273.314 498.337, 275.439 498.744 C 276.854 499.014, 278.675 498.685, 279.486 498.012 C 281.034 496.727, 285.805 499.872, 288.828 504.172 C 290.611 506.708, 296.669 505.726, 299.702 502.409 C 302.198 499.679, 303 499.415, 303 501.326 C 303 503.043, 306.881 506.583, 309.699 507.436 C 313.276 508.520, 313.598 511.767, 310.453 515.049 C 307.806 517.812, 307.769 517.998, 309.379 520.455 C 310.296 521.855, 311.896 523, 312.934 523 C 315.238 523, 320 517.567, 320 514.938 C 320 513.888, 320.536 511.026, 321.190 508.579 C 322.141 505.025, 322.115 503.563, 321.061 501.315 C 320.335 499.767, 319.546 495.800, 319.307 492.500 C 318.793 485.385, 316.623 478.051, 313.363 472.412 C 312.063 470.164, 311 467.939, 311 467.468 C 311 465.927, 316.039 473.367, 319.148 479.500 C 320.822 482.800, 322.774 486.175, 323.487 487 C 325.704 489.563, 326.240 498.492, 324.960 511.511 C 323.860 522.690, 323.910 524.585, 325.430 529.418 C 326.841 533.901, 326.977 536.330, 326.228 543.661 C 324.999 555.704, 325.649 566.954, 327.704 569.225 C 329.037 570.698, 329.111 571.462, 328.128 573.619 C 327.473 575.055, 327.174 576.973, 327.462 577.881 C 327.800 578.946, 327.190 579.881, 325.743 580.516 C 324.509 581.057, 323.366 582.435, 323.203 583.577 C 323.040 584.720, 321.594 588.294, 319.990 591.520 C 317.780 595.965, 317.344 597.709, 318.187 598.726 C 319.638 600.473, 321.252 599.888, 321.605 597.487 C 322.097 594.132, 327.372 584.563, 329.801 582.618 C 331.502 581.256, 331.990 580.098, 331.571 578.425 C 331.252 577.154, 331.514 574.966, 332.154 573.561 C 333.106 571.472, 333.024 570.684, 331.704 569.225 C 329.649 566.954, 328.999 555.704, 330.228 543.661 C 330.977 536.330, 330.841 533.901, 329.430 529.418 C 327.910 524.585, 327.860 522.690, 328.960 511.511 C 330.236 498.528, 329.705 489.578, 327.504 487 C 326.800 486.175, 324.967 483.025, 323.430 480 C 321.894 476.975, 319.383 472.700, 317.852 470.500 C 314.363 465.489, 311.030 454.951, 311.013 448.877 C 311 444.190, 308.039 435.968, 305.195 432.721 C 303.024 430.242, 303.342 423.781, 305.844 419.541 C 307.993 415.898, 307.843 413.836, 305.208 410.766 C 304.045 409.412, 303.878 407.661, 304.443 402.766 C 304.841 399.320, 305.111 394.446, 305.044 391.935 C 304.956 388.671, 305.522 386.606, 307.030 384.689 C 308.360 382.998, 308.907 381.284, 308.513 380.042 C 307.142 375.721, 311.159 372.353, 320.373 370.101 C 323.052 369.446, 327.327 367.865, 329.873 366.588 C 339.247 361.884, 349.667 359.033, 363 357.522 C 369.738 356.758, 380.903 352.544, 383.176 349.906 C 385.783 346.881, 386.343 364.357, 383.752 367.885 C 382.788 369.197, 382 371.047, 382 371.996 C 382 373.287, 381.385 373.605, 379.563 373.257 C 378.222 373.001, 375.677 373.513, 373.908 374.396 C 370.853 375.920, 370.618 375.899, 369.282 373.993 C 366.747 370.372, 358 373.839, 358 378.464 C 358 379.794, 357.532 381.171, 356.959 381.525 C 356.387 381.879, 356.173 382.970, 356.484 383.950 C 356.945 385.401, 356.593 385.645, 354.594 385.263 C 352.940 384.947, 350.972 385.682, 348.569 387.515 C 344.633 390.517, 344.159 392.414, 346.655 395.171 C 348.555 397.271, 347.011 397.648, 344.061 395.806 C 342.572 394.876, 341.545 394.886, 339.427 395.851 C 336.984 396.964, 336.432 396.830, 334.048 394.546 C 332.586 393.146, 330.937 392, 330.382 392 C 328.032 392, 324.077 397.677, 323.415 402.001 C 323.036 404.475, 322.238 407.400, 321.643 408.500 C 317.448 416.244, 318.290 420.556, 323.530 418.168 C 325.508 417.267, 326 417.318, 326 418.424 C 326 419.184, 327.688 421.170, 329.750 422.838 C 333.048 425.504, 333.354 426.108, 332.292 427.853 C 331.292 429.496, 331.421 430.266, 333.042 432.327 C 335.690 435.692, 335.841 435.589, 328.471 435.471 C 318.131 435.305, 317.331 438.561, 326.607 443.052 C 329.565 444.484, 331.927 444.984, 333.665 444.548 C 335.681 444.042, 336.913 444.501, 339.058 446.556 C 340.587 448.021, 343.247 449.508, 344.969 449.860 C 346.691 450.212, 348.104 450.950, 348.110 451.500 C 348.116 452.050, 349.042 453.480, 350.167 454.678 C 352.430 457.087, 354.240 456.837, 357.806 453.625 C 359.777 451.848, 360.012 451.805, 359.429 453.324 C 358.992 454.463, 359.484 455.892, 360.799 457.301 C 361.928 458.510, 363.160 460.742, 363.537 462.259 C 364.314 465.390, 365.613 466.500, 368.500 466.500 C 369.929 466.500, 370.589 467.271, 370.812 469.201 C 371.149 472.122, 377.034 478, 379.621 478 C 381.415 478, 392 488.671, 392 490.479 C 392 492.317, 395.877 495.435, 398.204 495.469 C 400.609 495.505, 405.943 504.854, 405.978 509.095 C 405.999 511.575, 408.632 514.970, 410.579 515.027 C 412.056 515.070, 415.886 521.942, 418.648 529.506 C 423.270 542.165, 423.496 543.419, 422.013 548.165 C 421.268 550.549, 420.770 553.533, 420.906 554.795 C 421.066 556.270, 420.234 557.815, 418.577 559.118 C 415.231 561.750, 415.328 563.549, 419.138 569.554 C 424.969 578.744, 425.026 581.091, 419.718 593.270 C 418.121 596.935, 417.913 598.313, 418.820 599.220 C 420.309 600.709, 421.035 599.859, 423.701 593.500 C 429.026 580.800, 428.978 578.758, 423.138 569.554 C 419.349 563.582, 419.311 562.996, 422.518 559.983 C 424.253 558.353, 424.990 556.665, 424.886 554.558 C 424.803 552.876, 425.244 550.233, 425.867 548.685 C 426.490 547.137, 427 544.803, 427 543.499 C 427 541.037, 421.861 526.371, 419.467 522 C 418.714 520.625, 417.140 517.761, 415.970 515.636 C 414.800 513.511, 412.978 511.546, 411.921 511.269 C 410.847 510.988, 410 509.899, 410 508.798 C 410 502.619, 400.979 490.026, 397.508 491.359 C 396.565 491.720, 396 491.358, 396 490.393 C 396 488.317, 382.014 474, 379.986 474 C 376.678 474, 374.377 471.324, 375.750 469.074 C 376.880 467.224, 376.615 466.782, 373.020 464.513 C 370.831 463.131, 368.581 462, 368.020 462 C 367.459 462, 367 461.386, 367 460.635 C 367 459.884, 366.121 458.153, 365.047 456.787 C 363.617 454.968, 363.391 454.009, 364.205 453.195 C 365.019 452.381, 364.997 451.702, 364.125 450.650 C 362.034 448.131, 359.232 448.116, 355.855 450.607 C 352.793 452.866, 350.854 453.813, 352.347 452.319 C 353.530 451.137, 347.739 446, 345.223 446 C 343.804 446, 341.741 444.771, 340.187 443 C 338.739 441.350, 336.901 440, 336.103 440 C 335.042 440, 335.237 439.377, 336.826 437.686 C 339.455 434.887, 339.501 434.231, 337.250 431.657 C 336.288 430.556, 336.002 429.948, 336.616 430.305 C 338.609 431.462, 341.499 427.307, 339.978 425.473 C 339.264 424.613, 338.131 424.119, 337.461 424.377 C 336.790 424.634, 334.759 423.314, 332.946 421.444 C 329.707 418.102, 329.682 418.009, 331.512 415.987 C 334.507 412.678, 330.407 408.848, 326.565 411.366 C 323.869 413.132, 322.785 411.615, 325.094 409.306 C 325.696 408.704, 326.708 405.611, 327.344 402.433 C 328.045 398.931, 329.091 396.476, 330 396.202 C 331.203 395.840, 331.255 396.010, 330.264 397.061 C 327.907 399.561, 331.420 401.942, 335.800 400.814 C 337.835 400.290, 340.460 399.625, 341.633 399.336 C 342.806 399.048, 344.070 399.304, 344.442 399.906 C 345.503 401.623, 349.521 401.187, 351.360 399.154 C 352.925 397.425, 352.906 397.150, 351.044 394.783 C 349.060 392.261, 349.061 392.255, 351.085 390.423 C 352.704 388.958, 353.480 388.819, 354.941 389.731 C 357.398 391.266, 361.512 387.189, 360.554 384.169 C 360.204 383.069, 360.387 381.879, 360.959 381.525 C 361.532 381.171, 362 380.009, 362 378.941 C 362 377.873, 362.337 376.966, 362.750 376.923 C 363.163 376.881, 364.290 376.696, 365.255 376.511 C 367.116 376.155, 366.828 377.181, 364.210 380.231 C 363.167 381.446, 363.029 382.341, 363.747 383.231 C 366.501 386.649, 366.213 390.712, 363.056 392.960 C 361.375 394.157, 360 395.702, 360 396.394 C 360 397.085, 358.852 398.730, 357.450 400.047 C 355.312 402.056, 354.998 403.030, 355.512 406.071 C 356.018 409.065, 355.659 410.252, 353.459 412.867 C 350.934 415.868, 350.877 416.163, 352.385 418.464 C 353.868 420.727, 354.162 420.797, 356.693 419.484 C 360.068 417.733, 360.709 418.265, 358.784 421.219 C 355.384 426.436, 361.185 435.097, 365 430.500 C 365.685 429.675, 367.215 429, 368.400 429 C 373.825 429, 376.641 423.754, 373.468 419.559 C 372.661 418.491, 372 416.219, 372 414.509 C 372 410.524, 370.423 409, 366.300 409 C 363.978 409, 363 408.538, 363 407.441 C 363 406.513, 363.470 406.172, 364.160 406.599 C 364.797 406.993, 366.990 407.250, 369.033 407.170 C 372.660 407.028, 372.775 407.135, 373.948 411.762 C 376.115 420.307, 380.192 423.253, 384.243 419.202 C 387.001 416.443, 387.874 407.970, 385.595 406.079 C 384.357 405.051, 384.243 404.412, 385.112 403.365 C 386.007 402.286, 385.373 401.196, 382.124 398.226 C 379.464 395.794, 378 393.596, 378 392.033 C 378 390.700, 376.865 388.425, 375.479 386.978 C 373.018 384.409, 372.995 384.255, 374.542 380.553 C 376.050 376.944, 376.305 376.788, 379.751 377.347 C 381.743 377.670, 383.892 377.504, 384.526 376.978 C 387.005 374.921, 390.292 416.914, 390.540 453.801 L 390.724 481.102 393.612 484.120 L 396.500 487.137 413 486.601 C 422.075 486.305, 430.039 486.049, 430.698 486.032 C 431.357 486.014, 434.531 483.807, 437.752 481.127 C 445.132 474.985, 447.227 469.694, 444.376 464.399 C 441.621 459.285, 441.997 459.185, 458.840 460.568 C 481.109 462.397, 492.352 447.392, 485.492 425 C 484.734 422.525, 483.575 417.125, 482.917 413 C 481.705 405.403, 478.062 397.345, 475.373 396.313 C 473.158 395.463, 468.394 385.288, 467.032 378.500 C 466.370 375.200, 464.564 367.325, 463.018 361 C 461.473 354.675, 459.912 347.794, 459.551 345.709 C 459.190 343.625, 457.967 339.800, 456.835 337.209 C 455.702 334.619, 454.162 327.641, 453.412 321.703 C 452.356 313.347, 451.274 309.277, 448.623 303.703 C 446.739 299.741, 444.456 293.800, 443.550 290.500 C 442.643 287.200, 441.302 282.925, 440.569 281 C 436.894 271.349, 435.748 263.198, 436.457 251.759 L 437.155 240.500 434.137 237.620 C 432.454 236.014, 430.480 234.985, 429.674 235.295 C 428.541 235.730, 428.137 234.572, 427.801 229.924 C 427.350 223.689, 423.194 217.328, 420.298 218.439 C 418.550 219.110, 417.613 214.841, 418.342 209.525 C 418.779 206.336, 418.540 204.863, 417.437 203.948 C 416.226 202.943, 416.016 200.621, 416.339 191.821 C 416.676 182.627, 416.470 180.592, 415.010 178.718 C 412.433 175.409, 410.331 170.931, 409.509 167 C 408.744 163.337, 402.278 147.409, 400.680 145.250 C 400.171 144.563, 398.910 144, 397.878 144 C 395.385 144, 395.497 142.228, 398.124 140.101 C 400.227 138.398, 400.230 138.348, 398.374 135.060 C 393.491 126.406, 389.426 120.403, 385.555 116.125 C 382.842 113.127, 382.765 112.886, 384.867 113.972 C 388.827 116.019, 390.508 113.459, 388.445 108.521 C 385.506 101.488, 371.974 86.594, 365.500 83.267 C 363.850 82.420, 360.375 80.045, 357.779 77.990 C 348.011 70.260, 317.287 64.294, 303.411 67.432 M 317.325 74.717 C 317.684 75.298, 317.348 76.296, 316.578 76.935 C 315.720 77.648, 314.949 77.726, 314.585 77.138 C 314.259 76.610, 313.206 76.329, 312.246 76.513 C 311.286 76.696, 310.107 76.881, 309.628 76.923 C 309.148 76.966, 309.299 77.655, 309.964 78.456 C 310.628 79.257, 310.901 80.351, 310.570 80.887 C 309.334 82.886, 311.803 82.875, 313.615 80.873 C 314.651 79.728, 317.073 77.959, 318.999 76.940 C 320.925 75.922, 321.974 75.069, 321.332 75.044 C 320.689 75.020, 319.378 74.699, 318.418 74.330 C 317.314 73.906, 316.912 74.049, 317.325 74.717 M 298.250 80.745 C 295.038 82.344, 294.282 83.438, 295.759 84.351 C 296.176 84.609, 297.983 83.511, 299.775 81.910 C 303.418 78.655, 303.037 78.363, 298.250 80.745 M 320.500 83.658 C 315.254 85.842, 315.362 85.645, 318.108 88.001 C 324.804 93.745, 334.209 97.451, 342.154 97.476 C 347.004 97.491, 349.581 97.134, 349.191 96.501 C 348.851 95.951, 348.697 94.321, 348.849 92.878 C 349.643 85.304, 331.064 79.261, 320.500 83.658 M 352.229 84.006 C 353.180 85.378, 355.205 88.396, 356.729 90.713 C 359.885 95.512, 361 96.020, 361 92.657 C 361 91.055, 359.338 88.920, 355.750 85.913 C 352.214 82.949, 351.064 82.327, 352.229 84.006 M 281.500 87 C 279.738 88.947, 279.753 89, 282.095 88.989 C 286.594 88.968, 291.962 87.748, 291.419 86.869 C 291.121 86.387, 289.829 86.256, 288.548 86.577 C 287.267 86.899, 285.918 86.676, 285.550 86.081 C 284.578 84.509, 283.542 84.744, 281.500 87 M 364.776 92.603 C 364.505 94.196, 363.999 96.175, 363.652 97 C 362.416 99.939, 364.621 101.653, 366.939 99.555 C 369.470 97.265, 369.518 95.231, 367.113 92.103 L 365.270 89.707 364.776 92.603 M 352.717 93.974 C 352.436 95.048, 352.846 96.458, 353.628 97.107 C 355.901 98.992, 352.366 102.323, 348.842 101.618 C 342.150 100.280, 351.058 108.625, 365.250 116.988 C 370.361 120, 369.974 118.238, 364.523 113.681 C 360.609 110.410, 359.712 108.870, 357.400 101.452 C 354.601 92.477, 353.548 90.795, 352.717 93.974 M 372.197 93.944 C 373.074 95.348, 373.169 96.440, 372.493 97.363 C 366.918 104.979, 366.953 106.393, 372.794 109.555 L 376.590 111.609 378.158 109.582 C 379.514 107.829, 380.079 107.715, 382.323 108.738 C 384.865 109.896, 384.899 109.863, 383.897 107.210 C 383.333 105.720, 381.835 103.375, 380.566 102 C 379.297 100.625, 377.462 98.244, 376.488 96.709 C 375.514 95.175, 373.860 93.460, 372.813 92.900 C 371.079 91.972, 371.024 92.066, 372.197 93.944 M 287.605 94.990 C 284.363 96.026, 279.863 97.158, 277.605 97.506 C 266.604 99.204, 262.538 102.714, 272.977 101.503 C 277.999 100.920, 279.478 101.130, 282.227 102.818 C 284.027 103.923, 288.097 105.302, 291.270 105.883 C 294.444 106.464, 299.169 108.190, 301.770 109.718 C 304.372 111.245, 308.551 113.448, 311.058 114.613 L 315.615 116.730 313.769 112.999 C 312.053 109.531, 302.602 103.986, 298.424 103.997 C 296.840 104.001, 293 99.620, 293 97.808 C 293 95.965, 294.715 94.408, 297.500 93.724 C 298.871 93.387, 298.557 93.212, 296.500 93.170 C 294.850 93.136, 290.847 93.955, 287.605 94.990 M 317.105 94.374 C 316.175 95.494, 315.130 95.599, 312.398 94.844 C 309.238 93.972, 308.685 94.131, 306.870 96.438 C 305.117 98.667, 304.343 98.919, 300.927 98.372 C 298.308 97.954, 297 98.120, 297 98.872 C 297 99.492, 297.619 100, 298.376 100 C 303.132 100, 317 108.547, 317 111.479 C 317 112.086, 319.013 114.559, 321.472 116.973 C 324.614 120.057, 325.653 121.713, 324.965 122.542 C 324.259 123.393, 325.201 124.187, 328.342 125.386 C 330.738 126.302, 333.745 128.164, 335.024 129.525 C 336.302 130.886, 338.240 132, 339.330 132 C 340.420 132, 342.887 133.202, 344.813 134.671 L 348.315 137.342 346.408 133.961 C 345.358 132.101, 340.492 126.598, 335.594 121.731 C 327.770 113.957, 326.866 112.705, 328.155 111.417 C 329.443 110.129, 330.342 110.316, 335.560 112.963 C 338.827 114.619, 341.713 115.980, 341.973 115.987 C 342.233 115.994, 339.375 112.905, 335.621 109.122 C 331.463 104.932, 329.227 101.978, 329.898 101.563 C 332.237 100.117, 331.813 99.796, 318.900 93.238 C 318.570 93.070, 317.762 93.581, 317.105 94.374 M 340.841 110.413 C 347.489 117.336, 347.832 118.065, 345.393 120.088 C 344.031 121.219, 343.157 121.067, 339.643 119.089 L 335.500 116.756 339.931 121.350 C 343.469 125.019, 344.643 125.711, 345.758 124.786 C 346.835 123.892, 347.928 124.045, 350.551 125.458 C 353.458 127.023, 354.188 127.089, 355.602 125.915 C 357.052 124.712, 357.609 124.967, 360.128 127.984 C 363.677 132.235, 363.732 131.622, 360.398 124.984 C 358.614 121.433, 358.120 119.480, 358.825 118.775 C 359.531 118.069, 358.226 116.660, 354.677 114.293 C 351.830 112.394, 347.970 109.189, 346.099 107.170 C 344.228 105.152, 342.986 104.012, 343.338 104.637 C 344.767 107.174, 340.888 108.580, 338.975 106.218 C 337.987 104.998, 336.618 104, 335.931 104 C 335.245 104, 337.454 106.886, 340.841 110.413 M 253 106.937 C 249.975 107.999, 246.243 108.897, 244.707 108.934 C 241.435 109.011, 218.091 116.436, 213 119.019 C 209.288 120.902, 198.052 131.808, 187.632 143.642 C 179.030 153.411, 170.956 172.609, 176.005 171.288 C 177.108 171, 178.645 171.291, 179.421 171.934 C 180.509 172.837, 182.148 172.722, 186.591 171.431 C 196.029 168.687, 204.044 170.402, 216.892 177.913 C 226.295 183.411, 234.246 185.565, 246.609 185.964 C 247.219 185.984, 249.763 187.800, 252.263 190 C 257.608 194.705, 258 194.805, 258 191.460 C 258 184.508, 247.219 174.381, 243.635 177.965 C 242.136 179.464, 238.439 179.234, 237.046 177.555 C 235.265 175.409, 236.184 171.639, 238.765 170.506 C 240.523 169.735, 240.982 168.795, 240.814 166.307 C 240.293 158.566, 245.811 157.735, 250.517 164.846 C 252.366 167.641, 254.354 169.086, 258.253 170.472 C 261.139 171.498, 264.527 172.997, 265.781 173.804 C 267.036 174.611, 268.161 175.097, 268.281 174.885 C 268.402 174.673, 268.998 173.600, 269.607 172.500 C 271.541 169.008, 273.872 169.599, 279.095 174.905 C 286.585 182.513, 288 183.021, 288 178.100 C 288 173.001, 289.464 169.195, 292.751 165.750 C 296.084 162.256, 295.525 162.135, 303.070 167.991 C 311.021 174.163, 310.476 174.239, 311.994 166.750 C 313.534 159.151, 315.240 156.223, 319.062 154.616 L 321.974 153.392 318.433 147.946 C 315.982 144.176, 315.010 141.654, 315.273 139.750 C 315.496 138.136, 315.183 137, 314.514 137 C 313.887 137, 312.052 135.598, 310.437 133.885 C 308.822 132.172, 305.694 129.983, 303.486 129.022 C 301.278 128.060, 298.860 126.537, 298.113 125.637 C 297.366 124.736, 296.325 124, 295.799 124 C 295.273 124, 292.290 121.823, 289.171 119.162 C 286.052 116.501, 281.700 113.278, 279.500 112 C 277.300 110.722, 274.560 108.839, 273.412 107.816 C 270.204 104.958, 259.902 104.514, 253 106.937 M 289.700 115.503 C 292.340 117.933, 295.007 119.938, 295.628 119.960 C 296.248 119.982, 297.355 120.722, 298.088 121.605 C 298.820 122.488, 301.705 124.221, 304.497 125.456 C 307.290 126.691, 310.356 128.894, 311.310 130.351 C 312.265 131.808, 313.569 133, 314.209 133 C 316.897 133, 319.911 137.197, 319.325 140.127 C 318.743 143.036, 319.752 143.848, 321.624 141.976 C 322.322 141.278, 323.230 141.596, 324.479 142.976 C 327.222 146.008, 328.065 145.452, 327.768 140.808 C 327.541 137.264, 327.866 136.429, 329.867 135.407 L 332.234 134.199 329.867 132.752 C 316.022 124.287, 300.519 116.432, 291.700 113.413 L 284.901 111.085 289.700 115.503 M 372.464 116.824 C 372.914 117.623, 372.306 119.110, 370.930 120.574 C 369.205 122.411, 369.020 123, 370.171 123 C 371.006 123, 372.517 122.086, 373.528 120.969 C 375.307 119.003, 375.308 118.882, 373.542 117.219 C 372.539 116.273, 372.054 116.096, 372.464 116.824 M 376.992 121.509 C 374.382 124.287, 375.005 126.177, 377.744 123.791 C 378.710 122.949, 380.063 122.465, 380.750 122.714 C 382.411 123.316, 382.351 121.536, 380.663 120.135 C 379.640 119.286, 378.776 119.610, 376.992 121.509 M 364.032 124.227 C 364.099 126.899, 366.636 129.144, 367.886 127.638 C 368.791 126.547, 368.501 125.903, 366.517 124.603 C 364.685 123.402, 364.009 123.300, 364.032 124.227 M 386.183 126.079 C 385.325 127.453, 384.293 127.911, 382.989 127.496 C 381.093 126.895, 381.092 126.955, 382.931 131.192 C 383.960 133.562, 385.126 137.504, 385.523 139.954 C 385.920 142.404, 387.112 146.073, 388.173 148.108 C 390.752 153.056, 392.011 166.185, 391.648 184.366 C 391.422 195.707, 391.686 199.751, 392.786 201.814 C 395.239 206.416, 395.962 210.032, 397.510 225.446 C 398.525 235.554, 399.636 241.704, 400.941 244.446 C 402.312 247.325, 403.191 252.559, 403.973 262.500 C 404.579 270.200, 405.712 279.875, 406.491 284 L 407.908 291.500 407.533 275.500 C 407.327 266.700, 406.235 253.200, 405.108 245.500 C 403.980 237.800, 402.625 224.300, 402.097 215.500 C 401.570 206.700, 400.250 193.425, 399.165 186 C 396.117 165.149, 395.973 156.841, 398.637 155.502 C 401.396 154.116, 400.021 150.467, 395.250 146.515 C 391.618 143.506, 391.209 141.531, 393.659 138.825 C 395.445 136.851, 395.330 136.441, 390.900 129 C 387.936 124.022, 387.598 123.813, 386.183 126.079 M 352.502 133.869 C 354.426 136.548, 356 139.142, 356 139.634 C 356 140.127, 356.950 142.303, 358.112 144.470 C 359.712 147.455, 359.968 148.822, 359.167 150.104 C 357.997 151.978, 367.162 163.024, 369.872 163.008 C 370.850 163.002, 370.950 162.640, 370.220 161.750 C 369.657 161.063, 368.668 158.529, 368.024 156.120 C 367.380 153.710, 364.536 148.373, 361.704 144.259 L 356.555 136.778 358.740 135.010 C 361.596 132.696, 359.065 129.864, 354.867 130.678 C 353.419 130.959, 351.930 130.696, 351.558 130.094 C 351.186 129.492, 350.459 129, 349.943 129 C 349.426 129, 350.578 131.191, 352.502 133.869 M 341 136.202 C 341 136.655, 352.556 146.044, 354.706 147.338 C 355.369 147.737, 354.941 146.077, 353.754 143.649 C 351.958 139.976, 351.317 139.409, 349.935 140.273 C 348.649 141.076, 347.451 140.683, 344.637 138.536 C 342.637 137.011, 341 135.960, 341 136.202 M 369.522 138.964 C 369.104 139.640, 367.494 139.808, 365.329 139.402 L 361.814 138.742 366.407 145.314 C 368.933 148.928, 371.014 152.474, 371.030 153.193 C 371.051 154.090, 371.349 154.007, 371.980 152.929 C 372.531 151.987, 372.544 148.846, 372.010 145.074 C 371.062 138.362, 370.598 137.223, 369.522 138.964 M 331.697 142.523 C 332.101 145.011, 331.788 146.577, 330.631 147.856 C 329.102 149.545, 329.190 150.028, 331.943 155.063 C 334.636 159.987, 334.758 160.610, 333.337 162.180 C 331.904 163.764, 331.586 163.775, 329.358 162.315 C 324.586 159.188, 320.704 161.539, 319.346 168.378 C 317.457 177.895, 312.904 181.553, 306.848 178.421 C 304.378 177.144, 303.259 177.064, 300.988 178.005 C 298.844 178.893, 297.657 178.887, 295.963 177.980 C 293.767 176.805, 293.751 176.849, 294.409 182.146 C 295.017 187.038, 294.834 187.785, 292.287 190.802 L 289.500 194.103 284.742 191.069 C 282.125 189.400, 278.750 187.748, 277.242 187.398 C 275.734 187.048, 273.462 186.113, 272.192 185.320 C 266.972 182.058, 264.533 183.788, 264.196 190.993 C 263.967 195.876, 263.384 198.027, 261.841 199.669 C 259.508 202.153, 259.849 203.050, 264.767 207.368 C 269.163 211.228, 270.300 214.063, 270.506 221.677 C 270.658 227.289, 270.963 228.098, 273.837 230.516 C 275.576 231.980, 277 233.718, 277 234.377 C 277 235.699, 279.655 241.101, 282.220 245 C 285.315 249.704, 285.418 252.526, 282.575 254.762 C 281.159 255.876, 279.996 257.623, 279.990 258.644 C 279.985 259.665, 278.941 262.750, 277.671 265.500 C 274.447 272.479, 270.570 286.438, 271.316 288.382 C 271.658 289.272, 272.853 290, 273.972 290 C 276.759 290, 283.373 286.349, 282.058 285.536 C 280.345 284.477, 280.842 281.453, 283.059 279.447 C 285.531 277.209, 288.126 278.356, 289.047 282.095 C 289.531 284.059, 290.202 284.456, 292.707 284.262 C 297.257 283.908, 298.737 286.275, 295.538 288.792 C 292.146 291.459, 292.335 293.539, 296.533 299.773 C 299.730 304.520, 300.006 305.471, 299.437 309.761 C 298.863 314.091, 299.071 314.778, 301.839 317.675 L 304.871 320.846 306.382 318.540 C 308.852 314.770, 313.388 313.707, 315.789 316.335 C 320.318 321.294, 322.303 328.297, 319.870 330.730 C 319.029 331.571, 319.654 332.032, 322.304 332.529 C 328.009 333.599, 329.558 336.021, 326.791 339.539 C 324.707 342.188, 324.688 342.330, 326.525 341.580 C 327.611 341.136, 329.297 340.544, 330.271 340.264 C 331.420 339.934, 331.729 339.359, 331.151 338.628 C 330.662 338.008, 329.965 335.858, 329.604 333.851 C 329.243 331.845, 328.123 329.145, 327.115 327.851 C 326.098 326.547, 325.059 323.136, 324.782 320.193 C 324.386 315.983, 323.634 314.218, 321.141 311.646 C 315.648 305.978, 317.349 302.397, 330.145 292.689 C 332.149 291.168, 334.328 288.622, 334.987 287.031 C 335.646 285.440, 338.883 281.792, 342.181 278.924 C 346.838 274.873, 348.061 273.238, 347.658 271.604 C 347.373 270.447, 346.714 267.853, 346.195 265.839 C 344.578 259.568, 348.972 257.981, 355.824 262.363 C 358.438 264.034, 362.844 263.706, 363.341 261.803 C 364.087 258.952, 363.062 256.503, 360.688 255.461 C 355.463 253.167, 358.786 240, 364.591 240 C 367.348 240, 367.906 238.540, 366.885 234 C 366.353 231.633, 366.516 229.852, 367.388 228.500 C 368.098 227.400, 368.981 224.955, 369.351 223.066 C 370.386 217.781, 372.811 215.519, 375.162 217.647 C 377.498 219.760, 377.512 219.346, 375.555 206.205 C 373.627 193.263, 372.199 181.965, 371.454 173.750 C 371.117 170.037, 370.366 167, 369.787 167 C 369.207 167, 365.518 163.947, 361.589 160.215 C 354.509 153.490, 340.520 142.388, 336.316 140.158 C 332.279 138.018, 331.067 138.638, 331.697 142.523 M 325.197 151.944 C 326.187 153.530, 326.110 154.221, 324.777 155.694 C 323.236 157.396, 323.311 157.500, 326.071 157.500 C 327.682 157.500, 328.998 157.275, 328.996 157 C 328.990 156.135, 325.055 150, 324.506 150 C 324.218 150, 324.529 150.875, 325.197 151.944 M 378.432 156.605 C 377.321 164.012, 380.036 197.444, 382.524 207 C 383.312 210.025, 384.163 213.400, 384.417 214.500 C 384.671 215.600, 384.657 209.300, 384.386 200.500 C 384.116 191.700, 383.744 178.375, 383.561 170.888 C 383.296 160.076, 382.871 156.733, 381.498 154.638 C 379.251 151.208, 379.240 151.215, 378.432 156.605 M 401.015 167.029 C 401.007 169.520, 401.910 177.845, 403.023 185.529 C 404.135 193.213, 405.323 201.640, 405.663 204.256 C 406.123 207.805, 406.585 208.759, 407.482 208.015 C 408.143 207.466, 409.052 207.351, 409.502 207.759 C 409.952 208.166, 409.979 207.908, 409.560 207.184 C 409.142 206.460, 408.685 201.060, 408.544 195.184 C 408.342 186.731, 407.736 182.877, 405.644 176.729 C 404.190 172.455, 402.993 168.180, 402.985 167.229 C 402.976 166.278, 402.533 164.825, 402 164 C 401.295 162.909, 401.026 163.736, 401.015 167.029 M 245 168.167 C 245 172.623, 245.146 172.849, 249.306 174.804 C 251.674 175.917, 255.235 178.625, 257.219 180.821 L 260.826 184.814 263.088 182.407 C 264.331 181.083, 266.283 179.998, 267.424 179.996 C 270.241 179.991, 265.433 177.094, 258.500 174.619 C 255.180 173.434, 252.072 171.275, 249.250 168.194 L 245 163.555 245 168.167 M 294.589 167.856 C 293.214 170.081, 292.081 174.068, 292.982 173.511 C 293.519 173.179, 294.909 173.416, 296.070 174.037 C 297.654 174.885, 298.905 174.868, 301.081 173.967 L 303.980 172.766 300.353 169.883 C 296.524 166.841, 295.450 166.463, 294.589 167.856 M 185.819 175.519 C 180.231 177.311, 174.915 183.001, 173.067 189.170 C 172.378 191.472, 171.214 194.288, 170.481 195.428 C 168.645 198.282, 167.486 205, 168.830 205 C 169.408 205, 170.160 204.550, 170.500 204 C 171.489 202.400, 175.003 202.839, 178.498 204.999 C 186.714 210.077, 192.924 227.752, 188.532 233.559 C 187.724 234.626, 187.049 236.241, 187.032 237.146 C 186.989 239.364, 180.435 245, 177.899 245 C 175.271 245, 172.169 243.379, 168.818 240.256 L 166.136 237.756 165.620 241.128 C 163.300 256.289, 165.515 277.763, 171.535 298.472 L 173.089 303.820 175.589 301.320 C 177.219 299.691, 178.683 299.050, 179.794 299.480 C 184.797 301.416, 187 301.292, 187 299.075 C 187 295.601, 184.513 291.786, 179.584 287.700 C 174.049 283.112, 174.069 283.509, 178.869 273.537 C 190.981 248.379, 191.562 246.801, 194.440 231.222 C 197.023 217.234, 201.232 209, 205.797 209 C 207.165 209, 211.311 208.099, 215.011 206.997 L 221.737 204.994 227.493 207.539 C 230.658 208.939, 233.323 209.953, 233.414 209.792 C 235.756 205.665, 235.538 203.345, 232.447 199.474 C 230.679 197.259, 229.065 194.575, 228.859 193.508 C 228.376 190.998, 215.092 180.737, 208 177.394 C 201.178 174.179, 192.331 173.432, 185.819 175.519 M 273.440 175.609 C 273.810 176.900, 273.459 178.204, 272.534 178.972 C 270.446 180.704, 271.388 181.758, 276.177 183.048 C 278.427 183.654, 281.997 185.293, 284.110 186.691 C 288.358 189.502, 291 189.202, 291 185.909 C 291 184.111, 290.753 183.960, 289.505 184.996 C 288.294 186.001, 287.511 185.882, 285.380 184.368 C 283.933 183.341, 281.568 181.725, 280.125 180.777 C 278.681 179.830, 276.450 177.805, 275.168 176.277 C 273.208 173.944, 272.932 173.837, 273.440 175.609 M 230.258 189.747 C 231.766 191.322, 233 193.241, 233 194.013 C 233 194.784, 234.618 197.072, 236.595 199.097 C 239.655 202.231, 240.027 203.082, 239.095 204.823 C 238.493 205.948, 238 207.788, 238 208.911 C 238 213.330, 233.872 214.360, 227.485 211.536 L 221.737 208.994 215.011 210.997 C 211.311 212.099, 207.376 213, 206.265 213 C 204.805 213, 203.690 214.315, 202.238 217.750 C 199.331 224.623, 198.532 228.266, 200.957 223.587 C 205.031 215.727, 210.032 213.633, 212.559 218.730 L 213.664 220.960 216.519 217.980 C 220.016 214.331, 221.002 214.289, 224.966 217.625 C 228.496 220.595, 227.692 222.642, 222.084 224.965 C 220.559 225.597, 218.679 227.550, 217.906 229.307 C 217.133 231.063, 215.544 232.920, 214.377 233.433 C 212.617 234.205, 212.145 235.532, 211.621 241.165 C 209.955 259.091, 214.007 286.096, 217.624 281.168 C 218.595 279.843, 218.576 279.191, 217.532 278 C 216.182 276.460, 216.009 275.541, 213.892 258.599 C 212.690 248.986, 212.716 248.649, 214.758 246.995 C 216.602 245.502, 216.682 245.110, 215.404 243.832 C 211.726 240.155, 221.086 227.052, 226.431 228.393 C 227.777 228.731, 229.174 228.528, 229.536 227.942 C 229.898 227.356, 231.163 226.459, 232.347 225.948 C 233.531 225.438, 235.417 224.349, 236.537 223.529 C 238.391 222.173, 239.151 222.312, 244.992 225.074 L 251.409 228.109 253.132 225.825 C 255.704 222.415, 255.926 219.407, 253.856 216.004 C 252.835 214.325, 252 211.784, 252 210.356 C 252 207.591, 234.005 189.351, 229.640 187.693 C 227.787 186.988, 227.866 187.250, 230.258 189.747 M 244.232 193 C 244.919 194.100, 245.774 195, 246.132 195 C 246.491 195, 249.156 197.133, 252.055 199.740 C 254.955 202.346, 256.824 203.540, 256.210 202.393 C 255.508 201.080, 255.445 199.955, 256.040 199.360 C 257.436 197.964, 248.698 191, 245.551 191 C 243.233 191, 243.105 191.195, 244.232 193 M 279.278 202.122 C 277.626 203.774, 278.793 205.873, 284.773 212 L 290.141 217.500 297.200 217.500 C 302.775 217.500, 304.489 217.140, 305.352 215.786 C 306.727 213.628, 303.106 208.340, 300.570 208.804 C 299.656 208.972, 298.137 208.156, 297.194 206.991 C 296.105 205.646, 293.843 204.661, 290.990 204.291 C 288.520 203.970, 285.612 203.098, 284.527 202.354 C 282.127 200.706, 280.754 200.646, 279.278 202.122 M 390 208.642 C 390 210.829, 390.632 213.483, 391.405 214.540 C 392.637 216.224, 392.688 215.785, 391.817 210.981 C 390.589 204.207, 390 203.449, 390 208.642 M 286.558 209.139 C 289.909 213.285, 291.673 214.014, 298 213.870 C 300.475 213.814, 301.600 213.541, 300.500 213.263 C 299.400 212.985, 297.228 211.687, 295.673 210.379 C 293.976 208.950, 291.559 208, 289.623 208 C 287.850 208, 285.774 207.438, 285.008 206.750 C 284.243 206.063, 284.940 207.138, 286.558 209.139 M 169.305 208.772 L 167.111 210.500 169.597 213.355 C 171.763 215.841, 172.562 216.128, 175.792 215.582 C 177.831 215.237, 180.249 214.868, 181.166 214.763 C 182.657 214.591, 182.624 214.280, 180.846 211.784 C 177.303 206.809, 173.170 205.730, 169.305 208.772 M 255.815 210.190 C 256.076 211.971, 257.073 214.717, 258.031 216.292 C 260.097 219.688, 259.660 222.063, 255.938 227.675 C 253.598 231.203, 253.410 231.944, 254.727 232.449 C 256.561 233.152, 256.287 233.401, 258.524 229.008 C 261.843 222.488, 261.718 212.991, 258.270 209.725 L 255.339 206.951 255.815 210.190 M 323.107 210.371 C 322.451 211.162, 322.178 212.864, 322.500 214.154 C 322.951 215.958, 322.556 216.731, 320.793 217.500 C 317.271 219.036, 317.390 222.309, 321.081 225.415 C 324.462 228.259, 326.836 228.460, 327.987 226 C 328.373 225.175, 329.233 223.455, 329.898 222.178 C 332.251 217.658, 326.033 206.846, 323.107 210.371 M 264.753 219.787 C 264.201 225.870, 260.004 235.677, 257.550 236.619 C 256.797 236.908, 254.737 236.398, 252.973 235.486 L 249.766 233.828 251.383 236.136 C 253.684 239.422, 253.404 241.239, 250.109 244.395 C 247.326 247.062, 247.108 247.107, 244.218 245.613 L 241.217 244.061 242.358 246.523 C 243.875 249.794, 245.929 249.637, 250.612 245.891 C 257.148 240.665, 271.536 243.020, 274.089 249.733 C 275.313 252.954, 273.781 260.970, 271.088 265.426 C 268.683 269.405, 262 286.267, 262 288.356 C 262 289.881, 255.673 303.640, 252.508 309 C 249.695 313.763, 245 324.925, 245 326.851 C 245 329.056, 247.430 330.316, 250.067 329.479 C 251.050 329.167, 253.554 329.623, 255.634 330.491 C 260.056 332.339, 263.102 331.501, 269.234 326.750 C 273.542 323.412, 276.917 323.426, 278.586 326.787 C 279.211 328.046, 280.687 330.102, 281.867 331.358 L 284.011 333.641 281.756 335.636 C 277.847 339.093, 270.022 343.794, 260.117 348.637 C 255.357 350.964, 253.907 351.206, 247.598 350.729 C 239.615 350.125, 235.575 351.572, 238.489 353.991 C 239.553 354.874, 240.372 354.936, 241.258 354.201 C 242.629 353.063, 251.862 354.804, 258.084 357.374 C 262.496 359.197, 269.606 359.255, 273.005 357.497 C 275.661 356.124, 286.738 353.309, 298.802 350.941 C 303.212 350.076, 304.789 349.389, 304.052 348.652 C 302.370 346.970, 302.833 342.424, 304.947 339.861 C 306.833 337.573, 306.986 337.552, 309.883 339.167 C 312.353 340.544, 312.776 340.579, 312.310 339.366 C 312 338.559, 312.782 336.796, 314.048 335.449 C 316.026 333.344, 316.105 333, 314.615 333 C 313.662 333, 313.129 333.399, 313.430 333.887 C 313.731 334.374, 313.308 335.329, 312.489 336.009 C 310.798 337.412, 307.529 335.571, 308.609 333.824 C 308.932 333.301, 308.412 332.008, 307.455 330.950 C 305.748 329.064, 305.642 329.091, 302.099 332.291 C 300.112 334.087, 297.020 336.163, 295.230 336.905 C 293.323 337.694, 291.738 339.197, 291.403 340.532 C 291.088 341.785, 289.830 343.751, 288.606 344.900 L 286.382 346.990 283.135 343.639 L 279.887 340.288 282.487 337.197 C 283.918 335.498, 285.967 333.828, 287.041 333.487 C 288.115 333.146, 290.124 330.938, 291.506 328.581 C 292.887 326.223, 294.912 323.484, 296.005 322.495 C 297.627 321.028, 297.764 320.421, 296.752 319.201 C 296.040 318.343, 295.508 314.878, 295.505 311.081 C 295.501 305.272, 295.086 303.811, 292.138 299.216 C 289.701 295.417, 288.895 293.165, 289.209 291.027 C 289.750 287.343, 287.335 286.076, 285.303 288.978 C 284.524 290.090, 283.125 291.014, 282.193 291.032 C 281.262 291.049, 279.626 291.724, 278.559 292.532 C 276.129 294.370, 270.611 294.441, 269.128 292.655 C 266.091 288.995, 268.036 277.676, 273.881 265 C 275.022 262.525, 275.966 259.295, 275.978 257.823 C 275.992 256.164, 276.968 254.384, 278.543 253.144 C 281.386 250.909, 281.211 250.161, 275.500 240.093 C 274.125 237.669, 273 235.081, 273 234.343 C 273 233.604, 272.395 233, 271.655 233 C 268.518 233, 266.760 229.199, 266.618 222.110 C 266.442 213.349, 265.449 212.113, 264.753 219.787 M 408.445 215.282 C 407.683 217.268, 410.608 233.008, 411.997 234.397 C 412.718 235.118, 412.884 234.524, 412.540 232.469 C 412.266 230.836, 411.564 226.144, 410.980 222.042 C 409.839 214.031, 409.387 212.827, 408.445 215.282 M 161.032 218.191 C 161.014 220.221, 161.450 222.160, 162 222.500 C 162.550 222.840, 163 222.678, 163 222.141 C 163 221.603, 163.235 220.551, 163.522 219.803 C 163.809 219.055, 163.374 217.556, 162.554 216.471 C 161.146 214.609, 161.062 214.704, 161.032 218.191 M 218.661 220.442 C 218.356 221.235, 216.900 222.675, 215.424 223.642 C 212.782 225.373, 212.704 225.357, 210.369 222.642 C 209.064 221.125, 207.540 220.166, 206.983 220.510 C 204.643 221.957, 200.647 233.967, 199.002 244.500 C 198.400 248.350, 197.029 253.201, 195.954 255.281 C 194.879 257.360, 194 259.621, 194 260.305 C 194 260.989, 192.019 265.025, 189.597 269.274 C 187.176 273.523, 185.566 277, 186.021 277 C 187.731 277, 193 271.750, 193 270.046 C 193 263.764, 200.438 261.172, 205.328 265.750 L 208.266 268.500 207.611 258.729 C 206.538 242.713, 207.720 233.068, 210.985 231.194 C 212.456 230.350, 214.384 228.395, 215.271 226.850 C 216.158 225.306, 218.258 223.206, 219.938 222.184 C 221.618 221.162, 222.694 220.028, 222.330 219.663 C 221.190 218.523, 219.238 218.937, 218.661 220.442 M 389.728 220.605 C 389.328 221.006, 389 222.930, 389 224.881 C 389 228.010, 389.174 228.254, 390.477 226.952 C 391.506 225.923, 391.727 224.625, 391.205 222.676 C 390.794 221.136, 390.129 220.204, 389.728 220.605 M 373.040 223.785 C 373.018 225.042, 372.286 227.160, 371.414 228.491 C 370.541 229.823, 370.104 231.360, 370.442 231.907 C 373.271 236.484, 369.844 244, 364.927 244 C 362.314 244, 362.181 244.220, 362.467 248.063 C 362.657 250.600, 363.628 253.039, 365.052 254.555 C 371.453 261.369, 362.987 271.908, 355.686 266.214 C 352.639 263.838, 349.767 264.029, 350.396 266.566 C 350.728 267.905, 351.284 270.159, 351.631 271.576 C 352.166 273.759, 351.462 274.904, 347.017 279.076 C 344.133 281.784, 341.457 284, 341.072 284 C 340.686 284, 339.629 285.556, 338.722 287.457 C 337.815 289.359, 333.682 293.698, 329.537 297.100 C 321.319 303.844, 319.697 307.697, 324.085 310.045 C 326.761 311.477, 329 316.853, 329 321.845 C 329 324.095, 329.635 326.282, 330.495 326.996 C 331.318 327.679, 332.514 329.984, 333.154 332.119 C 334.488 336.571, 334.026 336.473, 344.338 334.500 C 348.649 333.675, 354.569 333, 357.494 333 C 362.242 333, 362.759 332.794, 362.312 331.085 C 360.847 325.483, 370.601 325.135, 374.928 330.635 C 375.951 331.936, 377.623 333, 378.644 333 C 380.798 333.001, 380.969 299.365, 378.938 275 C 378.364 268.125, 377.532 254.606, 377.088 244.958 C 376.492 231.995, 375.864 226.643, 374.681 224.458 C 373.200 221.722, 373.077 221.671, 373.040 223.785 M 418.788 222.682 C 416.891 223.181, 416.983 224.545, 419.695 236 C 421.317 242.854, 421.507 248.882, 420.472 260.677 C 419.934 266.806, 420.356 270.016, 423.366 282.677 C 429.702 309.325, 430.898 315.299, 433.042 331 C 434.206 339.525, 436.456 354.600, 438.042 364.500 C 439.629 374.400, 441.396 386.651, 441.970 391.725 C 443.131 401.988, 446.291 411.818, 447.350 408.459 C 447.690 407.381, 447.487 401.775, 446.900 396 C 446.312 390.225, 445.440 380.100, 444.960 373.500 C 444.481 366.900, 443.816 360.150, 443.483 358.500 C 443.150 356.850, 442.503 351.900, 442.046 347.500 C 441.588 343.100, 440.221 335, 439.008 329.500 C 437.794 324, 436.806 318.825, 436.810 318 C 436.823 315.766, 434.166 302.559, 431.948 293.833 C 428.688 281.003, 429.896 276.630, 435.287 281.752 L 438.178 284.500 436.696 281 C 433.726 273.985, 431.764 263.190, 432.166 256.075 C 432.525 249.707, 432.418 249.217, 430.953 250.542 C 427.561 253.612, 425.260 248.819, 424.451 237 C 423.734 226.533, 422.745 221.896, 421.275 222.116 C 420.849 222.180, 419.730 222.434, 418.788 222.682 M 222.618 232.715 C 218.494 236.840, 217.903 244.934, 221.832 243.489 C 222.564 243.220, 224.027 243, 225.082 243 C 226.318 243, 227 242.306, 227 241.047 C 227 239.973, 227.537 237.916, 228.193 236.475 C 229.742 233.076, 225.272 230.061, 222.618 232.715 M 385.029 235.083 C 385.057 238.375, 385.654 246.935, 388.020 277.990 C 389.220 293.736, 390.389 296.932, 394.204 294.891 C 395.278 294.316, 396.798 294.092, 397.582 294.393 C 398.771 294.849, 398.902 293.737, 398.371 287.720 C 397.779 281.010, 395.802 276.386, 394 277.500 C 391.703 278.920, 390.095 273.862, 389.073 262 C 387.120 239.340, 384.942 224.839, 385.029 235.083 M 167 233.888 C 167 235.350, 172.882 239.932, 175.651 240.627 C 178.636 241.376, 183 239.605, 183 237.643 C 183 235.742, 175.047 233.716, 173.294 235.171 C 172.364 235.943, 171.319 235.784, 169.505 234.595 C 168.127 233.692, 167 233.374, 167 233.888 M 240.698 235.954 C 240.960 236.955, 240.642 238.103, 239.992 238.505 C 239.254 238.961, 240.387 239.942, 243.006 241.114 C 247.587 243.165, 249 242.897, 249 239.976 C 249 238.090, 247.439 236.878, 242.678 235.068 C 240.569 234.266, 240.290 234.391, 240.698 235.954 M 407.655 236.519 C 408.628 242.741, 409.089 244.063, 410.073 243.455 C 411.661 242.473, 413.809 244.828, 414.510 248.319 C 415.770 254.588, 416.141 255.387, 417.094 253.882 C 418.856 251.101, 417.797 243.389, 415.821 244.611 C 414.520 245.415, 410 241.072, 410 239.017 C 410 238.118, 409.368 236.517, 408.595 235.460 C 407.289 233.675, 407.222 233.750, 407.655 236.519 M 229.530 245.951 C 229.174 246.528, 227.360 247, 225.500 247 C 221.270 247, 220.870 247.659, 222.125 252.560 L 223.134 256.500 228.817 256.712 C 241.175 257.174, 246 259.646, 246 265.514 C 246 267.366, 245.550 269.160, 245 269.500 C 244.450 269.840, 244 270.854, 244 271.754 C 244 274.469, 238.917 279, 235.872 279 C 234.357 279, 232.849 279.435, 232.520 279.967 C 232.191 280.499, 230.590 280.668, 228.961 280.342 C 226.088 279.768, 226.019 279.844, 226.634 282.918 C 227.131 285.407, 226.770 286.616, 224.949 288.554 L 222.632 291.021 219.816 288.323 L 217 285.626 217 288.658 C 217 292.278, 214.569 294.728, 209.618 296.095 C 202.476 298.067, 207.237 305.986, 215.571 305.996 C 219.248 306.001, 228.329 314.010, 227.815 316.795 C 227.642 317.733, 225.588 319.388, 223.250 320.474 C 218.145 322.845, 218.037 323.442, 222.250 326.011 C 226.782 328.774, 228.847 328.558, 229.526 325.250 C 229.837 323.738, 230.533 320.830, 231.074 318.788 C 231.615 316.747, 231.772 313.940, 231.424 312.551 C 230.901 310.468, 231.571 309.266, 235.255 305.686 C 240.239 300.842, 245 292.260, 245 288.121 C 245 286.272, 246.273 284.162, 248.991 281.508 C 253.471 277.135, 262.650 259.222, 263.175 253.829 C 263.667 248.791, 257.800 248.459, 251.913 253.191 C 246.221 257.764, 237.566 258.021, 233.287 253.742 C 230.951 251.406, 230.711 250.692, 231.720 249.077 C 232.662 247.569, 232.625 246.934, 231.544 246.037 C 230.605 245.257, 229.976 245.231, 229.530 245.951 M 394.419 253.500 C 394.720 257.900, 395.424 262.850, 395.984 264.500 C 396.759 266.788, 396.883 265.284, 396.506 258.171 C 396.233 253.039, 395.529 248.089, 394.941 247.171 C 394.154 245.942, 394.016 247.615, 394.419 253.500 M 236.200 248.200 C 234.783 249.617, 234.607 252, 235.918 252 C 236.423 252, 237.661 252.309, 238.668 252.687 C 240.227 253.272, 240.311 253.142, 239.233 251.814 C 238.536 250.956, 238.246 249.521, 238.590 248.627 C 239.320 246.723, 237.926 246.474, 236.200 248.200 M 266.908 249.389 C 269.570 252.597, 260.026 274.640, 253.006 281.494 C 250.276 284.160, 249 286.270, 249 288.121 C 249 291.972, 244.434 300.573, 239.610 305.810 C 236.457 309.232, 235.479 311.112, 235.410 313.885 C 234.959 332.075, 227.257 337.029, 217.213 325.590 L 214.129 322.078 213.070 325.289 C 212.487 327.055, 211.976 328.950, 211.934 329.500 C 211.601 333.864, 204.855 334.857, 200.667 331.159 C 198.902 329.600, 198.931 329.456, 201.417 327.318 C 204.525 324.645, 204.604 323.856, 202 321.500 C 200.900 320.505, 199.993 318.972, 199.985 318.095 C 199.960 315.495, 198.555 314.019, 195.182 313.052 C 192.381 312.249, 192.107 312.340, 192.867 313.821 C 193.342 314.744, 193.528 316.063, 193.282 316.750 C 193.035 317.438, 193.476 318, 194.262 318 C 195.950 318, 199 321.137, 199 322.874 C 199 323.543, 197.903 325.188, 196.563 326.528 L 194.125 328.966 197.602 330.615 C 199.514 331.523, 203.358 334.314, 206.143 336.819 L 211.208 341.373 210.540 346.411 C 210.172 349.183, 209.395 352.024, 208.813 352.725 C 206.552 355.450, 215.720 352.468, 219.151 349.363 C 220.550 348.098, 222.351 347.927, 228.688 348.462 C 234.776 348.975, 236.937 348.797, 238.481 347.655 C 239.972 346.552, 242.227 346.323, 247.598 346.729 C 255.578 347.332, 263.560 344.245, 276.213 335.659 L 278.926 333.819 276.775 330.909 C 274.120 327.319, 273.674 327.314, 269.144 330.822 C 263.128 335.480, 260.035 336.330, 255.699 334.519 C 253.655 333.665, 250.933 333.230, 249.650 333.552 C 246.786 334.271, 241 329.801, 241 326.869 C 241 324.929, 245.683 313.782, 248.508 309 C 251.673 303.640, 258 289.881, 258 288.356 C 258 286.267, 264.683 269.405, 267.088 265.426 C 271.444 258.218, 271.593 248, 267.342 248 C 266.101 248, 266.007 248.303, 266.908 249.389 M 217.674 257.500 C 217.997 261.900, 218.653 266.542, 219.131 267.815 C 219.609 269.088, 220 271.396, 220 272.943 C 220 276.603, 222.387 278.753, 224.502 276.998 C 225.386 276.264, 227.223 275.995, 228.964 276.343 C 230.591 276.668, 232.191 276.499, 232.520 275.967 C 232.849 275.435, 234.456 275, 236.090 275 C 238.048 275, 239.248 274.403, 239.604 273.250 C 239.902 272.288, 240.563 270.719, 241.073 269.764 C 244.362 263.603, 241.358 261.255, 229.429 260.663 C 220.946 260.242, 219.995 259.649, 218.293 253.710 C 217.178 249.820, 217.131 250.108, 217.674 257.500 M 187.447 263.586 C 184.612 270.727, 184.624 271.054, 187.519 265.674 C 188.947 263.019, 189.953 260.360, 189.755 259.764 C 189.556 259.168, 188.518 260.888, 187.447 263.586 M 197.667 267.667 C 197.300 268.033, 197 268.960, 197 269.725 C 197 272.101, 190.696 279.100, 187.264 280.534 C 184.049 281.877, 183.148 283.355, 184.887 284.430 C 185.374 284.731, 186.329 284.308, 187.009 283.489 C 188.928 281.176, 191.601 281.711, 195.579 285.204 L 199.228 288.407 196.558 290.704 L 193.888 293 197.194 292.965 C 199.012 292.945, 201.625 292.286, 203 291.500 C 204.375 290.714, 206.738 290.055, 208.250 290.035 C 212.401 289.982, 211.975 284.895, 206.989 274.978 C 203.081 267.205, 200.305 265.028, 197.667 267.667 M 221 283.382 C 221 284.757, 221.450 286.160, 222 286.500 C 222.565 286.849, 223 286.030, 223 284.618 C 223 283.243, 222.550 281.840, 222 281.500 C 221.435 281.151, 221 281.970, 221 283.382 M 434 285.524 C 434 285.878, 434.877 289.617, 435.948 293.833 C 438.834 305.188, 441.149 316.945, 440.663 317.773 C 439.731 319.357, 442.027 323.373, 443.195 322.205 C 445.237 320.163, 445.163 310.007, 443.082 306.575 C 442.056 304.884, 440.035 299.584, 438.591 294.798 C 436.430 287.636, 434 282.728, 434 285.524 M 416.561 300.750 C 418.420 325.223, 424.474 358.097, 429.864 373 C 432.511 380.316, 432.462 377.819, 429.603 359.696 C 428.284 351.338, 426.913 341.575, 426.554 338 C 425.812 330.595, 421.614 307.573, 419.305 298.250 C 417.070 289.228, 415.775 290.408, 416.561 300.750 M 201.662 296.130 C 200.651 296.717, 198.401 297.034, 196.662 296.833 C 193.701 296.490, 193.488 296.678, 193.316 299.801 C 193.215 301.635, 192.613 303.761, 191.978 304.526 C 191.057 305.637, 191.295 306.019, 193.162 306.420 C 212.936 310.664, 219 313.063, 219 316.640 C 219 317.984, 222.344 317.797, 223.927 316.365 C 225.137 315.271, 218.364 310, 215.747 310 C 207.977 310, 199.130 300.270, 203.200 296.200 C 204.666 294.734, 204.107 294.708, 201.662 296.130 M 393 299.362 C 391.625 299.957, 390.159 300.907, 389.741 301.472 C 388.773 302.783, 389.978 329.001, 391.098 331 C 391.829 332.303, 391.943 332.291, 391.970 330.905 C 392.011 328.722, 395.602 325.636, 397.055 326.534 C 397.954 327.090, 398.061 324.336, 397.501 315.016 C 396.539 299, 396.239 297.958, 393 299.362 M 405.382 307.039 C 405.618 310.085, 406.795 314.464, 407.997 316.770 C 409.199 319.076, 410.787 324.459, 411.525 328.732 L 412.867 336.500 412.310 327.500 C 411.901 320.896, 411.281 317.968, 409.982 316.500 C 409.008 315.400, 407.881 312.475, 407.478 310 C 406.279 302.642, 404.888 300.676, 405.382 307.039 M 184 310.429 C 184 311.139, 187.090 314, 187.857 314 C 188.250 314, 188.571 313.100, 188.571 312 C 188.571 310.583, 187.905 310, 186.286 310 C 185.029 310, 184 310.193, 184 310.429 M 202.506 314.313 C 203.328 315.485, 204 317.175, 204 318.068 C 204 318.960, 204.900 320.505, 206 321.500 C 207.100 322.495, 208.014 324.028, 208.030 324.905 C 208.054 326.133, 208.315 326.040, 209.164 324.500 C 209.771 323.400, 211.419 321.260, 212.827 319.743 C 216.017 316.308, 215.290 315.511, 207.252 313.636 L 201.013 312.180 202.506 314.313 M 179.200 318.051 C 178.322 319.457, 178.243 320.591, 178.939 321.785 C 179.489 322.728, 179.953 323.127, 179.970 322.672 C 179.986 322.217, 181.874 323.448, 184.164 325.408 C 187.402 328.180, 188.631 328.722, 189.688 327.844 C 191.299 326.507, 191.155 326.323, 186.829 324.162 C 184.998 323.248, 183.495 321.724, 183.489 320.775 C 183.468 317.505, 180.656 315.720, 179.200 318.051 M 404.189 319 C 404.273 323.420, 405.605 327.682, 406.366 325.968 C 406.740 325.126, 406.393 322.651, 405.594 320.468 C 404.465 317.386, 404.152 317.058, 404.189 319 M 302.541 323.933 C 302.179 324.520, 300.886 325, 299.668 325 C 298.156 325, 296.846 326.130, 295.535 328.566 C 293.880 331.638, 291.704 333.861, 285.199 339.121 C 284.173 339.952, 284.155 340.482, 285.117 341.641 C 286.152 342.888, 286.512 342.687, 287.514 340.304 C 288.922 336.955, 290.759 335.326, 296.877 332 C 299.412 330.622, 302.083 328.232, 302.829 326.674 C 304.129 323.958, 303.897 321.740, 302.541 323.933 M 183.120 332.037 C 185.153 341.089, 187.355 344.302, 192.740 346.079 C 196.740 347.399, 197.958 346.412, 197.985 341.826 C 198.001 338.978, 196.411 337.446, 187.393 331.625 L 182.286 328.328 183.120 332.037 M 366.410 331.627 C 366.754 332.521, 366.544 333.845, 365.944 334.568 C 365.085 335.603, 365.665 336.010, 368.677 336.485 C 375.732 337.599, 380.130 339.350, 382.072 341.819 L 384 344.270 384 339.935 C 384 336.838, 383.692 335.908, 382.923 336.677 C 381.148 338.452, 374.992 336.437, 371.921 333.075 C 368.889 329.755, 365.333 328.821, 366.410 331.627 M 396 330.944 C 396 331.633, 394.616 333.491, 392.923 335.072 C 389.868 337.926, 389.855 337.983, 390.989 343.446 C 391.626 346.517, 391.824 350.989, 391.437 353.572 C 390.976 356.644, 391.264 360.096, 392.293 363.849 C 393.145 366.957, 394.357 374.225, 394.985 380 C 396.603 394.882, 396.636 394.980, 399.558 393.620 C 403.080 391.981, 403.269 390.684, 401.882 377.725 C 400.750 367.145, 400.786 365.785, 402.239 364.332 C 403.729 362.843, 404.011 362.970, 405.818 365.941 C 407.066 367.993, 408.037 368.748, 408.489 368.018 C 408.993 367.203, 409.750 367.369, 411.099 368.590 C 412.945 370.260, 413 370.153, 412.985 364.905 C 412.973 360.737, 411.083 353.509, 411.015 357.372 C 411.007 357.852, 410.381 357.731, 409.625 357.104 C 406.592 354.587, 406.947 343.613, 410 345.500 C 410.425 345.763, 409.924 344.313, 408.887 342.277 C 407.849 340.242, 406.993 337.660, 406.985 336.539 C 406.963 333.660, 405.458 331.450, 404.536 332.942 C 403.999 333.811, 403.467 333.803, 402.387 332.906 C 401.597 332.251, 400.662 332.005, 400.307 332.360 C 399.952 332.714, 398.838 332.259, 397.831 331.347 C 396.578 330.213, 396 330.086, 396 330.944 M 200.477 337.974 C 202.390 340.089, 202.027 347.057, 199.868 349.659 C 199.087 350.600, 199.462 351.078, 201.355 351.553 C 204.935 352.451, 205.789 351.590, 206.586 346.278 C 207.252 341.833, 207.121 341.465, 203.931 338.801 C 200.077 335.583, 197.825 335.045, 200.477 337.974 M 369.787 345.213 C 371.057 347.866, 371.859 350.419, 371.570 350.886 C 371.281 351.354, 373.060 351.011, 375.523 350.126 C 383.208 347.362, 381.052 342.491, 371.489 341.011 L 367.478 340.390 369.787 345.213 M 307 344 C 307 345.313, 307.667 346, 308.941 346 C 311.724 346, 312.396 344.282, 310.094 343.050 C 307.375 341.595, 307 341.711, 307 344 M 359.364 344.858 C 360.871 346.431, 362.174 348.665, 362.262 349.825 C 362.400 351.657, 365.701 352.086, 367.739 350.537 C 367.871 350.437, 367.240 348.475, 366.338 346.177 C 364.789 342.235, 364.469 342, 360.661 342 L 356.626 342 359.364 344.858 M 446.378 348.500 C 446.625 352.350, 447.108 356.850, 447.449 358.500 C 447.791 360.150, 448.337 364.979, 448.663 369.230 C 449 373.633, 449.658 376.712, 450.190 376.382 C 450.705 376.064, 452.057 376.636, 453.196 377.652 C 455.217 379.457, 455.252 379.453, 454.686 377.500 C 452.713 370.692, 452.764 367.880, 454.899 365.607 C 456.932 363.444, 456.972 363.050, 455.680 358.002 C 454.853 354.771, 454.019 353.160, 453.559 353.904 C 452.397 355.785, 449.007 352.238, 448.965 349.095 C 448.945 347.668, 448.254 345.375, 447.429 344 C 446.020 341.653, 445.956 341.929, 446.378 348.500 M 345.031 349.485 L 347.516 351.971 352.748 350.235 C 359.966 347.841, 359.322 347, 350.273 347 L 342.545 347 345.031 349.485 M 327 351.985 C 322.325 352.338, 313.325 353.844, 307 355.333 C 300.675 356.821, 292.350 358.734, 288.500 359.584 C 284.650 360.433, 276.209 363.574, 269.741 366.564 C 263.274 369.554, 257.537 372, 256.991 372 C 256.446 372, 256 372.469, 256 373.043 C 256 373.616, 254.059 376.204, 251.686 378.793 C 246.891 384.026, 239.572 393.639, 236.302 399 C 234.188 402.467, 230.490 414.823, 231.318 415.652 C 231.876 416.209, 238.228 410.993, 239.397 409.017 C 242.729 403.386, 261.463 388.722, 269 385.845 C 271.989 384.704, 283.513 378, 290.556 373.305 C 293.479 371.357, 301.287 368.086, 309.064 365.552 C 324.344 360.575, 340.209 353.874, 340.781 352.156 C 341.191 350.927, 341.068 350.925, 327 351.985 M 218.500 354.149 C 216.502 355.482, 216.168 355.983, 217.500 355.649 C 218.600 355.372, 221.412 354.849, 223.750 354.485 C 226.088 354.122, 228 353.414, 228 352.912 C 228 351.266, 221.564 352.103, 218.500 354.149 M 252 359.521 C 252 360.305, 261.455 364.058, 262.739 363.784 C 263.472 363.628, 261.355 362.518, 258.035 361.318 C 254.716 360.118, 252 359.309, 252 359.521 M 246.232 363.750 C 246.886 365.262, 248.381 367.963, 249.554 369.752 L 251.687 373.003 253.593 370.884 C 254.642 369.718, 256.371 368.439, 257.436 368.041 C 259.026 367.448, 258.258 366.751, 253.157 364.159 C 245.534 360.285, 244.713 360.237, 246.232 363.750 M 420.218 373 C 420.208 374.375, 420.560 376.625, 421 378 C 422.076 381.361, 422.076 377.730, 421 373.500 C 420.314 370.805, 420.235 370.754, 420.218 373 M 301.637 374.777 L 298.774 376.500 299.396 387.104 C 299.962 396.750, 299.836 397.938, 298.009 400.262 C 296.904 401.666, 296 403.499, 296 404.335 C 296 405.171, 294.873 406.741, 293.496 407.825 C 289.077 411.301, 289.072 415.610, 293.481 419.245 C 295.549 420.950, 297.887 423.730, 298.676 425.422 C 299.540 427.278, 299.936 427.643, 299.673 426.342 C 299.432 425.155, 300.288 422.330, 301.576 420.064 C 303.963 415.861, 303.885 413.885, 301.208 410.766 C 300.045 409.412, 299.878 407.661, 300.443 402.766 C 300.841 399.320, 301.111 394.446, 301.044 391.935 C 300.956 388.671, 301.522 386.606, 303.030 384.689 C 304.409 382.936, 304.912 381.299, 304.486 379.956 C 304.101 378.744, 304.493 376.897, 305.440 375.451 C 307.393 372.471, 305.905 372.207, 301.637 374.777 M 368.548 379.947 C 367.183 381.455, 366.953 382.353, 367.731 383.131 C 368.509 383.909, 369.141 383.605, 369.972 382.052 C 371.671 378.878, 370.749 377.515, 368.548 379.947 M 416.079 385.050 C 415.977 389.629, 414.246 391.533, 412.018 389.516 C 410.540 388.179, 410.504 389.151, 411.573 401.328 C 412.213 408.626, 413.011 415.475, 413.345 416.548 C 413.679 417.622, 413.608 421.687, 413.186 425.582 L 412.418 432.664 416.877 431.831 C 419.329 431.373, 421.598 430.736, 421.918 430.416 C 422.775 429.560, 422.851 414.974, 421.996 415.503 C 418.750 417.509, 413.787 391.642, 416.833 388.596 C 417.908 387.521, 417.992 386.536, 417.195 384.348 L 416.158 381.500 416.079 385.050 M 369.454 387.789 C 370.071 390.600, 369.750 391.432, 367.084 393.922 C 365.388 395.506, 364 397.264, 364 397.829 C 364 398.393, 362.875 399.740, 361.500 400.821 C 360.125 401.903, 359 403.611, 359 404.616 C 359 406.205, 359.208 406.148, 360.585 404.182 C 361.768 402.494, 362.720 402.099, 364.335 402.628 C 365.526 403.017, 367.876 403.252, 369.558 403.150 C 373.297 402.922, 376.233 405.827, 377.998 411.500 C 379.584 416.602, 380.790 417.947, 382.026 415.992 C 383.724 413.307, 383.114 408.913, 380.782 407.025 C 378.901 405.502, 378.765 404.988, 379.882 403.642 C 381.013 402.280, 380.688 401.572, 377.600 398.659 C 375.551 396.726, 374 394.300, 374 393.026 C 374 391.796, 372.816 389.382, 371.370 387.663 L 368.739 384.537 369.454 387.789 M 269.750 389.381 C 267.875 390.213, 267.326 390.926, 268.024 391.624 C 269.699 393.299, 265.443 396.613, 263.591 395.075 C 261.704 393.510, 255.144 396.544, 256.811 398.211 C 257.532 398.932, 257.294 400.519, 256.036 403.376 C 253.705 408.668, 250.112 420.682, 249.040 426.766 C 248.582 429.370, 247.604 432.983, 246.867 434.795 C 244.928 439.565, 247.346 440.931, 250.691 436.955 C 252.433 434.886, 254.369 433.918, 257.793 433.408 C 260.382 433.022, 263.400 432.148, 264.500 431.465 C 265.600 430.783, 268.200 429.926, 270.279 429.562 C 272.357 429.197, 275.639 427.966, 277.572 426.825 C 280.906 424.858, 281 424.657, 279.407 422.897 C 277.930 421.265, 277.881 420.495, 279.006 416.480 C 279.979 413.002, 280.012 411.321, 279.142 409.411 C 277.592 406.011, 277.445 406.361, 282.500 401.448 C 284.975 399.043, 287 396.587, 287 395.992 C 287 393.908, 282.023 389.858, 280.181 390.443 C 279.199 390.754, 277.519 390.347, 276.448 389.536 C 274.139 387.791, 273.378 387.773, 269.750 389.381 M 406.133 391.673 C 406.060 392.319, 404.825 394.243, 403.389 395.949 C 400.797 399.030, 400.781 399.149, 401.150 413.384 C 401.547 428.758, 402.244 431, 406.622 431 C 410.056 431, 410.250 425.836, 407.676 403 C 406.901 396.125, 406.207 391.028, 406.133 391.673 M 426.563 397.126 C 427.315 400.632, 427.946 405.214, 427.965 407.309 C 427.987 409.671, 428.393 410.875, 429.034 410.479 C 430.764 409.410, 429.089 394.837, 426.982 392.626 C 425.265 390.824, 425.249 390.996, 426.563 397.126 M 455.664 396.651 C 454.203 398.604, 453.541 398.864, 452.414 397.929 C 451.260 396.971, 451.022 397.191, 451.118 399.128 C 451.332 403.421, 452.476 406.494, 454 406.872 C 454.825 407.076, 456.288 407.466, 457.250 407.739 C 458.766 408.167, 458.991 407.517, 458.930 402.867 C 458.828 395.124, 457.995 393.537, 455.664 396.651 M 473.581 401.538 C 474.450 403.620, 475.774 408.287, 476.523 411.911 C 478.723 422.555, 479.975 427.080, 481.493 429.874 C 483.364 433.318, 483.401 430.716, 481.562 425 C 480.765 422.525, 479.566 417.125, 478.896 413 C 477.606 405.054, 476.124 401.178, 473.566 399.055 C 472.152 397.881, 472.153 398.122, 473.581 401.538 M 357.204 413.086 L 354.907 415.928 357.975 414.859 C 362.209 413.383, 364.428 415.224, 363.501 419.444 C 361.774 427.302, 362.296 429.758, 365 426.500 C 365.685 425.675, 367.315 425, 368.622 425 C 371.383 425, 371.758 422.587, 369.468 419.559 C 368.661 418.491, 368 416.579, 368 415.309 C 368 413.473, 367.452 413, 365.329 413 C 363.860 413, 361.947 412.380, 361.079 411.622 C 359.708 410.426, 359.197 410.620, 357.204 413.086 M 461.939 414.416 L 458.378 417.681 459.080 427.590 C 459.739 436.893, 462.186 450.520, 463.419 451.752 C 463.723 452.057, 464.919 451.101, 466.077 449.630 C 467.234 448.158, 468.928 447.077, 469.841 447.227 C 470.894 447.400, 471.358 446.952, 471.111 446 C 470.512 443.693, 469.348 435.559, 467.961 424 C 466.346 410.531, 466.283 410.432, 461.939 414.416 M 436.465 425.799 C 436.783 437.811, 437.095 438.996, 439.432 437.056 C 440.246 436.381, 441.390 436.123, 441.973 436.483 C 442.557 436.844, 441.925 435.504, 440.569 433.506 C 438.306 430.172, 437.822 428.288, 436.587 418 C 436.356 416.075, 436.301 419.584, 436.465 425.799 M 447.598 416.883 C 446.216 418.417, 445.352 418.707, 444.437 417.948 C 442.775 416.568, 443.514 423.751, 445.651 429.750 C 448.539 437.855, 450.890 434.355, 450.094 423.136 C 449.504 414.828, 449.487 414.787, 447.598 416.883 M 234.102 431.377 C 233.373 432.256, 233.025 433.622, 233.328 434.413 C 233.632 435.204, 233.421 437.513, 232.860 439.545 C 231.541 444.321, 232.775 445.708, 236.652 443.806 C 239.912 442.207, 240.014 440.581, 237.263 434.104 C 235.647 430.298, 235.268 429.972, 234.102 431.377 M 399 431.872 C 399 434.195, 400.358 436, 402.107 436 C 403.148 436, 403.986 435.663, 403.969 435.250 C 403.921 434.110, 399 430.764, 399 431.872 M 478.049 433.500 C 478.016 436.523, 479.122 440, 480.117 440 C 481.442 440, 481.116 436.827, 479.500 434 C 478.233 431.783, 478.068 431.726, 478.049 433.500 M 407.250 438.368 C 400.427 440.613, 400.723 440.076, 400.826 450 C 400.968 463.753, 400.996 464, 402.443 464 C 405.292 464, 407.192 468.130, 405.303 470.217 C 404.067 471.584, 403.935 472.335, 404.784 473.184 C 405.632 474.032, 406.413 473.712, 407.865 471.919 C 409.784 469.548, 409.836 469.542, 411.913 471.421 C 413.878 473.200, 413.913 473.484, 412.437 475.736 C 410.923 478.047, 410.941 478.102, 412.863 477.073 C 413.966 476.483, 417.128 476, 419.889 476 C 425.522 476, 425.083 476.792, 426.513 464.038 L 427.125 458.577 425.004 460.496 C 422.379 462.872, 420.703 462.008, 416.546 456.134 C 413.173 451.367, 411.666 440.312, 414.006 437.493 C 415.489 435.706, 415.239 435.738, 407.250 438.368 M 418.200 437.200 C 415.229 440.171, 417.345 453.485, 421.168 455.873 C 423.281 457.192, 423.292 457.153, 422.507 451.352 C 422.071 448.133, 421.768 444.375, 421.833 443 C 422.111 437.128, 420.632 434.768, 418.200 437.200 M 279.590 440.605 C 277.116 441.922, 274.232 443, 273.182 443 C 270.095 443, 262.875 455.371, 264.463 457.940 C 264.823 458.523, 266.351 459, 267.859 459 C 269.367 459, 271.137 459.537, 271.793 460.193 C 272.718 461.118, 273.641 460.760, 275.892 458.604 C 278.310 456.287, 279.138 456.003, 280.833 456.910 C 281.952 457.510, 283.686 458.003, 284.684 458.006 C 285.683 458.010, 287.789 458.684, 289.364 459.506 C 293.696 461.765, 296.955 459.775, 299.202 453.500 C 301.834 446.149, 301.683 445.635, 297.109 446.367 C 294.677 446.756, 291.958 446.462, 289.859 445.583 C 285.265 443.659, 284.747 442.937, 286.538 440.958 C 289.158 438.063, 284.783 437.841, 279.590 440.605 M 328.500 440 C 328.840 440.550, 330.243 441, 331.618 441 C 333.030 441, 333.849 440.565, 333.500 440 C 333.160 439.450, 331.757 439, 330.382 439 C 328.970 439, 328.151 439.435, 328.500 440 M 432 448.048 C 432 455.452, 432.173 456.256, 433.482 454.947 C 434.712 453.716, 434.787 452.370, 433.924 447.008 C 432.479 438.038, 432 438.297, 432 448.048 M 450.184 449.679 C 450.358 451.146, 451.063 452.530, 451.750 452.756 C 453.617 453.369, 453.308 448.332, 451.434 447.613 C 450.215 447.145, 449.938 447.602, 450.184 449.679 M 212.713 454.229 C 208.740 462.520, 206.863 469.820, 209.053 468.467 C 210.989 467.271, 215.096 456.581, 214.796 453.521 L 214.500 450.500 212.713 454.229 M 303 453.850 C 303 460.292, 293.880 466.320, 288.278 463.580 C 280.245 459.652, 276.604 459.575, 277.553 463.355 C 278.431 466.854, 274.780 469.676, 271.380 468.127 C 268.905 466.999, 268.799 467.064, 269.372 469.346 C 269.968 471.723, 267.608 475.755, 262.091 481.785 C 260.596 483.419, 259.995 485.416, 259.982 488.785 C 259.969 492.117, 259.089 495.087, 256.982 498.910 C 255.342 501.885, 254 505.733, 254 507.460 C 254 511.116, 252.464 513, 249.482 513 C 248.316 513, 245.006 513.700, 242.126 514.555 L 236.890 516.110 239.945 519.590 C 241.625 521.504, 243 523.522, 243 524.075 C 243 524.628, 243.937 526.349, 245.083 527.898 L 247.166 530.716 245.211 544.724 C 242.936 561.030, 243.357 565.707, 247.906 574.658 C 249.608 578.007, 251 581.667, 251 582.792 C 251 586.324, 252.017 587.808, 254.070 587.271 C 255.137 586.992, 256.757 587.380, 257.669 588.132 C 259.151 589.355, 259.215 589.287, 258.273 587.500 C 257.037 585.156, 258.218 569.330, 259.857 566.267 C 260.470 565.122, 260.779 559.567, 260.601 552.904 C 260.274 540.661, 258.783 535.265, 254.849 532.079 C 250.070 528.209, 255.135 512.434, 263.868 503.987 C 265.866 502.054, 268.442 499.138, 269.594 497.506 C 271.209 495.217, 272.352 494.596, 274.594 494.790 C 276.192 494.928, 278.521 494.502, 279.768 493.842 C 281.771 492.783, 282.420 493.015, 285.317 495.823 C 287.860 498.287, 288.866 498.734, 289.792 497.808 C 290.718 496.882, 291.629 497.089, 293.845 498.727 L 296.704 500.841 299.265 498.280 C 302.347 495.198, 304.707 495.765, 306.294 499.968 C 307.060 501.998, 308.316 503.130, 310.279 503.561 C 311.987 503.936, 313.900 505.431, 315.012 507.261 L 316.879 510.330 317.592 507.489 C 318.007 505.834, 317.787 503.363, 317.064 501.574 C 316.381 499.883, 315.609 495.800, 315.348 492.500 C 314.783 485.349, 312.747 478.624, 308.981 471.464 C 307.460 468.573, 305.676 463.010, 305.017 459.103 C 303.861 452.249, 303 450.006, 303 453.850 M 434.195 466.380 C 433.598 470.846, 432.683 476.184, 432.162 478.243 C 431.117 482.368, 431.294 482.363, 436.673 478.124 C 440.948 474.754, 442.910 468.137, 440.609 464.852 C 439.724 463.589, 439 461.808, 439 460.894 C 439 459.981, 438.163 459.014, 437.140 458.747 C 435.499 458.318, 435.152 459.217, 434.195 466.380 M 260.836 469.031 C 258.821 469.376, 256.121 470.424, 254.836 471.362 C 253.551 472.299, 250.971 474.176, 249.102 475.533 C 247.233 476.890, 244.623 478, 243.302 478 C 238.955 478, 233.510 482.006, 228.174 489.131 C 226.465 491.413, 224 501.340, 224 505.941 C 224 509.902, 217.111 523.762, 212.537 529 C 208.849 533.224, 189 570.889, 189 573.663 C 189 573.909, 188.069 576.154, 186.931 578.653 C 185.792 581.151, 185.103 583.826, 185.398 584.596 C 185.705 585.395, 184.876 586.690, 183.468 587.613 C 179.039 590.515, 180.074 592.368, 186.741 593.471 C 191.624 594.279, 196.272 590.816, 197.601 585.378 C 197.988 583.795, 199.136 581.427, 200.152 580.115 C 201.203 578.759, 202 576.099, 202 573.950 C 202 570.729, 202.659 569.590, 206.459 566.245 C 209.612 563.469, 211.223 561.102, 211.959 558.160 C 212.532 555.872, 213.421 552.313, 213.935 550.250 C 214.450 548.188, 215.383 541.795, 216.008 536.043 C 217.649 520.964, 221.737 514, 228.949 514 C 230.487 514, 235.191 512.875, 239.403 511.500 C 243.615 510.125, 247.723 509, 248.531 509 C 249.405 509, 250 508.051, 250 506.660 C 250 505.373, 251.342 501.885, 252.982 498.910 C 255.109 495.051, 255.969 492.126, 255.982 488.706 C 255.998 484.433, 256.543 483.259, 261 477.904 C 263.750 474.600, 265.993 471.582, 265.985 471.198 C 265.941 469.199, 264.183 468.459, 260.836 469.031 M 341.342 516.601 C 339.923 518.767, 339.833 519.718, 340.803 522.290 C 341.771 524.853, 341.696 525.678, 340.363 527.151 C 338.575 529.128, 339.126 531.727, 341.528 532.649 C 343.486 533.401, 348.054 529.305, 347.339 527.440 C 347.054 526.699, 347.537 525.072, 348.411 523.824 C 350.593 520.708, 350.405 518.729, 347.686 516.174 C 344.677 513.348, 343.418 513.432, 341.342 516.601 M 388.730 515.974 C 386.881 518.614, 389.736 530.026, 393.156 533.666 C 398.721 539.590, 400.663 528.196, 395.487 519.985 C 391.971 514.406, 390.458 513.508, 388.730 515.974 M 373.382 517.191 C 372.977 517.846, 372.514 520.821, 372.353 523.802 C 372.192 526.783, 371.491 529.908, 370.795 530.747 C 368.630 533.356, 368.676 544.397, 370.861 546.374 C 373.249 548.536, 374.244 547.365, 376.276 540 C 379.609 527.922, 377.419 510.659, 373.382 517.191 M 307.709 527.867 C 305.801 529.865, 302.551 533.750, 300.486 536.500 L 296.731 541.500 297.534 553.500 C 297.976 560.100, 298.374 567.139, 298.418 569.143 C 298.509 573.172, 301.281 577, 304.110 577 C 305.416 577, 306.074 578.028, 306.508 580.750 C 308.544 593.492, 314.495 588.452, 314.498 573.984 C 314.500 565.829, 314.609 565.395, 316.561 565.768 C 320.699 566.557, 321.380 563.907, 321.442 546.783 L 321.500 530.733 318.124 527.950 C 313.050 523.768, 311.633 523.757, 307.709 527.867 M 308.325 531.750 C 301.063 539.491, 300.628 540.906, 301.546 553.769 C 302.007 560.221, 302.343 567.188, 302.292 569.250 C 302.207 572.705, 302.418 573, 304.977 573 C 307.929 573, 309.427 574.252, 310.359 577.500 C 310.675 578.600, 310.761 576.048, 310.550 571.830 C 310.139 563.604, 311.738 560.195, 315.355 561.583 C 317.340 562.344, 317.250 563.057, 317.389 545.500 C 317.479 534.167, 317.214 531.268, 316 530.282 C 313.590 528.325, 311.089 528.803, 308.325 531.750 M 340.051 543.349 C 338.320 545.080, 338.840 546.248, 343.866 551.911 C 348.699 557.357, 350.017 557.706, 351.970 554.056 C 354.182 549.922, 343.276 540.124, 340.051 543.349 M 348.061 560.435 L 345.773 562.871 350.577 568.435 C 355.747 574.423, 357.676 575.120, 360.486 572.015 C 362.961 569.280, 360.760 563.429, 356.067 560.266 C 351.828 557.409, 350.885 557.429, 348.061 560.435 M 350 562.533 C 350 563.269, 356.791 570, 357.534 570 C 358.753 570, 356.762 565.444, 354.802 563.750 C 352.893 562.099, 350 561.366, 350 562.533 M 231.002 568.498 C 229.790 569.958, 229.991 575.669, 231.592 585.247 C 232.354 589.808, 231.427 594, 229.655 594 C 227.837 594, 223.636 598.657, 224.803 599.378 C 226.243 600.268, 231.674 597.228, 234.074 594.189 C 235.890 591.889, 236.101 590.705, 235.533 586 C 233.733 571.065, 233.732 571, 235.365 571 C 237.097 571, 238.714 575.949, 240.043 585.326 C 240.841 590.950, 241.613 592.622, 245.900 598 C 247.441 599.934, 248.162 600.231, 249.086 599.310 C 250.010 598.389, 249.693 597.424, 247.679 595.031 C 246.250 593.332, 244.820 590.267, 244.502 588.221 C 242.763 577.020, 241.478 572.533, 239.250 569.885 C 236.594 566.729, 232.975 566.120, 231.002 568.498 M 387.084 575.316 C 385.581 576.819, 385.730 578.531, 387.489 579.991 C 389.511 581.669, 388.676 582.651, 384.568 583.421 C 382.151 583.875, 380.141 585.297, 377.876 588.157 L 374.638 592.245 368.819 591.717 C 365.619 591.427, 362.759 591.580, 362.464 592.058 C 361.686 593.317, 355.099 594.975, 353.425 594.333 C 351.391 593.552, 351.660 592.624, 354.249 591.487 C 360.486 588.749, 360.311 580, 354.019 580 C 352.445 580, 350.359 578.946, 348.937 577.433 C 346.632 574.979, 346.460 574.946, 345.013 576.684 C 344.181 577.683, 342.262 579.299, 340.750 580.273 C 337.716 582.229, 337.186 585.080, 339.500 587 C 341.676 588.806, 341.378 590.014, 337.868 593.636 C 335.927 595.639, 334.964 597.464, 335.336 598.434 C 336.136 600.519, 337.904 600.423, 338.720 598.250 C 339.081 597.288, 340.642 595.307, 342.189 593.849 C 345.295 590.920, 345.798 587.907, 343.500 586 C 341.624 584.443, 341.565 583, 343.378 583 C 344.135 583, 345.328 582.310, 346.028 581.467 C 347.159 580.104, 347.541 580.159, 349.465 581.967 C 350.655 583.085, 352.436 584, 353.421 584 C 354.645 584, 355.021 584.502, 354.607 585.582 C 354.273 586.452, 354 587.352, 354 587.582 C 354 587.812, 353.395 588, 352.655 588 C 351.915 588, 350.565 588.823, 349.655 589.829 C 344.427 595.605, 354.123 601.087, 361.500 596.525 C 362.714 595.775, 365.661 595.453, 369 595.706 C 374.352 596.113, 374.631 596.003, 379.386 591.627 C 382.707 588.571, 385.509 586.921, 388.131 586.478 C 390.253 586.119, 392.243 585.415, 392.554 584.913 C 394.035 582.516, 399.830 583.952, 400.472 586.874 C 401.374 590.979, 405.289 594.369, 408.434 593.768 C 410.743 593.327, 410.948 593.561, 410.735 596.392 C 410.413 600.650, 413.128 600.538, 414.360 596.241 C 415.657 591.718, 413.189 588.933, 408.550 589.686 C 405.594 590.165, 405.202 589.936, 404.562 587.359 C 403.654 583.705, 400.210 580, 397.720 580 C 396.657 580, 394.946 578.930, 393.918 577.623 C 391.723 574.832, 388.617 573.783, 387.084 575.316" stroke="none" fill="#1A1A1A" fill-rule="evenodd"/>
</svg>