<svg xmlns="http://www.w3.org/2000/svg" width="507" height="600" viewBox="0 0 507 600" version="1.1">
	<rect x="0" y="0" width="100%" height="100%" fill="#FFFFFF" />
	<path d="M 297.667 71.446 C 289.803 74.679, 285.219 77.843, 278.312 84.803 C 273.324 89.829, 271.578 90.906, 266 92.401 C 262.425 93.360, 257.250 95.476, 254.500 97.105 C 251.750 98.733, 248.825 100.453, 248 100.925 C 247.175 101.398, 242 102.984, 236.500 104.449 C 220.184 108.796, 209.306 114.344, 201 122.554 C 199.075 124.457, 195.634 127.596, 193.353 129.531 C 191.072 131.465, 188.423 134.696, 187.466 136.712 C 186.510 138.728, 183.784 142.455, 181.409 144.994 C 173.839 153.087, 166.100 172.242, 168.033 178.101 C 169.164 181.526, 169.075 182.423, 167.231 186.225 C 159.536 202.093, 158.749 204.740, 159.929 210.783 C 162.577 224.334, 162.684 228.952, 160.516 236 C 157.980 244.242, 157.344 264.063, 159.322 273.184 C 160.195 277.208, 161.411 283.425, 162.025 287 C 163.470 295.424, 166.849 306.362, 171.293 317.005 C 173.246 321.683, 175.749 328.966, 176.855 333.189 C 182.362 354.214, 201.682 364.628, 224.894 359.084 C 235.539 356.542, 236.149 356.796, 240.351 365.525 C 245.658 376.550, 245.839 378.785, 241.826 383.716 C 229.617 398.722, 229.190 399.416, 227.480 407.035 C 226.559 411.141, 225.399 415.534, 224.902 416.797 C 224.406 418.060, 224 420.101, 224 421.331 C 224 422.561, 222.447 425.978, 220.548 428.925 C 218.650 431.871, 216.795 435.681, 216.425 437.391 C 215.644 441.006, 211.477 449.587, 210.085 450.448 C 206.834 452.456, 202.743 467.683, 202.511 478.634 C 202.334 487.039, 201.874 490.341, 200.638 492.107 C 199.737 493.393, 199 494.788, 199 495.207 C 199 495.627, 197.650 498.164, 196 500.846 C 194.350 503.527, 193 506.239, 193 506.872 C 193 508.879, 181.321 531.745, 176.713 538.759 C 174.278 542.466, 171.756 547.669, 171.110 550.321 C 170.464 552.973, 168.894 556.798, 167.621 558.821 C 166.348 560.844, 164.735 564.300, 164.035 566.500 C 161.452 574.626, 155.278 587.876, 152.786 590.641 C 149.523 594.262, 150.657 599.409, 154.763 599.609 C 158.487 599.790, 159.183 599.034, 159.603 594.355 C 159.906 590.984, 164.434 577.456, 165.904 575.535 C 166.339 574.966, 167.478 572.025, 168.434 569 C 169.391 565.975, 171.395 561.475, 172.888 559 C 176.185 553.532, 186.266 532.930, 190.015 524 C 191.516 520.425, 194.606 514.350, 196.882 510.500 C 201.142 503.294, 204.101 497.409, 208.083 488.218 C 209.342 485.313, 210.958 482.450, 211.675 481.855 C 212.392 481.260, 212.751 480.405, 212.473 479.956 C 212.195 479.506, 212.425 478.856, 212.984 478.510 C 213.543 478.165, 214 476.839, 214 475.563 C 214 472.810, 216.455 470.310, 217.500 472 C 217.985 472.785, 218.587 472.758, 219.614 471.905 C 220.858 470.873, 220.841 470.482, 219.487 468.986 C 217.307 466.576, 218.116 460.536, 220.925 458.262 C 223.932 455.827, 224.881 444.631, 222.321 441.802 C 221.038 440.384, 220.922 439.678, 221.824 438.776 C 222.471 438.129, 223 437.008, 223 436.285 C 223 435.562, 224.451 432.398, 226.225 429.255 C 227.999 426.112, 229.549 422.865, 229.671 422.038 C 229.792 421.212, 230.478 420.351, 231.196 420.124 C 231.913 419.897, 237.571 414.714, 243.770 408.607 C 254.992 397.550, 259.539 394.216, 270 389.373 C 273.025 387.972, 276.932 385.741, 278.682 384.414 C 283.515 380.750, 286.603 379.817, 288.065 381.578 C 288.736 382.387, 289.505 382.828, 289.774 382.559 C 290.696 381.637, 294.155 384.153, 293.678 385.398 C 293.415 386.082, 293.835 389.085, 294.611 392.071 C 296.007 397.443, 295.995 397.519, 293.511 399.333 C 292.130 400.342, 291 401.559, 291 402.038 C 291 402.517, 289.927 403.982, 288.615 405.294 C 283.422 410.487, 283.999 415.684, 290.409 421.434 C 296.494 426.893, 297.189 428.776, 293.882 430.842 C 291.340 432.429, 292.387 433.873, 297.221 435.449 C 302.507 437.172, 304.776 442.454, 304.810 453.107 C 304.833 460.420, 305.279 462.930, 307.364 467.483 C 308.753 470.517, 309.701 473, 309.471 473 C 309.240 473, 310.454 475.363, 312.167 478.250 C 314.636 482.413, 315.343 484.846, 315.576 490 C 315.738 493.575, 316.148 497.625, 316.487 499 C 317.851 504.537, 317.918 505.646, 317.063 508.514 C 316.398 510.744, 316.150 510.969, 316.086 509.405 C 315.979 506.793, 313.372 504.374, 309.669 503.449 C 306.090 502.556, 305.261 500.474, 307.500 498 C 309.550 495.735, 308.838 493.032, 305.995 492.288 C 304.898 492.001, 304 491.430, 304 491.018 C 304 490.607, 303.049 489.061, 301.886 487.583 C 298.607 483.413, 295.729 486.404, 296.504 493.177 C 297.003 497.540, 296.054 499.515, 294.595 497.153 C 294.307 496.687, 292.652 496.266, 290.918 496.217 C 289.183 496.167, 286.751 495.175, 285.513 494.012 C 283.919 492.515, 282.538 492.078, 280.789 492.517 C 278.960 492.976, 277.461 492.417, 275.028 490.370 C 271.501 487.402, 267 489.996, 267 494.997 C 267 496.034, 266.511 497.184, 265.913 497.554 C 265.315 497.923, 265.054 499.100, 265.334 500.168 C 265.696 501.554, 265.162 502.368, 263.464 503.014 C 257.126 505.423, 251.061 527.729, 255.194 533.428 C 258.628 538.163, 260.369 544.219, 259.551 548.581 C 259.214 550.376, 259.373 552.113, 259.904 552.441 C 261.203 553.244, 260.722 565.979, 259.296 568.534 C 258.127 570.629, 258.167 584.500, 259.346 585.679 C 261.138 587.471, 260.035 590.341, 258.194 588.675 C 256.522 587.162, 256.264 587.164, 254.721 588.708 C 253.003 590.426, 249.074 584.308, 250.457 582.069 C 250.744 581.606, 250.298 580.662, 249.466 579.972 C 248.635 579.282, 248.200 577.945, 248.500 577 C 248.800 576.055, 248.334 574.692, 247.465 573.971 C 243.075 570.328, 241.530 559.847, 243.930 550 C 244.668 546.975, 245.222 543.375, 245.162 542 C 245.103 540.625, 245.556 537.282, 246.170 534.571 C 247.240 529.842, 247.178 529.550, 244.643 527.369 C 243.189 526.119, 242 524.253, 242 523.222 C 242 517.861, 230.119 513.545, 225.456 517.213 C 220.788 520.885, 216.081 545.379, 218.549 553.155 C 218.899 554.257, 218.438 556.209, 217.485 557.663 C 216.084 559.802, 215.985 560.916, 216.890 564.364 C 221.365 581.416, 218.510 591.386, 209 591.909 C 204.017 592.183, 197.012 597.412, 198.985 599.385 C 199.636 600.036, 200.780 599.616, 202.339 598.151 C 204.275 596.332, 205.904 595.919, 211.302 595.877 C 217.885 595.827, 219.900 594.888, 220.375 591.651 C 220.492 590.854, 221.128 589.551, 221.788 588.755 C 223.201 587.052, 222.607 570.906, 220.890 564.364 C 219.985 560.916, 220.084 559.802, 221.485 557.663 C 222.438 556.209, 222.899 554.257, 222.549 553.155 C 221.677 550.408, 223.820 525.489, 225.186 522.490 C 226.564 519.467, 227.336 519.294, 234.250 520.459 C 237.587 521.021, 238 521.414, 238 524.022 C 238 526.067, 238.777 527.463, 240.568 528.637 C 242.658 530.006, 243.003 530.802, 242.420 532.910 C 242.026 534.334, 241.583 537.525, 241.437 540 C 241.290 542.475, 240.592 546.975, 239.886 550 C 237.604 559.775, 238.510 566.995, 242.881 573.871 C 243.711 575.175, 244.465 576.975, 244.559 577.871 C 244.799 580.183, 249.060 591.240, 250.322 592.830 C 250.929 593.594, 252.464 593.953, 253.929 593.673 C 255.331 593.405, 257.239 593.593, 258.169 594.090 C 261.047 595.631, 265.714 588.048, 263.346 585.679 C 262.167 584.500, 262.127 570.629, 263.296 568.534 C 264.705 566.009, 265.210 553.248, 263.933 552.458 C 263.417 552.140, 263.258 550.219, 263.579 548.190 C 264.231 544.061, 261.940 536.160, 258.811 531.747 C 255.313 526.813, 259.818 511.792, 266.746 505.289 C 268.679 503.474, 269.861 501.585, 269.465 500.944 C 269.080 500.320, 269.226 498.840, 269.791 497.655 C 270.356 496.470, 271.104 494.625, 271.452 493.556 C 272.020 491.814, 272.284 491.938, 273.994 494.750 C 275.739 497.619, 276.173 497.811, 279.049 496.986 C 281.561 496.266, 282.729 496.477, 284.847 498.038 C 286.306 499.113, 288.850 500.142, 290.500 500.325 C 292.150 500.508, 294.349 501.031, 295.386 501.488 C 298.186 502.721, 300.502 500.743, 300.490 497.126 C 300.480 493.642, 300.735 493.483, 303.261 495.400 C 304.820 496.584, 304.849 496.880, 303.511 497.991 C 300.702 500.322, 304.263 505.800, 309.642 507.421 C 312.710 508.345, 313.174 511.509, 310.703 514.651 C 309.200 516.561, 308.681 518.459, 308.885 521.288 C 309.133 524.721, 308.646 525.800, 305.239 529.375 C 297.043 537.974, 296.691 539.170, 297.206 556.607 C 297.680 572.663, 299.047 577.500, 303.108 577.500 C 303.957 577.500, 304.625 578.808, 304.821 580.853 C 304.998 582.697, 304.733 583.953, 304.234 583.645 C 302.679 582.684, 299 585.999, 299 588.361 C 299 591.747, 304.946 597.009, 307.611 595.981 C 309.837 595.123, 317 582.200, 317 579.043 C 317 578.054, 317.628 576.724, 318.395 576.087 C 319.497 575.173, 319.566 574.197, 318.726 571.459 C 317.786 568.398, 317.931 567.703, 319.953 565.550 C 322.436 562.907, 322.368 563.748, 321.814 542.442 C 321.515 530.967, 321.367 530.226, 318.752 527.117 C 316.003 523.850, 316.003 523.850, 318.466 519.649 C 321.036 515.262, 322.137 504.506, 320.578 499 C 320.189 497.625, 319.738 493.575, 319.576 490 C 319.343 484.846, 318.636 482.413, 316.167 478.250 C 314.454 475.363, 313.245 473, 313.480 473 C 313.715 473, 312.808 470.637, 311.464 467.750 C 310.068 464.752, 309.051 460.784, 309.093 458.500 C 309.166 454.500, 309.166 454.500, 311.333 459.123 C 314.970 466.881, 323.479 474.781, 325.869 472.618 C 327.738 470.927, 327.758 467.856, 325.916 465.471 C 325.479 464.904, 325.112 463.104, 325.100 461.471 C 325.088 459.837, 324.978 457.825, 324.856 457 C 323.979 451.094, 327.943 447.982, 332.500 451 C 334.150 452.093, 336.491 452.990, 337.703 452.993 C 343.373 453.010, 345.273 455.043, 344.638 460.410 C 343.824 467.282, 346.101 470.193, 349.669 466.841 C 350.951 465.637, 352 463.856, 352 462.885 C 352 460.197, 353.530 459.823, 355.521 462.024 C 356.505 463.111, 358.140 464, 359.155 464 C 361.533 464, 361.475 467.153, 359 472.500 C 356.908 477.019, 356.393 476.322, 358.177 471.387 C 359.512 467.697, 358.156 465, 354.966 465 C 352.626 465, 348.347 470.143, 347.508 473.965 C 347.144 475.621, 346.436 477.231, 345.935 477.540 C 345.433 477.850, 345.297 477.389, 345.633 476.515 C 347.336 472.075, 340.691 469.690, 336.091 473.091 C 333.619 474.918, 332.987 475.013, 331.067 473.841 C 327.035 471.380, 324.069 476.418, 327.463 479.961 C 328.858 481.418, 330 483.235, 330 484 C 330 484.765, 331.147 486.588, 332.549 488.051 C 336.198 491.859, 336.215 495.629, 332.607 500.980 C 330.363 504.309, 329.540 506.750, 329.405 510.480 C 329.305 513.241, 328.796 517.824, 328.275 520.665 C 327.640 524.117, 327.670 526.439, 328.365 527.665 C 328.936 528.674, 329.756 531.750, 330.186 534.500 C 331.457 542.620, 331.615 543.323, 333.068 547.326 C 334.351 550.861, 334.287 551.447, 332.228 555.024 C 329.296 560.120, 329.468 562.783, 332.999 566.913 C 334.604 568.789, 335.678 570.712, 335.386 571.185 C 335.093 571.658, 334.650 573.947, 334.400 576.272 C 332.990 589.411, 332.503 591.500, 330.911 591.243 C 328.307 590.822, 325.450 594.633, 326.984 596.481 C 327.678 597.317, 327.875 598, 327.422 598 C 326.970 598, 327.121 598.521, 327.758 599.158 C 329.637 601.037, 332.443 598.251, 330.762 596.175 C 329.984 595.214, 329.939 594.879, 330.646 595.303 C 334.417 597.563, 336.764 591.873, 338.402 576.500 C 338.637 574.300, 338.960 572.050, 339.120 571.500 C 339.280 570.950, 338.632 569.038, 337.680 567.250 C 336.728 565.462, 336.240 564, 336.597 564 C 336.953 564, 336.718 563.365, 336.074 562.589 C 335.263 561.612, 335.229 560.976, 335.964 560.522 C 336.621 560.116, 336.689 559.267, 336.142 558.289 C 335.565 557.258, 335.812 555.747, 336.856 553.928 C 338.258 551.485, 338.284 550.676, 337.067 547.322 C 335.615 543.323, 335.457 542.619, 334.186 534.500 C 333.756 531.750, 332.936 528.674, 332.365 527.665 C 331.670 526.439, 331.640 524.117, 332.275 520.665 C 332.796 517.824, 333.305 513.241, 333.405 510.480 C 333.541 506.748, 334.363 504.311, 336.610 500.980 C 340.332 495.464, 340.297 490.616, 336.512 487.298 C 335.131 486.087, 334 484.536, 334 483.853 C 334 483.169, 332.791 481.347, 331.313 479.805 C 328.782 477.163, 329.236 475.636, 331.793 478.193 C 332.717 479.117, 333.655 478.892, 335.953 477.193 C 340.866 473.560, 343.563 475.099, 340.603 479.846 C 340.079 480.686, 340.351 481.779, 341.327 482.756 C 343.629 485.058, 349.505 480.386, 351.130 474.962 C 351.786 472.770, 352.926 470.476, 353.662 469.866 C 355.210 468.581, 355.393 469.398, 354.099 471.816 C 349.552 480.316, 352.383 491.658, 357.563 485.694 C 358.903 484.151, 360 482.216, 360 481.395 C 360 480.573, 360.757 478.461, 361.682 476.700 C 362.608 474.940, 363.485 472.825, 363.633 472 C 363.780 471.175, 364.205 469.240, 364.577 467.699 C 365.317 464.633, 362.045 460, 359.140 460 C 358.309 460, 356.592 459.026, 355.325 457.836 C 353.091 455.737, 352.960 455.726, 351.010 457.491 C 349.047 459.267, 349 459.251, 349 456.810 C 349 453.191, 343.044 449, 337.901 449 C 336.798 449, 334.155 447.998, 332.027 446.773 C 326.617 443.660, 318.563 451.942, 320.889 458.228 C 323.695 465.814, 318.322 465.669, 314.918 458.067 C 313.100 454.006, 313.100 454.006, 316.257 454.253 C 324.136 454.870, 323.183 446.862, 314.836 442.313 C 309.741 439.536, 305.381 431.119, 308.150 429.407 C 308.622 429.116, 308.726 427.755, 308.381 426.383 C 307.951 424.670, 308.358 423.202, 309.680 421.695 C 310.738 420.488, 312.422 417.700, 313.423 415.500 C 314.423 413.300, 316.021 409.925, 316.973 408 C 318.072 405.779, 318.614 402.673, 318.457 399.500 C 318.321 396.750, 318.562 394.050, 318.992 393.500 C 319.423 392.950, 320.020 390.700, 320.319 388.500 C 320.618 386.300, 321.078 383.264, 321.343 381.754 C 321.607 380.244, 321.458 378.783, 321.011 378.507 C 317.928 376.601, 320.314 371.057, 324.869 369.544 C 327.436 368.691, 331.779 366.514, 334.519 364.706 C 340.907 360.491, 348.455 358.233, 358.500 357.532 C 362.900 357.225, 368.525 356.550, 371 356.031 C 373.475 355.512, 377.040 355.068, 378.921 355.044 C 380.803 355.020, 383.165 354.255, 384.171 353.345 C 386.216 351.495, 386.785 353.210, 385.042 355.966 C 384.445 356.910, 384.525 357.927, 385.266 358.820 C 386.516 360.326, 387.023 363.740, 389.382 386.500 C 391.571 407.623, 392.994 427.139, 393.029 436.500 C 393.045 440.900, 393.059 452.093, 393.060 461.374 C 393.064 486.083, 395.029 487.759, 419.500 483.923 C 431.026 482.117, 432.186 480.450, 433.541 463.750 C 434.171 456, 434.632 455.032, 436.707 457.107 C 438.170 458.570, 447.508 457.297, 449.064 455.423 C 450.038 454.250, 450.549 454.428, 452.187 456.510 C 457.892 463.763, 480 455.179, 480 445.711 C 480 444.168, 480.945 442.611, 482.500 441.592 C 485.448 439.661, 485.558 437.599, 482.932 433.500 C 479.382 427.957, 477.248 422.437, 476.534 416.950 C 475.115 406.050, 472.649 399.471, 466.495 390.171 C 464.673 387.419, 463.793 384.524, 463.479 380.254 C 462.815 371.215, 455.112 338.110, 452.480 332.981 C 451.769 331.596, 450.931 328.221, 450.618 325.481 C 450.305 322.741, 449.401 318.032, 448.610 315.016 C 447.819 311.999, 447.390 309.179, 447.656 308.748 C 447.923 308.316, 447.254 306.509, 446.171 304.732 C 445.088 302.954, 443.471 298.612, 442.578 295.082 C 440.708 287.685, 438.165 283.158, 433.833 279.513 C 428.163 274.742, 426.283 280.868, 430.495 290.392 C 431.873 293.508, 433 297.143, 433 298.469 C 433 299.796, 433.399 301.129, 433.887 301.430 C 434.374 301.731, 435.068 303.670, 435.427 305.739 C 435.787 307.808, 436.578 310.762, 437.185 312.305 C 438.143 314.741, 438.006 315.307, 436.144 316.612 C 433.303 318.602, 433.437 320.585, 436.550 322.625 C 437.970 323.555, 438.869 324.899, 438.578 325.657 C 438.291 326.405, 438.461 328.081, 438.955 329.382 C 439.488 330.782, 439.487 332.113, 438.953 332.647 C 438.419 333.181, 438.650 334.699, 439.521 336.379 C 440.466 338.199, 440.777 340.545, 440.392 342.951 C 440.016 345.303, 440.578 349.823, 441.905 355.121 C 443.066 359.756, 444.252 368.217, 444.540 373.922 C 444.828 379.627, 445.366 384.783, 445.735 385.380 C 446.503 386.622, 446.628 387.584, 447.430 398.425 C 447.753 402.784, 447.732 406.065, 447.384 405.717 C 445.561 403.894, 441.791 390.731, 441.594 385.500 C 441.301 377.707, 439.122 364.392, 437.544 360.750 C 437.127 359.788, 437.041 358.336, 437.352 357.525 C 437.664 356.713, 437.290 354.544, 436.521 352.705 C 435.753 350.866, 435.257 348.492, 435.420 347.430 C 435.583 346.369, 435.062 343.275, 434.262 340.555 C 433.423 337.704, 433.060 334.024, 433.406 331.865 C 433.769 329.595, 433.573 327.854, 432.908 327.443 C 432.305 327.070, 432.034 325.604, 432.305 324.183 C 432.577 322.763, 432.326 320.453, 431.748 319.051 C 431.169 317.648, 430.317 313.575, 429.853 310 C 428.567 300.081, 427.956 295.740, 427.461 293 C 426.279 286.455, 425.030 280.268, 424.434 278 C 423.766 275.460, 423.049 266.163, 422.544 253.500 C 422.390 249.650, 421.355 243.144, 420.244 239.042 C 419.132 234.940, 418.439 231.021, 418.702 230.333 C 418.966 229.645, 418.717 227.601, 418.149 225.791 C 417.581 223.981, 416.819 219.575, 416.455 216 C 416.091 212.425, 415.345 208.658, 414.797 207.629 C 414.237 206.577, 414.086 203.469, 414.452 200.534 C 415.798 189.764, 405.289 154.030, 399.769 150.607 C 396.105 148.336, 392.376 162.946, 395.379 167.804 C 395.992 168.796, 397.940 179.767, 398.611 186 C 400.279 201.501, 401.032 207.780, 401.430 209.500 C 401.684 210.600, 401.977 215.939, 402.081 221.364 C 402.185 226.789, 402.625 232.864, 403.059 234.864 C 405.389 245.613, 407 254.289, 407 256.087 C 407 259.267, 405.167 257.335, 403.972 252.895 C 402.955 249.120, 402.687 247.659, 401.441 239.111 C 401.169 237.247, 400.667 235.271, 400.326 234.718 C 399.985 234.166, 399.569 229.616, 399.403 224.607 C 399.237 219.598, 398.702 214.150, 398.215 212.500 C 397.728 210.850, 397.532 206.475, 397.780 202.777 C 398.148 197.273, 397.861 195.429, 396.195 192.607 C 394.763 190.179, 394.170 187.435, 394.190 183.329 C 394.206 180.123, 393.971 176.825, 393.668 176 C 393.366 175.175, 392.879 172.475, 392.587 170 C 390.671 153.750, 389.153 146.793, 385.936 139.500 C 382.722 132.213, 382.102 128.747, 384.399 130.905 C 390.424 136.565, 394.144 132.209, 389.475 124.961 C 387.564 121.995, 386 119.266, 386 118.897 C 386 118.529, 382.850 115.650, 379 112.500 C 375.150 109.350, 372 106.149, 372 105.387 C 372 103.241, 373.618 103.726, 377.327 106.982 C 381.741 110.858, 385.230 108.599, 382.614 103.558 C 380.041 98.598, 369.912 87.996, 365.688 85.841 C 363.410 84.679, 359.286 82.095, 356.523 80.099 C 342.758 70.154, 311.858 65.611, 297.667 71.446 M 298.906 75.234 C 286.634 79.540, 272.023 93.672, 281.716 91.861 C 287.225 90.832, 288.500 90.013, 288.500 87.504 C 288.500 84.908, 297.826 79.611, 299.683 81.152 C 300.359 81.713, 301.351 81.901, 301.887 81.570 C 302.423 81.238, 303.143 81.423, 303.488 81.980 C 303.889 82.630, 305.177 82.443, 307.079 81.459 C 309.063 80.433, 310.588 80.230, 311.685 80.844 C 312.768 81.450, 314.545 81.252, 316.913 80.262 C 318.886 79.437, 321.597 78.345, 322.937 77.835 C 332.078 74.356, 308.638 71.819, 298.906 75.234 M 347.699 82.750 C 349.607 84.813, 351.982 88.075, 352.978 90 C 356.211 96.254, 358.518 97.665, 360.518 94.614 C 362.448 91.668, 361.577 90.046, 355 84.333 C 347.769 78.052, 342.246 76.855, 347.699 82.750 M 319.250 83.157 C 312.027 86.061, 314.085 89.310, 326.152 94.055 C 329.093 95.212, 332.175 96.763, 333 97.502 C 333.897 98.306, 336.752 98.825, 340.106 98.793 C 343.189 98.764, 346.476 99.167, 347.409 99.689 C 352.491 102.533, 356.126 99.502, 352.641 95.327 C 351.343 93.772, 349.589 91.149, 348.743 89.498 C 344.907 82.011, 330.047 78.817, 319.250 83.157 M 311.537 90.940 C 311.206 91.475, 310.163 91.665, 309.218 91.362 C 307.759 90.894, 307.726 90.974, 309 91.890 C 309.825 92.484, 310.986 92.976, 311.580 92.985 C 317.108 93.063, 335.229 107.200, 332.850 109.579 C 331.063 111.365, 329.393 110.802, 315.294 103.666 C 309.238 100.601, 306.794 99.806, 305.968 100.632 C 305.142 101.458, 305.697 102.047, 308.085 102.880 C 313.052 104.611, 317.998 108.804, 318.018 111.301 C 318.030 112.893, 319.196 114.052, 322.241 115.500 C 326.886 117.709, 331.671 123.729, 330.061 125.339 C 329.114 126.286, 334.410 131.646, 341.090 136.500 C 342.604 137.600, 346.076 140.410, 348.804 142.745 C 353.766 146.990, 353.766 146.990, 351.782 141.605 C 350.691 138.642, 348.067 134.125, 345.952 131.565 C 339.607 123.886, 339.642 118.166, 346.012 121.821 C 348.719 123.375, 349.098 123.373, 351.785 121.786 C 354.470 120.200, 354.769 120.198, 356.330 121.758 C 358.662 124.091, 358.423 121.807, 356.014 118.745 C 351.624 113.164, 360.441 113.410, 365.509 119.010 C 368.681 122.515, 370.653 123.204, 372.431 121.427 C 374.847 119.010, 374.333 117.556, 370.250 115.256 C 365.178 112.400, 360.585 107.430, 360.464 104.667 C 360.283 100.534, 359.025 99.628, 356.615 101.892 C 354.317 104.050, 349.735 104.787, 346.660 103.492 C 345.120 102.843, 344.873 103.125, 345.148 105.219 C 346.157 112.921, 337.805 111.215, 333.611 102.863 C 332.925 101.496, 329.839 99.561, 325.538 97.801 C 321.710 96.233, 317.660 94.129, 316.538 93.124 C 313.530 90.428, 312.210 89.852, 311.537 90.940 M 366 91.330 C 366 92.100, 365.068 93.915, 363.930 95.362 C 361.860 97.994, 361.860 97.994, 363.886 100.840 C 365.330 102.868, 365.604 103.996, 364.839 104.761 C 363.631 105.969, 365.591 108.037, 372.995 113.362 C 378.514 117.330, 378.908 118.963, 375.308 122.945 C 371.233 127.453, 368.680 127.580, 365.514 123.430 C 362.607 119.618, 360.244 118.719, 362.062 122.117 C 363.503 124.809, 361.367 127.250, 357.571 127.250 C 356.137 127.250, 354.707 127.666, 354.393 128.174 C 354.047 128.733, 353.364 128.736, 352.661 128.183 C 351.592 127.341, 346 125.953, 346 126.530 C 346 126.669, 347.799 128.959, 349.998 131.621 C 352.197 134.282, 354.497 138.043, 355.110 139.979 C 355.722 141.916, 356.878 144.543, 357.678 145.817 C 358.811 147.621, 358.871 148.450, 357.949 149.562 C 356.462 151.353, 357.537 153.003, 366.386 162.500 C 372.907 169.500, 372.907 169.500, 372.954 164.372 C 372.985 160.884, 372.497 158.828, 371.427 157.939 C 370.562 157.221, 368.925 154.804, 367.790 152.567 C 366.655 150.330, 364.401 146.565, 362.781 144.201 C 357.890 137.061, 362.229 134.486, 369.850 140.006 C 374.634 143.472, 375.134 142.389, 372.880 133.439 C 371.611 128.397, 372.959 125.494, 376.179 126.337 C 377.180 126.598, 378.250 126.404, 378.558 125.906 C 379.492 124.395, 382.025 124.881, 385.276 127.197 C 386.978 128.408, 387.963 128.745, 387.474 127.947 C 383.936 122.179, 380.978 118.695, 374.930 113.169 C 364.853 103.963, 365.753 97.200, 376.471 101.578 C 377.760 102.105, 376.901 100.555, 373.990 97.103 C 369.056 91.252, 366 89.044, 366 91.330 M 288.500 94.149 C 286.850 94.686, 281.519 95.755, 276.654 96.525 C 271.788 97.295, 266.471 98.772, 264.837 99.806 C 261.613 101.848, 261.987 101.923, 277.596 102.380 C 279.849 102.446, 282.368 103.061, 283.194 103.746 C 284.019 104.431, 288.026 106.071, 292.097 107.391 C 300.622 110.153, 309.771 114.263, 318.846 119.404 C 325.967 123.439, 326.127 123.496, 325.453 121.737 C 325.186 121.042, 323.513 119.853, 321.734 119.095 C 317.473 117.277, 314 114.068, 314 111.948 C 314 109.708, 312.757 108.811, 305 105.456 C 293.912 100.659, 292.353 97.018, 301.372 96.985 C 307.495 96.962, 308.870 95.577, 304.170 94.169 C 299.565 92.789, 292.703 92.780, 288.500 94.149 M 252.327 106.750 C 251.387 107.438, 249.664 108, 248.497 108 C 237.845 108, 210.252 118.653, 204.333 125.051 C 202.281 127.268, 199.106 130.008, 197.277 131.138 C 195.448 132.268, 193.228 134.612, 192.344 136.347 C 191.460 138.081, 188.778 141.610, 186.385 144.190 C 183.991 146.769, 181.168 150.819, 180.111 153.190 C 173.971 166.959, 172 171.825, 172 173.213 C 172 175.943, 176.050 176.055, 180.500 173.447 C 185.212 170.686, 195.805 169.290, 199.015 171.008 C 200.091 171.584, 202.824 172.314, 205.088 172.631 C 207.353 172.947, 211.121 174.499, 213.462 176.079 C 218.695 179.611, 229.937 184.998, 232.076 184.999 C 232.942 185, 234.690 186.105, 235.958 187.456 C 237.227 188.806, 238.543 189.860, 238.883 189.797 C 239.708 189.644, 242.805 190.788, 246.645 192.665 C 248.495 193.569, 250.686 193.917, 251.966 193.511 C 253.382 193.061, 254.776 193.392, 255.951 194.456 C 258.095 196.396, 259.579 191.064, 257.827 187.717 C 255.577 183.416, 261.541 173.421, 264.715 176.176 C 265.697 177.029, 270.074 179.150, 274.442 180.891 C 278.810 182.632, 283.845 185.170, 285.631 186.532 C 289.611 189.568, 290.349 188.644, 289.484 181.716 C 288.646 175.013, 290.785 172.344, 295.561 174.131 C 297.833 174.981, 299.291 174.905, 301.986 173.797 C 305.047 172.540, 305.798 172.551, 308.133 173.891 C 312.071 176.151, 313.708 174.244, 314.546 166.417 C 315.325 159.144, 317.917 156, 323.135 156 C 326.870 156, 326.803 155.741, 321.500 149.679 C 316.497 143.960, 316.058 142.162, 319.010 139.491 C 320.963 137.723, 321.096 137.740, 323.646 140.086 C 326.271 142.500, 326.271 142.500, 325.001 140.065 C 323.844 137.846, 324.013 137.378, 326.896 134.802 C 330.061 131.974, 330.061 131.974, 327.690 131.072 C 326.386 130.576, 323.110 128.256, 320.409 125.916 C 311.825 118.475, 291.454 109.884, 287.462 112.020 C 286.182 112.705, 284.542 112.963, 283.817 112.594 C 282.051 111.693, 279.045 109.844, 275.985 107.777 C 272.755 105.595, 254.963 104.823, 252.327 106.750 M 376.556 131.500 C 376.878 132.600, 377.398 135.637, 377.710 138.250 C 378.023 140.863, 378.725 143, 379.270 143 C 380.576 143, 379.638 137.424, 377.588 132.994 C 376.698 131.072, 376.234 130.400, 376.556 131.500 M 328.546 138.750 C 331.241 144.959, 327.478 149.340, 323.439 144.694 C 322.098 143.151, 321.006 142.476, 321.014 143.194 C 321.021 143.912, 323.486 147.392, 326.490 150.926 C 332.846 158.403, 332.586 159.741, 324.687 160.201 C 319.537 160.500, 319.537 160.500, 318.404 167.435 C 316.865 176.848, 312.300 181.134, 307.528 177.644 C 305.959 176.497, 305.083 176.521, 301.827 177.800 C 298.911 178.945, 297.408 179.051, 295.623 178.238 C 293.267 177.164, 293.267 177.165, 293.383 184.045 C 293.547 193.703, 291.763 195.507, 286.343 191.166 C 284.229 189.473, 278.900 186.656, 274.500 184.907 C 270.100 183.158, 265.788 181.112, 264.919 180.361 C 263.109 178.798, 260.547 184.649, 262.007 187.011 C 263.581 189.559, 262.272 197.361, 259.955 199.238 C 257.268 201.413, 258.862 203.866, 265 207 C 269.524 209.310, 272.326 212.455, 272.762 215.714 C 273.389 220.394, 276.164 224.338, 284.913 232.982 C 289.655 237.667, 295.719 244.088, 298.389 247.250 C 301.059 250.412, 303.828 253, 304.544 253 C 308.789 253, 312.867 261.107, 310.429 264.699 C 307.547 268.946, 308.051 270.374, 311.753 268.453 C 317.292 265.579, 318.207 270.043, 314.479 281.765 C 313.575 284.609, 315.144 284.114, 322.309 279.292 C 328.719 274.978, 336.427 275.336, 334.020 279.835 C 333.530 280.751, 332.489 282.850, 331.706 284.500 C 323.405 302.011, 320.330 304.508, 310.659 301.598 C 306 300.196, 306 300.196, 306 305.681 C 306 308.698, 306.337 311.002, 306.750 310.801 C 307.163 310.600, 308.789 309.792, 310.365 309.005 C 313.798 307.290, 319 311.879, 319 316.622 C 319 318.194, 319.983 319.985, 321.500 321.179 C 324.298 323.379, 324.775 327.112, 322.500 329 C 320.039 331.042, 320.773 332, 324.800 332 C 331.168 332, 332.342 334.252, 328.411 338.923 C 325.367 342.541, 325.466 342.576, 331.741 340.102 C 347.736 333.798, 376.083 333.408, 382.886 339.399 C 385.271 341.500, 385.271 341.500, 384.646 335 C 384.302 331.425, 383.564 314.775, 383.008 298 C 382.451 281.225, 381.773 266.375, 381.501 265 C 381.229 263.625, 380.549 254.175, 379.990 244 C 379.431 233.825, 378.531 223.475, 377.991 221 C 377.450 218.525, 376.302 209.075, 375.439 200 C 373.107 175.465, 373.155 175.612, 363.672 164.285 C 347.331 144.766, 337.647 137, 329.650 137 C 328.252 137, 327.976 137.438, 328.546 138.750 M 378 162.206 C 378 168.783, 379.335 171.659, 381.096 168.878 C 382.518 166.633, 382.131 163.237, 380 159.261 C 378 155.530, 378 155.530, 378 162.206 M 398.829 159 C 398.640 160.925, 398.825 164.075, 399.239 166 C 400.353 171.179, 402.180 182, 402.616 186 C 402.825 187.925, 403.423 193.100, 403.945 197.500 C 404.466 201.900, 404.916 206.582, 404.946 207.905 C 404.998 210.220, 405.072 210.244, 406.937 208.557 C 408.002 207.593, 409.240 207.025, 409.687 207.294 C 414.165 209.993, 406.653 169.764, 400.483 158 C 399.172 155.500, 399.172 155.500, 398.829 159 M 384.175 170.927 C 383.595 172.593, 383.503 174.193, 383.971 174.482 C 384.439 174.771, 384.044 176.609, 383.093 178.564 C 381.651 181.528, 381.523 183.113, 382.322 188.076 C 383.148 193.204, 383.039 194.300, 381.538 195.958 C 379.411 198.308, 379.905 200.290, 382.667 200.494 C 384.632 200.639, 384.751 199.957, 385.420 184.716 C 386.149 168.131, 385.944 165.854, 384.175 170.927 M 182.981 176.141 C 174.229 180.010, 160.922 208.497, 168.500 207.143 C 170.503 206.785, 176.339 206.785, 178.820 207.143 C 185.596 208.121, 191.612 227.975, 187.016 234.192 C 185.810 235.823, 185.095 237.428, 185.426 237.759 C 186.996 239.329, 180.764 243.861, 178.315 242.930 C 176.970 242.418, 174.809 242, 173.512 242 C 172.215 242, 169.809 240.869, 168.167 239.487 C 158.809 231.613, 163.337 282.926, 174.521 311.500 C 177.528 319.182, 177.953 319.841, 177.426 316 C 177.086 313.525, 176.176 310.503, 175.404 309.285 C 171.815 303.624, 175.609 298.891, 182.034 301.011 C 190.389 303.769, 189.599 295.200, 180.821 287.850 C 174.546 282.596, 173.876 285.801, 186.747 259.500 C 189.657 253.553, 192.191 245.592, 194.864 234 C 198.474 218.345, 202.837 209.956, 206.614 211.405 C 207.320 211.676, 209.383 211.143, 211.199 210.221 C 216.361 207.598, 225.687 208.146, 231.236 211.398 C 235.177 213.708, 235.882 213.847, 236.977 212.528 C 238.463 210.737, 244 213.969, 244 216.627 C 244 217.447, 244.444 217.844, 244.986 217.509 C 246.681 216.461, 245.510 213.189, 242.631 210.924 C 240.339 209.121, 239.949 208.171, 240.332 205.325 C 240.969 200.602, 232.185 190.449, 223.500 185.869 C 220.200 184.128, 215.634 181.467, 213.353 179.955 C 211.072 178.444, 207.353 176.947, 205.088 176.631 C 202.824 176.314, 200.110 175.594, 199.058 175.031 C 196.349 173.581, 187.371 174.201, 182.981 176.141 M 389 197.083 C 389 212.491, 389.001 212.500, 391.294 212.500 C 394.520 212.500, 395.185 197.673, 392.186 192.591 C 391.158 190.848, 390.274 187.931, 390.222 186.108 C 389.927 175.735, 389 184.061, 389 197.083 M 240.210 196.634 C 244.024 200.842, 244.780 202.291, 244.404 204.675 C 244.036 207.010, 244.517 208.006, 246.844 209.726 C 249.519 211.704, 249.721 212.304, 249.479 217.526 C 249.138 224.875, 247.945 226.075, 243.931 223.107 C 242.236 221.854, 239.420 220.743, 237.674 220.640 C 233.786 220.410, 231.932 219.341, 232.563 217.695 C 234.076 213.755, 218.205 210.988, 211.500 214.024 C 209.850 214.771, 207.624 215.408, 206.553 215.441 C 204.218 215.512, 201.794 221.368, 198.871 234 C 195.243 249.679, 193.664 253.875, 184.123 273.198 C 179.807 281.939, 185.559 276.969, 191.606 266.733 C 198.873 254.433, 205.776 253.986, 209.029 265.605 C 210.841 272.076, 212.382 269.735, 211.151 262.382 C 208.731 247.924, 210.056 240.135, 215.749 235.353 C 219.491 232.211, 219.494 232.203, 217.557 230.063 C 212.231 224.178, 228.221 217.855, 233.729 223.668 C 236.164 226.238, 236.839 226.470, 239.303 225.584 C 241.312 224.862, 242.586 224.917, 243.803 225.778 C 254.801 233.562, 259.998 230.566, 259.158 216.925 C 258.955 213.614, 251.198 203.612, 246.292 200.334 C 244.206 198.941, 240.938 196.383, 239.029 194.651 C 236.718 192.552, 237.112 193.215, 240.210 196.634 M 254.860 203.500 C 264.307 215.240, 265.287 219.498, 260.639 228.615 C 256.849 236.047, 256.281 236.319, 250.324 233.558 C 247.530 232.264, 244.938 230.709, 244.564 230.103 C 244.189 229.496, 242.679 229, 241.208 229 C 238.682 229, 238.824 229.254, 243.767 233.578 C 249.735 238.798, 249.735 238.796, 246.879 242.426 C 244.759 245.122, 244.759 245.122, 242.572 243.068 C 239.695 240.365, 237.036 242.277, 239.652 245.168 C 240.910 246.558, 241.014 247.278, 240.112 248.364 C 239.204 249.459, 239.301 249.902, 240.556 250.383 C 244.057 251.726, 247.146 250.863, 250.868 247.500 C 255.081 243.694, 256.366 243.456, 263.939 245.080 C 272.105 246.832, 273.394 248.425, 271.557 254.500 C 270.726 257.250, 269.981 259.725, 269.903 260 C 269.578 261.141, 267.899 265.639, 267.104 267.500 C 266.634 268.600, 265.521 272.007, 264.630 275.071 C 263.740 278.134, 261.928 281.658, 260.605 282.901 C 258.844 284.556, 258.319 285.919, 258.646 287.993 C 258.892 289.550, 258.622 291.116, 258.046 291.471 C 257.471 291.827, 257 293.127, 257 294.360 C 257 297.270, 250.333 307.406, 245.099 312.453 C 242.732 314.736, 241 317.339, 241 318.614 C 241 319.828, 240.118 323.655, 239.040 327.118 C 237.963 330.581, 237.270 333.603, 237.501 333.834 C 239.023 335.356, 231.848 343.371, 229.366 342.920 C 228.890 342.834, 228.275 342.863, 228 342.985 C 227.725 343.107, 225.700 343.279, 223.500 343.366 C 218.456 343.567, 214 346.459, 214 349.532 C 214 350.887, 212.875 352.652, 211.263 353.827 C 206.816 357.067, 213.563 357.747, 224.523 355.163 C 233.336 353.085, 235.179 353.170, 238.231 355.790 C 239.631 356.991, 240.252 357.036, 241.472 356.023 C 243.460 354.373, 251.146 355.508, 255.352 358.073 C 257.083 359.129, 259.992 359.994, 261.816 359.996 C 263.639 359.998, 266.038 360.485, 267.147 361.079 C 268.749 361.936, 270.300 361.619, 274.702 359.535 C 280.312 356.878, 288.210 354.410, 295.500 353.034 C 299.731 352.236, 313.662 348.391, 318.183 346.773 C 319.658 346.245, 320.659 345.275, 320.407 344.618 C 320.155 343.961, 321.310 342.119, 322.974 340.525 C 326.840 336.821, 326.782 336, 322.655 336 C 317.521 336, 315.351 333.095, 317.985 329.747 C 320.611 326.408, 320.526 325.202, 317.500 322.821 C 315.880 321.547, 315 319.853, 315 318.009 C 315 311.761, 313.161 310.563, 309.231 314.250 C 303.729 319.411, 298.732 304.108, 304.064 298.432 C 306.022 296.347, 306.365 296.305, 310.723 297.617 C 318.415 299.932, 322.194 298.299, 323.670 292.020 C 323.996 290.634, 325.036 288.600, 325.982 287.500 C 329.445 283.472, 329.022 279.077, 325.456 282.036 C 324.655 282.701, 324 282.911, 324 282.504 C 324 282.096, 322.427 282.962, 320.505 284.428 C 313.387 289.857, 306.983 288.510, 309.990 282.216 C 313.042 275.827, 313.720 271.079, 311.265 273.278 C 308.708 275.569, 303.404 269.817, 305.167 266.666 C 307.382 262.708, 304.848 256.668, 300.232 254.903 C 298.985 254.426, 297.575 253.013, 297.100 251.763 C 296.624 250.512, 290.960 244.092, 284.513 237.495 C 273.194 225.913, 270.023 221.576, 268.626 215.763 C 268.264 214.257, 266.738 212.266, 265.234 211.338 C 263.730 210.410, 260.057 207.367, 257.070 204.575 C 252.041 199.874, 251.878 199.795, 254.860 203.500 M 169.290 211.288 C 167.080 212.528, 167.080 212.528, 169.642 215.802 C 171.547 218.235, 172.529 218.806, 173.470 218.025 C 174.167 217.447, 176.593 216.867, 178.863 216.737 C 183.409 216.476, 183.639 215.566, 179.870 212.753 C 176.646 210.345, 172.095 209.715, 169.290 211.288 M 407.852 213.500 C 407.630 216.696, 407.727 218.706, 408.335 223.500 C 408.544 225.150, 408.782 227.400, 408.863 228.500 C 408.944 229.600, 410.093 231.850, 411.418 233.500 C 413.826 236.500, 413.826 236.500, 412.826 231.500 C 412.277 228.750, 411.510 223.800, 411.122 220.500 C 410.261 213.162, 408.185 208.718, 407.852 213.500 M 169.011 224.979 C 167.644 227.533, 168.720 231.780, 171.049 233.026 C 174.363 234.800, 175.088 234.038, 172.901 231.080 C 171.376 229.017, 170.933 227.404, 171.390 225.580 C 172.157 222.526, 170.542 222.118, 169.011 224.979 M 222.112 226.082 C 219.879 226.976, 219.830 227.155, 221.362 228.848 C 223.703 231.435, 223.483 232.154, 218.843 237.084 C 214.127 242.093, 212.887 250.288, 215.041 262.206 C 215.808 266.449, 215.765 268.403, 214.875 269.828 C 213.918 271.360, 214.026 272.721, 215.411 276.622 C 216.364 279.305, 217.816 284.179, 218.639 287.454 C 219.461 290.729, 220.435 293.879, 220.802 294.454 C 221.478 295.514, 221.650 296.101, 221.875 298.122 C 222.026 299.483, 225 297.283, 225 295.811 C 225 294.036, 230.238 287.995, 232.871 286.733 C 234.317 286.040, 235.500 284.880, 235.500 284.156 C 235.500 283.431, 236.374 282.200, 237.441 281.419 C 238.509 280.639, 239.001 280, 238.535 280 C 238.069 280, 239.906 277.863, 242.617 275.250 C 245.921 272.066, 247.619 269.576, 247.766 267.697 C 247.887 266.155, 248.408 264.106, 248.923 263.143 C 250.443 260.304, 248.893 259.500, 241.901 259.500 C 232.783 259.500, 224 254.562, 224 249.435 C 224 247.021, 226.387 244.503, 227.829 245.395 C 228.334 245.706, 228.728 244.057, 228.705 241.731 C 228.683 239.404, 229.017 236.488, 229.449 235.250 C 230.034 233.571, 229.854 233, 228.739 233 C 224.051 233, 224.341 227.203, 229.095 225.872 C 231.118 225.306, 230.944 225.194, 228 225.163 C 226.075 225.143, 223.425 225.557, 222.112 226.082 M 389.506 229.990 C 389.169 230.535, 389.231 234.922, 389.644 239.740 C 390.056 244.558, 390.578 247.600, 390.804 246.500 C 391.030 245.400, 391.522 244.050, 391.896 243.500 C 392.271 242.950, 392.409 239.463, 392.203 235.750 C 391.855 229.470, 390.981 227.603, 389.506 229.990 M 234.332 235.578 C 233.198 238.533, 236.584 240.687, 238.969 238.528 C 240.941 236.743, 241.065 236.745, 243.250 238.579 C 244.488 239.619, 244.178 239.013, 242.563 237.234 C 239.404 233.756, 235.344 232.939, 234.332 235.578 M 413 244.607 C 413 244.838, 413.421 245.809, 413.936 246.764 C 414.656 248.099, 417.211 262.025, 418.115 269.544 C 418.178 270.070, 418.579 268.700, 419.006 266.500 C 419.433 264.300, 419.411 261.796, 418.956 260.936 C 418.501 260.076, 418.300 256.687, 418.509 253.405 C 418.718 250.123, 418.576 246.962, 418.194 246.381 C 417.508 245.336, 413 243.797, 413 244.607 M 230.070 248.426 C 227.785 250.858, 227.961 253, 230.445 253 C 231.174 253, 233.060 253.672, 234.636 254.494 C 236.211 255.315, 239.300 255.946, 241.500 255.896 C 245.500 255.804, 245.500 255.804, 241.164 254.644 C 236.375 253.363, 233.683 250.573, 234.563 247.802 C 235.398 245.170, 232.788 245.532, 230.070 248.426 M 250.750 251.541 C 247.210 254.832, 245.800 256.859, 247.996 255.502 C 251.726 253.197, 255.953 255.316, 254.448 258.737 C 254.022 259.707, 253.597 260.725, 253.505 261 C 253.038 262.391, 251.844 266.792, 251.591 268.059 C 250.967 271.176, 249.523 273.647, 246.365 277 C 244.553 278.925, 242.027 282.075, 240.753 284 C 239.478 285.925, 236.763 288.588, 234.718 289.918 C 232.673 291.247, 231 293.134, 231 294.111 C 231 295.088, 230.213 296.481, 229.250 297.209 C 228.287 297.936, 227.026 299.384, 226.446 300.428 C 224.469 303.987, 218.680 301.670, 217.530 296.858 C 216.076 290.773, 215.522 290.221, 213.079 292.423 C 209.085 296.021, 197.815 298.600, 193.361 296.934 C 191.558 296.260, 191.303 296.443, 191.736 298.100 C 192.021 299.190, 191.494 300.902, 190.552 301.942 C 188.578 304.124, 188.049 303.856, 199.500 306.482 C 212.966 309.571, 214.854 310.233, 218.165 313.030 C 220.686 315.159, 221.256 316.197, 220.500 317.283 C 219.950 318.073, 218.645 319.931, 217.601 321.412 C 215.720 324.078, 215.723 324.134, 217.931 327.121 C 220.392 330.450, 220.047 332.914, 217.006 333.709 C 215.915 333.994, 215.288 334.657, 215.612 335.182 C 215.937 335.707, 216.819 335.900, 217.574 335.610 C 218.328 335.321, 219.587 336, 220.371 337.119 C 221.825 339.195, 226.638 340.394, 227.556 338.909 C 227.836 338.457, 228.653 338.313, 229.372 338.589 C 231.022 339.222, 233.081 336.800, 233.443 333.798 C 233.595 332.534, 234.458 329.056, 235.360 326.068 C 236.262 323.081, 237 319.778, 237 318.729 C 237 317.679, 239.255 314.291, 242.010 311.199 C 251.356 300.714, 255.471 292.477, 252.907 289.387 C 252.223 288.564, 253.098 286.853, 255.796 283.735 C 258.138 281.029, 260.163 277.337, 260.926 274.382 C 261.619 271.697, 262.584 268.600, 263.072 267.500 C 263.929 265.567, 266.120 259.731, 266.160 259.277 C 266.171 259.154, 266.783 257.048, 267.521 254.595 C 268.863 250.136, 268.863 250.136, 263.882 249.068 C 256.371 247.457, 254.830 247.747, 250.750 251.541 M 402.079 268.114 C 402.036 273.951, 402.423 280.959, 402.941 283.688 C 403.458 286.416, 403.969 295.727, 404.077 304.379 C 404.236 317.186, 404.525 320.012, 405.634 319.587 C 407.853 318.735, 409.664 322.964, 410.843 331.747 C 411.452 336.283, 412.733 341.189, 413.689 342.648 C 414.645 344.107, 415.751 348.046, 416.146 351.401 C 417.857 365.912, 421.098 383.038, 423.411 389.791 C 425.878 396.994, 427.785 410.366, 428.147 423 C 428.367 430.696, 428.895 433.183, 430.147 432.409 C 430.653 432.097, 430.939 426.501, 430.783 419.975 C 430.582 411.557, 430.859 407.748, 431.736 406.868 C 432.718 405.882, 432.626 405.244, 431.285 403.763 C 430.266 402.636, 429.688 400.560, 429.826 398.515 C 429.997 395.973, 429.301 394.273, 427.027 391.683 C 425.362 389.787, 424.004 387.620, 424.009 386.868 C 424.018 385.538, 419.960 363.723, 415.943 343.500 C 413.530 331.358, 410.046 297.627, 410.019 286.160 C 410.003 278.974, 409.717 277.591, 407.951 276.160 C 405.416 274.107, 403.650 267.126, 405.195 265.265 C 405.986 264.312, 405.872 263.499, 404.768 262.231 C 403.939 261.279, 403.013 259.825, 402.709 259 C 402.406 258.175, 402.122 262.276, 402.079 268.114 M 390.659 264.274 C 390.323 267.148, 390.290 270.418, 390.586 271.539 C 390.929 272.841, 390.377 274.254, 389.062 275.444 C 386.594 277.678, 386.066 281.020, 388.500 279 C 389.697 278.007, 390.303 278.007, 391.500 279 C 393.857 280.956, 393.272 283.593, 389.840 286.481 C 386.679 289.141, 386.679 289.141, 389.869 292.320 C 393.542 295.982, 395.410 294.862, 394.575 289.500 C 394.318 287.850, 393.800 280.528, 393.424 273.229 C 392.697 259.098, 391.657 255.732, 390.659 264.274 M 194.171 269.414 C 191.286 274.330, 188.385 278, 186.772 278.776 C 179.269 282.385, 189.066 294.172, 199 293.488 C 212.848 292.535, 214.091 289.133, 207.136 271.211 C 202.163 258.397, 200.750 258.201, 194.171 269.414 M 415.660 287.136 C 412.648 298.390, 420.438 350.574, 428.777 375.006 C 434.793 392.630, 436.282 392.628, 433.104 375 C 430.572 360.951, 428.359 346.147, 426.527 331 C 423.913 309.397, 417.082 281.822, 415.660 287.136 M 395.595 296.890 C 393.299 299.433, 392.229 299.518, 389.829 297.345 C 387.750 295.464, 387.304 305.881, 388.650 324.846 C 389.370 334.997, 390.016 335.680, 394.482 331.018 C 396.827 328.571, 397.604 328.257, 398.819 329.265 C 400.343 330.530, 399.989 314.418, 398.179 300.140 C 397.500 294.784, 397.499 294.782, 395.595 296.890 M 439.429 305.750 C 439.788 307.813, 440.568 310.738, 441.162 312.251 C 441.994 314.368, 441.927 315.405, 440.872 316.751 C 439.636 318.326, 439.670 318.367, 441.206 317.164 C 442.145 316.429, 443.448 316.159, 444.102 316.563 C 444.978 317.104, 445.087 316.534, 444.516 314.399 C 444.089 312.805, 443.650 310.375, 443.541 309 C 443.318 306.200, 440.982 302, 439.648 302 C 439.169 302, 439.071 303.688, 439.429 305.750 M 182.030 310.766 C 183.166 312.210, 185.052 313.537, 186.219 313.716 C 187.387 313.894, 189.053 314.593, 189.922 315.270 C 191.315 316.356, 191.339 316.295, 190.128 314.750 C 189.008 313.322, 188.991 312.716, 190.037 311.456 C 192.794 308.134, 202.998 313.266, 201.013 316.976 C 200.512 317.912, 200.356 319.646, 200.666 320.830 C 201.076 322.400, 200.359 323.796, 198.021 325.981 C 194.812 328.978, 194.812 328.978, 197.156 329.870 C 203.587 332.318, 206.819 333.899, 207.437 334.898 C 208.562 336.719, 210.367 336.058, 212.849 332.917 C 214.472 330.864, 214.896 329.566, 214.222 328.722 C 211.840 325.743, 211.943 323.221, 214.575 320.094 C 217.779 316.285, 216.928 314.751, 210.731 313.168 C 188.462 307.480, 178.810 306.672, 182.030 310.766 M 180.441 327 C 180.834 328.375, 181.497 331.115, 181.914 333.089 C 183.609 341.106, 195.636 353.698, 198.685 350.648 C 203.875 345.458, 201.078 338.464, 192 333.933 C 189.525 332.698, 185.751 330.070, 183.614 328.094 C 179.978 324.731, 179.774 324.661, 180.441 327 M 403.625 329.125 C 402.388 335.312, 402.737 336.604, 404.903 333.851 C 406.152 332.262, 406.627 330.500, 406.286 328.716 C 405.594 325.094, 404.394 325.278, 403.625 329.125 M 395.548 335.923 C 395.234 336.431, 393.745 337.116, 392.239 337.445 C 388.870 338.182, 388.523 350.550, 391.838 351.714 C 392.752 352.035, 394.479 353.178, 395.676 354.254 C 398.320 356.630, 400.910 355.667, 398.643 353.151 C 397.650 352.049, 397.046 348.758, 396.827 343.256 C 396.484 334.598, 396.458 334.450, 395.548 335.923 M 203.820 338.750 C 205.728 341.431, 205.733 341.643, 203.997 347.250 C 202.216 353, 202.216 353, 204.986 353 C 208.202 353, 210.285 350.939, 209.823 348.213 C 209.433 345.908, 211.634 343.030, 213.872 342.919 C 214.768 342.875, 213.923 342.087, 211.996 341.169 C 210.069 340.251, 207.382 338.712, 206.024 337.750 C 202.441 335.210, 201.580 335.601, 203.820 338.750 M 345.217 340.452 C 336.959 342.135, 336.174 343.127, 343.581 342.519 C 362.292 340.982, 361.618 340.955, 363.682 343.300 C 365.940 345.865, 368.217 350.840, 367.595 351.846 C 367.358 352.230, 370.493 352.083, 374.561 351.522 C 378.629 350.960, 381.967 350.163, 381.979 349.750 C 382.240 340.601, 380.965 339.862, 364.249 339.470 C 356.591 339.290, 348.991 339.682, 345.217 340.452 M 444 344.840 C 444 346.402, 444.910 351.240, 446.023 355.590 C 447.136 359.941, 448.149 365.805, 448.273 368.622 C 448.435 372.271, 448.863 373.606, 449.763 373.261 C 450.457 372.994, 451.672 373.313, 452.463 373.969 C 453.682 374.981, 453.811 374.613, 453.313 371.542 C 452.848 368.675, 453.182 367.436, 454.915 365.591 C 457.095 363.270, 457.095 363.258, 455.057 362.725 C 453.931 362.431, 452.849 361.585, 452.652 360.845 C 448.496 345.255, 444 336.939, 444 344.840 M 356.700 345.631 C 356.590 345.739, 354.025 345.942, 351 346.082 C 343.197 346.444, 343.051 346.551, 344.901 350.591 C 346.386 353.835, 346.749 354.041, 350 353.488 C 351.925 353.161, 355.300 352.655, 357.500 352.364 C 364.165 351.483, 364.260 351.403, 362.541 348.080 C 361.270 345.621, 358.070 344.280, 356.700 345.631 M 404 348.274 C 404 350.259, 403.521 352.178, 402.935 352.540 C 402.224 352.980, 402.366 353.747, 403.363 354.849 C 406.552 358.376, 411.442 380.152, 413.395 399.528 C 414.062 406.144, 415.012 412.210, 415.506 413.009 C 415.999 413.808, 416.425 417.395, 416.452 420.981 C 416.497 427.162, 416.630 427.518, 419 427.841 C 420.375 428.029, 422.212 428.818, 423.083 429.595 C 424.480 430.842, 424.637 430.743, 424.417 428.754 C 424.279 427.514, 424.129 425.011, 424.083 423.191 C 424.038 421.371, 423.615 420.120, 423.145 420.410 C 420.783 421.870, 417.746 415.982, 416.904 408.308 C 416.432 404.014, 415.597 398.700, 415.047 396.500 C 413.626 390.813, 413.770 384.921, 415.376 383.079 C 417.112 381.086, 415.256 367.068, 413.341 367.715 C 411.731 368.258, 407.118 361.951, 406.540 358.416 C 406.277 356.812, 405.840 353.304, 405.569 350.621 C 404.972 344.725, 404 343.271, 404 348.274 M 409.747 352.262 C 410.298 358.925, 411.916 364.369, 412.710 362.229 C 412.969 361.530, 412.690 359.550, 412.090 357.830 C 411.491 356.109, 411 352.995, 411 350.910 C 411 348.824, 410.602 346.872, 410.116 346.571 C 409.619 346.265, 409.457 348.760, 409.747 352.262 M 336 350.243 C 334.625 350.857, 329.900 351.665, 325.500 352.039 C 307.381 353.577, 281.508 360.227, 268.770 366.619 C 259.062 371.491, 256.163 371.943, 253.500 369 C 252.505 367.900, 250.996 367, 250.149 367 C 249.095 367, 249.619 368.043, 251.804 370.298 C 255.904 374.527, 255.884 374.651, 250.250 380.030 C 240.130 389.694, 233.579 400.231, 231.463 410.250 C 229.825 418.001, 230.330 417.769, 243.535 404.698 C 254.844 393.504, 256.888 392.018, 270.525 385.076 C 274.388 383.109, 278.836 380.488, 280.409 379.250 C 281.983 378.012, 283.773 377, 284.388 377 C 285.003 377, 287.651 375.475, 290.271 373.612 C 294.929 370.301, 305.455 366.484, 319.500 363.013 C 323.350 362.062, 329.519 359.870, 333.208 358.142 C 336.898 356.414, 340.385 355, 340.958 355 C 342.384 355, 342.274 351.674, 340.800 350.200 C 339.389 348.789, 339.255 348.790, 336 350.243 M 243.604 360.410 C 244.043 361.556, 244.596 361.750, 245.434 361.055 C 246.274 360.357, 248.215 361.099, 251.905 363.529 C 257.698 367.344, 259.281 367.626, 263 365.500 C 265.500 364.071, 265.500 364.071, 262 364.032 C 260.075 364.010, 257.083 363.129, 255.352 362.073 C 250.848 359.327, 242.748 358.180, 243.604 360.410 M 312.500 369.015 C 296.588 373.312, 293.564 375.815, 296.698 382.097 C 297.488 383.680, 297.917 385.325, 297.653 385.753 C 297.388 386.181, 297.806 388.977, 298.581 391.966 C 299.963 397.293, 299.942 397.451, 297.495 400.005 C 296.123 401.437, 295 403.115, 295 403.732 C 295 404.350, 293.890 405.728, 292.533 406.795 C 288.131 410.258, 288.110 415.984, 292.487 418.911 C 297.307 422.133, 300.325 426.519, 299.759 429.479 C 299.424 431.231, 300.049 432.400, 302.153 433.955 C 305.329 436.303, 305.419 436.232, 303.993 432.481 C 303.439 431.024, 303.313 429.307, 303.712 428.666 C 304.111 428.025, 304.313 426.527, 304.159 425.337 C 303.997 424.084, 305.323 421.285, 307.311 418.679 C 309.199 416.207, 311.038 412.612, 311.398 410.692 C 311.758 408.772, 312.664 406.694, 313.411 406.074 C 314.347 405.297, 314.664 403.180, 314.431 399.270 C 314.245 396.148, 314.468 393.122, 314.928 392.547 C 316.645 390.394, 317.303 383.375, 316.515 375.591 C 316.224 372.712, 316.479 370.128, 317.132 369.341 C 318.418 367.791, 317.318 367.714, 312.500 369.015 M 404.328 373.500 C 406.592 388.448, 405.789 393.585, 401.213 393.422 C 398.709 393.333, 396.981 399.067, 398.655 401.909 C 399.171 402.784, 399.683 410.177, 399.793 418.337 C 400.012 434.560, 401.760 439.304, 406.088 435.412 C 407.471 434.168, 407.880 434.210, 409.266 435.742 C 411.348 438.042, 411.333 438.346, 408.938 442.610 C 406.574 446.820, 407.089 448.134, 410.052 445.453 C 412.976 442.806, 415.254 444.566, 416.521 450.451 C 417.277 453.959, 418.561 456.126, 421.459 458.782 C 426.178 463.107, 426.533 462.427, 424.541 452.879 C 423.694 448.821, 422.995 443.475, 422.987 441 C 422.963 433.458, 422.158 431.750, 418.858 432.234 C 414.245 432.911, 412.572 430.138, 412.422 421.565 C 412.351 417.560, 411.914 413.671, 411.451 412.921 C 410.987 412.171, 410.062 406.144, 409.395 399.528 C 408.114 386.819, 405.413 371.041, 404.353 370.075 C 404.006 369.759, 403.994 371.300, 404.328 373.500 M 455.040 382.185 C 455.018 382.562, 455.418 383.970, 455.929 385.314 C 457.029 388.206, 454.642 392.460, 452.402 391.601 C 451.266 391.165, 451.101 392.423, 451.502 398.477 C 451.792 402.871, 451.586 406.138, 450.996 406.503 C 450.448 406.841, 450 407.936, 450 408.937 C 450 413.480, 443.519 412.148, 443.012 407.500 C 442.363 401.553, 440.606 397.641, 439.851 400.463 C 439.294 402.547, 439.489 403.883, 440.517 405.019 C 442.055 406.719, 442.428 410.738, 441.699 417.770 C 441.455 420.119, 441.648 422.283, 442.128 422.579 C 442.608 422.876, 443 423.820, 443 424.677 C 443 427.768, 448.488 432.847, 450.354 431.483 C 451.804 430.423, 451.941 428.941, 451.379 420.364 C 450.645 409.177, 451.895 406.204, 456.199 408.892 C 460.407 411.520, 462.224 401.292, 458.766 394.445 C 457.947 392.825, 457.383 390.375, 457.512 389 C 457.641 387.625, 457.146 385.375, 456.413 384 C 455.680 382.625, 455.062 381.808, 455.040 382.185 M 464.449 409.250 C 463.491 412.393, 461.007 415, 458.970 415 C 455.692 415, 455.523 424.990, 458.573 438.500 C 462.239 454.739, 462.004 454.133, 464.339 453.395 C 468.358 452.125, 473.144 447.806, 472.429 446.095 C 472.063 445.218, 471.152 439.325, 470.406 433 C 468.188 414.202, 465.819 404.755, 464.449 409.250 M 439.887 442.975 C 441.683 449.868, 443.193 450.897, 442.844 444.990 C 442.692 442.410, 441.843 440.262, 440.463 438.965 C 438.318 436.950, 438.318 436.950, 439.887 442.975 M 432.481 446.409 C 432.496 451.291, 432.808 452.625, 433.842 452.229 C 434.841 451.847, 435.009 450.537, 434.497 447.108 C 433.412 439.830, 432.461 439.500, 432.481 446.409 M 240.013 449.104 C 235.610 453.722, 232.005 458.089, 232.003 458.809 C 232.002 459.529, 231.623 459.885, 231.163 459.601 C 230.703 459.316, 229.324 459.785, 228.100 460.643 C 225.403 462.532, 227.854 466.499, 231.084 465.473 C 232.045 465.168, 233.114 465.376, 233.459 465.934 C 233.832 466.538, 235.753 465.742, 238.193 463.975 C 240.452 462.339, 242.847 461, 243.515 461 C 247.274 461, 249.914 457.039, 248.466 453.573 C 247.120 450.351, 247.169 450.119, 249.527 448.574 C 252.519 446.614, 252.655 444.903, 250.010 442.509 C 248.063 440.747, 247.844 440.892, 240.013 449.104 M 307.980 442.900 C 308.765 444.405, 309.004 447.014, 308.622 449.900 C 308.067 454.094, 308.127 454.279, 309.299 452 C 310.527 449.611, 311.267 449.438, 316.375 450.345 C 318.844 450.783, 317.689 447.895, 314.814 446.442 C 312.991 445.520, 310.426 443.806, 309.114 442.633 C 306.729 440.500, 306.729 440.500, 307.980 442.900 M 398.436 458.685 C 398.606 479.489, 398.608 479.494, 407.583 479.760 C 413.159 479.925, 424.247 477.887, 425.903 476.392 C 426.124 476.192, 425.151 475.120, 423.741 474.011 C 421.318 472.105, 420.595 468.072, 422.360 466.307 C 422.705 465.962, 420.740 463.304, 417.994 460.400 C 414.525 456.732, 413 454.291, 413 452.405 C 413 449.708, 412.986 449.703, 410.895 451.595 C 409.737 452.643, 408.608 453.380, 408.384 453.234 C 408.161 453.088, 406.829 453.721, 405.425 454.641 C 401.397 457.280, 398.386 453.883, 399.898 448.406 C 400.731 445.390, 400.673 444.244, 399.633 443.204 C 398.521 442.093, 398.322 444.671, 398.436 458.685 M 215.140 448.934 C 208.538 459.122, 201.996 487.248, 207.914 480 C 209.037 478.625, 209.966 476.629, 209.978 475.564 C 209.990 474.500, 210.900 472.671, 212 471.500 C 213.277 470.141, 214.061 467.814, 214.169 465.062 C 214.284 462.111, 215.118 459.825, 216.813 457.811 C 219.291 454.866, 220.866 445.653, 219.080 444.549 C 218.648 444.283, 216.875 446.256, 215.140 448.934 M 239.405 454.384 C 233.897 459.929, 234.108 463.278, 239.673 458.649 C 241.228 457.356, 243.063 456.493, 243.750 456.732 C 245.140 457.215, 245.257 456.560, 244.370 453.250 C 243.618 450.444, 243.231 450.532, 239.405 454.384 M 381.257 480.250 C 376.887 485.778, 378.237 500.582, 383.039 499.787 C 383.991 499.629, 385.680 500.621, 386.790 501.991 C 388.782 504.449, 388.838 504.457, 390.905 502.586 C 395.282 498.625, 392.778 486.794, 388.169 489.657 C 386.715 490.560, 386.465 490.111, 386.228 486.172 C 385.860 480.057, 383.568 477.327, 381.257 480.250 M 377.151 504.991 C 375.657 507.449, 375.470 509, 376.106 513.682 C 376.991 520.205, 376.361 535.290, 375.047 539 C 370.152 552.832, 371.401 562.250, 378.502 565.038 C 394.203 571.204, 402.802 558.389, 394.723 540.863 C 393.294 537.762, 391.810 532.362, 391.426 528.863 C 391.039 525.338, 389.609 520.269, 388.220 517.500 C 386.841 514.750, 385.605 511.235, 385.474 509.689 C 384.942 503.448, 379.841 500.569, 377.151 504.991 M 379.795 507.114 C 379.568 507.795, 379.719 510.834, 380.131 513.866 C 380.995 520.237, 380.345 535.335, 379.047 539 C 375.484 549.069, 375.401 559.810, 378.876 561.180 C 392.496 566.553, 398.119 556.909, 390.723 540.863 C 389.294 537.762, 387.810 532.362, 387.426 528.863 C 387.039 525.338, 385.609 520.269, 384.220 517.500 C 382.841 514.750, 381.606 511.241, 381.475 509.702 C 381.203 506.514, 380.405 505.284, 379.795 507.114 M 308.417 530.792 C 300.497 539.923, 300.692 539.220, 301.209 556.714 C 301.512 566.960, 302.058 572.519, 302.786 572.762 C 306.748 574.083, 309 577.275, 309 581.573 C 309 584.008, 309.378 586, 309.839 586 C 310.922 586, 313 581.447, 313 579.075 C 313 578.069, 313.612 576.737, 314.360 576.117 C 315.441 575.219, 315.495 574.149, 314.626 570.893 C 313.619 567.121, 313.719 566.646, 315.893 564.886 C 317.741 563.389, 318.232 562.055, 318.155 558.737 C 318.101 556.407, 318.020 549.418, 317.976 543.207 C 317.862 527.292, 314.848 523.378, 308.417 530.792" stroke="none" fill="#1A1A1A" fill-rule="evenodd"/>
</svg>