<svg xmlns="http://www.w3.org/2000/svg" width="600" height="413" viewBox="0 0 600 413" version="1.1">
	<rect x="0" y="0" width="100%" height="100%" fill="#FFFFFF" />
	<path d="M 235.638 5.943 L 229.449 11.886 219.199 8.376 C 205.361 3.638, 194.213 2.829, 184.293 5.842 C 171.215 9.815, 163.422 10.388, 158.102 7.770 C 145.290 1.464, 107.728 8.122, 93.172 19.280 C 75.015 33.197, 67.102 49.232, 66.518 73.294 L 66.208 86.087 61.322 91.294 C 54.284 98.794, 47.694 107.679, 44.529 113.935 C 43.017 116.924, 40.292 121.531, 38.475 124.172 C 31.599 134.169, 25.047 163.999, 26.766 177.486 C 27.207 180.950, 27.077 181.309, 25.770 180.224 C 23.650 178.465, 21.498 181.252, 21.801 185.362 C 22.217 190.995, 20.381 192.012, 16.971 188.038 C 15.337 186.134, 14 183.841, 14 182.943 C 14 182.045, 13.103 180.498, 12.006 179.506 C 10.061 177.745, 9.889 177.825, 4.915 182.799 C -1.182 188.897, -0.849 190.927, 5.680 187.455 C 8.220 186.105, 10.380 185, 10.479 185 C 10.579 185, 12.140 187.059, 13.947 189.575 C 17.334 194.292, 20.715 196.398, 22.546 194.932 C 23.628 194.065, 23.826 194.654, 28.058 211.261 C 30.048 219.072, 30.128 220.210, 28.797 221.761 C 26.438 224.508, 26.045 226.579, 27.133 230.519 C 28.386 235.058, 28.247 235.195, 23.787 233.827 C 21.790 233.214, 19.355 233.075, 18.338 233.517 C 17.327 233.956, 15.971 234.233, 15.325 234.131 C 14.679 234.030, 13.871 234.400, 13.529 234.953 C 12.726 236.252, 9.626 234.537, 4.865 230.160 C 2.562 228.043, 0.982 227.220, 0.553 227.915 C -0.363 229.397, 6.803 238, 8.954 238 C 9.896 238, 10.923 238.256, 11.236 238.569 C 11.950 239.284, 4.141 246.438, 1.667 247.336 C 0.659 247.702, 0.021 248.563, 0.250 249.251 C 1.089 251.771, 4.165 251.105, 7.367 247.710 C 9.160 245.809, 11.498 244.007, 12.563 243.706 C 13.629 243.405, 15.513 242.868, 16.750 242.512 C 18.714 241.947, 19 242.233, 19 244.759 C 19 247.376, 18.725 247.613, 16.135 247.233 C 12.505 246.700, 8.268 251.764, 9.858 254.735 C 11.937 258.619, 14.970 260.500, 17.056 259.197 C 18.595 258.236, 18.997 258.245, 18.986 259.242 C 18.954 262.222, 17.734 264.645, 15.816 265.539 C 14.682 266.068, 13.153 268.290, 12.417 270.478 C 11.185 274.142, 11.242 274.629, 13.150 276.659 C 15.026 278.657, 15.115 279.314, 14.098 283.682 C 13.481 286.332, 12.120 292.550, 11.075 297.500 C 10.029 302.450, 9.134 305.522, 9.087 304.327 C 9.039 303.131, 7.988 300.878, 6.750 299.319 C 5.512 297.760, 4.001 295.588, 3.391 294.492 C 2.781 293.396, 1.881 292.589, 1.391 292.697 C -0.524 293.121, -0.031 296.174, 2.424 299.092 C 3.841 300.776, 5 302.780, 5 303.546 C 5 304.312, 5.883 306.512, 6.963 308.434 C 8.110 310.477, 8.526 312.175, 7.963 312.523 C 6.761 313.266, 6.702 317.276, 7.874 318.550 C 9.016 319.791, 7.538 332.846, 5.577 338.836 C 4.738 341.401, 3.363 347.775, 2.523 353 C 1.683 358.225, 0.805 363.571, 0.572 364.879 C 0.339 366.188, 0.536 368.279, 1.010 369.526 C 1.484 370.774, 1.570 372.097, 1.201 372.466 C 0.056 373.611, 0.175 378.901, 1.368 379.878 C 1.991 380.388, 4.413 381.316, 6.750 381.941 C 11.688 383.261, 11.882 383.822, 8.500 387 C 6.691 388.699, 6 390.390, 6 393.115 C 6 397.311, 4.651 398.785, 2.468 396.973 C 0.517 395.354, -0.739 398.404, 1.011 400.513 C 4.218 404.378, 10 399.752, 10 393.320 C 10 389.751, 10.312 388.906, 11.463 389.348 C 12.285 389.663, 13.709 388.943, 14.713 387.704 C 15.696 386.492, 17.850 385.049, 19.500 384.498 C 21.548 383.814, 23.134 382.187, 24.500 379.369 C 25.600 377.099, 28.384 373.202, 30.687 370.711 C 32.991 368.219, 36.024 363.912, 37.429 361.139 C 38.834 358.367, 41.646 354.838, 43.678 353.299 C 45.710 351.760, 49.162 348.810, 51.351 346.745 C 53.539 344.679, 58.209 341.629, 61.728 339.966 C 66.718 337.608, 68.430 336.214, 69.510 333.631 C 70.886 330.336, 72.776 328.625, 82.697 321.692 L 87.893 318.061 91.980 325.280 C 96.028 332.432, 103.823 342.572, 114.722 354.866 C 120.987 361.931, 121.100 362.321, 122.479 381.673 L 123.205 391.846 119.145 394.408 C 112.254 398.758, 111.426 402.138, 115.981 407.325 C 121.228 413.302, 133.868 413.316, 139.143 407.352 C 142.912 403.092, 147.494 377.805, 146.777 365.229 C 146.178 354.713, 141.783 345.045, 137.576 344.985 C 135.078 344.949, 133.758 342.778, 129.642 331.936 C 124.384 318.083, 122.381 314.118, 117.088 307.077 L 113.011 301.654 116.756 299.554 C 121.072 297.134, 135.878 292, 138.542 292 C 139.532 292, 141.170 292.749, 142.182 293.664 C 143.908 295.227, 144.176 295.184, 146.540 292.962 C 147.925 291.661, 148.835 290.012, 148.561 289.298 C 147.706 287.071, 149.115 285, 151.484 285 C 152.733 285, 158.197 283.622, 163.627 281.938 C 173.288 278.941, 173.832 278.886, 189 279.384 C 208.958 280.038, 213 280.652, 213 283.027 C 213 286.339, 224.912 295, 229.467 295 C 234.919 295, 237.674 290.478, 235.957 284.347 C 234.502 279.148, 234.479 279.174, 245.500 273.394 C 249.350 271.375, 253.191 269.128, 254.035 268.401 C 254.879 267.674, 258.940 265.345, 263.059 263.227 C 271.517 258.876, 270.481 258.699, 280.672 266.234 C 287.928 271.597, 299.020 276.546, 310.274 279.441 C 322.399 282.560, 322.483 282.606, 333.585 292.176 C 345.019 302.033, 345.128 302.280, 346.081 320.500 C 347.497 347.568, 349.661 357.134, 358.179 373.983 C 370.457 398.272, 377.199 405.565, 388.764 407.064 C 392.469 407.545, 397.072 408.402, 398.993 408.969 C 400.915 409.536, 404.642 410, 407.276 410 C 409.909 410, 413.609 410.645, 415.497 411.434 C 419.213 412.987, 424.751 413.212, 425.596 411.844 C 425.885 411.377, 427.003 411.467, 428.081 412.044 C 430.728 413.460, 432.491 412.298, 430.799 410.253 C 426.924 405.570, 416.130 402.437, 395.860 400.111 C 383.093 398.645, 380.903 397.447, 377.124 389.862 C 375.381 386.363, 372.176 381.025, 370.002 378 C 356.394 359.065, 352.262 343.280, 353.575 315.248 C 354.284 300.103, 353.819 298, 349.758 298 C 348.642 298, 343.515 294.113, 338.131 289.186 C 325.109 277.268, 322.285 275.291, 316.478 274.028 C 303.805 271.272, 289.326 265.027, 283.214 259.681 C 281.171 257.895, 277.025 254.590, 274 252.337 C 268.579 248.300, 261.898 241.802, 254.136 233.017 L 250.175 228.534 246.838 232.036 C 245.002 233.962, 240.125 238.383, 236 241.862 C 222.589 253.170, 221.595 254.944, 223.554 264.082 C 224.311 267.612, 224.949 272.075, 224.971 274 C 224.994 275.925, 225.907 278.850, 227 280.500 C 231.452 287.222, 228.526 291.411, 222.658 286.716 C 219.582 284.254, 219.401 283.126, 220.534 273.447 C 221.130 268.349, 220.908 266.739, 219.121 263.237 C 215.975 257.071, 216.316 253.759, 220.419 250.630 C 222.412 249.109, 224.334 246.454, 225.028 244.261 C 225.683 242.192, 228.944 235.603, 232.276 229.617 L 238.333 218.733 236.655 214.208 C 235.121 210.067, 235.113 209.532, 236.569 207.924 C 238.417 205.882, 237.657 203.878, 233.592 200.076 C 232.166 198.742, 231 196.675, 231 195.481 C 231 192.601, 227.331 189.253, 225.588 190.542 C 224.876 191.069, 222.090 193.176, 219.397 195.225 C 216.703 197.274, 213.771 198.962, 212.881 198.975 C 211.206 199.001, 196.323 190.997, 192.115 187.808 C 190.803 186.813, 188.553 185.995, 187.115 185.990 C 183.431 185.976, 165.741 179.648, 161.792 176.932 C 157.106 173.708, 132.037 148.193, 125.472 139.965 C 118.002 130.603, 117.135 130.230, 112.191 134.259 C 105.164 139.988, 98 144.949, 98 144.088 C 98 143.628, 98.686 141.306, 99.525 138.929 C 100.945 134.905, 100.924 134.479, 99.223 132.778 C 96.630 130.186, 94.212 133.043, 89.693 144.039 C 84.307 157.146, 79.390 165.013, 76.759 164.732 C 73.759 164.411, 71.736 168.911, 71.605 176.198 C 71.519 180.963, 71.228 181.902, 70 181.380 C 66.473 179.882, 64.304 179.929, 62.974 181.532 C 61.716 183.047, 62.323 183.939, 68.756 190.038 C 75.982 196.887, 84.315 208.423, 85.528 213.256 C 85.887 214.684, 87.039 216.631, 88.090 217.581 C 90.513 219.774, 90.495 221.676, 88.011 225.750 C 86.664 227.959, 85.263 229, 83.637 229 C 78.442 229, 78.394 231.217, 83.344 242.760 C 90.970 260.542, 95.994 279.235, 95.998 289.847 C 96 292.589, 97.144 294.397, 102.331 299.847 C 113.244 311.316, 117.538 319.095, 124.507 340.021 C 127.563 349.199, 130.196 353, 133.495 353 C 140.440 353, 141.371 378.356, 135.111 397 L 133.264 402.500 128.654 402.439 C 122.586 402.358, 122.102 401.627, 125.961 398.380 C 130.830 394.282, 131.134 392.495, 129.535 377.324 C 128.745 369.832, 128.130 363.431, 128.168 363.101 C 128.414 360.948, 127.172 359.102, 120.201 351.267 C 106.717 336.111, 97.741 323.112, 95.409 315.365 C 94.636 312.796, 92.850 309.181, 91.441 307.334 C 90.032 305.486, 87.737 301.392, 86.342 298.237 C 84.946 295.082, 81.841 290.400, 79.441 287.834 C 77.041 285.268, 72.078 278.518, 68.411 272.834 C 64.745 267.150, 60.041 260.639, 57.957 258.364 C 55.874 256.090, 53.402 252.715, 52.464 250.864 C 49.762 245.534, 47.929 243.814, 46.348 245.126 C 44.394 246.748, 44.677 248.630, 47.500 252.785 C 50.871 257.746, 50.655 260.548, 46.360 267.559 C 37.906 281.359, 38.025 281.057, 38.012 288.769 C 37.996 298.155, 35.119 306.456, 26.477 322.042 C 19.084 335.375, 18.016 339.196, 20.394 343.796 C 22.613 348.087, 22.415 349.957, 19.410 353.094 C 17.049 355.558, 16.806 356.591, 16.660 364.761 C 16.519 372.657, 16.337 373.493, 15.131 371.774 C 14.084 370.281, 13.026 369.957, 10.631 370.395 C 5.780 371.281, 4.023 369.669, 6.716 366.802 C 9.022 364.347, 10.393 359.277, 11.430 349.371 C 11.783 346, 12.972 340.150, 14.073 336.371 C 15.199 332.503, 16.313 324.912, 16.622 319 C 16.944 312.835, 18.122 304.991, 19.474 300 C 20.741 295.325, 22.261 289.025, 22.851 286 C 26.508 267.256, 27.285 264.991, 34.012 253.479 C 37.697 247.174, 41.902 241.078, 43.356 239.934 C 46.813 237.216, 46.705 235.028, 42.587 224.350 C 35.383 205.669, 33.838 194.665, 35.164 171.500 C 36.469 148.715, 39.540 136.920, 47.794 123 C 56.394 108.496, 58.948 104.667, 63.471 99.500 C 67.535 94.857, 68.006 94.596, 70.051 95.838 C 74.721 98.674, 75.494 95.921, 75.556 76.213 C 75.612 58.751, 75.657 58.388, 78.757 50.611 C 85.157 34.555, 91.230 28.290, 106.278 22.220 C 119.849 16.746, 122.988 15.923, 133.952 14.962 C 147.297 13.793, 154.255 14.783, 156.971 18.236 C 159.777 21.803, 163.707 22.610, 166.380 20.167 C 167.546 19.101, 171.875 17.511, 176 16.633 C 180.125 15.755, 185.961 14.353, 188.968 13.518 C 196.334 11.473, 199.129 11.590, 210.251 14.412 C 222.125 17.424, 226.970 20.334, 226.988 24.462 L 227 27.424 224.090 23.962 L 221.180 20.500 218.025 23.500 C 213.919 27.403, 204.435 27.406, 192.353 23.507 C 182.692 20.389, 169.784 19.104, 167.464 21.030 C 166.446 21.875, 166.082 23.190, 166.455 24.676 C 167.120 27.328, 165.004 27.914, 163.090 25.608 C 160.668 22.690, 152.680 24.054, 154.542 27.068 C 155.507 28.630, 150.332 28.105, 149.006 26.507 C 148.325 25.686, 145.911 24.515, 143.643 23.904 C 141.374 23.293, 138.389 21.999, 137.009 21.028 C 130.355 16.346, 125.950 17.893, 114.421 28.961 C 106.867 36.212, 96.367 43, 92.703 43 C 91.958 43, 90.386 44.025, 89.210 45.277 L 87.071 47.554 89.592 60.527 C 90.980 67.662, 92.474 74.671, 92.914 76.102 C 93.354 77.533, 93.354 84.958, 92.913 92.602 C 92.233 104.400, 92.340 106.727, 93.621 108 C 97.167 111.527, 101.202 101.527, 101.387 88.751 C 101.449 84.489, 101.886 81.002, 102.357 81.001 C 102.828 81, 102.982 81.605, 102.698 82.345 C 101.913 84.389, 105.529 91.651, 108.166 93.328 C 112.437 96.043, 121.508 97.464, 125.992 96.120 C 128.881 95.255, 130.544 95.221, 131.994 95.997 C 138.536 99.498, 127.870 101.515, 119.389 98.380 C 113.308 96.133, 111 96.446, 111 99.518 C 111 100.134, 115.028 104.331, 119.952 108.847 C 131.137 119.104, 139.125 130.099, 148.213 147.746 C 156.970 164.751, 157.500 165.336, 166.987 168.496 C 175.178 171.224, 181.362 174.756, 190.516 181.935 L 196.171 186.369 200.822 185.125 C 212.196 182.083, 211.445 177.551, 198 168.081 C 187.879 160.953, 181.675 148.633, 183.951 140.182 C 186.894 129.252, 201.834 116.921, 218 112.081 C 224.713 110.071, 241.230 107, 245.326 107 C 248.011 107, 252 103.187, 252 100.621 C 252 95.772, 256.391 89.027, 264.105 82.028 C 273.640 73.377, 273.513 72, 263.182 72 C 257.438 72, 256.261 71.667, 253.849 69.356 C 251.165 66.784, 251.018 66.758, 248.471 68.427 C 245.906 70.108, 245.876 70.101, 246.962 68.071 C 247.572 66.932, 248.588 66, 249.221 66 C 249.853 66, 251.416 65.019, 252.692 63.819 L 255.013 61.639 258.072 64.569 C 263.805 70.062, 272.239 68.108, 277.750 60.010 C 280.658 55.737, 280.595 52.908, 277.529 50.028 C 274.852 47.512, 272.017 48.456, 271.985 51.872 C 271.950 55.540, 270.253 56.534, 268.250 54.060 L 266.360 51.727 264.355 54.275 L 262.350 56.824 259.175 54.814 C 255.479 52.474, 255.372 51.997, 257.850 48.937 C 259.418 47, 260.523 46.687, 265.100 46.884 C 272.516 47.202, 271.886 47.267, 277.882 45.569 C 284.295 43.753, 283.970 43.593, 289.032 51.048 C 292.567 56.253, 295.159 62.315, 299.273 75 C 301.544 82.001, 300.639 101.626, 297.663 109.925 C 296.198 114.009, 294.993 119.409, 294.985 121.925 C 294.977 124.441, 294.321 128.300, 293.529 130.500 C 292.736 132.700, 292.068 136.543, 292.044 139.040 C 291.937 150.046, 282.564 172.801, 275.993 178.005 C 272.728 180.591, 272.430 181.252, 272.599 185.513 C 272.834 191.418, 274.226 193.011, 276.976 190.521 C 278.956 188.730, 279 188.744, 279 191.162 C 279 195.538, 269.129 210.720, 263.790 214.556 C 258.022 218.699, 257.953 219.529, 262.750 227.152 C 272.287 242.308, 273.184 243.288, 282.031 248.249 C 295.604 255.859, 301.645 257.699, 316.901 258.868 C 336.108 260.341, 338.809 258.655, 337.024 246.308 C 336.483 242.564, 336.031 238.972, 336.020 238.327 C 335.988 236.452, 349.937 237.813, 363.050 240.964 C 374.374 243.686, 400.409 254.184, 405.268 257.988 C 406.496 258.949, 410.798 261.394, 414.829 263.420 C 418.860 265.447, 424.036 268.835, 426.330 270.950 C 428.625 273.065, 431.402 275.010, 432.501 275.272 C 437.252 276.404, 427.675 274.881, 418.937 273.115 C 406.347 270.571, 394.737 265.824, 385.056 259.261 C 382.437 257.485, 380.881 257.090, 378.556 257.610 C 376.875 257.986, 373.072 258.565, 370.105 258.897 C 366.435 259.307, 364.357 260.079, 363.605 261.311 C 362.242 263.543, 364.081 265.209, 376.294 272.805 C 389.341 280.919, 400.740 293.996, 409.382 310.762 C 410.307 312.556, 414.101 316.233, 417.814 318.934 C 425.117 324.246, 432.261 331.976, 438.737 341.574 C 444.606 350.272, 448.712 353.571, 454.646 354.359 C 461.075 355.211, 468.348 357.946, 474.295 361.745 C 479.498 365.069, 491.645 377.689, 490.624 378.710 C 489.230 380.103, 493.432 383, 496.845 383 C 499.846 383, 501.145 383.828, 505.440 388.477 C 508.963 392.291, 511.924 394.439, 515.188 395.550 C 521.897 397.834, 523.450 400.002, 518.372 399.994 C 512.367 399.986, 507.479 398.249, 502.274 394.274 C 499.648 392.269, 494.350 389.572, 490.500 388.281 C 473.527 382.591, 458.599 375.195, 458.183 372.270 C 457.769 369.355, 453.766 366.278, 448.619 364.919 C 446.354 364.321, 439.132 361.584, 432.571 358.837 C 422.530 354.633, 420.267 354.013, 418.274 354.921 C 414.915 356.452, 406.172 356.257, 400.413 354.524 C 395.851 353.151, 395.379 353.176, 393.664 354.892 C 391.871 356.684, 391.909 356.998, 395.013 366.038 C 397.137 372.223, 398.031 376.419, 397.684 378.562 C 396.996 382.797, 398.690 385.059, 405.763 389.356 C 408.921 391.274, 412.621 394.032, 413.985 395.484 C 418.589 400.385, 422.812 402.407, 425.696 401.092 C 428.350 399.883, 428.082 399.780, 434.681 404.569 C 435.880 405.440, 439.930 406.487, 443.681 406.897 C 450.176 407.606, 450.324 407.679, 446.786 408.425 C 442.708 409.286, 440.199 411.387, 441.954 412.472 C 443.817 413.623, 451.825 411.851, 453.595 409.896 C 455.975 407.265, 458.202 407.452, 457.813 410.250 C 457.540 412.214, 457.944 412.500, 461 412.500 C 463.916 412.500, 464.556 412.107, 464.834 410.142 C 465.249 407.210, 460.536 402, 457.469 402 C 456.283 402, 452.697 401.100, 449.500 400 C 446.303 398.900, 442.717 398, 441.531 398 C 440.345 398, 438.112 396.683, 436.570 395.073 C 432.591 390.920, 428.794 389.527, 425.030 390.840 C 422.201 391.826, 421.623 391.568, 416.376 386.977 C 413.283 384.271, 409.919 381.792, 408.899 381.468 C 407.767 381.109, 406.619 379.248, 405.952 376.690 C 405.351 374.385, 404.368 370.810, 403.769 368.744 C 402.368 363.913, 402.818 363.581, 408.980 364.902 C 411.795 365.506, 417.890 366, 422.523 366 C 430.411 366, 431.471 366.264, 439.163 370.142 C 443.681 372.420, 449.777 376.238, 452.709 378.627 C 455.641 381.015, 459.269 383.603, 460.770 384.377 C 466.182 387.166, 490.354 396, 492.575 396 C 493.824 396, 496.191 397.131, 497.834 398.514 C 501.604 401.686, 507.085 404, 510.830 404 C 512.541 404, 515.269 405.227, 517.500 407 C 519.576 408.650, 522.260 410, 523.463 410 C 526.028 410, 530 406.133, 530 403.636 C 530 398.650, 522.631 390.732, 516.479 389.108 C 513.717 388.379, 511.906 387.110, 510.692 385.055 C 507.250 379.228, 503.835 376.033, 499.928 374.981 C 496.875 374.159, 495.571 373.079, 494.066 370.130 C 488.967 360.134, 469.720 347.728, 457.023 346.253 L 450.546 345.500 447.023 339.023 C 443.513 332.570, 426.776 314.842, 420.805 311.254 C 419.323 310.363, 415.782 305.700, 412.936 300.891 C 406.418 289.880, 393.820 275.353, 386.019 269.851 C 377.976 264.179, 379.177 263.828, 389.052 268.966 C 393.520 271.291, 401.074 274.462, 405.838 276.013 C 420.801 280.885, 420.542 280.743, 418.542 282.954 C 416.396 285.325, 417.123 287.932, 421.237 292.617 C 427.411 299.649, 433.321 300.751, 439.572 296.038 C 441.732 294.409, 445.831 292.544, 448.680 291.895 C 453.825 290.721, 453.900 290.739, 459.629 294.542 C 462.802 296.648, 467.121 298.965, 469.226 299.690 C 474.908 301.648, 489.213 301.657, 499.500 299.711 C 511.679 297.406, 515 297.453, 515 299.932 C 515 302.901, 520.617 317.458, 525.052 325.983 C 528.513 332.635, 530.273 334.653, 538.575 341.484 C 543.825 345.803, 548.993 350.447, 550.060 351.803 C 553.685 356.412, 551.695 370.125, 546.147 378.771 C 542.426 384.570, 542.383 384.946, 545.073 388.365 C 550.657 395.464, 567.140 387.724, 570.086 376.619 C 570.687 374.354, 572.488 370.356, 574.089 367.735 C 578.095 361.178, 577.968 357.035, 573.630 352.697 C 568.821 347.887, 567.351 345.233, 566.062 339.028 C 564.665 332.300, 559.183 320.702, 554.498 314.565 C 548.156 306.256, 550.197 303.005, 557.813 309.284 C 560.625 311.603, 565.467 315.075, 568.573 317 C 571.678 318.925, 578.107 324.234, 582.859 328.798 C 587.612 333.362, 593.183 338.699, 595.239 340.658 C 599.143 344.376, 600.108 344.014, 599.648 339 C 599.520 337.604, 598.865 336.617, 598.163 336.765 C 596.450 337.127, 591.166 332.964, 581.977 324.013 C 577.735 319.881, 571.677 314.925, 568.515 313 C 565.354 311.075, 560.753 307.685, 558.292 305.467 L 553.818 301.434 555.299 295.967 C 556.113 292.960, 557.333 287.818, 558.009 284.540 C 559.069 279.397, 560.027 277.751, 564.997 272.540 C 571.177 266.059, 574.090 261.141, 575.980 253.994 C 576.634 251.522, 578.479 247.439, 580.080 244.919 C 581.681 242.400, 583.895 237.712, 584.999 234.502 C 586.954 228.820, 591 204.777, 591 198.842 C 591 197.076, 591.413 196.137, 592.024 196.515 C 592.609 196.876, 593.049 201.300, 593.050 206.824 C 593.050 212.146, 593.114 218.300, 593.193 220.500 C 593.524 229.841, 592.098 238.949, 589.820 242.030 C 588.004 244.486, 587.551 246.449, 587.499 252.097 C 587.418 260.866, 584.652 263.588, 580.493 258.992 C 578.792 257.112, 578.558 257.090, 576.838 258.647 C 574.611 260.662, 574.470 263.315, 576.500 265 C 577.325 265.685, 578 267.349, 578 268.699 C 578 271.130, 582.194 276.231, 584.948 277.149 C 586.146 277.549, 586.105 278.012, 584.688 280.035 C 583.760 281.361, 583 283.470, 583 284.723 C 583 286.064, 582.393 287, 581.523 287 C 579.382 287, 576.718 291.535, 577.468 293.900 C 578.698 297.774, 583.619 302, 586.901 302 C 588.924 302, 590 302.497, 590 303.432 C 590 304.219, 591.391 305.854, 593.090 307.064 L 596.180 309.264 598.211 307.233 C 600.546 304.898, 599.783 302.105, 597.359 304.117 C 596.159 305.113, 595.365 304.685, 592.926 301.727 C 590.851 299.209, 588.993 298.030, 586.759 297.812 C 584.530 297.594, 583.115 296.699, 582.083 294.852 C 580.670 292.322, 580.747 292.084, 583.802 289.513 C 585.561 288.033, 587 285.919, 587 284.815 C 587 283.712, 587.755 281.531, 588.677 279.970 C 590.597 276.719, 589.718 274.930, 585.122 272.734 C 583.547 271.981, 582.364 270.487, 582.159 268.991 C 581.971 267.621, 581.071 265.608, 580.159 264.517 C 578.611 262.667, 578.612 262.621, 580.174 263.827 C 582.181 265.376, 588.358 264.479, 590.094 262.386 C 590.735 261.614, 591.344 257.383, 591.447 252.984 C 591.599 246.477, 592.048 244.427, 593.855 241.982 C 596.097 238.950, 597.523 229.764, 597.191 220.500 C 597.113 218.300, 597.047 212.260, 597.046 207.078 C 597.044 198.203, 596.887 197.491, 594.342 194.835 C 591.740 192.120, 591.564 192.080, 589.585 193.758 C 588.454 194.716, 589.192 193.606, 591.225 191.291 C 601.994 179.027, 600.457 160.727, 587.546 147.504 C 580.587 140.375, 578.510 133.576, 579.481 121.099 C 580.618 106.482, 574.894 92.292, 561.376 76.221 C 557.804 71.975, 553.293 65.800, 551.353 62.500 C 545.216 52.065, 524.997 33.018, 514.906 28.166 C 506.373 24.063, 492.592 20, 487.208 20 C 480.552 20, 478.127 18.914, 476.973 15.417 C 475.808 11.888, 468.091 2.654, 464.862 0.926 C 462.242 -0.476, 460.537 0.723, 462.201 2.795 C 463.043 3.844, 462.155 3.592, 459.677 2.080 C 453.848 -1.478, 452.505 0.943, 458.138 4.855 C 466.387 10.585, 467.762 11.963, 469.980 16.725 C 471.203 19.351, 472.866 22.247, 473.675 23.159 C 476.764 26.644, 468.805 26.627, 462.729 23.136 C 460.540 21.878, 459.566 21.790, 458.087 22.713 C 454.737 24.806, 453.721 19.693, 456.444 14.445 C 458.115 11.225, 457.383 9.233, 453.371 6.078 C 449.881 3.332, 449.217 3.440, 447.203 7.075 C 445.604 9.962, 445.230 10.114, 441.083 9.571 C 435.602 8.853, 433 10.796, 433 15.608 C 433 20.754, 431.111 23.727, 426.614 25.661 C 424.351 26.634, 422.209 27.581, 421.853 27.764 C 421.497 27.948, 420.212 26.702, 418.997 24.995 C 417.041 22.249, 416.954 21.698, 418.242 20.196 C 419.041 19.263, 420.294 16.288, 421.024 13.584 C 421.755 10.880, 423.683 7.152, 425.310 5.300 C 428.577 1.579, 428.302 0.601, 423.922 0.381 C 420.122 0.190, 416.679 4.172, 414.405 11.385 L 412.723 16.719 404.881 18.404 C 395.404 20.441, 384.684 25.587, 380.210 30.249 C 377.581 32.989, 367.934 47.057, 361.422 57.649 C 359.640 60.547, 351.956 57.030, 347.260 51.167 C 339.644 41.656, 325.956 26.140, 322.951 23.613 C 321.246 22.177, 316.396 19.315, 312.175 17.252 C 304.672 13.584, 304.231 13.497, 292.500 13.383 C 279.828 13.259, 273.531 11.787, 269.508 8.008 C 266.906 5.563, 254.713 -0, 251.956 0 C 250.808 0, 249.025 0.451, 247.995 1.003 C 246.743 1.673, 245.916 1.673, 245.502 1.003 C 244.204 -1.097, 241.623 0.196, 235.638 5.943 M 450 9.376 C 450 11.181, 446.717 14, 444.615 14 C 443.201 14, 443.336 14.407, 445.363 16.250 C 449.389 19.910, 449.518 22.341, 445.904 26.456 C 441.069 31.963, 439.282 32.613, 436.406 29.911 C 435.083 28.668, 434 27.068, 434 26.356 C 434 25.510, 432.736 25.918, 430.360 27.530 C 428.359 28.889, 426.307 30, 425.801 30 C 425.296 30, 425.152 30.436, 425.481 30.970 C 425.811 31.503, 428.425 31.894, 431.290 31.839 C 434.156 31.784, 438.975 32.243, 442 32.860 C 446.881 33.856, 447.781 33.772, 450 32.113 C 452.588 30.179, 452.755 28.990, 451.499 21.500 C 451.038 18.751, 451.300 16.601, 452.335 14.626 C 453.164 13.045, 453.618 11.167, 453.344 10.453 C 452.646 8.634, 450 7.782, 450 9.376 M 240.104 12.535 C 235.060 18.279, 235.900 19.783, 241.437 14.921 C 245.212 11.607, 247.635 11.426, 249.393 14.327 C 250.320 15.857, 249.940 16.626, 247.052 19.065 L 243.603 21.977 246.169 24.738 C 249.006 27.792, 251.965 35.669, 252.063 40.428 C 252.122 43.279, 252.192 43.337, 253.035 41.240 C 253.592 39.854, 253.567 37.992, 252.971 36.425 C 250.941 31.085, 253.697 25.759, 260.243 22.374 C 264.824 20.006, 267.130 22.516, 264.166 26.644 C 263.039 28.215, 261.815 31.632, 261.446 34.238 C 260.648 39.886, 262.474 41.332, 267.016 38.650 C 268.903 37.535, 272.105 37, 276.890 37 C 283.830 37, 289.065 36.095, 297.928 33.364 C 306.296 30.786, 311.304 32.490, 313.920 38.807 C 314.575 40.389, 316.562 42.374, 318.335 43.220 C 323.648 45.754, 338.351 55.645, 340.540 58.158 C 341.661 59.446, 344.119 62.833, 346 65.684 C 352.360 75.321, 363 78.355, 363 70.531 C 363 69.813, 360.037 67.966, 356.416 66.427 C 349.287 63.397, 343.491 58.343, 335.852 48.493 C 318.501 26.123, 306.026 19.051, 288.902 21.879 C 283.060 22.844, 281.440 22.738, 276.133 21.043 C 272.791 19.975, 268.356 18.795, 266.278 18.420 C 261.707 17.596, 259.934 16.334, 260.667 14.426 C 261.454 12.374, 253.571 9.049, 247.854 9.022 C 243.774 9.003, 242.829 9.431, 240.104 12.535 M 437 15.008 C 437 16.744, 437.263 16.853, 438.935 15.808 C 441.028 14.501, 440.764 13, 438.441 13 C 437.648 13, 437 13.904, 437 15.008 M 350.535 17.104 C 345.561 21.471, 345.970 23.542, 353.052 29.846 C 359.406 35.502, 361.348 35.845, 362.964 31.596 C 364.575 27.356, 363.061 21.830, 359.170 17.750 C 354.853 13.223, 354.946 13.230, 350.535 17.104 M 230.566 17.962 C 229.243 18.436, 229.006 18.886, 229.816 19.387 C 232.020 20.748, 231.184 26.480, 228.403 29.076 L 225.807 31.500 223.076 28.244 C 221.574 26.454, 220.067 25.266, 219.728 25.605 C 219.389 25.945, 220.446 27.346, 222.078 28.719 C 227.419 33.213, 227.466 34.245, 222.603 40.214 C 214.285 50.425, 212.570 55.642, 215.345 62.282 C 217.711 67.943, 222.406 70.007, 234 70.485 C 237.025 70.610, 240.243 71.032, 241.150 71.425 C 243.453 72.419, 243.081 68.984, 240.668 66.975 C 238.912 65.512, 238.908 65.264, 240.573 60.975 C 241.529 58.514, 242.972 55.727, 243.780 54.783 C 244.589 53.838, 245.022 52.193, 244.743 51.127 C 244.465 50.061, 245.080 47.908, 246.112 46.344 C 247.143 44.780, 247.955 41.925, 247.916 40 C 247.756 32.089, 240.574 19.448, 237.629 21.893 C 236.305 22.992, 233.827 21.161, 232.880 18.384 C 232.660 17.737, 231.688 17.560, 230.566 17.962 M 352.750 19.080 C 350.148 20.595, 350.586 22.219, 354.840 26.827 C 359.256 31.610, 360.225 31.345, 359.354 25.596 C 358.423 19.445, 356.085 17.138, 352.750 19.080 M 440.074 19.411 C 438.724 21.038, 437.395 28, 438.435 28 C 442.100 28, 445.593 22.977, 444 20 C 442.737 17.640, 441.676 17.481, 440.074 19.411 M 403.267 27.531 C 400.938 28.264, 398.025 29.569, 396.794 30.432 C 395.563 31.294, 393.733 32, 392.728 32 C 389.156 32, 385.162 35.016, 382.063 40.053 C 379.036 44.971, 379.005 45.134, 381.210 44.439 C 383.997 43.562, 393.788 37.003, 398.545 32.827 C 402.239 29.583, 405 30.087, 405 34.006 C 405 36.279, 407.757 36.969, 416.905 36.986 C 424.016 36.999, 424.244 36.927, 422.655 35.171 C 421.745 34.165, 421 32.953, 421 32.476 C 421 31.999, 419.791 30.347, 418.313 28.805 C 415.251 25.609, 410.617 25.216, 403.267 27.531 M 458.334 27.750 C 456.117 34.180, 453.763 38.104, 450.616 40.615 C 445.145 44.980, 445.847 49.942, 452.490 53.862 C 455.819 55.826, 455.994 56.185, 455.409 59.842 C 454.701 64.272, 455.743 66.771, 460.536 72.134 C 462.627 74.472, 464.177 77.598, 464.886 80.905 C 466.453 88.212, 470.591 96, 472.906 96 C 475.500 96, 479.487 99.403, 478.591 100.852 C 477.348 102.864, 469.852 106.194, 467.784 105.654 C 466.177 105.234, 465.914 105.538, 466.341 107.320 C 466.628 108.519, 467.175 111.300, 467.555 113.500 C 467.936 115.700, 469.041 118.400, 470.011 119.500 C 470.981 120.600, 472.704 123.352, 473.839 125.616 C 474.975 127.881, 477.119 131.177, 478.604 132.942 L 481.304 136.150 478.773 138.681 C 476.914 140.541, 475.662 141.027, 474.052 140.516 C 471.349 139.658, 465.566 130.814, 464.066 125.245 C 462.608 119.830, 458.104 118.947, 444.653 121.441 C 416.819 126.601, 394.500 137.672, 388.328 149.380 C 387.133 151.646, 383.852 156.200, 381.036 159.500 C 374.645 166.991, 371.500 172.610, 366.062 186.256 C 363.309 193.164, 360.809 197.824, 359.074 199.284 C 355.274 202.482, 351 209.050, 351 211.693 C 351 214.311, 354.605 218, 357.163 218 C 359.163 218, 361.381 214.265, 362.509 209 C 365.894 193.191, 369.689 186.871, 379.696 180.379 C 386.586 175.908, 390.827 170.446, 389.181 168.159 C 385.939 163.653, 386.958 161.908, 395.722 156.962 C 398.714 155.273, 403.212 152.003, 405.716 149.695 L 410.269 145.500 426.384 145.489 C 442.283 145.478, 442.654 145.428, 453.915 141.739 C 467.055 137.435, 468.077 137.322, 470.425 139.917 C 472.482 142.190, 471.655 144.326, 466.471 150.125 C 459.011 158.471, 454 172.141, 454 184.144 C 454 192.716, 458.642 213.257, 462.781 223 C 465.938 230.430, 466.407 232.592, 466.507 240.170 C 466.578 245.507, 467.106 249.422, 467.880 250.356 C 469.559 252.379, 468.482 254.191, 461.574 260.966 C 458.508 263.972, 456 266.931, 456 267.542 C 456 270.133, 460.648 273, 464.850 273 C 468.903 273, 469.148 272.820, 471.009 268.479 C 473.488 262.696, 474.867 262.248, 482.356 264.792 C 491.310 267.834, 502.112 270, 508.325 270 C 517.264 270, 518.647 275.032, 510.150 276.636 C 508.142 277.015, 507.175 277.535, 508 277.793 C 510.330 278.520, 513.013 281.170, 512.409 282.148 C 510.977 284.464, 503.560 287.016, 496.815 287.512 C 492.792 287.809, 486.919 288.257, 483.765 288.508 C 478.569 288.923, 477.725 288.700, 474.765 286.130 C 470.352 282.296, 468.493 281.411, 460.152 279.174 C 447.952 275.902, 453.349 283.163, 467.830 289.501 C 477.505 293.736, 478.329 293.748, 509.864 290.080 C 524.529 288.374, 528.527 288.193, 529.716 289.179 C 531.503 290.662, 528.161 294, 524.889 294 C 522.041 294, 522.448 299.267, 526.100 309.670 C 530.228 321.430, 534.831 328.790, 541.875 334.891 C 545.077 337.666, 550.758 343.356, 554.499 347.536 L 561.302 355.136 560.036 363.642 C 559.211 369.192, 557.769 374.024, 555.889 377.548 L 553.008 382.948 555.752 381.904 C 559.940 380.312, 561.898 378.083, 562.595 374.113 C 562.945 372.126, 564.528 368.436, 566.115 365.912 C 569.809 360.039, 569.831 360.254, 564.383 349.020 C 552.542 324.608, 547.583 316.753, 540.687 311.488 C 534.951 307.107, 533.694 303.476, 536.992 300.805 C 539.155 299.054, 539.392 299.045, 541.166 300.651 C 542.334 301.707, 543.402 301.998, 543.983 301.417 C 545.321 300.079, 547.840 289.711, 548.923 281.084 C 549.907 273.246, 556.268 261.836, 561.601 258.342 C 562.851 257.523, 564.149 255.599, 564.485 254.067 C 564.822 252.535, 567.075 247.811, 569.492 243.569 C 575.114 233.703, 576.885 228.266, 578.035 217.332 C 579.422 204.155, 579.436 204.296, 576.947 206.548 C 574.917 208.385, 574.814 208.317, 567.697 200.513 C 563.739 196.172, 559.895 192.143, 559.155 191.560 C 557.389 190.169, 553.832 186.601, 552.211 184.595 C 550.731 182.765, 546.782 182.511, 543.886 184.061 C 538.305 187.048, 539.597 197.144, 546.114 201.457 C 550.295 204.224, 550.657 204.943, 548.800 206.800 C 547.150 208.450, 543.879 208.304, 541.251 206.463 C 539.151 204.992, 538.993 205.081, 537.545 208.547 C 534.834 215.036, 533.815 220.280, 534.447 224.494 C 535.159 229.245, 532.632 232.660, 529.089 231.733 C 526.567 231.074, 525.544 235.047, 526.481 241.860 C 527.415 248.652, 525.907 249.732, 517.691 248.156 C 508.637 246.420, 492.572 246.491, 485.500 248.298 C 474.952 250.993, 471.480 251.284, 470.075 249.590 C 469.028 248.329, 469.174 247.595, 470.903 245.396 C 473.659 241.892, 473.549 239.441, 470.316 232.379 C 467.421 226.055, 466.899 218.321, 468.485 205.222 C 469.198 199.328, 467.603 189.064, 466.193 190.474 C 465.286 191.381, 462 187.787, 462 185.887 C 462 184.896, 463.798 182.194, 465.996 179.884 C 469.898 175.782, 470.039 175.726, 471.996 177.496 C 473.098 178.494, 474 179.890, 474 180.599 C 474 181.307, 476.320 179.663, 479.156 176.944 C 481.992 174.225, 484.649 172, 485.061 172 C 485.474 172, 488.057 168.963, 490.802 165.250 C 505.695 145.111, 509.148 130.805, 505.482 104.424 C 503.249 88.358, 499.842 78.878, 489.752 60.657 C 488.790 58.921, 488.001 55.925, 487.998 54 C 487.995 52.075, 487.094 49.027, 485.996 47.226 C 482.166 40.944, 484.496 36.499, 490.330 38.958 C 499.261 42.721, 513.213 46.849, 518.800 47.380 C 526.186 48.083, 526.024 46.848, 517.920 40.670 C 505.378 31.109, 492.518 27.942, 470.812 29.068 C 467.780 29.225, 465.231 28.726, 463.597 27.656 C 460.372 25.542, 459.087 25.566, 458.334 27.750 M 126 29.140 C 124.075 30.313, 119.130 34.419, 115.012 38.264 C 110.894 42.109, 105.156 46.416, 102.262 47.836 C 99.368 49.255, 97 50.906, 97 51.505 C 97 53.286, 101.074 71.408, 101.591 71.924 C 102.623 72.957, 115.570 68.704, 119.418 66.069 C 121.663 64.532, 125.525 62.229, 128 60.952 C 141.468 54.004, 159 63.288, 159 77.369 C 159 85.735, 144.930 103.443, 136.205 106.057 C 133.892 106.750, 132 107.443, 132 107.597 C 132 107.751, 134.622 111.392, 137.827 115.688 C 144.555 124.708, 148.332 130.938, 156.914 147.172 L 163.084 158.845 169.092 160.874 C 174.056 162.550, 175.193 162.661, 175.634 161.512 C 176.395 159.530, 169.959 153.938, 167.702 154.621 C 165.407 155.316, 163.374 153.627, 162.549 150.339 C 162.193 148.921, 160.584 146.121, 158.973 144.116 C 154.728 138.834, 154.223 135.079, 157.360 132.132 L 159.871 129.772 162.840 131.886 C 166.498 134.491, 169.157 134.580, 170.675 132.148 C 172.631 129.016, 178.432 126.102, 180.456 127.235 C 181.893 128.039, 183.302 127.149, 188.086 122.414 C 193.471 117.086, 193.827 116.467, 192.410 114.901 C 191.006 113.349, 191.184 112.515, 194.378 105.692 C 196.310 101.566, 198.870 97.504, 200.068 96.665 C 201.266 95.826, 202.760 94.109, 203.388 92.850 C 204.015 91.590, 206.072 89.521, 207.957 88.250 C 211.382 85.942, 211.386 85.942, 213.380 87.935 C 215.373 89.928, 215.373 89.934, 213.043 94.909 C 211.032 99.202, 210.876 100.287, 211.913 102.790 C 213.067 105.575, 213.268 105.651, 216.943 104.670 C 221.017 103.582, 221.445 102.254, 218.698 99.219 C 217.764 98.187, 217 96.478, 217 95.421 C 217 91.221, 219.981 79.590, 221.429 78.142 C 222.813 76.759, 222.543 76.393, 218.733 74.496 C 213.690 71.984, 208.483 64.818, 207.508 59.048 C 206.687 54.188, 209.745 46.817, 215.347 40.155 C 217.356 37.766, 219 35.516, 219 35.155 C 219 34.795, 213.938 34.481, 207.750 34.457 C 198.082 34.420, 195.456 34.033, 189.076 31.707 C 179.321 28.150, 176.539 28.206, 173.328 32.023 C 169.507 36.562, 167.412 37.338, 156.500 38.254 C 137.691 39.831, 138.204 39.890, 134.396 35.735 C 132.417 33.576, 131 30.980, 131 29.515 C 131 26.456, 130.470 26.416, 126 29.140 M 257.035 28.934 C 255.771 31.297, 255.634 35.801, 256.868 34.450 C 257.812 33.416, 259.226 27, 258.510 27 C 258.268 27, 257.605 27.870, 257.035 28.934 M 144.347 29.831 C 145.259 30.838, 145.666 32.024, 145.252 32.467 C 144.838 32.909, 145.594 32.701, 146.930 32.004 C 149.262 30.788, 149.285 30.681, 147.489 29.368 C 144.535 27.208, 142.275 27.541, 144.347 29.831 M 159.325 28.658 C 159.687 29.020, 159.481 29.920, 158.869 30.658 C 157.978 31.732, 158.379 32, 160.878 32 C 162.595 32, 164 31.640, 164 31.200 C 164 29.894, 161.711 28, 160.133 28 C 159.327 28, 158.963 28.296, 159.325 28.658 M 429.835 35.673 C 428.919 35.915, 427.932 36.734, 427.641 37.493 C 427.193 38.660, 427.721 38.657, 431.074 37.474 C 433.252 36.705, 435.815 36.327, 436.768 36.632 C 438.235 37.104, 438.270 37.023, 437 36.110 C 435.486 35.021, 432.894 34.863, 429.835 35.673 M 449 36.984 C 448.175 37.508, 445.700 37.672, 443.500 37.348 L 439.500 36.759 441.589 38.941 L 443.678 41.123 447.339 38.962 C 449.353 37.774, 451 36.622, 451 36.401 C 451 35.822, 450.682 35.915, 449 36.984 M 525.422 43.180 C 529.533 47.983, 529.792 49.332, 526.978 51.303 C 525.192 52.554, 525.134 52.866, 526.478 53.982 C 527.315 54.677, 528 56.052, 528 57.039 C 528 58.704, 528.284 58.678, 531.933 56.679 L 535.866 54.525 539.183 56.892 C 541.007 58.194, 538.008 54.701, 532.519 49.130 C 521.819 38.271, 519.698 36.493, 525.422 43.180 M 255.707 43.649 C 253.417 48.247, 253.766 48.492, 257.653 45.019 C 259.947 42.969, 260.504 41.904, 259.702 41.102 C 258.062 39.462, 257.667 39.714, 255.707 43.649 M 268.158 41.881 C 265.824 43.360, 271.220 43.768, 274.517 42.362 L 277.500 41.090 273.500 41.060 C 271.300 41.044, 268.896 41.413, 268.158 41.881 M 298 42.679 C 296.075 43.512, 294.354 44.333, 294.176 44.504 C 293.398 45.249, 297.188 51, 298.458 51 C 301.142 51, 304.490 57.200, 304.667 62.500 C 304.759 65.250, 305.811 71.550, 307.005 76.500 C 308.548 82.897, 309.045 87.445, 308.724 92.225 C 308.474 95.924, 308.619 98.736, 309.044 98.473 C 309.470 98.210, 311.023 99.428, 312.497 101.179 C 315.291 104.500, 315.379 106.009, 313.248 114.032 C 311.832 119.358, 314.265 127, 317.375 127 C 322.519 127, 327.124 138.995, 323.513 142.985 C 320.871 145.905, 319.559 145.518, 315.567 140.647 C 311.929 136.207, 311.145 133.255, 313.087 131.313 C 313.814 130.586, 313.837 130.017, 313.156 129.597 C 310.370 127.875, 309.765 141.281, 312.354 147.372 C 314.765 153.045, 314.434 154.557, 310 158.120 C 307.163 160.400, 306.009 162.085, 306.032 163.917 C 306.062 166.377, 306.132 166.410, 307.500 164.603 C 308.290 163.559, 308.730 162.373, 308.479 161.966 C 308.228 161.559, 308.662 160.696, 309.444 160.046 C 310.589 159.096, 311.634 159.634, 314.808 162.808 C 318.846 166.846, 322.507 167.823, 326.238 165.858 C 327.448 165.221, 329.255 165.560, 332.176 166.971 C 337.211 169.403, 337.087 169.389, 336.339 167.440 C 335.573 165.446, 340.684 160, 343.321 160 C 344.391 160, 347.504 162.272, 350.237 165.049 C 355.789 170.689, 356.539 170.764, 359.765 166.003 L 362.030 162.660 359.892 160.386 C 355.721 155.946, 361.094 147.246, 367.305 148.383 C 370.899 149.040, 372.206 148.440, 373.807 145.397 C 374.795 143.518, 374.671 143.340, 372.646 143.727 C 369.474 144.334, 368.324 142.431, 367.674 135.500 C 367.364 132.200, 366.800 127.339, 366.419 124.697 C 365.810 120.465, 366.020 119.573, 368.182 117.197 C 372.925 111.984, 375.891 105.979, 371.969 109.528 C 370.166 111.160, 369.770 111.198, 368.442 109.870 C 366.486 107.915, 368.375 103.255, 373.457 97.500 L 376.990 93.500 378.916 95.763 C 379.975 97.008, 381.026 98.578, 381.251 99.252 C 381.560 100.179, 382.246 100.209, 384.079 99.374 C 387.015 98.036, 390.465 99.132, 391.929 101.867 C 392.768 103.436, 392.367 105.158, 389.995 110.173 C 388.349 113.653, 387.001 117.423, 387.001 118.550 C 387 119.678, 386.589 121.028, 386.086 121.550 C 385.316 122.350, 381 134.420, 381 135.772 C 381 136.015, 381.740 135.930, 382.645 135.583 C 383.566 135.229, 385.096 135.682, 386.123 136.612 C 387.851 138.175, 388.194 138.057, 392.059 134.565 C 395.995 131.010, 414.887 121, 417.661 121 C 418.398 121, 418.947 120.662, 418.882 120.250 C 418.549 118.146, 419.230 116.895, 421.526 115.391 C 423.874 113.853, 424.179 113.852, 425.877 115.388 C 427.806 117.134, 427.010 117.221, 443.895 113.427 C 445.633 113.037, 445.989 112.589, 445.191 111.791 C 442.711 109.311, 451.825 100.780, 454.545 103.037 C 456.480 104.644, 456.389 107.913, 454.345 110.171 C 452.785 111.895, 452.828 112, 455.095 112 L 457.500 112 457.347 99.750 C 457.189 87.102, 455.991 81.653, 452.164 76.184 C 451.131 74.708, 449.051 70.350, 447.541 66.500 C 446.031 62.650, 443.746 58.375, 442.462 57 C 439.646 53.985, 438 49.902, 438 45.935 C 438 42.566, 437.389 42.449, 430.591 44.511 C 424.805 46.266, 414.640 46.428, 404.917 44.919 L 397.951 43.838 392.725 47.284 C 389.851 49.179, 386.095 51.448, 384.377 52.325 C 380.983 54.059, 380.035 56.290, 380.014 62.595 C 379.995 68.240, 374.517 78.827, 370.102 81.750 C 360.644 88.013, 343.548 79.722, 336.138 65.277 C 335.163 63.377, 332.200 60.545, 329.272 58.717 C 318.203 51.803, 310.143 45.998, 308.222 43.555 C 305.941 40.655, 303.213 40.421, 298 42.679 M 488 43.378 C 488 45.790, 490.566 47.228, 491.932 45.582 C 492.893 44.424, 492.735 43.929, 491.130 43.070 C 488.513 41.669, 488 41.720, 488 43.378 M 476.200 44.200 C 475.540 44.860, 475 46.605, 475 48.078 C 475 51.758, 472.760 53.365, 468.695 52.603 C 465.950 52.088, 464.943 52.431, 462.934 54.571 L 460.500 57.163 463.766 60.081 C 469.386 65.104, 477.154 62.405, 481.551 53.901 C 484.797 47.624, 480.524 39.876, 476.200 44.200 M 497.984 55.750 C 498.377 57.813, 499.626 61.300, 500.760 63.500 C 516.934 94.890, 519.618 127.987, 508.001 152.811 C 505.341 158.496, 505.141 159.501, 506.393 160.901 C 507.960 162.655, 508.602 165.535, 510.067 177.379 C 511.259 187.023, 511.369 187.209, 515.420 186.449 C 519.078 185.763, 524 190.190, 524 194.166 C 524 195.274, 525.013 197.010, 526.250 198.025 C 529.558 200.739, 526.481 204.131, 522.597 202.052 C 521.243 201.327, 519.430 201.005, 518.567 201.336 C 515.890 202.363, 516.841 204.792, 520.379 205.960 C 525.763 207.737, 527.648 210.424, 526.230 214.300 C 525.185 217.159, 525.214 217.298, 526.497 215.604 C 529.520 211.616, 532.384 200.632, 532.443 192.806 C 532.498 185.407, 532.634 184.973, 536 181.471 C 540.101 177.204, 543.950 175, 547.301 175 C 550.533 175, 555.590 164.890, 556.525 156.558 C 556.892 153.290, 558.533 146.817, 560.171 142.174 C 563.506 132.727, 563.429 126.787, 559.881 119.790 C 558.458 116.983, 558 113.911, 558 107.173 L 558 98.266 553.750 95.473 C 549.162 92.458, 540.836 85.746, 534.622 80.053 C 529.771 75.609, 523.305 65.848, 521.999 60.997 C 521.023 57.373, 520.910 57.304, 513.755 56.027 C 509.765 55.315, 504.756 54.117, 502.624 53.366 C 497.270 51.479, 497.178 51.526, 497.984 55.750 M 475.026 55.125 C 473.098 56.729, 471.717 57.050, 468.776 56.580 C 464.461 55.890, 463.517 57.590, 467.640 58.625 C 471.075 59.487, 474.891 58.074, 476.757 55.250 C 478.580 52.491, 478.223 52.465, 475.026 55.125 M 273 57.262 C 269.551 61.179, 264.041 61.807, 259.226 58.831 C 255.700 56.651, 255.542 57.444, 258.756 61.193 C 262.404 65.449, 271.892 64.043, 274.578 58.849 C 276.739 54.670, 275.966 53.893, 273 57.262 M 245.513 58.622 C 243.896 62.494, 243.534 64.799, 244.733 63.600 C 245.572 62.761, 247.986 55, 247.408 55 C 247.198 55, 246.346 56.630, 245.513 58.622 M 250.965 57.591 C 250.398 59.083, 250.139 60.797, 250.388 61.401 C 250.640 62.010, 250.877 61.866, 250.921 61.079 C 250.964 60.297, 251.704 58.879, 252.565 57.928 C 253.605 56.779, 253.772 55.977, 253.063 55.539 C 252.467 55.170, 251.542 56.075, 250.965 57.591 M 533.160 59.880 C 529.663 62.096, 541.417 76.909, 550.635 81.902 C 553.586 83.500, 556 84.684, 556 84.532 C 556 84.380, 553.044 80.291, 549.431 75.446 C 545.818 70.600, 542.214 65.380, 541.421 63.847 C 539.321 59.787, 535.900 58.143, 533.160 59.880 M 364.947 64.564 C 363.968 65.744, 364.051 66.398, 365.362 67.847 C 367.403 70.103, 367.433 71.937, 365.473 74.735 C 363.975 76.874, 364.002 76.895, 366.933 75.874 C 369.295 75.050, 370.345 73.693, 371.959 69.379 C 374.462 62.690, 374.462 62.694, 372 64.232 C 370.439 65.207, 369.579 65.218, 368.085 64.285 C 366.550 63.327, 365.928 63.382, 364.947 64.564 M 128.550 67.524 C 125.939 68.913, 122.282 71.209, 120.422 72.627 C 118.563 74.046, 114.683 75.730, 111.800 76.370 L 106.559 77.534 106.696 81.816 C 106.907 88.355, 108.843 90.481, 115.965 91.993 C 120.685 92.994, 122.959 93.029, 125.908 92.146 C 130.954 90.634, 130.429 90.490, 135.036 94.652 L 139.078 98.303 143.493 93.562 C 154.540 81.699, 154.820 68.989, 144.100 66.011 C 138.252 64.387, 133.600 64.839, 128.550 67.524 M 247.215 78.494 C 247.608 78.917, 247.270 80.204, 246.465 81.354 C 245.659 82.504, 244.997 84.132, 244.994 84.973 C 244.990 85.813, 244.315 87.789, 243.494 89.364 C 241.557 93.077, 241.608 93.664, 243.920 94.269 C 245.306 94.631, 245.999 94.141, 246.409 92.506 C 246.722 91.260, 249.065 87.919, 251.616 85.082 C 254.168 82.244, 256.010 79.677, 255.710 79.377 C 254.847 78.514, 246.419 77.638, 247.215 78.494 M 223.400 81.992 C 223.117 83.372, 222.461 86.387, 221.942 88.693 C 220.586 94.728, 220.788 96.152, 223.463 99.425 L 225.855 102.351 231.042 100.675 C 233.895 99.754, 238.053 99, 240.282 99 C 244.238 99, 244.948 98.109, 241.407 97.589 C 237.915 97.077, 236.824 93.803, 238.862 89.957 C 240.804 86.290, 242.048 82.156, 241.706 80.500 C 241.588 79.926, 237.759 79.497, 232.708 79.492 C 224.124 79.485, 223.904 79.544, 223.400 81.992 M 288.200 84.200 C 287.540 84.860, 287 86.899, 287 88.732 C 287 93.437, 284.825 97.942, 280.619 101.946 C 276.480 105.887, 276.270 106.877, 278.885 110.107 C 281.090 112.830, 282.546 112.064, 286.665 106.015 C 287.981 104.082, 290.170 100.971, 291.529 99.102 C 294.645 94.818, 294.984 87.200, 292.171 84.655 C 289.988 82.679, 289.748 82.652, 288.200 84.200 M 70.110 89.367 C 69.247 90.407, 69.337 91.035, 70.488 91.990 C 71.772 93.056, 72 92.850, 72 90.622 C 72 87.637, 71.707 87.443, 70.110 89.367 M 208.250 91.662 C 207.563 91.940, 207 93.016, 207 94.053 C 207 95.091, 205.614 96.965, 203.921 98.217 C 201.107 100.297, 195.511 109.844, 196.516 110.849 C 196.750 111.084, 199.543 109.976, 202.721 108.388 C 205.899 106.799, 208.605 105.470, 208.733 105.434 C 208.861 105.398, 208.462 104.036, 207.848 102.408 C 206.910 99.923, 207.077 98.770, 208.886 95.224 C 210.975 91.129, 210.881 90.601, 208.250 91.662 M 560.944 93.278 C 563.114 95.732, 563.555 95.873, 564.884 94.544 C 565.707 93.721, 566.063 92.729, 565.674 92.340 C 565.285 91.952, 564.440 92.160, 563.797 92.803 C 562.904 93.696, 562.139 93.564, 560.564 92.244 C 559.129 91.042, 559.245 91.357, 560.944 93.278 M 464.519 96.752 C 464.169 98.617, 463.600 100.898, 463.254 101.821 C 462.737 103.204, 462.888 103.287, 464.115 102.292 C 464.934 101.627, 466.556 101.333, 467.721 101.637 C 472.197 102.808, 472.695 100.690, 468.827 96.931 L 465.155 93.363 464.519 96.752 M 284.196 102.298 C 282.438 104.111, 281.014 106.249, 281.030 107.048 C 281.050 108.005, 281.437 107.819, 282.164 106.500 C 282.771 105.400, 284.417 103.263, 285.821 101.750 C 289.438 97.855, 288.049 98.323, 284.196 102.298 M 374.562 100.931 C 372.835 102.840, 372.870 102.985, 375.638 105.374 L 378.500 107.844 376.608 111.172 C 375.568 113.002, 373.594 115.714, 372.222 117.197 C 370.016 119.582, 369.807 120.449, 370.411 124.697 C 370.787 127.339, 371.354 131.863, 371.671 134.750 C 371.988 137.637, 372.556 140, 372.933 140 C 374.815 140, 376.850 136.995, 378.012 132.500 C 378.723 129.750, 380.136 125.728, 381.152 123.562 C 382.168 121.396, 383 118.921, 383.001 118.062 C 383.001 117.203, 384.368 113.612, 386.038 110.082 C 389.303 103.179, 388.810 101.218, 384.323 103.262 C 382.315 104.178, 381.543 103.937, 379.155 101.648 C 376.373 98.983, 376.331 98.976, 374.562 100.931 M 116.061 101.279 C 116.303 101.457, 119.425 104.277, 123 107.545 C 126.575 110.814, 128.488 112.337, 127.250 110.930 C 126.013 109.522, 125 107.485, 125 106.401 C 125 104.969, 123.721 103.957, 120.311 102.694 C 117.732 101.738, 115.820 101.101, 116.061 101.279 M 567.030 105.219 C 567.006 108.999, 567.297 109.823, 568.493 109.364 C 569.540 108.962, 569.798 108.002, 569.358 106.146 C 568.091 100.808, 567.061 100.398, 567.030 105.219 M 309.750 105.332 C 309.337 106.339, 309.014 108.364, 309.030 109.832 C 309.057 112.152, 309.196 112.268, 310.094 110.724 C 310.663 109.748, 310.987 107.723, 310.814 106.224 C 310.552 103.949, 310.376 103.802, 309.750 105.332 M 249.992 110.510 C 249.240 111.416, 249.017 113.276, 249.409 115.366 C 250.390 120.596, 248.715 123.590, 243.522 125.887 C 241.002 127.002, 236.367 129.913, 233.221 132.356 C 226.919 137.250, 218.251 141.821, 210.394 144.393 C 207.585 145.313, 204.249 147.171, 202.979 148.522 C 199.987 151.708, 201.244 153.235, 211.930 159.399 C 224.636 166.728, 229.586 172.850, 236.672 190 C 239.796 197.561, 245.057 202.366, 249.212 201.453 L 252.308 200.773 251.663 207.720 C 251.054 214.271, 251.162 214.803, 253.553 217.050 C 260.109 223.209, 262.401 210.097, 257.040 197.098 C 253.315 188.064, 253.249 185.601, 256.646 182.452 C 259.578 179.735, 262.029 179.377, 264.997 181.230 C 266.617 182.242, 267.257 182.171, 268.594 180.834 C 270.097 179.332, 270.047 178.760, 267.944 173.354 C 266.096 168.602, 265.651 165.429, 265.584 156.500 L 265.500 145.500 269.930 136.500 C 272.366 131.550, 275.627 125.622, 277.176 123.326 C 283.724 113.619, 282.574 110.364, 273.687 113.453 C 266.285 116.025, 264.299 117.493, 261.927 122.143 C 259.979 125.961, 259.710 126.138, 258.184 124.612 C 256.830 123.259, 256.757 122.619, 257.770 120.997 C 259.494 118.237, 259.313 116.668, 256.922 113.629 C 253.913 109.802, 251.485 108.710, 249.992 110.510 M 16.208 112.192 C 15.543 112.857, 15 114.400, 15 115.623 C 15 116.846, 13.932 119.119, 12.627 120.673 C 11.322 122.228, 9.932 125.412, 9.539 127.750 C 9.146 130.088, 8.267 132, 7.586 132 C 5.066 132, 1.770 136.857, 1.351 141.188 C 0.834 146.525, 5.211 155.316, 8.629 155.804 C 10.699 156.099, 11.463 155.364, 17.545 147.234 C 18.669 145.730, 20.419 141.211, 21.433 137.190 C 22.447 133.170, 24.114 128.237, 25.138 126.229 C 27.686 121.232, 27.636 121.051, 22.208 115.705 C 18.463 112.017, 17.151 111.249, 16.208 112.192 M 570 112.588 C 568.625 113.353, 566.938 113.773, 566.250 113.521 C 564.570 112.905, 564.666 115.550, 566.422 118.285 C 567.204 119.503, 568.160 122.671, 568.547 125.325 C 569.268 130.274, 571.180 130.568, 571.495 125.778 C 571.577 124.525, 571.994 120.688, 572.420 117.250 C 572.847 113.813, 573.040 111.044, 572.848 111.098 C 572.657 111.152, 571.375 111.822, 570 112.588 M 272 118.052 C 267.081 119.920, 259.449 129.900, 263.812 128.760 C 264.859 128.486, 266.405 128.647, 267.248 129.119 C 268.434 129.782, 269.741 128.502, 273.027 123.458 C 275.363 119.874, 277.100 116.806, 276.887 116.642 C 276.674 116.477, 274.475 117.112, 272 118.052 M 16.398 120.805 C 15.242 122.287, 13.968 125.300, 13.567 127.500 C 12.825 131.570, 9.633 136, 7.442 136 C 4.741 136, 4.289 143.441, 6.685 148.466 C 8.212 151.668, 11 153.355, 11 151.077 C 11 150.569, 12.033 148.881, 13.295 147.327 C 14.557 145.772, 16.419 141.211, 17.433 137.190 C 18.447 133.170, 20.114 128.237, 21.138 126.229 C 23.490 121.615, 23.477 120.326, 21.066 119.035 C 18.621 117.727, 18.875 117.631, 16.398 120.805 M 305.344 125.380 C 303.608 129.296, 301.253 137.138, 300.111 142.807 C 298.968 148.475, 296.856 155.900, 295.416 159.307 C 290.513 170.906, 288 179.329, 288 184.162 C 288 186.098, 287.330 189.891, 286.511 192.591 C 284.157 200.351, 284.457 203, 287.690 203 C 302.814 203, 317.898 210.521, 327.312 222.756 L 331.902 228.720 342.576 229.435 C 349.771 229.917, 353.600 229.800, 354.325 229.075 C 355.092 228.308, 354.935 228, 353.777 228 C 351.569 228, 346.256 223.396, 344.464 219.931 C 341.771 214.723, 342.576 209.696, 347.250 202.541 C 355.566 189.810, 357.526 186.408, 360.817 179 C 362.649 174.875, 364.967 169.700, 365.970 167.500 C 366.972 165.300, 370.124 161.250, 372.974 158.500 C 378.679 152.997, 381 149.315, 381 145.772 C 381 144.492, 381.734 142.398, 382.630 141.118 C 384.212 138.860, 384.197 138.824, 382.133 139.929 C 380.964 140.555, 379.118 142.809, 378.031 144.939 C 375.143 150.599, 371.465 153.178, 367.372 152.410 C 362.599 151.515, 360.496 155.770, 363.913 159.408 C 366.624 162.293, 365.523 165.239, 359.607 170.925 C 355.586 174.789, 356.294 175.014, 347.861 167.188 C 343.548 163.185, 340.500 163.203, 340.500 167.230 C 340.500 172.339, 337.866 173.627, 332.541 171.124 C 328.979 169.450, 327.493 169.201, 325.959 170.022 C 324.869 170.605, 323.420 171.011, 322.739 170.923 C 320.156 170.590, 319 171.046, 319 172.398 C 319 173.952, 313.440 184.929, 311.858 186.500 C 311.185 187.168, 310.079 186.540, 308.523 184.606 C 306.912 182.604, 305.663 181.915, 304.471 182.373 C 300.639 183.843, 298.280 177.672, 301.616 174.904 C 302.922 173.820, 303.111 172.390, 302.603 167.432 C 301.924 160.799, 303.712 156.861, 308.026 155.492 C 310.433 154.728, 310.523 152.471, 308.351 147.372 C 305.922 141.670, 306.243 130.037, 308.889 127.891 C 310.673 126.444, 310.753 125.880, 309.686 122.272 L 308.500 118.261 305.344 125.380 M 467.578 123.500 C 468.451 127.650, 472.392 135.214, 474.313 136.426 C 476.900 138.058, 477.518 136.180, 475.204 133.718 C 474.029 132.466, 471.690 128.981, 470.007 125.971 C 467.673 121.797, 467.097 121.211, 467.578 123.500 M 250.703 125.551 C 248.834 128.099, 249.632 128.598, 253.277 127.157 C 254.766 126.569, 254.847 126.184, 253.777 124.779 C 252.608 123.244, 252.348 123.309, 250.703 125.551 M 173.822 133.926 C 168.655 138.473, 166.653 138.857, 163 136 C 161.625 134.924, 160.106 134.034, 159.625 134.022 C 157.989 133.981, 160.025 140.417, 162.454 142.964 C 163.784 144.359, 165.337 146.729, 165.904 148.231 C 166.616 150.116, 167.422 150.775, 168.503 150.360 C 170.648 149.538, 180.221 158.873, 179.635 161.215 C 179.145 163.171, 183.190 168, 185.317 168 C 186.094 168, 188.028 168.999, 189.615 170.220 C 191.202 171.441, 190.025 169.730, 187 166.418 C 178.619 157.242, 175.552 150.944, 175.523 142.858 C 175.505 137.773, 175.934 135.735, 177.353 134.166 C 181.014 130.115, 178.357 129.934, 173.822 133.926 M 316.667 131.667 C 315.417 132.916, 316.062 136.495, 317.944 138.750 C 321.171 142.619, 321.790 141.383, 319.947 134.750 C 318.938 131.116, 318.051 130.282, 316.667 131.667 M 236.327 138.413 C 232.964 140.941, 226.343 144.733, 221.613 146.839 L 213.012 150.668 220.593 156.584 C 227.908 162.293, 233.268 168.460, 240.170 179.112 C 241.971 181.892, 243.603 183.691, 243.796 183.111 C 243.990 182.530, 247.322 179.945, 251.200 177.367 L 258.251 172.679 257.420 166.590 C 256.021 156.353, 256.551 150.026, 259.391 143.058 C 262.680 134.986, 262.318 134.594, 251.172 134.159 L 242.441 133.817 236.327 138.413 M 570.656 139.206 C 569.995 141.737, 570.404 142.486, 571.933 141.541 C 573.217 140.748, 573.368 137, 572.117 137 C 571.631 137, 570.974 137.993, 570.656 139.206 M 110.569 144.521 C 107.857 146.397, 103.582 149.905, 101.069 152.317 C 98.556 154.729, 94.888 157.890, 92.918 159.341 C 87.962 162.994, 83.660 171.672, 84.524 176.276 C 85.038 179.017, 85.570 179.664, 87.004 179.289 C 89.054 178.753, 92.608 183.207, 91.527 184.956 C 91.165 185.542, 91.718 186, 92.786 186 C 94.949 186, 97.064 188.212, 98.807 192.297 C 101.133 197.750, 99.717 203.596, 96.379 202.315 C 95.364 201.926, 95.521 202.931, 96.979 206.143 C 98.145 208.713, 99.019 212.962, 99.109 216.500 L 99.262 222.500 100.014 217 C 100.428 213.975, 101.281 210.200, 101.911 208.610 C 102.871 206.190, 102.769 205.403, 101.288 203.766 C 99.583 201.882, 99.618 201.725, 102.259 199.453 C 105.562 196.612, 105.762 193.415, 102.978 187.957 C 98.489 179.158, 100.572 171.460, 108.180 168.736 C 110.556 167.886, 114.525 166.461, 117 165.571 C 130.252 160.804, 132.449 158.515, 128.404 153.695 C 122.229 146.339, 117.140 141.004, 116.347 141.055 C 115.881 141.085, 113.281 142.645, 110.569 144.521 M 571.500 145.489 C 569.556 146.348, 568.091 146.478, 567.339 145.859 C 566.700 145.333, 565.956 145.262, 565.685 145.701 C 564.882 147.003, 563 158.108, 563 161.545 C 563 163.688, 561.342 167.238, 557.907 172.448 L 552.814 180.173 555.157 182.756 C 556.446 184.178, 561.149 189.010, 565.609 193.496 C 570.068 197.982, 573.947 202.293, 574.227 203.076 C 574.616 204.162, 575.436 203.845, 577.688 201.736 C 579.311 200.216, 580.945 199.278, 581.319 199.653 C 582.441 200.774, 582.088 197.032, 580.854 194.727 C 579.841 192.834, 580.189 192.160, 583.870 188.894 C 589.503 183.894, 591.560 175.091, 587.809 172.033 C 585.500 170.152, 585.500 170.151, 587.378 166.631 C 588.448 164.624, 588.967 162.356, 588.584 161.358 C 587.816 159.357, 575.760 144.059, 575 144.122 C 574.725 144.144, 573.150 144.759, 571.500 145.489 M 584.875 151 C 591.407 158.938, 592.586 160.149, 591.195 157.500 C 589.298 153.886, 585.361 149.072, 582.418 146.766 C 580.494 145.258, 581.316 146.675, 584.875 151 M 91.098 150.149 C 89.605 154.430, 89.597 154.423, 93.041 151.970 C 95.470 150.242, 95.848 149.522, 94.919 148.402 C 93.165 146.290, 92.306 146.682, 91.098 150.149 M 449 150.201 C 444.003 151.776, 439.553 152.279, 429.753 152.375 L 417.006 152.500 417.003 155.615 C 416.999 159.941, 413.586 164.041, 410.181 163.811 C 405.424 163.489, 402.554 164.984, 400.253 168.981 C 397.318 174.082, 388.155 183.928, 383.053 187.463 C 380.201 189.440, 378.708 191.371, 378 194 C 377.448 196.052, 375.653 199.420, 374.012 201.485 C 371.321 204.872, 369.020 210.494, 369.006 213.721 C 368.993 216.544, 364.010 225.924, 361.933 227.036 C 358.950 228.632, 360.301 229.331, 370.357 231.390 C 379.262 233.215, 387.579 233.490, 388.506 231.990 C 388.849 231.435, 387.727 229.800, 386.013 228.357 C 382.604 225.489, 382.312 222.444, 385.269 220.602 C 386.738 219.687, 387.646 220.143, 390.617 223.286 C 393.453 226.288, 394.641 226.918, 396.347 226.328 C 397.531 225.918, 400.300 225.512, 402.500 225.424 C 406.052 225.284, 416.727 220.557, 419.450 217.920 C 421.553 215.883, 431.940 216.887, 435.785 219.500 C 440.180 222.486, 441 222.589, 441 220.155 C 441 219.140, 441.888 217.506, 442.974 216.523 C 444.858 214.818, 445.071 214.817, 447.622 216.488 C 450.285 218.233, 450.293 218.231, 449.544 215.870 C 448.658 213.081, 448.479 211.608, 446.937 194.500 C 445.337 176.754, 448.442 163.221, 456.614 152.317 C 460.472 147.169, 459.489 146.896, 449 150.201 M 409.234 156.250 L 405.967 159.629 409.220 159.564 C 412.507 159.499, 413.560 158, 412.823 154.436 C 412.580 153.259, 411.691 153.709, 409.234 156.250 M 132.872 162.121 C 133.790 163.404, 133.631 164.234, 132.110 166.112 C 130.281 168.372, 130.101 168.402, 128.282 166.755 C 127.056 165.646, 126.027 165.373, 125.408 165.992 C 124.878 166.522, 121.982 167.824, 118.972 168.885 C 107.384 172.970, 105.583 173.836, 104.927 175.639 C 103.974 178.261, 104.959 183.848, 107.143 188.210 C 109.694 193.307, 109.489 196.881, 106.461 200.041 C 104.276 202.321, 104.126 202.860, 105.386 203.906 C 106.588 204.903, 107.268 204.554, 109.175 201.963 C 110.454 200.226, 112.709 198.177, 114.188 197.409 C 116.336 196.293, 117.009 195.058, 117.538 191.257 C 119.610 176.386, 123.955 171.593, 129.448 178.121 C 135.421 185.219, 135.903 192.039, 130.825 197.620 C 129.437 199.145, 129.084 200.488, 129.567 202.410 C 130.390 205.689, 128.064 208.607, 123.896 209.523 C 121.521 210.044, 121 210.676, 121 213.030 C 121 216.897, 122.810 225.643, 124.568 230.270 C 125.355 232.344, 126.007 235.269, 126.015 236.770 C 126.035 240.355, 127.955 237.675, 127.999 234 C 128.048 229.928, 130.295 226.634, 134.526 224.433 C 136.711 223.297, 138.656 221.497, 138.849 220.433 C 139.250 218.222, 142.857 214, 144.346 214 C 144.894 214, 146.165 214.745, 147.171 215.655 C 148.889 217.209, 149 217.180, 149 215.169 C 149 213.782, 150.397 212.104, 152.968 210.402 C 159.075 206.361, 159.536 202.716, 154.092 201.520 C 150.573 200.747, 148.995 199.030, 145.628 192.311 C 144.047 189.156, 141.945 186.606, 140.264 185.804 C 136.740 184.122, 136.104 180.121, 138.953 177.543 C 142.422 174.403, 141.600 170.490, 136.357 165.192 C 133.804 162.611, 132.236 161.229, 132.872 162.121 M 393.250 162.220 C 390.677 163.461, 390.455 164.303, 392.298 165.832 C 393.291 166.657, 393.857 166.216, 394.711 163.955 C 395.324 162.330, 395.753 161.030, 395.663 161.068 C 395.573 161.105, 394.488 161.624, 393.250 162.220 M 592.344 165.516 C 591.610 167.093, 591.545 168.219, 592.164 168.602 C 592.701 168.933, 593.530 170.171, 594.007 171.352 C 594.834 173.402, 594.871 173.386, 594.818 171 C 594.788 169.625, 594.479 167.270, 594.132 165.767 L 593.500 163.034 592.344 165.516 M 500.212 168.180 C 496.464 173.611, 486.453 183.198, 482.271 185.360 C 477.843 187.650, 477.215 189.279, 477.771 197.040 C 478.038 200.779, 477.708 206.746, 477.037 210.302 L 475.818 216.766 480.082 227.472 L 484.346 238.178 487.923 237.592 C 489.890 237.269, 495.852 236.721, 501.170 236.373 C 510.790 235.744, 510.840 235.727, 510.670 233.164 C 510.546 231.284, 511.209 230.239, 513.122 229.300 C 516.657 227.566, 517.759 226.083, 520.164 219.828 C 523.106 212.179, 523.020 210.873, 519.500 209.721 C 512.289 207.361, 511.261 203.734, 516.500 199.134 C 521.954 194.346, 520.985 189.849, 514.589 190.257 C 509.236 190.599, 507.295 187.687, 506.083 177.500 C 504.326 162.725, 504.159 162.460, 500.212 168.180 M 307 170.723 C 307 172.390, 306.325 174.315, 305.500 175 C 303.418 176.728, 303.627 178, 305.992 178 C 307.087 178, 308.527 178.872, 309.193 179.937 C 310.329 181.757, 310.539 181.651, 312.670 178.187 C 315.538 173.523, 315.553 172.303, 312.750 171.449 C 311.512 171.072, 309.712 170.072, 308.750 169.227 C 307.130 167.804, 307 167.916, 307 170.723 M 75.550 173.513 C 74.795 178.553, 75.423 181.565, 77.388 182.319 C 78.399 182.706, 78.677 181.234, 78.600 175.919 C 78.484 167.939, 76.608 166.459, 75.550 173.513 M 145 173.224 C 145 174.580, 144.100 176.505, 143 177.500 C 140.290 179.953, 140.471 181.123, 144.093 184.563 C 145.795 186.178, 148.260 189.604, 149.573 192.176 C 150.979 194.933, 152.891 197.134, 154.229 197.538 C 157.192 198.434, 162 202.963, 162 204.859 C 162 205.675, 159.975 208.283, 157.500 210.655 C 152.854 215.106, 152.168 216.768, 154.158 218.758 C 155.034 219.634, 155.005 220.289, 154.035 221.458 C 152.115 223.771, 148.395 223.317, 146.179 220.500 C 143.854 217.545, 143 217.351, 143 219.777 C 143 222.566, 140.048 226.082, 136.442 227.589 C 133.082 228.993, 132.631 229.779, 131.572 236.090 C 131.241 238.065, 129.906 240.680, 128.605 241.901 L 126.241 244.122 124.121 241.426 C 122.954 239.943, 122 237.675, 122 236.385 C 122 235.096, 121.355 232.344, 120.568 230.270 C 118.738 225.454, 117 216.849, 117 212.606 C 117 208.897, 119.070 206.609, 123.347 205.591 C 125.816 205.003, 126.108 204.568, 125.546 202.326 C 125.087 200.499, 125.463 199.117, 126.825 197.620 C 130.642 193.424, 131.350 188.723, 128.938 183.591 C 127.751 181.066, 126.253 179, 125.608 179 C 124.305 179, 122.406 185.004, 121.422 192.236 C 120.848 196.453, 120.251 197.351, 115.976 200.421 C 109.858 204.817, 109.171 206.960, 112.103 212.489 L 114.395 216.809 111.698 224.776 C 110.214 229.157, 109 234.735, 109 237.171 C 109 241.898, 107.707 244, 104.800 244 C 102.979 244, 102.442 245.109, 103.669 246.336 C 104.037 246.703, 105.145 246.274, 106.132 245.381 C 107.118 244.488, 108.562 244.002, 109.341 244.301 C 110.119 244.599, 111.190 244.410, 111.721 243.879 C 112.340 243.260, 113.115 243.433, 113.885 244.362 C 114.872 245.550, 114.332 246.317, 110.864 248.654 C 108.542 250.219, 105.228 252.963, 103.500 254.750 C 101.772 256.538, 99.797 258, 99.112 258 C 98.392 258, 98.087 258.739, 98.389 259.750 C 99.328 262.887, 101.883 274.407, 102.508 278.323 C 103.011 281.474, 103.367 281.940, 104.531 280.974 C 105.638 280.056, 106.696 280.267, 109.417 281.949 L 112.891 284.096 113.550 280.584 C 114.348 276.330, 116.243 274.569, 119.193 275.340 C 120.404 275.657, 121.990 275.423, 122.717 274.820 C 124.505 273.336, 127.167 275.808, 128.880 280.544 C 130.085 283.877, 130.013 284.357, 127.986 286.515 C 125.471 289.192, 118.615 290.755, 116.627 289.105 C 115.282 287.989, 108.108 296.441, 109.348 297.681 C 110.297 298.631, 114.468 297.172, 118.368 294.525 C 120.414 293.136, 122.952 292, 124.007 292 C 125.063 292, 128.209 291.100, 131 290 C 136.781 287.721, 141.976 287.420, 143.947 289.250 C 144.687 289.938, 145.049 290.050, 144.750 289.500 C 142.615 285.568, 147.971 273, 151.781 273 C 152.677 273, 152.986 272.407, 152.607 271.418 C 152.273 270.548, 152 269.187, 152 268.393 C 152 267.152, 151.583 267.164, 149.050 268.474 C 147.427 269.313, 145.550 270, 144.878 270 C 144.207 270, 142.870 270.713, 141.907 271.584 C 140.293 273.045, 140.026 272.970, 138.490 270.625 C 136.382 267.408, 137.217 263.084, 140.552 259.951 C 141.898 258.686, 143 257.082, 143 256.385 C 143 255.689, 145.250 253.222, 148 250.903 C 153.483 246.280, 154.291 243.478, 151 240.500 C 148.498 238.236, 148.498 236.198, 151 233 C 152.076 231.625, 152.966 229.669, 152.978 228.654 C 152.990 227.639, 153.739 225.389, 154.642 223.654 C 155.545 221.919, 156.592 219.848, 156.969 219.051 C 158.053 216.757, 163.123 215.802, 165.035 217.531 C 167.791 220.026, 170.625 218.410, 173.434 212.743 C 174.228 211.142, 175.596 210.412, 178.215 210.193 L 181.884 209.886 181.771 204.920 C 181.687 201.239, 182.230 199.180, 183.870 196.962 C 186.339 193.623, 186.402 193.683, 178.605 191.989 C 169.467 190.005, 159.788 184.708, 152.172 177.523 C 145.710 171.428, 145 171.002, 145 173.224 M 278.358 180.794 C 275.534 183.042, 276.468 186.609, 279.330 184.507 C 280.343 183.763, 281.013 182.252, 280.830 181.125 C 280.515 179.182, 280.401 179.167, 278.358 180.794 M 467.171 183.097 C 466.451 184.251, 466.005 185.263, 466.181 185.347 C 466.356 185.431, 467.556 186.094, 468.847 186.819 C 471.944 188.560, 472.513 187.781, 470.865 184.057 C 469.262 180.435, 468.894 180.339, 467.171 183.097 M 73.158 190.136 C 78.985 195.706, 89 209.328, 89 211.685 C 89 212.143, 89.900 213.081, 91 213.768 C 92.675 214.814, 93 214.767, 93 213.476 C 93 208.626, 81.733 191.594, 79.144 192.529 C 78.397 192.799, 76.372 191.500, 74.644 189.645 C 72.915 187.789, 70.375 185.708, 69 185.021 C 67.625 184.334, 69.496 186.635, 73.158 190.136 M 249.339 190 C 249.687 191.375, 249.979 193.438, 249.986 194.583 C 249.994 195.729, 250.641 196.667, 251.425 196.667 C 252.632 196.667, 252.607 196.042, 251.263 192.583 C 249.382 187.746, 248.450 186.495, 249.339 190 M 89 190.679 C 89 191.052, 90.575 192.801, 92.500 194.564 C 96.093 197.855, 96.930 197.134, 94.839 192.547 C 93.790 190.244, 89 188.712, 89 190.679 M 243.601 190.836 C 243.306 191.314, 243.710 192.559, 244.500 193.603 C 245.889 195.438, 245.937 195.428, 245.968 193.309 C 246.002 190.970, 244.493 189.394, 243.601 190.836 M 221.583 197.542 C 217.344 201.285, 217.459 201.848, 221.986 199.507 C 223.574 198.686, 225.519 198.262, 226.309 198.565 C 227.393 198.981, 227.625 198.489, 227.256 196.558 C 226.634 193.307, 226.316 193.362, 221.583 197.542 M 186.387 199.183 C 185.985 199.833, 185.719 202.743, 185.795 205.649 C 185.944 211.311, 183.939 214, 179.568 214 C 178.475 214, 175.669 216.082, 173.332 218.628 C 169.910 222.356, 168.638 223.132, 166.792 222.620 C 160.210 220.795, 160 220.784, 160 222.269 C 160 223.086, 159.325 224.315, 158.500 225 C 157.675 225.685, 156.990 227.202, 156.978 228.372 C 156.966 229.543, 156.076 231.625, 155 233 C 152.498 236.198, 152.498 238.236, 155 240.500 C 156.100 241.495, 157 243.257, 157 244.414 C 157 245.572, 157.941 247.107, 159.092 247.825 C 161.429 249.285, 161.087 253.120, 158.349 256.159 C 157.023 257.632, 157.025 258.147, 158.368 260.746 C 159.778 263.470, 159.739 263.817, 157.810 265.746 C 155.657 267.899, 155.906 273.794, 158.092 272.443 C 159.309 271.691, 163.180 274.900, 162.460 276.065 C 161.444 277.708, 163.812 277.861, 168.488 276.454 C 171.426 275.569, 177.555 275, 184.134 275 L 194.950 275 194.375 272.127 C 193.414 267.322, 198.524 262.473, 204.419 262.596 L 209 262.692 209 258.814 C 209 254.247, 211.238 248.440, 214.222 245.264 L 216.349 243 214.108 240.614 C 212.300 238.690, 211.994 237.547, 212.528 234.702 C 213.051 231.914, 212.709 230.525, 210.892 228.068 L 208.595 224.961 210.793 222.762 C 212.919 220.636, 213.087 220.620, 215.900 222.282 C 220.424 224.954, 223.173 224.467, 225.864 220.515 C 228.250 217.011, 228.273 215.479, 226.032 209.583 C 225.125 207.198, 224.945 207.148, 222.290 208.533 C 220.755 209.333, 217.768 209.990, 215.650 209.994 C 211.283 210.001, 197.484 204.369, 192.438 200.521 C 188.766 197.719, 187.469 197.433, 186.387 199.183 M 279.254 206.341 C 278.215 208.622, 278.277 208.682, 280.573 207.617 C 282.956 206.513, 283.327 204.942, 281.360 204.287 C 280.801 204.100, 279.854 205.025, 279.254 206.341 M 104.630 212.250 C 104.299 213.488, 104.021 215.995, 104.014 217.822 C 103.999 221.408, 100.565 228.108, 95.465 234.502 C 91.994 238.853, 92.073 240.735, 95.934 245.644 C 96.994 246.991, 98.158 249.444, 98.521 251.095 C 99.057 253.536, 99.443 253.877, 100.590 252.925 C 102.585 251.270, 102.338 248.616, 99.992 246.493 C 98.123 244.801, 98.097 244.550, 99.624 242.863 C 100.526 241.867, 102.104 240.784, 103.132 240.458 C 104.495 240.025, 105 238.903, 105 236.304 C 105 234.345, 106.203 229.189, 107.674 224.847 C 110.252 217.233, 110.288 216.827, 108.690 213.476 C 106.772 209.454, 105.484 209.065, 104.630 212.250 M 546.241 212.250 C 539.445 219.505, 541.902 230.815, 551.175 234.967 L 555.008 236.683 552.851 238.591 C 548.601 242.353, 542.129 252.098, 540.459 257.252 C 539.524 260.138, 537.452 263.883, 535.855 265.573 C 533.046 268.545, 533.012 268.701, 534.804 270.323 C 538.596 273.754, 540.943 272.151, 545.527 263 C 549.638 254.794, 557.636 243.148, 563.040 237.500 C 569.321 230.935, 572.133 221.779, 568.875 218.500 C 566.715 216.327, 566.576 216.424, 559.760 224.849 C 555.247 230.428, 549.590 225.309, 552.520 218.297 C 555.177 211.939, 550.632 207.562, 546.241 212.250 M 282.364 213.122 C 277.396 215.639, 275.727 226.170, 279.066 233.932 C 280.850 238.080, 281.100 239.610, 280.223 241.015 C 277.843 244.825, 298.714 253.507, 312.500 254.442 C 317.450 254.778, 323.525 255.289, 326 255.579 C 333.362 256.441, 334.269 255.130, 332.973 245.496 C 332.150 239.375, 331.421 237.165, 329.866 236.073 C 328.748 235.288, 326.119 232.138, 324.022 229.073 C 315.873 217.160, 307.696 212.661, 293.500 212.281 C 288.508 212.147, 283.549 212.521, 282.364 213.122 M 547.043 217.369 C 546.284 219.670, 546.236 222.094, 546.892 225.015 C 547.924 229.610, 548.985 230.724, 553.199 231.642 C 554.683 231.965, 556.659 233.071, 557.590 234.100 C 559.199 235.877, 559.077 236.193, 555.116 240.490 C 550.688 245.293, 545 253.697, 545 255.435 C 545 256.009, 547.080 253.333, 549.622 249.489 C 552.164 245.645, 556.392 240.250, 559.017 237.500 C 561.642 234.750, 564.020 231.600, 564.302 230.500 C 566.372 222.421, 566.410 222.485, 562.195 226.916 C 556.623 232.773, 551.230 232.188, 548.402 225.420 C 547.153 222.430, 547.163 221.545, 548.487 218.378 C 550.264 214.124, 550.281 214, 549.078 214 C 548.570 214, 547.655 215.516, 547.043 217.369 M 445 220.763 C 445 221.823, 444.100 223.505, 443 224.500 C 440.759 226.529, 440.426 228.527, 442.152 229.594 C 443.608 230.494, 446.225 227.028, 445.505 225.152 C 444.850 223.447, 446.852 220.790, 448.175 221.608 C 448.697 221.931, 449.553 223.324, 450.078 224.706 C 450.868 226.784, 451.289 227.005, 452.517 225.986 C 454.170 224.614, 454.584 221.521, 452.982 222.511 C 452.422 222.857, 450.397 222.172, 448.482 220.989 C 445.122 218.912, 445 218.904, 445 220.763 M 419.450 221.920 C 416.543 224.737, 405.971 229.279, 401.500 229.633 C 398.750 229.850, 395.778 230.118, 394.895 230.228 C 394.013 230.339, 392.593 231.644, 391.741 233.129 C 390.278 235.677, 390.323 235.955, 392.523 238.022 C 393.806 239.227, 394.637 240.782, 394.370 241.477 C 393.501 243.744, 397.168 244.206, 398.697 242.022 C 400.470 239.490, 411.957 239.039, 413.936 241.423 C 414.586 242.206, 416.149 242.659, 417.410 242.430 C 420.694 241.835, 423.687 245.185, 421.496 247.004 C 420.276 248.016, 419.384 248.040, 417.358 247.117 C 414.145 245.653, 411.536 247.264, 412.922 249.855 C 413.407 250.760, 413.735 251.856, 413.651 252.292 C 413.568 252.727, 415.830 254.357, 418.677 255.914 L 423.854 258.746 427.102 255.395 C 430.975 251.399, 432.982 252.238, 433.032 257.872 C 433.066 261.729, 434.887 265, 437 265 C 439.070 265, 440.886 261.703, 440.337 258.944 C 439.337 253.922, 445.070 253.059, 449.998 257.489 C 451.270 258.632, 451.862 258.545, 453.861 256.920 L 456.222 255 453.065 255 C 448.911 255, 445 251.143, 445 247.045 C 445 243.674, 442.259 242.778, 440.058 245.430 C 437.987 247.925, 431.527 245.603, 427.620 240.960 C 425.071 237.932, 425.013 237.643, 426.596 235.894 C 427.519 234.874, 429.749 233.762, 431.552 233.424 C 434.689 232.836, 434.785 232.683, 433.801 229.859 C 432.988 227.526, 433.102 226.545, 434.346 225.170 C 435.786 223.580, 435.754 223.327, 433.974 222.216 C 431.700 220.796, 420.839 220.575, 419.450 221.920 M 31.716 224.030 C 30.354 226.109, 30.271 227.230, 31.207 230.916 C 32.245 235.005, 32.158 235.453, 29.997 237.203 C 28.718 238.240, 27.028 238.841, 26.242 238.539 C 25.457 238.238, 23.680 237.707, 22.294 237.359 C 19.817 236.737, 19.802 236.768, 21.401 239.209 C 22.413 240.753, 22.961 243.470, 22.850 246.396 C 22.737 249.379, 23.203 251.631, 24.122 252.551 C 25.390 253.818, 26.294 252.742, 31.286 244.030 C 37.438 233.294, 37.784 231.613, 35.097 225.524 L 33.343 221.547 31.716 224.030 M 528.111 223.793 C 526.775 226.289, 527.364 228, 529.559 228 C 531.127 228, 531.291 226.605, 530.087 223.522 C 529.338 221.605, 529.277 221.613, 528.111 223.793 M 213.970 226.944 C 214.543 228.014, 215.501 229.192, 216.101 229.563 C 216.784 229.984, 216.953 231.830, 216.553 234.495 C 216.035 237.947, 216.234 238.876, 217.600 239.400 C 218.528 239.756, 219.368 239.924, 219.467 239.774 C 219.972 239.010, 224 229.050, 224 228.565 C 224 228.254, 222.736 228, 221.191 228 C 219.646 228, 217.509 227.339, 216.441 226.532 C 213.734 224.484, 212.742 224.650, 213.970 226.944 M 445.999 231.501 C 444.708 232.876, 442.992 234, 442.186 234 C 441.380 234, 440.144 234.787, 439.439 235.750 C 438.615 236.876, 436.825 237.500, 434.422 237.500 C 429.834 237.500, 428.811 239.591, 432.669 241.083 C 437.287 242.869, 438.805 242.940, 440.058 241.430 C 442.850 238.066, 448.550 241.862, 449.170 247.500 C 449.476 250.278, 449.796 250.500, 453.500 250.500 L 457.500 250.500 457.795 243.774 C 458.093 236.980, 456.629 229, 455.084 229 C 454.622 229, 453.675 229.686, 452.979 230.525 C 451.845 231.892, 451.538 231.892, 450.030 230.527 C 448.506 229.148, 448.122 229.241, 445.999 231.501 M 516.461 231.044 C 514.170 233.575, 513.982 238.373, 516.158 238.792 C 517.323 239.016, 517.878 237.905, 518.361 234.383 C 519.132 228.760, 518.898 228.350, 516.461 231.044 M 272.174 231.290 C 271.312 232.329, 271.729 233.429, 273.986 236.070 C 277.432 240.101, 277.664 239.702, 275.147 234.080 C 273.674 230.789, 273.064 230.217, 272.174 231.290 M 85.804 232.359 C 84.061 233.133, 83.377 233.992, 83.869 234.789 C 84.422 235.682, 85.280 235.331, 86.990 233.511 C 89.623 230.708, 89.592 230.678, 85.804 232.359 M 241.849 246.268 C 238.191 249.696, 233.928 253.459, 232.375 254.631 L 229.551 256.761 230.775 262.691 C 231.449 265.952, 232 270.281, 232 272.310 C 232 276.573, 233.143 276.912, 237.500 273.941 C 239.150 272.816, 243.200 270.519, 246.500 268.836 C 249.800 267.153, 253.175 265.185, 254 264.463 C 254.825 263.741, 258.142 261.762, 261.371 260.065 L 267.241 256.980 258.519 248.490 C 253.721 243.820, 249.505 240.008, 249.148 240.018 C 248.792 240.028, 245.507 242.840, 241.849 246.268 M 401.459 245.067 C 400.670 246.343, 400.631 246.303, 404.843 248.447 C 406.682 249.382, 408.444 249.889, 408.760 249.574 C 409.075 249.258, 408.982 249, 408.552 249 C 408.122 249, 408.507 247.875, 409.408 246.500 L 411.046 244 406.582 244 C 404.127 244, 401.821 244.480, 401.459 245.067 M 13.588 251.857 C 12.719 253.263, 14.056 256.148, 15.373 255.709 C 16.853 255.216, 16.829 251.776, 15.342 251.281 C 14.705 251.068, 13.916 251.328, 13.588 251.857 M 154.035 252.934 C 153.466 253.998, 153 255.403, 153 256.057 C 153 257.874, 155.669 255.374, 156.298 252.967 C 156.960 250.437, 155.384 250.414, 154.035 252.934 M 146.607 257.398 C 145.826 259.267, 144.506 261.179, 143.673 261.648 C 142.841 262.117, 141.824 263.850, 141.414 265.500 C 140.792 268.003, 140.903 268.316, 142.084 267.388 C 142.863 266.776, 144.673 265.996, 146.107 265.655 C 148.527 265.078, 148.714 264.636, 148.714 259.517 C 148.714 253.064, 148.505 252.854, 146.607 257.398 M 152.370 260.250 C 152.701 261.488, 152.979 263.048, 152.986 263.719 C 152.994 264.389, 153.664 264.682, 154.475 264.371 C 155.773 263.873, 155.769 263.455, 154.450 260.903 C 152.664 257.449, 151.523 257.092, 152.370 260.250 M 444.500 261.500 C 444.500 264.337, 446.125 264.759, 448.063 262.424 C 449.147 261.117, 449.126 260.692, 447.936 259.939 C 445.527 258.415, 444.500 258.881, 444.500 261.500 M 560.323 264.431 C 558.770 266.318, 556.630 269.356, 555.566 271.181 L 553.633 274.500 557.876 271 C 563.114 266.679, 566.973 261, 564.671 261 C 563.832 261, 561.875 262.544, 560.323 264.431 M 200.797 266.746 C 198.778 267.200, 197.624 270.240, 198.465 272.889 C 199.076 274.815, 205.407 277, 210.375 277 C 213.316 277, 214.477 274.353, 213.595 269.663 C 213.018 266.601, 212.832 266.498, 207.750 266.431 C 204.862 266.394, 201.734 266.535, 200.797 266.746 M 449.602 269.501 C 448.056 270.671, 447.933 271.214, 448.941 272.429 C 450.534 274.348, 445.779 277.460, 439.793 278.417 C 433.545 279.416, 436.099 280.301, 442.939 279.507 C 447.819 278.941, 449 278.457, 449 277.024 C 449 274.301, 451.433 272.824, 454.654 273.593 L 457.500 274.271 454.563 271.136 C 452.948 269.411, 451.598 268.014, 451.563 268.032 C 451.528 268.049, 450.646 268.710, 449.602 269.501 M 51.484 274.458 C 48.546 279.050, 47.838 281.310, 47.016 288.708 C 46.479 293.544, 45.772 299.003, 45.445 300.841 C 44.902 303.899, 45.031 304.125, 46.973 303.509 C 49.870 302.589, 56 307.263, 56 310.392 C 56 311.652, 56.681 314.891, 57.514 317.591 L 59.028 322.500 55.514 325.606 C 51.499 329.154, 51.366 329.642, 53.700 332.221 C 55.104 333.772, 55.206 334.615, 54.287 337.050 C 52.778 341.048, 53.858 340.761, 58.547 335.918 C 60.721 333.672, 63.771 331.168, 65.325 330.353 C 66.879 329.538, 70.929 326.607, 74.325 323.840 C 77.721 321.073, 81.513 318.330, 82.750 317.744 C 85.720 316.338, 85.646 315.706, 81.547 307.500 C 79.624 303.650, 77.818 299.312, 77.534 297.860 C 77.250 296.408, 74.876 293.031, 72.259 290.355 C 69.641 287.680, 64.902 281.780, 61.727 277.245 C 58.553 272.710, 55.735 269, 55.465 269 C 55.196 269, 53.404 271.456, 51.484 274.458 M 470.625 274.869 C 468.352 277.242, 468.147 277.842, 469.438 278.338 C 470.463 278.731, 471 278.373, 471 277.297 C 471 276.395, 471.745 274.835, 472.655 273.829 C 475.341 270.860, 473.621 271.742, 470.625 274.869 M 498.190 274.618 C 499.080 275.508, 500.309 275.927, 500.920 275.549 C 502.548 274.543, 501.220 273, 498.727 273 C 496.741 273, 496.699 273.127, 498.190 274.618 M 479 275.500 C 476.666 278.313, 479.524 280, 486.622 280 C 494.462 280, 494.722 278.788, 487.462 276.072 C 480.851 273.598, 480.593 273.581, 479 275.500 M 496.348 277.731 C 497.364 278.910, 497.900 280.352, 497.539 280.937 C 497.156 281.556, 497.742 282, 498.941 282 C 501.781 282, 501.442 280.925, 497.695 278.044 C 494.967 275.946, 494.770 275.901, 496.348 277.731 M 149.710 279 C 149.281 280.641, 149.680 281, 151.927 281 C 155.321 281, 156.323 280.094, 154.869 278.342 C 153.213 276.347, 150.307 276.718, 149.710 279 M 122.572 278.883 C 122.146 279.573, 121.092 279.865, 120.229 279.534 C 118.357 278.816, 117.036 280.602, 117.015 283.878 C 117.001 286.113, 117.252 286.215, 121.212 285.582 C 126.565 284.726, 126.653 284.612, 124.850 280.805 C 123.815 278.619, 123.105 278.021, 122.572 278.883 M 432.101 285.607 C 434.860 288.545, 435.376 288.553, 441 285.746 L 445.500 283.500 437.677 283.357 L 429.853 283.215 432.101 285.607 M 105.631 284.702 C 104.742 285.591, 104.874 290.253, 105.831 291.761 C 106.427 292.700, 107.214 292.401, 108.920 290.585 C 110.179 289.245, 110.912 287.667, 110.549 287.079 C 109.587 285.523, 106.367 283.966, 105.631 284.702 M 424.461 285.063 C 423.467 286.672, 426.563 289.530, 430.664 290.789 L 434.319 291.911 430.456 287.955 C 426.368 283.768, 425.515 283.357, 424.461 285.063 M 539 304.279 C 539 306.565, 543.548 310.386, 543.698 308.226 C 543.764 307.277, 542.734 305.691, 541.409 304.703 C 539.573 303.334, 539 303.233, 539 304.279 M 45.500 307.932 C 44.400 308.367, 43.050 308.573, 42.500 308.390 C 41.950 308.206, 40.278 310.631, 38.785 313.778 C 37.292 316.925, 33.933 323.463, 31.321 328.307 L 26.571 337.113 28.285 341.941 C 30.633 348.551, 30.439 352.016, 27.500 356 C 25.500 358.711, 25 360.566, 25 365.278 C 25 373.843, 26.628 372.616, 36 356.986 C 37.375 354.692, 40.750 351.185, 43.500 349.191 C 49.410 344.906, 50.120 344.032, 49.446 341.865 C 49.167 340.966, 49.473 339.055, 50.128 337.619 C 51.115 335.451, 51.036 334.697, 49.659 333.175 C 46.650 329.850, 48.752 324.768, 53.943 322.817 C 54.800 322.494, 52.114 310.530, 50.672 308.250 C 49.787 306.850, 48.444 306.767, 45.500 307.932 M 21.523 388.500 C 20.685 389.875, 19.291 392.161, 18.424 393.581 C 16.988 395.932, 16.989 396.516, 18.432 400.123 C 20.005 404.053, 19.737 408.213, 17.749 410.738 C 16.628 412.163, 18.835 413.379, 21.553 412.835 C 23.773 412.390, 24.234 404.744, 22.325 400.032 C 21.072 396.939, 21.111 396.209, 22.687 393.282 C 25.239 388.543, 27 389.054, 27 394.532 C 27 397.025, 27.729 400.737, 28.619 402.782 C 29.510 404.827, 30.541 407.850, 30.910 409.500 C 31.648 412.794, 34.265 413.576, 34.825 410.670 C 35.019 409.664, 34.238 406.655, 33.089 403.985 C 31.940 401.314, 31 397.154, 31 394.739 C 31 387.393, 24.717 383.257, 21.523 388.500 M 171.718 402.144 C 166.717 404.659, 165.007 408.245, 167.496 410.996 C 169.417 413.118, 172.481 413.649, 173.480 412.033 C 173.809 411.501, 173.160 410.492, 172.039 409.792 C 169.301 408.082, 169.460 407.416, 173.029 405.635 C 175.455 404.425, 176.699 404.350, 179.279 405.257 C 182.391 406.352, 182.418 406.410, 180.095 406.968 C 177.034 407.703, 175.112 410.512, 176.631 412.031 C 177.413 412.813, 178.645 412.599, 181.024 411.270 C 188.397 407.151, 187.076 403.208, 177.500 400.755 C 176.400 400.473, 173.798 401.098, 171.718 402.144" stroke="none" fill="#1A1A1A" fill-rule="evenodd"/>
</svg>