<svg xmlns="http://www.w3.org/2000/svg" width="600" height="413" viewBox="0 0 600 413" version="1.1">
	<rect x="0" y="0" width="100%" height="100%" fill="#FFFFFF" />
	<path d="M 235.527 4.973 C 230.122 10.460, 228.211 10.957, 222.218 8.435 C 209.701 3.167, 194.196 1.769, 183.824 4.973 C 171.927 8.647, 163.864 9.270, 158.558 6.923 C 148.567 2.503, 131.315 3.471, 112.198 9.525 C 83.041 18.758, 66.095 41.740, 65.797 72.453 C 65.685 83.968, 64.881 86.991, 60.993 90.502 C 56.941 94.163, 46.322 108.427, 43.501 114 C 41.969 117.025, 39.649 120.901, 38.344 122.614 C 24.303 141.038, 21.855 192.658, 33.548 223.724 C 36.936 232.725, 36.967 232.590, 27.987 248.205 C 20.045 262.016, 16 271.563, 16 276.497 C 16 277.906, 14.629 283.207, 12.954 288.279 C 9.725 298.052, 9.643 298.537, 7.930 318 C 7.325 324.875, 5.802 334.550, 4.546 339.500 C 0.028 357.304, -0.566 365.429, 2.839 362.829 C 3.821 362.079, 3.648 362.570, 2.416 364.030 C 1.083 365.610, 0.292 368.029, 0.219 370.743 C 0.090 375.616, 0.323 375.807, 10.504 379.149 L 17.282 381.374 19.641 378.631 C 20.938 377.123, 21.993 376.476, 21.985 377.194 C 21.932 381.702, 17.502 382.651, 8.820 380.014 C 4.187 378.607, 1.398 378.202, 0.756 378.844 C -0.688 380.288, 0.619 381.757, 4.011 382.503 C 5.655 382.864, 7 383.478, 7 383.868 C 7 385.664, 2.827 392.500, 1.730 392.500 C -0.069 392.500, 0.228 395.110, 2.166 396.333 C 4.465 397.783, 6.382 396.007, 7.866 391.054 C 9.318 386.207, 10.294 385.526, 15.857 385.480 C 20.674 385.440, 26 380.963, 26 376.954 C 26 375.846, 27.544 373.584, 29.430 371.927 C 31.317 370.271, 34.559 366.012, 36.635 362.463 C 40.216 356.340, 56.264 341.984, 61.910 339.851 C 62.856 339.494, 67.175 335.296, 71.509 330.522 C 75.843 325.748, 81.067 320.986, 83.119 319.939 L 86.848 318.037 90.916 325.093 C 93.154 328.973, 97.593 335.378, 100.782 339.324 C 103.970 343.271, 109.482 350.100, 113.030 354.500 L 119.482 362.500 120.664 372.500 C 122.723 389.902, 122.653 390.408, 117.500 395.345 C 109.432 403.076, 112.439 409.618, 125.172 412.033 C 137.975 414.461, 142.018 409.042, 146.475 383.482 C 150.024 363.133, 147.197 350.884, 137.577 344.923 C 135.296 343.509, 133.847 340.962, 130.970 333.306 C 126.537 321.505, 122.394 313.207, 117.608 306.536 L 114.047 301.573 116.874 299.783 C 121.150 297.075, 136.534 292, 140.464 292 C 142.947 292, 144.889 291.122, 147.299 288.911 C 153.185 283.508, 172.097 278.011, 184.500 278.098 C 198.109 278.193, 211.734 280.587, 212.506 283.019 C 213.286 285.477, 220.271 291.685, 224.553 293.727 C 231.985 297.271, 238.603 291.113, 235.785 283.275 C 233.826 277.827, 233.934 277.681, 243 273.453 C 251.620 269.434, 254.997 267.624, 262.377 263.068 L 269.255 258.823 278.877 265.386 C 290.500 273.313, 298.565 277.040, 310.500 280 C 322.251 282.916, 323.894 283.834, 334.205 293.249 C 344.405 302.564, 344.641 303.122, 345.498 320 C 346.351 336.819, 349.455 355.796, 352.663 363.814 C 360.795 384.142, 375.600 404.818, 383.164 406.411 C 392.682 408.415, 402.166 410, 404.640 410 C 406.257 410, 410.225 410.689, 413.459 411.531 C 417.407 412.560, 419.668 412.732, 420.345 412.055 C 421.022 411.378, 421.773 411.396, 422.632 412.110 C 423.336 412.694, 424.404 412.868, 425.005 412.497 C 426.408 411.630, 424.581 409.337, 420.500 406.842 C 418.850 405.833, 418.085 405.006, 418.800 405.004 C 420.574 404.999, 425.802 407.713, 429.835 410.733 C 435.012 414.611, 436.072 412.074, 431.066 407.788 C 425.650 403.152, 425.941 402.599, 432.250 405.536 C 435.137 406.881, 438.582 407.985, 439.905 407.990 C 442.238 408, 442.256 408.059, 440.519 409.979 C 437.685 413.111, 441.318 413.989, 444.549 410.954 C 446.795 408.844, 446.867 408.511, 445.424 406.915 C 443.949 405.286, 444.059 405.230, 447.175 406.021 C 454.124 407.785, 455.179 408.341, 456.083 410.718 C 457.161 413.555, 459.360 413.289, 459.807 410.268 C 459.995 408.997, 459.231 407.574, 457.834 406.597 C 456.581 405.718, 456.019 405, 456.586 405 C 458.553 405, 460.860 407.512, 461.179 410 C 461.684 413.935, 464.500 413.179, 464.500 409.108 C 464.500 404.390, 461.443 402.407, 449.426 399.333 C 442.140 397.469, 438.322 395.887, 435.070 393.385 C 431.327 390.504, 429.904 390.002, 425.881 390.144 C 421.870 390.286, 420.574 389.833, 417.651 387.266 C 415.742 385.591, 412.778 383.391, 411.064 382.379 C 408.563 380.901, 407.557 379.227, 405.973 373.911 C 403.215 364.649, 403.226 364.608, 408.250 365.492 C 410.587 365.903, 416.699 366.396, 421.832 366.589 C 432.707 366.997, 441.121 370.378, 451.561 378.532 C 459.569 384.788, 479.427 393.758, 491.500 396.575 C 493.150 396.959, 496.975 398.762, 500 400.579 C 503.025 402.397, 507.300 404.196, 509.500 404.577 C 511.700 404.958, 515.340 406.334, 517.588 407.635 C 522.719 410.604, 525.073 410.616, 527.826 407.686 C 533.147 402.021, 526.714 391.558, 515.750 388.046 C 513.688 387.385, 512 386.478, 512 386.031 C 512 384.061, 502.626 375.032, 499.515 374.005 C 497.634 373.384, 495.815 371.993, 495.473 370.914 C 492.726 362.261, 473.368 349.206, 458.825 346.198 L 450.500 344.477 447.556 338.988 C 444.409 333.124, 428.457 315.974, 421.958 311.471 C 419.589 309.829, 416.659 306.294, 414.569 302.556 C 409.434 293.375, 403.024 285.056, 394.567 276.599 C 387.118 269.150, 387.234 268.484, 395.256 272.632 C 397.039 273.554, 402.774 275.744, 407.999 277.498 L 417.500 280.686 417.519 284.593 C 417.576 295.889, 430.555 302.302, 440.655 296.024 C 448.768 290.981, 452.407 290.964, 460.772 295.934 C 471.736 302.447, 480.093 303.205, 502.705 299.738 C 513.826 298.033, 513.146 297.651, 516.522 307.500 C 522.617 325.283, 526.856 331.912, 538.846 342.410 C 544.834 347.653, 550.258 353.208, 550.899 354.755 C 552.471 358.551, 550.079 369.919, 546.013 377.974 C 542.374 385.183, 542.360 385.451, 545.455 388.545 C 551.663 394.754, 568.190 387.327, 570.632 377.232 C 570.995 375.729, 572.857 371.488, 574.769 367.807 C 578.882 359.889, 578.706 358.273, 572.979 351.373 C 570.482 348.366, 568.351 344.394, 567.413 341 C 564.939 332.054, 561.108 323.534, 556.409 316.526 C 552.109 310.116, 551.371 307.802, 552.602 304.595 C 553.088 303.328, 554.285 303.861, 558.852 307.382 C 561.958 309.777, 566.750 312.943, 569.500 314.417 C 573.181 316.391, 576.068 319.214, 580.442 325.117 C 587.733 334.955, 597.561 343.839, 599.267 342.133 C 600.145 341.255, 599.466 340.196, 596.463 337.757 C 590.861 333.208, 588.333 330.463, 581.431 321.437 C 576.483 314.966, 574.081 312.795, 568.431 309.685 C 564.619 307.586, 560.036 304.627, 558.248 303.110 L 554.995 300.350 556.690 290.023 L 558.386 279.695 564.483 273.598 C 570.835 267.246, 575 259.985, 575 255.264 C 575 253.747, 577.261 248.004, 580.024 242.503 C 583.224 236.131, 585.379 230.322, 585.961 226.500 C 588.568 209.375, 589 205.631, 589 200.152 C 589 194.808, 589.361 193.757, 592.481 190.023 C 602.593 177.919, 600.719 161.062, 587.732 147.316 C 581.258 140.463, 579.047 132.602, 579.736 118.878 C 580.478 104.090, 576.110 93.686, 561.523 75.500 C 557.552 70.550, 552.732 64.025, 550.811 61 C 546.629 54.417, 528.341 35.566, 521.949 31.250 C 513.252 25.378, 493.901 19.044, 484.500 18.992 C 479.750 18.965, 478.871 18.434, 477.166 14.564 C 475.396 10.544, 470.468 4.469, 466.938 1.956 C 463.620 -0.407, 461.137 0.175, 463.171 2.839 C 463.869 3.753, 463.249 3.440, 461.794 2.145 C 459.337 -0.041, 457 -0.099, 457 2.027 C 457 2.528, 459.435 4.736, 462.411 6.934 C 467.170 10.450, 473 19.058, 473 22.569 C 473 23.579, 467.103 22.416, 462.663 20.530 L 458.826 18.900 459.482 14.129 C 460.626 5.814, 451.134 -0.965, 446 4.500 C 444.212 6.404, 442.641 7, 439.415 7 C 434.317 7, 430 11.192, 430 16.142 C 430 22.389, 425.154 25.641, 420.445 22.556 L 418.101 21.020 420.055 15.340 C 421.130 12.216, 423.151 7.711, 424.547 5.330 C 425.942 2.948, 426.953 0.951, 426.792 0.890 C 421.070 -1.257, 416.620 2.479, 413.942 11.680 L 412.725 15.860 405.198 17.535 C 385.494 21.919, 378.198 28.429, 361.384 56.629 C 359.097 60.464, 352.561 56.688, 344.719 47 C 321.393 18.184, 309.907 10.840, 290.610 12.406 C 281.043 13.182, 275.726 11.643, 267.300 5.660 C 260.425 0.777, 255.739 -0.734, 252.631 0.930 C 251.289 1.648, 249.736 1.955, 249.179 1.611 C 248.623 1.267, 247.009 1.426, 245.593 1.965 C 243.728 2.674, 243.085 2.623, 243.259 1.781 C 243.872 -1.178, 240.019 0.412, 235.527 4.973 M 235.966 8.750 L 230.500 14.500 236.250 9.034 C 241.592 3.956, 242.458 3, 241.716 3 C 241.560 3, 238.972 5.588, 235.966 8.750 M 446 8.500 C 444.215 10.400, 442.640 11, 439.433 11 C 434.866 11, 434 11.964, 434 17.047 C 434 24.160, 425.229 29.541, 419.454 25.972 C 417.216 24.589, 414.932 24.008, 412.776 24.275 L 409.500 24.680 412.634 24.840 C 414.906 24.956, 416.761 26.100, 419.384 29.003 C 423.484 33.541, 423.709 34.544, 421.250 37.313 C 419.533 39.245, 419.576 39.269, 423.500 38.558 C 425.700 38.160, 428.970 37.142, 430.766 36.295 C 437.521 33.113, 445 37.288, 445 44.240 C 445 48.627, 446.158 51.333, 449.632 55.065 C 450.945 56.476, 452.646 59.626, 453.411 62.065 C 454.519 65.597, 454.822 65.965, 454.901 63.872 C 455.065 59.519, 457.085 58.660, 462.783 60.524 C 469.771 62.809, 474.750 61.340, 480.560 55.276 C 485.597 50.020, 488.150 50.658, 489.433 57.494 C 489.780 59.344, 490.972 61.902, 492.081 63.179 L 494.099 65.500 492.581 62.360 C 489.931 56.880, 488.935 47.869, 490.679 45.144 C 492.195 42.772, 493.754 42.658, 499.500 44.501 C 500.600 44.854, 499.257 43.998, 496.516 42.599 C 488.662 38.591, 486.285 38.368, 483.890 41.412 C 482.718 42.902, 480.844 44, 479.473 44 C 477.535 44, 476.966 44.663, 476.423 47.557 C 475.432 52.842, 472.378 54.461, 465.988 53.091 C 463.190 52.491, 458.758 52, 456.138 52 C 452.181 52, 450.901 51.506, 448.580 49.084 L 445.786 46.167 450.079 43.058 C 453.020 40.927, 455.339 37.988, 457.442 33.724 C 459.844 28.855, 460.946 27.563, 462.506 27.792 C 471.561 29.116, 472.741 29.101, 476.006 27.616 L 479.500 26.028 474.454 26.580 C 463.384 27.790, 454.510 22.080, 455.474 14.366 C 456.443 6.609, 450.964 3.216, 446 8.500 M 242.500 8.571 C 240.850 9.410, 238.023 12.099, 236.218 14.548 C 232.603 19.453, 228.957 20.334, 224 17.500 C 220.548 15.527, 219.770 15.659, 221.215 17.972 C 222.288 19.690, 221.999 20.413, 218.973 23.587 C 216.010 26.695, 215.830 27.130, 217.746 26.549 C 218.981 26.174, 221.541 26.428, 223.435 27.112 C 226.595 28.255, 227.194 28.138, 230.742 25.679 C 235.343 22.490, 239.780 22.252, 243.281 25.006 L 245.831 27.012 244.715 24.056 C 243.793 21.614, 243.895 20.773, 245.300 19.221 C 247.397 16.904, 247.492 13.654, 245.511 12.009 C 243.756 10.552, 244.379 9.193, 247.352 7.993 C 249.386 7.173, 249.394 7.125, 247.500 7.086 C 246.400 7.064, 244.150 7.732, 242.500 8.571 M 259.676 12.127 C 264.144 16.999, 263.779 19.268, 257.377 26.426 L 251.557 32.933 249.364 30.872 L 247.171 28.812 248.542 32.656 C 250.454 38.019, 250.319 42.726, 248.150 46.382 C 245.411 50.997, 241.644 65.444, 242.396 68.443 C 242.963 70.701, 243.553 71, 247.437 71 C 249.857 71, 252.661 71.301, 253.668 71.670 C 255.440 72.317, 255.440 72.271, 253.662 70.244 C 249.481 65.477, 253.450 61.968, 260.872 63.870 C 270.406 66.314, 280.263 58.700, 276.092 52.114 C 275.398 51.018, 274.617 51.367, 272.357 53.780 C 268.430 57.974, 261.539 58.998, 257.679 55.962 C 249.850 49.804, 260.458 41.240, 270.643 45.495 C 274.068 46.927, 274.350 46.884, 277.188 44.495 C 280.832 41.429, 281.732 41.400, 284.767 44.250 L 287.163 46.500 286.470 43.737 C 286.051 42.068, 286.250 40.403, 286.973 39.533 C 287.997 38.299, 287.689 38.229, 284.841 39.046 C 283.011 39.570, 279.067 40, 276.078 40 C 273.088 40, 269.157 40.537, 267.341 41.194 C 263.031 42.752, 259 39.486, 259 34.436 C 259 29.186, 267.057 19, 271.210 19 L 274.424 19 270.271 16.750 C 267.987 15.512, 264.180 13.432, 261.809 12.127 L 257.500 9.754 259.676 12.127 M 249.878 12.278 C 251.489 13.889, 251.260 17.055, 249.381 19.131 C 247.752 20.931, 247.970 23.939, 249.950 26.993 C 251.691 29.678, 259.292 21.313, 258.547 17.531 C 257.795 13.713, 257.043 13.025, 252.500 12 C 249.732 11.376, 249.048 11.448, 249.878 12.278 M 155.601 16.089 C 159.197 20.215, 159.192 20.781, 155.523 24.843 L 151.977 28.768 146.739 26.587 C 143.857 25.388, 139.605 23.415, 137.290 22.203 C 131.654 19.254, 131.274 19.424, 135.404 23.049 C 137.415 24.816, 139.008 27.235, 139.188 28.799 C 139.476 31.289, 139.813 31.478, 143.500 31.213 C 145.700 31.055, 150.875 30.733, 155 30.498 C 165.283 29.912, 166.351 29.540, 169.470 25.451 C 171.980 22.160, 172.071 21.736, 170.612 20.124 C 169.381 18.764, 169.295 18.105, 170.225 17.175 C 170.971 16.429, 169.613 16.594, 166.624 17.612 C 162.046 19.172, 161.704 19.159, 159.163 17.310 C 154.600 13.989, 153.419 13.584, 155.601 16.089 M 184.500 16.725 L 179.500 18.310 183.493 19.190 C 185.689 19.674, 190.349 20.954, 193.848 22.035 C 205.239 25.553, 220.446 23.767, 217.648 19.240 C 215.414 15.625, 193.266 13.945, 184.500 16.725 M 138.500 18.751 C 140.150 19.670, 143.870 21.405, 146.767 22.606 L 152.033 24.790 153.469 22.741 C 156.434 18.508, 153.977 16.995, 144.215 17.040 C 135.534 17.080, 135.512 17.087, 138.500 18.751 M 119 19.426 C 117.075 20.162, 112.893 21.700, 109.707 22.843 C 86.743 31.084, 76.817 47.517, 76.606 77.645 C 76.490 94.213, 75.580 97, 70.289 97 C 63.709 97, 44.776 127.147, 39.829 145.500 C 34.118 166.688, 35.233 198.344, 42.430 219.348 C 48.074 235.820, 48.221 238.789, 43.581 242.653 C 40.182 245.484, 30.387 261.507, 28.213 267.792 C 27.587 269.603, 26.158 276.130, 25.037 282.297 C 23.916 288.463, 22.099 296.656, 21 300.501 C 19.900 304.347, 18.982 310.420, 18.961 313.997 C 18.939 317.574, 18.035 324.550, 16.950 329.500 C 15.866 334.450, 14.268 342.775, 13.400 348 C 11.931 356.835, 10.395 362.904, 8.508 367.323 C 7.830 368.912, 8.167 369.105, 11.115 368.823 C 14.440 368.506, 14.513 368.396, 15.222 362.686 C 15.619 359.488, 16.932 355.114, 18.139 352.966 C 20.185 349.326, 20.246 348.693, 19.032 343.635 C 17.384 336.764, 17.921 334.745, 24.654 322.500 C 33.583 306.259, 35.154 301.800, 35.973 290.368 C 36.699 280.246, 36.705 280.227, 42.326 271.360 C 49.119 260.644, 49.813 257.878, 47.049 252.537 C 44.075 246.789, 46.712 243.762, 50.566 248.500 C 51.908 250.150, 54.978 253.525, 57.387 256 C 59.796 258.475, 65.051 265.444, 69.064 271.486 C 73.078 277.528, 78.297 284.541, 80.662 287.070 C 83.028 289.599, 86.092 294.221, 87.472 297.341 C 88.852 300.461, 91.131 304.752, 92.537 306.877 C 93.943 309.001, 96.010 313.160, 97.130 316.119 C 100.019 323.746, 108.949 336.632, 119.735 348.738 C 124.828 354.454, 129.183 360.113, 129.413 361.315 C 132.587 377.903, 131.946 396.061, 128.102 398.437 C 126.048 399.706, 126.986 401.135, 129.664 400.816 C 136.923 399.954, 141.251 361.232, 134.672 356.002 C 127.079 349.964, 126.042 348.634, 123.922 342.205 C 116.892 320.886, 112.628 312.895, 102.515 302.081 C 94.778 293.807, 94.753 293.750, 93.442 281.500 C 92.453 272.247, 88.634 258.387, 84.199 247.959 C 78.363 234.232, 78.059 231.755, 81.870 228.938 C 90.044 222.895, 84.286 205.586, 69.534 191.856 C 61.976 184.822, 61.180 180, 67.577 180 C 69.501 180, 70.012 179.344, 70.495 176.250 C 71.688 168.613, 73.112 165.060, 75.774 163.075 C 80.687 159.414, 81.616 158.111, 87.063 147.246 C 93.925 133.560, 96.609 130.336, 99.194 132.675 C 100.602 133.950, 100.877 135.140, 100.377 137.805 L 99.726 141.275 102.929 139.388 C 104.691 138.349, 108.176 135.813, 110.675 133.750 C 117.079 128.463, 118.696 129.028, 126.850 139.404 C 132.595 146.714, 158.197 172.735, 162.500 175.636 C 166.853 178.571, 176.010 182.028, 184.820 184.062 L 192.500 185.836 188.500 182.398 C 181.595 176.462, 176.173 173.264, 168.209 170.427 C 158.535 166.982, 154.889 163.632, 149.788 153.500 C 139.671 133.406, 132.855 123.543, 119.999 110.393 C 115.050 105.330, 111 100.337, 111 99.297 C 111 98.257, 109.276 95.722, 107.168 93.664 L 103.336 89.922 102.049 95.711 C 100.652 102.002, 97.984 107.938, 95.706 109.829 C 92.937 112.127, 92.104 108.767, 91.645 93.454 C 91.255 80.435, 88.260 59.458, 85.422 49.864 C 84.576 47.005, 89.554 42.431, 96.111 40.040 C 101.038 38.243, 104.036 36.120, 110.895 29.567 C 115.628 25.046, 120.613 20.594, 121.973 19.674 C 124.917 17.680, 123.807 17.588, 119 19.426 M 265.891 27.310 C 261.842 32.899, 261.764 38.547, 265.750 37.534 C 267.262 37.150, 272.325 36.450, 277 35.978 C 281.675 35.507, 289.100 34.135, 293.500 32.928 C 307.745 29.022, 307.317 28.966, 313.954 35.634 C 317.166 38.860, 321.943 42.850, 324.571 44.500 C 327.198 46.150, 330.732 48.386, 332.424 49.469 C 336.134 51.844, 336.184 51.919, 325.789 39.419 C 320.038 32.503, 317.956 30.788, 311.338 27.517 L 303.606 23.696 286.193 23.508 L 268.781 23.320 265.891 27.310 M 85.462 29.250 L 80.500 34.500 85.750 29.538 C 90.628 24.926, 91.459 24, 90.712 24 C 90.554 24, 88.192 26.362, 85.462 29.250 M 130.665 25 C 131.855 25.480, 133.304 26.689, 133.884 27.686 C 134.844 29.336, 134.942 29.345, 134.970 27.785 C 135.001 26.018, 132.139 23.951, 129.816 24.063 C 129.092 24.098, 129.474 24.520, 130.665 25 M 113.469 31.250 L 107.500 37.500 113.750 31.531 C 117.188 28.249, 120 25.436, 120 25.281 C 120 24.542, 119.013 25.444, 113.469 31.250 M 404 25.644 C 394.467 28.731, 393.781 29.158, 395.932 30.665 C 398.458 32.434, 398.532 33.743, 396.250 36.317 C 394.547 38.237, 394.564 38.258, 396.843 37.060 C 399.040 35.907, 401.266 36.060, 405.657 37.665 C 407.419 38.309, 407.423 38.251, 405.750 36.341 C 403.242 33.477, 403.484 28.475, 406.223 26.557 C 408.408 25.026, 407.305 24.573, 404 25.644 M 231 29.500 C 229.136 30.875, 227.024 32, 226.306 32 C 225.588 32, 225 32.635, 225 33.410 C 225 34.186, 223.253 37.030, 221.118 39.731 C 208.643 55.513, 210.772 67.424, 226.552 70.130 C 235.405 71.648, 238.900 70.926, 238.284 67.707 C 237.750 64.914, 242.238 48.926, 244.438 45.785 C 247.031 42.083, 245.832 31.975, 242.391 28.534 C 240.073 26.216, 234.852 26.658, 231 29.500 M 496.197 30.448 C 498.230 31.851, 501.201 33, 502.799 33 C 509.230 33, 516.078 40.791, 512.955 44.554 C 511.868 45.864, 510.475 46.112, 506.533 45.694 L 501.500 45.160 505.121 46.483 C 507.112 47.211, 512.062 48.311, 516.121 48.928 C 525.662 50.380, 528.173 52.243, 529.670 58.983 C 531.787 68.510, 540.227 78.064, 555.581 88.314 C 564.248 94.099, 565.237 95.849, 565.983 106.717 C 566.443 113.421, 567.316 117.917, 568.756 121 L 570.859 125.500 570.929 115.770 C 571.027 102.349, 567.126 93.509, 553.991 77.384 C 550.802 73.470, 546.967 68.295, 545.468 65.884 C 542.232 60.679, 523.135 41.562, 516.889 37.275 C 512.750 34.434, 502.151 30.130, 495.500 28.590 C 492.504 27.896, 492.505 27.898, 496.197 30.448 M 124.973 30.689 C 123.613 31.618, 119.156 35.477, 115.068 39.264 C 110.980 43.052, 105.468 47.249, 102.818 48.592 C 100.168 49.935, 98 51.364, 97.999 51.767 C 97.997 53.981, 101.396 69.631, 102.035 70.345 C 103.483 71.966, 114.270 68.625, 120.389 64.661 C 137.581 53.526, 154.753 57.229, 158.996 72.987 C 161.577 82.569, 150.863 99.438, 138.045 105.977 C 133.077 108.511, 132.966 107.611, 139.313 116.260 C 145.615 124.849, 149.671 131.606, 157.581 146.698 L 163.450 157.896 169.475 160.042 C 172.789 161.222, 178.200 163.768, 181.500 165.699 C 184.967 167.729, 186.797 168.428, 185.835 167.356 C 171.100 150.931, 171.712 138.586, 188.106 121.509 C 199.966 109.156, 208.688 105.151, 236 99.517 L 243.500 97.970 245.369 93.438 C 246.396 90.945, 248.759 87.084, 250.619 84.858 C 255.302 79.252, 255.495 79.378, 241.070 78.617 C 221.123 77.563, 213.224 74.103, 208.865 64.509 C 205.409 56.901, 206.680 50.453, 213.354 41.741 C 218.242 35.361, 218.404 35.516, 206.749 35.381 C 198.436 35.284, 195.097 34.764, 189.075 32.631 C 179.353 29.186, 177.343 29.279, 173.042 33.367 C 168.554 37.635, 164.422 39, 156 39 C 152.314 39, 147.895 39.489, 146.179 40.087 C 140.363 42.115, 131 36.463, 131 30.923 C 131 28.515, 128.309 28.410, 124.973 30.689 M 408.184 31.750 C 408.479 34.315, 408.853 34.520, 413.750 34.802 C 419.388 35.127, 419.859 34.671, 417.443 31.223 C 414.899 27.590, 407.752 27.997, 408.184 31.750 M 115 34.500 C 112.571 36.975, 110.809 39, 111.084 39 C 111.359 39, 113.571 36.975, 116 34.500 C 118.429 32.025, 120.191 30, 119.916 30 C 119.641 30, 117.429 32.025, 115 34.500 M 135 31.929 C 135 33.214, 137.905 36, 139.246 36 C 139.852 36, 139.292 34.875, 138 33.500 C 135.428 30.762, 135 30.538, 135 31.929 M 460.445 35.810 C 459.375 38.245, 456.813 41.690, 454.750 43.465 C 449.837 47.692, 449.774 47.614, 458.750 48.345 C 463.012 48.692, 467.678 49.248, 469.119 49.579 C 471.376 50.100, 471.835 49.791, 472.443 47.341 C 473.305 43.869, 476.760 40, 479 40 C 479.908 40, 481.740 38.841, 483.071 37.424 C 485.903 34.410, 488.349 34.601, 496.543 38.477 C 502.548 41.318, 510 42.817, 510 41.185 C 510 39.442, 505.773 37, 502.756 37 C 501.217 37, 498.279 35.902, 496.229 34.559 C 491.367 31.377, 482.063 30.287, 475.066 32.080 C 471.335 33.036, 468.903 33.120, 466.161 32.389 L 462.389 31.382 460.445 35.810 M 388.869 35.510 C 387.421 36.296, 385.964 37.650, 385.631 38.519 C 385.112 39.873, 385.463 39.841, 388.089 38.299 C 393.752 34.975, 394.449 32.478, 388.869 35.510 M 375.963 46.750 C 373.509 50.462, 370.120 56.187, 368.431 59.471 C 366.369 63.480, 364.612 65.619, 363.085 65.980 L 360.809 66.517 362.905 68.414 C 365.558 70.815, 365.535 71.789, 362.750 74.821 L 360.500 77.271 362.750 76.101 C 363.988 75.457, 365 74.523, 365 74.026 C 365 73.528, 366.731 71.121, 368.847 68.677 C 371.891 65.160, 372.824 63.138, 373.315 58.990 C 374.033 52.923, 375.902 49.638, 380.081 47.097 C 382.714 45.496, 382.874 45.140, 381.481 43.984 C 380.616 43.267, 380.140 42.077, 380.423 41.340 C 381.385 38.833, 380.429 39.992, 375.963 46.750 M 298.250 43.247 C 294.242 44.533, 294.236 44.348, 298.532 51.483 C 306.472 64.669, 310.404 81.953, 308.958 97.318 C 308.450 102.718, 307.824 107.476, 307.567 107.891 C 307.310 108.307, 306.607 112.615, 306.004 117.465 C 305.402 122.315, 304.213 127.907, 303.363 129.892 C 302.514 131.876, 301.214 138.272, 300.476 144.105 C 299.108 154.916, 295.612 165.559, 292.152 169.446 C 289.204 172.758, 287.697 177.701, 288.289 182.115 C 288.960 187.119, 286.885 194.462, 282.710 201.860 C 280.053 206.567, 279.885 207.244, 281.551 206.523 C 289.741 202.980, 307.925 206.014, 316.185 212.303 C 322.861 217.385, 322.705 217.361, 325.883 213.805 C 328.783 210.559, 328.838 210.544, 330.908 212.416 C 332.058 213.458, 333 215.062, 333 215.981 C 333 217.950, 328.657 222.324, 327.676 221.342 C 326.131 219.798, 327.149 222.963, 328.888 225.110 L 330.776 227.442 330.638 225.086 C 330.330 219.830, 337.864 219.814, 340.817 225.064 C 341.743 226.709, 343.400 228.241, 344.500 228.467 C 347.135 229.009, 372.898 233.135, 375.612 233.450 C 377.692 233.691, 387.799 237.365, 391.283 239.146 C 392.263 239.648, 397.317 240.337, 402.514 240.679 C 414.593 241.472, 420.530 244.804, 416.696 248.638 C 413.507 251.826, 421.219 257.805, 424.728 254.865 C 428.002 252.121, 436.494 255.774, 434.467 259.054 C 434.179 259.519, 434.831 260.374, 435.915 260.955 C 437.582 261.847, 438.090 261.584, 439.207 259.255 C 440.589 256.374, 442.313 256.024, 448.500 257.368 C 458.592 259.560, 461.146 244.643, 454.166 224.279 C 444.185 195.162, 443.982 171.377, 453.576 155.444 C 457.639 148.696, 457.455 148.175, 451.772 150.337 C 445.140 152.860, 432.448 154.255, 422.500 153.555 L 413.500 152.922 406.750 159.447 C 403.038 163.036, 400 166.609, 400 167.387 C 400 170.022, 390.955 180.852, 384.552 185.885 C 379.799 189.620, 378.002 191.729, 377.470 194.195 C 377.077 196.013, 375.850 199.288, 374.743 201.474 C 369.494 211.839, 368.041 221.350, 371.194 224.706 C 374.602 228.334, 371.604 231.132, 366.770 228.836 C 364.490 227.754, 361.734 227.432, 357.671 227.772 C 351.897 228.256, 351.800 228.220, 347.434 223.935 C 338.721 215.384, 339.120 210.419, 349.488 198.350 C 353.622 193.537, 357.538 187.832, 358.527 185.180 C 362.504 174.515, 368.182 164.032, 373.489 157.558 C 376.592 153.772, 380.195 148.576, 381.495 146.011 C 386.652 135.834, 400.502 126.435, 421.322 118.983 C 430.488 115.702, 446.282 112.008, 451.239 111.985 C 456.462 111.960, 456.647 111.484, 456.463 98.500 C 456.290 86.320, 455.332 81.853, 451.806 76.788 C 450.768 75.296, 448.642 70.982, 447.082 67.200 C 445.523 63.418, 442.878 58.434, 441.205 56.124 C 439.532 53.815, 437.855 50.098, 437.477 47.866 C 436.844 44.115, 436.591 43.849, 434.146 44.369 C 420.699 47.224, 418.796 47.352, 408.453 46.088 L 398.008 44.811 390.907 49.355 C 387.001 51.854, 383.380 54.040, 382.860 54.213 C 382.341 54.386, 381.485 57.574, 380.957 61.298 C 377.051 88.878, 353.150 92.638, 337.354 68.157 C 335.038 64.567, 331.860 61.269, 328.955 59.441 C 318.733 53.009, 310.380 47.071, 308.076 44.600 C 305.504 41.842, 303.493 41.565, 298.250 43.247 M 279.156 46.869 C 278.048 47.582, 278.107 48.305, 279.487 50.975 C 284.036 59.771, 272.068 70.959, 261.327 67.952 C 258.916 67.276, 256.685 66.981, 256.371 67.295 C 255.006 68.660, 257.355 69.782, 262.466 70.206 C 273.974 71.160, 273.976 74.463, 262.474 85.602 C 256.941 90.960, 255.917 92.562, 254.079 98.736 C 251.479 107.464, 251.805 107.242, 238.500 109.364 C 215.279 113.068, 204.077 117.643, 194.655 127.271 C 181.212 141.010, 181.968 151.841, 197.309 165.280 C 201.214 168.701, 205.623 172.737, 207.106 174.250 C 208.881 176.060, 210.845 177, 212.855 177 C 214.896 177, 216.499 177.785, 217.694 179.369 C 219.219 181.392, 219.829 181.580, 221.862 180.653 C 224.495 179.453, 228.985 183.610, 228.995 187.257 C 228.998 188.223, 230.125 189.991, 231.500 191.187 C 232.875 192.382, 234 193.846, 234 194.438 C 234 195.031, 235.125 197.629, 236.500 200.212 C 237.875 202.795, 239 206.265, 239 207.923 C 239 209.971, 239.413 210.779, 240.288 210.443 C 242.564 209.570, 247.536 215.649, 246.030 217.464 C 244.396 219.433, 243.104 219.404, 240.829 217.345 C 239.114 215.793, 239 215.817, 239 217.718 C 239 218.833, 236.581 224.416, 233.624 230.123 C 230.666 235.830, 227.714 242.165, 227.062 244.200 C 226.411 246.235, 224.378 249.217, 222.546 250.826 C 218.167 254.670, 217.680 256.681, 219.960 261.500 L 221.853 265.500 221.314 260.919 C 220.586 254.737, 222.404 251.542, 230.717 244.395 C 234.448 241.187, 240.054 236.186, 243.176 233.281 C 250.020 226.913, 250.218 226.896, 255.151 232.250 C 277.485 256.489, 292.899 266.834, 314.500 272.081 C 322.103 273.927, 325.583 276.076, 336.940 285.936 C 344.519 292.516, 348.117 295, 350.068 295 C 355.306 295, 356.358 299.020, 355.043 314.008 C 352.723 340.446, 358.556 361.515, 371.794 374.505 C 374.966 377.618, 380 386.684, 380 389.284 C 380 390.106, 380.812 391.782, 381.805 393.008 C 383.676 395.319, 385.038 395.651, 404 398.432 C 409.225 399.199, 414.400 400.168, 415.500 400.586 C 418.614 401.770, 409.628 394.526, 402.954 390.472 C 396.317 386.440, 394.008 383.058, 394.713 378.401 C 394.986 376.603, 394.094 371.855, 392.588 367.089 C 388.680 354.718, 390.898 349.641, 398.967 352.488 C 403.925 354.238, 410.907 354.431, 416.185 352.965 C 420.308 351.820, 423.012 352.637, 445.917 361.945 C 458.862 367.207, 462 369.168, 462 372 C 462 375.516, 466.916 377.963, 489.045 385.465 C 494.802 387.416, 500.488 390.149, 503.372 392.350 C 510.055 397.452, 510.635 396.898, 504.996 390.798 C 501.415 386.922, 499.087 385.328, 495.872 384.548 C 492.105 383.633, 490.812 382.509, 485.713 375.713 C 476.818 363.857, 466.434 357.849, 450.729 355.472 C 445.991 354.755, 440.964 350.413, 437.068 343.671 C 432.693 336.104, 420.948 322.809, 416.597 320.500 L 412.828 318.500 402.950 329 C 394.246 338.253, 393.068 339.931, 393.036 343.128 C 392.993 347.444, 390.682 349.917, 388.166 348.340 C 385.867 346.899, 385.585 343.704, 387.439 340.117 C 388.298 338.457, 389 335.692, 389 333.973 C 389 331.709, 389.897 330.042, 392.250 327.934 C 407.733 314.061, 408.286 311.571, 399.075 297.212 C 392.973 287.699, 385.436 280.379, 373.880 272.743 C 358.666 262.688, 358.842 257.999, 374.489 256.533 C 382.081 255.822, 382.220 255.852, 387.982 259.408 C 394.623 263.507, 409.563 269.513, 415.500 270.470 C 417.700 270.825, 420.613 271.348, 421.973 271.633 L 424.446 272.150 422.473 269.965 C 421.388 268.763, 417.350 266.198, 413.500 264.264 C 409.650 262.331, 405.273 259.882, 403.773 258.822 C 392.841 251.101, 361.375 240.729, 345.343 239.562 L 337.186 238.969 337.653 243.234 C 337.909 245.580, 338.294 248.358, 338.507 249.408 C 339.223 252.929, 336.288 257.982, 332.641 259.506 C 326.795 261.948, 302.743 259.218, 293 255.007 C 276.440 247.848, 271.624 243.881, 263.243 230.500 C 260.143 225.550, 255.858 219.971, 253.722 218.103 C 249.850 214.716, 249.840 214.688, 250.501 208.994 L 251.164 203.282 247.230 202.653 C 242.008 201.818, 234.456 193.999, 233.430 188.364 C 231.563 178.117, 224.632 168.940, 213.850 162.436 C 205.832 157.601, 196 149.061, 196 146.933 C 196 143.727, 199.704 141.503, 202.526 143.014 C 206.932 145.372, 224.228 138.392, 232.954 130.734 C 234.854 129.066, 238.904 126.570, 241.954 125.186 C 248.573 122.184, 248.965 121.693, 248.985 116.372 C 249.011 109.291, 253.784 108.079, 258.051 114.071 C 259.646 116.311, 259.989 117.807, 259.470 120.262 L 258.787 123.500 262.441 119.286 C 265.118 116.198, 267.550 114.614, 271.547 113.354 C 276.831 111.688, 277 111.522, 277 108.014 C 277 105.154, 277.761 103.668, 280.619 100.946 C 284.703 97.058, 287 92.453, 287 88.155 C 287 83.625, 289.190 82.509, 292.069 85.573 C 296.567 90.361, 293.679 99.269, 283.988 110.500 C 283.039 111.600, 281.951 113.850, 281.570 115.500 C 281.190 117.150, 279.790 120.163, 278.460 122.196 C 267.415 139.083, 264.420 153.532, 268.405 170.711 C 270.691 180.566, 270.061 182, 263.450 182 C 255.196 182, 253.286 187.954, 258.054 198.820 C 259.097 201.197, 260.244 205.359, 260.604 208.070 C 260.969 210.826, 261.779 213, 262.439 213 C 264.536 213, 269.598 207.231, 272.841 201.147 C 276.540 194.206, 276.688 192.690, 274 189.273 C 271.002 185.462, 271.393 180.871, 274.989 177.668 C 281.363 171.988, 289.242 152.886, 290.989 138.875 C 293.023 122.564, 294.191 116.209, 296.296 110 C 300.223 98.417, 299.548 80.400, 294.680 66.925 C 289.382 52.256, 283.196 44.265, 279.156 46.869 M 538.500 52 C 541.766 55.300, 544.662 58, 544.937 58 C 545.212 58, 542.766 55.300, 539.500 52 C 536.234 48.700, 533.338 46, 533.063 46 C 532.788 46, 535.234 48.700, 538.500 52 M 260.250 48.610 C 258.811 49.251, 258.565 52.613, 259.897 53.436 C 262.914 55.301, 272.763 51.430, 270.573 49.240 C 269.825 48.492, 261.636 47.992, 260.250 48.610 M 494.374 49.467 C 493.313 52.234, 494.500 52.815, 496.297 50.407 C 497.864 48.307, 497.892 48, 496.515 48 C 495.647 48, 494.684 48.660, 494.374 49.467 M 443.690 54 C 446.110 57.815, 449 61.163, 449 60.151 C 449 59.535, 447.591 57.562, 445.870 55.766 C 444.148 53.970, 443.167 53.175, 443.690 54 M 498.609 55.577 C 499.001 57.138, 501.107 62.259, 503.289 66.958 C 524.137 111.841, 518.903 152.202, 488.688 179.544 C 479.589 187.778, 478.583 189.872, 478.860 200 C 479.015 205.684, 478.575 209.963, 477.532 212.916 C 475.687 218.139, 476.120 221.721, 479.820 231.811 L 482.500 239.123 488 238.311 C 491.025 237.865, 498.751 237.500, 505.168 237.500 L 516.836 237.500 518.326 231.500 C 519.145 228.200, 521.653 222.364, 523.899 218.530 C 529.374 209.187, 532.390 199.947, 531.684 194.683 C 530.492 185.797, 535.291 178.368, 544.223 175.269 C 551.185 172.854, 554.348 167.887, 555.965 156.826 C 556.619 152.352, 558.299 145.517, 559.698 141.639 C 562.513 133.836, 562.443 125.691, 559.513 120.025 C 558.566 118.195, 557.974 114.179, 557.930 109.300 C 557.839 99.214, 557.884 99.296, 548.500 92.227 C 536.531 83.212, 526.501 72.381, 523.028 64.721 L 520.109 58.285 511.305 56.174 C 506.462 55.012, 501.464 53.764, 500.198 53.401 C 498.083 52.793, 497.954 52.969, 498.609 55.577 M 340.009 55.489 C 339.329 56.308, 338.262 56.697, 337.637 56.353 C 337.012 56.010, 337.712 56.991, 339.193 58.534 C 341.429 60.864, 342.142 61.127, 343.399 60.084 C 344.231 59.393, 345.495 59.161, 346.206 59.569 C 346.918 59.976, 346.178 58.890, 344.563 57.155 C 341.127 53.464, 341.559 53.622, 340.009 55.489 M 480.128 60.071 C 474.401 65.202, 469.217 66.638, 463.366 64.712 C 457.863 62.900, 457.371 64.724, 462.058 69.559 C 464.065 71.630, 465.621 74.739, 466.588 78.607 C 469.441 90.020, 470.915 92.916, 474.910 94.954 C 480.170 97.638, 481.415 99.356, 480.006 101.990 C 478.646 104.530, 473.239 107.991, 470.622 107.996 C 468.977 108, 468.828 108.520, 469.417 112.204 C 470.102 116.487, 471.178 118.618, 478.342 129.877 L 482.400 136.253 479.184 139.127 C 477.416 140.707, 475.331 142, 474.552 142 C 473.772 142, 472.870 142.833, 472.547 143.851 C 472.224 144.869, 469.897 148.357, 467.376 151.601 C 459.544 161.678, 456.047 171.306, 456.015 182.874 C 455.998 188.819, 460.272 211.307, 462.237 215.621 L 463.488 218.366 464.237 214.433 C 464.649 212.270, 465.270 209.062, 465.615 207.305 C 466.568 202.461, 465.181 195.546, 462.448 191.519 C 459.399 187.025, 459.405 186.341, 462.529 181.743 C 465.830 176.884, 470.240 174.508, 472.887 176.161 C 481.383 181.467, 505 145.086, 505 126.692 C 505 104.889, 497.811 76.547, 489.453 65.402 C 488.175 63.697, 486.538 60.919, 485.815 59.228 L 484.500 56.154 480.128 60.071 M 130.500 65.392 C 128.850 66.114, 124.655 68.548, 121.178 70.799 C 117.701 73.050, 113.396 75.374, 111.610 75.964 C 108.388 77.027, 108.368 77.074, 109.007 82.058 C 109.989 89.711, 111.295 90.500, 122.983 90.500 C 132.797 90.500, 132.918 90.529, 136.233 93.742 C 139.499 96.907, 139.637 96.943, 142.039 95.273 C 147.151 91.718, 153 81.881, 153 76.838 C 153 66.765, 141.141 60.732, 130.500 65.392 M 349.065 67.091 C 351.389 70.355, 355.814 73, 358.950 73 C 363.134 73, 360.788 70.291, 353.986 67.269 L 346.973 64.153 349.065 67.091 M 455.027 67.583 C 455.012 68.179, 456.556 70.429, 458.458 72.583 C 460.360 74.738, 461.935 75.931, 461.958 75.235 C 461.981 74.540, 460.437 72.290, 458.527 70.235 C 456.617 68.181, 455.042 66.988, 455.027 67.583 M 551.193 68.799 C 551.912 69.789, 555.040 73.726, 558.144 77.549 C 561.248 81.372, 565.409 87.200, 567.391 90.500 C 569.373 93.800, 570.996 96.100, 570.997 95.611 C 571.004 93.250, 551.995 67, 550.278 67 C 550.063 67, 550.475 67.810, 551.193 68.799 M 534.500 75.856 C 536.700 78.229, 540.750 82.012, 543.500 84.262 C 549.286 88.996, 547.400 87.011, 537.500 77.949 C 533.367 74.166, 532.138 73.309, 534.500 75.856 M 94.616 76 C 95.091 77.375, 95.504 81.200, 95.534 84.500 C 95.564 87.800, 95.722 93.200, 95.884 96.500 L 96.181 102.500 98.015 95.611 C 100.364 86.791, 102.066 84.869, 105.141 87.567 C 106.377 88.651, 106.964 88.856, 106.479 88.034 C 106.004 87.228, 105.359 84.978, 105.046 83.034 C 104.546 79.929, 104.086 79.462, 101.263 79.188 C 99.225 78.991, 97.262 77.893, 95.900 76.188 L 93.752 73.500 94.616 76 M 262.470 75.967 C 264.121 77.791, 264.224 78.440, 263.160 80.306 C 262.452 81.548, 263.012 81.198, 264.449 79.500 C 267.519 75.874, 267.280 74.609, 263.437 74.161 L 260.529 73.822 262.470 75.967 M 256.506 78.007 C 257.466 79.067, 257.877 80.441, 257.457 81.187 C 257.051 81.909, 257.510 81.756, 258.477 80.846 C 260.499 78.946, 259.951 77.482, 256.924 76.690 C 254.924 76.167, 254.903 76.235, 256.506 78.007 M 551 89.953 C 558.931 96.524, 561 98.018, 561 97.175 C 561 96.178, 556.460 92.584, 551.500 89.653 L 548.500 87.881 551 89.953 M 468.751 96.759 C 469.033 98.680, 468.514 100.129, 467.080 101.428 C 465.936 102.463, 465 104.210, 465 105.310 C 465 107.184, 465.115 107.206, 466.829 105.655 C 467.835 104.745, 469.585 104, 470.718 104 C 471.851 104, 473.814 103.162, 475.079 102.137 L 477.380 100.274 474.940 99.012 C 473.598 98.318, 471.565 96.900, 470.421 95.862 C 468.358 93.988, 468.346 93.994, 468.751 96.759 M 287.954 97.586 C 287.194 99.006, 285.318 101.061, 283.786 102.152 C 281.928 103.475, 281 105.026, 281 106.807 C 281 109.097, 281.653 108.505, 285.580 102.652 C 288.098 98.898, 289.974 95.641, 289.748 95.414 C 289.521 95.188, 288.714 96.165, 287.954 97.586 M 124.500 98 L 122.500 98.859 124.500 98.830 C 125.600 98.814, 127.625 98.440, 129 98 L 131.500 97.199 129 97.170 C 127.625 97.154, 125.600 97.527, 124.500 98 M 115 99.393 C 115 101.035, 119.527 106, 121.024 106 C 123.760 106, 124.013 102.955, 121.361 101.947 C 119.789 101.350, 117.715 100.147, 116.752 99.275 C 115.148 97.824, 115 97.834, 115 99.393 M 575.349 116 C 575.349 120.675, 575.522 122.587, 575.732 120.250 C 575.943 117.912, 575.943 114.087, 575.732 111.750 C 575.522 109.412, 575.349 111.325, 575.349 116 M 462.873 116.191 L 460.246 118.883 462.512 121.011 C 463.758 122.182, 465.051 124.503, 465.384 126.170 C 465.717 127.836, 467.117 130.539, 468.495 132.176 C 472.549 136.995, 471.257 139.953, 465.050 140.063 C 461.892 140.120, 461.751 140.227, 463.774 141.040 C 465.024 141.542, 466.423 142.969, 466.882 144.210 L 467.717 146.467 468.477 143.984 C 469.480 140.704, 471.924 138.004, 473.905 137.985 C 478.027 137.945, 478.473 136.313, 475.562 131.914 C 471.064 125.118, 466.771 117.661, 466.111 115.500 C 465.528 113.593, 465.378 113.625, 462.873 116.191 M 253 117.243 C 253 119.315, 252.098 121.901, 250.777 123.615 C 249.223 125.631, 249.092 126.070, 250.342 125.073 C 251.908 123.824, 252.529 123.877, 255.316 125.490 L 258.500 127.333 256.686 125.267 C 255.337 123.731, 255.036 122.324, 255.512 119.786 C 255.978 117.304, 255.722 116.014, 254.576 115.063 C 253.192 113.915, 253 114.181, 253 117.243 M 275.136 116.073 C 273.075 116.899, 272.942 117.243, 274.103 118.760 C 274.835 119.717, 275.509 120.635, 275.601 120.801 C 275.693 120.967, 276.247 119.729, 276.832 118.051 C 277.417 116.373, 277.807 115.029, 277.698 115.063 C 277.589 115.098, 276.436 115.553, 275.136 116.073 M 268.857 122.260 C 265.765 124.821, 263.926 128.758, 265.534 129.375 C 266.514 129.751, 267.674 128.600, 269.066 125.870 C 271.302 121.487, 271.233 120.292, 268.857 122.260 M 436 125.616 C 418.452 129.617, 390.660 142, 399.227 142 C 400.123 142, 401.792 143.191, 402.937 144.647 C 404.992 147.260, 405.045 147.269, 407.115 145.397 C 408.991 143.700, 411.019 143.488, 426.356 143.389 C 443.495 143.279, 443.503 143.278, 453.291 139.639 C 458.676 137.638, 464.003 136, 465.130 136 C 467.084 136, 467.061 135.861, 464.629 132.971 C 463.227 131.304, 461.787 128.379, 461.428 126.471 L 460.777 123 453.639 123.111 C 449.712 123.172, 441.775 124.299, 436 125.616 M 570.043 130.500 C 570.007 133.250, 569.307 137.712, 568.487 140.415 C 566.731 146.204, 566.936 146.617, 570.674 144.834 C 574.302 143.104, 574.675 139.519, 572.062 131.500 L 570.108 125.500 570.043 130.500 M 250.500 134.445 C 249.950 134.660, 247.841 135.113, 245.814 135.451 C 243.786 135.790, 239.736 137.714, 236.814 139.728 C 233.891 141.742, 227.675 145.087, 223 147.161 C 218.325 149.235, 214.718 151.285, 214.983 151.716 C 215.249 152.147, 217.949 154.366, 220.983 156.647 C 227.457 161.514, 236.065 170.571, 241 177.710 C 246.182 185.205, 250.488 181.046, 246.421 172.474 C 244.938 169.350, 244.972 168.852, 246.970 164.336 C 248.235 161.475, 248.858 158.571, 248.507 157.170 C 248.053 155.363, 248.693 154.081, 251.257 151.658 C 254.720 148.385, 261.824 136.490, 260.879 135.546 C 260.168 134.835, 251.777 133.945, 250.500 134.445 M 92.830 144.110 L 90.159 149.897 94.562 147.758 C 98.431 145.878, 98.796 145.430, 97.574 144.059 C 96.808 143.202, 96.029 141.560, 95.841 140.412 C 95.588 138.864, 94.808 139.822, 92.830 144.110 M 578 141.621 C 578 142.146, 580.362 144.808, 583.250 147.538 L 588.500 152.500 583.500 147.021 C 580.750 144.008, 578.388 141.345, 578.250 141.104 C 578.112 140.864, 578 141.096, 578 141.621 M 111 145.092 C 108.525 146.706, 104.925 149.507, 103 151.315 C 101.075 153.124, 97.438 156.260, 94.919 158.284 C 83.231 167.674, 81.683 184.372, 91.391 196.346 C 100.839 207.999, 102.272 219.486, 95.750 231.284 C 91.192 239.530, 91.201 238.731, 95.533 249.947 C 100.084 261.730, 101.662 268.020, 103.412 281.349 C 105.360 296.183, 108.857 299.972, 116.709 295.757 C 122.380 292.712, 136.570 288, 140.065 288 C 142.027 288, 144.464 286.890, 146.817 284.926 C 157.233 276.232, 183.182 271.928, 203 275.607 C 207.125 276.373, 210.817 277, 211.205 277 C 213.332 277, 212.979 269.991, 210.524 263.468 C 207.384 255.125, 207.695 253.338, 213.362 247.164 C 215.716 244.599, 218.664 240.025, 219.914 237 C 221.163 233.975, 223.562 229.025, 225.245 226 C 229.586 218.196, 228.184 204.462, 223.255 206.512 C 216.040 209.513, 206.793 206.838, 191.914 197.446 C 189.870 196.156, 184.520 194.184, 180.025 193.066 C 162.811 188.781, 155.012 182.663, 122.170 147.678 C 116.017 141.124, 116.802 141.306, 111 145.092 M 575.686 145.699 C 574.328 147.896, 567.959 150.211, 566.531 149.026 C 564.672 147.483, 564.272 148.368, 561.982 159.085 C 560.902 164.139, 558.936 170.209, 557.613 172.576 C 555.212 176.872, 555.212 176.882, 557.211 178.689 C 558.312 179.685, 560.017 182.075, 561 184 C 561.983 185.925, 565.456 190.400, 568.717 193.945 C 574.633 200.375, 574.653 200.386, 577.823 199.073 C 579.708 198.293, 581 197.034, 581 195.979 C 581 195.001, 582.811 191.793, 585.025 188.850 C 591.481 180.269, 593.092 169.517, 589.229 160.785 C 586.946 155.625, 576.644 144.148, 575.686 145.699 M 200 146.797 C 200 147.235, 201.870 149.373, 204.154 151.547 C 206.642 153.914, 207.657 154.524, 206.683 153.068 C 205.481 151.271, 205.342 150.292, 206.151 149.318 C 206.996 148.300, 206.776 148, 205.181 148 C 204.047 148, 202.840 147.550, 202.500 147 C 201.763 145.808, 200 145.665, 200 146.797 M 395.557 148.223 C 393.586 151.036, 393.604 151.904, 395.678 154.197 C 397.267 155.953, 397.153 156.259, 393.510 159.990 C 390.133 163.448, 389.797 164.209, 390.764 166.215 C 391.818 168.404, 391.867 168.367, 391.932 165.333 C 391.991 162.576, 393.100 161.307, 400.500 155.529 C 405.175 151.878, 409 148.658, 409 148.373 C 409 148.088, 407.822 148.781, 406.382 149.914 C 403.446 152.224, 402.294 151.903, 400.963 148.403 C 399.820 145.397, 397.588 145.323, 395.557 148.223 M 382.509 160.239 C 374.683 170.101, 373.302 172.517, 367.859 185.867 C 365.377 191.953, 362.628 196.765, 360.008 199.607 C 352.369 207.895, 351.081 214.500, 357.104 214.500 C 359.144 214.500, 359.710 213.704, 361.012 209 C 366.091 190.653, 369.091 185.852, 380.182 178.318 C 386.827 173.804, 388.592 170.844, 386.973 166.935 C 385.772 164.034, 385.896 163.691, 389.485 160.015 C 393.257 156.153, 393.259 156.145, 391.381 153.789 L 389.500 151.429 382.509 160.239 M 254.966 153.325 C 254.122 153.971, 253.347 155.653, 253.243 157.062 C 253.139 158.472, 252.115 161.747, 250.967 164.341 C 248.016 171.013, 250.510 177.822, 255.045 175.477 C 257.990 173.954, 259.239 171.787, 258.413 169.635 C 258.125 168.884, 257.577 164.643, 257.195 160.209 C 256.589 153.178, 256.304 152.299, 254.966 153.325 M 263 176.500 C 261.960 177.753, 262.104 178, 263.878 178 C 265.098 178, 266 177.362, 266 176.500 C 266 175.675, 265.605 175, 265.122 175 C 264.640 175, 263.685 175.675, 263 176.500 M 74 178.845 C 74 181.025, 71.314 183.633, 68.500 184.187 C 66.808 184.520, 67.445 185.500, 72.627 190.540 C 88.391 205.874, 93.886 221.945, 85.961 229.537 C 84.333 231.098, 83 232.945, 83 233.642 C 83 235.586, 87.765 230.381, 90.006 225.989 C 93.255 219.619, 92.128 211.588, 87.162 205.723 C 81.709 199.283, 79 194.131, 79 190.200 C 79 188.086, 78.283 184.251, 77.406 181.678 C 75.794 176.948, 74 175.455, 74 178.845 M 477.717 179.275 C 475.332 181.130, 474.641 181.257, 472.884 180.159 C 468.906 177.675, 462.077 184.991, 464.791 188.828 C 467.876 193.187, 469.205 196.661, 469.960 202.336 C 470.731 208.128, 470.781 207.876, 470.779 198.144 L 470.778 187.788 476.105 182.394 C 481.770 176.657, 482.232 175.764, 477.717 179.275 M 204.785 180.482 C 203.073 182.779, 203.078 182.785, 207.361 183.427 C 211.798 184.092, 215 183.449, 215 181.893 C 215 181.402, 213.798 181, 212.329 181 C 210.860 181, 208.947 180.365, 208.079 179.590 C 206.702 178.360, 206.281 178.474, 204.785 180.482 M 277.238 180.163 C 275.361 182.039, 275.756 186.469, 277.979 188.481 C 280.771 191.008, 281.643 188.428, 279.832 182.995 C 278.754 179.761, 278.221 179.179, 277.238 180.163 M 552.250 182.080 C 554.372 183.316, 557 188.172, 557 190.857 C 557 192.344, 557.497 192.683, 559.074 192.270 C 560.668 191.854, 562.649 193.265, 567.623 198.364 C 571.185 202.014, 574.718 205, 575.477 205 C 576.235 205, 577.788 206.186, 578.927 207.635 L 581 210.270 581 206.028 C 581 202.380, 580.755 201.887, 579.250 202.506 C 574.820 204.330, 574.227 204.021, 566.558 195.869 C 562.277 191.317, 558.066 186.110, 557.202 184.297 C 556.018 181.815, 554.996 181.008, 553.065 181.030 C 550.840 181.057, 550.732 181.196, 552.250 182.080 M 247.448 185.054 C 245.658 186.922, 243.838 187.929, 242.761 187.648 C 240.615 187.086, 240.598 187.323, 242.526 191.050 C 244.513 194.893, 246.797 194.974, 246.240 191.180 C 245.945 189.173, 246.597 187.444, 248.502 185.180 C 251.905 181.136, 251.274 181.060, 247.448 185.054 M 215 186.095 C 212.790 187.719, 211.362 187.846, 202.693 187.188 C 191.525 186.340, 191.556 186.651, 203.225 192.582 C 210.736 196.399, 213.765 196.840, 214.683 194.250 C 215.025 193.287, 215.944 191.752, 216.727 190.838 C 217.510 189.925, 218.004 188.070, 217.825 186.717 C 217.502 184.276, 217.482 184.272, 215 186.095 M 222 186.794 C 222 188.423, 221.325 190.315, 220.500 191 C 219.675 191.685, 219 192.817, 219 193.517 C 219 194.216, 217.694 196.186, 216.099 197.894 C 212.571 201.671, 214.255 202.012, 220.653 198.816 L 225.026 196.633 228.550 200.049 C 230.545 201.982, 232.680 205.426, 233.468 207.983 L 234.861 212.500 234.930 208.732 C 235.002 204.849, 231.259 196.285, 227.784 192.381 C 226.746 191.215, 225.558 188.994, 225.144 187.446 C 224.094 183.520, 222 183.086, 222 186.794 M 544 187 C 540.534 190.466, 542.099 196.288, 547.907 201.535 C 550.158 203.569, 552 205.871, 552 206.652 C 552 207.432, 552.732 209.188, 553.628 210.555 C 555.215 212.977, 555.187 214.321, 553.390 222.250 C 552.417 226.546, 556.946 226.071, 560.422 221.513 C 564.585 216.055, 566.754 215.299, 569.725 218.271 C 573.544 222.090, 571.440 230.262, 564.666 237.916 C 558.887 244.446, 548.528 259.756, 546.001 265.500 C 542.682 273.043, 529.979 279.437, 526.106 275.513 C 524.628 274.016, 525.036 273.393, 531.225 267.693 C 535.557 263.705, 538.189 260.432, 538.619 258.500 C 539.666 253.793, 543.744 246.289, 547.535 242.093 C 551.808 237.363, 551.831 237.746, 547.010 233.390 C 540.801 227.780, 539.598 220.026, 543.813 212.781 C 545.605 209.700, 545.358 209.155, 541.996 208.772 C 538.880 208.416, 536.132 215.078, 536.054 223.177 C 535.998 229.051, 533.251 233, 529.220 233 C 527.963 233, 527.807 234.158, 528.289 239.905 C 529.125 249.878, 527.972 250.756, 516.112 249.177 C 503.078 247.441, 494.801 247.848, 482.413 250.830 L 471.325 253.500 464.970 260.333 C 457.833 268.007, 457.701 270.245, 464.353 270.810 C 467.562 271.083, 468.132 270.781, 469.068 268.310 C 471.590 261.654, 475.148 259.913, 481.128 262.406 C 486.017 264.444, 501.579 268, 505.611 268 C 517.643 268, 521.023 276.037, 512.353 284.029 L 507.925 288.110 516.712 287.495 C 525.347 286.889, 546.831 278.460, 546.960 275.626 C 547.014 274.445, 554.165 263.451, 558.100 258.500 C 559.849 256.300, 561.941 252.935, 562.748 251.023 C 563.556 249.110, 565.549 245.610, 567.176 243.244 C 571.855 236.443, 575.004 228.352, 575.572 221.667 C 575.861 218.275, 576.292 214.245, 576.531 212.712 C 576.844 210.704, 576.480 209.757, 575.233 209.329 C 574.280 209.002, 570.725 205.807, 567.334 202.228 C 562.280 196.895, 560.755 195.831, 558.871 196.323 C 555.964 197.084, 553 194.537, 553 191.279 C 553 185.295, 548.056 182.944, 544 187 M 250.251 191.369 C 250.384 194.340, 249.886 195.674, 248.102 197.119 L 245.778 199 248.215 199 C 252.847 199, 255.267 203.017, 254.471 209.386 C 253.813 214.652, 253.908 215.015, 256.178 215.878 C 257.500 216.380, 259.177 217.509, 259.904 218.385 C 260.632 219.261, 261.626 219.731, 262.113 219.430 C 263.689 218.456, 263.057 217.148, 260.852 216.820 C 258.160 216.419, 257.448 215.001, 256.173 207.500 C 254.695 198.807, 250.011 186.049, 250.251 191.369 M 538.580 202.754 C 537.166 205.720, 537.131 206.137, 538.382 205.098 C 540.102 203.671, 543.554 204.406, 546.250 206.773 C 547.777 208.114, 548 208.120, 548 206.822 C 548 206.004, 546.268 203.943, 544.150 202.241 L 540.300 199.147 538.580 202.754 M 271 213.388 C 267.899 216.846, 267.399 217.719, 269.391 216.198 C 271.392 214.670, 272.651 214.296, 273.479 214.982 C 274.314 215.676, 275.332 215.276, 276.853 213.657 C 278.922 211.455, 278.942 211.263, 277.266 209.854 C 275.654 208.500, 275.108 208.808, 271 213.388 M 468.641 211.210 C 468.303 212.470, 468.076 215.300, 468.136 217.500 C 468.229 220.945, 468.364 220.678, 469.108 215.570 C 469.994 209.498, 469.738 207.114, 468.641 211.210 M 547.857 212.707 C 543.550 220.106, 544.756 227.862, 550.992 232.873 C 555.870 236.794, 555.898 237.264, 551.535 242.093 C 547.782 246.247, 543.708 253.711, 542.579 258.500 C 542.190 260.150, 539.584 263.832, 536.788 266.681 L 531.704 271.862 535.950 270.785 C 539.565 269.867, 540.462 269.097, 541.978 265.603 C 544.533 259.720, 554.870 244.398, 560.431 238.253 C 563.769 234.565, 565.595 231.446, 566.578 227.753 C 569.074 218.376, 568.201 217.769, 561.892 224.500 C 554.713 232.160, 547.558 228.906, 550.066 219.120 C 551.785 212.414, 550.387 208.358, 547.857 212.707 M 286.143 212.182 C 278.494 213.499, 276.673 217.427, 277.192 231.501 L 277.500 239.857 288.856 245.475 C 301.688 251.822, 301.356 251.735, 317 252.886 C 332.130 254, 331.361 254.500, 330.496 244.102 C 329.854 236.397, 329.452 235.126, 326.640 231.915 C 324.913 229.943, 321.867 226.322, 319.870 223.868 C 312.880 215.276, 298.042 210.135, 286.143 212.182 M 334.384 227.203 C 334.464 228.777, 335.206 229.600, 336.743 229.819 C 338.706 230.098, 338.879 229.848, 338.130 227.819 C 336.959 224.647, 334.233 224.198, 334.384 227.203 M 527.946 228.729 C 526.051 230.779, 525.400 231.748, 526.500 230.881 C 527.600 230.014, 529.288 229.025, 530.250 228.683 C 531.212 228.342, 532 227.374, 532 226.531 C 532 224.423, 531.850 224.505, 527.946 228.729 M 270.082 230.669 C 274.068 236.707, 274.038 236.701, 273.315 231.309 C 272.912 228.308, 272.371 227.304, 271.366 227.690 C 270.601 227.983, 269.231 227.611, 268.321 226.862 C 267.412 226.113, 268.204 227.826, 270.082 230.669 M 469.158 240 C 469.158 244.841, 469.278 245.171, 470.162 242.750 C 470.835 240.909, 470.835 239.091, 470.162 237.250 C 469.278 234.829, 469.158 235.159, 469.158 240 M 243.065 245.043 C 232.994 253.004, 231.237 257.002, 232.648 268.750 C 233.369 274.751, 233.687 274.895, 238.771 271.539 C 240.822 270.185, 244.464 268.387, 246.865 267.543 C 251.182 266.024, 266 257.164, 266 256.100 C 266 254.980, 250.680 241, 249.452 241 C 248.752 241, 245.878 242.819, 243.065 245.043 M 385.678 242.487 C 388.073 244.164, 393 246.189, 393 245.496 C 393 244.942, 385.387 241, 384.317 241 C 383.898 241, 384.510 241.669, 385.678 242.487 M 474.063 243.076 C 473.940 246.133, 469.162 249.582, 466.958 248.206 C 465.148 247.075, 465 247.260, 465 250.647 C 465 252.998, 464.071 255.600, 462.410 257.906 L 459.820 261.500 462.949 258 C 464.670 256.075, 467.082 253.320, 468.308 251.877 C 469.777 250.148, 472.037 249.001, 474.936 248.511 C 478.488 247.911, 479.002 247.581, 477.604 246.798 C 476.652 246.265, 475.480 244.855, 475 243.665 C 474.423 242.234, 474.105 242.034, 474.063 243.076 M 405 248 C 411.470 251.418, 411.614 251.448, 412.362 249.500 C 413.663 246.110, 411.986 244.998, 405.643 245.047 L 399.500 245.094 405 248 M 567.063 250.353 C 566.037 252.747, 563.887 256.235, 562.286 258.103 C 559.334 261.547, 555.537 267.471, 551 275.709 C 549.204 278.970, 547.515 280.598, 545 281.492 C 543.075 282.176, 539.025 284.146, 536 285.871 L 530.500 289.006 536.500 288.366 C 539.800 288.014, 543.219 287.359, 544.097 286.910 C 546.175 285.847, 547.978 287.676, 548.079 290.950 C 548.187 294.445, 548.655 292.800, 550.057 284 C 551.222 276.682, 551.401 276.352, 557.451 270.378 C 563.735 264.172, 567 258.937, 567 255.067 C 567 253.895, 567.652 251.375, 568.449 249.468 C 569.246 247.561, 569.680 246, 569.413 246 C 569.147 246, 568.089 247.959, 567.063 250.353 M 173.126 254.366 C 170.624 257.029, 170.363 264.227, 172.698 266.164 C 173.414 266.759, 174 266.949, 174 266.587 C 174 266.226, 174.875 266.398, 175.945 266.970 C 177.576 267.843, 178.302 267.470, 180.445 264.661 C 186.419 256.829, 179.696 247.372, 173.126 254.366 M 175 259.573 C 175 264.405, 178.342 264.114, 178.813 259.242 C 179.075 256.532, 178.788 256, 177.063 256 C 175.364 256, 175 256.630, 175 259.573 M 53 257.895 C 53 258.413, 52.691 259.661, 52.313 260.668 C 51.710 262.276, 51.831 262.333, 53.300 261.138 C 54.221 260.389, 55.655 260.037, 56.487 260.357 C 58.756 261.227, 58.313 260.435, 55.500 258.592 C 54.125 257.691, 53 257.377, 53 257.895 M 427.716 258.466 C 426.057 259.679, 426.148 259.947, 429.044 262.384 C 433.488 266.123, 436.235 265.898, 432.590 262.093 C 431.058 260.495, 429.886 258.882, 429.986 258.510 C 430.337 257.196, 429.476 257.179, 427.716 258.466 M 442.482 261.660 C 440.323 263.820, 440.650 264.303, 443.750 263.538 C 447.538 262.602, 448.540 261.375, 446.048 260.723 C 444.876 260.416, 443.317 260.826, 442.482 261.660 M 450.390 263.505 C 448.679 265.427, 447.589 267, 447.966 267 C 448.719 267, 452.289 263.230, 453.410 261.250 C 454.610 259.131, 453.635 259.859, 450.390 263.505 M 366.590 261.855 C 366.078 262.683, 368.391 265.095, 372.500 268.017 C 374.041 269.113, 373.950 268.822, 372.103 266.749 C 370.114 264.516, 369.922 263.798, 370.976 262.529 C 372.059 261.225, 371.869 261, 369.681 261 C 368.272 261, 366.880 261.385, 366.590 261.855 M 455.615 264.465 C 454.727 265.820, 454 267.326, 454 267.810 C 454 270.382, 450.006 271.784, 440.846 272.428 L 431.191 273.107 427.346 269.840 C 424.231 267.195, 423.961 267.090, 425.924 269.287 L 428.349 272 426.141 274.350 C 424.184 276.433, 424.107 276.844, 425.467 277.972 C 426.310 278.672, 427 280.561, 427 282.170 C 427 285.523, 431.261 289.918, 434.560 289.968 C 435.693 289.986, 439.817 288.425, 443.725 286.500 C 451.837 282.503, 452.638 282.384, 456.027 284.663 C 458.211 286.131, 458.155 285.954, 455.550 283.149 C 448.750 275.828, 462.334 274.614, 471.771 281.700 L 476.500 285.250 472.750 281.333 C 470.688 279.178, 469 276.947, 469 276.374 C 469 274.170, 476.710 267, 479.096 266.985 C 481.015 266.972, 481.197 266.774, 480 266 C 477.301 264.256, 474.179 264.852, 473.455 267.250 C 471.068 275.152, 463.539 277.214, 457.988 271.488 L 454.584 267.975 456.348 264.988 C 458.472 261.393, 457.896 260.983, 455.615 264.465 M 375.190 263.861 C 374.193 264.494, 374.431 265.052, 376.190 266.205 C 378.378 267.639, 378.500 267.594, 378.500 265.359 C 378.500 262.913, 377.441 262.434, 375.190 263.861 M 52.872 265.664 C 51.642 267.155, 51.710 267.216, 53.526 266.249 C 54.979 265.475, 56.110 265.478, 57.526 266.262 C 59.296 267.241, 59.358 267.181, 58.128 265.677 C 56.387 263.550, 54.620 263.545, 52.872 265.664 M 560.250 271.920 C 557.362 274.606, 555 277.171, 555 277.618 C 555 278.066, 557.475 275.987, 560.500 273 C 565.530 268.032, 566.465 266.967, 565.750 267.018 C 565.612 267.027, 563.138 269.233, 560.250 271.920 M 53.198 274.921 C 50.805 278.451, 49.458 282.090, 48.306 288.145 C 46.192 299.256, 41.972 310.164, 34.660 323.420 C 28.195 335.138, 27.714 337.424, 30.044 345.352 C 31.426 350.056, 31.386 350.355, 28.735 355.103 C 26.756 358.647, 26 361.407, 26 365.084 C 26 371.782, 27.223 371.230, 32.970 361.938 C 37.235 355.043, 58.017 336.098, 61.401 336.021 C 61.896 336.009, 66.632 331.613, 71.925 326.250 C 77.219 320.887, 82.310 315.934, 83.240 315.243 C 85.158 313.817, 85.127 313.712, 79.695 303.199 C 77.591 299.125, 72.956 292.680, 69.212 288.619 C 65.520 284.616, 61.228 278.790, 59.674 275.671 C 58.120 272.552, 56.770 270.012, 56.674 270.026 C 56.578 270.040, 55.014 272.243, 53.198 274.921 M 494 270.223 C 494 270.464, 496.024 272.114, 498.497 273.890 C 505.068 278.609, 505.956 280.781, 502.525 283.732 L 499.780 286.093 502.640 285.406 C 509.318 283.802, 512.413 281.266, 513.232 276.726 C 513.864 273.221, 513.342 272.931, 504.649 271.949 C 500.717 271.505, 496.712 270.837, 495.750 270.464 C 494.788 270.091, 494 269.983, 494 270.223 M 221.766 277.699 C 221.198 282.346, 221.659 283.747, 224.203 285.109 C 226.991 286.601, 227.075 286.130, 225.074 280.220 C 222.776 273.432, 222.329 273.091, 221.766 277.699 M 493.972 276.471 C 495.898 278.520, 496.077 279.202, 495.024 280.471 C 493.932 281.787, 494.183 282, 496.819 282 C 501.339 282, 501.477 280.538, 497.281 277.080 C 492.804 273.390, 490.717 273.005, 493.972 276.471 M 480 276.875 C 480 278.824, 480.519 278.993, 486.250 278.918 L 492.500 278.837 489.144 277.372 C 482.854 274.627, 480 274.472, 480 276.875 M 475.276 277.885 C 475.399 279.197, 476.625 280.977, 478 281.840 L 480.500 283.409 478.377 280.954 C 477.210 279.604, 475.984 277.825, 475.654 277 C 475.313 276.150, 475.149 276.534, 475.276 277.885 M 421.526 283.947 C 421.550 288.615, 424.534 294, 427.097 294 C 427.509 294, 426.534 292.688, 424.931 291.084 C 422.295 288.449, 422.075 287.729, 422.643 283.584 C 422.989 281.063, 422.873 279, 422.386 279 C 421.899 279, 421.512 281.226, 421.526 283.947 M 459 282.488 C 462.919 287.259, 473.922 291.010, 483.472 290.831 L 492.500 290.662 484.500 290.081 C 477.198 289.551, 476.079 289.173, 471.673 285.750 C 469.019 283.688, 466.263 282, 465.548 282 C 464.834 282, 462.731 281.699, 460.875 281.331 C 457.697 280.702, 457.588 280.769, 459 282.488 M 516.214 292.060 C 517.157 292.609, 518.507 293.871, 519.214 294.864 C 520.421 296.558, 520.642 296.495, 522.826 293.834 L 525.152 291 519.826 291.030 C 515.792 291.053, 514.916 291.303, 516.214 292.060 M 537.547 292.212 C 527.141 293.552, 525 294.633, 525 298.549 C 525 307.252, 535.357 328.203, 541.552 332.032 C 543.465 333.215, 549.131 338.695, 554.143 344.211 L 563.255 354.240 562.632 359.370 C 562.290 362.192, 561.763 365.850, 561.461 367.500 C 560.980 370.127, 561.222 369.941, 563.411 366 C 566.541 360.363, 566.572 358.871, 563.656 354.230 C 562.367 352.179, 560.325 347.800, 559.117 344.500 C 554.294 331.321, 547.761 320.795, 539.521 312.931 C 531.708 305.475, 532.300 298, 540.703 298 C 542.268 298, 543.151 297.245, 543.579 295.543 C 544.536 291.730, 543.923 291.392, 537.547 292.212 M 349.778 301.935 C 351.736 305.347, 352.513 305.182, 351.601 301.547 C 351.250 300.146, 350.316 299, 349.527 299 C 348.338 299, 348.381 299.502, 349.778 301.935 M 544.541 300.933 C 544.179 301.520, 542.530 302, 540.878 302 C 536.069 302, 537.144 307.155, 542.938 311.880 L 547.377 315.500 545.024 312.282 C 542.724 309.137, 542.709 308.969, 544.325 304.855 C 545.877 300.904, 546.006 298.563, 544.541 300.933 M 409.624 309.463 C 409.968 310.359, 409.152 312.681, 407.757 314.777 C 406.395 316.825, 404.263 320.216, 403.019 322.314 C 401.775 324.411, 399.012 327.230, 396.879 328.576 C 394.232 330.248, 393.009 331.736, 393.027 333.263 C 393.057 335.755, 392.604 336.174, 405.656 321.607 C 412.828 313.602, 413.873 313.495, 421.275 320.011 C 427.117 325.153, 437.840 338.050, 441.449 344.273 C 442.971 346.898, 445.181 349.546, 446.358 350.159 L 448.500 351.271 446.382 348.886 C 445.217 347.574, 442.084 343.155, 439.420 339.066 C 433.256 329.604, 407.555 304.070, 409.624 309.463 M 394.551 356.853 C 394.265 357.759, 394.436 359.850, 394.930 361.500 C 395.615 363.788, 395.848 363.995, 395.914 362.372 C 395.961 361.202, 396.675 359.685, 397.500 359 C 399.526 357.318, 399.387 356.334, 397.035 355.719 C 395.767 355.388, 394.885 355.790, 394.551 356.853 M 416 356.990 C 413.906 357.669, 414.232 357.819, 418 357.914 C 420.475 357.976, 423.625 358.277, 425 358.582 C 426.831 358.989, 427.099 358.882, 426 358.184 C 423.647 356.687, 418.741 356.101, 416 356.990 M 485.449 365.106 C 488.721 368.623, 491.622 371.725, 491.896 372 C 492.170 372.275, 491.573 371.150, 490.568 369.500 C 488.174 365.568, 484.004 361.095, 481.500 359.770 C 480.400 359.189, 482.177 361.590, 485.449 365.106 M 361.987 369 C 368.186 381.323, 378.407 396.636, 381.489 398.218 C 382.807 398.895, 382.394 398.086, 380.292 395.872 C 378.528 394.013, 376.339 390.182, 375.427 387.359 C 374.416 384.228, 371.430 379.352, 367.775 374.863 C 360.562 366.003, 360.393 365.831, 361.987 369 M 450.500 368.861 C 452.150 369.880, 454.400 371.727, 455.500 372.965 C 456.600 374.203, 458.850 376.144, 460.500 377.278 L 463.500 379.341 460.750 376.366 C 459.238 374.729, 458 372.837, 458 372.160 C 458 371.483, 455.938 370.045, 453.417 368.964 C 447.672 366.502, 446.621 366.465, 450.500 368.861 M 15.256 372.437 C 12.818 373.786, 13.250 375, 16.167 375 C 17.333 375, 18 374.273, 18 373 C 18 371.900, 17.887 371.044, 17.750 371.098 C 17.613 371.152, 16.490 371.755, 15.256 372.437 M 489.635 375.672 C 491.211 377.967, 493.288 380.063, 494.250 380.329 C 496.603 380.980, 496.638 381.033, 491.385 375.958 L 486.770 371.500 489.635 375.672 M 398.798 378.846 C 397.797 382.398, 398.743 383.775, 404.876 387.692 C 407.969 389.668, 412.823 393.266, 415.661 395.688 C 420.024 399.410, 421.417 400.058, 424.661 399.876 C 426.773 399.758, 430.075 400.436, 432 401.384 L 435.500 403.106 432.740 400.593 C 430.490 398.543, 429.087 398.118, 425.138 398.290 C 420.815 398.477, 419.855 398.102, 416.185 394.786 C 413.923 392.743, 410.369 389.984, 408.287 388.655 C 403.224 385.425, 400.252 382.037, 399.817 379 L 399.459 376.500 398.798 378.846 M 552.622 379.712 C 551.281 381.053, 552.059 383.999, 553.750 383.985 C 557.135 383.955, 557.894 382.583, 555.513 380.795 C 554.265 379.857, 552.964 379.370, 552.622 379.712 M 21.471 392.032 C 20.491 393.114, 20.007 394, 20.395 394 C 20.782 394, 20.666 394.774, 20.137 395.719 C 19.487 396.880, 19.588 398.260, 20.447 399.969 C 21.146 401.361, 21.985 404.228, 22.311 406.339 C 23.559 414.429, 31.273 415.674, 31.183 407.772 C 31.056 396.595, 25.496 387.584, 21.471 392.032 M 23.812 396.050 C 23.484 396.903, 23.826 398.703, 24.573 400.050 C 26.009 402.644, 26.266 401.170, 25.104 397 C 24.581 395.121, 24.260 394.885, 23.812 396.050 M 518.236 396.668 C 519.550 398.150, 519.691 398.909, 518.817 399.783 C 517.942 400.658, 518.250 401.160, 520.080 401.848 C 524.364 403.457, 523.175 398.211, 518.727 395.877 C 516.573 394.747, 516.557 394.773, 518.236 396.668 M 122.079 401.133 C 122.023 403.002, 122.607 403.926, 124.092 404.314 C 125.976 404.806, 126.038 404.693, 124.723 403.180 C 123.919 402.256, 123.013 400.825, 122.709 400 C 122.387 399.123, 122.125 399.594, 122.079 401.133 M 117.116 402.050 C 117 404.606, 118.566 407, 120.355 407 C 120.880 407, 120.612 406.212, 119.758 405.250 C 118.905 404.288, 117.987 402.600, 117.719 401.500 C 117.324 399.876, 117.210 399.980, 117.116 402.050" stroke="none" fill="#1A1A1A" fill-rule="evenodd"/>
</svg>