<svg xmlns="http://www.w3.org/2000/svg" width="600" height="413" viewBox="0 0 600 413" version="1.1">
	<rect x="0" y="0" width="100%" height="100%" fill="#FFFFFF" />
	<path d="M 234.756 5.722 L 229.034 11.444 224.267 9.576 C 207.553 3.027, 194.583 1.673, 182.818 5.252 C 170.249 9.076, 164.267 9.455, 158.366 6.804 C 144.297 0.482, 107.506 7.496, 92.315 19.397 C 73.882 33.837, 66.021 50.707, 66.006 75.860 L 66 85.220 61.136 90.541 C 54.235 98.092, 47.217 107.636, 44.263 113.485 C 42.870 116.243, 40.396 120.448, 38.764 122.828 C 30.411 135.012, 26.739 151.710, 26.742 177.500 C 26.745 198.372, 27.639 205.043, 32.160 217.930 C 37.950 234.432, 38.103 231.992, 30.466 245 C 21.090 260.969, 18.228 267.396, 16.643 276.036 C 15.890 280.141, 14.119 287.775, 12.707 293 C 11.295 298.225, 9.412 309.475, 8.523 318 C 7.634 326.525, 6.222 335.750, 5.386 338.500 C 3.132 345.913, 0.822 360.542, 0.651 368.495 L 0.500 375.489 8.250 378.544 L 15.999 381.598 10.932 386.181 C 6.257 390.409, 5.914 391.026, 6.503 394.163 C 7.095 397.319, 6.884 397.685, 3.570 399.265 C -0.851 401.374, -0.927 403.091, 3.250 406.534 C 5.346 408.262, 5.790 408.971, 4.500 408.532 C 1.242 407.424, 0.772 407.441, 0.313 408.686 C -0.560 411.056, 4.883 413.483, 8.235 412.218 C 10.360 411.415, 11.846 411.382, 13.201 412.107 C 17.857 414.600, 23.787 407.141, 22.180 400.812 C 21.261 397.192, 21.387 396.265, 23.129 393.819 C 25.605 390.341, 27 390.218, 27 393.479 C 27 397.705, 31.123 408.767, 33.547 411.044 C 36.247 413.581, 39.012 412.786, 36.651 410.151 C 34.843 408.133, 31 396.949, 31 393.706 C 31 388.396, 23.966 385.243, 21.607 389.496 C 20.998 390.593, 19.730 392.663, 18.789 394.095 C 17.397 396.213, 17.268 397.386, 18.096 400.384 C 18.655 402.411, 18.845 404.912, 18.518 405.942 C 17.815 408.159, 15 409.520, 15 407.643 C 15 406.931, 13.943 405.355, 12.650 404.141 C 10.612 402.226, 10.138 402.129, 9.077 403.407 C 7.939 404.779, 4.992 404.588, 5.006 403.143 C 5.010 402.789, 6.391 401.716, 8.075 400.757 C 10.844 399.181, 11.106 398.608, 10.818 394.757 C 10.602 391.861, 10.881 390.574, 11.692 390.731 C 12.348 390.858, 13.763 389.845, 14.836 388.481 C 15.910 387.116, 17.410 386, 18.171 386 C 20.941 386, 23.969 382.831, 25.133 378.714 C 25.806 376.334, 28.139 372.541, 30.494 370 C 32.787 367.525, 36.131 363.145, 37.925 360.266 C 39.720 357.388, 43.291 353.489, 45.862 351.602 C 48.432 349.714, 51.428 347.183, 52.518 345.976 C 53.608 344.769, 57.064 342.486, 60.198 340.903 C 63.470 339.249, 67.089 336.429, 68.698 334.277 C 73.273 328.158, 79.348 322.532, 83.707 320.375 L 87.792 318.354 91.583 324.927 C 93.668 328.542, 97.463 333.975, 100.015 337 C 102.567 340.025, 106.618 345.200, 109.016 348.500 C 111.414 351.800, 115.055 356.300, 117.107 358.500 L 120.837 362.500 121.943 376.868 C 123.081 391.658, 122.725 394, 119.332 394 C 116.773 394, 113 398.731, 113 401.939 C 113 407.618, 117.289 410.740, 126.131 411.496 C 138.817 412.580, 141.383 408.715, 145.992 381.566 C 147.300 373.864, 147.273 360.524, 145.940 355.723 C 144.677 351.176, 139.669 345.206, 136.437 344.395 C 134.699 343.959, 133.657 342.483, 132.388 338.662 C 128.934 328.263, 122.052 313.751, 118.081 308.491 C 115.837 305.518, 114 302.679, 114 302.182 C 114 300.133, 133.768 292.006, 140.634 291.232 C 143.687 290.888, 145.614 289.939, 147.453 287.876 C 148.862 286.294, 150.857 285, 151.885 285 C 152.913 285, 158.140 283.650, 163.500 282 C 175.018 278.454, 197.548 277.652, 205.714 280.497 C 208.031 281.305, 210.563 281.721, 211.340 281.423 C 212.257 281.071, 212.979 281.781, 213.397 283.445 C 214.107 286.276, 221.692 292.340, 226.606 294.007 C 233.670 296.402, 238.279 291.338, 235.801 283.904 C 234.375 279.625, 234.380 279.606, 237.486 276.878 C 239.199 275.374, 242.929 273.259, 245.775 272.178 C 248.620 271.096, 253.773 268.431, 257.224 266.255 C 269.136 258.746, 269.660 258.722, 279.231 265.262 C 289.798 272.482, 298.107 276.293, 310 279.374 C 323.600 282.898, 323.866 283.039, 333.760 292 C 344.965 302.149, 345.116 302.487, 346.048 319.500 C 347.527 346.518, 349.939 357.383, 358.098 373.786 C 369.381 396.471, 378.653 406.987, 387.394 407.012 C 389.652 407.018, 393.975 407.688, 397 408.500 C 400.025 409.312, 404.628 409.982, 407.230 409.988 C 409.831 409.995, 413.656 410.647, 415.730 411.437 C 420.021 413.073, 424.613 412.981, 424.269 411.267 C 424.125 410.546, 425.091 410.719, 426.851 411.729 C 428.441 412.642, 430.437 413.046, 431.444 412.660 C 437.557 410.314, 415.715 400.986, 403 400.513 C 385.667 399.867, 381.413 398.187, 377.987 390.634 C 376.456 387.261, 373.332 381.800, 371.043 378.500 C 361.119 364.190, 360.762 363.531, 362.709 363.142 C 366.256 362.434, 367 360.862, 366.976 354.128 C 366.962 350.482, 366.542 345.700, 366.041 343.500 C 364.611 337.214, 366.167 327.272, 368.878 325.373 C 370.654 324.129, 370.984 323.206, 370.479 320.903 C 369.624 317.013, 371.113 317.226, 374.896 321.534 L 377.999 325.068 375.500 330.001 C 371.325 338.239, 372.179 344.202, 378.230 349.065 C 382.346 352.372, 385.341 352.303, 385.593 348.894 C 385.805 346.015, 386.038 345.787, 387.519 347.016 C 388.760 348.046, 389.389 347.958, 390.962 346.534 C 392.818 344.854, 392.941 344.924, 394.433 348.494 C 395.914 352.039, 395.887 352.271, 393.786 353.972 L 391.593 355.748 394.912 365.881 C 396.924 372.024, 398.025 377.090, 397.708 378.746 C 396.961 382.654, 398.370 384.628, 404.814 388.701 C 407.941 390.679, 412.875 394.517, 415.778 397.231 C 420.695 401.829, 421.317 402.122, 424.867 401.522 C 429.565 400.729, 436.230 404.344, 435.385 407.228 C 435.040 408.407, 435.931 409.618, 438.190 411.040 C 443.470 414.364, 456.137 412.405, 454.637 408.496 C 454.337 407.714, 455.014 407.471, 456.633 407.781 C 458.448 408.128, 459.008 408.801, 458.792 410.375 C 458.550 412.134, 459.016 412.500, 461.500 412.500 C 463.891 412.500, 464.568 412.021, 464.834 410.142 C 465.258 407.147, 460.510 402, 457.324 402 C 456.057 402, 452.654 401.100, 449.761 400.001 C 446.867 398.901, 443.515 398.001, 442.311 398.001 C 441.107 398, 438.042 396.200, 435.500 394 C 430.807 389.938, 427.563 389.093, 423.995 391.003 C 422.715 391.688, 421.912 391.666, 421.460 390.935 C 421.096 390.347, 417.582 387.483, 413.649 384.571 C 407.030 379.670, 406.400 378.878, 405.151 373.889 C 402.435 363.041, 402.437 363.606, 405.104 364.437 C 406.422 364.848, 412.873 365.426, 419.441 365.722 C 431.141 366.249, 431.551 366.348, 439.814 370.635 C 444.452 373.041, 449.748 376.328, 451.584 377.939 C 453.419 379.551, 456.851 381.986, 459.210 383.350 C 464.677 386.512, 489.611 396, 492.454 396 C 493.638 396, 496.497 397.390, 498.807 399.090 C 501.191 400.842, 505.658 402.797, 509.131 403.608 C 512.499 404.393, 516.582 406.153, 518.204 407.518 C 519.826 408.883, 522.165 410, 523.402 410 C 526.017 410, 530 406.158, 530 403.636 C 530 398.548, 522.565 390.768, 516.020 389.005 C 513.238 388.256, 511.564 387.057, 510.543 385.083 C 507.778 379.736, 503.905 376.052, 499.924 374.980 C 496.664 374.102, 495.586 373.117, 493.606 369.209 C 491.125 364.313, 485.076 358.680, 476.500 353.277 C 469.546 348.897, 466.611 347.832, 458 346.560 L 450.500 345.453 447.103 338.977 C 443.688 332.466, 427.160 315.113, 420.655 311.208 C 419.090 310.269, 416.889 307.700, 415.764 305.500 C 409.595 293.436, 396.103 277.230, 386.292 270.097 C 382.877 267.615, 380.256 265.410, 380.468 265.199 C 380.680 264.987, 384.823 266.797, 389.676 269.221 C 394.529 271.645, 403.225 275.146, 409 277.001 C 421.525 281.024, 420.734 280.531, 418.542 282.954 C 416.103 285.648, 417.092 288.824, 421.921 293.799 C 428.412 300.488, 434.146 301.086, 440.556 295.743 C 442.175 294.394, 445.764 292.754, 448.530 292.098 L 453.560 290.906 460.468 295.443 C 464.267 297.938, 468.797 300.247, 470.535 300.573 C 477.106 301.805, 491.846 301.364, 500.895 299.664 C 514.007 297.201, 513.604 297.015, 516.973 307.068 C 523.555 326.702, 526.832 331.884, 539.076 342.019 C 545.146 347.042, 550.621 352.268, 551.242 353.632 C 553.054 357.609, 550.536 370.220, 546.420 377.784 C 542.369 385.228, 542.293 385.987, 545.314 388.826 C 551.830 394.947, 568.561 386.624, 570.452 376.321 C 570.838 374.220, 572.432 370.475, 573.995 368 C 578.704 360.542, 578.415 357.197, 572.572 351.518 C 569.863 348.885, 567.740 345.718, 567.103 343.358 C 566.530 341.236, 565.377 337.025, 564.541 334 C 563.029 328.529, 556.910 316.918, 552.862 311.837 C 551.350 309.940, 550.926 308.430, 551.389 306.587 C 552.255 303.135, 552.812 303.264, 559.514 308.469 C 562.679 310.926, 567.134 313.650, 569.414 314.520 C 572.328 315.633, 574.515 317.503, 576.773 320.813 C 579.734 325.151, 586.484 332.494, 595.215 340.873 C 597.511 343.077, 598.972 343.855, 599.428 343.117 C 600.354 341.618, 596.454 336.247, 592.846 334.052 C 591.263 333.090, 586.528 327.922, 582.324 322.568 C 575.883 314.366, 573.833 312.459, 569.308 310.457 C 566.354 309.151, 561.814 306.392, 559.218 304.326 C 556.623 302.260, 554.358 300.487, 554.184 300.386 C 554.011 300.285, 554.335 298.469, 554.904 296.351 C 555.474 294.233, 556.377 289.405, 556.912 285.623 C 557.851 278.988, 558.078 278.575, 563.374 273.855 C 569.136 268.719, 575 258.799, 575 254.186 C 575 252.814, 577.271 247.245, 580.048 241.811 C 584.120 233.839, 585.274 230.440, 586.017 224.215 C 586.524 219.972, 587.400 213.800, 587.964 210.500 C 588.527 207.200, 588.991 202.322, 588.994 199.659 C 588.999 195.609, 589.552 194.173, 592.379 190.870 C 598.199 184.071, 600.731 169.590, 597.622 160.890 C 596.156 156.786, 588.035 145.838, 584.753 143.540 C 581.152 141.017, 579.007 131.193, 579.699 120.395 C 580.673 105.194, 576.300 94.026, 563.086 77.974 C 559.250 73.313, 554.486 66.711, 552.499 63.303 C 546.910 53.714, 526.240 33.345, 517.463 28.777 C 508.958 24.351, 495.150 20.214, 486.062 19.369 L 479.382 18.748 476.583 13.402 C 473.929 8.333, 466.156 0, 464.081 -0 C 463.552 -0, 462.826 0.472, 462.470 1.049 C 462.029 1.762, 461.357 1.711, 460.369 0.891 C 459.232 -0.053, 458.652 -0.044, 457.708 0.929 C 456.759 1.907, 456.997 2.529, 458.821 3.837 C 466.886 9.617, 470.312 13.872, 472.439 20.750 C 473.386 23.813, 469.904 23.790, 463.210 20.689 L 458.222 18.378 459.629 15.032 C 461.434 10.739, 460.811 8.965, 455.954 4.578 C 451.016 0.117, 447.835 -0.049, 444.842 4 C 442.999 6.493, 441.924 7, 438.486 7 C 432.928 7, 430 10.041, 430 15.814 C 430 22.924, 423.184 26.922, 419.787 21.805 C 418.071 19.221, 420.898 9.488, 424.807 4.519 C 427.453 1.155, 426.993 0.184, 422.851 0.392 C 419.024 0.585, 416.784 3.286, 414.099 10.948 L 412.190 16.395 405.345 17.760 C 391.891 20.443, 379.459 27.953, 374.511 36.387 C 373.184 38.649, 369.622 44.261, 366.596 48.858 C 363.570 53.455, 360.937 57.688, 360.745 58.264 C 359.770 61.191, 350.114 54.347, 343.446 46 C 322.134 19.323, 308.541 10.593, 291.500 12.639 C 282.306 13.744, 275.555 12.005, 269 6.846 C 262.546 1.766, 251.084 -1.909, 253.404 1.845 C 253.697 2.318, 252.195 2.240, 250.067 1.672 C 246.831 0.809, 245.733 0.943, 243.349 2.495 C 241.381 3.776, 240.884 3.880, 241.741 2.833 C 242.876 1.446, 242.535 -0, 241.072 -0 C 240.746 -0, 237.903 2.575, 234.756 5.722 M 237.397 14.726 L 231.149 21.453 227.050 20.359 C 221.705 18.932, 220.150 20.931, 223.295 25.185 C 225.844 28.632, 227.756 28.773, 228.962 25.601 C 231.201 19.710, 238.024 18.328, 242.386 22.881 L 245.147 25.762 247.528 23.381 C 251.942 18.968, 255.065 20.983, 254.817 28.085 C 254.732 30.513, 254.987 34.321, 255.385 36.547 C 256.068 40.376, 253.742 44.703, 251.145 44.433 C 248.426 44.150, 245.092 55.692, 247.265 57.865 C 248.653 59.253, 246.381 62.083, 244.469 61.350 C 242.242 60.495, 241.379 65.809, 243.415 67.835 C 245.752 70.158, 253.073 70.073, 254.840 67.702 C 255.919 66.255, 257.014 66.030, 260.457 66.546 C 263.749 67.039, 266.132 66.622, 270.807 64.734 C 275.084 63.006, 277.194 62.594, 277.940 63.340 C 281.086 66.486, 275.226 73.629, 270.341 72.601 C 266.570 71.808, 264.301 73.175, 266.442 74.952 C 267.287 75.653, 267.743 76.606, 267.456 77.071 C 267.169 77.535, 269.495 77.034, 272.624 75.957 C 280.604 73.212, 281.595 73.400, 284.668 78.250 C 290.287 87.116, 288.764 95.823, 280.447 102.373 C 277.409 104.765, 276.891 105.706, 277.349 107.996 C 278.028 111.392, 275.277 114.198, 269.500 116.003 C 267.300 116.691, 264.705 117.948, 263.733 118.797 C 261.601 120.660, 258.116 117.833, 252.272 109.500 C 250.343 106.750, 249.085 105.400, 249.475 106.500 C 251.485 112.160, 251.312 120.087, 249.114 123.059 C 246.802 126.187, 247.408 126.884, 250.485 124.634 C 252.092 123.460, 252.970 123.542, 256.760 125.218 C 259.183 126.290, 261.260 127.017, 261.375 126.834 C 266.011 119.416, 267.268 118.067, 270.555 116.982 C 275.232 115.438, 278.329 117.643, 276.222 121.016 C 275.541 122.107, 275.195 123, 275.454 123 C 276.104 123, 283.784 111.610, 285.034 108.792 C 285.594 107.531, 287.166 104.970, 288.528 103.099 C 291.755 98.667, 293.348 92.557, 292.635 87.352 C 292.031 82.946, 288.418 75.086, 286.899 74.875 C 282.530 74.268, 281.720 73.152, 282.429 68.718 C 282.975 65.304, 282.698 64.289, 280.623 62.093 C 278.598 59.950, 278.114 58.285, 277.836 52.500 C 277.502 45.551, 277.522 45.490, 280.513 44.171 C 282.171 43.440, 284.040 41.754, 284.668 40.423 L 285.810 38.003 277.155 38.638 C 272.395 38.988, 267.670 39.701, 266.656 40.223 C 265.257 40.942, 264.232 40.627, 262.416 38.922 C 259.671 36.343, 259.699 32.416, 262.501 26.998 C 263.427 25.208, 263.981 22.679, 263.732 21.378 C 263.481 20.067, 263.901 18.497, 264.673 17.856 C 268.004 15.092, 255.493 8, 247.285 8 C 244.078 8, 242.901 8.801, 237.397 14.726 M 448.184 12.043 C 446.032 14.768, 445.979 15.132, 447.434 17.210 C 450.237 21.212, 449.460 25.548, 445.380 28.659 L 441.760 31.420 444.556 32.352 C 448.778 33.759, 451.406 30.138, 450.604 24.018 C 450.201 20.947, 450.490 18.583, 451.506 16.636 C 454.921 10.089, 452.439 6.655, 448.184 12.043 M 187 13.330 C 182.355 14.538, 181.189 16.231, 184.571 16.858 C 187.515 17.403, 189.105 19.093, 188.493 21.023 C 187.814 23.162, 190.948 24.647, 192.209 22.784 C 194.711 19.086, 197.003 13.814, 196.479 12.966 C 195.718 11.735, 192.690 11.852, 187 13.330 M 132.500 13.570 C 131.400 13.828, 127.800 14.552, 124.500 15.180 C 101.562 19.542, 85.601 31.154, 79.196 48.140 C 75.524 57.881, 74.160 63.637, 75.759 62.649 C 77.688 61.457, 82.887 66.871, 83.597 70.810 C 84.451 75.543, 84.915 76.292, 86.339 75.236 C 88.397 73.710, 91.404 74.439, 92.556 76.744 C 95.307 82.246, 94.148 105.063, 90.409 119 C 89.790 121.306, 89.868 121.378, 91.409 119.924 C 93.461 117.989, 97.703 105.717, 98.852 98.393 C 99.317 95.422, 100.518 92.086, 101.518 90.980 L 103.338 88.969 105.669 91.159 C 106.951 92.363, 108.010 94.508, 108.021 95.924 C 108.037 97.782, 109.168 99.296, 112.080 101.357 C 114.300 102.928, 118.903 106.728, 122.308 109.802 L 128.500 115.391 123.586 110.245 C 119.411 105.872, 118.866 104.866, 119.959 103.550 C 120.666 102.697, 122.015 102, 122.956 102 C 125.336 102, 126.175 100.916, 124.944 99.432 C 124.186 98.519, 124.520 97.749, 126.175 96.590 C 129.141 94.513, 130.314 94.584, 132.479 96.976 C 134.537 99.251, 136.754 98.613, 134.833 96.299 C 132.702 93.731, 129.718 93.191, 125.627 94.633 C 116.231 97.945, 101.792 88.917, 104.635 81.508 C 105.149 80.170, 104.546 79.946, 100.999 80.155 C 95.726 80.466, 93.417 78.054, 92.434 71.207 C 92.062 68.618, 90.960 62.675, 89.985 58 C 87.939 48.182, 88.332 46.920, 94.605 43.175 C 98.089 41.095, 98.213 40.895, 95.775 41.281 C 93.938 41.572, 92.475 41.077, 91.285 39.762 C 89.584 37.882, 89.622 37.722, 92.315 35.405 C 95.713 32.483, 99.081 32.327, 101.483 34.981 C 103.030 36.691, 103.086 37.193, 101.888 38.645 C 98.678 42.536, 105.374 37.641, 113.324 30.285 C 127.418 17.244, 130.664 16.311, 138.359 23.085 C 140.912 25.332, 143 26.895, 143 26.559 C 143 26.223, 144.238 26.576, 145.750 27.343 C 149.496 29.242, 161.972 30.341, 165.322 29.068 C 167.104 28.390, 168 27.315, 168 25.853 C 168 24.646, 168.764 22.813, 169.698 21.781 C 173.693 17.367, 171.825 15.922, 165.527 18.553 C 161.528 20.224, 162.143 20.409, 155.489 15.544 C 153.458 14.059, 136.590 12.610, 132.500 13.570 M 203.500 13.956 C 201.129 14.429, 200.867 14.700, 202.249 15.246 C 204.113 15.982, 208.975 14.664, 207.421 13.843 C 206.914 13.576, 205.150 13.626, 203.500 13.956 M 210.675 16.658 C 210.313 17.020, 210.495 17.891, 211.078 18.594 C 212.485 20.289, 210.616 23.812, 207.685 24.993 C 205.949 25.692, 206.466 25.886, 210.193 25.937 C 214.674 25.997, 215.001 25.808, 217.418 21.754 C 219.725 17.886, 219.797 17.448, 218.225 16.825 C 215.956 15.925, 211.507 15.827, 210.675 16.658 M 439.935 21.671 C 439.376 23.140, 439.050 24.953, 439.210 25.699 C 439.713 28.050, 444 24.243, 444 21.443 C 444 18.114, 441.228 18.269, 439.935 21.671 M 267.786 23.006 C 267.205 26.965, 267.763 27.332, 270.769 24.967 C 272.144 23.885, 273.997 22.986, 274.885 22.968 C 277.483 22.917, 273.097 20, 270.422 20 C 268.747 20, 268.123 20.711, 267.786 23.006 M 432.127 24.093 C 429.651 26.972, 427.723 28.181, 424.877 28.636 C 420.339 29.361, 420.270 29.576, 423.345 33.418 C 425.721 36.388, 425.939 36.392, 430.901 33.543 C 432.573 32.584, 434.034 32.443, 435.709 33.079 C 437.183 33.640, 437.892 33.635, 437.541 33.066 C 437.225 32.556, 437.459 31.835, 438.059 31.464 C 438.772 31.023, 438.398 29.988, 436.978 28.476 C 435.289 26.679, 434.956 25.477, 435.482 23.082 C 436.320 19.266, 436.262 19.283, 432.127 24.093 M 274.364 26.981 C 272.090 27.993, 269.921 29.318, 269.545 29.927 C 269.169 30.535, 268.474 30.793, 267.999 30.500 C 266.977 29.868, 264 33.841, 264 35.838 C 264 36.940, 264.553 36.868, 266.656 35.489 C 268.560 34.242, 271.131 33.788, 275.730 33.888 C 283.813 34.063, 284.354 33.692, 282.034 29.560 C 280.993 27.707, 280.410 25.923, 280.738 25.596 C 281.916 24.417, 278.418 25.178, 274.364 26.981 M 289.760 27.591 C 291.552 29.004, 292.788 30.535, 292.505 30.992 C 291.976 31.849, 296.681 31.653, 297.551 30.782 C 298.365 29.969, 290.525 24.999, 288.446 25.011 C 286.854 25.020, 287.094 25.490, 289.760 27.591 M 302.278 26.250 C 299.920 29.299, 300.042 29.739, 303.071 29.119 C 304.737 28.779, 306.077 28.163, 306.050 27.750 C 306.022 27.337, 306 26.550, 306 26 C 306 24.585, 303.433 24.757, 302.278 26.250 M 310.286 26.250 C 310.535 26.938, 310.044 28.297, 309.195 29.272 C 307.781 30.894, 307.903 31.317, 310.645 34.272 C 312.292 36.047, 314.406 38.737, 315.343 40.250 C 316.280 41.763, 317.552 43, 318.170 43 C 318.787 43, 321.590 44.511, 324.396 46.359 C 327.203 48.206, 331.167 50.498, 333.204 51.451 C 335.241 52.404, 338.391 55.189, 340.204 57.639 C 347.085 66.940, 346.653 66.533, 348.240 65.215 C 349.492 64.177, 349.026 63.287, 345.105 59.224 C 342.572 56.600, 337.575 50.889, 334 46.534 C 323.300 33.497, 320.710 30.798, 316.054 27.832 C 311.223 24.755, 309.581 24.304, 310.286 26.250 M 408.007 26.893 C 405.803 27.506, 405.554 28.045, 405.855 31.543 C 406.284 36.537, 407.018 36.966, 415.158 36.985 L 421.817 37 418.194 31.500 C 414.477 25.855, 413.433 25.383, 408.007 26.893 M 127.305 28.733 C 125.548 29.705, 120.236 33.993, 115.499 38.261 C 110.763 42.530, 104.725 47.119, 102.080 48.459 L 97.273 50.895 99.290 61.198 C 100.400 66.864, 101.421 71.644, 101.558 71.821 C 102.260 72.721, 116.008 67.702, 119.020 65.447 C 129.806 57.372, 139.673 55.635, 148.851 60.195 C 154.087 62.797, 158.676 69.226, 159.670 75.355 C 161.080 84.042, 147.476 102.542, 137.180 105.941 C 134.881 106.699, 133 107.477, 133 107.670 C 133 107.862, 135.404 111.277, 138.341 115.260 C 145.562 125.047, 147.574 128.368, 155.448 143.500 C 163.261 158.516, 162.941 158.130, 169.500 160.443 C 175.402 162.524, 184.576 167.881, 191.340 173.197 C 199.223 179.392, 198.957 177.536, 190.898 170.110 C 171.079 151.849, 170.617 140.109, 188.968 121.156 C 200.194 109.563, 209.391 105.438, 235.160 100.441 L 243.819 98.762 245.503 94.352 C 246.429 91.927, 248.984 87.669, 251.180 84.891 C 253.376 82.113, 254.894 79.561, 254.553 79.220 C 254.213 78.879, 248.313 78.480, 241.442 78.332 C 222.544 77.926, 216.681 76.057, 211.297 68.724 C 204.648 59.666, 205.369 52.024, 213.960 40.500 L 217.687 35.500 207.594 35.402 C 199.812 35.326, 196.126 34.795, 191.500 33.083 C 179.847 28.771, 177.468 28.767, 173.178 33.057 C 168.624 37.612, 162.868 39.377, 155.555 38.464 C 151.615 37.971, 149.480 38.218, 147.123 39.436 C 140.918 42.645, 131.522 37.341, 130.822 30.233 L 130.500 26.966 127.305 28.733 M 234.500 28.306 C 230.311 29.973, 225.014 33.337, 225.006 34.334 C 225.003 34.793, 222.998 37.718, 220.552 40.834 C 212.855 50.636, 211.510 56.121, 214.945 63.687 C 216.554 67.232, 217.509 68.054, 221.173 69.050 C 223.553 69.697, 226.668 70.578, 228.096 71.007 C 229.525 71.437, 232.802 71.551, 235.380 71.261 C 239.852 70.757, 239.991 70.648, 238.409 68.899 C 236.776 67.095, 236.808 66.488, 238.853 60.500 C 239.416 58.850, 240.442 55.475, 241.133 53 C 241.824 50.525, 243.201 47.427, 244.194 46.115 C 248.405 40.553, 244.713 26.852, 239.059 27.056 C 238.201 27.087, 236.150 27.650, 234.500 28.306 M 453.986 30.034 C 453.295 31.703, 451.680 33.893, 450.399 34.901 C 449.117 35.909, 448.314 36.980, 448.614 37.280 C 448.914 37.581, 448.378 39.020, 447.422 40.479 L 445.684 43.131 450.092 42.716 C 453.909 42.356, 454.520 41.979, 454.651 39.900 C 454.735 38.580, 454.882 37.275, 454.978 37 C 455.195 36.381, 455.642 34.459, 456.549 30.250 C 457.446 26.090, 455.681 25.941, 453.986 30.034 M 460.435 30.769 C 459.652 34.513, 459.451 35.360, 459.014 36.750 C 458.885 37.163, 458.849 38.425, 458.936 39.556 C 459.139 42.230, 455.372 46.996, 453.194 46.820 C 450.216 46.579, 448 46.978, 448.015 47.750 C 448.054 49.666, 449.861 51.203, 451.138 50.407 C 451.887 49.940, 453.365 49.423, 454.422 49.259 C 455.478 49.095, 456.873 48.521, 457.520 47.984 C 458.322 47.318, 459.228 47.594, 460.366 48.852 C 461.284 49.866, 463.265 50.791, 464.768 50.907 C 473.776 51.599, 473.340 51.734, 474.454 47.891 C 476.149 42.045, 477.778 40.625, 480.641 42.501 C 482.550 43.751, 483 43.785, 483 42.678 C 483 40.755, 486.288 37.999, 488.579 38.004 C 489.635 38.006, 493.875 39.340, 498 40.969 C 507.974 44.908, 509.630 44.879, 510.304 40.750 C 510.905 37.071, 508.659 34.398, 504.124 33.393 C 502.681 33.074, 500.068 32.173, 498.317 31.391 C 492.973 29.005, 479.352 27.471, 475.589 28.832 C 471.162 30.432, 465.870 30.297, 463.330 28.519 C 461.312 27.105, 461.180 27.209, 460.435 30.769 M 391.162 31.958 C 384.930 34.080, 385.104 33.927, 381.076 40.823 C 377.099 47.630, 378.717 47.371, 390.858 39.254 C 395.454 36.181, 399.842 33.667, 400.608 33.667 C 402.869 33.667, 402.196 31.286, 399.750 30.630 C 396.953 29.881, 397.518 29.793, 391.162 31.958 M 514.566 39.189 C 513.270 43.256, 513.433 47, 514.925 47.416 C 518.878 48.519, 527 49.103, 527 48.284 C 527 45.388, 515.315 36.841, 514.566 39.189 M 299 42.794 C 296.525 43.700, 294.375 44.504, 294.221 44.582 C 294.068 44.660, 295.724 47.824, 297.902 51.612 C 307.382 68.101, 311.095 88.621, 307.628 105.357 C 306.733 109.678, 306 114.774, 306 116.681 C 306 118.587, 304.839 123.602, 303.420 127.824 C 302.001 132.046, 300.244 140.038, 299.514 145.585 C 298.352 154.421, 297.540 156.936, 292.964 165.880 C 288.291 175.013, 287.755 176.711, 287.874 181.998 C 288.026 188.732, 286.211 194.859, 281.891 202.185 C 278.960 207.156, 278.946 207.245, 281.199 206.531 C 293.330 202.688, 310.734 206.637, 319.750 215.278 C 322.671 218.077, 323 218.186, 323 216.351 C 323 209.108, 333.483 209.962, 334.188 217.263 C 334.444 219.922, 334.972 220.555, 337.146 220.806 C 341.036 221.257, 343.748 224.573, 342.223 227.014 C 340.873 229.176, 341.656 229.401, 354.500 230.539 C 360.781 231.095, 365.527 231.876, 372.925 233.571 C 375.033 234.053, 375.180 233.922, 374.052 232.563 C 373.339 231.703, 371.268 231, 369.450 231 C 367.147 231, 365.569 230.268, 364.245 228.584 C 362.902 226.877, 361.928 226.433, 360.922 227.069 C 354.638 231.046, 343.474 222.800, 342.356 213.355 C 341.810 208.749, 342.017 208.043, 344.826 204.914 C 352.746 196.092, 356.199 190.982, 359.587 183.067 C 365.711 168.756, 368.663 163.531, 373.804 157.895 C 376.511 154.928, 379.965 150.048, 381.481 147.050 C 385.687 138.732, 393.439 131.951, 405.315 126.203 C 421.080 118.573, 443.566 111.956, 453.621 111.987 L 457.742 112 456.828 107.250 C 456.325 104.638, 456.200 99.930, 456.550 96.790 C 457.261 90.417, 455.725 84.514, 450.847 74.878 C 449.282 71.785, 447.345 67.395, 446.543 65.121 C 445.741 62.848, 443.742 59.303, 442.102 57.244 C 440.462 55.185, 438.590 51.362, 437.941 48.750 C 436.605 43.367, 436.802 43.423, 426.965 45.644 C 420.575 47.087, 418.328 47.134, 408.592 46.024 L 397.500 44.760 392.387 48.130 C 389.575 49.984, 385.930 52.228, 384.288 53.117 C 381.609 54.567, 381.246 55.351, 380.758 60.730 C 379.729 72.080, 372.560 83.110, 365.331 84.466 C 356.403 86.141, 344.242 78.540, 336.413 66.393 C 334.380 63.239, 331.744 60.632, 329.520 59.577 C 327.539 58.637, 324.475 56.607, 322.709 55.066 C 320.944 53.525, 317.182 50.843, 314.349 49.107 C 311.515 47.370, 308.467 44.836, 307.575 43.475 C 305.703 40.618, 305.082 40.568, 299 42.794 M 486.765 50.452 C 486.485 51.912, 486.857 53.466, 487.639 54.116 C 488.757 55.043, 488.884 54.643, 488.356 51.872 C 487.529 47.539, 487.352 47.380, 486.765 50.452 M 282.145 53.727 C 282.013 57.221, 282.539 58.851, 284.577 61.274 C 286.553 63.622, 287.038 65.058, 286.599 67.255 C 286.129 69.603, 286.564 70.604, 288.913 72.580 C 297.538 79.838, 299.215 93.787, 292.581 103.099 C 291.249 104.970, 289.229 108.300, 288.092 110.500 C 286.956 112.700, 284.134 116.975, 281.822 120 C 272.781 131.827, 266 146.799, 266 154.932 C 266 161.061, 268.793 172.237, 270.834 174.279 C 277.975 181.420, 290.341 155.134, 291.430 130.500 C 291.742 123.431, 292.543 119.569, 295.164 112.500 C 298.341 103.930, 298.496 102.879, 298.412 90.500 C 298.326 77.950, 298.191 77.154, 294.505 67.500 C 288.134 50.816, 282.493 44.530, 282.145 53.727 M 531.450 51.915 C 530.928 52.419, 529.519 52.981, 528.320 53.165 C 526.395 53.461, 526.280 53.760, 527.336 55.714 C 528.529 57.923, 528.540 57.920, 531.626 54.464 C 534.286 51.486, 534.137 49.326, 531.450 51.915 M 454.244 54.250 C 454.769 55.849, 460.861 60, 462.683 60 C 463.728 60, 463.824 59.539, 463.070 58.131 C 462.520 57.104, 462.342 55.991, 462.674 55.659 C 463.432 54.902, 458.553 53, 455.852 53 C 454.685 53, 454.006 53.527, 454.244 54.250 M 498 54.558 C 498 55.414, 500.425 61.602, 503.389 68.308 C 512.041 87.885, 513.990 95.854, 515.542 118 C 517.084 140.022, 508.289 159.556, 487.338 180.641 L 478.176 189.862 477.632 201.181 C 477.333 207.406, 476.806 214.542, 476.460 217.037 C 475.995 220.402, 476.391 223.116, 477.996 227.537 C 479.185 230.817, 480.686 234.982, 481.329 236.793 C 482.339 239.634, 482.843 240, 485 239.456 C 494.684 237.013, 507.458 236.341, 514.250 237.919 L 518 238.789 518.044 235.145 C 518.102 230.279, 519.937 225.404, 524.772 217.262 C 530.106 208.279, 532.393 200.979, 531.708 195.119 C 530.898 188.196, 531.863 185.178, 536.397 180.446 C 539.258 177.460, 541.885 175.806, 545.017 175.017 C 550.845 173.550, 553.496 169.150, 555.510 157.605 C 556.318 152.969, 558.164 145.893, 559.611 141.882 C 562.518 133.821, 562.475 124.944, 559.508 120.708 C 558.416 119.149, 558 115.883, 558 108.865 L 558 99.176 551.750 94.709 C 535.877 83.367, 521.005 66.251, 521.001 59.321 C 521 58.672, 518.413 57.631, 515.250 57.007 C 512.087 56.384, 507.181 55.227, 504.346 54.437 C 497.970 52.659, 498 52.659, 498 54.558 M 370.525 57.589 C 369.088 60.617, 369.022 61.397, 370.144 62.096 C 371.178 62.740, 371.648 61.938, 372.123 58.721 C 372.923 53.297, 372.652 53.106, 370.525 57.589 M 481.637 56.503 C 480.300 59.987, 471.857 64, 465.863 64 C 462.703 64, 459.835 64.457, 459.490 65.016 C 459.144 65.575, 458.330 65.734, 457.681 65.369 C 457.031 65.005, 458.193 66.484, 460.261 68.657 C 463.199 71.742, 464.326 74.018, 465.409 79.054 C 467.194 87.348, 470.730 93.718, 473.999 94.528 C 476.845 95.234, 481 98.778, 481 100.500 C 481 101.133, 479.925 102.661, 478.612 103.895 C 477.298 105.129, 476.418 106.895, 476.655 107.819 C 476.893 108.744, 476.200 111.300, 475.115 113.500 L 473.142 117.500 475.908 119.695 C 478.630 121.855, 479.195 124.258, 477.590 126.854 C 477.055 127.720, 477.928 129.430, 480.135 131.836 C 481.983 133.851, 483.830 135.924, 484.240 136.443 C 484.678 136.997, 486.211 136.481, 487.953 135.193 C 491.446 132.610, 494.699 132.400, 497.779 134.558 C 500.284 136.312, 502 135.736, 502 133.141 C 502 130.731, 504.077 128.819, 505.454 129.962 C 507.192 131.404, 507.147 117.132, 505.374 104.583 C 502.938 87.341, 497.968 73.328, 491.478 65.408 C 489.565 63.074, 488 60.694, 488 60.121 C 488 58.980, 484.051 55, 482.918 55 C 482.531 55, 481.954 55.676, 481.637 56.503 M 532.523 57.974 C 530.517 60.192, 531.418 63.718, 535.228 68.562 L 537.179 71.043 539.192 68.484 C 540.887 66.329, 541.449 66.128, 542.757 67.212 C 545.032 69.099, 541.907 63.231, 538.447 59.120 C 535.363 55.454, 534.887 55.362, 532.523 57.974 M 364.501 63.998 C 364.118 64.618, 364.523 65.921, 365.402 66.892 C 366.281 67.863, 367 69.136, 367 69.722 C 367 71.557, 369.873 71.984, 371.471 70.386 C 373.577 68.280, 373.389 67.253, 370.750 66.449 C 369.512 66.072, 367.757 65.112, 366.849 64.317 C 365.670 63.283, 364.999 63.192, 364.501 63.998 M 130.293 65.410 C 128.529 66.212, 124.425 68.674, 121.174 70.882 C 117.923 73.090, 114.058 75.198, 112.585 75.568 C 111.112 75.938, 110.135 76.468, 110.414 76.747 C 110.692 77.026, 110.273 78.506, 109.481 80.037 C 107.135 84.573, 109.141 88.703, 114.343 90.046 C 116.629 90.636, 119.212 91.324, 120.083 91.574 C 120.954 91.824, 123.429 91.415, 125.583 90.664 C 130.199 89.056, 131.415 89.352, 135.785 93.147 C 139.980 96.790, 141.511 96.735, 145.179 92.808 C 154.047 83.315, 155.280 70.778, 147.804 66.110 C 144.547 64.075, 134.144 63.660, 130.293 65.410 M 77.462 76.250 C 78.981 96.131, 78.828 98.229, 75.738 99.956 C 73.207 101.371, 72.709 101.347, 69.765 99.669 C 67.654 98.465, 66.427 98.218, 66.184 98.948 C 65.981 99.558, 63.438 102.857, 60.534 106.279 C 57.630 109.701, 54.956 113.468, 54.591 114.650 C 54.227 115.833, 52.074 119.658, 49.807 123.150 C 40.224 137.914, 37.024 152.003, 36.801 180.412 C 36.661 198.316, 36.815 200.058, 39.281 208.500 C 43.300 222.251, 50.446 242.033, 53.009 246.500 C 58.529 256.120, 75.876 281.120, 81.669 287.804 C 85.151 291.821, 88 295.878, 88 296.819 C 88 299.165, 91.655 305.813, 95.128 309.785 C 96.707 311.591, 98.010 314.066, 98.022 315.285 C 98.077 320.801, 106.543 333.364, 122.034 350.917 L 130.010 359.954 130.421 366.727 C 130.647 370.452, 131.157 377.629, 131.554 382.677 C 132.136 390.072, 131.960 392.644, 130.646 395.927 C 128.380 401.590, 130.590 401.181, 133.116 395.470 C 138.546 383.195, 139.541 358, 134.596 358 C 131.156 358, 126.041 350.306, 122.630 340 C 115.792 319.344, 111.026 310.903, 100.348 300.535 C 94.137 294.505, 94 294.258, 94 289.114 C 94 278.354, 87.558 255.103, 80.656 240.954 C 78.095 235.704, 76 230.696, 76 229.826 C 76 227.708, 78.881 225.428, 81.085 225.801 C 82.493 226.040, 83.002 225.172, 83.533 221.626 C 84.842 212.900, 79.218 202.772, 66.337 190.660 C 61.752 186.348, 58 182.255, 58 181.565 C 58 178.999, 61.798 176.758, 65.427 177.181 C 69.868 177.700, 70 177.339, 70 164.641 C 70 154.294, 71.285 150, 74.382 150 C 76.442 150, 79.996 154.431, 80.048 157.064 C 80.107 160.071, 84.409 152.075, 89.065 140.302 C 92.050 132.755, 96.145 127, 98.532 127 C 102.139 127, 104.209 133.873, 101.900 138.186 C 101.016 139.838, 101.066 140.084, 102.150 139.442 C 106.586 136.813, 109.977 133.504, 110.876 130.927 C 113.017 124.783, 115.705 126.013, 125.246 137.500 C 135.898 150.326, 159.789 173.871, 164.659 176.342 C 173.296 180.725, 183.063 184.124, 186.113 183.808 C 191.480 183.253, 178.733 174.268, 166.687 170.116 C 155.570 166.284, 155.780 166.499, 147.953 151 C 136.951 129.214, 128.341 118.155, 112.892 105.969 C 105.812 100.384, 103.972 98.399, 103.864 96.227 C 103.731 93.575, 103.717 93.568, 103.351 96 C 102.997 98.344, 101.481 104.867, 98.989 114.763 C 97.882 119.159, 92.746 126, 90.551 126 C 89.869 126, 88.477 125.079, 87.458 123.954 C 85.658 121.964, 85.657 121.722, 87.447 115.204 C 89.434 107.971, 90.687 88.478, 89.555 82.440 C 88.871 78.793, 88.845 78.776, 87.323 80.949 L 85.784 83.146 83.510 81.009 C 82.063 79.650, 80.810 76.711, 80.067 72.936 C 78.207 63.481, 76.639 65.475, 77.462 76.250 M 353.861 69.947 C 356.635 72.360, 360.453 72.974, 357.964 70.607 C 357.159 69.841, 355.375 68.918, 354 68.554 L 351.500 67.894 353.861 69.947 M 550 77.800 C 550 78.790, 549.550 80.050, 549 80.600 C 548.332 81.268, 549.498 82.329, 552.500 83.787 C 557.854 86.389, 557.949 86.148, 553.830 80.413 C 550.267 75.451, 550 75.269, 550 77.800 M 273.180 79.686 C 269.017 81.158, 268.935 81.266, 270.930 82.663 C 273.650 84.569, 273.550 87.134, 270.651 89.858 C 268.088 92.266, 264.719 91.777, 262.095 88.614 C 260.904 87.180, 260.581 87.263, 258.859 89.452 C 253.706 96.003, 252.617 104.234, 256.228 109.346 C 259.887 114.526, 262.225 116.082, 264 114.518 C 264.825 113.792, 267.388 112.639, 269.697 111.956 C 273.555 110.815, 273.848 110.492, 273.338 107.940 C 272.862 105.561, 273.582 104.391, 278.392 99.733 C 283.653 94.637, 284 94.008, 284 89.552 C 284 83.947, 281.465 77.967, 279.136 78.079 C 278.236 78.122, 275.556 78.845, 273.180 79.686 M 71.215 91.588 C 68.082 94.740, 68.021 94.941, 69.899 95.946 C 73.870 98.071, 75 97.307, 75 92.500 C 75 90.025, 74.888 88.064, 74.750 88.142 C 74.612 88.220, 73.022 89.770, 71.215 91.588 M 562.179 90.086 C 561.194 91.662, 560.567 91.839, 558.977 90.988 C 555.987 89.388, 556.603 90.460, 560.290 93.272 C 564.717 96.649, 567.656 95.126, 565.036 90.813 C 563.460 88.218, 563.360 88.193, 562.179 90.086 M 472.956 102.250 C 471.626 104.037, 470.672 106.113, 470.838 106.862 C 471.003 107.610, 470.151 109.275, 468.943 110.561 C 467.450 112.150, 466.903 113.712, 467.234 115.443 C 467.963 119.255, 465.814 120.362, 458.199 120.096 C 452.944 119.913, 451.758 120.125, 452.699 121.080 C 453.631 122.027, 453.584 122.905, 452.486 125.027 C 451.206 127.502, 451.261 127.926, 453.068 129.562 C 454.608 130.956, 454.998 132.404, 454.781 135.933 C 454.469 140.998, 454.140 140.854, 462.772 139.434 C 466.170 138.875, 467.455 139.102, 469.046 140.542 C 470.580 141.930, 471.322 142.078, 472.224 141.176 C 472.871 140.529, 474.858 140, 476.641 140 C 480.640 140, 481.214 139.179, 479.448 135.987 C 478.507 134.289, 478.060 134.016, 478.035 135.128 C 477.942 139.404, 474.863 139.606, 471.369 135.564 C 467.512 131.102, 467.145 128.713, 470.009 126.707 C 471.879 125.397, 471.921 125.027, 470.623 121.348 C 469.361 117.773, 469.412 117.020, 471.155 113.448 C 472.214 111.277, 472.838 108.520, 472.540 107.323 C 472.157 105.782, 472.728 104.572, 474.499 103.179 C 475.875 102.097, 477 100.714, 477 100.106 C 477 98.107, 475.416 98.946, 472.956 102.250 M 567.439 104.374 C 567.921 108.301, 568.590 109.744, 569.504 108.829 C 569.781 108.552, 569.323 106.565, 568.486 104.413 L 566.964 100.500 567.439 104.374 M 230.866 110.991 C 211.141 115.102, 203.273 118.534, 195.660 126.348 C 180.204 142.212, 181.555 151.950, 201.514 168.544 L 209.100 174.850 211.988 173.192 C 214.756 171.603, 214.974 171.627, 217.252 173.767 C 218.559 174.995, 220.512 176, 221.592 176 C 224.492 176, 227.756 178.642, 230.007 182.812 C 231.912 186.341, 231.970 186.371, 231.357 183.500 C 229.442 174.531, 222.442 167.325, 208.043 159.500 C 190.530 149.982, 189.636 147.983, 198.317 137.761 C 204.644 130.313, 208.175 127.994, 210.741 129.602 C 213.513 131.339, 213.412 134.771, 210.476 138.621 C 209.003 140.552, 207.998 142.332, 208.243 142.576 C 209.809 144.142, 226.738 135.598, 233.949 129.602 C 236.947 127.110, 240.663 124.794, 242.208 124.454 C 245.652 123.698, 247 121.362, 247 116.148 C 247 108.136, 246.040 107.829, 230.866 110.991 M 478.699 113.125 C 475.810 116.817, 476.167 119.270, 479.990 121.993 C 482.584 123.840, 482.822 123.853, 484.280 122.224 C 486.705 119.514, 486.861 113.103, 484.542 111.407 C 481.878 109.459, 481.476 109.577, 478.699 113.125 M 571.443 111.957 C 570.876 112.524, 569.194 113.089, 567.706 113.212 C 564.628 113.467, 564.398 114.563, 566.444 119.216 C 567.239 121.022, 568.165 124.221, 568.503 126.323 C 569.486 132.433, 571.715 129.222, 572.530 120.524 C 573.297 112.343, 573.044 110.356, 571.443 111.957 M 270.401 120.975 C 267.124 122.300, 263.654 128.676, 265.892 129.261 C 267.127 129.584, 268.328 128.355, 270.194 124.855 C 271.618 122.185, 272.719 120.029, 272.641 120.063 C 272.564 120.098, 271.555 120.509, 270.401 120.975 M 439.500 122.675 C 434.738 123.272, 424 126.232, 424 126.948 C 424 127.307, 424.492 128.092, 425.093 128.693 C 426.412 130.012, 424.978 133.188, 421.263 137.175 C 418.509 140.129, 417.269 140.012, 412.281 136.325 C 408.442 133.487, 404.710 133.986, 402.303 137.660 C 400.825 139.916, 400.862 140.224, 402.861 142.352 C 404.037 143.604, 405 145.457, 405 146.469 C 405 148.222, 405.092 148.227, 406.922 146.570 C 408.641 145.015, 410.301 144.908, 422.584 145.559 C 435.351 146.235, 436.277 146.165, 435.662 144.562 C 435.298 143.613, 435.675 141.874, 436.500 140.696 C 437.325 139.519, 438 137.851, 438 136.990 C 438 136.129, 440.284 133.192, 443.075 130.462 C 451.815 121.917, 451.474 121.175, 439.500 122.675 M 417.112 131.265 C 414.217 132.763, 414.148 134.141, 416.918 135.165 C 418.579 135.780, 419.286 135.348, 420.518 132.965 C 422.247 129.621, 421.251 129.124, 417.112 131.265 M 95.934 133.750 C 95.374 135.262, 94.183 138.525, 93.286 141 C 92.389 143.475, 91.192 146.175, 90.626 147 C 89.802 148.201, 89.860 148.267, 90.920 147.328 C 91.648 146.684, 92.864 146.394, 93.622 146.685 C 95.877 147.551, 98.395 146.182, 97.202 144.738 C 96.496 143.883, 96.611 142.262, 97.575 139.500 C 100.022 132.483, 98.445 126.958, 95.934 133.750 M 445.492 133.005 C 443.955 134.013, 442.144 136.450, 441.467 138.419 L 440.236 142 443.463 142 C 447.226 142, 449.717 139.666, 450.584 135.328 C 451.364 131.432, 449.315 130.497, 445.492 133.005 M 206.275 133.654 C 205.602 133.927, 203.239 136.425, 201.025 139.205 C 196.216 145.246, 195.726 149.099, 199.547 150.839 C 202.985 152.406, 202.908 152.472, 202.404 148.412 C 202.041 145.484, 202.607 143.941, 205.480 140.028 C 209.883 134.030, 210.124 132.095, 206.275 133.654 M 240 136.109 C 238.075 137.264, 235.600 139.021, 234.500 140.012 C 232.267 142.025, 227.412 144.599, 218.560 148.464 L 212.621 151.058 216.560 153.657 C 222.346 157.475, 234.870 169.959, 236.969 174 C 237.969 175.925, 239.735 178.357, 240.894 179.405 C 242.052 180.453, 243 181.915, 243 182.655 C 243 184.643, 244.374 184.295, 246.826 181.686 C 249.520 178.817, 249.519 178.470, 246.799 173.334 L 244.593 169.169 247.296 163.647 C 248.783 160.611, 250 157.213, 250 156.096 C 250 154.980, 251.547 152.520, 253.437 150.630 C 255.327 148.739, 258.232 144.502, 259.893 141.213 L 262.912 135.232 259.831 134.616 C 252.952 133.240, 243.606 133.944, 240 136.109 M 488.139 139.033 C 486.841 140.115, 485.208 141, 484.512 141 C 483.815 141, 482.685 141.675, 482 142.500 C 481.315 143.325, 479.323 144, 477.574 144 C 470.796 144, 459.641 159.977, 457.536 172.700 L 456.841 176.900 460.671 176.323 C 463.129 175.953, 465.780 174.528, 468.075 172.342 L 471.649 168.936 474.232 170.968 C 477.506 173.543, 477.318 173.565, 482.538 169.974 C 489.375 165.270, 498.330 151.682, 500.349 142.948 C 501.497 137.981, 492.763 135.181, 488.139 139.033 M 396.474 141.971 C 398.199 143.878, 398.155 144.059, 395.129 147.506 C 390.640 152.619, 391.819 155.748, 397.172 152.927 C 401.809 150.484, 402.313 146.404, 398.455 142.545 C 395.467 139.558, 393.871 139.095, 396.474 141.971 M 110.794 144.894 C 103.697 149.566, 90.140 162.248, 87.289 166.882 C 82.926 173.972, 84.652 188.587, 90.698 195.757 C 101.672 208.771, 102.679 221.083, 93.859 234.398 L 90.813 238.998 94.877 249.249 C 99.890 261.893, 101.544 268.526, 103.044 282 C 104.632 296.268, 109.029 301.170, 115.913 296.348 C 119.097 294.119, 132.320 289.030, 138.562 287.633 C 141.347 287.010, 145.094 285.262, 146.889 283.750 C 148.685 282.238, 150.964 281, 151.954 281 C 152.944 281, 158.197 279.632, 163.627 277.960 C 172.907 275.102, 174.400 274.928, 188.500 275.066 C 196.750 275.147, 205.597 275.538, 208.159 275.934 C 212.684 276.635, 212.835 276.575, 213.378 273.862 C 213.725 272.124, 213.004 268.592, 211.468 264.512 C 208.028 255.372, 208.229 253.738, 213.488 248.116 C 215.957 245.477, 218.673 241.344, 219.524 238.931 C 220.376 236.518, 222.892 231.171, 225.116 227.047 C 229.677 218.591, 229.761 213.114, 225.451 205.237 C 225.372 205.092, 223.677 205.655, 221.686 206.487 C 219.694 207.319, 216.855 208, 215.378 208 C 212.723 208, 194.036 199.098, 190.855 196.317 C 189.950 195.526, 184.964 193.828, 179.776 192.543 C 163.789 188.585, 161.918 187.268, 137.886 163.060 L 116.272 141.287 110.794 144.894 M 240.687 146.805 C 237.368 150.269, 237.315 152.097, 240.428 155.694 L 242.855 158.500 246.428 155.054 C 248.727 152.836, 250 150.680, 250 149.004 C 250 143.497, 244.990 142.314, 240.687 146.805 M 571.092 149.111 C 567.618 150.688, 564.375 151.732, 563.887 151.430 C 563.399 151.129, 562.997 151.246, 562.992 151.691 C 562.956 155.639, 560.515 166.030, 558.866 169.263 C 557.298 172.337, 557.053 173.781, 557.827 175.392 C 558.385 176.551, 559.977 180.089, 561.366 183.253 C 563.618 188.381, 573.104 200, 575.039 200 C 576.080 200, 582 194.379, 582 193.391 C 582 192.947, 583.553 190.990, 585.452 189.042 C 590.746 183.609, 593.308 172.048, 591.001 164.004 C 589.722 159.545, 583.853 151.007, 580.221 148.321 L 577.410 146.243 571.092 149.111 M 243.011 149.487 C 241.229 151.634, 242.519 154.644, 244.512 152.990 C 246.116 151.659, 246.564 148, 245.122 148 C 244.640 148, 243.689 148.669, 243.011 149.487 M 450.500 150.240 C 445.534 151.990, 441.828 152.393, 429 152.578 L 413.500 152.802 407.340 158.651 C 403.951 161.868, 400.472 166.223, 399.608 168.328 C 397.876 172.549, 386.413 184.963, 381.371 188.080 C 378.948 189.577, 378.003 191.022, 377.501 193.996 C 377.135 196.161, 375.523 199.584, 373.918 201.603 C 372.313 203.623, 371 206.093, 371 207.092 C 371 208.091, 369.926 211.867, 368.614 215.482 C 367.302 219.098, 366.775 221.601, 367.444 221.046 C 368.313 220.325, 369.477 220.888, 371.518 223.018 C 373.089 224.658, 374.895 226, 375.532 226 C 378.203 226, 380.086 229.505, 378.524 231.570 C 376.528 234.209, 376.646 234.905, 378.985 234.294 C 380.077 234.008, 381.764 234.119, 382.735 234.541 C 383.706 234.962, 385.259 235.215, 386.187 235.101 C 387.115 234.988, 389.786 235.871, 392.122 237.062 C 395.254 238.660, 398.514 239.297, 404.533 239.487 C 413.727 239.777, 419.445 241.284, 422.738 244.286 C 425.305 246.626, 424.070 249.475, 420.921 248.475 C 418.457 247.693, 415.167 249.924, 415.712 252.008 C 415.956 252.941, 417.721 254.450, 419.635 255.363 L 423.114 257.022 426.491 253.441 C 429.354 250.405, 430.175 250.023, 431.879 250.935 C 434.857 252.529, 435.388 253.891, 435.106 259.210 C 434.852 263.997, 434.865 264.019, 437.320 262.900 C 439.918 261.716, 440.197 260.147, 438.230 257.777 C 437.324 256.685, 437.322 256.078, 438.224 255.176 C 439.916 253.484, 442.517 253.720, 447.216 255.990 L 451.336 257.981 454.516 255.556 C 457.529 253.257, 457.729 252.685, 458.354 244.551 C 458.970 236.542, 458.810 235.442, 455.942 228.007 C 448.711 209.256, 445.028 189.111, 446.833 178.184 C 448.934 165.460, 451.672 158.357, 457.599 150.250 C 459.688 147.393, 458.585 147.391, 450.500 150.240 M 254.667 153.667 C 254.300 154.033, 254 155.205, 254 156.271 C 254 157.337, 252.875 160.449, 251.500 163.187 C 248.437 169.286, 248.426 169.833, 251.292 173.717 C 253.548 176.776, 253.626 176.798, 256.378 175.162 C 258.957 173.628, 259.127 173.152, 258.575 169 C 258.246 166.525, 257.694 161.912, 257.349 158.750 C 256.753 153.279, 256.166 152.167, 254.667 153.667 M 74 162.168 L 74 170.455 76.539 167.916 C 78.957 165.498, 79.004 165.238, 77.545 162.439 C 76.702 160.822, 76.010 158.514, 76.006 157.309 C 76.003 156.104, 75.550 154.840, 75 154.500 C 74.364 154.107, 74 156.899, 74 162.168 M 387 155.674 C 387 156.136, 384.508 159.372, 381.463 162.863 C 375.850 169.300, 372.648 174.744, 368.931 184.175 L 366.875 189.390 371.780 184.802 C 374.478 182.279, 378.053 179.507, 379.724 178.643 C 381.395 177.779, 383.964 175.643, 385.434 173.896 L 388.106 170.720 385.384 167.879 C 382.184 164.538, 383.050 160.846, 387.511 158.813 C 388.909 158.176, 389.900 157.199, 389.713 156.640 C 389.286 155.359, 387 154.545, 387 155.674 M 468.062 176.436 C 465.450 179.131, 463.742 179.927, 459.404 180.469 L 454 181.144 454 187.546 C 454 193.644, 454.142 194.022, 456.991 195.495 C 461.598 197.878, 463.694 201.576, 461.690 203.790 C 460.258 205.372, 460.258 205.823, 461.693 208.786 C 463.161 211.817, 463.143 212.184, 461.437 214.069 C 459.662 216.031, 459.661 216.243, 461.427 220.798 C 462.430 223.384, 463.842 227.075, 464.566 229 C 465.291 230.925, 466.306 232.405, 466.822 232.290 C 468.837 231.839, 471.476 236.026, 470.301 237.809 C 469.688 238.739, 468.713 239.394, 468.136 239.264 C 466.700 238.942, 465.652 245.138, 466.493 248.970 C 466.975 251.164, 467.526 251.818, 468.340 251.163 C 468.978 250.650, 471.007 249.908, 472.849 249.514 C 475.282 248.994, 475.897 248.497, 475.099 247.699 C 474.494 247.094, 474 244.821, 474 242.646 C 474 240.422, 472.830 236.245, 471.326 233.096 C 468.442 227.062, 468.549 228.807, 469.218 198.928 C 469.488 186.905, 469.623 186.194, 472.301 182.678 C 473.841 180.655, 475.684 179, 476.396 179 C 477.108 179, 478.547 178.036, 479.595 176.858 C 481.490 174.728, 481.488 174.724, 479.306 176.064 C 477.434 177.214, 476.847 177.183, 475.306 175.858 C 471.991 173.006, 471.336 173.058, 468.062 176.436 M 265.535 176.961 C 263.775 178.906, 263.820 179.154, 267.112 185.602 C 271.165 193.542, 272.007 193.995, 276.432 190.620 C 279.662 188.156, 279.791 187.826, 278.850 184.418 C 278.303 182.438, 278.084 180.224, 278.363 179.498 C 278.759 178.465, 278.184 178.374, 275.728 179.078 C 273.047 179.847, 272.204 179.612, 269.967 177.469 C 267.355 174.966, 267.342 174.964, 265.535 176.961 M 211.175 177.590 C 209.350 178.868, 209.139 179.463, 210.099 180.619 C 211.054 181.770, 210.829 182.554, 208.972 184.529 L 206.651 187 209.603 187 C 211.227 187, 213.597 186.270, 214.870 185.378 C 216.937 183.931, 217.348 183.919, 218.699 185.270 C 220.050 186.621, 219.875 187.032, 217.073 189.104 C 214.443 191.049, 214.035 191.883, 214.556 194.253 C 214.918 195.901, 214.672 197.691, 213.966 198.541 C 212.040 200.862, 214.711 200.384, 220.752 197.328 L 226.032 194.657 228.943 197.446 C 232.087 200.457, 233.014 202.420, 235.451 211.212 C 236.664 215.591, 237.392 216.787, 238.568 216.336 C 239.441 216, 241.156 216.737, 242.551 218.048 L 245 220.349 245 217.769 C 245 216.285, 243.513 213.409, 241.500 211 C 239.575 208.696, 237.950 206.291, 237.889 205.655 C 237.594 202.575, 238.327 199.341, 239.658 197.849 C 240.658 196.728, 240.784 195.985, 240.051 195.531 C 239.457 195.165, 238.047 193.053, 236.918 190.839 C 235.006 187.091, 234.743 186.923, 233.105 188.405 C 231.165 190.161, 229.458 188.864, 225.662 182.750 C 224.593 181.030, 223.084 180, 221.632 180 C 220.355 180, 218.495 179.100, 217.500 178 C 215.314 175.584, 214.147 175.508, 211.175 177.590 M 71.590 179.900 C 70.265 181.365, 68.987 181.674, 65.939 181.265 C 60.390 180.521, 60.939 181.942, 68.598 188.151 C 75.575 193.806, 84.641 206.240, 86.955 213.325 C 89.307 220.526, 86.404 230, 81.845 230 C 79.914 230, 79.474 231.623, 80.826 233.752 C 81.409 234.671, 82.307 234.272, 84.196 232.252 C 91.389 224.565, 92.392 214.816, 86.620 208.696 C 84.720 206.682, 82.615 203.339, 81.941 201.267 C 81.267 199.195, 80.104 196.612, 79.358 195.527 C 78.611 194.443, 77.997 192.193, 77.994 190.527 C 77.979 182.368, 74.533 176.649, 71.590 179.900 M 257.584 183.907 C 255.942 185.722, 256.007 186.241, 258.929 194.619 C 260.618 199.462, 262 204.918, 262 206.744 C 262 210.703, 264.248 211.990, 266.928 209.565 C 269.834 206.935, 275.451 195.890, 273.502 196.638 C 271.345 197.465, 267.693 193.889, 263.985 187.320 C 260.666 181.438, 260.094 181.134, 257.584 183.907 M 553.529 188.250 C 554.527 198.182, 555.286 199.120, 558.191 194.015 C 559.827 191.140, 559.799 190.893, 557.356 186.521 C 553.860 180.266, 552.776 180.756, 553.529 188.250 M 545.126 186.348 C 544.272 187.377, 544.480 188.125, 546.004 189.503 C 547.339 190.712, 548 192.582, 548 195.155 C 548 197.798, 548.441 199, 549.411 199 C 551.572 199, 555.844 204.651, 556.557 208.453 C 557.050 211.082, 557.619 211.766, 559.076 211.485 C 560.111 211.286, 561.228 211.560, 561.559 212.095 C 562.340 213.360, 565.515 209.240, 566.328 205.906 C 567.262 202.071, 563.236 198.354, 560.438 200.470 C 555.737 204.026, 550.032 199.674, 549.990 192.500 C 549.952 185.846, 547.801 183.126, 545.126 186.348 M 198.750 187.766 C 195.849 188.397, 196.726 189.449, 202.522 192.292 C 209.131 195.533, 208.639 195.489, 209.316 192.901 C 209.761 191.197, 209.496 190.899, 207.906 191.314 C 206.747 191.617, 204.835 190.920, 203.224 189.606 C 201.726 188.385, 199.713 187.557, 198.750 187.766 M 251.731 188.603 C 251.399 188.934, 251.570 190.369, 252.111 191.791 C 252.651 193.213, 253.005 195.305, 252.896 196.438 C 252.787 197.572, 253.247 199.849, 253.918 201.498 C 254.701 203.421, 254.903 206.528, 254.481 210.167 C 253.858 215.530, 253.966 215.932, 256.471 217.573 C 258.915 219.174, 259.246 219.183, 260.743 217.685 C 262.241 216.188, 262.230 215.911, 260.598 214.109 C 259.626 213.034, 258.597 210.208, 258.312 207.828 C 257.864 204.090, 253.196 188, 252.560 188 C 252.435 188, 252.062 188.271, 251.731 188.603 M 359.302 202.265 C 356.310 205.426, 353.509 209.894, 354.169 210.450 C 356.284 212.232, 359.078 212.941, 359.462 211.793 C 360.929 207.407, 362.944 199.610, 362.678 199.345 C 362.505 199.172, 360.986 200.486, 359.302 202.265 M 540.097 202.142 C 538.496 205.761, 538.890 206.216, 544.240 206.935 C 547.362 207.355, 548.792 208.143, 549.802 210 C 551.126 212.436, 551.146 212.411, 550.579 209 C 550.259 207.075, 549.262 205.050, 548.364 204.500 C 547.467 203.950, 545.535 202.526, 544.073 201.335 L 541.413 199.170 540.097 202.142 M 241.746 202.771 C 241.293 204.764, 243.204 209.095, 245.306 210.839 C 246.482 211.815, 246.974 211.477, 248.007 208.984 C 248.701 207.308, 249.096 205.836, 248.885 205.715 C 248.673 205.593, 247.069 204.492, 245.319 203.268 C 242.433 201.248, 242.102 201.202, 241.746 202.771 M 568.843 210.185 C 568.130 211.458, 567.067 213.400, 566.481 214.500 C 565.224 216.860, 558.516 217.308, 555.875 215.208 C 554.467 214.088, 554.179 214.285, 553.721 216.681 C 553.333 218.707, 553.724 219.819, 555.182 220.840 C 556.407 221.698, 556.983 222.958, 556.680 224.117 C 556.061 226.483, 557.568 226.556, 559.440 224.250 C 565.716 216.520, 566.393 215.908, 568.384 216.169 C 569.548 216.322, 570.500 216.168, 570.500 215.828 C 570.500 213.890, 574.392 211.081, 575.641 212.117 C 576.376 212.727, 576.751 213.595, 576.473 214.044 C 576.195 214.494, 576.425 215.144, 576.984 215.490 C 577.600 215.871, 578 214.709, 578 212.540 C 578 209.218, 577.820 209.007, 575.487 209.593 C 574.084 209.945, 572.348 209.704, 571.557 209.047 C 570.424 208.107, 569.879 208.336, 568.843 210.185 M 538.897 212.587 C 537.080 217.082, 537.202 225.626, 539.110 227.537 C 540.591 229.020, 540.682 228.750, 540.244 224.191 C 539.982 221.464, 540.319 217.564, 540.992 215.525 C 542.582 210.705, 540.716 208.088, 538.897 212.587 M 283.315 212.398 C 277.009 215.271, 275.146 225.238, 278.896 236.038 C 280.647 241.081, 281.280 241.771, 287.146 245.025 C 299.958 252.132, 302.255 252.746, 317.500 253.139 L 331.500 253.500 331.208 248 C 330.739 239.158, 329.266 235.412, 322.957 227.023 C 317.720 220.060, 316.141 218.690, 309.754 215.569 C 301.058 211.319, 288.886 209.859, 283.315 212.398 M 351.607 214.417 C 352.205 215.978, 354.511 217.254, 357.250 217.543 C 359.901 217.822, 359.389 217.239, 355.029 215.015 C 352.069 213.505, 351.198 213.353, 351.607 214.417 M 327 216.393 C 327 217.159, 327.675 218.045, 328.500 218.362 C 329.520 218.753, 330 218.308, 330 216.969 C 330 215.885, 329.325 215, 328.500 215 C 327.675 215, 327 215.627, 327 216.393 M 269.443 219.446 C 268.270 221.237, 268.112 222.376, 268.853 223.696 C 269.981 225.706, 270.443 224.955, 271.280 219.750 C 271.825 216.367, 271.497 216.313, 269.443 219.446 M 238.087 221.838 C 236.709 224.412, 229 241.989, 229 242.556 C 229 242.945, 241.776 234.118, 244.281 231.999 C 245.202 231.219, 241.103 220, 239.896 220 C 239.442 220, 238.628 220.827, 238.087 221.838 M 251 220.819 C 251 221.285, 252.890 225.143, 255.199 229.393 C 259.622 237.532, 268.844 246.703, 279.500 253.562 C 282.250 255.332, 285.537 257.898, 286.805 259.263 C 288.073 260.629, 290.773 262.456, 292.805 263.325 C 300.856 266.766, 309.744 269.948, 314.500 271.092 C 323.048 273.149, 326.394 275.254, 340.375 287.369 L 345.994 292.238 350.093 288.535 L 354.192 284.832 356.597 287.092 C 359.391 289.716, 359.642 294.942, 357.402 303.852 C 353.478 319.460, 356.536 355.123, 362.094 358.558 C 363.263 359.281, 363.227 348.711, 362.041 343.500 C 360.697 337.592, 362.168 327.515, 364.780 324.734 C 366.235 323.185, 366.739 321.717, 366.339 320.190 C 365.764 317.990, 368.236 314, 370.175 314 C 371.650 314, 379.222 319.112, 378.627 319.706 C 378.318 320.015, 378.937 321.375, 380.001 322.729 C 381.928 325.178, 381.925 325.214, 379.469 330.062 C 376.314 336.288, 376.199 342.176, 379.180 344.953 L 381.360 346.984 384.359 340.242 C 390.543 326.342, 389.194 313.428, 380.495 303.265 C 376.355 298.429, 376.296 298.010, 379.349 295.142 C 382.252 292.414, 385.954 293.432, 388.675 297.705 C 391.273 301.787, 392.226 302.137, 394.622 299.886 C 396.506 298.115, 396.633 297.484, 395.637 294.819 C 394.374 291.438, 380.085 278, 377.752 278 C 375.840 278, 371.010 274.210, 370.968 272.677 C 370.933 271.377, 364.583 267.236, 355.769 262.768 C 352.618 261.171, 349.165 258.637, 348.098 257.137 C 345.751 253.842, 341 243.291, 341 241.376 C 341 240.619, 340.512 240, 339.915 240 C 339.168 240, 339.049 242.346, 339.534 247.519 L 340.239 255.039 336.422 258.638 L 332.606 262.237 317.553 261.513 C 307.352 261.022, 301.561 260.304, 299.587 259.284 C 297.985 258.457, 294.263 256.950, 291.315 255.936 C 288.367 254.922, 283.828 252.644, 281.228 250.874 C 278.628 249.103, 275.451 246.945, 274.168 246.077 C 272.886 245.210, 268.836 240.031, 265.168 234.569 C 259.324 225.865, 251 217.786, 251 220.819 M 333.032 225.143 C 333.049 225.889, 333.724 227.374, 334.532 228.441 C 335.985 230.363, 336.015 230.363, 337.468 228.441 C 339.336 225.972, 339.368 225, 337.582 225 C 336.802 225, 335.452 224.727, 334.582 224.393 C 333.613 224.021, 333.012 224.312, 333.032 225.143 M 531.500 228 C 531.160 228.550, 530.057 229, 529.048 229 C 528.039 229, 526.992 229.579, 526.721 230.286 C 526.362 231.221, 527.152 231.464, 529.614 231.177 C 532.129 230.883, 533 230.295, 533 228.891 C 533 226.801, 532.445 226.471, 531.500 228 M 271.559 229.905 C 271.013 230.788, 273.582 236, 274.563 236 C 274.881 236, 272.974 229.840, 272.452 229.183 C 272.313 229.009, 271.912 229.334, 271.559 229.905 M 540.674 236.500 C 539.919 244.814, 542.249 246.252, 546.670 240.201 L 548.644 237.500 544.931 234 L 541.219 230.500 540.674 236.500 M 554.836 235.292 C 555.571 236.183, 555.870 237.402, 555.500 238 C 555.130 238.598, 555.376 239.748, 556.046 240.555 C 557.106 241.833, 557.429 241.795, 558.549 240.264 C 559.992 238.290, 559.111 236.661, 555.582 234.782 C 553.729 233.794, 553.647 233.850, 554.836 235.292 M 528.187 238.242 C 528.731 243.870, 533.946 242.978, 533.985 237.250 C 533.997 235.403, 533.451 235, 530.937 235 C 528.084 235, 527.895 235.223, 528.187 238.242 M 42.256 239.093 C 40.365 241.375, 40.256 241.884, 41.552 242.381 C 42.394 242.705, 43.853 244.682, 44.792 246.774 C 47.138 252, 52.290 258.059, 53.657 257.200 C 54.400 256.733, 53.427 254.169, 50.733 249.500 C 48.512 245.650, 46.199 241.126, 45.593 239.446 L 44.493 236.392 42.256 239.093 M 570.258 239.187 C 568.178 241.266, 567.977 241.289, 566.165 239.650 C 564.327 237.986, 564.013 238.255, 557.293 247.213 C 553.461 252.321, 548.637 259.571, 546.573 263.324 C 544.255 267.538, 541.367 271.171, 539.020 272.824 C 536.252 274.773, 535.258 276.165, 535.360 277.949 C 535.469 279.862, 534.553 280.927, 531.169 282.818 C 528.444 284.342, 527.190 285.590, 527.786 286.186 C 528.382 286.782, 529.967 286.382, 532.064 285.108 C 537.297 281.925, 540.824 286.909, 535.819 290.414 C 533.764 291.854, 533.735 292.050, 535.319 293.800 C 536.243 294.822, 537 296.185, 537 296.829 C 537 297.473, 537.845 298, 538.878 298 C 539.910 298, 541.331 298.694, 542.035 299.542 C 542.739 300.391, 543.668 300.728, 544.099 300.292 C 545.297 299.080, 549.087 279.727, 548.818 276.194 C 548.661 274.131, 549.312 272.297, 550.742 270.774 C 551.932 269.508, 553.599 266.811, 554.448 264.779 C 555.296 262.748, 558.018 259.001, 560.495 256.451 C 562.973 253.902, 565 251.287, 565 250.640 C 565 249.994, 566.053 247.897, 567.339 245.982 C 573.774 236.405, 574.326 235.118, 570.258 239.187 M 343.922 239.750 C 344.438 240.713, 345.871 244.077, 347.105 247.227 C 348.817 251.596, 349.648 252.707, 350.609 251.909 C 351.595 251.091, 351.222 249.846, 348.891 246.182 C 347.252 243.607, 346.115 240.713, 346.362 239.750 C 346.675 238.536, 346.226 238, 344.898 238 C 343.383 238, 343.179 238.366, 343.922 239.750 M 241.750 245.510 C 230.499 255.148, 229.749 256.699, 231.268 267.173 C 232.612 276.438, 233.180 276.884, 238 272.452 C 239.375 271.187, 242.851 269.266, 245.724 268.182 C 248.598 267.098, 253.773 264.429, 257.224 262.251 C 260.676 260.072, 264.568 257.951, 265.874 257.538 C 268.103 256.832, 267.676 256.246, 258.874 247.907 C 253.718 243.023, 249.466 239.021, 249.425 239.014 C 249.383 239.006, 245.930 241.929, 241.750 245.510 M 351.061 243.129 C 357.155 254.592, 364.187 257.931, 375.908 254.927 C 381.457 253.505, 381.417 253.492, 390.903 259.510 C 397.377 263.617, 413.810 269.290, 417.713 268.766 C 420.152 268.438, 419.439 267.860, 412 264.132 C 407.325 261.789, 400.575 258.332, 397 256.450 C 385.267 250.272, 363.290 242.642, 353.150 241.226 C 349.896 240.771, 349.836 240.826, 351.061 243.129 M 399.506 243.991 C 398.687 245.315, 407.392 250, 410.669 250 C 411.912 250, 411.997 249.702, 411.075 248.590 C 410.147 247.472, 410.374 246.851, 412.175 245.590 C 413.716 244.511, 413.972 243.977, 412.973 243.928 C 412.163 243.888, 408.911 243.708, 405.747 243.528 C 402.583 243.348, 399.774 243.556, 399.506 243.991 M 524.018 245.479 C 523.301 246.342, 522.892 247.150, 523.107 247.274 C 526.378 249.157, 536 251.630, 536 250.587 C 536 248.977, 533.119 246.445, 530.500 245.754 C 529.400 245.464, 527.785 244.930, 526.910 244.568 C 525.992 244.187, 524.770 244.572, 524.018 245.479 M 222.755 248.564 C 220.345 251.372, 220.195 251.917, 221.529 253.024 C 222.365 253.718, 223.150 254.106, 223.274 253.888 C 223.398 253.669, 224.725 252.130, 226.223 250.469 C 228.710 247.708, 228.797 247.357, 227.223 246.406 C 225.835 245.566, 224.967 245.986, 222.755 248.564 M 35.286 254.207 C 26.950 268.371, 22.463 286.649, 26.500 290 C 28.646 291.781, 28.455 292.352, 24 297.500 C 19.817 302.333, 18.091 308.037, 21.838 304.647 C 23.555 303.093, 23.784 303.104, 25.338 304.821 C 26.252 305.831, 27 307.147, 27 307.746 C 27 309.739, 22.892 318.472, 21 320.500 C 18.820 322.837, 13.491 344.097, 12.477 354.500 C 12.102 358.350, 10.982 363.188, 9.988 365.250 C 7.886 369.613, 8.066 369.750, 12.040 366.812 C 14.722 364.829, 15 364.085, 15 358.885 C 15 353.884, 15.337 352.880, 17.619 351.085 C 19.762 349.399, 20.108 348.523, 19.523 346.263 C 17.598 338.816, 17.829 334.569, 20.408 330 C 31.933 309.590, 35.461 300.312, 34.592 292.710 C 34.264 289.844, 33.944 286.580, 33.880 285.455 C 33.815 284.331, 36.966 278.550, 40.881 272.610 C 48.915 260.420, 49.064 259.796, 45.225 254.400 C 43.699 252.255, 41.977 249.400, 41.398 248.055 C 40.397 245.728, 40.101 246.025, 35.286 254.207 M 487.942 250.377 C 481.343 251.882, 480 252.606, 480 254.658 C 480 256.515, 485.895 262.300, 488 262.508 C 488.825 262.589, 491.167 262.975, 493.205 263.365 C 495.522 263.808, 497.617 263.631, 498.800 262.893 C 500.344 261.928, 501.224 262.088, 503.596 263.766 C 505.193 264.896, 508.606 266.109, 511.180 266.461 C 513.753 266.813, 516.976 267.980, 518.341 269.053 C 521.277 271.363, 522.433 271.034, 529.990 265.745 C 536.649 261.084, 539.433 255.941, 535.121 256.266 C 534.087 256.344, 529.925 254.859, 525.871 252.967 C 518.830 249.681, 517.940 249.517, 506 249.318 C 498.700 249.196, 491.188 249.637, 487.942 250.377 M 176.324 251.718 C 172.075 252.250, 170.667 254.216, 170.667 259.614 C 170.667 263.205, 171.223 264.668, 173.404 266.811 L 176.142 269.500 180.071 265.121 C 182.552 262.356, 184 259.767, 184 258.094 C 184 255.434, 181.489 250.861, 180.193 251.160 C 179.812 251.248, 178.071 251.499, 176.324 251.718 M 473.274 253.240 C 470.164 254.238, 469.401 255.321, 468.496 260.022 C 467.734 263.979, 465.982 265.294, 463.938 263.444 C 462.299 261.961, 462.003 261.997, 460.081 263.919 C 457.382 266.618, 457.462 267.243, 460.707 268.750 C 464.977 270.733, 468 270.367, 468 267.868 C 468 266.696, 469.561 264.264, 471.469 262.465 C 474.447 259.656, 474.728 259.019, 473.456 257.964 C 471.909 256.680, 473.346 253.478, 475.009 254.505 C 475.439 254.771, 476.048 254.316, 476.364 253.494 C 476.679 252.672, 476.839 252.046, 476.719 252.102 C 476.598 252.158, 475.048 252.670, 473.274 253.240 M 428.277 256.611 L 426.077 259.700 428.812 262.320 L 431.547 264.940 431.221 260.720 C 430.654 253.394, 430.611 253.334, 428.277 256.611 M 177.335 255.808 C 174.683 256.186, 173.865 258.077, 174.652 262.011 C 175.384 265.670, 176.266 265.770, 178.446 262.442 C 180.754 258.920, 180.165 255.405, 177.335 255.808 M 355.627 256.707 C 354.469 257.864, 354.984 258.672, 357.652 259.887 C 361.576 261.675, 363.041 259.590, 359.242 257.625 C 357.598 256.775, 355.972 256.362, 355.627 256.707 M 443.917 259.183 C 443.139 262.146, 443.573 264, 445.045 264 C 446.684 264, 449.706 261.329, 448.893 260.600 C 448.273 260.045, 444.009 258.830, 443.917 259.183 M 560.756 264.750 C 559.902 265.712, 558.229 268.251, 557.039 270.391 L 554.875 274.283 558.101 271.568 C 562.276 268.055, 565.103 264.437, 564.301 263.634 C 563.280 262.613, 562.411 262.887, 560.756 264.750 M 532.608 268.496 C 531.568 269.283, 530.218 270.135, 529.608 270.388 C 527.049 271.450, 531.327 272.782, 534.144 271.800 C 537.308 270.697, 537.241 270.792, 536.393 268.582 C 535.655 266.658, 535.053 266.645, 532.608 268.496 M 55 269.178 C 55 269.960, 55.521 271.121, 56.158 271.758 C 57.959 273.559, 55.344 276.255, 53.008 275.004 C 50.771 273.807, 47.438 282.178, 46.440 291.500 C 45.639 298.980, 40.352 312.548, 33.352 325.086 C 27.667 335.268, 27.183 337.682, 29.360 345 C 30.841 349.978, 30.174 354.046, 27.369 357.145 C 26.242 358.390, 25.466 361.280, 25.183 365.287 L 24.744 371.500 26.982 369.500 C 28.213 368.400, 31.144 364.528, 33.496 360.895 C 35.848 357.262, 39.928 352.537, 42.562 350.395 C 45.197 348.253, 49.186 344.870, 51.426 342.877 C 53.667 340.885, 57.764 338.115, 60.531 336.722 C 63.297 335.329, 66.209 332.978, 67.001 331.498 C 68.998 327.766, 79.764 317.978, 83.182 316.787 C 86.749 315.543, 86.873 316.245, 81.032 304.564 C 77.728 297.956, 74.345 292.887, 70.933 289.432 C 65.624 284.056, 65.279 283.576, 60.828 275.326 C 57.829 269.767, 55 266.783, 55 269.178 M 422.640 271.522 C 420.581 273.027, 421.167 273.497, 426.250 274.414 C 430.740 275.224, 430.842 274.999, 427.199 272.306 C 424.842 270.563, 424.120 270.439, 422.640 271.522 M 507.028 271.962 C 505.475 272.944, 505.332 272.842, 510.572 274.496 C 511.437 274.769, 513.125 274.460, 514.322 273.808 L 516.500 272.623 514 271.911 C 510.414 270.890, 508.702 270.903, 507.028 271.962 M 458.361 273.750 C 458.552 276.158, 464 277.368, 465.964 275.438 C 467.245 274.181, 467.095 274, 464.773 274 C 463.313 274, 461.840 273.550, 461.500 273 C 460.473 271.338, 458.213 271.878, 458.361 273.750 M 496 273.571 C 496 273.732, 497.462 274.889, 499.250 276.143 C 501.038 277.396, 501.941 277.723, 501.259 276.869 C 500.576 276.015, 500.257 275.076, 500.551 274.783 C 500.844 274.489, 499.940 274.031, 498.542 273.763 C 497.144 273.496, 496 273.409, 496 273.571 M 479.667 274.667 C 478.431 275.903, 478.988 278.781, 480.582 279.393 C 483.036 280.335, 490.815 280.108, 491.453 279.076 C 491.767 278.568, 489.527 277.218, 486.474 276.076 C 480.139 273.706, 480.544 273.790, 479.667 274.667 M 515.913 276.593 C 514.512 278.084, 514.211 279.012, 514.973 279.484 C 517.783 281.220, 507.787 287, 501.976 287 C 500.404 287, 498.838 287.453, 498.496 288.007 C 497.534 289.563, 500.661 290.311, 503.737 289.261 C 505.285 288.733, 507.809 288.677, 509.476 289.133 C 512.529 289.969, 515.097 288.796, 513.022 287.514 C 511.835 286.780, 514.422 283, 516.111 283 C 516.551 283, 518.521 281.907, 520.489 280.572 C 522.456 279.237, 525.441 277.842, 527.120 277.474 L 530.174 276.803 527.659 275.498 C 523.842 273.518, 518.318 274.033, 515.913 276.593 M 223.981 280.523 C 223.033 281.665, 222.407 281.753, 221.367 280.890 C 218.920 278.859, 219.764 283.439, 222.250 285.677 C 227.361 290.277, 230.415 288.830, 227.984 282.961 C 226.412 279.167, 225.545 278.639, 223.981 280.523 M 456.289 281.736 C 457.529 284.456, 457.820 284.479, 460.916 282.099 L 463.331 280.242 459.294 279.857 C 455.416 279.487, 455.298 279.560, 456.289 281.736 M 449 281 C 448.175 281.533, 446.488 281.976, 445.250 281.985 C 444.012 281.993, 443 282.450, 443 283 C 443 284.775, 447.634 284.062, 449.500 282 C 451.478 279.814, 451.321 279.500, 449 281 M 465 284.902 C 465 285.398, 466.238 286.252, 467.750 286.800 C 474.623 289.288, 474.622 289.288, 471.694 286.588 C 468.970 284.076, 465 283.076, 465 284.902 M 434.500 286 C 434.840 286.550, 435.991 287, 437.059 287 C 438.127 287, 439 286.550, 439 286 C 439 285.450, 437.848 285, 436.441 285 C 434.990 285, 434.149 285.433, 434.500 286 M 350.172 292.944 C 347.230 295.916, 346.629 297.027, 347.734 297.451 C 348.591 297.780, 350.024 296.968, 351.181 295.498 C 352.269 294.113, 353.574 293.237, 354.080 293.549 C 354.586 293.862, 355 292.966, 355 291.559 C 355 288.226, 354.782 288.288, 350.172 292.944 M 21 291.296 C 21 292.143, 20.725 293.553, 20.389 294.430 C 19.950 295.572, 20.212 295.856, 21.311 295.434 C 23.539 294.579, 24.105 292.332, 22.441 290.951 C 21.292 289.998, 21 290.068, 21 291.296 M 522.566 290.898 C 521.503 291.314, 521.053 291.914, 521.566 292.231 C 522.080 292.547, 523.850 292.212, 525.500 291.485 C 528.830 290.017, 526.173 289.486, 522.566 290.898 M 527.145 297.070 C 525.572 297.700, 524.991 298.535, 525.395 299.588 C 525.728 300.455, 526 301.802, 526 302.582 C 526 303.362, 526.450 304, 527 304 C 527.550 304, 528 303.335, 528 302.523 C 528 301.711, 529.125 300.309, 530.500 299.408 C 534.967 296.481, 532.649 294.865, 527.145 297.070 M 399.425 299.899 C 398.366 300.779, 396.683 302.765, 395.686 304.312 C 394.689 305.859, 393.339 306.944, 392.686 306.724 C 390.291 305.917, 389.167 309.156, 390.628 312.653 C 391.383 314.458, 392.014 317.863, 392.032 320.218 C 392.066 324.815, 393.787 328, 396.238 328 C 399.788 328, 400.006 330.534, 396.802 334.562 C 394.861 337.004, 396.307 335.936, 400.611 331.750 C 408.392 324.182, 412.446 322.944, 415.443 327.223 C 417.735 330.494, 417.387 332.602, 413.500 338.999 C 406.975 349.742, 409.967 359.425, 418.330 354.625 C 421.242 352.954, 421.379 352.988, 431.601 357.956 C 437.281 360.717, 443.893 363.416, 446.294 363.954 C 448.695 364.492, 451.524 365.196, 452.580 365.519 C 453.636 365.842, 452.925 365.292, 451 364.298 C 446.982 362.222, 445.956 358.811, 448.503 355.997 C 450.063 354.273, 450.035 354.089, 448.052 353.028 C 446.889 352.405, 443.410 348.432, 440.320 344.198 C 429.094 328.815, 426.959 326.311, 422.271 323.032 C 416.650 319.101, 409 311.973, 409 310.668 C 409 310.164, 407.279 307.175, 405.175 304.025 C 401.544 298.587, 401.254 298.378, 399.425 299.899 M 531.659 303.447 C 530.558 306.315, 530.899 307.798, 533.250 310.377 C 538.204 315.812, 540.036 318.955, 539.838 321.683 C 539.726 323.233, 540.157 325.465, 540.796 326.645 C 541.978 328.826, 540.207 331.874, 538.658 330.325 C 538.296 329.963, 538 329.910, 538 330.207 C 538 330.504, 542.662 335.449, 548.361 341.196 C 562.416 355.371, 562.390 355.325, 560.953 363.162 C 560.314 366.648, 559.624 370.433, 559.421 371.573 C 559.217 372.713, 557.914 375.321, 556.525 377.368 C 553.684 381.555, 553.546 382, 555.096 382 C 557.987 382, 561.853 377.832, 562.497 374.020 C 562.865 371.838, 564.471 368.128, 566.065 365.776 C 569.767 360.315, 569.836 361.038, 564.605 350.500 C 562.148 345.550, 559.131 339.140, 557.900 336.255 C 556.669 333.370, 553.707 328.420, 551.316 325.255 C 548.926 322.090, 546.703 318.488, 546.377 317.250 C 546.050 316.012, 545.173 315, 544.426 315 C 542.326 315, 536.095 309.092, 534.106 305.214 C 532.658 302.393, 532.192 302.056, 531.659 303.447 M 19.174 313.314 C 17.095 315.527, 15.901 321.501, 17.948 319.450 C 18.964 318.431, 22.253 311, 21.688 311 C 21.501 311, 20.370 312.042, 19.174 313.314 M 530.490 314 C 531.744 318.246, 535.430 323.722, 535.787 321.869 C 535.959 320.972, 534.927 318.508, 533.493 316.395 C 530.086 311.374, 529.600 310.987, 530.490 314 M 401.652 334.926 C 395.330 341.554, 395.207 341.982, 397.965 347.692 C 399.948 351.797, 401.564 353, 405.094 353 C 406.779 353, 406.944 352.503, 406.396 349.072 C 405.858 345.713, 406.291 344.282, 409.384 339.191 C 413.904 331.750, 414.111 329, 410.152 329 C 407.978 329, 405.967 330.402, 401.652 334.926 M 458.344 357.471 C 459.478 359.896, 463.991 361.741, 465.901 360.561 C 466.424 360.238, 468.122 361.799, 469.676 364.030 C 472.279 367.770, 472.782 368.045, 476.105 367.555 C 480.064 366.970, 482.151 368.498, 483.524 372.986 C 483.942 374.353, 485.664 377.188, 487.351 379.287 C 489.941 382.510, 490.233 383.398, 489.229 385.005 C 487.858 387.201, 487.852 387.196, 494.606 389.400 C 497.415 390.316, 500.751 392.171, 502.021 393.522 C 506.171 397.940, 523.563 402.793, 520.042 398.551 C 519.381 397.754, 517.189 396.589, 515.170 395.961 C 512.891 395.252, 509.372 392.579, 505.888 388.910 C 501.133 383.902, 499.744 383, 496.793 383 C 493.224 383, 490.018 380.610, 489.980 377.921 C 489.921 373.797, 473.913 360.479, 464.893 357.051 C 457.689 354.313, 456.891 354.364, 458.344 357.471 M 451 358.885 C 451 359.850, 454.425 362.253, 457.323 363.322 C 458.869 363.891, 458.793 363.546, 456.823 361.052 C 454.640 358.287, 451 356.933, 451 358.885 M 462.890 369.367 C 464.349 371.126, 461.997 373.320, 459.627 372.410 C 457.291 371.514, 457.619 373.620, 460.084 375.346 C 463.073 377.440, 469.308 371.430, 466.374 369.284 C 463.913 367.484, 461.378 367.545, 462.890 369.367 M 12.708 370.104 C 11.040 371.074, 11.086 371.280, 13.366 373.073 C 16.624 375.636, 17 375.525, 17 372 C 17 368.847, 15.788 368.311, 12.708 370.104 M 474.355 371.716 C 472.625 371.933, 470.426 372.977, 469.469 374.035 C 467.507 376.203, 467.880 376.466, 474.143 377.334 C 476.146 377.612, 479.686 379.039, 482.009 380.506 L 486.232 383.172 483.217 379.336 C 481.559 377.226, 479.902 374.488, 479.534 373.250 C 479.166 372.012, 478.558 371.072, 478.183 371.160 C 477.807 371.248, 476.085 371.498, 474.355 371.716 M 123.560 400.903 C 123.253 401.399, 124.423 402.300, 126.159 402.906 C 129.275 403.992, 129.292 403.980, 127.503 402.003 C 125.525 399.817, 124.421 399.509, 123.560 400.903 M 173.500 403.386 C 168.036 405.767, 167.125 407.851, 170.338 410.615 C 173.707 413.512, 174.199 413.543, 176.500 411 C 177.495 409.900, 179.310 409, 180.533 409 C 184.493 409, 185.448 406.498, 182.403 404.102 C 179.335 401.689, 177.696 401.557, 173.500 403.386" stroke="none" fill="#1A1A1A" fill-rule="evenodd"/>
</svg>