<svg xmlns="http://www.w3.org/2000/svg" width="600" height="413" viewBox="0 0 600 413" version="1.1">
	<rect x="0" y="0" width="100%" height="100%" fill="#FFFFFF" />
	<path d="M 234 4.500 C 229.006 9.589, 228.045 9.777, 221.082 7.032 C 207.050 1.501, 192.675 0.369, 182.500 3.994 C 173.203 7.306, 163.566 7.730, 156.624 5.132 C 137.534 -2.010, 102.850 7.401, 85.061 24.550 C 70.368 38.715, 65.414 51.086, 64.652 75.525 L 64.371 84.549 55.766 95.088 C 42.534 111.296, 32.373 129.315, 29.030 142.500 C 22.885 166.740, 23.648 195.261, 31.063 218.453 C 35.992 233.873, 36.100 232.425, 29.121 244.407 C 19.632 260.700, 17.058 266.511, 15.006 276.278 C 13.940 281.350, 11.937 288.650, 10.555 292.500 C 9.156 296.398, 8.033 301.732, 8.021 304.538 C 7.987 312.608, 5.322 331.884, 3.165 339.657 C -0.498 352.857, -0.662 365.404, 2.908 359.271 C 3.796 357.746, 3.943 357.724, 3.970 359.115 C 3.986 360.003, 3.071 361.912, 1.935 363.355 C -0.521 366.478, 0.285 368.957, 2.967 366.529 C 4.617 365.036, 4.706 365.090, 4.279 367.322 C 3.227 372.824, 14.074 376.441, 17.557 371.750 L 19.228 369.500 18.628 372 C 18.297 373.375, 18.021 374.837, 18.014 375.250 C 17.989 376.589, 13.446 376.046, 7.468 373.989 C 1.751 372.022, -1.860 372.540, 0.577 374.977 C 1.926 376.326, 12.829 380, 15.482 380 C 18.476 380, 21.760 376.207, 22.870 371.467 C 23.719 367.842, 23.807 367.759, 23.894 370.500 C 24.071 376.089, 22.085 381.017, 19.216 382.108 C 16.300 383.217, 9.096 383.088, 7.488 381.899 C 5.683 380.563, 0.727 380.451, 0.276 381.736 C 0.038 382.415, 1.116 383.519, 2.671 384.188 C 4.227 384.857, 5.649 385.500, 5.831 385.617 C 6.506 386.049, 3.637 390.474, 1.603 392.138 C 0.060 393.400, -0.205 394.158, 0.606 394.985 C 1.906 396.310, 7.517 392.098, 8.475 389.078 C 8.921 387.674, 10.349 387.136, 14.551 386.787 C 21.045 386.249, 25.442 382.787, 27.005 376.982 C 27.540 374.995, 29.150 372.274, 30.582 370.935 C 32.015 369.596, 34.921 365.539, 37.039 361.919 C 39.367 357.941, 42.396 354.341, 44.695 352.817 C 46.788 351.430, 50.975 348.168, 54 345.566 C 57.025 342.965, 60.704 340.205, 62.175 339.432 C 63.646 338.659, 67.590 334.673, 70.939 330.574 C 74.288 326.476, 78.969 321.813, 81.342 320.211 L 85.655 317.300 89.578 324.321 C 91.735 328.183, 95.026 333.178, 96.892 335.421 C 100.135 339.322, 113.895 357.036, 116.966 361.264 C 118.324 363.135, 120.876 379.368, 120.962 386.689 C 120.990 389.006, 119.905 391.143, 117 394.500 C 108.811 403.962, 114.722 413, 129.100 413 C 138.603 413, 141.926 408.554, 145.671 390.828 C 150.786 366.618, 149.192 353.871, 140.035 345.758 C 136.059 342.235, 134.573 339.860, 131.428 332 C 127.264 321.591, 123.450 314.168, 118.333 306.513 C 116.500 303.771, 115 301.255, 115 300.924 C 115 299.313, 131.486 293.533, 139.045 292.494 C 142.837 291.972, 145.477 290.873, 147.978 288.773 C 158.555 279.893, 180.771 276.117, 203.263 279.375 C 210.331 280.399, 211.194 280.776, 212.895 283.580 C 221.714 298.116, 241.050 296.916, 235.744 282.161 C 234.837 279.637, 234.185 277.514, 234.297 277.443 C 236.428 276.086, 247.642 271, 248.505 271 C 250.035 271, 261.742 263.506, 265.029 260.422 L 267.557 258.050 276.029 264.073 C 286.924 271.821, 298.312 277.326, 309 280.013 C 321.075 283.049, 324.479 284.825, 333.411 292.748 C 343.973 302.118, 344.173 302.591, 345.159 320.608 C 346.822 350.994, 350.574 364.480, 363.319 385.878 C 370.250 397.515, 377.926 405.392, 383.805 406.901 C 391.481 408.870, 398.744 410.242, 406 411.093 C 418.857 412.601, 418.522 412.601, 418.201 411.103 C 417.968 410.013, 418.469 410.077, 420.479 411.394 C 424.140 413.793, 425.682 412.373, 422.825 409.233 C 420.279 406.435, 421.706 406.968, 426.756 410.703 C 430.868 413.744, 433.046 412.748, 429.825 409.299 C 424.125 403.196, 420.623 402.069, 396.120 398.450 C 383.382 396.569, 380.733 395.288, 378.611 389.986 C 377.711 387.736, 373.775 381.126, 369.865 375.299 C 356.256 355.015, 353.738 345.800, 354.211 318 C 354.511 300.311, 354.985 301.694, 346.186 294.569 C 342.508 291.592, 335.771 286.025, 331.213 282.199 C 324.594 276.643, 321.676 274.895, 316.713 273.516 C 293.178 266.976, 282.511 260.417, 261.799 239.750 C 249.896 227.872, 250.595 227.899, 237.782 238.852 C 219.222 254.719, 218.799 256.414, 226.592 283.750 C 227.110 285.568, 226.834 286, 225.152 286 C 221.908 286, 220.904 282.888, 221.629 275.084 C 222.176 269.194, 221.939 267.286, 220.140 263.104 C 217.241 256.366, 217.342 255.808, 222.500 250 C 224.975 247.213, 227 244.301, 227 243.529 C 227 242.757, 229.700 236.857, 233 230.418 C 239.384 217.963, 239.730 216.328, 237.644 208.500 C 234.186 195.522, 227.349 189.671, 220.500 193.828 C 213.753 197.924, 210.817 197.438, 198.062 190.118 C 193.051 187.241, 187.123 184.719, 183.769 184.034 C 165.939 180.399, 155.583 172.344, 125.499 138.709 C 118.190 130.538, 116.309 130.237, 108.322 135.956 C 105.284 138.131, 101.156 140.444, 99.149 141.095 C 93.401 142.958, 90.302 145.645, 84.432 153.854 C 81.425 158.059, 77.517 163.221, 75.748 165.323 C 72.876 168.737, 72.491 169.943, 72.156 176.582 C 71.616 187.278, 72.311 189.582, 79.427 200.661 C 88.940 215.473, 89.635 219.911, 83.878 229.088 C 80.359 234.697, 80.306 237.751, 83.593 245.500 C 88.865 257.928, 91.173 265.920, 93.525 279.893 C 96.129 295.358, 95.867 294.806, 105.058 304.152 C 111.727 310.933, 115.793 318.280, 121.084 333.114 C 126.171 347.374, 126.332 347.667, 131.985 353 C 136.435 357.199, 136.838 357.998, 138.002 364.954 C 140.526 380.034, 135.391 401.906, 129.309 401.985 C 127.060 402.014, 126.946 400.094, 128.972 396.314 C 131.306 391.959, 131.462 387.940, 129.902 372.434 C 128.584 359.341, 128.361 358.873, 118.088 347.644 C 108.564 337.234, 99.821 324.473, 96.623 316.315 C 95.369 313.117, 93.209 308.700, 91.823 306.500 C 90.437 304.300, 88.376 300.397, 87.241 297.826 C 86.107 295.255, 82.683 290.209, 79.633 286.613 C 76.582 283.017, 71.224 275.663, 67.725 270.271 C 56.401 252.822, 54.063 252.911, 42.999 271.218 C 37.988 279.509, 37.688 280.400, 36.855 289.456 C 35.839 300.511, 34.239 305.002, 25.297 321.893 L 18.736 334.287 19.379 341.992 C 19.911 348.372, 19.690 350.454, 18.096 354.099 C 17.037 356.519, 15.855 361.088, 15.470 364.250 C 14.797 369.775, 14.656 370, 11.853 370 C 8.158 370, 7.536 368.354, 9.477 363.709 C 10.324 361.682, 11.493 356.531, 12.074 352.262 C 12.656 347.993, 13.995 341.078, 15.050 336.896 C 16.105 332.714, 17.446 324.839, 18.030 319.396 C 19.525 305.472, 23.778 283.615, 27.642 270 C 29.543 263.304, 35.570 252.100, 41.558 244.135 C 47.183 236.652, 47.223 234.469, 42.024 219.186 C 33.698 194.717, 34.082 155.128, 42.841 134.837 C 48.519 121.686, 63.837 99.474, 69.557 96.099 C 75.101 92.828, 75.736 90.882, 76.277 75.500 C 77.107 51.931, 84.716 35.605, 98.728 27.332 C 107.037 22.426, 129.158 15.457, 122.973 19.693 C 121.613 20.625, 116.995 24.621, 112.712 28.575 C 108.428 32.528, 102.128 37.227, 98.712 39.017 C 86.084 45.634, 85.455 47.273, 88.979 64.400 C 91.748 77.856, 95.086 84, 99.629 84 C 101.168 84, 102.445 84.960, 103.423 86.852 C 107.362 94.469, 113.766 97.591, 123.571 96.676 C 131.131 95.970, 132.763 97.246, 126.532 98.991 C 117.213 101.600, 116.976 105.415, 125.526 115.191 C 133.008 123.745, 138.376 131.917, 147.408 148.500 C 156.414 165.036, 156.924 165.549, 169.174 170.397 C 175.676 172.970, 180.816 175.880, 185.572 179.681 C 193.741 186.209, 196.094 187.261, 200.632 186.409 C 209.733 184.702, 211.382 178.964, 204.595 172.618 C 202.172 170.353, 197.958 166.404, 195.230 163.842 C 182.271 151.671, 181.846 140.761, 193.828 127.819 C 202.932 117.986, 210.574 114.531, 233.312 109.969 C 249.146 106.792, 250.037 106.240, 254.193 97.031 C 255.931 93.181, 259.316 88.253, 262.556 84.856 C 268.446 78.681, 268.926 77.296, 266.250 74.191 C 264.603 72.281, 254.203 67.448, 249.250 66.292 C 248.012 66.003, 247 65.086, 247 64.254 C 247 61.730, 252.027 48.628, 253.708 46.770 C 257.137 42.981, 248.270 21.576, 242.327 19.295 C 240.367 18.543, 240.715 15.285, 243 13 C 246.557 9.443, 257.845 11.475, 261.927 16.407 C 265.817 21.108, 274.682 23.235, 291 23.385 C 309.295 23.553, 315.976 26.830, 327.934 41.500 C 335.348 50.596, 335.925 51.565, 332.986 49.993 C 326.537 46.541, 316.943 39.679, 312.867 35.604 C 307.495 30.232, 306.006 30.021, 294.980 33.065 C 281.205 36.869, 279.846 39.843, 286.954 50.623 C 298.121 67.561, 302.372 90.005, 297.537 106.500 C 295.765 112.545, 294.334 120.114, 291.485 138.500 C 289.414 151.870, 287.860 156.438, 280.766 170 L 274.752 181.500 275.826 186.765 C 277.523 195.081, 272.528 205.826, 263.448 213.394 C 257.578 218.285, 257.688 221.654, 264.027 231.144 C 270.452 240.764, 274.762 244.808, 283 248.947 C 298.178 256.572, 302.275 257.707, 317.271 258.439 L 331.042 259.112 334.155 255.999 C 337.094 253.060, 337.238 252.563, 336.741 247.079 C 335.990 238.793, 336.226 238.607, 346.648 239.295 C 362.334 240.331, 390.864 249.854, 404.068 258.462 C 406.030 259.741, 410.305 262.138, 413.568 263.788 C 419.133 266.603, 425.682 271.652, 424.849 272.484 C 422.912 274.421, 400.599 267.153, 389.080 260.833 C 380.816 256.298, 374.216 255.955, 369.077 259.792 C 364.357 263.316, 366.605 266.969, 378.396 274.937 C 389.520 282.454, 397.068 291.376, 405.478 306.947 C 408.946 313.369, 410.457 315.045, 416.452 319.121 C 423.834 324.139, 429.272 330.072, 437.064 341.604 C 443.729 351.469, 446.256 353.317, 456.641 355.922 C 469.775 359.216, 475.700 362.813, 485.287 373.314 C 490.097 378.584, 494.950 382.903, 497 383.741 C 498.925 384.527, 502.750 387.332, 505.500 389.974 C 508.250 392.616, 511.850 395.528, 513.500 396.444 L 516.500 398.111 513.028 397.536 C 511.118 397.220, 506.600 395.175, 502.987 392.992 C 499.374 390.809, 493.286 387.926, 489.459 386.586 C 470.524 379.956, 464.598 377.036, 459 371.574 C 453.738 366.441, 447.707 363.369, 427.500 355.530 C 424.607 354.408, 397.831 354.143, 395.702 355.216 C 392.382 356.889, 392.006 360.238, 394.140 369.138 C 397.777 384.304, 398.169 385.172, 403 388.747 C 405.475 390.579, 410.108 394.145, 413.296 396.672 C 417.436 399.954, 420.723 401.636, 424.796 402.559 C 434.264 404.703, 443.536 408.614, 443.223 410.331 C 442.788 412.724, 445.153 413.511, 446.646 411.469 C 447.783 409.915, 447.747 409.262, 446.410 407.222 C 444.879 404.886, 444.903 404.832, 447.165 405.473 C 452.844 407.081, 455.229 408.471, 456.059 410.656 C 456.549 411.945, 457.426 413, 458.007 413 C 459.931 413, 460.245 410.022, 458.587 407.492 C 457.689 406.122, 457.359 405, 457.855 405 C 459.276 405, 460.777 407.275, 461.154 410 C 461.582 413.093, 464.383 413.324, 464.813 410.302 C 465.596 404.800, 461.849 401.991, 449.216 398.611 C 443.342 397.039, 438.410 395.004, 435.772 393.064 C 432.745 390.838, 430.498 389.999, 427.553 389.996 C 419.895 389.989, 408.798 381.427, 406.525 373.772 C 404.107 365.630, 403.502 366.033, 417.250 366.638 C 431.355 367.260, 440.500 370.651, 452.064 379.549 C 459.296 385.114, 468.483 389.431, 484.683 394.875 C 491.383 397.126, 498.482 400.066, 500.458 401.407 C 502.434 402.748, 506.177 404.310, 508.775 404.879 C 511.374 405.447, 515.283 406.832, 517.461 407.956 C 522.438 410.524, 524.071 410.519, 527.365 407.927 C 533.330 403.236, 528.240 393.227, 517.459 388.445 C 514.055 386.936, 511.484 384.863, 509.543 382.062 C 507.962 379.780, 504.296 376.495, 501.398 374.761 C 497.674 372.534, 495.613 370.469, 494.375 367.724 C 490.793 359.780, 470.531 347.071, 458.953 345.507 C 451.579 344.510, 450.709 343.918, 447.026 337.392 C 443.168 330.556, 437.526 324.403, 426.273 314.760 C 421.375 310.563, 416.948 305.812, 415.779 303.500 C 412.946 297.897, 405.945 288.196, 399.013 280.268 C 392.121 272.385, 392.122 272.354, 399.118 274.846 C 418.639 281.798, 416.700 280.643, 417.265 285.662 C 418.481 296.448, 429.440 302.027, 439.592 297.029 C 449.728 292.039, 452.313 292.023, 461.183 296.891 C 471.566 302.589, 481.366 304.012, 494.334 301.704 C 513.644 298.266, 513.572 298.250, 515.586 306.430 C 519.102 320.715, 526.734 332.878, 538.565 343.056 C 551.949 354.569, 553.464 361.163, 546.104 375.864 C 541.981 384.100, 544.951 392.020, 552.150 391.990 C 557.962 391.966, 571 382.738, 571 378.648 C 571 378.155, 572.575 374.263, 574.500 370 C 578.997 360.040, 578.921 358.430, 573.623 351.349 C 570.588 347.293, 568.450 342.876, 566.648 336.938 C 564.045 328.359, 560.360 320.567, 555.564 313.499 C 553.280 310.134, 552.016 304, 553.606 304 C 553.939 304, 555.958 305.383, 558.092 307.073 C 560.225 308.763, 564.647 311.482, 567.918 313.117 C 572.926 315.619, 574.906 317.487, 580.460 324.947 C 588.179 335.314, 597.528 343.872, 599.251 342.149 C 600.265 341.135, 593.934 334.178, 591.872 334.042 C 591.526 334.019, 588.059 329.764, 584.167 324.586 C 576.581 314.493, 572.955 311.207, 565.945 308.073 C 559.748 305.302, 555.707 301.323, 556.359 298.636 C 556.644 297.461, 557.193 293.575, 557.579 290 C 558.532 281.157, 559.370 279.307, 564.440 274.844 C 569.934 270.008, 573.562 263.870, 575.578 256 C 576.442 252.629, 579.161 245.708, 581.620 240.622 C 586.408 230.719, 588.278 221.984, 589.632 203.197 C 590.218 195.071, 590.655 193.450, 593.092 190.385 C 602.902 178.040, 601.316 161.599, 588.981 147.766 C 582.260 140.228, 579.604 131.907, 580.532 121.298 C 581.765 107.202, 576.469 93.225, 563.937 77.500 C 559.992 72.550, 554.830 65.575, 552.466 62 C 536.325 37.596, 511.315 20.830, 487.400 18.380 C 480.119 17.634, 479.117 16.957, 475 10.013 C 472.113 5.143, 465.554 -0.461, 463.922 0.548 C 463.220 0.982, 464.467 2.948, 467.297 5.868 C 469.765 8.416, 472.492 11.909, 473.357 13.631 C 474.221 15.353, 476.329 17.940, 478.041 19.381 C 480.218 21.213, 480.660 22, 479.511 22 C 476.588 22, 474.271 20.137, 471.669 15.698 C 468.427 10.166, 456.273 -0.673, 454.878 0.722 C 454.212 1.388, 455.852 3.520, 459.794 7.111 C 463.047 10.075, 466.858 14.337, 468.262 16.583 C 469.665 18.829, 472.240 21.866, 473.984 23.333 L 477.153 26 474.577 26.125 C 473.160 26.194, 471.438 26.286, 470.750 26.331 C 467.869 26.518, 455.441 23.620, 454.765 22.604 C 454.361 21.997, 454.024 19.193, 454.015 16.372 C 453.992 8.420, 449.794 6.832, 443.380 12.350 C 440.633 14.712, 440.635 14.995, 443.424 19.834 C 446.204 24.660, 441.046 29.919, 437.441 25.935 C 435.203 23.462, 433.033 23.494, 428.087 26.072 L 424.112 28.143 419.429 26.072 C 416.853 24.932, 414.015 23.971, 413.123 23.937 C 412.131 23.898, 412.464 23.489, 413.979 22.884 C 417.771 21.371, 420.079 18.935, 422.397 14 C 423.559 11.525, 425.552 7.821, 426.825 5.768 C 428.952 2.341, 429.059 0, 427.090 -0 C 426.104 -0, 421.090 8.094, 418.605 13.697 C 417.297 16.648, 415.848 18.206, 413.723 18.947 C 409.510 20.415, 409.505 20.373, 413.465 16.896 C 415.409 15.189, 417.004 13.277, 417.010 12.646 C 417.015 12.016, 418.114 9.148, 419.453 6.274 C 421.118 2.696, 421.537 0.832, 420.781 0.365 C 419.269 -0.570, 416.505 3.076, 414.411 8.766 C 412.113 15.013, 412.532 14.690, 403.828 16.916 C 386.458 21.359, 378.629 27.517, 367.150 45.767 C 358.257 59.906, 355.932 59.847, 344.375 45.188 C 323.750 19.028, 308.928 9.741, 290.554 11.463 C 281.765 12.286, 276.480 10.685, 267.341 4.428 C 263.784 1.993, 260.029 0, 258.996 0 C 255.385 -0, 255.965 1.941, 260.215 4.076 C 262.572 5.260, 266.021 7.370, 267.880 8.764 C 269.739 10.159, 272.889 12.149, 274.880 13.186 C 277.352 14.473, 277.707 14.872, 276 14.442 C 274.625 14.096, 271.227 12.334, 268.449 10.528 C 253.539 0.833, 246.970 -0.206, 239.236 5.908 C 236.356 8.184, 234 10.414, 234 10.863 C 234 11.948, 229.350 14.026, 227.203 13.900 C 225.936 13.826, 226.042 13.634, 227.618 13.150 C 230.240 12.345, 242.110 1.443, 241.274 0.608 C 239.943 -0.724, 238.225 0.195, 234 4.500 M 241.385 8.250 C 239.798 9.487, 237.497 11.679, 236.270 13.120 C 232.964 17.006, 228.781 18.468, 224.869 17.104 C 220.306 15.514, 220.345 16.301, 224.980 19.368 C 227.191 20.831, 229 22.382, 229 22.814 C 229 24.654, 226.324 26.005, 222.550 26.070 C 217.435 26.159, 212.874 27.821, 217.445 27.930 C 225.161 28.114, 227.812 35.335, 222.651 42.106 C 213.238 54.454, 213.503 63.186, 223.404 66.865 C 230.963 69.674, 257.631 73.517, 251 70.842 C 245.095 68.459, 243.482 67.308, 243.187 65.263 C 242.802 62.604, 247.542 49.164, 249.708 46.770 C 253.154 42.962, 247.790 28.964, 240.041 21.539 C 234.692 16.414, 239.109 8.417, 248.092 6.963 L 252.500 6.250 248.385 6.125 C 245.500 6.037, 243.407 6.673, 241.385 8.250 M 256.500 8.863 C 258.700 9.864, 261.142 11.459, 261.927 12.407 C 263.517 14.329, 267.213 16.383, 271 17.452 C 272.749 17.945, 272.148 17.216, 269 15.025 C 263.476 11.180, 255.514 6.992, 253.783 7.022 C 253.077 7.034, 254.300 7.863, 256.500 8.863 M 158 10.395 C 159.375 11.239, 162.525 11.882, 165 11.824 L 169.500 11.718 164.500 11.020 C 161.750 10.636, 158.600 9.993, 157.500 9.592 C 156.233 9.129, 156.416 9.424, 158 10.395 M 152.079 13.367 C 154.047 14.071, 156.734 15.401, 158.051 16.323 C 160.970 18.368, 167.606 18.448, 171 16.479 C 173.332 15.126, 173.116 15.070, 167.777 15.649 C 163.189 16.146, 161.068 15.846, 157.091 14.135 C 154.362 12.961, 151.313 12.020, 150.315 12.044 C 149.317 12.068, 150.110 12.663, 152.079 13.367 M 446.454 14.410 C 444.573 15.785, 444.571 15.869, 446.388 17.877 C 449.271 21.062, 448.751 24.940, 444.989 28.301 C 441.820 31.132, 442.046 32.934, 445.576 32.985 C 448.717 33.029, 450.908 37.461, 449.934 41.799 C 448.857 46.591, 449.509 48.446, 454.147 53.785 C 455.716 55.591, 457 58.193, 457 59.567 C 457 62.866, 459.281 68.190, 462.504 72.417 C 463.938 74.297, 466.250 79.542, 467.641 84.073 C 469.033 88.604, 471.296 94.092, 472.671 96.270 L 475.170 100.229 472.196 103.365 C 469.785 105.906, 469.138 107.586, 468.780 112.235 C 468.144 120.481, 466.446 122, 457.861 122 C 432.405 122, 400.494 135.155, 390.139 149.918 C 387.822 153.221, 383.932 158.259, 381.495 161.115 C 376.668 166.770, 370.596 177.941, 367.052 187.689 C 365.601 191.681, 362.872 196.106, 359.366 200.155 C 352.436 208.158, 351.150 212.806, 355.166 215.335 C 357.924 217.072, 359.342 214.864, 363.538 202.293 C 367.758 189.653, 369.287 187.566, 382.430 176.500 C 386.419 173.141, 387.327 171.714, 388.089 167.596 C 389.183 161.691, 392.315 157.372, 399.849 151.380 C 409.514 143.693, 409.593 143.671, 428 143.520 C 443.168 143.396, 445.025 143.178, 451 140.824 C 461.517 136.681, 464.238 136.488, 467.964 139.623 C 471.984 143.006, 471.663 144.481, 464.662 154.761 C 455.611 168.054, 453.886 181.255, 458.444 202.338 C 460.419 211.472, 464.156 223.487, 465.414 224.747 C 465.550 224.883, 465.664 222.633, 465.666 219.747 C 465.669 216.861, 466.030 211.088, 466.467 206.917 C 466.983 202.005, 466.848 196.949, 466.084 192.564 C 464.650 184.323, 465.701 182.111, 472.473 179.115 C 505.075 164.693, 514.702 113.718, 492.985 70.500 C 479.156 42.979, 481.515 35.115, 501.698 41.448 C 509.241 43.814, 520 45.768, 520 44.770 C 520 40.053, 493.989 30.795, 479.750 30.446 C 456.731 29.880, 450 26.934, 450 17.423 C 450 12.672, 449.459 12.213, 446.454 14.410 M 185 16.179 L 176.500 18.328 183 19.586 C 186.575 20.278, 191.442 21.545, 193.816 22.401 C 201.153 25.047, 209.708 25.342, 216.423 23.180 L 222.346 21.273 219.736 19.562 C 212.236 14.648, 196.947 13.159, 185 16.179 M 134.573 16.882 C 134.193 17.497, 134.295 18, 134.800 18 C 135.305 18, 137.781 19.815, 140.302 22.034 L 144.885 26.069 154.039 25.867 C 161.178 25.709, 163.666 25.269, 165.346 23.866 L 167.500 22.067 164.178 22.033 C 162.351 22.015, 158.792 20.791, 156.270 19.312 C 151.161 16.318, 135.973 14.617, 134.573 16.882 M 94.841 19.982 C 89.737 23.363, 79.986 33.244, 78.046 37 C 76.547 39.903, 77.136 39.331, 82.789 32.391 C 85.078 29.580, 89.549 25.329, 92.725 22.943 C 101.997 15.979, 102.996 14.580, 94.841 19.982 M 314.294 21.197 C 320.764 24.707, 334.364 38.293, 342.903 49.775 C 345.795 53.666, 348.778 57.084, 349.530 57.373 C 351.006 57.940, 341.777 46.444, 330.500 33.669 C 324.142 26.467, 312.742 17.948, 309.569 18.027 C 308.981 18.041, 311.108 19.468, 314.294 21.197 M 133.244 22.569 C 134.754 23.388, 136.907 25.858, 138.030 28.058 L 140.071 32.059 150.785 31.478 C 165.964 30.656, 167.299 30.346, 170.575 26.884 C 172.184 25.183, 174.400 23.387, 175.500 22.891 C 176.920 22.252, 176.484 22.173, 174 22.620 C 172.075 22.967, 168.894 24.695, 166.931 26.460 C 161.658 31.200, 145.585 31.718, 141.266 27.286 C 137.642 23.568, 133.838 21.006, 132 21.047 C 131.175 21.065, 131.735 21.750, 133.244 22.569 M 115.462 30.250 L 110.500 35.500 115.750 30.538 C 120.628 25.926, 121.459 25, 120.712 25 C 120.554 25, 118.192 27.362, 115.462 30.250 M 127 26.081 C 125.810 26.914, 125.943 27.007, 127.646 26.531 C 129.266 26.078, 130.367 26.693, 132.146 29.043 C 138.556 37.514, 137.569 37.134, 151.234 36.392 C 157.980 36.025, 163.725 35.500, 164 35.224 C 164.275 34.948, 159.029 35.003, 152.342 35.347 L 140.184 35.973 137.109 32.237 C 130.478 24.177, 130.072 23.930, 127 26.081 M 399.575 26.579 C 397.416 27.369, 395.392 28.274, 395.077 28.589 C 394.136 29.531, 400.302 27.828, 403 26.402 C 406.267 24.675, 404.528 24.765, 399.575 26.579 M 117.328 33.250 C 113.572 36.688, 108.924 40.793, 106.999 42.374 C 103.702 45.082, 103.679 45.140, 106.608 43.374 C 109.837 41.427, 125.836 27, 124.766 27 C 124.431 27, 121.084 29.813, 117.328 33.250 M 171 30.500 C 169.134 32.425, 167.878 34, 168.209 34 C 168.540 34, 170.696 32.425, 173 30.500 C 175.304 28.575, 176.560 27, 175.791 27 C 175.022 27, 172.866 28.575, 171 30.500 M 382.054 30.608 C 380.350 32.042, 378.485 34.180, 377.910 35.358 C 377.060 37.103, 377.238 37.037, 378.873 35.004 C 379.977 33.631, 382.145 31.495, 383.690 30.259 C 385.236 29.022, 386.197 28.008, 385.827 28.005 C 385.456 28.002, 383.759 29.174, 382.054 30.608 M 404.565 29.820 L 400.630 31.587 405.065 33.239 C 412.483 36.002, 416.176 36.286, 421.032 34.465 C 423.489 33.544, 428.077 32.102, 431.227 31.262 C 434.377 30.422, 436.713 29.344, 436.418 28.867 C 435.523 27.419, 432.276 27.888, 428.087 30.072 L 424.112 32.143 419.429 30.072 C 413.739 27.555, 409.759 27.487, 404.565 29.820 M 126.500 30.947 C 125.400 31.398, 120.802 35.177, 116.283 39.346 C 111.764 43.515, 106.251 47.851, 104.033 48.983 C 99.435 51.329, 99.098 53.011, 101.193 63.157 C 102.892 71.379, 107.454 71.540, 120.259 63.830 C 136.115 54.282, 148.345 55.301, 156.458 66.845 C 163.880 77.405, 155.984 96.479, 140.411 105.605 C 135.036 108.755, 135.023 109.024, 139.918 115.508 C 145.441 122.823, 150.855 131.868, 157.397 144.712 C 160.501 150.804, 163.593 156.235, 164.270 156.780 C 165.393 157.686, 180.550 164, 181.601 164 C 181.849 164, 180.181 160.591, 177.894 156.424 C 170.940 143.754, 173.515 134.729, 188.279 120.025 C 199.867 108.484, 210.192 103.633, 232.121 99.430 C 242.546 97.432, 242.123 97.686, 245.330 91.500 C 246.756 88.750, 248.841 85.105, 249.964 83.401 L 252.006 80.301 240.753 79.618 C 209.476 77.719, 197.343 61.461, 212.436 41.672 C 215.887 37.149, 216.138 37.350, 206.250 36.722 C 201.194 36.401, 193.942 35.076, 189.074 33.583 C 178.367 30.301, 178.003 30.320, 173.092 34.423 C 161.954 43.729, 135.904 43.158, 131.302 33.507 C 129.500 29.729, 129.487 29.722, 126.500 30.947 M 517.354 32.213 C 525.980 38.200, 543.001 55.583, 548.970 64.500 C 550.811 67.250, 554.822 72.639, 557.884 76.476 C 560.946 80.313, 565.600 87.063, 568.225 91.476 C 570.851 95.889, 572.999 99.113, 572.999 98.640 C 573.001 96.412, 566.245 85.533, 559.843 77.454 C 555.940 72.529, 551.084 65.911, 549.052 62.747 C 544.006 54.888, 525.414 36.020, 519.951 33.213 C 517.503 31.955, 516.334 31.505, 517.354 32.213 M 212.487 32.716 C 219.538 33.482, 220.690 36.095, 216.436 41.672 C 209.599 50.636, 208.645 58.175, 213.294 66.500 C 216.102 71.529, 224.014 74.416, 237.503 75.335 L 246.500 75.948 236.277 74.093 C 211.308 69.563, 205.622 59.197, 218.697 42.045 C 224.128 34.922, 223.211 32.529, 215 32.391 C 211.425 32.331, 210.294 32.477, 212.487 32.716 M 390.084 34.752 C 388.206 35.713, 385.956 37.603, 385.084 38.952 L 383.500 41.404 387.585 38.952 C 396.852 33.390, 398.651 30.366, 390.084 34.752 M 511.974 34.767 C 525.530 44.261, 527.522 48.889, 518.128 49.070 L 514.500 49.139 519.049 50.541 C 524.441 52.203, 527.289 55.045, 529.030 60.500 C 531.866 69.384, 538.115 76.532, 550.846 85.452 C 562.975 93.952, 565 96.664, 565 104.407 C 565 108.458, 565.902 113.508, 567.500 118.403 C 570.506 127.611, 570.578 130.253, 568.074 139.436 C 567.015 143.321, 565.651 150.416, 565.043 155.202 C 563.425 167.946, 559.934 174.629, 552.543 179.137 C 550.869 180.158, 550.139 180.994, 550.921 180.996 C 551.703 180.998, 557.158 185.950, 563.044 192 C 568.930 198.050, 574.336 203, 575.058 203 C 575.780 203, 577.468 204.012, 578.810 205.250 L 581.248 207.500 580.651 202 C 580.323 198.975, 579.779 195.126, 579.442 193.446 C 578.940 190.938, 579.444 189.658, 582.261 186.286 C 588.971 178.255, 588.443 164.560, 581.049 154.856 C 578.805 151.910, 576.552 147.925, 576.044 146 C 575.536 144.075, 574.313 139.575, 573.328 136 C 572.068 131.430, 571.530 125.901, 571.518 117.378 L 571.500 105.256 567.062 96.623 C 564.622 91.874, 560.256 84.954, 557.360 81.245 C 554.465 77.535, 549.624 70.960, 546.602 66.633 C 536.538 52.223, 520.271 36.780, 512.201 33.974 L 509.500 33.035 511.974 34.767 M 430 35.362 C 424.282 36.921, 419.850 39.458, 424.500 38.510 C 436.972 35.967, 443.937 38.081, 444.030 44.437 C 444.071 47.197, 445.500 44.697, 446.291 40.483 C 447.252 35.359, 439.243 32.842, 430 35.362 M 396.669 37.250 C 395.242 38.291, 395.921 38.437, 400.728 38.123 C 404.887 37.851, 405.941 37.522, 404.500 36.943 C 401.498 35.739, 398.584 35.853, 396.669 37.250 M 288.250 39.031 C 285.952 39.955, 285.171 43.370, 287 44.500 C 287.550 44.840, 288 44.558, 288 43.873 C 288 43.189, 288.978 41.587, 290.174 40.314 C 292.465 37.876, 291.961 37.539, 288.250 39.031 M 308.747 42.329 C 312.078 45.284, 318.526 49.889, 326 54.652 L 328.500 56.246 326 54.082 C 324.625 52.892, 321.025 50.186, 318 48.070 C 314.975 45.954, 311.409 43.048, 310.076 41.611 C 308.742 40.175, 307.054 39, 306.323 39 C 305.592 39, 306.683 40.498, 308.747 42.329 M 378.441 42.114 C 373.452 51.763, 363.518 65, 361.267 65 C 360.238 65, 360.601 65.685, 362.365 67.073 C 365.608 69.623, 365.791 73.333, 362.777 75.443 C 360.145 77.287, 361.804 77.502, 365.537 75.801 C 368.667 74.375, 372.463 67.312, 373.491 61 C 374.657 53.842, 376.624 50.155, 380.495 47.870 C 384.055 45.770, 384.069 45.737, 381.958 44.258 C 380.618 43.319, 380.011 42.068, 380.320 40.883 C 381.053 38.080, 380.258 38.601, 378.441 42.114 M 293.163 41.878 C 292.427 42.345, 291.977 43.687, 292.163 44.861 C 292.472 46.819, 292.642 46.747, 294.203 43.998 C 295.924 40.969, 295.609 40.328, 293.163 41.878 M 437.139 42.914 C 439.740 45.022, 440.560 44.901, 439.655 42.543 C 439.329 41.694, 438.099 41, 436.921 41 C 434.807 41, 434.810 41.026, 437.139 42.914 M 299.250 44.031 C 296.387 45.182, 296.434 46.468, 299.537 51.897 C 308.608 67.764, 312.490 89.498, 308.974 104.733 C 308.437 107.061, 307.552 112.236, 307.008 116.233 C 306.464 120.230, 305.134 126.875, 304.054 131 C 302.973 135.125, 301.443 142.775, 300.652 148 C 299.253 157.246, 296.576 164.465, 291.751 172 C 290.074 174.619, 289.357 177.640, 288.901 184 C 288.446 190.355, 287.625 193.816, 285.646 197.717 C 282.058 204.791, 281.881 204.593, 291.750 204.576 C 302.178 204.559, 308.422 206.432, 316.718 212.067 C 319.898 214.228, 323.032 215.996, 323.682 215.998 C 325.221 216.001, 328.833 221.168, 328.315 222.627 C 327.690 224.390, 330.608 225.007, 332.619 223.537 C 334.181 222.394, 335.184 222.612, 339.857 225.105 C 348.220 229.568, 351.501 229.118, 346.084 224.250 C 337.916 216.910, 338.672 208.719, 348.460 198.500 C 351.907 194.901, 355.410 189.899, 357.213 186 C 358.867 182.425, 361.692 176.304, 363.491 172.397 C 365.290 168.490, 369.732 161.401, 373.363 156.642 C 376.994 151.884, 380.825 146.302, 381.878 144.239 C 388.444 131.369, 414.017 118.004, 442.500 112.556 C 447.450 111.609, 452.558 110.627, 453.852 110.373 C 457.699 109.617, 456.795 87.840, 452.589 79.956 C 450.989 76.955, 448.964 72.940, 448.089 71.033 C 447.215 69.125, 445.292 65.300, 443.816 62.533 C 442.340 59.765, 439.737 54.662, 438.031 51.194 C 435.664 46.382, 434.523 45.009, 433.215 45.400 C 425.871 47.597, 417.303 48.159, 408.674 47.012 C 398.754 45.692, 398.587 45.726, 389.727 50.867 C 383.168 54.673, 382.534 55.572, 381.533 62.500 C 377.695 89.039, 352.211 92.645, 336.797 68.831 C 334.842 65.810, 331.261 62.233, 328 60.043 C 324.975 58.011, 320.250 54.838, 317.500 52.992 C 314.750 51.147, 310.811 48.143, 308.747 46.318 C 304.878 42.897, 303.123 42.475, 299.250 44.031 M 371.232 45.750 C 367.988 50.435, 367.398 51.678, 369.058 50.327 C 370.643 49.037, 374.406 43, 373.625 43 C 373.356 43, 372.279 44.237, 371.232 45.750 M 414.250 43.716 C 415.762 43.945, 418.238 43.945, 419.750 43.716 C 421.262 43.487, 420.025 43.300, 417 43.300 C 413.975 43.300, 412.738 43.487, 414.250 43.716 M 488.044 45.250 C 488.068 46.487, 488.713 49.750, 489.477 52.500 L 490.865 57.500 490.933 53.323 C 491.018 48.030, 494.662 44.644, 499.434 45.422 C 501.865 45.818, 501.672 45.635, 498.500 44.538 C 491.975 42.280, 487.991 42.551, 488.044 45.250 M 97.635 48.073 C 95.568 49.698, 95.032 50.938, 95.150 53.823 C 95.288 57.204, 95.334 57.259, 95.727 54.500 C 95.962 52.850, 97.329 50.263, 98.764 48.750 C 101.856 45.492, 101.323 45.172, 97.635 48.073 M 445.031 47.500 C 445.015 48.050, 446.801 51.425, 449 55 C 451.840 59.616, 452.999 60.858, 452.999 59.285 C 453 58.066, 451.721 55.591, 450.158 53.785 C 448.595 51.978, 446.809 49.600, 446.189 48.500 C 445.568 47.400, 445.047 46.950, 445.031 47.500 M 381.500 51.415 C 379.850 52.738, 378.758 54.081, 379.073 54.400 C 379.388 54.718, 380.935 53.634, 382.510 51.990 C 385.966 48.382, 385.567 48.155, 381.500 51.415 M 441.001 49.300 C 441 50.448, 443.620 55.351, 446.511 59.612 C 450.478 65.457, 449.389 62.134, 445 55 C 442.801 51.425, 441.001 48.860, 441.001 49.300 M 495.667 49.667 C 495.300 50.033, 495.052 52.171, 495.116 54.417 C 495.180 56.663, 495.451 57.600, 495.719 56.500 C 496.437 53.556, 499.017 51.014, 501.405 50.900 C 503.252 50.812, 503.204 50.706, 501 50 C 497.689 48.940, 496.470 48.864, 495.667 49.667 M 339.164 54.109 C 338.323 55.455, 337.294 55.944, 336.189 55.522 C 335.260 55.168, 336.046 56.475, 337.935 58.427 C 341.111 61.709, 341.501 61.857, 343.122 60.390 C 344.119 59.487, 345.440 59.128, 346.187 59.557 C 346.909 59.971, 346.153 58.777, 344.508 56.905 C 342.862 55.032, 341.276 53.174, 340.983 52.775 C 340.690 52.376, 339.871 52.976, 339.164 54.109 M 519.662 55.936 C 521.401 56.996, 523.348 58.682, 523.988 59.682 C 525.109 61.434, 525.130 61.433, 524.576 59.668 C 524.259 58.661, 524 57.467, 524 57.016 C 524 56.565, 522.583 55.702, 520.851 55.098 C 516.351 53.529, 516.056 53.737, 519.662 55.936 M 362.234 58.029 C 359.444 60.568, 359.258 61, 360.959 61 C 362.158 61, 363.565 59.809, 364.500 58 C 366.401 54.324, 366.307 54.325, 362.234 58.029 M 500 56.445 C 500 57.239, 501.625 61.402, 503.611 65.695 C 525.191 112.345, 519.752 153.652, 488.474 180.656 C 480.084 187.899, 479.690 188.798, 478.686 203 C 477.348 221.931, 477.471 223.838, 480.502 231.315 L 483.265 238.131 489.883 237.315 C 493.522 236.867, 500.884 236.561, 506.242 236.635 L 515.985 236.770 517.022 232.635 C 517.592 230.361, 520.841 223.002, 524.242 216.283 C 530.229 204.454, 530.442 203.766, 530.963 194.623 C 531.598 183.462, 534.131 179.236, 542.587 175.229 C 545.289 173.949, 548.147 172.554, 548.938 172.130 C 551.502 170.757, 553.883 164.715, 555.888 154.500 C 556.968 149, 558.559 142.531, 559.425 140.124 C 561.533 134.268, 561.409 128.483, 559.013 120.839 C 557.920 117.353, 557.020 111.658, 557.013 108.184 C 556.996 100.054, 556.603 99.422, 546.766 91.714 C 535.034 82.520, 525.449 72.222, 522.374 65.507 C 519.533 59.300, 518.707 58.758, 508.688 56.521 C 500.320 54.653, 500 54.650, 500 56.445 M 334.946 61.308 C 336.842 63.338, 338.584 65, 338.818 65 C 339.866 65, 336.112 60.496, 333.927 59.131 C 332.075 57.974, 332.316 58.490, 334.946 61.308 M 533.200 59.200 C 530.312 62.088, 532.118 66.170, 539.897 74.328 C 545.524 80.230, 549.209 82.391, 550.851 80.749 C 552.692 78.908, 552.283 77.773, 546.951 69.928 C 539.554 59.046, 536.071 56.329, 533.200 59.200 M 130.661 62.400 C 128.550 63.184, 124.215 65.435, 121.029 67.401 C 117.842 69.368, 114.170 71.445, 112.867 72.015 C 110.728 72.953, 110.812 73.005, 113.728 72.556 C 115.503 72.283, 119.955 70.165, 123.620 67.850 C 136.544 59.688, 150.283 62.237, 153.995 73.485 C 156.259 80.343, 149.068 93.329, 138.918 100.714 C 128.146 108.551, 128.307 107.242, 136.771 118.141 C 141.513 124.248, 144.049 126.425, 139.809 120.750 C 138.474 118.963, 136.171 115.883, 134.691 113.906 C 130.419 108.200, 130.997 106.907, 140.155 101.682 C 155.946 92.674, 160.989 69.657, 148.480 63.692 C 143.417 61.277, 135.275 60.687, 130.661 62.400 M 536 63.155 C 536 65.681, 544.221 76, 546.233 76 C 547.247 76, 539.880 64.975, 537.605 63.087 C 536.262 61.972, 536 61.983, 536 63.155 M 348.230 66.250 C 351.590 71.376, 361 75.253, 361 71.510 C 361 70.642, 358.229 68.764, 354.362 67.010 C 346.413 63.406, 346.363 63.400, 348.230 66.250 M 527.611 67.942 C 530.007 72.975, 538.123 81.149, 548.781 89.266 C 553.930 93.187, 558.768 97.545, 559.532 98.948 C 560.627 100.962, 560.928 101.115, 560.960 99.673 C 561.011 97.362, 557.585 94.133, 546.647 86.179 C 539.145 80.723, 531.760 73.199, 527.236 66.400 C 526.540 65.355, 526.709 66.049, 527.611 67.942 M 339.526 67 C 341.570 70.625, 344.592 74.156, 346.950 75.676 C 348.998 76.997, 345.359 72.478, 339.158 66 C 338.895 65.725, 339.060 66.175, 339.526 67 M 374.538 69.917 C 372.771 73.835, 369.311 77.663, 365.500 79.914 C 363.668 80.997, 363.709 81.040, 366 80.433 C 370.463 79.250, 378.755 68.421, 376.740 66.407 C 376.505 66.172, 375.514 67.751, 374.538 69.917 M 130.415 67.970 C 129.269 68.434, 125.820 70.419, 122.752 72.382 C 113.260 78.454, 102.098 79.862, 98.004 75.504 C 95.034 72.343, 94.392 72.923, 96.452 76.907 C 97.335 78.614, 98.852 80, 99.839 80 C 101.762 80, 106.035 84.099, 107.907 87.740 C 109.990 91.789, 114.566 93.321, 122.731 92.704 C 129.408 92.199, 130.305 92.359, 132.781 94.491 L 135.500 96.832 133 99.536 L 130.500 102.239 135.558 99.152 C 149.033 90.928, 155.055 73.182, 145.966 68.483 C 142.886 66.890, 133.825 66.591, 130.415 67.970 M 98 69.733 C 98 71.541, 100.683 74.205, 102.155 73.859 C 103.294 73.590, 102.963 72.915, 100.839 71.174 C 99.277 69.895, 98 69.246, 98 69.733 M 457.583 72.500 C 460.712 77.737, 461.988 80.459, 461.994 81.917 C 461.997 82.696, 462.270 83.063, 462.600 82.734 C 463.620 81.713, 461.129 75.654, 458.393 72.500 L 455.791 69.500 457.583 72.500 M 452 71.211 C 452 72.433, 456.238 79.096, 456.713 78.620 C 456.969 78.365, 456.013 76.441, 454.589 74.346 C 453.165 72.250, 452 70.839, 452 71.211 M 260.607 76.524 C 261.494 77.877, 261.944 79.776, 261.607 80.742 C 261.106 82.181, 261.273 82.141, 262.526 80.519 C 264.516 77.946, 264.058 75.932, 261.247 74.894 C 259.055 74.085, 259.038 74.128, 260.607 76.524 M 253.735 78.174 C 255.679 80.282, 255.797 80.852, 254.639 82.549 C 250.123 89.165, 249.684 90.439, 253.277 86.500 C 259.079 80.140, 259.231 78.030, 254 76.488 L 251.500 75.752 253.735 78.174 M 62.902 91.250 L 58.618 96.500 62.391 93 C 65.858 89.784, 68.689 86, 67.628 86 C 67.385 86, 65.258 88.362, 62.902 91.250 M 66.500 92.929 C 62.288 97.577, 62.097 97.939, 65.285 95.223 C 67.366 93.451, 69.474 92, 69.967 92 C 70.839 92, 72.525 88.069, 71.841 87.631 C 71.654 87.510, 69.250 89.895, 66.500 92.929 M 464.258 100.217 C 464.039 112.161, 463.819 113.564, 461.834 115.677 C 459.663 117.988, 459.662 118, 461.719 118 C 464.240 118, 465 116.220, 465 110.319 C 465 106.574, 465.521 105.316, 468.047 102.956 L 471.094 100.110 468.704 96.305 C 467.390 94.212, 465.906 91.281, 465.407 89.791 C 464.754 87.841, 464.432 90.766, 464.258 100.217 M 460.310 95.500 C 460.315 98.800, 460.502 100.029, 460.725 98.232 C 460.947 96.435, 460.943 93.735, 460.715 92.232 C 460.486 90.729, 460.304 92.200, 460.310 95.500 M 243.694 99.585 C 242.151 100.913, 241.314 102, 241.833 102 C 243.164 102, 247.606 98.278, 247 97.671 C 246.725 97.396, 245.237 98.257, 243.694 99.585 M 125.750 103.162 C 121.645 104.662, 122.914 108.885, 129.157 114.500 C 131.674 116.764, 131.972 116.887, 130.371 115 C 126.031 109.886, 125.588 108.048, 127.931 104.880 C 130.217 101.787, 129.995 101.612, 125.750 103.162 M 457.500 112 C 455.743 113.941, 455.753 114, 457.845 114 C 459.333 114, 460 113.381, 460 112 C 460 110.900, 459.845 110, 459.655 110 C 459.465 110, 458.495 110.900, 457.500 112 M 575.474 119.474 C 575.079 124.212, 574.993 128.326, 575.282 128.616 C 575.572 128.905, 576.132 125.265, 576.526 120.526 C 576.921 115.788, 577.007 111.674, 576.718 111.384 C 576.428 111.095, 575.868 114.735, 575.474 119.474 M 561.063 113.124 C 561.029 114.018, 561.700 116.718, 562.556 119.124 C 563.412 121.531, 564.482 125.975, 564.934 129 L 565.756 134.500 565.831 130 C 565.899 125.915, 561.212 109.322, 561.063 113.124 M 270.110 116.115 C 268.795 116.623, 266.192 118.381, 264.325 120.020 C 260.479 123.397, 260.453 123.402, 256.104 121.886 C 252.218 120.532, 241.775 124.724, 233.429 130.988 C 228.011 135.055, 216.801 140.978, 210.915 142.885 C 208.943 143.524, 206.027 145.406, 204.435 147.068 C 199.961 151.737, 201.494 153.725, 218.532 165.357 C 225.138 169.867, 230.842 178.011, 233.962 187.387 C 238.896 202.213, 257.425 207.343, 254.697 193.128 C 253.756 188.225, 256.090 184.073, 261.415 181.175 C 268.226 177.469, 268.661 176.482, 267.212 168.033 C 265.638 158.850, 265.738 149.395, 267.456 145 C 274.667 126.561, 276.234 122.182, 276.358 120.140 C 276.549 116.976, 273.297 114.882, 270.110 116.115 M 190.412 122.250 C 185.556 127.282, 178.840 135.238, 182.603 131.500 C 186.803 127.328, 197.241 116, 196.885 116 C 196.642 116, 193.728 118.813, 190.412 122.250 M 269.500 120.431 C 267.849 121.126, 265.861 122.462, 265.082 123.401 C 262.494 126.520, 260.241 127.153, 256.120 125.918 C 253.534 125.143, 251.673 125.084, 250.503 125.738 C 249.173 126.483, 250.444 126.884, 255.811 127.413 C 260.621 127.887, 263.701 128.764, 265.486 130.168 C 266.927 131.301, 268.211 132.064, 268.341 131.864 C 269.265 130.433, 273.159 119.826, 272.866 119.534 C 272.665 119.333, 271.150 119.737, 269.500 120.431 M 391.347 137.615 L 386.500 142.231 391 138.475 C 397.036 133.436, 397.498 133, 396.797 133 C 396.465 133, 394.012 135.077, 391.347 137.615 M 247.253 136.431 C 244.367 137.136, 239.417 139.310, 236.253 141.262 C 233.089 143.214, 227.458 146.028, 223.741 147.515 C 214.819 151.085, 214.806 150.763, 224.201 158.640 C 228.701 162.413, 234.944 168.650, 238.074 172.500 C 245.745 181.936, 246.500 181.743, 246.500 170.342 C 246.500 165.305, 246.829 160.851, 247.232 160.443 C 247.634 160.036, 247.697 158.642, 247.372 157.344 C 246.633 154.402, 249.410 149.836, 251.460 150.623 C 252.452 151.004, 253.134 150.275, 253.600 148.341 C 253.976 146.778, 255.399 143.567, 256.763 141.205 C 258.127 138.842, 259.076 136.758, 258.871 136.572 C 257.593 135.408, 251.731 135.337, 247.253 136.431 M 121.958 144.443 C 124.410 146.950, 126.600 149, 126.824 149 C 127.675 149, 120.430 141.170, 119 140.544 C 118.175 140.182, 119.506 141.937, 121.958 144.443 M 463.345 142.829 C 464.255 143.835, 465.036 145.522, 465.079 146.579 C 465.135 147.954, 465.454 147.685, 466.201 145.634 C 467.291 142.639, 466.222 141.049, 463.095 141.015 C 461.981 141.003, 462.033 141.379, 463.345 142.829 M 579.354 144 C 579.737 145.925, 581.726 149.907, 583.775 152.848 C 590.859 163.018, 591.105 163.787, 590.362 173.452 C 589.746 181.472, 589.412 182.515, 586.249 186.301 C 583.242 189.900, 582.895 190.868, 583.509 193.960 C 583.895 195.907, 584.554 199.525, 584.972 202 L 585.733 206.500 585.866 200.388 C 585.979 195.242, 586.465 193.690, 588.940 190.575 C 599.105 177.785, 597.436 161.906, 584.361 147 C 578.730 140.581, 578.668 140.543, 579.354 144 M 111.103 146.078 C 86.133 161.301, 79.967 178.676, 92.872 197.447 C 101.484 209.974, 102.376 219.922, 96.002 232.350 L 92.547 239.086 94.308 243.793 C 99.884 258.691, 102.300 267.443, 103.882 278.474 C 106.342 295.628, 109.425 299.337, 117.752 295.157 C 123.010 292.518, 133.580 289.234, 139.497 288.402 C 142.858 287.929, 145.644 286.733, 148.010 284.746 C 158.420 276.006, 175.535 273.036, 203.907 275.046 C 212.113 275.627, 213.036 273.722, 209.481 263.548 C 206.674 255.515, 207.326 252.007, 212.563 246.956 C 226.350 233.657, 231.373 204.849, 219.325 208.176 C 214.444 209.524, 212.410 208.908, 197.500 201.564 C 190.350 198.043, 180.094 193.784, 174.709 192.100 C 161.491 187.968, 158.494 185.717, 136.415 163.341 C 116.117 142.770, 116.312 142.903, 111.103 146.078 M 95.500 146.539 C 93.850 147.361, 90.712 150.613, 88.527 153.767 L 84.554 159.500 92.277 152.521 C 96.525 148.683, 100 145.421, 100 145.271 C 100 144.660, 98.331 145.130, 95.500 146.539 M 96.250 153.026 C 91.713 156.890, 88 160.292, 88 160.587 C 88 160.881, 91.825 157.865, 96.500 153.884 C 104.130 147.387, 105.582 146, 104.750 146 C 104.612 146, 100.787 149.162, 96.250 153.026 M 560.075 153.244 C 558.099 164.735, 556.918 167.809, 552.574 172.779 L 548.500 177.439 551.938 175.450 C 556.667 172.713, 559.621 166.289, 561.035 155.666 C 562.464 144.927, 561.795 143.240, 560.075 153.244 M 401.802 153.918 C 398.084 156.733, 394.599 160.325, 393.653 162.319 C 391.357 167.156, 391.656 169.318, 394.006 164.872 C 395.060 162.876, 398.978 158.497, 402.712 155.141 C 410.927 147.756, 410.572 147.279, 401.802 153.918 M 253.832 153.413 C 251.995 155.031, 251.486 156.086, 252.197 156.797 C 252.909 157.509, 252.712 158.870, 251.565 161.165 C 250.276 163.745, 250.049 165.907, 250.562 170.717 L 251.226 176.935 254.042 175.478 C 257.862 173.503, 258.315 171.406, 256.946 162.043 C 256.302 157.636, 256.036 153.349, 256.356 152.515 C 257.099 150.577, 257.019 150.606, 253.832 153.413 M 447 152.574 C 444.394 153.335, 437.449 153.889, 430.500 153.890 C 423.900 153.891, 417.527 153.917, 416.337 153.946 C 412.899 154.032, 402.703 163.222, 400.001 168.671 C 398.591 171.516, 393.745 177.309, 388.209 182.768 C 377.774 193.059, 375.272 197.830, 370.890 215.798 C 368.343 226.240, 368.199 226.443, 362.220 228.033 L 357.500 229.288 361 230.135 C 362.925 230.601, 367.650 231.422, 371.500 231.959 C 375.407 232.504, 382.035 234.486, 386.500 236.445 C 390.900 238.375, 396.975 240.430, 400 241.010 C 415.010 243.891, 418.032 245.380, 417.243 249.507 C 416.737 252.155, 420.162 254.263, 424.438 253.936 C 428.689 253.611, 430.021 254.080, 433.476 257.113 C 436.405 259.684, 437.283 260.010, 438.522 258.982 C 439.347 258.297, 442.443 257.759, 445.403 257.785 C 457.376 257.893, 460.751 244.412, 453.640 224.892 C 444.215 199.025, 443.952 169.140, 453.020 154.467 C 455.513 150.434, 454.947 150.255, 447 152.574 M 81.241 163.250 C 72.702 172.364, 73.648 185.573, 83.983 201.544 C 87.202 206.519, 90.283 212.144, 90.828 214.044 C 91.738 217.217, 91.827 217.280, 91.910 214.815 C 92.040 210.946, 90.525 207.477, 85.002 199 C 76.853 186.492, 75.551 173.811, 81.493 164.832 C 84.375 160.476, 84.297 159.987, 81.241 163.250 M 187.847 165.714 C 189.522 168.844, 186.919 170.734, 183.220 169.071 C 180.042 167.641, 180.585 168.168, 188.081 173.794 C 200.202 182.890, 204.539 179.365, 193.368 169.496 C 189.720 166.274, 187.235 164.572, 187.847 165.714 M 279.394 180.567 C 279.039 181.979, 279.210 184.567, 279.773 186.317 C 280.731 189.299, 280.802 189.137, 280.898 183.750 C 281.007 177.603, 280.439 176.402, 279.394 180.567 M 472.696 183.096 C 468.920 185.088, 468.898 185.137, 469.575 189.801 C 470.427 195.674, 471 196.438, 471 191.701 C 471 189.065, 471.851 187.101, 474.104 184.535 C 475.811 182.591, 477.048 181.020, 476.854 181.044 C 476.659 181.069, 474.788 181.992, 472.696 183.096 M 246.717 184.275 C 244.451 186.038, 243.589 186.224, 242.076 185.280 C 239.565 183.711, 240.359 187.110, 243.079 189.571 C 244.853 191.177, 244.996 191.167, 245.642 189.386 C 246.018 188.349, 247.183 186.262, 248.231 184.750 C 250.493 181.485, 250.359 181.443, 246.717 184.275 M 543.994 187.006 C 542.232 188.768, 542.064 189.842, 542.618 195.801 C 543.206 202.122, 543.037 202.965, 540.166 208.052 C 538.470 211.056, 536.346 216.436, 535.444 220.007 C 534.462 223.899, 532.778 227.591, 531.241 229.224 C 529.366 231.215, 528.446 233.633, 527.819 238.215 C 526.436 248.326, 526.095 248.490, 506.220 248.555 C 497.024 248.586, 486.313 248.978, 482.419 249.428 C 474.139 250.383, 471.043 248.138, 470.955 241.115 C 470.930 239.127, 470.307 236.150, 469.571 234.500 C 468.374 231.815, 468.288 232.512, 468.756 241.126 C 469.417 253.299, 468.934 255.087, 463.371 261.034 C 459.859 264.789, 458.701 266.875, 458.283 270.198 C 457.986 272.564, 456.903 275.427, 455.877 276.559 C 454.041 278.584, 454.063 278.669, 457.255 281.752 C 465.699 289.906, 480.512 293.568, 493 290.588 L 499.500 289.036 489.832 289.433 C 478.549 289.896, 474.442 288.446, 468.540 281.912 C 464.022 276.911, 464.071 276.359, 469.635 269.600 C 475.492 262.485, 477.161 262.092, 487.877 265.303 C 509.524 271.788, 514.681 277.538, 505.937 285.438 L 501.874 289.109 508.139 288.691 C 518.801 287.980, 524 290.751, 524 297.144 C 524 308.354, 532.651 323.842, 546.634 337.667 C 563.136 353.982, 563.894 355.838, 560.049 370.500 C 557.598 379.846, 558.216 379.832, 562.493 370.447 C 567.485 359.491, 567.508 359.233, 564.026 352.709 C 562.336 349.542, 560.049 344.534, 558.945 341.581 C 556.360 334.674, 548.723 321.980, 542.711 314.600 C 537.390 308.067, 536.910 305.373, 540.471 302.027 C 543.353 299.319, 544.582 295.790, 545.522 287.518 C 546.482 279.075, 548.405 274.930, 555.604 265.792 C 559.148 261.294, 562.630 255.619, 563.555 252.833 C 564.461 250.107, 566.967 244.867, 569.125 241.188 C 576.394 228.795, 579.810 207.922, 574.776 206.659 C 573.406 206.315, 567.728 201.301, 562.156 195.517 C 551.169 184.109, 548.256 182.744, 543.994 187.006 M 250 188.444 C 250 189.239, 248.910 191.151, 247.577 192.694 L 245.154 195.500 242.077 192.563 C 238.878 189.510, 238.234 189.699, 240.080 193.150 C 243.504 199.547, 250.925 198.690, 250.771 191.916 C 250.673 187.624, 250 184.593, 250 188.444 M 89.244 199.415 C 91.585 202.943, 93.653 205.677, 93.840 205.492 C 94.245 205.088, 86.133 193, 85.456 193 C 85.198 193, 86.903 195.887, 89.244 199.415 M 220.391 197.903 C 218.681 198.946, 216.656 200.011, 215.891 200.270 C 214.245 200.828, 218.734 200.264, 222.979 199.379 C 225.478 198.858, 226.525 199.325, 229.479 202.279 C 233.464 206.264, 233.671 206.200, 231.346 201.700 C 228.286 195.778, 225.475 194.803, 220.391 197.903 M 276.574 207.143 C 275.588 208.814, 272.805 212.405, 270.390 215.124 C 267.976 217.842, 266 220.546, 266 221.132 C 266 223.132, 269.108 228.753, 271.408 230.914 L 273.704 233.071 274.325 226.424 C 275.035 218.820, 277.212 214.448, 281.841 211.328 C 284.900 209.267, 284.952 209.131, 282.812 208.824 C 281.568 208.646, 280.059 207.511, 279.459 206.303 C 278.378 204.126, 278.352 204.134, 276.574 207.143 M 290.264 208.718 C 291.784 208.947, 294.034 208.941, 295.264 208.704 C 296.494 208.467, 295.250 208.279, 292.500 208.286 C 289.750 208.294, 288.744 208.488, 290.264 208.718 M 311.520 213.898 C 316.129 216.542, 320.455 220.701, 327 228.779 C 328.375 230.476, 330.435 232.126, 331.578 232.445 C 334.810 233.348, 316.991 215.546, 312.233 213.119 C 306.162 210.022, 305.680 210.549, 311.520 213.898 M 283.364 214.110 C 280.241 215.710, 278.862 219.524, 278.254 228.246 C 277.614 237.442, 276.462 238.921, 272.391 235.778 L 269.500 233.545 272.081 237.023 C 278.472 245.632, 298.903 253.531, 317.089 254.425 C 333.211 255.217, 333.592 255.026, 332.721 246.585 C 332.331 242.802, 332.586 240.608, 333.584 239.184 C 334.897 237.309, 334.785 237.112, 332.069 236.515 C 329.254 235.897, 324.718 231.538, 318.762 223.728 C 312.749 215.842, 291.338 210.024, 283.364 214.110 M 348.861 219.740 C 351.669 224.990, 360.617 226.046, 362.423 221.340 C 362.809 220.334, 362.150 220.523, 360.360 221.931 C 356.832 224.707, 355.707 224.559, 351.367 220.750 C 348.402 218.148, 347.902 217.946, 348.861 219.740 M 527.508 226.245 L 524.692 231.500 527.261 229.155 C 529.591 227.029, 531.671 222.338, 530.710 221.377 C 530.497 221.164, 529.056 223.355, 527.508 226.245 M 87.721 229.409 C 86.224 231.774, 85.010 234.338, 85.022 235.105 C 85.034 235.872, 86.435 234.114, 88.135 231.197 C 91.873 224.784, 91.544 223.365, 87.721 229.409 M 333.472 227.045 C 332.743 228.225, 335.232 229.294, 337.633 228.832 C 339.016 228.566, 338.826 228.242, 336.727 227.285 C 335.062 226.527, 333.848 226.437, 333.472 227.045 M 517.506 238.994 C 515.849 240.825, 515.837 241, 517.376 241 C 518.304 241, 519.329 240.306, 519.655 239.457 C 520.586 237.030, 519.495 236.795, 517.506 238.994 M 383 240.260 C 383.848 241.123, 402 250.046, 402 249.600 C 402 248.947, 387.802 241.352, 385 240.506 C 383.625 240.091, 382.725 239.980, 383 240.260 M 475 242.476 C 475 243.899, 475.660 245.316, 476.467 245.626 C 479.379 246.743, 479.804 245.444, 477.426 242.694 L 475 239.888 475 242.476 M 520.924 242.608 C 518.803 244.890, 518.736 245.171, 520.387 244.858 C 521.425 244.661, 522.648 243.488, 523.105 242.250 C 524.166 239.376, 523.886 239.422, 520.924 242.608 M 243.143 245.981 C 235.378 252.119, 232.574 257.654, 233.371 265.275 C 234.170 272.918, 234.853 273.609, 239.124 271.090 C 241.003 269.981, 244.555 268.363, 247.015 267.495 C 253.464 265.219, 264 258.106, 264 256.028 C 264 254.277, 251.025 242, 249.175 242 C 248.627 242, 245.913 243.792, 243.143 245.981 M 263.500 250 C 266.209 252.750, 268.650 255, 268.925 255 C 269.200 255, 267.209 252.750, 264.500 250 C 261.791 247.250, 259.350 245, 259.075 245 C 258.800 245, 260.791 247.250, 263.500 250 M 406 247.415 C 409.816 249.454, 413 250.250, 413 249.165 C 413 248.099, 407.636 245.977, 405.101 246.040 C 404.051 246.066, 404.361 246.540, 406 247.415 M 405 251.500 C 405 251.761, 408.262 253.611, 412.250 255.610 C 416.238 257.610, 422.132 261.215, 425.349 263.623 C 428.566 266.030, 432.166 267.948, 433.349 267.884 C 435.372 267.775, 435.381 267.739, 433.500 267.282 C 432.400 267.015, 429.250 265.102, 426.500 263.031 C 418.833 257.256, 405 249.837, 405 251.500 M 454 258.836 C 450.975 261.770, 447.150 264.790, 445.500 265.547 C 443.705 266.369, 443.184 266.937, 444.203 266.961 C 447.162 267.029, 450.349 264.861, 455.409 259.340 C 461.819 252.345, 460.995 252.050, 454 258.836 M 457.312 261.566 C 448.752 271.235, 436.520 275.191, 429.467 270.571 C 426.889 268.881, 426.869 268.887, 428.007 271.012 C 429.466 273.740, 426.641 277.401, 423.675 276.625 C 421.907 276.163, 421.923 276.289, 423.886 278.378 C 425.048 279.616, 426.007 281.950, 426.015 283.564 C 426.054 290.897, 431.506 292.671, 440.814 288.378 C 449.019 284.594, 451.753 283.957, 454.818 285.113 C 457.219 286.019, 457.098 285.756, 453.667 282.602 C 449.861 279.103, 449.757 278.414, 452.517 275 C 453.184 274.175, 453.994 271.769, 454.317 269.654 C 454.730 266.953, 456.258 264.362, 459.453 260.947 C 463.672 256.436, 464.664 255, 463.562 255 C 463.321 255, 460.509 257.955, 457.312 261.566 M 566 256.670 C 566 257.223, 563.075 261.387, 559.500 265.924 C 551.698 275.828, 551.279 277.120, 558.026 270.474 C 562.924 265.650, 567.847 257.514, 566.614 256.281 C 566.277 255.943, 566 256.118, 566 256.670 M 427.568 258.891 C 426.886 259.993, 431.702 263.266, 433.248 262.751 C 433.922 262.526, 433.496 261.496, 432.188 260.188 C 429.849 257.849, 428.453 257.457, 427.568 258.891 M 373.191 261.850 C 371.921 262.207, 370.909 262.837, 370.941 263.250 C 370.973 263.663, 371 264.419, 371 264.932 C 371 265.444, 372.462 266.902, 374.250 268.171 L 377.500 270.477 375.235 267.584 C 373.108 264.868, 373.072 264.578, 374.640 262.846 C 375.558 261.831, 376.128 261.045, 375.905 261.100 C 375.682 261.155, 374.461 261.492, 373.191 261.850 M 569 261.755 C 569 262.353, 566.075 266.030, 562.500 269.925 C 555.234 277.843, 553.809 280.522, 560.092 274.453 C 564.910 269.799, 570.448 262.114, 569.596 261.263 C 569.268 260.935, 569 261.156, 569 261.755 M 378 266 C 378.589 267.100, 379.415 268, 379.835 268 C 380.256 268, 383.503 270.310, 387.050 273.134 C 392.184 277.221, 392.805 277.535, 390.094 274.675 C 387.202 271.625, 386.883 270.845, 387.986 269.517 C 389.482 267.714, 389.525 267.775, 385.300 265.627 C 380.526 263.200, 376.608 263.400, 378 266 M 51.469 268.687 L 49.709 271.374 52.472 269.201 C 55.281 266.991, 56.024 267.066, 59.405 269.902 C 61.266 271.464, 61.269 271.438, 59.540 268.750 C 57.238 265.173, 53.789 265.146, 51.469 268.687 M 472.616 271.003 C 467.828 276.303, 468.056 278.841, 473.647 282.504 L 476.374 284.291 474.187 281.511 C 470.591 276.940, 474.152 268.891, 480.298 267.699 C 481.894 267.390, 481.638 267.235, 479.366 267.136 C 476.890 267.029, 475.475 267.839, 472.616 271.003 M 214.413 274.369 C 213.816 276.317, 213.679 278.480, 214.109 279.177 C 215.238 281.004, 216.225 278.024, 215.820 274.009 L 215.500 270.828 214.413 274.369 M 497.750 274.483 C 502.499 278.587, 503.075 281.134, 499.777 283.443 C 497.661 284.926, 497.650 285, 499.555 285 C 505.751 285, 508.476 276.908, 503 274.768 C 502.175 274.445, 499.700 273.423, 497.500 272.496 L 493.500 270.811 497.750 274.483 M 477.103 273.807 C 474.070 279.476, 476.920 282.004, 486.321 281.986 C 499.231 281.962, 501.470 279.623, 492.749 275.275 C 485.796 271.807, 478.538 271.126, 477.103 273.807 M 53.081 277.534 C 51.200 280.499, 49.669 284.956, 48.657 290.413 C 46.780 300.531, 41.764 313.281, 35.325 324.303 C 30.250 332.987, 30.245 333.018, 31.009 348 C 31.157 350.887, 30.487 354.113, 29.142 357 C 24.164 367.679, 27.276 371.800, 32.964 362.061 C 35.208 358.220, 38.721 353.718, 40.772 352.058 C 49.645 344.875, 55.502 340.292, 59.562 337.357 C 61.953 335.628, 66.103 331.578, 68.785 328.357 C 74.097 321.976, 80.505 316, 82.035 316 C 86.021 316, 76.155 295.900, 69.488 290.436 C 66.962 288.367, 63.067 283.597, 60.834 279.837 C 56.014 271.724, 56.646 271.911, 53.081 277.534 M 419.750 280.075 C 420.438 280.804, 421 282.631, 421 284.135 C 421 290.321, 426.720 295.956, 433 295.956 C 433.825 295.956, 432.700 295.130, 430.500 294.119 C 425.110 291.644, 422.735 288.739, 422.062 283.795 C 421.732 281.369, 420.881 279.474, 420 279.206 C 418.789 278.838, 418.741 279.006, 419.750 280.075 M 517.506 295.006 C 519.495 297.205, 520.586 296.970, 519.655 294.543 C 519.329 293.694, 518.304 293, 517.376 293 C 515.837 293, 515.849 293.175, 517.506 295.006 M 106.958 298.250 C 109.410 300.863, 111.548 303, 111.708 303 C 112.459 303, 111.665 302.102, 107.250 297.958 L 102.500 293.500 106.958 298.250 M 543.661 302.823 C 541.315 305.415, 541.598 308.435, 544.492 311.694 L 546.984 314.500 545.404 311.221 C 544.150 308.617, 544.049 307.297, 544.917 304.809 C 546.246 300.997, 545.862 300.390, 543.661 302.823 M 131.600 343.400 C 131.952 344.318, 134.324 346.470, 136.870 348.183 C 141.906 351.569, 141.692 351.219, 135.230 345.506 C 132.881 343.430, 131.248 342.482, 131.600 343.400 M 115.989 354.986 C 117.725 357.178, 119.668 359.295, 120.307 359.690 C 120.945 360.084, 119.733 358.290, 117.613 355.703 C 115.493 353.117, 113.550 351, 113.296 351 C 113.041 351, 114.253 352.794, 115.989 354.986 M 396.583 359.643 C 395.567 362.291, 396.882 362.563, 399.250 360.194 L 401.444 358 399.329 358 C 398.166 358, 396.930 358.739, 396.583 359.643 M 485.941 364.551 C 488.934 367.823, 491.594 370.725, 491.853 371 C 492.112 371.275, 491.238 369.550, 489.912 367.167 C 488.585 364.783, 485.925 361.881, 484 360.718 C 480.780 358.772, 480.936 359.079, 485.941 364.551 M 453.715 372.199 C 460.435 377.878, 461.613 378.435, 456.808 373.662 C 454.228 371.098, 451.625 369, 451.023 369 C 450.422 369, 451.634 370.439, 453.715 372.199 M 365.296 375.750 C 367.982 380.613, 374.311 391, 374.589 391 C 374.788 391, 374.532 389.898, 374.019 388.551 C 373.020 385.922, 365.992 375, 365.299 375 C 365.070 375, 365.068 375.337, 365.296 375.750 M 552.624 379.537 C 551.561 382.308, 551.930 384, 553.599 384 C 556.205 384, 561.795 380.975, 562.478 379.196 C 562.931 378.015, 562.438 378.179, 560.741 379.774 C 557.804 382.533, 556.513 382.571, 554.681 379.955 C 553.426 378.164, 553.171 378.112, 552.624 379.537 M 411 390.370 C 411 391.269, 420.209 398.002, 421.394 397.970 C 422.002 397.953, 421.600 397.433, 420.500 396.814 C 419.400 396.195, 416.813 394.371, 414.750 392.760 C 412.688 391.150, 411 390.074, 411 390.370 M 120.104 395.535 C 116.292 399.876, 115.813 405.294, 119.086 407.046 C 121.936 408.571, 122.448 407.715, 120.006 405.506 C 117.917 403.614, 117.303 399.549, 118.953 398.529 C 120.122 397.807, 124.318 392, 123.672 392 C 123.416 392, 121.811 393.591, 120.104 395.535 M 519.736 396.985 C 520.727 398.097, 520.647 398.733, 519.331 400.186 C 517.794 401.885, 517.827 402, 519.845 402 C 522.518 402, 522.770 398.828, 520.250 396.921 C 518.767 395.799, 518.689 395.809, 519.736 396.985 M 122.667 398.667 C 121.394 399.940, 122.009 403.789, 123.582 404.393 C 126.193 405.395, 126.400 405.100, 124.534 403.037 C 123.557 401.958, 123.023 400.383, 123.347 399.537 C 123.979 397.892, 123.743 397.591, 122.667 398.667 M 427.500 398.929 C 429.150 399.327, 431.512 400.197, 432.750 400.862 C 433.988 401.526, 435 401.841, 435 401.561 C 435 400.524, 429.023 398.003, 426.800 398.102 C 424.920 398.186, 425.048 398.337, 427.500 398.929" stroke="none" fill="#1A1A1A" fill-rule="evenodd"/>
</svg>