<svg xmlns="http://www.w3.org/2000/svg" width="592" height="600" viewBox="0 0 592 600" version="1.1">
	<rect x="0" y="0" width="100%" height="100%" fill="#FFFFFF" />
	<path d="M 10.569 7.499 C 5.557 14.070, 4.842 17.918, 6.031 31.927 C 6.617 38.842, 7.432 57.440, 7.840 73.256 C 8.639 104.183, 9.276 107.668, 13.311 103.209 C 14.775 101.591, 15.112 96.706, 15.970 64.625 C 16.966 27.365, 17.466 22.715, 21.146 16.477 C 23.694 12.158, 23.381 11.313, 17.730 7.265 L 13.215 4.030 10.569 7.499 M 135.500 6.894 C 134.400 7.382, 132.448 8.914, 131.162 10.299 L 128.824 12.816 128.954 95.381 L 129.083 177.945 73.666 177.574 C 17.797 177.200, 14 176.947, 14 173.587 C 14 171.390, 11.339 169.649, 10.352 171.201 C 6.626 177.062, 4.577 203.686, 6.919 215.803 C 8.127 222.052, 11.269 225.073, 15.336 223.895 C 18.254 223.049, 82.368 222.966, 115.750 223.765 L 130 224.105 130 322.053 L 130 420 75.250 419.976 C 44.847 419.963, 18.721 419.536, 16.500 419.016 C 12.916 418.177, 12.240 418.338, 10 420.562 L 7.500 423.043 6.723 482.272 C 5.662 563.168, 5.981 585.542, 8.252 589.700 C 10.584 593.970, 10.666 593.848, 5.250 594.195 C -1.300 594.615, -1.466 597.372, 5.033 597.796 C 11.516 598.219, 14.951 594.739, 12.578 590.152 C 10.432 586.001, 10.507 584.267, 12.750 586.193 C 15.803 588.815, 16.555 588.846, 84.044 589.093 L 150.314 589.336 152.645 586.626 C 154.553 584.408, 155.329 584.105, 156.922 584.958 C 158.177 585.630, 173.192 586.009, 199.184 586.025 C 221.358 586.038, 252.550 586.463, 268.500 586.968 C 284.450 587.473, 336.995 588.205, 385.266 588.595 C 433.537 588.984, 472.912 589.408, 472.766 589.537 C 472.620 589.666, 429.300 590.099, 376.500 590.499 C 213.056 591.737, 205.278 592.015, 208.986 596.483 C 211.311 599.284, 323.500 601.260, 323.500 598.500 C 323.500 597.878, 313.862 597.233, 298 596.793 C 283.975 596.404, 271.150 595.914, 269.500 595.703 C 264.391 595.051, 337.467 594.599, 457 594.544 L 571.500 594.492 576.164 592.340 C 582.844 589.259, 582.696 590.164, 583.235 549 C 583.813 504.882, 583.566 501.788, 579.142 497.836 L 575.968 495 558.966 495 L 541.964 495 542.232 471.250 L 542.500 447.500 560.500 447.500 C 573.644 447.500, 579.130 447.141, 580.835 446.170 C 586.047 443.199, 585.901 446.531, 585.960 328.895 C 585.991 268.728, 586.227 205.550, 586.487 188.500 C 586.746 171.450, 587.226 125.737, 587.554 86.916 L 588.151 16.333 585.603 13.305 C 581.988 9.008, 581.893 9.005, 448.500 8.951 C 384.700 8.925, 305.725 8.491, 273 7.987 C 153.588 6.148, 137.472 6.020, 135.500 6.894 M 11.260 12.750 C 9.349 17.126, 9.279 19.893, 10.520 42 L 11.446 58.500 12.540 40.900 C 13.547 24.694, 13.856 22.875, 16.431 17.951 L 19.227 12.602 17.003 10.801 C 13.859 8.255, 13.113 8.508, 11.260 12.750 M 166.768 10.725 C 168.565 10.947, 171.265 10.943, 172.768 10.715 C 174.271 10.486, 172.800 10.304, 169.500 10.310 C 166.200 10.315, 164.971 10.502, 166.768 10.725 M 346.250 12.716 C 347.762 12.945, 350.238 12.945, 351.750 12.716 C 353.262 12.487, 352.025 12.300, 349 12.300 C 345.975 12.300, 344.738 12.487, 346.250 12.716 M 576.976 15.022 C 578.888 15.472, 581.250 16.826, 582.226 18.031 C 583.529 19.640, 584 19.816, 584 18.693 C 584 14.911, 582.836 13.999, 578.143 14.102 C 573.508 14.205, 573.506 14.206, 576.976 15.022 M 139.250 15.606 C 138.265 16.048, 138 33.536, 138 98.183 L 138 180.200 134.571 183.629 L 131.142 187.058 73.821 186.779 L 16.500 186.500 16.249 199 C 16.111 205.875, 16.344 212.032, 16.766 212.682 C 17.333 213.555, 32.532 214.035, 75.017 214.521 L 132.500 215.179 135.500 218.109 L 138.500 221.038 138.696 319.269 C 138.814 378.215, 138.516 418.936, 137.951 421.091 C 135.878 428.990, 139.750 428.546, 76.558 428.127 C 14.342 427.714, 15.990 427.560, 16.015 433.785 C 16.042 440.331, 12.351 439.926, 74.767 440.226 L 131.945 440.500 134.223 442.779 L 136.500 445.058 136.500 512.978 C 136.500 580.052, 136.525 580.905, 138.500 581.435 C 142.057 582.391, 146.861 582.033, 147.690 580.750 C 148.134 580.063, 148.723 548.973, 148.999 511.662 L 149.500 443.825 152.196 441.507 C 156.272 438.002, 156.483 437.999, 344.184 438.260 L 516.868 438.500 519.841 441.348 C 524.029 445.360, 523.970 444.114, 523.188 511 C 522.799 544.275, 522.640 574.110, 522.836 577.301 L 523.191 583.102 527.846 582.801 L 532.500 582.500 533.133 576 C 533.481 572.425, 533.819 560.170, 533.883 548.766 L 534 528.032 536.750 525.029 L 539.500 522.027 556.731 521.362 C 576.401 520.602, 575.248 521.287, 574.177 511 L 573.500 504.500 556.333 504.227 L 539.166 503.953 536.083 500.442 L 533 496.930 532.889 473.215 C 532.751 443.516, 532.594 445.069, 536.092 441.500 L 539.033 438.500 557.767 438 L 576.500 437.500 576.500 434 L 576.500 430.500 558.500 429.875 C 548.600 429.531, 491.450 429.188, 431.500 429.114 C 371.550 429.039, 285.150 428.533, 239.500 427.990 L 156.500 427.002 153.758 423.994 L 151.016 420.987 151.081 218.899 C 151.116 107.751, 150.948 16.615, 150.708 16.375 C 149.972 15.639, 140.580 15.008, 139.250 15.606 M 155.700 15.676 C 154.832 17.081, 154.944 420.348, 155.813 421.725 C 157.088 423.744, 575.513 426.977, 577.302 424.982 C 577.539 424.717, 578.024 351.600, 578.379 262.500 C 578.734 173.400, 579.307 82.848, 579.653 61.272 C 580.130 31.514, 579.993 21.697, 579.086 20.603 C 576.285 17.228, 565.920 17.009, 385 16.503 C 286.275 16.227, 194.420 15.726, 180.878 15.389 C 166.656 15.036, 156.021 15.157, 155.700 15.676 M 16.806 505.750 C 16.518 563.788, 16.775 578.108, 18.126 579.460 C 18.436 579.769, 44.146 580.130, 75.261 580.261 L 131.832 580.500 132.367 575.500 C 133.849 561.651, 133.033 447.175, 131.441 445.584 C 130.033 444.176, 123.583 444, 73.485 444 L 17.112 444 16.806 505.750 M 157.761 513.263 C 157.465 549.647, 157.424 579.941, 157.671 580.585 C 158.002 581.448, 172.442 581.904, 212.810 582.326 C 242.889 582.641, 297.200 583.350, 333.500 583.901 C 416.480 585.163, 499.820 585.356, 506.956 584.304 C 514.370 583.211, 514.058 586.551, 513.757 511.640 L 513.500 447.500 335.900 447.306 L 158.300 447.112 157.761 513.263 M 577.656 526.774 C 576.200 528.231, 573.252 528.578, 558.716 529 L 541.500 529.500 541 557.099 C 540.456 587.141, 540.494 586.951, 534.500 589.665 C 531.875 590.854, 533.996 590.987, 551.500 590.728 C 567.431 590.492, 572.255 590.097, 575.208 588.785 L 578.916 587.137 579.208 556.318 C 579.369 539.368, 579.473 525.398, 579.440 525.274 C 579.408 525.149, 578.605 525.824, 577.656 526.774 M 14 582.266 C 14 583.848, 19.562 585.771, 20.738 584.595 C 21.066 584.268, 20.506 584, 19.495 584 C 18.485 584, 16.835 583.255, 15.829 582.345 C 14.198 580.869, 14 580.860, 14 582.266 M 49.250 584.749 C 63.413 584.906, 86.588 584.906, 100.750 584.749 C 114.913 584.593, 103.325 584.465, 75 584.465 C 46.675 584.465, 35.088 584.593, 49.250 584.749 M 513.945 586.484 C 512.810 587.619, 509.018 588.213, 499.454 588.756 L 486.500 589.491 496 590.134 C 501.225 590.487, 509.325 590.825, 514 590.884 L 522.500 590.993 519.361 589.078 C 517.634 588.025, 516.055 586.665, 515.852 586.055 C 515.612 585.336, 514.941 585.487, 513.945 586.484" stroke="none" fill="#1A1A1A" fill-rule="evenodd"/>
</svg>