<svg xmlns="http://www.w3.org/2000/svg" width="592" height="600" viewBox="0 0 592 600" version="1.1">
	<rect x="0" y="0" width="100%" height="100%" fill="#FFFFFF" />
	<path d="M 132.490 9.322 L 128.500 12.771 128.856 94.741 C 129.199 173.935, 129.149 176.725, 127.356 177.106 C 126.335 177.323, 100.300 177.275, 69.500 177 C 10.182 176.470, 11.312 176.402, 8.392 180.709 C 5.400 185.122, 5.559 214.586, 8.596 218.677 C 12.480 223.907, 11.403 223.817, 71.846 223.951 C 102.956 224.020, 128.637 224.303, 128.914 224.581 C 130.255 225.922, 129.874 416.984, 128.527 418.330 C 127.402 419.456, 117.386 419.606, 70.308 419.207 L 13.449 418.725 10.225 422.397 C 8.030 424.896, 6.997 427.097, 6.991 429.285 C 6.538 592.281, 6.338 587.179, 13.394 592.443 C 16.068 594.439, 17.194 594.493, 51.325 594.262 C 70.671 594.131, 90.325 594.439, 95 594.946 C 102.598 595.771, 101.961 595.826, 89 595.457 C 73.942 595.028, 54.910 596.730, 54.966 598.500 C 55.006 599.752, 140.730 600.245, 141.501 598.998 C 142.626 597.178, 139.051 596.557, 126.736 596.434 C 119.716 596.363, 113.679 596.012, 113.320 595.653 C 112.960 595.294, 120.504 594.948, 130.083 594.884 C 174.887 594.587, 199.679 594.034, 208.688 593.131 C 214.084 592.590, 225.839 592.160, 234.810 592.175 C 249.082 592.198, 251.366 591.979, 253.091 590.418 C 257.471 586.453, 254.657 586.060, 217.476 585.436 C 198.239 585.113, 177.100 584.545, 170.500 584.174 L 158.500 583.500 158.243 516.557 C 158.101 479.739, 158.349 449.251, 158.794 448.806 C 159.846 447.754, 511.328 447.467, 513.027 448.516 C 514.576 449.474, 513.715 579.276, 512.124 584.663 C 509.686 592.917, 514.716 594.306, 544.778 593.679 C 570 593.154, 574.254 592.487, 578.031 588.467 L 580.413 585.932 580.120 560.480 C 579.844 536.415, 579.949 534.663, 582.052 528.345 C 583.954 522.628, 584.185 520.382, 583.646 512.798 C 582.487 496.459, 580.487 495, 559.250 495 C 549.033 495, 544.026 494.626, 543.200 493.800 C 541.080 491.680, 541.539 449.357, 543.695 448.151 C 544.666 447.607, 552.040 447.399, 560.945 447.664 C 587.900 448.466, 585.339 457.353, 585.105 363.814 C 585 321.841, 585.362 246.325, 585.910 196 C 586.458 145.675, 587.039 84.822, 587.203 60.772 L 587.500 17.044 584.483 14.024 C 579.623 9.160, 576.885 9.065, 441.500 9.029 C 372.750 9.010, 293.550 8.571, 265.500 8.051 C 237.450 7.532, 196.946 6.829, 175.490 6.490 L 136.481 5.872 132.490 9.322 M 134.500 11.494 C 132.693 12.928, 132.488 14.358, 132.381 26.291 L 132.261 39.500 132.881 28.271 C 133.460 17.762, 133.676 16.867, 136.239 14.305 L 138.978 11.568 185.239 11.845 C 210.682 11.998, 240.950 12.475, 252.500 12.906 C 264.050 13.336, 278.675 13.419, 285 13.091 C 292.338 12.710, 278.042 12.219, 245.500 11.736 C 217.450 11.319, 181.450 10.737, 165.500 10.442 C 139.986 9.971, 136.260 10.097, 134.500 11.494 M 438 13.986 C 598.266 14.598, 581.978 12.588, 583.134 31.902 L 583.769 42.500 583.634 29.799 C 583.556 22.428, 583.058 16.657, 582.447 16.047 C 579.807 13.407, 561.856 13.069, 435 13.267 L 303.500 13.472 438 13.986 M 138.338 16.203 C 137.877 16.916, 137.660 52.600, 137.856 95.500 C 138.237 178.895, 138.173 180.145, 133.341 183.946 C 130.777 185.963, 129.710 186, 73.924 186 C 34.068 186, 16.917 186.325, 16.446 187.088 C 14.802 189.748, 15.801 212.381, 17.621 213.712 C 19.007 214.725, 30.972 215, 73.723 215 C 133.378 215, 133.398 215.002, 136.448 220.899 C 137.863 223.636, 138.001 234.337, 137.764 323.060 L 137.500 422.164 134.234 425.082 L 130.968 428 74.684 428 C 12.665 428, 16 427.625, 16 434.593 C 16 440.327, 12.549 440, 73.114 440 C 133.301 440, 132.828 439.951, 135.523 446.402 C 136.751 449.339, 136.938 460.065, 136.737 515.874 L 136.500 581.871 139.690 582.470 C 144.214 583.318, 147.717 582.192, 148.374 579.676 C 148.684 578.491, 149.250 547.897, 149.631 511.689 C 150.397 438.999, 150.061 442.448, 156.638 439.948 C 160.090 438.635, 512.852 438.613, 516.303 439.925 C 523.406 442.626, 523.175 439.830, 522.406 514.037 C 521.630 588.936, 521.256 584.869, 528.798 583.645 C 533.715 582.847, 533.454 584.265, 534 555.437 L 534.500 529.035 537.767 525.767 L 541.033 522.500 556.767 522 C 565.420 521.725, 573.063 521.136, 573.750 520.691 C 575.250 519.720, 575.434 510.272, 574.025 506.565 L 573.050 504 558.775 503.944 C 533.486 503.844, 533.865 504.313, 533.237 472.237 C 532.571 438.204, 531.990 439, 557.523 439 C 576.176 439, 577 438.764, 577 433.413 L 577 430.227 550.750 429.608 C 536.313 429.267, 463.300 428.777, 388.500 428.519 C 313.700 428.260, 231.129 427.739, 205.010 427.361 L 157.519 426.673 154.899 424.053 C 150.937 420.091, 150.994 423.352, 151.324 221.500 C 151.491 118.650, 151.374 30.225, 151.064 25 L 150.500 15.500 144.838 15.203 C 141.017 15.002, 138.904 15.327, 138.338 16.203 M 155.500 217.741 C 155.500 376.937, 155.762 420.008, 156.740 421.186 C 158.384 423.168, 208.438 423.893, 386 424.506 C 459.425 424.759, 532.364 425.238, 548.086 425.568 L 576.672 426.170 577.376 280.335 C 577.764 200.126, 578.315 109.525, 578.602 79 C 579.024 34.129, 578.873 23.166, 577.812 21.754 C 575.231 18.320, 566.346 18.098, 409.500 17.556 C 323.700 17.259, 231.450 16.740, 204.500 16.402 L 155.500 15.789 155.500 217.741 M 133.417 62.500 C 133.418 72.950, 133.566 77.089, 133.746 71.698 C 133.926 66.307, 133.925 57.757, 133.744 52.698 C 133.563 47.639, 133.416 52.050, 133.417 62.500 M 582.378 91 C 582.378 97.325, 582.541 99.912, 582.739 96.750 C 582.937 93.587, 582.937 88.412, 582.739 85.250 C 582.541 82.087, 582.378 84.675, 582.378 91 M 133.462 129.500 C 133.461 155.350, 133.591 166.068, 133.749 153.319 C 133.907 140.569, 133.907 119.419, 133.749 106.319 C 133.591 93.218, 133.462 103.650, 133.462 129.500 M 582.405 131.500 C 582.406 140.300, 582.559 143.766, 582.745 139.203 C 582.930 134.639, 582.929 127.439, 582.742 123.203 C 582.555 118.966, 582.404 122.700, 582.405 131.500 M 130.998 178.502 C 130.212 179.449, 128.654 180.595, 127.535 181.048 C 125.697 181.793, 125.754 181.879, 128.128 181.937 C 130.913 182.004, 133.445 179.834, 132.808 177.924 C 132.565 177.195, 131.910 177.404, 130.998 178.502 M 11.725 181.830 C 9.434 184.593, 9.575 214.076, 11.898 217.834 C 12.345 218.559, 14.689 219.364, 17.106 219.623 L 21.500 220.094 17.781 218.039 C 12.445 215.091, 11.862 213.314, 11.815 199.856 C 11.773 188.039, 11.817 187.801, 14.573 184.924 L 17.374 182 70.437 181.794 C 99.622 181.681, 119.675 181.461, 115 181.305 C 83.086 180.238, 12.749 180.596, 11.725 181.830 M 77.431 219.737 C 132.764 220.043, 130.735 219.832, 133.055 225.500 C 133.863 227.474, 133.874 227.474, 133.937 225.441 C 134.127 219.258, 136.379 219.502, 78.831 219.478 L 26.500 219.456 77.431 219.737 M 133.336 280 C 133.336 284.125, 133.513 285.813, 133.728 283.750 C 133.944 281.688, 133.944 278.313, 133.728 276.250 C 133.513 274.188, 133.336 275.875, 133.336 280 M 133.355 299.500 C 133.352 304.450, 133.521 306.601, 133.731 304.280 C 133.940 301.959, 133.943 297.909, 133.736 295.280 C 133.530 292.651, 133.358 294.550, 133.355 299.500 M 133.389 337.500 C 133.390 344.650, 133.550 347.444, 133.742 343.708 C 133.935 339.973, 133.934 334.123, 133.739 330.708 C 133.545 327.294, 133.387 330.350, 133.389 337.500 M 132.487 419.232 C 131.944 420.460, 130.375 422.028, 129 422.718 C 126.833 423.804, 126.766 423.970, 128.500 423.970 C 131.406 423.969, 132.752 422.837, 133.529 419.740 C 134.360 416.428, 133.839 416.174, 132.487 419.232 M 12.021 424.960 C 10.645 427.532, 10.466 581.465, 11.835 585.067 C 13.901 590.500, 10.099 590.247, 93.763 590.510 C 136.518 590.645, 178.925 590.433, 188 590.038 C 200.061 589.515, 202.054 589.278, 195.408 589.161 C 190.408 589.072, 180.075 588.701, 172.448 588.335 C 152.701 587.388, 154.055 589.531, 153.794 558.795 L 153.588 534.500 153.044 557.730 L 152.500 580.959 149.777 583.680 C 147.662 585.793, 146.210 586.357, 143.277 586.205 C 141.200 586.098, 112.212 585.746, 78.860 585.424 L 18.220 584.839 15.360 581.854 L 12.500 578.870 12.219 504.526 L 11.939 430.182 14.382 427.341 L 16.825 424.500 60.663 423.979 L 104.500 423.458 58.785 423.229 C 14.281 423.006, 13.043 423.052, 12.021 424.960 M 580.810 426.514 C 580.430 426.899, 580.370 429.330, 580.676 431.916 C 581.687 440.452, 578.874 442.372, 564.340 443.063 L 552.500 443.625 564 443.799 C 578.558 444.019, 579.711 443.704, 581.068 439.135 C 582.202 435.317, 581.997 425.310, 580.810 426.514 M 488.402 442.841 C 488.882 443.618, 493.167 444, 501.404 444 C 518.776 444, 517.374 441.144, 518.029 477.853 L 518.559 507.500 518.779 477.250 C 519.041 441.396, 519.535 443.005, 508.250 442.993 C 504.538 442.989, 498.392 442.692, 494.593 442.334 C 489.473 441.850, 487.871 441.981, 488.402 442.841 M 16.118 509 C 16.183 545.025, 16.525 575.850, 16.878 577.500 L 17.519 580.500 74.509 581 C 105.854 581.275, 131.725 581.350, 132 581.167 C 132.956 580.530, 132.984 450.088, 132.029 447.575 C 130.672 444.007, 130.356 443.988, 70.250 443.731 L 15.999 443.500 16.118 509 M 157 443.729 C 155.183 444.420, 154.036 446.018, 154.015 447.885 C 154.007 448.654, 154.919 448.101, 156.066 446.643 L 158.133 444.016 218.316 443.750 L 278.500 443.484 218.500 443.321 C 185.500 443.231, 157.825 443.415, 157 443.729 M 320.750 443.749 C 337.388 443.903, 364.613 443.903, 381.250 443.749 C 397.888 443.596, 384.275 443.470, 351 443.470 C 317.725 443.470, 304.113 443.596, 320.750 443.749 M 458.250 443.746 C 463.613 443.925, 472.387 443.925, 477.750 443.746 C 483.113 443.566, 478.725 443.419, 468 443.419 C 457.275 443.419, 452.887 443.566, 458.250 443.746 M 538.557 445.223 C 537.271 447.059, 537.035 450.493, 537.204 464.973 L 537.407 482.500 537.954 465.400 C 538.526 447.483, 538.965 445.776, 543.465 443.952 C 545.286 443.214, 545.216 443.120, 542.807 443.063 C 541.107 443.023, 539.539 443.820, 538.557 445.223 M 538 494.954 C 538 498.802, 540.651 499.486, 556.901 499.833 C 573.620 500.189, 575.708 500.848, 578.046 506.500 C 578.772 508.256, 578.881 508.164, 578.937 505.750 C 579.073 499.823, 576.695 499, 559.423 499 L 543.846 499 540.923 496.077 C 538.523 493.677, 538 493.476, 538 494.954 M 579.193 514.694 C 579.049 518.556, 578.381 520.608, 576.588 522.694 L 574.177 525.500 557.636 526 C 545.981 526.352, 540.712 526.883, 539.798 527.798 C 538.827 528.770, 538.374 535.746, 538 555.528 L 537.500 581.960 534.946 584.511 C 530.605 588.848, 525.726 588.926, 521.527 584.727 L 518 581.200 517.805 562.350 L 517.611 543.500 517.055 564.500 C 516.750 576.050, 516.135 586.063, 515.690 586.752 C 513.895 589.525, 520.183 590.162, 544.500 589.672 C 567.960 589.200, 575.885 588.204, 576.106 585.703 C 576.164 585.041, 576.123 573.378, 576.013 559.785 C 575.828 536.883, 575.971 534.597, 577.957 528.629 C 579.505 523.976, 580.001 520.427, 579.743 515.844 C 579.398 509.721, 579.379 509.681, 579.193 514.694" stroke="none" fill="#1A1A1A" fill-rule="evenodd"/>
</svg>