<svg xmlns="http://www.w3.org/2000/svg" width="592" height="600" viewBox="0 0 592 600" version="1.1">
	<rect x="0" y="0" width="100%" height="100%" fill="#FFFFFF" />
	<path d="M 1.537 0.941 C 0.400 2.779, -0.262 74.720, 0.851 75.408 C 2.677 76.537, 2.922 74.520, 3.379 54.572 C 3.628 43.716, 4.050 34.616, 4.318 34.349 C 6.434 32.233, 7.148 113.047, 6.850 321 C 6.708 420.275, 6.572 520.850, 6.546 544.500 C 6.521 568.150, 6.855 588.773, 7.289 590.330 C 8.056 593.079, 7.979 593.151, 4.593 592.860 C 0.458 592.503, -0.757 593.383, 0.980 595.476 C 2.619 597.451, 9.365 597.469, 10.997 595.503 C 11.955 594.349, 11.983 592.991, 11.120 589.561 C 9.623 583.619, 9.605 583.659, 12.750 585.898 C 15.404 587.788, 17.861 587.868, 83.096 588.178 C 154.164 588.517, 154 588.526, 154 584.255 C 154 583.135, 154.330 583.029, 155.305 583.838 C 158.478 586.471, 511.500 588.896, 514.096 586.303 C 515.027 585.372, 515.725 585.652, 517.220 587.553 C 520.166 591.298, 533.411 591.208, 537.923 587.411 L 541 584.822 541 556.911 L 541 529 546.750 528.882 C 568.381 528.439, 577.372 527.936, 578.362 527.114 C 579.208 526.411, 579.500 534.055, 579.500 556.938 L 579.500 587.706 574.500 589.524 C 569.761 591.246, 561.605 591.353, 418.500 591.576 C 239.714 591.855, 233.530 592.046, 239.623 597.102 C 242.337 599.355, 373.893 600.714, 375 598.500 C 375.314 597.872, 370.662 597.297, 362.500 596.954 C 355.350 596.654, 349.950 596.241, 350.500 596.037 C 351.050 595.832, 400.775 595.576, 461 595.468 C 567.921 595.276, 570.625 595.224, 575.820 593.266 C 578.746 592.163, 581.588 590.812, 582.134 590.266 C 583.896 588.504, 583.736 504.125, 581.964 500.529 C 579.535 495.600, 577.138 495.031, 558.750 495.015 L 542 495 541.833 473 C 541.742 460.900, 541.629 450.212, 541.583 449.250 C 541.507 447.647, 543.133 447.484, 561 447.308 L 580.500 447.116 582.750 444.502 C 584.079 442.958, 584.994 440.582, 584.986 438.694 C 584.859 409.165, 586.275 167.439, 586.951 103.286 C 587.882 14.828, 587.805 12.344, 583.971 7.830 L 581.992 5.500 579.746 8.172 C 577.638 10.679, 577.194 10.790, 572.500 9.980 C 569.750 9.505, 486.950 8.863, 388.500 8.553 C 290.050 8.243, 192.611 7.720, 171.969 7.389 L 134.438 6.788 131.105 9.902 C 128.478 12.356, 127.925 13.492, 128.497 15.258 C 128.897 16.491, 129.449 53.612, 129.724 97.750 L 130.225 178 74.172 178 C 30.427 178, 17.940 177.726, 17.309 176.750 C 15.692 174.252, 17.016 33.769, 18.747 24.042 C 19.505 19.784, 19.783 19.491, 24.918 17.531 C 31.121 15.164, 33.057 12.978, 31.070 10.584 C 30.347 9.713, 28.752 9, 27.527 9 C 22.065 9, 18.886 6.951, 19.201 3.635 C 19.588 -0.419, 16.956 -0.660, 15.562 3.303 C 14.090 7.489, 15.830 9.693, 22.473 12.061 L 25.447 13.120 21.304 14.975 C 15.149 17.731, 14.823 18.946, 13.938 42.435 C 12.779 73.195, 12.020 163.221, 12.843 172.229 C 13.335 177.608, 13.209 180.089, 12.429 180.389 C 11.613 180.702, 11.121 162.855, 10.618 114.659 C 10.239 78.272, 9.456 42.316, 8.880 34.758 C 7.892 21.813, 7.956 20.641, 9.979 14.562 C 12.386 7.330, 12.396 0.500, 10 0.500 C 8.926 0.500, 8.319 2.061, 7.862 6 C 7.511 9.025, 6.752 12.625, 6.176 14 C 5.074 16.627, 4.701 14.357, 4.550 4.085 C 4.501 0.707, 2.787 -1.082, 1.537 0.941 M 138 97.944 L 138 180.888 135.676 183.590 L 133.352 186.292 74.676 186.081 L 16 185.870 16 199.818 C 16 213.438, 16.053 213.781, 18.250 214.370 C 19.488 214.701, 45.752 214.979, 76.615 214.986 C 131.861 215, 132.771 215.032, 135.365 217.073 L 138 219.145 138 321.398 L 138 423.651 135.661 425.849 L 133.322 428.046 74.911 428.273 L 16.500 428.500 16.200 434.250 L 15.900 440 73.996 440 L 132.091 440 134.638 442.547 L 137.185 445.094 136.832 512.993 C 136.481 580.317, 136.496 580.896, 138.489 581.432 C 142.652 582.551, 147.776 582.027, 148.393 580.418 C 148.727 579.548, 149 548.730, 149 511.934 L 149 445.032 151.750 441.995 L 154.500 438.958 335.962 438.874 L 517.423 438.790 520.373 442.091 L 523.323 445.393 522.642 514.197 L 521.962 583 527.333 583 L 532.704 583 533.346 574.750 C 533.699 570.212, 533.991 557.638, 533.994 546.806 C 534.002 520.470, 532.339 522.327, 556.750 521.409 L 575 520.724 575 517.001 C 575 514.954, 574.714 511.191, 574.364 508.640 L 573.728 504 556.420 504 C 539.707 504, 539.018 503.919, 536.386 501.656 L 533.661 499.312 533.246 472.049 L 532.830 444.787 535.602 441.893 L 538.374 439 557.687 439 L 577 439 577 434.612 L 577 430.225 552.750 429.637 C 539.413 429.314, 445.154 428.808, 343.286 428.513 C 231.392 428.190, 157.091 427.605, 155.596 427.037 C 154.235 426.519, 152.644 425.204, 152.061 424.114 C 151.323 422.735, 151 360.322, 151 219.173 C 151 35.023, 150.853 16.158, 149.418 15.607 C 148.548 15.273, 145.623 15, 142.918 15 L 138 15 138 97.944 M 155 218.783 C 155 399.807, 155.170 422.851, 156.510 423.366 C 157.341 423.684, 237.328 424.184, 334.260 424.476 C 431.192 424.769, 525.688 425.244, 544.250 425.532 L 578 426.057 578.030 393.279 C 578.046 375.250, 578.384 312.125, 578.780 253 C 579.176 193.875, 579.500 117.179, 579.500 82.565 L 579.500 19.631 574.797 18.431 C 571.269 17.531, 524.647 17.077, 388.297 16.613 C 288.309 16.273, 194.912 15.722, 180.750 15.387 L 155 14.779 155 218.783 M 11.204 228.628 C 11.401 239.156, 11.418 239.233, 11.747 231.050 C 11.934 226.402, 12.523 222.074, 13.056 221.433 C 13.705 220.651, 13.526 219.851, 12.512 219.010 C 11.176 217.902, 11.024 219.023, 11.204 228.628 M 15.943 231.250 C 15.589 282.336, 16.428 418.761, 17.099 419.432 C 17.321 419.654, 42.768 419.985, 73.647 420.168 L 129.791 420.500 130.417 414 C 130.761 410.425, 130.806 387.250, 130.517 362.500 C 130.228 337.750, 129.994 296.238, 129.996 270.250 L 130 223 73 223 L 16 223 15.943 231.250 M 11.445 279 C 11.445 296.325, 11.582 303.413, 11.748 294.750 C 11.915 286.087, 11.915 271.913, 11.748 263.250 C 11.582 254.588, 11.445 261.675, 11.445 279 M 11.419 352 C 11.419 362.725, 11.566 367.113, 11.746 361.750 C 11.925 356.387, 11.925 347.613, 11.746 342.250 C 11.566 336.887, 11.419 341.275, 11.419 352 M 11.255 398.500 C 11.240 409.171, 11.432 411.322, 12.064 407.546 C 12.520 404.821, 12.529 398.521, 12.084 393.546 C 11.277 384.516, 11.275 384.525, 11.255 398.500 M 11 419.214 C 11 424.470, 11.207 425.203, 12.340 423.964 C 13.220 423.003, 13.528 420.869, 13.239 417.750 C 12.601 410.870, 11 411.917, 11 419.214 M 16.007 505.742 C 16.011 539.709, 16.301 570.538, 16.652 574.250 L 17.289 581 74.565 581 L 131.841 581 132.357 574.750 C 132.641 571.313, 132.790 540.600, 132.687 506.500 L 132.500 444.500 74.250 444.242 L 16 443.984 16.007 505.742 M 157 514 L 157 581 166.250 581.044 C 171.338 581.068, 193.050 581.330, 214.500 581.625 C 365.515 583.707, 511.305 584.134, 512.831 582.500 C 513.379 581.914, 513.999 553.670, 514.330 514.250 L 514.895 447 335.947 447 L 157 447 157 514" stroke="none" fill="#1A1A1A" fill-rule="evenodd"/>
</svg>