<svg xmlns="http://www.w3.org/2000/svg" width="592" height="600" viewBox="0 0 592 600" version="1.1">
	<rect x="0" y="0" width="100%" height="100%" fill="#FFFFFF" />
	<path d="M 89.008 0.991 C 87.554 1.894, 66.391 2.317, 34.926 2.073 C 20.336 1.960, 19.234 2.084, 17.468 4.035 C 14.362 7.467, 16.537 9.268, 26.099 11.178 C 33.143 12.586, 41.305 12.863, 76.618 12.895 C 99.783 12.917, 120.558 13.225, 122.785 13.582 C 125.604 14.032, 127.818 13.738, 130.071 12.615 C 134.244 10.533, 134.193 10.502, 132.224 13.932 C 130.998 16.068, 130.208 16.587, 129.313 15.845 C 128.590 15.244, 121.391 14.826, 111.793 14.826 C 102.832 14.826, 89.200 14.771, 81.500 14.704 C 73.800 14.637, 65.250 14.691, 62.500 14.826 C 59.750 14.960, 50.004 15.167, 40.843 15.285 L 24.186 15.500 20.397 18.566 C 18.313 20.253, 16.230 22.953, 15.769 24.566 C 14.754 28.111, 13.014 109.020, 13.072 149.907 C 13.109 175.233, 12.899 179.530, 11.557 180.871 C 10.148 182.281, 9.999 178.927, 9.990 145.464 C 9.975 86.783, 8.312 34.126, 6.382 31.179 C 5.037 29.127, 4.597 28.974, 3.419 30.152 C 1.592 31.980, 0.205 54.438, 0.373 79.500 C 0.534 103.594, 2.208 105.940, 3.227 83.500 C 3.626 74.700, 4.106 66.825, 4.293 66 C 6.031 58.318, 7.090 416.562, 5.613 512.500 C 4.664 574.134, 4.707 583.828, 5.944 587.960 C 7.265 592.368, 5.867 594.094, 3.044 591.540 C 1.123 589.801, 1.014 589.800, 0.354 591.520 C -0.586 593.969, 3.510 597.281, 6.389 596.401 C 10.223 595.228, 11.217 593.813, 10.494 590.556 C 9.103 584.288, 8.252 572.501, 9.048 570.535 C 9.592 569.193, 9.895 571.112, 9.937 576.173 C 9.992 582.885, 10.319 584.226, 12.547 586.873 L 15.093 589.899 54.297 589.807 C 75.858 589.756, 106.518 589.840, 122.430 589.995 L 151.359 590.275 153.180 588.027 C 154.181 586.790, 155 585.127, 155 584.330 C 155 583.529, 155.493 583.187, 156.103 583.564 C 157.293 584.299, 249.233 585.575, 364 586.448 C 403.325 586.748, 446.750 587.235, 460.500 587.532 C 474.250 587.828, 491.973 587.622, 499.886 587.073 L 514.271 586.075 516.155 588.470 C 517.192 589.788, 519.043 591.060, 520.270 591.297 C 521.496 591.534, 488.975 591.807, 448 591.905 C 332.913 592.179, 300.873 592.698, 299.258 594.314 C 298.146 595.425, 298.136 595.864, 299.200 596.728 C 302.452 599.371, 431.500 601.099, 431.500 598.500 C 431.500 597.923, 426.633 597.267, 420 596.949 C 413.675 596.647, 444.516 596.309, 488.535 596.199 C 566.678 596.005, 568.710 595.951, 574.535 593.925 C 583.734 590.726, 583.058 593.681, 583.573 554.407 C 584.149 510.521, 583.649 501.925, 580.287 497.929 L 577.822 495 559.911 495 L 542 495 542 470.853 L 542 446.705 560.920 447.241 L 579.840 447.776 582.670 444.823 L 585.500 441.869 585.735 338.685 C 585.865 281.933, 586.430 186, 586.992 125.500 C 588.054 11.248, 588.025 10.142, 583.900 6.409 C 581.841 4.546, 581.779 4.556, 579.611 7.076 C 577.415 9.629, 577.391 9.632, 562.956 9.324 C 555.005 9.155, 480.775 8.786, 398 8.506 C 233.298 7.947, 174 7.238, 174 5.827 C 174 5.325, 175.463 5.039, 177.250 5.192 C 181.760 5.578, 196.013 4.089, 198.806 2.940 C 203.862 0.861, 199.945 -0.299, 190.605 0.512 C 185.597 0.947, 177 1.165, 171.500 0.996 C 158.484 0.597, 156.902 0.648, 148 1.756 C 142.716 2.415, 137.103 2.305, 129 1.384 C 115.706 -0.126, 91.196 -0.367, 89.008 0.991 M 6.235 2.088 C 3.397 3.164, 2 6.745, 2 12.943 C 2 22.925, 7.656 21.494, 9.920 10.939 C 11.680 2.732, 10.707 0.394, 6.235 2.088 M 90.547 4.443 C 86.631 5.890, 76.723 6.208, 36 6.195 L 21.500 6.190 28 7.510 C 32.746 8.473, 45.866 8.844, 76.618 8.882 C 99.783 8.911, 120.523 9.220, 122.708 9.569 C 125.590 10.030, 127.853 9.667, 130.950 8.247 L 135.220 6.290 125.860 4.966 C 116.298 3.614, 113.161 3.441, 107 3.928 C 105.075 4.080, 101.475 3.929, 99 3.593 C 96.105 3.200, 93.090 3.503, 90.547 4.443 M 154.738 4.648 C 150.604 5.829, 154.607 6.771, 162.168 6.397 C 170.657 5.976, 174.265 5.008, 167.417 4.989 C 165.262 4.983, 161.925 4.790, 160 4.561 C 158.075 4.332, 155.707 4.371, 154.738 4.648 M 155.101 213.658 C 155.040 323.021, 155.261 414.802, 155.593 417.616 L 156.197 422.732 216.348 423.371 C 249.432 423.722, 344.263 424.283, 427.085 424.618 L 577.670 425.226 578.469 283.863 C 578.909 206.113, 579.320 114.836, 579.384 81.025 L 579.500 19.551 574.194 18.370 C 570.290 17.502, 523.895 17.033, 398.694 16.595 C 305.087 16.268, 212.011 15.734, 191.857 15.408 L 155.214 14.815 155.101 213.658 M 139.696 18.349 C 139.412 19.091, 139.371 55.127, 139.606 98.428 C 139.897 151.885, 139.695 178.418, 138.978 181.082 C 137.045 188.262, 139.971 187.941, 75.714 188.032 L 18 188.115 18 199.922 L 18 211.728 22.640 212.364 C 25.191 212.714, 51.111 213, 80.240 213 L 133.200 213 136.614 216.414 L 140.028 219.828 139.764 322.501 L 139.500 425.173 136.526 427.732 L 133.552 430.290 99.026 429.907 C 80.037 429.697, 54.013 429.632, 41.195 429.762 L 17.890 430 18.195 434.750 L 18.500 439.500 76.407 439.758 C 117.151 439.940, 134.713 440.347, 135.657 441.131 C 136.757 442.043, 137 454.606, 137 510.506 L 137 578.767 139.250 579.370 C 140.487 579.701, 142.669 579.979, 144.098 579.986 L 146.696 580 147.351 546.250 C 147.711 527.688, 147.997 497.072, 147.986 478.216 C 147.973 456.215, 148.341 443.231, 149.013 441.976 C 151.523 437.286, 151.781 437.265, 218 436.562 C 252.375 436.197, 282.075 435.557, 284 435.140 C 294.113 432.950, 281.709 432.145, 218.743 430.904 L 154.019 429.629 151.262 426.752 L 148.505 423.874 148.775 230.187 C 148.923 123.659, 148.760 32.112, 148.414 26.750 L 147.784 17 143.999 17 C 141.745 17, 140.005 17.546, 139.696 18.349 M 56 19.165 C 53.839 19.825, 47.347 20.027, 39.028 19.692 C 24.057 19.089, 20.701 19.990, 19.584 24.915 C 18.804 28.354, 17.091 110.968, 17.040 147.605 L 17 176.711 23.750 177.348 C 38.207 178.714, 128.748 178.100, 129.311 176.632 C 129.599 175.880, 129.660 155.743, 129.446 131.882 C 129.232 108.022, 129.037 73.425, 129.013 55 C 128.989 36.575, 128.583 20.890, 128.111 20.145 C 127.256 18.796, 122.024 18.650, 85 18.941 C 79.225 18.986, 71.125 18.815, 67 18.560 C 62.875 18.305, 57.925 18.578, 56 19.165 M 10.244 321.340 C 10.487 419.325, 10.591 424.647, 12.243 423.616 C 13.201 423.018, 13.780 421.847, 13.529 421.014 C 12.788 418.559, 12.578 224.691, 13.313 222.486 C 13.786 221.067, 13.394 220.103, 11.987 219.224 C 9.993 217.979, 9.989 218.226, 10.244 321.340 M 16.861 228.716 C 16.785 231.897, 16.800 265.775, 16.895 304 C 16.989 342.225, 17.052 383.962, 17.033 396.750 L 17 420 73.500 420 L 130 420 130 321.593 L 130 223.186 73.500 223.059 L 17 222.932 16.861 228.716 M 285.559 429.468 C 286.626 430.276, 288.682 430.951, 290.128 430.968 C 294.447 431.020, 295.752 433.571, 292.972 436.529 L 290.651 439 310.410 439 L 330.168 439 327.059 435.074 L 323.950 431.149 326.197 429.574 C 328.271 428.122, 326.710 428, 306.031 428 C 286.109 428, 283.834 428.163, 285.559 429.468 M 387.983 431.623 C 391.434 434.786, 391.452 434.843, 389.581 436.910 L 387.690 439 397.095 438.825 C 402.268 438.729, 404.636 438.481, 402.358 438.273 C 397.530 437.833, 394.119 434.976, 396.280 433.183 C 398.658 431.209, 410.735 431.451, 413.019 433.517 C 414.888 435.209, 414.910 435.442, 413.353 437.162 C 411.741 438.944, 413.302 439, 464.289 439 L 516.888 439 519.694 441.421 L 522.500 443.842 522.287 485.171 C 522.094 522.616, 522.210 526.030, 523.518 521.500 C 524.312 518.750, 524.970 515.093, 524.981 513.372 C 525.007 509.092, 527.426 507.108, 529.185 509.924 C 529.898 511.066, 531.203 512, 532.086 512 C 534.781 512, 537.322 515.621, 536.623 518.465 C 536.280 519.859, 535.706 522.212, 535.346 523.693 L 534.693 526.387 537.481 524.193 C 540.109 522.126, 541.273 522, 557.672 522 L 575.075 522 574.788 512.750 L 574.500 503.500 556.404 503.228 C 531.971 502.861, 534.221 506.069, 533.879 471.116 L 533.611 443.731 536.361 441.366 C 539.043 439.059, 539.583 439, 557.949 439 C 578.566 439, 578 439.173, 578 432.887 C 578 431.265, 577.438 429.746, 576.750 429.512 C 576.063 429.278, 532.524 428.937, 479.997 428.756 L 384.493 428.425 387.983 431.623 M 330.553 433.724 C 332.389 435.312, 335.479 435.535, 359.803 435.835 C 386.183 436.160, 390.393 435.727, 385.250 433.216 C 384.288 432.746, 371.125 432.268, 356 432.154 C 329.561 431.955, 328.579 432.016, 330.553 433.724 M 16.690 444.742 C 16.167 445.646, 16.583 571.991, 17.124 576.905 L 17.500 580.310 74.709 580.405 L 131.919 580.500 132.462 575.500 C 132.761 572.750, 132.892 542.150, 132.753 507.500 L 132.500 444.500 74.814 444.242 C 43.087 444.100, 16.931 444.325, 16.690 444.742 M 157.340 513.395 L 157.180 579.790 175.340 580.371 C 192.033 580.905, 217.101 581.196, 365 582.575 C 456.480 583.428, 507.366 583.341, 510.500 582.328 L 513.500 581.357 514 515.429 C 514.275 479.168, 514.339 448.938, 514.143 448.250 C 513.859 447.256, 477.301 447, 335.643 447 L 157.500 447.001 157.340 513.395 M 545.200 507.200 C 544.540 507.860, 544 509.287, 544 510.371 C 544 511.455, 543.231 513.192, 542.292 514.230 C 540.993 515.665, 540.840 516.522, 541.653 517.809 C 543.078 520.063, 554.650 520.291, 557.274 518.117 C 558.633 516.990, 559.322 516.922, 560.224 517.824 C 561.763 519.363, 571.255 519.345, 572.800 517.800 C 574.728 515.872, 574.199 513.243, 571.250 510.108 C 568.820 507.524, 567.607 507.111, 560.830 506.557 C 556.118 506.173, 552.923 506.315, 552.545 506.927 C 552.143 507.577, 551.049 507.589, 549.399 506.962 C 546.295 505.782, 546.638 505.762, 545.200 507.200 M 552.548 510.922 C 552.211 511.467, 551.274 511.659, 550.466 511.348 C 549.113 510.829, 544.644 514.969, 545.561 515.892 C 545.775 516.107, 546.759 515.284, 547.748 514.062 L 549.547 511.842 551.428 513.921 C 553.713 516.445, 554.775 516.514, 557.227 514.294 C 558.766 512.902, 559.466 512.810, 561.042 513.794 C 563.149 515.110, 570.009 515.460, 569.985 514.250 C 569.940 512.085, 567.787 511.230, 560.830 510.612 C 556.085 510.191, 552.927 510.309, 552.548 510.922 M 9.423 536.500 C 9.424 548.050, 9.570 552.638, 9.747 546.696 C 9.924 540.753, 9.923 531.303, 9.745 525.696 C 9.567 520.088, 9.422 524.950, 9.423 536.500 M 527.899 519.750 C 526.794 523.213, 525.755 541.983, 525.575 561.700 C 525.505 569.362, 526.780 573.553, 528.622 571.712 C 528.982 571.351, 529.425 561.931, 529.607 550.778 C 529.904 532.520, 530.301 528.233, 532.574 518.750 C 533.696 514.069, 529.418 514.984, 527.899 519.750 M 557.794 527.748 L 540.088 528.046 539.792 556.273 C 539.630 571.798, 539.112 585.288, 538.641 586.250 C 537.111 589.380, 574.458 588.305, 576.400 585.163 C 576.629 584.791, 577.134 571.552, 577.521 555.744 C 578.109 531.751, 578 527.037, 576.863 527.225 C 576.113 527.349, 567.532 527.585, 557.794 527.748 M 533.212 565.782 C 533.096 568.687, 532.368 572.578, 531.595 574.427 C 530.603 576.801, 530.502 578.102, 531.253 578.853 C 532.487 580.087, 530.554 583, 528.500 583 C 526.373 583, 524.606 580.180, 525.818 578.720 C 526.593 577.785, 526.289 576.501, 524.690 573.970 L 522.500 570.500 522.193 575.881 C 521.742 583.797, 522.142 584.337, 528.039 583.770 C 530.792 583.506, 533.275 583.058, 533.557 582.776 C 533.839 582.494, 533.925 577.366, 533.748 571.382 C 533.570 565.397, 533.329 562.877, 533.212 565.782" stroke="none" fill="#1A1A1A" fill-rule="evenodd"/>
</svg>