<svg xmlns="http://www.w3.org/2000/svg" width="476" height="600" viewBox="0 0 476 600" version="1.1">
	<rect x="0" y="0" width="100%" height="100%" fill="#FFFFFF" />
	<path d="M 177.655 2.405 C 175.520 5.663, 178.752 9.821, 185.948 13.073 C 188.908 14.411, 190.640 15.775, 190.347 16.539 C 190.081 17.231, 190.344 18.095, 190.932 18.458 C 191.519 18.821, 192 20.420, 192 22.012 C 192 24.186, 192.995 25.706, 196 28.120 C 200.785 31.965, 200.988 34.110, 197 38.653 C 195.350 40.532, 194 42.504, 194 43.035 C 194 45.070, 191.042 43.868, 189.002 41.003 C 187.065 38.282, 186.989 37.672, 188.180 34.379 L 189.491 30.752 184.245 26.126 C 181.360 23.582, 178.999 21.022, 179 20.437 C 179.002 14.583, 169.259 12.728, 163.500 17.487 L 160.500 19.966 164.520 23.805 C 166.731 25.916, 169.303 28.070, 170.236 28.593 C 172.948 30.110, 171.401 34, 168.086 34 C 165.070 34, 159.155 39.532, 156.860 44.500 C 155.827 46.736, 153.057 48.787, 145.987 52.553 C 130.331 60.892, 113.171 81.765, 108.214 98.500 C 105.013 109.308, 104.760 112.020, 106.443 117.500 C 108.391 123.844, 108.377 124.264, 106.250 123.173 C 105.288 122.680, 102.098 122.005, 99.162 121.675 C 95.773 121.293, 91.513 119.781, 87.499 117.537 C 84.021 115.591, 80.434 114, 79.529 114 C 78.624 114, 76.040 111.975, 73.788 109.500 C 69.379 104.656, 64.550 103.427, 62 106.500 C 60.408 108.418, 54.959 108.436, 52.441 106.532 C 48.682 103.688, 42 105.752, 42 109.756 C 42 111.663, 46.911 114.836, 49.012 114.287 C 50.105 114.001, 51 114.201, 51 114.731 C 51 115.900, 44.801 118.637, 40.033 119.574 C 38.126 119.948, 35.832 120.713, 34.935 121.273 C 33.774 121.998, 31.912 121.817, 28.474 120.646 C 11.867 114.987, 1.999 121.317, 5.060 135.664 C 7.441 146.826, 7.381 149.501, 4.618 155.342 C 1.051 162.883, 1.302 165.417, 6.319 172.500 C 9.812 177.430, 11.143 178.556, 13.783 178.813 C 17.685 179.194, 18.115 179.978, 21.002 192 C 22.257 197.225, 23.956 202.833, 24.777 204.462 C 25.599 206.092, 26.606 212.050, 27.015 217.704 C 28.261 234.927, 31.186 236.657, 41.958 226.540 C 51.136 217.920, 52.934 217.537, 58.516 223.015 L 62.869 227.288 66.011 224.644 C 70.268 221.062, 70.782 221.207, 76.361 227.568 C 82.569 234.645, 83.885 234.463, 90.695 225.577 C 95.413 219.421, 96 218.121, 96 213.827 C 96 207.249, 97.917 207.515, 102.423 214.719 C 106.678 221.521, 106.725 221.970, 103.500 225 C 100.245 228.058, 100.347 229.904, 104.026 234.533 C 107.621 239.056, 107.481 239.964, 102.940 241.605 C 98.225 243.308, 95.474 243.276, 94 241.500 C 92.431 239.609, 89.082 239.623, 86.559 241.532 C 85.491 242.339, 83.663 243, 82.496 243 C 81.329 243, 79.081 244.350, 77.500 246 C 73.579 250.093, 72.696 249.873, 65.855 243.095 C 59.143 236.446, 55.751 235.010, 52.882 237.606 C 50.361 239.888, 50.511 242.669, 53.356 246.406 C 57.693 252.104, 60.215 258.269, 60.725 264.428 C 61.043 268.266, 62.122 272.063, 63.655 274.747 C 65.318 277.659, 66.007 280.259, 65.844 283.015 C 65.509 288.701, 67.590 290.620, 72.378 289.040 C 77.003 287.514, 78 288.235, 78 293.104 C 78 298.564, 81.557 302.239, 85.985 301.353 C 88.342 300.882, 89.628 301.241, 91.341 302.851 C 92.581 304.016, 95.150 305.256, 97.048 305.606 C 101.119 306.358, 103.834 307.944, 110.208 313.292 C 112.797 315.464, 117.730 318.650, 121.169 320.371 L 127.422 323.500 128.803 333.325 C 130.378 344.534, 130.419 344.391, 126.096 342.884 C 120.804 341.039, 113.381 342.261, 109.958 345.540 C 106.601 348.757, 107.124 350.494, 113.237 356.416 C 116.169 359.256, 116.226 359.492, 115.418 365.416 C 113.478 379.637, 114.335 395.949, 117.392 403 C 120.984 411.288, 121.724 415, 119.782 415 C 118.988 415, 117.702 413.812, 116.925 412.359 C 116.147 410.907, 113.680 408.319, 111.443 406.609 C 109.205 404.899, 105.835 401.747, 103.955 399.604 C 99.446 394.466, 95.962 393.102, 88.957 393.738 C 84.710 394.123, 81.905 393.734, 77.772 392.188 L 72.256 390.124 69.667 392.826 C 64.281 398.448, 62.119 413.562, 65.532 421.732 C 66.961 425.151, 67.995 430.474, 69.856 444 C 71.174 453.577, 74.971 457.449, 84.576 459.012 C 91.256 460.100, 92.442 460.951, 94.845 466.382 C 98.445 474.520, 105.934 478.877, 110.452 475.461 C 111.867 474.390, 113.720 474.159, 117.195 474.620 C 123.478 475.454, 125.247 474.050, 124.818 468.571 L 124.500 464.500 129.215 464.500 C 132.705 464.500, 134.491 463.941, 136.088 462.349 L 138.247 460.198 132.660 448.169 C 125.163 432.027, 125.214 432.360, 129.166 425.372 C 132.909 418.756, 133.140 415.547, 131.525 392.592 C 130.719 381.139, 130.760 380.708, 132.594 381.299 C 142.093 384.358, 142.819 384.422, 148.341 382.682 C 162.288 378.285, 162.131 393.575, 148.029 413 C 141.738 421.666, 141.488 422.578, 144.557 425.648 C 147.068 428.159, 153.873 428.449, 161.250 426.361 C 163.560 425.707, 163.467 426.958, 160.515 436.202 C 157.415 445.906, 156.556 456.652, 157.836 469.704 C 158.387 475.316, 158.581 480.887, 158.268 482.084 L 157.698 484.262 131.099 483.484 C 116.470 483.055, 95.050 482.621, 83.500 482.517 C 71.950 482.414, 57.100 481.738, 50.500 481.014 C 43.900 480.290, 31.525 479.546, 23 479.360 C 14.475 479.174, 5.925 478.905, 4 478.761 C 1.480 478.573, 0.500 478.908, 0.500 479.959 C 0.500 482.266, 6.269 483.158, 23 483.438 C 31.525 483.581, 43.900 484.290, 50.500 485.014 C 57.100 485.738, 71.950 486.414, 83.500 486.517 C 95.050 486.621, 116.425 487.048, 131 487.466 L 157.500 488.227 160 485.531 C 162.296 483.054, 162.488 482.128, 162.357 474.167 L 162.215 465.500 163.012 472.837 C 163.451 476.873, 164.070 481.598, 164.389 483.337 C 165.079 487.114, 164.298 488.582, 160.980 489.742 C 158.926 490.460, 77.889 488.745, 51.500 487.425 C 26.003 486.149, 5.152 485.007, 3.101 484.773 C -0.358 484.379, -0.668 486.784, 2.669 488.127 C 4.226 488.754, 14.275 489.674, 25 490.171 C 35.725 490.668, 47.650 491.232, 51.500 491.425 C 86.383 493.170, 158.857 494.495, 161.582 493.438 C 166.215 491.641, 169.220 487.316, 168.441 483.566 L 167.805 480.500 170.125 482.750 L 172.444 485 170.319 487.125 C 166.177 491.268, 173.123 506.428, 200.959 554 C 210.825 570.860, 220.287 574.530, 253.535 574.391 C 289.130 574.242, 294.926 569.557, 311.543 527.500 C 326.083 490.700, 326.018 486.902, 310.888 488.871 C 298.711 490.457, 291.903 493.019, 289.200 497.036 C 287.918 498.941, 285.887 501.013, 284.685 501.640 C 279.351 504.422, 244.092 506.087, 235.500 503.963 C 233.300 503.419, 228.014 502.550, 223.753 502.031 C 214.441 500.898, 175.987 485.226, 182.076 485.047 C 187.643 484.882, 188.775 477.714, 184.057 472.500 C 183.062 471.400, 181.955 468.858, 181.597 466.851 C 180.069 458.271, 174.214 455.632, 168.774 461.072 L 165.701 464.145 166.248 454.221 C 166.682 446.342, 167.551 442.107, 170.468 433.659 C 175.414 419.336, 173.587 414.703, 163.875 416.942 C 154.479 419.109, 154.341 418.751, 160.500 408.229 C 162.975 404.001, 165 401.393, 165 402.433 C 165 403.473, 163.827 406.325, 162.394 408.771 C 158.720 415.041, 160.843 417.684, 166.042 413.313 C 168.810 410.986, 170.175 410.548, 173.944 410.778 C 176.450 410.932, 179.829 410.680, 181.454 410.219 C 184.214 409.436, 194 417.176, 194 420.142 C 194 422.697, 199.449 427, 202.685 427 C 204.613 427, 207.466 427.907, 209.023 429.016 C 210.580 430.125, 213.766 431.888, 216.101 432.934 L 220.347 434.835 225.924 431.834 C 230.913 429.149, 232.079 428.906, 237 429.523 C 252.613 431.479, 257.727 430.221, 266.780 422.195 C 274.459 415.387, 279.910 404.134, 280.815 393.221 L 281.270 387.726 289.427 388.353 C 296.030 388.860, 298.021 388.673, 299.878 387.373 L 302.172 385.766 300.519 388.963 C 298.470 392.925, 300.215 399.196, 305.036 405.194 L 308.036 408.928 304.954 407.214 L 301.872 405.500 297.363 410.500 C 292.469 415.928, 289.057 422.176, 289.022 425.772 C 289.010 427.022, 287.165 430.035, 284.923 432.467 C 281.075 436.642, 280.865 437.188, 281.173 442.195 C 281.482 447.201, 281.359 447.519, 279 447.841 C 271.764 448.829, 272.769 454.449, 280.647 457.049 C 282.491 457.657, 284 458.555, 284 459.043 C 284 459.531, 285.362 461.482, 287.026 463.377 C 291.308 468.254, 297.448 466.462, 310.500 456.528 C 314.146 453.753, 319.189 451.094, 323.354 449.750 L 330.208 447.539 332.104 449.880 C 333.147 451.168, 334 453.197, 334 454.388 C 334 458.159, 336.491 460.560, 340.659 460.806 C 342.772 460.931, 346.827 461.540, 349.671 462.158 C 362.311 464.907, 375.542 448.596, 367.145 440.616 L 364.110 437.731 367.530 430.940 C 371.407 423.243, 371.407 423.242, 376.550 422.425 C 387.702 420.653, 389.253 414.027, 378.826 412.706 C 376.743 412.442, 373.494 410.895, 371.326 409.135 C 362.139 401.678, 356.398 397.949, 354.749 398.368 C 353.785 398.613, 353.249 398.405, 353.558 397.907 C 354.513 396.360, 357.015 396.893, 362.026 399.710 C 366.458 402.201, 367.063 402.304, 369.516 400.991 C 371.937 399.696, 372.546 399.769, 376.041 401.781 C 378.161 403.002, 381.157 404.020, 382.698 404.045 C 388.032 404.131, 391.259 406.281, 392.448 410.542 C 393.287 413.546, 394.450 414.982, 397.274 416.500 C 402.775 419.457, 402.547 423.891, 396.520 431.212 C 392.531 436.058, 392.135 436.983, 392.903 439.661 C 394.384 444.826, 392.719 446.320, 386.368 445.527 C 380.495 444.793, 378.997 445.783, 372.158 454.912 C 366 463.132, 358.921 465.783, 349.421 463.427 C 341.746 461.523, 339.592 462.278, 332.525 469.345 C 322.047 479.823, 322.693 492.323, 333.827 494.530 C 335.297 494.822, 339.650 496.059, 343.500 497.280 C 349.774 499.270, 352.107 499.460, 366 499.113 C 389.703 498.520, 412.587 498.532, 445.278 499.152 C 463.569 499.500, 475.282 499.353, 475.641 498.772 C 477.261 496.151, 473.228 495.646, 448.777 495.403 C 434.875 495.265, 415.850 494.692, 406.500 494.129 C 395.866 493.490, 387.815 493.453, 385 494.032 C 375.283 496.031, 355.863 496.363, 349.500 494.639 C 346.200 493.745, 341.475 492.500, 339 491.872 C 329.871 489.558, 329 489.014, 329.006 485.629 C 329.029 472.761, 338.149 464.631, 349.421 467.427 C 360.598 470.199, 366.645 466.842, 379.863 450.525 C 380.959 449.172, 382.184 448.975, 386.139 449.519 C 393.995 450.600, 398.773 446.182, 396.881 439.586 C 396.139 436.999, 396.574 436.005, 400.568 431.154 C 406.699 423.707, 406.753 417.691, 400.718 414.500 C 398.386 413.267, 396.705 411.541, 396.336 410 C 395.101 404.842, 388.392 400, 382.480 400 C 381.059 400, 378.161 399.002, 376.041 397.781 C 372.546 395.769, 371.937 395.696, 369.516 396.991 C 367.063 398.304, 366.458 398.201, 362.026 395.710 C 355.979 392.311, 355.210 392.328, 350.962 395.959 C 344.572 401.421, 340.310 399.632, 332.538 388.224 C 330.018 384.526, 326.988 380.276, 325.804 378.779 C 323.093 375.350, 323.567 374.239, 332.392 363.316 C 338.747 355.450, 346.383 341.129, 349.155 331.876 C 350.133 328.612, 350.669 328.063, 352.413 328.542 C 357.452 329.927, 362 332.424, 362.531 334.098 C 364.742 341.063, 371.604 342.328, 377.532 336.863 C 381.909 332.829, 382.151 332.742, 387.334 333.352 C 393.068 334.026, 395.004 332.815, 399.486 325.750 C 400.607 323.983, 402.099 323, 403.660 323 C 407.558 323, 411 318.843, 410.416 314.843 C 409.866 311.077, 410.342 310.191, 414.250 307.704 C 416.408 306.330, 417 305.187, 417 302.389 C 417 300.428, 418.575 295.242, 420.500 290.864 C 425.063 280.486, 424.998 278.275, 419.965 272.459 C 415.727 267.563, 415.628 266.696, 418.627 260.800 C 421.334 255.477, 420.219 252.212, 413.148 244.750 C 410.727 242.195, 408.722 241, 406.856 241 C 405.350 241, 403.887 240.627, 403.606 240.171 C 401.807 237.261, 390.801 231.998, 385.421 231.475 C 378.375 230.791, 378.416 230.824, 379.983 227.041 C 382.545 220.856, 390.880 218.187, 395.727 222 C 398.728 224.361, 402.846 224.583, 405.559 222.532 C 408.288 220.467, 425.261 220.404, 427.308 222.450 C 428.105 223.248, 429.081 226.055, 429.476 228.687 C 430.657 236.561, 434.474 241.739, 441.841 245.459 C 448.433 248.787, 451.235 241.522, 446.978 232.141 C 443.817 225.174, 444.341 223.172, 450.805 217.527 L 456.500 212.553 451.250 218.217 C 445.133 224.816, 445.308 223.951, 448.500 231.808 C 454.166 245.751, 449.195 256.955, 441.065 248.567 C 439.235 246.679, 436.468 244.608, 434.917 243.966 C 431.091 242.381, 429.050 238.952, 427.965 232.283 C 426.420 222.791, 420.089 219.317, 411.980 223.510 C 405.291 226.970, 405.518 230.585, 413.017 240 C 422.098 251.402, 422.641 252.744, 420.644 258.851 C 418.582 265.155, 418.561 268.391, 420.573 270.061 C 426.618 275.078, 427.067 281.399, 422.106 291.657 C 418.763 298.571, 418.288 300.376, 418.745 304.428 C 419.249 308.906, 419.090 309.301, 415.638 312.147 C 412.332 314.872, 412 315.605, 412 320.186 L 412 325.227 407.625 324.571 C 402.627 323.822, 399.264 326.641, 397.011 333.468 L 395.849 336.987 389.620 336.743 C 384.110 336.528, 383.017 336.814, 380.150 339.224 C 374.072 344.332, 361.728 344.992, 357.927 340.412 C 355.603 337.611, 346 342.417, 346 346.382 C 346 349.715, 338.299 363.054, 333.425 368.164 C 326.855 375.052, 326.868 373.917, 333.250 382.906 C 339.929 392.313, 341.490 393.342, 344.011 390 C 347.887 384.862, 349.151 383.844, 350.827 384.508 C 356.183 386.629, 358.976 386.248, 365.179 382.553 C 373.068 377.853, 378.759 378.648, 381.947 384.895 C 385.904 392.647, 390.089 393.524, 393.358 387.286 L 394.754 384.623 396.276 387.561 C 397.114 389.178, 399.686 392.641, 401.992 395.258 C 406.467 400.337, 408.459 405.981, 409.958 417.829 C 410.398 421.310, 411.263 424.663, 411.879 425.279 C 414.135 427.535, 413.064 429.664, 409.074 430.860 C 403.456 432.543, 400 437.023, 400 442.622 C 400 449.206, 396.891 452, 389.565 452 C 384.113 452, 383.935 452.095, 376.270 459.095 C 364.750 469.615, 360.705 471.114, 349.534 469.006 C 336.800 466.604, 325.997 480.469, 335.246 487.344 C 337.933 489.340, 338.360 489.356, 354.746 488.039 C 376.848 486.263, 393.056 486.268, 445.490 488.069 C 476.111 489.120, 477.252 488.993, 476.921 484.559 C 476.869 483.864, 476.695 483.852, 476.413 484.524 C 476.132 485.194, 472.623 485.296, 466.242 484.818 C 460.884 484.417, 444.125 483.857, 429 483.573 C 413.875 483.290, 396.012 482.752, 389.304 482.378 C 381.321 481.933, 374.586 482.115, 369.804 482.904 C 365.787 483.567, 356.650 484.198, 349.500 484.305 L 336.500 484.500 336.188 481.799 C 335.356 474.583, 340.389 471.439, 350.190 473.055 C 361.395 474.902, 369.889 471.095, 380.635 459.409 C 383.437 456.362, 384.327 456, 389.017 456 C 397.927 456, 404 450.581, 404 442.631 C 404 437.488, 404.797 436.218, 408.838 434.925 C 415.380 432.832, 418.777 428.177, 415.879 425.279 C 415.263 424.663, 414.397 421.310, 413.956 417.829 C 412.489 406.250, 410.141 398.686, 407.215 396.111 C 405.722 394.798, 402.467 390.748, 399.982 387.111 C 394.821 379.560, 394.345 379.396, 391.190 384.075 C 388.334 388.309, 387.359 388.707, 386.497 385.989 C 383.517 376.600, 374.019 373.287, 365.179 378.553 C 358.951 382.263, 356.193 382.630, 350.742 380.475 C 349.477 379.975, 347.826 380.938, 344.850 383.915 C 342.576 386.189, 340.632 387.925, 340.530 387.775 C 340.429 387.624, 338.430 384.727, 336.090 381.339 C 331.256 374.340, 331.395 373.089, 337.518 368.418 C 340.783 365.928, 348.692 352.147, 350.215 346.296 C 350.970 343.394, 355.470 342.212, 357.790 344.306 C 362.963 348.976, 373.937 348.445, 380.150 343.224 C 383.006 340.823, 384.120 340.528, 389.531 340.739 C 396.615 341.016, 398.608 339.600, 401.546 332.208 L 403.251 327.915 407.665 328.577 C 413.829 329.501, 415.987 327.444, 416.039 320.595 C 416.074 315.966, 416.371 315.315, 419.289 313.470 C 422.345 311.539, 422.504 311.129, 422.584 304.970 C 422.653 299.648, 423.318 297.174, 426.334 291.028 C 431.055 281.406, 430.516 274.993, 424.573 270.061 C 422.561 268.391, 422.582 265.155, 424.644 258.851 C 426.641 252.744, 426.098 251.402, 417.017 240 C 408.781 229.660, 409.270 226, 418.889 226 C 422.759 226, 422.932 226.140, 423.522 229.750 C 423.859 231.813, 424.348 234.657, 424.607 236.071 C 425.265 239.646, 430.482 245.692, 434.847 247.937 C 436.856 248.971, 439.822 251.208, 441.437 252.908 C 450.330 262.269, 458.396 246.504, 452.390 231.502 C 449.298 223.778, 449.003 224.477, 460.357 212.673 C 469.566 203.098, 472.196 202.599, 473 210.275 C 473.706 217.020, 475.442 216.625, 475.803 209.638 C 476.361 198.851, 471.805 197.748, 462.191 206.342 C 456.299 211.607, 457.700 209.605, 466.749 199.824 C 473.164 192.890, 473.539 189.872, 470.334 171 C 467.396 153.706, 463.694 149.025, 449.404 144.533 C 438.556 141.124, 432.681 141.821, 424.440 147.497 C 421.643 149.424, 418.869 151, 418.276 151 C 417.683 151, 414.791 152.121, 411.849 153.490 C 408.907 154.860, 405.138 155.985, 403.473 155.990 C 398.912 156.005, 396.546 158.242, 391.810 167.014 C 389.440 171.405, 387.137 174.998, 386.694 174.999 C 385.102 175.001, 381.977 166.063, 381.396 159.843 C 380.558 150.880, 374.546 131.829, 371.287 127.807 C 369.812 125.988, 366.057 121.791, 362.941 118.480 C 359.825 115.169, 356.353 110.669, 355.225 108.480 C 352.277 102.756, 346.977 98.033, 342.730 97.344 C 335.733 96.208, 322.315 105.240, 315.462 115.697 C 313.370 118.889, 310.160 123.189, 308.329 125.253 C 304.476 129.596, 303.983 133.770, 307 136.500 C 309.657 138.905, 309.553 143.559, 306.750 147.700 C 302.611 153.814, 300.573 150.735, 302.539 141.339 C 304.281 133.016, 294.977 133.517, 290.265 142 C 285.228 151.068, 283.218 149.557, 281.479 135.395 C 280.755 129.494, 281.947 127.661, 287.506 126.126 C 303.728 121.647, 316.077 107.035, 326.360 80.152 C 334.228 59.585, 330.325 37.154, 317.093 26.886 C 315.667 25.779, 310.675 21.148, 306 16.594 C 295.599 6.463, 294.412 5.771, 289.673 7.080 C 286.715 7.897, 285.249 7.708, 281.585 6.039 C 277.880 4.351, 275.055 4, 265.171 4 L 253.233 4 246.780 8.418 C 243.231 10.848, 238.791 13.490, 236.914 14.289 C 230.594 16.979, 223 32.502, 223 42.730 C 223 44.506, 222.249 47.835, 221.332 50.128 C 219.935 53.619, 219.854 55.005, 220.832 58.662 C 221.474 61.064, 222 65.025, 222 67.466 C 222 72.132, 223.661 79.430, 227.036 89.595 C 230.261 99.307, 251.388 120.027, 261.568 123.461 C 269.521 126.144, 271 127.479, 271 131.976 C 271 137.860, 269.317 140.718, 265.423 141.449 C 263.587 141.793, 260.084 142.960, 257.637 144.042 C 252.482 146.323, 251.127 146.016, 248.063 141.872 C 246.831 140.204, 242.150 136.438, 237.661 133.502 C 233.172 130.567, 227.479 126.384, 225.009 124.207 L 220.518 120.250 220.509 108.375 C 220.501 97.585, 220.244 95.906, 217.694 90 C 216.151 86.425, 214.619 80.836, 214.290 77.579 C 213.814 72.871, 212.730 70.109, 209.001 64.100 L 204.311 56.542 192.906 52.702 C 183.218 49.439, 180.973 49.007, 178 49.830 C 170.163 51.998, 165.147 53.188, 158.343 54.493 C 142.136 57.599, 122.152 75.205, 115.101 92.589 C 114.005 95.290, 113.086 96.825, 113.058 96 C 112.784 88.030, 133.384 63.095, 145.372 56.886 C 156.142 51.307, 159.676 48.513, 160.986 44.541 C 162.429 40.170, 164.749 38.227, 169 37.828 C 171.943 37.552, 172.804 36.878, 174.410 33.588 L 176.320 29.675 173.395 27.088 C 171.786 25.664, 169.352 23.725, 167.985 22.777 C 165.552 21.090, 165.541 21.022, 167.441 19.527 C 170.807 16.879, 173.805 17.596, 175.408 21.434 C 176.230 23.402, 178.617 26.042, 181.002 27.620 C 185.256 30.435, 185.344 30.746, 183.519 36.539 C 182.744 38.999, 190.135 48, 192.930 48 C 194.851 48, 198 45.022, 198 43.206 C 198 42.581, 199.350 40.532, 201 38.653 C 202.650 36.774, 204 34.238, 204 33.019 C 204 30.903, 198.770 25, 196.894 25 C 196.402 25, 196 23.677, 196 22.059 C 196 20.441, 195.519 18.821, 194.932 18.458 C 194.344 18.095, 194.087 17.216, 194.360 16.505 C 195.069 14.656, 185.677 7, 182.699 7 C 181.796 7, 181.349 5.907, 181.409 3.846 C 181.524 -0.140, 179.764 -0.816, 177.655 2.405 M 300.527 0.956 C 299.071 3.312, 303.591 9.390, 314.605 19.886 C 331.078 35.584, 329.887 34.987, 335.926 30.554 C 341.023 26.813, 341.360 26.253, 342.477 19.650 L 343.128 15.800 351.189 16.333 C 358.077 16.788, 359.641 17.240, 361.930 19.433 C 363.404 20.845, 365.049 22, 365.587 22 C 368.880 22, 366.764 26.947, 363.235 27.498 C 344.607 30.406, 341.573 38.376, 357.127 43.542 C 362.634 45.371, 365.115 48.764, 362.128 50.382 C 359.305 51.910, 354 57.337, 354 58.696 C 354 59.413, 353.360 60, 352.577 60 C 351.794 60, 349.703 61.238, 347.930 62.750 C 346.157 64.263, 342.671 66.640, 340.183 68.034 C 332.159 72.527, 322.303 92.732, 326.223 96.652 C 327.471 97.899, 328.669 97.810, 335.368 95.973 C 346.745 92.851, 350.425 94.495, 357.447 105.834 C 358.924 108.218, 361.339 110.873, 362.816 111.734 C 369.001 115.341, 379 130.596, 379 136.426 C 379 138.124, 379.468 141.085, 380.040 143.007 C 380.613 144.928, 381.469 149.819, 381.944 153.876 C 383.492 167.103, 388.388 168.295, 392.721 156.500 C 394.509 151.632, 394.680 151.486, 399.217 150.961 C 401.780 150.664, 404.692 149.692, 405.688 148.800 C 406.685 147.908, 409.739 146.846, 412.476 146.441 C 415.213 146.036, 420.600 144.196, 424.448 142.353 C 433.287 138.116, 440.275 137.814, 447.008 141.377 C 449.479 142.685, 453.075 144.083, 455 144.485 C 461.565 145.856, 464.733 148.703, 469.573 157.581 C 472.101 162.219, 474.581 165.759, 475.085 165.448 C 479.960 162.435, 465.361 143.150, 456.553 140.966 C 454.324 140.414, 450.205 138.845, 447.400 137.481 C 439.926 133.845, 433.330 134.096, 424.448 138.353 C 420.600 140.196, 415.231 142.038, 412.516 142.445 C 409.801 142.852, 406.488 144.044, 405.155 145.093 C 403.746 146.201, 401.155 147, 398.969 147 C 394.584 147, 389.671 151.669, 388.514 156.934 C 387.581 161.185, 386.003 159.783, 385.988 154.691 C 385.982 152.386, 385.312 148.025, 384.500 145 C 383.688 141.975, 383.009 138.150, 382.990 136.500 C 382.921 130.399, 369.236 110.162, 364.071 108.522 C 362.988 108.179, 361.816 106.997, 361.467 105.895 C 361.117 104.794, 358.130 101.005, 354.828 97.475 C 347.662 89.815, 345.335 89.130, 335.697 91.845 L 328.894 93.761 329.550 90.630 C 331.714 80.309, 338.859 71.997, 352.088 64.411 C 355.222 62.614, 358 59.774, 358 58.368 C 358 57.641, 359.238 56.278, 360.750 55.338 C 370.215 49.461, 368.746 43.811, 356.583 39.316 C 348.417 36.298, 349.856 33.732, 360.703 31.967 C 372.320 30.076, 373.887 24.356, 364.776 17.093 L 359.015 12.500 361.443 10.714 C 364.374 8.557, 364.093 5.639, 360.621 2.166 C 357.406 -1.049, 355.242 0.220, 357.988 3.711 C 360.231 6.563, 359.285 9, 355.937 9 C 354.936 9, 353.866 9.408, 353.558 9.906 C 352.935 10.915, 349.162 10.228, 347.289 8.765 C 346.517 8.162, 344.794 8.243, 342.540 8.987 C 338.353 10.369, 325.349 8.756, 323.164 6.584 C 321.784 5.213, 327.169 2.369, 329.002 3.501 C 330.023 4.133, 332.171 1.504, 331.325 0.658 C 329.887 -0.779, 324.110 0.125, 320.898 2.290 C 317.335 4.691, 316.456 7.792, 319 8.986 C 319.825 9.373, 321.483 10.195, 322.685 10.812 C 324.446 11.718, 335.371 13.961, 338.173 13.992 C 340.438 14.018, 337.701 24.298, 334.704 27.026 C 330.585 30.774, 330.815 30.813, 324.707 25.297 C 311.661 13.513, 306.664 8.193, 304.935 4.250 C 303.110 0.090, 301.710 -0.957, 300.527 0.956 M 374.341 1.553 C 371.472 9.029, 384.029 12.735, 393.131 7.099 C 397.691 4.274, 397.842 4.252, 403.131 5.641 C 406.101 6.421, 410.906 6.849, 413.886 6.600 C 416.849 6.352, 421.798 6.560, 424.884 7.063 C 428.655 7.676, 432.311 7.601, 436.026 6.834 C 441.956 5.609, 447.634 6.830, 456.331 11.199 C 460.598 13.342, 464.840 11.911, 465.141 8.227 C 465.460 4.318, 466.811 18.157, 466.926 26.500 C 466.993 31.450, 467.548 37.525, 468.158 40 C 468.769 42.475, 469.197 48.333, 469.109 53.018 C 468.951 61.528, 472.193 81.540, 474.035 83.417 C 476.055 85.477, 476.245 80.105, 474.524 69.518 C 473.520 63.335, 472.936 56.015, 473.216 53.104 C 473.494 50.214, 473.124 45.071, 472.396 41.675 C 471.667 38.279, 471.016 31.450, 470.951 26.500 C 470.676 5.824, 468.336 -0.229, 462.937 5.769 L 459.994 9.038 456.247 7.156 C 447.632 2.829, 441.939 1.612, 436.026 2.834 C 432.295 3.604, 428.657 3.677, 424.843 3.056 C 421.734 2.550, 416.876 2.351, 414.047 2.613 C 411.061 2.891, 406.366 2.441, 402.852 1.541 C 396.852 0.004, 396.776 0.011, 393.926 2.409 C 387.628 7.709, 378.570 7.889, 377.807 2.731 C 377.413 0.070, 375.199 -0.683, 374.341 1.553 M 246.428 16.993 C 237.805 22.822, 235.640 25.281, 233.954 31.160 C 232.821 35.111, 233.376 34.733, 236.758 29.250 C 239.585 24.666, 252.471 14.273, 256.709 13.158 C 257.694 12.899, 263.225 12.707, 269 12.731 C 275.359 12.758, 278.711 12.453, 277.500 11.958 C 276.400 11.508, 270.953 11.109, 265.396 11.070 L 255.292 11 246.428 16.993 M 286.474 15.958 C 286.800 16.486, 289.864 17.936, 293.283 19.182 C 300.600 21.849, 309.477 29.748, 310.495 34.500 C 311.343 38.452, 312.529 40.952, 315.021 44.036 C 317.694 47.343, 317.872 56.135, 315.404 62.996 C 313.816 67.414, 313.749 68.724, 314.847 74.037 C 315.981 79.530, 315.916 80.394, 314.113 83.782 C 313.024 85.827, 310.283 91.823, 308.021 97.107 C 302.882 109.109, 296.652 115, 289.096 115 C 286.114 115, 282 117.891, 282 119.985 C 282 122.128, 296.292 115.438, 301.520 110.848 C 309.540 103.806, 324 72.713, 324 62.508 C 324 57.124, 320.608 43.234, 318.183 38.690 C 313.735 30.353, 295.602 15.010, 290.191 15.004 C 287.697 15.002, 286.131 15.404, 286.474 15.958 M 258.750 16.999 C 257.238 17.455, 256 17.619, 256 17.365 C 256 16.727, 248.179 22.335, 244.353 25.718 C 236.928 32.281, 228 53.544, 228 64.664 C 228 75.511, 234.322 86.177, 239.384 83.871 C 245.035 81.296, 247.726 86.972, 243.001 91.499 L 240.002 94.373 242.229 96.743 C 243.826 98.443, 245.350 99.037, 247.616 98.842 C 251.434 98.513, 254.537 100.648, 252.976 102.529 C 250.933 104.991, 257.142 112.253, 263.997 115.417 C 268.626 117.554, 270.764 119.263, 272.701 122.375 C 274.113 124.644, 275.458 126.712, 275.689 126.971 C 276.424 127.796, 277.969 124.586, 277.985 122.200 C 278.024 116.324, 283.641 111, 289.800 111 C 295.431 111, 300.287 106.128, 304.385 96.366 C 306.432 91.490, 309.003 85.827, 310.099 83.782 C 311.918 80.388, 311.983 79.540, 310.847 74.037 C 309.772 68.834, 309.827 67.358, 311.251 63.254 C 314.344 54.338, 313.929 47.443, 310 42.500 C 308.350 40.424, 307 37.728, 307 36.510 C 307 33.275, 303.024 28.014, 299 25.924 C 282.279 17.240, 268.271 14.134, 258.750 16.999 M 235.225 18.671 C 233.797 19.245, 230.688 26.022, 231.487 26.820 C 231.769 27.102, 232 26.824, 232 26.201 C 232 25.579, 233.397 23.479, 235.104 21.535 C 238.057 18.171, 238.085 17.521, 235.225 18.671 M 288.382 38.183 C 284.315 41.130, 284.226 41.145, 279.387 39.719 C 270.903 37.219, 262.952 41.436, 263.420 48.187 C 263.697 52.186, 270.240 57.910, 274.595 57.962 C 276.368 57.984, 278.453 58.843, 279.476 59.974 C 282.572 63.395, 288.482 60.718, 291.397 54.575 C 292.330 52.609, 293.664 51, 294.360 51 C 295.832 51, 300.250 46.485, 301.878 43.316 C 305.333 36.590, 295.660 32.911, 288.382 38.183 M 289.300 42.083 C 284.207 45.045, 284.001 45.078, 279.300 43.693 C 274.334 42.230, 270.247 42.353, 268.585 44.015 C 265.123 47.477, 269 54, 274.519 54 C 276.406 54, 278.413 54.799, 279.476 55.974 C 282.045 58.812, 284.342 58.018, 288.200 52.960 C 290.065 50.514, 292.668 47.977, 293.984 47.320 C 296.115 46.258, 299.673 41.275, 298.828 40.536 C 297.004 38.939, 293.819 39.456, 289.300 42.083 M 178 54 C 177.175 54.533, 175.150 54.997, 173.500 55.030 C 171.850 55.063, 169.150 55.747, 167.500 56.551 C 164.810 57.860, 164.759 57.965, 167 57.564 C 183.240 54.659, 195.450 56.644, 202.925 63.403 L 206.351 66.500 204.331 63.182 C 201.444 58.439, 181.756 51.573, 178 54 M 383.445 59.959 C 382.315 60.417, 379.967 62.413, 378.226 64.396 C 374.468 68.675, 372.281 68.876, 367.060 65.421 C 361.560 61.781, 358.010 63.962, 354.669 73.033 C 352.014 80.245, 352.476 82.688, 357.750 89.323 C 358.988 90.880, 360 92.739, 360 93.454 C 360 99.024, 364.210 96.722, 365.955 90.199 C 367.553 84.222, 369.118 84.074, 375.129 89.332 C 384.182 97.251, 391.122 96.316, 385.570 87.927 C 381.883 82.354, 383.272 70.763, 388.288 65.260 C 390.265 63.091, 390.272 62.958, 388.509 61.010 C 386.501 58.791, 386.387 58.768, 383.445 59.959 M 167 61.570 C 156.358 62.933, 144.737 66.092, 142 68.366 C 141.175 69.051, 137.125 73.155, 133 77.485 C 126.444 84.367, 126.192 84.755, 131 80.569 C 134.025 77.934, 136.840 75.189, 137.256 74.467 C 137.672 73.746, 139.606 72.171, 141.553 70.967 L 145.093 68.779 152.297 71.017 C 156.258 72.249, 160.274 74.132, 161.221 75.203 C 168.726 83.694, 178.662 81.477, 176.799 71.726 C 176.002 67.561, 179.767 63.634, 182.983 65.275 C 187.208 67.431, 187.790 71.208, 184.632 75.980 L 181.920 80.078 183.981 82.973 C 185.703 85.392, 188.873 92.774, 188.940 94.524 C 188.951 94.798, 189.587 96.254, 190.353 97.760 C 193.352 103.656, 193.299 104.788, 189.817 109.250 C 187.993 111.587, 186.005 114.394, 185.400 115.486 C 184.770 116.622, 183.093 117.566, 181.482 117.689 C 177.916 117.964, 176.242 119.694, 175.864 123.500 C 175.525 126.917, 172.448 131.984, 170.682 132.033 C 166.899 132.140, 162.934 139.536, 165.071 142.500 C 172.450 152.735, 156.770 163.669, 145.857 155.898 C 144.222 154.734, 142.662 154.005, 142.390 154.277 C 141.783 154.884, 148.297 159, 149.865 159 C 151.417 159, 159 165.961, 159 167.385 C 159 168.019, 160.827 172.129, 163.061 176.519 C 165.294 180.908, 167.987 186.750, 169.046 189.500 C 171.972 197.105, 178.916 204.823, 187.755 210.294 L 195.500 215.089 207 214.666 C 213.325 214.434, 219.967 213.912, 221.759 213.507 C 225.771 212.600, 228.349 214.392, 227.726 217.654 L 227.291 219.929 230.050 217.965 C 231.567 216.884, 233.547 216, 234.450 216 C 235.781 216, 235.968 215.345, 235.439 212.529 C 233.688 203.191, 247.187 199.476, 250.381 208.418 C 251.115 210.474, 245.778 217, 243.363 217 C 241.650 217, 240.873 218.505, 241.604 220.410 C 242.278 222.168, 246.164 222.518, 248.879 221.065 C 251.463 219.682, 255.078 221.884, 257.371 226.238 C 258.792 228.936, 260.505 230.409, 263.592 231.588 C 269.603 233.884, 270.976 232.911, 266.193 229.747 C 254.263 221.852, 253.171 219.131, 256.981 206.798 C 261.623 191.768, 274.164 189.814, 287.440 202.052 C 292.753 206.949, 292.839 207.646, 289.491 218.623 C 287.374 225.562, 286.355 227.370, 282.979 230.175 L 278.976 233.500 281.524 237.250 C 285.315 242.829, 290 242.189, 290 236.093 C 290 235.133, 291.075 233.338, 292.390 232.103 C 293.704 230.869, 295.354 227.806, 296.057 225.297 C 296.759 222.788, 299.104 218.691, 301.267 216.191 L 305.201 211.646 301.849 209.927 C 297.063 207.471, 295.495 205.392, 292.580 197.631 C 288.645 187.155, 289.290 185.484, 298.473 182.354 L 303.281 180.716 298.390 178.859 C 295.701 177.837, 292.793 177.001, 291.930 177.001 C 291.066 177, 288.408 175.329, 286.023 173.288 C 280.282 168.374, 279.039 168.327, 270.431 172.699 C 259.292 178.357, 254.085 175.341, 253.562 162.929 C 253.320 157.182, 253.012 156.364, 250.397 154.531 C 248.804 153.414, 245.475 150.416, 243 147.868 C 240.525 145.320, 236.250 141.973, 233.500 140.429 C 230.750 138.886, 227.153 136.520, 225.508 135.172 C 223.862 133.824, 220.705 131.945, 218.493 130.997 C 211.857 128.152, 211.523 127.303, 212.999 117.005 C 214.568 106.062, 213.853 99.187, 210.101 89.147 C 208.530 84.941, 206.738 79.352, 206.119 76.726 C 202.629 61.909, 193.119 58.224, 167 61.570 M 380.103 67.500 C 374.578 72.668, 372.454 72.991, 367.136 69.471 C 362.303 66.273, 360.876 66.856, 358.728 72.904 C 356.484 79.221, 356.549 81.558, 359.068 85.096 C 361.299 88.229, 363 88.866, 363 86.568 C 363 85.781, 364.409 84.133, 366.132 82.906 C 369.566 80.461, 369.253 80.355, 376.427 86.391 C 381.443 90.613, 383.295 90.625, 380.539 86.419 C 377.873 82.351, 380.090 69.865, 384.297 65.250 C 387.863 61.339, 385.112 62.815, 380.103 67.500 M 181.015 72.250 C 181.027 74.716, 181.264 75.138, 182 74 C 183.270 72.035, 183.270 69, 182 69 C 181.450 69, 181.007 70.463, 181.015 72.250 M 136.754 79.610 C 118.352 96.378, 115.496 115.210, 128.859 131.675 C 131.616 135.071, 134.642 139.341, 135.584 141.163 C 141.142 151.910, 154.636 158.091, 160.261 152.467 C 163.306 149.422, 163.600 147.692, 161.703 144 C 158.736 138.228, 162.337 130.885, 169.539 128.021 C 171.016 127.434, 171.648 126.156, 171.835 123.383 C 172.140 118.846, 173.938 116.613, 179.129 114.323 C 187.512 110.624, 190.252 104.257, 186.155 98 C 185.254 96.625, 184.467 94.807, 184.405 93.959 C 184.198 91.105, 181.973 85.519, 180.046 83.013 L 178.134 80.526 175.817 82.673 C 172.749 85.517, 170.040 85.844, 167.027 83.733 C 165.668 82.780, 163.990 82, 163.301 82 C 162.611 82, 161.348 80.934, 160.494 79.631 C 159.146 77.573, 148.448 73, 144.983 73 C 144.447 73, 140.744 75.974, 136.754 79.610 M 149.568 80.889 C 149.266 81.378, 147.777 82.084, 146.259 82.458 C 142.554 83.371, 137 88.859, 137 91.607 C 137 93.756, 142.085 99, 144.169 99 C 146.467 99, 158.613 88.590, 159.277 86.050 C 160.390 81.793, 151.824 77.239, 149.568 80.889 M 149 85.007 C 148.175 85.496, 146.150 86.485, 144.500 87.205 C 142.423 88.112, 141.405 89.332, 141.192 91.172 C 140.774 94.778, 144.274 95.979, 147.335 93.279 C 148.526 92.229, 150.677 90.640, 152.117 89.749 C 157.765 86.252, 154.719 81.617, 149 85.007 M 233.699 89.916 C 234.581 92.162, 235.712 94, 236.211 94 C 236.710 94, 236.837 93.546, 236.494 92.991 C 236.151 92.436, 237.247 91.198, 238.929 90.241 C 243.181 87.820, 243.196 85.754, 238.944 88.030 C 237.509 88.798, 236.394 88.649, 234.558 87.446 L 232.095 85.832 233.699 89.916 M 239.934 99.684 C 242.281 102.535, 246.012 106.066, 248.225 107.530 L 252.249 110.193 249.506 106.597 C 247.997 104.618, 246.271 103, 245.669 103 C 245.068 103, 242.571 101.088, 240.121 98.750 L 235.667 94.500 239.934 99.684 M 225.202 100.470 C 223.432 102.720, 223 104.579, 223 109.944 L 223 116.618 230.250 124.148 C 239.635 133.894, 246.642 137.502, 256.174 137.496 C 270.018 137.488, 271.642 128.067, 258.500 124.005 C 256.300 123.325, 252.700 121.091, 250.500 119.040 C 248.300 116.989, 244.925 114.247, 243 112.947 C 241.075 111.646, 236.779 107.677, 233.452 104.126 L 227.405 97.670 225.202 100.470 M 331 104.890 C 324.964 108.715, 321.746 111.850, 318.459 117.107 C 316.948 119.523, 314.202 123.189, 312.356 125.253 C 308.708 129.332, 307.925 133.863, 310.500 136 C 311.794 137.074, 312.002 136.645, 312.015 132.872 C 312.037 126.599, 324.900 110.036, 334.500 103.919 C 336.150 102.868, 337.050 102.014, 336.500 102.023 C 335.950 102.031, 333.475 103.321, 331 104.890 M 347.288 104.778 C 348.752 106.306, 350.447 108.983, 351.054 110.726 C 351.695 112.563, 354.963 116.317, 358.830 119.656 L 365.500 125.416 359.403 118.954 C 356.049 115.399, 352.507 110.918, 351.532 108.996 C 349.394 104.781, 347.059 102, 345.658 102 C 345.090 102, 345.824 103.250, 347.288 104.778 M 227.018 109.750 C 227.051 122.707, 244.759 135.763, 259.335 133.577 C 265.515 132.650, 265.314 130.292, 258.866 128.086 C 253.539 126.263, 243.221 118.303, 234.451 109.250 C 226.963 101.520, 226.996 101.518, 227.018 109.750 M 336.500 106.642 C 332.187 108.954, 330.477 110.602, 323.677 119 C 320.336 123.125, 318.515 125.713, 319.630 124.750 C 325.138 119.995, 329.037 123.392, 332.089 135.605 C 334.623 145.745, 335.106 146.256, 341.432 145.465 C 350.892 144.283, 352.745 150.747, 345.046 158.071 L 341.245 161.687 344.623 162.908 C 346.481 163.580, 349.397 165.305, 351.104 166.741 L 354.207 169.352 353.511 177.710 C 352.956 184.379, 353.122 186.537, 354.335 188.388 C 357.494 193.210, 357.459 197.454, 354.231 201.068 L 351.283 204.367 354.127 206.761 C 357.373 209.492, 356.712 212.144, 351.595 216.924 C 347.225 221.007, 348.146 223.404, 352.790 220.035 C 354.281 218.954, 357.732 217.581, 360.459 216.983 C 366.585 215.642, 368 214.520, 368 211 C 368 207.431, 370.244 205.594, 373.582 206.431 C 375.351 206.875, 377.303 206.429, 379.652 205.043 C 384.026 202.462, 386.505 202.456, 388.303 205.022 C 389.554 206.808, 389.866 206.866, 390.982 205.522 C 393.254 202.784, 401.902 207.966, 403.509 213.027 C 404.035 214.685, 404.468 214.820, 406.233 213.876 C 410.092 211.810, 427.815 213.256, 432.633 216.030 C 439.359 219.903, 445.525 215.926, 458.904 199.086 C 467.152 188.705, 465.606 174.275, 455.180 164.328 C 448.619 158.067, 448.849 158.008, 438.503 168.589 C 431.662 175.586, 429.895 176.863, 426.334 177.386 C 424.042 177.722, 420.804 178.780, 419.137 179.736 C 416.144 181.454, 416.070 181.441, 413.248 178.738 C 406.970 172.722, 400.303 175.450, 396.421 185.621 C 393.178 194.118, 389.866 198, 387.205 196.421 C 381.908 193.278, 373.707 170.600, 370.959 151.500 C 368.349 133.354, 366.995 130.495, 357.231 122.505 C 352.530 118.657, 349.590 115.263, 347.481 111.248 C 344.101 104.814, 341.749 103.827, 336.500 106.642 M 61.928 110.587 C 61.042 111.654, 59.412 112.059, 56.945 111.823 C 53.700 111.514, 53.401 111.670, 54.345 113.181 C 56.362 116.410, 48.925 121.928, 40.500 123.454 C 38.300 123.853, 35.923 124.656, 35.218 125.238 C 34.302 125.996, 32.307 125.808, 28.218 124.581 C 24.605 123.496, 20.123 122.981, 16.041 123.182 L 9.582 123.500 8.764 127.457 C 7.684 132.679, 8.625 135.387, 10.329 131.964 C 11.253 130.111, 12.608 129.359, 15.798 128.930 C 18.131 128.617, 20.571 127.829, 21.220 127.180 C 22.835 125.565, 25.382 125.698, 30.990 127.690 L 35.749 129.380 42.883 126.190 C 49.936 123.036, 54.613 122.368, 58.500 123.959 C 60.011 124.577, 61.233 124.092, 63.500 121.973 C 69.696 116.183, 84.367 120.976, 94.295 132.035 C 96.252 134.216, 98.449 136.034, 99.177 136.077 C 105.883 136.464, 107 137.959, 107 146.546 C 107 152.874, 107.333 154.242, 109.500 156.818 C 110.875 158.452, 112 160.251, 112 160.816 C 112 161.381, 114.958 164.890, 118.574 168.613 C 130.217 180.606, 130.056 186, 118.055 186 C 112.456 186, 109.921 187.760, 107.976 193 C 105.971 198.400, 103.211 200.947, 99.516 200.808 C 91.877 200.521, 85 208.149, 85 216.910 C 85 222.102, 82.419 225.758, 79.534 224.652 C 77.577 223.901, 72 215.174, 72 212.863 C 72 209.789, 70.472 210.036, 67.656 213.564 C 64.214 217.879, 62.863 217.871, 59.273 213.515 C 53.965 207.076, 51.286 207.597, 44.560 216.379 C 37.603 225.462, 32 227.617, 32 221.211 C 32 220.362, 31.730 219.936, 31.401 220.266 C 30.190 221.477, 32.148 229, 33.674 229 C 34.499 229, 37.947 226.360, 41.337 223.134 C 51.429 213.528, 53.467 213.070, 59.033 219.159 L 62.834 223.317 65.994 220.659 C 70.349 216.994, 71.216 217.225, 76.633 223.500 C 79.245 226.525, 82.083 228.975, 82.941 228.945 C 86.048 228.835, 92 218.976, 92 213.939 C 92 209.383, 94.813 205, 97.737 205 C 99.302 205, 105.336 212.272, 108.112 217.505 L 110.453 221.918 107.726 224.764 C 104.254 228.388, 104.301 229.845, 108.038 234.547 C 109.708 236.650, 110.946 239.026, 110.788 239.829 C 109.939 244.135, 97.397 248.575, 94.216 245.695 C 91.934 243.631, 89.151 243.571, 86.559 245.532 C 85.491 246.339, 83.663 247, 82.496 247 C 81.329 247, 79.081 248.350, 77.500 250 C 73.547 254.126, 72.428 253.855, 65.527 247.104 C 56.692 238.461, 50.933 237.969, 57.356 246.406 C 60.535 250.582, 63.999 257.515, 64.004 259.710 C 64.006 260.934, 64.643 260.458, 66.015 258.207 C 67.822 255.244, 68.361 254.977, 71.390 255.545 C 73.602 255.960, 75.811 255.632, 77.829 254.589 C 81.633 252.621, 85.885 252.598, 88.441 254.532 C 91.945 257.182, 95.380 256.355, 98.861 252.024 C 100.718 249.713, 104.452 246.886, 107.778 245.274 L 113.500 242.500 113.500 236.041 C 113.500 229.208, 115.839 226.215, 120.134 227.552 C 121.243 227.898, 121.957 227.306, 122.358 225.709 C 122.964 223.297, 131.967 215, 133.979 215 C 134.595 215, 136.420 215.683, 138.035 216.518 C 140.425 217.754, 141.791 217.830, 145.379 216.926 C 148.624 216.109, 150.341 216.112, 151.885 216.938 C 153.511 217.809, 154.646 217.717, 156.941 216.530 C 163.274 213.255, 169.836 215.052, 173.194 220.980 C 176.467 226.760, 180.949 227.491, 185.740 223.027 C 188.502 220.454, 187.737 218.033, 183.198 214.981 C 171.690 207.243, 164.919 198.048, 157.502 180.088 C 152.350 167.613, 152.272 167.498, 146.906 164.358 C 140.537 160.632, 129.976 149.163, 124.476 140 C 122.330 136.425, 119.289 131.821, 117.718 129.769 C 114.597 125.692, 111 116.490, 111 112.584 C 111 111.228, 110.550 109.840, 110 109.500 C 108.553 108.606, 108.768 111.542, 110.637 118.204 C 112.439 124.625, 110.745 128.981, 107.063 127.399 C 106.203 127.030, 102.836 126.335, 99.579 125.854 C 95.972 125.322, 91.220 123.617, 87.417 121.491 C 83.984 119.571, 80.384 118, 79.416 118 C 78.449 118, 75.717 115.975, 73.345 113.500 C 68.694 108.646, 64.440 107.560, 61.928 110.587 M 216 122.898 C 216 125.421, 216.583 126.218, 219.250 127.335 C 221.037 128.084, 223.850 129.811, 225.500 131.174 C 227.150 132.536, 230.975 135.085, 234 136.840 C 237.025 138.594, 243.505 143.784, 248.400 148.373 L 257.301 156.717 257.561 162.898 C 257.995 173.207, 263.494 174.886, 272.119 167.343 C 275.683 164.226, 281.110 164.927, 285.871 169.117 C 288.297 171.253, 290.991 173, 291.857 173 C 292.724 173, 295.315 173.719, 297.615 174.597 C 301.526 176.091, 316.403 173.931, 318.815 171.518 C 319.299 171.034, 316.692 164.014, 314.909 161 C 311.837 155.810, 310 151.866, 310 150.463 C 310 149.350, 309.193 149.805, 307.411 151.923 C 304.214 155.723, 301.791 155.821, 298.994 152.265 C 296.861 149.553, 296.831 148.790, 298.575 141.651 C 299.590 137.494, 296.244 138.436, 293.783 143 C 292.744 144.925, 290.518 147.777, 288.835 149.337 L 285.774 152.174 282.398 148.901 C 280.372 146.937, 278.817 144.302, 278.510 142.314 C 278.230 140.491, 277.755 137.425, 277.455 135.500 C 276.870 131.750, 275 130.645, 275 134.050 C 275 139.065, 270.434 144.366, 265.146 145.491 C 263.301 145.884, 259.819 147.077, 257.408 148.144 C 252.326 150.392, 250.720 149.883, 246.328 144.632 C 244.773 142.772, 240.350 139.230, 236.500 136.762 C 232.650 134.293, 226.463 129.471, 222.750 126.048 L 216 119.823 216 122.898 M 68.990 122.823 C 68.170 123.089, 65.977 124.553, 64.115 126.077 C 61.355 128.336, 60.280 128.677, 58.300 127.924 C 54.106 126.329, 50.249 126.897, 42.883 130.190 L 35.749 133.380 30.990 131.690 C 25.224 129.642, 23.100 129.610, 20.559 131.532 C 19.491 132.339, 17.605 133, 16.368 133 C 13.041 133, 12.818 134.132, 14.645 141.744 L 16.304 148.656 13.652 154.449 C 12.193 157.635, 11 161.365, 11 162.737 C 11 165.424, 11.364 165.430, 17.788 162.852 C 23.794 160.442, 26.500 163.051, 26.500 171.250 C 26.500 181.598, 29.456 183.172, 32.865 174.638 C 36.073 166.607, 37.699 164.207, 41.134 162.431 C 42.770 161.585, 44.251 159.807, 44.631 158.232 C 46.461 150.663, 57.266 142.630, 67.162 141.481 C 72.919 140.813, 85.029 132.404, 84.994 129.098 C 84.973 127.142, 71.708 121.942, 68.990 122.823 M 319.415 129.489 C 315.720 135.129, 315.816 146.167, 319.610 151.757 C 327.191 162.929, 324.790 176.429, 314.658 179.599 C 313.471 179.970, 309.704 181.549, 306.287 183.109 C 302.869 184.668, 298.895 186.239, 297.456 186.600 C 293.631 187.560, 293.490 189.159, 296.506 197.428 C 298.967 204.175, 299.577 205.014, 303.025 206.393 C 305.118 207.231, 307.072 208.307, 307.367 208.785 C 307.663 209.264, 311.489 206.132, 315.870 201.827 C 325.871 192, 327.175 191.838, 334.716 199.500 C 340.571 205.450, 341.344 205.719, 346.454 203.584 C 352.934 200.876, 354.476 194.709, 350.276 188.299 C 349.133 186.554, 348.965 184.262, 349.506 177.767 L 350.198 169.465 346.565 167.732 C 344.567 166.780, 341.203 166, 339.089 166 C 331.266 166, 331.515 161.648, 339.553 157.870 C 343.299 156.109, 346 152.744, 346 149.839 C 346 149.140, 344.430 149.008, 341.437 149.457 C 334.960 150.428, 330.943 147.298, 329.126 139.866 C 325.869 126.542, 326.070 127, 323.485 127 C 321.990 127, 320.415 127.963, 319.415 129.489 M 82.989 136.250 C 79.792 141.493, 80.325 146.954, 84.422 150.924 C 89.451 155.799, 89.749 163, 84.922 163 C 82.956 163, 78 157.617, 78 155.483 C 78 151.241, 75.427 149.809, 69.123 150.541 C 57.800 151.856, 54.041 155.378, 54.015 164.694 C 53.995 171.768, 50.634 176.066, 46.570 174.214 C 38.609 170.587, 31.164 180.072, 35.946 187.750 C 38.639 192.074, 41.083 191.887, 46.443 186.946 L 50.841 182.892 55.382 186.358 C 67.234 195.405, 87.160 191.547, 88.507 179.944 C 89.341 172.752, 91.573 169.608, 96 169.385 C 103.658 169, 106.297 165.102, 103.080 158.929 C 101.936 156.734, 100.990 153.940, 100.978 152.719 C 100.947 149.569, 97.685 142.858, 95.039 140.502 C 93.805 139.404, 92.155 137.266, 91.372 135.752 C 89.332 131.808, 85.561 132.032, 82.989 136.250 M 114.031 136.463 C 112.945 137.771, 113.282 139.110, 116.118 144.761 C 118.968 150.440, 119.508 152.601, 119.551 158.500 C 119.609 166.612, 120.191 167.897, 127.537 176.130 C 133.442 182.747, 134.284 185.478, 130.750 186.543 C 129.512 186.916, 127.034 188.613, 125.242 190.315 C 122.118 193.281, 121.808 193.362, 117.742 192.272 C 106.084 189.149, 106.651 202.973, 118.585 212.809 C 123.395 216.774, 124.561 216.786, 127.865 212.907 C 140.283 198.329, 143.454 196.953, 149.551 203.500 C 154.229 208.524, 155.902 208.918, 160.036 205.974 C 164.330 202.917, 164.465 200.895, 160.914 192.804 C 159.157 188.801, 156.655 182.396, 155.354 178.572 C 152.755 170.930, 150.313 167.735, 144.975 164.997 C 141.172 163.046, 127.957 148.473, 122.711 140.443 C 119.297 135.218, 116.231 133.812, 114.031 136.463 M 120.285 145 C 122.951 150.390, 123.509 152.695, 123.551 158.500 C 123.609 166.621, 124.187 167.893, 131.586 176.185 C 138.493 183.925, 138.583 186.449, 132.072 189.733 C 129.637 190.961, 126.399 193.160, 124.876 194.619 C 122.113 197.266, 119.889 197.451, 114.750 195.463 C 109.656 193.492, 115.731 207.950, 121.221 210.863 C 123.717 212.187, 124.029 211.980, 132.192 203.613 C 142.110 193.446, 143.169 193.207, 149.987 199.584 C 158.672 207.709, 161.944 204.265, 156.772 192.443 C 154.861 188.074, 152.297 181.472, 151.074 177.772 C 149.008 171.516, 148.502 170.854, 143.867 168.331 C 140.902 166.717, 136.891 163.164, 133.965 159.559 C 131.260 156.227, 127.124 151.231, 124.774 148.459 C 122.423 145.686, 119.728 142.311, 118.785 140.959 C 117.842 139.606, 118.517 141.425, 120.285 145 M 100.633 142.304 C 101.648 143.512, 102.596 144.688, 102.739 144.917 C 102.883 145.146, 103 144.229, 103 142.879 C 103 141.101, 102.420 140.382, 100.894 140.267 C 98.831 140.112, 98.826 140.153, 100.633 142.304 M 74.710 143.422 C 73.725 144.169, 70.350 145.091, 67.210 145.471 C 57.834 146.606, 50.440 151.878, 48.474 158.830 C 47.751 161.386, 46.199 163.298, 43.224 165.295 C 38.148 168.704, 37.979 169.458, 42.250 169.632 C 44.038 169.705, 46.400 169.930, 47.500 170.132 C 49.291 170.462, 49.559 169.813, 50.067 163.911 C 51.055 152.430, 57.346 147.129, 70.485 146.708 C 76.505 146.516, 76.994 146.331, 76.997 144.250 C 77.001 141.636, 77.043 141.652, 74.710 143.422 M 432.293 147.449 C 429.979 148.172, 426.178 150.167, 423.846 151.882 C 421.514 153.597, 419.002 155, 418.263 155 C 417.525 155, 415.062 155.948, 412.790 157.107 C 410.518 158.266, 406.610 159.508, 404.106 159.866 C 399.684 160.498, 399.431 160.731, 395.366 167.891 C 393.064 171.946, 390.250 176.194, 389.115 177.330 L 387.049 179.395 384.393 176.948 C 382.932 175.601, 380.867 172.700, 379.806 170.500 L 377.875 166.500 378.467 170.168 C 379.140 174.331, 387.597 193, 388.810 193 C 389.247 193, 390.888 189.639, 392.455 185.531 C 397.367 172.661, 405.617 168.419, 413.718 174.598 C 416.787 176.939, 417.292 177.047, 418.812 175.687 C 419.741 174.857, 422.533 173.877, 425.017 173.510 C 429.501 172.848, 432.357 170.584, 443.493 158.867 C 447.930 154.199, 449.250 154.531, 457.351 162.351 C 462.514 167.334, 464.975 170.506, 465.474 172.822 C 466.775 178.853, 467.122 175.369, 465.919 168.367 C 463.549 154.580, 461.826 152.516, 449.356 148.534 C 440.523 145.714, 438.298 145.572, 432.293 147.449 M 176.762 149.073 C 173.460 150.997, 172.679 153.867, 174.654 156.817 C 180.365 165.346, 180.968 167.814, 178 170.500 C 176.900 171.495, 176 173.182, 176 174.247 C 176 175.313, 176.900 177.329, 178 178.727 C 180.332 181.692, 180.516 185.473, 178.500 189 C 176.360 192.744, 176.684 194.813, 180.084 199.106 C 181.780 201.248, 182.821 203, 182.397 203 C 181.973 203, 182.919 204.350, 184.500 206 C 190.958 212.741, 196.947 206.216, 190.687 199.260 C 188.734 197.091, 188.728 196.958, 190.491 195.010 C 193.249 191.962, 196.152 192.571, 199.080 196.812 C 202.335 201.527, 205.127 201.826, 208.495 197.823 C 210.407 195.551, 210.785 194.446, 209.981 193.477 C 209.277 192.629, 209.248 191.964, 209.898 191.563 C 211.103 190.818, 216.400 183.060, 218.574 178.858 C 221.036 174.096, 217.260 157.454, 212.769 153.272 C 209.349 150.086, 199.518 148.608, 192.034 150.154 C 186.791 151.237, 185.600 151.179, 182.488 149.696 C 178.365 147.730, 178.958 147.794, 176.762 149.073 M 375.681 155.500 C 376.016 159.350, 376.643 163.400, 377.074 164.500 C 377.505 165.600, 377.598 163.350, 377.281 159.500 C 376.964 155.650, 376.337 151.600, 375.888 150.500 C 375.429 149.377, 375.338 151.568, 375.681 155.500 M 314 151.040 C 314 152.555, 317.797 159.757, 318.983 160.489 C 320.123 161.194, 319.025 157.883, 316.496 152.993 C 314.906 149.918, 314 149.209, 314 151.040 M 81.770 154.885 C 82.010 156.524, 82.865 158.118, 83.669 158.426 C 85.393 159.088, 84.602 155.364, 82.559 153.202 C 81.578 152.164, 81.420 152.501, 81.770 154.885 M 177.544 152.928 C 177.229 153.439, 178.295 155.818, 179.913 158.216 C 184.244 164.633, 184.714 167.543, 182.011 171.199 L 179.765 174.237 181.986 178.188 C 184.300 182.305, 184.293 184.917, 181.955 190.591 C 180.693 193.655, 186.291 205, 189.066 205 C 190.413 205, 188.847 201.655, 186.816 200.193 C 184.115 198.249, 184.592 196.121, 188.571 192.368 C 193.776 187.459, 201 187.923, 201 193.165 C 201 195.578, 204.950 197.699, 206.070 195.887 C 206.519 195.161, 206.495 194.096, 206.017 193.520 C 205.484 192.879, 206.486 190.737, 208.605 187.987 C 216.684 177.500, 217.077 175.046, 212.871 161.351 L 210.982 155.202 204.465 154.067 C 199.472 153.198, 196.556 153.220, 191.996 154.162 C 186.796 155.236, 185.594 155.177, 182.488 153.696 C 178.344 151.719, 178.296 151.712, 177.544 152.928 M 6.160 162.820 C 5.921 167.774, 11.153 175, 14.980 175 C 19.211 175, 21.805 179.376, 24.963 191.838 C 27.654 202.459, 30.878 210.426, 30.960 206.658 C 30.982 205.644, 31.900 203.671, 33 202.273 C 36.878 197.343, 35.080 191.991, 26.039 181.545 C 21.960 176.832, 21.900 176.652, 22.576 171.241 L 23.264 165.734 20.382 166.253 C 18.797 166.538, 16.060 167.363, 14.300 168.086 C 10.325 169.719, 7.335 167.575, 6.716 162.645 L 6.320 159.500 6.160 162.820 M 106.974 168.248 C 104.526 173.641, 104.530 175.133, 107 178.273 C 108.100 179.671, 109 181.580, 109 182.515 C 109 183.762, 109.465 184.007, 110.750 183.437 C 111.713 183.009, 114.525 182.485, 117 182.271 C 124.020 181.664, 124.296 181.467, 122.617 178.268 C 121.283 175.727, 119.791 174.132, 111.702 166.601 L 108.904 163.995 106.974 168.248 M 93.457 174.500 C 91.856 179.933, 92.218 180.807, 95.504 179.434 C 97.253 178.703, 99.634 178.353, 100.795 178.657 C 102.774 179.174, 102.833 179.017, 101.740 176.122 C 100.563 173.004, 94.262 171.770, 93.457 174.500 M 439.450 178.853 C 438.928 179.321, 436.381 180.275, 433.792 180.971 C 423.375 183.771, 415.977 194.188, 419.529 201.056 C 422.271 206.358, 428.316 208.734, 430.959 205.549 C 431.622 204.751, 434.264 203.801, 436.832 203.438 C 449.116 201.702, 454.069 196.625, 451.979 187.914 C 449.993 179.634, 443.672 175.063, 439.450 178.853 M 96.293 183.040 C 95.079 183.515, 92.922 185.747, 91.500 188 C 90.078 190.252, 88.259 192.347, 87.457 192.655 C 85.624 193.358, 85.556 197.386, 87.352 198.877 C 88.381 199.731, 89.828 199.401, 93.405 197.500 C 95.990 196.125, 98.724 195, 99.480 195 C 102.816 195, 106.947 185.211, 104.250 183.697 C 102.282 182.593, 98.280 182.262, 96.293 183.040 M 439.495 182.786 C 438.948 183.268, 436.508 184.231, 434.072 184.925 C 426.412 187.108, 423.786 189.708, 422.429 196.453 C 421.466 201.244, 427.982 205.136, 430.959 201.549 C 431.622 200.751, 434.264 199.796, 436.832 199.426 C 447.739 197.856, 450.120 195.143, 447.739 187 C 446.401 182.422, 442.293 180.322, 439.495 182.786 M 48.185 189.963 C 46.033 192.874, 46.029 192.945, 47.945 193.971 C 49.018 194.545, 50.691 196.361, 51.663 198.007 C 53.644 201.359, 56.109 201.787, 60.596 199.557 C 62.866 198.429, 65.635 198.271, 73.271 198.833 C 81.301 199.423, 82.949 199.310, 82.521 198.194 C 82.234 197.447, 82 196.151, 82 195.314 C 82 194.020, 80.812 193.897, 74.080 194.493 C 64.160 195.371, 61.060 194.692, 55.453 190.412 C 50.090 186.319, 50.845 186.365, 48.185 189.963 M 39 197.928 C 39 198.919, 38.022 200.974, 36.826 202.494 C 35.010 204.803, 34.683 206.409, 34.840 212.247 C 35.135 223.245, 35.374 223.253, 43.422 212.561 C 46.494 208.478, 49.868 204.994, 50.918 204.819 C 52.629 204.533, 52.500 204.124, 49.664 200.870 C 45.931 196.587, 39 194.675, 39 197.928 M 265.766 199.157 C 263.534 199.972, 262.662 201.355, 261.016 206.683 C 257.512 218.027, 258.524 221.127, 267.500 226.555 C 269.150 227.553, 271.483 229.237, 272.684 230.297 C 277.805 234.817, 288 220.142, 288 208.249 C 288 202.291, 273.461 196.345, 265.766 199.157 M 322.169 200.750 C 321.673 201.713, 320.495 204.866, 319.551 207.757 L 317.834 213.015 320.417 216.084 C 323.180 219.368, 323.676 221.924, 321.896 223.704 C 321.289 224.311, 323.202 223.652, 326.146 222.241 C 336.021 217.507, 343.533 219.631, 347.064 228.155 C 348.516 231.659, 348.609 231.631, 353.427 226.250 C 357.468 221.737, 357.038 220.609, 352.605 224.096 C 347.003 228.503, 342.696 222.021, 347.708 216.725 C 354.518 209.529, 354.009 207.674, 346 210.500 C 343.662 211.325, 341.596 212, 341.409 212 C 340.345 212, 334 205.583, 334 204.507 C 334 201.558, 330.337 198.475, 328.572 199.940 C 327.317 200.982, 326.634 201.034, 325.758 200.158 C 324.154 198.554, 323.221 198.707, 322.169 200.750 M 60.603 203.531 C 59.045 204.339, 56.810 205.029, 55.636 205.063 L 53.500 205.127 55.582 205.969 C 56.726 206.432, 58.835 208.203, 60.267 209.905 C 63.266 213.470, 64.563 213.780, 65.263 211.102 C 67.030 204.347, 74.013 205.621, 76.017 213.064 C 76.572 215.125, 77.905 217.866, 78.980 219.155 L 80.933 221.500 80.967 216.485 C 80.987 213.455, 81.783 210.009, 82.980 207.777 L 84.959 204.083 81.730 203.595 C 72.129 202.144, 63.328 202.117, 60.603 203.531 M 314.183 207.217 C 312.798 208.602, 312.608 211, 313.883 211 C 314.712 211, 316.246 206.913, 315.644 206.310 C 315.491 206.158, 314.834 206.566, 314.183 207.217 M 240.040 208.452 C 238.075 210.820, 239.215 213.542, 242.037 213.218 C 245.241 212.850, 247.239 210.785, 246.430 208.678 C 245.639 206.617, 241.679 206.477, 240.040 208.452 M 379.500 209.093 C 377.720 210.249, 375.585 210.821, 374.250 210.501 C 372.551 210.094, 372 210.402, 372 211.758 C 372 214.499, 369.097 218.050, 365.622 219.563 L 362.500 220.922 365.595 220.961 C 367.430 220.984, 369.463 221.855, 370.590 223.099 C 372.483 225.191, 372.456 225.232, 363.287 234.349 C 358.226 239.382, 352.449 245.148, 350.449 247.163 C 348.087 249.543, 346.739 251.892, 346.602 253.868 C 346.307 258.138, 343.402 261, 339.364 261 C 336.559 261, 335.937 261.431, 335.390 263.750 C 333.335 272.473, 323.714 274.618, 311.840 269.001 C 308.353 267.351, 304.825 266.022, 304 266.048 C 303.175 266.073, 304.525 266.901, 307 267.887 C 313.016 270.284, 318.566 273.470, 323.914 277.595 C 328.476 281.114, 333 282.101, 333 279.577 C 333 273.826, 344.553 268.292, 348.608 272.102 C 351.792 275.093, 351.639 276.287, 347.477 280.893 L 343.955 284.793 346.314 287.646 C 351.581 294.016, 352.409 308.326, 347.813 313.560 C 344.815 316.975, 344.612 317.701, 344.383 325.845 C 344.143 334.379, 344.159 334.446, 345.568 330.605 C 347.694 324.806, 348.829 323.806, 352.409 324.578 C 357.264 325.624, 362.620 328.689, 364.895 331.722 C 368.527 336.565, 369.036 337, 371.062 337 C 372.152 337, 375.064 335.139, 377.532 332.863 C 381.926 328.813, 382.133 328.740, 387.425 329.362 L 392.830 329.997 395.890 325.024 C 398.019 321.564, 399.795 319.865, 401.725 319.442 C 406.865 318.314, 406.916 318.260, 406.319 314.579 C 405.818 311.492, 406.199 310.601, 409.373 307.427 C 411.599 305.201, 413 302.839, 413 301.312 C 413 299.944, 414.575 295.242, 416.500 290.864 C 420.831 281.012, 420.953 277.780, 417.125 274.194 C 412.150 269.532, 411.636 267.611, 413.958 262.361 C 417.489 254.381, 413.757 245, 407.053 245 C 405.439 245, 403.887 244.627, 403.606 244.171 C 401.795 241.241, 390.803 235.999, 385.384 235.481 C 380.937 235.056, 378.890 234.313, 377.003 232.439 L 374.506 229.960 376.503 226.244 C 377.601 224.200, 380.625 220.957, 383.222 219.037 C 386.281 216.775, 387.602 215.202, 386.972 214.572 C 386.438 214.038, 386 212.115, 386 210.300 C 386 206.403, 384.169 206.063, 379.500 209.093 M 390.954 210.086 C 389.672 212.482, 389.522 212.248, 393.700 214.373 C 400.044 217.598, 402.371 215.102, 397.354 210.452 C 394.117 207.452, 392.416 207.355, 390.954 210.086 M 305.223 215.986 C 303.420 218.086, 301.223 221.985, 300.340 224.652 C 299.457 227.318, 297.670 230.650, 296.367 232.055 C 295.065 233.460, 294 235.563, 294 236.728 C 294 245.465, 282.891 247.232, 278.531 239.189 C 275.631 233.840, 275.630 233.839, 272.076 235.612 C 266.306 238.490, 260.058 235.442, 252.736 226.177 C 251.327 224.393, 250.586 224.151, 249.052 224.972 C 245.406 226.923, 242.210 226.157, 239.422 222.662 C 236.273 218.716, 233.114 218.768, 229.929 222.818 C 226.618 227.027, 227.617 231.500, 231.867 231.500 C 236.436 231.500, 238.675 234.591, 236.430 237.796 C 235.581 239.008, 234.237 240, 233.443 240 C 232.613 240, 232 240.956, 232 242.250 C 232 244.277, 232.485 244.500, 236.895 244.500 C 242.466 244.500, 245.428 246.496, 247.651 251.750 C 248.408 253.537, 249.470 255, 250.011 255 C 250.552 255, 252.814 256.644, 255.039 258.654 C 258.885 262.129, 259.461 262.319, 266.792 262.532 C 271.031 262.656, 275.716 263.080, 277.202 263.475 C 280.968 264.475, 289.605 261.443, 291.769 258.360 C 292.721 257.003, 294.962 254.075, 296.750 251.852 C 298.538 249.629, 300 247.217, 300 246.492 C 300 244.071, 311.910 235, 315.087 235 C 318.330 235, 318.467 234.639, 316.917 230.193 C 316.029 227.646, 316.164 226.525, 317.667 223.953 L 319.500 220.818 314.500 216.430 C 308.561 211.217, 309.288 211.252, 305.223 215.986 M 190.555 217.769 C 192.260 221.054, 191.199 223.119, 185.798 227.031 C 179.179 231.826, 176.962 231.023, 168.450 220.750 C 166.640 218.566, 160.472 218.480, 157 220.590 L 154.500 222.110 157.250 221.555 C 158.762 221.250, 161.037 220.739, 162.304 220.421 C 167.844 219.028, 178.199 232.121, 176.167 237.950 C 175.590 239.606, 175.429 240.916, 175.809 240.862 C 178.180 240.523, 180.226 241.320, 183.016 243.667 C 185.867 246.065, 186.505 246.219, 189.350 245.191 C 196.337 242.664, 203.939 246.645, 204.044 252.885 C 204.081 255.103, 204.306 254.893, 205.529 251.500 C 207.647 245.621, 207.484 245.283, 201.742 243.613 C 195.928 241.923, 188.986 236.329, 189.024 233.365 C 189.082 228.847, 191.094 223.329, 193.413 221.328 L 195.930 219.156 192.576 217.177 L 189.221 215.198 190.555 217.769 M 219 218 C 218.175 218.533, 215.937 218.976, 214.027 218.985 C 210.683 218.999, 210.632 219.054, 212.658 220.473 C 215.278 222.308, 217.693 228.207, 218.589 234.956 C 219.082 238.679, 219.645 239.966, 220.615 239.594 C 222.269 238.959, 227 244.940, 227 247.666 C 227 248.754, 227.692 251.675, 228.538 254.157 C 232.218 264.957, 224.993 268.439, 219.015 258.746 C 217.326 256.006, 217.308 256.002, 215.504 257.996 C 213.147 260.600, 210.202 260.538, 207.314 257.826 C 206.042 256.630, 205 256.110, 205 256.671 C 205 259.117, 209.313 261.500, 213.741 261.500 C 217.511 261.500, 218.614 261.959, 220.321 264.238 L 222.372 266.975 220.012 269.488 C 218.571 271.021, 216.551 272, 214.826 272 C 213.026 272, 212 272.526, 212 273.448 C 212 274.627, 212.565 274.699, 215.046 273.834 C 218.533 272.619, 220.552 273.921, 224.114 279.684 C 226.566 283.652, 228.275 283.887, 229.831 280.472 C 231.395 277.038, 233.652 276.384, 236.192 278.629 L 238.310 280.500 236.501 277.691 C 234.768 274.999, 232.967 263.933, 232.646 254 C 232.537 250.653, 231.924 249.033, 230.250 247.677 C 227.675 245.592, 227.284 241.361, 229.399 238.469 C 230.661 236.743, 230.519 236.386, 227.948 234.822 C 222.704 231.633, 220.808 224.850, 223.455 218.750 C 224.318 216.761, 221.620 216.307, 219 218 M 430.287 220.929 C 431.730 222.644, 433.050 225.851, 433.473 228.666 C 434.494 235.480, 436.451 238.679, 441.021 241.011 L 445 243.041 444.978 239.770 C 444.966 237.972, 444.066 234.538, 442.978 232.141 C 440.538 226.762, 440.466 223.247, 442.747 220.727 C 444.470 218.823, 444.442 218.822, 440.664 220.623 C 436.884 222.426, 436.784 222.420, 432.969 220.225 C 427.854 217.281, 427.332 217.418, 430.287 220.929 M 129.196 222.298 C 127.438 224.111, 126 226.292, 126 227.143 C 126 229.491, 122.607 232.064, 119.904 231.766 C 117.615 231.513, 117.515 231.739, 117.815 236.500 C 118.180 242.288, 114.867 246.494, 107.535 249.552 C 105.355 250.462, 101.829 253.185, 99.700 255.603 C 95.514 260.359, 92.048 261.260, 88.441 258.532 C 85.881 256.596, 81.632 256.622, 77.812 258.597 C 75.912 259.580, 73.586 259.967, 71.769 259.604 L 68.814 259.013 69.507 264.256 C 70.581 272.390, 73.738 277.427, 78.013 277.825 C 81.781 278.175, 85.991 281.384, 86.015 283.924 C 86.051 287.636, 87.515 288.006, 91.355 285.274 C 94.619 282.952, 95.394 282.765, 97.169 283.874 C 98.851 284.924, 99.140 284.915, 98.782 283.826 C 98.542 283.097, 96.806 282.352, 94.923 282.172 C 91.366 281.831, 88 279.559, 88 277.500 C 88 270.231, 125.653 264.093, 133.744 270.043 C 135.855 271.596, 139.708 273.401, 142.305 274.055 C 147.218 275.292, 152 279.622, 152 282.834 C 152 283.758, 154.025 286.983, 156.500 290 C 158.975 293.017, 161 295.827, 161 296.243 C 161 296.659, 162.395 297, 164.099 297 C 172.487 297, 164.213 281.895, 152.587 275.982 C 150.985 275.167, 148.899 273.229, 147.952 271.675 C 147.005 270.121, 145.250 268.163, 144.052 267.324 C 141.202 265.328, 143.880 261.727, 147.859 262.204 C 149.216 262.367, 150.493 262.003, 150.698 261.395 C 150.946 260.657, 147.318 260.055, 139.785 259.586 C 126.151 258.737, 124.379 257.715, 128.354 252.991 C 131.643 249.083, 131.705 247.215, 128.574 246.429 C 121.826 244.735, 121.420 238.960, 127.750 234.717 C 131.498 232.205, 132 231.421, 132 228.089 C 132 225.580, 132.672 223.702, 134 222.500 C 136.482 220.254, 136.553 219, 134.196 219 C 133.204 219, 130.954 220.484, 129.196 222.298 M 196.340 223.474 C 189.915 227.975, 192.835 237.024, 201.528 239.551 C 208.844 241.678, 211.769 244.983, 210.194 249.341 C 207.694 256.254, 211.096 258.720, 215.971 253.531 C 218.803 250.516, 219.620 250.947, 222.118 256.775 C 224.851 263.152, 226.931 261.180, 224.621 254.401 C 223.729 251.784, 223 248.674, 223 247.489 C 223 244.647, 221.997 243.757, 220.342 245.131 C 218.039 247.042, 216.271 244.392, 215.055 237.206 C 213.335 227.047, 212.111 223.993, 209.337 222.938 C 205.622 221.526, 198.715 221.811, 196.340 223.474 M 139 223.953 C 139 229.025, 146.481 233.272, 151.999 231.331 C 156.389 229.787, 155.111 227.073, 149 224.964 C 142.957 222.878, 139 222.478, 139 223.953 M 329.108 224.987 C 322.107 227.537, 322.280 227.160, 325.376 233.126 C 328.741 239.613, 327.400 242, 320.390 242 C 317.138 242, 315.482 242.609, 313.591 244.500 C 312.216 245.875, 310.395 247, 309.545 247 C 308.457 247, 308 247.998, 308 250.378 C 308 254.093, 306.993 255.250, 302.500 256.699 C 297.853 258.198, 298.884 260.196, 305.500 262.512 C 308.800 263.667, 312.981 265.395, 314.791 266.353 C 320.611 269.432, 330.169 268.318, 331.168 264.445 C 332.192 260.476, 335.727 257.245, 339.500 256.830 C 342.133 256.540, 342.520 256.088, 342.668 253.134 C 342.813 250.218, 344.544 248.116, 355.640 237.384 L 368.444 225 363.624 225 C 359.096 225, 358.513 225.316, 353.977 230.223 L 349.150 235.446 346.969 233.473 C 345.769 232.388, 343.926 229.813, 342.873 227.750 C 341.821 225.688, 340.406 223.994, 339.730 223.986 C 339.053 223.979, 337.600 223.759, 336.500 223.497 C 335.400 223.236, 332.073 223.906, 329.108 224.987 M 159.792 225.057 C 158.852 225.605, 158.324 226.681, 158.619 227.448 C 161.581 235.169, 146.175 238.375, 139.274 231.474 C 136.647 228.847, 136 228.559, 136 230.015 C 136 231.013, 133.975 233.613, 131.500 235.791 C 126.190 240.465, 126.119 240.887, 130.202 243.500 C 135.140 246.660, 135.796 248.432, 133.286 251.827 L 131.134 254.737 136.317 255.360 C 139.168 255.702, 143.559 255.987, 146.076 255.991 C 150.619 256, 155 258.823, 155 261.742 C 155 263.396, 149.932 267.076, 148.701 266.315 C 148.116 265.954, 148.897 267.310, 150.437 269.329 C 151.977 271.348, 153.675 273, 154.209 273 C 155.663 273, 165.784 281.888, 168.211 285.296 C 175.683 295.790, 166.109 307.474, 158.293 297.401 C 156.757 295.422, 153.859 291.774, 151.854 289.295 C 149.848 286.816, 147.959 283.545, 147.655 282.026 C 147.192 279.710, 146.333 279.069, 142.343 278.065 C 139.725 277.405, 135.848 275.590, 133.727 274.031 C 129.964 271.263, 129.630 271.207, 119.686 271.655 C 106.881 272.233, 84.090 278, 94.613 278 C 100.687 278, 104.510 284.899, 102.038 291.399 C 101.483 292.860, 101.452 294.162, 101.966 294.479 C 102.456 294.782, 103.140 294.134, 103.487 293.041 C 104.283 290.533, 109.385 286.824, 110.593 287.875 C 111.092 288.308, 113.525 289.231, 116 289.926 C 121.281 291.409, 124.464 294.076, 127.107 299.229 C 128.891 302.707, 132.953 305.721, 136.876 306.476 C 138.360 306.762, 138.984 303.640, 137.971 301 C 137.865 300.725, 137.852 299.550, 137.943 298.390 C 138.033 297.229, 137.059 294.979, 135.778 293.390 C 128.248 284.043, 132.089 277.967, 142.240 283.168 C 146.889 285.550, 148.885 297.658, 146.290 307.743 C 145.120 312.292, 145.143 313.377, 146.468 315.938 C 147.912 318.731, 147.874 318.976, 145.747 320.478 C 143.149 322.313, 139.015 318.566, 139.005 314.367 C 139.001 312.839, 138.220 312.080, 136.250 311.694 C 131.897 310.839, 131.392 312.544, 134.837 316.467 C 136.561 318.430, 138.234 321.083, 138.555 322.363 C 139.058 324.369, 139.732 324.676, 143.464 324.594 C 146.287 324.533, 148.461 325.108, 149.723 326.250 C 152.355 328.631, 152.683 328.497, 153.393 324.750 C 153.731 322.962, 155.024 320.231, 156.265 318.681 L 158.522 315.862 160.847 318.337 C 162.812 320.429, 162.991 321.148, 162.007 322.987 C 161.023 324.826, 161.382 326.273, 164.326 332.332 C 166.242 336.274, 168.108 340.512, 168.472 341.750 C 169.166 344.107, 169.704 344.252, 177 344.057 C 188.923 343.739, 194.440 354.538, 187.081 363.787 C 185.455 365.829, 183.826 368.727, 183.460 370.226 C 182.811 372.886, 175.949 380, 174.032 380 C 172.192 380, 171.138 383.661, 170 394 C 169.370 399.721, 168.383 405.324, 167.805 406.451 C 166.997 408.027, 167.030 408.242, 167.947 407.381 C 168.626 406.743, 170.952 406.466, 173.356 406.737 C 175.675 406.998, 179.186 406.767, 181.157 406.222 C 184.699 405.244, 184.820 405.313, 191.256 411.965 C 194.838 415.668, 198.077 419.666, 198.452 420.849 C 198.981 422.515, 199.930 423, 202.663 423 C 204.604 423, 207.466 423.907, 209.023 425.016 C 210.580 426.125, 213.766 427.888, 216.101 428.934 L 220.347 430.835 225.924 427.834 C 230.913 425.149, 232.079 424.906, 237 425.523 C 251.600 427.352, 257.634 426.149, 264.795 419.981 C 270.452 415.108, 275.927 403.083, 276.774 393.673 C 277.537 385.190, 279.675 383.637, 289.570 384.379 C 296.058 384.865, 298.018 384.677, 299.570 383.418 C 300.631 382.556, 300.969 382.117, 300.319 382.442 C 299.120 383.042, 297.711 381.520, 297.367 379.254 C 297.128 377.675, 298.736 376.674, 301.968 376.390 C 303.361 376.268, 306.179 375.848, 308.231 375.456 C 310.850 374.957, 312.637 375.187, 314.231 376.229 C 316.398 377.647, 316.505 377.588, 316.603 374.922 C 316.673 373.038, 319.345 368.783, 324.836 361.816 C 329.906 355.382, 333.588 349.619, 334.620 346.500 C 335.530 343.750, 337.115 339.825, 338.144 337.777 C 339.415 335.246, 340.111 331.355, 340.320 325.622 C 340.605 317.773, 340.848 316.938, 343.813 313.560 C 348.409 308.326, 347.581 294.016, 342.314 287.646 L 339.955 284.793 343.477 280.893 C 346.637 277.396, 348.060 274, 346.366 274 C 342.238 274, 338.174 276.599, 336.427 280.355 C 333.652 286.323, 328.992 286.565, 322.730 281.068 C 318.385 277.253, 309.848 272.683, 303 270.507 C 299.975 269.545, 296.088 267.424, 294.363 265.792 C 292.561 264.089, 290.960 263.256, 290.601 263.837 C 288.960 266.491, 280.245 268.149, 274.191 266.958 L 268.268 265.792 260.384 273.773 C 247.922 286.388, 243.583 288.207, 237.331 283.439 L 233.974 280.878 231.398 283.939 C 227.745 288.281, 223.725 286.479, 219.258 278.497 C 218.606 277.331, 217.606 277.061, 215.707 277.537 L 213.064 278.201 215.532 281.832 C 220.988 289.861, 213.388 297.102, 206.250 290.677 C 205.012 289.563, 204 287.756, 204 286.662 C 204 285.160, 203.121 285.799, 200.421 289.266 C 198.453 291.792, 195.556 294.308, 193.985 294.855 C 192.414 295.403, 190.470 297.123, 189.667 298.678 C 187.248 303.356, 184.542 305.358, 183.057 303.569 C 182.381 302.754, 182.062 301.709, 182.348 301.246 C 183.147 299.954, 181.816 298.441, 178.292 296.635 C 176.267 295.598, 173.572 292.504, 170.984 288.246 C 168.729 284.536, 165.007 278.883, 162.712 275.684 L 158.539 269.869 160.269 266.853 C 161.221 265.195, 162 262.341, 162 260.511 C 162 255.929, 169.536 248, 173.890 248 C 177.296 248, 180.485 251.377, 181.517 256.076 L 182.171 259.057 185.617 256.928 C 189.989 254.226, 193.298 254.962, 196.135 259.270 C 197.305 261.047, 199.991 263.725, 202.105 265.222 C 206.606 268.410, 207.633 271.458, 206.164 277.276 L 205.097 281.500 207 279 C 208.192 277.432, 208.689 275.646, 208.332 274.210 C 207.512 270.911, 210.515 268, 214.738 268 C 217.038 268, 218.028 267.589, 217.747 266.750 C 217.509 266.042, 215.630 265.487, 213.413 265.471 C 206.656 265.420, 201.795 260.978, 200.224 253.418 C 199.260 248.776, 195.622 247.272, 189.811 249.112 C 186.414 250.187, 185.872 250.070, 182.984 247.640 C 180.010 245.138, 178.230 244.526, 175.152 244.948 C 173.143 245.223, 169.853 241.898, 170.848 240.598 C 172.946 237.859, 173.009 235.977, 170.960 237.257 C 166.456 240.070, 163.118 233.633, 166.959 229.544 L 169.082 227.284 166.576 225.642 C 163.719 223.769, 162.221 223.640, 159.792 225.057 M 309.306 241.450 C 306.802 243.636, 306.735 243.840, 308.685 243.350 C 311.081 242.748, 314.980 239, 313.211 239 C 312.606 239, 310.849 240.102, 309.306 241.450 M 301.703 250.593 C 300.136 252.693, 300.108 253, 301.485 253 C 303.109 253, 304.454 250.791, 303.844 249.126 C 303.655 248.608, 302.691 249.268, 301.703 250.593 M 236.357 251.512 C 236.038 252.344, 236.060 254.482, 236.406 256.262 C 236.753 258.043, 237.423 262.875, 237.897 267 C 239.359 279.728, 242.612 281.623, 250.118 274.118 C 255.458 268.777, 254.823 266.680, 245.837 259.978 C 244.066 258.657, 242.948 256.654, 242.499 253.996 C 241.783 249.753, 237.670 248.090, 236.357 251.512 M 168.730 254.760 C 166.951 256.617, 166 258.695, 166 260.724 C 166 262.437, 165.231 265.178, 164.290 266.817 C 162.589 269.781, 162.600 269.823, 166.540 275.493 C 168.718 278.626, 172.075 283.654, 174 286.667 C 175.925 289.679, 178.400 292.623, 179.500 293.209 C 180.600 293.794, 182.449 295.130, 183.608 296.178 C 185.693 298.061, 185.735 298.053, 187.436 295.457 C 188.382 294.014, 190.654 292.207, 192.485 291.442 C 196.810 289.635, 199.644 285.939, 201.502 279.681 C 203.746 272.125, 203.501 271.321, 196.993 264.914 C 190.274 258.298, 190.015 258.209, 185.527 260.983 L 182.318 262.967 180.286 260.733 C 179.169 259.505, 177.825 257.150, 177.300 255.500 C 175.970 251.320, 172.327 251.005, 168.730 254.760 M 383.500 261.498 C 381.850 262.232, 378.970 264.425, 377.099 266.370 L 373.698 269.907 374.353 279.224 C 375.943 301.838, 384.536 307.086, 392.818 290.500 C 401.919 272.276, 396.585 255.675, 383.500 261.498 M 296 262.449 C 296 263.329, 297.187 264.501, 298.639 265.053 C 302.214 266.412, 302.272 265.934, 298.868 263.174 C 296.540 261.286, 296 261.150, 296 262.449 M 255.750 265.145 C 258.856 268.574, 258.661 269.365, 253.250 275.265 L 248.500 280.444 253.771 276.112 C 261.374 269.862, 263.838 266, 260.223 266 C 259.245 266, 257.332 265.249, 255.973 264.330 L 253.500 262.661 255.750 265.145 M 65.115 266.912 C 65.046 268.956, 66.042 272.103, 67.598 274.758 C 69.434 277.890, 70.079 280.200, 69.795 282.627 C 69.470 285.416, 69.687 285.949, 70.947 285.461 C 77.718 282.839, 81.071 285.077, 81.961 292.812 C 82.493 297.440, 82.543 297.496, 85.853 297.172 C 88.162 296.947, 89.874 297.468, 91.353 298.848 C 92.534 299.950, 94.850 301.173, 96.500 301.565 L 99.500 302.278 96.632 299.974 C 93.921 297.795, 93.799 297.369, 94.407 292.196 L 95.050 286.723 92.775 288.377 C 86.016 293.290, 83.636 292.727, 82.490 285.942 C 81.849 282.148, 81.679 282, 77.963 282 C 72.884 282, 67.616 275.433, 65.930 267 L 65.230 263.500 65.115 266.912 M 388 264.142 C 388.275 264.339, 389.829 265.625, 391.454 267 L 394.409 269.500 392.835 267 C 391.969 265.625, 390.415 264.339, 389.381 264.142 C 388.346 263.944, 387.725 263.944, 388 264.142 M 381.872 269.663 C 378.738 273.460, 380.903 295, 384.419 295 C 387.774 295, 393.040 279.279, 391.603 273.553 C 390.308 268.395, 384.752 266.174, 381.872 269.663 M 209.100 281.813 C 207.416 284.960, 207.744 288.700, 209.750 289.221 C 214.205 290.376, 215.255 287.423, 212.094 282.628 C 210.251 279.834, 210.171 279.812, 209.100 281.813 M 135 285.407 C 135 286.416, 137.329 290.278, 139.833 293.422 C 141.289 295.249, 141.999 297.223, 141.723 298.669 C 141.479 299.944, 141.825 301.440, 142.491 301.993 C 143.423 302.766, 143.635 301.507, 143.407 296.537 C 143.089 289.606, 141.768 286, 139.547 286 C 138.786 286, 137.452 285.727, 136.582 285.393 C 135.712 285.059, 135 285.065, 135 285.407 M 108.021 292.475 C 104.163 297.123, 116.199 308.869, 125.146 309.187 C 132.435 309.445, 132.747 309.193, 128.703 306.316 C 126.590 304.812, 124.123 301.806, 123.095 299.482 C 121.484 295.841, 120.662 295.171, 116.380 294.011 C 113.696 293.284, 110.997 292.304, 110.383 291.832 C 109.709 291.316, 108.771 291.571, 108.021 292.475 M 290.388 299.980 C 284.136 302.506, 282.926 307.655, 286.117 318.160 C 287.545 322.860, 288.034 326.388, 287.618 328.989 C 286.403 336.583, 297.747 343.629, 303.950 339.134 C 312.116 333.217, 314.241 325.981, 310.341 317.371 C 303.851 303.041, 297.187 297.233, 290.388 299.980 M 103.027 303.713 C 104.387 304.655, 107.857 307.336, 110.738 309.671 C 113.618 312.006, 116.993 314.398, 118.238 314.987 C 120.249 315.939, 120.226 315.861, 118.028 314.279 C 116.668 313.300, 112.899 310.137, 109.652 307.250 C 106.404 304.363, 103.029 302, 102.151 302 C 101.031 302, 101.292 302.510, 103.027 303.713 M 291 303.729 C 287.373 305.109, 287.169 308.453, 290.117 318.160 C 291.534 322.824, 292.033 326.395, 291.624 328.949 C 290.921 333.346, 291.714 334.305, 297.325 335.836 C 302.227 337.174, 303.027 336.812, 306.295 331.772 C 309.802 326.363, 309.711 324.550, 305.487 315.788 C 299.912 304.223, 296.708 301.556, 291 303.729 M 127.214 319.060 C 128.157 319.609, 129.619 321.046, 130.464 322.252 C 131.309 323.458, 132 323.895, 132 323.223 C 132 321.611, 128.340 317.992, 126.750 318.030 C 126.040 318.048, 126.240 318.492, 127.214 319.060 M 137.140 330.125 C 142.071 352.073, 139.528 356.833, 125.215 352.448 L 122.930 351.748 124.991 356.977 C 126.403 360.559, 126.851 363.276, 126.415 365.603 C 125.898 368.358, 126.091 369, 127.438 369 C 128.352 369, 130.539 369.744, 132.300 370.652 L 135.500 372.305 131.750 368.150 C 125.872 361.637, 127.669 354.898, 134.743 356.926 C 139.309 358.236, 140.862 356.576, 141.210 350.015 C 141.470 345.094, 141.825 344.322, 144.657 342.515 C 152.980 337.203, 151.133 326.244, 142.289 328.464 C 140.630 328.880, 139.150 328.541, 137.972 327.475 C 136.264 325.929, 136.225 326.054, 137.140 330.125 M 156.118 329.535 C 154.821 334.231, 156.707 338.723, 162.050 343.666 C 167.743 348.934, 165.645 355.172, 156.341 360.639 C 154.054 361.984, 151.914 363.781, 151.587 364.634 C 151.226 365.574, 152.205 365.164, 154.073 363.592 C 155.809 362.131, 158.396 361, 160 361 C 161.577 361, 164.171 359.885, 165.818 358.500 C 167.452 357.125, 169.511 356, 170.394 356 C 171.277 356, 172 355.585, 172 355.077 C 172 354.569, 173.154 352.782, 174.565 351.105 L 177.131 348.056 173.553 348.190 C 169.240 348.353, 165.600 345.347, 163.911 340.230 C 163.280 338.318, 161.489 334.331, 159.931 331.369 L 157.098 325.984 156.118 329.535 M 132.515 330.500 C 132.781 332.700, 133.272 336.750, 133.607 339.500 C 134.435 346.310, 132.028 348.824, 126.446 346.982 C 122.420 345.654, 113.484 346.116, 111.863 347.737 C 111.170 348.430, 112.350 350.454, 115.545 354.051 L 120.247 359.344 119.417 365.422 C 117.483 379.600, 118.336 395.949, 121.378 403 C 125.465 412.472, 125.610 413.722, 122.952 416.551 C 119.704 420.008, 119.810 420.065, 108.954 409.003 C 97.894 397.732, 96.728 397.079, 88.864 397.749 C 84.665 398.106, 81.784 397.689, 77.565 396.110 L 71.902 393.991 70.260 397.746 C 67.816 403.333, 67.388 416.109, 69.463 421.542 C 71.060 425.725, 72.134 431.266, 73.871 444.294 C 74.861 451.721, 76.889 453.761, 84.513 455.002 C 91.318 456.110, 95.434 459.465, 99.232 466.999 C 102.078 472.644, 105.676 474.214, 109.964 471.680 C 112.129 470.401, 113.967 470.131, 117.096 470.631 L 121.311 471.305 120.697 468.235 C 119.631 462.903, 123.149 459.621, 129.167 460.333 C 135.062 461.032, 135.115 462.068, 128.537 447.904 C 121.177 432.057, 121.220 432.349, 125.166 425.372 C 128.900 418.772, 129.109 415.879, 127.549 392.500 C 126.518 377.053, 127.520 375.492, 136.506 378.547 C 142.185 380.477, 142.241 380.473, 153.121 377.306 C 155.085 376.734, 161.968 382.534, 162.079 384.854 C 162.132 385.968, 162.326 386.080, 162.679 385.199 C 162.966 384.484, 162.644 382.554, 161.963 380.910 C 160.351 377.018, 163.318 373.525, 169.009 372.615 C 173.225 371.940, 176 369.045, 176 365.320 C 176 363.965, 177.377 361.986, 179.500 360.293 C 183.145 357.385, 183.840 355.240, 181.800 353.200 C 180.387 351.787, 177 351.592, 177 352.923 C 177 354.572, 171.865 360, 170.305 360 C 169.471 360, 167.452 361.125, 165.818 362.500 C 164.131 363.919, 161.582 365, 159.923 365 C 156.861 365, 153 368.009, 153 370.396 C 153 376.632, 141.285 379.761, 133.852 375.512 C 131.458 374.144, 128.498 373.019, 127.273 373.012 C 124.199 372.995, 121.652 368.860, 122.457 365.194 C 122.869 363.318, 122.357 360.442, 120.993 356.983 L 118.895 351.660 120.898 349.657 C 122.685 347.870, 123.325 347.781, 126.817 348.827 C 136.631 351.767, 137.352 349.976, 133.391 332.500 C 132.605 329.034, 132.235 328.190, 132.515 330.500 M 225.018 334.016 C 217.874 337.353, 213 343.496, 213 349.161 C 213 358.030, 233.355 367.833, 243.685 363.939 C 258.312 358.424, 258.913 336.002, 244.500 333.536 C 234.461 331.819, 229.457 331.942, 225.018 334.016 M 225.271 337.903 C 206.939 346.489, 225.585 367.468, 244.517 359.557 C 253.992 355.599, 253.979 339.186, 244.500 337.543 C 234.734 335.850, 229.442 335.949, 225.271 337.903 M 148.633 343.200 C 146.506 345.345, 145.044 347.377, 145.383 347.716 C 145.722 348.056, 146 347.955, 146 347.492 C 146 347.030, 147.125 347.708, 148.500 349 C 149.875 350.292, 151 352.358, 151 353.593 C 151 360.710, 159.032 358.190, 161.427 350.321 C 161.981 348.498, 154.022 338.281, 152.724 339.150 C 152.601 339.232, 150.760 341.054, 148.633 343.200 M 144.048 356.623 C 141.179 360.824, 138.584 362.028, 134.759 360.931 C 130.641 359.750, 131.083 363.399, 135.571 367.632 C 142.277 373.957, 148.200 370.666, 147.900 360.782 C 147.682 353.579, 146.786 352.613, 144.048 356.623 M 182.679 361.598 C 181.128 362.933, 180.003 364.702, 180.179 365.528 C 180.400 366.562, 181.387 365.913, 183.348 363.446 C 186.796 359.106, 186.506 358.304, 182.679 361.598 M 177.754 371.106 C 176.029 374.112, 170.775 377, 167.032 377 C 164.768 377, 164.486 378.171, 166.047 381.087 C 167.042 382.947, 167.219 382.893, 169.666 379.985 C 171.081 378.304, 173.554 376.248, 175.162 375.416 C 176.770 374.585, 178.529 372.738, 179.071 371.313 C 180.453 367.679, 179.781 367.574, 177.754 371.106 M 325.143 387.143 C 323.979 389.006, 324.174 389.584, 326.918 392.415 C 328.613 394.164, 330 396.136, 330 396.798 C 330 398.299, 331.253 398.347, 332.699 396.901 C 333.498 396.102, 332.963 394.531, 330.739 391.151 C 326.522 384.738, 326.607 384.799, 325.143 387.143 M 220.327 389.380 C 215.100 393.780, 212.644 399.368, 215 401.500 C 220.609 406.576, 238 400.791, 238 393.849 C 238 388.301, 225.394 385.113, 220.327 389.380 M 304.040 389.925 C 301.403 394.853, 307.109 405.108, 313.465 406.863 C 315.378 407.391, 318.262 408.763, 319.876 409.911 C 321.489 411.060, 323.286 412, 323.869 412 C 326.708 412, 328.110 402.050, 326.039 396.602 C 323.837 390.812, 306.398 385.519, 304.040 389.925 M 221.039 393.189 C 219.918 394.392, 218.966 395.630, 218.923 395.939 C 218.881 396.247, 218.705 397.227, 218.532 398.115 C 218.273 399.440, 219.054 399.690, 222.886 399.505 C 228.206 399.250, 234 396.645, 234 394.510 C 234 390.665, 224.310 389.678, 221.039 393.189 M 160.978 395.750 C 160.941 398.717, 157.187 405.999, 152.134 412.906 C 144.041 423.969, 144.346 424.749, 156.122 423.117 C 167.598 421.527, 168.665 423.207, 164.487 436.288 C 163.119 440.572, 162.049 445.297, 162.110 446.788 C 162.185 448.660, 162.492 448.106, 163.099 445 C 163.583 442.525, 165.442 436.356, 167.231 431.292 C 171.168 420.147, 170.917 419.680, 161.828 421.237 C 150.616 423.157, 149.457 420.338, 156.481 408.227 C 160.577 401.165, 163.168 394, 161.625 394 C 161.281 394, 160.990 394.788, 160.978 395.750 M 333.543 401.250 C 333.327 401.938, 332.863 404.635, 332.514 407.245 C 331.297 416.337, 327.149 419.248, 319.877 416.113 C 307.800 410.905, 299.539 412.404, 295.876 420.468 C 291.989 429.024, 293.631 431.738, 306.575 438.152 L 315.172 442.412 321.336 440.663 C 328.521 438.624, 333.484 437.627, 344.500 436.011 C 362.726 433.337, 367.656 426.310, 358.521 416.024 C 355.963 413.143, 353.476 409.752, 352.996 408.489 C 352.332 406.742, 350.853 405.920, 346.826 405.056 C 343.913 404.431, 340.035 403.038, 338.208 401.960 C 334.294 399.651, 334.059 399.615, 333.543 401.250 M 75.616 404.293 C 68.660 411.249, 68.822 419.636, 76.247 437 C 81.158 448.484, 83.812 451.628, 89.373 452.550 C 91.643 452.927, 95.585 454.757, 98.134 456.617 C 105.368 461.898, 108.446 460.368, 104.988 453.211 C 103.894 450.948, 103 448.626, 103 448.051 C 103 447.476, 101.490 445.317, 99.644 443.253 C 90.359 432.869, 94.535 421.983, 104.727 430 C 108.832 433.229, 116 430.902, 116 426.341 C 116 419.987, 100.828 406.013, 93.891 405.978 C 91.476 405.966, 87.538 405.066, 85.141 403.978 C 79.578 401.454, 78.417 401.492, 75.616 404.293 M 354 402.351 C 354 403.901, 359.966 413.322, 363.104 416.728 C 365.247 419.053, 367 421.725, 367 422.665 C 367 424.049, 367.528 423.869, 369.776 421.715 C 372.387 419.213, 374.943 418.248, 379.417 418.074 C 381.964 417.976, 381.112 417.241, 377.742 416.630 C 376.250 416.359, 373.335 414.763, 371.265 413.084 C 360.947 404.713, 354 400.395, 354 402.351 M 75.792 410.736 C 73.113 416.794, 74.202 423.001, 80.489 437.500 L 84.825 447.500 89.337 448.500 C 91.819 449.050, 95.269 450.552, 97.004 451.838 C 98.738 453.124, 100.358 453.975, 100.604 453.730 C 101.437 452.897, 97.272 444.511, 95.027 442.502 C 89.260 437.341, 88.625 431.725, 93.298 427.196 C 97.161 423.451, 100.979 423.052, 104.727 426 C 107.593 428.254, 112 428.676, 112 426.696 C 112 420.968, 100.480 409.985, 94.522 410.032 L 90.500 410.063 93.250 412.115 C 96.790 414.756, 96.805 418.184, 93.300 423.446 C 87.188 432.625, 85.103 433.634, 79.904 429.932 C 76.440 427.465, 76.005 423.210, 78.946 420.549 C 80.026 419.572, 81.027 417.166, 81.196 415.144 C 81.417 412.495, 82.114 411.230, 83.750 410.513 C 86.643 409.244, 86.585 408.588, 83.453 407.161 C 79.198 405.222, 77.980 405.790, 75.792 410.736 M 85.639 413.775 C 84.710 415.278, 84.648 427.382, 85.568 427.650 C 86.896 428.036, 92 419.660, 92 417.096 C 92 415.713, 91.088 414.604, 89.435 413.975 C 86.344 412.800, 86.245 412.795, 85.639 413.775 M 288.027 433.978 C 284.836 436.582, 284.728 436.896, 285.370 441.731 C 286.007 446.533, 285.884 446.904, 282.763 449.631 L 279.487 452.492 282.473 453.996 C 284.116 454.823, 286.517 457.075, 287.809 459 C 289.201 461.074, 290.839 462.385, 291.829 462.217 C 296.499 461.424, 302.542 458.363, 309.156 453.439 C 325.689 441.130, 334.188 441.656, 338.396 455.250 C 338.751 456.400, 339.951 457, 341.892 457 C 343.518 457, 347.089 457.518, 349.830 458.150 C 361.418 460.825, 370.662 448.816, 362.950 441.104 C 360.441 438.595, 360.086 437.708, 360.947 436.100 C 361.924 434.274, 361.712 434.296, 357.746 436.436 C 355.214 437.803, 349.868 439.242, 344.500 440.003 C 333.525 441.557, 329.325 442.403, 321.295 444.677 L 315.089 446.434 305.529 441.593 C 300.271 438.930, 294.930 435.517, 293.660 434.008 L 291.352 431.264 288.027 433.978 M 161.343 457.500 C 161.346 461.900, 161.522 463.576, 161.733 461.224 C 161.945 458.872, 161.942 455.272, 161.727 453.224 C 161.512 451.176, 161.339 453.100, 161.343 457.500 M 251.868 462.684 C 245.511 469.364, 244.580 473.856, 247.511 483.725 C 248.619 487.455, 248.752 489.522, 248.011 491.471 C 246.608 495.161, 246.670 495.454, 249.589 498.923 C 254.412 504.655, 260.165 502.962, 265.680 494.186 C 267.645 491.059, 271.100 486.577, 273.357 484.227 C 276.855 480.586, 277.281 479.699, 276.239 478.227 C 275.568 477.277, 273.902 474.403, 272.538 471.841 C 266.669 460.814, 257.510 456.756, 251.868 462.684 M 253.856 464.670 C 249.617 469.522, 248.936 475.055, 251.511 483.725 C 252.636 487.515, 252.757 489.508, 251.985 491.538 C 248.332 501.148, 257.390 500.429, 264.096 490.577 C 266.687 486.769, 269.864 482.850, 271.154 481.869 C 273.141 480.357, 273.310 479.810, 272.259 478.292 C 271.576 477.306, 269.906 474.475, 268.547 472 C 264.490 464.609, 257.121 460.933, 253.856 464.670 M 170.108 465.898 C 166.840 468.001, 170.548 481, 174.416 481 C 177.611 481, 178.599 479.320, 176.663 477.180 C 175.819 476.248, 174.988 473.243, 174.815 470.502 C 174.491 465.383, 173.070 463.992, 170.108 465.898 M 179.036 473.615 C 179.056 474.652, 180.218 476.850, 181.618 478.500 C 184.075 481.394, 184.139 481.411, 183.445 479 C 182.363 475.244, 178.988 471.122, 179.036 473.615 M 172.749 488.584 C 170.299 491.035, 182.279 515.358, 204.970 554 C 213.041 567.744, 221.285 570.526, 253.535 570.391 C 284.239 570.263, 287.946 568.504, 297.715 549.432 C 305.342 534.541, 319 498.814, 319 493.754 C 319 489.193, 295.166 494.853, 290.712 500.471 C 289.179 502.405, 286.704 504.615, 285.212 505.381 C 279.356 508.391, 244.543 510.199, 235.500 507.963 C 233.300 507.419, 228.017 506.550, 223.760 506.032 C 215.962 505.083, 200.650 499.324, 184.775 491.370 C 178.497 488.224, 174.123 487.211, 172.749 488.584 M 471.508 593.995 C 468.459 595.995, 461.070 596.088, 436.500 594.435 C 427.105 593.804, 426.329 593.899, 423.679 596.010 C 420.335 598.673, 421.409 600.922, 425.085 598.954 C 426.732 598.073, 430.098 597.923, 436.942 598.426 C 465.540 600.527, 476 599.354, 476 594.045 C 476 592.178, 474.306 592.159, 471.508 593.995 M 284.500 594.955 C 276.933 597.186, 276.038 597.561, 276.040 598.500 C 276.041 599.050, 277.719 599.358, 279.771 599.185 C 283.368 598.881, 307.295 598.977, 315.500 599.329 C 320.855 599.558, 321.152 597.792, 316.010 596.295 C 310.693 594.747, 288.419 593.799, 284.500 594.955" stroke="none" fill="#1A1A1A" fill-rule="evenodd"/>
</svg>