<svg xmlns="http://www.w3.org/2000/svg" width="507" height="600" viewBox="0 0 507 600" version="1.1">
	<rect x="0" y="0" width="100%" height="100%" fill="#FFFFFF" />
	<path d="M 300.105 67.583 C 291.744 69.831, 285.215 73.853, 277.108 81.750 C 273.014 85.737, 268.925 89, 268.022 89 C 265.849 89, 255.758 92.998, 249.508 96.335 C 246.762 97.801, 243.750 99, 242.815 99 C 239.552 99, 222.434 105.267, 213.649 109.678 C 204.209 114.417, 191.196 126.349, 179.210 141.254 C 172.707 149.341, 165.297 165.398, 164.022 174.163 C 162.314 185.912, 161.173 190.476, 158.498 196.270 C 155.246 203.315, 154.369 216.511, 156.643 224.168 C 157.890 228.370, 157.870 229.374, 156.473 232.715 C 152.011 243.379, 156.081 286.296, 163.635 308.252 C 165.486 313.632, 167 318.539, 167 319.157 C 167 319.775, 167.864 322.130, 168.920 324.390 C 173.156 333.456, 174.904 337.693, 176.087 341.766 C 178.409 349.760, 190.018 358.253, 203.264 361.646 C 210.199 363.423, 217.772 363.087, 227.379 360.578 C 234.564 358.701, 233.986 358.332, 238.383 367.590 C 242.722 376.728, 242.691 376.214, 239.176 380.809 C 226.258 397.696, 224.726 400.702, 223.031 412.500 C 221.863 420.628, 219.220 427.370, 208.919 448.500 C 202.041 462.607, 201.882 463.164, 200.928 476.369 L 200.070 488.238 188.463 511.869 C 182.079 524.866, 175.480 537.233, 173.799 539.352 C 172.117 541.471, 170.332 545.071, 169.830 547.352 C 169.329 549.633, 167.668 553.300, 166.139 555.500 C 164.610 557.700, 162.102 563.325, 160.566 568 C 159.030 572.675, 155.771 580.220, 153.324 584.768 C 147.516 595.563, 147.536 599.500, 153.399 599.500 L 157.298 599.500 158.948 593.500 C 160.861 586.545, 162.919 582.341, 162.970 585.285 C 163.020 588.252, 166.207 592.189, 169.761 593.673 C 172.334 594.749, 173.042 595.588, 172.807 597.287 C 172.438 599.949, 174.787 600.285, 176.358 597.795 C 177.592 595.837, 174.441 591.800, 170.026 589.684 C 166.296 587.896, 166.384 581.941, 170.159 580.613 C 172.445 579.809, 173.183 580.087, 175.409 582.589 L 178 585.500 180.439 582.765 C 182.394 580.572, 182.765 579.327, 182.305 576.492 C 181.890 573.937, 182.210 572.426, 183.456 571.049 C 186.943 567.195, 182.005 558.766, 177.470 560.832 C 174.399 562.231, 174.401 561.971, 177.500 557.405 C 178.875 555.379, 180 553.213, 180 552.592 C 180 550.545, 186.217 536.579, 188.943 532.500 C 190.414 530.300, 192.191 526.700, 192.893 524.500 C 193.594 522.300, 195.143 518.633, 196.334 516.351 C 197.525 514.069, 200.273 508.808, 202.440 504.659 C 206.903 496.116, 207.922 495.756, 207.229 502.965 C 206.503 510.526, 210.174 513.716, 213.594 508.497 C 215.245 505.978, 215.688 503.354, 215.890 494.921 C 216.037 488.807, 220.831 481.348, 225.341 480.219 C 227.511 479.675, 228.969 478.426, 230 476.227 C 230.825 474.467, 232.400 472.748, 233.500 472.406 C 234.600 472.065, 237.300 470.097, 239.500 468.034 C 241.700 465.971, 245.525 462.922, 248 461.258 C 255.727 456.063, 256.765 454.443, 254.149 451.659 L 251.969 449.338 253.984 447.514 C 255.093 446.511, 256 445.060, 256 444.289 C 256 443.459, 256.940 443.981, 258.309 445.572 C 262.885 450.893, 269.900 444.898, 266.271 438.769 C 264.023 434.971, 261.602 434.880, 258.368 438.470 C 256.939 440.056, 255.905 440.505, 255.231 439.831 C 254.557 439.157, 254.004 439.184, 253.554 439.913 C 253.184 440.511, 251.117 441, 248.960 441 C 244.880 441, 236.478 445.559, 232.595 449.880 C 230.639 452.057, 228 452.734, 228 451.059 C 228 450.541, 228.450 449.840, 229 449.500 C 230.494 448.577, 230.207 445.416, 228.500 444 C 226.325 442.195, 226.631 439.950, 229.966 433.227 C 232.394 428.334, 232.771 426.690, 232.048 424.166 C 231.331 421.666, 231.479 420.982, 232.832 420.547 C 233.749 420.253, 239 415.444, 244.499 409.861 C 254.852 399.351, 258.337 396.712, 268.500 391.688 C 271.800 390.057, 276.345 387.459, 278.601 385.916 L 282.701 383.110 286.385 386.883 C 291.688 392.313, 292.173 396.594, 288.020 401.324 C 285.359 404.355, 282.257 412.610, 282.036 417.247 C 282.016 417.658, 283.612 419.779, 285.582 421.959 C 289.625 426.435, 289.471 427.501, 284.648 428.406 C 282.793 428.754, 280.526 429.866, 279.612 430.876 C 277.394 433.327, 278.682 434.306, 287 436.497 C 303.025 440.719, 302.487 439.962, 302.123 457.763 C 301.875 469.947, 302.032 471.316, 304.053 474.586 C 307.607 480.337, 305.111 481.065, 299.518 475.910 C 294.385 471.178, 292.692 471.257, 290.195 476.342 C 288.726 479.335, 287.382 479.604, 284.559 477.468 C 283.408 476.598, 280.417 476, 277.209 476 C 271.975 476, 271.608 476.187, 265.786 481.814 C 259.996 487.410, 259.679 487.981, 257.336 497.064 C 253.297 512.723, 248.979 518.678, 243.482 516.174 C 242.065 515.528, 237.793 515, 233.988 515 C 227.681 515, 226.758 515.273, 223.549 518.091 C 219.395 521.739, 218.637 524.317, 217.036 540.259 C 216.386 546.726, 214.476 557.076, 212.791 563.259 C 211.107 569.441, 209.677 576.922, 209.614 579.881 L 209.500 585.263 204.804 587.381 C 199.606 589.726, 191.233 598.408, 193.072 599.544 C 193.688 599.925, 196.046 598.431, 198.343 596.204 C 200.629 593.988, 204.075 591.523, 206 590.726 C 211.488 588.452, 213.483 585.549, 213.614 579.640 C 213.677 576.813, 215.138 569.325, 216.861 563 C 218.583 556.675, 220.044 550.150, 220.106 548.500 C 220.199 546.035, 220.373 546.284, 221.082 549.893 C 221.606 552.562, 221.550 556.047, 220.938 558.775 C 220.226 561.952, 220.267 564.278, 221.076 566.730 C 221.757 568.794, 222.064 574.389, 221.836 580.567 C 221.456 590.810, 221.409 590.982, 218.028 594.471 C 215.256 597.331, 214.848 598.242, 215.888 599.252 C 217.547 600.865, 224.519 593.154, 225.405 588.727 C 226.371 583.896, 226.085 569.543, 224.959 566.311 C 224.257 564.298, 224.238 561.894, 224.903 558.938 C 225.567 555.982, 225.537 552.070, 224.811 546.935 C 222.626 531.490, 225.351 522, 231.969 522 C 236.064 522, 241.044 531.413, 239.149 535.571 C 237.682 538.792, 237.376 563.958, 238.772 566.594 C 240.700 570.234, 246 587.128, 246 589.634 C 246 596.391, 257.979 601.287, 264.008 596.994 C 267.285 594.661, 268.148 589.014, 265.877 584.770 C 264.040 581.337, 263.816 573.611, 265.418 568.887 C 267.468 562.840, 269.397 535.183, 267.895 533.373 C 267.278 532.630, 266.298 532.316, 265.717 532.675 C 265.017 533.107, 264.937 532.681, 265.480 531.414 C 265.931 530.361, 266.342 527.253, 266.393 524.506 C 266.475 520.153, 266.916 519.135, 269.823 516.582 C 274.712 512.289, 277.322 512.393, 281.948 517.065 C 285.415 520.568, 286.376 521, 290.689 521 C 295.936 521, 303 517.249, 303 514.464 C 303 513.659, 303.675 513, 304.500 513 C 306.297 513, 306.435 514.165, 304.830 515.770 C 303.937 516.663, 303.965 517.863, 304.948 520.843 C 306.230 524.727, 306.208 524.788, 300.472 533.499 L 294.708 542.252 295.463 553.876 C 295.878 560.269, 296.343 567.438, 296.495 569.807 C 296.647 572.176, 297.542 576.130, 298.483 578.594 C 300.015 582.607, 300.040 583.407, 298.722 586.286 C 295.244 593.879, 296.365 597.515, 302.781 599.462 C 308.307 601.139, 320 589.102, 320 581.738 C 320 580.477, 320.772 578.343, 321.715 576.997 C 323.467 574.495, 323.977 567.718, 323.895 548 C 323.876 543.324, 324.324 538.279, 324.891 536.788 C 325.707 534.641, 325.502 533.128, 323.906 529.519 C 322.012 525.240, 321.961 524.248, 323.059 513.231 C 324.481 498.969, 321.922 486.099, 315.011 472.755 C 308.412 460.013, 310.334 461.999, 324.352 482.407 L 328.205 488.015 327.724 496.258 C 327.459 500.791, 326.717 508.629, 326.074 513.675 C 325.076 521.518, 325.140 523.753, 326.520 529.077 C 327.830 534.132, 328.006 538.057, 327.453 549.903 C 326.806 563.798, 326.875 564.628, 328.886 567.158 C 332.470 571.664, 331.867 579.284, 327.609 583.301 C 323.542 587.139, 322.478 589.168, 321.635 594.690 C 320.436 602.546, 324.382 601.632, 325.862 593.711 C 326.497 590.310, 327.886 587.762, 330.870 584.525 C 335.875 579.095, 336.704 571.958, 332.886 567.158 C 330.875 564.628, 330.806 563.798, 331.453 549.903 C 332.006 538.057, 331.830 534.132, 330.520 529.077 C 329.140 523.753, 329.076 521.518, 330.074 513.675 C 330.717 508.629, 331.459 500.791, 331.724 496.258 L 332.205 488.015 328.352 482.407 C 326.234 479.322, 323.825 475.814, 323 474.611 C 322.175 473.407, 320.301 470.865, 318.835 468.961 C 315.371 464.461, 311.672 453.406, 312.312 449.464 C 312.612 447.616, 312.069 444.847, 310.938 442.455 C 309.909 440.280, 309.053 437.998, 309.034 437.385 C 309.015 436.772, 308.045 435.055, 306.877 433.571 C 304.191 430.156, 304.692 423.688, 307.989 419.229 L 310.257 416.162 307.999 411.498 C 305.439 406.210, 305.651 399.349, 308.549 393.681 C 311.218 388.460, 312.748 381.548, 311.628 379.772 C 309.768 376.823, 313.368 373.275, 320.435 371.093 C 323.979 369.998, 328.797 368.124, 331.141 366.928 C 338.556 363.145, 346.139 360.963, 358.515 359.049 C 369.587 357.338, 373.825 356.107, 381.250 352.448 L 384 351.093 384 356.380 C 384 359.287, 384.514 364.227, 385.143 367.357 C 386.482 374.028, 386.449 374.082, 380.591 374.743 C 374.728 375.403, 372.206 377.963, 373.854 381.579 C 374.498 382.993, 374.787 384.535, 374.496 385.006 C 374.205 385.477, 374.386 386.120, 374.897 386.436 C 375.409 386.753, 375.620 388.817, 375.366 391.025 C 374.945 394.692, 375.290 395.436, 379.357 399.620 C 385.154 405.584, 385.751 409.904, 381.904 418.039 C 379.269 423.610, 379.130 423.725, 374.220 424.376 C 367.310 425.293, 363.626 428.308, 364.305 432.491 C 364.589 434.241, 364.418 436.308, 363.926 437.086 C 363.262 438.134, 363.027 437.840, 363.015 435.950 C 362.987 431.180, 358.766 429.391, 355.655 432.829 C 353.726 434.960, 353.467 440.067, 355.200 441.800 C 355.907 442.507, 355.978 443, 355.374 443 C 354.810 443, 353.292 441.875, 352 440.500 C 350.618 439.029, 348.539 438, 346.948 438 C 345.461 438, 343.691 437.333, 343.014 436.517 C 341.954 435.239, 342.417 435.061, 346.361 435.233 C 350.200 435.400, 351.429 434.964, 353.970 432.529 C 357.358 429.283, 358.184 423.228, 355.539 421.032 C 352.618 418.608, 352.724 416.079, 355.897 412.465 C 358.306 409.721, 358.826 408.381, 358.369 406.096 C 357.734 402.919, 360.999 397.090, 364.973 394.306 C 368.144 392.085, 368.931 389.079, 367.338 385.267 C 366.584 383.461, 366.228 380.941, 366.547 379.667 C 367.323 376.579, 364.684 374.188, 362.500 376 C 361.675 376.685, 361 378.063, 361 379.063 C 361 380.064, 360.504 381.188, 359.898 381.563 C 359.292 381.938, 358.161 383.764, 357.385 385.622 C 356.608 387.480, 355.374 389, 354.642 389 C 352.480 389, 350 392.443, 350 395.444 L 350 398.230 344.445 397.536 C 340.105 396.994, 338.340 397.203, 336.376 398.489 C 334.993 399.395, 332.581 400.002, 331.015 399.838 C 328.020 399.523, 324 402.264, 324 404.621 C 324 405.342, 323.252 407.501, 322.338 409.418 C 320.283 413.727, 321.962 417.183, 324.893 414.677 C 328.888 411.263, 332.440 413.160, 328.824 416.776 C 327.922 417.678, 328.069 418.419, 329.456 419.951 C 332.389 423.192, 334.874 423.460, 337.726 420.844 L 340.282 418.500 339.663 423.228 C 339.323 425.829, 338.483 428.855, 337.797 429.953 C 336.817 431.523, 336.811 432.211, 337.768 433.168 C 338.725 434.125, 338.556 434.844, 336.977 436.524 L 334.969 438.662 336.984 440.486 C 338.093 441.489, 339 442.845, 339 443.500 C 339 445.312, 342.150 447.762, 345.500 448.553 C 347.150 448.943, 349.508 450.178, 350.740 451.296 C 353.201 453.531, 357.456 452.580, 358.625 449.535 C 359.115 448.257, 359.506 448.288, 361.459 449.761 C 363.203 451.077, 363.490 451.844, 362.707 453.098 C 361.080 455.703, 365.486 463.787, 369.602 465.750 C 372.328 467.050, 372.845 467.771, 372.380 469.623 C 371.702 472.325, 375.799 477, 378.845 477 C 380.752 477, 392 487.202, 392 488.932 C 392 490.252, 397.929 495, 399.577 495 C 400.360 495, 401 495.493, 401 496.096 C 401 496.698, 401.853 498.390, 402.897 499.855 C 403.940 501.320, 405.301 504.403, 405.921 506.706 C 406.541 509.009, 408.050 511.721, 409.274 512.733 C 414.887 517.375, 423.549 538.591, 422.619 545.420 C 421.039 557.030, 420.639 558.565, 418.872 559.803 C 416.133 561.720, 416.558 564.511, 420.601 571.166 C 424.763 578.018, 424.659 584.917, 420.262 593.619 C 418.670 596.770, 419.044 600, 421 600 C 421.585 600, 422.302 599.212, 422.595 598.250 C 422.888 597.288, 423.737 595.150, 424.483 593.500 C 428.661 584.251, 428.695 577.905, 424.601 571.166 C 420.481 564.385, 420.257 562.983, 422.905 560.586 C 423.962 559.629, 425.074 556.891, 425.405 554.431 C 425.732 551.994, 426.264 548.052, 426.587 545.670 C 427.050 542.261, 426.497 539.550, 423.987 532.920 C 419.041 519.852, 416.817 515.563, 412.676 511.104 C 411.346 509.672, 409.945 507.177, 409.562 505.561 C 409.180 503.945, 407.997 501.400, 406.934 499.907 C 405.870 498.413, 405 496.777, 405 496.270 C 405 494.881, 400.801 491.321, 398.250 490.548 C 397.012 490.172, 396 489.514, 396 489.085 C 396 488.404, 411.090 487.202, 426.601 486.647 C 430.917 486.493, 432.580 485.803, 437.403 482.161 C 444.945 476.467, 446.800 471.342, 444.480 462.604 L 443.711 459.707 448.605 460.529 C 458.418 462.177, 470.144 461.621, 474.500 459.300 C 485.425 453.480, 490.542 441.991, 487.280 430.603 C 486.476 427.797, 485.461 423.234, 485.024 420.464 C 482.793 406.308, 478.359 395, 475.039 395 C 474.486 395, 472.820 392.637, 471.337 389.750 C 468.774 384.757, 467.642 380.442, 461.568 352.500 C 460.133 345.900, 458.042 338.330, 456.920 335.677 C 455.799 333.025, 454.269 326.186, 453.520 320.480 C 452.580 313.321, 451.333 308.462, 449.494 304.803 C 448.028 301.886, 445.792 295.625, 444.524 290.888 C 443.256 286.152, 441.686 281.282, 441.036 280.067 C 438.189 274.748, 436.938 266.420, 437.098 253.851 C 437.276 239.915, 436.430 237.065, 431.447 234.794 C 429.676 233.987, 429 232.884, 429 230.800 C 429 226.953, 425.536 220.353, 422.747 218.884 C 419.607 217.230, 419.369 216.662, 419.112 210.216 C 418.987 207.072, 418.461 204.072, 417.942 203.550 C 417.424 203.028, 417 197.667, 417 191.638 C 417 181.251, 416.847 180.434, 414.090 176.088 C 412.490 173.564, 410.193 168.125, 408.986 164 C 407.779 159.875, 406.448 156.050, 406.028 155.500 C 405.608 154.950, 404.475 152.025, 403.509 149 C 402.544 145.975, 401.395 143.108, 400.955 142.628 C 400.516 142.149, 400.379 141.177, 400.650 140.468 C 401.290 138.802, 399.070 134.547, 391.929 123.753 C 388.604 118.728, 386.918 115.421, 387.966 115.982 C 391.612 117.933, 392.772 114.398, 390.046 109.643 C 385.279 101.329, 373.518 88.004, 367.499 84.097 C 365.298 82.669, 361.023 79.646, 357.999 77.380 C 346.443 68.722, 315.401 63.469, 300.105 67.583 M 299.417 76.884 C 292.278 78.928, 287.553 82.030, 285.485 86.029 C 284.668 87.608, 283.213 89.407, 282.250 90.026 C 280.616 91.077, 280.621 91.113, 282.332 90.576 C 283.339 90.259, 284.850 90, 285.689 90 C 286.624 90, 286.994 89.428, 286.646 88.521 C 286.086 87.060, 289.849 83.620, 294.814 81.056 C 297.853 79.487, 300.352 81.376, 299.706 84.756 L 299.252 87.133 301.876 84.681 C 306.258 80.586, 310.571 78.779, 311.963 80.455 C 312.949 81.644, 313.667 81.539, 316.667 79.769 L 320.206 77.681 317.853 76.376 C 314.617 74.581, 306.697 74.800, 299.417 76.884 M 351.133 85.436 C 352.031 86.571, 353.505 88.963, 354.409 90.750 C 356.168 94.230, 357 94.833, 357 92.629 C 357 91.874, 355.313 89.483, 353.250 87.314 C 351.188 85.146, 350.235 84.300, 351.133 85.436 M 321.112 85.016 C 318.801 86.005, 318.782 86.101, 320.517 88.019 C 321.503 89.108, 322.715 90, 323.211 90 C 323.707 90, 326.881 91.374, 330.265 93.053 C 335.143 95.473, 337.184 95.976, 340.120 95.480 C 344.087 94.809, 347.622 91.815, 346.530 90.049 C 343.977 85.918, 326.904 82.537, 321.112 85.016 M 359.207 89.090 C 360.103 90.514, 361.031 92.989, 361.268 94.590 C 361.661 97.235, 361.714 97.172, 361.850 93.905 C 361.958 91.313, 361.383 89.779, 359.789 88.405 L 357.578 86.500 359.207 89.090 M 319.498 91.852 C 321.696 94.441, 326.169 97.046, 328.200 96.919 C 328.915 96.875, 327.825 96.056, 325.778 95.099 C 323.730 94.143, 321.030 92.492, 319.778 91.430 L 317.500 89.500 319.498 91.852 M 365.734 94.669 C 364.979 101.365, 365.688 102.642, 368.628 99.880 C 371.544 97.141, 371.544 97.125, 368.632 93.179 L 366.264 89.969 365.734 94.669 M 312 92 C 312 92.550, 312.413 93, 312.918 93 C 313.423 93, 314.661 93.309, 315.668 93.687 C 317.281 94.292, 317.336 94.172, 316.128 92.687 C 314.627 90.843, 312 90.405, 312 92 M 372.122 92.517 C 376.558 97.942, 376.499 102, 371.985 102 C 370.534 102, 369 103.817, 369 105.534 C 369 105.737, 371.055 107.318, 373.567 109.046 C 377.873 112.008, 378.240 112.093, 379.984 110.515 C 381.427 109.209, 382.278 109.078, 383.851 109.920 C 384.961 110.514, 386.130 111, 386.449 111 C 387.747 111, 375.467 94.403, 372.402 92.016 C 370.590 90.605, 370.577 90.628, 372.122 92.517 M 292.201 92.750 C 292.404 93.162, 293.372 95.367, 294.353 97.649 C 295.872 101.183, 296.644 101.856, 299.567 102.198 C 301.797 102.458, 302.657 102.257, 302.023 101.623 C 300.587 100.187, 302.779 98, 305.655 98 C 306.980 98, 309.737 98.726, 311.782 99.613 C 317.633 102.153, 327.329 106, 327.877 106 C 329.193 106, 322.436 100.021, 320.133 99.147 C 306.897 94.127, 291.102 90.509, 292.201 92.750 M 347.148 95.348 C 343.967 98.629, 343.904 98.835, 345.874 99.460 C 347.015 99.822, 348.878 101.424, 350.014 103.019 C 351.150 104.615, 353.464 106.906, 355.156 108.111 C 358.203 110.280, 358.221 110.281, 357.110 108.206 C 356.494 107.054, 355.542 105.835, 354.995 105.497 C 354.448 105.159, 354 102.933, 354 100.552 C 354 97.916, 353.314 95.375, 352.248 94.058 L 350.495 91.894 347.148 95.348 M 283.680 97.854 L 278.859 99.553 282.816 101.776 C 286.255 103.709, 293 104.873, 293 103.534 C 293 102.475, 289.586 96.006, 289.065 96.078 C 288.754 96.120, 286.331 96.919, 283.680 97.854 M 331.840 105.337 C 335.565 109.133, 335.905 109.834, 334.557 110.953 C 333.277 112.015, 331.328 111.558, 323.009 108.245 L 313.001 104.258 316.698 108.379 C 321.177 113.370, 327.215 117.018, 329.855 116.328 C 331.143 115.991, 333.108 117.006, 335.697 119.346 C 339.425 122.713, 339.654 122.784, 340.808 120.935 C 341.473 119.871, 342.688 119, 343.508 119 C 346.600 119, 344.798 115.509, 338.995 110.258 C 335.693 107.269, 333.230 104.436, 333.523 103.962 C 333.816 103.488, 333.173 102.628, 332.094 102.050 C 327.883 99.797, 327.775 101.195, 331.840 105.337 M 253.685 106.606 C 252.137 107.445, 248.087 108.567, 244.685 109.099 C 237.737 110.184, 218.344 116.311, 213 119.109 C 209.230 121.083, 196.796 133.048, 188.167 143.007 C 183.055 148.906, 175.958 162.298, 174.598 168.610 C 173.610 173.196, 177.576 174.535, 183.791 171.714 C 190.503 168.668, 198.582 168.901, 207.750 172.405 C 211.731 173.926, 215.224 175.554, 215.515 176.024 C 216.432 177.508, 226.305 182.791, 231.378 184.512 C 234.877 185.698, 237.847 185.984, 241.878 185.521 C 247.456 184.881, 247.531 184.907, 251.453 188.938 C 257.757 195.416, 259.684 194.095, 256.106 185.748 C 253.915 180.636, 249.941 178.423, 244.529 179.302 C 241.995 179.713, 240.422 179.333, 238.546 177.857 C 235.343 175.338, 235.332 173.671, 238.500 171.179 C 240.292 169.769, 241 168.248, 241 165.806 C 241 158.751, 245.334 158.131, 250.508 164.445 C 253.038 167.532, 255.578 169.375, 258.825 170.481 C 261.396 171.356, 264.584 172.673, 265.909 173.407 C 268.096 174.618, 268.529 174.499, 270.590 172.120 L 272.862 169.500 276.681 173.084 C 281.434 177.545, 285.997 181, 287.135 181 C 287.611 181, 288 179.170, 288 176.934 C 288 172.319, 289.127 169.698, 292.809 165.750 C 296.095 162.228, 295.899 162.194, 303.159 167.538 C 310.074 172.629, 310.715 172.471, 311.622 165.460 C 312.293 160.269, 316.052 154, 318.492 154 C 321.032 154, 320.887 152.464, 317.929 148.060 C 316.171 145.443, 315 142.387, 315 140.417 C 315 138.027, 314.463 136.964, 313.026 136.508 C 311.940 136.164, 310.219 134.822, 309.200 133.527 C 308.181 132.232, 305.788 130.520, 303.882 129.724 C 301.976 128.928, 297.961 126.284, 294.959 123.848 C 281.837 113.203, 272.899 107.078, 269.791 106.603 C 260.183 105.134, 256.399 105.134, 253.685 106.606 M 343.348 110.252 C 349.822 116.062, 350.847 120.290, 346.325 122.532 L 344.150 123.610 346.173 126.805 C 348.259 130.099, 349.442 130.711, 350.480 129.033 C 351.204 127.861, 356.447 128.756, 360.343 130.717 C 364.074 132.595, 364.530 131.920, 362.468 127.575 C 361.085 124.659, 361.002 123.702, 362.025 122.469 C 363.530 120.656, 363.976 121.076, 356.179 116.972 C 352.703 115.143, 348.146 111.700, 346.053 109.323 C 343.573 106.506, 341.421 105.001, 339.874 105.002 C 337.816 105.003, 338.278 105.702, 343.348 110.252 M 347.924 106.858 C 348.471 107.880, 350.175 109.515, 351.709 110.492 C 354.268 112.118, 354.213 111.964, 351.054 108.633 C 347.183 104.552, 346.475 104.151, 347.924 106.858 M 301.115 107.859 C 304.001 110.107, 309.516 113, 310.919 113 C 313.429 113, 310.410 109.993, 305.993 108.092 C 299.973 105.503, 297.969 105.406, 301.115 107.859 M 283.083 110.393 C 287.063 114.150, 301.380 124.650, 304 125.734 C 305.925 126.530, 309.015 128.603, 310.867 130.341 L 314.234 133.500 312.493 130.060 C 310.792 126.698, 310.802 126.579, 312.924 124.860 L 315.097 123.101 312.075 121.539 C 309.716 120.319, 309.167 120.273, 309.572 121.328 C 310.589 123.978, 307.437 125.278, 304.135 123.570 C 300.274 121.573, 299.520 120.284, 301.100 118.380 C 302.771 116.366, 301.704 115.698, 291.698 112.496 C 284.038 110.045, 282.253 109.609, 283.083 110.393 M 361.985 113.518 C 360.544 115.255, 362.101 116.893, 367.282 119.090 C 372.758 121.411, 372.080 117.523, 366.384 113.936 C 363.594 112.178, 363.133 112.135, 361.985 113.518 M 316.425 113.794 C 316.836 114.505, 316.649 115.718, 316.010 116.488 C 314.371 118.463, 323.444 123, 329.032 123 C 331.287 123, 334.114 123.477, 335.316 124.060 C 336.993 124.874, 336.829 124.509, 334.609 122.487 C 332.522 120.586, 331.060 120.019, 329.348 120.449 C 327.015 121.034, 323.939 119.414, 318.089 114.518 C 316.763 113.408, 316.014 113.082, 316.425 113.794 M 375.079 119.193 C 375.036 120.125, 374.043 121.557, 372.874 122.376 L 370.748 123.865 372.741 126.398 C 373.838 127.792, 375.020 128.646, 375.369 128.297 C 375.719 127.948, 375.259 126.838, 374.347 125.831 C 372.802 124.124, 372.809 123.868, 374.448 122.058 C 375.414 120.990, 375.970 119.527, 375.682 118.808 C 375.332 117.934, 375.132 118.062, 375.079 119.193 M 378.667 121.579 C 376.216 124.945, 377.851 127.354, 381.439 125.661 C 383.670 124.608, 383.727 124.373, 382.381 121.770 C 380.668 118.458, 380.931 118.471, 378.667 121.579 M 387.510 124.151 C 387.918 125.224, 387.295 126.439, 385.731 127.619 C 383.100 129.603, 383.149 130.006, 387.699 144 C 391.835 156.724, 392.117 158.751, 392.514 178.719 C 392.831 194.661, 393.253 199.589, 394.508 202.016 C 395.469 203.873, 396.701 211.124, 397.616 220.297 C 398.529 229.454, 400.096 238.681, 401.557 243.500 C 402.998 248.252, 404.423 256.572, 405.066 263.991 C 405.661 270.861, 406.382 276.711, 406.667 276.991 C 407.601 277.907, 405.866 256.781, 403.957 244 C 402.931 237.125, 401.820 225.650, 401.488 218.500 C 401.157 211.350, 400.480 202.575, 399.983 199 C 394.999 163.090, 394.629 157.646, 397.029 155.474 C 398.923 153.760, 399.084 153.765, 401.142 155.595 C 403.256 157.476, 403.268 157.474, 402.123 155.500 C 401.485 154.400, 400.363 151.700, 399.631 149.500 C 398.898 147.300, 397.718 145.500, 397.008 145.500 C 394.494 145.500, 393.439 142.277, 395.286 140.236 C 396.904 138.448, 396.784 138.011, 392.865 131.427 C 388.539 124.160, 386.415 121.275, 387.510 124.151 M 366.704 128.109 C 368.022 130.751, 368.010 131.336, 366.591 133.501 C 364.390 136.861, 364.524 137.095, 368.500 136.827 C 372.319 136.570, 372.466 136.219, 370.991 130.909 C 370.378 128.701, 369.076 126.900, 367.610 126.232 C 365.242 125.153, 365.236 125.165, 366.704 128.109 M 331.959 128.450 C 332.621 129.248, 335.489 131.265, 338.331 132.933 C 341.174 134.601, 344.929 137.130, 346.675 138.553 L 349.849 141.140 349.256 138.820 C 348.527 135.970, 344.034 129, 342.926 129 C 342.482 129, 341.842 129.447, 341.505 129.993 C 341.129 130.600, 339.375 130.211, 336.985 128.993 C 332.230 126.567, 330.215 126.349, 331.959 128.450 M 316 128.852 C 316 129.320, 317.313 131.077, 318.918 132.756 C 321.438 135.394, 321.761 136.360, 321.293 139.851 C 320.822 143.364, 321.225 144.539, 324.376 148.830 C 328.527 154.485, 328.578 154.704, 326.345 157.171 C 324.936 158.728, 324.913 159, 326.190 159 C 327.015 159, 328.505 159.900, 329.500 161 C 333.086 164.963, 334.535 161.272, 331.319 156.364 C 330.115 154.527, 329.921 153.349, 330.635 152.218 C 331.323 151.126, 331.162 148.951, 330.115 145.190 C 328.641 139.892, 328.659 139.694, 330.781 137.976 L 332.962 136.210 329.731 134.755 C 327.954 133.955, 325.052 132.734, 323.283 132.042 C 321.514 131.351, 319.546 130.158, 318.911 129.392 C 317.624 127.842, 316 127.540, 316 128.852 M 354 133.833 C 354 134.292, 355.548 136.429, 357.439 138.583 C 359.990 141.489, 360.742 141.948, 360.352 140.363 C 360.063 139.187, 360.315 137.923, 360.913 137.554 C 362.650 136.480, 362.188 135.407, 359.453 134.161 C 356.469 132.801, 354 132.653, 354 133.833 M 353.682 140.891 C 353.987 142.057, 353.711 143.643, 353.070 144.415 C 351.631 146.149, 355.162 149, 358.748 149 C 360.941 149, 360.983 148.868, 359.621 146.250 C 358.834 144.738, 357.051 142.436, 355.659 141.136 C 353.208 138.846, 353.145 138.839, 353.682 140.891 M 364.971 141.897 C 365.457 142.779, 367.013 145.050, 368.428 146.944 L 371 150.389 370.985 146.944 C 370.965 142.588, 370.171 141.422, 366.793 140.796 C 364.539 140.378, 364.235 140.562, 364.971 141.897 M 333.630 143.750 C 333.997 145.262, 334.618 147.394, 335.009 148.488 C 335.400 149.581, 335.240 151.243, 334.654 152.182 C 333.845 153.478, 333.998 154.341, 335.294 155.773 C 336.232 156.809, 337 158.505, 337 159.541 C 337 160.577, 338.238 162.425, 339.750 163.648 L 342.500 165.871 340.236 168.171 C 338.341 170.097, 337.689 170.270, 336.236 169.234 C 335.281 168.553, 333.582 167.593, 332.459 167.102 C 331.336 166.610, 329.819 165.486, 329.086 164.604 C 328.353 163.720, 326.261 163, 324.428 163 C 321.146 163, 321.084 163.085, 319.877 169.219 C 318.225 177.619, 315.466 180.429, 309.696 179.589 C 307.388 179.254, 303.130 178.871, 300.233 178.740 L 294.967 178.500 295.094 183.500 C 295.333 192.868, 293.111 195.713, 286.988 193.878 C 283.898 192.953, 282.658 192.942, 281.768 193.832 C 279.439 196.161, 275.780 195.095, 271.981 190.980 C 267.205 185.806, 265 186.350, 265 192.703 C 265 195.171, 264.260 198.444, 263.356 199.975 C 261.720 202.744, 261.734 202.779, 266.238 207.129 C 270.563 211.306, 273 217.274, 273 223.687 C 273 224.561, 274.772 227.198, 276.937 229.548 C 279.102 231.897, 281.356 235.607, 281.944 237.793 C 282.533 239.979, 283.686 242.325, 284.507 243.006 C 285.328 243.687, 286 244.768, 286 245.407 C 286 246.046, 288.436 248.974, 291.413 251.914 C 295.265 255.718, 297.014 258.304, 297.477 260.880 C 298.309 265.507, 301.468 271.747, 304.725 275.196 C 308.055 278.722, 307.371 288.225, 303.346 294.372 C 301.154 297.720, 300.911 298.872, 301.556 302.872 C 301.967 305.418, 302.204 308.923, 302.082 310.662 C 301.783 314.957, 304.172 316.244, 308.831 314.297 C 313.486 312.352, 316.099 313.606, 319.506 319.421 C 321.408 322.666, 322.068 325.016, 321.831 327.701 C 321.557 330.799, 321.847 331.516, 323.500 331.828 C 326.630 332.420, 329.192 335.215, 328.746 337.551 C 328.411 339.302, 328.742 339.581, 330.714 339.204 C 332.879 338.790, 332.951 338.603, 331.542 337.047 C 330.694 336.109, 330 334.461, 330 333.383 C 330 332.305, 329.100 329.658, 328 327.500 C 326.900 325.342, 326 322.577, 326 321.354 C 326 317.953, 324.146 313.787, 321.312 310.815 C 317.504 306.823, 318.725 303.821, 327.784 294.908 C 332.028 290.733, 336.580 285.855, 337.901 284.068 C 339.221 282.282, 341.254 280.386, 342.419 279.855 C 346.039 278.205, 348.824 272.972, 348.282 268.838 C 347.631 263.873, 351.496 260.833, 355.179 263.413 C 362.570 268.589, 367.197 260.343, 360.818 253.364 C 357.236 249.445, 359.730 242.575, 365 241.846 C 367.365 241.519, 367.487 241.196, 367.252 235.871 C 367.074 231.852, 367.432 229.887, 368.502 228.999 C 369.326 228.315, 370 226.530, 370 225.033 C 370 221.583, 373.090 218.490, 374.814 220.214 C 376.335 221.735, 376.440 215.220, 375.006 208.299 C 374.071 203.790, 372.998 195.621, 371.024 177.983 L 370.183 170.466 362.841 162.813 C 354.707 154.333, 337.536 141, 334.749 141 C 333.304 141, 333.090 141.527, 333.630 143.750 M 365.034 149.064 C 366.652 152.086, 364.668 154.084, 360.813 153.313 L 357.801 152.710 360.151 155.163 C 361.443 156.512, 363.924 159.277, 365.665 161.308 C 367.405 163.339, 369.261 165, 369.790 165 C 371.487 165, 372.140 158.816, 370.624 157.087 C 369.859 156.214, 368.271 153.588, 367.096 151.250 C 365.921 148.912, 364.728 147, 364.444 147 C 364.161 147, 364.427 147.929, 365.034 149.064 M 379.558 159.821 C 379.152 161.098, 379.160 164.923, 379.575 168.321 C 380.178 173.248, 380.479 173.993, 381.066 172 C 382.044 168.673, 382.050 161.988, 381.078 159.500 C 380.327 157.579, 380.267 157.592, 379.558 159.821 M 399.623 163.500 C 400.215 170.482, 402.614 189.498, 404.138 199.292 C 404.943 204.468, 405.486 205.841, 406.421 205.065 C 407.176 204.439, 408.004 204.405, 408.574 204.976 C 411.191 207.601, 408.215 182.420, 404.640 171.696 C 399.883 157.424, 398.982 155.953, 399.623 163.500 M 245 166.826 C 245 168.537, 244.027 170.566, 242.531 171.971 C 239.354 174.955, 240.042 175.938, 244.856 175.292 C 246.977 175.008, 249.588 175.244, 250.659 175.818 C 254.253 177.741, 255.616 173.575, 252.191 171.136 C 250.671 170.054, 248.806 168.006, 248.045 166.584 C 246.236 163.204, 245 163.302, 245 166.826 M 294.237 171.750 C 293.295 174.454, 293.352 174.505, 297.639 174.790 C 302.632 175.122, 303.135 174.038, 299.365 171.073 C 295.942 168.380, 295.386 168.453, 294.237 171.750 M 272.282 175.920 C 271.265 177.549, 271.501 177.850, 274.222 178.394 C 278.228 179.196, 278.491 178.810, 275.716 176.203 C 273.524 174.144, 273.398 174.133, 272.282 175.920 M 185.802 176.869 C 179.526 179.405, 176.576 183.030, 173.547 191.926 C 172.157 196.011, 171.127 199.386, 171.259 199.426 C 192.489 205.945, 198.002 238.616, 179.227 246.646 C 175.549 248.219, 173.884 247.663, 170.076 243.592 C 165.965 239.197, 165.699 240.084, 166.280 256.250 C 166.820 271.318, 168.336 281.815, 171.656 293.500 C 173.741 300.836, 173.398 300.393, 175.824 298.878 C 177.399 297.894, 178.675 297.872, 181.621 298.776 C 183.699 299.413, 185.560 299.773, 185.758 299.576 C 186.766 298.567, 182.680 291.970, 178.614 288.042 C 173.319 282.926, 173.116 281.760, 176.387 275.251 C 190.068 248.019, 192.316 241.710, 193.593 226.957 C 194.651 214.742, 200.618 204.185, 205.737 205.470 C 209.020 206.294, 217.191 203.332, 220.849 199.991 C 226.079 195.214, 225.015 191.394, 216.774 185.361 C 203.167 175.399, 194.988 173.157, 185.802 176.869 M 258.964 178.933 C 259.533 179.996, 260.428 181.996, 260.954 183.379 C 261.869 185.785, 262.034 185.830, 264.836 184.432 C 268.471 182.618, 270.185 183.243, 273.498 187.587 C 276.203 191.133, 278.723 191.814, 281.867 189.851 C 283.232 188.998, 284.530 188.989, 286.899 189.815 C 289.790 190.823, 290.170 190.719, 290.929 188.714 C 291.977 185.944, 291.494 185.345, 289.527 186.978 C 288.267 188.023, 287.413 187.790, 284.569 185.620 C 282.679 184.179, 280.091 182.995, 278.817 182.988 C 275.585 182.972, 267.089 180.550, 263.500 178.623 C 259.299 176.367, 257.651 176.480, 258.964 178.933 M 223.871 187.476 C 226.191 189.993, 227.998 192.951, 227.996 194.228 C 227.991 197.148, 224.502 202.885, 222.244 203.686 C 221.285 204.026, 219.825 204.878, 219 205.580 C 216.459 207.741, 208.216 210.092, 205.539 209.420 C 203.250 208.846, 202.769 209.298, 200.514 214.143 C 197.426 220.774, 196.942 226.657, 199.949 221 C 205.811 209.970, 224.218 206.528, 231.440 215.111 C 235.370 219.782, 233.955 222.361, 226.014 225 C 222.465 226.179, 221.428 227.034, 221.165 229 C 220.895 231.021, 221.077 231.260, 222.115 230.250 C 222.822 229.563, 224.321 229, 225.447 229 C 226.628 229, 229.463 226.858, 232.144 223.943 L 236.793 218.886 240.646 220.530 C 248.861 224.034, 248.907 224.042, 249.909 222.169 C 250.586 220.905, 250.053 218.138, 248.037 212.451 C 245.533 205.390, 244.337 203.601, 237.349 196.470 C 233.021 192.053, 227.289 187.215, 224.611 185.718 L 219.742 182.997 223.871 187.476 M 241.174 189.871 C 240.138 190.528, 240.400 191.344, 242.374 193.606 C 244.534 196.081, 244.822 196.191, 244.364 194.367 C 243.990 192.879, 244.526 191.745, 246.136 190.617 L 248.445 189 245.473 189.015 C 243.838 189.024, 241.903 189.409, 241.174 189.871 M 383.009 194.489 C 382.329 195.308, 381.316 195.695, 380.757 195.350 C 380.196 195.003, 379.948 195.344, 380.204 196.111 C 380.458 196.875, 381.079 197.507, 381.583 197.515 C 382.087 197.524, 383.063 197.888, 383.750 198.324 C 384.651 198.896, 385 198.263, 385 196.059 C 385 192.591, 384.749 192.393, 383.009 194.489 M 248 194.343 C 248 194.532, 250.175 196.521, 252.833 198.762 L 257.665 202.837 259.430 199.849 C 261.170 196.903, 261.167 196.879, 259.181 198.119 C 257.454 199.198, 256.590 198.994, 253.105 196.688 C 249.254 194.140, 248 193.564, 248 194.343 M 167 204.376 C 167 207.015, 167.498 208.217, 168.750 208.604 C 172.168 209.660, 173.496 210.786, 173.206 212.383 C 172.799 214.626, 174.265 214.407, 175.768 212 C 177.380 209.419, 178.791 209.476, 181.863 212.250 L 184.355 214.500 182.039 211.151 C 179.629 207.666, 174.534 204.010, 172.079 204.004 C 171.297 204.002, 169.835 203.255, 168.829 202.345 C 167.089 200.770, 167 200.868, 167 204.376 M 249 203.325 C 249 203.732, 253.553 216.920, 254.460 219.141 C 254.897 220.211, 254.071 221.988, 252.088 224.247 C 248.821 227.968, 248.958 229, 252.718 229 C 254.493 229, 255.472 228.115, 256.551 225.532 C 259.130 219.360, 258.449 214.953, 253.945 208.663 C 250.379 203.684, 249 202.195, 249 203.325 M 391.189 206.500 C 391.162 208.150, 391.527 210.400, 392 211.500 L 392.859 213.500 392.811 211.500 C 392.785 210.400, 392.420 208.150, 392 206.500 L 391.237 203.500 391.189 206.500 M 284.251 206.149 C 282.834 207.566, 284.610 211.380, 288.287 214.813 C 291.306 217.633, 298.600 217.611, 300.377 214.776 C 302.258 211.773, 294.721 205, 289.497 205 C 287.244 205, 284.883 205.517, 284.251 206.149 M 265.072 210.921 C 267.969 216.856, 264.382 232.981, 259.271 237.002 C 256.819 238.930, 256.790 238.927, 251.655 236.348 L 246.500 233.760 248.844 236.295 C 252.774 240.544, 249.393 246.411, 244.341 244.110 C 240.985 242.580, 240.729 242.954, 243.116 245.898 L 245.060 248.296 249.616 245.024 C 254.048 241.841, 254.389 241.766, 262.252 242.221 C 269.800 242.658, 270.519 242.898, 273.166 245.860 C 277.587 250.808, 277.116 255.867, 270.993 269.209 C 268.134 275.437, 264.657 285.350, 262.891 292.309 C 261.189 299.014, 258.750 306.127, 257.472 308.116 C 255.441 311.277, 255.310 312.043, 256.426 314.195 C 257.129 315.550, 257.504 318.020, 257.260 319.684 C 256.846 322.499, 257.095 322.781, 260.829 323.729 C 264.751 324.724, 264.838 324.689, 264.671 322.197 C 264.440 318.757, 272.228 313.114, 274.548 315.040 C 275.358 315.712, 278.143 316.659, 280.737 317.143 C 287.411 318.390, 288.196 319.485, 287.381 326.417 C 286.533 333.627, 284.559 336.084, 273.726 343.405 C 266.207 348.487, 255.936 352.809, 250.620 353.127 C 249.454 353.197, 251.425 353.634, 255 354.099 C 258.575 354.564, 262.850 354.579, 264.500 354.133 C 266.150 353.687, 269.209 353.526, 271.297 353.776 C 275.884 354.324, 302.257 349.738, 313 346.524 C 315.475 345.783, 318.722 344.908, 320.215 344.579 C 321.924 344.201, 322.740 343.487, 322.419 342.650 C 322.139 341.919, 322.604 340.743, 323.454 340.038 C 325.169 338.615, 325.543 336, 324.031 336 C 323.499 336, 323.301 336.621, 323.592 337.380 C 324.270 339.145, 319.419 343, 316.520 343 C 314.390 343, 311 340.236, 311 338.500 C 311 338.037, 311.745 336.835, 312.655 335.829 C 314.224 334.095, 314.150 334, 311.228 334 C 305.378 334, 302.500 327.801, 305.583 321.840 C 306.453 320.157, 306.705 319.064, 306.142 319.412 C 304.050 320.705, 297.857 313.923, 298.089 310.591 C 298.206 308.891, 297.967 305.418, 297.556 302.872 C 296.911 298.872, 297.154 297.720, 299.346 294.372 C 303.314 288.313, 304.048 278.746, 300.817 275.196 C 297.094 271.104, 295.190 267.641, 293.945 262.697 C 293.135 259.479, 291.284 256.628, 287.408 252.625 C 284.433 249.555, 282 246.413, 282 245.644 C 282 244.874, 281.328 243.687, 280.507 243.006 C 279.686 242.325, 278.533 239.979, 277.944 237.793 C 277.356 235.607, 275.102 231.897, 272.937 229.548 C 270.772 227.198, 269 224.561, 269 223.687 C 269 220.232, 266.799 212.118, 265.386 210.360 C 264.004 208.642, 263.980 208.685, 265.072 210.921 M 289 211 C 289.768 212.435, 291.094 213, 293.690 213 C 297.247 213, 297.278 212.965, 295.500 211 C 294.488 209.882, 292.420 209, 290.810 209 C 288.240 209, 288.045 209.215, 289 211 M 408.030 214.583 C 408.008 217.532, 408.410 218.667, 409.477 218.667 C 410.557 218.667, 410.790 217.972, 410.342 216.083 C 409.146 211.034, 408.062 210.331, 408.030 214.583 M 159.497 216.743 C 160.065 224.934, 161.211 227.487, 162.080 222.500 C 162.598 219.531, 162.308 217.598, 160.955 215 L 159.133 211.500 159.497 216.743 M 212.500 215.523 C 209.750 216.287, 207.172 216.932, 206.770 216.956 C 205.905 217.008, 202.556 223.446, 201.546 227 C 200.862 229.407, 200.927 229.389, 203.318 226.505 C 207.006 222.059, 210 224.884, 210 232.810 C 210 238.075, 210.078 238.239, 211.829 236.655 C 212.835 235.745, 214.179 235, 214.817 235 C 215.455 235, 216.279 233.107, 216.649 230.794 C 217.432 225.897, 220.672 222.216, 224.952 221.360 C 230.889 220.172, 230.961 217.170, 225.101 215.164 C 220.867 213.714, 218.804 213.773, 212.500 215.523 M 417.485 222.307 C 418.291 225.883, 421 239.091, 422.106 244.838 C 422.823 248.559, 422.811 251.104, 422.067 253.238 C 420.186 258.635, 420.863 268.989, 423.918 281.525 C 428.758 301.385, 432.820 322.596, 435.020 339.500 C 436.165 348.300, 438.176 362.025, 439.488 370 C 440.800 377.975, 442.167 387.200, 442.526 390.500 C 442.885 393.800, 443.674 398.300, 444.279 400.500 L 445.379 404.500 446.007 399.562 C 446.351 396.846, 446.072 391.446, 445.385 387.562 C 444.698 383.678, 443.393 373.975, 442.485 366 C 440.389 347.586, 439.501 341.423, 437.517 331.500 C 436.638 327.100, 435.506 319.900, 435.003 315.500 C 434.162 308.141, 432.351 298.951, 429.955 289.884 C 427.335 279.967, 429.803 276.132, 435.556 281.183 L 439.290 284.462 437.561 281.118 C 434.145 274.513, 432.930 267.083, 433.098 253.837 C 433.264 240.793, 432.407 237.246, 429.367 238.413 C 427.435 239.154, 425.005 235.077, 424.965 231.027 C 424.920 226.545, 423.115 223.291, 419.686 221.512 C 417.123 220.182, 417.015 220.222, 417.485 222.307 M 260 226.728 C 260 227.311, 258.716 229.163, 257.146 230.843 C 255.216 232.910, 254.699 234.054, 255.549 234.380 C 256.239 234.645, 257.113 234.556, 257.490 234.181 C 258.676 233.004, 261.051 226.717, 260.513 226.180 C 260.231 225.898, 260 226.144, 260 226.728 M 388.694 232.284 C 388.868 235.703, 389.444 242.775, 389.974 248 C 392.689 274.752, 392.265 290.518, 388.887 288.430 C 388.399 288.129, 388 288.282, 388 288.772 C 388 289.817, 392.786 292.548, 393.451 291.883 C 393.700 291.633, 393.459 281.612, 392.914 269.613 C 392.172 253.262, 392.215 247.446, 393.084 246.398 C 393.969 245.332, 393.946 244.640, 392.988 243.485 C 392.297 242.652, 391.506 238.833, 391.232 234.997 C 390.579 225.867, 388.240 223.368, 388.694 232.284 M 372.611 228.878 C 371.265 230.364, 371.038 231.806, 371.544 235.634 C 372.265 241.090, 369.615 246, 365.946 246 C 362.802 246, 362.292 250.617, 365.105 253.612 C 367.974 256.665, 368.246 262.449, 365.704 266.329 C 363.687 269.407, 358.694 269.992, 355.441 267.532 C 352.425 265.251, 351.691 265.709, 352.305 269.491 C 352.938 273.392, 347.103 282.198, 343.029 283.491 C 341.901 283.849, 340.314 285.426, 339.502 286.996 C 338.691 288.565, 334.890 292.658, 331.056 296.090 C 322.723 303.551, 321.469 306.786, 325.337 310.841 C 328.149 313.789, 330 317.963, 330 321.354 C 330 322.577, 330.900 325.342, 332 327.500 C 333.100 329.658, 334 332.285, 334 333.339 C 334 334.992, 334.517 335.175, 337.750 334.668 C 339.813 334.344, 345.772 333.516, 350.993 332.827 C 359.379 331.721, 360.760 331.250, 362.832 328.788 C 366.093 324.912, 371.976 325.651, 375.945 330.434 C 376.660 331.295, 377.639 332, 378.122 332 C 378.608 332, 378.888 320.316, 378.749 305.750 C 378.509 280.412, 378.420 279.365, 376.209 275.624 C 374.143 272.128, 374.068 271.582, 375.444 270.062 C 376.768 268.599, 376.855 265.699, 376.103 248.140 C 375.626 237.010, 375.031 227.697, 374.779 227.445 C 374.527 227.194, 373.551 227.838, 372.611 228.878 M 204.110 232.440 C 203.345 234.606, 202.654 240.106, 202.574 244.661 C 202.442 252.147, 202.174 253.211, 199.784 255.722 C 198.329 257.250, 196.216 260.975, 195.088 264 C 193.961 267.025, 190.979 271.851, 188.463 274.725 L 183.888 279.951 187.970 278.511 C 190.215 277.719, 192.827 276.635, 193.776 276.102 C 195.064 275.378, 196.068 275.665, 197.746 277.237 C 200.712 280.016, 201.961 278.652, 199.171 275.682 C 196.471 272.808, 196.456 271.802, 199.077 269.431 C 201.050 267.645, 201.300 267.636, 204.107 269.247 L 207.061 270.942 206.426 265.721 C 206.076 262.849, 205.459 257.891, 205.054 254.702 C 204.649 251.513, 204.717 246.357, 205.205 243.245 C 205.693 240.132, 205.959 235.542, 205.796 233.043 L 205.500 228.500 204.110 232.440 M 409.495 232.463 C 410.413 237.980, 412 256.126, 412 261.106 C 412 263.798, 412.443 266, 412.985 266 C 413.894 266, 413.627 258.143, 412.465 250.694 C 412.224 249.150, 412.706 246.852, 413.535 245.587 C 415.735 242.229, 413.533 229.084, 410.804 229.290 C 409.356 229.399, 409.092 230.041, 409.495 232.463 M 168.672 233.598 L 166.193 236.272 170.698 240.171 C 174.060 243.081, 175.748 243.908, 177.351 243.431 C 183.828 241.504, 187.176 236.148, 181.490 236.811 C 179.003 237.102, 177.479 236.482, 174.716 234.055 L 171.151 230.925 168.672 233.598 M 222.390 234.427 C 221.460 236.849, 222.418 240.464, 224.072 240.779 C 225.641 241.078, 228 237.279, 228 234.453 C 228 232.545, 223.120 232.522, 222.390 234.427 M 239.746 236.865 C 239.379 238.267, 239.833 238.942, 241.368 239.277 C 242.541 239.533, 244.287 240.074, 245.250 240.478 C 248.221 241.727, 247.300 238.472, 244.250 236.943 C 242.738 236.184, 241.220 235.419, 240.877 235.241 C 240.535 235.064, 240.026 235.794, 239.746 236.865 M 215.500 238.614 C 212.563 240.786, 212.983 270.912, 216.047 277.839 C 218.674 283.777, 219.407 288.868, 218.242 293.087 C 217.068 297.339, 218.092 300.359, 221.457 302.564 C 223.910 304.171, 224.173 304.141, 227.536 301.872 C 229.469 300.567, 231.298 298.548, 231.600 297.385 C 231.902 296.222, 234.140 293.316, 236.575 290.927 C 239.009 288.538, 241 286.007, 241 285.302 C 241 284.598, 243.250 281.537, 246 278.500 C 248.750 275.463, 251 272.508, 251 271.933 C 251 271.358, 252.350 268.167, 254 264.841 C 256.472 259.859, 257.937 254, 256.711 254 C 256.553 254, 254.665 254.896, 252.518 255.991 C 244.300 260.181, 237.118 259.798, 231.508 254.873 C 228.263 252.023, 228.095 251.570, 228.659 247.173 C 229.155 243.310, 229.029 242.717, 227.930 243.750 C 225.167 246.347, 218.514 243.253, 217.817 239.048 C 217.530 237.314, 217.313 237.274, 215.500 238.614 M 195.370 251.841 L 193.239 258.416 196.120 255.192 C 198.918 252.060, 199.734 248.662, 198.235 246.383 C 197.821 245.754, 196.570 248.135, 195.370 251.841 M 238 248.294 C 238 250.319, 238.614 251.116, 240.547 251.601 C 244.249 252.530, 244.364 251.723, 240.990 248.490 L 238 245.626 238 248.294 M 416.567 247.083 C 416.293 247.862, 416.435 250.075, 416.884 252 L 417.699 255.500 418.475 251.675 C 419.260 247.803, 417.665 243.963, 416.567 247.083 M 232.741 248.332 C 231.602 251.146, 231.818 251.833, 234.250 253.129 C 236.156 254.144, 236.324 254.111, 235.346 252.914 C 234.711 252.136, 234.032 250.375, 233.837 249 C 233.530 246.842, 233.381 246.750, 232.741 248.332 M 269.502 249.003 C 271.085 250.751, 271.165 251.508, 270.131 254.956 C 267.989 262.106, 259.236 280.931, 256.592 284.073 C 255.167 285.767, 254 288.259, 254 289.610 C 254 292.946, 249.692 301.238, 244.186 308.500 C 240.941 312.779, 239.392 315.934, 238.784 319.500 C 236.636 332.101, 231.655 341, 226.749 341 C 224.473 341, 219 336.398, 219 334.484 C 219 333.857, 217.604 331.235, 215.898 328.659 C 213.976 325.758, 213.041 323.336, 213.441 322.294 C 213.987 320.872, 213.760 320.907, 211.975 322.523 C 209.214 325.022, 205.410 323.124, 202.545 317.819 C 200.327 313.710, 201.428 311.036, 205.372 310.958 C 209.405 310.879, 200.782 307.086, 196.500 307.056 C 189.656 307.007, 187.596 307.896, 189.550 310.055 C 190.514 311.121, 190.929 312.650, 190.564 313.798 C 190.063 315.376, 190.550 315.860, 193.158 316.382 C 199.155 317.581, 202.149 322.972, 198.500 326 C 196.094 327.997, 196.626 328.693, 203.750 332.862 C 207.463 335.035, 211.616 338.006, 212.979 339.465 L 215.458 342.117 213.377 348.058 C 212.232 351.326, 211.629 354, 212.038 354 C 212.446 354, 216.992 353.154, 222.140 352.120 C 227.288 351.085, 236.320 349.947, 242.211 349.591 C 256.003 348.755, 263.464 346.342, 273.755 339.386 C 282.221 333.664, 282.740 332.905, 283.234 325.538 C 283.493 321.685, 283.399 321.560, 279.802 320.954 C 277.769 320.612, 275.436 319.777, 274.619 319.099 C 272.307 317.180, 267.824 320.449, 268.589 323.497 C 269.500 327.127, 265.971 329.023, 260.698 327.737 C 254.664 326.266, 252.747 324.289, 253.243 320.048 C 253.467 318.127, 253.087 315.470, 252.399 314.144 C 251.316 312.056, 251.460 311.248, 253.472 308.116 C 254.750 306.127, 257.189 299.014, 258.891 292.309 C 260.657 285.350, 264.134 275.437, 266.993 269.209 C 272.927 256.279, 273.866 247, 269.238 247 C 267.929 247, 267.970 247.309, 269.502 249.003 M 252.861 251.073 L 250.500 253.146 253.774 251.343 C 260.872 247.435, 263.128 254.506, 258.048 264.744 C 256.372 268.123, 255 271.358, 255 271.933 C 255 272.508, 252.750 275.463, 250 278.500 C 247.250 281.537, 245 284.598, 245 285.302 C 245 286.007, 243.009 288.538, 240.575 290.927 C 238.140 293.316, 235.883 296.330, 235.558 297.625 C 234.989 299.891, 225.840 308, 223.852 308 C 221.104 308, 213.689 299.230, 213.778 296.087 C 213.845 293.737, 213.549 293.115, 212.685 293.794 C 212.033 294.305, 210.177 295.041, 208.561 295.429 C 206.945 295.816, 204.318 297.062, 202.723 298.197 C 201.120 299.338, 198.119 300.306, 196.009 300.361 C 193.770 300.420, 191.800 301.089, 191.242 301.981 C 190.433 303.274, 190.993 303.450, 195.014 303.162 C 198.322 302.926, 200.933 303.435, 203.734 304.864 C 205.932 305.986, 209.858 307.439, 212.457 308.094 C 217.227 309.295, 223 313.236, 223 315.291 C 223 315.904, 221.545 317.906, 219.766 319.741 C 216.579 323.030, 216.557 323.116, 218.253 325.789 C 219.199 327.280, 220.900 330.413, 222.033 332.750 C 226.300 341.553, 231.400 336.705, 234.428 320.969 C 235.409 315.870, 236.677 313.129, 240.210 308.469 C 245.659 301.281, 250 292.946, 250 289.671 C 250 288.353, 251.294 285.646, 252.876 283.656 C 255.847 279.918, 265.588 258.308, 266.613 253.183 C 267.101 250.745, 266.820 250.184, 264.847 249.656 C 260.143 248.396, 255.250 248.975, 252.861 251.073 M 279.740 256.750 C 278.145 258.527, 276.540 264.881, 276.778 268.471 C 276.850 269.556, 276.195 271.232, 275.323 272.196 C 273.871 273.800, 273.888 274.181, 275.524 276.677 L 277.311 279.405 280.512 275.702 C 282.272 273.666, 284.607 272, 285.701 272 C 291.276 272, 291.888 264.746, 286.830 258.610 C 283.503 254.574, 282.037 254.190, 279.740 256.750 M 281.224 263.250 C 280.114 268.532, 280.236 268.766, 283.837 268.237 C 286.955 267.780, 287.156 266.241, 284.748 261.250 C 283.155 257.950, 282.228 258.477, 281.224 263.250 M 189.143 265.643 C 187.914 268.172, 187.149 270.482, 187.442 270.775 C 187.736 271.069, 188.919 269.177, 190.071 266.571 C 192.796 260.413, 192.047 259.664, 189.143 265.643 M 202.975 274.417 C 205.298 276.943, 205.357 277.273, 203.941 279.797 C 202.090 283.093, 199.464 283.730, 196.982 281.483 C 195.225 279.894, 194.837 279.897, 190.556 281.532 C 185.080 283.623, 185.028 283.939, 189.518 287.882 C 194.317 292.095, 196.981 292.548, 204.098 290.363 L 210.162 288.500 209.654 284.584 C 209.115 280.428, 204.510 272.972, 202 272.192 C 201.110 271.915, 201.507 272.820, 202.975 274.417 M 320.500 282.189 C 319.400 282.809, 317.022 284.595, 315.215 286.158 C 313.409 287.721, 311.341 289, 310.620 289 C 308.874 289, 306 292.259, 306 294.240 C 306 296.499, 311.708 301, 314.574 301 C 321.156 301, 329.347 287.250, 325.377 282.865 C 323.427 280.710, 323.183 280.676, 320.500 282.189 M 433.070 285.250 C 433.203 289.510, 434.410 291.416, 435.864 289.664 C 436.903 288.412, 436.828 287.667, 435.452 285.567 C 433.388 282.418, 432.980 282.363, 433.070 285.250 M 318.909 287.491 C 317.034 288.870, 314.265 290.786, 312.756 291.749 C 309.278 293.969, 309.250 295.774, 312.681 296.635 C 316.785 297.665, 320.083 295.228, 321.605 290.040 C 323.227 284.510, 323.112 284.402, 318.909 287.491 M 405.416 298.731 C 405.811 303.255, 407.027 309.329, 408.119 312.228 L 410.105 317.500 409.559 310.500 C 409.260 306.650, 409.011 300.837, 409.007 297.583 C 409.003 294.329, 408.704 291.963, 408.342 292.325 C 407.980 292.687, 407.012 292.425, 406.191 291.744 C 404.879 290.655, 404.785 291.500, 405.416 298.731 M 388.843 298.503 L 388.493 302.901 391.280 300.231 C 393.545 298.062, 394.401 297.769, 395.844 298.671 C 397.415 299.651, 397.573 299.451, 397.206 296.947 C 396.839 294.446, 396.568 294.253, 394.895 295.298 C 393.435 296.209, 392.563 296.208, 391.097 295.292 C 389.347 294.200, 389.165 294.460, 388.843 298.503 M 418.060 305.250 C 418.092 307.587, 418.529 311.750, 419.029 314.500 C 419.530 317.250, 420.416 323.100, 420.998 327.500 C 422.174 336.390, 426.912 359.219, 427.743 360 C 428.036 360.275, 427.984 358.475, 427.629 356 C 427.274 353.525, 426.527 347.450, 425.971 342.500 C 425.415 337.550, 424.330 330.350, 423.560 326.500 C 422.791 322.650, 421.394 315.337, 420.456 310.250 C 418.582 300.079, 417.969 298.800, 418.060 305.250 M 174.651 303.833 C 173.094 305.553, 173.238 306.255, 176.996 315.248 C 179.198 320.519, 181 325.570, 181 326.474 C 181 327.378, 181.470 327.828, 182.044 327.473 C 182.618 327.118, 184.249 327.588, 185.667 328.518 C 187.086 329.447, 187.922 329.682, 187.525 329.041 C 186.682 327.676, 189.694 324, 191.655 324 C 195.194 324, 192.338 322.154, 186.750 320.829 C 181.510 319.587, 180.276 318.875, 179.113 316.424 C 178.351 314.816, 177.113 312.226, 176.363 310.669 C 174.682 307.177, 174.629 304.771, 176.200 303.200 C 176.860 302.540, 177.155 302, 176.855 302 C 176.555 302, 175.563 302.825, 174.651 303.833 M 391.935 304.122 C 390.995 305.879, 391.161 306.605, 392.900 308.344 L 395 310.444 395 306.222 C 395 301.635, 393.731 300.766, 391.935 304.122 M 437.338 304.042 C 437.665 305.440, 438.237 309.162, 438.607 312.314 C 439.237 317.677, 439.374 317.912, 440.730 315.975 C 441.876 314.339, 442.476 314.150, 443.590 315.075 C 444.752 316.039, 445 315.701, 445 313.156 C 445 309.242, 441.977 302.795, 440.422 303.391 C 439.774 303.640, 438.681 303.316, 437.993 302.672 C 437.005 301.747, 436.867 302.036, 437.338 304.042 M 388.434 311.875 C 388.745 313.731, 389 315.827, 389 316.531 C 389 317.270, 389.758 317.615, 390.788 317.345 C 393.009 316.764, 398 320.555, 398 322.823 C 398 323.746, 396.204 326.465, 394.010 328.866 C 390.914 332.252, 390.154 333.766, 390.618 335.616 C 391.356 338.556, 391.715 338.574, 393.975 335.782 C 395.443 333.970, 396.042 333.790, 397.257 334.798 C 399.421 336.594, 400.219 331.512, 399.389 321.227 C 398.767 313.523, 398.618 313.100, 397.229 315.083 C 395.752 317.192, 395.700 317.171, 391.803 312.856 L 387.868 308.500 388.434 311.875 M 216.232 315 C 217.682 317.322, 219 317.611, 219 315.607 C 219 314.841, 218.288 313.941, 217.418 313.607 C 215.011 312.683, 214.881 312.836, 216.232 315 M 205.960 316.925 C 207.559 319.914, 209.835 320.594, 211.768 318.661 C 213.764 316.664, 213.467 316.359, 208.645 315.458 C 204.910 314.760, 204.826 314.806, 205.960 316.925 M 403.575 331.244 C 403.209 334.178, 403.286 337.599, 403.748 338.847 C 404.559 341.041, 404.641 341.054, 406.258 339.267 C 407.765 337.602, 407.792 336.897, 406.528 332.107 C 404.667 325.053, 404.360 324.963, 403.575 331.244 M 364.767 332.438 C 364.348 334.629, 364.716 334.939, 368.401 335.507 C 374.420 336.436, 379.265 338.047, 381.250 339.781 C 382.870 341.196, 383 341.077, 383 338.180 C 383 335.295, 382.784 335.093, 380.236 335.603 C 378.135 336.023, 376.541 335.416, 373.598 333.078 C 368.807 329.270, 365.420 329.025, 364.767 332.438 M 184.559 334.250 C 185.954 338.770, 188.027 341.874, 190.090 342.528 C 195.576 344.270, 194.324 337.569, 188.523 334.146 C 183.984 331.468, 183.703 331.475, 184.559 334.250 M 446.534 335.154 C 446.915 336.889, 448.073 340.602, 449.108 343.404 C 451.398 349.609, 450.817 344.514, 448.349 336.750 C 446.644 331.386, 445.482 330.364, 446.534 335.154 M 195.132 335.583 C 198.210 339.200, 198.334 341.757, 195.562 344.529 C 192.298 347.793, 192.269 347.701, 197.006 349.120 C 201.687 350.522, 201.900 350.392, 202.670 345.643 C 203.376 341.294, 201.653 338.306, 196.868 335.583 C 193.549 333.694, 193.524 333.694, 195.132 335.583 M 205.275 338.982 C 207.372 341.976, 207.470 345.576, 205.553 349.250 C 204.221 351.804, 204.259 352, 206.084 352 C 208.225 352, 210.104 348.363, 210.352 343.737 C 210.467 341.595, 209.718 340.472, 207.025 338.746 L 203.549 336.518 205.275 338.982 M 371.230 344.537 C 373.080 348.345, 373.233 349.397, 372.181 351.082 C 370.962 353.034, 371.009 353.047, 373.914 351.544 C 375.557 350.695, 377.571 350, 378.391 350 C 383.131 350, 381.227 342.684, 376.086 341.144 C 369.178 339.074, 368.729 339.388, 371.230 344.537 M 358.726 341.722 C 362.549 342.197, 366.501 346.977, 365.677 350.129 C 365.281 351.642, 365.530 352.011, 366.655 351.579 C 367.485 351.261, 368.352 351, 368.582 351 C 369.679 351, 368.786 347.161, 367.011 344.250 C 365.191 341.265, 364.640 341.013, 360.265 341.160 C 356.658 341.281, 356.284 341.418, 358.726 341.722 M 444.325 347 C 444.640 350.025, 445.582 357.450, 446.417 363.500 C 447.252 369.550, 447.950 374.668, 447.967 374.872 C 447.985 375.077, 448.675 374.685, 449.500 374 C 451.860 372.041, 451.311 364.870, 447.904 353.149 C 444.296 340.735, 443.536 339.430, 444.325 347 M 393.490 346.016 C 393.144 346.575, 392.443 346.774, 391.931 346.457 C 391.419 346.141, 391 346.794, 391 347.910 C 391 349.234, 391.484 349.751, 392.396 349.401 C 393.164 349.107, 394.570 349.908, 395.519 351.183 C 396.758 352.845, 397.070 352.982, 396.623 351.668 C 396.280 350.661, 396 348.748, 396 347.418 C 396 344.952, 394.623 344.183, 393.490 346.016 M 408.702 350 C 409.629 358.212, 411.006 361.605, 410.325 354 C 410.005 350.425, 409.370 346.825, 408.912 346 C 408.445 345.156, 408.353 346.907, 408.702 350 M 346.753 347.153 C 347.439 347.839, 348 349.266, 348 350.325 C 348 351.974, 348.466 352.149, 351.250 351.548 C 353.038 351.161, 356.209 350.593, 358.297 350.285 C 361.082 349.873, 362.012 349.295, 361.786 348.112 C 361.539 346.820, 359.891 346.441, 353.493 346.203 C 347.116 345.967, 345.758 346.158, 346.753 347.153 M 404.015 352.083 C 404.024 354.512, 404.462 357.175, 404.990 358 C 405.631 359.002, 405.745 357.674, 405.334 354 C 404.567 347.129, 403.995 346.299, 404.015 352.083 M 323 352.679 C 319.850 353.192, 300.346 357.444, 288.500 360.201 C 276.451 363.005, 259.467 371.453, 254.037 377.344 C 241.935 390.473, 234.227 402.435, 232.512 410.750 C 231.482 415.740, 232.827 414.899, 245.312 402.750 C 254.817 393.501, 258.619 390.562, 266.687 386.226 C 277.179 380.586, 284.867 376.220, 292.312 371.672 C 294.858 370.117, 302.017 367.129, 308.221 365.034 C 320.215 360.982, 336.871 354.270, 338.450 352.853 C 339.389 352.010, 327.903 351.881, 323 352.679 M 391.995 356.250 C 391.992 357.488, 392.755 360.634, 393.690 363.242 L 395.389 367.983 397.544 365.958 C 400.448 363.230, 401.588 364.727, 402.936 373.034 C 405.070 386.190, 403.608 393.410, 399.500 390 C 397.647 388.462, 397.674 387.106, 399.066 412 C 400.371 435.335, 400.499 435.777, 406.099 436.190 C 411.673 436.602, 413.293 438.994, 410.217 442.270 C 407.331 445.341, 407.421 445.916, 410.750 445.688 C 413.140 445.525, 413.827 446.177, 416 450.672 C 418.561 455.971, 421.652 460, 423.155 460 C 424.681 460, 424.016 448.791, 421.553 433 C 421.338 431.625, 421.126 430.132, 421.081 429.683 C 421.037 429.233, 420.176 429.127, 419.168 429.447 C 418.061 429.798, 416.672 429.295, 415.660 428.176 C 414.087 426.439, 414.104 426.216, 415.929 424.564 C 416.999 423.596, 418.295 423.064, 418.809 423.382 C 421.198 424.859, 421.671 404.651, 419.438 396.500 L 418.068 391.500 418.532 400.142 C 418.924 407.454, 418.715 409.130, 417.178 411.029 L 415.360 413.273 413.283 410.633 C 411.870 408.836, 410.820 405.196, 409.999 399.246 C 406.390 373.105, 402.154 356.343, 399.422 357.391 C 398.710 357.665, 397.015 357.013, 395.656 355.944 C 392.496 353.458, 392.001 353.500, 391.995 356.250 M 264.500 358.089 C 262.850 358.593, 259.475 358.760, 257 358.461 L 252.500 357.918 256 359.917 C 257.925 361.017, 260.850 361.923, 262.500 361.932 C 265.664 361.948, 274.699 358.220, 271.832 358.081 C 270.914 358.036, 269.564 357.814, 268.832 357.587 C 268.099 357.359, 266.150 357.586, 264.500 358.089 M 406.016 360.128 C 406.007 360.473, 406.627 362.273, 407.394 364.128 C 408.160 365.983, 409.588 372.113, 410.568 377.750 C 411.547 383.387, 412.720 388, 413.174 388 C 413.628 388, 414 387.473, 414 386.829 C 414 386.185, 414.681 384.905, 415.514 383.984 C 416.866 382.490, 416.866 381.924, 415.514 378.688 C 414.681 376.695, 414 373.300, 414 371.143 C 414 368.076, 413.633 367.252, 412.312 367.361 C 411.310 367.444, 409.691 365.875, 408.329 363.500 C 407.066 361.300, 406.025 359.783, 406.016 360.128 M 249.092 366.197 C 252.518 372.668, 253.127 373.195, 255.112 371.398 C 257.398 369.330, 256.908 368.504, 251.869 365.933 L 247.873 363.895 249.092 366.197 M 455.015 370.193 C 455.003 373.822, 454.522 375.221, 452.893 376.362 C 450.657 377.928, 450.667 377.503, 452.561 391.787 C 453.235 396.872, 453.333 397.009, 455.131 395.382 C 456.889 393.790, 457.120 393.799, 459.031 395.528 C 460.813 397.141, 461.242 397.187, 462.524 395.905 C 463.806 394.623, 463.759 394.017, 462.138 390.972 C 460.169 387.271, 458.376 380.346, 457.487 373 C 456.670 366.259, 455.034 364.401, 455.015 370.193 M 306.500 373.647 C 301.416 376.303, 300.985 377.483, 301.655 386.919 C 302.233 395.060, 302.102 395.865, 299.194 402.085 C 297.505 405.697, 295.421 409.236, 294.562 409.949 C 292.354 411.781, 292.625 415.356, 295.141 417.595 C 296.319 418.643, 298.062 421.221, 299.014 423.324 L 300.746 427.148 301.417 424.474 C 301.786 423.003, 303.026 420.531, 304.173 418.980 L 306.257 416.162 303.999 411.498 C 301.439 406.210, 301.651 399.349, 304.549 393.681 C 307.269 388.360, 308.752 381.553, 307.590 379.712 C 306.814 378.482, 307.114 377.337, 308.811 375.041 C 311.328 371.637, 310.873 371.363, 306.500 373.647 M 293.770 378.029 C 286.988 382.521, 286.476 383.426, 289.566 385.451 C 295.278 389.194, 296.337 396.407, 291.915 401.444 C 289.366 404.347, 286.261 412.676, 286.036 417.217 C 286.016 417.611, 287.575 419.508, 289.500 421.433 C 293.809 425.742, 293.867 427.177, 289.858 430.314 L 286.716 432.773 292.095 433.927 C 295.053 434.561, 298.605 435.799, 299.987 436.678 C 302.455 438.246, 302.450 438.222, 299.750 435.333 C 298.238 433.715, 297 431.388, 297 430.163 C 297 426.654, 294.256 420.989, 291.510 418.829 C 288.343 416.338, 288.087 411.136, 291.001 408.499 C 295.837 404.122, 298.311 396.202, 297.672 387.142 C 297.325 382.232, 297.493 377.947, 298.074 376.862 C 299.388 374.407, 299.134 374.476, 293.770 378.029 M 380.170 378.729 C 377.506 379.057, 376.981 379.475, 377.549 380.819 C 377.939 381.744, 378.334 383.183, 378.426 384.018 C 378.519 384.852, 378.857 385.977, 379.177 386.518 C 379.497 387.058, 379.601 388.850, 379.407 390.500 C 378.943 394.456, 379.794 397, 381.582 397 C 382.378 397, 383.921 398.462, 385.011 400.250 L 386.993 403.500 386.996 397.693 C 387 391.190, 385.034 377.913, 384.103 378.160 C 383.772 378.248, 382.001 378.504, 380.170 378.729 M 430.346 381.286 C 433.221 388.167, 433.937 388.904, 433.954 385 C 433.963 383.075, 433.533 380.825, 433 380 C 432.467 379.175, 432.024 378.893, 432.015 379.372 C 432.007 379.852, 431.281 379.648, 430.401 378.918 C 428.939 377.704, 428.934 377.906, 430.346 381.286 M 361.114 386.200 C 360.596 387.563, 358.783 389.846, 357.086 391.274 C 355.129 392.921, 354 394.800, 354 396.412 C 354 400.391, 350.155 402.347, 344 401.500 C 340.071 400.960, 338.371 401.182, 336.361 402.499 C 334.890 403.463, 332.564 404.016, 330.968 403.782 C 328.605 403.435, 328.085 403.775, 327.669 405.935 C 327.054 409.140, 327.336 409.426, 329.809 408.102 C 333.563 406.093, 335.920 412.922, 332.790 416.738 C 330.785 419.182, 334.967 419.380, 337.540 416.962 C 339.950 414.699, 340.005 414.694, 342.098 416.586 C 344.361 418.631, 344.314 427.086, 342.027 429.373 C 340.254 431.146, 340.867 431.502, 345.544 431.420 C 351.937 431.306, 353.833 429.283, 351.729 424.818 C 348.499 417.964, 348.544 414.737, 351.909 411.739 C 354.413 409.508, 354.850 408.500, 354.365 406.075 C 353.731 402.903, 355.412 399.846, 361.705 392.724 C 364.611 389.436, 364.893 388.660, 363.886 386.724 C 362.207 383.497, 362.146 383.485, 361.114 386.200 M 422.691 384.750 C 421.897 386.143, 424.588 392.475, 425.410 391.146 C 426.019 390.161, 426.515 390.172, 427.800 391.201 C 428.785 391.990, 428.554 391.261, 427.211 389.346 C 425.995 387.611, 425 385.698, 425 385.096 C 425 383.856, 423.342 383.608, 422.691 384.750 M 474.148 401.749 C 475.692 404.912, 476.985 408.850, 477.021 410.500 C 477.058 412.150, 477.736 415.300, 478.529 417.500 C 479.321 419.700, 480.010 422.400, 480.059 423.500 C 480.108 424.600, 481.014 427.300, 482.072 429.500 C 483.915 433.332, 483.885 432.200, 481.967 425.500 C 481.495 423.850, 480.588 419.125, 479.952 415 C 478.655 406.586, 476.259 400.359, 473.316 397.749 C 471.671 396.291, 471.809 396.958, 474.148 401.749 M 454.582 400.515 C 453.159 401.592, 452.320 401.681, 451.332 400.861 C 450.278 399.986, 450 400.327, 450 402.500 C 450 404.842, 450.223 405.060, 451.519 403.984 C 452.758 402.956, 453.379 403.033, 454.895 404.405 C 456.950 406.265, 458 405.086, 458 400.918 C 458 398.646, 457.180 398.549, 454.582 400.515 M 464.280 408.627 C 463.680 410.347, 461.552 413.003, 459.550 414.530 L 455.909 417.307 456.593 424.403 C 457.599 434.837, 460.628 451.028, 461.792 452.192 C 462.474 452.874, 463.732 452.689, 465.652 451.627 C 467.218 450.759, 469.288 449.761, 470.250 449.408 C 472.297 448.658, 472.374 446.369, 470.683 436.603 C 469.628 430.511, 469.327 429.902, 468.101 431.379 C 466.804 432.941, 466.591 432.940, 464.857 431.370 C 463.835 430.446, 463 429.133, 463 428.452 C 463 427.771, 462.314 426.951, 461.476 426.629 C 457.482 425.097, 458.171 418.871, 462.796 414.684 C 464.737 412.928, 464.846 412.942, 466.399 415.159 C 468.323 417.906, 468.370 417.077, 466.666 410.501 L 465.370 405.501 464.280 408.627 M 444.100 415.276 C 444.484 419.292, 446.056 426.161, 447.594 430.539 C 449.624 436.318, 450.405 440.486, 450.445 445.745 C 450.475 449.730, 450.837 452.992, 451.250 452.995 C 452.389 453.003, 452.146 439.964, 450.933 435.993 C 449.064 429.874, 448.184 420.291, 448.918 414.062 C 449.570 408.535, 449.493 408.149, 448.009 409.492 C 446.583 410.782, 446.208 410.779, 444.895 409.467 C 443.572 408.143, 443.482 408.802, 444.100 415.276 M 384.497 421.087 L 381.494 427.500 376.256 428.140 C 368.716 429.060, 368 429.499, 367.968 433.219 C 367.903 440.775, 367.451 445.576, 366.696 446.742 C 366.254 447.425, 366.318 448.746, 366.839 449.677 C 367.455 450.778, 367.406 451.978, 366.697 453.113 C 365.253 455.425, 368.622 461.866, 371.676 462.633 C 374.913 463.446, 376.961 466.218, 376.717 469.453 C 376.531 471.906, 376.962 472.446, 379.681 473.172 C 381.473 473.650, 384.402 475.820, 386.387 478.139 L 389.911 482.257 389.871 454.878 C 389.846 438.571, 389.359 424.907, 388.665 421.087 L 387.500 414.674 384.497 421.087 M 462.664 420.433 C 462.364 421.214, 462.767 422.392, 463.559 423.049 C 464.734 424.024, 465 423.864, 465 422.181 C 465 419.662, 463.415 418.476, 462.664 420.433 M 429.490 423.016 C 429.144 423.575, 428.372 423.730, 427.773 423.360 C 427.045 422.910, 426.898 423.484, 427.329 425.094 C 427.683 426.417, 427.979 427.966, 427.986 428.536 C 427.994 429.105, 428.790 429.571, 429.756 429.571 C 431.185 429.571, 431.445 428.866, 431.151 425.786 C 430.771 421.797, 430.511 421.364, 429.490 423.016 M 436.264 429 C 436.438 433.057, 436.861 434.423, 437.875 434.208 C 438.631 434.048, 440.206 434.723, 441.375 435.708 C 443.487 437.489, 443.489 437.487, 441.696 435.361 C 440.703 434.185, 439.022 431.035, 437.960 428.361 L 436.029 423.500 436.264 429 M 226.110 429.538 C 224.934 431.531, 222.360 437.512, 220.390 442.831 C 218.420 448.149, 215.973 453.952, 214.952 455.726 C 211.626 461.506, 210.040 467.812, 209.922 475.729 C 209.859 480.003, 209.153 485.595, 208.354 488.156 C 206.934 492.708, 206.958 492.868, 209.451 495.360 L 212 497.909 212 494.126 C 212 488.216, 221.150 476, 225.577 476 C 226.360 476, 227 475.365, 227 474.589 C 227 472.961, 232.557 468, 234.381 468 C 235.055 468, 237.158 466.400, 239.054 464.444 C 240.949 462.488, 244.659 459.503, 247.298 457.809 L 252.095 454.730 249.873 452.365 L 247.651 450 250 447.500 L 252.349 445 248.709 445 C 244.780 445, 238.459 448.509, 233.731 453.315 C 229.146 457.974, 221.535 455.177, 224.757 450.017 C 226.405 447.378, 226.326 445.515, 224.500 444 C 222.312 442.184, 222.632 439.946, 226.074 433.010 C 229.462 426.181, 229.487 423.815, 226.110 429.538 M 360.179 441.309 C 358.394 443.210, 358.197 443.919, 359.220 444.767 C 361.297 446.492, 364.231 443.799, 363.228 441.088 L 362.426 438.918 360.179 441.309 M 440.683 443 C 441.011 445.475, 441.441 447.688, 441.639 447.917 C 442.391 448.785, 441.820 442.410, 440.974 440.500 C 440.383 439.165, 440.286 439.995, 440.683 443 M 261 442 C 261 443.289, 261.506 443.998, 262.250 443.750 C 262.938 443.521, 263.500 442.733, 263.500 442 C 263.500 441.267, 262.938 440.479, 262.250 440.250 C 261.506 440.002, 261 440.711, 261 442 M 400.879 442.750 C 400.173 444.562, 400.081 448.741, 400.608 455 C 401.047 460.225, 401.354 466.297, 401.289 468.494 C 401.166 472.642, 402.157 473.959, 405.421 473.985 C 406.478 473.993, 408.053 474.630, 408.921 475.400 C 410.094 476.441, 412.337 476.665, 417.650 476.273 C 425.524 475.692, 426 475.136, 426 466.514 C 426 463.658, 425.724 463.330, 423.654 463.726 C 421.071 464.220, 413.525 455.938, 412.372 451.344 C 411.678 448.583, 411.853 448.617, 407.573 450.405 C 403.212 452.227, 401.778 450.984, 403.232 446.640 C 403.810 444.913, 404.964 442.712, 405.797 441.750 C 407.187 440.142, 407.092 440, 404.630 440 C 402.633 440, 401.678 440.701, 400.879 442.750 M 343 442.981 C 343 443.520, 344.238 444.255, 345.750 444.612 C 347.262 444.970, 349.490 446.160, 350.699 447.258 C 352.143 448.568, 353.516 449.004, 354.699 448.526 C 356.340 447.864, 356.303 447.724, 354.287 446.946 C 353.070 446.476, 351.499 445.171, 350.797 444.046 C 349.468 441.918, 343 441.035, 343 442.981 M 482 445.923 C 482 446.981, 480.824 449.344, 479.386 451.173 L 476.773 454.500 479.886 451.234 C 482.529 448.462, 484.141 444, 482.500 444 C 482.225 444, 482 444.865, 482 445.923 M 327.988 453.515 C 327.297 454.348, 326.509 458.135, 326.237 461.932 C 325.775 468.387, 325.915 469.006, 328.395 471.486 C 331.685 474.776, 334.053 474.431, 336 470.378 C 336.825 468.661, 338.738 466.545, 340.250 465.675 C 344.762 463.080, 343.394 459.629, 337.377 458.425 C 335.560 458.062, 333.807 456.728, 332.769 454.919 C 330.882 451.632, 329.811 451.317, 327.988 453.515 M 433 454.956 C 433 457.778, 433.215 458.067, 434.512 456.990 C 435.731 455.978, 435.786 455.421, 434.795 454.117 C 434.119 453.228, 433.439 452.313, 433.283 452.083 C 433.127 451.854, 433 453.147, 433 454.956 M 330.193 463.443 C 330.380 467.039, 330.988 469.503, 331.750 469.754 C 332.438 469.981, 333 469.591, 333 468.888 C 333 468.185, 334.209 466.347, 335.687 464.805 C 338.035 462.354, 338.138 462, 336.502 462 C 335.472 462, 333.562 460.998, 332.258 459.772 L 329.887 457.545 330.193 463.443 M 437.750 459.795 C 436.413 460.064, 436 461.150, 436 464.395 C 436 468.469, 433.920 476.570, 431.930 480.250 C 430.617 482.676, 431.557 482.446, 436.024 479.250 C 440.649 475.940, 442.927 469.765, 441.183 465.262 C 440.594 463.743, 439.974 461.812, 439.806 460.971 C 439.635 460.117, 438.728 459.598, 437.750 459.795 M 306.102 465.882 C 306.029 469.756, 306.595 472.226, 308.123 474.699 L 310.246 478.134 307.508 480.992 C 304.246 484.396, 302.710 484.091, 298.165 479.136 C 296.135 476.923, 294.641 475.970, 294.348 476.700 C 292.161 482.151, 288.085 484.136, 284.559 481.468 C 283.416 480.604, 280.426 480, 277.287 480 C 270.656 480, 263.667 485.504, 262.695 491.491 C 260.843 502.904, 257.075 511.656, 251.949 516.451 C 247.936 520.205, 246.414 521.055, 244.686 520.506 C 243.484 520.125, 241.150 519.569, 239.500 519.271 C 236.581 518.743, 236.547 518.781, 238.250 520.693 C 239.213 521.773, 240 523.079, 240 523.594 C 240 524.108, 240.954 526.310, 242.121 528.486 C 243.925 531.852, 244.072 532.913, 243.105 535.587 C 242.480 537.316, 241.945 544.529, 241.917 551.615 C 241.870 563.550, 242.082 565.053, 244.794 572 C 246.404 576.125, 248.282 581.975, 248.967 585 C 249.651 588.025, 250.547 591.170, 250.958 591.988 C 251.774 593.618, 259.316 595.476, 261.583 594.607 C 263.300 593.948, 263.484 587.774, 261.877 584.770 C 260.039 581.336, 259.816 573.611, 261.419 568.887 C 262.238 566.474, 263.352 558.200, 263.894 550.500 C 264.837 537.099, 264.792 536.408, 262.854 534.344 C 261.337 532.730, 261.068 531.726, 261.781 530.344 C 262.304 529.330, 262.633 526.413, 262.512 523.861 C 262.306 519.528, 262.606 518.914, 267.069 514.532 C 273.811 507.911, 280.272 507.907, 284.606 514.521 C 287.208 518.493, 299 517.647, 299 513.488 C 299 512.695, 300.099 511.326, 301.442 510.446 C 306.396 507.200, 311.652 510.545, 309.097 515.319 C 308.037 517.300, 308.025 518.427, 309.035 521.221 C 310.249 524.577, 310.122 524.920, 304.496 533.463 L 298.708 542.252 299.463 553.876 C 299.878 560.269, 300.343 567.438, 300.495 569.807 C 300.647 572.176, 301.542 576.130, 302.483 578.594 C 304.015 582.607, 304.040 583.407, 302.722 586.286 C 299.800 592.666, 299.754 594.721, 302.516 595.415 C 307.686 596.712, 316 588.314, 316 581.794 C 316 580.502, 316.772 578.343, 317.715 576.997 C 319.467 574.495, 319.977 567.718, 319.895 548 C 319.876 543.324, 320.324 538.279, 320.891 536.788 C 321.707 534.641, 321.502 533.128, 319.906 529.519 C 318.012 525.240, 317.961 524.248, 319.059 513.231 C 320.188 501.910, 320.138 501.133, 317.624 491 C 316.192 485.225, 313.375 477.350, 311.365 473.500 C 309.355 469.650, 307.372 465.150, 306.958 463.500 C 306.327 460.985, 306.188 461.371, 306.102 465.882 M 398.733 476.086 C 399.331 478.374, 399.755 478.586, 405.272 479.356 C 407.506 479.667, 408.808 479.498, 408.463 478.941 C 408.144 478.423, 406.844 478, 405.576 478 C 404.307 478, 402.126 477.101, 400.729 476.001 L 398.188 474.003 398.733 476.086 M 379.914 516.604 C 378.799 517.947, 378.837 518.651, 380.149 520.938 C 381.481 523.259, 381.513 523.946, 380.358 525.525 C 379.611 526.546, 379 528.649, 379 530.198 C 379 531.747, 377.826 537.173, 376.390 542.257 L 373.780 551.500 376.161 556.500 C 378.196 560.775, 378.910 561.457, 381.082 561.203 C 382.480 561.040, 384.776 561.345, 386.186 561.881 C 389.353 563.085, 395.007 557.993, 394.989 553.952 C 394.975 550.828, 392.388 542.249, 390.649 539.560 C 389.916 538.427, 389.026 535.344, 388.672 532.710 C 388.317 530.075, 387.479 526.925, 386.809 525.710 C 386.139 524.494, 385.716 522.684, 385.869 521.687 C 386.169 519.733, 383.501 515, 382.099 515 C 381.629 515, 380.646 515.722, 379.914 516.604 M 390.140 518.331 C 388.569 520.224, 389.628 526.859, 392.167 531.035 C 393.985 534.024, 394.213 534.117, 395.916 532.576 C 397.452 531.186, 397.595 530.214, 396.850 526.225 C 395.780 520.500, 392.016 516.071, 390.140 518.331 M 198.079 524.587 C 195.785 526.517, 195.148 527.741, 195.567 529.411 C 195.914 530.793, 195.531 532.144, 194.564 532.947 C 193.700 533.664, 193 535.784, 193 537.687 C 193 540.284, 192.263 541.749, 190 543.653 C 188.350 545.042, 187 546.758, 187 547.466 C 187 548.175, 186.325 549.315, 185.500 550 C 182.608 552.400, 184.936 559, 188.674 559 C 190.682 559, 193.257 555.091, 192.687 552.909 C 192.112 550.711, 194.115 547.124, 198.921 541.745 C 201 539.420, 201.228 538.564, 200.388 536.245 C 199.486 533.755, 199.676 533.360, 202.434 531.997 C 206.062 530.203, 206.743 527.784, 204.560 524.451 C 202.545 521.376, 201.879 521.390, 198.079 524.587 M 383.100 529.812 C 383.045 531.633, 381.834 537.178, 380.408 542.133 C 377.136 553.506, 377.809 556.037, 384.516 557.593 C 389.597 558.772, 391.006 558, 390.989 554.050 C 390.975 550.711, 388.380 542.230, 386.491 539.346 C 385.671 538.094, 384.955 535.817, 384.900 534.285 C 384.845 532.753, 384.440 530.375, 384 529 C 383.248 526.650, 383.193 526.699, 383.100 529.812 M 350.040 561.452 C 347.458 564.563, 354.422 573.479, 357.786 571.370 C 360.808 569.476, 360.351 566.515, 356.515 563.148 C 352.467 559.593, 351.740 559.403, 350.040 561.452 M 175.002 567.348 C 172.400 570.208, 171.397 570.744, 170.321 569.851 C 168.699 568.505, 168.791 568.406, 166.837 573.577 L 165.297 577.655 169.653 576.658 C 173.561 575.764, 174.259 575.894, 176.423 577.928 L 178.836 580.194 178.314 576.306 C 177.935 573.478, 178.230 572.054, 179.396 571.086 C 181.352 569.463, 181.423 567.961, 179.657 565.545 C 178.393 563.817, 178.118 563.923, 175.002 567.348 M 343.465 579.952 C 339.422 581.591, 338.424 583.868, 340.736 586.181 C 342.866 588.311, 342.432 592.302, 339.691 595.800 C 338.970 596.719, 339.131 597.560, 340.240 598.669 C 341.853 600.281, 344.508 599.631, 343.430 597.887 C 343.099 597.351, 343.251 596.370, 343.769 595.706 C 346.435 592.289, 346.844 588.288, 344.742 586.186 L 342.675 584.120 345.357 583.447 C 346.858 583.070, 349.387 583.332, 351.099 584.041 L 354.159 585.309 349.836 589.032 L 345.513 592.755 347.277 596.454 C 349.933 602.024, 352.328 600.444, 350.473 594.346 C 349.977 592.717, 350.320 592.033, 351.883 591.537 C 355.234 590.474, 358.464 585.264, 356.923 583.407 C 354.138 580.052, 347.453 578.335, 343.465 579.952 M 393.473 583.354 C 392.388 584.098, 389.662 584.946, 387.416 585.236 C 384.886 585.564, 381.283 587.237, 377.947 589.633 C 373.082 593.128, 371.966 593.500, 366.364 593.500 C 361.171 593.500, 359.743 593.896, 357.569 595.937 C 354.248 599.055, 355.648 600.521, 359.914 598.393 C 362.230 597.238, 364.511 596.935, 367.656 597.366 C 371.754 597.928, 372.568 597.643, 377.704 593.850 C 381.766 590.849, 384.549 589.588, 387.896 589.234 C 390.428 588.965, 393.254 588.089, 394.176 587.285 C 396.380 585.363, 399.384 586.013, 399.842 588.511 C 400.384 591.466, 402.834 593.805, 406.151 594.533 C 408.587 595.068, 408.887 595.431, 407.890 596.632 C 406.949 597.766, 406.951 598.350, 407.896 599.292 C 408.844 600.237, 409.531 599.955, 411.046 598 C 414.168 593.974, 412.941 591.843, 406.750 590.541 C 405.238 590.222, 404 589.433, 404 588.786 C 404 587.015, 398.852 582, 397.035 582 C 396.161 582, 394.557 582.609, 393.473 583.354 M 235.557 590.223 C 234.701 591.445, 234 593.002, 234 593.684 C 234 594.365, 233.029 595.827, 231.843 596.932 C 229.817 598.819, 229.796 598.985, 231.500 599.638 C 233.468 600.394, 238 596.102, 238 593.483 C 238 592.710, 239.729 593.931, 241.841 596.196 C 244.282 598.812, 246.135 600.034, 246.923 599.547 C 247.839 598.981, 247.536 598.089, 245.764 596.140 C 244.444 594.688, 242.597 592.263, 241.659 590.750 C 239.595 587.421, 237.637 587.252, 235.557 590.223 M 0.446 595.087 C 0.077 595.685, 0.163 596.541, 0.637 596.990 C 2.504 598.755, 27.697 600.703, 29.201 599.199 C 30.945 597.455, 26.227 595.739, 21.596 596.433 C 18.908 596.836, 15.876 596.515, 13.084 595.530 C 8.043 593.751, 1.415 593.519, 0.446 595.087" stroke="none" fill="#1A1A1A" fill-rule="evenodd"/>
</svg>