<svg xmlns="http://www.w3.org/2000/svg" width="507" height="600" viewBox="0 0 507 600" version="1.1">
	<rect x="0" y="0" width="100%" height="100%" fill="#FFFFFF" />
	<path d="M 301.773 66.555 C 292.947 68.694, 286.160 72.644, 278.424 80.142 C 272.422 85.959, 270.234 87.380, 264.014 89.495 C 259.980 90.867, 254.168 93.407, 251.098 95.140 C 248.028 96.873, 242.910 98.898, 239.724 99.641 C 215.261 105.348, 198.594 116.380, 180.241 139.014 C 171.045 150.354, 164 165.838, 164 174.708 C 164 180.152, 161.815 188.466, 158.861 194.267 C 155.582 200.705, 154.811 207.375, 156.504 214.675 C 158.448 223.057, 158.395 225.134, 156 234.500 C 151.183 253.336, 155.094 286.420, 165.457 314.500 C 167.487 320, 170.398 328.100, 171.926 332.500 C 180.529 357.273, 198.279 367.158, 224 361.500 C 233.862 359.331, 233.579 359.213, 237.564 367.127 C 241.905 375.747, 241.823 376.179, 233.903 386.500 C 225.838 397.011, 223.364 402.592, 221.936 413.500 C 221.091 419.958, 219.841 424.336, 217.510 429 C 215.724 432.575, 213.916 436.625, 213.493 438 C 213.070 439.375, 210.257 445.582, 207.241 451.794 C 201.625 463.363, 200.158 469.616, 200.044 482.460 C 200 487.450, 183.895 522.412, 174.395 538.140 C 172.522 541.242, 170.326 545.659, 169.516 547.956 C 168.705 550.253, 167.100 553.455, 165.949 555.071 C 164.798 556.688, 162.514 561.720, 160.872 566.255 C 159.231 570.790, 155.913 578.775, 153.499 584 C 147.637 596.689, 147.346 599.500, 151.891 599.500 C 155.523 599.500, 155.784 599.193, 158.259 592 C 161.292 583.188, 170.936 560.411, 173.925 555 C 178.067 547.504, 177.810 549.678, 173.571 557.995 C 171.686 561.695, 169.832 566.472, 169.452 568.611 C 169.072 570.750, 167.518 574.750, 166 577.500 C 159.812 588.702, 160.105 592.986, 167.164 594.536 C 169.048 594.950, 170.463 596.088, 171.066 597.674 C 172.102 600.399, 174.303 600.352, 174.838 597.593 C 175.299 595.213, 172.456 592.306, 168.340 590.947 C 164.320 589.620, 164.366 589.127, 169.519 578.500 C 171.386 574.650, 173.213 569.925, 173.580 568 C 173.946 566.075, 175.503 562.025, 177.040 559 C 178.577 555.975, 181.237 550.076, 182.951 545.892 C 184.666 541.707, 187.339 536.281, 188.891 533.833 C 190.443 531.386, 192.704 526.709, 193.916 523.442 C 196.802 515.658, 206.145 499.146, 209.382 496.108 C 210.784 494.792, 212.872 490.889, 214.022 487.434 C 216.303 480.579, 217.103 479.610, 221.309 478.604 C 222.854 478.235, 226.004 476.244, 228.309 474.180 C 230.614 472.116, 235.650 468.346, 239.500 465.802 C 249.184 459.403, 251.608 456.538, 252.374 450.583 C 253.764 439.789, 246.174 439.307, 235 449.480 C 232.533 451.725, 228.749 454, 227.480 454 C 227.121 454, 226.951 452.313, 227.102 450.250 C 227.252 448.188, 227.028 444.875, 226.603 442.890 C 225.960 439.889, 226.367 438.215, 229.015 432.969 C 231.582 427.885, 232.082 425.915, 231.589 422.829 C 231.050 419.460, 231.217 419, 232.980 419 C 234.178 419, 239.203 414.852, 245.470 408.691 C 252.825 401.460, 258.275 397.090, 263.727 394.051 C 268.002 391.669, 276 387.033, 281.500 383.750 C 289.384 379.043, 290.922 378.393, 288.767 380.676 L 286.035 383.573 288.614 387.198 C 292.269 392.335, 292.155 396.864, 288.233 402.325 C 285.514 406.111, 283.107 412.733, 283.024 416.655 C 283.011 417.291, 284.590 419.714, 286.533 422.039 C 289.844 426.002, 289.969 426.401, 288.519 428.384 C 285.100 433.061, 285.703 435.211, 290.791 436.479 C 300.576 438.918, 301.699 440.973, 302.278 457.500 C 302.619 467.250, 303.101 470.289, 304.849 473.710 C 306.032 476.026, 307 479.508, 307 481.448 L 307 484.976 301.615 482.062 L 296.231 479.149 294.122 481.575 C 291.527 484.559, 291.115 484.567, 286.890 481.702 C 276.387 474.580, 263.168 480.422, 259.424 493.841 C 256.775 503.332, 253.060 512.343, 250.508 515.463 L 248.085 518.426 242.990 516.593 C 235.202 513.793, 227.929 514.707, 223.449 519.050 C 219.309 523.062, 218.392 526.214, 217.495 539.500 C 217.124 545, 216.224 552.425, 215.495 556 C 214.766 559.575, 213.641 567, 212.995 572.500 C 211.464 585.529, 210.973 586.628, 206.020 588.112 C 200.966 589.627, 193.147 597.547, 194.938 599.338 C 195.807 600.207, 196.877 599.602, 199.295 596.878 C 201.102 594.842, 204.519 592.539, 207.128 591.598 C 214.147 589.065, 214.932 587.673, 216.569 574.856 C 217.366 568.610, 218.502 561.250, 219.093 558.500 C 219.684 555.750, 220.763 547.136, 221.490 539.359 C 222.218 531.581, 223.333 524.247, 223.967 523.061 C 226.278 518.743, 234.926 517.709, 243.380 520.739 L 248.259 522.488 252.625 517.526 C 256.947 512.615, 260.140 505.605, 263.439 493.788 C 265.890 485.008, 276.177 479.342, 282.619 483.223 C 291.291 488.448, 290.999 488.377, 294.201 486.010 L 297.143 483.834 302.541 486.565 C 310.951 490.820, 314.206 484.181, 308.844 473.710 C 307.082 470.270, 306.601 467.215, 306.217 457 C 305.926 449.272, 305.223 443.470, 304.375 441.802 C 303.136 439.366, 297.184 434, 295.721 434 C 292.432 434, 289.840 431.828, 291.216 430.225 C 294.047 426.926, 293.980 426.166, 290.500 422 C 288.575 419.696, 287.011 417.291, 287.024 416.655 C 287.102 412.992, 289.445 406.105, 291.555 403.338 C 296.416 396.965, 296.562 391.527, 292.027 385.762 L 290.085 383.293 292.793 380.748 C 295.561 378.146, 301.943 374.010, 303.199 374.004 C 303.583 374.002, 303.276 375.487, 302.517 377.305 C 301.757 379.123, 300.843 384.636, 300.484 389.555 C 300.125 394.475, 299.148 400.669, 298.313 403.319 C 297.451 406.052, 297.056 409.515, 297.400 411.319 C 297.733 413.069, 298.202 418.002, 298.441 422.282 C 298.769 428.145, 299.446 430.979, 301.188 433.777 C 305.251 440.303, 307 445.100, 307 449.715 C 307 456.157, 309.698 465.772, 312.972 471 C 321.907 485.265, 324.621 496.186, 323.041 511.509 C 322.133 520.323, 322.145 523.781, 323.098 527.161 C 323.834 529.774, 324.372 538.858, 324.450 550 C 324.522 560.175, 324.947 569.709, 325.395 571.187 C 326.176 573.764, 325.822 574.940, 322.292 581.500 C 316.335 592.568, 313.946 598.346, 314.922 599.322 C 316.382 600.782, 317.109 599.861, 321.499 591 C 323.543 586.875, 325.700 582.600, 326.292 581.500 C 329.822 574.940, 330.176 573.764, 329.395 571.187 C 328.947 569.709, 328.522 560.175, 328.450 550 C 328.372 538.858, 327.834 529.774, 327.098 527.161 C 326.145 523.781, 326.133 520.323, 327.041 511.509 C 328.621 496.186, 325.907 485.265, 316.972 471 C 313.698 465.772, 311 456.157, 311 449.715 C 311 445.100, 309.251 440.303, 305.188 433.777 C 303.437 430.964, 302.776 428.177, 302.465 422.282 C 302.238 418.002, 301.756 413.224, 301.394 411.665 C 301.021 410.064, 301.413 406.366, 302.294 403.165 C 303.151 400.049, 304.261 393.137, 304.759 387.804 C 305.847 376.168, 306.051 375.884, 315.805 372.466 C 320.037 370.982, 327.622 368.013, 332.659 365.866 C 342.129 361.832, 355.381 358.004, 359.910 357.994 C 367.216 357.979, 379 350.538, 379 345.941 C 379 343.228, 369.835 337.359, 363.563 336.055 L 360.626 335.444 364.726 334.090 C 368.488 332.849, 369.290 332.929, 374.425 335.057 C 378.891 336.908, 380.273 337.126, 381.261 336.131 C 382.247 335.140, 382.731 337.810, 383.631 349.193 C 384.252 357.062, 385.109 365.075, 385.533 367 C 386.293 370.446, 386.274 370.473, 384.296 368.725 C 382.445 367.089, 382.180 367.078, 380.934 368.579 C 378.574 371.424, 374.910 372.235, 370.278 370.938 C 363.687 369.093, 353 374.370, 353 379.469 C 353 381.104, 351.898 382.518, 349.436 384.039 C 347.476 385.251, 344.770 387.988, 343.424 390.121 C 340.696 394.441, 337.975 395.073, 333.051 392.527 C 327.787 389.804, 323.497 395.013, 320.385 407.906 C 318.489 415.761, 318.898 417.696, 322.832 419.487 C 326.325 421.078, 325.853 427.411, 322 430.653 C 315.889 435.796, 318.985 441.509, 329.500 444.495 C 336.342 446.437, 346.161 451.234, 350.327 454.669 C 351.881 455.951, 353.816 457, 354.626 457 C 357.534 457, 361.797 459.991, 363.851 463.472 C 365.001 465.421, 367.018 467.507, 368.332 468.106 C 369.647 468.704, 371.444 470.709, 372.327 472.559 C 373.284 474.566, 375.469 476.709, 377.740 477.868 C 381.255 479.660, 385.128 483.530, 393.866 493.976 C 395.717 496.189, 397.742 498.003, 398.366 498.008 C 399.937 498.018, 403.696 504.865, 404.508 509.193 C 404.958 511.589, 406.620 514.147, 409.531 516.921 C 413.971 521.153, 416.673 526.810, 419.574 537.945 C 421.910 546.915, 420.762 554.207, 416.233 559.159 C 413.265 562.404, 413.697 565.504, 418.027 572.032 C 421.302 576.968, 421.664 579.538, 419.490 582.412 C 418.678 583.485, 418.293 585.318, 418.612 586.590 C 419.274 589.226, 418.285 593, 416.933 593 C 416.420 593, 416 592.403, 416 591.674 C 416 589.622, 411.437 585.824, 409.401 586.181 C 407.983 586.429, 407.436 585.654, 406.936 582.685 C 406.112 577.789, 403.123 573.810, 399.552 572.855 C 398.004 572.442, 395.744 571.169, 394.529 570.027 C 391.763 567.429, 386.008 567.110, 382.568 569.364 C 379.369 571.459, 379.360 572.450, 382.500 576.182 C 385.735 580.026, 385.790 579.820, 380.250 584.585 C 373.408 590.469, 371.794 591.173, 368.099 589.885 C 365.357 588.929, 365 588.361, 365 584.951 C 365 582.832, 364.325 578.506, 363.500 575.339 C 361.341 567.050, 361.523 565.619, 364.898 564.345 C 369.828 562.484, 370.368 559.971, 366.984 554.636 C 363.551 549.222, 361.883 548.887, 358.842 553 C 356.097 556.712, 354.421 556.813, 353.544 553.317 C 353.173 551.842, 351.708 548.652, 350.288 546.229 C 343.757 535.084, 335.603 540.918, 341.022 552.859 C 342.175 555.401, 343 559.373, 343 562.387 C 343 565.229, 343.619 568.443, 344.376 569.527 C 345.607 571.292, 345.344 572.127, 341.876 577.444 C 339.073 581.743, 338 584.455, 338 587.244 C 338 589.364, 337.292 592.468, 336.428 594.140 C 334.849 597.193, 335.085 600, 336.922 600 C 338.488 600, 342 591.101, 342.004 587.123 C 342.011 580.184, 347.408 574.249, 350.866 577.379 C 352.993 579.304, 355.146 579.454, 356.806 577.794 C 358.138 576.462, 350.781 568, 348.292 568 C 347.396 568, 347 566.348, 347 562.609 C 347 559.374, 346.209 555.475, 345.022 552.859 C 342.922 548.232, 342.395 544, 343.918 544 C 345.201 544, 348.701 549.896, 349.556 553.500 C 351.215 560.484, 356.251 562.050, 360.323 556.847 L 362.790 553.694 364.430 556.865 C 365.972 559.847, 365.964 560.069, 364.285 560.590 C 358.156 562.493, 357.113 565.461, 359.344 574.653 C 360.258 578.419, 361.004 583.109, 361.003 585.076 C 360.998 590.905, 368.606 596.327, 373.315 593.852 C 376.123 592.377, 389 581.034, 389 580.037 C 389 579.620, 387.889 577.641, 386.530 575.640 C 384.371 572.458, 384.277 571.986, 385.780 571.889 C 390.006 571.617, 392.652 572.371, 395.303 574.601 C 396.871 575.921, 398.778 577, 399.542 577 C 401.397 577, 403 580.180, 403 583.862 C 403 587.391, 406.978 591.080, 409.948 590.303 C 411.503 589.897, 411.999 590.478, 412.535 593.335 C 412.900 595.279, 414.032 597.624, 415.051 598.546 C 417.642 600.891, 423.421 592.358, 422.643 587.336 C 422.354 585.465, 422.722 583.422, 423.545 582.336 C 425.663 579.541, 425.280 576.934, 422.027 572.032 C 417.688 565.490, 417.262 562.401, 420.254 559.159 C 428.392 550.337, 422.864 521.854, 411.579 514.460 C 410.015 513.435, 408.926 511.524, 408.513 509.076 C 407.683 504.162, 402.247 495.885, 398.750 494.209 C 397.246 493.488, 395.489 491.909, 394.845 490.699 C 392.558 486.404, 383.443 476.887, 379.750 474.938 C 377.688 473.850, 376 472.486, 376 471.908 C 376 469.433, 359.449 454.218, 355.600 453.155 C 353.465 452.566, 350.769 451.230, 349.609 450.188 C 346.319 447.230, 336.130 442.345, 329.250 440.426 C 323.515 438.827, 323 438.456, 323 435.925 C 323 432.380, 324.905 431.714, 327.721 434.274 C 329.554 435.941, 330.208 436.072, 331.471 435.024 C 333.569 433.283, 333.387 431.259, 331 429.768 C 329.537 428.854, 329 427.436, 329 424.482 C 329 420.135, 326.778 416, 324.443 416 C 322.604 416, 322.629 414.617, 324.611 406.831 C 327.329 396.155, 328.833 394.345, 333.141 396.573 C 338.587 399.389, 343.572 397.663, 346.534 391.934 C 347.372 390.314, 349.831 387.870, 351.998 386.501 C 354.682 384.807, 356.206 382.975, 356.776 380.757 C 358.034 375.858, 363.845 373.326, 370.132 374.937 C 373.960 375.918, 375.391 375.864, 378.361 374.623 C 380.338 373.796, 382.154 373.441, 382.396 373.832 C 383.581 375.749, 386 392.023, 386 398.076 C 386 401.846, 386.700 409.952, 387.556 416.088 C 388.571 423.368, 389.211 436.813, 389.395 454.784 L 389.678 482.323 392.855 485.162 C 396.353 488.287, 403.445 488.761, 422.726 487.157 C 430.917 486.475, 430.973 486.451, 436.054 481.486 C 442.844 474.851, 444.378 471.776, 443.628 466.301 C 442.845 460.588, 445.769 459.052, 452.843 461.462 C 466.184 466.008, 481.170 459.179, 485.963 446.369 C 488.500 439.589, 488.518 435.888, 486.060 426.729 C 484.993 422.753, 483.370 415.970, 482.453 411.656 C 481.189 405.712, 479.742 402.289, 476.477 397.520 C 470.275 388.461, 469.043 385.731, 467.485 377.586 C 466.253 371.148, 463.879 360.821, 459.533 343 C 458.795 339.975, 457.254 334.940, 456.109 331.812 C 454.963 328.683, 453.626 322.545, 453.136 318.171 C 452.596 313.340, 451.213 307.961, 449.614 304.468 C 448.166 301.306, 446.278 295.969, 445.417 292.609 C 444.556 289.249, 442.826 284.700, 441.573 282.500 C 438.762 277.564, 437.359 271.971, 436.056 260.505 C 435.182 252.811, 434.666 251.242, 432.133 248.573 C 429.601 245.905, 429.123 244.452, 428.503 237.539 C 427.650 228.015, 426.778 225.453, 423.043 221.500 C 419.428 217.672, 418.023 211.289, 417.079 194.392 C 416.421 182.633, 416.030 180.626, 413.272 174.892 C 411.581 171.376, 409.656 166.478, 408.994 164.006 C 407.116 156.987, 404.142 151.862, 399.313 147.318 C 394.985 143.246, 394.896 143.037, 395.906 139.379 C 397.271 134.435, 390.966 119.536, 385.636 115.113 C 383.815 113.602, 383.458 110.453, 385 109.500 C 389.608 106.652, 378.735 92.401, 363 80.665 C 352.691 72.977, 344.986 69.707, 333.208 68.021 C 329.519 67.493, 324.076 66.597, 321.114 66.030 C 314.135 64.695, 308.853 64.839, 301.773 66.555 M 299.500 77.334 C 293.020 79.467, 290.816 80.925, 284.731 87.106 C 280.305 91.601, 279.565 92.736, 281.551 91.981 C 292.095 87.972, 302.115 89.044, 307.258 94.731 C 308.940 96.591, 308.930 96.754, 307.028 98.475 C 305.066 100.250, 305.095 100.309, 309.270 102.994 C 311.597 104.490, 316.140 108.730, 319.368 112.417 L 325.236 119.120 323.103 121.390 L 320.971 123.660 326.735 126.271 C 329.906 127.708, 336.212 131.376, 340.750 134.424 C 349.845 140.532, 350.539 140.166, 346 131.660 C 342.121 124.391, 342.178 123.915, 347.418 119.620 C 352.596 115.377, 355.468 115.092, 363.740 118 C 372.949 121.237, 373.457 120.177, 365.992 113.301 C 360.737 108.460, 358 102.302, 358 95.321 C 358 91.843, 352.871 85.030, 348.586 82.818 C 346.882 81.938, 346.993 82.268, 349.192 84.620 C 356.284 92.207, 357.328 105.590, 350.665 103.514 C 349.474 103.143, 344.900 102.489, 340.500 102.059 C 326.775 100.721, 313 92.867, 313 86.381 C 313 83.944, 318.209 79, 320.777 79 C 322.023 79, 322.126 78.726, 321.222 77.822 C 319.497 76.097, 304.294 75.756, 299.500 77.334 M 356.750 86.243 C 360.610 90.388, 362 92.657, 362 94.815 C 362 96.429, 362.297 99.237, 362.661 101.054 L 363.321 104.357 364.653 99.929 C 366.477 93.861, 365.215 91.235, 357.661 85.380 L 351.500 80.606 356.750 86.243 M 319.750 83.097 C 310.386 86.740, 326.048 98, 340.480 98 C 343.445 98, 347.087 98.463, 348.574 99.028 C 352.408 100.486, 352.556 99.835, 349.963 92.901 C 347.883 87.338, 347.218 86.542, 343.161 84.747 C 337.919 82.428, 323.991 81.446, 319.750 83.097 M 364.630 87.044 C 369.422 92.335, 370.329 94.618, 369.073 98.220 C 367.437 102.914, 367.778 105.843, 370.186 107.760 C 379.573 115.235, 381.389 117.647, 382.135 123.638 C 383.003 130.600, 385.268 139.703, 388.694 150 C 390.939 156.749, 391.274 159.904, 392.032 181.500 C 392.750 201.966, 393.246 206.996, 395.400 215.661 C 396.789 221.250, 398.237 228.900, 398.617 232.661 C 398.997 236.422, 400.120 241.405, 401.112 243.734 C 402.777 247.644, 403.561 253.069, 405.989 277.500 C 406.709 284.742, 406.806 282.692, 406.486 267 C 406.254 255.574, 405.407 243.360, 404.442 237.500 C 403.537 232, 402.679 221.200, 402.537 213.500 C 402.395 205.800, 401.520 193.941, 400.593 187.146 C 399.008 175.531, 399.008 174.636, 400.606 172.197 L 402.306 169.604 405.059 172.902 C 408.472 176.990, 409.948 182.628, 410.973 195.500 C 411.411 201, 412.503 207.300, 413.400 209.500 C 414.658 212.587, 414.887 212.815, 414.401 210.500 C 414.056 208.850, 413.452 201.601, 413.059 194.392 C 412.418 182.609, 412.035 180.638, 409.272 174.892 C 407.581 171.376, 405.662 166.475, 405.007 164 C 403.298 157.535, 399.191 150.408, 396.458 149.163 C 392.380 147.305, 390.709 143.715, 391.904 139.384 C 393.271 134.435, 386.969 119.539, 381.636 115.113 C 379.815 113.602, 379.458 110.453, 381 109.500 C 385.133 106.946, 374.777 92.625, 363 84.608 C 362.175 84.047, 362.909 85.142, 364.630 87.044 M 290 94.004 C 284.115 95.009, 267.768 99.960, 266.550 101.106 C 265.986 101.637, 268.271 102, 272.178 102 C 275.796 102, 280.345 102.664, 282.287 103.475 C 284.229 104.287, 287.996 105.435, 290.659 106.027 C 293.321 106.619, 300.072 109.325, 305.660 112.042 C 321.809 119.893, 321.925 119.909, 316.311 113.528 C 313.665 110.520, 309.420 106.924, 306.879 105.537 C 300.327 101.962, 299.268 100.467, 301.523 97.975 C 303.489 95.802, 303.483 95.782, 300.316 94.135 C 297.911 92.885, 296.644 92.869, 290 94.004 M 255.336 106.061 C 253.046 107.128, 247.736 108.658, 243.538 109.461 C 233.546 111.373, 215.431 117.533, 211 120.525 C 206.594 123.500, 195.134 134.832, 188.216 143.055 C 175.194 158.533, 170.092 181.306, 181.360 173.660 C 186.909 169.894, 194.748 168.399, 201.250 169.867 C 206.773 171.113, 209.595 172.600, 220.688 180.113 C 228.804 185.608, 236.503 187.539, 243.125 185.738 C 245.230 185.166, 246.616 185.713, 250.125 188.503 C 255.123 192.476, 257 192.876, 257 189.968 C 257 183.238, 251.378 178, 244.155 178 C 239.515 178, 238.381 175.768, 240.460 170.727 C 244.408 161.155, 246.007 160.144, 249.905 164.757 C 253.456 168.959, 263.803 173.214, 270.324 173.154 C 274.269 173.118, 276.023 173.738, 279.944 176.555 C 285.738 180.718, 286.781 180.813, 287.574 177.250 C 288.807 171.710, 289.233 170.804, 292.192 167.434 C 295.850 163.268, 296.961 163.202, 302.320 166.832 C 308.749 171.187, 309.888 171.379, 310.535 168.215 C 312.144 160.355, 313.271 157.922, 316.558 155.213 L 320.066 152.321 317.545 147.910 C 316.159 145.485, 315.019 142.285, 315.012 140.801 C 314.999 137.855, 310.615 133.012, 305.500 130.292 C 301.036 127.919, 284.485 115.417, 282.324 112.786 C 278.909 108.629, 274.594 106.334, 269 105.698 C 265.975 105.354, 262.600 104.859, 261.500 104.597 C 260.400 104.335, 257.626 104.994, 255.336 106.061 M 286.500 112.752 C 289.242 115.202, 302.873 124.905, 305.500 126.277 C 311.419 129.367, 318.999 137.380, 319.012 140.560 C 319.019 142.177, 320.154 145.476, 321.534 147.891 C 324.034 152.265, 323.262 157, 320.048 157 C 318.821 157, 316 159.899, 316 161.160 C 316 161.720, 317.385 161.013, 319.077 159.589 C 320.769 158.165, 322.808 157, 323.608 157 C 326.204 157, 326.190 154.309, 323.568 149.134 C 320.327 142.738, 320.348 142.246, 324.073 137.728 C 327.581 133.472, 329.469 133.178, 335.040 136.020 C 340.052 138.578, 340.178 137.915, 335.250 134.915 C 321.034 126.262, 281.511 108.293, 286.500 112.752 M 372.250 114.852 C 375.599 118.873, 375.609 119.080, 372.575 121.929 L 370.150 124.208 364.071 122.104 C 355.821 119.249, 351.945 119.365, 348.945 122.558 L 346.542 125.116 349.271 130.308 C 355.670 142.481, 354.132 147.790, 345.904 141.932 C 344.307 140.794, 343 140.081, 343 140.347 C 343 141.704, 365.050 156.231, 365.890 155.426 C 366.294 155.040, 363.115 148.594, 358.954 141.360 C 356.207 136.585, 357.219 134, 361.835 134 C 363.461 134, 365.239 132.978, 366.613 131.255 C 369.354 127.819, 372.513 129.900, 373.643 135.887 C 374.018 137.874, 374.537 138.825, 374.797 138 C 375.870 134.587, 377.194 133.866, 379.143 135.630 C 381.426 137.696, 381.547 136.245, 379.500 131.346 C 378.675 129.371, 378 125.981, 378 123.812 C 378 118.886, 376.878 116.756, 372.752 113.844 L 369.500 111.550 372.250 114.852 M 367 136.500 C 366.315 137.325, 364.640 138, 363.276 138 L 360.797 138 363.444 142.250 C 364.900 144.588, 367.008 148.450, 368.129 150.833 C 370.681 156.260, 371.239 155.720, 371.130 147.930 C 370.971 136.656, 369.727 133.214, 367 136.500 M 325.992 140.515 C 324.786 142.768, 324.947 143.658, 327.533 149.070 C 330.911 156.136, 330.514 157.501, 324.223 160.462 C 320.384 162.269, 319.964 162.858, 318.917 167.899 C 317.167 176.328, 312.001 180.676, 306.949 177.972 C 299.215 173.834, 294 175.375, 294 181.799 C 294 188.178, 288.069 191.838, 283.227 188.446 C 282.007 187.592, 278.644 186.260, 275.755 185.487 C 272.865 184.713, 269.055 183.649, 267.288 183.121 L 264.076 182.161 264.186 188.621 C 264.285 194.411, 264.006 195.385, 261.496 198.004 C 258.358 201.279, 258.346 201.242, 264.881 208.231 C 269.257 212.912, 270.186 220.409, 267.524 229.565 C 265.768 235.607, 266.610 238, 270.495 238 C 272.317 238, 277.857 244.293, 279.052 247.719 C 280.446 251.718, 278.809 260.436, 275.395 267.193 C 267.820 282.186, 265.426 299.392, 270.750 300.571 C 282.336 303.136, 292.186 308.771, 294.174 313.970 C 297.177 321.828, 295.342 327.533, 286.885 336.623 C 283.648 340.103, 281 343.580, 281 344.350 C 281 347.035, 291.839 347.779, 304.439 345.957 C 312.759 344.755, 312.935 344.624, 310.171 341.682 C 308.977 340.411, 308 338.872, 308 338.262 C 308 337.653, 306.650 335.804, 305 334.154 C 300.411 329.564, 300.730 324.035, 305.882 318.882 C 310.681 314.084, 312.663 314.025, 317.051 318.553 C 319.998 321.593, 320.506 322.820, 320.567 327.046 C 320.620 330.679, 321.216 332.601, 322.819 334.308 C 324.019 335.584, 325 337.648, 325 338.894 C 325 340.923, 325.338 341.088, 328.250 340.474 C 332.757 339.524, 333.373 338.647, 331.024 336.521 C 329.911 335.514, 329 333.930, 329 333 C 329 332.070, 328.147 330.538, 327.104 329.595 C 326.040 328.631, 324.917 325.823, 324.543 323.190 C 324.173 320.591, 322.343 315.980, 320.438 312.849 C 315.981 305.523, 315.836 306.120, 324.250 297.107 C 328.238 292.836, 334.555 285.846, 338.289 281.574 L 345.077 273.807 344.425 268.040 C 343.827 262.753, 343.967 262.136, 346.109 260.636 C 348.678 258.837, 355.522 258.418, 356.500 260 C 357.412 261.476, 361 261.216, 361 259.674 C 361 258.945, 359.875 257.292, 358.500 256 C 354.334 252.087, 355.867 243.610, 361.548 239.141 C 363.575 237.547, 365.100 234.580, 367.115 228.313 C 370.352 218.247, 372.029 215.949, 374.587 218.072 C 376.549 219.701, 376.399 216.520, 373.544 196 C 372.665 189.675, 371.418 180.675, 370.773 176 C 370.129 171.325, 369.579 165.170, 369.551 162.321 C 369.504 157.526, 369.375 157.256, 367.812 158.671 C 365.884 160.415, 359.906 157.247, 346.500 147.377 C 333.724 137.971, 328.321 136.163, 325.992 140.515 M 378.076 154.908 C 376.582 164.107, 377.305 174.037, 381.975 208.500 C 382.496 212.350, 383.417 223.150, 384.020 232.500 C 384.623 241.850, 385.553 253.760, 386.087 258.967 C 386.620 264.173, 387.340 274.642, 387.685 282.230 C 388.268 295.043, 388.432 295.919, 389.985 294.514 C 392.340 292.382, 394.977 292.631, 397.778 295.250 L 400.186 297.500 399.623 293 C 399.314 290.525, 398.783 282.650, 398.444 275.500 C 397.530 256.200, 396.363 248.319, 393.912 244.877 C 392.641 243.091, 391.478 239.355, 391.004 235.531 C 390.569 232.026, 389.512 226.986, 388.654 224.330 C 385.925 215.880, 384.802 204.117, 384.518 181 C 384.256 159.736, 384.107 158.183, 381.804 152.725 L 379.369 146.950 378.076 154.908 M 244.871 169.945 L 243.241 173.783 247.291 174.431 C 250.243 174.903, 252.515 176.252, 255.671 179.408 C 258.052 181.789, 260 183.191, 260 182.523 C 260 177.407, 270.658 178.216, 282.619 184.240 C 287.052 186.473, 290 186.111, 290 183.331 C 290 181.985, 289.733 181.867, 288.800 182.800 C 286.897 184.703, 285.074 184.241, 279.944 180.555 C 276.023 177.738, 274.269 177.118, 270.324 177.154 C 264.309 177.210, 253.704 173.072, 249.539 169.045 L 246.500 166.106 244.871 169.945 M 293.439 171.117 L 291.828 174.234 294.029 172.693 C 295.239 171.845, 296.740 171.303, 297.365 171.489 C 297.989 171.675, 300.075 172.100, 302 172.433 L 305.500 173.039 301.803 170.520 C 296.974 167.229, 295.392 167.342, 293.439 171.117 M 187 174.896 C 179.916 177.408, 176.222 181.677, 172.167 192.038 C 167.804 203.184, 167.883 206, 172.560 206 C 180.432 206, 191.288 220.812, 189.600 229.250 C 188.755 233.476, 184.496 238.796, 180.392 240.753 C 176.483 242.617, 172.071 240.462, 171.024 236.176 C 170.543 234.210, 170.293 234.336, 168 237.698 C 163.049 244.959, 165.276 277.779, 172.147 298.824 L 174.213 305.149 176.421 303.074 C 177.929 301.657, 179.955 301, 182.814 301 C 189.051 301, 188.229 295.327, 181.003 288.500 C 175.260 283.074, 175.223 283.397, 183.536 266.328 C 190.223 252.598, 191.576 248.838, 194.584 235.631 C 199.447 214.277, 201.347 211.866, 215.635 208.914 C 221.447 207.714, 222.154 207.788, 229.134 210.329 C 239.184 213.987, 241.002 213.898, 240.994 209.750 C 240.971 197.839, 213.525 174.767, 197.753 173.401 C 194.114 173.086, 190.810 173.545, 187 174.896 M 403.676 180 C 403.947 182.475, 404.786 188.550, 405.540 193.500 L 406.912 202.500 406.502 193.500 C 406.277 188.550, 405.438 182.475, 404.638 180 L 403.184 175.500 403.676 180 M 236.144 194.078 C 243.571 202.791, 244.299 204.055, 244.783 209.095 C 245.617 217.771, 242.036 218.933, 228.857 214.265 L 221.135 211.530 213.406 213.515 C 203.396 216.086, 202.819 216.942, 198.603 235.500 C 195.710 248.231, 194.159 252.649, 188.347 264.706 C 182.132 277.601, 181.786 278.635, 184.596 275.909 C 186.299 274.257, 189.359 269.579, 191.395 265.513 C 194.672 258.972, 200.597 252, 202.880 252 C 204.944 252, 207.082 256.268, 208.908 264.033 C 210.002 268.690, 212.027 275.200, 213.407 278.500 C 216.364 285.572, 216.898 284.353, 214.031 277.078 C 212.448 273.063, 212.006 269.174, 211.781 257.291 L 211.500 242.500 216.026 234.524 C 221.961 224.063, 224.952 222.218, 228.894 226.586 L 231.679 229.673 234.395 227.336 C 237.713 224.483, 239.483 224.431, 246 227 C 255.470 230.733, 258 228.876, 258 218.195 C 258 212.740, 255.980 209.787, 244.635 198.657 C 234.890 189.096, 229.349 186.108, 236.144 194.078 M 243.117 189.906 C 241.292 191.062, 242.756 193.177, 249.713 199.432 C 261.940 210.425, 265.340 220.710, 259.385 228.686 C 255.613 233.739, 254.121 233.928, 244.500 230.579 C 243.400 230.196, 244.075 230.769, 246 231.851 C 247.925 232.934, 250.824 235.213, 252.442 236.915 L 255.383 240.009 251.995 243.505 C 247.977 247.651, 245.404 247.871, 238.800 244.634 L 234.100 242.330 236.565 245.415 C 237.921 247.112, 239.533 249.107, 240.147 249.849 C 241.647 251.661, 246.444 250.634, 251.212 247.478 C 256.561 243.939, 263.687 244.025, 268.033 247.681 C 271.763 250.820, 271.826 255.473, 268.242 263.159 C 262.318 275.864, 255.963 290.122, 254.118 294.848 C 252.969 297.789, 249.546 303.740, 246.510 308.073 C 242.686 313.530, 240.656 317.572, 239.903 321.225 C 234.929 345.383, 223.701 349.949, 215.404 331.188 C 212.466 324.545, 212.422 323.004, 215.073 319.634 C 218.331 315.493, 217.274 314.201, 208 310.979 C 199.155 307.907, 196.396 307.573, 188.640 308.636 C 180.931 309.693, 182.979 313.437, 191.976 314.734 C 199.212 315.778, 201.914 319.125, 200.324 325.079 L 199.242 329.136 204.256 331.818 C 217.680 338.998, 219.787 346.516, 210.438 353.870 L 207.624 356.084 212.062 355.424 C 214.503 355.062, 219.567 354.143, 223.315 353.382 C 234.842 351.044, 241 352.641, 241 357.969 C 241 358.976, 241.456 358.897, 242.829 357.655 C 245.338 355.384, 247.980 355.574, 254.596 358.500 C 261.793 361.683, 262.068 361.669, 272.705 357.561 C 277.603 355.669, 284.735 353.535, 288.555 352.819 L 295.500 351.516 288.641 350.830 C 275.875 349.553, 274.352 345.796, 282.885 336.623 C 291.299 327.579, 292.521 324.200, 290.577 315.349 C 289.836 311.978, 281.111 306.854, 273.155 305.118 C 261.458 302.566, 260.798 288.120, 271.419 267.160 C 277.834 254.500, 276.806 244.777, 268.672 241.179 C 262.416 238.412, 261.542 236.384, 263.580 229.373 C 266.417 219.615, 265.312 213.253, 259.694 207.005 C 254.325 201.033, 254.018 199.690, 257.500 197.408 C 258.875 196.507, 260 195.282, 260 194.685 C 260 193.969, 259.592 194.008, 258.800 194.800 C 256.853 196.747, 254.766 196.192, 250.109 192.490 C 245.324 188.686, 245.147 188.621, 243.117 189.906 M 281.043 204.448 C 278.254 207.808, 291.796 219.822, 298.527 219.959 C 304.390 220.078, 307.089 213.259, 302.750 209.291 C 297.225 204.239, 283.718 201.225, 281.043 204.448 M 406.603 210 C 405.945 216.161, 406.874 228.218, 409.031 241.500 C 409.566 244.800, 410.300 253.488, 410.660 260.807 C 411.250 272.774, 411.470 273.958, 412.852 272.577 C 414.233 271.196, 414.566 271.202, 416.160 272.644 C 417.837 274.162, 417.874 274.068, 416.862 270.874 C 416.274 269.018, 415.832 261.143, 415.880 253.374 C 415.973 238.393, 413.330 220.796, 409.216 209 L 407.297 203.500 406.603 210 M 286.658 209.601 C 290.051 214.780, 301 217.872, 301 213.652 C 301 210.947, 296.339 208.536, 289.216 207.555 L 284.931 206.965 286.658 209.601 M 166 208.606 C 166 209.159, 167.125 211.136, 168.500 213 C 169.875 214.864, 171 217.153, 171 218.087 C 171 220.642, 173.581 221.120, 175.561 218.933 C 177.556 216.728, 180.976 216.411, 182.922 218.250 C 184.012 219.280, 184.051 219.122, 183.145 217.358 C 181.077 213.330, 176.089 210, 172.123 210 C 170.075 210, 167.860 209.460, 167.200 208.800 C 166.524 208.124, 166 208.039, 166 208.606 M 320.312 211.186 C 319.740 211.909, 319.244 213.175, 319.210 214 C 319.175 214.825, 318.828 217.198, 318.439 219.273 C 317.597 223.759, 319.464 226.443, 324.068 227.364 C 325.893 227.729, 327.367 228.830, 327.902 230.228 C 328.380 231.478, 329.722 233.357, 330.885 234.405 C 335.617 238.667, 339.333 229.236, 335.062 223.806 C 333.996 222.451, 332.835 220.189, 332.481 218.781 C 331.153 213.491, 322.675 208.199, 320.312 211.186 M 160.583 215.500 C 161.960 221.281, 162.870 222.848, 162.905 219.500 C 162.922 217.850, 162.246 215.600, 161.402 214.500 C 159.943 212.598, 159.903 212.647, 160.583 215.500 M 322.644 217.198 C 321.472 221.573, 321.921 222.824, 324.896 223.477 C 328.132 224.188, 330.407 226.318, 331.884 230.021 L 332.873 232.500 332.937 229.579 C 332.971 227.972, 332.212 225.789, 331.250 224.728 C 330.288 223.667, 329.037 221.157, 328.472 219.150 C 327.220 214.705, 323.633 213.503, 322.644 217.198 M 391.165 218 C 391.158 219.375, 391.759 222.075, 392.500 224 C 394.277 228.615, 394.314 226.768, 392.570 220.500 C 391.737 217.505, 391.173 216.502, 391.165 218 M 416.297 220.500 C 418.579 228.354, 419.973 241.133, 419.847 253.049 C 419.713 265.772, 419.928 267.370, 423.823 282.585 C 429.012 302.860, 433.552 325.569, 435.002 338.500 C 435.618 344, 437.413 356.600, 438.990 366.500 C 440.567 376.400, 442.156 388.325, 442.521 393 C 442.885 397.675, 443.916 403.914, 444.811 406.865 L 446.438 412.231 447.549 407.865 C 448.323 404.823, 448.364 401.378, 447.683 396.500 C 447.146 392.650, 446.629 382.525, 446.536 374 C 446.380 359.726, 446.075 357.357, 442.683 344.053 C 440.658 336.108, 438.509 325.758, 437.909 321.053 C 437.308 316.349, 435.755 307.551, 434.456 301.501 C 432.292 291.418, 432.225 290.306, 433.650 288.131 L 435.204 285.759 437.352 287.905 C 438.533 289.086, 440.059 291.502, 440.741 293.276 L 441.982 296.500 441.428 293 C 441.123 291.075, 439.573 286.800, 437.984 283.500 C 434.420 276.103, 433.346 271.958, 432.072 260.686 C 431.193 252.909, 430.736 251.556, 428.188 249.175 C 425.610 246.767, 425.221 245.578, 424.568 238.089 C 423.686 227.978, 423.153 226.443, 418.967 221.973 C 416.634 219.481, 415.880 219.065, 416.297 220.500 M 370.391 230.548 C 369.003 235.440, 367.630 237.981, 365.230 240.094 C 359.518 245.125, 358.297 251.872, 362.500 255.179 C 365.446 257.496, 365.736 261.024, 363.171 263.345 C 361.140 265.183, 357.455 265.545, 356.500 264 C 356.160 263.450, 354.051 263, 351.812 263 L 347.742 263 348.406 268.001 C 349.205 274.023, 348.475 275.587, 341.415 282.985 C 328.245 296.785, 321 304.966, 321 306.036 C 321 306.675, 322.547 309.741, 324.438 312.849 C 326.343 315.980, 328.173 320.591, 328.543 323.190 C 328.917 325.823, 330.040 328.631, 331.104 329.595 C 332.147 330.538, 333 332.161, 333 333.200 C 333 335.243, 332.378 335.252, 345.434 333.016 C 348.697 332.457, 353.301 332, 355.663 332 C 358.026 332, 361.774 331.274, 363.992 330.387 C 368.235 328.689, 369.170 328.775, 375.319 331.434 L 379.139 333.085 378.560 313.792 C 376.977 260.966, 374.854 226.532, 373.067 224.691 C 372.635 224.246, 371.431 226.882, 370.391 230.548 M 223.281 229.250 C 222.751 229.938, 220.783 233.200, 218.909 236.500 L 215.500 242.500 215.781 257.291 C 216.001 268.918, 216.463 273.101, 217.941 276.849 C 218.974 279.472, 220.110 283.841, 220.465 286.559 C 221.992 298.270, 222.806 298.564, 229.282 289.750 C 231.808 286.313, 236.373 281.134, 239.427 278.241 C 244.517 273.422, 247.175 269.137, 248.602 263.451 C 249.107 261.436, 248.703 261.250, 242.761 260.773 C 230.328 259.775, 221.972 253.778, 225.201 248.169 C 229.558 240.599, 227.810 223.376, 223.281 229.250 M 174.805 234.122 C 175.355 237.873, 176.454 238.469, 180.060 236.975 C 183.034 235.743, 184.332 233.551, 181.428 234.666 C 180.563 234.998, 178.623 234.358, 177.117 233.245 L 174.379 231.220 174.805 234.122 M 237.061 234.886 C 235.214 238.338, 235.883 239.684, 240.283 241.364 C 250.151 245.132, 255.182 240.654, 246.182 236.114 C 239.821 232.905, 238.235 232.692, 237.061 234.886 M 229.606 247.411 C 226.637 252.958, 233.137 257, 245.027 257 C 256.179 257, 255.083 266.831, 242.504 279.623 C 238.652 283.540, 233.134 289.728, 230.241 293.373 C 222.902 302.622, 218.622 301.792, 217.023 290.808 C 216.597 287.889, 216.193 286.227, 216.125 287.115 C 215.883 290.242, 211.936 293.841, 205.390 296.905 C 197.366 300.659, 196.343 300.703, 192.931 297.434 L 190.252 294.867 190.752 297.485 C 191.100 299.303, 190.575 300.824, 189.033 302.465 L 186.814 304.827 192.700 304.293 C 202.665 303.390, 221 310.823, 221 315.767 C 221 316.546, 220.100 318.329, 219 319.727 C 216.417 323.011, 216.479 324.574, 219.463 331.321 C 222.261 337.647, 224.409 339.250, 228.598 338.138 C 231.830 337.279, 233.052 334.572, 235.551 322.732 C 236.669 317.439, 238.184 314.246, 242.505 308.080 C 245.544 303.743, 248.969 297.789, 250.118 294.848 C 251.955 290.141, 258.256 276.003, 264.206 263.233 C 266.903 257.447, 267.712 251.064, 265.895 249.914 C 262.977 248.067, 255.100 248.906, 251.212 251.478 C 243.314 256.705, 239.450 255.560, 233 246.078 L 231.500 243.873 229.606 247.411 M 200.120 257.880 C 198.937 259.063, 196.645 262.766, 195.025 266.110 C 193.405 269.454, 190.262 274.162, 188.040 276.573 C 185.818 278.983, 184 281.220, 184 281.543 C 184 284.407, 194.378 295.992, 196.962 296.012 C 197.808 296.019, 201.316 294.782, 204.759 293.262 C 212.787 289.719, 213.175 288.335, 209.122 277.696 C 207.406 273.188, 205.498 267.025, 204.884 264 C 203.257 255.984, 202.714 255.286, 200.120 257.880 M 414.641 280.210 C 413.532 284.348, 413.853 288.547, 415.176 287.224 C 416.022 286.378, 416.717 286.350, 417.650 287.124 C 418.601 287.914, 418.516 286.908, 417.329 283.350 C 415.330 277.362, 415.386 277.427, 414.641 280.210 M 188.655 282.829 C 181.866 290.330, 199.893 295.143, 208.384 288.096 C 212.277 284.865, 208.888 281.211, 204.178 283.561 C 201.275 285.009, 200.730 284.974, 196.401 283.059 C 190.740 280.555, 190.713 280.554, 188.655 282.829 M 191 285.893 C 191 286.950, 193.483 288.014, 195.832 287.965 C 197.023 287.939, 196.786 287.521, 195 286.500 C 192.068 284.824, 191 284.662, 191 285.893 M 416.546 300.750 C 417.834 316.595, 421.072 338.905, 423.985 352 C 427.260 366.716, 431.161 381.172, 431.710 380.623 C 432.150 380.183, 426.566 339.364, 423.895 323.500 C 419.451 297.096, 415.174 283.856, 416.546 300.750 M 390.408 299.510 C 389.594 302.752, 390.447 329.968, 391.433 332.212 C 392.122 333.781, 392.437 333.739, 395.212 331.712 L 398.239 329.500 397.555 316.049 C 396.655 298.389, 396.352 297, 393.394 297 C 391.713 297, 390.858 297.719, 390.408 299.510 M 442.010 297.780 C 442.004 298.484, 443.125 301.733, 444.500 305 C 445.875 308.267, 447.035 312.416, 447.077 314.220 C 447.119 316.024, 447.736 319.300, 448.447 321.500 L 449.741 325.500 449.282 319.500 C 449.029 316.200, 448.342 311.931, 447.755 310.013 C 446.323 305.331, 442.022 296.174, 442.010 297.780 M 404.151 303.500 C 403.922 309.137, 409.627 332.099, 413.095 339.500 C 413.820 341.047, 413.926 340.708, 413.566 338 C 413.310 336.075, 412.605 329.100, 412.001 322.500 C 410.566 306.841, 410.278 305.525, 408.591 306.924 C 407.074 308.183, 405.541 306.827, 404.724 303.500 L 404.232 301.500 404.151 303.500 M 439.436 304.330 C 439.745 305.336, 440.451 310.155, 441.004 315.039 C 442.173 325.356, 443.943 334.154, 447.704 348.335 C 450.024 357.084, 450.421 360.659, 450.552 374 C 450.637 382.525, 451.148 392.650, 451.688 396.500 C 452.428 401.771, 452.344 404.735, 451.347 408.500 C 449.860 414.117, 449.643 417.698, 450.992 414.355 C 451.468 413.175, 453.393 411.039, 455.270 409.608 C 457.358 408.015, 459.133 405.498, 459.846 403.121 C 461.579 397.335, 463.477 396.160, 466.499 398.999 C 468.515 400.893, 468.175 399.805, 464.548 392.757 C 462.023 387.849, 459.898 382.155, 459.549 379.360 C 459.215 376.687, 457.833 370.225, 456.476 365 C 455.120 359.775, 452.926 351, 451.602 345.500 C 450.277 340, 448.012 332.154, 446.567 328.065 C 445.122 323.975, 443.544 317.839, 443.061 314.428 C 442.578 311.018, 441.438 306.939, 440.528 305.364 C 439.618 303.789, 439.126 303.323, 439.436 304.330 M 176.881 307.268 C 175.495 309.144, 175.028 309.268, 173.650 308.124 C 172.551 307.212, 173.046 309.201, 175.207 314.378 C 178.117 321.351, 178.512 321.846, 180.053 320.452 C 183.987 316.891, 193.967 321.169, 190.546 324.950 C 188.896 326.772, 188.922 326.947, 191.094 328.681 C 203.986 338.974, 206.430 343.641, 201.927 349.365 L 199.855 352 203.677 351.985 C 208.472 351.965, 209.565 351.264, 211.326 347.076 C 213.341 342.283, 212.402 340.238, 206.908 337.453 C 198.112 332.996, 195.018 329.551, 196.240 325.571 C 197.771 320.580, 196.857 319.371, 190.957 318.589 C 182.544 317.473, 177.637 311.269, 181.655 306.829 C 183.215 305.105, 183.172 305.002, 180.905 305.037 C 179.582 305.058, 177.771 306.062, 176.881 307.268 M 402.050 324.139 C 401.998 329.984, 401.449 331.015, 395.760 335.952 C 393.051 338.303, 392.997 338.308, 390.861 336.414 L 388.701 334.500 389.433 337.500 C 389.836 339.150, 390.554 346.125, 391.027 353 C 391.847 364.894, 392.701 372.063, 395.106 387.224 L 396.172 393.949 398.836 390.781 C 401.349 387.793, 401.483 387.112, 401.193 378.728 C 400.865 369.198, 401.958 365.890, 404.687 368.155 C 407.885 370.809, 409.575 377.617, 412.517 399.696 C 413.337 405.854, 414.456 412.070, 415.004 413.511 C 415.552 414.952, 416 419.017, 416 422.546 C 416 428.738, 416.096 428.982, 418.750 429.541 C 425.085 430.876, 424.800 430.997, 424.422 427.127 C 424.227 425.132, 423.854 418.550, 423.595 412.500 C 423.010 398.877, 420.899 388.689, 417.113 381.226 C 414.461 375.996, 414.154 374.290, 413.568 361.528 C 413.022 349.623, 412.569 346.811, 410.510 342.528 C 409.180 339.762, 406.744 333.225, 405.096 328 L 402.100 318.500 402.050 324.139 M 183.251 328.834 C 184.211 339.417, 188.590 345.410, 196.273 346.657 C 202.070 347.598, 201.838 341.593, 195.893 336.806 C 187.084 329.714, 185.684 328.254, 185.517 325.974 C 185.421 324.676, 184.748 323.416, 184.020 323.173 C 182.982 322.827, 182.817 324.041, 183.251 328.834 M 306 329.758 C 306 330.366, 307.350 331.825, 309 333 C 310.737 334.237, 312 336.039, 312 337.281 C 312 338.460, 313.224 340.401, 314.721 341.594 C 317.113 343.502, 317.273 343.966, 316.046 345.445 C 314.778 346.972, 314.918 347.061, 317.575 346.422 C 321.350 345.514, 321.517 345.328, 320.094 343.613 C 319.282 342.635, 319.237 341.972, 319.951 341.530 C 321.869 340.345, 321.036 337.190, 318.007 334.161 C 316.361 332.515, 314.759 331.580, 314.448 332.084 C 313.477 333.656, 310.727 333.092, 308.314 330.826 C 307.042 329.630, 306 329.149, 306 329.758 M 355.484 340.746 C 361.493 341.115, 364.117 342.481, 366.164 346.306 C 367.363 348.547, 364.800 353, 362.310 353 C 361.406 353, 360.921 353.255, 361.232 353.566 C 363.172 355.505, 375 349.387, 375 346.444 C 375 343.305, 365.601 339.987, 357.283 340.189 C 349.966 340.367, 349.858 340.400, 355.484 340.746 M 345.826 347.314 C 347.022 348.587, 348 350.162, 348 350.814 C 348 352.256, 347.977 352.256, 355.804 350.578 C 363.011 349.032, 363.273 348.876, 362.417 346.643 C 361.896 345.286, 360.207 345, 352.719 345 L 343.651 345 345.826 347.314 M 326 351.703 C 322.917 352.041, 310.331 354.648, 287.500 359.678 C 283.650 360.526, 276.498 363.033, 271.606 365.249 C 266.715 367.465, 260.753 369.499, 258.356 369.769 C 254.403 370.215, 254 370.512, 254 372.980 C 254 374.476, 252.678 377.455, 251.062 379.600 C 249.447 381.745, 245.397 387.100, 242.062 391.500 C 237.999 396.861, 235.340 401.597, 234 405.855 C 230.136 418.136, 231.516 417.994, 245.270 404.700 C 252.561 397.652, 258.385 393.029, 263.713 390.060 C 273.939 384.363, 287.141 376.443, 293.122 372.418 C 295.757 370.645, 302.320 367.743, 307.706 365.971 C 319.434 362.111, 337.920 354.327, 339.964 352.389 C 341.469 350.961, 335.466 350.667, 326 351.703 M 245 360.565 C 245 360.875, 245.963 363.367, 247.139 366.102 C 249.185 370.857, 249.328 370.974, 250.413 368.787 C 251.303 366.992, 252.617 366.392, 256.523 366 L 261.500 365.500 255.184 362.750 C 249.279 360.179, 245 359.261, 245 360.565 M 418.084 368 C 418.015 374.490, 418.408 376.266, 421.003 381.189 C 425.055 388.875, 426.929 398.446, 428.112 417.500 C 429.937 446.860, 431.322 458.351, 432.758 456.032 C 433.451 454.914, 434.924 454, 436.032 454 C 437.921 454, 437.950 453.853, 436.494 451.631 C 432.343 445.295, 428.620 413.569, 431.398 408.197 C 432.893 405.305, 432.906 404.718, 431.526 402.050 C 430.687 400.427, 430 398.469, 430 397.699 C 430 396.928, 428.801 394.093, 427.335 391.399 C 425.869 388.705, 423.206 380.650, 421.416 373.500 L 418.163 360.500 418.084 368 M 428.004 384.027 C 428.006 384.837, 428.978 387.075, 430.164 389 C 431.351 390.925, 432.872 394.300, 433.545 396.500 L 434.769 400.500 435.496 396.750 C 436.594 391.084, 435.399 386.083, 433.091 386.687 C 431.908 386.996, 430.647 386.334, 429.617 384.864 C 428.574 383.374, 428.001 383.078, 428.004 384.027 M 405 387.223 C 405 388.116, 403.839 390.227, 402.419 391.914 L 399.838 394.981 400.944 412.974 C 402.291 434.891, 401.996 434, 407.907 434 C 413.854 434, 414.995 435.195, 415.022 441.450 C 415.045 446.787, 417.553 453.565, 420.366 455.893 C 422.985 458.060, 423.219 456.877, 422.206 446.565 C 421.272 437.054, 419.567 433, 416.500 433 C 413.603 433, 412 429.344, 412 422.736 C 412 419.103, 411.552 414.952, 411.004 413.511 C 410.456 412.070, 409.367 405.686, 408.582 399.324 C 407.377 389.551, 405 381.520, 405 387.223 M 471.419 398.417 C 473.292 401.946, 475.339 407.459, 475.969 410.667 C 476.600 413.875, 478.434 421.334, 480.047 427.243 C 483.312 439.209, 482.743 445.686, 477.825 452.500 L 475.661 455.500 477.809 453.614 C 483.419 448.690, 485.100 438.057, 482.060 426.729 C 480.993 422.753, 479.378 416.003, 478.470 411.729 C 477.278 406.116, 475.711 402.297, 472.827 397.979 C 467.658 390.238, 467.162 390.392, 471.419 398.417 M 463.203 404.691 C 462.393 407.329, 462.392 408.008, 463.200 407.200 C 463.939 406.461, 464.904 406.413, 466.104 407.056 C 467.740 407.931, 467.808 407.747, 466.853 405.007 C 465.340 400.669, 464.460 400.593, 463.203 404.691 M 438 403.678 C 438 404.820, 438.740 406.369, 439.644 407.120 C 441.116 408.341, 441.209 408.223, 440.532 405.992 C 439.466 402.481, 438 401.141, 438 403.678 M 434.607 409.582 C 433.319 412.938, 433.904 421.325, 435.342 420.131 C 436.080 419.519, 436.980 419.313, 437.342 419.675 C 438.176 420.509, 438.196 415.232, 437.375 411.125 C 436.694 407.722, 435.563 407.091, 434.607 409.582 M 461.198 414.296 C 457.235 418.384, 457.004 423.337, 460.043 438.990 C 462.419 451.228, 462.514 451.377, 466.677 449.360 C 470.748 447.388, 471.093 446.338, 469.982 439.301 C 469.478 436.111, 468.354 428.776, 467.484 423.001 C 465.595 410.459, 465.305 410.058, 461.198 414.296 M 442.319 422.200 C 442.695 426.426, 443.861 430.766, 445.478 433.956 C 448.853 440.616, 449.760 447.191, 447.732 450.286 C 446.236 452.570, 446.268 452.614, 449.109 452.197 C 450.709 451.962, 452.635 452.282, 453.389 452.908 C 455.016 454.258, 454.726 449.230, 452.472 437 C 451.712 432.875, 450.790 426.892, 450.424 423.704 C 449.797 418.245, 449.656 418.001, 447.993 419.507 C 446.358 420.986, 446.060 420.897, 443.975 418.302 L 441.724 415.500 442.319 422.200 M 223.747 431.725 C 221.683 436.001, 219.995 439.913, 219.997 440.418 C 219.999 440.923, 217.773 446.128, 215.051 451.985 C 209.962 462.938, 208.022 470.926, 208.007 481 C 208.001 485.029, 207.192 488.205, 204.984 492.872 L 201.969 499.244 205.074 495.920 C 206.782 494.092, 209.218 489.736, 210.486 486.241 C 213.300 478.490, 215.178 476.299, 220.155 474.958 C 222.265 474.390, 224.904 472.929, 226.019 471.713 C 227.133 470.496, 232.420 466.575, 237.765 463 C 247.479 456.504, 247.486 456.497, 248.191 451.532 C 248.579 448.799, 248.716 446.383, 248.495 446.162 C 247.421 445.087, 242.508 447.464, 237.690 451.389 C 229.303 458.219, 228.263 458.596, 225.343 455.852 C 223.482 454.104, 222.936 452.667, 223.125 450.016 C 223.263 448.082, 223.028 444.875, 222.603 442.890 C 221.962 439.895, 222.365 438.220, 224.972 433.055 C 226.700 429.632, 227.976 426.183, 227.807 425.391 C 227.638 424.599, 225.811 427.449, 223.747 431.725 M 436.423 430.449 C 435.929 432.419, 436.393 434.808, 437.966 438.384 C 439.204 441.198, 440.445 444.512, 440.725 445.750 C 441.004 446.988, 441.685 448, 442.237 448 C 444.204 448, 442.416 436.691, 439.718 432.066 L 437.131 427.631 436.423 430.449 M 402.573 440.859 C 400.744 444.395, 400.357 452.642, 401.450 464.742 L 402.286 473.985 405.893 474.987 C 411.071 476.425, 422.540 476.273, 423.742 474.750 C 424.284 474.063, 424.987 470.251, 425.304 466.279 C 425.855 459.354, 425.800 459.108, 423.967 460.253 C 419.795 462.858, 411.066 450.719, 411.022 442.250 C 411 438.070, 410.943 438, 407.526 438 C 404.715 438, 403.769 438.546, 402.573 440.859 M 434.522 464.750 C 433.733 473.120, 431.501 479.536, 428.694 481.502 C 426.942 482.729, 426.860 483, 428.243 483 C 433.648 483, 440.521 472.819, 439.609 466.164 C 439.140 462.740, 439.389 461.228, 440.651 459.833 C 442.230 458.088, 442.138 458, 438.735 458 L 435.159 458 434.522 464.750 M 397.416 470.718 C 397.562 479.557, 398.086 480.118, 406.658 480.603 L 413.500 480.990 408.206 479.628 C 400.803 477.724, 398.189 474.986, 397.694 468.619 C 397.443 465.386, 397.341 466.159, 397.416 470.718 M 394 480.758 C 394 482.012, 394.840 483.132, 396.075 483.524 C 399.155 484.501, 399.300 483.631, 396.496 480.996 C 394.033 478.682, 394 478.679, 394 480.758 M 342.342 514.473 C 341.179 515.287, 339.944 517.089, 339.595 518.477 C 339.238 519.901, 338.242 521, 337.310 521 C 333.911 521, 331.904 523.987, 333.356 526.884 C 334.077 528.323, 335.304 530.806, 336.083 532.403 C 339.842 540.105, 345.896 540.645, 347.201 533.394 C 347.587 531.252, 348.466 527.125, 349.154 524.222 C 350.733 517.567, 346.524 511.544, 342.342 514.473 M 390.200 517.200 C 387.802 519.598, 389.805 530.609, 393.199 533.680 C 395.129 535.427, 395.253 535.406, 397.196 533.007 C 399.831 529.752, 399.146 524.369, 395.486 519.570 C 392.501 515.657, 391.977 515.423, 390.200 517.200 M 342.936 520.236 C 342.146 522.031, 340.488 523.944, 339.250 524.487 C 336.820 525.553, 336.418 526.522, 338 527.500 C 338.550 527.840, 339 528.959, 339 529.988 C 339 531.016, 339.778 532.635, 340.728 533.585 C 342.658 535.515, 342.428 535.998, 345.170 524.248 C 346.673 517.808, 345.183 515.132, 342.936 520.236 M 370.689 528.791 C 367.609 532.194, 366.464 540.909, 368.792 543.236 C 371.287 545.732, 372.670 544.938, 375.082 539.627 C 377.464 534.382, 377.493 530.756, 375.171 528.655 C 372.888 526.589, 372.676 526.595, 370.689 528.791 M 225.413 539.492 C 224.444 540.971, 224.071 542.699, 224.496 543.742 C 225.112 545.254, 228.156 581.402, 228.200 587.720 C 228.208 588.941, 226.785 591.746, 225.038 593.952 C 222.216 597.515, 221.726 600, 223.846 600 C 225.274 600, 232.227 589.708, 232.206 587.624 C 232.145 581.579, 229.116 545.220, 228.530 543.500 C 227.922 541.714, 227.969 541.687, 228.970 543.243 C 230.860 546.181, 232.978 554.277, 232.989 558.609 C 232.996 561.245, 234.079 564.740, 236.008 568.356 C 237.663 571.456, 239.934 577.929, 241.056 582.740 C 243.010 591.120, 247.088 600, 248.983 600 C 250.909 600, 250.938 598.010, 249.061 594.827 C 247.981 592.997, 246.180 587.561, 245.057 582.746 C 243.935 577.932, 241.663 571.456, 240.008 568.356 C 238.079 564.740, 236.996 561.245, 236.989 558.609 C 236.975 553.222, 234.572 545.463, 231.463 540.764 C 228.533 536.337, 227.608 536.143, 225.413 539.492 M 281.046 553.691 C 272.441 561.445, 275.046 572.731, 285.214 571.753 C 294.718 570.840, 297.400 564.716, 292.113 556 C 288.666 550.318, 285.518 549.662, 281.046 553.691 M 283.200 555.855 C 281.676 556.822, 279.090 564.933, 279.728 566.750 C 280.189 568.065, 284.939 568.391, 288.750 567.370 C 291.558 566.617, 291.778 562.530, 289.250 558.087 C 287.496 555.005, 285.627 554.316, 283.200 555.855 M 282.426 579.082 C 281.381 580.236, 280.590 583.392, 280.265 587.702 C 279.902 592.518, 279.184 595.125, 277.801 596.645 C 274.715 600.036, 277.631 600.727, 281.081 597.422 C 283.465 595.138, 284.003 593.789, 284.014 590.063 C 284.037 582.362, 284.626 581.343, 289.159 581.165 L 293.170 581.008 292.489 588.275 C 291.897 594.593, 292.060 595.853, 293.742 597.930 C 296.100 600.842, 298.595 599.980, 296.912 596.835 C 296.212 595.527, 296.069 592.289, 296.516 587.842 C 297.103 581.993, 296.938 580.589, 295.471 578.968 C 293.125 576.375, 284.810 576.448, 282.426 579.082" stroke="none" fill="#1A1A1A" fill-rule="evenodd"/>
</svg>