<svg xmlns="http://www.w3.org/2000/svg" width="507" height="600" viewBox="0 0 507 600" version="1.1">
	<rect x="0" y="0" width="100%" height="100%" fill="#FFFFFF" />
	<path d="M 300.251 67.545 C 291.978 69.773, 287.040 72.766, 279.361 80.206 C 273.326 86.053, 271.082 87.518, 264.861 89.670 C 260.812 91.071, 255.025 93.720, 252 95.555 C 248.975 97.391, 242.740 99.839, 238.145 100.995 C 219.304 105.734, 209.845 110.490, 198.098 121.129 C 189.985 128.478, 186.903 131.909, 176.289 145.414 C 170.918 152.248, 165 167.770, 165 175.021 C 165 179.985, 164.209 183.030, 160.892 190.835 C 156.266 201.720, 155.560 208.709, 158.420 215.301 C 160.252 219.523, 159.466 226.910, 156.297 235.248 C 151.151 248.787, 155.904 287.730, 165.899 313.931 C 168.580 320.959, 171.539 329.342, 172.475 332.562 C 179.001 355.011, 196.659 365.202, 221.078 360.612 C 234.656 358.060, 234.151 357.890, 237.822 366.250 C 242.028 375.830, 242.015 375.907, 234.517 385.977 C 225.634 397.908, 222.957 404.105, 222.055 414.825 C 221.556 420.746, 220.602 424.907, 219.049 427.933 C 217.797 430.371, 215.735 435.096, 214.466 438.433 C 213.197 441.770, 210.068 448.891, 207.513 454.257 C 203.142 463.435, 202.814 464.710, 201.982 475.744 L 201.097 487.474 181.558 526.487 C 170.812 547.944, 160.921 568.425, 159.579 572 C 158.238 575.575, 155.502 582.213, 153.500 586.751 C 149.824 595.087, 149.289 599.500, 151.955 599.500 C 152.826 599.500, 153.717 598.025, 154.174 595.826 C 154.594 593.806, 156.917 587.731, 159.337 582.326 C 161.757 576.922, 164.044 571.375, 164.420 570 C 164.795 568.625, 174.102 549.484, 185.101 527.465 L 205.100 487.430 205.983 475.722 C 206.814 464.713, 207.144 463.431, 211.513 454.257 C 214.068 448.891, 217.201 441.800, 218.474 438.500 C 222.953 426.893, 225.979 421.167, 225.990 424.283 C 225.996 425.814, 224.885 429.268, 223.521 431.958 C 222.158 434.649, 219.914 441.046, 218.535 446.175 C 217.155 451.304, 214.926 458.200, 213.580 461.500 C 212.234 464.800, 210.162 472.450, 208.977 478.500 C 207.091 488.122, 206.097 490.753, 201.037 499.500 C 191.322 516.297, 171.955 556.829, 163.389 578.291 C 159.427 588.218, 157.970 593.122, 158.192 595.791 C 158.673 601.583, 161.347 600.707, 162.135 594.500 C 162.794 589.307, 170.397 569.798, 178.503 552.500 C 189.194 529.687, 199.603 508.895, 205.037 499.500 C 210.097 490.753, 211.091 488.122, 212.977 478.500 C 214.162 472.450, 216.234 464.800, 217.580 461.500 C 218.926 458.200, 221.155 451.304, 222.535 446.175 C 223.914 441.046, 226.158 434.649, 227.521 431.958 C 229.084 428.874, 230 425.378, 230 422.498 C 230 418.240, 230.136 418.002, 232 419 C 234.529 420.354, 236.313 419.406, 241.500 413.954 C 247.618 407.523, 259.274 398.496, 266.763 394.388 C 270.468 392.355, 278 387.678, 283.500 383.992 C 297.969 374.298, 298.611 374.010, 295.474 378.633 C 293.833 381.051, 293.190 383.024, 293.611 384.351 C 295.576 390.542, 294.422 398.514, 290.685 404.570 C 286.213 411.814, 286.080 415.088, 290.018 420.900 C 291.658 423.321, 293 426.156, 293 427.200 C 293 429.766, 295.313 434.068, 298 436.500 C 301.945 440.070, 303.323 444.177, 304.084 454.629 C 304.660 462.546, 305.470 466.258, 307.792 471.629 C 311.989 481.335, 312.865 484.477, 313.782 493.115 C 315.006 504.646, 314.372 505.227, 307.492 498.886 L 303.028 494.771 298.994 496.386 C 293.461 498.600, 291.433 498.401, 284.525 494.969 C 272.710 489.098, 268.905 491.529, 257.548 512.206 C 252.334 521.700, 251.822 527.794, 255.632 535.042 C 259.364 542.145, 260.023 553.907, 257.505 568.500 C 254.642 585.087, 254.952 584.842, 249.898 574.500 L 245.500 565.500 245.757 554 C 245.898 547.675, 246.460 540.055, 247.007 537.066 C 250.197 519.615, 228.056 509.907, 221.639 525.944 C 220.064 529.881, 218.352 552.460, 217.757 577.148 C 217.461 589.423, 216.582 591.112, 209.573 592.877 C 203.943 594.295, 200.032 597.382, 201.708 599.087 C 202.635 600.030, 203.244 600.042, 204.329 599.142 C 205.107 598.497, 208.038 597.287, 210.844 596.454 C 214.557 595.351, 216.699 593.950, 218.716 591.305 L 221.488 587.672 222.227 565.086 C 223.512 525.803, 224.458 522, 232.952 522 C 240.917 522, 244.712 527.737, 242.987 537.171 C 242.451 540.102, 241.898 547.675, 241.757 554 L 241.500 565.500 245.652 574 C 247.935 578.675, 250.892 583.515, 252.222 584.756 L 254.641 587.011 256.809 584.704 C 262.641 578.495, 264.658 544.605, 259.750 535.268 C 255.228 526.666, 256.126 521.283, 264.455 507.077 C 271.617 494.860, 274.176 493.826, 284.525 498.969 C 291.433 502.401, 293.461 502.600, 298.994 500.386 L 303.028 498.771 307.492 502.886 C 314.777 509.601, 318.352 507.998, 318.128 498.116 C 317.943 489.929, 316.467 482.911, 313.411 475.685 C 309.468 466.365, 308.002 460.253, 307.978 453.032 C 307.954 445.872, 305.786 439.839, 302.039 436.502 C 299.328 434.088, 297 429.791, 297 427.200 C 297 426.156, 295.658 423.321, 294.018 420.900 C 290.180 415.235, 290.211 411.630, 294.151 405.446 C 298.152 399.167, 299.152 394.722, 298.083 387.962 C 296.638 378.819, 298.506 377.072, 316.649 370.598 C 322.230 368.606, 331.455 364.932, 337.149 362.434 C 342.842 359.935, 351.260 357.050, 355.855 356.022 C 376.282 351.451, 373.263 339.232, 351.842 339.784 C 342.429 340.026, 317.600 343.893, 314.954 345.529 C 314.542 345.783, 306.171 347.573, 296.352 349.506 C 286.534 351.440, 274.958 354.196, 270.630 355.633 C 263.869 357.876, 262.247 358.087, 259.130 357.128 C 245.010 352.787, 246.327 352.955, 243.554 355.137 C 241.804 356.512, 241 358.114, 241 360.220 L 241 363.296 238.750 359.992 C 235.062 354.576, 234.239 354.386, 222.803 356.310 C 217.136 357.263, 210.250 357.984, 207.500 357.912 L 202.500 357.781 206.836 356.928 C 209.221 356.459, 213.271 354.894, 215.836 353.450 C 219.227 351.542, 222.821 350.591, 229 349.966 C 233.675 349.493, 239.072 348.633, 240.993 348.053 C 242.915 347.474, 247.614 347, 251.435 347 C 262.109 347, 279.510 335.431, 275.500 331 C 273.166 328.421, 273.046 328.435, 265.394 332.125 C 246.957 341.017, 241.128 330.671, 252.255 308.807 C 255.420 302.588, 259.610 292.827, 261.566 287.115 C 263.523 281.403, 266.861 272.853, 268.985 268.115 C 275.263 254.107, 275.102 250.007, 268.088 245.280 C 263.509 242.195, 257.367 242.274, 251 245.500 C 243.231 249.437, 236.850 247.045, 235.468 239.679 C 233.942 231.549, 237.739 229.350, 247 233 C 256.287 236.661, 261.643 233.554, 263.859 223.222 C 265.416 215.963, 264.034 212.698, 254.987 202.250 C 247.400 193.488, 246.065 191.222, 250.441 194.532 C 258.215 200.412, 264.155 191.104, 259.034 181.066 C 256.298 175.703, 256.492 175.555, 263.784 177.444 C 267.086 178.300, 270.673 179, 271.754 179 C 272.835 179, 276.488 180.428, 279.873 182.174 L 286.027 185.348 288.870 182.624 C 290.434 181.126, 292.244 178.130, 292.892 175.967 C 294.409 170.901, 296.718 169.610, 300.580 171.664 C 309.381 176.346, 313.041 175.107, 315.511 166.609 C 316.497 163.219, 318.395 159.871, 320.643 157.556 C 324.468 153.617, 324.491 153.318, 321.595 145 C 320.734 142.525, 319.808 139.338, 319.537 137.917 C 319.267 136.496, 317.145 133.174, 314.823 130.536 C 311.102 126.309, 310.891 125.828, 313.050 126.492 C 318.018 128.019, 335.722 136.798, 342.974 141.329 C 354.637 148.617, 358.058 147.520, 354.913 137.500 C 352.433 129.601, 352.494 129, 355.777 129 C 357.305 129, 359.620 128.254, 360.922 127.342 C 362.313 126.368, 364.954 125.749, 367.321 125.841 C 376.540 126.203, 378.798 120.115, 371.918 113.453 C 366.542 108.248, 365.286 105.651, 364.413 97.936 C 363.616 90.890, 355.790 80.813, 348.898 77.958 C 347.269 77.283, 346.132 76.535, 346.371 76.296 C 347.202 75.465, 355.535 80.293, 361.694 85.174 C 370.857 92.436, 373.794 98.154, 370.813 102.928 C 369.780 104.583, 370.339 105.599, 375.135 110.779 C 381.587 117.748, 383.997 122.331, 384.008 127.651 C 384.036 142.112, 391.528 161.393, 396.156 158.917 C 401.053 156.296, 409.289 176.347, 410.487 193.809 C 410.869 199.371, 412.450 208.399, 414.198 215 C 418.290 230.451, 418.584 231.762, 420.893 244.863 C 422.072 251.555, 423.573 256.975, 424.543 258.047 C 428.493 262.413, 430.403 272.096, 426.818 269.585 C 421.886 266.131, 420.244 274.094, 424.250 282.038 C 426.933 287.359, 427.966 287.569, 430.132 283.233 L 431.763 279.967 434.833 283.463 C 436.710 285.600, 438.742 289.785, 440.062 294.230 C 441.250 298.228, 442.874 302.769, 443.672 304.319 C 444.470 305.870, 445.771 310.595, 446.563 314.819 C 447.355 319.044, 449.530 327.675, 451.397 334 C 454.491 344.480, 461.025 371.430, 462.551 380 C 463.103 383.098, 464.692 386.573, 472.254 401.213 C 473.309 403.255, 475.201 409.379, 476.459 414.821 C 477.716 420.263, 479.531 427.083, 480.492 429.977 C 483.535 439.136, 480.207 451.387, 473.838 454.477 L 470.500 456.097 473.278 453.945 C 479.902 448.813, 480.468 442.123, 476.067 420.988 C 472.935 405.953, 470.410 400.205, 464.894 395.564 C 461.123 392.391, 458 394.048, 458 399.221 C 458 402.761, 457.015 404.702, 453.082 408.912 C 447.840 414.523, 447.743 423.838, 452.654 449.878 C 452.901 451.186, 454.395 453.549, 455.974 455.128 C 457.554 456.708, 458.736 458, 458.601 458 C 458.466 458, 456.260 457.286, 453.698 456.413 C 444.400 453.245, 435.771 458.387, 434.585 467.803 C 433.065 479.872, 430.779 481.563, 414.571 482.611 C 394.651 483.899, 395.382 484.826, 394.766 457.500 C 394.505 445.950, 394.434 438.750, 394.607 441.500 C 397.012 479.737, 397.246 480.270, 411.875 480.842 C 427.598 481.458, 430.185 478.961, 432.098 461.324 L 433.285 450.376 435.597 452.688 C 438.996 456.087, 443.865 455.794, 447.529 451.970 C 451.200 448.138, 451.184 442.856, 447.475 433.787 C 446.060 430.329, 444.241 423.119, 443.432 417.764 C 442.623 412.409, 441.520 406.867, 440.981 405.449 C 440.441 404.030, 440.005 398.287, 440.011 392.685 C 440.027 378.257, 431.366 319.137, 426.043 297.341 C 416.442 258.023, 408.043 261.010, 408.724 303.500 C 409.124 328.417, 406.221 312.469, 403.446 274.500 C 401.745 251.224, 401.642 250.601, 398.343 243.500 C 397.065 240.750, 396.005 236.925, 395.988 235 C 395.971 233.075, 395.055 227.450, 393.953 222.500 C 390.497 206.977, 389.806 200.093, 389.586 179 C 389.382 159.554, 389.238 158.166, 386.785 152 C 385.362 148.425, 383.460 143.190, 382.558 140.368 C 378.510 127.702, 374.471 129.693, 373.602 144.782 C 373.262 150.677, 372.733 157.975, 372.427 161 C 372.092 164.314, 372.908 174.846, 374.480 187.500 C 377.927 215.235, 378.451 222.232, 375.976 207.500 C 369.943 171.576, 369.190 168.830, 365.010 167.503 C 363.886 167.146, 362.090 165.136, 361.018 163.035 C 357.728 156.586, 344.005 145.876, 341.255 147.611 C 338.063 149.624, 339.059 152.256, 345.564 158.994 C 352.904 166.597, 353.550 169.141, 349.195 173.313 C 345.565 176.791, 344.966 176.728, 338.195 172.148 C 325.077 163.276, 319 165.090, 319 177.878 L 319 181.820 313.250 180.358 C 295.691 175.896, 293.014 177.844, 296.817 192.316 C 298.039 196.968, 296.731 197.835, 291.059 196.136 C 288.974 195.511, 286.092 195, 284.655 195 C 283.218 195, 279.045 194.016, 275.381 192.813 L 268.721 190.627 266.860 192.924 C 263.422 197.170, 264.648 202.538, 270.826 210.291 C 273.556 213.717, 273.795 214.586, 273.307 219.313 L 272.767 224.544 280.227 234.522 C 284.329 240.010, 290.344 246.964, 293.593 249.975 C 300.451 256.332, 302.983 259.704, 302.997 262.500 C 303.003 263.600, 304.354 267.200, 306 270.500 C 307.646 273.800, 308.994 277.893, 308.996 279.595 C 309.003 285.568, 312.014 286.625, 322.750 284.423 C 325.483 283.863, 325.799 286.553, 323.520 290.961 C 320.909 296.010, 317.375 298, 311.020 298 C 304.091 298, 302 299.775, 302 305.654 C 302 310.371, 305.152 314, 309.249 314 C 315.755 314, 319.092 317.574, 320.455 326 C 320.816 328.237, 322.748 331.451, 325.807 334.906 L 330.594 340.312 343.659 338.656 C 360.196 336.560, 367.429 336.567, 373.983 338.683 C 380.555 340.806, 382.316 339.873, 383.015 333.898 L 383.530 329.500 384.324 336 C 384.761 339.575, 385.537 347.900, 386.049 354.500 C 386.562 361.100, 387.206 367.850, 387.481 369.500 C 387.757 371.150, 386.897 368.502, 385.571 363.616 C 382.352 351.754, 381.809 351.285, 374.935 354.420 C 371.801 355.849, 365.894 357.343, 360.983 357.948 C 349.485 359.366, 339.075 362.371, 331.220 366.539 C 327.633 368.443, 324.126 370, 323.426 370 C 320.338 370, 316.001 375.132, 315.956 378.839 C 315.916 382.095, 314.929 387.618, 310.924 407 C 310.299 410.025, 308.853 414.975, 307.711 418 C 304.736 425.879, 305.001 431.168, 308.798 439.668 C 310.559 443.610, 312 448.080, 312 449.602 C 312 458.381, 318.476 470.182, 322.455 468.656 C 324.440 467.894, 326 463.871, 326 459.517 C 326 452.392, 328.417 451.403, 336.905 455.055 C 341.586 457.068, 345 461.511, 345 465.589 C 345 467.079, 335.426 472, 332.527 472 C 331.749 472, 329.964 473.012, 328.562 474.250 L 326.013 476.500 329.488 484 C 333.517 492.696, 333.686 494.618, 331.070 502.059 C 328.129 510.428, 327.459 522.908, 329.440 532.424 C 330.491 537.474, 331.028 544.366, 330.920 551.424 C 330.788 560.032, 331.138 563.390, 332.490 566.493 C 334.974 572.195, 333.998 579.332, 329.482 588.470 C 327.472 592.538, 325.985 596.684, 326.178 597.683 C 326.791 600.870, 329.237 599.636, 330.505 595.500 C 331.180 593.300, 332.942 589.213, 334.421 586.418 C 337.978 579.695, 338.799 571.791, 336.490 566.493 C 335.138 563.390, 334.788 560.032, 334.920 551.424 C 335.028 544.366, 334.491 537.474, 333.440 532.424 C 331.459 522.908, 332.129 510.428, 335.070 502.059 C 337.654 494.710, 337.520 492.603, 333.999 485.160 C 330.633 478.044, 330.303 476, 332.522 476 C 335.991 476, 347.006 470.080, 348.131 467.612 C 351.183 460.913, 339.569 449.046, 329.924 449.010 C 325.963 448.995, 322.637 453.236, 322.022 459.085 C 321.735 461.820, 321.066 464.157, 320.536 464.279 C 319.310 464.560, 316.142 454.569, 316.061 450.168 C 316.027 448.335, 314.559 443.610, 312.798 439.668 C 309.001 431.168, 308.736 425.879, 311.711 418 C 312.853 414.975, 314.299 410.025, 314.924 407 C 318.930 387.612, 319.916 382.094, 319.956 378.828 C 319.996 375.482, 320.334 375.046, 323.750 373.930 C 325.813 373.256, 329.750 371.449, 332.500 369.913 C 338.735 366.431, 349.865 363.319, 360.983 361.948 C 365.667 361.371, 371.789 359.854, 374.588 358.579 L 379.676 356.259 381.406 363.380 C 383.936 373.791, 386.994 392.793, 386.997 398.121 C 386.999 400.662, 387.648 409.212, 388.440 417.121 C 389.232 425.029, 390.184 442.251, 390.556 455.392 L 391.233 479.283 394.517 482.867 C 397.629 486.263, 398.187 486.470, 405.151 486.804 C 427.936 487.896, 436.877 482.813, 438.596 467.789 L 439.250 462.078 444.145 460.452 C 448.632 458.961, 449.429 458.958, 453.698 460.413 C 472.773 466.912, 491.110 448.734, 484.468 429.909 C 483.625 427.521, 481.865 420.925, 480.557 415.251 C 479.248 409.578, 477.313 403.263, 476.257 401.218 C 468.689 386.566, 467.103 383.098, 466.551 380 C 465.025 371.430, 458.491 344.480, 455.397 334 C 453.530 327.675, 451.355 319.044, 450.563 314.819 C 449.771 310.595, 448.470 305.870, 447.672 304.319 C 446.874 302.769, 445.232 298.169, 444.023 294.097 C 442.254 288.142, 440.872 285.687, 436.954 281.545 C 433.235 277.613, 432.219 275.878, 432.657 274.205 C 433.627 270.492, 432.024 263.314, 429.340 259.359 C 427.506 256.656, 426.233 252.470, 424.837 244.546 C 422.614 231.933, 422.331 230.665, 418.241 215 C 416.590 208.675, 414.775 198.550, 414.208 192.500 C 412.376 172.964, 403.150 152.548, 397.031 154.490 C 393.257 155.688, 388.032 140.148, 388.008 127.651 C 387.997 122.331, 385.587 117.748, 379.135 110.779 C 374.339 105.599, 373.780 104.583, 374.813 102.928 C 380.548 93.744, 357.369 73.194, 337.651 69.981 C 333.718 69.340, 327.189 68.182, 323.143 67.408 C 314.037 65.665, 307.076 65.707, 300.251 67.545 M 305.083 70.362 C 305.313 70.560, 309.550 70.950, 314.500 71.227 C 319.450 71.504, 322.150 71.395, 320.500 70.984 C 317.461 70.227, 304.316 69.696, 305.083 70.362 M 294.892 73.354 C 287.967 76.203, 284.890 78.397, 278.500 85.039 C 271.613 92.198, 276.568 89.525, 284.775 81.654 C 289.724 76.906, 292.469 75.152, 297.775 73.344 C 301.474 72.083, 303.600 71.051, 302.500 71.050 C 301.400 71.048, 297.977 72.086, 294.892 73.354 M 297.775 77.344 C 292.433 79.164, 289.656 80.950, 284.275 86.023 C 280.549 89.537, 277.379 92.478, 277.230 92.559 C 277.082 92.640, 279.332 91.887, 282.230 90.886 C 290.019 88.195, 297.960 88.439, 304.116 91.559 C 309.316 94.194, 313.717 94.467, 313.216 92.123 C 311.696 85.018, 315.543 78, 320.957 78 C 324.963 78, 323.759 76.239, 319.337 75.633 C 311.064 74.499, 304.623 75.010, 297.775 77.344 M 346.771 82.002 C 358.388 89.085, 360.422 109.187, 349.061 104.641 C 342.893 102.173, 329.600 102.383, 326.273 105 C 324.874 106.100, 322.666 107, 321.365 107 C 317.607 107, 318.566 109.304, 324.640 114.867 C 330.199 119.959, 330.254 120.062, 328.429 122.078 C 327.384 123.233, 325.800 123.919, 324.789 123.655 C 320.341 122.492, 323.254 126.707, 328.750 129.386 C 331.913 130.928, 338.221 134.463, 342.770 137.242 C 352.186 142.995, 352.843 142.923, 350.612 136.376 C 347.935 128.520, 349.480 125, 355.606 125 C 357.228 125, 359.619 124.254, 360.920 123.343 C 362.372 122.327, 364.969 121.750, 367.643 121.851 C 373.555 122.075, 373.656 119.009, 367.918 113.453 C 362.554 108.259, 361.286 105.649, 360.423 98.026 C 359.606 90.805, 355.758 85.448, 348.858 81.928 C 343.921 79.409, 342.595 79.456, 346.771 82.002 M 320.321 82.100 C 316.803 83.118, 316.055 84.893, 317.094 89.749 C 318.685 97.184, 312.599 99.857, 304 95.500 C 297.829 92.373, 289.822 92.217, 282 95.073 C 278.975 96.177, 273.800 98.049, 270.500 99.231 C 263.962 101.575, 264.799 102.677, 273.286 102.900 C 280.375 103.087, 294.473 107.278, 306.500 112.773 C 313.100 115.789, 320.027 118.616, 321.894 119.055 L 325.288 119.854 320.284 114.677 C 312.907 107.046, 313.049 103, 320.694 103 C 322.364 103, 324.874 102.100, 326.273 101 C 329.495 98.465, 343.059 98.162, 348.654 100.500 C 353.456 102.506, 353.348 102.580, 352.586 97.811 C 350.562 85.155, 335.354 77.750, 320.321 82.100 M 253.482 98.724 C 251.292 100.223, 247.250 102.233, 244.500 103.192 C 238.892 105.147, 239.916 105.563, 246.307 103.927 C 248.613 103.336, 252.300 101.318, 254.500 99.442 C 259.328 95.323, 258.897 95.019, 253.482 98.724 M 256.370 105.651 C 253.548 106.956, 248.598 108.491, 245.370 109.062 C 227.781 112.174, 212.680 118.634, 203.064 127.159 C 198.079 131.579, 193.994 135.488, 193.986 135.847 C 193.979 136.206, 191.451 139.425, 188.370 143 C 179.426 153.376, 173.692 167.430, 175.964 173.406 L 177.061 176.291 179.293 174.194 C 188.536 165.511, 204.697 165.515, 214.735 174.204 C 217.288 176.413, 221.205 179.383, 223.439 180.804 C 225.672 182.224, 228.625 184.372, 230 185.578 C 231.965 187.301, 234.127 187.868, 240.103 188.226 C 244.931 188.515, 248.571 189.287, 250.076 190.340 C 257.578 195.595, 259.641 190.057, 254.174 179.340 C 250.800 172.727, 253.384 171.023, 263.274 173.336 C 267.248 174.265, 271.242 175.020, 272.148 175.013 C 273.055 175.006, 276.397 176.368, 279.575 178.039 C 286.099 181.471, 287.450 181.363, 288.432 177.331 C 290.497 168.854, 295.778 165.061, 301.354 168.050 C 308.156 171.696, 310.026 171.189, 312.014 165.164 C 312.982 162.229, 315.175 158.383, 316.887 156.616 C 320.557 152.830, 320.593 152.524, 318.022 146.859 C 316.934 144.462, 316.034 141.330, 316.022 139.900 C 315.994 136.580, 310.907 129.520, 307.140 127.572 C 301.522 124.667, 297.829 120.910, 299.094 119.387 C 300.689 117.465, 303.584 117.653, 307.864 119.958 C 313.356 122.916, 319 125.001, 319 124.071 C 319 119.768, 286.948 108.164, 270.542 106.528 C 267.265 106.201, 263.890 105.336, 263.042 104.606 C 261.744 103.488, 260.689 103.653, 256.370 105.651 M 207.867 116.757 C 198.246 123.127, 174.879 149.889, 175.042 154.350 C 175.065 154.983, 175.852 154.113, 176.792 152.418 C 180.934 144.945, 194.446 129.740, 205.858 119.709 C 211.590 114.672, 212.061 113.980, 207.867 116.757 M 219.250 122.966 C 216.566 124.621, 216 125.592, 216 128.535 L 216 132.099 210.161 131.439 C 200.279 130.321, 194.017 137.953, 197.633 146.708 C 200.999 154.857, 201.882 155.035, 213 149.810 C 216.575 148.130, 220.470 146.307, 221.655 145.760 C 222.840 145.212, 224.249 145.036, 224.787 145.368 C 225.931 146.075, 231.231 142.183, 230.574 141.119 C 230.329 140.723, 232.091 139.819, 234.489 139.111 C 238.789 137.842, 241.197 135.937, 242.217 133 C 244.752 125.694, 227.234 118.040, 219.250 122.966 M 221.250 125.642 C 220.563 125.930, 220 127.379, 220 128.861 C 220 134.393, 217.474 136.251, 210.981 135.498 C 201.730 134.424, 198.212 138.476, 201.519 146.392 C 203.175 150.354, 204.416 150.283, 213.124 145.721 C 215.667 144.389, 218.701 143.050, 219.865 142.746 C 221.846 142.228, 221.888 142.012, 220.525 139.386 C 219.234 136.897, 219.249 136.382, 220.661 134.822 C 222.565 132.718, 225.925 133.998, 226.747 137.139 C 227.190 138.834, 227.460 138.902, 228.877 137.674 C 229.770 136.901, 231.706 135.983, 233.180 135.633 C 238.964 134.261, 240.072 129.666, 235.227 127.148 C 233.069 126.027, 222.934 124.934, 221.250 125.642 M 377.672 147 C 377.333 151.125, 376.798 157.425, 376.482 161 C 376.105 165.272, 376.783 174.354, 378.460 187.500 C 382.100 216.014, 387.008 273.674, 387.003 287.856 L 387 296.212 390.009 292.990 C 393.565 289.184, 396.162 290.054, 399.248 296.084 C 401.465 300.414, 401.461 300.707, 399.506 274.500 C 397.797 251.594, 397.621 250.529, 394.400 243.613 C 393.091 240.801, 392.005 236.925, 391.988 235 C 391.971 233.075, 391.055 227.450, 389.953 222.500 C 386.497 206.977, 385.806 200.093, 385.586 179 C 385.382 159.559, 385.238 158.164, 382.786 152 C 381.364 148.425, 379.770 144.150, 379.244 142.500 C 378.397 139.846, 378.215 140.364, 377.672 147 M 343.826 152.629 C 344.391 153.658, 347.361 156.960, 350.426 159.966 C 357.550 166.952, 357.653 168.947, 351.216 175.288 C 345.440 180.976, 345.343 180.982, 338.195 176.148 C 332.263 172.136, 325.343 169.323, 324.205 170.461 C 323.842 170.825, 323.535 173.647, 323.522 176.733 L 323.500 182.343 328.466 184.072 C 333.366 185.777, 339 190.755, 339 193.379 C 339 195.248, 329.488 203.973, 327.293 204.118 C 323.854 204.346, 322.481 203.814, 319.668 201.166 C 315.543 197.283, 313.688 192.334, 314.974 188.644 C 316.213 185.090, 316.733 185.599, 309.846 183.622 C 298.431 180.347, 297.829 180.931, 300.829 192.373 C 302.196 197.586, 298.758 201.558, 293.691 200.618 C 291.936 200.292, 287.672 199.569, 284.216 199.012 C 280.760 198.455, 276.318 197.324, 274.344 196.499 C 269.418 194.441, 269 194.562, 269 198.050 C 269 201.606, 270.623 205.016, 274.826 210.291 C 277.556 213.717, 277.795 214.586, 277.307 219.313 L 276.767 224.544 284.213 234.549 C 288.308 240.052, 294.204 246.728, 297.315 249.387 C 303.331 254.526, 306.998 259.533, 307.004 262.618 C 307.006 263.653, 308.354 267.200, 310 270.500 C 311.646 273.800, 312.994 277.743, 312.996 279.262 C 313 282.037, 316.457 282.430, 322.905 280.388 C 323.678 280.144, 325.366 280.935, 326.655 282.146 C 333.261 288.351, 322.589 302, 311.132 302 L 306 302 306 305.870 C 306 309.725, 306.017 309.742, 310.586 310.257 C 317.829 311.073, 322.837 316.754, 324.465 326 C 324.804 327.925, 326.385 331.025, 327.979 332.888 L 330.876 336.276 343.800 334.638 C 359.491 332.649, 368.194 332.617, 373.500 334.529 C 375.700 335.321, 377.825 335.977, 378.223 335.985 C 381.002 336.043, 376.842 241.481, 372.945 216 C 371.809 208.575, 370.655 200.700, 370.379 198.500 C 368.177 180.922, 365.772 172.536, 362.003 169.290 C 359.953 167.525, 357.717 164.731, 357.034 163.082 C 356.351 161.432, 353.476 158.348, 350.646 156.228 C 343.334 150.751, 342.577 150.351, 343.826 152.629 M 169.630 167.250 C 168.854 170.146, 168.815 181.518, 169.584 180.749 C 170.119 180.215, 170.959 165, 170.454 165 C 170.332 165, 169.962 166.012, 169.630 167.250 M 191.734 172.067 C 181.437 174.551, 177.094 178.982, 171.981 192.218 C 167.191 204.618, 168.102 208.510, 176.232 210.395 C 186.820 212.851, 192.481 226.966, 185.889 234.474 C 180.683 240.403, 175.880 240.132, 171.950 233.686 C 170.705 231.643, 170.006 231.109, 170.004 232.197 C 170.002 233.130, 168.875 236.010, 167.500 238.596 C 163.089 246.892, 164.844 274.638, 171.097 295.466 C 174.071 305.369, 175.026 306.552, 178.102 304.141 C 179.421 303.107, 181.993 301.935, 183.818 301.536 C 189.522 300.290, 189.054 297.340, 181.845 289.109 C 176.670 283.200, 176.833 282.070, 185.308 265.118 C 191.696 252.342, 192.970 248.844, 195.425 237.359 C 199.627 217.701, 202.885 213.380, 215.266 211.044 C 222.465 209.686, 228.517 211.300, 231.780 215.447 C 232.944 216.927, 235.095 217.878, 238.261 218.312 C 240.867 218.669, 244.173 219.256, 245.609 219.617 C 254.296 221.797, 236.248 192.479, 224.695 185.644 C 222.388 184.279, 218.144 181.138, 215.265 178.664 C 208.113 172.518, 199.672 170.151, 191.734 172.067 M 393.590 179.175 C 390.529 183.546, 393.468 208.896, 397.504 212.933 C 400.490 215.919, 402.127 212.420, 400.991 205.479 C 400.452 202.191, 400.009 196.887, 400.006 193.693 C 399.994 182.169, 396.706 174.727, 393.590 179.175 M 319.079 188.260 C 316.805 195.151, 322.097 201.908, 328.122 199.808 C 336.428 196.912, 336.604 190.971, 328.472 188.027 C 325.737 187.038, 322.758 185.921, 321.850 185.546 C 320.598 185.027, 319.930 185.681, 319.079 188.260 M 237 192.614 C 237 192.952, 239.255 195.832, 242.012 199.013 C 250.345 208.633, 253.597 218.151, 249.778 221.739 C 246.409 224.904, 235.009 222.974, 229.740 218.346 C 225.293 214.440, 221.755 213.609, 215.420 214.981 C 204.194 217.413, 203.551 218.309, 199.559 237.071 C 197.293 247.717, 195.845 251.670, 189.457 264.633 C 180.688 282.428, 180.619 283.002, 186.434 289.814 C 193.686 298.309, 193.204 302.703, 184.754 305.148 C 182.414 305.825, 179.414 307.203, 178.088 308.211 C 175.726 310.005, 175.624 309.995, 173.255 307.772 L 170.834 305.500 173.017 311 C 178.555 324.958, 178.888 325.630, 178.945 322.950 C 179.111 315.192, 190.626 317.365, 192.895 325.582 C 193.569 328.023, 195.954 331.217, 199.956 335.037 C 208.086 342.796, 207.581 350.746, 198.936 351.100 L 196.500 351.199 199 352 C 204.067 353.623, 208.682 353.018, 214.609 349.957 C 218.959 347.709, 222.724 346.677, 229 346.010 C 233.675 345.513, 239.072 344.633, 240.993 344.053 C 242.915 343.474, 247.640 342.999, 251.493 342.997 C 258.231 342.995, 258.788 342.803, 266 338 C 274.667 332.228, 274.506 331.731, 265.394 336.125 C 254.923 341.175, 245.464 338.620, 242.896 330.046 C 241.268 324.614, 242.380 320.202, 248.169 309.128 C 250.938 303.832, 254.996 294.325, 257.189 288 C 259.381 281.675, 262.710 273.176, 264.586 269.112 C 273.644 249.493, 267.764 241.005, 251 249.500 C 244.246 252.923, 242.653 252.691, 237.078 247.476 L 232.242 242.953 231.700 245.726 C 230.319 252.797, 236.054 256.352, 247.273 255.379 C 255.121 254.699, 257.005 255.667, 256.990 260.372 C 256.977 264.511, 253.024 272.838, 248.792 277.640 C 246.921 279.763, 243.186 284.634, 240.491 288.465 C 229.029 304.761, 224.338 307.538, 218.365 301.565 C 214.996 298.196, 214.942 298.011, 215.543 291.815 C 216.050 286.586, 215.704 284.135, 213.527 277.563 C 209.309 264.828, 209.296 243.880, 213.500 235.573 C 220.385 221.970, 232 217.358, 232 228.228 L 232 231.145 234.635 229.073 C 237.930 226.481, 240.569 226.465, 247 229 C 256.165 232.613, 257.926 231.754, 259.959 222.681 C 261.428 216.127, 259.867 212.640, 250.500 201.555 C 244.041 193.911, 241.970 192.080, 239.750 192.044 C 238.238 192.020, 237 192.276, 237 192.614 M 337.883 204.641 C 335.368 207.671, 349.264 219.280, 354.474 218.500 C 362.437 217.307, 363.713 214.040, 358.250 208.828 C 354.054 204.825, 349.568 203.284, 347.386 205.095 C 346.272 206.020, 345.569 205.920, 344.153 204.638 C 341.848 202.553, 339.615 202.554, 337.883 204.641 M 165.004 208.134 C 165.006 208.885, 165.951 211.048, 167.104 212.939 C 168.599 215.391, 169.042 217.351, 168.650 219.770 C 168.179 222.672, 168.312 222.986, 169.568 221.943 C 172.030 219.900, 175 223.460, 175 228.455 C 175 234.907, 178.885 237.115, 183 233 C 188.550 227.450, 182.570 214, 174.553 214 C 173.702 214, 171.204 212.373, 169.003 210.384 C 166.722 208.323, 165.002 207.355, 165.004 208.134 M 347.172 209.293 C 345.114 211.773, 350.095 215.392, 354.444 214.576 C 358.425 213.830, 358.807 213.022, 356.250 210.766 C 353.631 208.456, 348.551 207.631, 347.172 209.293 M 161.005 210.500 C 161.003 211.050, 161.880 213.750, 162.954 216.500 C 164.556 220.603, 164.915 221.011, 164.953 218.774 C 164.979 217.275, 164.102 214.575, 163.004 212.774 C 161.906 210.973, 161.006 209.950, 161.005 210.500 M 222.626 228.250 C 213.953 236.100, 211.536 259.474, 217.527 277.563 C 219.681 284.068, 220.048 286.612, 219.559 291.660 C 218.186 305.838, 225.347 304.331, 236.801 288.031 C 239.325 284.439, 242.921 279.763, 244.792 277.640 C 248.597 273.322, 252.975 264.627, 252.990 261.359 C 252.999 259.344, 252.546 259.226, 245.250 259.346 C 230.410 259.591, 227.616 256.225, 227.905 238.449 C 228.127 224.762, 227.601 223.746, 222.626 228.250 M 196.348 266.562 C 194.782 268.522, 191.047 272.819, 188.050 276.113 L 182.599 282.101 184.512 285.652 C 189.825 295.519, 196.650 298.456, 205.333 294.616 C 214.869 290.399, 215.506 288.127, 210.376 276.626 C 204.332 263.074, 201.031 260.706, 196.348 266.562 M 197.921 269.250 C 197.288 270.488, 194.472 273.866, 191.662 276.758 L 186.553 282.015 188.473 285.579 C 192.435 292.938, 197.351 294.463, 205 290.709 C 210.641 287.940, 210.718 285.773, 205.563 274.750 C 201.803 266.709, 199.914 265.349, 197.921 269.250 M 413.555 281.191 C 413.192 285.211, 412.692 289.850, 412.443 291.500 C 412.080 293.901, 412.168 294.094, 412.883 292.465 C 414.402 289.006, 416.757 287.553, 418.500 289 C 419.503 289.832, 420 289.880, 420 289.145 C 420 288.011, 415.227 274.894, 414.579 274.245 C 414.379 274.045, 413.918 277.171, 413.555 281.191 M 391.914 295.600 C 388.614 299.567, 389.811 330.470, 393.452 335.316 C 398.656 342.241, 400.616 324.266, 397.025 302.557 C 395.852 295.465, 394.058 293.023, 391.914 295.600 M 416.406 302.750 C 418.282 326.848, 424.754 363.188, 429.362 375.500 L 430.859 379.500 430.924 375.500 C 430.960 373.300, 430.123 365.425, 429.065 358 C 428.007 350.575, 426.849 342.025, 426.492 339 C 423.068 309.957, 414.597 279.510, 416.406 302.750 M 402.768 321.225 L 403.308 334.950 398.966 338.918 C 394.045 343.417, 393.743 343.376, 390.916 337.835 C 388.190 332.493, 387.765 333.312, 388.963 341.600 C 389.512 345.395, 389.969 351.136, 389.980 354.357 C 389.991 357.578, 390.651 364.103, 391.446 368.857 C 394.002 384.127, 394.997 391.761, 395.140 397.193 C 395.239 400.959, 395.538 399.596, 396.168 392.500 C 397.211 380.765, 396.668 374.861, 393.854 367.340 C 391.154 360.122, 391.190 355.354, 393.968 352.628 L 396.135 350.500 399.608 354.500 C 405.390 361.159, 407.978 366.380, 409.538 374.534 C 411.055 382.464, 415.567 394, 417.151 394 C 421.205 394, 424.093 409.358, 421.571 417.500 C 419.325 424.748, 419.491 425.416, 425.051 431.557 C 429.929 436.942, 430.080 437.287, 429.438 441.567 C 428.792 445.876, 429.915 447.564, 431.607 444.827 C 432.088 444.049, 433.484 444.976, 435.749 447.577 C 437.629 449.735, 438.488 450.375, 437.658 449 C 434.715 444.124, 431.870 433.875, 432.556 430.626 C 433.576 425.795, 436.904 422.603, 438.971 424.474 C 440.754 426.087, 439.329 412.250, 437.035 405.670 C 436.466 404.037, 435.933 397.256, 435.850 390.601 C 435.768 383.945, 435.516 379.705, 435.291 381.177 C 434.171 388.497, 429.438 386.442, 425.931 377.114 C 422.681 368.468, 417.125 342.998, 415.217 328 C 413.845 317.210, 413.440 315.538, 413.201 319.669 C 412.412 333.272, 406.511 327.582, 402.654 309.500 C 402.420 308.400, 402.471 313.676, 402.768 321.225 M 200.096 311.384 C 199.258 312.394, 198.995 314.181, 199.381 316.241 C 199.718 318.033, 200.280 321.200, 200.632 323.278 C 201.406 327.854, 206.233 331.973, 208.871 330.309 C 210.872 329.047, 216.908 319.060, 216.961 316.924 C 217.084 311.948, 203.368 307.442, 200.096 311.384 M 203.044 315.250 C 203.149 318.206, 205.784 326.428, 206.727 326.742 C 207.889 327.130, 213 318.937, 213 316.689 C 213 315.108, 210.093 314.035, 205.750 314.014 C 204.186 314.006, 203.019 314.539, 203.044 315.250 M 183.329 328.616 C 184.416 340.265, 189.846 347, 198.148 347 C 204.443 347, 203.644 342.810, 195.930 335.361 C 192.380 331.932, 189.627 328.344, 189.298 326.714 C 188.756 324.029, 186.442 322, 183.921 322 C 183.034 322, 182.876 323.765, 183.329 328.616 M 349.758 343.686 L 345.015 344.109 347.708 346.425 C 350.366 348.712, 350.378 348.775, 348.615 351.465 C 346.894 354.091, 346.896 354.169, 348.665 353.631 C 349.674 353.324, 352.750 352.603, 355.500 352.029 C 365.161 350.011, 365 350.087, 365 347.540 C 365 343.875, 360.473 342.730, 349.758 343.686 M 326 351.446 C 317.603 352.848, 289.659 358.530, 283.500 360.088 C 281.300 360.645, 275.767 362.676, 271.204 364.603 C 266.642 366.529, 260.679 368.369, 257.954 368.692 C 253.005 369.278, 253 369.282, 253 373.012 C 253 376.128, 251.652 378.544, 244.849 387.623 C 235.255 400.426, 233.052 404.828, 233.022 411.250 C 232.993 417.516, 233.733 417.323, 242.813 408.702 C 252.341 399.655, 259.451 394.308, 268.500 389.381 C 272.350 387.285, 279.782 382.580, 285.015 378.925 C 296.686 370.774, 300.487 368.807, 312.938 364.473 C 324.261 360.532, 340.306 352.958, 340.421 351.500 C 340.536 350.039, 334.564 350.016, 326 351.446 M 395.885 357.215 C 395.635 360.005, 396.217 362.730, 398.190 368 C 400.033 372.924, 400.277 376.118, 400.520 398.500 C 400.856 429.303, 401.467 433.348, 406.381 437.291 C 409.174 439.531, 410 440.921, 410 443.378 C 410 447.571, 421.456 459.581, 422.603 456.592 C 424.436 451.816, 421.093 433.125, 417.398 427.485 C 415.745 424.961, 415.746 424.494, 417.418 418.047 C 419.675 409.346, 418.849 400.725, 415.478 397.794 C 412.139 394.891, 407.261 383.539, 405.582 374.766 C 404.773 370.536, 403.570 366.046, 402.909 364.788 C 401.019 361.190, 396.012 355.793, 395.885 357.215 M 245.598 357.736 C 244.435 358.899, 245.077 363.551, 246.945 367.500 C 247.986 369.700, 248.875 370.782, 248.919 369.905 C 249.056 367.202, 252.264 365.294, 257.691 364.688 C 260.546 364.369, 264.596 363.157, 266.691 361.995 C 268.786 360.833, 269.671 360.136, 268.657 360.446 C 263.324 362.075, 261.542 362.018, 255.296 360.019 C 251.558 358.822, 247.981 357.685, 247.348 357.491 C 246.714 357.297, 245.927 357.407, 245.598 357.736 M 462 399.982 C 462 402.846, 460.416 405.780, 456.630 409.932 L 453.500 413.364 457.838 409.932 C 464.898 404.346, 464.795 404.391, 467.165 405.871 C 469.243 407.169, 469.227 407.040, 466.783 402.902 C 463.876 397.980, 462 396.835, 462 399.982 M 461.102 413.905 C 457.340 417.419, 457.017 424.293, 459.873 439.996 C 461.734 450.227, 462.824 451.502, 467.547 448.975 C 470.871 447.196, 471.003 445.453, 468.942 430.593 C 466.044 409.705, 465.908 409.415, 461.102 413.905 M 436.540 430.818 C 435.789 434.239, 439.751 447.084, 441.765 447.755 C 444.713 448.738, 442.333 435.169, 438.630 429.881 C 437.232 427.886, 437.179 427.910, 436.540 430.818 M 402.251 441.667 C 401.154 444.345, 401.662 473.062, 402.827 474.227 C 404.126 475.526, 415.841 476.440, 420.348 475.594 C 424.313 474.851, 424.551 474.365, 425.548 465 L 426.240 458.500 424.120 460.405 C 421.652 462.622, 421.922 462.787, 411.852 452.905 C 407.561 448.695, 406.069 446.486, 405.825 443.982 C 405.459 440.231, 403.388 438.890, 402.251 441.667 M 380.125 514.350 C 379.486 515.120, 378.687 519.294, 378.351 523.625 C 378.014 527.956, 376.835 534.875, 375.731 539 C 370.923 556.962, 373.758 564, 385.801 564 C 396.341 564, 399.636 555.085, 393.995 541.828 C 392.342 537.943, 390.319 531.875, 389.500 528.343 C 387.098 517.986, 382.635 511.325, 380.125 514.350 M 382.116 525.594 C 381.993 528.621, 380.951 534.563, 379.800 538.799 C 375.191 555.760, 376.328 560, 385.488 560 C 393.997 560, 395.364 554.446, 389.975 541.781 C 388.311 537.870, 386.251 531.600, 385.397 527.846 C 383.444 519.262, 382.401 518.546, 382.116 525.594 M 311.242 528.665 C 303.756 531.683, 298.030 547.005, 300.465 557.505 C 301.309 561.146, 302 565.196, 302 566.506 C 302 573.563, 309.295 575.782, 311.500 569.396 C 312.050 567.803, 313.521 565.673, 314.770 564.662 C 319.526 560.810, 320.203 557.867, 319.434 544.376 C 318.636 530.370, 316.617 526.498, 311.242 528.665 M 308.475 536.466 C 303.381 542.682, 302.483 547.922, 304.616 558.982 C 306.653 569.544, 307.219 571.249, 307.731 568.361 C 307.940 567.184, 309.653 564.817, 311.538 563.102 C 315.997 559.044, 316.330 557.363, 315.334 543.925 C 314.366 530.847, 313.685 530.107, 308.475 536.466" stroke="none" fill="#1A1A1A" fill-rule="evenodd"/>
</svg>