<svg xmlns="http://www.w3.org/2000/svg" width="507" height="600" viewBox="0 0 507 600" version="1.1">
	<rect x="0" y="0" width="100%" height="100%" fill="#FFFFFF" />
	<path d="M 300.618 68.112 C 293.694 69.738, 285.299 75.031, 278.539 82.032 C 274.397 86.322, 270.841 89.096, 268.948 89.511 C 264.028 90.592, 253.847 94.839, 250.045 97.397 C 248.095 98.709, 244.025 100.344, 241 101.030 C 233.327 102.770, 219.585 107.681, 212.768 111.119 C 206.863 114.098, 187.450 131.008, 186.500 134.001 C 186.206 134.927, 183.269 138.792, 179.973 142.592 C 176.678 146.391, 173.106 151.750, 172.037 154.500 C 170.968 157.250, 168.899 162.387, 167.440 165.916 C 165.339 170.996, 164.913 173.287, 165.393 176.916 C 166.011 181.577, 164.386 187.369, 160.076 195.875 C 157.085 201.779, 156.598 207.314, 158.530 213.457 C 160.479 219.653, 160.137 228.055, 157.573 236.968 C 152.863 253.339, 157.706 289.971, 167.998 315.832 C 170.114 321.150, 173.321 329.990, 175.125 335.478 C 179.002 347.278, 182.828 351.821, 193.177 356.915 C 205.259 362.864, 210.900 363.058, 232.656 358.277 C 234.526 357.866, 235.354 358.960, 238.906 366.540 C 241.158 371.345, 243 375.643, 243 376.091 C 243 376.538, 240.863 379.853, 238.250 383.457 C 228.270 397.225, 226.975 399.344, 225.489 404.349 C 224.647 407.182, 223.713 411.975, 223.412 415 C 222.869 420.454, 218.975 430.078, 209.453 449.500 C 203.021 462.618, 202.814 463.368, 202.007 476.500 L 201.270 488.500 189.521 512 C 183.059 524.925, 176.248 538.034, 174.386 541.131 C 172.524 544.228, 171 547.404, 171 548.190 C 171 548.975, 169.484 552.135, 167.631 555.213 C 165.778 558.290, 163.017 564.338, 161.496 568.654 C 159.974 572.969, 156.739 580.480, 154.307 585.344 C 149.217 595.525, 148.916 599.349, 153.182 599.669 C 156.371 599.908, 157.354 598.825, 158.775 593.500 C 161.667 582.665, 181.348 539.743, 179.576 548.136 C 179.238 549.735, 179.548 551.210, 180.365 551.888 C 181.426 552.769, 182.908 551.504, 187.356 545.921 C 193.681 537.982, 193.858 537.361, 190.886 533.583 C 188.984 531.165, 188.607 531.046, 187.115 532.396 C 186.051 533.359, 186.533 531.648, 188.459 527.622 C 191.356 521.567, 191.517 521.417, 193.075 523.341 C 195.289 526.076, 197.403 525.011, 200.991 519.354 C 204.890 513.205, 205.828 508.388, 203.559 506.163 C 201.975 504.609, 201.703 504.697, 199.410 507.500 C 198.012 509.209, 199.548 505.447, 202.978 498.759 C 208.264 488.454, 209.002 486.314, 209.020 481.259 C 209.056 471.093, 210.748 463.029, 214.398 455.628 C 216.331 451.707, 219.062 445.442, 220.465 441.705 C 225.248 428.967, 228.897 422.669, 230.650 424.124 C 231.965 425.216, 233.209 424.361, 239.096 418.321 C 247.421 409.778, 248.007 410.895, 242.734 425.254 L 241.355 429.007 239.003 426.504 C 237.710 425.127, 236.078 424, 235.377 424 C 231.865 424, 225.187 438.551, 226.729 442.841 C 227.943 446.218, 231.189 450, 232.872 450 C 233.827 450, 236.834 448.569, 239.554 446.819 C 242.753 444.761, 245.508 443.732, 247.355 443.905 C 249.298 444.087, 251.055 443.365, 252.855 441.644 C 254.310 440.254, 257.300 438.659, 259.500 438.099 C 268.351 435.850, 273.903 434.102, 276.630 432.708 C 278.209 431.901, 280.906 430.938, 282.624 430.569 C 284.343 430.199, 286.769 428.810, 288.017 427.482 L 290.285 425.068 287.083 422.078 C 284.061 419.255, 283.941 418.875, 284.935 415.294 C 285.515 413.207, 285.991 410.107, 285.994 408.405 C 285.998 406.510, 286.829 404.571, 288.137 403.405 C 293.729 398.419, 293.491 392.693, 287.478 387.500 L 284.004 384.500 289.054 380.749 C 291.832 378.686, 295.461 376.296, 297.120 375.438 C 300.039 373.928, 300.101 373.942, 299.068 375.874 C 298.480 376.971, 298 382.411, 298 387.963 C 298 397.174, 297.740 398.573, 295.022 403.956 C 293.385 407.200, 291.585 410.139, 291.022 410.486 C 289.288 411.558, 289.891 415.591, 292.083 417.575 C 294.706 419.949, 297 425.357, 297 429.168 C 297 430.955, 297.975 433.066, 299.510 434.600 C 300.890 435.981, 302.672 438.672, 303.469 440.580 L 304.919 444.051 300.210 440.084 C 293.069 434.070, 282.856 432.288, 276.774 435.996 C 274.973 437.094, 272.747 437.994, 271.827 437.996 C 269.779 438.001, 261.823 447.291, 260.050 451.750 C 259.339 453.538, 258.423 455, 258.013 455 C 257.604 455, 254.960 456.879, 252.138 459.174 C 247.310 463.102, 247.103 463.456, 248.641 465.156 C 251.655 468.487, 247.347 471.529, 243.959 468.463 C 242.398 467.050, 241.222 467.950, 229.515 479.505 L 216.770 492.084 217.468 500.460 C 218.084 507.847, 217.914 509.348, 216.033 513.168 C 212.545 520.254, 210.265 524.086, 208.187 526.357 C 207.108 527.536, 205.268 530.408, 204.098 532.739 C 202.928 535.071, 200.201 539.715, 198.039 543.061 C 195.877 546.406, 193.564 550.799, 192.900 552.822 C 191.426 557.313, 188.216 563.731, 185.955 566.708 C 185.032 567.923, 183.235 572.198, 181.960 576.208 C 180.686 580.219, 178.548 584.957, 177.211 586.739 C 175.046 589.623, 174.875 590.499, 175.649 594.739 C 176.887 601.512, 179.600 601.410, 179.243 594.604 C 179.042 590.770, 179.491 589.034, 181.314 586.604 C 182.595 584.897, 184.686 580.219, 185.960 576.208 C 187.235 572.198, 189.032 567.923, 189.955 566.708 C 192.216 563.731, 195.426 557.313, 196.900 552.822 C 197.564 550.799, 199.877 546.406, 202.039 543.061 C 204.201 539.715, 206.928 535.071, 208.098 532.739 C 209.268 530.408, 211.138 527.504, 212.252 526.287 C 214.627 523.695, 216.014 521.404, 219.565 514.220 C 221.964 509.366, 222.122 508.275, 221.524 500.720 L 220.873 492.500 230.517 482.701 L 240.161 472.902 244.457 473.546 C 248.479 474.149, 248.915 473.976, 251.293 470.845 C 253.060 468.518, 253.678 466.702, 253.324 464.878 C 252.893 462.653, 253.473 461.817, 257.158 459.361 C 259.667 457.688, 262.555 454.535, 264 451.891 C 267.895 444.761, 270.090 442, 271.865 441.996 C 272.764 441.994, 274.973 441.094, 276.774 439.996 C 281.915 436.862, 292.272 437.923, 298.019 442.172 C 301.906 445.046, 302.213 446.233, 300.910 453.370 C 300.295 456.741, 299.632 460.405, 299.437 461.510 C 298.780 465.237, 293.753 467.270, 289.315 465.603 C 281.588 462.701, 280.235 462.742, 275.469 466.021 C 273.011 467.712, 271 469.504, 271 470.001 C 271 470.499, 269.087 472.886, 266.750 475.306 C 260.081 482.208, 257 487.001, 257 490.471 C 257 492.204, 255.875 496.491, 254.500 500 C 253.125 503.509, 252 507.182, 252 508.164 C 252 511.035, 247.178 512.733, 236.829 513.505 C 221.323 514.661, 218.639 517.479, 216.927 534.400 C 215.902 544.524, 215.582 546.446, 213.244 556.480 C 211.979 561.910, 210.773 564.376, 207.809 567.591 C 205.012 570.626, 204 572.595, 204 575.002 C 204 579.565, 200.383 586.389, 194.602 592.731 C 191.097 596.576, 190.011 598.411, 190.783 599.183 C 191.556 599.956, 193.497 598.497, 197.608 594.056 C 204.129 587.013, 207.923 580.076, 207.969 575.112 C 207.992 572.591, 208.995 570.645, 211.886 567.508 C 215.924 563.127, 216.977 560.073, 219.473 545.500 L 220.672 538.500 221.370 547 C 221.754 551.675, 222.026 557.525, 221.974 560 C 221.923 562.475, 222.182 569.294, 222.550 575.152 C 223.263 586.491, 222.395 591.333, 218.826 595.921 C 215.531 600.158, 218.559 601.188, 221.997 597 C 226.263 591.805, 227.330 586.697, 226.637 574.793 C 225.536 555.886, 225.454 526.151, 226.500 525.131 C 227.050 524.594, 229.106 523.861, 231.069 523.501 C 234.564 522.859, 234.663 522.931, 235.887 527.018 C 236.984 530.680, 236.926 531.424, 235.410 533.099 C 233.924 534.742, 233.861 535.391, 234.965 537.754 C 235.684 539.294, 236.430 545.713, 236.664 552.368 C 237.004 562.083, 237.533 565.348, 239.577 570.368 C 240.951 573.741, 242.989 580.100, 244.107 584.500 C 246.371 593.412, 247.838 596.192, 251.565 598.635 C 255.448 601.179, 256.695 598.949, 253.154 595.795 C 250.993 593.869, 249.826 591.383, 248.495 585.863 C 247.518 581.813, 245.449 575.269, 243.898 571.320 C 241.501 565.222, 241.018 562.356, 240.687 552.282 C 240.467 545.592, 239.761 539.423, 239.069 538.128 C 238.043 536.211, 238.123 535.522, 239.556 533.938 C 241.064 532.272, 241.121 531.503, 240.026 527.592 C 237.557 518.775, 231.194 516.744, 224.810 522.735 C 222.208 525.177, 222.138 525.188, 222.693 523.066 C 223.627 519.495, 226.938 518.212, 237.128 517.476 C 248.445 516.658, 253.914 514.261, 255.380 509.477 C 255.881 507.840, 257.351 503.565, 258.646 499.979 C 259.941 496.392, 261 492.066, 261 490.366 C 261 486.876, 263.892 482.765, 273.065 473.214 C 279.673 466.335, 281.060 466.043, 289.816 469.698 C 295.688 472.149, 304 465.215, 304 457.865 C 304 452.271, 305.691 453.119, 306.517 459.127 C 306.905 461.946, 308.804 467.234, 310.737 470.877 C 319.039 486.524, 321.727 499.004, 320.009 513.923 C 318.923 523.347, 318.958 525.209, 320.264 527.827 C 321.465 530.235, 321.668 533.465, 321.257 543.676 C 320.974 550.729, 320.752 560.775, 320.763 566 C 320.778 572.854, 320.384 575.953, 319.349 577.126 C 318.560 578.020, 317.635 580.495, 317.294 582.626 C 316.542 587.323, 313.050 592.848, 308.886 595.926 C 306.653 597.577, 306.106 598.506, 306.900 599.300 C 309.535 601.935, 320.403 589.488, 321.299 582.809 C 321.591 580.629, 322.495 578.092, 323.307 577.172 C 324.392 575.944, 324.778 572.979, 324.763 566 C 324.752 560.775, 324.974 550.729, 325.257 543.676 C 325.668 533.465, 325.465 530.235, 324.264 527.827 C 322.958 525.209, 322.923 523.347, 324.009 513.923 C 324.698 507.938, 324.964 501.175, 324.599 498.895 C 323.540 492.271, 318.269 477.213, 315.024 471.542 C 311.786 465.882, 308.853 454.054, 309.663 449.919 C 309.941 448.500, 309.456 445.633, 308.584 443.547 C 306.447 438.432, 306.502 438.375, 310.402 441.646 C 312.273 443.216, 315.678 446.013, 317.968 447.862 L 322.132 451.224 324.356 449.135 L 326.580 447.046 333.040 449.378 C 343.948 453.314, 345 453.875, 345 455.753 C 345 458.629, 348.029 462.371, 349.316 461.084 C 350.910 459.490, 354.419 459.761, 357.913 461.750 C 361.654 463.879, 361.981 467.528, 359.029 474.202 C 357.945 476.652, 356.947 480.119, 356.810 481.905 C 356.674 483.691, 356.142 485.412, 355.628 485.730 C 355.058 486.082, 354.953 483.768, 355.357 479.819 C 355.930 474.232, 355.762 473.095, 354.154 471.640 C 351.843 469.548, 351.198 470.216, 347.526 478.500 C 345.031 484.131, 344.779 484.381, 343.433 482.559 C 342.645 481.491, 342 479.859, 342 478.931 C 342 475.145, 334.348 474.007, 330.321 477.194 C 329.096 478.163, 331.373 483.160, 335.017 487.500 C 335.940 488.600, 337.458 491.469, 338.390 493.876 C 340.067 498.206, 340.061 498.269, 337.792 499.846 C 332.673 503.406, 331 505.852, 331 509.776 C 331 511.903, 330.285 515.741, 329.412 518.305 C 327.854 522.878, 327.883 523.143, 330.962 532.387 C 333.422 539.770, 334.216 544.156, 334.633 552.655 C 334.926 558.620, 335.735 565.300, 336.432 567.500 C 337.129 569.700, 337.535 572.175, 337.334 573 C 337.133 573.825, 336.481 577.425, 335.883 581 C 335.286 584.575, 333.882 589.604, 332.763 592.175 C 330.774 596.745, 330.873 600, 333 600 C 333.585 600, 334.309 599.212, 334.610 598.250 C 334.911 597.288, 335.976 594.475, 336.977 592 C 337.979 589.525, 339.286 584.575, 339.883 581 C 340.481 577.425, 341.133 573.825, 341.334 573 C 341.535 572.175, 341.129 569.700, 340.432 567.500 C 339.735 565.300, 338.926 558.620, 338.633 552.655 C 338.216 544.156, 337.422 539.770, 334.962 532.387 C 331.883 523.143, 331.854 522.878, 333.412 518.305 C 334.285 515.741, 335 511.945, 335 509.869 C 335 506.960, 335.585 505.681, 337.547 504.297 C 338.948 503.309, 341.059 501.774, 342.238 500.886 L 344.382 499.272 342.179 493.517 C 340.968 490.351, 338.838 486.408, 337.447 484.755 C 334.889 481.715, 334.674 479.942, 336.776 479.241 C 337.408 479.031, 338.218 480.020, 338.574 481.440 C 339.128 483.647, 343.636 488, 345.368 488 C 345.676 488, 347.069 486.321, 348.464 484.268 L 351 480.536 351 483.645 C 351 485.356, 350.325 487.315, 349.500 488 C 347.199 489.910, 347.712 493.803, 350.653 496.744 L 353.306 499.397 356.044 496.117 C 357.709 494.122, 359.043 493.261, 359.450 493.919 C 360.402 495.459, 364.190 495.256, 366.650 493.532 C 368.660 492.125, 368.768 492.233, 369.297 496.179 C 369.601 498.442, 370.772 501.216, 371.900 502.344 L 373.951 504.395 376.290 502.198 C 380.088 498.629, 380.692 499.691, 377.020 503.480 L 373.647 506.960 374.823 513.345 C 376.557 522.755, 376.235 531.548, 373.846 540 C 368.071 560.433, 371.194 566.639, 387.564 567.252 C 393.755 567.484, 394.327 567.319, 396.425 564.693 C 398.994 561.475, 399.139 560.787, 399.057 552.136 C 399.009 547.078, 398.385 544.617, 396.017 540.136 C 394.378 537.036, 392.352 531.125, 391.514 527 C 389.491 517.047, 385.969 505.920, 384.154 503.750 C 383.349 502.787, 383.155 502, 383.723 502 C 384.290 502, 385.315 502.675, 386 503.500 C 388.933 507.034, 393 503.412, 393 497.266 C 393 494.071, 392.243 492.283, 389.500 489 C 387.575 486.696, 386 484.211, 386 483.478 C 386 481.479, 378.873 476, 376.272 476 C 374.958 476, 374 475.391, 374 474.556 C 374 473.761, 372.913 471.849, 371.584 470.306 L 369.168 467.500 366.811 469.711 L 364.455 471.922 364.834 467.942 C 365.398 462.024, 357.992 455.334, 351.870 456.232 C 350.142 456.486, 349 456.200, 349 455.514 C 349 452.539, 343.096 448.828, 332.210 444.961 L 325.920 442.726 323.629 444.879 L 321.338 447.031 319.485 444.983 C 318.466 443.857, 316.139 442.013, 314.316 440.886 C 310.754 438.685, 310.004 435.567, 312.194 432.061 C 313.123 430.573, 313.115 429.547, 312.157 427.445 C 311.072 425.064, 311.168 424.570, 312.962 423.314 C 314.083 422.529, 315.008 421.125, 315.018 420.193 C 315.028 419.262, 316.421 416.475, 318.114 414 C 320.998 409.784, 321.162 409.058, 320.712 402.500 C 320.255 395.851, 320.380 395.332, 323.193 392.127 C 325.302 389.725, 325.992 388.102, 325.587 386.491 C 325.242 385.116, 325.600 383.747, 326.500 383 C 327.434 382.225, 327.760 380.891, 327.382 379.386 C 326.901 377.471, 327.176 377, 328.769 377 C 331.423 377, 333.266 374.603, 333.395 370.984 C 333.547 366.711, 338.646 364.916, 352.867 364.127 C 362.538 363.591, 364.811 363.763, 368.111 365.275 C 371.503 366.830, 372.272 366.877, 374.245 365.648 C 375.485 364.876, 377.949 363.978, 379.720 363.653 C 383.650 362.932, 384.056 364.112, 386.373 383 C 389.492 408.433, 390.417 422.203, 390.952 451.229 L 391.500 480.959 394.271 483.729 C 396.855 486.313, 397.597 486.498, 405.271 486.477 C 424.814 486.421, 429.760 485.625, 433.582 481.921 C 438.704 476.956, 442 469.420, 441.307 464.255 C 440.663 459.450, 442.770 458.241, 449.753 459.408 C 451.814 459.752, 456.103 460.307, 459.284 460.640 C 476.988 462.493, 490.948 446.094, 485.166 430.236 C 483.975 426.968, 483 423.160, 483 421.773 C 483 420.386, 482.325 417.338, 481.500 415 C 480.675 412.662, 480 409.793, 480 408.624 C 480 407.456, 477.095 401.842, 473.546 396.149 C 468.996 388.851, 466.905 384.428, 466.458 381.149 C 465.434 373.643, 459.123 347.253, 456.019 337.500 C 452.608 326.781, 451 319.282, 451 314.100 C 451 311.990, 449.914 308.256, 448.560 305.710 C 447.219 303.186, 445.155 297.832, 443.974 293.811 C 442.793 289.790, 440.894 284.925, 439.753 283 C 437.642 279.438, 437.367 278.338, 434.638 262.500 C 433.310 254.790, 432.660 253.116, 430.106 250.820 C 427.520 248.495, 426.970 247.035, 425.956 239.820 C 425.313 235.244, 424.581 230.825, 424.329 230 C 424.077 229.175, 423.944 228.345, 424.033 228.157 C 424.122 227.968, 423.042 226.609, 421.633 225.138 C 418.226 221.583, 415.992 211.192, 415.030 194.438 C 414.413 183.679, 413.826 180.328, 411.704 175.438 C 410.287 172.172, 408.420 166.942, 407.555 163.816 C 404.756 153.698, 397.384 146.422, 394.029 150.466 C 392.915 151.807, 392.390 151.040, 390.313 145.045 L 387.895 138.061 390.074 135.114 C 394.147 129.604, 390.192 121.105, 379.021 111.362 C 375.639 108.413, 373.506 106, 374.281 106 C 375.056 106, 376.522 106.920, 377.540 108.044 C 378.557 109.168, 380.269 109.956, 381.343 109.794 C 389.723 108.532, 378.477 93.310, 359 79.553 C 345.630 70.110, 316.459 64.393, 300.618 68.112 M 303.208 76.676 C 302.208 77.078, 302.183 77.515, 303.096 78.616 C 304.024 79.734, 303.873 80.497, 302.388 82.193 C 301.047 83.724, 301.862 83.425, 305.199 81.161 C 307.783 79.408, 310.172 77.530, 310.508 76.987 C 311.139 75.965, 305.571 75.728, 303.208 76.676 M 313.845 77.604 C 315.104 78.486, 315.913 79.784, 315.643 80.488 C 315.254 81.501, 315.766 81.537, 318.087 80.661 C 320.675 79.684, 320.796 79.469, 319.114 78.846 C 318.064 78.458, 316.907 77.659, 316.543 77.070 C 316.180 76.482, 314.908 76, 313.718 76 L 311.555 76 313.845 77.604 M 293.500 84.573 L 289.500 87.084 292.892 86.792 C 295.347 86.581, 296.512 85.878, 297.110 84.250 C 297.564 83.013, 297.838 82.014, 297.718 82.031 C 297.598 82.048, 295.700 83.192, 293.500 84.573 M 320.750 83.547 C 315.356 85.266, 315.100 85.806, 318.270 88.784 C 323.447 93.647, 333.934 97.367, 342.665 97.436 C 347.973 97.477, 350.555 97.150, 350.045 96.500 C 349.614 95.950, 348.956 93.809, 348.584 91.742 C 347.802 87.403, 345.014 85.165, 338.709 83.816 C 330.731 82.108, 325.510 82.030, 320.750 83.547 M 348.730 85.216 C 350.507 87.053, 352.258 90.118, 352.621 92.027 C 352.984 93.937, 353.730 96.071, 354.279 96.769 C 356.158 99.159, 352.110 102.243, 348.084 101.488 L 344.605 100.835 348.080 105.044 C 351.349 109.003, 366.059 118.936, 368.719 118.980 C 370.707 119.013, 369.156 116.524, 366.042 114.684 C 362.118 112.366, 359.529 107.885, 357.147 99.288 C 355.056 91.741, 350.328 83.721, 347.285 82.559 C 346.205 82.146, 346.775 83.195, 348.730 85.216 M 355.445 86.791 C 357.520 89.679, 359.769 94.170, 360.442 96.771 L 361.665 101.500 362.393 96.753 C 363.259 91.114, 363.371 91.334, 356.833 85.860 L 351.673 81.540 355.445 86.791 M 281 86.500 C 279.937 87.781, 280.229 88, 283 88 C 285.771 88, 286.063 87.781, 285 86.500 C 284.315 85.675, 283.415 85, 283 85 C 282.585 85, 281.685 85.675, 281 86.500 M 365.879 89.773 C 366.482 90.900, 366.665 94.610, 366.321 98.715 C 365.664 106.546, 365.446 106.162, 374.180 112.558 C 379.485 116.442, 380.779 119.175, 378.941 122.609 C 377.874 124.604, 377.930 125.265, 379.292 126.770 C 380.183 127.754, 381.501 129.963, 382.222 131.678 L 383.534 134.796 385.916 132.867 C 390.034 129.533, 387.550 124.196, 377.210 114.164 C 370.126 107.291, 368.801 105.537, 369.661 104.164 C 371.248 101.633, 374.934 101.575, 378.254 104.030 C 381.016 106.072, 380.921 105.801, 376.972 100.367 C 371.658 93.055, 369.013 90.093, 366.674 88.832 C 365.085 87.976, 364.982 88.098, 365.879 89.773 M 313.164 92.110 C 312.120 93.781, 311.214 94.093, 308.801 93.610 C 306.322 93.114, 305.964 93.252, 306.875 94.349 C 308.628 96.461, 304.835 99.349, 301.039 98.792 C 296.158 98.076, 297.519 99.295, 304.966 102.310 C 309.663 104.211, 312.811 106.243, 314.704 108.595 C 316.242 110.506, 319.208 114.040, 321.296 116.447 C 323.562 119.059, 324.671 121.085, 324.046 121.471 C 322.328 122.534, 322.852 123.746, 325.296 124.359 C 327.330 124.870, 332.907 128.241, 343.946 135.633 C 345.842 136.902, 347.604 137.729, 347.863 137.471 C 348.469 136.864, 341.575 126.637, 337.188 121.636 C 334.253 118.289, 333.990 117.581, 335.226 116.345 C 336.340 115.232, 337.272 115.153, 339.465 115.987 C 344.165 117.774, 343.662 116.227, 337.526 110.027 C 332.642 105.091, 331.873 103.858, 332.904 102.616 C 333.954 101.350, 333.037 100.612, 326.820 97.717 C 322.794 95.842, 318.643 93.338, 317.595 92.154 C 315.231 89.482, 314.808 89.477, 313.164 92.110 M 293.500 93.675 C 292.400 93.918, 286.193 95.441, 279.706 97.059 C 273.219 98.676, 267.706 100, 267.456 100 C 267.205 100, 267 100.508, 267 101.129 C 267 101.912, 268.764 102.061, 272.750 101.614 C 277.385 101.094, 279.198 101.345, 282.100 102.906 C 284.080 103.972, 288.292 105.322, 291.460 105.908 C 294.628 106.494, 298.826 107.965, 300.788 109.178 C 302.751 110.391, 307.539 112.908, 311.428 114.772 C 317.807 117.829, 318.292 117.933, 316.375 115.831 C 315.206 114.549, 313.758 112.544, 313.157 111.376 C 312.523 110.143, 309.220 108.076, 305.282 106.448 C 301.552 104.905, 297.234 102.487, 295.687 101.074 L 292.874 98.505 295.437 96.301 C 299.190 93.072, 298.773 92.508, 293.500 93.675 M 341.281 109.779 C 344.587 113.120, 347 116.443, 347 117.657 C 347 120.266, 344.533 122.447, 342.794 121.375 C 341.562 120.616, 342.625 122.562, 347.303 129.630 C 349.357 132.733, 349.388 132.743, 351.025 130.721 C 352.658 128.704, 352.730 128.702, 357.815 130.531 C 363.891 132.716, 364.604 132.312, 362.915 127.641 C 361.857 124.715, 361.883 123.844, 363.073 122.403 C 364.241 120.989, 364.258 120.593, 363.169 120.227 C 359.907 119.130, 346.863 109.616, 344.964 106.949 C 343.295 104.606, 342.114 104, 339.213 104 L 335.563 104 341.281 109.779 M 252 106.936 C 249.525 107.967, 244.638 109.331, 241.141 109.967 C 237.643 110.603, 229.583 112.968, 223.231 115.223 C 212.265 119.114, 211.247 119.719, 203.119 127.181 C 198.410 131.503, 194.140 135.818, 193.629 136.770 C 193.119 137.721, 190.502 140.852, 187.815 143.728 C 180.610 151.437, 171.506 172, 175.298 172 C 176.099 172, 177.266 172.616, 177.891 173.368 C 178.840 174.512, 179.711 174.397, 183.206 172.668 C 192.396 168.121, 203.373 169.582, 214.687 176.856 C 223.712 182.659, 235.139 186.338, 241.622 185.528 C 246.771 184.885, 247.012 184.969, 251.313 188.934 C 258.227 195.307, 259.997 193.727, 255.709 185.009 C 253.275 180.061, 247.457 177.252, 243.683 179.203 C 242.402 179.865, 241.132 179.661, 239.379 178.513 C 235.614 176.046, 235.293 174.005, 238.266 171.448 C 240.028 169.932, 240.969 168, 241.183 165.457 C 241.765 158.562, 246.267 158.225, 250.500 164.759 C 253.490 169.373, 268.201 175.508, 269.870 172.837 C 271.662 169.966, 273.712 170.613, 279.907 176 C 286.753 181.955, 288 182.181, 288 177.468 C 288 172.903, 290.068 168.121, 293.353 165.093 L 295.964 162.685 301.880 166.835 C 310.777 173.076, 310.726 173.079, 311.536 166.326 C 312.261 160.279, 315.805 154, 318.492 154 C 321.032 154, 320.887 152.464, 317.929 148.060 C 316.318 145.661, 315 142.410, 315 140.835 C 315 137.478, 310.620 132.931, 304.500 129.935 C 302.300 128.858, 298.884 126.745, 296.909 125.239 C 294.935 123.732, 289.760 119.825, 285.409 116.556 C 281.059 113.287, 276.342 109.567, 274.927 108.289 C 271.258 104.975, 258.513 104.223, 252 106.936 M 282 109.389 C 282 109.619, 286.825 113.401, 299.684 123.250 C 301.659 124.763, 303.887 126, 304.635 126 C 305.382 126, 307.796 127.627, 309.997 129.616 C 314.295 133.500, 314.637 133.492, 312.841 129.551 C 311.881 127.443, 311.983 126.676, 313.441 125.065 C 315.153 123.174, 314.980 123.012, 306.850 118.919 C 299.811 115.374, 282 108.544, 282 109.389 M 372.319 115.957 C 373.907 118.308, 373.871 118.525, 371.478 121.023 L 368.979 123.632 371.489 125.990 C 372.870 127.287, 374 128.945, 374 129.674 C 374 131.262, 375.617 131.429, 376.539 129.937 C 376.900 129.352, 376.384 127.977, 375.392 126.881 C 373.911 125.245, 373.804 124.543, 374.794 122.958 C 376.591 120.081, 376.284 118.606, 373.330 115.924 L 370.661 113.500 372.319 115.957 M 367.293 128.964 C 369.436 134.643, 364.603 137.403, 357.622 134.487 C 352.974 132.545, 353.063 133.072, 358.350 138.793 C 360.742 141.382, 363.893 145.567, 365.352 148.093 C 367.887 152.481, 367.926 152.757, 366.220 154.301 C 363.467 156.792, 357.184 154.143, 346.493 145.981 C 332.246 135.105, 310.297 124.719, 319.871 133.384 C 321.532 134.886, 321.823 136.040, 321.382 139.372 C 320.907 142.965, 321.300 144.148, 324.418 148.497 C 326.388 151.245, 328 153.988, 328 154.592 C 328 156.244, 324.842 158.759, 321.822 159.512 C 318.787 160.270, 318.437 160.905, 317.456 167.443 C 316.733 172.268, 312.942 178, 310.474 178 C 309.733 178, 306.207 176.001, 302.638 173.558 C 295.252 168.501, 294.238 168.788, 293.248 176.211 C 292.769 179.803, 292.906 180.323, 294.088 179.412 C 296.285 177.720, 307.937 178.503, 309.873 180.473 C 311.377 182.004, 311.348 182.260, 309.500 183.863 C 308.400 184.817, 307.002 186.476, 306.393 187.549 C 304.588 190.730, 302.351 190.365, 297.771 186.143 L 293.447 182.157 291.770 185.078 C 289.741 188.614, 288.049 188.744, 284.327 185.651 C 282.495 184.129, 279.612 183.085, 276.135 182.685 C 273.184 182.345, 268.909 181.194, 266.635 180.126 C 264.361 179.059, 261.477 177.885, 260.227 177.518 L 257.954 176.851 260.134 181.033 C 263.629 187.738, 263.783 193.948, 260.529 196.987 L 257.866 199.475 253.718 197.203 C 250.012 195.173, 250.513 195.894, 258.428 203.983 L 267.286 213.035 266.692 219.391 C 266.047 226.302, 261.717 236.642, 258.717 238.435 C 257.315 239.273, 255.714 238.836, 251.217 236.389 C 248.073 234.678, 244.162 232.957, 242.527 232.564 C 239.564 231.852, 239.560 231.857, 241.448 233.942 C 243.316 236.007, 243.304 236.073, 240.577 238.920 C 237.967 241.644, 237.922 241.840, 239.774 242.428 C 240.853 242.771, 242.540 243.940, 243.523 245.026 C 245.841 247.587, 246.028 247.557, 250.612 243.895 C 254.410 240.861, 254.673 240.805, 262 241.453 C 277.953 242.863, 280.611 250.678, 271.555 269.544 C 267.388 278.226, 262 295.670, 262 300.480 C 262 301.746, 261.151 304.678, 260.113 306.995 C 258.479 310.647, 258.405 311.552, 259.562 313.783 C 260.297 315.198, 260.669 316.726, 260.390 317.178 C 259.402 318.776, 261.044 317.955, 266.739 314.001 C 273.540 309.281, 273.383 309.303, 277.182 312.500 C 279.058 314.078, 281.389 315, 283.504 315 C 291.067 315, 293.028 323.983, 287.282 332.303 C 283.076 338.392, 269.674 348.168, 261.602 351.034 L 256.500 352.846 270.500 352.561 C 278.200 352.404, 287.087 351.764, 290.250 351.138 C 293.413 350.512, 298.587 349.522, 301.750 348.938 C 304.913 348.354, 310.650 347.027, 314.500 345.990 C 318.350 344.952, 322.625 343.858, 324 343.560 C 327.807 342.734, 329.377 341.419, 328.415 339.862 C 327.952 339.114, 327.704 337.263, 327.862 335.751 C 328.107 333.419, 327.777 333, 325.698 333 C 321.975 333, 320.754 330.823, 321.539 325.587 C 322.132 321.634, 321.892 320.661, 319.679 318.030 C 318.282 316.370, 316.852 314.108, 316.502 313.005 C 316.136 311.854, 314.936 310.961, 313.683 310.908 C 306.796 310.618, 305.632 310.344, 304.640 308.780 C 302.744 305.793, 309.291 300, 314.561 300 C 319.815 300, 323.093 297.515, 326.108 291.246 C 327.364 288.636, 330.882 284.096, 333.926 281.157 C 339.796 275.492, 340.935 271.484, 338.153 266.286 C 336.719 263.607, 320.350 254.398, 317.785 254.827 C 314.916 255.307, 312.196 252.427, 312.755 249.502 C 313.075 247.826, 312.374 246.044, 310.532 243.856 C 308.399 241.321, 307.965 240.001, 308.437 237.485 C 308.880 235.122, 308.484 233.613, 306.886 231.582 C 305.006 229.193, 304.901 228.553, 306.038 226.429 C 307.652 223.414, 306.607 222.143, 304.256 224.262 C 300.332 227.798, 297.472 227.471, 293.944 223.080 C 292.141 220.836, 290.072 219, 289.346 219 C 288.620 219, 285.802 216.863, 283.083 214.250 C 280.364 211.637, 276.349 207.859, 274.160 205.853 C 268.332 200.511, 266.458 197.358, 268.004 195.495 C 269.392 193.822, 273.097 193.505, 274.550 194.935 C 276.092 196.451, 289.204 201.151, 293 201.548 C 300.552 202.337, 303.633 203.270, 306.912 205.759 L 310.325 208.349 309.569 205.925 C 306.278 195.369, 311.058 192.511, 317.856 200.970 C 320.567 204.344, 321.882 205.073, 327.108 206.101 C 331.521 206.969, 334.527 208.349, 338.019 211.110 C 343.465 215.414, 344.501 217.551, 343.025 221.433 C 341.752 224.781, 341.675 234.681, 342.916 235.448 C 343.420 235.760, 344.923 235.599, 346.257 235.093 C 348.168 234.366, 349.274 234.643, 351.479 236.402 L 354.277 238.632 356.388 236.566 C 357.550 235.430, 359.495 233.825, 360.712 233 C 366.877 228.819, 369.489 201.089, 364.214 195.814 C 363.515 195.115, 363.926 193.200, 365.511 189.778 C 368.560 183.197, 369.485 182.328, 371.582 184.068 C 373.125 185.349, 373.185 184.825, 372.387 176.975 C 371.914 172.314, 371.623 166.363, 371.740 163.750 C 372.879 138.420, 371.918 129.097, 367.951 126.974 C 366.349 126.117, 366.288 126.302, 367.293 128.964 M 352 138.681 C 352 141.836, 349.423 143.588, 347.308 141.872 C 346.377 141.118, 345.915 140.999, 346.280 141.609 C 347.417 143.509, 357.358 149.764, 360.298 150.429 L 363.095 151.062 360.798 147.012 C 357.411 141.043, 352 135.919, 352 138.681 M 385.117 144.500 C 385.091 145.600, 385.714 147.625, 386.500 149 C 388.335 152.210, 388.363 149.489, 386.536 145.500 C 385.473 143.177, 385.152 142.952, 385.117 144.500 M 378.501 155.505 C 378.114 158.802, 377.740 162.175, 377.670 163 C 377.450 165.598, 379.141 184.067, 380.600 195 C 383.029 213.208, 389.097 289.914, 388.337 292.819 C 387.873 294.593, 388.277 294.780, 392.159 294.593 C 394.547 294.477, 397.092 294.826, 397.815 295.368 C 399.225 296.424, 399.008 287.971, 396.933 261.034 C 396.114 250.401, 395.615 248.048, 393.541 245.034 C 392.096 242.933, 390.834 239.270, 390.429 236 C 390.054 232.975, 388.945 229.600, 387.964 228.500 C 385.585 225.832, 384.997 219.264, 384.111 185.500 C 383.439 159.884, 383.199 157.160, 381.291 153.505 L 379.205 149.510 378.501 155.505 M 396 160.378 C 396 169.668, 392.981 173.026, 390.840 166.118 C 390.605 165.358, 390.515 174.453, 390.641 186.330 C 390.832 204.364, 391.154 208.522, 392.592 211.554 C 393.540 213.550, 394.873 217.730, 395.555 220.842 L 396.795 226.500 396.898 221.616 C 396.954 218.930, 396.492 215.038, 395.872 212.968 C 394.949 209.888, 395.022 208.806, 396.272 207.022 C 397.576 205.161, 397.603 204.463, 396.455 202.251 C 395.487 200.384, 395.399 199.123, 396.141 197.736 C 396.953 196.219, 396.705 195.315, 394.970 193.468 C 391.916 190.218, 391.166 182.922, 393.516 179.336 L 395.287 176.632 397.517 179.225 C 400.097 182.225, 401.818 192.309, 400.102 194.377 C 399.359 195.272, 399.376 195.976, 400.160 196.760 C 400.771 197.371, 401.416 199.588, 401.594 201.686 C 401.771 203.784, 402.335 207.525, 402.848 210 L 403.781 214.500 403.890 208.372 C 404.052 199.352, 408.028 197.813, 410.473 205.825 C 411.639 209.647, 411.709 208.117, 410.990 194.463 C 410.416 183.562, 409.877 180.450, 407.696 175.463 C 406.262 172.184, 404.577 167.475, 403.952 165 C 402.510 159.294, 399.029 153, 397.316 153 C 396.347 153, 396 154.945, 396 160.378 M 245 166.826 C 245 168.551, 244.021 170.571, 242.487 172.012 C 239.727 174.605, 240.529 176.923, 243.592 175.208 C 244.818 174.522, 246.680 174.601, 249.535 175.460 C 255.185 177.161, 257.457 174.565, 252.799 171.732 C 251.195 170.756, 249.122 168.620, 248.192 166.985 C 246.065 163.249, 245 163.196, 245 166.826 M 326.080 173.415 C 322.713 176.999, 325.336 182.409, 330.965 183.493 C 332.197 183.730, 333.721 184.322, 334.352 184.807 C 340.239 189.333, 341.901 185.576, 336.960 178.913 C 330.639 170.389, 329.475 169.801, 326.080 173.415 M 185.500 175.511 C 178.518 178.085, 170.894 190.278, 168.368 202.909 C 167.743 206.036, 167.825 206.164, 169.786 205.114 C 175.788 201.903, 183.943 207.885, 187.869 218.381 C 190.787 226.180, 190.582 230, 186.892 236.538 C 182.247 244.768, 177.507 246.190, 170.522 241.451 C 168.456 240.048, 166.481 239.185, 166.133 239.531 C 165.785 239.878, 165.351 245.460, 165.170 251.937 C 164.816 264.551, 167.063 281.052, 171.209 296.271 L 173.326 304.043 175.607 301.900 C 177.534 300.089, 178.595 299.862, 182.444 300.439 C 186.629 301.067, 187 300.951, 187 299.012 C 187 295.822, 184.556 291.766, 181.104 289.225 C 175.108 284.812, 174.470 282.781, 177.357 277.297 C 187.703 257.645, 192.727 244.156, 194.929 230.124 C 196.011 223.230, 201.102 211.211, 203.204 210.589 C 203.917 210.378, 208.171 209.209, 212.657 207.990 L 220.814 205.775 227.496 207.999 C 234.841 210.443, 236.075 210.067, 236.209 205.343 C 236.406 198.428, 221.321 183.346, 208 177.139 C 201.318 174.026, 191.464 173.313, 185.500 175.511 M 272.670 176.417 C 272.371 177.197, 272.810 178.097, 273.645 178.417 C 276.383 179.468, 277.037 179.032, 275.768 177 C 274.294 174.639, 273.416 174.474, 272.670 176.417 M 328 176.441 C 328 177.942, 329.605 179.308, 331.750 179.633 C 333.548 179.906, 333.289 178.571, 331.171 176.655 C 328.923 174.620, 328 174.558, 328 176.441 M 301.500 182.910 C 298.650 183.549, 298.603 183.640, 300.553 184.721 C 302.252 185.663, 302.815 185.526, 303.812 183.930 C 304.475 182.868, 304.901 182.053, 304.758 182.118 C 304.616 182.183, 303.150 182.540, 301.500 182.910 M 234.216 193.976 C 241.647 204.341, 242.208 208.262, 236.833 212.275 C 234.221 214.225, 234.184 214.224, 227.551 212.017 L 220.891 209.801 212.473 212.124 L 204.054 214.446 202.005 219.211 C 200.877 221.832, 199.736 225.444, 199.468 227.238 L 198.982 230.500 200.579 227 C 202.369 223.077, 205.825 219, 207.360 219 C 207.916 219, 209.339 219.909, 210.522 221.021 L 212.673 223.041 216.474 220.021 C 220.788 216.593, 222.197 216.327, 224.075 218.590 C 225.207 219.954, 224.878 220.700, 221.762 223.840 C 210.849 234.839, 211.368 233.989, 210.635 242.073 C 209.899 250.197, 211.452 272.206, 212.950 274.864 C 213.532 275.897, 213.679 272.259, 213.350 265 C 212.422 244.512, 212.368 245.038, 216.204 237 C 219.883 229.289, 223.207 226.318, 226.482 227.810 C 228.613 228.781, 229.527 228.582, 232.632 226.475 C 237.040 223.483, 240.373 223.361, 246.141 225.978 C 252.101 228.683, 253.548 228.506, 255.045 224.891 C 257.848 218.125, 254.126 207.524, 247.154 202.411 C 245.144 200.938, 240.996 197.092, 237.935 193.866 C 230.738 186.279, 228.739 186.338, 234.216 193.976 M 368.755 191.388 C 367.641 193.725, 367.470 195.070, 368.195 195.795 C 369.278 196.878, 370.772 202.669, 371.699 209.382 C 372.012 211.646, 371.570 215.396, 370.639 218.382 C 369.760 221.197, 368.306 225.908, 367.407 228.851 C 366.168 232.907, 365.002 234.656, 362.590 236.079 C 360.840 237.112, 358.370 239.360, 357.102 241.076 L 354.796 244.195 351.648 241.200 C 349.077 238.754, 348.074 238.369, 346.176 239.098 C 339.464 241.676, 335.316 231.190, 339.105 221.225 C 341.027 216.168, 336.543 212.031, 327 210.058 C 322.568 209.141, 320.578 208.013, 316.750 204.248 C 311.549 199.131, 311.189 199.309, 313.658 205.773 C 315.190 209.787, 315.192 210.236, 313.684 211.745 C 312.175 213.254, 311.727 213.143, 307.729 210.272 C 303.580 207.292, 300.625 206.345, 293 205.548 C 289.180 205.149, 276.330 200.519, 274.249 198.792 C 273.535 198.199, 272.629 198.037, 272.235 198.432 C 271.421 199.246, 287.892 214.890, 289.634 214.957 C 290.257 214.980, 292.393 216.800, 294.381 219 C 298.957 224.065, 299.246 224.036, 305.178 217.913 C 309.810 213.133, 310.237 212.914, 312.285 214.273 C 314.389 215.670, 316.380 221.577, 315.323 223.287 C 315.038 223.747, 313.713 224.539, 312.377 225.047 C 308.948 226.350, 308.470 228.511, 310.920 231.626 C 312.485 233.616, 312.878 235.133, 312.437 237.485 C 311.969 239.978, 312.394 241.315, 314.421 243.723 C 315.839 245.409, 317 247.708, 317 248.832 C 317 250.145, 317.625 250.844, 318.750 250.787 C 319.712 250.738, 323.695 252.566, 327.600 254.849 C 331.505 257.132, 335.178 259, 335.761 259 C 337.609 259, 341.907 264.940, 343.002 269.009 C 344.381 274.127, 342.546 278.683, 337.796 281.937 C 334.480 284.210, 329 291.549, 329 293.718 C 329 294.273, 326.769 296.813, 324.043 299.363 C 319.693 303.432, 318.544 304, 314.665 304 C 312.096 304, 309.758 304.586, 309.083 305.400 C 308.124 306.556, 308.549 306.800, 311.521 306.800 C 315.529 306.800, 318.393 308.886, 320.719 313.498 C 321.552 315.149, 323.142 317.493, 324.252 318.708 C 325.872 320.481, 326.142 321.711, 325.623 324.958 C 325.138 327.988, 325.311 329, 326.314 329 C 328.162 329, 332 333.263, 332 335.314 C 332 337.360, 331.655 337.355, 341.500 335.459 C 354.102 333.032, 370.528 332.524, 376.453 334.377 C 379.178 335.230, 381.453 335.831, 381.510 335.713 C 381.567 335.596, 381.295 331, 380.907 325.500 C 380.518 320, 380.151 308.750, 380.091 300.500 C 379.932 278.820, 376.978 232.145, 374.996 220 C 372.914 207.245, 371.729 198.206, 371.555 193.768 C 371.319 187.716, 370.740 187.225, 368.755 191.388 M 240.737 189.692 C 238.634 190.240, 240.701 193.419, 245.691 197.309 L 248.500 199.500 246.235 196.596 C 244.196 193.982, 244.121 193.524, 245.485 192.017 C 248.102 189.125, 246.299 188.241, 240.737 189.692 M 252.339 202.744 C 256.986 208.154, 260.413 215.429, 260.293 219.631 C 260.163 224.227, 256.052 231.284, 253.100 231.978 L 250.701 232.543 253.398 233.771 C 254.881 234.447, 256.502 235, 257 235 C 258.683 235, 262.112 225.542, 262.700 219.277 L 263.284 213.055 255.989 205.777 C 251.976 201.775, 250.334 200.410, 252.339 202.744 M 166 208.240 C 166 208.507, 167.321 210.387, 168.935 212.419 C 170.550 214.450, 172.019 216.556, 172.199 217.097 C 172.389 217.668, 173.913 217.391, 175.821 216.440 C 177.632 215.536, 180.018 215.033, 181.122 215.322 C 183.073 215.832, 183.080 215.771, 181.390 213.173 C 178.191 208.258, 173.748 206.609, 170.034 208.958 C 169.104 209.546, 168.097 209.496, 167.284 208.820 C 166.578 208.234, 166 207.973, 166 208.240 M 407.647 213.070 C 407.279 215.031, 407.854 223.043, 408.938 231.053 C 410.013 238.999, 411.208 250.802, 411.595 257.283 C 412.242 268.140, 413.014 271.405, 414.402 269.159 C 414.699 268.679, 414.500 265.634, 413.961 262.393 C 413.291 258.364, 413.331 254.148, 414.087 249.063 C 414.876 243.760, 414.890 240.028, 414.136 236.063 C 413.554 233.003, 412.543 227.350, 411.889 223.500 C 411.235 219.650, 410.162 214.932, 409.505 213.017 L 408.310 209.533 407.647 213.070 M 389.435 219.250 C 389.823 222.749, 390.807 226.160, 391.671 227 C 393.050 228.340, 393.157 228.286, 392.676 226.500 C 392.380 225.400, 391.625 221.912, 390.998 218.750 C 389.486 211.122, 388.566 211.416, 389.435 219.250 M 276.200 221.200 C 274.133 223.267, 274.842 224.881, 280.250 230.415 C 283.137 233.370, 288.764 239.403, 292.753 243.822 C 300.778 252.712, 305.184 255.689, 307.028 253.467 C 308.626 251.541, 306.892 248.645, 299.793 241.379 C 293.710 235.153, 292.318 233.221, 289.427 227 C 288.533 225.075, 287.101 222.713, 286.245 221.750 C 284.443 219.723, 278.029 219.371, 276.200 221.200 M 178.607 224.582 C 177.497 227.474, 177.978 229, 180 229 C 181.556 229, 182 228.333, 182 226 C 182 222.767, 179.676 221.795, 178.607 224.582 M 204.071 228.750 C 202.857 231.912, 201.408 238.100, 200.852 242.500 C 200.295 246.900, 198.984 252.150, 197.938 254.166 C 196.893 256.182, 195.142 260.103, 194.048 262.878 C 192.954 265.654, 190.100 270.754, 187.705 274.213 C 181.867 282.643, 181.238 283.889, 184.089 281.369 C 187.310 278.523, 195.217 277.352, 196.968 279.462 C 199.015 281.929, 200.995 281.255, 202.536 277.568 C 204.318 273.302, 205.621 272.449, 207.736 274.164 C 208.642 274.899, 209.079 274.991, 208.706 274.369 C 207.400 272.188, 205.979 249.693, 206.638 241.637 C 207.255 234.099, 207.550 233.266, 210.652 230.317 C 213.763 227.360, 215.150 225.171, 213.118 226.427 C 212.632 226.727, 211.099 226.079, 209.710 224.986 C 206.356 222.349, 206.587 222.195, 204.071 228.750 M 280.193 225.831 C 282.238 228.696, 289 234.326, 289 233.163 C 289 232.588, 288.504 231.812, 287.898 231.437 C 287.292 231.062, 286.161 229.236, 285.385 227.378 C 284.306 224.796, 283.374 224, 281.430 224 C 279.156 224, 279.025 224.194, 280.193 225.831 M 416.539 227.088 C 416.843 228.965, 417.567 233.014, 418.148 236.088 C 418.903 240.080, 418.886 243.729, 418.088 248.870 C 417.284 254.053, 417.271 257.934, 418.040 262.753 C 419.279 270.508, 419.410 270.735, 421.590 268.925 C 423.813 267.081, 427.685 271.490, 428.467 276.754 C 428.773 278.814, 429.530 282.300, 430.149 284.500 C 432.544 293.018, 430.836 300.768, 427.223 297.770 C 425.932 296.699, 425.812 296.834, 426.402 298.692 C 427.696 302.767, 431.984 326.319, 432.999 334.923 C 433.555 339.641, 435.555 353.850, 437.442 366.500 C 439.330 379.150, 441.379 393.550, 441.995 398.500 C 442.612 403.450, 443.514 410.650, 443.999 414.500 C 444.485 418.350, 446.104 425.100, 447.597 429.500 C 449.091 433.900, 450.626 440.650, 451.010 444.500 L 451.707 451.500 451.853 445.980 C 451.934 442.944, 451.100 437.212, 450 433.243 C 447.291 423.465, 447.869 407.313, 451.069 403.426 C 451.596 402.785, 451.480 401.880, 450.779 401.179 C 449.586 399.986, 448.427 393.558, 447.355 382.192 C 446.824 376.562, 447.003 375.626, 449.023 373.475 C 451.952 370.358, 451.470 365.852, 446.457 349.500 C 440.293 329.389, 436.865 309.072, 439.168 306.297 C 440.850 304.271, 443.981 307.531, 444.074 311.405 C 444.115 313.107, 444.946 316.300, 445.921 318.500 L 447.693 322.500 447.249 316.500 C 446.976 312.799, 445.730 308.201, 443.998 304.500 C 442.453 301.200, 440.437 295.800, 439.517 292.500 C 438.597 289.200, 436.908 284.925, 435.762 283 C 433.652 279.456, 433.387 278.400, 430.670 262.749 C 429.363 255.216, 428.738 253.650, 426.179 251.497 C 423.545 249.281, 423.070 248, 422.004 240.248 C 421.342 235.437, 420.549 230.825, 420.242 230 C 419.934 229.175, 419.736 228.216, 419.802 227.869 C 419.867 227.522, 419.035 226.437, 417.953 225.457 C 416.027 223.714, 415.997 223.749, 416.539 227.088 M 404.183 231 C 404.146 232.925, 404.488 236.300, 404.943 238.500 C 406.091 244.052, 406.186 238.376, 405.051 232 C 404.304 227.804, 404.246 227.737, 404.183 231 M 220.319 236.750 C 218.812 239.912, 217.396 243.400, 217.172 244.500 C 216.130 249.622, 217.619 275.425, 219.116 278.186 C 219.806 279.459, 220.632 282.075, 220.952 284 C 221.702 288.512, 224.378 288.759, 224.806 284.355 C 225.191 280.384, 227.047 278.838, 234.280 276.463 C 239.664 274.696, 240.230 274.207, 242.530 269.345 C 243.889 266.473, 245 263.929, 245 263.692 C 245 263.146, 238.293 261.406, 230.500 259.929 C 223.390 258.582, 221.761 257.335, 219.953 251.858 C 218.665 247.954, 218.713 247.651, 220.909 245.873 C 222.181 244.843, 224.013 244, 224.980 244 C 226.185 244, 226.910 242.978, 227.284 240.750 C 227.584 238.963, 228.119 236.771, 228.472 235.879 C 229.188 234.075, 226.657 231, 224.458 231 C 223.688 231, 221.826 233.588, 220.319 236.750 M 166.609 233.824 C 166.336 234.265, 167.978 235.835, 170.257 237.313 C 175.243 240.547, 180.458 240.882, 181.965 238.066 C 183.447 235.296, 183.299 235, 180.434 235 C 179.023 235, 177.045 234.559, 176.039 234.021 C 174.706 233.308, 173.872 233.449, 172.964 234.544 C 171.856 235.879, 171.462 235.877, 169.411 234.534 C 168.142 233.702, 166.881 233.383, 166.609 233.824 M 293.993 240.335 C 297.008 244.307, 302 249.338, 302 248.404 C 302 247.861, 299.885 245.410, 297.300 242.958 C 294.715 240.506, 293.227 239.326, 293.993 240.335 M 330.551 242.344 C 327.176 246.769, 327.322 248.308, 331.608 253.435 C 336.272 259.015, 342.025 261.193, 344.996 258.504 C 348.673 255.176, 347.023 251.106, 339.600 245.190 C 338.696 244.470, 338.230 243.437, 338.564 242.896 C 339.428 241.499, 337.096 239, 334.928 239 C 333.924 239, 331.954 240.505, 330.551 242.344 M 228.497 246.004 C 227.503 247.102, 225.860 248, 224.845 248 C 222.707 248, 222.558 248.935, 224.142 252.411 C 225.048 254.402, 226.436 255.142, 230.892 256.011 C 249.328 259.609, 250.229 260.215, 247.553 267.222 C 244.825 274.364, 241.028 278.241, 234.632 280.412 C 230.073 281.961, 229 282.744, 229 284.528 C 229 287.439, 225.338 292, 223 292 C 221.980 292, 220.212 290.814, 219.073 289.365 C 217.630 287.531, 217 287.210, 217 288.309 C 217 290.905, 212.771 294.901, 208.500 296.340 C 200.495 299.038, 205.195 307, 214.794 307 C 218.087 307, 226.486 314.029, 225.776 316.191 C 225.539 316.911, 223.806 318.540, 221.923 319.810 C 217.298 322.931, 217.299 323.229, 221.947 327.830 C 224.176 330.037, 226 332.328, 226 332.922 C 226 334.899, 227.549 334.033, 229.292 331.083 C 230.240 329.478, 231.858 324.059, 232.887 319.040 C 234.507 311.144, 235.315 309.255, 238.890 305.015 C 243.180 299.927, 247 292.302, 247 288.826 C 247 287.722, 248.533 285.027, 250.406 282.838 C 257.398 274.670, 266.759 252.205, 263.906 250.442 C 261.499 248.954, 254.933 249.715, 252.710 251.739 C 245.045 258.716, 233 256.925, 233 248.808 C 233 244.951, 230.729 243.537, 228.497 246.004 M 332.667 244.667 C 330.317 247.016, 333.322 252.113, 338.684 254.875 C 344.677 257.962, 344.453 254.094, 338.307 248.371 C 333.007 243.436, 333.545 243.789, 332.667 244.667 M 250.500 248 C 245.914 251.645, 245.004 251.698, 242 248.500 C 238.820 245.115, 237 245.297, 237 249 C 237 251.895, 237.159 252, 241.566 252 C 246.327 252, 249.126 250.969, 252.500 247.975 C 253.600 246.999, 255.400 245.982, 256.500 245.716 C 258.409 245.254, 258.404 245.227, 256.388 245.116 C 255.226 245.052, 252.576 246.350, 250.500 248 M 194.693 248.353 C 194.263 249.922, 191.680 255.794, 188.955 261.401 C 186.230 267.009, 184 271.973, 184 272.433 C 184 274.332, 188.063 267.912, 190.035 262.898 C 191.203 259.929, 193.053 256.047, 194.147 254.271 C 195.257 252.471, 195.991 249.816, 195.806 248.271 L 195.476 245.500 194.693 248.353 M 266.432 248.125 C 268.855 250.031, 269.062 250.675, 268.438 254.365 C 267.502 259.905, 258.635 277.898, 254.406 282.838 C 252.533 285.027, 251 287.746, 251 288.880 C 251 292.380, 246.412 301.538, 242.477 305.894 C 239.270 309.443, 238.465 311.346, 236.861 319.165 C 234.883 328.811, 230.701 337.234, 227.592 337.838 C 225.683 338.208, 222 335.372, 222 333.532 C 222 332.895, 220.611 331.052, 218.914 329.437 C 212.986 323.796, 213.044 320.580, 219.131 317.432 L 222.202 315.844 219.927 313.422 C 218.542 311.948, 216.525 311, 214.776 311 C 209.200 311, 200 304.536, 200 300.618 C 200 299.513, 201.238 297.289, 202.750 295.675 C 205.101 293.167, 205.183 292.905, 203.316 293.870 C 202.114 294.492, 199.286 295, 197.031 295 C 193.286 295, 193.020 295.168, 193.965 296.934 C 196.811 302.252, 192.623 307.435, 185.449 307.475 C 180.358 307.504, 180.379 307.470, 182.891 311.588 C 184.287 313.878, 186.032 315.016, 189.637 315.988 C 197.953 318.229, 201.156 322.739, 197.063 326.443 C 195.177 328.150, 195.322 328.327, 202.606 333.199 C 206.720 335.951, 210.710 339.170, 211.471 340.351 C 213.200 343.033, 212.078 350.151, 209.474 353.029 C 207.272 355.462, 207.522 355.462, 219.653 353.009 C 236.196 349.665, 242 350.396, 242 355.822 C 242 357.763, 242.273 358.018, 243.373 357.105 C 244.129 356.478, 245.591 356.269, 246.623 356.639 C 247.783 357.055, 247.418 356.437, 245.671 355.021 C 241.797 351.884, 243.705 350.103, 252.116 349.008 C 266.821 347.092, 283.546 336.115, 286.076 326.717 C 287.616 320.999, 287.021 319.619, 282.717 318.919 C 280.649 318.583, 277.925 317.339, 276.664 316.154 C 273.621 313.296, 273.502 313.322, 266.035 318.467 C 258.832 323.431, 256.049 322.998, 256.221 316.943 C 256.266 315.362, 255.812 313.478, 255.212 312.756 C 254.408 311.787, 254.631 310.307, 256.061 307.112 C 257.128 304.730, 258 301.746, 258 300.480 C 258 295.556, 263.434 278.132, 267.803 269.044 C 274.583 254.941, 274.172 246, 266.743 246 L 263.730 246 266.432 248.125 M 406.137 257.326 C 405.387 258.235, 404.374 258.731, 403.887 258.430 C 401.711 257.085, 405.704 307.535, 408.008 310.500 C 408.435 311.050, 409.040 312.400, 409.351 313.500 C 409.663 314.600, 409.664 313.250, 409.355 310.500 C 409.046 307.750, 408.799 297.850, 408.807 288.500 C 408.827 265.256, 407.958 255.119, 406.137 257.326 M 313.072 261.413 C 312.270 262.379, 312.509 263.378, 313.995 265.266 C 316.103 267.947, 316.630 271.945, 315.086 273.550 C 313.557 275.139, 313.442 279.623, 314.885 281.361 C 316.810 283.680, 319.741 283.367, 325.500 280.227 C 334.295 275.431, 332.286 269.323, 319.832 262.994 C 315.261 260.671, 313.944 260.363, 313.072 261.413 M 320 270.441 C 320 271.784, 319.550 273.160, 319 273.500 C 317.718 274.293, 317.689 279, 318.966 279 C 319.497 279, 321.522 278.242, 323.466 277.315 C 327.643 275.323, 328.211 271.962, 324.777 269.557 C 321.603 267.333, 320 267.630, 320 270.441 M 205.457 280.295 C 203.794 284.041, 199.526 285.786, 197.191 283.673 C 195.575 282.210, 194.422 282.057, 190.373 282.770 L 185.500 283.627 189.500 287.383 C 193.174 290.832, 193.867 291.098, 198 290.641 C 209.735 289.343, 210.961 288.443, 209.018 282.555 C 207.555 278.121, 206.671 277.560, 205.457 280.295 M 416.458 299.500 C 418.463 324.723, 424.763 359.668, 429.887 374 C 432.415 381.070, 432.428 379.320, 429.961 364 C 428.855 357.125, 427.292 346.100, 426.489 339.500 C 424.689 324.711, 418.439 294.025, 416.931 292.570 C 416.120 291.788, 415.993 293.652, 416.458 299.500 M 392.874 298.804 C 390.666 299.061, 390.168 299.710, 389.741 302.895 C 389.202 306.912, 389.746 323.256, 390.603 328.812 L 391.114 332.125 393.177 329.502 C 394.414 327.929, 395.838 327.108, 396.732 327.450 C 398.025 327.947, 398.128 326.449, 397.507 316.121 C 396.528 299.826, 396.153 298.424, 392.874 298.804 M 404.668 317 C 404.995 320.575, 405.756 324.400, 406.360 325.500 L 407.456 327.500 407.743 325.500 C 407.901 324.400, 407.140 320.575, 406.052 317 L 404.073 310.500 404.668 317 M 178.782 316.646 C 177.061 318.368, 178.507 324.357, 180.473 323.647 C 181.038 323.443, 183.525 324.717, 186 326.479 C 192.356 331.003, 193.836 331.800, 192.254 329.844 C 191.231 328.580, 191.365 327.979, 193.004 326.497 C 196.410 323.414, 195.524 321.512, 190.026 320.103 C 187.290 319.402, 183.987 317.991, 182.686 316.968 C 180.557 315.293, 180.167 315.261, 178.782 316.646 M 307.954 318.750 C 301.940 324.124, 303.323 332.204, 310.636 334.416 C 313.052 335.147, 318.476 331.227, 319.496 328.013 C 320.591 324.563, 314.949 316, 311.582 316 C 311.279 316, 309.647 317.238, 307.954 318.750 M 400.682 329.618 C 399.682 330.959, 398.332 331.945, 397.682 331.809 C 397.032 331.673, 394.998 333.085, 393.161 334.947 C 390.019 338.133, 389.868 338.600, 390.594 342.916 C 391.019 345.437, 391.412 350.875, 391.468 355 C 391.524 359.125, 392.111 364.975, 392.772 368 C 393.433 371.025, 394.516 378.337, 395.178 384.250 C 395.839 390.163, 396.680 395, 397.044 395 C 397.409 395, 398.952 393.847, 400.472 392.438 C 402.823 390.260, 403.151 389.326, 402.664 386.188 C 400.146 369.934, 401.166 361.993, 405.162 366.754 C 408.373 370.579, 413.209 403.707, 413.410 423.250 C 413.509 432.905, 413.648 433.065, 420 430.850 L 423.299 429.700 422.660 415.100 C 421.952 398.924, 419.556 387.330, 415.485 380.383 C 413.436 376.888, 413 374.827, 413 368.644 C 413 359.008, 411.227 346.076, 409.549 343.470 C 408.830 342.353, 407.667 338.872, 406.965 335.733 C 405.293 328.261, 403.207 326.231, 400.682 329.618 M 445.654 331.791 C 446.257 335.999, 452.828 357.463, 452.913 355.500 C 453.015 353.154, 448.934 337.089, 447.071 332.500 L 445.040 327.500 445.654 331.791 M 183.453 332.601 C 184.626 338.855, 187.245 343.084, 191.192 345.098 C 196.177 347.641, 197.658 347.497, 198.437 344.394 C 199.346 340.774, 197.262 338.008, 189.941 333.120 C 182.468 328.129, 182.616 328.141, 183.453 332.601 M 200.466 337.769 C 203.290 342.037, 203.221 345.784, 200.253 349.203 C 198.916 350.744, 199.038 350.971, 201.543 351.600 C 205.367 352.560, 207.386 350.967, 208.145 346.391 C 208.889 341.907, 208.339 341.018, 202.223 336.809 L 197.831 333.788 200.466 337.769 M 368.226 339.893 C 370.038 341.485, 372.138 344.494, 372.893 346.580 C 374.895 352.118, 371.001 355.519, 361.496 356.537 C 357.828 356.930, 352.728 357.840, 350.163 358.559 C 345.531 359.858, 345.567 359.867, 355.500 359.849 C 362.812 359.836, 366.362 360.271, 368.707 361.467 C 371.623 362.955, 372.129 362.962, 374.298 361.540 C 375.610 360.681, 378.552 359.870, 380.836 359.739 L 384.990 359.500 384.980 351 C 384.970 342.802, 384.264 339.774, 382.388 339.879 C 381.900 339.907, 379.281 339.270, 376.568 338.464 C 373.856 337.659, 370.128 337, 368.284 337 L 364.930 337 368.226 339.893 M 346 342 C 342.333 342.570, 343.197 342.727, 350.661 342.850 C 359.608 342.996, 359.883 343.073, 362.441 346.112 C 364.489 348.547, 364.808 349.526, 363.907 350.612 C 362.548 352.249, 366.480 352.615, 368.910 351.077 C 370.575 350.023, 368.828 344.425, 366.154 342.250 C 364.508 340.911, 353.855 340.779, 346 342 M 413.539 343.454 C 415.214 346.055, 417 358.964, 417 368.471 C 417 374.654, 417.461 376.674, 419.959 381.422 C 421.587 384.516, 423.214 388.624, 423.575 390.550 C 424.108 393.388, 424.495 393.834, 425.616 392.904 C 426.663 392.035, 427.365 392.058, 428.500 393 C 430.684 394.813, 430.343 393.262, 427.486 388.385 C 425.070 384.263, 421.232 369.720, 417.442 350.325 C 415.992 342.905, 415.321 341.175, 413.935 341.280 C 412.450 341.392, 412.397 341.681, 413.539 343.454 M 345.584 349.250 C 346.626 350.488, 347.566 351.657, 347.672 351.850 C 347.779 352.042, 349.359 351.745, 351.183 351.189 C 353.007 350.634, 355.738 349.906, 357.250 349.571 C 362.745 348.354, 359.898 347, 351.845 347 L 343.690 347 345.584 349.250 M 326 351.986 C 319.177 352.582, 311.924 354.080, 287.074 360.021 C 282.439 361.129, 274.958 363.805, 270.449 365.967 C 265.940 368.130, 261.044 370.202, 259.568 370.572 C 258.092 370.943, 256.149 372.428, 255.248 373.873 C 254.348 375.318, 251.777 378.750, 249.535 381.500 C 242.242 390.444, 237.271 397.415, 235.095 401.747 C 232.609 406.698, 231.171 415, 232.800 415 C 233.390 415, 238.953 410.018, 245.162 403.930 C 253.946 395.315, 258.342 391.842, 264.975 388.272 C 275.805 382.445, 284.135 377.588, 290.569 373.347 C 293.357 371.509, 302.132 367.773, 310.069 365.045 C 326.503 359.395, 340.317 353.550, 340.823 352.031 C 341.191 350.926, 338.245 350.917, 326 351.986 M 257.647 356.939 L 248.793 357.500 254.419 360.250 C 261.407 363.666, 262.764 363.667, 270.361 360.257 C 278.976 356.391, 276.498 355.744, 257.647 356.939 M 245 360.372 C 245 361.006, 247.382 366.199, 249.330 369.812 L 251.115 373.123 253.084 370.621 C 254.166 369.244, 256.028 367.809, 257.220 367.430 C 259.197 366.803, 259.040 366.564, 255.444 364.717 C 250.285 362.068, 245 359.869, 245 360.372 M 329 366.026 C 328.175 366.573, 324.350 367.954, 320.500 369.095 C 301.854 374.622, 302 374.476, 302 387.684 C 302 397.205, 301.755 398.542, 299.022 403.956 C 297.385 407.200, 295.585 410.139, 295.022 410.486 C 293.288 411.558, 293.891 415.591, 296.083 417.575 C 298.592 419.846, 301 425.313, 301 428.740 C 301 430.113, 302.350 432.774, 304 434.653 C 306.578 437.589, 307 437.782, 307 436.021 C 307 434.895, 307.537 433.112, 308.194 432.061 C 309.124 430.572, 309.114 429.546, 308.152 427.434 C 307.073 425.066, 307.176 424.442, 308.958 422.545 C 310.081 421.349, 311.008 419.950, 311.018 419.436 C 311.028 418.921, 312.421 416.475, 314.114 414 C 316.998 409.784, 317.162 409.058, 316.712 402.500 C 316.255 395.851, 316.380 395.332, 319.193 392.127 C 321.338 389.684, 321.994 388.114, 321.573 386.434 C 321.253 385.158, 321.515 382.964, 322.156 381.557 C 323.047 379.602, 323.041 378.385, 322.131 376.388 C 320.572 372.967, 322.233 370.504, 324.953 372.203 C 327.332 373.689, 330.207 372.481, 329.814 370.160 C 329.641 369.141, 330.118 367.563, 330.873 366.654 C 332.389 364.827, 331.339 364.474, 329 366.026 M 455.076 369.193 C 455.018 372.791, 454.504 374.234, 452.875 375.375 C 450.628 376.949, 450.606 379.735, 452.735 393.411 C 453.412 397.758, 453.658 398.132, 454.872 396.661 C 456.717 394.428, 458.585 394.569, 460.339 397.073 C 461.317 398.470, 462.022 398.774, 462.497 398.005 C 462.885 397.377, 463.776 397.084, 464.477 397.353 C 465.213 397.635, 464.578 395.420, 462.975 392.110 C 459.666 385.278, 458.041 379.768, 457.929 375 C 457.885 373.075, 457.241 369.925, 456.500 368 L 455.152 364.500 455.076 369.193 M 277 385.431 C 275.075 386.702, 269.675 389.794, 265 392.301 C 255.793 397.239, 247.888 404.288, 249.617 406.017 C 250.984 407.384, 249.555 419.027, 247.543 422.917 C 246.694 424.558, 246 427.203, 246 428.795 C 246 435.277, 240.223 436.347, 237.921 430.291 C 236.223 425.826, 233.554 428.213, 231.488 436.046 C 230.038 441.542, 230.841 446, 233.279 446 C 234.010 446, 236.834 444.566, 239.554 442.813 C 242.331 441.024, 245.529 439.745, 246.846 439.897 C 248.193 440.053, 250.198 439.223, 251.555 437.948 C 252.855 436.727, 256.299 435.065, 259.209 434.254 C 262.119 433.444, 266.584 432.194, 269.130 431.478 C 271.677 430.761, 275.052 429.515, 276.630 428.708 C 278.209 427.901, 281.007 426.916, 282.848 426.519 L 286.196 425.798 283.018 422.519 C 280.019 419.425, 279.901 419.021, 280.914 415.370 C 281.505 413.241, 281.991 410.116, 281.994 408.424 C 281.998 406.460, 282.884 404.519, 284.445 403.052 C 289.820 398.002, 289.516 393.156, 283.538 388.597 C 281.348 386.926, 280.081 385.231, 280.401 384.398 C 281.058 382.686, 281.242 382.630, 277 385.431 M 430.865 387.287 C 431.615 388.219, 432.833 390.673, 433.571 392.741 L 434.912 396.500 434.925 393 C 434.934 390.329, 434.293 389.037, 432.219 387.547 C 430.102 386.025, 429.802 385.968, 430.865 387.287 M 403.422 394 L 400.344 397.500 401.111 413.903 C 401.925 431.330, 402.229 432.253, 407 431.759 C 409.459 431.504, 409.498 431.362, 409.397 423 C 409.340 418.325, 408.665 409.100, 407.897 402.500 L 406.500 390.500 403.422 394 M 472.573 405.123 C 478.522 424.430, 481.200 438.319, 479.939 443.328 C 478.255 450.014, 479.480 450.300, 481.407 443.670 C 483.383 436.875, 483.381 436.273, 481.368 430.876 C 480.471 428.469, 479.408 424.475, 479.007 422 C 477.346 411.746, 474.786 403.620, 472.116 400.123 C 470.522 398.037, 470.578 398.648, 472.573 405.123 M 431.014 402.095 C 431.021 402.868, 431.303 404.530, 431.641 405.790 C 432.220 407.952, 432.358 407.986, 434.108 406.402 C 435.705 404.957, 436.199 404.917, 437.668 406.112 C 439.177 407.339, 439.295 407.288, 438.687 405.668 C 438.309 404.661, 438 403.662, 438 403.450 C 438 403.237, 437.308 403.328, 436.463 403.653 C 435.617 403.977, 434.042 403.443, 432.963 402.466 C 431.457 401.103, 431.003 401.017, 431.014 402.095 M 453.658 407.675 C 453.296 408.037, 453 408.855, 453 409.493 C 453 411.205, 458.747 410.102, 459.456 408.255 C 459.945 406.980, 459.786 406.933, 458.523 407.981 C 457.395 408.917, 456.652 408.956, 455.658 408.131 C 454.920 407.519, 454.020 407.313, 453.658 407.675 M 429.679 411.766 C 429.229 412.463, 428.443 412.774, 427.931 412.457 C 426.610 411.641, 426.801 427.623, 428.171 432.500 C 428.789 434.700, 429.282 438.975, 429.266 442 C 429.250 445.025, 429.452 446.375, 429.715 445 C 430.317 441.845, 431.929 439.838, 433.220 440.636 C 433.844 441.021, 433.940 440.385, 433.477 438.929 C 433.072 437.652, 432.236 430.733, 431.618 423.554 C 430.971 416.033, 430.149 411.037, 429.679 411.766 M 461.123 415.129 C 457.804 418.146, 457.754 418.314, 458.237 424.850 C 459.125 436.864, 462.220 451.004, 463.952 450.964 C 466.654 450.901, 471.357 446.372, 470.645 444.517 C 470.291 443.595, 469.539 438.714, 468.974 433.670 C 467.597 421.369, 465.939 411.993, 465.147 412.029 C 464.791 412.045, 462.980 413.440, 461.123 415.129 M 436.352 428.073 C 436.745 438.803, 437.798 442.153, 439.958 439.551 C 440.966 438.336, 441.584 438.239, 442.656 439.129 C 444.562 440.711, 443.371 437.641, 440.350 433.187 C 439.115 431.364, 437.820 427.764, 437.473 425.187 C 436.387 417.115, 435.988 418.143, 436.352 428.073 M 441.624 426 C 442.310 429.967, 443.974 433.631, 443.894 431 C 443.868 430.175, 443.211 427.925, 442.433 426 L 441.018 422.500 441.624 426 M 399.015 433.844 C 399.060 435.775, 400.884 437.164, 402.319 436.361 C 403.626 435.630, 403.485 435.305, 401.438 434.339 C 400.097 433.706, 399.007 433.483, 399.015 433.844 M 417.947 436.569 C 414.769 440.412, 417.071 453.338, 421.598 457.073 C 423.217 458.408, 423.286 458.089, 422.664 452.103 C 422.299 448.585, 422 444.059, 422 442.044 C 422 436.912, 419.952 434.146, 417.947 436.569 M 409.500 437.457 C 407.850 438.188, 405.294 439.261, 403.819 439.840 C 400.288 441.229, 399.421 446.755, 400.956 458.097 C 402.326 468.215, 402.315 467.944, 401.456 470.750 C 400.740 473.089, 400.858 473.147, 406.830 473.401 C 408.112 473.455, 409.687 474.175, 410.330 475 C 411.213 476.132, 413.128 476.419, 418.141 476.169 C 425.669 475.795, 426 475.314, 426 464.753 C 426 460.365, 425.812 459.911, 424.459 461.034 C 423.162 462.111, 422.357 461.774, 419.374 458.906 C 413.506 453.267, 410.719 444.500, 412.938 438.662 C 414.073 435.678, 413.762 435.569, 409.500 437.457 M 449.100 453.379 C 448.188 454.478, 448.459 454.855, 450.434 455.232 C 452.591 455.644, 452.784 455.465, 451.921 453.853 C 450.734 451.634, 450.571 451.607, 449.100 453.379 M 433.669 454.664 C 433.301 455.032, 432.997 457.396, 432.992 459.917 C 432.981 466.944, 431.072 477.217, 429.261 479.993 L 427.635 482.486 430.068 480.882 C 433.979 478.303, 438.053 469.246, 437.336 464.724 C 436.886 461.892, 437.183 460.456, 438.523 458.974 C 439.798 457.566, 439.930 457, 438.984 457 C 438.254 457, 436.911 456.324, 435.998 455.498 C 435.085 454.672, 434.037 454.297, 433.669 454.664 M 367.146 474.578 C 366.516 475.962, 365.990 478.760, 365.978 480.797 C 365.965 482.924, 365.123 485.564, 364 487 C 360.577 491.376, 362.622 492.658, 367.236 489.029 C 369.646 487.133, 369.805 487.127, 371.371 488.858 C 372.267 489.848, 373.007 492.197, 373.015 494.079 C 373.024 495.960, 373.467 498.175, 374 499 C 374.713 500.103, 374.973 499.417, 374.985 496.405 C 375.014 488.448, 380.100 487.252, 381.619 494.845 C 382.001 496.753, 382.861 498, 383.796 498 C 384.647 498, 386.165 498.745, 387.171 499.655 C 390.323 502.507, 389.740 494.044, 386.580 491.076 C 385.250 489.825, 383.583 487.384, 382.877 485.651 C 381.272 481.713, 379.238 480.073, 375.905 480.032 C 373.053 479.997, 370 477.256, 370 474.730 C 370 472.010, 368.356 471.923, 367.146 474.578 M 398.502 476 C 399.510 479.283, 400.702 479.966, 405.450 479.985 C 409.955 480.002, 409.126 477.896, 404.430 477.396 C 402.974 477.240, 400.872 476.300, 399.758 475.307 C 397.776 473.537, 397.750 473.551, 398.502 476 M 361.084 480 C 360.953 481.375, 360.688 483.346, 360.493 484.381 C 360.256 485.639, 360.471 485.929, 361.142 485.258 C 361.694 484.706, 361.960 482.735, 361.733 480.877 C 361.412 478.251, 361.267 478.056, 361.084 480 M 378.373 506.470 C 378.028 507.370, 378.253 510.632, 378.873 513.720 C 380.577 522.207, 380.206 531.651, 377.841 540 C 374.995 550.046, 374.343 559.209, 376.355 560.879 C 378.397 562.574, 390.718 564.257, 392.752 563.119 C 396.552 560.992, 396.141 547.946, 392.027 540.136 C 390.394 537.036, 388.145 530.225, 387.028 525 C 383.738 509.604, 380.133 501.885, 378.373 506.470 M 366.469 511.034 C 365.432 512.180, 363.648 512.966, 362.443 512.808 C 359.978 512.485, 357 514.572, 357 516.622 C 357 517.393, 355.987 518, 354.700 518 C 350.167 518, 348.480 522.315, 351.829 525.345 C 354.148 527.444, 357.368 527.466, 359.086 525.396 C 360.035 524.252, 361.480 523.935, 364.124 524.290 C 369.083 524.955, 372.615 521.326, 372.546 515.635 C 372.483 510.376, 369.268 507.942, 366.469 511.034 M 274.500 513.504 C 268.120 515.770, 266.940 517.953, 267.430 526.577 C 267.660 530.630, 268.114 534.375, 268.438 534.899 C 268.762 535.424, 268.164 538.248, 267.110 541.176 C 266.056 544.104, 264.910 550.643, 264.564 555.706 C 264.218 560.769, 263.274 566.492, 262.467 568.424 C 260.480 573.180, 260.675 578.686, 263 583.500 C 265.770 589.235, 265.589 593.749, 262.490 596.186 C 261.110 597.272, 260.237 598.574, 260.549 599.080 C 261.455 600.545, 262.635 600.178, 265.923 597.411 C 269.629 594.293, 269.986 589.681, 267 583.500 C 264.675 578.686, 264.480 573.180, 266.467 568.424 C 267.274 566.492, 268.218 560.769, 268.564 555.706 C 268.910 550.643, 270.017 544.207, 271.025 541.404 C 272.406 537.562, 272.647 535.347, 272.007 532.404 C 271.539 530.257, 271.234 526.250, 271.328 523.500 C 271.492 518.733, 271.661 518.448, 274.960 517.382 C 278.102 516.366, 278.592 516.483, 280.298 518.652 C 283.900 523.230, 287.357 524.254, 295.141 523.046 C 298.984 522.450, 302.550 522.222, 303.065 522.540 C 304.469 523.408, 304.192 525.596, 302.500 527 C 301.675 527.685, 301 528.909, 301 529.722 C 301 530.534, 299.369 533.840, 297.376 537.069 C 293.753 542.940, 293.753 542.941, 294.353 551.720 C 295.132 563.127, 296.722 577.806, 297.533 581.091 C 297.884 582.515, 297.468 586.051, 296.608 588.948 C 294.896 594.712, 295.491 597.122, 299.101 599.054 C 302.888 601.081, 304.939 599.199, 301.743 596.629 L 298.985 594.413 300.579 589.047 C 301.455 586.096, 301.884 582.515, 301.533 581.091 C 300.722 577.806, 299.132 563.127, 298.353 551.720 C 297.753 542.941, 297.753 542.940, 301.376 537.069 C 303.369 533.840, 305 530.534, 305 529.722 C 305 528.909, 305.675 527.685, 306.500 527 C 308.674 525.196, 308.363 523.722, 305.160 520.653 C 302.348 517.959, 302.249 517.943, 295.221 519.034 C 287.285 520.265, 285.630 519.785, 281.163 514.960 C 278.555 512.143, 278.417 512.112, 274.500 513.504 M 197.500 516 C 196.594 517.752, 196.078 519.411, 196.353 519.686 C 196.628 519.961, 197.594 518.752, 198.500 517 C 199.406 515.248, 199.922 513.589, 199.647 513.314 C 199.372 513.039, 198.406 514.248, 197.500 516 M 367.232 515 C 366.545 516.100, 364.914 517, 363.607 517 C 362.175 517, 360.579 517.994, 359.592 519.500 C 358.691 520.875, 356.952 522.052, 355.727 522.116 C 353.923 522.210, 353.846 522.322, 355.324 522.704 C 356.328 522.963, 357.962 522.439, 358.956 521.539 C 359.951 520.640, 362.505 519.834, 364.632 519.748 C 368.254 519.603, 368.516 519.384, 368.749 516.297 C 369.041 512.445, 368.902 512.327, 367.232 515 M 351.761 528.715 C 343.593 529.954, 346.103 536.811, 355.750 539.616 C 365.106 542.336, 369.147 537.442, 362.702 531.196 C 359.452 528.046, 358.138 527.748, 351.761 528.715 M 352 532.924 C 349.767 533.611, 350.122 533.879, 355.324 535.439 C 361.506 537.292, 363.095 536.967, 361.364 534.202 C 360.188 532.323, 355.867 531.733, 352 532.924 M 186.587 538.843 C 185.633 540.682, 185.075 542.408, 185.346 542.680 C 186.154 543.488, 189.225 538.174, 188.755 536.782 C 188.510 536.057, 187.568 536.953, 186.587 538.843" stroke="none" fill="#1A1A1A" fill-rule="evenodd"/>
</svg>